<svg id="Layer_2" xmlns="http://www.w3.org/2000/svg" viewBox="0 0 659.69 68.23"><defs><style>.cls-1{fill:#fff}.cls-2{fill:#fbd747}.cls-3{fill:#333}.cls-4{fill:#0c5faa}</style></defs><g id="PC"><path class="cls-1" d="M0 1.06h658.49v66.57H0z"/><path class="cls-4" d="M154.13 65.83h505.56v2.4H154.13z"/><path class="cls-2" d="M150.86 68.09H5.87V0h160.25l-15.26 68.09z"/><path class="cls-3" d="M144.99 68.09H0V0h160.25l-15.26 68.09z"/><path class="cls-2" d="M58.68 48.77h49.69v.92H58.68zm-27.61-4.6h49.69v.92H31.07z"/><path class="cls-1" d="M40.98 26.9c-.05.19-.1.37-.17.59 1.25-1.18 2.39-1.65 3.93-1.65 1.37 0 2.36.41 2.93 1.18.66.91.76 2.17.3 3.86-.84 3.06-3.05 4.9-5.93 4.9-1.49 0-2.47-.51-3-1.59q-.05.2-.12.53c-.01.12-.09.41-.17.71l-.33 1.26c-.26.97-.36 1.5-.46 2.19h-2.38c.29-.77.47-1.33.69-2.17l2.19-8.37c.26-.98.37-1.53.47-2.26h2.28l-.22.83Zm2.87.74c-1.69 0-3.34 1.38-3.81 3.17-.5 1.9.4 3.23 2.17 3.23 1.66 0 3.03-1.23 3.56-3.2.53-1.98-.19-3.2-1.92-3.2Zm5.46 3.27c.86-3.12 3.39-5.13 6.51-5.13s4.5 1.99 3.62 5.09-3.44 5.1-6.46 5.1-4.53-1.95-3.67-5.07Zm2.2 0c-.57 2.05.17 3.31 1.93 3.31s3.21-1.25 3.78-3.28c.61-2.16-.08-3.4-1.89-3.4s-3.24 1.28-3.82 3.37Zm14.63-8.6-.63 2.16h-2.52l.62-2.16h2.53Zm-1.11 3.77c-.27.62-.46 1.18-.76 2.21l-1.52 5.21c-.27.91-.39 1.48-.51 2.17h-2.47c.32-.74.52-1.32.76-2.15l1.51-5.25c.27-.93.4-1.5.49-2.19h2.5Zm-.67 9.58c.31-.71.49-1.22.77-2.15l1.54-5.25c.27-.93.41-1.5.51-2.19h2.33l-.26.89c-.07.25-.09.3-.25.72 1.43-1.31 2.48-1.79 4.02-1.79 1.32 0 2.17.42 2.53 1.25.24.56.21 1.23-.13 2.35l-1.22 4c-.28.91-.43 1.54-.52 2.15h-2.46c.31-.74.51-1.31.77-2.15l1.11-3.7c.21-.7.26-1.16.15-1.48-.14-.44-.58-.69-1.23-.69-1.23 0-2.49.84-3.73 2.5l-1 3.37c-.24.81-.39 1.44-.5 2.15h-2.44Zm18.75-12.2c-.25.59-.53 1.32-.77 2.08l-.16.52h.72c.8 0 1.19-.02 1.76-.1l-.62 1.99c-.54-.08-.86-.1-1.64-.1h-.77l-1.61 5.19c-.25.81-.04 1.11.78 1.11.44 0 .74-.08 1.35-.37l-.24 1.76c-.81.26-1.35.35-2.23.35-1.95 0-2.52-.68-1.98-2.42l1.73-5.62h-.65c-.63 0-.96.02-1.55.1l.61-1.99c.47.08.79.1 1.51.1h.63l.16-.52c.22-.73.4-1.47.52-2.08h2.46Zm3.41 13.97c6.2-3.02 12.27-6.48 17.81-9.72 3.05-1.81 4.34-2.7 5.24-5.33.69-2.04-.84-3.7-3.35-3.7h-3.19c-2.55 0-5.19 1.66-5.85 3.7l-.35 1.07h-6.21l.64-2c1.4-4.4 7.14-8.03 12.78-8.03h5c5.64 0 8.96 3.64 7.44 8.03l-.24.68c-1.26 3.64-2.6 5.69-7.19 8.4-5.38 3.15-11.2 6.38-16.8 9.04h17.28l-1.5 4.35H84.46l2.07-6.49Z"/><path class="cls-3" d="M191.51 25.28c-1.71.27-2.35.37-4.06.57-.44-1.88-.8-2.95-1.54-4.66 3.29-.27 5.8-.67 8.89-1.44 2.18-.54 3.15-.91 4.06-1.44l2.95 4.46q-.17.07-.77.27c-1.31.44-3.02.91-4.46 1.24v3.42h2.08c1.27 0 1.95-.03 2.75-.17v4.93c-.84-.1-1.68-.13-2.85-.13h-1.81c1.78 2.52 2.85 3.59 5.06 5.17-.97 1.64-1.61 2.92-2.28 4.73-1.38-1.31-2.11-2.25-3.05-3.86.07.77.1 1.68.1 2.75v4.53c0 2.15.03 3.05.2 4.39h-5.47c.13-1.38.2-2.41.2-4.39v-3.96q0-1.68.07-2.62c-1.04 2.58-2.08 4.23-3.99 6.21-.91-2.45-1.31-3.32-2.41-5.13 1.31-1.11 2.11-2.08 3.19-3.72 1.01-1.58 1.64-2.82 2.08-4.09h-1.51c-1.24 0-2.08.03-2.95.17v-4.96c.91.13 1.68.17 3.05.17h2.48v-2.41Zm16.4-4.16c-.13 1.24-.17 2.21-.17 4.29v12.41c0 2.05.03 2.98.17 4.09h-5.33c.13-1.01.17-1.71.17-3.96V25.41c0-1.98-.07-3.09-.17-4.29h5.33Zm7.75-2.18c-.17 1.54-.2 2.82-.2 4.9v21.13c0 2.18-.54 3.49-1.74 4.09-.94.5-2.82.74-5.8.74-.57 0-1.11-.03-2.31-.07-.4-2.08-.74-3.22-1.58-5.2 2.11.2 3.15.27 4.59.27s1.78-.17 1.78-1.01V23.84c0-1.58-.07-3.19-.2-4.9h5.47Zm23.4 25.9c0 2.21.03 3.15.17 4.29h-5.37c.13-1.07.2-2.08.2-4.26v-4.73h-6.41c-.47 4.23-1.34 7.08-3.15 10.16-1.88-2.01-2.72-2.72-4.56-3.82 2.55-4.26 3.08-8.08 3.08-22.4 0-1.98-.07-3.32-.17-4.59 1.24.1 2.08.13 3.99.13h19.55c2.08 0 3.08-.03 4.19-.13-.13 1.17-.17 2.11-.17 4.29v21.87c0 3.12-1.27 4.09-5.33 4.09-1.14 0-2.35-.03-3.66-.1-.24-1.78-.54-2.88-1.34-4.83 1.48.13 2.78.2 3.72.2 1.21 0 1.48-.13 1.48-.74v-4.13h-6.24v4.7Zm-10.97-12.61c-.03 1.38-.03 1.74-.1 3.22h6.07v-3.22h-5.97Zm5.97-7.81h-5.9v3.15h5.9v-3.15Zm11.24 3.15v-3.15h-6.24v3.15h6.24Zm-6.24 7.88h6.24v-3.22h-6.24v3.22Zm16.36-12.65c.84.07 1.21.1 2.05.1.91 0 9.93-.23 13.05-.34-.03-2.15-.07-2.58-.23-3.56h5.94c-.13 1.17-.17 1.54-.17 3.42 5.57-.03 8.05-.1 9.39-.23l.03 5.5c-1.51-.13-2.18-.17-6.04-.17-1.78 0-2.01 0-3.35.03v4.96c.97 1.78 1.34 3.35 1.34 5.6 0 3.76-1.95 7.04-5.53 9.29-1.64 1.01-3.55 1.78-6.74 2.72-.94-2.38-1.68-3.62-3.19-5.3 3.39-.5 5.3-1.04 6.91-2.05 1.24-.74 1.95-1.48 2.48-2.65-1.41 1.17-2.55 1.58-4.49 1.58-3.89 0-6.64-2.55-6.64-6.14 0-3.82 3.15-6.44 7.78-6.44 1.07 0 1.84.1 2.62.37v-1.04q0-.47-.03-.8c-6.94.2-12.41.5-14.99.87l-.17-5.73Zm10.43 12.51c0 1.04.94 1.81 2.21 1.81 1.44 0 2.55-.87 2.55-2.01 0-1.04-.87-1.74-2.21-1.74-1.48 0-2.55.8-2.55 1.94Zm27.2-14.89c1.41.17 2.65.23 4.83.23 2.99 0 6.71-.13 10.1-.4 1.48-.1 1.91-.2 2.55-.47l2.75 4.06q-.87.5-5.4 4.39c-1.78 1.51-2.38 2.01-4.63 3.66 1.88-.47 2.85-.6 4.59-.6 3.15 0 5.4.74 7.18 2.28 1.61 1.44 2.45 3.39 2.45 5.8 0 3.39-1.58 6.07-4.63 7.88-2.31 1.34-5.53 2.11-8.89 2.11-5.67 0-9.12-2.25-9.12-5.97 0-3.12 2.78-5.37 6.67-5.37 2.42 0 4.56.94 6 2.58.67.74 1.04 1.41 1.54 2.65 1.81-.8 2.65-1.95 2.65-3.66 0-2.35-2.28-3.79-6-3.79s-7.31 1.11-10.33 3.09c-1.04.67-2.11 1.51-3.22 2.52l-3.12-5.1c3.08-1.44 10.16-6.94 14.32-11.07-1.78.2-3.12.27-7.85.5-.91.03-1.54.1-2.21.17l-.23-5.5Zm8.32 21.87c-.77 0-1.31.44-1.31 1.11 0 .91 1.07 1.48 2.88 1.48.4 0 .47 0 1.11-.1-.44-1.61-1.38-2.48-2.68-2.48Z"/><path class="cls-4" d="M348.99 35.61c1.64 0 2.85-.07 3.92-.17v4.86c-1.07-.13-2.52-.2-4.33-.2h-5.03c2.38 2.05 5.9 3.72 10.4 4.9-1.14 1.74-1.68 2.75-2.58 4.9-2.88-1.14-4.26-1.78-6.2-2.98-2.21-1.38-3.62-2.52-5.17-4.19.03 1.21.07 1.51.07 2.08v2.05c0 1.41.07 2.15.27 3.29h-5.57c.24-1.14.3-1.98.3-3.32v-1.95c0-.64 0-1.04.07-2.01-1.54 1.68-2.75 2.65-4.76 3.92-1.81 1.14-3.15 1.81-5.97 2.95-.8-1.95-1.41-3.02-2.65-4.7 3.96-.97 7.78-2.88 10.03-4.93h-4.7c-1.81 0-3.32.07-4.36.2v-4.86c.77.13 1.54.17 3.02.17h9.32v-.57c0-.77-.07-1.34-.2-2.08h5.37c-.13.7-.17 1.27-.17 2.11v.54h8.92Zm-.23-12.81c-.4.37-.57.54-1.27 1.31-1.48 1.61-2.78 2.75-4.7 4.23 2.95.81 6.37 1.27 11.14 1.54-1.11 1.95-1.41 2.68-2.18 4.96-7.01-1.01-10.6-1.88-14.05-3.56-1.98.94-3.99 1.64-6.47 2.28-2.28.6-2.85.74-7.38 1.34-.44-1.81-.8-2.88-1.61-4.49 4.59-.34 7.61-.84 10.9-1.88-1.14-.87-1.61-1.31-2.75-2.48-1.88 1.24-3.15 1.91-5.23 2.75-.77-1.61-1.41-2.62-2.72-4.16 2.48-.77 4.16-1.58 6.14-2.88 1.84-1.24 3.02-2.28 4.16-3.69l5.84.8c-.67.74-.91 1.01-1.44 1.54h6.04c1.27 0 1.91-.03 2.75-.17l2.85 2.55Zm-14.09 1.51c1.04.91 1.78 1.41 3.22 2.15 1.38-.77 1.88-1.14 3.05-2.15h-6.27Zm37.12 5.47c-.84 1.91-1.34 2.82-2.45 4.56-1.34-1.48-2.28-2.31-3.79-3.35v15.29c0 1.51.03 2.21.2 3.86h-5.53c.17-1.71.2-2.31.2-3.86v-8.15q0-.84.07-3.42c-.67 1.04-.97 1.41-2.05 2.48-.57-3.05-.87-4.13-1.71-6.2 2.15-2.31 3.82-5.1 5.17-8.65.67-1.84.84-2.38 1.14-4.19l5.23 1.44q-1.51 4.29-2.72 6.98v4.02c2.18-3.39 3.59-6.98 3.96-10.2l4.96 1.14c-.13.5-.47 1.68-.97 3.45h1.95v-2.55c0-1.78-.03-2.62-.2-3.66h5.6c-.17 1.14-.2 1.84-.2 3.72v2.48h3.49c1.74 0 2.78-.07 3.79-.2v5.16c-1.81-.13-2.62-.17-3.79-.17h-3.49v5.4h4.12c1.74 0 2.85-.07 3.99-.2v5.23c-1.17-.13-2.28-.2-3.92-.2h-4.19v5.9c0 2.15.03 2.95.2 4.23h-5.6c.17-1.21.2-2.11.2-4.23v-5.9h-4.8c-1.78 0-2.95.07-4.06.2v-5.23c1.11.13 2.28.2 4.02.2h4.83v-5.4h-3.66Zm30.38-9.7c-.3.67-.64 1.81-.97 3.32-1.04 4.56-1.51 8.38-1.61 13.01l2.58.87c-1.04 3.25-1.41 5.97-1.41 10.23 0 .17.03.6.1 1.34l-5.67.23q-.03-.6-.27-2.65c-.6-4.7-.74-6.54-.74-10.16 0-4.73.3-7.68 1.34-13.55.27-1.51.4-2.42.4-2.92v-.17l6.24.44Zm1.21 5.47c1.38.34 3.72.54 6.27.54.7 0 1.27 0 2.41-.03V21.7c0-.8-.07-1.38-.17-1.88l5.8-.03c-.17 1.07-.27 2.55-.27 5.87 2.05-.23 4.06-.64 5.33-1.04l.2 5.33c-.44.03-.54.07-1.24.2-1.04.23-2.55.44-4.23.64.03 2.62.07 3.29.3 7.14 2.31 1.04 3.52 1.71 5.4 3.05.17.13.33.23.64.4l-2.11 5.7c-.77-.94-2.08-1.98-3.99-3.19v.27c0 2.85-2.92 4.76-7.21 4.76-4.93 0-7.85-2.35-7.85-6.24 0-2.01.91-3.76 2.55-4.93 1.27-.91 3.05-1.38 5.17-1.38.7 0 1.21.07 1.95.2-.03-.94-.03-1.11-.1-2.68-.03-1.14-.03-1.61-.07-2.78-.77.03-1.24.03-1.91.03-1.01 0-2.95-.07-5.77-.17-.4-.03-.67-.03-.77-.03h-.4l.07-5.4Zm9.06 15.96c-.84-.3-1.34-.4-2.05-.4-1.54 0-2.48.6-2.48 1.54 0 .87.87 1.44 2.21 1.44 1.61 0 2.35-.6 2.35-1.95l-.03-.64Zm23.94-1.87c.07-.54.07-.57.07-1.54 0-2.31.4-3.66 1.48-4.96.81-.94 1.07-1.14 3.46-2.58 1.64-.97 2.18-1.68 2.18-2.78 0-1.58-1.17-2.52-3.19-2.52-1.51 0-2.62.54-3.25 1.58-.33.54-.47 1.01-.6 2.05l-6.91-.64c.34-2.41.87-3.72 2.15-5.13 1.95-2.21 4.93-3.35 8.79-3.35 6.17 0 10.03 2.92 10.03 7.55 0 2.05-.67 3.62-2.08 4.93-.8.74-1.14.97-4.06 2.78-1.41.91-1.91 1.78-1.91 3.32 0 .4.03.77.1 1.31h-6.24Zm6.51 2.28v6.34h-6.74v-6.34h6.74Z"/></g></svg>