<svg id="Layer_2" xmlns="http://www.w3.org/2000/svg" viewBox="0 0 980.77 74"><defs><style>.cls-1{fill:#fff}.cls-2{fill:#fbd747}.cls-4{fill:#0c5faa}</style></defs><g id="PC"><path class="cls-1" d="M.77 0h980v74H.77z"/><path class="cls-4" d="M137.77 70h843v4h-843z"/><path class="cls-2" d="M163.95 74H6.38V0h174.15l-16.58 74z"/><path class="cls-4" d="M157.57 74H0V0h174.16l-16.59 74zm50.15-48.31c-.7.64-1.14.97-2.38 1.91-1.07-1.58-1.84-2.48-3.22-3.59 2.85-1.91 4.59-3.56 5.9-5.53.33-.5.57-.97.77-1.48l5.37.87q-.27.34-.6.91c-.2.37-.5.8-.8 1.24h15.56c2.01 0 3.15-.07 4.29-.2v5.03c-1.04-.13-1.74-.17-2.99-.2v3.09h.91c1.71 0 2.28-.03 3.32-.17v5.03c-1.01-.13-1.68-.17-3.32-.17h-.91v3.19h.27c1.71 0 2.45-.03 3.19-.13v4.93c-.87-.13-1.51-.17-3.15-.17 1.48 1.78 1.84 2.31 3.99 6.04l-4.56 2.82c-1.24-2.95-2.18-4.7-3.99-7.38l3.08-1.48h-21.1l3.56 1.74c-1.38 3.39-2.28 4.96-4.29 7.31l-4.13-3.15c1.88-1.88 2.82-3.29 3.96-5.9h-.27c-1.31 0-1.98.03-2.82.17v-4.96c.91.13 1.68.17 3.32.17h.67v-3.19h-1.17c-1.61 0-2.28.03-3.32.17v-5.03c1.04.13 1.61.17 3.32.17h1.54V25.7Zm4.26 23.48c.07-.91.07-1.17.07-1.81 0-2.21-.1-3.89-.3-5.9l4.66-.44c.54 3.45.7 5.13.77 7.78l-5.2.37Zm-.07-21.43h1.54v-3.09h-1.54v3.09Zm0 7.88h1.54v-3.19h-1.54v3.19Zm5.8-7.88h1.58v-3.09h-1.58v3.09Zm0 7.88h1.58v-3.19h-1.58v3.19Zm2.21 13.45c-.47-3.29-.77-5-1.44-7.38l4.66-.97c.97 2.92 1.44 4.63 1.95 7.31l-5.17 1.04Zm5.2-21.33v-3.09h-1.61v3.09h1.61Zm0 7.88v-3.19h-1.61v3.19h1.61Zm18.75-11.28c-1.71.27-2.35.37-4.06.57-.44-1.88-.8-2.95-1.54-4.66 3.29-.27 5.8-.67 8.89-1.44 2.18-.54 3.15-.91 4.06-1.44l2.95 4.46q-.17.07-.77.27c-1.31.44-3.02.91-4.46 1.24v3.42h2.08c1.27 0 1.95-.03 2.75-.17v4.93c-.84-.1-1.68-.13-2.85-.13h-1.81c1.78 2.52 2.85 3.59 5.06 5.17-.97 1.64-1.61 2.92-2.28 4.73-1.38-1.31-2.11-2.25-3.05-3.86.07.77.1 1.68.1 2.75v4.53c0 2.15.03 3.05.2 4.39h-5.47c.13-1.38.2-2.41.2-4.39v-3.96q0-1.68.07-2.62c-1.04 2.58-2.08 4.23-3.99 6.21-.91-2.45-1.31-3.32-2.41-5.13 1.31-1.11 2.11-2.08 3.19-3.72 1.01-1.58 1.64-2.82 2.08-4.09h-1.51c-1.24 0-2.08.03-2.95.17v-4.96c.91.13 1.68.17 3.05.17h2.48v-2.41Zm16.4-4.16c-.13 1.24-.17 2.21-.17 4.29v12.41c0 2.05.03 2.98.17 4.09h-5.33c.13-1.01.17-1.71.17-3.96V24.47c0-1.98-.07-3.09-.17-4.29h5.33Zm7.75-2.18c-.17 1.54-.2 2.82-.2 4.9v21.13c0 2.18-.54 3.49-1.74 4.09-.94.5-2.82.74-5.8.74-.57 0-1.11-.03-2.31-.07-.4-2.08-.74-3.22-1.58-5.2 2.11.2 3.15.27 4.59.27s1.78-.17 1.78-1.01V22.89c0-1.58-.07-3.19-.2-4.9h5.47Zm4.45 27.51c1.68-2.38 2.38-4.02 3.15-7.18l4.66 1.71c-1.01 3.76-1.78 5.7-3.49 8.62l-4.33-3.15Zm7.55-7.81c-1.78 0-2.72.03-3.66.1.1-1.14.13-1.98.13-3.99v-9.79c0-1.88-.03-2.95-.13-4.02 1.07.1 2.11.13 4.23.13h3.96c.5-1.14.7-1.74 1.01-2.88l5.77.37q-.17.37-.64 1.38-.34.74-.54 1.14h6.37c2.11 0 3.15-.03 4.23-.13-.1 1.04-.13 2.08-.13 4.02v9.79c0 2.11.03 2.88.13 3.99-.94-.07-1.95-.1-3.66-.1h-5.37c.67.74 1.54 1.84 2.62 3.25l-1.51.84c1.41.57 2.75.94 4.49 1.17-.37 2.88-.6 3.79-1.24 4.46-1.01 1.01-3.12 1.41-7.85 1.41-6.07 0-7.21-.57-7.21-3.69v-4.06c0-1.11-.03-1.54-.17-2.45h5.33c-.1.74-.13 1.24-.13 2.45v2.35c0 .84.3.97 2.38.97 3.66 0 3.76-.07 3.79-2.25l-2.21 1.24c-.94-1.54-2.05-2.95-3.35-4.33l3.02-1.38h-9.66Zm1.51-12.71h14.05v-1.17h-14.05v1.17Zm0 4.53h14.05v-1.24h-14.05v1.24Zm0 4.53h14.05v-1.24h-14.05v1.24Zm18.28 14.09c-1.04-2.85-2.18-5-4.06-7.85l4.33-1.91c2.15 2.88 3.12 4.49 4.46 7.35l-4.73 2.41ZM329.92 39c-.54 5.2-1.38 7.65-3.59 10.6-1.01-1.34-1.84-2.25-3.02-3.29-1.14.84-1.74 1.41-2.72 2.42-1.64-1.98-2.15-2.75-3.72-5.63l3.09-1.78h-6.37l3.05 1.84c-1.74 2.92-2.78 4.23-5.13 6.44-1.21-1.64-1.68-2.11-3.55-3.66 2.05-1.61 3.08-2.72 4.36-4.63h-1.64c-1.38 0-1.84.03-2.48.1v-4.63c.6.1 1.01.13 2.25.13v-11.6c-1.01 0-1.51.03-2.01.1v-4.63c.54.1 1.04.13 2.01.13v-.5c0-1.07-.03-1.74-.13-2.48h5c-.1.77-.13 1.38-.13 2.48v.5h3.15v-.5c0-1.11-.03-1.78-.13-2.48h5c-.1.7-.13 1.38-.13 2.48v.5c.91-.03 1.17-.07 1.74-.13v4.63c-.54-.07-.8-.07-1.74-.1v11.6c.64-.03.87-.07 1.34-.13v4.63c-.6-.07-1.17-.1-2.55-.1h-.94c.84 1.38 1.38 2.11 2.42 3.22 1.84-2.82 2.28-6.57 2.28-20.32 0-2.95-.03-4.06-.2-5.53 1.34.13 2.18.17 4.19.17h5.1c2.11 0 2.98-.03 4.02-.17-.1.94-.13 1.95-.13 4.12v21.87c0 1.95-.5 3.19-1.54 3.86-.81.47-2.11.7-4.33.7-.33 0-.84 0-1.51-.03-.27-2.01-.54-3.15-1.21-5.06 1.41.17 1.95.23 2.45.23 1.01 0 1.21-.1 1.21-.67V39h-3.72Zm-11.6-12.27v-1.41h-3.15v1.41h3.15Zm0 5.06v-1.48h-3.15v1.48h3.15Zm0 5.13v-1.54h-3.15v1.54h3.15Zm12.04-5.7c-.03 1.64-.03 2.11-.1 3.32h3.39v-3.32h-3.29Zm3.29-7.61h-3.25v3.12h3.25v-3.12Zm15.78 20.93c0 2.15.07 3.52.2 4.49h-5.4c.13-1.07.2-2.21.2-4.53V22.33c0-1.88-.03-2.78-.13-3.86.97.1 1.78.13 3.39.13h7.04c1.81 0 2.55-.03 3.42-.13-.07 1.01-.1 1.78-.1 3.09v6.1c0 1.81 0 2.15.07 2.92-.74-.03-1.74-.07-2.75-.07h-5.94v14.02Zm0-21.23h3.99v-1.17h-3.99v1.17Zm0 3.96h3.99v-1.21h-3.99v1.21ZM366.2 43.2v.84c.3.03.5.03.57.03 1.81 0 1.88-.03 1.88-.77V30.56h-6.24c-.91 0-2.05.03-2.75.07.07-.91.07-1.21.07-2.95v-6.1c0-1.24-.03-2.08-.1-3.09.97.1 1.68.13 3.42.13h7.31c1.64 0 2.42-.03 3.39-.13-.1 1.14-.13 2.01-.13 3.79v21.83c0 3.99-1.01 4.76-6.1 4.76-.44 0-.54 0-2.52-.07-.2-1.41-.27-1.91-.5-2.88h-8.08v1.41h-4.76c.1-1.04.13-2.25.13-3.56v-8.96c0-1.17-.03-2.05-.1-2.85.91.07 1.71.1 2.92.1h8.79c1.27 0 2.01-.03 2.92-.1-.07.77-.1 1.58-.1 2.85v8.38Zm-9.79-5.94h5.17v-1.34h-5.17v1.34Zm0 4.73h5.17v-1.38h-5.17v1.38Zm8.02-18.68h4.23v-1.17h-4.23v1.17Zm0 3.96h4.23v-1.21h-4.23v1.21Z"/><path d="M379.95 29.38q1.17-.13 3.86-.64c4.63-.94 7.82-1.34 10.53-1.34 3.29 0 5.53.64 7.35 2.08 1.81 1.44 2.78 3.66 2.78 6.34 0 5.13-3.32 8.95-9.29 10.77-2.31.7-2.92.8-7.61 1.34-.4-2.08-.8-3.19-2.05-5.37 3.15 0 5.63-.34 8.15-1.11 2.28-.7 4.13-2.08 4.8-3.62.27-.57.4-1.27.4-1.98 0-2.11-1.78-3.35-4.83-3.35-2.25 0-5.03.4-8.79 1.24-2.25.5-2.98.7-4.19 1.17l-1.11-5.53Zm29.14-7.68c.57.03 1.01.03 1.27.03.87 0 2.08-.07 5.74-.3 5.23-.34 7.68-.47 17.91-.84 2.78-.1 3.09-.13 3.69-.27l.3 6.07c-.47-.07-.6-.07-.94-.07-2.35 0-5.37.91-7.68 2.35-3.35 2.05-5.33 4.9-5.33 7.65 0 1.91.91 3.22 2.82 4.13 1.38.67 4.23 1.21 6.41 1.21.33 0 .54 0 1.01-.07l-.77 6.41c-.47-.1-.64-.1-1.24-.17-3.82-.37-6.34-.91-8.49-1.88-3.96-1.84-6-4.93-6-9.19 0-2.78.94-5.3 2.85-7.58.87-1.07 1.68-1.74 3.29-2.85l-11.6 1.04c-1.31.13-1.64.17-2.88.44l-.33-6.1Zm47.19-3.26c-.2.6-.23.6-.64 2.68-.17.8-.24 1.11-.4 1.88 2.15-.23 3.59-.47 4.66-.8l.1 5.43q-.8.07-2.48.27c-.91.1-2.75.27-3.59.34-1.21 3.96-2.08 6.27-3.66 9.73-.71 1.54-1.01 2.15-2.31 4.76q-.44.84-.64 1.31l-5.47-2.98c2.38-3.19 4.7-7.95 6.21-12.68h-1.88q-.77 0-1.54-.03h-1.31v-5.37c1.27.23 2.82.33 4.9.33.37 0 .54 0 1.21-.03q.03-.27.3-1.41c.27-1.14.47-2.78.5-3.99l6.04.57Zm14.42 28.27c-1.24-1.44-2.52-2.52-4.33-3.66-.1 1.58-.5 2.55-1.41 3.49-1.31 1.31-3.66 2.08-6.34 2.08s-4.96-.81-6.34-2.21c-1.11-1.14-1.68-2.58-1.68-4.16 0-3.89 3.25-6.61 7.92-6.61.7 0 1.24.03 2.35.2-.1-1.27-.13-1.91-.13-2.68 0-1.38.07-2.45.2-3.96l5.53.23c-.27 1.17-.37 2.18-.37 3.79 0 1.21.07 2.21.27 3.89 2.05.91 3.62 1.81 5.16 2.98.1.07.64.5 1.64 1.31l-2.48 5.3Zm-12.01-6.31c-1.58 0-2.58.67-2.58 1.71 0 .97.94 1.61 2.38 1.61 1.68 0 2.55-.74 2.55-2.15 0-.23-.03-.7-.07-.74-.91-.34-1.48-.44-2.28-.44Zm12.34-9.42c-3.15-1.98-6.44-3.49-10.43-4.83l2.78-4.63c4.23 1.51 6.98 2.72 10.09 4.53l-2.45 4.93Zm15.83-11.5c-1.31 3.82-2.31 10.1-2.55 16.2l2.58.87c-.87 3.02-1.31 6.04-1.31 9.39 0 .64 0 .94.1 1.64l-5.77.27c-.03-.64-.03-.91-.17-1.78-.64-4.49-.87-7.41-.87-10.6 0-3.86.4-8.08 1.27-12.91.4-2.35.44-2.58.5-3.59l6.2.5Zm9.26 14.66c-1.54 1.98-2.25 3.42-2.25 4.63 0 1.54 1.51 2.38 4.36 2.38s5.8-.47 8.35-1.38l.34 5.94q-.87.1-2.85.4c-1.81.27-3.89.44-5.8.44-3.12 0-5.2-.44-6.94-1.41-1.88-1.07-3.09-3.15-3.09-5.33 0-1.64.57-3.49 1.61-5.23.47-.77.67-1.11 1.58-2.42l4.7 1.98Zm-6.57-12.11c1.58.34 3.35.5 5.97.5 4.46 0 7.75-.27 9.99-.84l.24 5.73c-.3 0-.64.03-2.48.23-2.31.23-4.76.37-7.08.37-2.05 0-3.72-.07-5.77-.27-.27-.03-.5-.03-.97-.07l.1-5.67ZM520.2 38.7c.07-.54.07-.57.07-1.54 0-2.31.4-3.66 1.48-4.96.81-.94 1.07-1.14 3.46-2.58 1.64-.97 2.18-1.68 2.18-2.78 0-1.58-1.17-2.52-3.19-2.52-1.51 0-2.62.54-3.25 1.58-.33.54-.47 1.01-.6 2.05l-6.91-.64c.34-2.41.87-3.72 2.15-5.13 1.95-2.21 4.93-3.35 8.79-3.35 6.17 0 10.03 2.92 10.03 7.55 0 2.05-.67 3.62-2.08 4.93-.8.74-1.14.97-4.06 2.78-1.41.91-1.91 1.78-1.91 3.32 0 .4.03.77.1 1.31h-6.24Zm6.51 2.28v6.34h-6.74v-6.34h6.74Z" style="fill:#333"/><path class="cls-1" d="M43.06 29.28c-.04.2-.08.4-.14.64 1.27-1.28 2.46-1.79 4.13-1.79 1.49 0 2.59.44 3.28 1.28.79.99 1 2.35.63 4.19-.66 3.32-2.92 5.32-6.04 5.32-1.62 0-2.72-.56-3.38-1.72q-.04.22-.09.58c0 .13-.07.45-.13.77l-.26 1.36c-.2 1.05-.27 1.63-.32 2.37h-2.58c.25-.84.4-1.44.57-2.36l1.71-9.08c.2-1.06.28-1.66.33-2.45h2.47l-.17.9Zm3.17.8c-1.84 0-3.51 1.49-3.88 3.44-.39 2.06.69 3.5 2.61 3.5 1.8 0 3.19-1.33 3.61-3.47s-.47-3.47-2.34-3.47Zm6.19 3.55c.68-3.38 3.27-5.56 6.65-5.56s5.04 2.16 4.33 5.52c-.71 3.34-3.32 5.53-6.59 5.53s-5.07-2.12-4.39-5.5Zm2.38 0c-.45 2.22.45 3.59 2.36 3.59s3.38-1.35 3.84-3.56c.49-2.34-.36-3.69-2.32-3.69s-3.42 1.39-3.88 3.66Zm15.17-9.33-.51 2.34h-2.74l.5-2.34h2.74Zm-.9 4.08c-.24.68-.41 1.28-.65 2.39l-1.22 5.66c-.21.99-.31 1.6-.38 2.36h-2.68c.28-.81.45-1.44.65-2.34l1.22-5.69c.21-1 .31-1.63.36-2.38h2.71Zm.05 10.41c.28-.77.44-1.33.66-2.34l1.25-5.69c.22-1 .32-1.63.37-2.38h2.53l-.21.97c-.06.27-.07.33-.21.79 1.45-1.43 2.55-1.94 4.22-1.94 1.43 0 2.39.46 2.85 1.35.31.6.33 1.33.05 2.55l-.99 4.34c-.23.99-.35 1.67-.39 2.34h-2.66c.27-.81.45-1.42.66-2.34l.91-4.02c.17-.76.19-1.26.05-1.6-.19-.47-.68-.75-1.39-.75-1.33 0-2.63.91-3.84 2.71l-.81 3.65c-.2.88-.31 1.57-.37 2.34h-2.65Zm19.34-13.24c-.23.64-.47 1.43-.66 2.26l-.13.57h.78c.87 0 1.29-.02 1.9-.11l-.51 2.16c-.59-.09-.94-.11-1.79-.11h-.83l-1.32 5.62c-.21.88.05 1.21.93 1.21.48 0 .79-.09 1.44-.4l-.12 1.91c-.86.29-1.43.38-2.39.38-2.11 0-2.79-.74-2.35-2.62l1.42-6.09h-.7c-.69 0-1.04.02-1.67.11l.5-2.16c.52.09.87.11 1.65.11h.69l.13-.57c.18-.79.32-1.6.4-2.26h2.66Zm15.39-4.91 6.39-6.09h8.35l-8.55 32.57h-6.97l6.76-26.48h-5.98Z"/><path class="cls-2" d="M63.77 53h54v1h-54zm-30-5h54v1h-54z"/></g></svg>