<svg id="Layer_2" xmlns="http://www.w3.org/2000/svg" viewBox="0 0 608 173"><defs><style>.cls-2{fill:#fff}.cls-7{fill:#0c5faa}</style></defs><g id="PC"><path style="fill:none" d="M0 0h608v173H0z"/><path style="fill:#edd04d" d="M570.07 105h-522l12-26.59-12-29.41h522l-12 28 12 28z"/><path class="cls-7" d="M571.59 106H46.52l12.46-27.61L46.58 48h525.01l-12.43 29 12.43 29Zm-521.97-2h518.94l-11.57-27 11.57-27h-519l11.6 28.43L49.62 104Z"/><path class="cls-2" d="M514.71 97.4H103.4L86.37 24.95h445.37L514.71 97.4z"/><path class="cls-7" d="M515.5 98.4H102.61l-17.5-74.45h447.9l-17.5 74.46Zm-411.31-2h409.72l16.56-70.46H87.63l16.56 70.46Z"/><path class="cls-7" d="M150.39 51.37c-.94.85-1.52 1.3-3.18 2.55-1.43-2.1-2.46-3.31-4.29-4.79 3.8-2.55 6.13-4.74 7.87-7.38.45-.67.76-1.3 1.03-1.97l7.16 1.16q-.36.45-.8 1.21c-.27.49-.67 1.07-1.07 1.66h20.76c2.68 0 4.21-.09 5.73-.27v6.71c-1.39-.18-2.33-.22-3.98-.27v4.12h1.21c2.28 0 3.04-.05 4.43-.22v6.71c-1.34-.18-2.24-.22-4.43-.22h-1.21v4.25h.36c2.28 0 3.27-.04 4.25-.18v6.58c-1.16-.18-2.01-.22-4.21-.22 1.97 2.37 2.46 3.09 5.32 8.05l-6.08 3.76c-1.66-3.94-2.91-6.26-5.32-9.84l4.12-1.97h-28.14l4.74 2.33c-1.83 4.52-3.04 6.62-5.73 9.75l-5.5-4.2c2.51-2.51 3.76-4.38 5.28-7.87h-.36c-1.74 0-2.64.05-3.76.22v-6.62c1.21.18 2.24.22 4.43.22h.89v-4.25h-1.57c-2.15 0-3.04.04-4.43.22v-6.71c1.39.18 2.15.22 4.43.22h2.06v-2.73Zm5.68 31.32c.09-1.21.09-1.57.09-2.42 0-2.95-.13-5.19-.4-7.87l6.22-.58c.72 4.61.94 6.84 1.03 10.38l-6.93.49Zm-.09-28.59h2.06v-4.12h-2.06v4.12Zm0 10.51h2.06v-4.25h-2.06v4.25Zm7.74-10.51h2.1v-4.12h-2.1v4.12Zm0 10.51h2.1v-4.25h-2.1v4.25Zm2.95 17.94c-.63-4.38-1.03-6.67-1.92-9.84l6.22-1.3c1.3 3.89 1.92 6.17 2.6 9.75l-6.89 1.39Zm6.93-28.45v-4.12h-2.15v4.12h2.15Zm0 10.51v-4.25h-2.15v4.25h2.15Zm27.26-15.03c-2.28.36-3.13.49-5.41.76-.58-2.51-1.07-3.94-2.06-6.22 4.38-.36 7.74-.89 11.85-1.92 2.91-.72 4.21-1.21 5.41-1.92l3.94 5.95q-.22.09-1.03.36c-1.74.58-4.03 1.21-5.95 1.66v4.56h2.77c1.7 0 2.6-.04 3.67-.22v6.58c-1.12-.13-2.24-.18-3.8-.18h-2.42c2.37 3.36 3.8 4.79 6.76 6.89-1.3 2.19-2.15 3.89-3.04 6.31-1.83-1.75-2.82-3-4.07-5.15.09 1.03.13 2.24.13 3.67v6.04c0 2.86.04 4.07.27 5.86h-7.29c.18-1.83.27-3.22.27-5.86v-5.28q0-2.24.09-3.49c-1.39 3.44-2.77 5.64-5.32 8.28-1.21-3.27-1.74-4.43-3.22-6.84 1.74-1.48 2.82-2.77 4.25-4.97 1.34-2.1 2.19-3.76 2.77-5.46h-2.01c-1.66 0-2.77.05-3.94.22v-6.62c1.21.18 2.24.22 4.07.22h3.31v-3.22Zm21.88-5.55c-.18 1.66-.22 2.95-.22 5.73v16.55c0 2.73.05 3.98.22 5.46h-7.11c.18-1.34.22-2.28.22-5.28V49.76c0-2.64-.09-4.12-.22-5.73h7.11Zm10.33-2.91c-.22 2.06-.27 3.76-.27 6.53v28.18c0 2.91-.72 4.65-2.33 5.46-1.25.67-3.76.98-7.74.98-.76 0-1.48-.05-3.09-.09-.54-2.77-.98-4.29-2.1-6.93 2.82.27 4.21.36 6.13.36s2.37-.22 2.37-1.34V47.65c0-2.1-.09-4.25-.27-6.53h7.29Zm8.19 36.69c2.24-3.18 3.18-5.37 4.21-9.57l6.22 2.28c-1.34 5.01-2.37 7.6-4.65 11.5l-5.77-4.21Zm10.07-10.42c-2.37 0-3.62.05-4.88.13.13-1.52.18-2.64.18-5.32V49.14c0-2.51-.04-3.94-.18-5.37 1.43.13 2.82.18 5.64.18h5.28c.67-1.52.94-2.33 1.34-3.85l7.7.49q-.22.49-.85 1.83-.45.98-.72 1.52h8.5c2.82 0 4.2-.05 5.64-.18-.13 1.39-.18 2.77-.18 5.37v13.06c0 2.82.05 3.85.18 5.32-1.25-.09-2.59-.13-4.88-.13h-7.16c.89.98 2.06 2.46 3.49 4.34l-2.01 1.12c1.88.76 3.67 1.25 5.99 1.57-.49 3.85-.81 5.06-1.66 5.95-1.34 1.34-4.16 1.88-10.47 1.88-8.1 0-9.62-.76-9.62-4.92v-5.41c0-1.48-.04-2.06-.22-3.27h7.11c-.13.98-.18 1.66-.18 3.27v3.13c0 1.12.4 1.3 3.18 1.3 4.88 0 5.01-.09 5.06-3L264.66 75c-1.25-2.06-2.73-3.94-4.47-5.77l4.03-1.83h-12.88Zm2.01-16.96h18.74v-1.57h-18.74v1.57Zm0 6.04h18.74v-1.66h-18.74v1.66Zm0 6.04h18.74v-1.66h-18.74v1.66Zm24.38 18.79c-1.39-3.8-2.91-6.67-5.41-10.47l5.77-2.55c2.86 3.85 4.16 5.99 5.95 9.8l-6.31 3.22Zm42.42-12.17c-.72 6.93-1.83 10.2-4.79 14.14-1.34-1.79-2.46-3-4.03-4.38-1.52 1.12-2.33 1.88-3.62 3.22-2.19-2.64-2.86-3.67-4.97-7.52l4.12-2.37h-8.5l4.07 2.46c-2.33 3.89-3.71 5.64-6.84 8.59-1.61-2.19-2.24-2.82-4.74-4.88 2.73-2.15 4.12-3.62 5.82-6.17h-2.19c-1.83 0-2.46.05-3.31.13v-6.17c.8.13 1.34.18 3 .18V50.88c-1.34 0-2.01.04-2.68.13v-6.17c.72.13 1.39.18 2.68.18v-.67c0-1.43-.05-2.33-.18-3.31h6.67c-.13 1.03-.18 1.83-.18 3.31v.67h4.21v-.67c0-1.48-.04-2.37-.18-3.31h6.67c-.13.94-.18 1.83-.18 3.31v.67c1.21-.05 1.57-.09 2.33-.18v6.17c-.72-.09-1.07-.09-2.33-.13v15.48c.85-.04 1.16-.09 1.79-.18v6.17c-.81-.09-1.57-.13-3.4-.13h-1.25c1.12 1.83 1.83 2.82 3.22 4.29 2.46-3.76 3.04-8.77 3.04-27.11 0-3.94-.05-5.41-.27-7.38 1.79.18 2.91.22 5.59.22h6.8c2.82 0 3.98-.04 5.37-.22-.13 1.25-.18 2.6-.18 5.5v29.17c0 2.6-.67 4.25-2.06 5.15-1.07.63-2.82.94-5.77.94-.45 0-1.12 0-2.01-.04-.36-2.68-.72-4.21-1.61-6.76 1.88.22 2.59.31 3.27.31 1.34 0 1.61-.13 1.61-.89v-6.26h-4.97Zm-15.48-16.37v-1.88h-4.21v1.88h4.21Zm0 6.75v-1.97h-4.21v1.97h4.21Zm0 6.84v-2.06h-4.21v2.06h4.21Zm16.06-7.61c-.04 2.19-.04 2.82-.13 4.43h4.52v-4.43h-4.38Zm4.38-10.15h-4.34v4.16h4.34v-4.16Zm23.32 27.92c0 2.86.09 4.7.27 5.99h-7.2c.18-1.43.27-2.95.27-6.04V46.89c0-2.51-.04-3.71-.18-5.14 1.3.13 2.37.18 4.52.18h9.39c2.42 0 3.4-.04 4.56-.18-.09 1.34-.13 2.37-.13 4.12v8.14c0 2.42 0 2.86.09 3.89-.98-.04-2.33-.09-3.67-.09h-7.92v18.7Zm0-28.32h5.32v-1.57h-5.32v1.57Zm0 5.28h5.32v-1.61h-5.32v1.61Zm22.37 21.25v1.12c.4.05.67.05.76.05 2.42 0 2.51-.05 2.51-1.03v-17h-8.32c-1.21 0-2.73.04-3.67.09.09-1.21.09-1.61.09-3.94v-8.14c0-1.66-.05-2.77-.13-4.12 1.3.13 2.24.18 4.56.18h9.75c2.19 0 3.22-.04 4.52-.18-.13 1.52-.18 2.68-.18 5.06v29.12c0 5.32-1.34 6.35-8.14 6.35-.58 0-.72 0-3.36-.09-.27-1.88-.36-2.55-.67-3.85h-10.78v1.88h-6.35c.13-1.39.18-3 .18-4.74V63.54c0-1.57-.04-2.73-.13-3.8 1.21.09 2.28.13 3.89.13h11.72c1.7 0 2.68-.04 3.89-.13-.09 1.03-.13 2.1-.13 3.8v11.18Zm-13.06-7.92h6.89v-1.79h-6.89v1.79Zm0 6.31h6.89v-1.83h-6.89v1.83Zm10.69-24.92h5.64v-1.57h-5.64v1.57Zm0 5.28h5.64v-1.61h-5.64v1.61Zm53.59.99c-.31.63-.63 1.39-.94 2.24 1.92.63 3.18 1.3 4.52 2.51 2.46 2.19 3.67 5.01 3.67 8.41 0 5.41-3 9.75-8.41 12.17-2.42 1.07-4.88 1.66-9.04 2.06-.72-2.42-1.48-4.21-2.51-5.91-3.09 2.91-6.98 4.65-10.38 4.65-5.28 0-8.63-3.53-8.63-9.13 0-3.8 1.57-7.47 4.47-10.38 1.79-1.79 3.44-2.91 6.22-4.07 0-1.52 0-1.97.05-3.89q-1.92-.05-5.23-.09c-.67-.04-1.39-.04-2.19-.04-.63 0-.81 0-1.43.04l-.09-7.07c2.59.49 4.88.67 8.32.67h.27l.63-.04q.05-.58.13-1.92c.05-.45.05-.94.05-1.43 0-.89 0-1.25-.09-1.88l7.7.31c-.36 1.34-.45 2.06-.72 4.7 7.25-.4 13.15-1.21 16.78-2.24l.31 7.25c-.72.05-.89.05-1.92.18-4.29.63-11.09 1.16-15.57 1.34q-.05.45-.09 1.21c0 .27 0 .4-.05 1.34 2.01-.31 2.82-.4 4.34-.4.85 0 1.21 0 2.1.09.36-1.03.49-1.66.58-2.55l7.16 1.88Zm-24.65 16.37c0 1.66.67 2.59 1.92 2.59.85 0 1.61-.27 2.46-.85-.4-2.28-.63-4.92-.67-8.1-2.42 1.7-3.71 3.89-3.71 6.35Zm10.69-3c1.7-2.06 3.35-4.79 4.21-6.89-.4-.04-.54-.04-.94-.04-1.3 0-2.33.13-3.53.49 0 2.91.05 4.21.27 6.44Zm9.35 5.23c2.59-1.21 4.25-3.53 4.25-5.99 0-2.01-.85-3.27-2.86-4.29-2.06 4.79-4.52 8.41-7.83 11.68 2.95-.22 4.74-.58 6.44-1.39Zm32.85-31.13c-.63 1.88-1.16 4.79-1.83 9.57 2.91-5.23 6.53-7.74 11.32-7.74 3.04 0 6.04 1.52 8.1 4.07 2.51 3.13 3.71 7.2 3.71 12.44 0 7.34-2.28 12.79-6.84 16.37-2.55 2.01-6.13 3.67-10.2 4.65-1.52.4-2.68.63-5.28 1.03-1.07-3.35-1.66-4.61-3.58-7.65 12.84-.76 18.03-4.97 18.03-14.63 0-5.59-1.79-8.68-4.97-8.68-1.66 0-3.18.81-4.83 2.6-2.68 2.82-4.43 6.53-4.97 10.38-.13 1.03-.18 1.57-.18 3.67l-7.52.09c.05-.31.05-.58.05-.76v-.89c-.09-1.75-.13-4.43-.13-5.68 0-5.41.31-10.56 1.03-16.33.13-1.3.18-1.79.18-2.46v-.36l7.92.31Z"/><path d="m124.41 37.66-5.93-6.22c.25-1.3.38-2.64.38-4.02 0-11.88-9.68-21.51-21.63-21.51S75.6 15.54 75.6 27.42s9.68 21.51 21.63 21.51c7.35 0 13.84-3.65 17.75-9.22l9.43-2.05Z" style="fill:#c1272d"/><path class="cls-2" d="m88.85 36.37-3.01 1.04-.25-2.54 3.01-1.04-.08-.75-3 1.04-.25-2.54 2.23-.77-3.86-4.78 3.98-1.38 2.28 3.26 1.24-4.48 4.49-1.55-2.64 7.03 2.15-.74.25 2.54-3 1.04.06.76 3-1.04.25 2.54-3.01 1.04.18 1.82-3.83 1.33-.18-1.82Zm9.85-6.76c-1.5-4.3-.11-9.07 3.69-10.39 3.03-1.05 5.52.68 6.45 3.33 1.5 4.3.11 9.07-3.69 10.39-3.03 1.05-5.52-.68-6.45-3.32Zm6.43-5.35c-.41-1.18-1.13-1.51-1.81-1.28-1.47.51-1.52 3.16-.9 4.93.41 1.18 1.13 1.51 1.81 1.28 1.47-.51 1.52-3.15.9-4.93Z"/><path d="M36.08 100.92c-5.01 2.26-6.83 4.08-9.09 9.09-2.26-5.01-4.08-6.83-9.09-9.09 5.01-2.26 6.83-4.08 9.09-9.09 2.26 5.01 4.08 6.83 9.09 9.09Zm23.55 30.3c-2.42 1.09-3.31 1.98-4.4 4.4-1.09-2.42-1.98-3.31-4.4-4.4 2.42-1.09 3.31-1.98 4.4-4.4 1.09 2.42 1.98 3.31 4.4 4.4ZM590.1 84.81c-5.01 2.26-6.83 4.08-9.09 9.09-2.26-5.01-4.08-6.83-9.09-9.09 5.01-2.26 6.83-4.08 9.09-9.09 2.26 5.01 4.08 6.83 9.09 9.09Zm-35 30.31c-2.42 1.09-3.31 1.98-4.4 4.4-1.09-2.42-1.98-3.31-4.4-4.4 2.42-1.09 3.31-1.98 4.4-4.4 1.09 2.42 1.98 3.31 4.4 4.4Z" style="fill:#d2d8d5"/><path d="M104.87 137.46c-.53.07-.64.07-1.34.21-1.38.25-3.6.53-5.33.71v3.11c2.05-.46 3.29-.6 5.16-.6 4.34 0 7.59 1.09 9.64 3.21 1.55 1.59 2.4 3.82 2.4 6.25 0 4.98-3.78 8.72-8.8 8.72-4.38 0-6.92-2.93-6.92-8.02v-.88c2.58-.74 3.43-1.09 5.37-2.15-.04.74-.07 1.13-.07 1.87 0 1.09.07 1.7.28 2.22.25.64.85 1.06 1.55 1.06 1.52 0 2.54-1.24 2.54-3.04 0-1.2-.64-2.37-1.73-3.11-.95-.6-2.33-.92-4.2-.92-1.73 0-3.18.18-5.19.71l.04 6.25v.92c0 2.15-.14 2.93-.67 3.67-.67.99-2.01 1.55-3.6 1.55-2.61 0-5.62-1.09-7.63-2.79-1.45-1.24-2.3-2.9-2.3-4.59 0-1.91 1.17-3.99 3.28-5.86 1.41-1.24 2.9-2.12 5.26-3.14v-4.17l-2.68.07-3.43-.07c-.11 0-.42 0-.74.04l-.07-5.55c1.13.21 2.58.32 4.84.32h1.34q.49-.04.71-.04v-1.13c0-2.65-.04-3.46-.25-4.77h6.11c-.18 1.27-.21 2.08-.21 4.41v1.13c2.4-.25 4.59-.67 6.46-1.2l.18 5.58Zm-12.26 11.2c-1.66.78-2.93 2.15-2.93 3.14 0 .42.25.78.78 1.13.49.32 1.17.57 1.59.57.46 0 .57-.25.57-1.41v-3.43Zm19.75-7.77c-1.8-3.14-3.82-5.55-6.96-8.3l4.66-3.14c3 2.44 5.19 4.91 6.96 7.81l-4.66 3.64Zm9.89-9.47c.88.07 1.27.11 2.15.11.95 0 10.46-.25 13.74-.35-.04-2.26-.07-2.72-.25-3.74h6.25c-.14 1.24-.18 1.63-.18 3.6 5.86-.04 8.48-.11 9.89-.25l.04 5.79c-1.59-.14-2.3-.18-6.36-.18-1.87 0-2.12 0-3.53.04v5.23c1.02 1.87 1.41 3.53 1.41 5.9 0 3.96-2.05 7.42-5.83 9.78-1.73 1.06-3.74 1.87-7.1 2.86-.99-2.51-1.77-3.82-3.36-5.58 3.57-.53 5.58-1.09 7.28-2.15 1.31-.78 2.05-1.55 2.61-2.79-1.48 1.24-2.68 1.66-4.73 1.66-4.1 0-6.99-2.68-6.99-6.46 0-4.03 3.32-6.78 8.19-6.78 1.13 0 1.94.11 2.75.39v-1.09q0-.49-.04-.85c-7.31.21-13.07.53-15.79.92l-.18-6.04Zm10.99 13.17c0 1.09.99 1.91 2.33 1.91 1.52 0 2.68-.92 2.68-2.12 0-1.09-.92-1.84-2.33-1.84-1.55 0-2.68.85-2.68 2.05Zm26.05-13.17c.88.07 1.27.11 2.15.11.95 0 10.46-.25 13.74-.35-.04-2.26-.07-2.72-.25-3.74h6.25c-.14 1.24-.18 1.63-.18 3.6 5.86-.04 8.48-.11 9.89-.25l.04 5.79c-1.59-.14-2.3-.18-6.36-.18-1.87 0-2.12 0-3.53.04v5.23c1.02 1.87 1.41 3.53 1.41 5.9 0 3.96-2.05 7.42-5.83 9.78-1.73 1.06-3.74 1.87-7.1 2.86-.99-2.51-1.77-3.82-3.36-5.58 3.57-.53 5.58-1.09 7.28-2.15 1.31-.78 2.05-1.55 2.61-2.79-1.48 1.24-2.68 1.66-4.73 1.66-4.1 0-6.99-2.68-6.99-6.46 0-4.03 3.32-6.78 8.19-6.78 1.13 0 1.94.11 2.75.39v-1.09q0-.49-.04-.85c-7.31.21-13.07.53-15.79.92l-.18-6.04Zm10.99 13.17c0 1.09.99 1.91 2.33 1.91 1.52 0 2.68-.92 2.68-2.12 0-1.09-.92-1.84-2.33-1.84-1.55 0-2.68.85-2.68 2.05Zm35.46-15.71c.04 1.73.32 3.5.74 5.23 1.87-.71 4.03-1.09 6.04-1.09h.78c.74-3.07.88-3.92.92-5.23l6.22 1.16c-.14.32-.35.99-.64 1.98-.53 1.84-.78 2.83-.81 2.93 2.08.64 3.32 1.27 4.7 2.44 2.65 2.23 4.03 5.26 4.03 8.94 0 5.62-3.14 10.14-8.55 12.33-1.91.78-3.67 1.31-6.36 1.84-.71-2.47-1.38-3.85-2.83-5.9 3.71-.32 6.53-1.13 8.3-2.33 2.19-1.52 3.25-3.64 3.25-6.43s-1.27-4.59-4.06-5.76c-1.91 5.55-3.71 9.29-5.97 12.33-2.93 3.96-5.62 5.76-8.62 5.76-4.27 0-7.17-3.67-7.17-9.08 0-4.49 1.98-8.44 5.69-11.27-.42-1.7-.64-2.58-1.02-4.52-.25-1.2-.32-1.41-.64-2.15l6-1.17Zm-4.56 18.72c0 2.15.78 3.5 1.98 3.5.71 0 1.45-.49 2.19-1.48-1.09-2.37-1.7-4.06-2.44-6.85-1.06 1.31-1.73 3.18-1.73 4.84Zm7.98-3.07c1.27-2.44 1.87-3.89 2.61-6.25-1.8.07-2.9.32-4.27.99.49 2.05.92 3.32 1.66 5.26Zm36.13-10.56c.11-1.38.18-3.43.18-4.52 0-.74 0-1.02-.11-1.77l6.64.18c-.18.81-.18.92-.39 4.27q-.04.95-.11 1.8h7.7c1.17 0 1.59-.07 2.37-.39l2.76 2.4c-.39.71-.46.99-.49 2.61-.25 7.56-.78 13.46-1.48 15.79-1.02 3.28-2.72 4.42-6.64 4.42-1.38 0-1.91-.04-4.63-.28-.14-2.83-.39-3.99-1.2-6.22 1.77.46 3.5.71 4.59.71 1.7 0 2.12-.56 2.58-3.64.35-2.37.67-6.82.67-9.86h-6.75q-.28 2.33-.53 3.53c-1.55 7.14-4.91 11.73-12.08 16.46-1.59-2.51-2.65-3.71-4.59-5.37 4.7-2.47 7.42-4.98 9.18-8.55.88-1.8 1.27-3.07 1.77-6.04h-4.42c-2.37 0-3.11.04-4.77.21l-.04-6.04c1.77.25 2.4.28 4.91.28h4.87Zm26.91 6.11c1.66.25 3.57.32 7.24.32h16.88c3.53 0 4.87-.07 7.24-.32v6.82c-1.7-.18-3.25-.21-7.28-.21h-16.81c-3.96 0-5.12.04-7.28.21v-6.82Zm42.17 18.97c.14-1.48.18-2.51.21-5.4v-20.56c-.04-3.04-.04-3.21-.25-5.12h6.82c-.14.92-.14 1.48-.18 5.16v4.84c5.58 1.8 11.13 4.31 16.07 7.35l-3.36 6c-2.93-2.08-7.03-4.34-11.13-6.15-1.06-.42-1.17-.46-1.27-.53a.965.965 0 0 1-.32-.18v9.18c0 2.61.07 4.49.21 5.4h-6.82Zm15.97-29.11a25.12 25.12 0 0 1 3.5 5.05l-3.36 1.62c-1.17-2.23-2.08-3.53-3.5-5.16l3.36-1.52Zm4.7-2.12c1.31 1.41 2.3 2.76 3.53 4.91l-3.25 1.59c-1.24-2.23-2.23-3.64-3.46-5.05l3.18-1.45Zm18.36 28.05v2.44h-6.43c.21-1.94.28-3.14.28-5.76v-18.16c0-1.52-.04-2.61-.14-4.06 1.24.11 1.94.14 4.27.14h19.04c2.19 0 2.72 0 4.38-.14-.07 1.24-.11 2.51-.11 4.17v17.91c0 2.72.07 4.41.25 5.83h-6.39v-2.37H353.4Zm15.15-19.75H353.4v14.09h15.15v-14.09Zm15.12 3.96c1.66.25 3.57.32 7.24.32h16.88c3.53 0 4.87-.07 7.24-.32v6.82c-1.7-.18-3.25-.21-7.28-.21h-16.81c-3.96 0-5.12.04-7.28.21v-6.82Zm41.88-10.46c4.45 2.61 6.75 4.24 9.71 6.92l-4.17 5.51c-3.07-3.21-6.08-5.55-9.61-7.45l4.06-4.98Zm-3.71 21.94c3.6-.28 7.31-1.16 10.63-2.54 4.45-1.84 7.63-4.49 10.35-8.72 1.48-2.26 2.44-4.2 3.46-6.92 1.73 2.08 2.54 2.79 5.19 4.73-3.21 6.96-6.57 11.13-11.52 14.31-3.82 2.47-7.17 3.78-13.74 5.3-1.38.32-1.59.35-2.54.64l-1.84-6.78Zm87.34.96c1.09 1.59 2.01 2.15 3.78 2.4-.99-1.2-1.17-1.41-2.76-2.86 2.12-.39 3.28-.71 4.98-1.31h-2.72c-1.27 0-1.8.04-2.51.14v-4.1c.78.11 1.13.14 2.44.14h1.8v-1.55h-.32c-1.94 0-2.37.04-3.32.14v-3.99c.92.11 1.31.11 3.32.11h.32v-1.27c-2.01 0-2.76-.07-3.28-.28-.85-.35-1.2-.99-1.2-2.12v-3.74l-3.46 3.46c-1.98-2.65-3.25-4.03-6.11-6.46l3.96-3.85c2.4 1.98 4.03 3.57 5.62 5.4.88.07 1.09.07 2.58.07h3.25v-1.02h-3.36c-1.59 0-2.08 0-2.97.11v-3.96c.92.07 1.91.11 3.04.11h4.98c1.84 0 2.37 0 3.14-.07-.11.35-.11.64-.11 1.24l.04.71v3.78c0 1.02 0 1.59.07 2.05-.85-.04-1.55-.07-2.37-.07h-3.82v.78c0 .53.11.6 1.09.6.64 0 1.06-.07 1.24-.18.11-.11.21-.46.21-.92v-.21c1.55.57 2.65.85 4.1 1.02-.25 2.12-.49 2.61-1.59 3.14v1.7h3.74v-1.52c-1.06-.35-1.52-1.06-1.52-2.19v-2.86q0-1.09-.11-2.3c.88.07 1.17.07 2.68.07h3.21v-1.02h-3c-1.59 0-2.08 0-2.97.11v-3.96c.92.07 1.91.11 3.04.11h4.84c1.84 0 2.37 0 3.14-.07-.07.42-.07.67-.07 1.2v4.52c0 1.06 0 1.59.07 2.05-.85-.04-1.55-.07-2.37-.07h-3.74v.81c0 .46.25.6 1.2.6.6 0 1.13-.07 1.27-.21q.11-.11.21-.71v-.42c1.31.46 2.65.74 4.42.95-.18 1.84-.49 2.58-1.27 3.04-.64.39-1.45.49-4.03.57v1.31h1.17c1.98 0 2.37 0 3.28-.11v3.99c-.99-.11-1.38-.14-3.28-.14h-1.13v1.55h1.8c2.01 0 2.4 0 3.36-.11v4.03c-1.02-.11-1.41-.11-3.36-.11h-2.44c1.98.64 3.32.95 5.76 1.24-.99 1.02-1.09 1.2-2.08 2.72.85-.07 1.38-.14 2.97-.35-.71 1.91-1.02 3.36-1.31 5.55-3.11.11-8.12.18-13.46.18s-7.24-.18-8.94-.78c-1.41-.49-2.44-1.2-3.67-2.58-1.52 1.38-2.15 1.87-4.7 3.71l-2.3-5.69c1.02-.35 2.44-1.24 4.27-2.68v-6.68h-1.45c-.78 0-1.27.04-2.19.18v-5.33c.99.14 1.55.18 2.9.18h3.39c1.45 0 1.77 0 2.65-.11-.07 1.02-.07 1.38-.07 3.96v8.27Zm11.66-.18c-1.98 1.24-3.67 2.05-5.86 2.79 1.13.04 2.72.07 4.31.07 1.91 0 5.86-.11 7.77-.21-1.73-.57-3.11-1.24-5.3-2.65l2.26-1.59h-5.62l2.44 1.59Zm-1.59-5.4h3.74v-1.55h-3.74v1.55Z" style="fill:#333"/><path d="M466.91 132.42c0 .32-.06.95-.17 2.02 2.59-2.09 5.59-3.04 9.33-3.04 5.13 0 9.33 1.77 12.39 5.19 2.88 3.23 4.32 7.34 4.32 12.66 0 12.15-7.26 19.36-19.47 19.36-7.26 0-12.96-2.72-16.31-7.78-1.33-1.96-2.02-3.8-2.88-7.09l11.58-1.96c.98 4.18 3.4 6.14 7.55 6.14 4.84 0 8.07-3.35 8.07-8.42s-3.11-8.35-7.95-8.35c-3.63 0-5.99 1.58-7.26 4.68l-10.72-1.14c.23-1.9.4-3.42.58-5.19l1.56-19.74c.12-1.33.17-2.85.23-5.25 2.42.13 3 .13 5.76.13h17.23c5.07 0 7.2-.13 9.51-.44v11.07c-3.05-.32-5.7-.44-9.39-.44H467.5l-.58 7.59Z" style="fill:#fbd747;stroke:#0c5faa;stroke-miterlimit:10;stroke-width:2px"/></g></svg>