<svg id="Layer_2" xmlns="http://www.w3.org/2000/svg" viewBox="0 0 695.11 162"><defs><clipPath id="clippath"><path class="cls-2" d="M557.42 69.22H178.07l17.64-51.17h379.35l-17.64 51.17z"/></clipPath><clipPath id="clippath-1"><path class="cls-1" d="M591.83 81h-231l27-77h204v77z"/></clipPath><style>.cls-1,.cls-2{fill:none}.cls-2{stroke-width:3px;stroke:#0c5faa;stroke-miterlimit:10}.cls-6{fill:#00477c}.cls-9{fill:#fff}.cls-11{fill:#fbd747}.cls-12{fill:#333}.cls-137{fill:#0c5faa}</style></defs><g id="PC"><path class="cls-1" d="M0 0h695.11v162H0z"/><path class="cls-12" d="M74.88 106.75c-1.64 1.98-2.37 2.8-4.44 4.78-2.17-2.75-3.04-3.62-5.31-5.36 4.05-3.43 6.61-6.52 8.4-10.04.72-1.45 1.01-2.22 1.21-3.19l7.96.92c-.1.19-.53 1.06-1.25 2.56h21c2.61 0 4.34-.1 5.94-.29v7.14c-1.74-.14-3.52-.24-5.94-.24H77.64c-.39.58-.53.77-1.01 1.5h22.92c2.56 0 4.39-.05 5.5-.19v6.03c-1.54-.15-2.99-.19-5.5-.19H79.57c-1.98 0-3.23.05-4.68.19v-3.62Zm18.97 13.66c-.39.48-.58.72-1.64 2.17a42.399 42.399 0 0 1-3.57 4.49c3.48 2.65 4.54 3.57 7.43 6.08L91 138.8c-2.46-2.41-4.3-4.1-7.58-6.8-3.72 2.99-7.05 4.92-12.74 7.48-1.45-2.61-2.56-4.1-4.83-6.32 5.89-2.17 8.3-3.38 11.68-5.74-2.8-2.03-4.05-2.85-7.34-4.83l4.92-4.49H74.1c-2.85 0-4.58.1-6.08.24v-6.8c.87.14 2.03.19 3.76.19h26.01c3.33 0 4.3-.05 5.79-.14-.19 1.5-.24 3.04-.24 4.78 0 7.19.68 11.68 2.12 13.75.48-.82.72-2.85.72-5.26v-.87c1.88 1.69 3.09 2.51 5.16 3.47-.48 4.88-1.11 7.48-2.12 9.22-.96 1.54-2.36 2.37-4.05 2.37-2.46 0-4.92-2.17-6.47-5.6-1.69-3.91-2.46-8.3-2.51-15.35h-7.58l5.21 2.32Zm-18.58-2.32c3.48 2.03 5.02 2.99 7.53 4.73 1.69-1.88 2.46-2.94 3.47-4.73h-11Zm57.42-21.86c-1.88 5.5-3.33 14.53-3.67 23.31l3.72 1.25c-1.25 4.34-1.88 8.69-1.88 13.51 0 .92 0 1.35.14 2.37l-8.3.39c-.05-.92-.05-1.3-.24-2.56-.92-6.47-1.25-10.67-1.25-15.25 0-5.55.58-11.63 1.83-18.58.58-3.38.63-3.72.72-5.16l8.93.72Zm13.32 21.09c-2.22 2.85-3.23 4.92-3.23 6.66 0 2.22 2.17 3.43 6.27 3.43s8.35-.68 12.02-1.98l.48 8.54q-1.25.14-4.1.58c-2.61.38-5.6.63-8.35.63-4.49 0-7.48-.63-9.99-2.03-2.7-1.54-4.44-4.54-4.44-7.67 0-2.37.82-5.02 2.32-7.53.68-1.11.96-1.59 2.27-3.47l6.76 2.85Zm-9.46-17.42c2.27.48 4.83.72 8.59.72 6.42 0 11.15-.39 14.38-1.21l.34 8.25c-.43 0-.92.05-3.57.34-3.33.34-6.85.53-10.18.53-2.94 0-5.36-.1-8.3-.39-.39-.05-.72-.05-1.4-.1l.14-8.16Zm54.39-5.17c-.29.87-.34.87-.92 3.86-.24 1.16-.34 1.59-.58 2.7 3.09-.34 5.16-.68 6.71-1.16l.15 7.82q-1.16.1-3.57.39c-1.3.14-3.96.38-5.16.48-1.74 5.7-2.99 9.03-5.26 14-1.01 2.22-1.45 3.09-3.33 6.85q-.63 1.21-.92 1.88l-7.87-4.3c3.43-4.58 6.76-11.44 8.93-18.24h-2.7q-1.11 0-2.22-.05h-1.88v-7.72c1.83.34 4.05.48 7.05.48.53 0 .77 0 1.74-.05q.05-.39.43-2.03c.39-1.64.67-4.01.72-5.74l8.69.82Zm20.75 40.69c-1.79-2.08-3.62-3.62-6.23-5.26-.14 2.27-.72 3.67-2.03 5.02-1.88 1.88-5.26 2.99-9.12 2.99s-7.14-1.16-9.12-3.19c-1.59-1.64-2.41-3.72-2.41-5.98 0-5.6 4.68-9.51 11.39-9.51 1.01 0 1.79.05 3.38.29-.15-1.83-.19-2.75-.19-3.86 0-1.98.1-3.52.29-5.7l7.96.34c-.39 1.69-.53 3.14-.53 5.46 0 1.74.1 3.19.39 5.6 2.94 1.3 5.21 2.61 7.43 4.29.14.1.92.72 2.36 1.88l-3.57 7.63Zm-17.28-9.07c-2.27 0-3.72.96-3.72 2.46 0 1.4 1.35 2.32 3.43 2.32 2.41 0 3.67-1.06 3.67-3.09 0-.34-.05-1.01-.1-1.06-1.3-.48-2.12-.63-3.28-.63Zm17.76-13.56c-4.54-2.85-9.27-5.02-15.01-6.95l4.01-6.66c6.08 2.17 10.04 3.91 14.53 6.52l-3.52 7.09Zm16.84-16.56c2.03.24 3.81.34 6.95.34 4.29 0 9.65-.19 14.53-.58 2.12-.14 2.75-.29 3.67-.68l3.96 5.84q-1.25.72-7.77 6.32c-2.56 2.17-3.43 2.9-6.66 5.26 2.7-.68 4.1-.87 6.61-.87 4.54 0 7.77 1.06 10.33 3.28 2.32 2.08 3.52 4.88 3.52 8.35 0 4.88-2.27 8.74-6.66 11.34-3.33 1.93-7.96 3.04-12.79 3.04-8.16 0-13.13-3.23-13.13-8.59 0-4.49 4.01-7.72 9.6-7.72 3.48 0 6.56 1.35 8.64 3.71.96 1.06 1.5 2.03 2.22 3.81 2.61-1.16 3.81-2.8 3.81-5.26 0-3.38-3.28-5.45-8.64-5.45s-10.52 1.59-14.87 4.44c-1.5.96-3.04 2.17-4.63 3.62l-4.49-7.34c4.44-2.07 14.62-9.99 20.61-15.93-2.56.29-4.49.38-11.29.72-1.3.05-2.22.14-3.19.24L229 96.2Zm11.97 31.47c-1.11 0-1.88.63-1.88 1.59 0 1.3 1.54 2.12 4.15 2.12.58 0 .68 0 1.59-.15-.63-2.32-1.98-3.57-3.86-3.57Z"/><path d="M283.24 136.36c-5.24 0-6.58.06-8.74.23.23-2.86.52-4.6 1.22-6.88 1.51-4.84 4.31-9.26 8.39-13.05 2.21-2.04 4.43-3.73 10.37-7.75 5.01-3.38 6.23-4.89 6.23-7.57s-2.5-4.66-6.23-4.66c-2.8 0-4.78.93-6.06 2.91-.82 1.28-1.17 2.45-1.46 4.89l-12.23-1.28c.87-5.07 1.92-7.63 4.25-10.37 3.32-3.9 8.62-6 15.44-6 7.87 0 13.87 2.62 16.78 7.34 1.28 2.04 1.92 4.31 1.92 6.82 0 4.25-1.75 7.87-5.36 10.84-1.92 1.69-2.51 2.1-8.45 6.23-5.07 3.5-7.22 5.54-8.56 8.1h13.57c4.37 0 7.05-.12 9.32-.41v11.01c-3.38-.29-5.83-.41-9.96-.41h-20.45Zm40.78-39.27c2.33-.23 3.79-.46 7.69-1.34 11.88-2.45 16.37-3.09 22.25-3.09s10.95 1.22 14.45 3.67c4.54 3.2 7.17 8.45 7.17 14.45 0 8.56-5.01 15.96-13.63 20.1-5.88 2.79-11.59 4.13-21.85 5.07-1.4-5.24-1.86-6.35-4.14-10.54 7.17-.06 12.18-.7 16.6-2.04 4.6-1.34 7.87-3.5 10.02-6.53 1.28-1.75 1.86-3.61 1.86-5.83 0-2.33-.7-4.19-2.16-5.65-1.86-1.92-4.54-2.8-8.62-2.8-6.18 0-13.22 1.28-22.43 4.14-2.16.64-3.67 1.22-5.01 1.86l-2.21-11.48Z" style="stroke-width:2px;fill:#fbd747;stroke-miterlimit:10;stroke:#0c5faa"/><path class="cls-12" d="M408.12 124.9c-2.8 6.18-6.03 8.88-10.42 8.88-6.47 0-11-6.18-11-15.01 0-5.65 1.93-10.76 5.55-14.72 4.25-4.63 10.38-7.09 17.47-7.09 6.47 0 12.16 2.17 15.73 5.94 3.09 3.28 4.73 7.96 4.73 13.42 0 6.27-2.36 11.97-6.42 15.59-3.28 2.94-7.09 4.49-13.85 5.55-1.16-3.47-2.08-5.21-4.1-7.91 4.54-.34 7.53-1.11 10.14-2.46 3.72-1.98 5.79-6.03 5.79-11.2 0-4.1-1.45-7.38-4.25-9.51-1.25-.97-2.32-1.4-4.05-1.69-1.06 8.3-2.7 14.53-5.31 20.22Zm-8.3-17.67c-3.19 2.7-5.26 7.19-5.26 11.49 0 3.43 1.3 6.13 2.99 6.13 1.21 0 2.46-1.69 3.91-5.36 1.69-4.34 3.09-9.94 3.62-14.72-2.03.29-3.57 1.01-5.26 2.46Zm53.8 6.71c-.19.77-.19.87-.34 1.74-1.4 7.43-3.91 13.75-7.48 19.06-2.56-1.69-5.41-3.14-7.96-3.96 3.86-5.02 6.9-12.6 7.48-18.77l8.3 1.93Zm28.33-4.15c-1.59-.19-3.23-.24-7.43-.29h-9.36v21.19c0 3.23.1 5.84.24 7.24h-9.12c.19-1.88.29-3.62.29-7.34V109.5h-8.93c-4.25 0-5.55.05-7.29.29v-8.25c1.74.29 3.33.39 7.38.39h8.83v-1.88c0-2.56-.1-3.96-.29-5.36h9.17c-.19 1.35-.29 2.8-.29 5.45v1.79h10.38c-1.11-1.06-1.74-2.46-1.74-4.01 0-3.04 2.41-5.45 5.45-5.45s5.41 2.41 5.41 5.45c0 1.98-1.01 3.72-2.7 4.73v7.14Zm-5.89 2.12c1.4 6.28 4.68 14.04 7.82 18.44-2.94 1.3-5.55 2.8-7.96 4.49-3.52-6.42-5.12-10.57-7.14-18.53-.39-1.59-.43-1.64-.72-2.37l8.01-2.03Zm.43-14c0 1.45 1.25 2.7 2.7 2.7s2.75-1.26 2.75-2.7-1.25-2.75-2.7-2.75-2.75 1.25-2.75 2.75Zm56.62 1.84c-1.06.92-1.11.96-1.88 1.79-3.81 3.91-7.24 6.9-11.15 9.7v18.58c0 3.96.05 5.21.29 7.82h-9.36c.24-2.56.29-3.62.29-7.77v-13.32c-5.02 2.94-8.88 4.68-15.78 7.14-1.3-3.23-2.27-4.83-4.63-7.77 10.47-2.94 17.86-6.56 25.63-12.55 4.15-3.14 7.38-6.42 8.78-8.83l7.82 5.21Zm15.29-2.56c6.08 3.57 9.22 5.79 13.27 9.46l-5.7 7.53c-4.2-4.39-8.3-7.58-13.13-10.18l5.55-6.81Zm-5.07 29.97c4.92-.39 9.99-1.59 14.53-3.47 6.08-2.51 10.42-6.13 14.14-11.92 2.03-3.09 3.33-5.74 4.73-9.46 2.36 2.85 3.47 3.81 7.09 6.47-4.39 9.51-8.98 15.2-15.73 19.55-5.21 3.38-9.8 5.16-18.77 7.24-1.88.43-2.17.48-3.47.87l-2.51-9.27Zm54.58 10.24c.19-2.17.29-3.57.29-7.38v-28.09c0-3.91-.05-4.39-.34-7h9.32c-.19 1.4-.24 3.81-.24 7.05v6.61c8.2 2.7 14.43 5.55 21.96 10.04l-4.59 8.21c-4.68-3.23-10.38-6.37-15.2-8.4q-1.69-.68-2.17-.96v12.55c0 3.23.1 5.65.29 7.38h-9.31Z"/><path class="cls-137" d="M557.42 69.22H178.07l17.64-51.17h379.35l-17.64 51.17z"/><g style="clip-path:url(#clippath)"><g style="clip-path:url(#clippath-1)"><path style="fill:#1d1d1b" d="M360.83 4h1.53v77h-1.53z"/><path style="fill:#1d1d1c" d="M362.36 4h1.53v77h-1.53z"/><path style="fill:#1d1e1d" d="M363.9 4h1.53v77h-1.53z"/><path style="fill:#1d1e1e" d="M365.43 4h1.53v77h-1.53z"/><path style="fill:#1d1f1f" d="M366.97 4h1.53v77h-1.53z"/><path style="fill:#1c1f20" d="M368.5 4h1.53v77h-1.53z"/><path style="fill:#1c2021" d="M370.04 4h1.53v77h-1.53z"/><path style="fill:#1c2022" d="M371.57 4h1.53v77h-1.53z"/><path style="fill:#1c2123" d="M373.11 4h1.53v77h-1.53z"/><path style="fill:#1c2124" d="M374.64 4h1.53v77h-1.53z"/><path style="fill:#1c2225" d="M376.18 4h1.53v77h-1.53z"/><path style="fill:#1c2226" d="M377.71 4h1.53v77h-1.53z"/><path style="fill:#1c2327" d="M379.25 4h1.53v77h-1.53z"/><path style="fill:#1b2328" d="M380.78 4h1.53v77h-1.53z"/><path style="fill:#1b2429" d="M382.32 4h1.53v77h-1.53z"/><path style="fill:#1b242a" d="M383.85 4h1.53v77h-1.53z"/><path style="fill:#1b242b" d="M385.38 4h1.53v77h-1.53z"/><path style="fill:#1b252c" d="M386.92 4h1.53v77h-1.53z"/><path style="fill:#1b252d" d="M388.45 4h1.53v77h-1.53z"/><path style="fill:#1b262e" d="M389.99 4h1.53v77h-1.53z"/><path style="fill:#1b262f" d="M391.52 4h1.53v77h-1.53z"/><path style="fill:#1a2730" d="M393.06 4h1.53v77h-1.53z"/><path style="fill:#1a2731" d="M394.59 4h1.53v77h-1.53z"/><path style="fill:#1a2832" d="M396.13 4h1.53v77h-1.53z"/><path style="fill:#1a2833" d="M397.66 4h1.53v77h-1.53z"/><path style="fill:#1a2934" d="M399.2 4h1.53v77h-1.53z"/><path style="fill:#1a2935" d="M400.73 4h1.53v77h-1.53z"/><path style="fill:#1a2a36" d="M402.27 4h1.53v77h-1.53z"/><path style="fill:#1a2a37" d="M403.8 4h1.53v77h-1.53z"/><path style="fill:#1a2a38" d="M405.34 4h1.53v77h-1.53z"/><path style="fill:#192b39" d="M406.87 4h1.53v77h-1.53z"/><path style="fill:#192b3a" d="M408.41 4h1.53v77h-1.53z"/><path style="fill:#192c3b" d="M409.94 4h1.53v77h-1.53z"/><path style="fill:#192c3c" d="M411.48 4h1.53v77h-1.53z"/><path style="fill:#192d3d" d="M413.01 4h1.53v77h-1.53z"/><path style="fill:#192d3e" d="M414.55 4h1.53v77h-1.53z"/><path style="fill:#192e3f" d="M416.08 4h1.53v77h-1.53z"/><path style="fill:#192e40" d="M417.62 4h1.53v77h-1.53z"/><path style="fill:#182f41" d="M419.15 4h1.53v77h-1.53z"/><path style="fill:#182f42" d="M420.68 4h1.53v77h-1.53z"/><path style="fill:#183043" d="M422.22 4h1.53v77h-1.53z"/><path style="fill:#183044" d="M423.75 4h1.53v77h-1.53z"/><path style="fill:#183145" d="M425.29 4h1.53v77h-1.53z"/><path style="fill:#183146" d="M426.82 4h1.53v77h-1.53z"/><path style="fill:#183147" d="M428.36 4h1.53v77h-1.53z"/><path style="fill:#183248" d="M429.89 4h1.53v77h-1.53z"/><path style="fill:#173249" d="M431.43 4h1.53v77h-1.53z"/><path style="fill:#17334a" d="M432.96 4h1.53v77h-1.53z"/><path style="fill:#17334b" d="M434.5 4h1.53v77h-1.53z"/><path style="fill:#17344c" d="M436.03 4h1.53v77h-1.53z"/><path style="fill:#17344d" d="M437.57 4h1.53v77h-1.53z"/><path style="fill:#17354e" d="M439.1 4h1.53v77h-1.53z"/><path style="fill:#17354f" d="M440.64 4h1.53v77h-1.53z"/><path style="fill:#173650" d="M442.17 4h1.53v77h-1.53z"/><path style="fill:#173651" d="M443.71 4h1.53v77h-1.53z"/><path style="fill:#163752" d="M445.24 4h1.53v77h-1.53z"/><path style="fill:#163753" d="M446.78 4h1.53v77h-1.53z"/><path style="fill:#163754" d="M448.31 4h1.53v77h-1.53z"/><path style="fill:#163855" d="M449.85 4h1.53v77h-1.53z"/><path style="fill:#163856" d="M451.38 4h1.53v77h-1.53z"/><path style="fill:#163957" d="M452.92 4h1.53v77h-1.53z"/><path style="fill:#163958" d="M454.45 4h1.53v77h-1.53z"/><path style="fill:#163a59" d="M455.98 4h1.53v77h-1.53z"/><path style="fill:#153a5a" d="M457.52 4h1.53v77h-1.53z"/><path style="fill:#153b5b" d="M459.05 4h1.53v77h-1.53z"/><path style="fill:#153b5c" d="M460.59 4h1.53v77h-1.53z"/><path style="fill:#153c5d" d="M462.12 4h1.53v77h-1.53z"/><path style="fill:#153c5e" d="M463.66 4h1.53v77h-1.53z"/><path style="fill:#153d5f" d="M465.19 4h1.53v77h-1.53z"/><path style="fill:#153d60" d="M466.73 4h1.53v77h-1.53z"/><path style="fill:#153e61" d="M468.26 4h1.53v77h-1.53z"/><path style="fill:#153e63" d="M469.8 4h1.53v77h-1.53z"/><path style="fill:#143e64" d="M471.33 4h1.53v77h-1.53z"/><path style="fill:#143f65" d="M472.87 4h1.53v77h-1.53z"/><path style="fill:#143f66" d="M474.4 4h1.53v77h-1.53z"/><path style="fill:#144067" d="M475.94 4h1.53v77h-1.53z"/><path style="fill:#144068" d="M477.47 4H479v77h-1.53z"/><path style="fill:#144169" d="M479.01 4h1.53v77h-1.53z"/><path style="fill:#14416a" d="M480.54 4h1.53v77h-1.53z"/><path style="fill:#14426b" d="M482.08 4h1.53v77h-1.53z"/><path style="fill:#13426c" d="M483.61 4h1.53v77h-1.53z"/><path style="fill:#13436d" d="M485.15 4h1.53v77h-1.53z"/><path style="fill:#13436e" d="M486.68 4h1.53v77h-1.53z"/><path style="fill:#13446f" d="M488.22 4h1.53v77h-1.53z"/><path style="fill:#134470" d="M489.75 4h1.53v77h-1.53z"/><path style="fill:#134571" d="M491.28 4h1.53v77h-1.53z"/><path style="fill:#134572" d="M492.82 4h1.53v77h-1.53z"/><path style="fill:#134573" d="M494.35 4h1.53v77h-1.53z"/><path style="fill:#124674" d="M495.89 4h1.53v77h-1.53z"/><path style="fill:#124675" d="M497.42 4h1.53v77h-1.53z"/><path style="fill:#124776" d="M498.96 4h1.53v77h-1.53z"/><path style="fill:#124777" d="M500.49 4h1.53v77h-1.53z"/><path style="fill:#124878" d="M502.03 4h1.53v77h-1.53z"/><path style="fill:#124879" d="M503.56 4h1.53v77h-1.53z"/><path style="fill:#12497a" d="M505.1 4h1.53v77h-1.53z"/><path style="fill:#12497b" d="M506.63 4h1.53v77h-1.53z"/><path style="fill:#124a7c" d="M508.17 4h1.53v77h-1.53z"/><path style="fill:#114a7d" d="M509.7 4h1.53v77h-1.53z"/><path style="fill:#114b7e" d="M511.24 4h1.53v77h-1.53z"/><path style="fill:#114b7f" d="M512.77 4h1.53v77h-1.53z"/><path style="fill:#114b80" d="M514.31 4h1.53v77h-1.53z"/><path style="fill:#114c81" d="M515.84 4h1.53v77h-1.53z"/><path style="fill:#114c82" d="M517.38 4h1.53v77h-1.53z"/><path style="fill:#114d83" d="M518.91 4h1.53v77h-1.53z"/><path style="fill:#114d84" d="M520.45 4h1.53v77h-1.53z"/><path style="fill:#104e85" d="M521.98 4h1.53v77h-1.53z"/><path style="fill:#104e86" d="M523.52 4h1.53v77h-1.53z"/><path style="fill:#104f87" d="M525.05 4h1.53v77h-1.53z"/><path style="fill:#104f88" d="M526.59 4h1.53v77h-1.53z"/><path style="fill:#105089" d="M528.12 4h1.53v77h-1.53z"/><path style="fill:#10508a" d="M529.65 4h1.53v77h-1.53z"/><path style="fill:#10518b" d="M531.19 4h1.53v77h-1.53z"/><path style="fill:#10518c" d="M532.72 4h1.53v77h-1.53z"/><path style="fill:#0f528d" d="M534.26 4h1.53v77h-1.53z"/><path style="fill:#0f528e" d="M535.79 4h1.53v77h-1.53z"/><path style="fill:#0f528f" d="M537.33 4h1.53v77h-1.53z"/><path style="fill:#0f5390" d="M538.86 4h1.53v77h-1.53z"/><path style="fill:#0f5391" d="M540.4 4h1.53v77h-1.53z"/><path style="fill:#0f5492" d="M541.93 4h1.53v77h-1.53z"/><path style="fill:#0f5493" d="M543.47 4H545v77h-1.53z"/><path style="fill:#0f5594" d="M545 4h1.53v77H545z"/><path style="fill:#0f5595" d="M546.54 4h1.53v77h-1.53z"/><path style="fill:#0e5696" d="M548.07 4h1.53v77h-1.53z"/><path style="fill:#0e5697" d="M549.61 4h1.53v77h-1.53z"/><path style="fill:#0e5798" d="M551.14 4h1.53v77h-1.53z"/><path style="fill:#0e5799" d="M552.68 4h1.53v77h-1.53z"/><path style="fill:#0e589a" d="M554.21 4h1.53v77h-1.53z"/><path style="fill:#0e589b" d="M555.75 4h1.53v77h-1.53z"/><path style="fill:#0e589c" d="M557.28 4h1.53v77h-1.53z"/><path style="fill:#0e599d" d="M558.82 4h1.53v77h-1.53z"/><path style="fill:#0d599e" d="M560.35 4h1.53v77h-1.53z"/><path style="fill:#0d5a9f" d="M561.89 4h1.53v77h-1.53z"/><path style="fill:#0d5aa0" d="M563.42 4h1.53v77h-1.53z"/><path style="fill:#0d5ba1" d="M564.95 4h1.53v77h-1.53z"/><path style="fill:#0d5ba2" d="M566.49 4h1.53v77h-1.53z"/><path style="fill:#0d5ca3" d="M568.02 4h1.53v77h-1.53z"/><path style="fill:#0d5ca4" d="M569.56 4h1.53v77h-1.53z"/><path style="fill:#0d5da5" d="M571.09 4h1.53v77h-1.53z"/><path style="fill:#0c5da6" d="M572.63 4h1.53v77h-1.53z"/><path style="fill:#0c5ea7" d="M574.16 4h1.53v77h-1.53z"/><path style="fill:#0c5ea8" d="M575.7 4h1.53v77h-1.53z"/><path style="fill:#0c5fa9" d="M577.23 4h1.53v77h-1.53z"/><path class="cls-137" d="M578.77 4h1.53v77h-1.53zm1.53 0h11.53v77H580.3z"/></g><path d="M593.33 82.5H358.71l28.05-80h206.56v80Zm-230.38-3h227.38v-74H388.89l-25.95 74Z" style="fill:#050402"/></g><path class="cls-2" d="M557.42 69.22H178.07l17.64-51.17h379.35l-17.64 51.17z"/><path class="cls-11" d="m203.77 55.94.4-.4c1.77-1.75 2.61-2.97 3.57-5.25-1.05 0-1.68.03-2.48.18l-.59.11v-4.57l.57.08c.75.11 1.5.15 2.95.15h.21v-3.13h-.82c-1.31 0-2.01.02-2.94.18l-.58.1v-4.63l.58.1c.43.07.8.12 1.23.14-.84-1.03-1.22-1.44-2.06-2.13l-.5-.41.52-.38c2.88-2.09 4.5-3.76 5.58-5.78.32-.6.51-1.04.61-1.4l.12-.45 4.77.9-.42.63q-.24.36-.62 1.07c-.17.3-.33.55-.5.83h14.02c1.73 0 2.8-.05 3.82-.18l.56-.07v4.51l-.55-.05c-.87-.08-1.29-.11-2.47-.14v3.09h.7c1.4 0 2.06-.03 2.94-.18l.58-.1v4.64l-.58-.1c-.82-.14-1.45-.18-2.94-.18h-.7v3.13h.12c1.46 0 2.1-.03 2.85-.15l.58-.09v4.58l-.59-.12c-.74-.14-1.44-.17-2.59-.18 1.5 1.88 2.39 3.24 3.62 5.45l.23.42-3.85 2.41-.23-.53c-1.12-2.59-1.9-3.86-3.65-6.35l-.33-.47 1.83-.91h-4.23l.07.2c.82 2.31 1.25 3.72 1.83 6.47l.1.49-4.36.96-.08-.53c-.47-3.03-.66-3.86-1.43-6.4l-.16-.51 2.96-.67h-5.09l.08.46c.52 2.77.71 4.14.84 6.82l.02.48-4.38.4v-1.81c0-1.18-.25-3.94-.46-5.38l-.07-.51 3.95-.45h-6.54l2.04 1.02-.18.43c-1.26 2.99-2.06 4.28-4.06 6.6l-.31.36-3.5-2.78Zm20.93-9.69v-3.13h-1.62v3.13h1.62Zm-5.39 0v-3.13h-1.56v3.13h1.56Zm-5.36 0v-3.13h-1.5v3.13h1.5Zm10.75-7.21v-3.1h-1.62v3.1h1.62Zm-5.39 0v-3.1h-1.56v3.1h1.56Zm-5.36 0v-3.1h-1.5v3.1h1.5Zm-5.55 0v-1.22c-.43.38-.85.72-1.48 1.22h1.48Z"/><path class="cls-6" d="m210.51 29.03 3.57.68q-.25.37-.65 1.11c-.31.52-.55.92-.99 1.57h14.94c1.88 0 2.93-.06 3.88-.19v3.39c-1.02-.09-1.45-.12-3.02-.15v4.1h1.2c1.45 0 2.13-.03 3.02-.19v3.45c-.89-.15-1.6-.19-3.02-.19h-1.2v4.13h.62c1.45 0 2.13-.03 2.93-.15v3.39c-.8-.16-1.54-.19-2.87-.19H207.9c-1.2 0-1.88.03-2.74.19v-3.39c.83.12 1.63.15 3.02.15h.71v-4.13h-1.32c-1.39 0-2.1.03-3.02.19v-3.45c.89.15 1.57.19 3.02.19h1.32v-2.87c-.86.83-1.32 1.2-2.53 2.16-.96-1.17-1.36-1.6-2.25-2.34 2.9-2.1 4.59-3.82 5.73-5.95.28-.52.52-1.05.65-1.51m12.08 10.51h2.62v-4.1h-2.62v4.1m-5.33 0h2.56v-4.1h-2.56v4.1m-5.3 0h2.5v-4.1h-2.5v4.1m10.63 7.21h2.62v-4.13h-2.62v4.13m-5.33 0h2.56v-4.13h-2.56v4.13m-5.3 0h2.5v-4.13h-2.5v4.13m16.33 3.33c1.79 2.19 2.71 3.58 4.01 5.92l-2.96 1.85c-1.11-2.56-1.88-3.85-3.7-6.44l2.65-1.33m-19.94.06 2.83 1.42c-1.26 2.99-2.06 4.25-3.97 6.47l-2.68-2.13c1.88-1.85 2.77-3.18 3.82-5.76m13.74.52c.86 2.44 1.26 3.79 1.82 6.41l-3.36.74c-.46-2.99-.65-3.85-1.45-6.47l2.99-.68m-6.16.19c.52 2.8.71 4.16.83 6.75l-3.36.31v-1.26c0-1.17-.25-3.94-.46-5.46l2.99-.34m-6.15-22.97-.24.89c-.09.32-.27.74-.57 1.3-1.04 1.94-2.62 3.57-5.43 5.61l-1.05.76.99.82c.49.4.81.7 1.17 1.1l-1.1-.19v5.82l1.16-.19c.81-.13 1.43-.17 2.86-.17h.32v2.13c-1.23 0-1.91-.04-2.58-.14l-1.15-.17v5.74l1.18-.21c.55-.1 1.02-.14 1.62-.16-.81 1.78-1.62 2.88-3.15 4.38l-.81.79.89.7 2.68 2.13.75.6.63-.73c1.99-2.31 2.84-3.69 4.08-6.6.19 1.57.35 3.65.35 4.56v2.36l1.09-.1 3.36-.31.95-.09-.05-.96c-.13-2.65-.32-4.04-.82-6.75h.95l.26.83c.77 2.51.95 3.33 1.42 6.33l.16 1.05 1.04-.23 3.36-.74.97-.21-.21-.97c-.55-2.59-.97-4-1.69-6.06h1.4l-.45.23.67.95c1.73 2.46 2.49 3.72 3.6 6.26l.46 1.07.99-.62 2.96-1.85.8-.5-.46-.83c-1.05-1.91-1.87-3.19-3.02-4.69.57.02 1 .06 1.46.15l1.19.23v-5.77l-1.15.18c-.65.1-1.23.14-2.39.14v-2.13h.2c1.46 0 2.07.04 2.85.17l1.17.2v-5.82l-1.17.2c-.79.14-1.38.17-2.85.17h-.2v-2.07c.8.03 1.21.06 1.93.13l1.09.1v-5.62l-1.13.14c-.83.11-1.79.18-3.76.18h-13.13s.03-.04.04-.06q.4-.73.62-1.06l.83-1.26-1.48-.28-3.57-.68-.91-.17Zm13.8 8.56h.62v2.1h-.62v-2.1Zm-5.33 0h.56v2.1h-.56v-2.1Zm-5.3 0h.5v2.1h-.5v-2.1Zm10.63 7.18h.62v2.13h-.62v-2.13Zm-5.33 0h.56v2.13h-.56v-2.13Zm-5.3 0h.5v2.13h-.5v-2.13Z"/><path class="cls-11" d="m240.57 58.68.08-.57c.16-1.16.21-2.17.21-3.85v-5.15c0-.3 0-.61.01-.93-.33.68-.64 1.21-1.03 1.84-.92 1.41-1.58 2.25-2.74 3.47l-.52.55-.3-.7c-.6-1.42-1.04-2.24-1.67-3.14l-.25-.36.32-.3c1.31-1.22 2.26-2.39 3.28-4.02.67-1.08 1.56-2.76 2.07-3.86h-1.46c-1.26 0-1.99.07-2.76.18l-.57.08v-4.6l.59.11c.78.15 1.5.18 2.8.18h2.27v-2.13c-1.49.29-2.2.4-3.68.62l-.7.11-.11-.45c-.25-1.04-.55-1.75-1.1-2.85l-.32-.65.72-.07c5.03-.52 9.82-1.7 11.64-2.88l.4-.26 2.66 3.77-.63.22c-1.86.65-3.24 1.08-4.66 1.48v3.09h1.96c1.02 0 1.8-.02 2.5-.15l.59-.1v4.54l-.58-.09c-.77-.12-1.49-.15-2.57-.15h-1.39c1.09 1.82 2.41 3.27 4.38 4.87l.37.3-.29.38c-.56.75-1.16 1.87-1.57 2.91l-.28.72-.54-.55c-1.21-1.23-1.93-2.08-2.62-3.16.02.56.03 1.15.03 1.77v5.36c0 1.91.03 2.78.18 3.84l.08.57h-4.82Zm15.83-.46c-.78 0-1.25 0-2.31-.06l-.39-.02-.07-.39c-.23-1.32-.46-1.98-1.02-3.32l-.33-.78.84.09c1.6.17 2.83.27 4.01.27.61 0 .96-.03 1.04-.09 0 0 .03-.06.03-.33V34.33c0-1.49-.06-2.76-.18-4.15l-.05-.55h4.88l-.07.56c-.15 1.19-.21 2.39-.21 4.13v19.81c0 1.83-.49 2.88-1.65 3.49-.83.45-1.88.58-4.52.58Zm-5.69-6.69.08-.57c.12-.88.15-1.54.15-3.54V35.71c0-1.69-.03-2.57-.18-3.66l-.08-.57h4.85l-.09.57c-.15 1.02-.18 1.95-.18 3.65v11.65c0 1.96.03 2.7.15 3.6l.08.57h-4.78Z"/><path class="cls-6" d="m247.61 29.74 2 2.83c-2.22.77-3.64 1.2-4.99 1.57v3.98h2.47c1.11 0 1.88-.03 2.59-.15v3.36c-.77-.12-1.51-.15-2.65-.15h-2.25c1.2 2.22 2.65 3.91 4.93 5.76-.62.83-1.23 2-1.63 3.02-1.82-1.85-2.5-2.8-3.6-4.93.09 1.05.15 2.31.15 3.88v5.36c0 1.94.03 2.84.19 3.91h-3.67c.15-1.14.22-2.16.22-3.91v-5.15c0-1.23.06-2.65.15-3.7-.89 2.25-1.33 3.11-2.1 4.34-.86 1.33-1.51 2.16-2.68 3.39-.62-1.45-1.08-2.31-1.73-3.24 1.33-1.23 2.31-2.43 3.36-4.13.8-1.3 2-3.58 2.4-4.62h-2.22c-1.2 0-1.97.06-2.83.19v-3.42c.8.15 1.51.19 2.9.19h2.77v-3.24c-2 .4-2.65.49-4.5.77-.25-1.05-.56-1.79-1.14-2.96 5.08-.52 9.95-1.73 11.86-2.96m14.67.4c-.15 1.23-.22 2.43-.22 4.19v19.81c0 1.63-.4 2.53-1.39 3.05-.74.4-1.79.52-4.28.52-.77 0-1.23 0-2.28-.06-.25-1.39-.49-2.09-1.05-3.42 1.76.19 2.93.28 4.07.28 1.36 0 1.57-.12 1.57-.92V34.32c0-1.54-.06-2.83-.18-4.19h3.76m-7.33 1.85c-.15 1.02-.19 1.91-.19 3.73v11.65c0 1.97.03 2.74.15 3.67h-3.64c.12-.89.15-1.54.15-3.61V35.71c0-1.79-.03-2.65-.19-3.73h3.7m-7.07-3.61-.81.52c-1.74 1.12-6.54 2.3-11.42 2.8l-1.44.15.65 1.29c.53 1.07.83 1.75 1.06 2.74l.21.9.91-.14.24-.04c1.28-.19 1.98-.3 3.1-.51v1.02h-1.77c-1.42 0-2.03-.04-2.71-.17l-1.19-.23v5.79l1.14-.16c.75-.11 1.46-.18 2.69-.18h.67c-.5 1.01-1.17 2.24-1.7 3.1-.99 1.6-1.91 2.73-3.19 3.92l-.64.59.5.71c.61.87 1.04 1.67 1.62 3.05l.6 1.4 1.05-1.1c1.19-1.25 1.87-2.11 2.79-3.53.04-.06.07-.11.1-.17v4.12c0 1.66-.05 2.65-.21 3.78l-.15 1.13h5.97l-.16-1.14c-.15-1.04-.18-1.89-.18-3.77v-5.53c.47.59 1.02 1.19 1.74 1.92l1.08 1.1.57-1.43c.38-.95.92-1.97 1.43-2.68 0 1.91-.04 2.48-.15 3.26l-.16 1.14h5.93l-.15-1.13c-.12-.87-.15-1.6-.15-3.54V35.7c0-1.71.02-2.59.17-3.58l.17-1.15h-6.01l.09.66-1.76-2.49-.55-.78Zm-2.25 6.53c1.3-.37 2.61-.79 4.32-1.39l.44-.15c.04.59.05 1.29.05 2.35v1.1l-.93.16c-.67.12-1.42.14-2.42.14h-1.47v-2.22Zm.93 7.27h.48c1.05 0 1.76.02 2.49.14l.92.15v3.77l-.1-.08c-1.64-1.33-2.82-2.56-3.79-3.99Zm16.86-13.03h-5.99l.1 1.09c.12 1.38.18 2.64.18 4.1V53.5c-.13 0-.31.01-.57.01-1.02 0-2.1-.07-3.96-.27l-1.68-.18.65 1.56c.54 1.29.76 1.94.99 3.21l.14.78.79.05c1.08.06 1.55.06 2.34.06 2.74 0 3.85-.15 4.76-.64 1.69-.9 1.91-2.57 1.91-3.93V34.34c0-1.71.06-2.89.21-4.07l.14-1.12Z"/><path class="cls-11" d="M280.15 58.18c-3.35 0-4.61-.14-5.58-.6-1.21-.56-1.45-1.55-1.45-2.95v-3.58c0-1.06-.03-1.56-.18-2.41l-.11-.59h4.8l-.1.59c-.03.18-.06.36-.08.54l1.63-1.18h-6.05c-1.64 0-2.43.03-3.37.12l-.6.06.06-.61c.09-.95.12-1.56.12-3.46v-8.44c0-1.7-.03-2.68-.12-3.52l-.06-.61.61.06c.96.09 1.92.12 3.68.12h3.29c.48-.98.75-1.7.97-2.55l.11-.42 4.81.56-.28.62c-.4.89-.61 1.35-.84 1.79h5.41c1.76 0 2.73-.03 3.68-.12l.6-.06-.06.6c-.09.94-.12 1.8-.12 3.53v8.44c0 1.82.03 2.59.12 3.46l.07.62s-.75-.08-.82-.09l.18.23c1.98 2.48 2.82 3.8 4.31 6.74l.22.43-3.97 2.16-.21-.52c-.73-1.77-1.42-3.17-2.33-4.63v.06c-.34 2.67-.59 3.68-1.44 4.42-.99.85-2.86 1.17-6.89 1.17Zm-2.73-8.63c-.03.39-.04.85-.04 1.51v2.62c0 .35.04.43.04.45.19.06.74.16 2.38.16 1.41 0 3.35-.03 3.9-.27.3-.15.39-1.34.42-2.09l-2.36 2-.32-.4a24.113 24.113 0 0 0-3.75-3.74l-.29-.23Zm7.54 1.59c1.26.58 1.97.79 3.07.89l.15.02c-.37-.57-.77-1.15-1.22-1.78l-.35-.48 3.47-1.69c-.7-.06-1.62-.08-2.96-.08h-5.38c1.05.87 1.77 1.58 2.91 2.79l.32.34Zm1.72-6.78v-.73h-13.21v.73h13.21Zm0-4.13v-.67h-13.21v.67h13.21Zm0-4.07v-.76h-13.21v.76h13.21Zm-21.57 19.21.32-.41c1.7-2.18 2.3-3.35 3.21-6.28l.16-.51 3.93 1.5-.14.45c-1.01 3.19-1.84 4.94-3.54 7.46l-.29.43-3.64-2.64Z"/><path class="cls-6" d="m278.09 29.3 3.7.43c-.62 1.35-.77 1.69-1.23 2.5h6.25c1.76 0 2.74-.03 3.73-.12-.09.95-.12 1.82-.12 3.58v8.44c0 1.88.03 2.65.12 3.51-.83-.09-1.91-.12-3.42-.12h-14.08c-1.66 0-2.47.03-3.42.12.09-.95.12-1.57.12-3.51v-8.44c0-1.66-.03-2.68-.12-3.58.99.09 1.97.12 3.73.12h3.6c.59-1.17.89-1.97 1.14-2.93m-5.12 7.37h14.21v-1.76h-14.21v1.76m0 4.07h14.21v-1.66h-14.21v1.66m0 4.13h14.21v-1.73h-14.21v1.73m7.49 2.77c1.63 1.26 2.37 1.97 3.82 3.51l-2.44 2.06a24.642 24.642 0 0 0-3.82-3.82l2.43-1.76m-3.42.92c-.12.71-.15 1.29-.15 2.49v2.62c0 .62.09.8.4.92.37.12 1.23.19 2.53.19 2.4 0 3.6-.09 4.1-.31.49-.25.68-1.02.74-2.93 1.33.62 2.1.86 3.33.99-.34 2.74-.59 3.51-1.26 4.1-.86.74-2.68 1.05-6.56 1.05-3.24 0-4.47-.12-5.36-.55-.86-.4-1.17-1.02-1.17-2.5v-3.58c0-1.11-.03-1.63-.19-2.49h3.6m13.04.09c1.94 2.43 2.77 3.73 4.25 6.66l-3.05 1.66c-1.08-2.62-2.1-4.47-3.91-6.99l2.71-1.33m-20.95.18 2.99 1.14c-1.02 3.2-1.82 4.87-3.48 7.33l-2.8-2.03c1.76-2.25 2.37-3.48 3.3-6.44m8.22-20.63-.22.84c-.19.74-.42 1.37-.8 2.18h-2.98c-1.74 0-2.69-.03-3.63-.12l-1.21-.11.13 1.21c.08.82.12 1.79.12 3.47v8.44c0 1.89-.03 2.48-.12 3.42v.03l-.13-.05-.32 1.02c-.89 2.86-1.48 4.01-3.13 6.12l-.64.82.84.61 2.8 2.03.84.61.58-.86c1.48-2.19 2.31-3.81 3.16-6.25v3.02c0 1.34.21 2.69 1.75 3.4 1.04.5 2.34.65 5.78.65 4.16 0 6.12-.35 7.22-1.29.8-.69 1.13-1.54 1.42-3.36a32.27 32.27 0 0 1 1.57 3.32l.42 1.03.98-.53 3.05-1.66.85-.46-.44-.87c-1.35-2.68-2.18-4.04-3.8-6.12l.25.03-.13-1.24c-.09-.85-.12-1.61-.12-3.41v-8.44c0-1.71.03-2.56.12-3.48l.12-1.21-1.21.11c-.94.09-1.89.12-3.64.12h-4.61c.13-.28.29-.62.49-1.06l.57-1.25-1.35-.18-3.7-.43-.87-.1Zm5.74 20.31h5l-1.15.56-1.06.52.69.96c.21.29.4.57.59.84-.57-.12-1.11-.32-1.88-.67l-.25-.26c-.76-.8-1.33-1.39-1.94-1.95Zm-11.94.02c.36-.01.77-.02 1.27-.02l.04.22c.02.11.04.22.05.32h-.04l-1.33-.52Zm6.75 5.17v-3.13c1.15.98 2.16 2.01 3.13 3.2-.35 0-.75.01-1.2.01-1.07 0-1.64-.04-1.93-.08Zm4.95-.02.7-.59c-.04.28-.09.43-.12.5-.12.03-.3.06-.58.09Z"/><path class="cls-11" d="M311.95 58.66c-.96-1.08-1.54-1.6-2.57-2.44l-.13-.11c-.26.27-.5.56-.72.86l-.36.48-.41-.45c-1.77-1.96-1.8-2-3.05-4.05l-.25-.41 1.96-1.29h-3.94l1.98 1.21-.26.43c-1.56 2.57-2.42 3.59-4.84 5.73l-.41.36-.32-.44c-.64-.87-1.06-1.33-2.29-2.34l-.5-.42.53-.38c1.92-1.36 2.93-2.38 4.06-4.15h-1.4c-1.2 0-1.72.03-2.29.12l-.58.09v-4.28l.57.08c.54.08.98.12 2.11.12V36.49c-.88 0-1.3.04-1.76.11l-.58.1v-4.34l.62.15c.4.09.81.13 1.73.14v-.02c0-1.02-.02-1.8-.15-2.54l-.1-.58h4.54l-.1.58c-.12.74-.15 1.52-.15 2.54v.02h3.44v-.02c0-1.1-.02-1.86-.15-2.53l-.11-.59h4.55l-.1.59c-.12.7-.15 1.49-.15 2.53.74-.02 1.11-.05 1.51-.12l.54-.09c-.02-.51-.06-.94-.11-1.39l-.07-.61.62.06c.96.09 1.78.12 3.37.12h4.47c1.64 0 2.34-.03 3.28-.12l.62-.06-.07.62c-.09.74-.12 1.61-.12 3.33V54.8c0 1.73-.54 2.84-1.6 3.29-.87.39-2.25.47-3.25.47h-.01c-.37 0-.44 0-1.96-.09l-.42-.03-.05-.42c-.15-1.28-.32-2.01-.77-3.28l-.29-.81.85.15c1.44.25 1.99.3 2.62.3.45 0 .61-.03.67-.05v-5.38h-4.04c-.48 4.64-1.31 6.95-3.45 9.7l-.37.48-.4-.45Zm-3.67-7.41c.75 1.15.95 1.35 2.29 2.58.44-.75.76-1.55 1.01-2.5-.58-.05-1.32-.08-2.43-.08h-.87Zm-1.94-3.87v-1.34h-3.44v1.34h3.44Zm4.05-.02c.6-.02.85-.03 1.27-.1l.52-.08c.18-2.44.27-5.8.29-10.48l-.57-.1c-.41-.07-.79-.1-1.51-.11v10.88Zm9.82-2.36v-3.34h-3.63c-.03 1.35-.05 2.31-.11 3.34h3.74Zm-13.87-2.68v-1.1h-3.44v1.1h3.44Zm13.87-4.62v-3.07h-3.59v3.07h3.59Zm-13.87-.19v-1.03h-3.44v1.03h3.44Z"/><path class="cls-6" d="M310.04 30.01c-.12.71-.15 1.48-.15 2.62v.52c1.08-.03 1.57-.06 2.1-.15v3.11c-.52-.09-.99-.12-2.1-.12v11.89c1.02-.03 1.29-.03 1.85-.12v3.08c-.59-.06-1.33-.09-2.59-.09h-10.11c-1.26 0-1.79.03-2.37.12v-3.11c.62.09 1.11.12 2.28.12h.4V35.99c-1.29 0-1.79.03-2.34.12V33c.52.12 1.05.15 2.34.15v-.52c0-1.11-.03-1.88-.15-2.62h3.36c-.12.74-.15 1.51-.15 2.62v.52h4.44v-.52c0-1.2-.03-1.94-.15-2.62h3.36m-7.64 8.01h4.44v-2.03h-4.44v2.03m0 4.81h4.44v-2.1h-4.44v2.1m0 5.05h4.44v-2.34h-4.44v2.34m21.63-16.92c-.09.77-.12 1.69-.12 3.39v20.43c0 1.51-.43 2.47-1.29 2.84-.62.28-1.7.43-3.05.43-.37 0-.43 0-1.94-.09-.15-1.32-.34-2.09-.8-3.39 1.39.25 2 .31 2.71.31.96 0 1.17-.12 1.17-.68v-5.76h-4.99c-.46 4.87-1.23 7.12-3.39 9.89-.96-1.08-1.54-1.6-2.62-2.5 1.51-1.69 2.22-3.27 2.65-5.73.43-2.65.62-7.21.62-15.13 0-2.09-.03-2.96-.15-4.01.99.09 1.82.12 3.42.12h4.47c1.69 0 2.4-.03 3.33-.12m-7.92 7.24h4.59v-4.07h-4.59v4.07m-.18 7.3h4.78v-4.34h-4.62c-.03 1.82-.06 2.96-.15 4.34m-14.76 5.52 2.62 1.6c-1.57 2.59-2.4 3.54-4.74 5.61-.68-.92-1.14-1.42-2.37-2.43 2.13-1.51 3.2-2.65 4.5-4.78m6.41.06c1.08 1.66 1.14 1.73 2.87 3.3-.96.74-1.66 1.42-2.31 2.28q-1.76-1.94-2.99-3.97l2.43-1.6m3.65-22.08h-5.75l.21 1.18c.09.48.13 1.02.14 1.96h-2.43c0-.77.04-1.39.14-1.98l.19-1.16h-5.72l.19 1.16c.1.58.13 1.2.14 1.97-.53-.02-.83-.05-1.11-.12l-1.23-.29v5.56l1.16-.19c.31-.05.6-.08 1.18-.1v9.88c-.75-.01-1.11-.05-1.54-.11l-1.15-.17v5.44l1.16-.18c.49-.08.93-.11 2.22-.11h.46c-.91 1.26-1.85 2.13-3.41 3.24l-1.06.76 1.01.83c1.19.98 1.59 1.42 2.2 2.25l.65.88.82-.72c2.36-2.08 3.27-3.12 4.74-5.52 1.12 1.84 1.22 1.96 2.95 3.87l.81.9.73-.97c.12-.16.24-.31.37-.46.88.73 1.41 1.22 2.27 2.19l.8.9.74-.95c1.19-1.53 1.99-2.93 2.55-4.64l.22.61c.44 1.23.61 1.94.75 3.17l.1.83.84.05c1.48.09 1.59.09 2 .09 1.05 0 2.5-.09 3.46-.52.85-.37 1.89-1.32 1.89-3.75V34.36c0-1.68.03-2.56.12-3.27l.15-1.24-1.24.12c-.92.09-1.61.12-3.23.12h-4.47c-1.57 0-2.38-.03-3.33-.12l-1.23-.12.14 1.23c.04.31.06.6.08.92l-.1.02c-.26.05-.53.08-.92.1 0-.77.04-1.38.14-1.93l.2-1.17Zm5.88 6.13h2.59v2.07h-2.59v-2.07Zm-13.71 1.85h2.44v.03h-2.44v-.03Zm7.49 9.86v-9.84c.42.02.66.05.92.09l.16.03c-.02 4.21-.1 7.32-.26 9.63l-.13.02c-.25.04-.43.06-.69.07Zm-7.49-5.11h2.44v.1h-2.44v-.1Zm13.66.43h2.64v2.34h-2.72c.04-.73.06-1.46.08-2.34Zm-13.66 4.38h2.44v.34h-2.44v-.34Zm13.21 2.9h3.09v4.44h-.17c-.61 0-1.14-.04-2.54-.29l-1.07-.19c.3-1.13.52-2.42.69-3.96Zm-12.35 2.31h.49l-.16.11-.07.05-.21-.13-.04-.03Zm6.17 1.28c-.6-.56-.9-.86-1.21-1.28.7 0 1.25.01 1.71.03-.14.44-.3.85-.49 1.24Z"/><path class="cls-11" d="m328.06 58.52.08-.57c.11-.84.18-1.76.18-3.76V34.07c0-1.58-.03-2.44-.12-3.4l-.06-.61.61.07c.84.09 1.63.12 3.12.12h5.45c1.54 0 2.26-.03 3.09-.12l.59-.07-.04.59c-.06.98-.09 1.66-.09 2.83v4.72c0 1.48.04 2.15.09 2.76l.05.59-.59-.05c-.76-.06-1.71-.09-2.8-.09h-5.08v12.81c0 1.76.05 2.87.18 3.72l.08.57h-4.75Zm8.79-20.48v-.57h-4.3v.57h4.3Zm0-3.76v-.54h-4.3v.54h4.3Zm12.83 23.93c-.44 0-.56 0-2.16-.09l-.41-.02-.05-.41c-.16-1.23-.3-1.77-.66-2.75-.7-.02-1.16-.02-1.37-.02H339v1.73h-4.36l.1-.58c.12-.75.21-1.96.21-3v-7.52c0-1.05-.03-1.9-.09-2.74l-.04-.6.59.06c.89.09 1.57.12 2.82.12h6.87c1.26 0 1.92-.03 2.81-.12l.6-.06-.04.6c-.07.85-.09 1.62-.09 2.74v6.25c0 .99.02 1.63.06 2.22.9.08 1.53.11 1.87.11.64 0 .64-.07.64-.33V41.42h-5.57c-1.1 0-2.07.03-2.79.09l-.58.05.04-.58c.06-.89.09-1.45.09-2.77v-4.72c0-1-.03-1.85-.09-2.83l-.04-.6.59.07c.82.09 1.57.12 3.09.12h5.92c1.51 0 2.27-.03 3.12-.12l.6-.06-.05.6c-.09 1.13-.12 1.88-.12 3.38v20.18c0 1.75-.3 2.96-1.79 3.57-.71.3-1.63.41-3.67.41Zm-5.4-6.88v-1h-5.29v1h5.29Zm0-4.5v-.85h-5.29v.85h5.29Zm6.66-8.78v-.57h-4.76v.57h4.76Zm0-3.76v-.54h-4.76v.54h4.76Z"/><path class="cls-6" d="M354.76 30.63c-.09 1.11-.12 1.88-.12 3.42v20.19c0 1.85-.37 2.65-1.48 3.11-.65.28-1.57.37-3.48.37-.43 0-.55 0-2.13-.09-.18-1.39-.34-1.94-.8-3.18-.89-.03-1.48-.03-1.73-.03h-6.53v1.73h-3.27c.12-.74.22-1.97.22-3.08v-7.52c0-1.08-.03-1.94-.09-2.77.89.09 1.6.12 2.87.12h6.87c1.29 0 1.97-.03 2.87-.12-.06.8-.09 1.57-.09 2.77v6.25c0 1.17.03 1.88.09 2.68.68.06 1.79.15 2.34.15.86 0 1.14-.21 1.14-.83V40.92h-6.07c-1.08 0-2.06.03-2.84.09.06-.89.09-1.48.09-2.8v-4.72c0-1.05-.03-1.91-.09-2.87.83.09 1.57.12 3.14.12h5.92c1.54 0 2.31-.03 3.17-.12m-9.09 4.16h5.76v-1.54h-5.76v1.54m0 3.76h5.76v-1.57h-5.76v1.57m-7.18 8.78h6.29v-1.85h-6.29v1.85m0 4.5h6.29v-2h-6.29v2m1.97-21.2c-.06.99-.09 1.66-.09 2.87v4.72c0 1.42.03 2.13.09 2.8-.8-.06-1.76-.09-2.84-.09h-5.58v13.31c0 1.85.06 2.96.18 3.79h-3.6c.12-.92.18-1.91.18-3.82V34.08c0-1.6-.03-2.47-.12-3.45.86.09 1.66.12 3.17.12h5.45c1.6 0 2.31-.03 3.14-.12m-8.41 4.16h5.3v-1.54h-5.3v1.54m0 3.76h5.3v-1.57h-5.3v1.57m9.4-9.05-1.1.13c-.81.09-1.52.12-3.03.12h-5.45c-1.47 0-2.24-.03-3.07-.12l-1.22-.13.11 1.22c.09.94.12 1.79.12 3.36V54.2c0 1.98-.07 2.88-.18 3.69l-.15 1.13h5.91l-.17-1.15c-.12-.81-.17-1.93-.17-3.64V41.92h1.23l.07.92c.06.83.09 1.66.09 2.7v7.52c0 1-.08 2.2-.2 2.92l-.19 1.16h5.45v-1.73h5.53c.17 0 .52 0 1.02.01.26.76.38 1.27.52 2.33l.11.82.82.05c1.6.09 1.74.09 2.18.09 2.12 0 3.1-.11 3.88-.45 1.73-.72 2.08-2.13 2.08-4.03V34.04c0-1.48.03-2.23.12-3.34l.1-1.21-1.2.13c-.83.09-1.58.12-3.07.12h-5.92c-1.51 0-2.22-.03-3.03-.12l-1.1-.12h-.08Zm.05 11.86-.04-.44c-.05-.59-.09-1.25-.09-2.71v-4.72c0-1.16.03-1.83.09-2.8l.03-.52.03.53c.06.97.09 1.81.09 2.8v4.72c0 1.3-.03 1.86-.09 2.73l-.03.42Zm7.52.56h1.42v11.71h-.14c-.27 0-.75-.03-1.4-.08a39.4 39.4 0 0 1-.04-1.76v-6.25c0-1.11.02-1.86.09-2.7l.07-.92Zm-9.53 8.9h4.29-4.29Z"/><path class="cls-9" d="M372.15 58.14c-.42-1.32-.71-1.88-1.55-2.97l-.52-.69.86-.11c2.43-.32 3.97-.74 5.13-1.41 2.17-1.2 3.46-3.53 3.46-6.24 0-2.4-1.05-4.31-3.04-5.5-.65-.38-1.2-.57-2.01-.68-.53 4.06-1.46 7.61-2.75 10.55-1.6 3.63-3.47 5.32-5.88 5.32-3.32 0-5.73-3.32-5.73-7.9 0-3.05 1.09-5.93 3.07-8.11 2.33-2.55 5.64-3.9 9.56-3.9 6.73 0 11.08 4.09 11.08 10.41 0 4.8-2.54 8.7-6.8 10.43-1.28.53-2.32.81-4.3 1.15l-.43.07-.13-.41Zm-1.94-17.54c-.97.18-1.72.51-2.58 1.13-2.11 1.51-3.42 4.11-3.42 6.8 0 2.02.85 3.43 1.61 3.43.37 0 1.16-.4 2.29-3.11.92-2.18 1.74-5.41 2.1-8.25Z"/><path class="cls-6" d="M372.73 37c6.41 0 10.58 3.9 10.58 9.91 0 4.62-2.4 8.31-6.49 9.96-1.28.53-2.32.8-4.19 1.12-.45-1.42-.77-2-1.63-3.12 2.46-.32 4.06-.75 5.32-1.47 2.32-1.28 3.71-3.82 3.71-6.68 0-2.56-1.15-4.65-3.29-5.93-.83-.48-1.52-.69-2.7-.8-.51 4.19-1.44 7.88-2.78 10.9-1.52 3.44-3.23 5.02-5.42 5.02-3.05 0-5.23-3.1-5.23-7.4 0-2.94 1.04-5.69 2.94-7.77 2.24-2.46 5.4-3.74 9.19-3.74m-1.95 3.02c-1.39.16-2.35.54-3.45 1.31-2.24 1.6-3.63 4.35-3.63 7.21 0 2.19.94 3.93 2.11 3.93.88 0 1.79-1.12 2.75-3.42 1.02-2.41 1.9-6.01 2.22-9.03m1.95-4.02c-4.07 0-7.5 1.41-9.93 4.06-2.06 2.27-3.2 5.27-3.2 8.45 0 4.87 2.62 8.4 6.23 8.4 1.71 0 3.02-.78 4.03-1.87l.33.43c.8 1.06 1.07 1.56 1.47 2.82l.27.83.86-.15c2.02-.35 3.09-.63 4.41-1.18 4.45-1.8 7.11-5.87 7.11-10.89 0-6.53-4.65-10.91-11.58-10.91Zm-1.95 17.89c.58-.85 1.03-1.77 1.39-2.59 1.26-2.86 2.18-6.28 2.72-10.17.49.11.88.27 1.33.53 1.82 1.09 2.79 2.85 2.79 5.06 0 2.53-1.19 4.7-3.2 5.8-1.12.64-2.6 1.04-4.96 1.35h-.08Zm-4.97-2.41c-.33 0-1.11-1-1.11-2.93 0-2.53 1.23-4.98 3.21-6.4.58-.41 1.11-.69 1.69-.87-.4 2.6-1.14 5.43-1.97 7.39-1.14 2.73-1.82 2.81-1.83 2.81Z"/><path class="cls-9" d="M390.49 57.15c-1-1.56-1.4-2.03-2.68-3.16l-.54-.48.64-.34c3.75-1.98 6.23-4.38 7.8-7.54.83-1.69 1.26-3.15 1.52-5.2.02-.14.04-.27.06-.39l-4.52.03c-1.83 0-2.25.03-3.27.15l-.55.07-.04-4.95.59.1c1.03.18 1.84.24 3.33.24l4.93-.03c.07-1.12.12-2.58.12-3.36v-.77c0-.39 0-.61-.09-1.12l-.1-.6 5.3.12-.12.8c-.04.22-.06.36-.08.67 0 .07 0 .17-.01.27 0 .09-.01.18-.01.28q-.06.69-.12 2.27v.33c-.03.35-.04.63-.08 1.09l6.29-.03c1.34 0 1.58-.03 2.28-.25l.27-.09 2.25 1.97-.15.34c-.21.47-.27.84-.3 1.88-.09 3.56-.44 8.29-.75 10.32-.78 5.18-1.81 7.02-6.07 7.02-1.21 0-2.26-.09-3.9-.35l-.41-.06v-.42c-.08-1.92-.17-2.45-.69-3.78l-.36-.92.96.26c1.76.48 2.97.69 3.94.69.84 0 1.27-.12 1.79-2.95.36-2.08.64-5.98.67-9.27l-6.23.03c-.44 3.66-1.1 5.94-2.47 8.54-1.74 3.34-4.51 6.2-8.5 8.73l-.42.27-.27-.42Z"/><path class="cls-6" d="m398.27 30.32 4.13.09c-.06.4-.09.52-.12.95 0 .19-.03.37-.03.59q-.06.65-.12 2.25c-.03.68-.03.95-.12 1.94l6.84-.03c1.39 0 1.66-.03 2.43-.28l1.76 1.54c-.25.55-.31.99-.34 2.06-.09 3.48-.43 8.23-.74 10.26-.8 5.33-1.88 6.59-5.58 6.59-1.17 0-2.22-.09-3.82-.34-.06-1.94-.15-2.53-.71-3.94 1.82.49 3.05.71 4.07.71 1.33 0 1.79-.68 2.28-3.36.37-2.13.68-6.32.68-9.86l-7.18.03c-.43 3.85-1.08 6.16-2.46 8.81-1.7 3.27-4.44 6.07-8.32 8.54-1.05-1.64-1.48-2.13-2.77-3.27 3.85-2.03 6.38-4.47 8.01-7.76.83-1.7 1.29-3.2 1.57-5.36.06-.43.12-.74.15-.95l-5.12.03c-1.88 0-2.31.03-3.33.15l-.03-3.79c1.05.18 1.88.25 3.42.25l5.39-.03c.09-1.17.15-2.96.15-3.85v-.77c0-.4 0-.65-.09-1.2m-1.19-1.03.2 1.19c.08.47.08.66.08 1.04v.77c0 .66-.04 1.83-.09 2.86l-4.46.03c-1.45 0-2.24-.06-3.24-.23l-1.18-.21v1.2l.04 3.79v1.12l1.12-.13c.99-.12 1.4-.15 3.21-.15l3.95-.02c-.26 1.9-.67 3.28-1.45 4.87-1.54 3.11-3.88 5.37-7.58 7.32l-1.28.68 1.09.96c1.25 1.1 1.62 1.53 2.59 3.06l.54.84.84-.53c4.06-2.58 6.89-5.49 8.67-8.92 1.34-2.56 2.02-4.8 2.46-8.28l5.28-.02c-.05 3.15-.31 6.73-.66 8.68-.47 2.53-.76 2.53-1.29 2.53-.92 0-2.09-.21-3.81-.67l-1.92-.52.72 1.85c.5 1.27.58 1.74.64 3.61l.03.83.82.13c1.64.25 2.76.35 3.97.35 4.66 0 5.79-2.3 6.57-7.45.31-2.05.66-6.81.75-10.38.03-1.03.09-1.31.25-1.68l.3-.67-.55-.49-1.76-1.54-.43-.37-.54.17c-.63.2-.79.23-2.13.23l-5.76.03.03-.56v-.33q.08-1.58.13-2.2v-.1c0-.08 0-.16.01-.23 0-.11.02-.21.02-.31.02-.28.04-.41.08-.61l.04-.23.17-1.13-1.14-.03-4.13-.09-1.21-.03Z"/><path class="cls-9" d="M444.1 46.41c-1.2-.15-1.56-.15-4.96-.15h-16.36c-3.4 0-3.76 0-4.96.15l-.56.07v-5.42l.57.08c1.3.18 1.82.21 4.92.21h16.42c3.1 0 3.63-.04 4.92-.21l.57-.08v5.42l-.56-.07Z"/><path class="cls-6" d="M444.16 41.63v4.28c-1.23-.15-1.57-.15-5.02-.15h-16.36c-3.45 0-3.79 0-5.02.15v-4.28c1.36.19 1.94.22 4.99.22h16.42c3.05 0 3.64-.03 4.99-.22m1-1.15-1.14.16c-1.27.17-1.79.21-4.86.21h-16.42c-3.07 0-3.59-.03-4.86-.21l-1.14-.16v6.56l1.12-.14c1.17-.15 1.45-.15 4.9-.15h16.36c3.45 0 3.73 0 4.9.15l1.12.14v-6.56Z"/><path class="cls-9" d="m450.76 57.47.08-.57c.11-.8.18-1.61.18-3.38V33.77c-.03-1.8-.07-2.38-.18-3.06l-.1-.58h5.37l-.06.55c-.09.82-.12 1.39-.12 3.18v5.37c3.59 1.22 8.92 3.71 13.74 6.43l.45.25-2.7 4.54-.44-.32c-2.17-1.55-6.52-3.9-10.82-5.84l-.26-.12c.03.42.04.8.04 1.24v8.14c0 1.64.03 2.49.12 3.37l.06.55h-5.35Zm13.91-19.33c-1.01-1.87-1.84-3.05-3.17-4.49l-.45-.49 3.08-1.54.25.27c1.37 1.46 2.24 2.67 3.31 4.63l.24.44-3.04 1.61-.24-.44Zm3.7-1.94c-.91-1.66-1.91-3.09-3.08-4.37l-.44-.48 2.97-1.55.26.27c1.42 1.45 2.31 2.65 3.29 4.46l.23.43-3 1.69-.24-.45Z"/><path class="cls-6" d="M467.73 30.41c1.39 1.42 2.25 2.59 3.21 4.34l-2.13 1.2c-.93-1.69-1.94-3.14-3.14-4.47l2.06-1.08m-12.17.21c-.09.83-.12 1.42-.12 3.24v5.73c3.57 1.17 9.12 3.76 13.99 6.5l-2.16 3.64c-2.16-1.54-6.53-3.91-10.91-5.89-.71-.34-.8-.37-1.05-.52.09.86.12 1.39.12 2.09v8.14c0 1.66.03 2.53.12 3.42h-4.22c.12-.86.19-1.69.19-3.45V33.76c-.03-1.79-.06-2.4-.19-3.14h4.22m8.47 1.6c1.36 1.45 2.19 2.62 3.24 4.53l-2.16 1.14c-1.02-1.88-1.88-3.11-3.23-4.59l2.16-1.08m3.89-3.05-.66.34-2.06 1.08-.89.46-.06-.07-.67.33-2.16 1.08-1.19.59.9.98c1.29 1.41 2.1 2.56 3.09 4.39l.47.87.88-.46 2.16-1.14.66-.35.02.04.88-.5 2.13-1.2.86-.48-.47-.86c-1-1.85-1.92-3.08-3.37-4.57l-.52-.53Zm-11.25.45h-6.52l.19 1.16c.11.65.14 1.19.17 3v19.73c0 1.75-.06 2.52-.18 3.31l-.16 1.14h6.48l-.11-1.1c-.09-.86-.12-1.7-.12-3.32v-8.58c4.13 1.89 8.19 4.1 10.26 5.57l.89.63.56-.94 2.16-3.64.52-.88-.89-.5c-4.69-2.64-9.87-5.08-13.48-6.35v-5.02c0-1.76.03-2.33.12-3.13l.12-1.11Z"/><path class="cls-9" d="m475.27 56.46.07-.56c.09-.7.12-1.4.12-2.59V35.65c0-1.12-.03-1.69-.12-2.53l-.07-.61.61.05c.69.06 1.3.09 2.58.09h17.5c1.31 0 1.84-.03 2.54-.09l.59-.05-.04.59c-.06.78-.09 1.39-.09 2.52v17.63c0 1.2.04 1.98.12 2.62l.07.56h-5.04V54.3h-13.79v2.16h-5.04Zm18.83-6.67V37.14h-13.79v12.65h13.79Z"/><path class="cls-6" d="M498.55 33.06c-.06.8-.09 1.42-.09 2.56v17.63c0 1.14.03 1.97.12 2.68h-3.97V53.8h-14.79v2.16h-3.97c.09-.74.12-1.48.12-2.65V35.65c0-1.17-.03-1.76-.12-2.59.74.06 1.39.09 2.62.09h17.5c1.33 0 1.88-.03 2.59-.09m-18.74 17.23h14.79V36.64h-14.79v13.65m19.82-18.33-1.18.1c-.69.06-1.21.09-2.5.09h-17.5c-1.25 0-1.86-.03-2.53-.09l-1.21-.1.14 1.21c.09.81.12 1.37.12 2.48v17.66c0 1.17-.03 1.86-.12 2.53l-.14 1.12h6.11V54.8h12.79v2.13h6.11l-.15-1.13c-.08-.61-.11-1.38-.11-2.55V35.62c0-1.12.03-1.71.09-2.48l.09-1.18Zm-18.82 5.68h12.79v11.65h-12.79V37.64Z"/><path class="cls-9" d="M530.38 46.41c-1.2-.15-1.49-.15-4.96-.15h-16.36c-3.4 0-3.76 0-4.96.15l-.56.07v-5.42l.57.08c1.3.18 1.82.21 4.92.21h16.42c3.1 0 3.63-.04 4.92-.21l.57-.08v5.42l-.56-.07Z"/><path class="cls-6" d="M530.45 41.63v4.28c-1.23-.15-1.57-.15-5.02-.15h-16.36c-3.45 0-3.79 0-5.02.15v-4.28c1.36.19 1.94.22 4.99.22h16.42c3.05 0 3.64-.03 4.99-.22m1-1.15-1.14.16c-1.27.17-1.79.21-4.86.21h-16.42c-3.07 0-3.59-.03-4.86-.21l-1.14-.16v6.56l1.12-.14c1.17-.15 1.45-.15 4.9-.15h16.36c3.45 0 3.73 0 4.9.15l1.12.14v-6.56Z"/><path class="cls-9" d="m532.4 51.43.61-.04c2.66-.15 6.25-1.05 8.95-2.24 3.78-1.63 6.54-3.91 8.94-7.38 1.33-1.94 2.17-3.58 3.09-6.05l.3-.81.55.67c1.18 1.43 1.66 1.86 3.17 2.93l.34.24-.18.38c-2.67 5.76-5.65 9.43-9.95 12.29-3.2 2.13-7.09 3.67-11.91 4.7-1.21.24-1.28.27-1.97.51l-.51.18-1.44-5.37Zm8.2-9.02c-2.49-2.64-4.95-4.6-7.74-6.16l-.53-.29 3.23-3.85.37.23c3.72 2.31 5.67 3.77 8.03 6.01l.33.31-3.29 4.17-.4-.42Z"/><path class="cls-6" d="M535.66 32.75c3.67 2.28 5.58 3.7 7.95 5.95l-2.65 3.36c-2.46-2.62-4.99-4.65-7.86-6.26l2.56-3.05m18.8 3.14c1.2 1.45 1.7 1.91 3.27 3.02-2.62 5.64-5.55 9.28-9.77 12.08-3.14 2.1-6.96 3.61-11.74 4.62-1.23.25-1.33.28-2.03.52l-1.14-4.25c2.65-.15 6.32-1.05 9.12-2.28 3.85-1.66 6.72-4.04 9.15-7.55 1.36-1.97 2.22-3.67 3.14-6.16m-19.01-4.45-.56.66-2.56 3.05-.78.93 1.05.59c2.75 1.54 5.17 3.46 7.62 6.07l.79.84.72-.91 2.65-3.36.57-.72-.66-.63c-2.39-2.26-4.36-3.74-8.11-6.07l-.74-.46Zm18.67 2.48-.6 1.62c-.9 2.43-1.72 4.04-3.03 5.94-2.34 3.38-5.04 5.6-8.72 7.2-2.65 1.17-6.18 2.05-8.78 2.2l-1.23.07.32 1.19 1.14 4.25.28 1.04 1.02-.35c.68-.24.73-.25 1.9-.49 4.9-1.04 8.85-2.6 12.1-4.77 4.38-2.91 7.41-6.64 10.12-12.49l.35-.76-.68-.48c-1.48-1.05-1.91-1.44-3.07-2.84l-1.11-1.33Z"/><g style="opacity:.5"><path d="m193.83 55.33-9.37-9.87c.39-2.07.6-4.2.6-6.37 0-18.85-15.28-34.14-34.14-34.14s-34.14 15.28-34.14 34.14 15.28 34.14 34.14 34.14c11.6 0 21.84-5.79 28.01-14.63l14.89-3.25Z" style="fill:#fcee21"/><path class="cls-137" d="m137.8 53.29-4.76 1.66-.39-4.04 4.76-1.66-.13-1.2-4.73 1.65-.39-4.04 3.51-1.22-6.09-7.6 6.28-2.19 3.6 5.18 1.96-7.12 7.08-2.47-4.17 11.17 3.39-1.18.39 4.04-4.73 1.65.1 1.21 4.73-1.64.39 4.04-4.76 1.66.28 2.89-6.05 2.1-.28-2.89Zm15.56-10.73c-2.37-6.82-.17-14.4 5.82-16.49 4.78-1.66 8.72 1.07 10.18 5.28 2.37 6.82.17 14.4-5.82 16.49-4.78 1.66-8.72-1.07-10.18-5.28Zm10.14-8.5c-.65-1.88-1.79-2.4-2.85-2.03-2.33.81-2.4 5.01-1.42 7.82.65 1.87 1.79 2.4 2.85 2.03 2.33-.81 2.4-5.01 1.42-7.82Z"/></g><path class="cls-11" d="m188.66 53.15-8.11-8.55c.34-1.79.52-3.63.52-5.52 0-16.32-13.23-29.55-29.55-29.55s-29.55 13.23-29.55 29.55 13.23 29.55 29.55 29.55c10.04 0 18.91-5.01 24.25-12.67l12.89-2.82Z"/><path d="m181.83 50.27-6.45-6.8c.27-1.42.42-2.89.42-4.39 0-12.98-10.52-23.5-23.5-23.5s-23.5 10.52-23.5 23.5 10.52 23.5 23.5 23.5c7.99 0 15.04-3.99 19.28-10.08l10.25-2.24Z" style="fill:#eabd2d"/><path d="m140.15 51.38-4.12 1.43-.34-3.49 4.12-1.43-.11-1.04-4.1 1.43-.34-3.49 3.04-1.06-5.28-6.58 5.44-1.89 3.12 4.48 1.7-6.16 6.13-2.13-3.61 9.67 2.93-1.02.34 3.49-4.09 1.43.09 1.04 4.09-1.42.34 3.49-4.12 1.43.24 2.51-5.24 1.82-.25-2.51Zm13.47-9.29c-2.06-5.9-.15-12.47 5.04-14.28 4.14-1.44 7.55.93 8.82 4.57 2.05 5.9.15 12.47-5.04 14.28-4.14 1.44-7.55-.93-8.82-4.57Zm8.78-7.36c-.56-1.62-1.55-2.08-2.47-1.76-2.01.7-2.08 4.34-1.23 6.77.57 1.62 1.55 2.08 2.47 1.76 2.01-.7 2.08-4.34 1.23-6.77Z" style="stroke:#e5b92c;fill:#fff;stroke-miterlimit:10"/></g></svg>