<?xml version="1.0" encoding="UTF-8"?><svg id="Layer_2" xmlns="http://www.w3.org/2000/svg" viewBox="0 0 228.94 323.19"><defs><style>.cls-1{fill:#f0f0ee;}.cls-2{fill:#e4b1a6;}.cls-3{fill:#fff;}.cls-4{fill:#171f2b;}.cls-5{fill:#222d3d;}</style></defs><g id="PC"><g id="_èóê__éwç_Ç_"><path id="_îí" class="cls-3" d="M227.31,117.95c-.51-1.46-1.82-2.46-3.12-3.3-5.45-3.56-11.76-5.8-18.24-6.47-.9-.09-1.91-.22-2.43-.96-.31-.43-.37-.99-.42-1.51-.26-2.68,.14-17-2.09-18.33-1.77-1.05-5.49,3.5-5.49,5.35-1.28,8.34-2.36,16.71-3.22,25.11-.83,8.06-1.44,16.37,1,24.1,.93,2.95,2.53,5.83,2.9,8.9-1.31,.65-2.29,.14-3.74-.3l-2.38,18.2s-9.97-14.48-11.75-17.97c-1.77-3.49-4.81-5.42-10.68-8.56-5.87-3.14-20.4-15.49-24.81-19.34-4.4-3.85-9.24-8.31-12.9-8.28-3.66,.03-6.29-7.21-6.29-7.21,5.78-5.28,13.05-10.26,15.31-18.13,.38-1.34,.66-2.76,1.47-3.88,1.97-2.71,5.98-2.55,9.1-3.77,5.21-2.03,7.81-8.98,5.21-13.94-.31-.58-.69-1.16-1.27-1.48-.76-.42-1.7-.32-2.56-.2l-8.95,1.19c.25-6.33,.4-13.07-2.89-18.48-1.09-1.78-2.5-3.34-3.91-4.88-7.27-7.96-14.54-15.92-21.81-23.88-12.81,13.58-29.11,23.83-46.9,29.48-.38,5.54-.77,11.08-1.15,16.61,.2-2.91-8.37,.4-9.24,1.25-2.47,2.4-3.43,6.53-1.8,9.64,3.33,6.35,9.82,3.18,14,7.02,1.85,1.7,1.71,4.73,2.55,6.96,1.22,3.21,3.21,6.14,5.76,8.43,2.24,2.01,4.93,3.58,6.74,5.99,2.97,3.95,1.47,8.53-2.33,11.17-8.69,6.03-16.39,14.14-25.55,19.39-7.02,4.02-15.75,7.93-21.6,13.68-2.73,2.68-6.23,6.43-8.61,13.21-2.38,6.78-4.56,14.58-4.56,14.58l-7.19,2.48,3.59,10.88s-10.99,36.2-12.61,42.07c-1.62,5.87-2.63,12.96-2.53,16.3,.1,3.34-.91,7.75,2.18,11.44,3.09,3.7,5.52,7.54,9.32,8.71,3.8,1.16,6.53,2.38,11.85,.61,5.32-1.77,16.76-7.7,16.76-7.7l5.52,14.21h116.14s-3.29-33.29-2.99-38.3c.3-5.01,5.67-30.68,5.67-30.68,0,0,12.15,8.81,13.37,9.82,1.21,1.01,10.68,10.48,18.48,12.25,7.8,1.77,12.5,1.62,14.53,0s6.78-12.66,6.78-12.66c0,0,6.68-23.95,6.23-32.65-.46-8.71-.91-24.2-.96-24.4-.05-.2-3.44-1.42-3.49-1.62-.05-.2-.96-6.16-.96-6.18,0,0-1.95-.05-2.07-.05-.93-3.27,2.5-5.01,4.1-7.51,2.1-3.27,3.26-7.18,3.23-11.07-.02-2.55-.52-5.14,.09-7.62,.64-2.61,2.49-5.2,1.61-7.73Z"/><g id="_ÉJÉâÅ__00000053507945118756842970000007352499916359716741_"><g><path class="cls-2" d="M61.92,207.02c1.53-.91,4.7-6.82,6.37-9.3,1.67-2.48,3.34-4.95,6.52-7.23s9.25-4.85,10.57-4.65c1.32,.21,2.17,.55,1.52,3.41-.65,2.86-6.37,7.3-6.37,7.3l10.82-3.44-11.99-34.94-4.73,1.67-60.63,20.03,14.86,42.92,30.86-13.45s.67-1.41,2.2-2.32Z"/><path class="cls-2" d="M102.58,227.41s-.07,1.57-5,3.07c-4.94,1.5-12.53,4.52-17.01,4.61-4.48,.09-5.94,.15-6.95,2.36s-.3,2.48-3.99,4.95c-3.69,2.47-27.55,19.29-27.55,19.29l4.89,14.71,64.54-21.89-8.92-27.11Z"/></g><g><path class="cls-1" d="M219.17,161.46c-.04-.34-.08-.64-.13-.9-1.19,.56-2.46,.97-3.74,1.3-.23-.01-.46,0-.69,.04-3.75,.76-7.92-.47-11.55-1.39-3.22-.82-6.68-1.42-9.58-3.1-.42-.24-.82-.33-1.2-.31,0,.05-.01,.11-.03,.16-1.1,3.87-2.38,7.85-2.4,11.91,0,.67-.45,1.06-.96,1.16,0,0-.36,.76-.53,.86-.31,.19-.71,.15-1.05,.05-.93-.29-1.5-1.47-1.98-2.26-3.52-5.88-7.49-12.03-9.84-18.49-.45-1.19-.5-2.39-1.35-3.4-.98-1.16-1.93-3.58-3.32-4.06-5.87-2.02-21.8-11.49-25.62-13.83-3.81-2.34-8.96-7.28-12.35-11.31-3.39-4.03-7.19-3.56-7.83-3.55s1.36,2.29,1.36,2.29l1.52,5.59s-2.14,30.54-3.77,36.38c-1.62,5.84-10.81,56.36-10.81,56.36,0,0-1.15,3.42-1.7,5.47-.55,2.04-4.32,4.27-4.32,5.16s5.22,14.17,5.65,15.49c.42,1.31,3.64,11.72,3.64,11.72l-69.51,23.57h111.76l-4.28-33.1,6.64-39.41s18.32,13.9,21.71,16.53c3.39,2.63,10.92,7.61,14.87,8.14,7.36,.99,11.2,.07,14.21-6.64,4.17-9.27,5.4-19.56,6.39-29.68,.63-6.46,1.19-12.95,1.25-19.45,0-.29,0-.58,0-.86,0-3.47-.1-6.96-.47-10.41Zm-66.22,34.86c-1.63-.13-3.26-.23-4.89-.31-4.08-.2-8.17-.26-12.24-.04-.91,.05-2.54,.31-3.06-.68-.15-.28-.17-.62-.18-.94-.09-1.83-.31-3.69-.1-5.51,.08-.68,.51-1.21,1.24-1.24,6.58-.22,13.17,.07,19.74-.04,.36,0,.63,.12,.83,.31-.02,2.73-.06,5.5,.02,8.24-.36,.24-.8,.25-1.35,.21Z"/><path class="cls-1" d="M80.77,116.28l-14.02,10.47-1.69,4.66s-21.18,10.79-25.38,14.08c-4.2,3.29-10.04,7.77-12.1,11.61-2.06,3.84-6.63,20.57-6.63,20.57l64.61-21.67-4.79-39.73Z"/><path class="cls-1" d="M16.99,189.61s-10.08,36.65-12.07,42.94c-1.99,6.3-3.59,13.3-2.92,20.52,.66,7.22,4.8,10,7.42,13.56,2.62,3.56,9.99,5.05,12.12,4.52,2.13-.53,11.96-3.72,19.94-9.04s22.73-14.36,25.26-17.02,3.08-3.86,3.08-3.86c0,0-1.22,.04-5.34-3.83-4.12-3.88-6.38-7.72-7.18-12.04-.8-4.33-.56-14.56-.56-14.56l-21.77,9.04-6.38,2.1-11.59-32.33Z"/></g></g><g id="_ÉAÉEÉgÉâÉCÉì"><g><path class="cls-4" d="M42.84,323.15s0,0,0,0l.05,.04s-.03-.03-.04-.04Z"/><path class="cls-4" d="M163.15,277.37s-.01-.02-.02-.03c0,.01,0,.02,.02,.03Z"/><path class="cls-4" d="M42.88,323.19s-.04-.04-.04-.04c0,0,0,.01-.01,.02,.02,0,.03,0,.05,.01Z"/><path class="cls-4" d="M227.88,114.23c-1.13-1.46-3.05-2.2-5.57-2.12-1.79-2.9-3.43-3.79-6.48-3.49-.47,.04-.97,.12-1.53,.22-2.12-2.27-3.76-3.13-5.65-2.95-1.17,.11-2.45,.61-4.12,1.62,.28-3.84,.04-7.46-.2-10.96l-.08-1.14c-.04-.62-.06-1.25-.08-1.88-.06-1.97-.13-3.99-.82-5.93-.63-1.71-1.71-2.59-3.4-2.79-.33-.04-.65-.04-.97,0-2.29,.22-4.11,2.13-4.76,4.98-.56,2.49-.94,5.18-1.13,7.98-.59,8.87-1.54,16.05-2.97,22.58-.85,3.85-1.19,7.81-.87,11.75,.25,3.16,.93,6.29,1.98,9.28,.54,1.55,1.19,3.06,1.91,4.54,.32,.65,.69,1.28,1.06,1.92-2.42-1.09-2.96-.59-3.48,2.84-.59,3.87-1.31,7.73-2,11.72-1.33-.67-1.68-1.73-2.19-2.61-1.76-3.05-3.44-6.15-5.2-9.2-1.19-2.07-2.66-3.92-4.56-5.39,.02-.08,.05-.17,.07-.25-.37-.32-.79-.62-1.25-.91-1.79-1.1-3.7-2.05-5.55-2.97-2-.99-4.08-2.02-5.97-3.24-2.68-1.73-5.63-3.13-8.48-4.48-5.37-2.54-10.92-5.17-14.89-10.15-1.19-1.49-2.69-2.74-4.14-3.95-1.31-1.09-2.67-2.22-3.8-3.53-.68-.79-1.57-1.19-2.62-1.19-.41,0-.85,.06-1.31,.18-.21,.05-.39,.15-.55,.27-1.08-2.49-1.76-5.14-2.54-7.75-.19-.65-.44-1.27-1.26-1.4-.77,.11-1.16,.62-1.36,1.3-.33,1.09-.32,2.19-.14,3.3,.57,3.38,1.36,6.68,3.47,9.49-.03,.12-.06,.24-.08,.32-.35,1.53-.57,2.86-.69,4.09-.67,7.15-1.39,14.82-2.02,22.49-.14,1.65-.63,2.74-2.64,3.06-5.47,.88-10.98,1.32-16.39,1.32s-10.98-.45-16.4-1.35c-1.74-.29-2.44-1.06-2.56-2.86-.37-5.32-.86-10.71-1.33-15.95l-.19-2.07c-.26-2.9-.53-5.9-1.24-8.79,.33-.36,.64-.76,.86-1.18,1.61-3.05,2.62-6.28,2.91-9.83-.02-.26-.02-.63-.08-1-.14-.96-.24-2.15-1.41-2.27-1.31-.13-1.29,1.15-1.58,2.04-.73,2.2-1.31,4.45-2.18,6.6-.01,0-.03-.01-.04-.01-.31-.08-.63-.08-.95-.07-2.39,.06-3.88,1.27-5.55,2.87-1.28,1.22-2.59,2.41-3.93,3.56-1.41,1.22-3.05,2.28-4.38,3.57-1.1,1.07-1.82,2.45-2.41,3.92-8.93,5.5-17.83,11.05-26.8,16.47-4.83,2.92-8.85,6.91-10.96,11.86-2.6,6.14-5.46,12.25-7.24,18.74-.04,.16-.09,.33-.13,.49-.86,.28-1.71,.56-2.57,.84-4.52,1.48-4.79,2.03-3.26,6.53,.68,2,1.37,4,2.05,6-1.6,5.96-3.91,14.82-5.21,19.95-2.34,9.22-5.38,18.26-8.11,27.38-3.04,10.17-3.07,19.86,3.93,28.72,3.75,4.74,12.31,8.37,17.62,6.85,6.09-1.74,11.93-4.24,17.46-7.32,.91,2.59,2.13,5.95,2.91,8.23,1.5,4.38,.6,5.58,6.95,3.42,21.18-7.18,42.45-14.13,63.68-21.16,4.39-1.46,4.71-2.06,3.25-6.35-.51-1.5-1.02-3-1.53-4.51,.75-1.08,1.51-2.18,2.25-3.31,7.63-11.61,13.45-24.27,19.23-37.32,.97-2.18,1.86-4.27,2.72-6.31,1.25-.02,2.49-.03,3.74-.05,2.88,.05,5.76,.09,8.64,.12,.63,.01,1.27-.1,1.9-.21,1.54-.27,2.37-1.15,2.36-2.73-.01-1.68,0-3.35-.05-5.03-.08-2.73-1.11-3.73-3.91-3.81-2.67-.07-5.34-.07-8.01-.1,2.38-6.51,4.24-12.52,5.7-18.44,.62-2.51,.1-4.46-1.67-6.32-1.97-2.06-3.86-4.19-5.86-6.45-.79-.89-1.59-1.79-2.41-2.71l-.05-.05h.07c.8-.15,1.58-.27,2.35-.4,1.83-.3,3.56-.58,5.26-.93,1.96-.4,3.37-.86,3.88-1.83,.5-.97,.08-2.37-.71-4.19-.37-.85-.78-1.72-1.18-2.56-.52-1.11-1.06-2.25-1.54-3.4-.25-.6-.52-1.19-.78-1.76-.64-1.39-1.3-2.84-1.68-4.52l-.02-.09,.08,.05c1,.61,1.98,1.21,2.95,1.81,2.37,1.46,4.61,2.84,6.91,4.16l.65,.37c4.61,2.64,9.38,5.38,14.38,7.48,1.14,.48,2.46,1.02,3.39,1.91,4.42,5.99,6.87,13.15,11.19,19.19,1.08,1.51,1.42,3.09,1.12,4.98-1.24,7.83-2.38,15.67-3.5,23.52-.27,1.91-.37,3.86-.4,5.79-.02,1.15,.59,2.11,1.85,2.18,1.26,.08,1.87-.8,2.13-1.93,.1-.43,.14-.87,.19-1.31,1.33-12.88,3.56-25.63,5.23-38.46,.07-.55-.08-1.27,.78-1.63,9.52,4.6,19.21,7.15,29.05,1,0,5.57,.17,11.11-.04,16.63-.35,9.41-.41,18.86-2.61,28.11-1.44,6.07-2.18,12.36-5.86,17.68-2.76,3.99-6.24,5.37-10.96,4.18-4.37-1.1-8.41-2.94-12.28-5.31-6.94-4.26-12.74-9.97-19.34-14.64-1.11-.79-2.38-1.76-3.54-.72,.81-5.5,1.6-10.99,2.52-16.47,1.92-11.49,3.37-23.01,3.71-34.66,.03-.98,.09-1.96,.04-2.93-.05-1,.42-2.49-1-2.68-1.62-.21-1.48,1.45-1.78,2.48-.27,.94-.48,1.9-.6,2.87-.61,5.11-1.01,10.25-1.8,15.34-2.62,16.84-5.36,33.67-8.07,50.5-1.46,9.08-3.6,18.07-2.32,27.41,1.07,7.78,2.05,15.57,2.86,23.38,.18,1.7,.62,3.57,1.73,4.91,.01-.03,.08-.06,.13-.04,.54,.23,1.2,.19,1.71-.12,1.39-.86,.94-2.9,.79-4.22-.17-1.58-.35-3.17-.54-4.75-.37-3.17-.77-6.33-1.19-9.49-1.08-8.07-2.81-15.89-.9-24.39,1.8-8.02,3.09-16.15,4.29-24.3,.35,.47,.85,.89,1.34,1.28,3.84,3.08,7.58,6.3,11.54,9.22,6.44,4.76,12.99,9.37,20.96,11.37,7.15,1.8,12.56-.16,16.7-6.23,1.2-1.76,2.13-3.65,2.79-5.67,2.94-9,4.8-18.21,5.41-27.66,.66-10.3,.61-20.61,.5-30.91-.01-1.29,.24-3.18-1.29-3.41-3.23-.48-2.85-2.68-2.99-4.87-.14-2.31-1.07-3.5-2.77-3.64,.07-.06,.14-.13,.21-.19,4.84-4.59,7.23-10.8,7.31-18.99,.04-3.97,.43-6.86,1.29-9.64,.82-2.68,.63-4.91-.56-6.46Zm-141.55,38.84c6.28,1.17,12.29,1.74,18.38,1.74s11.89-.55,18.04-1.69h.05s-.69,4.09-.69,4.09c-.52,3.08-1.03,6.11-1.53,9.13-.97,5.89-2.25,11.82-3.49,17.56-1.16,5.38-2.36,10.94-3.3,16.46-.42,2.46-.89,4.95-1.41,7.47-.42-.62-.96-1.19-1.7-1.67-.42-.27-.55-.75-.33-1.22,1.23-2.62-.16-4.65-1.84-6.44-1.22-1.31-1.87-2.66-2.17-4.52-.54-3.36-2.83-5.36-6.11-5.36-.8,0-1.64,.12-2.5,.36-.11,.03-.23,.08-.34,.11-3.21-9.44-6.42-18.88-9.62-28.33-.49-2.55-.98-5.1-1.48-7.65v-.06s.05,.01,.05,.01Zm15.62,73.06c-5.92,2.83-12.4,4.28-18.69,5.69-.88,.2-1.79,.29-2.68,.37-1.18,.12-2.4,.24-3.57,.61-.28,.09-.6,.17-.92,.24-.75,.18-1.58,.37-2.13,.83-.02-.02-.04-.04-.06-.06-3.2-3.36-6.46-6.58-7.62-11.39-.96-3.96-1.52-7.97-2.11-11.98-.07-.46-.17-.87-.29-1.23,.55-1.04,1.1-2.07,1.64-3.09,.55-1.03,1.11-2.06,1.65-3.09,3.55-6.78,8.82-11.66,15.67-14.49,.25-.1,.49-.24,.74-.38,.49-.28,.96-.54,1.49-.54,.2,0,.4,.04,.61,.11-.55,1.39-1.45,2.49-2.82,3.45l-.22,.15c-1.64,1.15-3.33,2.33-4.55,4.07l-.18,.24c-.61,.85-1.25,1.73-.62,2.84,.38,.67,.95,1.02,1.71,1.02,.59,0,1.19-.2,1.68-.36,1.18-.39,2.36-.85,3.51-1.28,1.58-.6,3.21-1.23,4.84-1.7,1.38-.4,2.74-.9,4.07-1.39,2.12-.78,4.3-1.6,6.58-1.97,.29-.05,.56-.07,.8-.07,.67,0,1.16,.17,1.44,.52,.3,.37,.37,.93,.21,1.68-.47,2.28,.19,3.77,2.24,5,1.47,.88,2.22,2.46,1.86,3.93-.61,2.48,.67,4.05,1.92,5.33,.93,.96,1.18,2.2,1.45,3.51,.29,1.45,.59,2.95,1.88,4.04-.01,.19-.19,.72-.4,.99-2.6,3.37-5.26,6.56-9.11,8.4Zm-30.58-100.71c.95-.69,1.82-1.48,2.69-2.27,1.72-1.58,3.54-3.35,5.8-4.11-.17,.42-.1,.94-.03,1.42,.01,.08,.02,.17,.04,.25,.06,.47,.09,.95,.12,1.44,.02,.33,.04,.65,.07,.97,.35,3.8,.57,7.68,.77,11.42,.31,5.63,.63,11.45,1.43,17.14,.16,1.14,.33,2.28,.5,3.43-.7,.2-1.49,.42-2.28,.68-5.1,1.67-10.2,3.35-15.31,5.02,.9-1.1,1.81-2.2,2.71-3.3l.12-.14c1.18-1.44,2.36-2.87,3.54-4.31,.94-1.14,1.45-1.94,1.29-2.65-.16-.71-.98-1.23-2.25-1.83-.57-.27-1.21-.38-1.84-.48l-.31-.05c-1.81-.31-3.62-.61-5.62-.94l-2.26-.37,.02-.05c2.42-5.2,4.32-10.62,6.52-15.91,.45-1.08,.81-2.59,1.62-3.46,.75-.81,1.77-1.25,2.65-1.89Zm-43.5,36.75c2.23-5.7,5.33-10.48,10.35-13.83,5.56-3.71,11.39-7.03,17-10.67,2.32-1.5,4.76-2.81,7.08-4.31-1.53,3.72-3.04,7.45-4.65,11.13-.79,1.81-1.21,3.21-.7,4.18,.51,.98,1.92,1.45,3.88,1.84,1.69,.34,3.4,.62,5.23,.92,.76,.12,1.54,.25,2.35,.39h.07s-.05,.06-.05,.06c-.84,.94-1.66,1.87-2.48,2.79-1.99,2.25-3.88,4.38-5.84,6.43-.55,.57-.96,1.16-1.26,1.77-6.47,2.12-12.93,4.24-19.4,6.36-1.02-3.34-2.07-6.68-3.15-10.01-.24-.75-.89-1.21-1.76-1-.88,.22-1.1,.9-1.29,1.77,1.01,3.43,2,6.86,3.03,10.28-4.23,1.39-8.47,2.77-12.7,4.16,1.3-4.13,2.7-8.22,4.28-12.27Zm55.15-3.09c3.56,10.47,7.11,20.92,10.66,31.35-1.52,.59-3.1,1.12-4.8,1.22-.11-.6,.09-.96,.3-1.34,.1-.18,.2-.36,.26-.56,.51-1.64,.94-4.04-1.18-6.05-.73-.69-1.47-1.03-2.25-1.03-1.06,0-2.03,.63-2.92,1.32-.3,.23-.68,.36-1.09,.49-.33,.11-.68,.23-.99,.4-.82,.47-1.66,.92-2.5,1.37-3.16,1.68-6.42,3.42-8.82,6.39-3.32,4.09-6.26,8.83-9.11,14.64-.41,.09-.85,.23-1.32,.44-1.43,.63-2.69,1.69-4.16,2.18-8.59,2.9-16.91,6.49-25.29,9.91-4.42-12.95-8.84-25.91-13.28-38.93,22.25-7.3,44.2-14.49,66.49-21.8Zm-60.67,109.51c-1.57,.38-3.1,.23-4.65-.17-10.14-2.65-15.01-12.32-13.82-21.5,.82-6.28,2.54-12.3,4.53-18.29,3.08-9.28,5.29-18.8,7.86-28.22,.12-.45,.74-2.33,1.35-4.18,2.85,8.35,5.7,16.7,8.55,25.06-.65,.26-1.3,.52-1.95,.78-3.53,1.38-6.95,3.07-10.4,4.66-1.07,.49-1.85,1.31-1.3,2.56,.53,1.21,1.63,1.25,2.76,.88,.31-.1,.62-.22,.92-.37,11.84-5.71,24.3-9.97,36.23-15.47,.65-.3,1.27-.82,2.03-.56,0,1.5-.12,2.99,.02,4.46,.79,8.34,2.35,16.33,10.12,21.34,1.13,.73,2.42,1.66,3.5,.25,1.14-1.49-.15-2.38-1.27-3.17-8.05-5.66-8.98-14.12-8.93-22.95,0-.78,.21-1.4,.62-1.86h.65s.14,0,.14,0c.62,.03,1.15,.11,1.66,.23,.74,9.56,2.23,18.79,11.68,24.98-2.31,1.13-3.17,3.22-4.66,4.38-2.72,2.11-5.44,4.29-8.41,6.11-5.05,3.09-9.65,6.84-14.63,10.07-7.12,4.62-14.26,8.97-22.59,10.99Zm25.7,4.67c-1.01-2.96-2.37-7.21-3.47-10.51,.6-.37,1.19-.73,1.78-1.11,7.27-4.7,13.81-10.35,21.06-15.1,2.43-1.6,3-4.55,5.6-5.98,1.97-1.08,2.97-1.94,3.1-2.94,.5-.04,1-.15,1.46-.24,.21-.04,.42-.09,.61-.12,4.2-.75,9.18-1.71,14.24-3.1,5.46-1.5,10.17-3.2,14.13-5.85,2.6,7.65,5.2,15.3,7.81,22.98-22.2,7.35-44.11,14.61-66.33,21.97Zm105.4-83.96l-.06,4.82-4.39-.05s-.04-.07-.06-.11l-4.79,.06-4.79-.06s-.04,.07-.06,.11l-4.39,.05-.06-4.82,9.29-.11,9.29,.11Zm-5.94-45.2c.37,.87,.75,1.76,1.15,2.69l.02,.05h-.05c-.33,.04-.63,.07-.91,.09-.66,.06-1.19,.11-1.7,.24-.94,.25-1.94,.37-2.91,.48-1.95,.22-3.96,.45-5.7,1.8-.63,.49-.93,.9-.97,1.33-.05,.42,.14,.86,.62,1.44,.75,.91,1.49,1.88,2.2,2.82,1.42,1.87,2.89,3.81,4.62,5.41,3.61,3.34,4.24,6.51,2.3,11.68-1.69,4.52-3.43,9.09-5.23,13.68-1.91,.02-3.81,.03-5.72,.08-2.8,.07-3.82,1.08-3.91,3.81-.05,1.68-.03,3.35-.05,5.03-.01,1.58,.81,2.46,2.36,2.73,.63,.11,1.26,.22,1.9,.21,.21,0,.41,0,.62,0-6.02,14.31-12.92,28.57-21.58,42-1.58-4.63-3.15-9.27-4.73-13.9,.99-.91,1.92-1.91,2.79-3.01,.17-.22,.35-.43,.53-.66,1.52-1.87,3.24-3.99,1.92-6.19-.05-.08-.08-.17-.12-.25,.66-3.13,1.29-6.25,1.91-9.32v-.04c.71-3.48,1.43-7.09,2.18-10.64,4.91-23.18,9.76-47.96,10.29-73.73l.03-.38c.02-.28,.04-.56,.06-.83,0-.14,.03-.29,.04-.43,.08-.69,.18-1.64-.94-1.88,.06-.38,.12-.75,.17-1.13,1.6,.41,2.55,1.55,3.54,2.76,.53,.64,1.07,1.31,1.72,1.84,.68,.56,1.41,1.12,2.11,1.65,1.96,1.49,3.98,3.03,5.29,4.98,1.23,1.83,1.91,4.09,2.58,6.28,.34,1.13,.7,2.3,1.12,3.4,.75,1.95,1.58,3.88,2.46,5.93Zm66.7-21.98c.01-.11,.03-.23,.04-.34,.13-1.23,.24-2.47,.35-3.71v-.07c.12-1.31,.25-2.66,.39-3.99,.11-.99,.71-1.66,1.59-1.75,.08,0,.16-.01,.25,0,1.22,.03,1.85,.73,1.95,2.12-.12,2.06-.53,5.18-1.82,8.31-.18,.43-.59,1.17-1.34,1.25-.22,.02-.45-.01-.7-.1-.89-.32-.81-.9-.71-1.71Zm-7.11-11.65c.49-.48,1.05-.76,1.67-.82,.33-.03,.68,0,1.02,.1,1.21,.34,1.38,1.57,1.39,2.09,.1,3.63-.14,6.84-.71,9.84-.1,.51-.37,1.13-1.12,1.21-.23,.02-.49,0-.77-.09,.45-2.62,.4-4.22-.18-5.33-.59-1.13-1.7-1.78-3.72-2.17,.28-1.93,1.08-3.5,2.42-4.82Zm-12.72,7.42c.17-1.54,.33-3,.56-4.44,1.09-7.03,1.84-14.22,2.57-21.16l.04-.4c.17-1.56,.84-2.61,2.22-3.49,1.17,6.53,1.11,13.06,1.06,19.38-.02,2.8-.05,5.69,.03,8.54-.66,.31-1.35,.56-2.09,.81-1.56,.54-3.16,1.11-4.58,2.39,.06-.56,.12-1.1,.18-1.63Zm18.85,42.64c-5.9,.32-11.48-.63-16.79-3.31-2.66-1.34-2.87-1.58-1.98-4.6,8.03,2.26,15.83,4.59,23.9,.98,1.18,4.88-.27,6.67-5.13,6.93Zm10.24-30.66c0,1.03-.01,1.97-.11,2.88-.79,7.26-3.24,12.07-7.7,15.14-.63,.43-1.19,.93-1.63,1.55-.33,.46-.57,1.04-.75,1.66-4.73,1.08-9.34,.62-13.8-.94-.03-.52-.15-1.01-.44-1.42-2.74-3.82-4.63-8.35-5.79-13.85-.97-4.61-.74-9.1,.65-13,.61,.1,1.22,.12,1.87,.06,1.53-.15,2.92-.73,4.28-1.3,1.31-.55,2.54-1.06,3.84-1.19,.4-.04,.78-.04,1.16,0,.17,2.06-.56,3.25-2.52,4.1-.22,.09-.44,.19-.66,.28-1.3,.54-2.59,1.08-3.63,2.08-.79,.77-1.57,1.82-.56,3.08,3.33,4.12,4.59,8.92,3.74,14.29-.22,1.37,.2,2.19,1.27,2.43,.24,.06,.48,.07,.69,.05,.85-.08,1.46-.78,1.62-1.86,.23-1.45,.33-2.88,.29-4.25-.13-4.23-1.32-8.04-3.62-11.65,.32-.14,.64-.28,.95-.42,1.51-.66,2.92-1.27,4.18-2.23,.73,1.01,1.67,1.47,2.79,1.36,.35-.03,.72-.12,1.1-.26,.26-.09,.46-.14,.64-.16,.33-.03,.61,.05,.91,.28,1.07,.83,2.27,1.19,3.56,1.07,.4-.04,.81-.12,1.23-.25l.06-.02c.15-.05,.3-.1,.44-.11,.18-.02,.32,.03,.44,.16,1.15,1.19,2.5,1.69,4.13,1.53,.44-.04,.92-.14,1.41-.28,0,.41-.01,.8-.01,1.19Zm1.76-11.88c-.39,2.29-.79,4.66-2.48,6.57-.38,.43-.72,.64-1.06,.68-.22,.02-.45-.03-.69-.17-.65-.36-.52-.77-.33-1.38,.04-.13,.08-.25,.11-.38l.17-.68c.44-1.72,.89-3.49,1.24-5.27,.16-.82,.58-1.23,1.31-1.3,.12-.01,.25-.01,.38,0,.79,.04,1.23,.56,1.4,1.7l-.05,.25Z"/></g><g><path class="cls-5" d="M102.93,79.98c.45,.07,.9,.09,1.34,.1h.14c.11,0,.23,.01,.34,.01,.54,0,.97-.06,1.34-.18,.67-.22,.97-.53,.86-.89-.07-.19-.31-.33-.56-.47l-.06-.03c-.25-.14-.53-.26-.74-.34-.16-.06-.33-.12-.5-.17-.22-.07-.43-.13-.62-.22-.34-.16-.62-.39-.83-.66-.15-.21-.24-.4-.25-.59-.01-.32,.18-.65,.35-.95,.19-.32,.36-.66,.53-1.03,.5-.85,.63-1.64,.36-2.15-.2-.38-.59-.61-1.06-.63-.48,0-.68,.29-.86,.55l-.73,1.02c-.2,.28-.41,.57-.59,.86-.15,.24-.29,.48-.44,.72-.12,.21-.24,.41-.4,.66-.26,.41-.53,.83-.62,1.33-.14,.71,.12,1.46,.72,2.04,.65,.64,1.6,.9,2.28,1.01Z"/><path class="cls-5" d="M122.22,56.24c1.37-.19,2.67,0,3.97,.47,.81,.29,1.68,.3,2.16-.61,.53-1.02-.07-1.71-.85-2.27-1.27-.91-2.74-1.16-4.27-1.17-.37,0-.75-.02-1.12,0-1.37,.08-2.73,.41-2.63,2.08,.1,1.61,1.46,1.67,2.73,1.49Z"/><path class="cls-5" d="M88.91,52.9c-2.32-.49-4.62-.43-6.69,.95-.8,.54-1.35,1.28-.81,2.28,.48,.89,1.35,.87,2.17,.58,1.15-.41,2.3-.65,3.78-.48,.18,.01,.63,.09,1.08,.08,.92-.02,1.62-.41,1.8-1.36,.19-1.06-.37-1.84-1.32-2.04Z"/><path class="cls-5" d="M113.02,89.26c-2.07-.27-4.28-.38-7.17-.38h-1.46c-2.55,.03-5.2,.05-7.77,.38-1.06,.14-1.73,.47-2.02,1.02-.3,.54-.21,1.23,.28,2.17,2.06,3.97,5.44,6.55,9.77,7.44l.17,.04,.18-.04c4.33-.89,7.7-3.47,9.77-7.44,.49-.94,.57-1.63,.28-2.17-.29-.55-.96-.88-2.02-1.02Zm-8.19,6.95c-2.51-.16-4.76-1.62-6.36-4.13,2.24-.22,4.33-.35,6.35-.37,2.03,.02,4.11,.14,6.36,.37-1.6,2.52-3.86,3.98-6.34,4.13Z"/><path class="cls-5" d="M126.21,68.1l.06-.1c1.02-1.7,.74-2.88,.32-3.57-.59-1-1.86-1.62-3.31-1.62-1.34,0-2.52,.54-3.17,1.44l-.04,.06-.47,1.31,.02,.13c.36,2.09,1.72,3.34,3.62,3.34h0c.95,0,1.97-.33,2.86-.92l.1-.07Z"/><path class="cls-5" d="M89.39,64.25c-.64-.9-1.83-1.44-3.17-1.44-1.45,0-2.72,.62-3.31,1.62-.41,.69-.69,1.88,.32,3.57l.06,.1,.1,.07c.89,.59,1.9,.92,2.86,.92h0c1.91,0,3.26-1.25,3.63-3.34l.02-.13-.47-1.31-.04-.06Z"/><path class="cls-5" d="M149.37,123.88c-1.56-3.34-1.89-7.15-2.4-10.76-.51-3.59-1.2-7.08-2.85-10.35-1.37-2.73-3.22-5.62-6-7.04,.21-.34,.43-.67,.63-1.02,.7-1.19,1.33-2.42,1.89-3.69,.57-1.29,1.07-2.6,1.5-3.94,.16-.5,.31-1.01,.46-1.52,1.23-.94,3.27-1.39,5.43-1.87,1.44-.32,2.93-.65,4.26-1.15,5.38-3.28,6.96-9.2,5.73-13.12-.74-2.36-2.41-3.96-4.74-4.62,.76-2,1.02-4.15,1.16-6.29,.26-3.71,.2-7.56-.19-11.43-1.63-16.26-9.11-32.88-23.81-40.66-2.5-1.33-5.8-2.87-8.73-2.47-.52,.03-1.04,.11-1.55,.19-.64-.55-1.31-1.02-2.07-1.32-23.56-9.2-48.43,5.17-58.57,26.9-.42,.89-.81,1.79-1.18,2.7-2.21,5.45-3.55,11.26-3.87,17.14-.16,3-.06,6.02,.33,9,.27,2.07,.27,4.44,1.22,6.36-2.14,.72-3.7,2.26-4.4,4.5-1.23,3.92,.36,9.84,5.73,13.12,1.33,.5,2.82,.83,4.26,1.15,2.16,.48,4.21,.93,5.43,1.87,.07,.06,.11,.4,.14,.5,.05,.17,.1,.34,.15,.51,.1,.34,.21,.68,.33,1.02,.22,.67,.47,1.33,.73,1.99,.51,1.29,1.09,2.55,1.74,3.78,.64,1.21,1.35,2.39,2.13,3.53,.77,1.14,1.61,2.23,2.51,3.27,.91,1.06,1.87,2.06,2.88,3.02,1.04,.98,2.12,1.9,3.25,2.76,1.17,.89,2.38,1.73,3.62,2.51,1.29,.81,2.63,1.56,3.99,2.25,1.42,.72,2.87,1.39,4.34,2,1.54,.64,3.11,1.21,4.7,1.74,1.67,.55,3.35,1.04,5.05,1.48,.36,.09,.73,.15,1.09,.27,.36,.12,.76,.16,1.15,.18,.49,.02,.9-.09,1.36-.23,.48-.15,.97-.25,1.45-.38,.85-.23,1.7-.47,2.55-.72,1.63-.49,3.24-1.04,4.83-1.64,1.52-.58,3.01-1.21,4.48-1.9,1.4-.66,2.78-1.38,4.12-2.16,.41-.24,.81-.49,1.22-.74,.63,1.64,1.22,3.29,1.79,4.95,.36,1.05,.82,2.15,1.23,3.25,1.5,.24,2.7,.89,3.83,2.15,.8,.88,1.52,1.82,2.22,2.78,2.1,1.25,4.03,2.66,5.84,4.32,4.13,3.8,8.77,6.81,13.4,9.95,2.25,1.52,4.71-1.84,2.85-3.7-2.53-2.53-5.14-5.13-6.67-8.41Zm-28.99-16.61c-1.48,.84-3.01,1.61-4.56,2.31-1.59,.72-3.22,1.37-4.86,1.95-1.08,.38-2.14,.7-3.21,1.09-.62,.22-1.2,.36-1.8,.51-.81,.21-1.59,.1-2.39-.11-1.39-.36-2.77-.79-4.13-1.25-1.66-.56-3.29-1.19-4.89-1.89-1.57-.68-3.1-1.43-4.6-2.25-1.46-.8-2.88-1.66-4.26-2.6-1.34-.91-2.63-1.88-3.86-2.92-1.2-1.01-2.35-2.08-3.42-3.22-1.05-1.1-2.03-2.27-2.93-3.49-.88-1.19-1.68-2.44-2.39-3.75-.7-1.28-1.3-2.61-1.8-3.98-.5-1.36-.89-2.76-1.16-4.19-.04-.22-.08-.44-.12-.67v-.08s-.08-.04-.08-.04c-1.59-1.01-3.43-1.38-5.2-1.73-1.69-.34-3.29-.65-4.67-1.5-4.2-1.82-5.45-5.56-4.82-8.27,.55-2.37,2.41-3.85,4.85-3.85,.96,0,2,.23,3.1,.67,.35,.29,.71,.57,1.08,.79,.91,.56,2.18,.77,3.08,.05,1.13-.91,.87-2.58,.88-3.85,.01-1.71,.05-3.43,.21-5.14,.21-2.37,.57-4.72,.92-7.08,.1-.7,.33-1.2,1.12-1.4,4.91-1.27,9.32-3.65,13.86-5.73,7.41-3.4,14.36-7.47,20.86-12.27,3.73-2.75,7.05-5.94,10.65-9.02,.22,.32,.34,.44,.4,.58,4.95,10.44,11.32,19.81,21.56,26.31,.6,.38,.91,.91,1.01,1.59,.61,4.2,.99,8.36,1.23,12.6,.1,1.84,1.18,3.39,3.1,3.54,.9,.07,1.81-.11,2.6-.53,.14-.08,.27-.17,.41-.26,1.24-.54,2.42-.83,3.5-.83,2.44,0,4.3,1.47,4.85,3.85,.63,2.71-.61,6.45-4.82,8.27-1.38,.85-2.98,1.16-4.67,1.5-1.78,.35-3.61,.72-5.2,1.73l-.07,.04v.08c-.25,1.43-.6,2.84-1.07,4.21-.47,1.38-1.04,2.73-1.71,4.02-.68,1.32-1.45,2.58-2.31,3.79-.88,1.24-1.83,2.42-2.86,3.54-1.05,1.15-2.18,2.24-3.36,3.26-1.22,1.06-2.49,2.04-3.81,2.97-1.36,.95-2.77,1.83-4.21,2.65Z"/></g><g><path class="cls-4" d="M217.32,64.02c-.61-.54-1.29-.38-1.88,.05-1.29,.95-2.49,2.01-3.49,3.26-.45,.56-.56,1.23-.15,1.88,.34,.54,.86,.75,1.6,.7,.18-.07,.49-.13,.7-.3,1.3-1.09,2.53-2.26,3.37-3.74,.35-.62,.46-1.31-.16-1.85Z"/><path class="cls-4" d="M189.74,66.98c-1.03-1.41-2.22-2.69-3.71-3.63-1.02-.64-2.04-.01-2,1.33,.09,.21,.22,.63,.44,.99,.76,1.25,1.76,2.3,2.82,3.29,.68,.63,1.5,.74,2.24,.1,.7-.6,.71-1.4,.21-2.08Z"/><path class="cls-4" d="M206.53,58.48c-.75-.19-1.19,.26-1.51,.84-.79,1.45-1.1,3.05-1.43,4.53,0,.96,.28,1.66,1.17,1.87,.89,.22,1.56-.21,1.86-1,.59-1.58,.79-3.25,.83-4.92,.01-.6-.26-1.14-.92-1.31Z"/><path class="cls-4" d="M197.13,59.63c-.23-.73-.62-1.53-1.6-1.36-1.06,.18-1.07,1.09-1.09,2.18,.14,.98,.27,2.22,.49,3.44,.19,1.03,.73,1.88,1.94,1.69,1.24-.19,1.46-1.17,1.25-2.2-.26-1.26-.59-2.51-.99-3.74Z"/></g></g></g></g></svg>