<svg id="Layer_2" xmlns="http://www.w3.org/2000/svg" viewBox="0 0 247.5 247.5"><defs><style>.cls-2{fill:#eaacac}.cls-3{fill:#f4f4f4}.cls-5{fill:#334254}.cls-6{fill:#563c35}.cls-7{fill:#38464c}.cls-8{fill:#394049}</style></defs><g id="PC"><path class="cls-6" d="M139.67 55.27c-1.93 6.86-3.79 17.42-1.68 30.56.66 4.13 2.54 9.29 4.98 14.36 1.36 2.83 2.89 5.63 4.5 8.2.32.53.65 1.04.98 1.55 1.79 2.73 3.62 5.15 5.35 6.98 2.01 2.13 3.88 3.49 5.37 3.66 0 0 1.03-2.75 1.99-6.86 1.24-5.3 2.36-12.87 1.02-19.75-.16-.82-.36-1.6-.6-2.35-2.49-7.88-8.75-11.89-8.28-20.72.42-7.79 5.6-10.45 3.18-16.36-1.92-4.68-7.17-7.93-11.42-9.98l-5.4 10.72Z"/><ellipse class="cls-2" cx="128.36" cy="63.31" rx="28.58" ry="33.79"/><ellipse class="cls-2" cx="101.99" cy="66.67" rx="6.22" ry="11.43" transform="rotate(-17.2 101.989 66.657)"/><path class="cls-2" d="M148.64 64.83c-1.87 6.03-.72 11.74 2.56 12.76 3.28 1.02 7.45-3.05 9.32-9.08s.72-11.74-2.56-12.76c-3.28-1.02-7.45 3.05-9.32 9.08ZM116.35 76.5h25.33v39.33h-25.33z"/><path class="cls-3" d="m68.4 231.83-6.1-.06-.34-62.04-.91-49.69 33.36-12.96 6.58 1.53 15.36 3.55 11.13 2.58.49.11h.03l10.98-2.53 15.65-3.62 6.97-1.62 41.17 12.18.61 111.73-17.52.84c-.05-.25-.36-.24-.39 0H71.04"/><path d="m129.07 114.66-19.53-18.12-10.4 11.73 15.03 22.11 14.9-15.72zm0-.43 19.8-17.69 10.39 11.73-15.03 22.11-15.16-16.15z" style="fill:#fff"/><path class="cls-2" d="M65.27 76.29s-.01-.05-.02-.08a3.79 3.79 0 0 1-.82-.24l-.15-.06c-.44-.21-.82-.48-1.12-.72-.53-.42-.88-.75-1.09-.51-.07.08-.12.22-.14.4-.06.47.06 1.21.32 1.95l2.05-.5.96-.23Z"/><path class="cls-2" d="m69.87 79.42-.61-3.2c-.08-.21-.15-.42-.23-.62-.07-.2-.13-.39-.2-.58l-3.98.25h-.04l-.39.03h-.15l-.88.06h-.08s.01.07.02.11c.05.28.09.56.14.85l.2.03-.19.05c.02.1.04.2.06.31.16.89.35 1.81.58 2.76l.04.19c-.17.04-.35.07-.53.07-.17 0-.54 0-.98-.17-.22-.09-.45-.23-.69-.44-.15-.13-.3-.29-.44-.49-.31-.43-.56-.97-.73-1.51l-.39.1-.17.04-.55.15-1.69.45-1.18.31-1.59.42-1.58.42-2.02.53-3.17.84v.07c.02.49.1 3.44.23 7.86.15 4.86 6.4 9.97 6.4 9.97l.08 2.72.12 3.95 9-.56s-.04-2.53.09-4.57c.06-.91.15-1.71.29-2.15.47-1.41 4.58-8.06 5-11.47.25-2.04.45-2.85.19-6.78Zm-4.9-.23.89-.77.08-.07s-.06.08-.1.13a3.664 3.664 0 0 1-1.1.95c-.04.03-.08.05-.13.07l.08-.07.28-.24Z"/><path class="cls-2" d="m59.55 72.52.21 7.22 5.22-.32-.21-7.22c-.05-1.53-1.25-2.69-2.69-2.6-.72.04-1.36.4-1.82.92-.46.53-.73 1.24-.71 2Z"/><path class="cls-2" d="m55.27 80.02 5.22-.32-.21-7.22c-.05-1.53-1.25-2.69-2.69-2.6-1.44.09-2.57 1.4-2.53 2.93l.21 7.22Z"/><path class="cls-2" d="m51.64 80.24 5.22-.32-.21-7.22c-.05-1.53-1.25-2.69-2.69-2.6-1.44.09-2.57 1.4-2.53 2.93l.21 7.22Z"/><path class="cls-2" d="m48.46 80.44 5.22-.32-.09-3.07c-.05-1.53-1.25-2.69-2.69-2.6-1.44.09-2.57 1.4-2.53 2.93l.09 3.07Zm12.79-5.43.38 2.16.42 2.43.71 4.11 4.04-2.2 1.08-3.16.02-.05.88-2.61-3.68-.33-.68-.06-.15-.02-1.1-.1-1.23-.11-.69-.06z"/><path class="cls-2" d="M64.82 75.89c-.04-9.51-.28-15.16-.69-18.12-.09-.69-.39-2.65.51-3.26.75-.52 1.98.15 2.27.32.71.41 1.9 1.41 2.54 4.31 1.25 5.67-.27 15.56-.54 17.27l-4.08-.52Zm-.55-.61v.02h.15l-.15-.02z"/><path class="cls-3" d="M74.42 211.71H57.14c-7.48 0-13.42-6.29-13-13.75l5.22-92.52 1.45-.18 19.99-2.47 1.79-.22 1.39 8.88 13.31 85.23c1.23 7.9-4.87 15.03-12.86 15.03Z"/><path class="cls-6" d="M156.88 50.58c-.09-1.72-.61-5.05-1.76-8.61-.24-.87-.53-1.65-.84-2.32-.82-2.05-1.87-4.08-3.19-5.82-8.53-11.29-23.87-10.55-28.23-10.11-1.08.11-2.42.25-3.91.52-3.96.7-9.05 2.3-13.45 6.7-6.37 6.35-6.38 19.64-6.51 21.93l.54-.19c-.02.38.01.73.12 1 1.56 3.86 17.45-.58 21.98-16.42l2.08-2.71c4.19 5.98 10.15 10.25 15.38 12.68l1.44.63c3.07 1.26 5.78 1.85 7.6 1.74.73 3.63 1.29 4.08 3.42 7.61.84 1.38 5.34 7.51 5.34 7.31-.27-9.57-.43-7.43-.06-12.48"/><rect class="cls-5" x="94.28" y="47.33" width="5.21" height="21.96" rx="2.61" ry="2.61"/><rect class="cls-8" x="92.72" y="49.2" width="2.62" height="18.22" rx="1.31" ry="1.31"/><path class="cls-7" d="M92.87 52.47v13.08c-1.56 0-2.83-1.27-2.83-2.83v-7.41c0-1.56 1.27-2.83 2.83-2.83Z"/><rect class="cls-5" x="155.91" y="47.33" width="5.21" height="21.96" rx="2.61" ry="2.61" transform="rotate(-180 158.51 58.305)"/><rect class="cls-8" x="160.07" y="49.2" width="2.62" height="18.22" rx="1.31" ry="1.31" transform="rotate(180 161.375 58.305)"/><path class="cls-7" d="M165.37 52.47v13.08c-1.56 0-2.83-1.27-2.83-2.83v-7.41c0-1.56 1.27-2.83 2.83-2.83Z" transform="rotate(-180 163.955 59.005)"/><path class="cls-5" d="M127 15.67c-18.44 0-33.4 15.36-33.53 34.35h3.88c.18-16.95 13.55-30.63 30.02-30.63s29.84 13.68 30.02 30.63h3.14c-.13-19-15.09-34.35-33.53-34.35Zm-24.69 65.8c-.68 0-1.3-.45-1.52-1.15L96.9 67.83c-.27-.88.19-1.82 1.03-2.1.84-.29 1.74.19 2.02 1.07l3.45 11.08 10.71-2.26c.86-.18 1.71.4 1.88 1.31.18.9-.38 1.79-1.25 1.97l-12.1 2.56c-.11.02-.21.03-.32.03Z"/><rect class="cls-5" x="109.4" y="74.46" width="9.48" height="5.05" rx="2.53" ry="2.53"/><path style="fill:none" d="M0 0h247.5v247.5H0z"/></g></svg>