<svg id="Layer_2" xmlns="http://www.w3.org/2000/svg" viewBox="0 0 981 74"><defs><style>.cls-1{fill:#fff}.cls-2{fill:#fbd747}.cls-4{fill:#0c5faa}</style></defs><g id="PC"><path class="cls-1" d="M1 0h980v74H1z"/><path class="cls-4" d="M138 69h843v4H138z"/><path class="cls-2" d="M162.55 73.69H6.33V.31H179l-16.45 73.38z"/><path class="cls-4" d="M156.23 73.69H0V.31h172.67l-16.44 73.38z"/><path d="M204.22 24.34c-1.71.27-2.35.37-4.06.57-.44-1.88-.8-2.95-1.54-4.66 3.29-.27 5.8-.67 8.89-1.44 2.18-.54 3.15-.91 4.06-1.44l2.95 4.46q-.17.07-.77.27c-1.31.44-3.02.91-4.46 1.24v3.42h2.08c1.27 0 1.95-.03 2.75-.17v4.93c-.84-.1-1.68-.13-2.85-.13h-1.81c1.78 2.52 2.85 3.59 5.06 5.17-.97 1.64-1.61 2.92-2.28 4.73-1.38-1.31-2.11-2.25-3.05-3.86.07.77.1 1.68.1 2.75v4.53c0 2.15.03 3.05.2 4.39h-5.47c.13-1.38.2-2.41.2-4.39v-3.96q0-1.68.07-2.62c-1.04 2.58-2.08 4.23-3.99 6.21-.91-2.45-1.31-3.32-2.41-5.13 1.31-1.11 2.11-2.08 3.19-3.72 1.01-1.58 1.64-2.82 2.08-4.09h-1.51c-1.24 0-2.08.03-2.95.17v-4.96c.91.13 1.68.17 3.05.17h2.48v-2.41Zm16.4-4.16c-.13 1.24-.17 2.21-.17 4.29v12.41c0 2.05.03 2.98.17 4.09h-5.33c.13-1.01.17-1.71.17-3.96V24.47c0-1.98-.07-3.09-.17-4.29h5.33Zm7.75-2.18c-.17 1.54-.2 2.82-.2 4.9v21.13c0 2.18-.54 3.49-1.74 4.09-.94.5-2.82.74-5.8.74-.57 0-1.11-.03-2.31-.07-.4-2.08-.74-3.22-1.58-5.2 2.11.2 3.15.27 4.59.27s1.78-.17 1.78-1.01V22.89c0-1.58-.07-3.19-.2-4.9h5.47Zm23.41 25.9c0 2.21.03 3.15.17 4.29h-5.37c.13-1.07.2-2.08.2-4.26V39.2h-6.41c-.47 4.23-1.34 7.08-3.15 10.16-1.88-2.01-2.72-2.72-4.56-3.82 2.55-4.26 3.08-8.08 3.08-22.4 0-1.98-.07-3.32-.17-4.59 1.24.1 2.08.13 3.99.13h19.55c2.08 0 3.08-.03 4.19-.13-.13 1.17-.17 2.11-.17 4.29v21.87c0 3.12-1.27 4.09-5.33 4.09-1.14 0-2.35-.03-3.66-.1-.24-1.78-.54-2.88-1.34-4.83 1.48.13 2.78.2 3.72.2 1.21 0 1.48-.13 1.48-.74V39.2h-6.24v4.7Zm-10.97-12.61c-.03 1.38-.03 1.74-.1 3.22h6.07v-3.22h-5.97Zm5.97-7.81h-5.9v3.15h5.9v-3.15Zm11.24 3.15v-3.15h-6.24v3.15h6.24Zm-6.24 7.88h6.24v-3.22h-6.24v3.22Zm16.36-12.65c.84.07 1.21.1 2.05.1.91 0 9.93-.23 13.05-.34-.03-2.15-.07-2.58-.23-3.56h5.94c-.13 1.17-.17 1.54-.17 3.42 5.57-.03 8.05-.1 9.39-.23l.03 5.5c-1.51-.13-2.18-.17-6.04-.17-1.78 0-2.01 0-3.35.03v4.96c.97 1.78 1.34 3.35 1.34 5.6 0 3.76-1.95 7.04-5.53 9.29-1.64 1.01-3.55 1.78-6.74 2.72-.94-2.38-1.68-3.62-3.19-5.3 3.39-.5 5.3-1.04 6.91-2.05 1.24-.74 1.95-1.48 2.48-2.65-1.41 1.17-2.55 1.58-4.49 1.58-3.89 0-6.64-2.55-6.64-6.14 0-3.82 3.15-6.44 7.78-6.44 1.07 0 1.84.1 2.62.37v-1.04q0-.47-.03-.8c-6.94.2-12.41.5-14.99.87l-.17-5.73Zm10.43 12.51c0 1.04.94 1.81 2.21 1.81 1.44 0 2.55-.87 2.55-2.01 0-1.04-.87-1.74-2.21-1.74-1.48 0-2.55.8-2.55 1.94Zm27.2-14.89c1.41.17 2.65.23 4.83.23 2.99 0 6.71-.13 10.1-.4 1.48-.1 1.91-.2 2.55-.47L326 22.9q-.87.5-5.4 4.39c-1.78 1.51-2.38 2.01-4.63 3.66 1.88-.47 2.85-.6 4.59-.6 3.15 0 5.4.74 7.18 2.28 1.61 1.44 2.45 3.39 2.45 5.8 0 3.39-1.58 6.07-4.63 7.88-2.31 1.34-5.53 2.11-8.89 2.11-5.67 0-9.12-2.25-9.12-5.97 0-3.12 2.78-5.37 6.67-5.37 2.42 0 4.56.94 6 2.58.67.74 1.04 1.41 1.54 2.65 1.81-.8 2.65-1.95 2.65-3.66 0-2.35-2.28-3.79-6-3.79s-7.31 1.11-10.33 3.09c-1.04.67-2.11 1.51-3.22 2.52l-3.12-5.1c3.08-1.44 10.16-6.94 14.32-11.07-1.78.2-3.12.27-7.85.5-.91.03-1.54.1-2.21.17l-.23-5.5Zm8.32 21.87c-.77 0-1.31.44-1.31 1.11 0 .91 1.07 1.48 2.88 1.48.4 0 .47 0 1.11-.1-.44-1.61-1.38-2.48-2.68-2.48Z" style="fill:#333"/><path class="cls-4" d="M361.71 34.67c1.64 0 2.85-.07 3.92-.17v4.86c-1.07-.13-2.52-.2-4.33-.2h-5.03c2.38 2.05 5.9 3.72 10.4 4.9-1.14 1.74-1.68 2.75-2.58 4.9-2.88-1.14-4.26-1.78-6.2-2.98-2.21-1.38-3.62-2.52-5.17-4.19.03 1.21.07 1.51.07 2.08v2.05c0 1.41.07 2.15.27 3.29h-5.57c.24-1.14.3-1.98.3-3.32v-1.95c0-.64 0-1.04.07-2.01-1.54 1.68-2.75 2.65-4.76 3.92-1.81 1.14-3.15 1.81-5.97 2.95-.8-1.95-1.41-3.02-2.65-4.7 3.96-.97 7.78-2.88 10.03-4.93h-4.7c-1.81 0-3.32.07-4.36.2v-4.86c.77.13 1.54.17 3.02.17h9.32v-.57c0-.77-.07-1.34-.2-2.08h5.37c-.13.7-.17 1.27-.17 2.11v.54h8.92Zm-.23-12.81c-.4.37-.57.54-1.27 1.31-1.48 1.61-2.78 2.75-4.7 4.23 2.95.81 6.37 1.27 11.14 1.54-1.11 1.95-1.41 2.68-2.18 4.96-7.01-1.01-10.6-1.88-14.05-3.56-1.98.94-3.99 1.64-6.47 2.28-2.28.6-2.85.74-7.38 1.34-.44-1.81-.8-2.88-1.61-4.49 4.59-.34 7.61-.84 10.9-1.88-1.14-.87-1.61-1.31-2.75-2.48-1.88 1.24-3.15 1.91-5.23 2.75-.77-1.61-1.41-2.62-2.72-4.16 2.48-.77 4.16-1.58 6.14-2.88 1.84-1.24 3.02-2.28 4.16-3.69l5.84.8c-.67.74-.91 1.01-1.44 1.54h6.04c1.27 0 1.91-.03 2.75-.17l2.85 2.55Zm-14.09 1.51c1.04.91 1.78 1.41 3.22 2.15 1.38-.77 1.88-1.14 3.05-2.15h-6.27Zm37.12 5.47c-.84 1.91-1.34 2.82-2.45 4.56-1.34-1.48-2.28-2.31-3.79-3.35v15.29c0 1.51.03 2.21.2 3.86h-5.53c.17-1.71.2-2.31.2-3.86v-8.15q0-.84.07-3.42c-.67 1.04-.97 1.41-2.05 2.48-.57-3.05-.87-4.13-1.71-6.2 2.15-2.31 3.82-5.1 5.17-8.65.67-1.84.84-2.38 1.14-4.19l5.23 1.44q-1.51 4.29-2.72 6.98v4.02c2.18-3.39 3.59-6.98 3.96-10.2l4.96 1.14c-.13.5-.47 1.68-.97 3.45h1.95v-2.55c0-1.78-.03-2.62-.2-3.66h5.6c-.17 1.14-.2 1.84-.2 3.72v2.48h3.49c1.74 0 2.78-.07 3.79-.2v5.16c-1.81-.13-2.62-.17-3.79-.17h-3.49v5.4h4.12c1.74 0 2.85-.07 3.99-.2v5.23c-1.17-.13-2.28-.2-3.92-.2h-4.19v5.9c0 2.15.03 2.95.2 4.23h-5.6c.17-1.21.2-2.11.2-4.23v-5.9h-4.8c-1.78 0-2.95.07-4.06.2v-5.23c1.11.13 2.28.2 4.02.2h4.83v-5.4h-3.66Zm30.38-9.69c-.3.67-.64 1.81-.97 3.32-1.04 4.56-1.51 8.38-1.61 13.01l2.58.87c-1.04 3.25-1.41 5.97-1.41 10.23 0 .17.03.6.1 1.34l-5.67.23q-.03-.6-.27-2.65c-.6-4.7-.74-6.54-.74-10.16 0-4.73.3-7.68 1.34-13.55.27-1.51.4-2.42.4-2.92v-.17l6.24.44Zm1.21 5.47c1.38.34 3.72.54 6.27.54.7 0 1.27 0 2.41-.03v-4.36c0-.8-.07-1.38-.17-1.88l5.8-.03c-.17 1.07-.27 2.55-.27 5.87 2.05-.23 4.06-.64 5.33-1.04l.2 5.33c-.44.03-.54.07-1.24.2-1.04.23-2.55.44-4.23.64.03 2.62.07 3.29.3 7.14 2.31 1.04 3.52 1.71 5.4 3.05.17.13.33.23.64.4l-2.11 5.7c-.77-.94-2.08-1.98-3.99-3.19v.27c0 2.85-2.92 4.76-7.21 4.76-4.93 0-7.85-2.35-7.85-6.24 0-2.01.91-3.76 2.55-4.93 1.27-.91 3.05-1.38 5.17-1.38.7 0 1.21.07 1.95.2-.03-.94-.03-1.11-.1-2.68-.03-1.14-.03-1.61-.07-2.78-.77.03-1.24.03-1.91.03-1.01 0-2.95-.07-5.77-.17-.4-.03-.67-.03-.77-.03h-.4l.07-5.4Zm9.06 15.96c-.84-.3-1.34-.4-2.05-.4-1.54 0-2.48.6-2.48 1.54 0 .87.87 1.44 2.21 1.44 1.61 0 2.35-.6 2.35-1.95l-.03-.64Zm23.94-1.88c.07-.54.07-.57.07-1.54 0-2.31.4-3.66 1.48-4.96.81-.94 1.07-1.14 3.46-2.58 1.64-.97 2.18-1.68 2.18-2.78 0-1.58-1.17-2.52-3.19-2.52-1.51 0-2.62.54-3.25 1.58-.33.54-.47 1.01-.6 2.05l-6.91-.64c.34-2.41.87-3.72 2.15-5.13 1.95-2.21 4.93-3.35 8.79-3.35 6.17 0 10.03 2.92 10.03 7.55 0 2.05-.67 3.62-2.08 4.93-.8.74-1.14.97-4.06 2.78-1.41.91-1.91 1.78-1.91 3.32 0 .4.03.77.1 1.31h-6.24Zm6.51 2.28v6.34h-6.74v-6.34h6.74Z"/><path class="cls-1" d="M44.16 31.32c-.05.2-.11.4-.19.63 1.35-1.27 2.57-1.78 4.23-1.78 1.48 0 2.54.44 3.16 1.27.71.98.82 2.33.32 4.15-.9 3.3-3.28 5.28-6.38 5.28-1.6 0-2.66-.55-3.23-1.71q-.06.21-.13.57c-.01.12-.1.45-.18.77l-.36 1.35c-.28 1.05-.39 1.61-.49 2.35h-2.56c.31-.83.5-1.43.74-2.34l2.36-9.01c.27-1.05.39-1.65.51-2.43h2.45l-.23.89Zm3.08.8c-1.82 0-3.59 1.48-4.1 3.41-.54 2.05.43 3.48 2.33 3.48 1.79 0 3.26-1.32 3.84-3.44.58-2.13-.21-3.45-2.07-3.45Zm5.89 3.51c.92-3.36 3.65-5.52 7.01-5.52s4.85 2.14 3.89 5.48-3.7 5.49-6.95 5.49-4.87-2.1-3.95-5.45Zm2.37 0c-.61 2.21.18 3.57 2.08 3.57s3.45-1.34 4.07-3.53c.66-2.33-.08-3.66-2.04-3.66s-3.49 1.38-4.12 3.63Zm15.74-9.26-.68 2.32h-2.72l.67-2.32h2.72Zm-1.2 4.05c-.29.67-.5 1.27-.82 2.38l-1.63 5.61c-.29.98-.42 1.59-.55 2.34h-2.66c.34-.8.56-1.43.81-2.32l1.63-5.65c.29-1 .43-1.61.53-2.36h2.69Zm-.72 10.33c.33-.77.53-1.32.83-2.32l1.66-5.65c.29-1 .44-1.61.54-2.36h2.51l-.28.96c-.08.27-.1.33-.27.78 1.54-1.41 2.67-1.92 4.33-1.92 1.42 0 2.33.45 2.73 1.34.26.6.23 1.32-.14 2.53l-1.31 4.31c-.3.98-.47 1.66-.56 2.32h-2.64c.33-.8.55-1.41.83-2.32l1.2-3.99c.23-.76.28-1.25.17-1.59-.15-.47-.62-.74-1.32-.74-1.33 0-2.68.91-4.02 2.69l-1.07 3.62c-.26.87-.42 1.55-.54 2.32h-2.63ZM89.5 27.62c-.27.64-.57 1.42-.83 2.24l-.17.56h.77c.87 0 1.28-.02 1.9-.11l-.67 2.14c-.58-.09-.92-.11-1.77-.11h-.83l-1.73 5.58c-.27.88-.04 1.2.83 1.2.47 0 .79-.09 1.46-.39l-.26 1.89c-.87.28-1.45.37-2.4.37-2.1 0-2.71-.73-2.14-2.6l1.86-6.04h-.7c-.68 0-1.04.02-1.67.11l.65-2.14c.51.09.85.11 1.63.11h.68l.17-.56c.24-.78.43-1.59.56-2.24h2.64Zm3.66 15.02c6.68-3.25 13.21-6.97 19.17-10.46 3.28-1.94 4.67-2.9 5.64-5.74.75-2.2-.91-3.98-3.6-3.98h-3.43c-2.75 0-5.58 1.78-6.3 3.98l-.38 1.15h-6.69l.69-2.16c1.51-4.73 7.69-8.64 13.76-8.64h5.38c6.07 0 9.65 3.91 8.01 8.64l-.25.73c-1.36 3.91-2.8 6.12-7.73 9.04-5.79 3.39-12.06 6.87-18.08 9.73h18.59l-1.62 4.68H90.96l2.23-6.98Z"/><path class="cls-2" d="M64 56h54v1H64zm-30-5h54v1H34z"/></g></svg>