<?xml version="1.0" encoding="UTF-8"?><svg id="Layer_2" xmlns="http://www.w3.org/2000/svg" viewBox="0 0 276.23 274.97"><defs><style>.cls-1{fill:#f0f0e5;}.cls-2{fill:#fff;}.cls-3{fill:#0b273b;}</style></defs><g id="PC"><g id="_èóê__ìdëÏ_ok"><path id="_îí" class="cls-2" d="M272.13,120.19c1-7.32,3.24-10.79,1.62-13.48-3.06-3.57,.95-8.96-4.31-9.09-2-.15-.85-2.93-1.77-3.7-5.26-3.85-13.76,20.38-15.18,20.95,0-.23-5.31-4.7-7.78-4.54-4.43,.4-13.63,4.94-12.94,9.63,.08,.12,.13,.22,.17,.31,1.14,.7,3,.28,4.1-.18,1.82-.77,3.48-1.97,5.54-1.88,3.09,.13,6.64,2.83,6.11,6.2-.34,2.12-1.96,4.28-3.51,5.69-1.8,1.64-4.49,2.61-6.27,.37-1.05-1.33-1.29-2.97-2.07-4.43-.4-.76-1.02-1.35-1.7-1.88-.29-.23-.58-.43-.93-.5-.51-.1-.92-.11-1.39-.37-.29-.16-.46-.38-.55-.61-.48-.2-.94-.48-1.35-.86-.25,.16-.49,.35-.7,.61-1.16,1.46-1.23,1.69-.08,3.85,1.16,2.16,3.39,11.55,3.77,14.48-.46,8.11,5.92,6.75,5.62,10.32-.39,2.16-.36,2.36-2.76,2.64-2.4,.28-2.48,1.99-3.56,3.6-1.08,1.61-3.07,.58-3.46,2.87-.39,2.29-1.78,7.52-1.85,7.29-.08-.23-2.77-3.03-5.85-8.56-3.08-5.53-4.01-11.16-9.63-14.39-5.62-3.24-11.84-3.62-15.12-6.62-3.29-3-18.08-15.79-22.93-19.1-9.88-5.43-9.45-3.18-11.14-12.08,4.99-1.94,11.88-10.4,14.76-16.88,1.85-3.92,.54-6.31,3.47-7.24,5.33,0,15.09-3.48,13.25-10.86-.62-3.93,.16-4.85-3.16-5.85-3.31-1-10.48,1-10.48,1,0,0-.46-18.49-.46-18.26s-8.55-3.72-15.79-14.22-10.55-13.67-10.55-13.67h-2.64s-18.11,14.69-26.53,19.58c-8.42,4.9-19.3,9.11-19.3,9.11l-.6,15.71c-8.04-2.92-15.57,3.69-10.55,12.53,1.3,3.62,11.99,5.49,13.25,5.7,1.35,8.9,9.34,20.01,17.31,23.38-.41,14.42-2.43,6.44-9.84,11.74-2.16,1.77-6.7,6.01-7.63,7.01s.51,3.06-3.47,4.78c-8.58,6.22-24.15,10.29-32.04,17.41-2.8,4.6-8.23,15.84-12.09,18.18,0,0-2.46-6.69-2.7-6.97-.23-.28-2.83-.04-3.3-2.12-.47-2.08-2.7-4.53-2.7-4.53,0,0,6.39-10.26,6.62-10.34,2.66-1.19,6.01-.05,6.6-4.08,.26-1.93-1.59-15.17-1.59-15.17,0,0,1.35-8.7,3.18-12.09s2.83-5.24,1.44-5.93c-2.82-1.06-6.95,1.82-7.96,3.77l-3.37-20.8s-1.92-2.85-3.97-2.85c-4.34,1.1-43.09,4.99-42.65,9.04-.45,1.51,.97,10.21,.97,10.21,0,0-2.81-3.54-4.73-2.77-1.93,.77-3.39,.77-3.08,3.08,.31,2.31,5.83,6.83,5.53,8.81-.3,1.98-1.84,4.67-.37,7.14,1.46,2.46,1.54,.98,1.31,4.92-.23,3.94,.39,3.98,1,6.12,.62,2.14-.26,2.68,.33,5.53,.2,5.23,4.44,3.41,6.6,4.01,0,0,.54,4.01,1.62,5.31,1.08,1.31,2.46-.08,3.24,1.16,.59,1.11,6.63,9.98,6.61,10.63l-2.34,1.39c-3.32,5.95,2.04,40.17,3.35,50.45,2.01,6.16,4.11,16.23,10.86,18.56,16.54,2.91,31.71-14.22,42.83-22.11,2.12,7.17,5.56,30.18,4.93,39.36-.15,3.62-3.31,28.11-3.31,28.11h117.7l-3.08-36.35,5.24-30.73c15.49,11.63,45.83,43.03,53.92,2.08,1.24-15.64,6.32-42.87,2.08-50.45-1.93-.15-4.47-.08-4.47-.08l.39-5.16c9.57-3.32,14.22-20.99,16.25-32.81Z"/><path id="_ÉJÉâÅ__00000155144864763881484630000010307225124904152985_" class="cls-1" d="M254.65,163.59c-.4,.03-.81,.13-1.21,.21-.13,.02-.27,.05-.39,0-.03,0-.05-.02-.07-.04-.1-.06-.17-.17-.25-.26-.6-.7-1.62-.8-2.53-.87-5.03-.38-10.04-1.13-14.88-2.53-1.55-.45-4.4-1.86-5.85-.65-.46,.38-.5,.05-.7,.75-.16,.54-.28,1.1-.41,1.65-.27,1.1-.52,2.2-.75,3.31-.29,1.35-.55,2.7-.79,4.05-.13,.73-.1,1.49-.33,2.21-.38,1.21-1.35,.67-2.01-.09-2.6-3.03-5.48-5.98-7.72-9.27-2.76-4.05-5.08-10.63-6.46-12.73-1.38-2.09-2.6-2.44-8.12-4.84-5.52-2.39-15.1-8.73-18.93-11.48-3.83-2.74-.74-5.13-2.92-7.51-2.18-2.37-3.34-2.28-7.83-6.03-2.88-2.4-5.8-2.92-7.55-4.15,1.12,2.47,1.48,5.07,1.29,7.69,.27,.52,.4,1.11,.3,1.81-.49,3.32-1.87,12.83-2.53,17.52-.67,4.69-4.24,23.71-6.37,32.95-2.12,9.25-10.8,51.8-11.83,54.92-1.03,3.12-2.37,6.7-2.37,6.7l-8-29.46-9.29-45.18s-5.55-30.44-5.86-34.25c-.3-3.81-1.07-5.03-.23-6.53,.85-1.5,1.18-4.79,1.18-4.79l-3.7-.06c-4.21,2.69-8.72,5.12-11.88,8.95-2.05,2.48-3.48,4.77-6.36,6.39-1.95,1.1-4.1,1.87-6.23,2.63-3.13,1.65-6.95,3.62-11.01,5.95-6.01,3.44-8.24,2.23-10.78,5.74s-2.98,4.98-6.29,10.53c-3.31,5.55-6.72,10.08-6.72,10.08l-2.48-7.72s-5.51,.77-9.66,2.42c-4.15,1.66-7.18,.64-13.75,2.04-6.56,1.4-8.24,.57-8.24,.57,0,0,.37,5.36,.81,7.59s2.23,32.47,4.71,40.64c2.48,8.17,1.18,10.78,6.69,13.84,5.51,3.06,6.01,2.81,10.78,2.49,4.77-.32,14.86-6,19.94-11.16,5.08-5.17,16-11.62,16.07-11.43s2.19,14.33,2.81,17.45c.62,3.13,1.88,8.86,1.88,15.15s-3.75,34.89-3.75,34.89h112.77l-3.92-36.09,6.35-36.48s15.55,13.75,19.9,17.64c4.36,3.89,11.6,8.82,15.66,9.42,4.07,.6,8.35,.89,11.11-4.79,2.76-5.69,3.63-9.28,4.94-16.76,.65-3.72,.92-7.52,1.27-11.27,.49-5.36,.93-10.72,1.34-16.09,.33-4.29,.65-8.59,.96-12.88,.06-.88,.29-1.94,.17-2.81Z"/><g id="_ÉAÉEÉgÉâÉCÉì"><g><path class="cls-3" d="M275.07,105.59c-.69-.64-1.16-1.27-.97-3.64,.13-1.64,0-2.79-.43-3.72-.57-1.24-1.62-2.01-3.23-2.38-.12-.03-.17-.04-.2-.59,0-.13-.02-.32-.05-.49-.36-1.89-1.43-3.08-2.95-3.25-.82-.09-1.73,.15-2.63,.69-1.96,1.19-3.65,2.88-5.17,5.17-2.88,4.33-5.02,8.88-7.33,13.95-.16,.36-.33,.71-.54,1.14l-.36-.3c-1.79-1.5-3.47-2.91-5.89-3.24-.09-.01-.31-.04-.31-.04-4.86-.54-8.58,1.96-11.57,4.47-.84,.71-1.57,1.55-2.28,2.37l-.02,.03c-.21,.24-.42,.48-.63,.72-.06,.06-.12,.13-.18,.19-.39,.42-.83,.89-.87,1.49-.15,1.81-1.11,3.04-2.52,4.32-1.13,1.03-.46,2.34-.02,3.21l.02,.04c.08,.16,.15,.3,.22,.45,1.58,3.53,2.93,6.74,3.51,10.18,.19,1.15,.33,2.29,.39,3.37,.24,4.15,1.8,7.69,4.63,10.5,.67,.66,.8,1.15,.53,1.9-.17-.07-.35-.14-.53-.21-.56-.25-1.1-.37-1.59-.37-1.34,0-2.29,.93-2.66,2.61l-.05,.23c-.27,1.26-.47,2.17-1.92,2.61-1.01,.3-1.76,1.34-2.06,2.86-.17,.84-.43,1.69-.68,2.51-.09,.29-.18,.58-.26,.87-.54-.22-.73-.61-.93-1.03-.06-.13-.12-.25-.19-.36-.65-1.12-1.3-2.25-1.95-3.37-2.02-3.48-4.11-7.08-6.07-10.68-1.5-2.75-3.65-4.69-6.58-5.92-2.61-1.1-5.13-2.22-7.93-3.47-2.87-1.29-5.61-2.96-8.25-4.58-2.71-1.66-5.52-3.38-8.5-4.69-1.53-.68-2.57-1.58-3.09-2.69-1.12-2.4-3.13-3.82-5.07-5.19-.32-.23-.64-.45-.95-.68l-.33-.24c-1.4-1.02-2.85-2.07-4.14-3.24-.17-.16-.35-.32-.52-.48-1.2-1.11-2.45-2.27-4.07-2.27-.64,0-1.28,.17-1.97,.52-.08-.18-.15-.34-.21-.49-.17-.39-.31-.7-.39-1.01-.23-.87-.44-1.74-.66-2.6-.2-.83-.41-1.65-.62-2.48-.34-1.29-1.06-1.56-1.6-1.56-.07,0-.14,0-.22,.01-.61,.08-1.35,.47-1.42,1.92-.02,.45-.04,.93,0,1.4,.32,3.87,1.55,7.71,3.75,11.73l.06,.11c.35,.63,.6,1.09,.48,1.8-1.24,7.45-2.43,14.75-3.54,22.06-.23,1.51-.82,2.1-2.36,2.33-5.29,.79-10.66,1.19-15.97,1.19s-10.67-.4-16-1.18c-1.59-.23-2.21-.87-2.46-2.51-1.12-7.4-2.33-14.74-3.5-21.83-.12-.73,.11-1.22,.5-1.93,2.34-4.25,3.59-8.23,3.8-12.18v-.14c.07-1.05,.15-2.5-1.37-2.74-.12-.02-.23-.03-.33-.03-1.2,0-1.47,1.13-1.69,2.03l-.08,.33c-.13,.51-.25,1.02-.36,1.54-.3,1.38-.61,2.81-1.38,4.15-.65-.29-1.28-.43-1.88-.43-1.73,0-3.06,1.15-4.23,2.39-1.27,1.35-2.82,2.42-4.32,3.45l-1.15,.8c-2.05,1.43-4.16,2.91-5.36,5.38-.69,1.43-2.1,2.24-3.48,2.95-2.9,1.48-5.77,3.12-8.55,4.7-5.32,3.03-10.83,6.17-16.72,8.33-2.15,.79-3.91,2.4-5.24,4.78-2.48,4.44-5.07,8.91-7.57,13.23l-.81,1.39c-.08,.13-.14,.28-.21,.43-.21,.46-.39,.87-.95,1.01-.09-.31-.18-.62-.27-.92-.25-.84-.5-1.71-.69-2.57-.32-1.43-1.1-2.44-2.14-2.8-1.29-.43-1.62-1.16-1.81-2.43-.21-1.44-.78-2.18-1.42-2.56,1.93-2.62,3.37-5.54,4.67-8.52,.67-.11,1.34-.22,2.01-.33,3.44-.57,5.22-2.73,5.15-6.26-.02-1.06-.22-2.09-.41-3.13-.07-.38-.15-.77-.21-1.16-.39-2.43-.79-4.88-1.2-7.38,.09-1.23,.14-2.48,.38-3.69,.95-4.74,2.55-9.29,4.24-13.82,1.18-3.18-.46-5.28-3.86-5.07-1.37,.09-2.86,.77-4.14,1.76-.83-5.08-1.71-10.49-2.66-16.33-.24-1.46-1.15-2.85-2.51-3.83-1.1-.78-2.38-1.22-3.61-1.22-.28,0-.55,.02-.82,.07l-38.26,6.27c-3.12,.51-5.49,3.81-4.98,6.91l.73,4.48c-1.52-.97-3.63-1.48-5.15-1.04-2.61,.76-2.77,3.01-2.92,5.18-.11,1.54,.72,2.71,1.68,3.82,1.35,1.56,2.65,3.15,4.24,5.06-1.34,2.16-1.43,4.95,.22,7.59,.88,1.4,.96,2.51,.22,3.95-.87,1.69-1.01,3.72,.34,5.05,1.68,1.65,1.69,3.2,1.22,5.27-.56,2.48,.97,5.36,2.84,6.13,1.25,.52,2.68,.57,4.02,.25l.21,1.35c.38,2.43,1.2,4.07,2.52,5.03,.75,.54,1.65,.85,2.72,.96-.07,.44,.04,.91,.28,1.36,1.26,2.33,3.12,4.2,4.84,6.17-.44,.2-.8,.53-.94,1.14-.22,.95-.51,1.9-.79,2.82-.31,1.02-.64,2.07-.86,3.12-.37,1.8-.21,3.72-.06,5.58,.04,.51,.08,1.02,.12,1.52,.47,7.57,1.34,15.23,2.18,22.63,.28,2.5,.57,5.01,.84,7.51,.67,6.19,1.64,13.33,4.78,19.7,3.47,7.03,7.68,10.03,14.08,10.03,1.87,0,3.92-.26,6.27-.79,6.88-1.55,12.35-5.96,17.64-10.21l1.49-1.19c1.07-.85,2.18-1.68,3.26-2.49,2.73-2.04,5.55-4.14,8.03-6.87,.75,2.44,1.07,4.69,1.39,6.87,.09,.62,.18,1.23,.27,1.83l.32,1.99c1.53,9.56,3.11,19.45,1.86,29.4-.33,2.64-.58,5.33-.81,7.94-.43,4.75-.87,9.66-1.88,14.42-.22,1.03-.14,1.83,.24,2.37,.29,.42,.76,.69,1.39,.78,.14,.02,.27,.03,.39,.03,1.51,0,1.8-1.55,1.96-2.39,1.88-10.05,2.54-20.32,3.11-30.84,.03-.55,.08-1.1,.12-1.65,.13-1.56,.27-3.17,.02-4.77-.42-2.74-.85-5.47-1.28-8.21-.79-5.05-1.61-10.27-2.37-15.42-1.19-8.01-2.62-16.11-4-23.94l-.18-1c-1.8-10.18-3.22-21.34-4.33-34.1-.05-.53-.17-1.93-1.55-1.93h-.12c-1.31,.08-1.39,1.4-1.42,1.9l-.03,.38c-.04,.63-.09,1.28-.06,1.92,.35,7.76,.93,14.6,1.77,20.91,.82,6.17,1.93,12.4,3,18.41,.51,2.85,1.02,5.7,1.5,8.56l.04,.2c.14,.78,.25,1.4-.47,2.05l-.12,.1c-3.18,2.85-6.47,5.8-9.98,8.38l-2,1.47c-2.66,1.95-5.41,3.96-8.04,6.02-4.76,3.71-9.76,5.6-15.26,5.75-.12,0-.24,0-.35,0-4.3,0-7.46-2.21-9.93-6.96-2.13-4.1-3.48-9-4.22-15.43-1.09-9.38-2.09-18.94-3.06-28.18l-.59-5.64c-.16-1.51-.32-3.07,.04-4.74h2.07c.42,0,.84,0,1.25,0,8.31-.21,15.71-1.58,22.62-4.17,1.12-.42,1.77-.66,2.21-.66,.6,0,.79,.49,1.26,2.45,2.74,11.5,5.05,23.3,6.88,35.1,.19,1.22,.42,2.74,2.04,2.74,.14,0,.28-.01,.44-.03,.58-.09,1.02-.32,1.29-.7,.48-.66,.36-1.63,.21-2.48-.34-1.92-.66-3.84-.98-5.77-1.05-6.29-2.14-12.79-3.8-19.07-.74-2.83-1.45-5.5,1.22-7.72,.31-.26,.48-.63,.65-.99,.07-.15,.14-.3,.22-.43,.75-1.31,1.51-2.62,2.27-3.93,1.77-3.04,3.6-6.19,5.24-9.37,1.5-2.9,3.61-4.77,6.66-5.9,5.76-2.13,11.56-5.21,17.73-9.41,1.07-.73,2.27-1.49,4.11-2.08-.41,1.01-.79,1.99-1.17,2.94-.93,2.36-1.82,4.6-2.77,6.77-.75,1.7-.88,2.9-.42,3.76,.45,.84,1.47,1.37,3.19,1.66l.72,.12c2.61,.44,5.31,.9,8.07,.9,.11,0,.22,0,.33,0-.91,1.03-1.77,2.09-2.59,3.11-1.44,1.79-2.79,3.47-4.43,4.97-2.87,2.63-3.25,4.84-1.47,8.44,.82,1.67,1.53,3.15,2.15,4.52,1.69,3.75,3.36,7.6,4.96,11.31,3.46,8,7.04,16.27,11.14,24.17,1.74,3.36,3.59,6.73,5.37,10,4.22,7.74,8.59,15.74,11.98,24.06,.34,.84,.86,1.8,1.84,1.8,.2,0,.42-.04,.63-.13,1.27-.5,1.67-1.79,1.08-3.44l-.4-1.12c-.75-2.13-1.52-4.33-2.68-6.27-3.37-5.63-6.38-11.58-9.28-17.33-.71-1.4-1.41-2.8-2.13-4.2-1.06-2.08-2.18-4.18-3.26-6.21-2.25-4.23-4.58-8.61-6.54-13.07-1.11-2.53-2.19-5.12-3.24-7.62-2.65-6.32-5.39-12.85-8.71-19-.54-1-.43-1.58,.41-2.24,2.6-2.03,4.65-4.61,6.63-7.11,.64-.8,1.28-1.61,1.93-2.39,.8-.96,1.06-2.14,.72-3.24-.36-1.16-1.35-2.07-2.65-2.44-.46-.13-.95-.17-1.42-.2-.29-.02-.58-.04-.86-.09-.83-.13-1.69-.21-2.51-.29-1.54-.15-3.14-.3-4.72-.76,.56-1.45,1.11-2.88,1.65-4.3,1.44-3.76,2.8-7.31,4.26-10.9,.86-2.12,2.24-3.76,4.22-5.02,2.99-1.9,5.21-3.67,6.97-5.59l.1-.11c.29-.32,.6-.66,.99-.66,.14,0,.3,.04,.47,.13-.04,.62-.21,1.21-.4,1.83-.27,.9-.55,1.84-.39,2.89,.42,2.91,.79,5.88,1.15,8.75,.51,4.1,1.03,8.34,1.73,12.48,1.72,10.23,3.87,20.56,5.95,30.54,1.67,8.01,3.39,16.29,4.88,24.47,2.06,11.27,4.61,24.34,8.88,36.78,.41,1.18,.87,2.53,2.58,2.53,1.62-.02,2.1-1.4,2.44-2.41,2.41-7.02,4.21-13.49,5.49-19.78,4.73-23.18,9.26-45.82,13.46-67.27,1.07-5.47,1.71-10.95,2.2-15.59,.14-1.37,.39-2.77,.64-4.12,.65-3.62,1.32-7.37,.04-11.13,.16-.06,.3-.1,.44-.1,.42,0,.71,.32,1.01,.66l.13,.15c2.07,2.24,4.57,3.98,7.16,5.72,1.87,1.25,3.05,2.61,3.72,4.28,1.52,3.76,3.02,7.58,4.47,11.28l1.72,4.36c-.64,.47-1.28,.52-1.97,.58-.17,.01-.34,.03-.51,.05-2.05,.26-4.07,.5-6.11,.64-1.92,.13-2.89,1.4-3.65,2.75-.79,1.4,.11,2.41,.82,3.22l.24,.27c.72,.85,1.43,1.74,2.11,2.6,1.74,2.2,3.54,4.47,5.83,6.24,1.15,.9,1.29,1.64,.54,2.96-2.49,4.39-4.47,9.04-5.91,12.61-.97,2.4-2.05,4.94-3.37,7.91-.3,0-.6,0-.9,.02-2.92,.07-4.03,1.16-4.12,4.02-.04,1.15-.04,2.29-.04,3.44,0,.52,0,1.04,0,1.56,0,.52,.09,.97,.26,1.36-5.41,11.25-11.25,22.09-17.27,33.11-1.68,3.09-3.19,6.42-4.6,10.19-.27,.73-.52,1.77-.13,2.62,.22,.48,.61,.83,1.16,1.03,.23,.08,.44,.13,.65,.13h0c1.06,0,1.52-1.1,1.89-1.99l.09-.22c.28-.66,.55-1.31,.82-1.97,1.07-2.58,2.18-5.24,3.6-7.73,6.47-11.33,12.4-23.14,17.41-33.39,.16,.01,.32,.03,.48,.03h.1c2.86-.04,5.72-.08,8.58-.12,2.86,.05,5.73,.09,8.59,.12h.1c.59,0,1.18-.1,1.83-.21,1.68-.29,2.56-1.31,2.55-2.95,0-.53,0-1.06,0-1.59,0-1.14,0-2.28-.04-3.41-.09-2.86-1.2-3.95-4.12-4.02-1.93-.05-3.85-.06-5.78-.08-.89,0-2.92-.03-2.92-.03v.1h-.38v-.1s-2.03,.02-2.92,.03c-.15,0-.3,0-.45,0,.62-1.47,1.24-2.95,1.86-4.43,1.83-4.4,3.71-8.95,5.82-13.3,2.13-4.39,1.81-6.12-1.78-9.71-1.67-1.67-3.24-3.49-4.77-5.26-.58-.67-1.16-1.34-1.75-2.01,3.03-.12,5.82-.6,8.52-1.06l.25-.04c2.1-.36,3.19-.88,3.65-1.73,.47-.88,.29-2.09-.64-4.18-.93-2.09-1.76-4.24-2.64-6.52-.35-.91-.71-1.84-1.09-2.81,2.3,.88,3.85,1.89,5.3,2.89,3.86,2.67,7.86,5.42,12.34,6.82,6.25,1.95,10.49,5.78,13.34,12.05,1.82,4,4.04,7.78,6.58,11.23,1.26,1.7,1.51,3.03,.96,5.09-1.84,6.94-3.06,14.13-4.24,21.08-.33,1.92-.65,3.84-.99,5.76-.13,.72-.46,2.63,1.5,2.98,.17,.03,.33,.05,.48,.05,1.13,0,1.84-.85,1.97-2.33,.24-2.83,.83-5.64,1.39-8.37,.44-2.1,.89-4.27,1.18-6.43,.62-4.62,1.72-9.23,2.78-13.69,.62-2.59,1.25-5.26,1.79-7.92,.29-1.45,.88-1.62,1.3-1.62,.34,0,.77,.13,1.27,.39,1.68,.88,3.52,1.36,5.3,1.82l.57,.15c6.43,1.69,12.74,2.52,19.27,2.52,.52,0,1.04,0,1.56-.02,.21,2.14,.08,3.96-.08,5.46-.34,3.21-.67,6.42-.99,9.64-.53,5.31-1.08,10.79-1.74,16.24-.89,7.43-1.82,15.12-4.86,22.23-2.03,4.73-5.79,7.34-10.58,7.34h-.12c-5.26-.05-10.07-1.92-15.59-6.09-1.15-.87-2.31-1.73-3.46-2.59-5.19-3.88-10.57-7.89-15.42-12.38-1.1-1.02-1.39-1.85-1.14-3.28,.4-2.3,.82-4.6,1.24-6.9,1.08-5.97,2.2-12.14,3.03-18.26,1.21-9.03,1.83-16.61,1.96-23.86v-.12c.02-.7,.03-1.57-.47-2.09-.26-.27-.64-.41-1.12-.41h-.09c-1.36,.05-1.44,1.24-1.5,2.11,0,.14-.02,.28-.03,.42-.18,1.76-.36,3.52-.53,5.28-.34,3.47-.69,7.06-1.14,10.58-1.17,9.21-2.78,18.51-4.33,27.5-1.51,8.74-3.07,17.77-4.23,26.72-.21,1.64-.54,3.3-.85,4.91-.61,3.11-1.24,6.32-1.09,9.56,.33,7,.86,14.43,1.71,24.09,.23,2.59,.68,5.2,1.12,7.72,.19,1.11,.39,2.22,.56,3.33,.2,1.3,.9,2.02,1.94,2.02,.08,0,.17,0,.26-.01,1.21-.12,1.85-1,1.75-2.42-.06-.87-.19-1.75-.31-2.6l-.12-.8-.27-1.93c-1.8-13.02-3.67-26.48-1.3-39.89,.43-2.42,.79-4.79,1.18-7.31,.53-3.45,1.08-7,1.8-10.72,2.6,2.71,5.41,4.83,8.13,6.88,1.06,.8,2.16,1.63,3.21,2.47l1.33,1.07c5.46,4.38,11.1,8.91,18.21,10.5,2.11,.47,3.96,.7,5.68,.7,4.63,0,8.29-1.71,11.18-5.22,2.43-2.95,4.09-6.35,5.38-11.01,1.44-5.17,2.07-10.54,2.68-15.73,.12-.98,.23-1.96,.35-2.94,1.25-10.19,2.55-20.72,2.51-31.33,0-1.94-.68-3.88-1.34-5.77-.15-.43-.3-.85-.43-1.27-.35-1.07-1.52-1.08-2.46-1.08h-.18c-.49,0-.97-.03-1.45-.04,.01-.21,.03-.47,.05-.74v-.2c.05-.49,.08-.95,.08-1.03,.02-.68,.2-.91,.47-1.07,5.99-3.38,9.91-8.9,11.98-16.85,.3-1.17,.61-2.34,.92-3.51l.02-.07c1.6-6.11,3.26-12.44,4.53-18.75,.26-1.29,.34-2.62,.42-3.91l.03-.52c.09-1.5,.03-3.18-1.13-4.26ZM48.62,151.98c-.27,.31-.5,.65-.66,1.01-.32,.13-.65,.25-.98,.37-5.42,1.94-11.41,2.96-18.25,3.15-.04-.16-.09-.33-.17-.49-1.33-2.54-3.23-4.69-4.98-6.92l18.04-2.95c4.15-.68,8.31-1.36,12.46-2.05-1.69,2.72-3.35,5.44-5.45,7.89Zm16.24-45.73c-1.4,2.85-2.23,5.48-3.03,8.04-.3-1.82-.6-3.69-.91-5.59,.79-1.11,1.93-1.97,3.94-2.45Zm-59.93,.31c-.83-.72-1.66-1.8-.79-2.78,1.01-1.13,2.13-.27,2.99,.56,.54,.53,1.08,1.06,1.72,.94l.88,5.38c-1.68-1.26-3.2-2.72-4.79-4.1Zm3.85,10.71c-.16-1.15,.49-1.69,1.58-1.5,1.72,.31,4.13,.57,4.07,2.54-.05,1.83-2.58,.64-3.75,1.36-1.75,0-1.75-1.31-1.91-2.4Zm.94,9.76c.03-1.67,1.3-1.67,2.52-1.63,1.44,.05,3.03,.43,3,2.02-.04,1.92-2.1,1.05-2.88,1.61-1.64-.04-2.67-.51-2.64-2Zm3.52,11.28c-1.85-.44-1.49-1.98-1.28-3.52,1.59,.16,3.28-.19,3.47,1.78,.12,1.28-1.21,1.98-2.19,1.74Zm5.63,5.75l-.68-4.05c.12-.13,.24-.27,.35-.41,1.39-1.83,1.19-4.39-.55-6.69-.25-.34-.53-.66-.9-1.11,1.5-1.3,2.51-2.69,2.2-4.71-.3-1.97-1.84-3.17-2.82-4.66,3.31-4.21,2.49-7.5-2.58-9.41-.08-.03-.16-.07-.24-.1-.49-2.96-.97-5.92-1.44-8.81l-1.07-6.54c-.06-.33-.11-.67-.15-1-.29-2.75,.22-3.44,2.82-3.9,1.24-.22,2.47-.42,3.71-.63,2.27-.37,4.59-.73,6.83-1.08,2.24-.35,4.56-.71,6.83-1.09l.17-.03c3.41-.56,6.87-1.15,10.25-1.73,2.27-.39,4.54-.78,6.82-1.16l.32-.05c1.12-.18,2.01-.31,2.71-.31,2,0,2.37,.95,2.98,4.7l3.54,21.64h-.05s1.02,6.23,1.02,6.23c.97,5.95,1.95,11.9,2.93,17.86,.18,1.09-.18,1.77-1.21,2.24-.64,.3-1.33,.51-2.11,.63-6.25,1.02-12.49,2.04-18.74,3.06l-16.95,2.78c-.47,.08-.93,.12-1.39,.12-.27,0-.54-.01-.81-.04-1.09-.1-1.63-.63-1.82-1.76Zm32.35,13.5c-.15,.35-.52,.62-1.14,.82-7.2,2.26-14.07,3.38-21.02,3.43-.52,0-.86-.1-1.05-.32-.21-.24-.27-.65-.21-1.25,.52,.01,1.04,.02,1.56,.02,7.15,0,14.43-1.41,21.63-4.2,.3,.64,.37,1.13,.22,1.5Zm102.17,27.64c-2.91,14.75-5.93,30-10.19,44.74-4.26-14.65-7.26-29.84-10.16-44.53-2.19-11.09-4.45-22.55-7.26-33.83,6.01,1.02,11.71,1.52,17.44,1.52s11.49-.51,17.37-1.56c-2.78,11.22-5.03,22.63-7.21,33.67Zm28.79,3.04l8.99,.1-.05,4.3-3.97-.05-.06-.12-4.9,.06-4.76-.06-.21,.11-3.97,.05-.05-4.3,8.98-.1Zm76.23-26.76c-.18,.22-.51,.32-1.05,.32h0c-6.96-.05-14.09-1.22-21.2-3.48-.52-.17-.84-.4-.97-.71-.15-.36-.09-.85,.2-1.5,7.69,2.82,14.32,4.13,20.84,4.13,.77,0,1.55-.02,2.32-.06,.11,.64,.06,1.06-.14,1.31Zm13.76-51.46l-.02,.2c-.43,3.74-.92,6.85-1.91,9.88-.92,2.82-1.67,5.74-2.4,8.58-.89,3.47-1.81,7.07-3.06,10.49-1.51,4.16-4.11,7.48-7.72,9.89-2.69,1.8-3.05,3.46-3.04,4.99,0,.67,0,1.62,0,2.24-5.02-.39-9.68-1.31-14.05-2.78,.24-.47,.52-.85,.82-.96,.72-.26,1.16-.77,1.24-1.43,.1-.81-.4-1.67-1.34-2.3-1.88-1.25-3.17-2.59-4.06-4.23-.93-1.71-1.39-3.17-1.45-4.58-.21-5.19-1.88-10.33-5.11-15.72,0-.01-.01-.02-.02-.04,0,0,0,0,0,0,1.41,.16,2.4,.76,3.04,1.84,.74,1.25,1.43,2.57,2.11,3.85l.41,.77c1.04,1.96,2.52,3.11,4.3,3.31,1.18,.13,2.42-.17,3.66-.91,2.76-1.62,4.7-4.14,5.62-7.26,.6-2.03,.28-4.12-.88-5.88-1.22-1.84-3.22-3.05-5.47-3.31-.45-.05-.91-.06-1.36-.03-1.87,.11-3.69,.75-5.74,2-.59,.36-1.17,.68-1.75,.62-.1-.01-.19-.03-.28-.06,.06-.19,.23-.35,.47-.57,.15-.14,.31-.29,.45-.46,1.45-1.84,3.22-3.3,5.26-4.33,1.65-.83,3.11-1.16,4.48-1.01,1.26,.14,2.41,.7,3.52,1.7,.45,.4,.91,.79,1.37,1.18l.44,.38c.63,.54,1.35,.87,2.06,.95,1.45,.16,2.73-.67,3.41-2.24l.55-1.27c2.08-4.77,4.22-9.69,7.07-14.16,1.12-1.76,2.26-2.94,3.76-3.88-.01,.12-.04,.43-.04,.43-.11,1.31-.21,2.44-1.02,3.54-3.96,5.42-6.58,11.66-9.1,17.69l-.1,.23c-.26,.62-.57,1.54-.22,2.35,.21,.49,.61,.85,1.2,1.07,.21,.08,.42,.13,.62,.16,1.49,.17,2.11-1.37,2.37-2.03,1.89-4.71,4.03-9.29,6.23-13.95,.75-1.58,1.66-3.16,2.78-4.82l.02-.03c.3-.45,.44-.57,.59-.56,.02,0,.04,0,.06,.01,.15,.04,.28,.13,.33,.81,.14,2.03,0,3.66-1.19,5.03-1.32,1.52-2.42,3.36-3.29,5.45-.71,1.71-3.81,9.28-3.81,9.28-.02,.05-.05,.11-.08,.17-.05,.12-.11,.24-.15,.37v.04c-.33,.99-.86,2.65,1,3.32,.18,.06,.36,.11,.53,.13,1.49,.17,2.11-1.36,2.34-1.93,.33-.83,.68-1.66,1.03-2.49,.91-2.17,1.85-4.41,2.57-6.72,.46-1.47,1.15-2.93,2.12-4.47,.04-.07,.09-.14,.14-.23,.21-.35,.32-.5,.47-.56,.4,.61,.32,1.36,.21,2.21Zm-35.95,13.14c.52-.25,1.02-.53,1.47-.79,1.36-.76,2.64-1.48,4.2-1.49,.15,0,.31,0,.46,.02h.02c1.01,.12,1.89,.63,2.4,1.41,.46,.7,.58,1.54,.34,2.38-.58,2-1.84,3.65-3.63,4.76-.46,.29-.86,.42-1.18,.38-.41-.05-.76-.39-1.07-1.04-.69-1.45-1.45-2.83-2.26-4.29-.24-.44-.49-.89-.74-1.34Z"/><path class="cls-3" d="M23.79,118.53c.18,0,.37-.02,.55-.05,.9-.15,1.69-.64,2.22-1.38,.53-.74,.75-1.64,.6-2.54-.27-1.66-1.69-2.86-3.37-2.86-.18,0-.37,.02-.55,.05-.9,.15-1.69,.64-2.22,1.38-.53,.74-.75,1.64-.6,2.54,.27,1.66,1.69,2.86,3.37,2.86Z"/><path class="cls-3" d="M36.45,116.5c1.86-.3,3.12-2.06,2.82-3.92-.27-1.66-1.69-2.86-3.37-2.86-.18,0-.37,.02-.55,.05-1.86,.3-3.12,2.06-2.82,3.92,.27,1.66,1.69,2.86,3.37,2.86,.18,0,.37-.02,.55-.05Z"/><path class="cls-3" d="M48.55,114.52c.9-.15,1.69-.64,2.22-1.38,.53-.74,.75-1.64,.6-2.54-.27-1.66-1.69-2.86-3.37-2.86-.18,0-.37,.02-.55,.05-.9,.15-1.69,.64-2.22,1.38-.53,.74-.75,1.64-.6,2.54,.27,1.66,1.69,2.86,3.37,2.86,.18,0,.37-.02,.55-.05Z"/><path class="cls-3" d="M25.99,128.56c1.86-.3,3.12-2.06,2.82-3.92-.27-1.66-1.69-2.86-3.37-2.86-.18,0-.37,.02-.55,.05-1.86,.3-3.12,2.06-2.82,3.92,.27,1.66,1.69,2.86,3.37,2.86,.18,0,.37-.02,.55-.05Z"/><path class="cls-3" d="M38.1,126.58c.9-.15,1.69-.64,2.22-1.38,.53-.74,.75-1.64,.6-2.54-.27-1.66-1.69-2.86-3.37-2.86-.18,0-.37,.02-.55,.05-.9,.15-1.69,.64-2.22,1.38-.53,.74-.75,1.64-.6,2.54,.27,1.66,1.69,2.86,3.37,2.86,.18,0,.37-.02,.55-.05Z"/><path class="cls-3" d="M49.1,117.86c-1.86,.3-3.12,2.06-2.82,3.92,.27,1.66,1.69,2.86,3.37,2.86,.18,0,.37-.02,.55-.05,1.86-.3,3.12-2.06,2.82-3.92-.27-1.66-1.69-2.86-3.37-2.86-.18,0-.37,.02-.55,.05Z"/><path class="cls-3" d="M27.09,131.86c-.18,0-.37,.02-.55,.05-1.86,.3-3.12,2.06-2.82,3.92,.27,1.66,1.69,2.86,3.37,2.86,.18,0,.37-.02,.55-.05,.9-.15,1.69-.64,2.22-1.38,.53-.74,.75-1.64,.6-2.54-.27-1.66-1.69-2.86-3.37-2.86Z"/><path class="cls-3" d="M39.2,129.87c-.18,0-.37,.02-.55,.05-.9,.15-1.69,.64-2.22,1.38-.53,.74-.75,1.64-.6,2.54,.27,1.66,1.69,2.86,3.37,2.86,.18,0,.37-.02,.55-.05,.9-.15,1.69-.64,2.22-1.38,.53-.74,.75-1.64,.6-2.54-.27-1.66-1.69-2.86-3.37-2.86Z"/><path class="cls-3" d="M50.75,127.94c-.9,.15-1.69,.64-2.22,1.38-.53,.74-.75,1.64-.6,2.54,.27,1.66,1.69,2.86,3.37,2.86,.18,0,.37-.02,.55-.05,1.86-.3,3.12-2.06,2.82-3.92-.27-1.66-1.69-2.86-3.37-2.86-.18,0-.37,.02-.55,.05Z"/><path class="cls-3" d="M49.4,100.98c1.85-.31,2.38-1.03,2.1-2.88-.09-.63-.21-1.26-.32-1.89-.08-.43-.16-.86-.23-1.29-.34-2.07-.82-3.06-2.58-3.06-.4,0-.87,.05-1.49,.15l-28.12,4.6-.55,.09c-.18,.03-.35,.06-.53,.11-1.57,.39-2.27,1.4-2.01,2.92,.2,1.22,.38,2.43,.59,3.78,.16,1.05,.36,1.78,.9,2.18,.29,.21,.67,.31,1.17,.31,.3,0,.66-.04,1.13-.11,2.02-.33,23.25-3.8,23.25-3.8,2.23-.37,4.46-.73,6.69-1.1Zm-29.5,1.32c-.06,0-.12,0-.21-.02h-.03s-.01-.03-.01-.03c-.2-.38-.25-.83-.31-1.3-.03-.25-.06-.5-.11-.76v-.06s28.18-4.62,28.18-4.62l.02,.03c.13,.21,.16,.48,.2,.76,.02,.18,.05,.36,.09,.54,.09,.34,.09,.59,0,.73-.1,.15-.34,.26-.72,.32-6.24,1-12.59,2.04-18.73,3.04l-8.36,1.36Z"/></g><g><path class="cls-3" d="M141.21,79.48c.44,.07,.89,.09,1.33,.1h.14c.11,0,.23,.01,.34,.01,.54,0,.96-.06,1.33-.17,.66-.22,.97-.53,.86-.88-.07-.19-.31-.33-.56-.47l-.06-.03c-.25-.14-.52-.25-.73-.34-.16-.06-.33-.11-.5-.17-.22-.07-.43-.13-.62-.22-.34-.16-.62-.39-.82-.65-.15-.2-.24-.4-.24-.58-.01-.32,.18-.65,.35-.94,.19-.32,.36-.66,.52-1.03,.49-.85,.62-1.63,.36-2.14-.2-.38-.59-.61-1.05-.62-.48,0-.68,.29-.86,.54l-.72,1.01c-.2,.28-.4,.56-.59,.85-.15,.24-.29,.48-.43,.72-.12,.2-.24,.41-.4,.66-.26,.41-.52,.83-.62,1.32-.14,.71,.12,1.45,.71,2.03,.65,.63,1.59,.89,2.26,1Z"/><path class="cls-3" d="M161.2,63.03c-1.97-.21-3.82,.17-5.11,1.82-.46,.58-.46,1.26,.06,1.84,.59,.66,1.36,.74,2.06,.28,1.83-1.2,3.31-.9,4.87,.6,1.02,.99,2.39,.47,2.58-.91-.03-.15-.02-.47-.14-.73-.85-1.78-2.4-2.69-4.32-2.9Z"/><path class="cls-3" d="M127.26,63.46c-.64-.9-1.82-1.43-3.15-1.43-1.44,0-2.7,.62-3.29,1.61-.41,.69-.69,1.86,.32,3.55l.06,.1,.1,.07c.88,.59,1.89,.91,2.84,.91h0c1.9,0,3.24-1.24,3.6-3.31l.02-.13-.47-1.3-.04-.06Z"/><path class="cls-3" d="M165.56,53.43c-1.27-.91-2.72-1.15-4.24-1.16-.37,0-.75-.02-1.12,0-1.36,.08-2.72,.41-2.61,2.07,.1,1.6,1.45,1.66,2.72,1.48,1.36-.18,2.66,0,3.95,.47,.81,.29,1.67,.3,2.14-.61,.53-1.01-.07-1.7-.85-2.25Z"/><path class="cls-3" d="M127.21,52.51c-2.3-.49-4.6-.43-6.65,.94-.8,.53-1.34,1.27-.8,2.26,.48,.89,1.34,.87,2.16,.57,1.14-.41,2.29-.65,3.76-.48,.18,.01,.63,.08,1.07,.08,.91-.02,1.61-.4,1.78-1.35,.19-1.05-.37-1.83-1.32-2.03Z"/><path class="cls-3" d="M151.2,88.69c-2.06-.27-4.25-.38-7.13-.38h-1.45c-2.54,.03-5.16,.05-7.72,.38-1.06,.14-1.72,.47-2.01,1.01-.29,.54-.21,1.22,.27,2.15,2.05,3.94,5.41,6.5,9.71,7.39l.17,.04,.18-.04c4.3-.89,7.66-3.45,9.71-7.39,.48-.93,.57-1.62,.27-2.15-.29-.54-.95-.88-2.01-1.01Zm-8.14,6.91c-2.49-.16-4.73-1.61-6.32-4.11,2.23-.22,4.3-.35,6.31-.37,2.02,.02,4.09,.14,6.32,.37-1.59,2.5-3.83,3.95-6.3,4.11Z"/><path class="cls-3" d="M187.36,123.1c-1.55-3.32-1.87-7.11-2.38-10.69-.51-3.57-1.19-7.04-2.83-10.28-1.37-2.72-3.22-5.61-5.99-7.01,.21-.33,.42-.66,.62-.99,.69-1.19,1.32-2.41,1.88-3.66,.57-1.28,1.06-2.59,1.49-3.92,.16-.5,.31-1.01,.45-1.51,1.22-.94,3.25-1.38,5.4-1.86,1.43-.32,2.91-.64,4.23-1.14,5.34-3.26,6.91-9.15,5.7-13.04-.7-2.24-2.27-3.79-4.43-4.49,.79-2.01,1.05-4.19,1.2-6.35,.25-3.68,.2-7.51-.19-11.35-1.62-16.16-9.05-32.67-23.66-40.41-2.49-1.32-5.76-2.85-8.68-2.46-.52,.03-1.04,.1-1.54,.19-.63-.54-1.3-1.02-2.05-1.31-23.41-9.14-48.12,5.13-58.2,26.73-.41,.88-.8,1.78-1.17,2.68-2.19,5.42-3.53,11.19-3.85,17.03-.16,2.98-.06,5.98,.32,8.94,.26,2.03,.27,4.33,1.17,6.22-2.28,.67-3.92,2.25-4.64,4.57-1.22,3.89,.35,9.78,5.7,13.04,1.32,.49,2.8,.82,4.23,1.14,2.15,.48,4.18,.93,5.4,1.86,.07,.06,.11,.4,.14,.49,.05,.17,.1,.34,.15,.51,.1,.34,.21,.67,.32,1.01,.22,.66,.46,1.32,.72,1.97,.51,1.28,1.09,2.54,1.73,3.76,.64,1.21,1.34,2.38,2.11,3.51,.77,1.13,1.6,2.22,2.49,3.25,.9,1.05,1.86,2.05,2.86,3,1.03,.97,2.11,1.89,3.23,2.75,1.16,.89,2.36,1.72,3.6,2.49,1.29,.8,2.61,1.55,3.96,2.24,1.41,.72,2.85,1.38,4.32,1.98,1.53,.63,3.09,1.21,4.67,1.73,1.66,.55,3.33,1.03,5.02,1.47,.36,.09,.73,.15,1.08,.26,.36,.12,.76,.16,1.14,.18,.49,.02,.9-.09,1.35-.23,.48-.14,.96-.25,1.45-.38,.85-.23,1.69-.47,2.53-.72,1.62-.49,3.22-1.03,4.8-1.63,1.51-.57,2.99-1.2,4.45-1.89,1.39-.66,2.76-1.37,4.1-2.14,.42-.24,.84-.51,1.25-.76,.63,1.64,1.22,3.28,1.79,4.94,.36,1.05,.81,2.13,1.22,3.23,1.49,.24,2.68,.89,3.81,2.13,.79,.87,1.51,1.81,2.2,2.76,2.09,1.24,4,2.64,5.8,4.3,4.1,3.78,8.71,6.76,13.32,9.89,2.23,1.51,4.68-1.83,2.83-3.67-2.51-2.51-5.11-5.09-6.63-8.36Zm-28.85-16.5c-1.48,.83-2.99,1.6-4.53,2.29-1.58,.71-3.2,1.36-4.83,1.93-1.07,.38-2.13,.7-3.19,1.08-.62,.22-1.2,.35-1.79,.51-.81,.21-1.58,.1-2.37-.11-1.38-.36-2.75-.78-4.1-1.24-1.65-.56-3.27-1.18-4.86-1.88-1.56-.68-3.08-1.42-4.57-2.24-1.45-.79-2.86-1.65-4.23-2.58-1.33-.9-2.61-1.87-3.84-2.9-1.19-1-2.33-2.07-3.4-3.19-1.04-1.1-2.02-2.25-2.91-3.47-.87-1.19-1.67-2.43-2.38-3.72-.69-1.27-1.29-2.59-1.79-3.95-.49-1.35-.88-2.75-1.15-4.16-.04-.22-.08-.44-.12-.66v-.07s-.08-.04-.08-.04c-1.58-1.01-3.4-1.37-5.17-1.72-1.68-.33-3.27-.65-4.64-1.49-4.18-1.81-5.41-5.53-4.79-8.22,.54-2.36,2.39-3.82,4.82-3.82,.92,0,1.91,.21,2.95,.61,.53,.41,1.12,.77,1.7,1,.88,.35,1.95,.4,2.75-.12,.75-.48,1-1.18,1-2.03,0-2.31,0-4.6,.21-6.9,.21-2.36,.57-4.69,.92-7.03,.1-.69,.33-1.19,1.11-1.39,4.88-1.26,9.26-3.62,13.77-5.69,7.36-3.38,14.27-7.42,20.72-12.2,3.7-2.74,7.01-5.9,10.58-8.96,.22,.31,.34,.43,.4,.57,4.92,10.37,11.25,19.69,21.42,26.14,.6,.38,.91,.91,1,1.58,.6,4.18,.99,8.31,1.22,12.52,.02,.41,.05,.82,.16,1.21,.3,1.06,1.3,1.84,2.37,1.99,.43,.06,.79,.16,1.23,.11,.38-.04,.76-.17,1.13-.29,.19-.06,.37-.14,.55-.21,.02,0,.03,0,.04,0h.05s.04-.02,.04-.02c1.3-.59,2.53-.89,3.65-.89,2.43,0,4.27,1.46,4.82,3.82,.62,2.69-.61,6.41-4.79,8.22-1.38,.84-2.96,1.16-4.64,1.49-1.76,.35-3.59,.71-5.17,1.72l-.07,.04v.07c-.25,1.42-.6,2.82-1.06,4.18-.46,1.37-1.03,2.71-1.7,4-.67,1.31-1.44,2.57-2.29,3.77-.87,1.23-1.82,2.4-2.84,3.52-1.05,1.15-2.17,2.23-3.34,3.24-1.21,1.05-2.47,2.03-3.79,2.95-1.35,.95-2.75,1.82-4.18,2.63Z"/></g></g><g id="_ÉLÉâÉLÉâ"><path class="cls-2" d="M217.39,58.02c.09,.13,4.63,4.47,4.63,4.47l-4.85,5.25-4.82-5.35,5.04-4.36Z"/><path class="cls-3" d="M206.5,62.6v.11c.07,.41,.35,1.37,1.77,1.36h.13c.61,0,1.22,.1,1.87,.22,.27,.05,.53,.1,.8,.14,1.74,.26,2.92,1.32,3.82,3.43,.57,1.33,.71,2.86,.85,4.33l.03,.34c0,.06,0,.12,.01,.18,0,.17,.02,.36,.07,.57,.24,1.03,.94,1.19,1.35,1.2h.03c.75,0,1.28-.51,1.37-1.32,.06-.51,.11-1.02,.15-1.51,.04-.45,.09-.92,.14-1.38,.25-2.16,.93-3.71,2.13-4.85,.6-.57,1.17-.89,1.8-1,.31-.06,.61-.12,.91-.19,.66-.15,1.28-.29,1.91-.29,.08,0,.15,0,.23,0,.03,0,.06,0,.09,0,.32,0,.62-.1,.83-.18,.61-.21,.96-.74,.93-1.38-.03-.56-.37-1-.91-1.21-.41-.16-.8-.16-1.15-.17-.09,0-.16,0-.23,0-2.93-.14-4.63-1-5.68-2.88-.59-1.06-.82-2.28-.99-3.34-.09-.54-.15-1.11-.21-1.66-.03-.31-.07-.61-.1-.9v-.1c-.05-.37-.18-1.5-1.41-1.48h-.05c-1.27,.05-1.34,1.22-1.37,1.6v.11c-.11,1.6-.22,3.26-.76,4.74-.81,2.21-2.05,3.39-3.88,3.69-.26,.04-.52,.09-.77,.15-.59,.12-1.15,.23-1.71,.24h-.21c-1.35,.01-1.68,.85-1.75,1.35l-.02,.11Zm10.58-3.43c.73,1.36,1.7,2.46,2.96,3.33-.69,.5-1.29,1.06-1.82,1.72-.41,.51-.77,1.06-1.08,1.67-.73-1.37-1.7-2.47-2.96-3.34,1.23-.88,2.18-1.99,2.9-3.38Z"/></g></g></g></svg>