<svg id="Layer_2" xmlns="http://www.w3.org/2000/svg" viewBox="0 0 608 243"><defs><style>.cls-3{fill:#fcee21}.cls-5{fill:#333}.cls-6{fill:#c1272d}.cls-7{fill:#0c5faa}</style></defs><g id="PC"><path style="fill:none" d="M0 0h608v243H0z"/><path class="cls-3" d="M494.67 69h-359l-20.5-52h400l-20.5 52z"/><path class="cls-7" d="M495.69 70.5H134.65l-21.68-55h404.41l-21.68 55Zm-359-3h356.96l19.32-49H117.38l19.32 49Z"/><path style="fill:#fff" d="M487.67 61h-359l-20.5-52h400l-20.5 52z"/><path class="cls-7" d="M488.69 62.5H127.65l-21.68-55h404.41l-21.68 55Zm-359-3h356.96l19.32-49H110.38l19.32 49Z"/><path class="cls-7" d="M187.11 44.96q-2.71.51-5.8.97c-2.29.31-3.28.49-4 .63l-.66-2.94c.2.03.31.03.46.03.46 0 1.26-.06 2.46-.14v-8.86c-1.26 0-1.97.03-2.83.14v-2.77c.77.14 1.51.17 2.94.17h20.2c1.46 0 2.17-.03 2.97-.17v2.77c-.91-.12-1.6-.14-3-.14h-9.91v10.46c1.49-.54 2.77-1.2 3.86-2.03-1-1.14-1.57-1.94-2.6-3.63l2.43-1.08h-.74c-.91 0-1.43.03-2.14.11v-2.69c.66.09 1.23.11 2.4.11h4.8c.97 0 1.69-.03 2.14-.11l1.49 1.63c-.2.29-.26.4-.46.83-.94 1.88-2.08 3.6-3.26 4.88 1.29.83 2.86 1.46 5.06 2.03-.57.86-1.03 1.74-1.46 2.8-3.03-1.17-3.83-1.6-5.6-2.97-1.43 1.17-2.57 1.88-4.43 2.77-.37-.91-.86-1.74-1.49-2.4 0 1.17.03 2 .14 2.74h-3.14c.11-.69.17-1.46.17-2.88v-.26Zm12.68-16.2c0 1.11.03 1.8.11 2.48-.66-.06-1.69-.08-2.66-.08h-14.51c-1.29 0-2.06.03-2.94.08.09-.71.11-1.43.11-2.46v-3.86c0-1.06-.03-1.77-.11-2.48.94.08 1.71.11 3.03.11h14.05c1.31 0 2.06-.03 3.03-.11-.09.69-.11 1.37-.11 2.48v3.83Zm-12.68 5.88h-4.74v1.29h4.74v-1.29Zm0 3.37h-4.74v1.37h4.74v-1.37Zm0 3.46h-4.74v1.77c1.4-.14 2.06-.23 4.74-.63v-1.14Zm-4.26-15.57h13.97v-1.14h-13.97v1.14Zm0 3.14h13.97v-1.17h-13.97v1.17Zm10.91 9.31c.77 1.46 1.17 2.08 2.03 3 .89-.91 1.37-1.63 2.11-3h-4.14Zm27.57-6.7c.71 2.57 2.23 5.34 4.11 7.48 2.11 2.4 4.48 4.03 7.88 5.43-.97 1.14-1.37 1.74-2.08 3.29-3.06-1.57-5.03-3.03-7.06-5.23-1.86-1.97-3.26-4.26-4.31-6.91-.86 2.94-2.37 5.4-4.66 7.65-1.94 1.91-4 3.26-6.83 4.49-.49-1.09-1.09-1.97-2-3 2.06-.83 3.2-1.43 4.63-2.43 3.83-2.71 5.74-5.91 6.43-10.77h-6.74c-1.8 0-2.63.06-3.57.2v-3.63c.89.14 1.91.2 3.6.2h7c.06-1.43.08-1.89.08-3.37 0-1.2-.08-2.06-.2-2.86h3.77c-.14 1-.17 1.43-.2 3.34 0 1.17-.03 1.83-.06 2.89h7.57c1.63 0 2.63-.06 3.6-.2v3.63c-1.14-.14-2-.2-3.57-.2h-7.4Z"/><path class="cls-6" d="M242.47 39.33c.17.94.34 1.34.8 1.83.77.8 1.91 1.23 3.29 1.23 2.23 0 3.63-1.11 3.63-2.86 0-1.17-.57-2.08-1.54-2.46-.66-.23-1.54-.37-2.66-.37s-2.4.06-3.51.17v-4.91c.97.11 1.91.17 3.03.17 2.71 0 4.06-.91 4.06-2.74 0-1.54-1.09-2.43-2.97-2.43-2.03 0-3.06.8-3.49 2.63l-6.17-.89c.54-1.77 1-2.63 1.91-3.63 1.74-1.88 4.37-2.86 7.86-2.86 3.11 0 5.68.86 7.31 2.43 1.06 1.06 1.6 2.43 1.6 4.06 0 3.03-1.63 4.91-4.91 5.68 1.74.26 2.68.66 3.68 1.51a5.627 5.627 0 0 1 1.88 4.23c0 1.46-.4 2.8-1.14 3.8-.63.86-1.63 1.66-2.68 2.14-1.49.69-3.8 1.11-5.94 1.11-2.57 0-5.14-.6-6.66-1.6-1.31-.86-2.31-2.11-2.94-3.68-.17-.4-.29-.77-.49-1.51l6.06-1.06Zm20.57 5.12c-.94-.94-1.66-2.03-2.08-3.17-.74-2.03-1.11-4.23-1.11-6.54 0-3 .71-6.11 1.8-7.91 1.74-2.91 4.71-4.51 8.31-4.51 2.77 0 5.2.94 6.94 2.66.94.94 1.66 2.03 2.09 3.17.74 2.03 1.11 4.23 1.11 6.57 0 3-.71 6.14-1.8 7.94-1.71 2.86-4.71 4.46-8.34 4.46-2.8 0-5.17-.91-6.91-2.66Zm2.66-9.94c0 5.11 1.46 7.74 4.29 7.74s4.23-2.57 4.23-7.66-1.49-7.46-4.26-7.46-4.26 2.71-4.26 7.37Zm37.87-11.97c1.34 0 2.29-.03 3.17-.14-.08 1.23-.14 2.29-.14 3.23v18.54c0 1.63.06 2.74.17 3.91h-4.8v-1.43h-11.88v1.43h-4.71c.11-1.17.17-2.49.17-3.91V25.65c0-1.06-.06-2.09-.14-3.26.94.09 1.97.14 3.28.14h14.88Zm-1.6 9.77v-5.54h-11.88v5.54h11.88Zm-11.88 4.08v5.97h11.88v-5.97h-11.88Zm27.17 7.97c0 1.83.06 3 .17 3.83h-4.6c.11-.91.17-1.89.17-3.86V25.45c0-1.6-.03-2.37-.11-3.29.83.09 1.51.11 2.88.11h6c1.54 0 2.17-.03 2.91-.11-.06.86-.09 1.51-.09 2.63v5.2c0 1.54 0 1.83.06 2.48-.63-.03-1.48-.06-2.34-.06h-5.06v11.94Zm0-18.08h3.4v-1h-3.4v1Zm0 3.37h3.4v-1.03h-3.4v1.03Zm14.28 13.57v.71c.26.03.43.03.49.03 1.54 0 1.6-.03 1.6-.66V32.45h-5.31c-.77 0-1.74.03-2.34.06.06-.77.06-1.03.06-2.51v-5.2c0-1.06-.03-1.77-.08-2.63.83.09 1.43.11 2.91.11h6.23c1.4 0 2.06-.03 2.88-.11-.09.97-.11 1.71-.11 3.23V44c0 3.4-.86 4.06-5.2 4.06-.37 0-.46 0-2.14-.06-.17-1.2-.23-1.63-.43-2.46h-6.88v1.2h-4.06c.09-.89.11-1.91.11-3.03v-7.63c0-1-.03-1.74-.09-2.43.77.06 1.46.08 2.49.08h7.48c1.08 0 1.71-.03 2.49-.08-.06.66-.09 1.34-.09 2.43v7.14Zm-8.34-5.06h4.4v-1.14h-4.4v1.14Zm0 4.03h4.4v-1.17h-4.4v1.17Zm6.83-15.91h3.6v-1h-3.6v1Zm0 3.37h3.6v-1.03h-3.6v1.03Z"/><path class="cls-7" d="M347.31 27.17c-1.46.23-2 .31-3.46.49-.37-1.6-.69-2.51-1.31-3.97 2.8-.23 4.94-.57 7.57-1.23 1.86-.46 2.68-.77 3.46-1.23l2.51 3.8q-.14.06-.66.23c-1.11.37-2.57.77-3.8 1.06v2.91h1.77c1.08 0 1.66-.03 2.34-.14v4.2c-.71-.08-1.43-.11-2.43-.11h-1.54c1.51 2.14 2.43 3.06 4.31 4.4-.83 1.4-1.37 2.49-1.94 4.03-1.17-1.11-1.8-1.91-2.6-3.29.06.66.09 1.43.09 2.34v3.86c0 1.83.03 2.6.17 3.74h-4.66c.11-1.17.17-2.06.17-3.74v-3.37q0-1.43.06-2.23c-.89 2.2-1.77 3.6-3.4 5.28-.77-2.08-1.11-2.83-2.06-4.37 1.11-.94 1.8-1.77 2.71-3.17.86-1.34 1.4-2.4 1.77-3.49h-1.29c-1.06 0-1.77.03-2.51.14v-4.23c.77.11 1.43.14 2.6.14h2.11v-2.06Zm13.97-3.54c-.11 1.06-.14 1.88-.14 3.66v10.57c0 1.74.03 2.54.14 3.49h-4.54c.11-.86.14-1.46.14-3.37V27.3c0-1.69-.06-2.63-.14-3.66h4.54Zm6.6-1.86c-.14 1.31-.17 2.4-.17 4.17v18c0 1.86-.46 2.97-1.49 3.48-.8.43-2.4.63-4.94.63-.49 0-.94-.03-1.97-.06-.34-1.77-.63-2.74-1.34-4.43 1.8.17 2.68.23 3.91.23s1.51-.14 1.51-.86V25.94c0-1.34-.06-2.71-.17-4.17h4.66Zm3.79 23.42c1.43-2.03 2.03-3.43 2.69-6.11l3.97 1.46c-.86 3.2-1.51 4.86-2.97 7.34l-3.68-2.69Zm6.43-6.66c-1.51 0-2.31.03-3.11.09.09-.97.11-1.69.11-3.4v-8.34c0-1.6-.03-2.51-.11-3.43.91.09 1.8.11 3.6.11h3.37c.43-.97.6-1.49.86-2.46l4.91.31q-.14.31-.54 1.17-.29.63-.46.97h5.43c1.8 0 2.69-.03 3.6-.11-.09.89-.11 1.77-.11 3.43v8.34c0 1.8.03 2.46.11 3.4-.8-.06-1.66-.09-3.11-.09h-4.57c.57.63 1.31 1.57 2.23 2.77l-1.29.71c1.2.49 2.34.8 3.83 1-.31 2.46-.51 3.23-1.06 3.8-.86.86-2.66 1.2-6.68 1.2-5.17 0-6.14-.49-6.14-3.14V41.4c0-.94-.03-1.31-.14-2.09h4.54c-.08.63-.11 1.06-.11 2.09v2c0 .71.26.83 2.03.83 3.11 0 3.2-.06 3.23-1.91l-1.88 1.06c-.8-1.31-1.74-2.51-2.86-3.69l2.57-1.17h-8.23Zm1.29-10.83h11.97v-1h-11.97v1Zm0 3.86h11.97V30.5h-11.97v1.06Zm0 3.86h11.97v-1.06h-11.97v1.06Zm15.57 12c-.89-2.43-1.86-4.26-3.46-6.68l3.68-1.63c1.83 2.46 2.66 3.83 3.8 6.26l-4.03 2.06Z"/><path class="cls-6" d="M406.95 44.59c-.94-.94-1.66-2.03-2.08-3.17-.74-2.03-1.11-4.23-1.11-6.54 0-3 .71-6.11 1.8-7.91 1.74-2.91 4.71-4.51 8.31-4.51 2.77 0 5.2.94 6.94 2.66.94.94 1.66 2.03 2.09 3.17.74 2.03 1.11 4.23 1.11 6.57 0 3-.71 6.14-1.8 7.94-1.71 2.86-4.71 4.46-8.34 4.46-2.8 0-5.17-.91-6.91-2.66Zm2.66-9.94c0 5.11 1.46 7.74 4.29 7.74s4.23-2.57 4.23-7.66-1.49-7.46-4.26-7.46-4.26 2.71-4.26 7.37Zm25.05 9.83c0 1.89.03 2.86.14 3.6h-4.77c.14-1.11.2-2.2.2-3.74v-19c0-1.31-.03-2.09-.11-2.94 1.06.09 1.88.11 3.74.11h17.31c1.91 0 2.83-.03 3.6-.11-.11.86-.14 1.74-.14 3.6v18.45c0 1.66-.69 2.74-1.97 3.11-.63.2-1.71.29-3.2.29-.77 0-1.94-.03-3.29-.06-.26-1.6-.57-2.63-1.31-4.23 1.88.17 3.17.26 4.03.26 1.11 0 1.34-.11 1.34-.63v-5.28h-15.57v6.57Zm5.48-17.82h-5.48v7.2h5.48v-7.2Zm10.08 7.2v-7.2h-5.77v7.2h5.77Z"/><path class="cls-7" d="M465.46 39.39c.06-.57.06-.83.06-1.29q0-.54-.11-2.23l-.57-9.05c-.06-1.17-.2-2.46-.34-3.86h6.66c-.09.66-.26 2.66-.34 3.86l-.57 9.05c-.06 1.2-.09 1.77-.09 2.2 0 .29 0 .6.03 1.31h-4.71Zm-.51 7.34v-5.4h5.74v5.4h-5.74Z"/><path class="cls-5" d="M154.21 100.89c0-2.03-.1-3.62-.29-5.21h8.06c-.19 1.35-.29 2.99-.29 5.21v11.68h8.54l-5.55-3.23c2.94-4.01 4.44-6.71 6.61-11.92l7.09 3.23c-2.61 5.12-4.34 8.11-7 11.92h2.51c1.79 0 2.51-.05 3.91-.19-.14 1.25-.19 2.46-.19 4.34v18.53c0 2.8.1 4.58.29 6.08h-7.72v-2.17h-26.54c-2.61 0-4.58.1-5.98.29v-7.24c1.45.19 2.94.24 5.65.24h26.98v-3.43h-25.87c-2.46 0-3.72.05-4.97.14v-6.76c1.06.14 2.46.19 4.87.19h25.97v-3.19H143.5c-2.32 0-3.81.05-5.45.19v-7.34c1.83.19 3.23.29 5.45.29h1.21c-2.27-4.68-4.34-8.01-7.19-11.58l6.42-3.57c3.57 4.73 5.55 7.77 7.58 11.87l-6.23 3.28h8.93v-11.68Zm60.61 5.22v-3.19c0-2.75-.05-4.2-.24-5.41h8.69q-.19 1.45-.24 8.59h1.88c3.62 0 4.97-.05 6.95-.34v8.25c-2.32-.19-3.67-.24-6.81-.24h-2.12c-.1 3.81-.15 4.87-.34 6.71-.72 6.52-2.9 10.91-7.14 14.58-2.61 2.27-5.12 3.62-9.99 5.45-1.54-3.19-2.65-4.73-5.26-7.38 4.68-1.4 7.14-2.51 9.31-4.25 3.28-2.61 4.68-5.74 5.07-11.15.05-.87.05-1.21.1-3.96H204.5v5.41c0 2.37.05 3.67.19 4.97h-8.83c.19-1.35.29-2.94.29-5.07v-5.31h-1.79c-3.48 0-4.1 0-6.81.24v-8.25c2.17.29 3.14.34 6.95.34h1.64v-3.52c0-2.27-.05-3.33-.29-5.12h8.83c-.19 1.93-.19 2.08-.19 4.92v3.72h10.33Zm65.93-4.2c-1.06.92-1.11.96-1.88 1.79-3.81 3.91-7.24 6.9-11.15 9.7v18.58c0 3.96.05 5.21.29 7.82h-9.36c.24-2.56.29-3.62.29-7.77v-13.32c-5.02 2.94-8.88 4.68-15.78 7.14-1.3-3.23-2.27-4.83-4.63-7.77 10.47-2.94 17.86-6.56 25.63-12.55 4.15-3.14 7.38-6.42 8.78-8.83l7.82 5.21Zm14.76 37.64c.19-2.17.29-3.57.29-7.38v-28.09c0-3.91-.05-4.39-.34-7h9.32c-.19 1.4-.24 3.81-.24 7.05v6.61c8.2 2.7 14.43 5.55 21.96 10.04l-4.59 8.21c-4.68-3.23-10.38-6.37-15.2-8.4q-1.69-.68-2.17-.96v12.55c0 3.23.1 5.65.29 7.38h-9.31Zm84.79-17.9c-2.8-.29-5.36-.39-8.3-.39h-27.37c-2.94 0-5.45.1-8.35.39v-8.4c2.56.29 4.83.39 8.35.39H372c3.72 0 6.13-.1 8.3-.39v8.4Zm12.25-11.06c-1.11 0-2.17.05-3.43.19v-7.09c1.16.19 2.12.24 3.52.24h1.16v-3.33c0-2.61-.05-3.62-.24-4.97h7.63c-.19 1.35-.24 2.37-.24 4.92v3.38h.87c.82 0 1.11 0 2.12-.15v6.95c-.14-.05-.29-.05-.39-.05-.63-.05-1.11-.1-1.74-.1h-.87v5.12c.92-.29 1.54-.48 2.99-.96v6.95c-1.54.58-1.79.68-2.99 1.06v12.11c0 4.78-1.5 6.08-7.14 6.08-1.11 0-1.88-.05-3.52-.14-.24-2.9-.48-4.3-1.25-6.9 1.59.19 2.46.24 3.33.24 1.16 0 1.45-.29 1.45-1.54v-7.58q-.34.1-2.7.72c-.39.1-.97.29-1.79.58l-.68-7.43c1.11-.05 2.75-.43 5.16-1.06v-7.24h-1.25ZM412 126.61v2.32h-7.14c.14-1.3.19-2.65.19-4.68v-22.01c0-2.46-.05-3.72-.19-5.26 1.4.14 2.85.19 5.26.19h17.33c2.46 0 4.1-.05 5.41-.19-.15 1.5-.19 2.65-.19 5.36v21.04c0 2.03.05 3.52.19 5.31h-7.38v-2.08h-3.19v8.25c0 2.61.1 4.25.29 6.23h-7.77a63 63 0 0 0 .29-6.23v-8.25h-3.09Zm-.1-22.88v4.97h3.18v-4.97h-3.18Zm0 11.15v5.07h3.18v-5.07h-3.18Zm10.38-6.18h3.28v-4.97h-3.28v4.97Zm0 11.25h3.28v-5.07h-3.28v5.07Zm33.73-22.24c-.53 3.04-1.11 15.93-1.11 23.99 0 4.83.19 6.27 1.01 7.58.92 1.45 2.99 2.32 5.65 2.32 4.97 0 8.83-2.94 10.71-8.16.96-2.61 1.5-5.16 1.93-8.74 3.57 2.8 5.16 3.81 8.25 5.07-1.83 7.24-3.43 10.76-6.08 13.71-3.81 4.15-8.83 6.23-15.16 6.23-4.92 0-8.59-1.21-11.2-3.67-2.75-2.65-3.67-5.74-3.67-12.5q0-1.25.24-10.96c.1-4.88.19-9.46.19-11.34 0-1.5-.05-2.27-.24-3.67l9.46.14Z"/><path class="cls-7" d="M97.89 182.06c-.72.1-.87.1-1.83.29-1.88.34-4.92.72-7.29.96v4.25c2.8-.63 4.49-.82 7.05-.82 5.94 0 10.38 1.5 13.18 4.39 2.12 2.17 3.28 5.21 3.28 8.54 0 6.81-5.16 11.92-12.02 11.92-5.98 0-9.46-4.01-9.46-10.96v-1.21c3.52-1.01 4.68-1.5 7.34-2.94-.05 1.01-.1 1.54-.1 2.56 0 1.5.1 2.32.39 3.04.34.87 1.16 1.45 2.12 1.45 2.08 0 3.48-1.69 3.48-4.15 0-1.64-.87-3.23-2.37-4.25-1.3-.82-3.19-1.25-5.74-1.25-2.37 0-4.34.24-7.09.97l.05 8.54v1.25c0 2.94-.19 4.01-.92 5.02-.92 1.35-2.75 2.12-4.92 2.12-3.57 0-7.67-1.5-10.42-3.81-1.98-1.69-3.14-3.96-3.14-6.27 0-2.61 1.59-5.45 4.49-8.01 1.93-1.69 3.96-2.9 7.19-4.3v-5.7l-3.67.1-4.68-.1c-.14 0-.58 0-1.01.05l-.1-7.58c1.54.29 3.52.43 6.61.43h1.83q.68-.05.96-.05V175c0-3.62-.05-4.73-.34-6.52h8.35c-.24 1.74-.29 2.85-.29 6.03v1.54c3.28-.34 6.27-.92 8.83-1.64l.24 7.63Zm-16.75 15.3c-2.27 1.06-4.01 2.94-4.01 4.29 0 .58.34 1.06 1.06 1.54.68.43 1.59.77 2.17.77.63 0 .77-.34.77-1.93v-4.68Zm26.98-10.62c-2.46-4.29-5.21-7.58-9.51-11.34l6.37-4.3c4.1 3.33 7.09 6.71 9.51 10.67l-6.37 4.97Z"/><path d="M134.97 198.73c0-2.22 0-3.26.07-6.39-1.17 1.24-1.89 1.83-3.39 3-1.11-4.37-1.89-6.52-3.65-10.17 5.93-4.04 10.95-9.78 14.21-15.97l7.89 5.74c-2.35 3.39-3.26 4.7-5.48 7.56v26.14c0 3.78.06 5.41.26 7.5h-10.3c.26-1.76.39-3.72.39-6.78v-10.63Zm14.87-38.99c-2.54 3.06-3.59 4.3-5.15 5.8-3.52 3.52-7.3 6.39-11.54 8.8-1.5-3.91-2.67-6-4.83-8.8 6.39-3.26 11.35-7.5 13.69-11.74l7.82 5.93Zm2.8 38.99c-3 0-4.43.07-6.32.2v-8.22c1.7.2 3.46.26 6.45.26h20.02v-2.09h-19.3c-2.93 0-4.69.06-6.32.2v-7.76c1.37.2 2.48.2 6.39.2h29.27c3.39 0 5.02-.06 6.59-.26v7.82c-1.63-.13-3.39-.2-6.32-.2h-.65v2.09h.98c3 0 4.96-.06 6.59-.26v8.28c-1.7-.2-3.13-.26-6.32-.26h-1.24v9.45c0 2.93-.65 4.69-2.15 5.93-1.5 1.17-3.59 1.56-8.02 1.56-.85 0-1.56 0-6.72-.13-.33-2.87-.65-4.5-1.37-6.78l-5.35 4.3c-2.61-4.3-4.89-7.11-8.41-10.56l5.35-3.78h-3.13Zm3.72-19.1c-2.74 0-4.76.06-6 .13.13-2.02.2-3.91.2-6.72v-10.43c0-2.48-.06-4.11-.2-6.13 1.7.2 3.65.26 6.98.26h21.84c3.39 0 5.35-.07 7.04-.26-.2 2.09-.26 3.98-.26 6.78v9.85c0 3 .07 4.76.26 6.65-1.96-.07-3.85-.13-5.87-.13h-23.99Zm3.72-13.95h16.23v-2.15h-16.23v2.15Zm0 7.56h16.23v-2.22h-16.23v2.22Zm.78 25.49c2.41 2.41 4.3 4.63 6.32 7.43 1.24.07 2.15.07 3 .07 2.09 0 2.61-.33 2.61-1.5v-6h-11.93Z" style="stroke:#0c5faa;stroke-miterlimit:10;fill:#0c5faa"/><path d="M131.97 195.73c0-2.22 0-3.26.07-6.39-1.17 1.24-1.89 1.83-3.39 3-1.11-4.37-1.89-6.52-3.65-10.17 5.93-4.04 10.95-9.78 14.21-15.97l7.89 5.74c-2.35 3.39-3.26 4.7-5.48 7.56v26.14c0 3.78.06 5.41.26 7.5h-10.3c.26-1.76.39-3.72.39-6.78v-10.63Zm14.87-38.99c-2.54 3.06-3.59 4.3-5.15 5.8-3.52 3.52-7.3 6.39-11.54 8.8-1.5-3.91-2.67-6-4.83-8.8 6.39-3.26 11.35-7.5 13.69-11.74l7.82 5.93Zm2.8 38.99c-3 0-4.43.07-6.32.2v-8.22c1.7.2 3.46.26 6.45.26h20.02v-2.09h-19.3c-2.93 0-4.69.06-6.32.2v-7.76c1.37.2 2.48.2 6.39.2h29.27c3.39 0 5.02-.06 6.59-.26v7.82c-1.63-.13-3.39-.2-6.32-.2h-.65v2.09h.98c3 0 4.96-.06 6.59-.26v8.28c-1.7-.2-3.13-.26-6.32-.26h-1.24v9.45c0 2.93-.65 4.69-2.15 5.93-1.5 1.17-3.59 1.56-8.02 1.56-.85 0-1.56 0-6.72-.13-.33-2.87-.65-4.5-1.37-6.78l-5.35 4.3c-2.61-4.3-4.89-7.11-8.41-10.56l5.35-3.78h-3.13Zm3.72-19.1c-2.74 0-4.76.06-6 .13.13-2.02.2-3.91.2-6.72v-10.43c0-2.48-.06-4.11-.2-6.13 1.7.2 3.65.26 6.98.26h21.84c3.39 0 5.35-.07 7.04-.26-.2 2.09-.26 3.98-.26 6.78v9.85c0 3 .07 4.76.26 6.65-1.96-.07-3.85-.13-5.87-.13h-23.99Zm3.72-13.95h16.23v-2.15h-16.23v2.15Zm0 7.56h16.23v-2.22h-16.23v2.22Zm.78 25.49c2.41 2.41 4.3 4.63 6.32 7.43 1.24.07 2.15.07 3 .07 2.09 0 2.61-.33 2.61-1.5v-6h-11.93Z" style="stroke:#0c5faa;fill:#fbd747;stroke-miterlimit:10"/><path class="cls-7" d="M219.42 170.89c-.29.87-.34.87-.92 3.86-.24 1.16-.34 1.59-.58 2.7 3.09-.34 5.16-.68 6.71-1.16l.15 7.82q-1.16.1-3.57.39c-1.3.14-3.96.39-5.16.48-1.74 5.7-2.99 9.03-5.26 14-1.01 2.22-1.45 3.09-3.33 6.85q-.63 1.21-.92 1.88l-7.87-4.3c3.43-4.58 6.76-11.44 8.93-18.24h-2.7q-1.11 0-2.22-.05h-1.88v-7.72c1.83.34 4.05.48 7.05.48.53 0 .77 0 1.74-.05q.05-.39.43-2.03c.39-1.64.67-4.01.72-5.74l8.69.82Zm20.75 40.69c-1.79-2.08-3.62-3.62-6.23-5.26-.14 2.27-.72 3.67-2.03 5.02-1.88 1.88-5.26 2.99-9.12 2.99s-7.14-1.16-9.12-3.19c-1.59-1.64-2.41-3.72-2.41-5.99 0-5.6 4.68-9.51 11.39-9.51 1.01 0 1.79.05 3.38.29-.15-1.83-.19-2.75-.19-3.86 0-1.98.1-3.52.29-5.7l7.96.34c-.39 1.69-.53 3.14-.53 5.45 0 1.74.1 3.19.39 5.6 2.94 1.3 5.21 2.61 7.43 4.29.14.1.92.72 2.36 1.88l-3.57 7.63Zm-17.28-9.07c-2.27 0-3.72.97-3.72 2.46 0 1.4 1.35 2.32 3.43 2.32 2.41 0 3.67-1.06 3.67-3.09 0-.34-.05-1.01-.1-1.06-1.3-.48-2.12-.63-3.28-.63Zm17.76-13.56c-4.54-2.85-9.27-5.02-15.01-6.95l4.01-6.66c6.08 2.17 10.04 3.91 14.53 6.52l-3.52 7.09Z"/><path class="cls-5" d="M268.58 178.28c.14-1.88.24-4.68.24-6.18 0-1.01 0-1.4-.14-2.41l9.07.24c-.24 1.11-.24 1.25-.53 5.84q-.05 1.3-.14 2.46h10.52c1.59 0 2.17-.1 3.23-.53l3.76 3.28c-.53.96-.63 1.35-.68 3.57-.34 10.33-1.06 18.39-2.03 21.57-1.4 4.49-3.72 6.03-9.07 6.03-1.88 0-2.61-.05-6.32-.39-.19-3.86-.53-5.45-1.64-8.49 2.41.63 4.78.96 6.27.96 2.32 0 2.9-.77 3.52-4.97.48-3.23.92-9.32.92-13.47h-9.22q-.39 3.19-.72 4.83c-2.12 9.75-6.71 16.02-16.51 22.49-2.17-3.43-3.62-5.07-6.27-7.34 6.42-3.38 10.14-6.81 12.55-11.68 1.21-2.46 1.74-4.2 2.41-8.25h-6.03c-3.23 0-4.25.05-6.52.29l-.05-8.25c2.41.34 3.28.39 6.71.39h6.66ZM315 189.7c1.76.23 3.78.29 7.66.29h17.87c3.74 0 5.16-.06 7.66-.29v6.25c-1.79-.16-3.44-.19-7.7-.19h-17.8c-4.19 0-5.42.03-7.7.19v-6.25Zm47.97 22.85c.19-2.03.24-3.43.29-7.38v-28.09c-.05-4.15-.05-4.39-.34-7h9.31c-.19 1.25-.19 2.03-.24 7.05v6.61c7.63 2.46 15.2 5.89 21.96 10.04l-4.58 8.21c-4.01-2.85-9.6-5.94-15.2-8.4-1.45-.58-1.59-.63-1.74-.72-.14-.05-.24-.1-.43-.24v12.55c0 3.57.1 6.13.29 7.38h-9.32Zm21.82-39.77c1.88 2.12 3.43 4.34 4.78 6.9l-4.58 2.22c-1.59-3.04-2.85-4.83-4.78-7.05l4.58-2.08Zm6.42-2.9c1.79 1.93 3.14 3.76 4.83 6.71l-4.44 2.17c-1.69-3.04-3.04-4.97-4.73-6.9l4.34-1.98Zm25.08 38.33v3.33h-8.78c.29-2.65.39-4.3.39-7.87v-24.81c0-2.08-.05-3.57-.19-5.55 1.69.14 2.65.19 5.84.19h26.01c2.99 0 3.72 0 5.99-.19-.1 1.69-.15 3.43-.15 5.7v24.47c0 3.72.1 6.03.34 7.96H437v-3.23h-20.71ZM437 181.23h-20.71v19.26H437v-19.26Zm20.65 5.4c2.27.34 4.87.43 9.89.43h23.07c4.83 0 6.66-.1 9.89-.43v9.32c-2.32-.24-4.44-.29-9.94-.29h-22.97c-5.41 0-7 .05-9.94.29v-9.32Zm57.23-14.28c6.08 3.57 9.22 5.79 13.27 9.46l-5.7 7.53c-4.2-4.39-8.3-7.58-13.13-10.18l5.55-6.81Zm-5.07 29.97c4.92-.39 9.99-1.59 14.53-3.47 6.08-2.51 10.42-6.13 14.14-11.92 2.03-3.09 3.33-5.74 4.73-9.46 2.36 2.85 3.47 3.81 7.09 6.47-4.39 9.51-8.98 15.2-15.73 19.55-5.21 3.38-9.8 5.16-18.77 7.24-1.88.43-2.17.48-3.47.87l-2.51-9.27Z"/><path class="cls-7" d="M237.67 229h148v3h-148z"/><path class="cls-7" d="m311.67 238-8.66-7h17.32l-8.66 7z"/><path style="stroke-miterlimit:10;stroke:#fff;stroke-width:2px;fill:#0c5faa" d="M117.67 25.59h40v26.67h-40z"/><path style="stroke-miterlimit:10;stroke:#fff;stroke-width:2px;fill:#999" d="M117.67 18.93h40v1.33h-40z"/><path style="stroke-miterlimit:10;stroke:#fff;stroke-width:2px;fill:#fcee21" d="M117.67 20.26h40v9.33h-40z"/><path class="cls-3" d="M130.94 42.9c.08.42.15.59.35.81.34.35.85.54 1.45.54.99 0 1.6-.49 1.6-1.26 0-.52-.25-.92-.68-1.09-.29-.1-.68-.16-1.17-.16s-1.06.03-1.55.08v-2.17c.43.05.85.08 1.34.08 1.2 0 1.79-.4 1.79-1.21 0-.68-.48-1.07-1.31-1.07-.9 0-1.35.35-1.54 1.16l-2.73-.39c.24-.78.44-1.16.85-1.6.77-.83 1.93-1.26 3.47-1.26 1.38 0 2.51.38 3.23 1.07.47.47.71 1.07.71 1.79 0 1.34-.72 2.17-2.17 2.51.77.11 1.19.29 1.63.67.53.48.83 1.14.83 1.87 0 .64-.18 1.24-.5 1.68-.28.38-.72.73-1.19.95-.66.3-1.68.49-2.63.49-1.14 0-2.27-.27-2.94-.71-.58-.38-1.02-.93-1.3-1.63-.08-.18-.13-.34-.21-.67l2.68-.47Zm9.73 2.26c-.42-.42-.73-.9-.92-1.4-.33-.9-.49-1.87-.49-2.89 0-1.33.32-2.7.8-3.5.77-1.29 2.08-2 3.68-2 1.23 0 2.3.42 3.07 1.17.42.42.73.9.92 1.4.33.9.49 1.87.49 2.91 0 1.33-.32 2.72-.8 3.51-.76 1.26-2.08 1.97-3.69 1.97-1.24 0-2.29-.4-3.06-1.17Zm1.17-4.4c0 2.26.64 3.42 1.9 3.42s1.87-1.14 1.87-3.39-.66-3.3-1.88-3.3-1.88 1.2-1.88 3.26Z"/><path class="cls-7" d="M126.67 16.93h4.67v6.67h-4.67zm16.67 0h4.67v6.67h-4.67z"/></g></svg>