<?xml version="1.0" encoding="UTF-8"?><svg id="Layer_2" xmlns="http://www.w3.org/2000/svg" viewBox="0 0 186 193.66"><defs><style>.cls-1{fill:#edf4b0;}.cls-2{fill:#fff;}.cls-3{fill:#bc4e01;}.cls-4{fill:#333;}.cls-5{fill:#33691e;}.cls-6{fill:#878787;}.cls-7{fill:gray;}</style></defs><g id="PC"><g><path class="cls-1" d="m93,0C41.64,0,0,41.64,0,93c0,24.8,9.71,47.34,25.54,64.01-3.19,7.15-16.69,36.14-25.54,35.72,0,0,25.6,6.51,54.79-14.91,11.66,5.26,24.59,8.19,38.21,8.19,51.36,0,93-41.64,93-93S144.36,0,93,0Z"/><g><g><rect class="cls-7" x="85.32" y="138.2" width="14.16" height="16.53"/><path class="cls-7" d="m134.6,157.37c-11.52-3.26-26.24-5.22-42.29-5.22s-30.84,1.97-42.37,5.24l-1.63,2.88,6.54,3.24c9.94-2.09,23.33-3.73,37.46-3.73s29.33,1.76,37.38,3.7l6.55-3.24-1.63-2.88Z"/></g><g><rect class="cls-2" x="22.14" y="40.95" width="139.96" height="98.49" rx="6.7" ry="6.7"/><path class="cls-6" d="m157.65,142.69H27.14c-3.7,0-6.7-3-6.7-6.7V46.17c0-3.7,3-6.7,6.7-6.7h130.51c3.7,0,6.7,3,6.7,6.7v89.82c0,3.7-3,6.7-6.7,6.7Zm-127.1-6.61h123.7c3.7,0,6.7-3,6.7-6.7V49.57c0-3.7-3-6.7-6.7-6.7H30.54c-3.7,0-6.7,3-6.7,6.7v79.81c0,3.7,3,6.7,6.7,6.7Z"/></g></g><g><g><path class="cls-5" d="m65.94,72.09c-13.43,0-23.55-9.38-23.55-21.81,0-14.94,12.18-27.09,27.15-27.09,13.43,0,23.55,9.38,23.55,21.81,0,14.94-12.18,27.09-27.15,27.09Zm2.7-29.33c-3.25,0-5.05,3.75-5.05,6.34,0,3.42,2.44,3.42,3.25,3.42,3.25,0,5.05-3.75,5.05-6.34,0-3.42-2.44-3.42-3.25-3.42Z"/><path class="cls-2" d="m69.53,27.18c11.58,0,19.55,7.75,19.55,17.81,0,12.19-9.95,23.09-23.15,23.09-11.58,0-19.55-7.75-19.55-17.81,0-12.19,9.95-23.09,23.15-23.09m-2.7,29.33c5.51,0,9.05-5.39,9.05-10.34,0-4.16-2.53-7.42-7.25-7.42-5.51,0-9.05,5.39-9.05,10.34,0,4.16,2.53,7.42,7.25,7.42m2.7-37.33c-17.18,0-31.15,13.95-31.15,31.09,0,14.72,11.85,25.81,27.55,25.81,17.18,0,31.15-13.95,31.15-31.09,0-14.72-11.85-25.81-27.55-25.81h0Z"/></g><g><path class="cls-5" d="m115.04,71.3c-1.67,0-3.16-1.04-3.75-2.6l-2.54-6.81-.35.35-1.63,6.1c-.47,1.75-2.05,2.96-3.86,2.96h-13.15c-1.24,0-2.42-.58-3.17-1.57-.76-.99-1.01-2.27-.69-3.47l10.56-39.33c.47-1.75,2.05-2.96,3.86-2.96h13.15c1.25,0,2.42.58,3.18,1.57.5.65.78,1.43.82,2.23l2.34-2.53c.76-.82,1.82-1.28,2.93-1.28h16.01c1.62,0,3.07.97,3.69,2.47.62,1.49.28,3.21-.86,4.36l-16.09,16.14,7.27,18.93c.47,1.23.31,2.61-.44,3.7-.75,1.09-1.98,1.73-3.3,1.73h-13.99Z"/><path class="cls-2" d="m138.76,27.97h0m0,0l-17.92,17.98,8.2,21.35h-13.99l-4.72-12.64-5.51,5.51-1.91,7.14h-13.15l10.56-39.33h13.15l-3.82,14.1,13.09-14.1h16.01m0-8h-16.02c-1.67,0-3.29.52-4.64,1.48-1.34-.95-2.95-1.48-4.64-1.48h-13.15c-3.62,0-6.79,2.43-7.73,5.92l-10.56,39.33c-.65,2.4-.14,4.97,1.38,6.94,1.51,1.97,3.86,3.13,6.35,3.13h13.15c2.39,0,4.58-1.06,6.07-2.79,1.49,1.74,3.69,2.79,6.07,2.79h13.99c2.64,0,5.1-1.3,6.59-3.47,1.49-2.17,1.82-4.94.87-7.4l-6.34-16.51,14.18-14.22c1.49-1.45,2.42-3.48,2.42-5.73,0-4.42-3.58-8-8-8h0Zm0,16h0,0Z"/></g></g><g><path class="cls-3" d="m63.7,98.62c-1.14.13-1.84.33-1.84,1.62v.55h11.57v3.59h-15.49v-3.43c0-1.66,0-5.25,4.27-5.75l5.6-.66c1.27-.15,1.86-.37,1.86-1.84s-.48-2.14-3.72-2.14c-3.65,0-3.78.46-3.83,2.6h-3.85c0-3.68.2-6.19,7.37-6.19,4.55,0,7.92.31,7.92,5.51,0,2.23-.57,3.37-1.33,4.05-1.4,1.23-2.67,1.38-3.22,1.44l-5.32.66Z"/><path class="cls-3" d="m90.26,87.14v10.43h2.63v3.59h-2.63v3.22h-3.92v-3.22h-10v-3.81l8.42-10.22h5.49Zm-3.92,3.08l-5.97,7.35h5.97v-7.35Z"/><path class="cls-4" d="m95.46,90.4h5.7v13.4h-3.21v1.19h-2.49v-14.6Zm2.49,2.61v2.83h1.02v-2.83h-1.02Zm0,5.16v3.07h1.02v-3.07h-1.02Zm5.79,2.6h-2.05v-2.7h5.48v-.92h-5.63v-2.66h3.43v-.97h-2.97v-2.51h2.97v-1.25h2.83v1.25h3.06v2.51h-3.06v.97h3.48v2.66h-1.26v.92h1.13v2.7h-1.13v3.45c0,1.74-1.26,1.78-1.78,1.78h-3.28l-.29-1.71-1.19.53c-.68-1.64-1.26-2.53-1.76-3.21l2.01-.84Zm2.83,2.44c.6,0,.6-.48.6-.72v-1.72h-2.78c.09.12.97,1.42,1.47,2.44h.72Z"/><path class="cls-4" d="m113.39,90.28h7.17v6.73h-4.52v9.01h-2.65v-15.74Zm2.65,1.86v.68h1.93v-.68h-1.93Zm0,2.27v.7h1.93v-.7h-1.93Zm8.79,8.91h.67c.55,0,.55-.27.55-.63v-5.69h-4.61v-6.73h7.29v13.85c0,1.84-1.52,1.9-1.64,1.9h-3.5l-.26-1.54h-6.08v-6.81h7.58v5.65Zm-5.05-3.76v.67h2.49v-.67h-2.49Zm0,2.15v.73h2.49v-.73h-2.49Zm4.27-9.58v.68h2v-.68h-2Zm0,2.27v.7h2v-.7h-2Z"/></g></g></g></svg>