<?xml version="1.0" encoding="UTF-8"?><svg xmlns="http://www.w3.org/2000/svg" viewBox="0 0 186 193.66"><defs><style>.cls-1{fill:#e7e8dd;}.cls-2{fill:#edf4b0;}.cls-3{fill:#fff;}.cls-4{fill:#8fab5b;}.cls-5{fill:#33691e;}.cls-6{fill:#a8ca69;}.cls-7{fill:#55652b;}.cls-8{fill:#fbd2e4;mix-blend-mode:multiply;}.cls-9{isolation:isolate;}</style></defs><g class="cls-9"><g id="Layer_2"><g id="PC"><g><path class="cls-2" d="m93,0C41.64,0,0,41.64,0,93c0,24.8,9.71,47.34,25.54,64.01-3.19,7.15-16.69,36.14-25.54,35.72,0,0,25.6,6.51,54.79-14.91,11.66,5.26,24.59,8.19,38.21,8.19,51.36,0,93-41.64,93-93S144.36,0,93,0Z"/><g><g><g><g><rect class="cls-6" x="29.57" y="39.87" width="105.92" height="14.54"/><rect class="cls-7" x="29.57" y="54.4" width="138.45" height="1.11"/><rect class="cls-4" x="135.49" y="39.87" width="32.54" height="14.54"/><rect class="cls-1" x="66.26" y="39.87" width="32.54" height="14.54"/></g><g><rect class="cls-6" x="22.86" y="55.51" width="105.92" height="14.54"/><rect class="cls-7" x="22.86" y="70.05" width="138.45" height="1.11"/><rect class="cls-4" x="128.78" y="55.51" width="32.54" height="14.54"/><rect class="cls-1" x="59.55" y="55.51" width="32.54" height="14.54"/></g><g><rect class="cls-6" x="29.57" y="71.16" width="105.92" height="14.54"/><rect class="cls-7" x="29.57" y="85.69" width="138.45" height="1.11"/><rect class="cls-4" x="135.49" y="71.16" width="32.54" height="14.54"/><rect class="cls-1" x="66.26" y="71.16" width="32.54" height="14.54"/></g><g><rect class="cls-6" x="29.57" y="86.8" width="105.92" height="14.54"/><rect class="cls-7" x="29.57" y="101.34" width="138.45" height="1.11"/><rect class="cls-4" x="135.49" y="86.8" width="32.54" height="14.54"/><rect class="cls-1" x="66.26" y="86.8" width="32.54" height="14.54"/></g></g><g><g><rect class="cls-6" x="21.72" y="82.85" width="105.91" height="14.54"/><rect class="cls-7" x="21.72" y="97.38" width="138.45" height="1.11"/><rect class="cls-4" x="127.64" y="82.85" width="32.54" height="14.54"/><rect class="cls-1" x="58.41" y="82.85" width="32.54" height="14.54"/></g><g><rect class="cls-6" x="25.65" y="98.49" width="105.92" height="14.54"/><rect class="cls-7" x="25.65" y="113.03" width="138.45" height="1.11"/><rect class="cls-4" x="131.56" y="98.49" width="32.54" height="14.54"/><rect class="cls-1" x="62.34" y="98.49" width="32.54" height="14.54"/></g><g><rect class="cls-6" x="17.8" y="114.14" width="105.92" height="14.54"/><rect class="cls-7" x="17.8" y="128.67" width="138.45" height="1.11"/><rect class="cls-4" x="123.71" y="114.14" width="32.54" height="14.54"/><rect class="cls-1" x="54.49" y="114.14" width="32.54" height="14.54"/></g><g><rect class="cls-6" x="21.72" y="129.78" width="105.91" height="14.54"/><rect class="cls-7" x="21.72" y="144.32" width="138.45" height="1.11"/><rect class="cls-4" x="127.64" y="129.78" width="32.54" height="14.54"/><rect class="cls-1" x="58.41" y="129.78" width="32.54" height="14.54"/></g></g></g><g><path class="cls-3" d="m139.91,146.84c-5.85,0-10.6-4.76-10.6-10.6v-16.74c-3.06-.53-5.79-2.4-7.37-5.14-1.89-3.27-1.89-7.33,0-10.6l14.1-24.41c1.89-3.27,5.41-5.3,9.18-5.3s7.29,2.03,9.18,5.3l14.09,24.41c1.89,3.27,1.89,7.33,0,10.6-1.58,2.74-4.31,4.61-7.38,5.14v16.74c0,5.85-4.76,10.6-10.6,10.6h-10.6Z"/><path class="cls-5" d="m163.89,106.41l-14.09-24.41c-.95-1.64-2.7-2.65-4.59-2.65h0c-1.89,0-3.64,1.01-4.59,2.65l-14.1,24.41c-.95,1.64-.95,3.66,0,5.3.95,1.64,2.7,2.65,4.59,2.65h3.49s0,21.88,0,21.88c0,2.93,2.37,5.3,5.3,5.3h10.6c2.93,0,5.3-2.37,5.3-5.3v-21.88s3.49,0,3.49,0c1.89,0,3.64-1.01,4.59-2.65.95-1.64.95-3.66,0-5.3Z"/><path class="cls-8" d="m158,96.2l-23.39,23.39v16.64c0,2.93,2.37,5.3,5.3,5.3h10.6c2.93,0,5.3-2.37,5.3-5.3v-21.88s3.49,0,3.49,0c1.89,0,3.64-1.01,4.59-2.65.95-1.64.95-3.66,0-5.3l-5.89-10.2Z"/></g></g></g></g></g></g></svg>