<?xml version="1.0" encoding="UTF-8"?><svg id="Layer_2" xmlns="http://www.w3.org/2000/svg" viewBox="0 0 942.5 262"><defs><style>.cls-1{fill:none;}.cls-2{fill:#004227;}.cls-3{fill:#edf4b0;}.cls-4{fill:#bc4e01;}</style></defs><g id="PC"><g><polygon class="cls-3" points="678 94.5 193 94.5 199 74 684 74 678 94.5"/><rect class="cls-1" width="942.5" height="262"/><g><path class="cls-2" d="m180.17,80.22c3.01-.19,5.76-.32,10.75-.96v-14.91h-9.85v-8.83h9.85v-2.88h-5.44v-2.82c-1.73,1.28-2.37,1.73-3.52,2.5l-2.43-10.88c3.46-2.05,8.06-5.63,11.65-11.65h9.41c1.41,2.37,3.71,6.27,9.22,9.86v-8.45h29.95v30.72h-9.54c.06,1.47.13,2.75,1.02,5.38,3.2-2.56,4.03-3.52,5.25-4.86l5.76,7.94c-1.02.96-2.94,2.75-6.72,5.12,2.94,3.9,5.12,5.38,6.98,6.72l-6.78,8.83c-1.98-1.54-6.72-5.18-9.79-11.78v7.55c-8.51,2.11-17.28,3.33-19.58,3.65l-.51-4.03c-8.7,1.6-15.74,2.82-24.38,3.71l-1.28-9.92Zm7.17-14.72c.77,2.43,1.98,6.78,2.5,11.07l-6.91,2.05c-.26-3.26-1.34-8.51-2.24-11.2l6.66-1.92Zm12.61-21.76c-1.41-1.73-2.5-3.26-3.97-5.63-.9,1.54-1.86,3.26-4.03,5.63h8Zm8,35.97c.9-.13,1.28-.13,1.86-.19v-38.59l-4.48,7.68c-.19-.13-.32-.26-.51-.38v4.42h-5.57v2.88h8.64v8.83h-8.64v13.82c1.41-.19,7.42-1.15,8.64-1.34l.06,2.88Zm.06-12.99c-.38,3.52-1.02,6.33-1.92,9.41l-5.57-1.22c1.28-4.35,1.6-6.78,1.66-9.15l5.82.96Zm11.2-26.62v3.01h10.62v-3.01h-10.62Zm0,10.17v3.26h10.62v-3.26h-10.62Zm0,11.65v16.19c1.86-.38,3.97-.77,5.76-1.15-1.54-4.22-2.62-8.77-3.2-15.04h-2.56Z"/><path class="cls-2" d="m269.32,49.63c-2.82,4.74-4.61,7.23-5.5,8.45v32.38h-10.62v-20.99c-1.6,1.22-2.37,1.79-3.58,2.69l-2.75-13.38c5.95-3.71,11.78-10.37,14.59-15.23l8.83,4.35-.64,1.09h39.23v10.11h-8.26v24.06c0,2.37,0,7.3-6.59,7.3h-14.21l-1.73-10.62h9.6c1.6,0,1.92-.64,1.92-2.05v-18.69h-20.29v-9.47Zm-1.86-17.47c-2.75,5.5-8.32,13.12-16.06,18.11l-4.42-10.69c4.74-2.88,8.45-7.1,10.69-10.56l9.79,3.14Zm39.23-.45v9.98h-34.94v-9.98h34.94Z"/><path class="cls-2" d="m369.99,42.59v10.3c0,6.91-.51,21.69-2.69,27.71-2.62,7.23-8.96,7.55-12.03,7.55-1.28,0-4.8-.06-12.1-.96l-.7-11.26c2.43.45,5.95,1.09,9.66,1.09,3.97,0,4.86-.77,5.5-3.97.38-1.92,1.15-15.04,1.15-16.83v-3.07h-12.54c-3.84,23.29-18.69,32.64-22.97,35.39l-7.74-8.64c10.88-6.02,16.7-13.5,19.45-26.75h-16.38v-10.56h17.54c.32-5.12.32-8.26.32-10.75l11.65.13c-.19,3.14-.32,6.27-.64,10.62h22.53Z"/><path class="cls-2" d="m438.73,54.3v11.65h-56.44v-11.65h56.44Z"/><path class="cls-2" d="m465.8,31.9v14.91c8.83,2.88,21.05,7.74,30.4,13.25l-6.02,11.84c-6.34-4.29-16-9.6-24.38-12.74v29.05h-12.16V31.9h12.16Zm15.68,14.59c-1.47-3.46-3.26-6.59-5.38-9.79l5.38-2.43c.96,1.41,3.71,5.31,5.5,9.28l-5.5,2.94Zm8.58-4.16c-1.66-3.39-4.03-6.91-5.5-8.96l5.5-2.5c1.47,1.79,3.78,4.93,5.57,8.51l-5.57,2.94Z"/><path class="cls-2" d="m558.86,35.61v49.79h-51.58v-49.79h51.58Zm-11.71,10.56h-28.41v28.67h28.41v-28.67Z"/><path class="cls-2" d="m628.49,54.3v11.65h-56.44v-11.65h56.44Z"/><path class="cls-2" d="m659.85,54.17c-6.85-4.61-14.01-7.87-20.42-10.05l4.93-9.54c8.58,2.56,15.68,5.89,21.44,9.34l-5.95,10.24Zm-19.52,21.63c24.7-2.11,37.76-10.75,44.92-36.92l10.43,5.31c-10.11,35.58-32.38,40.64-51.58,43.64l-3.78-12.03Z"/><path d="m729.48,79.19c11.46-.51,22.14-3.78,22.14-19.45,0-7.23-2.62-16.25-15.1-17.21-.64,7.68-1.86,22.21-7.17,31.17-1.09,1.86-5.18,8.58-12.54,8.58-8.64,0-12.99-9.66-12.99-18.94,0-16.77,12.16-28.73,30.21-28.73,16.58,0,26.81,9.54,26.81,25.6,0,18.94-11.9,26.05-28.67,27.2l-2.69-8.19Zm-17.28-15.17c0,8.06,3.58,9.54,5.12,9.54,4.74,0,9.22-10.69,10.69-30.65-12.16,2.75-15.81,12.48-15.81,21.12Z"/><path class="cls-4" d="m303.57,167.92c-.11,11.77.54,16.89,22.67,16.89,16.13,0,18.31-5.99,18.31-12.64,0-9.26-4.14-12.53-14.93-12.53h-13.41v-12.32h13.3c5.89,0,13.73,0,13.73-10.79,0-7.41-2.83-11.88-16.89-11.88-20.27,0-20.49,4.8-21.04,14.39h-15.15c.65-24.09,11.77-28.12,36.08-28.12,15.59,0,32.15,3.27,32.15,23.65,0,14.39-7.96,17.11-11.55,18.31,3.38,1.2,12.86,4.69,12.86,20.27,0,22.45-17.44,25.4-34.12,25.4-32.81,0-37.28-10.35-37.28-30.63h15.26Z"/><path class="cls-4" d="m383.81,178.12c21.05.13,38.01-1.15,38.01-17.53,0-5.76-2.62-12.93-13.63-12.93-8.9,0-28.16,4.74-32.51,5.82l-1.73-9.28c.45-.06,16.06-2.62,17.92-2.94,5.18-.83,11.33-1.79,17.02-1.79,13.44,0,22.21,8.45,22.21,21.18,0,19.07-16.51,22.65-21.5,23.74-6.53,1.41-14.14,1.92-24,1.92l-1.79-8.19Z"/><path d="m467.2,180.42c11.46-.51,22.14-3.78,22.14-19.45,0-7.23-2.62-16.25-15.1-17.21-.64,7.68-1.86,22.21-7.17,31.17-1.09,1.86-5.18,8.58-12.54,8.58-8.64,0-12.99-9.66-12.99-18.94,0-16.77,12.16-28.73,30.21-28.73,16.58,0,26.81,9.54,26.81,25.6,0,18.94-11.9,26.05-28.67,27.2l-2.69-8.19Zm-17.28-15.17c0,8.06,3.58,9.54,5.12,9.54,4.74,0,9.21-10.69,10.69-30.65-12.16,2.75-15.81,12.48-15.81,21.12Z"/><path d="m506.56,168.84c1.66-.32,4.61-.9,11.58-2.88v-14.91h-3.26c-.51,3.97-1.28,7.93-2.43,11.13l-6.08-4.16c1.34-4.35,2.56-9.41,2.75-22.72l6.59.38c0,2.3,0,4.67-.19,7.87h2.62v-12.42h7.55v12.42h4.86v7.49h-4.86v12.61c3.07-1.02,3.58-1.22,4.86-1.73l.38,7.74c-1.28.51-2.18.96-5.25,1.98v19.9h-7.55v-17.41c-3.52,1.09-7.74,2.43-10.37,2.94l-1.22-8.26Zm32.7,1.6h-7.36v-7.42h21.89v-5.5h-22.21v-7.36h13.63v-6.33h-11.71v-7.36h11.71v-5.31h8v5.31h12.22v7.36h-12.22v6.33h14.21v7.36h-5.7v5.5h5.12v7.42h-5.12v12.86c0,6.53-.83,8.26-7.1,8.26h-9.41l-1.34-7.94h7.87c2.05,0,2.05-1.15,2.05-2.69v-10.5h-14.4c2.94,2.62,6.08,6.59,7.81,9.47l-6.97,4.54c-3.46-5.82-6.34-8.51-7.74-9.86l6.78-4.16Z"/><path d="m588.48,133c-2.37,5.7-6.66,11.39-12.29,15.74l-3.14-8.19c2.94-2.05,6.08-5.7,8.32-9.79l7.1,2.24Zm20.67,52.16c-9.66,1.79-17.6,2.5-20.35,2.75l-.51-8.06c1.34-.06,6.91-.51,9.02-.7v-6.66h-7.87v-6.53h7.87v-4.8h-8.51v-6.72h20.93l-.64-.77c.83-.96,1.54-1.79,2.62-3.46h-21.95c-1.22,2.94-2.3,5.12-3.65,7.36v34.04h-7.36v-24c-1.66,1.73-2.43,2.43-3.65,3.46l-1.98-10.18c5.25-4.29,8.77-11.13,10.82-15.61l4.8,2.62v-13.7h5.95v9.41h3.46v-12.74h6.14v12.74h3.46v-9.41h5.82v12.74c.83-1.6,3.97-7.74,4.99-16.19l7.3.77c-.38,2.3-.96,5.44-2.11,9.54h10.82v7.74h-1.54c-.19,4.61-.9,16.7-5.25,25.6,2.88,4.48,5.76,7.1,7.42,8.58l-3.9,8.32c-2.37-2.43-5.06-5.25-7.81-9.6-3.97,5.38-7.55,8.26-9.79,9.98l-4.54-6.53Zm3.78-26.43v2.43h-8.51v4.8h8.13v6.53h-8.13v5.89c4.54-.51,6.66-.83,9.41-1.28v4.03c2.94-2.69,4.61-4.93,5.89-6.78-.77-1.98-2.3-6.02-3.78-16.45-1.02,1.41-1.09,1.47-1.86,2.3l-1.15-1.47Zm8.19-9.92c.19,4.16.64,10.62,2.69,17.15,2.18-7.04,2.43-13.69,2.56-17.15h-5.25Z"/></g><polygon class="cls-2" points="465.36 238.63 441.91 224.29 167.91 224.29 133.97 190.35 136.8 187.52 169.56 220.29 443.03 220.29 465.36 233.94 487.69 220.29 761.16 220.29 793.92 187.52 796.75 190.35 762.81 224.29 488.81 224.29 465.36 238.63"/></g></g></svg>