<?xml version="1.0" encoding="UTF-8"?><svg id="Layer_2" xmlns="http://www.w3.org/2000/svg" viewBox="0 0 575 71"><defs><style>.cls-1{fill:#f2fbee;}.cls-2{fill:#004227;}.cls-3{fill:#fff;}.cls-4{fill:#bc4e01;}</style></defs><g id="PC"><g><rect class="cls-2" width="71" height="71"/><g><path class="cls-3" d="M23.95,41.1c-.03,3.97,.41,4.28,6.9,4.28,2.76,0,5.56,0,5.56-3.11,0-2.93-2.21-2.93-3.73-2.93h-5.38v-4.9h5.38c1.48,0,3.31,0,3.31-2.62,0-2.76-2.07-2.8-6.07-2.8-5.45,0-5.45,1.28-5.45,3.62h-6.14c.14-7.66,2.69-9.32,12.01-9.32,5.49,0,7.97,.52,9.7,2.14,1.55,1.45,2.11,3.66,2.11,5.49,0,.9,0,4.38-3.28,5.63,1.21,.45,3.8,1.48,3.8,6.35,0,7.25-5.35,8.15-11.91,8.15-11.49,0-13.01-2.35-13.01-9.98h6.21Z"/><path class="cls-3" d="M52.73,44.45v6.35h-6.28v-6.35h6.28Z"/></g><path class="cls-1" d="M553.04,0H71V30.03c-3.91,.26-7,3.5-7,7.47s3.09,7.22,7,7.47v26.03h504V21.96c0-12.13-9.83-21.96-21.96-21.96Z"/><g><path class="cls-4" d="M115.31,51.2h-6.34v-9.34c-2.54,1.34-5.66,2.78-10.64,4.37l-3.08-5.57c10.14-2.57,15.8-6.13,21.07-10.85l-18.31,.14v-5.78h10.64v-4.02h6.34v4.02h9.28v5.25c-2.94,3.14-5.66,5.74-8.96,8.35v13.42Zm10.43-4.37c-2.69-2.25-6.81-4.86-10.14-6.45l4.09-4.33c3.26,1.34,7.24,3.59,9.46,5.25l-3.4,5.53Z"/><path class="cls-4" d="M135.64,38.44c-.36-1.9-1.11-5.21-2.87-9.09l4.91-1.3c1.54,2.85,2.47,6.1,3.19,9.16l-5.23,1.23Zm.25,8.53c12.01-2.96,15.41-6.48,18.13-19.87l6.13,1.44c-1.9,7.96-4.69,19.41-21.29,23.29l-2.97-4.86Zm8.21-9.97c-.82-4.33-1.61-6.66-2.58-9.02l4.91-.95c1.76,3.45,2.47,7.4,2.72,8.84l-5.05,1.13Z"/><path class="cls-4" d="M174.49,20.19v8.21c5.48,1.66,12.04,4.37,17.02,7.29l-3.37,6.48c-3.3-2.33-9.6-5.85-13.65-7.26v16.28h-6.81V20.19h6.81Z"/><path class="cls-2" d="M218.94,31.28c-.86-.05-1.69-.11-2.77-.11-1.48,0-1.88,.13-2.5,.32-5.1,1.64-10.04,5.91-10.04,10.45,0,3.3,2.71,4.96,7.3,5.54,2.42,.32,4.32,.26,5.51,.24l-.38,2.53c-5.67-.11-8.81-.79-11.39-2.16-2.15-1.16-3.54-3.56-3.54-5.91,0-4.8,3.97-8.55,8.24-10.9-5.29,.24-7.84,.45-13.51,.9l-.13-2.45c2.23,0,14.42-.66,17.13-.71,.75-.03,5.48-.13,6.02-.16l.05,2.43Zm-4.59,7.86c-.27-.53-1.1-2.24-2.34-3.85l1.61-.84c1.32,1.58,1.99,2.88,2.42,3.75l-1.69,.95Zm3.22-1.53c-.94-1.66-1.32-2.35-2.34-3.61l1.67-.84c.67,.82,1.85,2.4,2.36,3.51l-1.69,.95Z"/><path class="cls-2" d="M222.78,38.28h25.38v3.69h-7.57v5.12c0,.53,.21,.63,.64,.63h2.47c.35,0,.48-.24,.56-.5,.13-.45,.19-2.64,.19-3.22l3.84,1.05c-.13,4.12-.21,6.28-2.9,6.28h-6.36c-1.02,0-2.5-.16-2.5-2.16v-7.2h-3.06c-.38,5.62-3.87,8.47-9.18,9.81l-1.88-3.9c6.55-1.19,7.09-4.22,7.2-5.91h-6.82v-3.69Zm4.11-2.61h-3.46v-7.26h9.91v-1.82h4.14v1.82h9.99v7.26h-3.46v1.21h-17.11v-1.21Zm16.52-2.35v-1.37h-15.95v1.37h15.95Z"/><path class="cls-2" d="M254.11,42.34c-.03,.71-.05,5.12-.94,7.92l-2.71-1.71c.97-2.98,.97-5.94,.97-6.54l2.69,.34Zm-3.3-4.7h1.64c.4-.5,.78-.95,1.24-1.56-1.15-1.48-1.53-1.87-3.17-3.17l1.64-3.35c.4,.29,.54,.4,.75,.58,.21-.42,.97-1.85,1.56-3.54l3.38,.58c-.97,2.06-2.39,4.27-2.85,4.93,.24,.29,.43,.5,.86,1,1.13-1.61,1.83-2.93,2.47-4.14l3.17,1.19c-1.56,2.59-4.19,5.96-5.42,7.36,.35-.03,2.01-.11,2.39-.13-.19-.82-.32-1.16-.51-1.69l2.55-.79c.78,1.56,1.53,4.49,1.77,5.51l-3.03,1.03c-.11-.69-.11-.74-.19-1.11l-1.05,.13v11.05h-3.2v-10.66c-1.75,.21-2.87,.26-3.79,.29l-.21-3.54Zm10.26,4.25c.38,1.53,.7,3.83,.75,6.07l-2.71,.45c.08-1.66-.24-4.96-.46-6.09l2.42-.42Zm5.88-15.28h3.97v2.45h5.32v3.59h-5.32v2.43h4.73v3.56h-13.35v-3.56h4.65v-2.43h-5.37v-3.59h5.37v-2.45Zm8.59,13.59v11.34h-3.87v-.98h-5.4v.98h-3.81v-11.34h13.08Zm-9.26,3.48v3.43h5.4v-3.43h-5.4Z"/><path class="cls-2" d="M286.81,28.33l-.64,14.54h-3.68l-.56-14.54h4.89Zm-.19,16.36v4.43h-4.51v-4.43h4.51Z"/></g></g></g></svg>