<?xml version="1.0" encoding="UTF-8"?><svg id="Layer_2" xmlns="http://www.w3.org/2000/svg" viewBox="0 0 765 71"><defs><style>.cls-1{fill:#004227;}.cls-2{fill:#edf4b0;}.cls-3{fill:#fff;}.cls-4{fill:#bc4e01;}</style></defs><g id="PC"><g><rect class="cls-1" width="71" height="71"/><g><path class="cls-3" d="m26.96,41.72c-1.79.21-2.9.52-2.9,2.55v.86h18.26v5.66h-24.44v-5.42c0-2.62,0-8.28,6.73-9.08l8.84-1.04c2-.24,2.93-.59,2.93-2.9s-.76-3.38-5.87-3.38c-5.76,0-5.97.72-6.04,4.11h-6.07c0-5.8.31-9.77,11.63-9.77,7.18,0,12.49.48,12.49,8.7,0,3.52-.9,5.32-2.11,6.39-2.21,1.93-4.21,2.17-5.07,2.28l-8.39,1.04Z"/><path class="cls-3" d="m52.73,44.45v6.35h-6.28v-6.35h6.28Z"/></g><path class="cls-2" d="m743.04,0H71v30.03c-3.91.26-7,3.5-7,7.47s3.09,7.22,7,7.47v26.03h694V21.96c0-12.13-9.83-21.96-21.96-21.96Z"/><g><path class="cls-4" d="m98.97,25.02v27.34h-5.52V19.71h13.37v5.43c-.9,3.38-1.04,3.84-2.26,6.84,1.54,2.29,2.62,4.05,2.62,7.79,0,5.95-3.4,5.95-5.34,5.95h-1.68l-1.15-5.53h.9c1.15,0,1.47-.35,1.47-1.76,0-2.18-.72-4.02-2.26-5.6,1.18-3.21,1.68-5.5,2.11-7.79h-2.26Zm6.31,21.39c.75-.04,1.11-.07,2.69-.28v-26.42h17.74v17.16h-.68l2.29,4.3c-1.33,1.09-2.11,1.62-3.58,2.5,1.25,1.48,2.33,2.4,3.58,3.38l-3.62,5.43c-1.18-.92-3.73-2.96-5.91-7.61l.43,4.93c-3.37.95-8.82,2.01-12.19,2.32l-.75-5.71Zm8.35-21.63v1.76h6.42v-1.76h-6.42Zm0,5.6v1.87h6.42v-1.87h-6.42Zm0,6.48v8.45c.5-.11,3.73-.63,4.05-.7-1.72-3.56-2.19-6.52-2.4-7.75h-1.65Zm6.77,0c.18.67.32,1.23.86,2.54,1.15-.88,2.04-1.59,2.9-2.54h-3.76Z"/><path class="cls-4" d="m161.8,42.61c-.93.95-1.93,2.01-4.19,3.63,3.08.49,5.41.6,7.02.7l-2.04,5.5c-6.7-.78-9.71-1.94-11.83-2.78-5.09,1.83-9.53,2.36-11.93,2.61l-1.83-5c-.61,2.54-1.33,3.98-1.94,5.18l-5.3-4.19c.86-1.66,2.65-5.28,2.65-12.37v-15.15h12.65v-2.04h5.98v2.04h13.4v5.07h-4.34v1.48h4.37v4.37h-4.37v5.18h-18.56v-5.18h-3.3v4.47c0,5.78-.82,9.3-1.22,10.99,2.44-.18,5.09-.35,7.49-.88-1.11-.74-1.93-1.37-2.65-1.94l1.36-1.69h-4.09v-4.72h22.65v4.72Zm-23.72-16.81v1.48h3.33v-1.48h-3.33Zm9.07,0v1.48h7.24v-1.48h-7.24Zm0,5.85v1.45h7.24v-1.45h-7.24Zm.11,10.96c1.58.99,2.69,1.44,3.3,1.66,1.79-.81,2.15-1.09,2.9-1.66h-6.2Z"/><path class="cls-4" d="m167.33,37.64c1.15-.25,3.08-.7,5.88-1.94-.36-.42-.61-.74-1.36-1.69-.36.28-.68.49-1.79,1.23l-2.69-4.44c.72-.25,2.26-.78,4.19-2.68h-2.87v-7.29h5.52v-1.97h5.77v1.97h5.52v-1.16h16.41v5.25h-5.91c-.14.46-.29.92-.54,1.44h5.55v18.67h-3.91c1.83,1.23,3.44,1.76,5.55,2.33l-2.44,5.21c-1.61-.67-4.34-1.94-6.99-4.51l3.01-3.03h-6.02l2.76,3.03c-1.43,1.44-3.37,3.03-7.2,4.47l-1.68-2.89v1.51h-9.21v1.2h-5.38v-9.76l-2.19-4.97Zm12.69,3.56c-1.72-.99-2.47-1.55-3.12-2.01-1.47.99-2.62,1.59-3.4,2.01h6.52Zm.57-13.7v-2.18h-6.56v.67l4.23.28c-.29.67-.39.85-.61,1.23h2.94Zm-5.7,17.55v2.01h3.98v-2.01h-3.98Zm.18-13.6c.47.49,1.04,1.13,2.01,1.94,1.04-.88,1.4-1.34,1.83-1.94h-3.83Zm9.43.04c-.5.88-1.43,2.47-3.51,4.44,2.08,1.06,3.62,1.48,4.87,1.83v-11.38h4.12c.14-.25.39-.85.5-1.34h-4.95v3.1h-1.04v3.35Zm-.39,16.21c2.51-.63,4.23-1.76,5.38-2.64h-3.62v-6.66l-1.76,3.77v5.53Zm7.2-17.55v1.62h3.98v-1.62h-3.98Zm0,4.72v1.66h3.98v-1.66h-3.98Zm0,4.76v1.62h3.98v-1.62h-3.98Z"/><path class="cls-1" d="m214.69,27.64c-.13,1.13-.32,2.4-.7,4.78l3.09-.03c4.08-.03,5.56,2.11,5.56,6.78,0,2.45-.51,7.81-2.07,9.34-1.15,1.11-2.47,1.42-3.73,1.42-1.56,0-3.44-.47-4.57-.76l.19-2.3c1.32.4,2.93.84,4.03.84s2.15-.32,2.63-1.35c.86-1.87,1.1-6.09,1.1-7.57,0-2.69-.54-4.33-3.3-4.27l-3.33.05c-1.64,8.79-3.89,12.82-5.21,15.17l-2.26-.95c1.61-2.51,3.25-5.28,5.08-14.17l-4.94.08-.03-2.24,5.37-.05c.48-2.88.51-4.04.51-4.83l2.58.05Zm10.47,4.12c-.94-2.51-1.58-3.51-1.96-4.09l1.75-.55c.83,1.13,1.61,2.72,2.07,4.01l-1.85.63Zm2.12,10.66c-.35-6.15-2.42-8.26-3.2-9.05l2.23-.92c1.8,2.06,3.12,4.35,3.63,9.68l-2.66.29Zm1.37-11.29c-.4-1.19-1.26-2.93-1.99-4.04l1.75-.55c.99,1.48,1.5,2.64,2.04,3.98l-1.8.61Z"/><path class="cls-1" d="m243.64,26.37h4.14v1.32h10.77v3.22h-25.46v-3.22h10.55v-1.32Zm8.3,21.34h.97c.32,0,.54-.11.54-.61v-5.43h-15.36v9.79h-4.06v-12.66h23.42v9.97c0,.55,0,2.69-2.47,2.69h-4.06l-.43-2.16h-10.8v-6.65h12.25v5.07Zm2.9-16.04v6.2h-18.15v-6.2h18.15Zm-14.18,2.37v1.29h10.18v-1.29h-10.18Zm2.85,11.11v1.48h4.62v-1.48h-4.62Z"/><path class="cls-1" d="m267.29,28.8c-.46,2.72-.78,5.33-.78,8.07,0,2.4.19,8.21,2.34,8.21,1.37,0,2.55-2.77,3.3-4.93l3.49,2c-.81,2.32-2.9,7.78-7.06,7.78-5.67,0-6.31-9.05-6.31-13.46,0-2.72.3-5.96.48-8.07l4.54.4Zm14.07,18.52c.03-.53.05-1.08.05-1.9,0-9-3.01-12.82-4.73-14.25l3.44-2.24c2.42,2.4,6.07,6.07,5.88,18.12l-4.65.26Z"/><path class="cls-1" d="m297.18,28.19l-.64,14.54h-3.68l-.56-14.54h4.89Zm-.19,16.36v4.43h-4.51v-4.43h4.51Z"/></g></g></g></svg>