<?xml version="1.0" encoding="UTF-8"?><svg id="Layer_2" xmlns="http://www.w3.org/2000/svg" viewBox="0 0 575 71"><defs><style>.cls-1{fill:#f2fbee;}.cls-2{fill:#004227;}.cls-3{fill:#fff;}.cls-4{fill:#bc4e01;}</style></defs><g id="PC"><g><rect class="cls-2" width="71" height="71"/><g><path class="cls-3" d="M34.41,23.6v27.2h-6.25V29.26h-5.59v-5.66h11.84Z"/><path class="cls-3" d="M52.73,44.45v6.35h-6.28v-6.35h6.28Z"/></g><path class="cls-1" d="M553.04,0H71V30.03c-3.91,.26-7,3.5-7,7.47s3.09,7.22,7,7.47v26.03h504V21.96c0-12.13-9.83-21.96-21.96-21.96Z"/><g><path class="cls-4" d="M98.1,38.73c-.68,.74-.93,1.02-1.51,1.59l-1.29-8.77c3.69-4.62,4.41-10.43,4.59-11.77l5.7,.39c-.25,1.62-.72,4.4-1.93,8.31v24.98h-5.55v-14.73Zm32.36,8.53c-.72,2.4-2.54,6.2-5.41,6.2-2.65,0-4.12-2.11-5.38-5.92-1.07-3.31-1.79-8.14-2.08-11.7h-5.63v4.69c.79-.11,4.48-.6,5.02-.7l.32,5.07c-4.01,.81-8.1,1.2-12.18,1.44l-.61-5.25c.65-.04,1-.04,1.86-.07V21.37c4.66,.11,14.51-.32,20.43-1.62l2.65,5.25c-1.15,.25-2.8,.67-6.67,.95,0,1.09,0,2.25,.14,4.33h7.06v5.57h-6.7c.18,1.94,.9,9.76,2.51,9.76,.29,0,.54-.39,.9-1.2,.21-.49,.68-1.69,1.33-3.59l2.44,6.45Zm-11.72,5.64h-13.51v-5.28h13.51v5.28Zm-6.77-22.62h5.27c-.11-2.4-.11-3.49-.11-4.09-.47,.04-4.05,.14-5.16,.18v3.91Z"/><path class="cls-4" d="M165.44,33.77c-1.58-.7-3.12-1.37-4.55-2.15v2.15h-7.38v1.9h12.79v5.53h-8.78l5.91,1.59c-.25,.7-.65,1.73-1.76,4.23h5.41v5.53h-33.08v-5.53h5.34c-.61-1.94-1.29-3.35-1.65-4.19l5.77-1.62h-8.57v-5.53h12.76v-1.9h-7.24v-2.18c-2.37,1.13-3.37,1.51-4.52,2.01l-2.76-5.92c4.66-1.37,10.68-3.95,14.41-7.93h6.34c3.51,3.1,7.7,5.81,14.33,7.93l-2.8,6.1Zm-17.78,7.43h-4.16c1.22,2.5,1.86,5.07,2.08,5.81h2.08v-5.81Zm3.05-16.91c-1,1.09-2.22,2.33-4.87,4.19h9.89c-2.26-1.55-3.91-3.14-5.02-4.19Zm2.8,16.91v5.81h2.08c.75-1.9,1.36-3.98,1.83-5.81h-3.91Z"/><path class="cls-4" d="M177.63,26.12c-1.36,.04-4.41,.14-5.59,.18l-.68-5.32c5.05,0,11.54-.21,16.13-1.41l1.61,5.25c-1.51,.35-2.58,.56-5.77,.88v3.1h5.38v5.39h-4.87c2.51,4.76,4.05,6.24,5.16,7.33l-3.01,4.9c-.79-1.09-1.51-2.04-2.65-4.33v11.38h-5.7v-10.96c-1.72,3.21-3.76,5.5-4.98,6.84l-1.97-7.29c3.87-3.07,6.27-7.54,6.42-7.86h-5.91v-5.39h6.45v-2.68Zm18.35-3.63v22.76h-5.98V22.49h5.98Zm8.21-2.68v29.35c0,3.24-.82,4.3-4.77,4.3h-6.7l-1.04-6.17h5.55c1,0,1.04-.28,1.04-.95V19.81h5.91Z"/><path class="cls-2" d="M232.55,32.24c-.86-.05-1.69-.11-2.77-.11-1.48,0-1.88,.13-2.5,.32-5.1,1.64-10.04,5.91-10.04,10.45,0,3.3,2.71,4.96,7.3,5.54,2.42,.32,4.32,.26,5.51,.24l-.38,2.53c-5.67-.11-8.81-.79-11.39-2.16-2.15-1.16-3.54-3.56-3.54-5.91,0-4.8,3.97-8.55,8.24-10.9-5.29,.24-7.84,.45-13.51,.9l-.13-2.45c2.23,0,14.42-.66,17.13-.71,.75-.03,5.48-.13,6.02-.16l.05,2.43Zm-4.59,7.86c-.27-.53-1.1-2.24-2.34-3.85l1.61-.84c1.32,1.58,1.99,2.88,2.42,3.75l-1.69,.95Zm3.22-1.53c-.94-1.66-1.32-2.35-2.34-3.61l1.67-.84c.67,.82,1.85,2.4,2.36,3.51l-1.69,.95Z"/><path class="cls-2" d="M241.24,31.93c-2.79,.16-3.49,.16-4.4,.18l-.48-3.64c3.54,0,7.52-.21,12.11-1.16l1.15,3.56c-.99,.24-1.69,.4-4.43,.71v2.69h4.16v3.69h-3.95c1.13,2.08,2.39,3.88,4.03,5.46l-2.04,3.38c-.43-.55-1.32-1.71-2.2-3.59v9.37h-3.95v-9.05c-1.26,2.53-2.42,3.98-3.95,5.65l-1.42-4.88c2.98-2.43,4.81-5.99,5-6.33h-4.65v-3.69h5.02v-2.35Zm13.24-2.45v17.15h-4V29.47h4Zm6.39-2.01v22.06c0,.61,0,3.06-2.79,3.06h-5.45l-.75-4.22h4.14c.7,0,.81-.16,.81-.69V27.47h4.06Z"/><path class="cls-2" d="M284.63,44.91h-5.02v7.44h-3.79v-7.44h-4.94c-.67,4.99-2.39,6.94-3.12,7.7l-3.36-3.01c.56-.76,1.48-1.93,2.01-3.67,.64-2.03,.75-4.2,.75-4.59v-12.85h21.56v21.37c0,2.51-2.04,2.72-2.79,2.72h-3.95l-.64-4.06h2.58c.59,0,.7-.16,.7-.74v-2.88Zm-13.51-12.69v2.82h4.7v-2.82h-4.7Zm0,6.31v2.85h4.7v-2.85h-4.7Zm8.49-6.31v2.82h5.02v-2.82h-5.02Zm0,6.31v2.85h5.02v-2.85h-5.02Z"/><path class="cls-2" d="M317.2,33.51c-.62-.03-1.56-.08-2.55-.08-1.53,0-2.55,.05-4.16,.79-2.52,1.13-7.17,4.38-7.17,8.42,0,3.75,4.54,4.06,6.58,4.2,2.77,.16,3.71,.13,4.83,.08l-.51,4.54c-6.2,0-8.81-.53-11.17-1.61-2.47-1.13-4.43-3.51-4.43-6.57,0-3.98,2.71-7.28,6.1-9.52-1.75,.16-9.51,.84-11.06,1l-.24-4.51c14.53-.74,16.14-.82,23.2-1.03,.03,0,.4,0,.48-.03l.11,4.33Zm-5.69,8.15c-.48-1-1.48-2.85-2.44-4.12l2.34-1.19c.97,1.19,1.88,2.69,2.47,3.93l-2.36,1.37Zm3.71-1.95c-.27-.55-1.32-2.51-2.47-3.88l2.34-1.19c.83,.95,1.83,2.4,2.44,3.69l-2.31,1.37Z"/><path class="cls-2" d="M335.54,28.21c.08,1.24,.13,2.03,.24,2.88,2.6-.21,3.76-.29,6.31-.87l.48,3.61c-2.42,.5-2.82,.53-6.26,.79,.16,.95,.27,1.43,.54,2.3,3.97-.21,6.02-.69,7.25-.98l.62,3.53c-3.2,.69-5.85,.84-6.47,.87,.89,1.64,1.53,2.35,2.18,3.03l-3.81,2.27c-.75-.82-1.91-2.08-3.14-5.14-.19,.03-.24,.03-.54,.03h-11.23v-3.48h10.74c-.11-.53-.13-.71-.38-2.24h-9.4v-3.56h8.89c-.3-1.82-.32-2.03-.4-2.74l4.38-.29Zm-5.64,14.98c-.59,.5-1.72,1.43-1.72,2.59,0,1.79,2.9,1.93,6.5,1.93,3.92,0,6.1-.21,7.14-.34l.16,4.06c-.94,.08-2.42,.18-5.45,.18-5.13,0-6.85-.21-8.03-.5-4.22-1.06-4.7-3.77-4.7-4.67,0-2.48,1.96-4.19,2.85-4.99l3.25,1.74Z"/><path class="cls-2" d="M367.25,28.84v3.3c-4.05,3.38-4.3,3.59-5.16,4.27,.43-.13,.97-.32,2.39-.32,5.48,0,7.98,3.98,7.98,7.52,0,4.35-3.36,8.02-11.09,8.02-6.96,0-7.09-4.25-7.09-4.8,0-2.77,2.74-4.33,5.32-4.33,3.22,0,4.83,2.19,4.83,4.35,0,.32-.03,.53-.08,.9,2.28-.69,3.57-1.95,3.57-3.96,0-1.61-1.02-4.17-5.56-4.17-4.3,0-6.47,2.01-11.41,6.97l-2.66-3.48c2.2-1.63,3.22-2.51,12.43-10.37l-9.43,.18v-4.09h15.95Zm-5.93,18.78c0-.18-.05-2.01-1.93-2.01-1.02,0-1.72,.5-1.72,1.29,0,1.34,1.93,1.42,2.55,1.42,.35,0,.62-.03,1.02-.11,.05-.24,.08-.37,.08-.61Z"/><path class="cls-2" d="M384,29.29l-.64,14.54h-3.68l-.56-14.54h4.89Zm-.19,16.36v4.43h-4.51v-4.43h4.51Z"/></g></g></g></svg>