<svg width="14" height="14" viewBox="0 0 14 14" fill="none" xmlns="http://www.w3.org/2000/svg">
<path d="M14 7C14 10.8658 10.8658 14 7 14C3.13425 14 0 10.8658 0 7C0 3.13425 3.13425 0 7 0C10.8658 0 14 3.13425 14 7Z" fill="#F9D30D"/>
<path fill-rule="evenodd" clip-rule="evenodd" d="M4.83 3.8185C3.98475 4.6935 3.143 5.56675 2.28725 6.45401C2.3345 6.4575 2.3555 6.45925 2.38175 6.45925C2.51475 6.45925 2.6495 6.45925 2.7825 6.45925C2.95575 6.45925 3.0765 6.58001 3.08175 6.75151C3.08175 6.77601 3.08175 6.8005 3.08175 6.825V9.70726C3.08175 9.77726 3.11616 9.81226 3.185 9.81226H10.8727C10.9392 9.81226 10.9731 9.77959 10.9742 9.71426C10.9742 9.51651 10.9725 9.32051 10.9742 9.12101C10.9742 8.91801 11.0705 8.80426 11.27 8.76926C11.7127 8.68876 12.012 8.40701 12.0942 7.98876C12.1957 7.47601 11.8265 6.94575 11.3102 6.8705C11.235 6.86 11.2105 6.83725 11.2105 6.7585C11.2122 6.4855 11.2105 6.21075 11.1177 5.95C10.9497 5.4775 10.6242 5.16425 10.143 5.02075C10.073 4.99975 10.0555 4.97 10.0537 4.90175C10.0467 4.606 9.98375 4.326 9.7965 4.088C9.44125 3.6435 8.79725 3.549 8.3335 3.878C8.23725 3.94625 8.141 3.983 8.02725 3.9375C7.9205 3.8955 7.8575 3.81675 7.84175 3.703C7.826 3.58575 7.87325 3.493 7.96425 3.423C8.1445 3.28825 8.34575 3.19725 8.56275 3.143C9.51125 2.9155 10.4527 3.5525 10.598 4.5185C10.6032 4.54825 10.6312 4.585 10.6575 4.599C11.284 4.9315 11.6515 5.44775 11.7617 6.14775C11.7687 6.1985 11.781 6.251 11.7757 6.30175C11.7617 6.39625 11.8125 6.43475 11.8877 6.47675C12.4197 6.78825 12.698 7.25551 12.6752 7.86976C12.6525 8.51726 12.32 8.97226 11.732 9.24001C11.7215 9.24526 11.7092 9.25051 11.6987 9.25401C11.5996 9.29484 11.55 9.36951 11.55 9.47801C11.55 9.67751 11.55 9.87701 11.55 10.0783C11.55 10.269 11.424 10.3933 11.2332 10.3933C8.435 10.3933 5.635 10.3933 2.83675 10.3933C2.772 10.3933 2.702 10.374 2.6425 10.3443C2.55325 10.2988 2.50775 10.2148 2.50425 10.1115C2.50425 10.052 2.50425 9.99426 2.50425 9.93476V7.13476C2.50425 7.0385 2.50425 7.03675 2.40625 7.03675C2.15075 7.03675 1.89525 7.03675 1.638 7.03675C1.5015 7.03675 1.40525 6.97725 1.3475 6.8565C1.29675 6.74625 1.32475 6.622 1.41925 6.52225C2.47625 5.425 3.535 4.32775 4.592 3.23225C4.74775 3.07125 4.90525 3.06775 5.06625 3.227C5.37775 3.52975 5.68925 3.8325 5.999 4.13525C6.12675 4.2595 6.1355 4.43975 6.02 4.5605C5.908 4.676 5.72075 4.676 5.59475 4.55525C5.355 4.326 5.117 4.09675 4.87725 3.86575C4.865 3.8535 4.851 3.843 4.83 3.82375V3.8185Z" fill="#2C296E"/>
<path fill-rule="evenodd" clip-rule="evenodd" d="M5.48973 6.32278C5.38123 6.45053 5.27623 6.57653 5.16773 6.70778C5.04873 6.57653 4.93673 6.45228 4.81248 6.31578C4.80898 6.35428 4.80373 6.37528 4.80373 6.39453C4.80373 6.53278 4.80198 6.67103 4.79848 6.81103C4.79323 7.02978 4.64623 7.18028 4.43798 7.17853C4.23323 7.17853 4.08798 7.01928 4.08798 6.80228C4.08798 6.36303 4.08798 5.92553 4.08798 5.48628C4.08798 5.31828 4.17548 5.18178 4.31723 5.12928C4.47123 5.06978 4.62173 5.10828 4.73898 5.23778C4.87548 5.39003 5.01198 5.54053 5.17473 5.71903C5.19223 5.68578 5.20273 5.65778 5.22198 5.63678C5.33398 5.50553 5.44948 5.37603 5.56323 5.24653C5.67698 5.11528 5.83448 5.06978 5.98323 5.12578C6.13373 5.18178 6.22123 5.31478 6.22123 5.49153V6.81453C6.22123 7.02278 6.07423 7.17678 5.87473 7.17853C5.66823 7.17853 5.52123 7.03503 5.51598 6.81978C5.51073 6.65878 5.50723 6.49778 5.50198 6.33853C5.50198 6.33678 5.49848 6.33503 5.48798 6.32278H5.48973Z" fill="#2C296E"/>
<path fill-rule="evenodd" clip-rule="evenodd" d="M7.65449 7.35176C8.24599 7.35351 8.72374 7.84177 8.71849 8.44202C8.71324 9.04402 8.23199 9.52177 7.63174 9.51827C7.04724 9.51477 6.57299 9.02477 6.57474 8.42627C6.57649 7.82777 7.05774 7.34826 7.65274 7.35176H7.65449ZM8.06924 8.43677C8.06924 8.19702 7.88199 8.01151 7.64399 8.01151C7.40599 8.01151 7.22224 8.20226 7.22049 8.43327C7.21699 8.66252 7.41649 8.86202 7.64924 8.86027C7.88024 8.85852 8.06924 8.66952 8.07099 8.43677H8.06924Z" fill="#2C296E"/>
<path fill-rule="evenodd" clip-rule="evenodd" d="M8.14975 6.56248C8.14975 6.65173 8.15325 6.73923 8.14975 6.82848C8.141 7.00173 8.03425 7.13298 7.87325 7.17148C7.72275 7.20648 7.55825 7.13648 7.48825 6.99823C7.46025 6.94398 7.44275 6.87748 7.44275 6.81623C7.43925 6.36998 7.43925 5.92373 7.441 5.47923C7.441 5.30598 7.53725 5.17123 7.693 5.12398C7.847 5.07673 7.9975 5.13448 8.099 5.27973C8.19875 5.42498 8.30025 5.57023 8.41575 5.73473C8.41925 5.69623 8.42275 5.67698 8.42275 5.65948C8.42625 5.57373 8.42275 5.48798 8.435 5.40398C8.46125 5.21673 8.62575 5.08898 8.806 5.10298C8.995 5.11873 9.135 5.26573 9.13675 5.45648C9.1385 5.88173 9.13675 6.30523 9.13675 6.73048C9.13675 6.78123 9.14025 6.83373 9.12975 6.88273C9.09825 7.03673 9.0055 7.13298 8.8515 7.16448C8.69925 7.19423 8.57675 7.13998 8.48925 7.01748C8.39475 6.88448 8.3055 6.74798 8.21275 6.61323C8.2005 6.59398 8.18475 6.57648 8.17075 6.55898C8.16375 6.55898 8.1585 6.56248 8.1515 6.56423L8.14975 6.56248Z" fill="#2C296E"/>
<path fill-rule="evenodd" clip-rule="evenodd" d="M8.87601 8.36499C8.87601 8.12524 8.87601 7.88374 8.87601 7.64224C8.87601 7.48124 8.96001 7.40074 9.12101 7.40074C9.34676 7.40074 9.57076 7.39899 9.79476 7.40074C10.1273 7.40424 10.409 7.62124 10.4843 7.92749C10.5875 8.35449 10.2883 8.73599 9.83501 8.75524C9.77201 8.75874 9.70901 8.75874 9.64601 8.75524C9.60401 8.75349 9.59001 8.76749 9.59001 8.80949C9.59001 8.90749 9.59001 9.00549 9.59001 9.10174C9.59001 9.31349 9.44301 9.47099 9.24176 9.47449C9.03526 9.47624 8.88126 9.32574 8.87951 9.10874C8.87601 8.86024 8.87951 8.61174 8.87951 8.36149L8.87601 8.36499ZM9.59001 8.24074C9.60751 8.24424 9.61451 8.24774 9.62501 8.24774C9.68276 8.24774 9.74226 8.25124 9.80001 8.24774C9.88751 8.24249 9.95401 8.16899 9.95226 8.08324C9.95226 8.00099 9.88751 7.92924 9.80176 7.92399C9.74576 7.91874 9.68976 7.91874 9.63376 7.92399C9.61976 7.92399 9.59351 7.94499 9.59176 7.95724C9.59001 8.05174 9.59176 8.14449 9.59176 8.24074H9.59001Z" fill="#2C296E"/>
<path fill-rule="evenodd" clip-rule="evenodd" d="M4.51324 9.52526C4.24724 9.52351 4.04249 9.44126 3.87449 9.27151C3.76774 9.16126 3.74849 9.01251 3.82549 8.89176C3.90249 8.77276 4.04074 8.72376 4.18424 8.77626C4.24549 8.79901 4.30149 8.83576 4.36099 8.86376C4.40474 8.88476 4.45374 8.91976 4.48699 8.85676C4.51674 8.79726 4.46249 8.76926 4.42224 8.74476C4.34874 8.69926 4.26824 8.66076 4.19649 8.61176C3.97249 8.46301 3.82724 8.26876 3.83949 7.98351C3.85174 7.65801 4.06349 7.40776 4.38549 7.35701C4.65674 7.31326 4.89124 7.39201 5.08199 7.58976C5.17124 7.68251 5.18874 7.81026 5.12749 7.91176C5.06099 8.02201 4.94024 8.06751 4.81249 8.02376C4.74949 8.00276 4.69349 7.96951 4.63399 7.93801C4.59374 7.91701 4.54824 7.89951 4.52024 7.94676C4.49049 7.99401 4.52024 8.03251 4.56224 8.05526C4.62874 8.09551 4.69874 8.13051 4.76699 8.16901C4.96124 8.27751 5.10999 8.42451 5.16949 8.64501C5.28674 9.09301 4.95249 9.52351 4.51674 9.52351L4.51324 9.52526Z" fill="#2C296E"/>
<path fill-rule="evenodd" clip-rule="evenodd" d="M5.64724 8.61873C5.64724 8.44023 5.64374 8.26348 5.64724 8.08498C5.64724 8.02548 5.62799 8.00623 5.57024 8.01148C5.44949 8.02198 5.34974 7.98348 5.27799 7.88373C5.20974 7.78573 5.20099 7.67898 5.25349 7.57223C5.30599 7.46373 5.39524 7.40073 5.51424 7.40073C5.81349 7.39548 6.11274 7.39548 6.41374 7.40073C6.58174 7.40248 6.70949 7.54423 6.70599 7.71048C6.70424 7.87498 6.57824 8.00798 6.41024 8.00973C6.34199 8.00973 6.32449 8.03248 6.32624 8.09723C6.32799 8.44373 6.32624 8.79023 6.32624 9.13673C6.32624 9.30298 6.20899 9.44298 6.05499 9.47098C5.88174 9.50073 5.72249 9.40973 5.66824 9.24698C5.65249 9.20323 5.65249 9.15598 5.65074 9.11048C5.64899 8.94773 5.65074 8.78498 5.65074 8.62048H5.64899L5.64724 8.61873Z" fill="#2C296E"/>
<path fill-rule="evenodd" clip-rule="evenodd" d="M10.1115 6.14252C10.1115 6.36827 10.115 6.59577 10.1115 6.82152C10.108 6.99127 9.989 7.13652 9.8315 7.17152C9.667 7.21002 9.492 7.13477 9.42025 6.98427C9.39225 6.92652 9.3765 6.85827 9.3765 6.79527C9.373 6.35952 9.373 5.92377 9.37475 5.48802C9.37475 5.26402 9.53575 5.09952 9.74574 5.10127C9.95399 5.10127 10.1115 5.26752 10.1132 5.49152C10.1132 5.60002 10.1132 5.71027 10.1132 5.82052V6.14252H10.1115Z" fill="#2C296E"/>
<path fill-rule="evenodd" clip-rule="evenodd" d="M7.20123 6.14427C7.20123 6.36827 7.20298 6.59227 7.20123 6.81627C7.20123 6.98602 7.09448 7.11902 6.93348 7.16802C6.78123 7.21352 6.61148 7.15752 6.52748 7.01402C6.49248 6.95452 6.46798 6.87752 6.46623 6.80752C6.46098 6.36652 6.46273 5.92552 6.46623 5.48627C6.46623 5.26227 6.62898 5.09952 6.83723 5.10127C7.04898 5.10127 7.20123 5.26752 7.20298 5.49327V6.14427H7.20123Z" fill="#2C296E"/>
</svg>
