<svg width="14" height="14" viewBox="0 0 14 14" fill="none" xmlns="http://www.w3.org/2000/svg">
<path d="M7 14C10.866 14 14 10.866 14 7C14 3.13401 10.866 0 7 0C3.13401 0 0 3.13401 0 7C0 10.866 3.13401 14 7 14Z" fill="#D0271F"/>
<path d="M5.78724 4.91049C5.79774 4.91399 5.80999 4.91574 5.82224 4.91749C5.95524 4.93499 6.08824 4.95599 6.22124 4.98224C6.46624 5.02774 6.70774 5.09074 6.93699 5.18874C7.02799 5.22724 7.11024 5.28149 7.19774 5.32524C7.32899 5.38824 7.43399 5.48624 7.51974 5.60524C7.53724 5.62974 7.54599 5.65774 7.55124 5.68749C7.56524 5.76449 7.55999 5.83624 7.53199 5.90974C7.51274 5.95874 7.49699 6.00949 7.47949 6.05849C7.37974 6.34549 7.26074 6.62549 7.14699 6.90724C7.03849 7.17149 6.91599 7.43049 6.80749 7.69474C6.74799 7.83999 6.68324 7.98349 6.61674 8.12699C6.54674 8.27574 6.48724 8.42799 6.48374 8.59774C6.48199 8.72024 6.52574 8.81299 6.63249 8.87774C6.66749 8.89874 6.69724 8.90224 6.73574 8.88824C6.94224 8.80774 7.12949 8.69224 7.30274 8.55749C7.50924 8.39824 7.67899 8.20224 7.82774 7.99049C7.91699 7.86274 7.99049 7.72449 8.06574 7.58799C8.12524 7.47949 8.17424 7.36574 8.20749 7.24499C8.26874 7.02974 8.29499 6.80924 8.29499 6.57999C8.30199 6.53624 8.29149 6.48549 8.28799 6.43649C8.27749 6.30174 8.25649 6.16874 8.22849 6.03574C8.18299 5.83449 8.10424 5.64899 7.99399 5.47399C7.85749 5.26049 7.68949 5.08024 7.47074 4.94724C7.21524 4.79324 6.93874 4.71274 6.64299 4.70924C6.50124 4.70749 6.35949 4.72324 6.21949 4.74249C6.09174 4.75999 5.96924 4.79324 5.84849 4.84224C5.82574 4.85099 5.80124 4.86149 5.78199 4.87549C5.76274 4.88774 5.76799 4.90349 5.78899 4.90874L5.78724 4.91049Z" fill="white"/>
<path fill-rule="evenodd" clip-rule="evenodd" d="M6.29651 4.50803C6.44351 4.50103 6.59576 4.51678 6.74801 4.53953C6.84426 4.55353 6.94226 4.57278 7.03501 4.60428C7.15226 4.64278 7.27126 4.67428 7.38501 4.72678C7.55826 4.80553 7.70876 4.91403 7.84526 5.04353C7.96601 5.15728 8.06051 5.29028 8.15676 5.42328C8.18301 5.46003 8.20051 5.50378 8.21801 5.54578C8.27751 5.67878 8.33176 5.81178 8.37376 5.95003C8.39476 6.02178 8.40701 6.09703 8.41926 6.17053C8.43501 6.26678 8.44201 6.36478 8.44726 6.46278C8.45951 6.68328 8.45076 6.90028 8.40351 7.11728C8.37551 7.24678 8.33176 7.37278 8.27926 7.49353C8.21276 7.64753 8.13751 7.79453 8.04476 7.93628C7.93451 8.10428 7.81901 8.26878 7.67901 8.41403C7.51101 8.58903 7.32551 8.73778 7.11726 8.86378C7.00876 8.92853 6.89851 8.98803 6.77951 9.03178C6.49776 9.13503 6.21076 9.15778 5.92551 9.04928C5.72776 8.97228 5.61576 8.83753 5.61926 8.59428C5.62276 8.40353 5.68751 8.23028 5.76801 8.06228C5.84676 7.89778 5.91851 7.72803 5.99026 7.56003C6.09351 7.31853 6.19676 7.07528 6.29826 6.83203C6.39451 6.59928 6.48901 6.36653 6.57476 6.12853C6.61151 6.02528 6.65876 5.92553 6.68501 5.81878C6.70601 5.73828 6.67976 5.67353 6.62551 5.61928C6.60451 5.59653 6.57826 5.57553 6.55376 5.55628C6.41901 5.44428 6.26326 5.36378 6.09701 5.30778C5.99376 5.27278 5.88701 5.24128 5.77851 5.22378C5.66301 5.20628 5.54751 5.19228 5.43026 5.19053C5.34276 5.18878 5.25701 5.19053 5.16951 5.19053C5.02426 5.19053 4.88951 5.26928 4.83351 5.42503C4.75301 5.64378 4.65676 5.85728 4.56401 6.07253C4.56051 6.08128 4.55701 6.09003 4.55176 6.09703C4.53251 6.12678 4.51676 6.13028 4.49401 6.10228C4.46426 6.06728 4.44501 6.02528 4.42401 5.98503C4.37851 5.89403 4.35401 5.79603 4.34001 5.69628C4.33301 5.64728 4.32251 5.59828 4.32076 5.54753C4.31901 5.42853 4.35926 5.32178 4.41526 5.22203C4.52201 5.03128 4.68826 4.90528 4.87376 4.79853C5.04876 4.69878 5.24126 4.64453 5.43551 4.59553C5.61751 4.54828 5.80476 4.52728 5.99201 4.51678C6.09001 4.51153 6.18801 4.50278 6.29301 4.50978L6.29651 4.50803ZM8.29676 6.57828C8.30376 6.53453 8.29326 6.48378 8.28976 6.43478C8.27926 6.30003 8.25826 6.16703 8.23026 6.03403C8.18476 5.83278 8.10601 5.64728 7.99576 5.47228C7.85926 5.25878 7.69126 5.07853 7.47251 4.94553C7.21701 4.79153 6.94051 4.71103 6.64476 4.70753C6.50301 4.70578 6.36126 4.72153 6.22126 4.74078C6.09351 4.75828 5.97101 4.79153 5.85026 4.84053C5.82751 4.84928 5.80301 4.85978 5.78376 4.87378C5.76451 4.88603 5.76976 4.90178 5.79076 4.90703C5.80126 4.91053 5.81351 4.91228 5.82576 4.91403C5.95876 4.93153 6.09176 4.95253 6.22476 4.97878C6.46976 5.02428 6.71126 5.08728 6.94051 5.18528C7.03151 5.22378 7.11376 5.27803 7.20126 5.32178C7.33251 5.38478 7.43751 5.48278 7.52326 5.60178C7.54076 5.62628 7.54951 5.65428 7.55476 5.68403C7.56876 5.76103 7.56351 5.83278 7.53551 5.90628C7.51626 5.95528 7.50051 6.00603 7.48301 6.05503C7.38326 6.34203 7.26426 6.62203 7.15051 6.90378C7.04201 7.16803 6.91951 7.42703 6.81101 7.69128C6.75151 7.83653 6.68676 7.98003 6.62026 8.12353C6.55026 8.27228 6.49076 8.42453 6.48726 8.59428C6.48551 8.71678 6.52926 8.80953 6.63601 8.87428C6.67101 8.89528 6.70076 8.89878 6.73926 8.88478C6.94576 8.80428 7.13301 8.68878 7.30626 8.55403C7.51276 8.39478 7.68251 8.19878 7.83126 7.98703C7.92051 7.85928 7.99401 7.72103 8.06926 7.58453C8.12876 7.47603 8.17776 7.36228 8.21101 7.24153C8.27226 7.02628 8.29851 6.80578 8.29851 6.57653L8.29676 6.57828Z" fill="#3B2215"/>
<path fill-rule="evenodd" clip-rule="evenodd" d="M5.79951 11.256C5.61226 11.2595 5.42501 11.2507 5.23777 11.2332C4.96652 11.2087 4.69877 11.1632 4.44327 11.0617C4.41177 11.0495 4.37852 11.039 4.34702 11.025C4.11427 10.9322 3.88852 10.8237 3.68027 10.6802C3.58227 10.6137 3.49302 10.5332 3.40902 10.4492C3.36177 10.402 3.32677 10.3407 3.28652 10.2847C3.23052 10.2077 3.19377 10.122 3.16052 10.0345C3.11677 9.92598 3.11502 9.81223 3.12202 9.69673C3.13077 9.54448 3.19027 9.40798 3.24452 9.26973C3.36527 8.96523 3.48427 8.66073 3.61377 8.36148C3.66452 8.24423 3.70827 8.12348 3.75902 8.00623C3.77127 7.97648 3.76602 7.96248 3.74327 7.94323C3.69077 7.89948 3.63652 7.85573 3.59277 7.80498C3.47902 7.67373 3.34427 7.56348 3.25502 7.41123C3.22702 7.36398 3.19027 7.32373 3.16052 7.27648C3.06252 7.11898 2.97852 6.95448 2.92077 6.77773C2.87702 6.64473 2.82977 6.51348 2.80527 6.37523C2.78602 6.25798 2.76152 6.14248 2.75277 6.02348C2.74752 5.94298 2.73702 5.86423 2.73177 5.78373C2.72652 5.68748 2.73177 5.59123 2.74227 5.49673C2.76677 5.25173 2.82277 5.01548 2.91727 4.78623C2.96977 4.65848 3.01527 4.53073 3.08527 4.40998C3.21477 4.18598 3.36352 3.97598 3.54902 3.79398C3.67852 3.66623 3.81502 3.54898 3.96202 3.44223C4.07052 3.36173 4.18602 3.28998 4.30677 3.23048C4.46077 3.15348 4.61477 3.07998 4.77926 3.02223C4.88951 2.98373 5.00151 2.94873 5.11351 2.92073C5.25701 2.88398 5.40051 2.84198 5.54926 2.81923C5.71376 2.79473 5.88002 2.78073 6.04802 2.77023C6.21427 2.75973 6.37701 2.76498 6.54326 2.76498C6.65351 2.76498 6.76201 2.77898 6.87226 2.78423C7.07876 2.79648 7.28351 2.81748 7.48651 2.85248C7.64576 2.88048 7.79976 2.92073 7.95376 2.96623C8.08501 3.00648 8.21451 3.05198 8.34226 3.10448C8.47876 3.16048 8.60301 3.23748 8.73076 3.30923C8.93376 3.42123 9.12451 3.55248 9.30651 3.69423C9.47801 3.82723 9.63026 3.98473 9.77201 4.14923C9.95576 4.36273 10.1045 4.59898 10.2183 4.85448C10.3163 5.07498 10.3898 5.30248 10.4475 5.53698C10.4948 5.73298 10.5263 5.93248 10.5508 6.13198C10.5718 6.31398 10.5805 6.49598 10.5718 6.67973C10.5648 6.83723 10.5578 6.99473 10.5438 7.15223C10.528 7.34298 10.4913 7.53023 10.4388 7.71223C10.3548 8.00098 10.255 8.28448 10.129 8.55573C10.0433 8.74123 9.95226 8.92323 9.84551 9.09823C9.70901 9.32398 9.55326 9.53573 9.36601 9.72473C9.26276 9.82798 9.17001 9.94173 9.06326 10.0432C8.84626 10.2497 8.61176 10.4317 8.35276 10.584C8.19876 10.675 8.03951 10.7572 7.87676 10.829C7.60376 10.948 7.32726 11.06 7.03326 11.1177C6.74626 11.1737 6.45752 11.228 6.16352 11.2402C6.04277 11.2455 5.92201 11.2577 5.79951 11.256ZM6.29651 4.50623C6.19326 4.49923 6.09351 4.50798 5.99551 4.51323C5.80826 4.52198 5.62101 4.54473 5.43901 4.59198C5.24652 4.64098 5.05402 4.69523 4.87727 4.79498C4.69177 4.90173 4.52552 5.02773 4.41877 5.21848C4.36277 5.31823 4.32077 5.42323 4.32427 5.54398C4.32427 5.59473 4.33652 5.64373 4.34352 5.69273C4.35927 5.79248 4.38377 5.89048 4.42752 5.98148C4.44677 6.02173 4.46777 6.06373 4.49752 6.09873C4.52027 6.12498 4.53602 6.12323 4.55527 6.09348C4.56052 6.08648 4.56402 6.07773 4.56752 6.06898C4.66202 5.85548 4.75652 5.64198 4.83701 5.42148C4.89301 5.26573 5.02777 5.18698 5.17301 5.18698C5.26051 5.18698 5.34626 5.18348 5.43376 5.18698C5.55101 5.19048 5.66652 5.20273 5.78202 5.22023C5.89052 5.23773 5.99727 5.26923 6.10051 5.30423C6.26676 5.36023 6.42076 5.44073 6.55727 5.55273C6.58176 5.57198 6.60802 5.59298 6.62901 5.61573C6.68326 5.67173 6.70951 5.73648 6.68851 5.81523C6.66052 5.92198 6.61501 6.02173 6.57826 6.12498C6.49251 6.36123 6.39801 6.59573 6.30176 6.82848C6.20201 7.07173 6.09701 7.31323 5.99376 7.55648C5.92201 7.72448 5.85026 7.89423 5.77151 8.05873C5.69101 8.22673 5.62627 8.39998 5.62277 8.59073C5.61752 8.83398 5.72952 8.96873 5.92902 9.04573C6.21252 9.15423 6.50126 9.13148 6.78301 9.02823C6.90201 8.98448 7.01226 8.92673 7.12076 8.86023C7.32901 8.73423 7.51451 8.58548 7.68251 8.41048C7.82252 8.26348 7.93801 8.10073 8.04826 7.93273C8.14101 7.79273 8.21626 7.64398 8.28276 7.48998C8.33526 7.36923 8.37901 7.24323 8.40701 7.11373C8.45426 6.89673 8.46301 6.67973 8.45076 6.45923C8.44551 6.36123 8.43851 6.26323 8.42276 6.16698C8.41051 6.09173 8.39826 6.01823 8.37726 5.94648C8.33526 5.80823 8.28101 5.67523 8.22151 5.54223C8.20226 5.50023 8.18651 5.45823 8.16026 5.41973C8.06401 5.28673 7.96951 5.15373 7.84876 5.03998C7.71051 4.91048 7.56176 4.80198 7.38851 4.72323C7.27652 4.67073 7.15577 4.63923 7.03852 4.60073C6.94577 4.56923 6.84776 4.54998 6.75151 4.53598C6.59927 4.51323 6.44701 4.49748 6.30001 4.50448L6.29651 4.50623Z" fill="#F2D737"/>
<path fill-rule="evenodd" clip-rule="evenodd" d="M11.3488 5.67875C11.3488 5.67875 11.3523 5.6735 11.3523 5.67C11.3523 5.67 11.3523 5.66825 11.3505 5.66475C11.347 5.65075 11.3418 5.6385 11.34 5.6245C11.3295 5.5685 11.3173 5.51425 11.3033 5.46C11.2998 5.44775 11.298 5.43725 11.2963 5.425C11.2735 5.33925 11.249 5.2535 11.2175 5.16775C11.1335 4.942 11.0495 4.718 10.9253 4.5115C10.8448 4.3785 10.7643 4.249 10.6645 4.12825C10.57 4.0145 10.4755 3.9025 10.367 3.79925C10.2778 3.71525 10.192 3.62775 10.0923 3.556C10.003 3.49125 9.91725 3.42475 9.82625 3.36525C9.702 3.28475 9.576 3.20775 9.44825 3.1325C9.37125 3.08875 9.296 3.03975 9.21375 3.00475C9.0265 2.926 8.83575 2.856 8.6415 2.79825C8.35975 2.71425 8.06925 2.67225 7.7805 2.63375C7.4865 2.5935 7.189 2.5795 6.8915 2.5795C6.797 2.5795 6.7025 2.57075 6.60975 2.583C6.49425 2.59875 6.377 2.6005 6.25975 2.604C6.03575 2.61275 5.8135 2.6355 5.59125 2.667C5.4705 2.68275 5.35325 2.7125 5.23425 2.73875C5.00675 2.78775 4.788 2.86125 4.57275 2.94525C4.38025 3.0205 4.1965 3.11325 4.02325 3.22525C3.92525 3.28825 3.8255 3.3495 3.7345 3.42475C3.49825 3.619 3.28125 3.8325 3.10625 4.0845C2.98025 4.2665 2.87525 4.459 2.79475 4.66375C2.72125 4.851 2.6635 5.0435 2.61975 5.24125C2.5725 5.4565 2.56375 5.67175 2.576 5.8905C2.5865 6.097 2.62675 6.3 2.6705 6.50125C2.72825 6.75675 2.81575 7.0035 2.94525 7.231C3.10275 7.511 3.304 7.756 3.54375 7.96775C3.5735 7.994 3.58575 8.02025 3.57 8.057C3.56125 8.07625 3.556 8.0955 3.54725 8.11475C3.51225 8.19175 3.4755 8.26875 3.444 8.3475C3.3215 8.65025 3.199 8.95475 3.07825 9.25925C3.0275 9.387 2.97675 9.513 2.96625 9.653C2.95575 9.79125 2.95225 9.9295 2.996 10.0608C3.045 10.2113 3.1255 10.346 3.22525 10.472C3.374 10.6593 3.56125 10.7958 3.7625 10.9148C3.9305 11.0145 4.109 11.0915 4.28925 11.1668C4.4905 11.2508 4.7005 11.3085 4.91575 11.34C5.2885 11.3943 5.663 11.4188 6.03925 11.4188C6.14425 11.4188 6.251 11.4205 6.356 11.4188C6.5345 11.4118 6.713 11.3995 6.8915 11.3855C7.12425 11.368 7.35525 11.34 7.58625 11.2998C7.6545 11.2875 7.72275 11.2735 7.78925 11.2595C7.82425 11.2543 8.17775 11.193 8.68175 10.9533C8.6975 10.9463 8.71325 10.9393 8.72725 10.9323C8.96175 10.822 9.191 10.703 9.3975 10.5438C9.47275 10.486 9.55675 10.437 9.62675 10.3723C9.646 10.3548 9.66525 10.339 9.6845 10.3215C9.7125 10.2988 9.74225 10.276 9.77025 10.2515C10.15 9.93825 10.5193 9.49375 10.815 8.9565C10.815 8.9565 10.8185 8.9565 10.8203 8.9565C10.829 8.939 10.8395 8.9215 10.8483 8.90225C10.8693 8.86375 10.8868 8.82525 10.906 8.78675C10.906 8.78675 10.906 8.785 10.9043 8.78325C11.3348 7.9205 11.5658 6.84075 11.3488 5.67525V5.67875ZM7.03325 11.1178C6.74625 11.1738 6.4575 11.228 6.1635 11.2403C6.04275 11.2455 5.922 11.2578 5.7995 11.256C5.61225 11.2595 5.425 11.2508 5.23775 11.2333C4.9665 11.2088 4.69875 11.1633 4.44325 11.0618C4.41175 11.0495 4.3785 11.039 4.347 11.025C4.11425 10.9323 3.8885 10.8238 3.68025 10.6803C3.58225 10.6138 3.493 10.5333 3.409 10.4493C3.36175 10.402 3.32675 10.3408 3.2865 10.2848C3.2305 10.2078 3.19375 10.122 3.1605 10.0345C3.11675 9.926 3.115 9.81225 3.122 9.69675C3.13075 9.5445 3.19025 9.408 3.2445 9.26975C3.36525 8.96525 3.48425 8.66075 3.61375 8.3615C3.6645 8.24425 3.70825 8.1235 3.759 8.00625C3.77125 7.9765 3.766 7.9625 3.74325 7.94325C3.69075 7.8995 3.6365 7.85575 3.59275 7.805C3.479 7.67375 3.34425 7.5635 3.255 7.41125C3.227 7.364 3.19025 7.32375 3.1605 7.2765C3.0625 7.119 2.9785 6.9545 2.92075 6.77775C2.877 6.64475 2.82975 6.5135 2.80525 6.37525C2.786 6.258 2.7615 6.1425 2.75275 6.0235C2.7475 5.943 2.737 5.86425 2.73175 5.78375C2.7265 5.6875 2.73175 5.59125 2.74225 5.49675C2.76675 5.25175 2.82275 5.0155 2.91725 4.78625C2.96975 4.6585 3.01525 4.53075 3.08525 4.41C3.21475 4.186 3.3635 3.976 3.549 3.794C3.6785 3.66625 3.815 3.549 3.962 3.44225C4.0705 3.36175 4.186 3.29 4.30675 3.2305C4.46075 3.1535 4.61475 3.08 4.77925 3.02225C4.8895 2.98375 5.0015 2.94875 5.1135 2.92075C5.257 2.884 5.4005 2.842 5.54925 2.81925C5.71375 2.79475 5.88 2.78075 6.048 2.77025C6.21425 2.75975 6.377 2.765 6.54325 2.765C6.6535 2.765 6.762 2.779 6.87225 2.78425C7.07875 2.7965 7.2835 2.8175 7.4865 2.8525C7.64575 2.8805 7.79975 2.92075 7.95375 2.96625C8.085 3.0065 8.2145 3.052 8.34225 3.1045C8.47875 3.1605 8.603 3.2375 8.73075 3.30925C8.93375 3.42125 9.1245 3.5525 9.3065 3.69425C9.478 3.82725 9.63025 3.98475 9.772 4.14925C9.95575 4.36275 10.1045 4.599 10.2183 4.8545C10.3163 5.075 10.3898 5.3025 10.4475 5.537C10.4948 5.733 10.5263 5.9325 10.5508 6.132C10.5718 6.314 10.5805 6.496 10.5718 6.67975C10.5648 6.83725 10.5578 6.99475 10.5438 7.15225C10.528 7.343 10.4913 7.53025 10.4388 7.71225C10.3548 8.001 10.255 8.2845 10.129 8.55575C10.0433 8.74125 9.95225 8.92325 9.8455 9.09825C9.709 9.324 9.55325 9.53575 9.366 9.72475C9.26275 9.828 9.17 9.94175 9.06325 10.0433C8.84625 10.2498 8.61175 10.4318 8.35275 10.584C8.19875 10.675 8.0395 10.7573 7.87675 10.829C7.60375 10.948 7.32725 11.06 7.03325 11.1178Z" fill="#3B2215"/>
</svg>
