<svg width="14" height="14" viewBox="0 0 14 14" fill="none" xmlns="http://www.w3.org/2000/svg">
<path d="M7.00001 14C9.01776 14 10.836 13.1443 12.1135 11.7775H1.88651C3.16401 13.1443 4.98226 14 7.00001 14Z" fill="#E30613"/>
<path d="M13.104 3.5735C11.9035 1.442 9.6215 0 7 0C4.3785 0 2.0965 1.442 0.895996 3.5735C2.1735 2.9715 4.3015 2.2225 7 2.2225C9.6985 2.2225 11.8265 2.9715 13.104 3.5735Z" fill="#E30613"/>
<path d="M13.104 3.57347C11.8265 2.97147 9.6985 2.22247 7 2.22247C4.3015 2.22247 2.1735 2.97147 0.896 3.57347C0.32725 4.58672 0 5.75572 0 6.99997C0 8.84797 0.7175 10.5262 1.8865 11.7775H12.1135C13.2825 10.5262 14 8.84797 14 6.99997C14 5.75572 13.6727 4.58672 13.104 3.57347Z" fill="white"/>
<path d="M6.83899 3.48423C7.18024 3.41248 7.48999 3.52973 7.71049 3.78698L7.81899 3.93749H7.86799L8.43674 3.67148C8.45774 3.67673 8.48749 3.65923 8.49974 3.68898C8.51024 3.73973 8.46649 3.75374 8.43674 3.78349L6.47324 4.77574C6.41549 4.77399 6.38749 4.70749 6.35774 4.67249C6.18449 4.45374 6.21424 4.09849 6.34549 3.87099L6.49599 3.65573C6.48374 3.57523 6.42599 3.47198 6.49599 3.39848C6.54674 3.34948 6.61849 3.32323 6.68674 3.35123C6.75674 3.37748 6.77599 3.44573 6.83899 3.48423Z" fill="#E30613"/>
<path d="M6.45926 3.36001C6.42076 3.40026 6.41026 3.44226 6.41026 3.48601C6.41026 3.52976 6.42076 3.56826 6.43126 3.60326C6.43126 3.60326 6.43651 3.62426 6.44001 3.64351C6.41901 3.67326 6.30176 3.83951 6.30176 3.83951C6.23001 3.96376 6.18451 4.12651 6.18451 4.28751C6.18451 4.43626 6.22301 4.58501 6.31576 4.70051L6.33676 4.72851C6.36301 4.76701 6.40151 4.82125 6.46976 4.823H6.48201L8.46301 3.82201L8.47176 3.81501L8.48926 3.79926C8.51726 3.77826 8.56101 3.74326 8.54701 3.67501V3.66451C8.52251 3.61026 8.47001 3.61551 8.45251 3.61726H8.43326L8.41226 3.62076C8.41226 3.62076 7.87326 3.87276 7.85401 3.88151H7.84351C7.82076 3.85001 7.74901 3.75201 7.74901 3.75201C7.51626 3.47901 7.19076 3.36526 6.85301 3.42651C6.84076 3.41426 6.80926 3.38451 6.80926 3.38451C6.78301 3.35301 6.75326 3.31801 6.70251 3.29876C6.62376 3.26551 6.52926 3.28651 6.45751 3.35476L6.45926 3.36001ZM6.53451 3.67676L6.54676 3.65926L6.54326 3.64176L6.52751 3.57351C6.51701 3.53676 6.51001 3.50701 6.51001 3.48251C6.51001 3.46151 6.51526 3.44401 6.52926 3.42826C6.54326 3.41426 6.60101 3.36701 6.66401 3.39326C6.69201 3.40551 6.70951 3.42476 6.73226 3.45101L6.83026 3.54201L6.84776 3.52976C7.16101 3.46326 7.45326 3.56476 7.67026 3.81676L7.77701 3.96376L7.79101 3.98476H7.87676C7.87676 3.98476 8.27751 3.79751 8.38601 3.74676C8.33701 3.77126 6.50301 4.69876 6.46626 4.71626C6.45226 4.71276 6.43826 4.69526 6.41901 4.66901L6.39276 4.634C6.31751 4.53951 6.28601 4.41351 6.28601 4.28401C6.28601 4.14401 6.32451 4.00051 6.38751 3.89201L6.53451 3.68026" fill="#E30613"/>
<path d="M6.81451 4.98222L7.16976 4.99447L7.18726 5.01022C7.38501 5.93947 7.26076 6.95097 6.86701 7.76472C6.77251 7.96772 6.66401 8.16722 6.58176 8.37372C6.72876 8.48747 6.87926 8.59597 7.02976 8.69747C7.18726 8.49447 7.29576 8.25647 7.41301 8.02897C7.49176 7.89072 7.51626 7.72797 7.57051 7.57572C7.92401 7.87497 8.12001 8.25997 8.32126 8.63447C8.37026 8.73772 8.40876 8.84272 8.46651 8.94247C8.62576 8.89347 8.78151 8.82522 8.93551 8.76222V8.72022C8.80776 8.24072 8.53126 7.82247 8.20576 7.42522C8.27926 7.40597 8.34751 7.38672 8.42101 7.36747C8.74476 7.28172 9.09301 6.99297 9.15601 6.64647C9.2505 6.26147 9.11051 5.85372 8.77801 5.61397L8.37201 5.88697V5.92022L8.48401 6.10572C8.56626 6.25447 8.53126 6.46622 8.46651 6.61147C8.33526 6.81972 8.10426 6.87747 7.85751 6.85647C7.83826 6.82672 7.84351 6.77947 7.85051 6.74622C7.86451 6.43822 7.89601 6.13897 7.89251 5.82222C7.89426 5.36897 7.86801 4.92447 7.71401 4.53422C7.59676 4.51672 7.48126 4.53597 7.36576 4.53947C7.17676 4.63922 6.98076 4.72847 6.80226 4.83522L6.81976 4.98047L6.81451 4.98222Z" fill="#FFCC00"/>
<path d="M7.469 4.48523L7.35 4.49048L7.33775 4.49573L7.1435 4.59548C7.01925 4.65673 6.8915 4.72148 6.77075 4.79323L6.74275 4.80898L6.769 5.03123C6.769 5.03123 7.0945 5.04173 7.14175 5.04348C7.20125 5.32698 7.231 5.61748 7.231 5.90973C7.231 6.54673 7.091 7.18548 6.82325 7.74373L6.72 7.95548C6.657 8.08498 6.5905 8.21973 6.53625 8.35798L6.52225 8.39298L6.552 8.41748C6.7025 8.53298 6.853 8.64323 7.0035 8.74298L7.04375 8.76923L7.0735 8.73073C7.20825 8.55573 7.30975 8.35623 7.406 8.16198L7.46025 8.05523C7.5145 7.96073 7.546 7.85223 7.574 7.74898C7.574 7.74898 7.5845 7.71223 7.595 7.67548C7.8855 7.94498 8.06925 8.27573 8.24425 8.60123L8.2775 8.66073L8.3195 8.75523L8.44375 9.00898L8.48225 8.99323C8.61525 8.95298 8.7465 8.89873 8.8725 8.84798L8.98975 8.79898V8.71148C8.8795 8.30548 8.6625 7.91698 8.295 7.46023C8.323 7.45323 8.3545 7.44448 8.3545 7.44448L8.43675 7.42348C8.7605 7.33773 9.14025 7.04198 9.21025 6.66223C9.2295 6.57998 9.24 6.49598 9.24 6.41373C9.24 6.08823 9.086 5.77498 8.81125 5.57723L8.78325 5.55623L8.32475 5.86423V5.93948L8.44375 6.13723C8.5155 6.26498 8.48575 6.45923 8.4245 6.59573C8.302 6.78823 8.078 6.82148 7.8995 6.81273C7.8995 6.80923 7.8995 6.80923 7.8995 6.80398C7.8995 6.79348 7.8995 6.77948 7.90475 6.76023C7.90475 6.75148 7.92225 6.46273 7.92225 6.46273C7.9345 6.27723 7.94675 6.08648 7.94675 5.89048C7.94675 5.86948 7.94675 5.84673 7.94675 5.82398C7.94675 5.80648 7.94675 5.78548 7.94675 5.76798C7.94675 5.36898 7.9205 4.91573 7.763 4.52023L7.7525 4.49223L7.72275 4.48873C7.63875 4.47648 7.55475 4.48173 7.47425 4.48873L7.469 4.48523ZM7.48125 4.59023C7.5495 4.58498 7.61425 4.58323 7.67725 4.59023C7.819 4.96473 7.8435 5.39173 7.8435 5.77148V5.82748C7.8435 5.85023 7.8435 5.87123 7.8435 5.89223C7.8435 6.08648 7.83125 6.27548 7.819 6.45923L7.8015 6.74973C7.798 6.77073 7.7945 6.78998 7.7945 6.80748C7.7945 6.83898 7.8015 6.86873 7.81725 6.89148L7.83125 6.91073L7.85575 6.91423C8.1585 6.94048 8.386 6.84773 8.51375 6.64648C8.55575 6.55548 8.58725 6.43823 8.58725 6.32098C8.58725 6.23873 8.5715 6.15823 8.533 6.08823C8.533 6.08823 8.45775 5.96398 8.4315 5.91848C8.4735 5.89223 8.72725 5.71898 8.77975 5.68398C9.009 5.86248 9.14025 6.13023 9.14025 6.41548C9.14025 6.49073 9.1315 6.56598 9.114 6.64123C9.051 6.98423 8.70625 7.24848 8.414 7.32548L8.33 7.34823L8.1235 7.40423L8.1725 7.46548C8.55925 7.93623 8.7815 8.32823 8.89175 8.73423C8.86725 8.74473 8.83925 8.75523 8.83925 8.75523C8.729 8.80073 8.61525 8.84623 8.49975 8.88473C8.47525 8.83398 8.41925 8.71673 8.41925 8.71673L8.3755 8.61873L8.34225 8.55748C8.1515 8.20223 7.95375 7.83473 7.6125 7.54423L7.553 7.49348L7.483 7.72448C7.455 7.82598 7.427 7.92398 7.378 8.00973C7.378 8.01148 7.322 8.11998 7.322 8.11998C7.2345 8.29498 7.14175 8.47348 7.02625 8.63098C6.90375 8.54698 6.7795 8.45773 6.65525 8.36148C6.706 8.24073 6.76375 8.11998 6.8215 8.00448L6.92475 7.79098C7.1995 7.21873 7.343 6.56598 7.343 5.91323C7.343 5.60873 7.3115 5.30248 7.2485 5.00498L7.245 4.98923L7.203 4.94723C7.203 4.94723 6.937 4.93848 6.8705 4.93498C6.867 4.90698 6.86525 4.89298 6.8635 4.86848C6.972 4.80548 7.0875 4.74598 7.20125 4.68998C7.20125 4.68998 7.36925 4.60423 7.38675 4.59548C7.406 4.59548 7.4865 4.59023 7.4865 4.59023" fill="#FFCC00"/>
<path d="M6.35775 7.61599C6.321 7.18724 6.286 6.73574 6.251 6.30699C6.223 6.08474 6.251 5.83974 6.118 5.66124C5.992 5.47399 5.78025 5.38124 5.5615 5.45824C5.404 5.48799 5.30075 5.64549 5.19575 5.75574C5.18875 5.66999 5.18525 5.59999 5.17475 5.50374C4.998 5.51774 4.77925 5.53699 4.60425 5.55274C4.60425 5.55274 4.627 5.86074 4.64275 5.99724L4.77925 5.99024C4.78975 6.08124 4.78625 6.15824 4.7985 6.24399C4.84225 6.74799 4.8755 7.23099 4.92625 7.73149L5.33225 7.69649C5.306 7.26774 5.2745 6.83899 5.2325 6.41374C5.21325 6.26849 5.22725 6.12149 5.35675 6.03574C5.43725 5.99024 5.572 5.96924 5.6525 6.02874C5.72775 6.07774 5.75925 6.15124 5.775 6.22824C5.81 6.69899 5.84325 7.17149 5.8905 7.63874V7.65799L6.356 7.61599H6.35775Z" fill="#009640"/>
<path d="M5.54399 5.41099C5.41624 5.43374 5.32174 5.53699 5.23774 5.63324C5.23249 5.57374 5.22199 5.44774 5.22199 5.44774L5.17124 5.45299L4.54999 5.50724L4.55524 5.55799L4.59724 6.05149L4.64624 6.04799C4.64624 6.04799 4.69349 6.04624 4.73374 6.04449C4.73549 6.07774 4.73899 6.11624 4.73899 6.11624L4.74949 6.25099L4.79149 6.75674L4.88074 7.78924L4.93149 7.78399L5.38824 7.74374L5.38474 7.69474C5.35499 7.20474 5.32349 6.79524 5.28499 6.41024C5.26399 6.24399 5.29549 6.14074 5.38649 6.08124C5.45299 6.04274 5.56499 6.03049 5.62449 6.07249C5.67874 6.10749 5.70849 6.15999 5.72774 6.24049L5.74349 6.46274C5.77149 6.85124 5.80124 7.25374 5.84324 7.64574V7.66324L5.84674 7.71574L6.41199 7.66499L6.29999 6.30699L6.28774 6.13899C6.27724 5.96399 6.26674 5.78199 6.15824 5.63499C6.01299 5.41974 5.77149 5.33224 5.54399 5.41449V5.41099ZM5.23249 5.79599L5.29549 5.72599C5.37774 5.63149 5.46174 5.53349 5.57024 5.51249C5.76449 5.44424 5.95349 5.51424 6.07599 5.69449C6.16874 5.81874 6.17749 5.97624 6.18624 6.14599L6.20024 6.31924L6.25449 6.97374L6.30524 7.57399C6.23524 7.58099 6.01299 7.60024 5.94299 7.60724C5.90449 7.22399 5.87474 6.83374 5.84674 6.45574L5.83099 6.22649C5.81349 6.15124 5.78199 6.05324 5.68399 5.98849C5.58774 5.91849 5.43199 5.93774 5.33574 5.99374C5.23074 6.06374 5.17999 6.16874 5.17999 6.31749C5.17999 6.35074 5.18174 6.38574 5.18699 6.42249C5.22199 6.79174 5.25349 7.18549 5.28324 7.65274C5.21849 7.65974 5.04524 7.67374 4.97699 7.68074C4.96999 7.59149 4.89649 6.75149 4.89649 6.75149L4.85449 6.24399L4.84399 6.11449L4.83174 5.93949L4.78274 5.94474C4.78274 5.94474 4.73549 5.94649 4.69524 5.94824C4.68999 5.88174 4.67249 5.67349 4.66549 5.60349C4.74074 5.59649 5.05749 5.56849 5.13449 5.56324C5.13799 5.61924 5.14674 5.71374 5.14674 5.71374L5.15899 5.88524L5.23774 5.79599H5.23249Z" fill="#009640"/>
<path d="M4.36799 7.37802C4.39774 7.50402 4.43974 7.67902 4.46774 7.80852L3.91999 7.93627L3.86049 7.69127C3.77824 7.84352 3.69424 8.01852 3.49299 8.06752C3.30049 8.12877 3.11499 8.07277 2.98199 7.94502C2.89449 7.86452 2.84374 7.75952 2.80699 7.64927L2.42899 6.05152L2.42374 6.02702C2.55674 5.99902 2.73699 5.95352 2.87174 5.93077C2.99074 6.39627 3.10099 6.86177 3.21299 7.32902C3.23574 7.40427 3.30574 7.46902 3.37574 7.49877C3.49124 7.53552 3.60324 7.49177 3.68549 7.41127C3.75374 7.32377 3.75024 7.21527 3.73099 7.10852L3.45274 5.93427L3.41599 5.78902C3.54199 5.76102 3.70649 5.71377 3.83249 5.68927L3.84824 5.75402C3.97599 6.29477 4.11074 6.86177 4.23849 7.40427L4.36799 7.37627V7.37802Z" fill="#009640"/>
<path d="M3.82376 5.64022L3.56126 5.70147L3.35476 5.75222L3.36701 5.80297L3.40376 5.94822L3.68201 7.12072C3.70301 7.23972 3.69251 7.32022 3.64526 7.37972C3.60501 7.41822 3.51051 7.48822 3.39151 7.44972C3.33376 7.42522 3.27951 7.36922 3.26376 7.31497L3.15526 6.87047L2.91026 5.87122L2.86301 5.88172L2.54626 5.94997L2.36426 5.99022L2.37826 6.06372L2.75626 7.66147C2.80526 7.80847 2.86476 7.90822 2.94526 7.98347C3.09926 8.13222 3.30401 8.17947 3.50701 8.11647C3.67676 8.07447 3.76776 7.95547 3.84126 7.82772C3.85526 7.88722 3.88326 7.99747 3.88326 7.99747L4.53076 7.84522L4.40826 7.31847C4.40826 7.31847 4.31551 7.33947 4.27876 7.34647C4.25951 7.26597 4.16676 6.87397 4.16676 6.87397L3.89901 5.74697L3.88326 5.68222L3.87276 5.63147L3.82551 5.64197L3.82376 5.64022ZM3.58751 5.79947C3.58751 5.79947 3.73276 5.76622 3.79576 5.75047C3.79576 5.75572 4.20176 7.46547 4.20176 7.46547C4.20176 7.46547 4.29451 7.44447 4.33126 7.43747C4.34351 7.48997 4.39426 7.70522 4.40826 7.76822C4.33476 7.78572 4.03201 7.85572 3.95851 7.87322C3.94276 7.81022 3.87801 7.54947 3.87801 7.54947L3.80276 7.68947C3.72751 7.82947 3.64876 7.97472 3.48076 8.01672C3.31276 8.06922 3.14476 8.02897 3.01701 7.90647C2.94876 7.84347 2.89801 7.75597 2.85601 7.63172C2.85601 7.63172 2.53401 6.26322 2.48676 6.06547C2.52526 6.05672 2.56901 6.04622 2.56901 6.04622C2.56901 6.04622 2.76851 6.00422 2.83501 5.98847C2.85601 6.07422 3.05551 6.89147 3.05551 6.89147L3.16401 7.33947C3.18851 7.42697 3.26551 7.50572 3.35651 7.54422C3.48426 7.58447 3.61551 7.54772 3.72051 7.44622C3.77651 7.37272 3.79401 7.29572 3.79401 7.22222C3.79401 7.17847 3.78876 7.13647 3.78176 7.09972C3.78176 7.09797 3.50176 5.92372 3.50176 5.92372C3.50176 5.92372 3.48776 5.86947 3.47726 5.82747C3.52451 5.81522 3.58576 5.80122 3.58576 5.80122" fill="#009640"/>
<path d="M10.9813 7.81373L10.8658 8.23373L10.3373 8.09547C10.3495 8.01148 10.3653 7.92923 10.3775 7.83998L10.3548 7.85048C10.1868 7.96248 9.96801 8.08148 9.75801 7.97123C9.56026 7.89073 9.46926 7.68598 9.45526 7.48998L9.46751 7.32723C9.60751 6.80048 9.72126 6.25798 9.86126 5.72948L9.86476 5.70673C10.0048 5.74348 10.1798 5.78023 10.3198 5.82398C10.3198 5.82398 10.0853 6.77073 9.97676 7.22223C9.95576 7.29748 9.98551 7.36573 10.0188 7.42523C10.0993 7.51973 10.2183 7.55998 10.339 7.52498C10.5455 7.43398 10.5385 7.21873 10.5875 7.04023C10.675 6.68323 10.857 5.95523 10.857 5.95523L11.2648 6.05323C11.2648 6.05323 10.9883 7.21698 10.8518 7.75948L10.9813 7.80848V7.81373Z" fill="#009640"/>
<path d="M9.81399 5.70153L9.81049 5.72253L9.41499 7.32028V7.32553L9.40274 7.48828C9.42024 7.74903 9.54624 7.94503 9.73699 8.02203C9.93299 8.12353 10.1325 8.04653 10.311 7.93978L10.304 7.98703L10.2812 8.13578L10.325 8.14803L10.9025 8.29853L11.0442 7.78578C11.0442 7.78578 10.9515 7.75078 10.913 7.73678C10.9322 7.65278 11.326 6.02353 11.326 6.02353L11.277 6.01128L10.8185 5.90103L10.5367 7.03503L10.5087 7.15403C10.4807 7.29928 10.4545 7.42178 10.3162 7.48303C10.2252 7.50928 10.129 7.47953 10.059 7.40078C10.038 7.35878 10.0205 7.32028 10.0205 7.28003C10.0205 7.26778 10.0205 7.25553 10.0257 7.24328C10.0257 7.23978 10.381 5.79428 10.381 5.79428L10.0292 5.70328L9.82449 5.65253L9.81399 5.70503V5.70153ZM9.71249 6.54328C9.71249 6.54328 9.89099 5.82403 9.90324 5.77328C9.94874 5.78553 10.0047 5.79953 10.0047 5.79953C10.0047 5.79953 10.192 5.84853 10.2585 5.86428C10.2375 5.95528 9.92599 7.21528 9.92599 7.21528C9.92074 7.23803 9.91724 7.25903 9.91724 7.27828C9.91724 7.35003 9.95049 7.41303 9.97149 7.45503V7.46028L9.97849 7.46553C10.0747 7.57928 10.213 7.62128 10.3512 7.58103C10.5437 7.49528 10.5787 7.32553 10.6085 7.17503L10.6347 7.06128C10.6347 7.06128 10.8412 6.23528 10.8937 6.02528C10.9585 6.04103 11.137 6.08303 11.2035 6.10053C11.1807 6.19328 10.7922 7.80153 10.7922 7.80153L10.8342 7.81728C10.8342 7.81728 10.8815 7.83478 10.9217 7.85053C10.9042 7.91178 10.85 8.11128 10.8307 8.17778C10.7572 8.15853 10.4615 8.08153 10.395 8.06403C10.4002 8.03603 10.4037 8.00803 10.4037 8.00803L10.4422 7.75778L10.3547 7.79978L10.332 7.81028C10.1482 7.93103 9.95924 8.02553 9.77899 7.93103C9.62149 7.86803 9.51999 7.70353 9.50424 7.49178C9.50424 7.49178 9.51474 7.35353 9.51474 7.34128C9.51824 7.33078 9.71249 6.54678 9.71249 6.54678" fill="#009640"/>
<path d="M1.575 6.59223C1.498 6.57298 1.4245 6.53973 1.34925 6.51173C1.148 6.46798 0.969499 6.54498 0.818999 6.66223C0.635249 6.83373 0.586249 7.11898 0.680749 7.34648C0.759499 7.61248 1.04125 7.73322 1.2915 7.76122C1.49275 7.78572 1.77625 7.69998 1.848 7.95197C1.855 8.01498 1.8655 8.09022 1.82 8.13922C1.75175 8.22147 1.66075 8.27223 1.54175 8.24773C1.45425 8.24248 1.39475 8.17073 1.31425 8.14798C1.246 8.17423 1.176 8.21273 1.106 8.24773L1.351 8.81648L1.54175 8.73597C1.43675 8.46822 1.52425 8.70798 1.4315 8.45598C1.519 8.50848 1.61175 8.53123 1.69925 8.56273C1.9075 8.60298 2.1035 8.53647 2.2505 8.39298C2.415 8.22673 2.43075 7.94323 2.359 7.72623C2.26275 7.45848 1.974 7.32373 1.70275 7.31323C1.5575 7.29748 1.3615 7.36223 1.2635 7.20998C1.21975 7.13998 1.21625 7.03848 1.2635 6.97023C1.32125 6.86523 1.43675 6.85648 1.54175 6.86523C1.60475 6.88973 1.6625 6.92998 1.72725 6.95273L1.94775 6.85298C1.8865 6.66398 1.792 6.49248 1.72025 6.30873L1.69925 6.25623C1.6345 6.28248 1.55225 6.32448 1.48925 6.35248L1.575 6.59223Z" fill="#009640"/>
<path d="M1.67999 6.20901L1.55924 6.26326L1.42799 6.32276L1.44199 6.36826C1.44199 6.36826 1.46824 6.44001 1.49274 6.50826C1.47174 6.50126 1.44374 6.49251 1.44374 6.49251L1.36849 6.46451C1.17249 6.42076 0.979993 6.47501 0.790993 6.62201C0.656243 6.74626 0.586243 6.92476 0.586243 7.10676C0.586243 7.19426 0.601993 7.28351 0.636993 7.36576C0.740243 7.72451 1.16199 7.79801 1.28799 7.81026L1.45249 7.81551C1.64324 7.81376 1.76049 7.82251 1.80249 7.96601C1.80774 8.01326 1.81474 8.07276 1.78499 8.10251C1.71674 8.18476 1.64324 8.21451 1.55399 8.19701C1.51024 8.19351 1.47524 8.17426 1.43849 8.14976L1.30899 8.08676L1.29849 8.09901L1.12174 8.18126L1.04299 8.22151L1.06224 8.26526L1.32649 8.88126L1.60999 8.76226L1.52949 8.56451L1.52599 8.55401C1.55749 8.56451 1.58724 8.57501 1.61699 8.58551L1.68349 8.60826C1.90924 8.65376 2.12099 8.58901 2.28899 8.42801C2.47624 8.23726 2.48499 7.92926 2.41149 7.70701C2.29599 7.39201 1.96174 7.26951 1.70974 7.26076C1.71324 7.26076 1.57849 7.26076 1.57849 7.26076C1.44549 7.26601 1.36324 7.26076 1.31074 7.18201C1.27749 7.12776 1.27574 7.04901 1.31074 6.99826C1.34924 6.93001 1.41749 6.90726 1.53474 6.91601C1.54524 6.92126 1.61349 6.95276 1.61349 6.95276L1.73774 7.01051L1.75524 7.00001L2.01599 6.88276L2.00199 6.83901C1.96524 6.72176 1.91449 6.61151 1.86549 6.50301L1.77449 6.29126L1.73424 6.18976L1.68699 6.21076L1.67999 6.20901ZM1.60124 6.35601C1.60124 6.35601 1.63799 6.34026 1.67124 6.32451L1.76574 6.54326C1.80774 6.63426 1.84799 6.72876 1.88299 6.82501C1.83399 6.84776 1.75349 6.88276 1.72724 6.89501C1.70449 6.88451 1.65374 6.86176 1.65374 6.86176L1.55224 6.81276H1.54699C1.48749 6.80751 1.30549 6.79001 1.21974 6.94401C1.16549 7.02276 1.16549 7.14701 1.21974 7.23451C1.30724 7.37101 1.45774 7.36576 1.57849 7.36051H1.69749C1.92324 7.37101 2.21549 7.47426 2.31174 7.74026C2.37299 7.92576 2.36949 8.19701 2.21374 8.35451C2.07374 8.49101 1.89349 8.54526 1.70799 8.51026L1.64499 8.48751C1.58199 8.46651 1.51549 8.44551 1.45424 8.40876L1.32824 8.33526L1.43499 8.61176C1.43499 8.61176 1.45599 8.66426 1.47174 8.70626C1.43674 8.72026 1.40874 8.73251 1.37374 8.74651C1.34399 8.67476 1.19699 8.33701 1.16724 8.26876C1.17774 8.26351 1.28274 8.21451 1.31074 8.20051C1.32999 8.21101 1.37899 8.23551 1.37899 8.23551C1.42274 8.26176 1.47174 8.29151 1.53474 8.29501C1.65199 8.31951 1.76574 8.27576 1.85499 8.16726C1.91449 8.10601 1.90399 8.01326 1.89524 7.94676V7.93451C1.82699 7.70701 1.61524 7.71051 1.44549 7.71226L1.29324 7.70876C1.18124 7.69651 0.815493 7.63351 0.726243 7.33076C0.633493 7.11026 0.685993 6.85126 0.850493 6.69901C1.01324 6.57301 1.17424 6.52576 1.33524 6.56076L1.40174 6.58701L1.65899 6.67451L1.61874 6.57476C1.61874 6.57476 1.56974 6.43826 1.54874 6.37876C1.57324 6.36651 1.59774 6.35601 1.59774 6.35601" fill="#009640"/>
<path d="M13.0305 6.98077H13.0183C12.971 6.89852 12.9413 6.80927 12.8923 6.72527C12.7978 6.61152 12.6753 6.54852 12.544 6.51177C12.3218 6.46802 12.1153 6.53977 11.9683 6.70777C11.8213 6.88802 11.746 7.16627 11.8633 7.38327C11.9403 7.59327 12.173 7.74202 12.2815 7.93977C12.3113 8.03077 12.2815 8.12702 12.2238 8.19702C12.1695 8.26352 12.0715 8.25652 11.9928 8.24777C11.8563 8.19877 11.774 8.06052 11.7705 7.92227C11.6953 7.88727 11.62 7.85402 11.5325 7.82252C11.452 7.99927 11.3715 8.21277 11.298 8.39302L11.508 8.47352C11.5483 8.38427 11.5798 8.28802 11.6235 8.20577C11.6533 8.30727 11.6988 8.38077 11.7355 8.46827C11.844 8.64152 12.0313 8.72202 12.2238 8.74127C12.4688 8.74827 12.6893 8.55752 12.7855 8.34752C12.9553 7.96602 12.67 7.63352 12.4023 7.37277C12.3708 7.30627 12.3393 7.21352 12.3848 7.14527C12.4303 7.07352 12.5038 7.01402 12.593 7.02452C12.6648 7.02277 12.7173 7.07002 12.768 7.11202C12.838 7.17502 12.8328 7.26952 12.8678 7.35002L13.1005 7.43752C13.1845 7.24152 13.258 7.05252 13.335 6.84602L13.1303 6.76552L13.0305 6.98602V6.98077Z" fill="#009640"/>
<path d="M11.9297 6.67447C11.8317 6.79522 11.7547 6.97022 11.7547 7.14697C11.7547 7.23622 11.774 7.32547 11.8195 7.40772C11.8632 7.52847 11.9595 7.63172 12.0522 7.73147C12.124 7.80847 12.1905 7.88022 12.236 7.96072C12.2412 7.97822 12.2447 7.99572 12.2447 8.01497C12.2447 8.06572 12.2255 8.11822 12.187 8.16547C12.1502 8.21097 12.0785 8.20747 12.0067 8.19872C11.9 8.15847 11.8265 8.04822 11.8212 7.92222V7.88897L11.5027 7.75597L11.487 7.80322L11.312 8.22497L11.2332 8.42272L11.2805 8.44197L11.536 8.53997L11.6025 8.38072C11.6025 8.38072 11.613 8.35447 11.6217 8.33872C11.6305 8.35972 11.6392 8.38072 11.6497 8.39997L11.69 8.48922L11.6935 8.49272C11.8282 8.70797 12.054 8.77272 12.2202 8.79022C12.5037 8.79897 12.7365 8.57672 12.8327 8.36672C12.8712 8.28097 12.887 8.19697 12.887 8.11472C12.887 7.77697 12.6035 7.49522 12.446 7.34122C12.4285 7.30447 12.4145 7.26247 12.4145 7.22397C12.4145 7.20297 12.4197 7.18547 12.4285 7.17147C12.4547 7.12947 12.509 7.06297 12.5895 7.07172C12.6437 7.07172 12.6805 7.10147 12.7225 7.13647L12.7365 7.14872C12.7697 7.17847 12.7802 7.22222 12.7925 7.27472L12.8275 7.39022L12.8502 7.39372L13.1285 7.49872L13.1477 7.45322C13.2317 7.26072 13.3035 7.07697 13.384 6.85822L13.4015 6.81097L13.104 6.69372C13.104 6.69372 13.0515 6.80922 13.0235 6.87397C13.013 6.85297 12.9342 6.69197 12.9342 6.69197H12.9325C12.8415 6.57997 12.719 6.50472 12.558 6.46097C12.313 6.41197 12.0907 6.48897 11.9315 6.67272L11.9297 6.67447ZM12.2657 8.22672C12.3392 8.13747 12.3655 8.02372 12.3322 7.92222V7.91697L12.3287 7.91172C12.278 7.81897 12.201 7.73672 12.1275 7.65797C12.0382 7.56172 11.9525 7.47072 11.9122 7.36222C11.7967 7.14872 11.8807 6.88972 12.0067 6.73747C12.1415 6.58347 12.3287 6.51872 12.5335 6.55897C12.6682 6.59747 12.7732 6.66047 12.8502 6.75322C12.8537 6.76197 12.9062 6.86872 12.9062 6.86872L12.9867 7.03322L13.0165 7.02972H13.062C13.062 7.02972 13.1285 6.87922 13.1547 6.82322C13.1932 6.83897 13.2282 6.85297 13.2685 6.86697C13.202 7.04547 13.139 7.20472 13.0725 7.36572C13.02 7.34472 12.9377 7.31497 12.9097 7.30447C12.9027 7.28172 12.8922 7.24672 12.8922 7.24672C12.8782 7.18722 12.8607 7.12072 12.803 7.06822C12.8012 7.06822 12.7872 7.05597 12.7872 7.05597C12.7382 7.01572 12.6787 6.96672 12.593 6.96847C12.502 6.95797 12.4075 7.01047 12.3427 7.11197C12.2972 7.18022 12.3007 7.27297 12.3567 7.38847L12.3602 7.39722L12.3655 7.40247C12.6472 7.67897 12.887 7.98172 12.7382 8.32122C12.6542 8.50147 12.4582 8.69222 12.2237 8.68522C12.0837 8.67122 11.8912 8.61697 11.7775 8.43672C11.7722 8.42622 11.739 8.35272 11.739 8.35272C11.7127 8.30022 11.6882 8.24947 11.6707 8.18647L11.6322 8.05172L11.5062 8.33872C11.5062 8.33872 11.4922 8.37372 11.4782 8.40522C11.438 8.38947 11.403 8.37547 11.3627 8.35972C11.3802 8.31597 11.403 8.25647 11.403 8.25647C11.403 8.25647 11.5272 7.95722 11.557 7.88372C11.6077 7.90472 11.6935 7.94147 11.7215 7.95197C11.7407 8.10597 11.8352 8.23897 11.9717 8.28797H11.984C12.054 8.29847 12.1852 8.31422 12.2605 8.22147" fill="#009640"/>
<path d="M6.43649 8.5155C6.63774 8.67125 6.85124 8.806 7.04724 8.96875V8.98625L6.58174 9.40975C6.52399 9.485 6.46799 9.59175 6.52399 9.68275C6.73749 9.93475 7.16624 9.70025 7.35349 10.0065C7.44099 10.1133 7.44099 10.2848 7.37799 10.4038C7.34124 10.4773 7.26599 10.528 7.19249 10.542C6.84424 10.563 6.58874 10.2935 6.34899 10.0485C6.23699 9.93125 6.20724 9.6775 5.99549 9.70725C5.93774 9.71425 5.89574 9.75625 5.85549 9.79825C5.75399 9.765 5.66999 9.688 5.57724 9.6285C5.57549 9.49025 5.65074 9.338 5.79249 9.28025C6.19674 9.2295 6.20024 8.7675 6.41549 8.5155H6.43649Z" fill="#E30613"/>
<path d="M6.41551 8.46476H6.39276L6.37701 8.48226C6.29826 8.57326 6.24751 8.69051 6.19851 8.80251C6.10576 9.01426 6.02526 9.19801 5.78901 9.22776H5.78201L5.77501 9.23126C5.60176 9.30301 5.52651 9.48151 5.52826 9.62851V9.65476L5.63151 9.72651C5.69626 9.77201 5.76276 9.81926 5.84151 9.84551L5.87301 9.85601L5.89576 9.83326C5.93426 9.79126 5.96576 9.76151 6.00601 9.75626C6.10926 9.74226 6.15476 9.81401 6.21776 9.93301C6.24576 9.98726 6.27551 10.0415 6.31576 10.0835L6.33326 10.101C6.56776 10.3408 6.83376 10.6138 7.19776 10.5928C7.29926 10.5735 7.38501 10.5105 7.42701 10.4265C7.45851 10.3688 7.47601 10.2935 7.47601 10.2165C7.47601 10.1308 7.45326 10.0433 7.39551 9.97326C7.28701 9.79476 7.09626 9.78251 6.92826 9.77026C6.78651 9.75976 6.65176 9.75101 6.56426 9.64776C6.55551 9.63376 6.55201 9.61626 6.55201 9.59876C6.55201 9.54626 6.58701 9.48676 6.62201 9.43951C6.63076 9.43076 7.09801 9.00551 7.09801 9.00551V8.94251L7.07876 8.92676C6.96501 8.83226 6.84251 8.74476 6.72351 8.66076L6.45401 8.46301H6.41551V8.46476ZM6.29126 8.84451C6.33501 8.74476 6.37876 8.65376 6.43651 8.57676C6.48201 8.61176 6.66576 8.74476 6.66576 8.74476C6.77076 8.82001 6.87576 8.89701 6.97901 8.97926C6.91776 9.03351 6.54676 9.37301 6.54676 9.37301V9.37651C6.47501 9.46576 6.45226 9.53926 6.45226 9.59876C6.45226 9.64426 6.46626 9.67926 6.48376 9.70726C6.60276 9.84901 6.76551 9.85951 6.92126 9.87176C7.08576 9.88226 7.22751 9.89276 7.31326 10.0328C7.35351 10.0835 7.37451 10.1518 7.37451 10.22C7.37451 10.2743 7.36226 10.3303 7.33601 10.3793C7.30801 10.4353 7.24851 10.479 7.18551 10.4913C6.87401 10.5088 6.63601 10.2655 6.40501 10.0293L6.38751 10.0118C6.35776 9.98026 6.33151 9.93476 6.30526 9.88401C6.24401 9.77201 6.16876 9.63201 5.99026 9.65476C5.92726 9.66351 5.88176 9.70026 5.84501 9.73526C5.79251 9.71251 5.74176 9.67926 5.68926 9.64251C5.68926 9.64251 5.65601 9.61976 5.62976 9.60226C5.63676 9.49901 5.69276 9.37476 5.81001 9.32576C6.09351 9.28376 6.19676 9.05101 6.28776 8.84276" fill="#E30613"/>
<path d="M9.18402 8.89874C9.22077 9.14024 9.22777 9.39399 9.29077 9.62499C9.32402 9.68099 9.38002 9.73174 9.44477 9.73699C9.72127 9.70024 9.82627 9.34674 10.08 9.24699C10.192 9.20849 10.3215 9.21374 10.416 9.28724C10.5175 9.39574 10.5823 9.52699 10.5613 9.68274C10.493 9.83149 10.339 9.87874 10.213 9.95749C9.97502 10.059 9.69852 10.0992 9.42902 10.0782C9.34152 10.0817 9.24002 10.08 9.19627 10.1727C9.15952 10.2322 9.19102 10.304 9.19102 10.3687L9.16652 10.3932C9.04052 10.402 8.89702 10.5857 8.78852 10.423C8.71327 10.304 8.70977 10.1255 8.77102 9.99949C8.78327 9.92074 8.77627 9.85949 8.75527 9.78774L8.44727 9.20149V9.17174L9.16127 8.89349L9.18227 8.89874H9.18402Z" fill="#E30613"/>
<path d="M9.14373 8.84623L8.39648 9.13673V9.21373C8.39648 9.21373 8.70098 9.79298 8.70623 9.80523C8.72023 9.84898 8.72723 9.88748 8.72723 9.92598C8.72723 9.94698 8.72548 9.96798 8.72198 9.98898C8.69398 10.0502 8.67823 10.122 8.67823 10.1937C8.67823 10.2847 8.70098 10.3775 8.74648 10.4492C8.84448 10.598 8.97398 10.5297 9.05973 10.486C9.09823 10.4667 9.13848 10.4457 9.16998 10.4422H9.18923L9.24348 10.3862V10.367L9.23473 10.2952C9.22948 10.255 9.22423 10.22 9.23823 10.1972C9.26623 10.1377 9.32223 10.1325 9.40973 10.1272H9.43073C9.70373 10.1482 9.99073 10.1045 10.2322 10.0012C10.2392 9.99773 10.3285 9.94873 10.3285 9.94873C10.4317 9.89273 10.549 9.83148 10.6067 9.70198L10.6102 9.69498V9.68798C10.633 9.53398 10.5787 9.38698 10.4527 9.25223C10.3477 9.16648 10.2025 9.14898 10.0625 9.19623C9.93473 9.24698 9.84548 9.34848 9.75973 9.44823C9.66523 9.55848 9.57248 9.65998 9.44473 9.68098C9.40098 9.67573 9.36073 9.63723 9.33798 9.60048C9.29948 9.45523 9.28198 9.29598 9.26623 9.14198L9.23123 8.85323L9.19623 8.84623L9.15948 8.83923L9.14548 8.84448L9.14373 8.84623ZM9.14023 8.95648C9.14723 9.02123 9.16473 9.15423 9.16473 9.15423C9.18223 9.31523 9.19973 9.48148 9.24173 9.63723V9.64423L9.24873 9.65123C9.29598 9.73173 9.36948 9.78248 9.44298 9.78598H9.45348C9.62323 9.76323 9.73348 9.63723 9.83848 9.51648C9.92073 9.42198 9.99773 9.33273 10.0992 9.29248C10.2042 9.25573 10.3127 9.26798 10.3845 9.32573C10.4702 9.41848 10.514 9.51648 10.514 9.62148C10.514 9.63723 10.514 9.65123 10.5105 9.66523C10.465 9.75798 10.3757 9.80698 10.2795 9.85773L10.185 9.91023C9.96623 10.003 9.69498 10.045 9.43073 10.024C9.42373 10.024 9.40448 10.024 9.40448 10.024C9.31873 10.0275 9.20148 10.0345 9.14898 10.1465C9.13148 10.1745 9.12623 10.2042 9.12623 10.234C9.12623 10.2602 9.12973 10.2847 9.13323 10.3075C9.13323 10.3075 9.13498 10.3267 9.13673 10.3425C9.09473 10.3512 9.05273 10.3687 9.01248 10.3897C8.91273 10.4405 8.87423 10.4527 8.83048 10.388C8.79548 10.3337 8.77798 10.262 8.77798 10.1885C8.77798 10.1272 8.79023 10.066 8.81648 10.0152L8.81998 10.0082V10.0012C8.82523 9.97323 8.82698 9.94698 8.82698 9.92073C8.82698 9.86998 8.81823 9.82273 8.80248 9.76673V9.76148C8.80248 9.76148 8.52948 9.24698 8.50498 9.19798C8.57323 9.17173 9.06848 8.97748 9.13848 8.95123" fill="#E30613"/>
<path d="M4.41 5.37947C4.7075 5.34447 5.033 5.32697 5.33225 5.30072C5.33925 5.32522 5.33225 5.34972 5.3375 5.35497C5.35325 5.34797 5.41975 5.30772 5.4495 5.30247C5.71025 5.22022 6.00775 5.23422 6.2055 5.47222C6.272 5.54397 6.3455 5.66647 6.38925 5.83447C6.46275 6.51872 6.53975 7.51272 6.55375 7.79097C6.2825 7.81197 6.00075 7.84172 5.72775 7.85922L5.72425 7.84872C5.6805 7.30622 5.63675 6.76547 5.58425 6.22822C5.56675 6.18622 5.52125 6.17222 5.47925 6.18622C5.397 6.20022 5.397 6.27897 5.40925 6.36822C5.41625 6.41897 5.502 7.41472 5.537 7.86622V7.87847L4.75125 7.94322L4.74775 7.92397C4.70225 7.35697 4.64625 6.76197 4.6095 6.19322L4.473 6.20722L4.41 5.38122V5.37947ZM6.35775 7.61597C6.321 7.18722 6.286 6.73572 6.251 6.30697C6.223 6.08472 6.251 5.83972 6.118 5.66122C5.992 5.47397 5.78025 5.38122 5.5615 5.45822C5.404 5.48797 5.30075 5.64547 5.19575 5.75572C5.18875 5.66997 5.18525 5.59997 5.17475 5.50372C4.998 5.51772 4.77925 5.53697 4.60425 5.55272C4.60425 5.55272 4.627 5.86072 4.64275 5.99722L4.77925 5.99022C4.78975 6.08122 4.78625 6.15822 4.7985 6.24397C4.84225 6.74797 4.8755 7.23097 4.92625 7.73147L5.33225 7.69647C5.306 7.26772 5.2745 6.83897 5.2325 6.41372C5.21325 6.26847 5.22725 6.12147 5.35675 6.03572C5.43725 5.99022 5.572 5.96922 5.6525 6.02872C5.72775 6.07772 5.75925 6.15122 5.775 6.22822C5.81 6.69897 5.84325 7.17147 5.8905 7.63872V7.65797L6.356 7.61597H6.35775Z" fill="#1D1D1B"/>
<path d="M3.19901 5.65775C3.45101 5.593 3.71701 5.5265 3.96901 5.46875L3.98651 5.54575C4.11076 6.08475 4.25076 6.65175 4.37851 7.18725L4.50976 7.154C4.57276 7.39375 4.62876 7.69825 4.69176 7.93975L3.80451 8.16025C3.78876 8.13925 3.80101 8.1165 3.78701 8.1165C3.74851 8.13575 3.67501 8.19875 3.62251 8.21275C3.40551 8.3195 3.09926 8.30025 2.91376 8.1375C2.76676 8.008 2.66526 7.8505 2.62326 7.67375L2.21201 5.894C2.47276 5.82225 2.74926 5.754 3.01876 5.698L3.02926 5.74875C3.14476 6.24925 3.26201 6.7515 3.38451 7.24675C3.39676 7.2835 3.40551 7.3115 3.44226 7.31675C3.48076 7.3255 3.52976 7.31675 3.55076 7.29225C3.57176 7.273 3.56301 7.22925 3.56301 7.22925L3.20951 5.70675L3.19726 5.656L3.19901 5.65775ZM4.23851 7.406C4.11076 6.8635 3.97601 6.2965 3.84826 5.7575L3.83251 5.691C3.70651 5.7155 3.54201 5.76275 3.41601 5.79075L3.45276 5.936L3.73101 7.11025C3.75026 7.217 3.75201 7.32725 3.68376 7.413C3.60151 7.4935 3.48951 7.53725 3.37401 7.5005C3.30401 7.47075 3.23401 7.406 3.21126 7.33075C3.09751 6.8635 2.98901 6.39625 2.87001 5.9325C2.73526 5.957 2.55501 6.00075 2.42201 6.02875L2.42726 6.05325L2.80526 7.651C2.84201 7.7595 2.89276 7.86625 2.98026 7.94675C3.11326 8.0745 3.29876 8.1305 3.49126 8.06925C3.69251 8.02025 3.77651 7.8435 3.85876 7.693L3.91826 7.938L4.46601 7.81025C4.43626 7.68075 4.39426 7.50575 4.36626 7.37975L4.23676 7.40775L4.23851 7.406Z" fill="#1D1D1B"/>
<path d="M10.7222 5.72948L11.4887 5.92723L11.0687 7.64048L11.1947 7.67898C11.1335 7.93798 11.0617 8.20748 10.9987 8.46473L10.1132 8.23548L10.1185 8.19698C9.84725 8.21448 9.54975 8.15323 9.394 7.90998C9.2785 7.73673 9.24875 7.51098 9.282 7.28873L9.73 5.49498L9.73525 5.48798C9.9995 5.55273 10.276 5.61573 10.5385 5.68748C10.5175 5.77848 10.248 6.83198 10.1535 7.27648C10.1605 7.31148 10.1867 7.33248 10.2182 7.34648C10.2707 7.36398 10.3127 7.32548 10.3337 7.28348L10.6697 5.91148L10.7187 5.72773L10.7222 5.72948ZM10.8517 7.76648C10.9882 7.22398 11.2647 6.05848 11.2647 6.05848L10.857 5.96048C10.857 5.96048 10.675 6.68848 10.5875 7.04548C10.5367 7.22398 10.5455 7.43748 10.339 7.53023C10.2182 7.56523 10.0992 7.52498 10.0187 7.43048C9.98725 7.36923 9.95575 7.30098 9.97675 7.22748C10.0852 6.77598 10.3197 5.82923 10.3197 5.82923C10.1797 5.78548 10.0047 5.74873 9.86475 5.71198L9.86125 5.73473C9.7195 6.26323 9.60575 6.80398 9.4675 7.33248L9.45525 7.49523C9.46925 7.69123 9.5585 7.89598 9.758 7.97648C9.968 8.08498 10.1867 7.96598 10.3565 7.85573L10.3792 7.84523C10.367 7.93448 10.3512 8.01498 10.339 8.10073L10.8675 8.23898L10.983 7.81898L10.8535 7.76998L10.8517 7.76648Z" fill="#1D1D1B"/>
<path d="M11.431 7.56703C11.5465 7.61253 11.7022 7.67553 11.8247 7.71053V7.68078C11.6305 7.43928 11.5587 7.07178 11.704 6.78128C11.8247 6.53103 12.082 6.31403 12.3637 6.31228C12.6105 6.29303 12.8275 6.40503 13.006 6.55028L13.0287 6.50478L13.5747 6.72353L13.5712 6.73753L13.2177 7.67378C13.083 7.63353 12.992 7.58628 12.873 7.55828L12.845 7.54953C12.859 7.64753 12.9482 7.72453 12.9727 7.82253C13.0742 8.12528 13.0025 8.47178 12.7645 8.69403C12.5737 8.88828 12.306 8.96703 12.0382 8.90228C11.9 8.85678 11.7687 8.79728 11.6602 8.68178L11.6375 8.73253C11.4485 8.66778 11.249 8.58028 11.067 8.50853C11.186 8.20053 11.305 7.89428 11.4205 7.58628L11.4292 7.56703H11.431ZM13.0287 6.98253H13.0182C12.9692 6.90028 12.9412 6.81103 12.8922 6.72528C12.7977 6.61153 12.6735 6.54853 12.544 6.51178C12.3217 6.46803 12.1152 6.53978 11.9682 6.70778C11.8212 6.88628 11.746 7.16453 11.8632 7.38328C11.9402 7.59328 12.173 7.74028 12.2815 7.93978C12.3112 8.03078 12.2815 8.12703 12.2237 8.19528C12.1677 8.26353 12.0715 8.25653 11.991 8.24603C11.8562 8.19703 11.7722 8.05878 11.7687 7.92053C11.6935 7.88553 11.6182 7.85228 11.5307 7.82253C11.452 7.99928 11.3697 8.21278 11.2962 8.39303L11.5062 8.47353C11.5465 8.38428 11.578 8.28803 11.6217 8.20578C11.6515 8.30728 11.697 8.37903 11.7337 8.46828C11.8422 8.64153 12.0277 8.72203 12.222 8.74128C12.467 8.74828 12.6875 8.55753 12.7837 8.34753C12.9535 7.96428 12.6682 7.63353 12.4022 7.37278C12.3707 7.30628 12.3392 7.21178 12.3847 7.14528C12.4302 7.07353 12.5037 7.01403 12.593 7.02453C12.6647 7.02278 12.7155 7.07003 12.768 7.11203C12.838 7.17503 12.8327 7.26953 12.8677 7.35003L13.1005 7.43753C13.1862 7.24153 13.258 7.05253 13.335 6.84603L13.1302 6.76553L13.0305 6.98603L13.0287 6.98253ZM12.572 7.22578C12.5615 7.23978 12.5615 7.24328 12.5632 7.25903C12.5877 7.28878 12.614 7.32728 12.6507 7.33428C12.656 7.30978 12.6437 7.28878 12.6385 7.26603C12.6175 7.25203 12.607 7.20828 12.572 7.22403V7.22578ZM11.9665 7.87503C11.956 7.91703 11.9682 7.96428 11.991 8.00103C12.0067 8.03603 12.0417 8.05703 12.0785 8.05528C12.0907 8.04653 12.0977 8.03078 12.0942 8.01503C12.0697 7.96253 12.0225 7.90128 11.9665 7.87678" fill="#1D1D1B"/>
<path d="M1.8165 8.81998C1.638 8.89173 1.442 8.98798 1.2565 9.06673L0.860999 8.14798C0.986999 8.07973 1.12 8.03073 1.246 7.96423V7.95198C0.943249 7.90648 0.596749 7.72798 0.507499 7.40423C0.418249 7.17148 0.435749 6.85298 0.582749 6.64998C0.752499 6.43473 0.981749 6.32098 1.246 6.30873L1.22675 6.25623L1.792 6.01123L1.84625 6.13373C1.95825 6.40673 2.093 6.67098 2.191 6.95273C2.072 7.00348 1.95825 7.06298 1.84275 7.12073C1.8795 7.15923 1.94775 7.15748 2.00025 7.17148C2.27675 7.23623 2.506 7.49348 2.569 7.76473C2.62675 8.11123 2.5375 8.47173 2.22075 8.65373C2.0895 8.71848 1.95125 8.76398 1.79725 8.76923L1.8165 8.81998ZM1.575 6.59223C1.498 6.57298 1.4245 6.53973 1.351 6.51173C1.14975 6.46798 0.971249 6.54498 0.820749 6.66223C0.636999 6.83373 0.587999 7.12073 0.682499 7.34648C0.759499 7.61248 1.043 7.73323 1.29325 7.76123C1.4945 7.78573 1.778 7.69998 1.84975 7.95198C1.85675 8.01498 1.86725 8.09023 1.82175 8.13923C1.7535 8.22148 1.6625 8.27223 1.5435 8.24773C1.456 8.24248 1.3965 8.17073 1.316 8.14798C1.24775 8.17423 1.17775 8.21273 1.10775 8.24773L1.35275 8.81648L1.5435 8.73598C1.4385 8.46823 1.526 8.70798 1.43325 8.45598C1.52075 8.50848 1.6135 8.53123 1.701 8.56273C1.90925 8.60298 2.10525 8.53648 2.25225 8.39298C2.41675 8.22673 2.4325 7.94323 2.36075 7.72448C2.2645 7.45848 1.97575 7.32198 1.7045 7.31323C1.55925 7.29748 1.36325 7.36223 1.26525 7.20998C1.2215 7.13998 1.21975 7.03848 1.26525 6.97023C1.323 6.86523 1.4385 6.85648 1.5435 6.86523C1.6065 6.88973 1.66425 6.92998 1.729 6.95273L1.9495 6.85298C1.88825 6.66398 1.79375 6.49248 1.722 6.30873L1.701 6.25623C1.63625 6.28248 1.554 6.32448 1.491 6.35248L1.57675 6.59223H1.575ZM1.5645 7.10323C1.52775 7.12073 1.46125 7.12423 1.4245 7.09973C1.421 7.07523 1.43675 7.06998 1.45425 7.05773C1.49975 7.05073 1.53125 7.07698 1.5645 7.10323ZM1.63275 7.97473C1.575 7.96248 1.5085 7.95023 1.449 7.96948C1.4875 8.01848 1.55575 8.07273 1.6275 8.05173C1.64675 8.04298 1.66425 8.02198 1.65725 7.99923L1.63275 7.97473Z" fill="#1D1D1B"/>
<path d="M7.02276 5.17473H6.63776C6.63251 5.09948 6.62376 5.01723 6.60801 4.93498L6.41026 5.00848C6.10051 4.74773 5.97626 4.33123 6.10226 3.95498C6.15126 3.83598 6.20901 3.72223 6.28776 3.61548C6.25976 3.49648 6.27201 3.34598 6.36301 3.25673C6.45576 3.15698 6.58351 3.13598 6.71651 3.15698C6.78651 3.18148 6.85126 3.21998 6.90901 3.27248C7.28876 3.23398 7.64226 3.39323 7.88901 3.70123H7.91701C8.16026 3.64873 8.41051 3.30573 8.66076 3.57523C8.71151 3.65048 8.69226 3.77123 8.64326 3.84123L8.56276 3.92348C8.31076 4.05123 8.06051 4.17548 7.81201 4.31023C7.81376 4.33998 7.85751 4.32948 7.85751 4.36448C8.03601 4.81248 8.06576 5.32523 8.07801 5.83273H8.10776L8.78326 5.37948C9.11401 5.58773 9.32751 5.92723 9.36426 6.29648C9.39226 6.76898 9.16826 7.21173 8.74651 7.43573C8.67826 7.46723 8.61001 7.50748 8.53826 7.53198C8.55751 7.59673 8.61876 7.64398 8.64851 7.70173C8.85501 8.00973 9.01426 8.33523 9.12276 8.68348C9.19451 8.67123 9.25751 8.63973 9.32576 8.61873L9.34501 8.64673C9.37651 8.93023 9.40626 9.21198 9.44126 9.48848C9.44826 9.51298 9.47101 9.52698 9.49376 9.51298C9.71601 9.30998 9.89801 9.00023 10.2253 9.02473C10.4003 9.02473 10.5613 9.11748 10.6435 9.27323C10.7345 9.42373 10.7958 9.64073 10.7013 9.80873C10.479 10.0747 10.1675 10.1955 9.84201 10.2515C9.69501 10.2637 9.53926 10.276 9.39051 10.262C9.34501 10.283 9.38351 10.3267 9.37301 10.3687C9.36951 10.4142 9.40101 10.4772 9.36601 10.514L8.90051 10.689C8.75876 10.689 8.64501 10.57 8.58901 10.4492C8.53126 10.2865 8.51201 10.0922 8.58901 9.93298L8.58201 9.86298C8.45076 9.59348 8.29326 9.33798 8.17076 9.06673C8.20226 9.03523 8.30026 9.04223 8.26176 8.96873C8.10076 8.61523 7.92051 8.26698 7.66501 7.95198C7.57576 8.08323 7.52501 8.23723 7.44451 8.37548L7.19601 8.80773V8.83048L7.34651 8.95123V8.96873L6.73226 9.51998C6.72176 9.53923 6.69901 9.55323 6.70426 9.57773C6.77951 9.63198 6.88101 9.62148 6.97551 9.63198C7.21876 9.63898 7.46201 9.75448 7.56351 9.99248C7.65626 10.1885 7.60726 10.4457 7.46026 10.6015C7.34301 10.7135 7.18376 10.7502 7.02451 10.7222C6.62551 10.6382 6.25451 10.2917 6.05501 9.93298C6.04276 9.92598 6.03751 9.90498 6.01826 9.91023C5.95526 9.94873 5.93776 10.101 5.85201 10.031L5.39876 9.73523C5.35501 9.63373 5.39876 9.52523 5.42151 9.42898C5.47401 9.27673 5.61226 9.11573 5.77676 9.08598C5.85201 9.09298 5.91151 9.03698 5.95001 8.97748L6.34376 8.22848C6.36651 8.21623 6.38751 8.24598 6.41376 8.24598C6.72876 7.65098 7.01926 7.04898 7.07001 6.34023C7.11376 5.96048 7.10151 5.55798 7.02976 5.19573L7.02276 5.17298V5.17473ZM6.68676 3.34948C6.61851 3.32148 6.54676 3.34773 6.49601 3.39498C6.42601 3.46673 6.48376 3.57173 6.49601 3.65223L6.34551 3.86748C6.21426 4.09498 6.18451 4.45023 6.35776 4.66898C6.38926 4.70573 6.41551 4.77048 6.47326 4.77223L8.43676 3.77998C8.46476 3.75023 8.50851 3.73623 8.49976 3.68548C8.48751 3.65748 8.45951 3.67323 8.43676 3.66973L7.86801 3.93573H7.81901L7.71051 3.78523C7.49001 3.52973 7.18026 3.41073 6.83901 3.48248C6.77601 3.44398 6.75676 3.37573 6.68676 3.34948ZM6.81451 4.98048L7.16976 4.99273L7.18726 5.01023C7.38501 5.93948 7.26076 6.95098 6.86876 7.76473C6.77426 7.96773 6.66576 8.16723 6.58351 8.37548C6.73051 8.48923 6.88101 8.59773 7.03151 8.69923C7.18901 8.49623 7.29751 8.25823 7.41476 8.03073C7.49526 7.89248 7.51801 7.72973 7.57226 7.57748C7.92576 7.87848 8.12176 8.26173 8.32126 8.63448C8.37026 8.73773 8.40876 8.84273 8.46651 8.94248C8.62576 8.89348 8.78151 8.82698 8.93551 8.76398V8.72198C8.80776 8.24248 8.53126 7.82423 8.20401 7.42698C8.27751 7.40773 8.34751 7.38673 8.41926 7.36923C8.74301 7.28348 9.09126 6.99298 9.15601 6.64823C9.25051 6.26323 9.10876 5.85373 8.77801 5.61398L8.37201 5.88873V5.92198L8.48401 6.10748C8.56626 6.25623 8.53126 6.46798 8.46651 6.61323C8.33526 6.82148 8.10426 6.87923 7.85751 6.85823C7.83826 6.82848 7.84351 6.78123 7.85051 6.74798C7.86451 6.43998 7.89601 6.14073 7.89251 5.82223C7.89426 5.36898 7.86801 4.92448 7.71401 4.53598C7.59851 4.51848 7.48126 4.53773 7.36576 4.53948C7.17676 4.63923 6.98076 4.72848 6.80226 4.83523L6.81976 4.98048H6.81451ZM8.07976 5.87648C8.06051 6.14073 8.07451 6.37523 8.04651 6.63598L8.06226 6.65523C8.16026 6.64123 8.26001 6.59923 8.30726 6.50298C8.43326 6.25448 8.22501 6.05323 8.07976 5.87648ZM6.41551 8.51548C6.20026 8.76748 6.19676 9.22948 5.79251 9.28023C5.65076 9.33798 5.57551 9.49023 5.57726 9.62848C5.67001 9.68623 5.75401 9.76323 5.85551 9.79823C5.89576 9.75448 5.93776 9.71423 5.99551 9.70723C6.20551 9.67748 6.23701 9.93298 6.34901 10.0485C6.58876 10.2935 6.84251 10.5612 7.19251 10.542C7.26776 10.528 7.34126 10.4772 7.37801 10.4037C7.44101 10.2847 7.44101 10.1132 7.35351 10.0065C7.16451 9.69848 6.73576 9.93473 6.52401 9.68273C6.46801 9.59173 6.52401 9.48498 6.58176 9.40973L7.04551 8.98623V8.96873C6.84951 8.80773 6.63601 8.67123 6.43651 8.51548H6.41551ZM9.16301 8.89348L8.44901 9.17173V9.19973L8.75701 9.78598C8.77801 9.85598 8.78501 9.91898 8.77451 9.99773C8.71151 10.1237 8.71676 10.3022 8.79201 10.4212C8.90051 10.5857 9.04401 10.402 9.17001 10.3915L9.19451 10.367C9.19451 10.3022 9.16301 10.2287 9.19976 10.171C9.24351 10.0782 9.34501 10.0817 9.43251 10.0765C9.70376 10.0975 9.97851 10.0555 10.2165 9.95573C10.3408 9.87698 10.4965 9.82973 10.5648 9.68098C10.5875 9.52523 10.521 9.39573 10.4195 9.28548C10.325 9.21023 10.1938 9.20498 10.0835 9.24348C9.83151 9.34323 9.72476 9.69673 9.44826 9.73348C9.38351 9.72823 9.32751 9.67748 9.29426 9.62148C9.23126 9.39223 9.22426 9.13673 9.18751 8.89523L9.16651 8.88998L9.16301 8.89348Z" fill="#1D1D1B"/>
</svg>
