<svg width="14" height="14" viewBox="0 0 14 14" fill="none" xmlns="http://www.w3.org/2000/svg">
<path d="M11.8073 1.91449C11.1807 5.13274 10.3162 9.59174 10.262 9.99949C10.1692 10.689 9.849 11.1982 8.92675 11.1982H4.99625C4.07575 11.1982 3.75375 10.689 3.66275 9.99949C3.605 9.58124 2.75275 5.07324 2.1595 1.94774C0.8295 3.21999 0 5.01199 0 6.99999C0 10.8657 3.13425 14 7 14C10.8658 14 14 10.8657 14 6.99999C14 4.99624 13.1565 3.19024 11.8073 1.91449Z" fill="#29663F"/>
<path d="M4.99623 11.1982H8.92673C9.84898 11.1982 10.171 10.689 10.262 9.9995C10.3162 9.59175 11.1807 5.1345 11.8072 1.9145C10.5525 0.728 8.86198 0 6.99998 0C5.13798 0 3.41598 0.742 2.15948 1.946C2.75448 5.0715 3.60498 9.5795 3.66273 9.99775C3.75373 10.6873 4.07573 11.1965 4.99623 11.1965V11.1982Z" fill="white"/>
<path d="M8.03076 8.96527H5.73826C5.65601 9.75452 5.61926 10.6383 5.61926 11.6358H7.94501C7.94501 10.871 7.92926 9.90502 8.03076 8.96527Z" fill="#E30613"/>
<path d="M5.99024 7.42351H8.34399C8.63974 6.53801 9.15599 5.83451 10.0502 5.58776V3.21301C7.72624 3.92001 6.52749 5.13976 5.98849 7.42351H5.99024Z" fill="#E30613"/>
<path d="M9.49375 3.21301H3.409V5.32176H6.5415C7.05075 4.57976 8.34575 3.48076 9.49375 3.21301Z" fill="#EA5B0C"/>
<path fill-rule="evenodd" clip-rule="evenodd" d="M4.83875 7.81377V7.53552H4.53075H4.11075V7.81377V8.06227V8.34052V8.58202V8.86027H4.53075H4.83875V8.58202H4.53075V8.34052H4.83875V8.06227H4.53075V7.81377H4.83875Z" fill="#29663F"/>
<path fill-rule="evenodd" clip-rule="evenodd" d="M6.58875 7.81377V7.53552H6.28075H5.86075V7.81377V8.06227V8.34052V8.58202V8.86027H6.28075H6.58875V8.58202H6.28075V8.34052H6.58875V8.06227H6.28075V7.81377H6.58875Z" fill="#29663F"/>
<path fill-rule="evenodd" clip-rule="evenodd" d="M8.5155 7.81377V7.53552H8.20751H7.78751V7.81377V8.06227V8.34052V8.58202V8.86027H8.20751H8.5155V8.58202H8.20751V8.34052H8.5155V8.06227H8.20751V7.81377H8.5155Z" fill="#29663F"/>
<path fill-rule="evenodd" clip-rule="evenodd" d="M5.432 8.59952V7.53552H5.047V8.59952V8.86027H5.432H5.72075L5.75575 8.59952H5.432Z" fill="#29663F"/>
<path fill-rule="evenodd" clip-rule="evenodd" d="M7.66851 7.53898H7.38501L7.19601 8.38598L7.01576 7.53723H6.69376L6.91776 8.86198H7.29751L7.29576 8.86023H7.40951L7.66851 7.53898Z" fill="#29663F"/>
<path fill-rule="evenodd" clip-rule="evenodd" d="M9.7615 7.79975C9.7615 7.735 9.73175 7.68425 9.68275 7.64225C9.604 7.57575 9.5095 7.55125 9.40975 7.54425C9.30475 7.53725 9.19275 7.567 9.1 7.62825V7.53375H8.729V8.86025H9.1V8.79725C9.1 8.51375 9.1 8.23025 9.1 7.94675C9.1 7.861 9.14025 7.8225 9.226 7.8225C9.2925 7.8225 9.32925 7.854 9.338 7.91525V8.862H9.373C9.373 8.862 9.3765 8.862 9.37825 8.862C9.42375 8.862 9.46925 8.862 9.51475 8.862H9.76325V7.79975H9.7615Z" fill="#29663F"/>
</svg>
