<svg width="14" height="14" viewBox="0 0 14 14" fill="none" xmlns="http://www.w3.org/2000/svg">
<path d="M2.55324 7.13647C2.48849 7.13647 2.26099 7.11197 2.26099 7.33597C2.26099 7.45672 2.36949 7.49522 2.39574 7.49522C2.57774 7.49522 2.61624 7.49172 2.64249 7.46897C2.66174 7.45322 2.68274 7.43397 2.68274 7.38847C2.68274 7.34297 2.68274 7.23972 2.68274 7.20647C2.68274 7.16272 2.61449 7.13822 2.55324 7.13822V7.13647Z" fill="white"/>
<path d="M0.6685 9.98728H13.3315C13.7603 9.08078 14 8.06928 14 7.00003C14 6.01653 13.797 5.08203 13.4312 4.23328H0.56875C0.203 5.08203 0 6.01653 0 7.00003C0 8.06928 0.2415 9.08078 0.6685 9.98728ZM5.8905 7.82078H5.509V6.39453H5.8905V7.82078ZM12.6648 6.39453H12.873V6.03403L13.2475 5.86078V6.39278H13.5782V6.76553H13.2475V7.26603C13.2475 7.26603 13.2475 7.45678 13.3857 7.45678C13.524 7.45678 13.559 7.42878 13.559 7.42878V7.78228C13.559 7.78228 13.4995 7.82253 13.3472 7.82253C13.195 7.82253 12.8958 7.78053 12.8748 7.42703V7.41303C12.8748 7.41303 12.8748 7.39728 12.8748 7.38853V6.76728H12.6665V6.39453H12.6648ZM11.704 6.39453H12.0802V6.51353C12.1467 6.45928 12.2832 6.38053 12.369 6.38053C12.4792 6.38053 12.5703 6.43303 12.5703 6.43303V6.84603C12.5703 6.84603 12.4985 6.78828 12.3445 6.78828C12.2255 6.78828 12.1205 6.86353 12.0802 6.89678V7.81903H11.704V6.39278V6.39453ZM10.4405 7.01753C10.472 6.97903 10.6312 6.87753 10.7747 6.87053C11.0005 6.86178 11.06 6.89503 11.0687 6.90028C11.0687 6.90028 11.081 6.90553 11.0828 6.90553C11.0828 6.90553 11.0932 6.90553 11.0985 6.90203C11.1037 6.89853 11.1055 6.87928 11.1055 6.87928C11.0967 6.84428 11.0863 6.81978 11.0723 6.79353C11.067 6.78128 11.0565 6.77078 11.046 6.76028C11.004 6.72528 10.934 6.69378 10.759 6.69903C10.5822 6.70428 10.4563 6.80053 10.4563 6.80053V6.47153C10.4563 6.47153 10.507 6.38753 10.92 6.37703C10.92 6.37703 11.0302 6.37703 11.0337 6.37703C11.4327 6.39453 11.4783 6.72353 11.4835 6.80403C11.4835 6.80928 11.4835 6.81628 11.4835 6.82153C11.4835 7.05253 11.4835 7.28353 11.4835 7.51453C11.4835 7.56178 11.4835 7.59328 11.4835 7.64053C11.4835 7.66853 11.5133 7.74728 11.5273 7.77003C11.536 7.78578 11.5483 7.79803 11.5623 7.81553C11.5518 7.81553 11.151 7.81553 11.151 7.81553C11.151 7.81553 11.1492 7.80853 11.1422 7.79803C11.13 7.77703 11.123 7.75603 11.123 7.73153C11.123 7.72103 11.102 7.71928 11.0897 7.72803C11.074 7.74028 11.0232 7.77703 10.9672 7.79453C10.9147 7.81028 10.7975 7.81728 10.6908 7.81378C10.682 7.81378 10.4738 7.77703 10.4038 7.66153C10.3355 7.54428 10.3057 7.44803 10.3057 7.36578C10.3057 7.12778 10.4002 7.05778 10.4405 7.01053V7.01753ZM8.253 5.78203H8.666C8.666 5.78203 9.13325 6.35778 9.1735 6.40503C9.21375 6.35603 9.681 5.78203 9.681 5.78203H10.094V7.82078H9.681V6.41378C9.681 6.41378 9.2505 6.96503 9.1735 7.06478C9.0965 6.96503 8.66775 6.41553 8.666 6.41378V7.82078H8.253V5.78203ZM7.126 6.39278L7.4235 7.15228L7.7035 6.39278H8.12175C8.12175 6.39278 7.4725 8.15328 7.469 8.17603C7.469 8.17953 7.0455 8.18128 7.0315 8.18128C7.0385 8.16728 7.21525 7.71578 7.2205 7.70703C7.2275 7.69653 6.69025 6.39453 6.69025 6.39453H7.12775L7.126 6.39278ZM6.174 5.78028H6.55375V7.81728H6.174V5.78028ZM5.7015 5.75053C5.83975 5.75053 5.9535 5.86253 5.9535 6.00253C5.9535 6.14253 5.8415 6.25278 5.7015 6.25278C5.5615 6.25278 5.4495 6.14078 5.4495 6.00253C5.4495 5.86428 5.5615 5.75053 5.7015 5.75053ZM3.2935 7.78403V6.54328C3.2935 6.49953 3.2935 6.45403 3.2935 6.41028C3.2935 6.39628 3.29525 6.39103 3.311 6.39103C3.4195 6.39103 3.52975 6.39103 3.63825 6.39103C3.64175 6.39103 3.64525 6.39103 3.65225 6.39278C3.65225 6.42253 3.65225 6.45228 3.65225 6.48203C3.70825 6.41728 3.843 6.37178 4.0005 6.37178C4.20175 6.37178 4.36625 6.44703 4.375 6.53978C4.3855 6.44703 4.56575 6.37178 4.788 6.37178C5.01025 6.37178 5.23425 6.49953 5.25 6.77603V6.77778V7.81728H4.85975V6.88628C4.85975 6.81103 4.76875 6.74803 4.65675 6.74803C4.54475 6.74803 4.45375 6.80928 4.45375 6.88628V7.81728H4.0705V6.88628C4.0705 6.81103 3.9795 6.74803 3.8675 6.74803C3.7555 6.74803 3.6645 6.80928 3.6645 6.88628V7.81728H3.28825V7.78403H3.2935ZM2.64775 6.79003C2.6425 6.77778 2.632 6.76728 2.6215 6.75678C2.5795 6.72178 2.5095 6.69028 2.3345 6.69553C2.15775 6.70078 2.03175 6.79703 2.03175 6.79703V6.46803C2.03175 6.46803 2.0825 6.38403 2.4955 6.37353C2.4955 6.37353 2.60575 6.37353 2.60925 6.37353C3.00825 6.39103 3.05375 6.72003 3.059 6.80053C3.059 6.80578 3.059 6.81278 3.059 6.81803C3.059 7.04903 3.059 7.28003 3.059 7.51103C3.059 7.55828 3.059 7.58978 3.059 7.63703C3.059 7.66503 3.08875 7.74378 3.10275 7.76653C3.1115 7.78228 3.12375 7.79453 3.13775 7.81203C3.12725 7.81203 2.7265 7.81203 2.7265 7.81203C2.7265 7.81203 2.72475 7.80503 2.71775 7.79453C2.7055 7.77353 2.6985 7.75253 2.6985 7.72803C2.6985 7.71753 2.6775 7.71578 2.66525 7.72453C2.6495 7.73678 2.59875 7.77353 2.54275 7.79103C2.49025 7.80678 2.373 7.81378 2.26625 7.81028C2.2575 7.81028 2.04925 7.77353 1.981 7.65803C1.91275 7.54078 1.883 7.44453 1.883 7.36228C1.883 7.12428 1.9775 7.05428 2.016 7.00703C2.0475 6.96853 2.20675 6.86703 2.35025 6.86003C2.57775 6.85128 2.6355 6.88453 2.64425 6.88978C2.64425 6.88978 2.6565 6.89503 2.66 6.89503C2.66 6.89503 2.6705 6.89503 2.67575 6.89153C2.681 6.88803 2.68275 6.86878 2.68275 6.86878C2.674 6.83378 2.6635 6.80928 2.6495 6.78303L2.64775 6.79003ZM0.5635 5.78028H1.883V6.17053H0.9625V6.53103H1.848V6.92128H0.9625V7.81728H0.567V5.78028H0.5635Z" fill="white"/>
<path d="M10.8185 7.49524C11.0005 7.49524 11.039 7.49174 11.067 7.46899C11.0863 7.45324 11.1073 7.43399 11.1073 7.38849C11.1073 7.34299 11.1073 7.23974 11.1073 7.20649C11.1073 7.16274 11.0408 7.13824 10.9778 7.13824C10.9148 7.13824 10.6855 7.11374 10.6855 7.33774C10.6855 7.45849 10.794 7.49699 10.8203 7.49699L10.8185 7.49524Z" fill="white"/>
<path d="M6.99999 14C9.79649 14 12.2097 12.3585 13.3315 9.98724H0.668488C1.78849 12.3585 4.20174 14 6.99999 14Z" fill="#0079C2"/>
<path d="M7.02974 8.18126C7.04374 8.18126 7.46724 8.18126 7.46724 8.17601C7.47074 8.15326 8.11999 6.39276 8.11999 6.39276H7.70174L7.42174 7.15226L7.12424 6.39276H6.68674C6.68674 6.39276 7.22399 7.69476 7.21699 7.70526C7.21174 7.71401 7.03499 8.16551 7.02799 8.17951L7.02974 8.18126Z" fill="#0079C2"/>
<path d="M5.70326 6.25628C5.84151 6.25628 5.95526 6.14428 5.95526 6.00603C5.95526 5.86778 5.84326 5.75403 5.70326 5.75403C5.56326 5.75403 5.45126 5.86603 5.45126 6.00603C5.45126 6.14603 5.56326 6.25628 5.70326 6.25628Z" fill="#0079C2"/>
<path d="M2.66 6.90552C2.66 6.90552 2.646 6.90202 2.64425 6.90027C2.63725 6.89502 2.57775 6.86002 2.35025 6.87052C2.20675 6.87752 2.0475 6.97902 2.016 7.01752C1.9775 7.06477 1.883 7.13477 1.883 7.37277C1.883 7.45327 1.91275 7.55127 1.981 7.66852C2.051 7.78402 2.25925 7.82077 2.26625 7.82077C2.373 7.82427 2.49025 7.81727 2.54275 7.80152C2.59875 7.78402 2.65125 7.74727 2.66525 7.73502C2.67575 7.72627 2.6985 7.72802 2.6985 7.73852C2.6985 7.76302 2.7055 7.78402 2.71775 7.80502C2.72475 7.81552 2.7265 7.82252 2.7265 7.82252C2.7265 7.82252 3.12725 7.82252 3.13775 7.82252C3.12375 7.80502 3.1115 7.79277 3.10275 7.77702C3.0905 7.75427 3.059 7.67552 3.059 7.64752C3.059 7.60027 3.059 7.56877 3.059 7.52152C3.059 7.29052 3.059 7.05952 3.059 6.82852C3.059 6.82327 3.059 6.81627 3.059 6.81102C3.05375 6.73052 3.0065 6.40152 2.60925 6.38402C2.60575 6.38402 2.4955 6.38227 2.4955 6.38402C2.0825 6.39452 2.03175 6.47852 2.03175 6.47852V6.80752C2.03175 6.80752 2.15775 6.71127 2.3345 6.70602C2.5095 6.70077 2.58125 6.73227 2.6215 6.76727C2.632 6.77777 2.64075 6.78827 2.64775 6.80052C2.66175 6.82677 2.67225 6.85127 2.681 6.88627C2.681 6.88627 2.6775 6.90552 2.674 6.90902C2.6705 6.91252 2.65825 6.91252 2.65825 6.91252L2.66 6.90552ZM2.68275 7.38852C2.68275 7.43402 2.66175 7.45327 2.6425 7.46902C2.61625 7.49352 2.57775 7.49527 2.39575 7.49527C2.3695 7.49527 2.261 7.45502 2.261 7.33602C2.261 7.11202 2.4885 7.13652 2.55325 7.13652C2.618 7.13652 2.68275 7.16102 2.68275 7.20477C2.68275 7.23802 2.68275 7.34127 2.68275 7.38677V7.38852Z" fill="#0079C2"/>
<path d="M10.6925 7.82077C10.7992 7.82427 10.9165 7.81727 10.969 7.80152C11.025 7.78402 11.0757 7.74727 11.0915 7.73502C11.102 7.72627 11.1247 7.72802 11.1247 7.73852C11.1247 7.76302 11.1317 7.78402 11.144 7.80502C11.151 7.81552 11.1527 7.82252 11.1527 7.82252C11.1527 7.82252 11.5535 7.82252 11.564 7.82252C11.55 7.80502 11.5377 7.79277 11.529 7.77702C11.515 7.75427 11.4852 7.67552 11.4852 7.64752C11.4852 7.60027 11.4852 7.56877 11.4852 7.52152C11.4852 7.29052 11.4852 7.05952 11.4852 6.82852C11.4852 6.82327 11.4852 6.81627 11.4852 6.81102C11.48 6.73052 11.4327 6.40152 11.0355 6.38402C11.032 6.38402 10.9217 6.38227 10.9217 6.38402C10.5087 6.39452 10.458 6.47852 10.458 6.47852V6.80752C10.458 6.80752 10.584 6.71127 10.7607 6.70602C10.9357 6.70077 11.0057 6.73227 11.0477 6.76727C11.0565 6.77777 11.067 6.78827 11.074 6.80052C11.088 6.82677 11.0985 6.85127 11.1072 6.88627C11.1072 6.88627 11.1037 6.90552 11.1002 6.90902C11.0967 6.91252 11.0845 6.91252 11.0845 6.91252C11.081 6.91252 11.0705 6.90902 11.0705 6.90727C11.0617 6.90202 11.004 6.86702 10.7765 6.87752C10.633 6.88452 10.4737 6.98602 10.4422 7.02452C10.4037 7.07177 10.3075 7.14177 10.3075 7.37977C10.3075 7.46027 10.3372 7.55827 10.4055 7.67552C10.4737 7.79102 10.6837 7.82777 10.6925 7.82777V7.82077ZM10.976 7.13652C11.0372 7.13652 11.1055 7.16102 11.1055 7.20477C11.1055 7.23802 11.1055 7.34127 11.1055 7.38677C11.1055 7.43227 11.0845 7.45152 11.0652 7.46727C11.0372 7.49177 10.9987 7.49352 10.8167 7.49352C10.7905 7.49352 10.682 7.45327 10.682 7.33427C10.682 7.11027 10.9095 7.13477 10.9742 7.13477L10.976 7.13652Z" fill="#0079C2"/>
<path d="M3.67151 6.88974C3.67151 6.81449 3.76251 6.75149 3.87451 6.75149C3.98651 6.75149 4.07751 6.81274 4.07751 6.88974V7.82074H4.46076V6.88974C4.46076 6.81449 4.55176 6.75149 4.66376 6.75149C4.77576 6.75149 4.86676 6.81274 4.86676 6.88974V7.82074H5.25701V6.78124C5.25701 6.78124 5.25701 6.78124 5.25701 6.77949C5.24126 6.50299 5.01551 6.37524 4.79501 6.37524C4.57451 6.37524 4.39251 6.45049 4.38201 6.54324C4.37326 6.45049 4.20876 6.37524 4.00751 6.37524C3.85001 6.37524 3.71526 6.42074 3.65926 6.48549C3.65926 6.45574 3.65926 6.42599 3.65926 6.39624C3.65226 6.39624 3.64876 6.39449 3.64526 6.39449C3.53676 6.39449 3.42651 6.39449 3.31801 6.39449C3.30226 6.39449 3.30051 6.40149 3.30051 6.41374C3.30051 6.45749 3.30051 6.50124 3.30051 6.54674V7.82074H3.67676V6.88974H3.67151Z" fill="#0079C2"/>
<path d="M12.082 6.89851C12.1222 6.86526 12.2272 6.79001 12.3462 6.79001C12.5002 6.79001 12.572 6.84776 12.572 6.84776V6.43476C12.572 6.43476 12.481 6.38226 12.3707 6.38226C12.285 6.38226 12.1485 6.45926 12.082 6.51526V6.39626H11.7057V7.82251H12.082V6.90026V6.89851Z" fill="#0079C2"/>
<path d="M5.89224 6.39447H5.51074V7.82072H5.89224V6.39447Z" fill="#0079C2"/>
<path d="M6.5555 5.78375H6.17575V7.82075H6.5555V5.78375Z" fill="#0079C2"/>
<path d="M0.962486 7.82075V6.92475H1.84799V6.5345H0.962486V6.174H1.88474V5.78375H0.962486H0.566986V6.174V7.82075H0.962486Z" fill="#0079C2"/>
<path d="M12.873 7.38676C12.873 7.39551 12.873 7.40426 12.873 7.41126V7.42526C12.894 7.77876 13.1985 7.82076 13.3455 7.82076C13.4925 7.82076 13.5572 7.78051 13.5572 7.78051V7.42701C13.5572 7.42701 13.5222 7.45501 13.384 7.45501C13.2457 7.45501 13.2457 7.26426 13.2457 7.26426V6.76376H13.5765V6.39101H13.2457V5.85901L12.8712 6.03226V6.39276H12.663V6.76551H12.8712V7.38501L12.873 7.38676Z" fill="#0079C2"/>
<path d="M8.66599 6.4155C8.66599 6.4155 9.09649 6.96675 9.17349 7.0665C9.25049 6.96675 9.67924 6.41725 9.68099 6.4155V7.8225H10.094V5.78375H9.68099C9.68099 5.78375 9.21374 6.3595 9.17349 6.40675C9.13324 6.35775 8.66599 5.78375 8.66599 5.78375H8.25299V7.8225H8.66599V6.4155Z" fill="#0079C2"/>
<path d="M7.00001 0C4.11776 0 1.64151 1.743 0.568756 4.23325H13.4313C12.3585 1.743 9.88401 0 7.00001 0Z" fill="#3AAA35"/>
</svg>
