<svg width="14" height="14" viewBox="0 0 14 14" fill="none" xmlns="http://www.w3.org/2000/svg">
<g clip-path="url(#clip0_26_271)">
<path d="M14 7C14 10.8658 10.8658 14 7 14C3.13425 14 0 10.8658 0 7C0 3.13425 3.13425 0 7 0C10.8658 0 14 3.13425 14 7Z" fill="#2974B1"/>
<path d="M7 13.3385C3.50525 13.3385 0.661499 10.4948 0.661499 7C0.661499 3.50525 3.50525 0.661499 7 0.661499C10.4948 0.661499 13.3385 3.50525 13.3385 7C13.3385 10.4948 10.4948 13.3385 7 13.3385Z" fill="#2974B1"/>
<path d="M6.99999 13.4488C3.44399 13.4488 0.551239 10.556 0.551239 7.00002C0.551239 3.44402 3.44399 0.55127 6.99999 0.55127C10.556 0.55127 13.4487 3.44402 13.4487 7.00002C13.4487 10.556 10.556 13.4488 6.99999 13.4488ZM6.99999 0.77177C3.56649 0.77177 0.771739 3.56652 0.771739 7.00002C0.771739 10.4335 3.56649 13.2283 6.99999 13.2283C10.4335 13.2283 13.2282 10.4335 13.2282 7.00002C13.2282 3.56652 10.4335 0.77177 6.99999 0.77177Z" fill="white"/>
<path fill-rule="evenodd" clip-rule="evenodd" d="M6.26499 5.70851C5.92374 5.68926 5.93249 5.69101 6.00599 5.32176C6.02349 5.23251 5.96924 5.12051 5.92899 5.02776C5.72599 4.54826 5.82924 4.42401 6.35249 4.36276C6.84424 4.30501 7.33774 4.29626 7.82599 4.39776C8.14624 4.46426 8.20574 4.58676 8.09724 4.89301C8.06224 4.98926 8.02024 5.08551 7.99749 5.18526C7.98349 5.25001 8.00449 5.32001 8.00624 5.38651C8.00799 5.47576 8.02899 5.57726 7.99399 5.65251C7.97649 5.68926 7.85224 5.67701 7.77699 5.68751C7.75599 5.69101 7.73324 5.69451 7.71224 5.69801C7.69299 5.72076 7.67374 5.74526 7.65274 5.76801C7.70699 5.79426 7.76999 5.81001 7.81549 5.84676C8.13399 6.10751 8.27749 6.45926 8.28449 6.85826C8.29674 7.65101 8.29149 8.44376 8.28974 9.23651C8.28974 9.49201 8.19874 9.65301 7.94149 9.67051C7.41999 9.70726 6.90724 9.69851 6.37699 9.68801C6.24399 9.68976 6.11099 9.66001 5.97974 9.63901C5.79599 9.60751 5.69449 9.48151 5.69449 9.30826C5.69799 8.41401 5.70324 7.51801 5.73124 6.62201C5.74174 6.32101 5.90624 6.06726 6.13724 5.86951C6.18974 5.82401 6.25974 5.79776 6.32099 5.76276C6.30174 5.74351 6.28424 5.72601 6.26499 5.70676V5.70851ZM7.74549 5.55101C7.84524 5.26751 7.94324 5.00676 8.02899 4.74251C8.06924 4.61826 7.99574 4.54126 7.87849 4.51851C7.28699 4.39776 6.69374 4.39601 6.10399 4.52376C6.04099 4.53776 5.94299 4.65851 5.95524 4.70576C6.03224 4.98751 6.13549 5.26226 6.23524 5.55451C6.41549 5.43201 6.42249 5.28151 6.42249 5.12751C6.42424 4.88251 6.42424 4.88076 6.67274 4.87551C6.89849 4.87201 7.12424 4.88251 7.34824 4.87551C7.51274 4.86851 7.58099 4.92101 7.56174 5.09426C7.54424 5.25876 7.55474 5.42501 7.74549 5.55276V5.55101ZM6.51874 5.65951H7.47599C7.31499 5.55451 6.64649 5.55801 6.51874 5.65951Z" fill="white"/>
<path fill-rule="evenodd" clip-rule="evenodd" d="M5.98674 3.51051C6.05324 3.33201 6.12499 3.15526 6.20199 2.96976C6.15999 2.97151 6.13199 2.97326 6.10399 2.97676C6.06724 2.98026 6.04624 2.96451 6.04449 2.92776C6.04274 2.88751 6.03924 2.84901 6.03574 2.81051C6.03399 2.78076 6.04624 2.76326 6.07949 2.76151C6.22824 2.75101 6.37874 2.74401 6.52749 2.73701C6.56074 2.73701 6.57474 2.74926 6.57474 2.78076C6.57474 2.82276 6.57474 2.86476 6.57824 2.90676C6.57999 2.93826 6.56599 2.95401 6.53274 2.95401C6.50999 2.95401 6.48899 2.95401 6.46624 2.95576C6.42774 2.95926 6.42249 2.96626 6.44174 2.99951C6.49249 3.09226 6.54324 3.18501 6.59224 3.27776C6.62024 3.33201 6.64824 3.38451 6.67624 3.43876C6.68324 3.45101 6.69024 3.46151 6.70074 3.48251C6.71124 3.46501 6.71999 3.45276 6.72524 3.44051C6.80049 3.29001 6.87749 3.13951 6.95624 2.99076C6.97899 2.94876 6.97549 2.94526 6.92649 2.94526C6.90374 2.94526 6.87924 2.94526 6.85649 2.94526C6.82499 2.94526 6.80749 2.93301 6.80574 2.90151C6.80574 2.85776 6.80574 2.81401 6.80399 2.77026C6.80399 2.74226 6.81799 2.72826 6.84774 2.72826C6.99999 2.72651 7.15224 2.72826 7.30449 2.73001C7.33599 2.73001 7.34999 2.75101 7.34999 2.77726C7.34999 2.82101 7.34999 2.86476 7.34649 2.90851C7.34649 2.93651 7.32724 2.95051 7.29749 2.94876C7.17324 2.94526 7.19949 2.93301 7.13649 3.04326C7.02799 3.23576 6.92474 3.43176 6.82674 3.62776C6.80224 3.67851 6.80574 3.68376 6.85999 3.68376C6.95449 3.68376 6.95449 3.68376 6.95624 3.77826C6.95624 3.80451 6.95624 3.83076 6.95624 3.85701C6.95624 3.89026 6.94049 3.90601 6.90899 3.90601C6.77774 3.90601 6.64649 3.91126 6.51524 3.91476C6.47499 3.91476 6.46099 3.90076 6.45749 3.85876C6.45399 3.82026 6.45399 3.78176 6.45224 3.74501C6.45224 3.71001 6.46799 3.69426 6.50124 3.69251C6.51874 3.69251 6.53449 3.69251 6.55199 3.69251C6.59399 3.69426 6.60099 3.68376 6.58174 3.64701C6.51699 3.51926 6.44874 3.39151 6.37874 3.26551C6.36299 3.23751 6.34724 3.20951 6.32974 3.18151C6.32624 3.18151 6.32099 3.18151 6.31749 3.18151C6.24224 3.35651 6.17224 3.53151 6.09874 3.71876C6.13199 3.71701 6.15474 3.71351 6.17924 3.71351C6.24399 3.71176 6.25449 3.72051 6.25799 3.78351C6.25974 3.80976 6.26149 3.83601 6.26324 3.86226C6.26499 3.91126 6.25274 3.93051 6.20374 3.93401C6.07074 3.94276 5.93599 3.94976 5.80299 3.95851C5.79074 3.95851 5.76799 3.94101 5.76624 3.92876C5.75749 3.88326 5.75399 3.83426 5.75049 3.78701C5.74874 3.76076 5.76624 3.74676 5.79074 3.74326C5.81349 3.73976 5.83799 3.73801 5.86074 3.73626C5.88874 3.73626 5.89574 3.72226 5.87999 3.69951C5.83624 3.63126 5.79424 3.56126 5.74874 3.49476C5.65949 3.36001 5.56849 3.22701 5.47574 3.09226C5.44949 3.05551 5.42149 3.03626 5.37424 3.04851C5.36199 3.05201 5.34624 3.05376 5.33399 3.05376C5.30774 3.05376 5.28849 3.04326 5.28499 3.01526C5.27974 2.97151 5.27274 2.92601 5.26749 2.88226C5.26399 2.85601 5.27624 2.84201 5.30424 2.83851C5.45649 2.81926 5.61049 2.80176 5.76449 2.78951C5.77849 2.78951 5.80299 2.80876 5.80474 2.82101C5.81349 2.86826 5.81699 2.91726 5.81699 2.96626C5.81699 2.97851 5.79424 2.99601 5.77849 3.00126C5.75224 3.00826 5.72424 3.00826 5.69624 3.01176C5.65599 3.01701 5.65074 3.02576 5.67349 3.05901C5.74699 3.16751 5.82049 3.27776 5.89224 3.38976C5.91849 3.43176 5.94474 3.47201 5.97274 3.51401C5.97799 3.51401 5.98149 3.51401 5.98674 3.51226V3.51051Z" fill="white"/>
<path fill-rule="evenodd" clip-rule="evenodd" d="M10.4947 3.96552C10.5035 3.94452 10.5105 3.93227 10.514 3.92177C10.5525 3.78877 10.5927 3.65752 10.6312 3.52452C10.6452 3.47727 10.64 3.47202 10.591 3.45627C10.472 3.42127 10.4737 3.43527 10.507 3.31802C10.5402 3.20252 10.5262 3.21127 10.647 3.24627C10.7642 3.27952 10.8797 3.31452 10.9952 3.35302C11.0442 3.36877 11.0495 3.37927 11.0337 3.42477C11.0232 3.45977 11.011 3.49477 11.0005 3.52977C10.9865 3.57177 10.9777 3.57527 10.9305 3.56127C10.9112 3.55427 10.8902 3.54727 10.871 3.54202C10.8395 3.53502 10.8202 3.54202 10.8097 3.57352C10.7467 3.78002 10.6837 3.98477 10.619 4.18952C10.6085 4.22102 10.619 4.23677 10.6487 4.24377H10.6522C10.766 4.27702 10.7572 4.28227 10.7222 4.38552C10.689 4.48702 10.6855 4.48877 10.5857 4.45727C10.4807 4.42402 10.3757 4.38727 10.2707 4.35577C10.2322 4.34527 10.2252 4.32427 10.2357 4.28927C10.2462 4.25777 10.255 4.22627 10.2637 4.19477C10.2812 4.13527 10.283 4.13352 10.3442 4.15102C10.3652 4.15627 10.3845 4.16327 10.4055 4.16852C10.409 4.16327 10.4125 4.15977 10.416 4.15452C10.2847 3.94802 10.1447 3.74327 9.99249 3.53327C9.98549 3.55252 9.98024 3.56127 9.97849 3.57177C9.94524 3.70827 9.91374 3.84477 9.87874 3.98127C9.86999 4.01452 9.88224 4.02677 9.91199 4.03377C9.93649 4.03902 9.96274 4.04777 9.98724 4.05477C10.0205 4.06352 10.031 4.08627 10.0222 4.11777C10.01 4.16152 9.99774 4.20352 9.98024 4.24377C9.97674 4.25427 9.95224 4.26652 9.94174 4.26477C9.80699 4.23327 9.67224 4.20177 9.53749 4.16852C9.52524 4.16502 9.50774 4.13877 9.50949 4.12302C9.51299 4.07927 9.52699 4.03552 9.53574 3.99177C9.54099 3.96727 9.55674 3.95677 9.58124 3.95852C9.58824 3.95852 9.59524 3.95852 9.60049 3.96202C9.66116 3.97252 9.69849 3.94686 9.71249 3.88502C9.75624 3.69252 9.79824 3.50002 9.84374 3.30927C9.85249 3.27602 9.84374 3.26027 9.80699 3.25327C9.68449 3.23052 9.70899 3.22877 9.72824 3.13252C9.73349 3.10802 9.73874 3.08352 9.74399 3.05902C9.74924 3.03452 9.76324 3.02402 9.79124 3.02927C9.93299 3.05902 10.0747 3.09228 10.2147 3.12728C10.262 3.13953 10.269 3.15527 10.2585 3.19727C10.2497 3.23227 10.241 3.26552 10.2322 3.30052C10.22 3.34077 10.2042 3.34952 10.1622 3.33902C10.1342 3.33202 10.1062 3.32677 10.0782 3.32152C10.0747 3.32152 10.0712 3.32502 10.059 3.33027C10.2112 3.53852 10.3565 3.74502 10.4965 3.96377L10.4947 3.96552Z" fill="white"/>
<path fill-rule="evenodd" clip-rule="evenodd" d="M7.93799 2.76152C8.05524 2.77027 8.17249 2.77902 8.28974 2.79127C8.39474 2.80177 8.44899 2.86652 8.43674 2.96452C8.42974 3.02402 8.42274 3.08527 8.41749 3.14477C8.41399 3.17977 8.39474 3.19727 8.35799 3.19202C8.35274 3.19202 8.34749 3.19202 8.34224 3.19202C8.24949 3.18327 8.24599 3.17977 8.25299 3.09052C8.25824 3.02402 8.24424 3.00652 8.17249 2.99952C8.00974 2.98377 7.84524 2.97327 7.68249 2.96452C7.62999 2.96102 7.61424 2.97677 7.61074 3.02577C7.60899 3.07302 7.60549 3.12027 7.60374 3.16752C7.60199 3.21827 7.61599 3.23402 7.66674 3.23577C7.85574 3.24627 8.04299 3.26377 8.23024 3.27777C8.31074 3.28477 8.39649 3.35827 8.38074 3.45977C8.36149 3.58227 8.35274 3.70652 8.33699 3.83077C8.32824 3.91302 8.25999 3.97252 8.17949 3.96552C7.96424 3.94627 7.74724 3.92877 7.53199 3.91827C7.45149 3.91477 7.39374 3.84302 7.39374 3.75027C7.39374 3.67677 7.40249 3.60327 7.40774 3.53152C7.40949 3.50002 7.42524 3.48602 7.45849 3.48777C7.58274 3.49302 7.58099 3.48777 7.57224 3.61027C7.56874 3.68202 7.58449 3.69777 7.65274 3.70302C7.79799 3.71177 7.94324 3.72577 8.08674 3.73977C8.16199 3.74677 8.18474 3.72752 8.19174 3.65052C8.19699 3.60152 8.20224 3.55427 8.20574 3.50527C8.20924 3.44927 8.19524 3.43177 8.13749 3.42652C7.95199 3.40902 7.76649 3.39327 7.58099 3.38802C7.47074 3.38452 7.40599 3.31627 7.40949 3.20602C7.41299 3.10627 7.41474 3.00652 7.41999 2.90677C7.42174 2.86127 7.43224 2.81577 7.46899 2.78077C7.49874 2.75102 7.53374 2.73877 7.57749 2.74052C7.69649 2.74752 7.81374 2.75277 7.93274 2.76152H7.93799Z" fill="white"/>
<path fill-rule="evenodd" clip-rule="evenodd" d="M5.23076 3.80104C5.20451 3.76604 5.17826 3.73104 5.15026 3.69779C5.14326 3.69079 5.12576 3.68904 5.11351 3.69079C4.98576 3.70829 4.85976 3.72929 4.73201 3.75029C4.69526 3.75554 4.67251 3.77479 4.66376 3.80979C4.65501 3.84304 4.64451 3.87454 4.63226 3.91829C4.67601 3.90954 4.70401 3.90429 4.73376 3.89904C4.78451 3.89029 4.79851 3.89904 4.80901 3.94979C4.81601 3.98304 4.81951 4.01804 4.82826 4.05129C4.83701 4.08804 4.82126 4.10904 4.78976 4.11429C4.65326 4.13879 4.51851 4.16504 4.38201 4.18954C4.37151 4.19129 4.34876 4.17554 4.34526 4.16329C4.33126 4.11779 4.32251 4.07229 4.31201 4.02504C4.30501 3.99704 4.32251 3.97954 4.34701 3.97779C4.42401 3.97604 4.44501 3.92704 4.46426 3.86229C4.52726 3.64354 4.60251 3.42654 4.68126 3.20954C4.68651 3.19554 4.69001 3.18329 4.69701 3.16054C4.66551 3.16579 4.63751 3.17104 4.61126 3.17629C4.57101 3.18329 4.55176 3.17279 4.54301 3.13254C4.53426 3.09404 4.52726 3.05554 4.52026 3.01704C4.51326 2.98379 4.52726 2.96454 4.56401 2.95754C4.70926 2.92954 4.85626 2.90504 5.00326 2.88229C5.03476 2.87704 5.05051 2.88929 5.05576 2.91729C5.06101 2.96279 5.06801 3.00829 5.07501 3.05379C5.08026 3.08354 5.06451 3.09754 5.03651 3.10279C5.00326 3.10804 4.97001 3.11329 4.92801 3.12029C4.93851 3.13779 4.94376 3.15004 4.95251 3.16054C5.11701 3.35654 5.27626 3.55429 5.42851 3.75554C5.44426 3.77654 5.46001 3.78004 5.48451 3.77654C5.59126 3.76254 5.59126 3.76429 5.60351 3.87279C5.61576 3.98479 5.61576 3.98479 5.50726 3.99704C5.39876 4.01104 5.29026 4.02679 5.18176 4.04254C5.13276 4.04954 5.11876 4.03904 5.11001 3.98829C5.10476 3.95329 5.10126 3.91829 5.09601 3.88329C5.09076 3.85004 5.10476 3.83079 5.13801 3.82554C5.16776 3.82029 5.19926 3.81679 5.22901 3.81154C5.22901 3.80629 5.23251 3.80279 5.23426 3.79754L5.23076 3.80104ZM4.88076 3.57354C4.91751 3.56654 4.95426 3.56304 4.99101 3.55429C5.02601 3.54554 5.03126 3.52979 5.01026 3.50354C4.96476 3.44754 4.91751 3.39329 4.87026 3.33729C4.85101 3.31454 4.83351 3.31629 4.82301 3.34429C4.79501 3.41429 4.77051 3.48429 4.74426 3.55604C4.73376 3.58579 4.74776 3.59629 4.77576 3.59279C4.81076 3.58754 4.84751 3.58054 4.88251 3.57354H4.88076Z" fill="white"/>
<path fill-rule="evenodd" clip-rule="evenodd" d="M8.54702 3.41077C8.56452 3.27077 8.58377 3.12902 8.59952 2.98902C8.60652 2.90852 8.68527 2.83502 8.78677 2.85252C9.00902 2.88927 9.23302 2.92077 9.45527 2.96452C9.56377 2.98552 9.62152 3.06077 9.60052 3.16052C9.54627 3.43527 9.49027 3.70827 9.43252 3.98302C9.41327 4.07227 9.34327 4.13702 9.23477 4.11427C9.03177 4.07052 8.82702 4.03727 8.62227 4.01452C8.53652 4.00402 8.48052 3.92002 8.49277 3.83952C8.51377 3.69777 8.52952 3.55602 8.54702 3.41427V3.41077ZM9.34852 3.53852C9.36602 3.44227 9.38527 3.34777 9.40277 3.25152C9.41502 3.19202 9.39752 3.16927 9.33452 3.15702C9.17352 3.12727 9.01427 3.10102 8.85327 3.07827C8.78327 3.06777 8.75877 3.08527 8.74827 3.15352C8.72727 3.30052 8.70627 3.44927 8.68702 3.59802C8.68002 3.64177 8.67302 3.68552 8.66952 3.73102C8.66427 3.77652 8.68352 3.80627 8.71852 3.81152C8.87777 3.83777 9.03527 3.86577 9.19452 3.89377C9.25402 3.90427 9.28202 3.88327 9.29252 3.82202C9.31177 3.72752 9.32927 3.63127 9.34677 3.53677L9.34852 3.53852Z" fill="white"/>
<path fill-rule="evenodd" clip-rule="evenodd" d="M3.77475 4.35053C3.647 4.38728 3.5175 4.42578 3.38975 4.46603C3.332 4.48353 3.31275 4.47478 3.2935 4.41703C3.28475 4.38903 3.276 4.36278 3.26725 4.33478C3.2585 4.30678 3.26725 4.28578 3.297 4.27703C3.29875 4.27703 3.30225 4.27528 3.304 4.27528C3.423 4.23853 3.40025 4.24203 3.3705 4.14053C3.31275 3.95153 3.25325 3.76428 3.1955 3.57703C3.17975 3.52803 3.178 3.52628 3.1255 3.54378C3.01 3.58228 3.0135 3.58053 2.9785 3.47378C2.94525 3.36703 2.93825 3.37578 3.052 3.33903C3.17275 3.30053 3.29525 3.26378 3.41775 3.23053C3.47025 3.21653 3.479 3.22003 3.493 3.26728C3.5035 3.30403 3.514 3.34078 3.52275 3.37753C3.5315 3.40728 3.5175 3.42653 3.48775 3.43528C3.46325 3.44403 3.437 3.45103 3.41075 3.45628C3.37575 3.46503 3.367 3.48253 3.3775 3.51403C3.409 3.61728 3.43875 3.72228 3.47025 3.82728C3.5 3.93228 3.53325 4.03553 3.56125 4.14053C3.57175 4.17553 3.58575 4.18253 3.62075 4.17203C3.73625 4.13703 3.85525 4.10378 3.9725 4.07578C4.0075 4.06703 4.018 4.05303 4.0075 4.01803C3.99525 3.97253 3.98475 3.92703 3.9725 3.88153C3.962 3.84653 3.976 3.82553 4.00925 3.81503C4.01275 3.81503 4.01625 3.81328 4.0215 3.81153C4.116 3.78703 4.11775 3.78878 4.13875 3.87978C4.16325 3.97778 4.186 4.07578 4.20875 4.17553C4.21925 4.22453 4.2105 4.23853 4.16325 4.25078C4.032 4.28228 3.9025 4.31728 3.773 4.35403L3.77475 4.35053Z" fill="white"/>
<path fill-rule="evenodd" clip-rule="evenodd" d="M10.5648 10.36C10.5613 10.3372 10.5613 10.325 10.5578 10.3127C10.521 10.1832 10.4843 10.0537 10.4458 9.92425C10.4335 9.87875 10.4265 9.87525 10.3793 9.8875C10.2673 9.91725 10.276 9.926 10.2445 9.81225C10.2148 9.6985 10.2078 9.71425 10.318 9.6845C10.4248 9.6565 10.5298 9.625 10.6365 9.59525C10.6803 9.58125 10.689 9.58825 10.7048 9.632C10.7153 9.667 10.7258 9.70025 10.7363 9.73525C10.7485 9.77725 10.745 9.786 10.6995 9.8C10.6803 9.80525 10.661 9.8105 10.6435 9.8175C10.6155 9.828 10.6033 9.84375 10.6138 9.87525C10.675 10.0765 10.7363 10.2777 10.7958 10.4807C10.8045 10.5122 10.822 10.5192 10.8518 10.507H10.8553C10.9725 10.4685 10.9673 10.4755 11.0005 10.5787C11.0303 10.6785 11.0303 10.6837 10.92 10.7135C10.8045 10.7467 10.6873 10.7747 10.57 10.8045C10.528 10.815 10.5105 10.801 10.5018 10.7677C10.4948 10.7362 10.486 10.7047 10.479 10.6732C10.4633 10.6155 10.465 10.6137 10.5298 10.5962C10.5508 10.591 10.5718 10.5857 10.5945 10.5787C10.5945 10.5735 10.5945 10.5665 10.5945 10.5612C10.3653 10.4597 10.1413 10.353 9.91551 10.2357C9.91726 10.255 9.91726 10.2655 9.92076 10.276C9.95226 10.4107 9.98551 10.5437 10.0153 10.6767C10.0223 10.71 10.0398 10.7152 10.0713 10.7065C10.0975 10.6995 10.1255 10.696 10.1518 10.689C10.1868 10.682 10.2078 10.696 10.2165 10.7257C10.227 10.7677 10.2358 10.8115 10.2393 10.8535C10.2393 10.864 10.2235 10.8867 10.213 10.8885C10.066 10.9252 9.91901 10.9567 9.77026 10.9847C9.75626 10.9865 9.72826 10.969 9.72301 10.955C9.70901 10.9147 9.70376 10.8692 9.69501 10.8272C9.68976 10.8027 9.70201 10.787 9.72476 10.78C9.73176 10.7782 9.73876 10.7765 9.74401 10.7747C9.80701 10.7596 9.83209 10.7217 9.81926 10.661C9.77726 10.472 9.73526 10.2847 9.69501 10.0957C9.68801 10.0625 9.67401 10.052 9.64251 10.0607C9.52876 10.087 9.54801 10.0765 9.52701 9.982C9.52176 9.9575 9.51826 9.93475 9.51301 9.91025C9.50776 9.88575 9.51476 9.87175 9.54101 9.8665C9.66876 9.84025 9.79826 9.8105 9.92601 9.78075C9.96801 9.77025 9.98201 9.78075 9.99251 9.82275C10.0013 9.856 10.01 9.88925 10.017 9.9225C10.0258 9.96275 10.017 9.97675 9.97676 9.98725C9.95051 9.99425 9.92426 10.0012 9.89801 10.0082C9.89451 10.0082 9.89276 10.0135 9.88576 10.0257C10.1045 10.1412 10.3285 10.2515 10.5665 10.3582L10.5648 10.36Z" fill="white"/>
<path fill-rule="evenodd" clip-rule="evenodd" d="M3.80801 9.66001C3.91126 9.68451 4.01451 9.70726 4.11776 9.72826C4.21051 9.74926 4.25251 9.81226 4.23501 9.90501C4.22451 9.96276 4.21226 10.0188 4.20351 10.0748C4.19651 10.108 4.17901 10.122 4.14401 10.115L4.12826 10.1115C4.04076 10.094 4.03726 10.0905 4.05301 10.0065C4.06526 9.94351 4.05301 9.92601 3.98826 9.91201C3.83951 9.88051 3.69076 9.84376 3.54376 9.80701C3.49651 9.79476 3.47901 9.80701 3.46676 9.85251C3.45626 9.89626 3.44401 9.94001 3.43351 9.98376C3.42126 10.031 3.43351 10.0485 3.48076 10.0608C3.65751 10.1063 3.83601 10.15 4.01626 10.1833C4.09326 10.199 4.17026 10.276 4.14751 10.3705C4.11951 10.486 4.10201 10.605 4.07926 10.7223C4.06526 10.801 3.98826 10.85 3.90251 10.8325C3.67326 10.787 3.44576 10.7328 3.22001 10.6715C3.13601 10.6488 3.08876 10.5683 3.10976 10.4808C3.12726 10.4125 3.15001 10.346 3.17101 10.2795C3.17976 10.2498 3.19901 10.241 3.23051 10.2498C3.35126 10.283 3.34951 10.276 3.31976 10.3898C3.30226 10.4563 3.31451 10.4755 3.38626 10.4948C3.53326 10.5333 3.68026 10.57 3.82726 10.6033C3.90426 10.6208 3.93051 10.6033 3.94451 10.5315C3.95326 10.486 3.96376 10.4405 3.97251 10.395C3.98126 10.3425 3.96901 10.325 3.91301 10.3128C3.73276 10.2725 3.55251 10.2288 3.37226 10.185C3.26551 10.1588 3.21826 10.08 3.24626 9.97676C3.27076 9.88401 3.29526 9.79301 3.32151 9.70026C3.33376 9.65826 3.35301 9.61801 3.39326 9.59351C3.42651 9.57251 3.45801 9.56726 3.49651 9.57776C3.59976 9.60576 3.70301 9.63026 3.80801 9.65651V9.66001Z" fill="white"/>
<path fill-rule="evenodd" clip-rule="evenodd" d="M6.20724 11.018C6.18799 10.9795 6.16874 10.9393 6.14774 10.9025C6.14249 10.8938 6.12499 10.8903 6.11274 10.8885C5.98324 10.878 5.85374 10.8675 5.72424 10.8535C5.68574 10.85 5.65949 10.8605 5.64024 10.892C5.62274 10.92 5.60349 10.948 5.57724 10.9848C5.62274 10.99 5.65249 10.9918 5.68224 10.9953C5.73474 11.0005 5.74699 11.0145 5.74349 11.0653C5.73999 11.0985 5.73649 11.1318 5.73474 11.1668C5.73474 11.2035 5.71199 11.2193 5.67874 11.2158C5.53174 11.2018 5.38824 11.1895 5.24124 11.1738C5.21674 11.1738 5.21149 11.137 5.21149 11.1248C5.21149 11.0775 5.22024 11.032 5.22724 10.9865C5.23074 10.9585 5.24999 10.9515 5.27624 10.955C5.31474 10.9568 5.35849 10.962 5.35849 10.962C5.35849 10.962 5.41099 10.9025 5.43024 10.8745C5.55974 10.689 5.68749 10.5193 5.80999 10.332C5.81699 10.3215 5.82399 10.3075 5.83624 10.2883C5.80649 10.2865 5.78199 10.2848 5.75749 10.2813C5.71899 10.2778 5.70674 10.262 5.70849 10.2235C5.71199 10.185 5.71549 10.1465 5.71899 10.108C5.72249 10.0748 5.73824 10.0608 5.77149 10.0625C5.90274 10.0748 6.03574 10.0835 6.16699 10.0905C6.19499 10.0905 6.20724 10.1063 6.20549 10.1343C6.20199 10.1798 6.20024 10.2253 6.19849 10.269C6.19849 10.2988 6.18099 10.311 6.15299 10.3093C6.12149 10.3093 6.08999 10.3058 6.05149 10.3023C6.05674 10.3215 6.05849 10.3355 6.06374 10.346C6.17224 10.57 6.28774 10.7905 6.40849 11.011C6.42074 11.0338 6.43824 11.0408 6.46274 11.0408C6.57299 11.0443 6.57474 11.0443 6.57124 11.151C6.56949 11.2613 6.56949 11.2613 6.45049 11.2595C6.33324 11.256 6.21599 11.2508 6.09874 11.2438C6.04449 11.2403 6.03224 11.228 6.03574 11.1755C6.03749 11.1405 6.04274 11.1055 6.04449 11.0705C6.04624 11.0373 6.06549 11.0215 6.09874 11.0233C6.13024 11.0233 6.16174 11.0268 6.19324 11.0285C6.19674 11.025 6.19849 11.0215 6.20199 11.0163L6.20724 11.018ZM5.91149 10.724C5.94824 10.7258 5.98499 10.731 6.02174 10.731C6.05674 10.731 6.06549 10.717 6.04974 10.6873C6.01824 10.6225 5.98674 10.5595 5.95524 10.4965C5.94299 10.4703 5.92724 10.4668 5.90974 10.4913C5.86774 10.5525 5.82749 10.612 5.78549 10.6733C5.76799 10.6978 5.77849 10.7118 5.80649 10.7153C5.84149 10.7205 5.87824 10.7205 5.91324 10.724H5.91149Z" fill="white"/>
<path fill-rule="evenodd" clip-rule="evenodd" d="M8.54177 10.6033C8.52602 10.465 8.51027 10.3285 8.49102 10.1903C8.48052 10.1115 8.53127 10.0258 8.62577 10.017C8.83052 9.99601 9.03352 9.96101 9.23477 9.92601C9.33277 9.90851 9.40802 9.95576 9.42902 10.0538C9.48502 10.3215 9.53752 10.5893 9.59002 10.8588C9.60577 10.9463 9.56377 11.0338 9.44302 11.0513C9.22077 11.0863 8.99677 11.1195 8.77277 11.1528C8.68002 11.1668 8.59952 11.0985 8.59252 11.0198C8.57852 10.8798 8.55927 10.7415 8.54352 10.6033H8.54177ZM9.34152 10.4878C9.32402 10.395 9.30652 10.3005 9.28902 10.2078C9.27852 10.15 9.25577 10.1343 9.19627 10.1448C9.04577 10.171 8.89352 10.1938 8.74302 10.2148C8.67652 10.2235 8.65902 10.2463 8.66777 10.3128C8.68702 10.458 8.70627 10.6033 8.72552 10.7468C8.73077 10.7905 8.73602 10.8325 8.74302 10.8763C8.75002 10.92 8.77627 10.9445 8.81477 10.9393C8.98277 10.92 9.15252 10.8973 9.31877 10.8675C9.38352 10.857 9.40102 10.8273 9.39052 10.7678C9.37302 10.675 9.35552 10.5823 9.33802 10.4878H9.34152Z" fill="white"/>
<path fill-rule="evenodd" clip-rule="evenodd" d="M6.846 11.27C6.811 11.27 6.783 11.242 6.783 11.207V11.0933C6.783 11.0583 6.811 11.0303 6.846 11.0303H6.9335V10.3758H6.7025V10.5473C6.7025 10.584 6.67275 10.6138 6.636 10.6138H6.55725C6.5205 10.6138 6.49075 10.584 6.49075 10.5473V10.206C6.49075 10.1693 6.5205 10.1395 6.55725 10.1395H7.56525C7.602 10.1395 7.63175 10.1693 7.63175 10.206V10.5473C7.63175 10.584 7.602 10.6138 7.56525 10.6138H7.48475C7.448 10.6138 7.42 10.584 7.42 10.5473V10.3758H7.16625V11.0285H7.2555C7.2905 11.0285 7.3185 11.0583 7.3185 11.0933V11.207C7.3185 11.242 7.2905 11.27 7.2555 11.27H6.846Z" fill="white"/>
<path fill-rule="evenodd" clip-rule="evenodd" d="M4.93326 11.0968C4.93326 11.0968 4.92451 11.0968 4.92101 11.0968L4.52026 11.0198C4.48526 11.0128 4.46251 10.9795 4.46951 10.9445L4.49051 10.8308C4.49576 10.801 4.52201 10.7783 4.55176 10.7783C4.55526 10.7783 4.55876 10.7783 4.56401 10.7783L4.64976 10.7958L4.77226 10.136L4.54476 10.0923L4.51151 10.2655C4.50626 10.2988 4.47826 10.3215 4.44676 10.3215C4.44326 10.3215 4.43801 10.3215 4.43451 10.3215L4.35576 10.3058C4.32076 10.2988 4.29626 10.262 4.30326 10.2253L4.36801 9.88229C4.37326 9.84904 4.40126 9.82629 4.43276 9.82629C4.43626 9.82629 4.44151 9.82629 4.44501 9.82629L5.43551 10.017C5.47051 10.024 5.49501 10.0608 5.48801 10.0975L5.42326 10.4405C5.41626 10.4738 5.39001 10.4965 5.35851 10.4965C5.35851 10.4965 5.34976 10.4965 5.34626 10.4965L5.26751 10.4825C5.23251 10.4755 5.20801 10.4388 5.21501 10.402L5.24651 10.2288L4.99801 10.1815L4.87551 10.8395L4.88251 10.843L4.96301 10.8588C4.99801 10.8658 5.01901 10.899 5.01376 10.934L4.99276 11.0478C4.98751 11.0775 4.96126 11.1003 4.93151 11.1003L4.93326 11.0968Z" fill="white"/>
<path fill-rule="evenodd" clip-rule="evenodd" d="M7.89077 11.2227C7.85927 11.221 7.83477 11.1965 7.83302 11.1667L7.82427 11.0547C7.82252 11.0267 7.83827 11.0022 7.86452 10.9935H7.86802C7.86802 10.9935 7.87852 10.99 7.88377 10.99L7.96952 10.983L7.92227 10.3407L7.83652 10.3477H7.83127C7.79802 10.3477 7.77177 10.3232 7.76827 10.2917L7.75952 10.1797C7.75777 10.1465 7.78227 10.1167 7.81727 10.1132L8.23202 10.0835H8.23377C8.26527 10.087 8.28977 10.1097 8.29152 10.1412L8.30027 10.2532C8.30202 10.2795 8.28627 10.3057 8.26002 10.3145H8.25652C8.25652 10.3145 8.24602 10.3197 8.24077 10.3197L8.15502 10.3267L8.20227 10.969L8.28802 10.962H8.29327C8.32652 10.962 8.35277 10.9865 8.35627 11.0197L8.36502 11.1317C8.36677 11.165 8.34052 11.1947 8.30727 11.1982L7.89252 11.228H7.89077V11.2227Z" fill="white"/>
</g>
<defs>
<clipPath id="clip0_26_271">
<rect width="14" height="14" fill="white"/>
</clipPath>
</defs>
</svg>
