<svg width="14" height="14" viewBox="0 0 14 14" fill="none" xmlns="http://www.w3.org/2000/svg">
<path d="M0 7C0 10.8605 3.14125 14 7 14C10.8587 14 14 10.8605 14 7C14 3.1395 10.8587 0 7 0C3.14125 0 0 3.1395 0 7Z" fill="#EC6608"/>
<path d="M12.5248 6.972C12.5248 10.0415 10.038 12.5283 6.96851 12.5283C3.89901 12.5283 1.41226 10.0415 1.41226 6.972C1.41226 3.9025 3.89726 1.414 6.96676 1.414C10.0363 1.414 12.523 3.9025 12.523 6.97025" fill="white"/>
<path d="M7.02099 0.808472C3.61374 0.808472 0.850494 3.57172 0.850494 6.97897C0.850494 10.3862 3.61199 13.1495 7.01924 13.1495C10.4265 13.1495 13.188 10.3862 13.188 6.97897C13.188 3.57172 10.4265 0.808472 7.02099 0.808472ZM11.0267 10.0047L8.38074 6.41022L9.78599 4.98047C10.0485 4.71797 10.5735 3.90772 9.76324 3.14647C8.9775 2.40622 8.18999 3.02747 7.90474 3.31272C7.71399 3.50347 6.30874 4.88597 6.30874 4.88597V4.05122C6.30874 3.86047 6.02174 2.90672 5.09424 2.90672C4.11599 2.90672 3.75899 3.93047 3.75899 4.26472V9.69847C3.75899 9.69847 3.80624 10.8902 5.04524 10.8902C6.28424 10.8902 6.30874 9.69847 6.30874 9.69847V7.91172L9.12274 11.5412C8.47699 11.8405 7.75774 12.0085 6.99999 12.0085C4.21049 12.0085 1.94949 9.74922 1.94949 6.95972C1.94949 4.17022 4.21049 1.90922 6.99999 1.90922C9.78949 1.90922 12.0487 4.17022 12.0487 6.95972C12.0487 8.10422 11.6672 9.15947 11.0267 10.0065" fill="#E30613"/>
</svg>
