<svg width="65" height="14" viewBox="0 0 65 14" fill="none" xmlns="http://www.w3.org/2000/svg">
<g clip-path="url(#clip0_386_7848)">
<path d="M2.93395 12.9848C2.62033 13.1457 2.26445 12.8638 2.32783 12.5038L3.0022 8.66071L0.139773 5.93397C-0.127539 5.67884 0.0113986 5.21247 0.36971 5.16209L4.34932 4.5966L6.12382 1.08092C6.28388 0.764043 6.71694 0.764043 6.87701 1.08092L8.6515 4.5966L12.6311 5.16209C12.9894 5.21247 13.1284 5.67884 12.8602 5.93397L9.99862 8.66071L10.673 12.5038C10.7364 12.8638 10.3805 13.1457 10.0669 12.9848L6.49919 11.1518L2.93314 12.9848H2.93395Z" fill="url(#paint0_linear_386_7848)"/>
<path d="M15.934 12.9848C15.6203 13.1457 15.2645 12.8638 15.3278 12.5038L16.0022 8.66071L13.1398 5.93397C12.8725 5.67884 13.0114 5.21247 13.3697 5.16209L17.3493 4.5966L19.1238 1.08092C19.2839 0.764043 19.7169 0.764043 19.877 1.08092L21.6515 4.5966L25.6311 5.16209C25.9894 5.21247 26.1284 5.67884 25.8602 5.93397L22.9986 8.66071L23.673 12.5038C23.7364 12.8638 23.3805 13.1457 23.0669 12.9848L19.4992 11.1518L15.9331 12.9848H15.934Z" fill="url(#paint1_linear_386_7848)"/>
<path d="M28.934 12.9848C28.6203 13.1457 28.2645 12.8638 28.3278 12.5038L29.0022 8.66071L26.1398 5.93397C25.8725 5.67884 26.0114 5.21247 26.3697 5.16209L30.3493 4.5966L32.1238 1.08092C32.2839 0.764043 32.7169 0.764043 32.877 1.08092L34.6515 4.5966L38.6311 5.16209C38.9894 5.21247 39.1284 5.67884 38.8602 5.93397L35.9986 8.66071L36.673 12.5038C36.7364 12.8638 36.3805 13.1457 36.0669 12.9848L32.4992 11.1518L28.9331 12.9848H28.934Z" fill="url(#paint2_linear_386_7848)"/>
<path d="M41.934 12.9848C41.6203 13.1457 41.2645 12.8638 41.3278 12.5038L42.0022 8.66071L39.1398 5.93397C38.8725 5.67884 39.0114 5.21247 39.3697 5.16209L43.3493 4.5966L45.1238 1.08092C45.2839 0.764043 45.7169 0.764043 45.877 1.08092L47.6515 4.5966L51.6311 5.16209C51.9894 5.21247 52.1284 5.67884 51.8602 5.93397L48.9986 8.66071L49.673 12.5038C49.7364 12.8638 49.3805 13.1457 49.0669 12.9848L45.4992 11.1518L41.9331 12.9848H41.934Z" fill="url(#paint3_linear_386_7848)"/>
<path d="M54.934 12.9848C54.6203 13.1457 54.2645 12.8638 54.3278 12.5038L55.0022 8.66071L52.1398 5.93397C51.8725 5.67884 52.0114 5.21247 52.3697 5.16209L56.3493 4.5966L58.1238 1.08092C58.2839 0.764043 58.7169 0.764043 58.877 1.08092L60.6515 4.5966L64.6311 5.16209C64.9894 5.21247 65.1284 5.67884 64.8602 5.93397L61.9986 8.66071L62.673 12.5038C62.7364 12.8638 62.3805 13.1457 62.0669 12.9848L58.4992 11.1518L54.9331 12.9848H54.934Z" fill="url(#paint4_linear_386_7848)"/>
</g>
<defs>
<linearGradient id="paint0_linear_386_7848" x1="6.50031" y1="0.843262" x2="6.50031" y2="13.0311" gradientUnits="userSpaceOnUse">
<stop offset="0.523538" stop-color="#FFC226"/>
<stop offset="0.523638" stop-color="#FFCF53"/>
</linearGradient>
<linearGradient id="paint1_linear_386_7848" x1="19.5003" y1="0.843262" x2="19.5003" y2="13.0311" gradientUnits="userSpaceOnUse">
<stop offset="0.523538" stop-color="#FFC226"/>
<stop offset="0.523638" stop-color="#FFCF53"/>
</linearGradient>
<linearGradient id="paint2_linear_386_7848" x1="32.5003" y1="0.843262" x2="32.5003" y2="13.0311" gradientUnits="userSpaceOnUse">
<stop offset="0.523538" stop-color="#FFC226"/>
<stop offset="0.523638" stop-color="#FFCF53"/>
</linearGradient>
<linearGradient id="paint3_linear_386_7848" x1="45.5003" y1="0.843262" x2="45.5003" y2="13.0311" gradientUnits="userSpaceOnUse">
<stop offset="0.523538" stop-color="#FFC226"/>
<stop offset="0.523638" stop-color="#FFCF53"/>
</linearGradient>
<linearGradient id="paint4_linear_386_7848" x1="58.5003" y1="0.843262" x2="58.5003" y2="13.0311" gradientUnits="userSpaceOnUse">
<stop offset="0.523538" stop-color="#FFC226"/>
<stop offset="0.523638" stop-color="#FFCF53"/>
</linearGradient>
<clipPath id="clip0_386_7848">
<rect width="65" height="12.1879" fill="white" transform="translate(0.000305176 0.843262)"/>
</clipPath>
</defs>
</svg>
