<svg width="65" height="15" viewBox="0 0 65 15" fill="none" xmlns="http://www.w3.org/2000/svg">
<g clip-path="url(#clip0_386_7894)">
<path d="M2.93426 13.8281C2.62063 13.989 2.26476 13.707 2.32813 13.3471L3.00251 9.50397L0.140078 6.77723C-0.127233 6.5221 0.0117037 6.05573 0.370015 6.00536L4.34963 5.43986L6.12412 1.92418C6.28419 1.6073 6.71725 1.6073 6.87731 1.92418L8.65181 5.43986L12.6314 6.00536C12.9897 6.05573 13.1287 6.5221 12.8605 6.77723L9.99893 9.50397L10.6733 13.3471C10.7367 13.707 10.3808 13.989 10.0672 13.8281L6.4995 11.9951L2.93345 13.8281H2.93426Z" fill="url(#paint0_linear_386_7894)"/>
<path d="M15.9343 13.8281C15.6206 13.989 15.2648 13.707 15.3281 13.3471L16.0025 9.50397L13.1401 6.77723C12.8728 6.5221 13.0117 6.05573 13.37 6.00536L17.3496 5.43986L19.1241 1.92418C19.2842 1.6073 19.7172 1.6073 19.8773 1.92418L21.6518 5.43986L25.6314 6.00536C25.9897 6.05573 26.1287 6.5221 25.8605 6.77723L22.9989 9.50397L23.6733 13.3471C23.7367 13.707 23.3808 13.989 23.0672 13.8281L19.4995 11.9951L15.9334 13.8281H15.9343Z" fill="url(#paint1_linear_386_7894)"/>
<path d="M28.9343 13.8281C28.6206 13.989 28.2648 13.707 28.3281 13.3471L29.0025 9.50397L26.1401 6.77723C25.8728 6.5221 26.0117 6.05573 26.37 6.00536L30.3496 5.43986L32.1241 1.92418C32.2842 1.6073 32.7172 1.6073 32.8773 1.92418L34.6518 5.43986L38.6314 6.00536C38.9897 6.05573 39.1287 6.5221 38.8605 6.77723L35.9989 9.50397L36.6733 13.3471C36.7367 13.707 36.3808 13.989 36.0672 13.8281L32.4995 11.9951L28.9334 13.8281H28.9343Z" fill="url(#paint2_linear_386_7894)"/>
<path d="M41.9343 13.8281C41.6206 13.989 41.2648 13.707 41.3281 13.3471L42.0025 9.50397L39.1401 6.77723C38.8728 6.5221 39.0117 6.05573 39.37 6.00536L43.3496 5.43986L45.1241 1.92418C45.2842 1.6073 45.7172 1.6073 45.8773 1.92418L47.6518 5.43986L51.6314 6.00536C51.9897 6.05573 52.1287 6.5221 51.8605 6.77723L48.9989 9.50397L49.6733 13.3471C49.7367 13.707 49.3808 13.989 49.0672 13.8281L45.4995 11.9951L41.9334 13.8281H41.9343Z" fill="url(#paint3_linear_386_7894)"/>
<path d="M54.9343 13.8281C54.6206 13.989 54.2648 13.707 54.3281 13.3471L55.0025 9.50397L52.1401 6.77723C51.8728 6.5221 52.0117 6.05573 52.37 6.00536L56.3496 5.43986L58.1241 1.92418C58.2842 1.6073 58.7172 1.6073 58.8773 1.92418L60.6518 5.43986L64.6314 6.00536C64.9897 6.05573 65.1287 6.5221 64.8605 6.77723L61.9989 9.50397L62.6733 13.3471C62.7367 13.707 62.3808 13.989 62.0672 13.8281L58.4995 11.9951L54.9334 13.8281H54.9343Z" fill="url(#paint4_linear_386_7894)"/>
<mask id="mask0_386_7894" style="mask-type:alpha" maskUnits="userSpaceOnUse" x="52" y="1" width="14" height="13">
<path d="M54.9343 13.8281C54.6206 13.989 54.2648 13.707 54.3281 13.3471L55.0025 9.50397L52.1401 6.77723C51.8728 6.5221 52.0117 6.05573 52.37 6.00536L56.3496 5.43986L58.1241 1.92418C58.2842 1.6073 58.7172 1.6073 58.8773 1.92418L60.6518 5.43986L64.6314 6.00536C64.9897 6.05573 65.1287 6.5221 64.8605 6.77723L61.9989 9.50397L62.6733 13.3471C62.7367 13.707 62.3808 13.989 62.0672 13.8281L58.4995 11.9951L54.9334 13.8281H54.9343Z" fill="url(#paint5_linear_386_7894)"/>
</mask>
<g mask="url(#mask0_386_7894)">
<rect x="58.5006" y="0.836548" width="7" height="13" fill="#F5F4EF"/>
</g>
</g>
<defs>
<linearGradient id="paint0_linear_386_7894" x1="6.50061" y1="1.68652" x2="6.50061" y2="13.8744" gradientUnits="userSpaceOnUse">
<stop offset="0.523538" stop-color="#FFC226"/>
<stop offset="0.523638" stop-color="#FFCF53"/>
</linearGradient>
<linearGradient id="paint1_linear_386_7894" x1="19.5006" y1="1.68652" x2="19.5006" y2="13.8744" gradientUnits="userSpaceOnUse">
<stop offset="0.523538" stop-color="#FFC226"/>
<stop offset="0.523638" stop-color="#FFCF53"/>
</linearGradient>
<linearGradient id="paint2_linear_386_7894" x1="32.5006" y1="1.68652" x2="32.5006" y2="13.8744" gradientUnits="userSpaceOnUse">
<stop offset="0.523538" stop-color="#FFC226"/>
<stop offset="0.523638" stop-color="#FFCF53"/>
</linearGradient>
<linearGradient id="paint3_linear_386_7894" x1="45.5006" y1="1.68652" x2="45.5006" y2="13.8744" gradientUnits="userSpaceOnUse">
<stop offset="0.523538" stop-color="#FFC226"/>
<stop offset="0.523638" stop-color="#FFCF53"/>
</linearGradient>
<linearGradient id="paint4_linear_386_7894" x1="58.5006" y1="1.68652" x2="58.5006" y2="13.8744" gradientUnits="userSpaceOnUse">
<stop offset="0.523538" stop-color="#FFC226"/>
<stop offset="0.523638" stop-color="#FFCF53"/>
</linearGradient>
<linearGradient id="paint5_linear_386_7894" x1="58.5006" y1="1.68652" x2="58.5006" y2="13.8744" gradientUnits="userSpaceOnUse">
<stop offset="0.523538" stop-color="#FFC226"/>
<stop offset="0.523638" stop-color="#FFCF53"/>
</linearGradient>
<clipPath id="clip0_386_7894">
<rect width="65.0003" height="14" fill="white" transform="translate(0.000305176 0.843262)"/>
</clipPath>
</defs>
</svg>
