<svg width="66" height="15" viewBox="0 0 66 15" fill="none" xmlns="http://www.w3.org/2000/svg">
<g clip-path="url(#clip0_386_7896)">
<path d="M2.93487 13.8281C2.62124 13.989 2.26537 13.707 2.32875 13.3471L3.00312 9.50397L0.140689 6.77723C-0.126623 6.5221 0.0123141 6.05573 0.370626 6.00536L4.35024 5.43986L6.12474 1.92418C6.2848 1.6073 6.71786 1.6073 6.87792 1.92418L8.65242 5.43986L12.632 6.00536C12.9903 6.05573 13.1293 6.5221 12.8612 6.77723L9.99954 9.50397L10.6739 13.3471C10.7373 13.707 10.3814 13.989 10.0678 13.8281L6.50011 11.9951L2.93406 13.8281H2.93487Z" fill="url(#paint0_linear_386_7896)"/>
<path d="M15.9349 13.8281C15.6212 13.989 15.2654 13.707 15.3287 13.3471L16.0031 9.50397L13.1407 6.77723C12.8734 6.5221 13.0123 6.05573 13.3706 6.00536L17.3502 5.43986L19.1247 1.92418C19.2848 1.6073 19.7179 1.6073 19.8779 1.92418L21.6524 5.43986L25.632 6.00536C25.9903 6.05573 26.1293 6.5221 25.8612 6.77723L22.9995 9.50397L23.6739 13.3471C23.7373 13.707 23.3814 13.989 23.0678 13.8281L19.5001 11.9951L15.9341 13.8281H15.9349Z" fill="url(#paint1_linear_386_7896)"/>
<path d="M28.9349 13.8281C28.6212 13.989 28.2654 13.707 28.3287 13.3471L29.0031 9.50397L26.1407 6.77723C25.8734 6.5221 26.0123 6.05573 26.3706 6.00536L30.3502 5.43986L32.1247 1.92418C32.2848 1.6073 32.7179 1.6073 32.8779 1.92418L34.6524 5.43986L38.632 6.00536C38.9903 6.05573 39.1293 6.5221 38.8612 6.77723L35.9995 9.50397L36.6739 13.3471C36.7373 13.707 36.3814 13.989 36.0678 13.8281L32.5001 11.9951L28.9341 13.8281H28.9349Z" fill="url(#paint2_linear_386_7896)"/>
<path d="M41.9349 13.8281C41.6212 13.989 41.2654 13.707 41.3287 13.3471L42.0031 9.50397L39.1407 6.77723C38.8734 6.5221 39.0123 6.05573 39.3706 6.00536L43.3502 5.43986L45.1247 1.92418C45.2848 1.6073 45.7179 1.6073 45.8779 1.92418L47.6524 5.43986L51.632 6.00536C51.9903 6.05573 52.1293 6.5221 51.8612 6.77723L48.9995 9.50397L49.6739 13.3471C49.7373 13.707 49.3814 13.989 49.0678 13.8281L45.5001 11.9951L41.9341 13.8281H41.9349Z" fill="url(#paint3_linear_386_7896)"/>
<mask id="mask0_386_7896" style="mask-type:alpha" maskUnits="userSpaceOnUse" x="39" y="1" width="14" height="13">
<path d="M41.9349 13.8281C41.6212 13.989 41.2654 13.707 41.3287 13.3471L42.0031 9.50397L39.1407 6.77723C38.8734 6.5221 39.0123 6.05573 39.3706 6.00536L43.3502 5.43986L45.1247 1.92418C45.2848 1.6073 45.7179 1.6073 45.8779 1.92418L47.6524 5.43986L51.632 6.00536C51.9903 6.05573 52.1293 6.5221 51.8612 6.77723L48.9995 9.50397L49.6739 13.3471C49.7373 13.707 49.3814 13.989 49.0678 13.8281L45.5001 11.9951L41.9341 13.8281H41.9349Z" fill="url(#paint4_linear_386_7896)"/>
</mask>
<g mask="url(#mask0_386_7896)">
<rect x="45.5009" y="1" width="7" height="13" fill="#F5F4EF"/>
</g>
<mask id="mask1_386_7896" style="mask-type:alpha" maskUnits="userSpaceOnUse" x="52" y="1" width="14" height="13">
<path d="M54.9349 13.8281C54.6212 13.989 54.2654 13.707 54.3287 13.3471L55.0031 9.50397L52.1407 6.77723C51.8734 6.5221 52.0123 6.05573 52.3706 6.00536L56.3502 5.43986L58.1247 1.92418C58.2848 1.6073 58.7179 1.6073 58.8779 1.92418L60.6524 5.43986L64.632 6.00536C64.9903 6.05573 65.1293 6.5221 64.8612 6.77723L61.9995 9.50397L62.6739 13.3471C62.7373 13.707 62.3814 13.989 62.0678 13.8281L58.5001 11.9951L54.9341 13.8281H54.9349Z" fill="url(#paint5_linear_386_7896)"/>
</mask>
<g mask="url(#mask1_386_7896)">
<rect x="52.0003" y="1" width="14" height="13" fill="#F5F4EF"/>
</g>
</g>
<defs>
<linearGradient id="paint0_linear_386_7896" x1="6.50122" y1="1.68652" x2="6.50122" y2="13.8744" gradientUnits="userSpaceOnUse">
<stop offset="0.523538" stop-color="#FFC226"/>
<stop offset="0.523638" stop-color="#FFCF53"/>
</linearGradient>
<linearGradient id="paint1_linear_386_7896" x1="19.5012" y1="1.68652" x2="19.5012" y2="13.8744" gradientUnits="userSpaceOnUse">
<stop offset="0.523538" stop-color="#FFC226"/>
<stop offset="0.523638" stop-color="#FFCF53"/>
</linearGradient>
<linearGradient id="paint2_linear_386_7896" x1="32.5012" y1="1.68652" x2="32.5012" y2="13.8744" gradientUnits="userSpaceOnUse">
<stop offset="0.523538" stop-color="#FFC226"/>
<stop offset="0.523638" stop-color="#FFCF53"/>
</linearGradient>
<linearGradient id="paint3_linear_386_7896" x1="45.5012" y1="1.68652" x2="45.5012" y2="13.8744" gradientUnits="userSpaceOnUse">
<stop offset="0.523538" stop-color="#FFC226"/>
<stop offset="0.523638" stop-color="#FFCF53"/>
</linearGradient>
<linearGradient id="paint4_linear_386_7896" x1="45.5012" y1="1.68652" x2="45.5012" y2="13.8744" gradientUnits="userSpaceOnUse">
<stop offset="0.523538" stop-color="#FFC226"/>
<stop offset="0.523638" stop-color="#FFCF53"/>
</linearGradient>
<linearGradient id="paint5_linear_386_7896" x1="58.5012" y1="1.68652" x2="58.5012" y2="13.8744" gradientUnits="userSpaceOnUse">
<stop offset="0.523538" stop-color="#FFC226"/>
<stop offset="0.523638" stop-color="#FFCF53"/>
</linearGradient>
<clipPath id="clip0_386_7896">
<rect width="65.0003" height="14" fill="white" transform="translate(0.000915527 0.843262)"/>
</clipPath>
</defs>
</svg>
