<svg width="65" height="15" viewBox="0 0 65 15" fill="none" xmlns="http://www.w3.org/2000/svg">
<g clip-path="url(#clip0_386_7895)">
<path d="M2.93456 13.8281C2.62094 13.989 2.26507 13.707 2.32844 13.3471L3.00281 9.50397L0.140384 6.77723C-0.126928 6.5221 0.0120089 6.05573 0.37032 6.00536L4.34993 5.43986L6.12443 1.92418C6.28449 1.6073 6.71755 1.6073 6.87762 1.92418L8.65211 5.43986L12.6317 6.00536C12.99 6.05573 13.129 6.5221 12.8608 6.77723L9.99923 9.50397L10.6736 13.3471C10.737 13.707 10.3811 13.989 10.0675 13.8281L6.4998 11.9951L2.93375 13.8281H2.93456Z" fill="url(#paint0_linear_386_7895)"/>
<path d="M15.9346 13.8281C15.6209 13.989 15.2651 13.707 15.3284 13.3471L16.0028 9.50397L13.1404 6.77723C12.8731 6.5221 13.012 6.05573 13.3703 6.00536L17.3499 5.43986L19.1244 1.92418C19.2845 1.6073 19.7176 1.6073 19.8776 1.92418L21.6521 5.43986L25.6317 6.00536C25.99 6.05573 26.129 6.5221 25.8608 6.77723L22.9992 9.50397L23.6736 13.3471C23.737 13.707 23.3811 13.989 23.0675 13.8281L19.4998 11.9951L15.9338 13.8281H15.9346Z" fill="url(#paint1_linear_386_7895)"/>
<path d="M28.9346 13.8281C28.6209 13.989 28.2651 13.707 28.3284 13.3471L29.0028 9.50397L26.1404 6.77723C25.8731 6.5221 26.012 6.05573 26.3703 6.00536L30.3499 5.43986L32.1244 1.92418C32.2845 1.6073 32.7176 1.6073 32.8776 1.92418L34.6521 5.43986L38.6317 6.00536C38.99 6.05573 39.129 6.5221 38.8608 6.77723L35.9992 9.50397L36.6736 13.3471C36.737 13.707 36.3811 13.989 36.0675 13.8281L32.4998 11.9951L28.9338 13.8281H28.9346Z" fill="url(#paint2_linear_386_7895)"/>
<path d="M41.9346 13.8281C41.6209 13.989 41.2651 13.707 41.3284 13.3471L42.0028 9.50397L39.1404 6.77723C38.8731 6.5221 39.012 6.05573 39.3703 6.00536L43.3499 5.43986L45.1244 1.92418C45.2845 1.6073 45.7176 1.6073 45.8776 1.92418L47.6521 5.43986L51.6317 6.00536C51.99 6.05573 52.129 6.5221 51.8608 6.77723L48.9992 9.50397L49.6736 13.3471C49.737 13.707 49.3811 13.989 49.0675 13.8281L45.4998 11.9951L41.9338 13.8281H41.9346Z" fill="url(#paint3_linear_386_7895)"/>
<path d="M54.9346 13.8281C54.6209 13.989 54.2651 13.707 54.3284 13.3471L55.0028 9.50397L52.1404 6.77723C51.8731 6.5221 52.012 6.05573 52.3703 6.00536L56.3499 5.43986L58.1244 1.92418C58.2845 1.6073 58.7176 1.6073 58.8776 1.92418L60.6521 5.43986L64.6317 6.00536C64.99 6.05573 65.129 6.5221 64.8608 6.77723L61.9992 9.50397L62.6736 13.3471C62.737 13.707 62.3811 13.989 62.0675 13.8281L58.4998 11.9951L54.9338 13.8281H54.9346Z" fill="url(#paint4_linear_386_7895)"/>
<mask id="mask0_386_7895" style="mask-type:alpha" maskUnits="userSpaceOnUse" x="52" y="1" width="14" height="13">
<path d="M54.9346 13.8281C54.6209 13.989 54.2651 13.707 54.3284 13.3471L55.0028 9.50397L52.1404 6.77723C51.8731 6.5221 52.012 6.05573 52.3703 6.00536L56.3499 5.43986L58.1244 1.92418C58.2845 1.6073 58.7176 1.6073 58.8776 1.92418L60.6521 5.43986L64.6317 6.00536C64.99 6.05573 65.129 6.5221 64.8608 6.77723L61.9992 9.50397L62.6736 13.3471C62.737 13.707 62.3811 13.989 62.0675 13.8281L58.4998 11.9951L54.9338 13.8281H54.9346Z" fill="url(#paint5_linear_386_7895)"/>
</mask>
<g mask="url(#mask0_386_7895)">
<rect x="52" y="1" width="14" height="13" fill="#F5F4EF"/>
</g>
</g>
<defs>
<linearGradient id="paint0_linear_386_7895" x1="6.50092" y1="1.68652" x2="6.50092" y2="13.8744" gradientUnits="userSpaceOnUse">
<stop offset="0.523538" stop-color="#FFC226"/>
<stop offset="0.523638" stop-color="#FFCF53"/>
</linearGradient>
<linearGradient id="paint1_linear_386_7895" x1="19.5009" y1="1.68652" x2="19.5009" y2="13.8744" gradientUnits="userSpaceOnUse">
<stop offset="0.523538" stop-color="#FFC226"/>
<stop offset="0.523638" stop-color="#FFCF53"/>
</linearGradient>
<linearGradient id="paint2_linear_386_7895" x1="32.5009" y1="1.68652" x2="32.5009" y2="13.8744" gradientUnits="userSpaceOnUse">
<stop offset="0.523538" stop-color="#FFC226"/>
<stop offset="0.523638" stop-color="#FFCF53"/>
</linearGradient>
<linearGradient id="paint3_linear_386_7895" x1="45.5009" y1="1.68652" x2="45.5009" y2="13.8744" gradientUnits="userSpaceOnUse">
<stop offset="0.523538" stop-color="#FFC226"/>
<stop offset="0.523638" stop-color="#FFCF53"/>
</linearGradient>
<linearGradient id="paint4_linear_386_7895" x1="58.5009" y1="1.68652" x2="58.5009" y2="13.8744" gradientUnits="userSpaceOnUse">
<stop offset="0.523538" stop-color="#FFC226"/>
<stop offset="0.523638" stop-color="#FFCF53"/>
</linearGradient>
<linearGradient id="paint5_linear_386_7895" x1="58.5009" y1="1.68652" x2="58.5009" y2="13.8744" gradientUnits="userSpaceOnUse">
<stop offset="0.523538" stop-color="#FFC226"/>
<stop offset="0.523638" stop-color="#FFCF53"/>
</linearGradient>
<clipPath id="clip0_386_7895">
<rect width="65.0003" height="14" fill="white" transform="translate(0.000610352 0.843262)"/>
</clipPath>
</defs>
</svg>
