<svg width="8" height="9" viewBox="0 0 8 9" fill="none" xmlns="http://www.w3.org/2000/svg">
<g clip-path="url(#clip0_54_1283)">
<path fill-rule="evenodd" clip-rule="evenodd" d="M0.333344 4.8433C0.333344 2.8183 1.97501 1.17664 4.00001 1.17664C6.02501 1.17664 7.66668 2.8183 7.66668 4.8433C7.66668 6.8683 6.02501 8.50997 4.00001 8.50997C1.97501 8.50997 0.333344 6.8683 0.333344 4.8433ZM3.10668 2.98564C3.08159 2.94974 3.04969 2.91914 3.01278 2.89557C2.97587 2.87201 2.93468 2.85595 2.89156 2.8483C2.84844 2.84066 2.80424 2.84158 2.76148 2.85102C2.71872 2.86045 2.67824 2.87822 2.64234 2.9033C2.56985 2.95396 2.52045 3.03134 2.50501 3.11842C2.48957 3.2055 2.50935 3.29514 2.56001 3.36764L3.36001 4.50997H3.00001C2.9116 4.50997 2.82682 4.54509 2.76431 4.6076C2.7018 4.67011 2.66668 4.7549 2.66668 4.8433C2.66668 4.93171 2.7018 5.01649 2.76431 5.079C2.82682 5.14152 2.9116 5.17664 3.00001 5.17664H3.66668V5.50997H3.00001C2.9116 5.50997 2.82682 5.54509 2.76431 5.6076C2.7018 5.67011 2.66668 5.7549 2.66668 5.8433C2.66668 5.93171 2.7018 6.01649 2.76431 6.079C2.82682 6.14152 2.9116 6.17664 3.00001 6.17664H3.66668V6.8433C3.66668 6.93171 3.7018 7.01649 3.76431 7.07901C3.82682 7.14152 3.9116 7.17664 4.00001 7.17664C4.08842 7.17664 4.1732 7.14152 4.23571 7.07901C4.29822 7.01649 4.33334 6.93171 4.33334 6.8433V6.17664H5.00001C5.08842 6.17664 5.1732 6.14152 5.23571 6.079C5.29822 6.01649 5.33334 5.93171 5.33334 5.8433C5.33334 5.7549 5.29822 5.67011 5.23571 5.6076C5.1732 5.54509 5.08842 5.50997 5.00001 5.50997H4.33334V5.17664H5.00001C5.08842 5.17664 5.1732 5.14152 5.23571 5.079C5.29822 5.01649 5.33334 4.93171 5.33334 4.8433C5.33334 4.7549 5.29822 4.67011 5.23571 4.6076C5.1732 4.54509 5.08842 4.50997 5.00001 4.50997H4.64001L5.44001 3.36764C5.49067 3.29514 5.51045 3.2055 5.49501 3.11842C5.47957 3.03134 5.43017 2.95396 5.35768 2.9033C5.28518 2.85265 5.19554 2.83286 5.10846 2.8483C5.02138 2.86374 4.944 2.91314 4.89334 2.98564L4.00001 4.2623L3.10668 2.98564Z" fill="#CFC039"/>
</g>
<defs>
<clipPath id="clip0_54_1283">
<rect width="8" height="8" fill="white" transform="translate(0 0.843262)"/>
</clipPath>
</defs>
</svg>
