<svg width="8" height="9" viewBox="0 0 8 9" fill="none" xmlns="http://www.w3.org/2000/svg">
<path d="M2.675 6.84326H3.675V6.50993H3.00833V6.1766H3.675V5.1766H2.675V5.50993H3.34167V5.84326H2.675V6.84326ZM5.00833 6.84326H5.34167V5.1766H5.00833V5.84326H4.675V5.1766H4.34167V6.1766H5.00833V6.84326ZM7.00833 4.5266V7.1766C7.00833 7.35993 6.94311 7.51693 6.81267 7.6476C6.682 7.77804 6.525 7.84326 6.34167 7.84326H1.675C1.49167 7.84326 1.33478 7.77804 1.20433 7.6476C1.07367 7.51693 1.00833 7.35993 1.00833 7.1766V4.5266C0.880555 4.40993 0.782 4.25993 0.712666 4.0766C0.643111 3.89326 0.641666 3.69326 0.708333 3.4766L1.05833 2.34326C1.10278 2.19882 1.182 2.07937 1.296 1.98493C1.40978 1.89048 1.54167 1.84326 1.69167 1.84326H6.325C6.475 1.84326 6.60556 1.88904 6.71667 1.9806C6.82778 2.07237 6.90833 2.19326 6.95833 2.34326L7.30833 3.4766C7.375 3.69326 7.37367 3.89048 7.30433 4.06826C7.23478 4.24604 7.13611 4.39882 7.00833 4.5266ZM4.74167 4.1766C4.89167 4.1766 5.00556 4.12515 5.08333 4.02226C5.16111 3.9196 5.19167 3.80437 5.175 3.6766L4.99167 2.50993H4.34167V3.74326C4.34167 3.85993 4.38056 3.96137 4.45833 4.0476C4.53611 4.13359 4.63056 4.1766 4.74167 4.1766ZM3.24167 4.1766C3.36944 4.1766 3.47367 4.13359 3.55433 4.0476C3.63478 3.96137 3.675 3.85993 3.675 3.74326V2.50993H3.025L2.84167 3.6766C2.81944 3.80993 2.84867 3.9266 2.92933 4.0266C3.00978 4.1266 3.11389 4.1766 3.24167 4.1766ZM1.75833 4.1766C1.85833 4.1766 1.94578 4.14048 2.02067 4.06826C2.09578 3.99604 2.14167 3.90437 2.15833 3.79326L2.34167 2.50993H1.69167L1.35833 3.6266C1.325 3.73771 1.343 3.85715 1.41233 3.98493C1.48189 4.11271 1.59722 4.1766 1.75833 4.1766ZM6.25833 4.1766C6.41944 4.1766 6.53611 4.11271 6.60833 3.98493C6.68056 3.85715 6.69722 3.73771 6.65833 3.6266L6.30833 2.50993H5.675L5.85833 3.79326C5.875 3.90437 5.92089 3.99604 5.996 4.06826C6.07089 4.14048 6.15833 4.1766 6.25833 4.1766Z" fill="#CFC039"/>
</svg>
