<svg width="8" height="9" viewBox="0 0 8 9" fill="none" xmlns="http://www.w3.org/2000/svg">
<g clip-path="url(#clip0_54_1286)">
<path d="M2.95041 3.54126C2.77161 3.65126 3.42921 5.23806 3.58961 5.49646C3.65712 5.60459 3.76469 5.68161 3.88881 5.71068C4.01293 5.73974 4.14351 5.7185 4.25201 5.65159C4.36052 5.58468 4.43813 5.47754 4.46788 5.35359C4.49764 5.22963 4.47712 5.09894 4.41081 4.99006C4.25201 4.73086 3.12881 3.43086 2.95041 3.54126ZM2.81641 1.80406C3.58281 1.53659 4.41721 1.53659 5.18361 1.80406C5.31521 1.84966 5.48961 1.75806 5.41241 1.55966C5.35601 1.41566 5.30161 1.27486 5.27961 1.21766C5.22721 1.08206 5.03961 0.970062 4.95801 0.951662C4.64921 0.882062 4.32921 0.843262 4.00001 0.843262C3.67081 0.843262 3.35081 0.882062 3.04161 0.951662C2.96001 0.970062 2.77281 1.08206 2.72041 1.21766L2.58761 1.55966C2.51041 1.75806 2.68481 1.85006 2.81641 1.80406ZM7.63921 2.11766C7.48388 1.93131 7.31212 1.75929 7.12601 1.60366C7.06481 1.55206 6.88481 1.51006 6.77081 1.62406L6.11161 2.28286C6.27584 2.39892 6.43035 2.52815 6.57361 2.66926C6.71841 2.81366 6.84441 2.97006 6.96001 3.13126L7.61881 2.47246C7.73321 2.35806 7.69121 2.17846 7.63921 2.11766ZM4.00001 2.00326C3.5745 2.00321 3.15314 2.08698 2.76 2.24978C2.36685 2.41258 2.00963 2.65123 1.70873 2.95209C1.40782 3.25296 1.16913 3.61015 1.00628 4.00327C0.843431 4.3964 0.759613 4.81775 0.759613 5.24326C0.759561 5.66881 0.84334 6.0902 1.00617 6.48337C1.16899 6.87654 1.40768 7.23378 1.70859 7.53469C2.0095 7.8356 2.36674 8.07428 2.7599 8.23711C3.15307 8.39993 3.57446 8.48371 4.00001 8.48366C4.85937 8.48366 5.68353 8.14228 6.29118 7.53463C6.89884 6.92697 7.24021 6.10282 7.24021 5.24346C7.24021 4.38411 6.89884 3.55995 6.29118 2.95229C5.68353 2.34464 4.85937 2.00326 4.00001 2.00326ZM4.00001 7.68366C3.67956 7.68364 3.36225 7.62049 3.0662 7.49784C2.77016 7.37518 2.50116 7.19541 2.27459 6.9688C2.04801 6.74219 1.86829 6.47317 1.74569 6.1771C1.62308 5.88103 1.55999 5.56371 1.56001 5.24326C1.56004 4.92281 1.62318 4.6055 1.74584 4.30945C1.86849 4.0134 2.04826 3.74441 2.27487 3.51784C2.50148 3.29126 2.7705 3.11154 3.06657 2.98893C3.36264 2.86633 3.67996 2.80324 4.00041 2.80326C4.64754 2.80331 5.26814 3.06044 5.7257 3.51806C6.18325 3.97569 6.44027 4.59633 6.44021 5.24346C6.44016 5.89059 6.18304 6.51119 5.72541 6.96874C5.26779 7.42629 4.64714 7.68331 4.00001 7.68326V7.68366Z" fill="#E1D143"/>
</g>
<defs>
<clipPath id="clip0_54_1286">
<rect width="8" height="8" fill="white" transform="translate(0 0.843262)"/>
</clipPath>
</defs>
</svg>
