<svg id="Layer_2" xmlns="http://www.w3.org/2000/svg" viewBox="0 0 738 97"><defs><clipPath id="clippath"><path style="fill:none" d="M188.84 80.05H15.36V6h173.48l-20.57 37.03 20.57 37.02z"/></clipPath><style>.cls-5{fill:#fff}.cls-6{fill:#ff8939}.cls-7{fill:#333}</style></defs><g id="PC"><path style="fill:#f4690b" d="M32 92 15.36 80.05V66.34h19.46L32 92z"/><path class="cls-5" d="M29.73 14h707.9v83H29.73z"/><path class="cls-6" d="M188.84 80.05H15.36V6h173.48l-20.57 37.03 20.57 37.02z"/><g style="clip-path:url(#clippath)"><path style="fill:#f7aa77" d="M75 87H0V0h105L75 87z"/></g><path class="cls-5" d="m46.91 48.21.42 3.22c-3.17.92-6.55 1.86-8.73 2.44-.05.29-.29.45-.5.5l-1.05-3.93c.97-.18 2.12-.42 3.38-.71v-5.24h-2.7V41h2.7v-4.14h-2.88v-3.51h9.23v3.51h-2.67V41h2.49v3.49h-2.49v4.4l2.81-.68Zm9.04 4.64h6.4v3.43H45.6v-3.43h6.84v-2.31h-5.19v-3.36h5.19v-1.89H47.3V33.18h14.13v12.11h-5.48v1.89h5.58v3.36h-5.58v2.31Zm-5.3-16.46v1.36h1.78v-1.36h-1.78Zm0 5.71h1.78v-1.39h-1.78v1.39Zm7.26-4.35v-1.36h-1.97v1.36h1.97Zm0 4.35v-1.39h-1.97v1.39h1.97Zm22.19-5.16h8.99v20h-4.01v-1.28H71.45v1.28h-3.83v-20h8.55v-4.9l4.72.26c-.03.29-.24.47-.79.55v4.09Zm-3.93 3.85h-4.72v3.67h4.72v-3.67Zm-4.72 7.39v3.7h4.72v-3.7h-4.72Zm13.63-7.39H80.1v3.67h4.98v-3.67ZM80.1 51.88h4.98v-3.7H80.1v3.7Zm15.12-.03c0-1.65 1.18-2.86 2.67-2.86s2.67 1.13 2.67 2.86-1.07 2.86-2.67 2.86-2.67-1.21-2.67-2.86Zm22.33 12.44v-8.43h9.29V30.98h-8.08v-6.42c4.24-.76 7.85-2.08 10.84-3.96h7.68v35.26h7.85v8.43h-27.58Z"/><path class="cls-7" d="M228.4 51.61c-1.58 0-2.8.04-4.18.16v-1.95c-2.51 1.46-3.93 2.15-6.61 3.24-1.13-2.76-1.62-3.73-3.04-5.96 4.18-1.3 7.66-3.04 10.91-5.51 2.35-1.78 4.13-3.61 5.15-5.31h6.93c1.5 2.11 2.8 3.37 5.23 5.19 3.32 2.51 6.61 4.13 10.87 5.35-1.3 2.31-1.99 3.89-2.8 6.37-2.84-1.14-4.42-1.95-7.01-3.49v2.07c-1.13-.12-2.47-.16-4.22-.16h-2.51v2.63h9.24c2.43 0 3.81-.08 4.78-.2v6c-1.09-.16-2.72-.24-4.87-.24h-3.2l5.23 1.82c-1.22 2.59-2.19 4.34-3.12 5.76h2.11c2.27 0 3.61-.08 5.07-.24v6.08c-1.54-.16-3.41-.24-5.23-.24h-25.7c-2.15 0-3.89.08-5.51.24v-6.08c1.58.16 3.2.24 5.47.24h1.26c-.85-2.43-1.38-3.53-2.84-5.84l5.23-1.74h-3c-1.95 0-3.49.08-4.87.24v-6c1.18.16 2.55.2 4.91.2h8.76v-2.63h-2.43Zm2.43 8.19h-5.11c1.18 1.91 1.74 3.12 2.92 6l-5.07 1.58h7.26V59.8Zm8.03-13.5c-2.15-1.66-3.2-2.72-4.74-4.58-1.5 1.87-2.47 2.84-4.66 4.58h9.41Zm5.39 21.08-4.95-1.66c1.7-2.63 2.19-3.57 3-5.92h-5.19v7.58h7.14Zm22.94-23.35c-2.07.32-2.84.45-4.91.69-.53-2.27-.97-3.57-1.87-5.64 3.97-.32 7.01-.81 10.74-1.74 2.64-.65 3.81-1.09 4.91-1.74l3.57 5.39q-.2.08-.93.32c-1.58.53-3.65 1.09-5.39 1.5v4.13h2.51c1.54 0 2.35-.04 3.32-.2v5.96c-1.01-.12-2.03-.16-3.45-.16h-2.19c2.15 3.04 3.45 4.34 6.12 6.24-1.18 1.99-1.95 3.53-2.76 5.72-1.66-1.58-2.55-2.72-3.69-4.66.08.93.12 2.03.12 3.33v5.47c0 2.59.04 3.69.24 5.31h-6.61c.16-1.66.24-2.92.24-5.31v-4.78q0-2.03.08-3.16c-1.26 3.12-2.51 5.11-4.82 7.5-1.09-2.96-1.58-4.01-2.92-6.2 1.58-1.34 2.55-2.51 3.85-4.5 1.22-1.91 1.99-3.41 2.51-4.95h-1.82c-1.5 0-2.51.04-3.57.2v-6c1.09.16 2.03.2 3.69.2h3v-2.92ZM287.02 39c-.16 1.5-.2 2.68-.2 5.19v15c0 2.47.04 3.61.2 4.95h-6.45c.16-1.22.2-2.07.2-4.78V44.2c0-2.39-.08-3.73-.2-5.19h6.45Zm9.37-2.63c-.2 1.87-.24 3.41-.24 5.92v25.54c0 2.64-.65 4.22-2.11 4.95-1.13.61-3.41.89-7.01.89-.69 0-1.34-.04-2.8-.08-.49-2.51-.89-3.89-1.91-6.28 2.55.24 3.81.32 5.55.32s2.15-.2 2.15-1.22V42.29c0-1.91-.08-3.85-.24-5.92h6.61Zm9.56 3.73c1.74.41 4.18.57 8.39.57h1.13c.81-1.95 1.09-3.04 1.26-4.5l7.42.57c-.32.61-.36.65-.85 1.91-.53 1.18-.77 1.82-.81 1.91q.41-.04 2.47-.16c3.97-.2 8.11-.73 10.26-1.3l.24 6.45c-1.26.12-2.47.24-3.65.37-2.88.28-7.95.57-12.08.69-.69 1.22-.97 1.7-1.95 3 1.74-.81 3.41-1.22 5.15-1.22 3.37 0 5.39 1.3 6.2 3.93q.69-.24 2.84-.97c.12-.04 1.22-.41 2.51-.81 2.31-.77 2.59-.85 3.24-1.22l2.47 6.41c-2.11.28-6.45 1.42-10.34 2.76.04 1.09.04 1.13.04 2.92s.04 2.43.16 3.49l-6.61.2c.12-.61.16-1.87.2-4.3l-.36.16c-1.87.89-2.11 1.05-2.84 1.7-.69.61-1.05 1.34-1.05 2.07 0 1.54 1.5 2.15 5.43 2.15 4.87 0 9.53-.73 12.97-2.03l.45 7.3q-1.18.04-3.61.36c-3.24.41-6.61.61-9.77.61-4.58 0-7.46-.57-9.65-1.87-2.03-1.18-3.2-3.32-3.2-5.76 0-1.91.61-3.45 1.99-5.11 1.5-1.74 3.32-3.08 5.84-4.34.97-.49 1.38-.65 3-1.38-.37-.69-.85-1.01-1.62-1.01-2.07 0-4.87 1.42-7.7 3.89-1.7 1.5-2.8 2.64-3.89 4.09l-5.15-5.11c1.3-.97 3-2.63 4.3-4.22.89-1.09 2.51-3.45 3.12-4.42q.61-1.01.77-1.3h-1.3q-1.74 0-3.49-.04c-.57-.04-.85-.04-1.42-.04h-.61l.08-6.41Z"/><path class="cls-6" d="M353.9 43.46c-2.23 0-4.26.08-6.16.24v-6.41c1.74.16 3.81.24 6.16.24h24.65c2.27 0 4.3-.08 6.16-.24v6.41a74.83 74.83 0 0 0-6.16-.24h-10.18v2.76c3.49 1.87 4.58 2.51 6.61 3.85 3.41 2.19 5.15 3.53 7.95 5.96l-4.26 5.07c-3.73-3.53-6.45-5.68-10.3-8.11v14.27c0 3 .04 4.42.24 6.37h-7.01c.2-1.91.24-3.33.24-6.37v-23.8h-7.95Z"/><path class="cls-7" d="M402.46 38.11c-1.01 3.45-1.7 7.26-2.15 11.51-.28 2.68-.41 5.35-.41 9.37q0 .12.04 1.5c.49-1.62 1.26-3.45 2.07-4.99l4.74 2.35c-2.47 3.77-5.03 10.7-5.15 13.79l-6.53.28c-.08-.57-.12-.77-.2-1.26 0-.16-.08-.53-.16-1.05l-.2-.93c-.73-3.81-1.13-8.51-1.13-12.85s.16-6.32 1.38-15.08c.2-1.58.24-2.19.24-3.16l7.46.53Zm18.97-.12c-.2-.45-.32-.69-.65-1.3l3-.89c1.18 2.15 1.95 4.09 2.68 6.49l-3.2 1.05c-.33-1.22-.89-3-1.54-4.62v.61q0 .49.08 2.03c0 .16 0 .81.04 1.83 0 .28.04.97.04 1.82 2.31-.32 4.38-.81 5.68-1.38l.37 6.73c-.65.08-.89.12-2.35.41s-1.46.28-3.49.53q.04 2.76.04 3.24c0 2.23-.2 4.42-.53 6.53-.69 3.93-2.15 6.77-4.91 9.41-1.3 1.26-2.47 2.11-4.91 3.49-1.7-2.19-3.49-3.89-5.55-5.35 4.22-1.87 6.89-4.26 8.07-7.22.77-1.91 1.05-4.3 1.05-9.04v-.49c-1.58.08-2.63.12-4.3.12-1.5 0-2.88-.04-4.3-.12-1.3-.08-1.42-.08-2.59-.08l.04-6.61c2.07.41 4.38.57 7.3.57 1.5 0 2.51-.04 3.69-.12-.04-.89-.08-1.7-.08-1.99-.12-3.2-.24-4.58-.49-5.55l6.81-.08Zm6.73 3.97c-.69-2.35-1.38-4.05-2.59-6.32l2.92-.89c1.22 2.07 2.11 4.14 2.64 6.12l-2.96 1.09Zm18.41 3.12c-.57 2.19-1.26 6-1.74 9.85 3.41-2.19 6.97-3.16 11.59-3.16 7.22 0 12 3.77 12 9.53 0 3.49-1.66 6.61-4.58 8.59-2.92 1.99-6.61 2.92-11.6 2.92-3.32 0-6.2-.32-10.18-1.22-.12-3.37-.28-4.66-.93-7.22 4.01 1.26 7.78 1.91 10.83 1.91 5.35 0 8.92-1.91 8.92-4.78 0-2.15-2.11-3.41-5.76-3.41-3.04 0-6.12.81-8.88 2.43-1.05.57-1.46.93-2.27 1.82l-6.73-.28c.08-.37.08-.41.12-.81.2-1.95 1.05-8.43 1.87-14.03.12-.89.2-1.54.24-2.59l7.09.45Zm-.73-8.92c1.99 1.01 4.42 1.87 8.27 2.88 2.76.73 6.24 1.46 8.15 1.74l-2.15 6.53c-7.34-1.5-12.77-3.12-17.51-5.31l3.24-5.84Zm29.83 24.86c1.09-.85 1.74-1.42 2.84-2.47 2.72-2.76 4.22-4.22 4.42-4.46.04-.65.08-1.82.12-4.46q-4.54.28-6.04.53l-.32-6.41c.93.08 1.42.12 2.11.12 1.01 0 2.72-.08 4.42-.2q.04-.49.04-1.3c.04-.85.08-1.86.08-2.8 0-1.26-.04-1.66-.16-2.68l7.18.16c-.16.97-.41 3.53-.49 6l2.23 2.11c-.73.53-1.54 1.46-2.55 2.76l-.04.57c0 .45 0 .53-.04.89 5.07-4.7 9.24-6.97 12.81-6.97 3.93 0 6.53 2.51 6.53 6.32 0 1.38-.24 2.72-1.05 6.12-1.26 5.11-1.74 7.66-1.74 8.68 0 .73.37 1.18.97 1.18s1.46-.69 2.23-1.82c1.01-1.46 1.95-3.12 2.43-4.34.93 2.55 1.62 3.89 3.41 6.53-3.12 5.11-5.76 7.05-9.65 7.05s-6.37-2.55-6.37-6.53c0-2.27.41-4.7 1.78-10.78.49-2.15.73-3.53.73-4.18 0-.73-.45-1.13-1.18-1.13-.97 0-2.39.61-3.85 1.66-2.72 1.91-5.27 4.18-7.01 6.24-.04 1.91-.04 3.08-.04 4.26 0 5.76.12 9.89.32 11.47l-7.34.04c.24-1.46.37-3.65.37-6.2v-4.26c-2.88 3.45-3.53 4.26-4.01 5.07l-3.12-6.77Zm49.7-22.87c1.7.2 3.2.28 5.84.28 3.61 0 8.11-.16 12.2-.49 1.78-.12 2.31-.24 3.08-.57l3.33 4.91q-1.05.61-6.53 5.31c-2.15 1.82-2.88 2.43-5.59 4.42 2.27-.57 3.45-.73 5.55-.73 3.81 0 6.53.89 8.68 2.76 1.95 1.74 2.96 4.09 2.96 7.01 0 4.09-1.91 7.34-5.59 9.53-2.8 1.62-6.69 2.55-10.74 2.55-6.85 0-11.03-2.72-11.03-7.22 0-3.77 3.37-6.49 8.07-6.49 2.92 0 5.51 1.14 7.26 3.12.81.89 1.26 1.7 1.87 3.2 2.19-.97 3.2-2.35 3.2-4.42 0-2.84-2.76-4.58-7.26-4.58s-8.84 1.34-12.49 3.73c-1.26.81-2.55 1.82-3.89 3.04l-3.77-6.16c3.73-1.74 12.28-8.39 17.31-13.38-2.15.24-3.77.32-9.49.61-1.09.04-1.86.12-2.68.2l-.28-6.65Zm10.05 26.43c-.93 0-1.58.53-1.58 1.34 0 1.09 1.3 1.78 3.49 1.78.49 0 .57 0 1.34-.12-.53-1.95-1.66-3-3.24-3Z"/><path class="cls-6" d="M193 14h545v3H193z"/></g></svg>