<svg xmlns="http://www.w3.org/2000/svg" viewBox="0 0 127.56 132.35"><defs><clipPath id="clippath"><path style="fill:none" d="M0 0h127.56v132.35H0z"/></clipPath><style>.cls-6{fill:#f93d51}.cls-9{fill:#fff}.cls-10{fill:#fbe2cc}.cls-14{fill:#3b3e38}.cls-16{stroke-linecap:round;stroke-linejoin:round;stroke-width:.5px;fill:#526b92;stroke:#4a6286}</style></defs><g style="isolation:isolate"><g id="Layer_2"><g id="PC"><g style="clip-path:url(#clippath)"><path class="cls-14" d="M56.54 85.13c-4.04 3.74-8.66 13.23-9.3 16.76-.64 3.53-5.57 7.76-5.57 7.76l.41-3.19-.89 1.25s-1.64-7.55.89-13.43c2.53-5.89 12.63-10.25 12.63-10.25"/><path d="M72.02 99.08c.02-.06.04-.13.06-.18.24-1.07-.34-1.27-1.81-1.57-1.25-.58-2.67-.68-2.67-.68l.11-5.94-3.94.32-3.94-.32.11 5.94s-1.42.1-2.67.68c-1.47.3-2.05.5-1.81 1.57.01.06.04.12.06.18-.11.36-.15.77-.05 1.25.64 3.18 4.54 6.35 7.94 6.64.07 0 .15.03.21.03h.28c.06 0 .14-.02.21-.03 3.4-.29 7.3-3.46 7.94-6.64.1-.48.06-.89-.05-1.25Z" style="fill:#fad8be"/><path style="opacity:.5;mix-blend-mode:multiply;fill:#fad8be" d="m60.06 91.71 6.69.21v4.91l-6.69-5.12z"/><path class="cls-10" d="M63.89 39.69h-.22C36.72 39.69 37.17 70 37.17 70v.04c.1.75 3.19 22.49 24.6 23.8.19.01.39.01.59.02.37.01.73.04 1.11.04h.6c.38 0 .74-.03 1.11-.04.2 0 .4-.01.59-.02 21.42-1.31 24.51-23.06 24.6-23.8V70s.45-30.31-26.5-30.31Z"/><path d="m47.35 56.06 3.69-1.92s4.88 7.72 15.57 8.02l2.18-1.79s9.23 3.44 12.41 2.77l1.18-2.26s4.26 3.79 4.82 4.62c.56.82-.72-9.23-11.54-14.1-10.82-4.87-29.28-13.08-28.31 4.67Z" style="opacity:.5;mix-blend-mode:multiply;fill:#fbe2cc"/><path class="cls-14" d="M88.3 42.66c-7.86-8.33-17.85-10.06-24.66-10.1-6.81.05-16.8 1.78-24.66 10.1-5.1 5.4-6.71 12.03-6.92 17.79.1 3.83.95 8.11 2.83 12.88l3.21 1.5 2.23-.82c6.39-3.86 9.83-25.86 9.83-25.86S54.1 61 66.62 60.92l-2.1-6.79c4.01 5.39 14.94 8.95 15.7 8.14 0 0-.15-4.5-.08-4.9 5.15-.98 8.42 16.01 7.18 18.34l1.88-.88 3.21-1.5c1.88-4.77 2.73-9.04 2.83-12.88-.2-5.76-1.82-12.39-6.92-17.79Z"/><path d="M69.22 37.43S89.4 45.3 89.79 66.51c0 0-4.51-21.79-20.57-29.08Zm-11.68 4.02s-4.71 8.7 4.13 15.93c0 0-5.03-6.25-4.13-15.93Zm11.26.96s-4.71 8.7 4.13 15.93c0 0-5.03-6.25-4.13-15.93Z" style="opacity:.5;mix-blend-mode:multiply;fill:#3b3e38"/><path class="cls-10" d="M38.18 73.27s-4.04-1.72-4.99 2.58c-.95 4.3 3.7 7.48 7.48 4.47m48.71-7.05s4.04-1.72 4.99 2.58c.95 4.3-3.7 7.48-7.48 4.47"/><path d="M61.63 77.01s.26-1.29 2.11-1.29 2.19 1.16 2.19 1.16" style="stroke:#231916;stroke-width:.52px;stroke-linecap:round;stroke-linejoin:round;fill:none"/><path d="M67.36 81.43s-.51 4.33-3.52 4.33-3.65-4.33-3.65-4.33h7.17Z" style="fill:#f8cfc2;stroke:#eb6d5e;stroke-width:.5px;stroke-linecap:round;stroke-linejoin:round"/><path d="M56.31 71.83c0 1.93-.74 3.5-1.65 3.5s-1.65-1.57-1.65-3.5.74-3.5 1.65-3.5 1.65 1.57 1.65 3.5Zm17.97 0c0 1.93-.74 3.5-1.65 3.5s-1.65-1.57-1.65-3.5.74-3.5 1.65-3.5 1.65 1.57 1.65 3.5Z" style="fill:#231916"/><path d="m9.85 48.76 11.69 7.38m-1.85-18.05 4.93 10.05M8 62.3l9.64-.21" style="stroke:#ccc;stroke-width:2px;stroke-linecap:round;stroke-linejoin:round;fill:none"/><path class="cls-16" d="M49.16 100.35s-8.28 11.57-9.89 18.25c-.04.17 7.03 3.14 8.1 3.02 1.08-.12 2.65-6.83 2.65-6.83s1.11-14-.86-14.44Z"/><path class="cls-10" d="M78.19 100.24s6.15 25.08 6.82 29.31c.67 4.23 2.43 11.64 4.58 15.07 2.15 3.43 6.45 7.28 4.37 8.2-2.08.92-6.93-1.13-7.64-1.69s-1.32 2.91-1.97 2.69c-.65-.22-2.53-2.87-1.26-6.29 1.27-3.41-7.88-28.29-8.03-30.64s-.87-17.7 3.13-16.66Z"/><path class="cls-16" d="M78.4 100.35s9.2 35.15 10.82 41.83c.04.17-5 3.4-6.08 3.29-1.08-.12-5.59-30.67-5.59-30.67s-1.11-14 .86-14.44Z"/><path class="cls-9" d="m81.39 141.66-3.17-41.42c-.22-.15-28.6-.15-28.82 0l.6 41.37c5.61 1.7 7.39.32 13.81.15 6.42.17 11.97 1.6 17.58-.1Z"/><path class="cls-16" d="M66.86 151.09c5.5-.02 11.18-.51 15.9-1.94l-.3-3.19-4.27-45.71c-.22-.15-.46-.3-.7-.45l-.39-.21c-.22-.12-.45-.22-.68-.33-.63-.29-1.39-.61-2.21-.94-2.61-.94-5.26-1.49-6.12-1.65l-4.3 34.13-4.24-34.14c-.76.14-3.35.67-5.96 1.59-.89.35-1.72.69-2.4 1-.24.12-.5.23-.73.35-.13.07-.26.14-.38.21-.25.14-.48.29-.7.45l-4.57 48.9c4.73 1.43 10.4 1.92 15.9 1.94l3.08-3.08 3.08 3.08Z"/><path d="M79.15 131.98s.5 11.38-1.69 12.56-5.87 1.81-5.87 1.81 8.69 4.06 8.69-.56-1.12-13.81-1.12-13.81Z" style="opacity:.1;mix-blend-mode:multiply;fill:#231916"/><path class="cls-16" d="m63.77 130.21-4.29-34.03-6.14 2.02 6.23 11.9-2.96 3.73 7.16 16.38zm.08 0 4.29-34.03 6.14 2.02-6.23 11.9 2.96 3.73-7.16 16.38z"/><path class="cls-10" d="M43.94 123.29c5.64-.66 3.48-7.54 1.14-11.25s-6.91-11.02-6.91-11.02l-3.95 2.81s4.08 20.12 9.72 19.46Z"/><path class="cls-10" d="M34.43 104.15s-7.76-4.41-9.4-6.48c-1.64-2.07-.04-1.88-.04-1.88s-3.05-3.2-1.35-4.94 8.57.67 11.83 3.56c0 0 .25-2.86 1.52-3.04 1.27-.19 1.45 4.63 2.13 5.76.68 1.12.13 4.57-.36 5.02-.49.46-4.33 2-4.33 2Z"/><path d="M35.53 95.23s-.68 2.28 1.65 3.77m-3.91-4.57s-1.62 1.08-3.03 4.23" style="mix-blend-mode:multiply;stroke-width:.5px;stroke-linecap:round;stroke-linejoin:round;stroke:#fbe2cc;fill:none"/><path class="cls-16" d="m34.11 107.94 6.09-4.87s11.47 15.21 5.78 20.02c-5.69 4.82-9.91-8.63-11.87-15.15Z"/></g><rect class="cls-6" x="80.72" y="5" width="42" height="42" rx="21" ry="21"/><path class="cls-6" d="M88.74 37.45 80.72 50.8l13.75-9.15-5.73-4.2z"/><path class="cls-9" d="M94.15 20.7c-1.24 0-2.37.05-3.43.14v-3.57c.97.09 2.12.14 3.43.14h13.72c1.26 0 2.39-.05 3.43-.14v3.57c-1.13-.09-2.17-.14-3.43-.14h-5.67v1.54c1.94 1.04 2.55 1.4 3.68 2.14 1.9 1.22 2.87 1.96 4.42 3.32l-2.37 2.82c-2.08-1.96-3.59-3.16-5.73-4.51v7.94c0 1.67.02 2.46.14 3.54h-3.9c.11-1.06.14-1.85.14-3.54V20.7h-4.42Z"/></g></g></g></svg>