<svg xmlns="http://www.w3.org/2000/svg" viewBox="0 0 127.56 132.35"><defs><clipPath id="clippath"><path style="fill:none" d="M0 0h127.56v132.35H0z"/></clipPath><style>.cls-5{stroke-linecap:round;stroke-linejoin:round}.cls-7{fill:#fad8be}.cls-10{fill:#fff}.cls-11{fill:#fbe2cc}.cls-15{fill:#3d79f8}.cls-16{fill:#3b3e38}.cls-5{fill:#526b92;stroke:#4a6286;stroke-width:.5px}</style></defs><g style="isolation:isolate"><g id="Layer_2"><g id="PC"><g style="clip-path:url(#clippath)"><path class="cls-16" d="M56.54 85.13c-4.04 3.74-8.66 13.23-9.3 16.76-.64 3.53-5.57 7.76-5.57 7.76l.41-3.19-.89 1.25s-1.64-7.55.89-13.43c2.53-5.89 12.63-10.25 12.63-10.25"/><path class="cls-7" d="M72.02 99.08c.02-.06.04-.13.06-.18.24-1.07-.34-1.27-1.81-1.57-1.25-.58-2.67-.68-2.67-.68l.11-5.94-3.94.32-3.94-.32.11 5.94s-1.42.1-2.67.68c-1.47.3-2.05.5-1.81 1.57.01.06.04.12.06.18-.11.36-.15.77-.05 1.25.64 3.18 4.54 6.35 7.94 6.64.07 0 .15.03.21.03h.28c.06 0 .14-.02.21-.03 3.4-.29 7.3-3.46 7.94-6.64.1-.48.06-.89-.05-1.25Z"/><path style="mix-blend-mode:multiply;opacity:.5;fill:#fad8be" d="m60.06 91.71 6.69.21v4.91l-6.69-5.12z"/><path class="cls-11" d="M63.89 39.69h-.22C36.72 39.69 37.17 70 37.17 70v.04c.1.75 3.19 22.49 24.6 23.8.19.01.39.01.59.02.37.01.73.04 1.11.04h.6c.38 0 .74-.03 1.11-.04.2 0 .4-.01.59-.02 21.42-1.31 24.51-23.06 24.6-23.8V70s.45-30.31-26.5-30.31Z"/><path d="m47.35 56.06 3.69-1.92s4.88 7.72 15.57 8.02l2.18-1.79s9.23 3.44 12.41 2.77l1.18-2.26s4.26 3.79 4.82 4.62c.56.82-.72-9.23-11.54-14.1-10.82-4.87-29.28-13.08-28.31 4.67Z" style="mix-blend-mode:multiply;opacity:.5;fill:#fbe2cc"/><path class="cls-16" d="M88.3 42.66c-7.86-8.33-17.85-10.06-24.66-10.1-6.81.05-16.8 1.78-24.66 10.1-5.1 5.4-6.71 12.03-6.92 17.79.1 3.83.95 8.11 2.83 12.88l3.21 1.5 2.23-.82c6.39-3.86 9.83-25.86 9.83-25.86S54.1 61 66.62 60.92l-2.1-6.79c4.01 5.39 14.94 8.95 15.7 8.14 0 0-.15-4.5-.08-4.9 5.15-.98 8.42 16.01 7.18 18.34l1.88-.88 3.21-1.5c1.88-4.77 2.73-9.04 2.83-12.88-.2-5.76-1.82-12.39-6.92-17.79Z"/><path d="M69.22 37.43S89.4 45.3 89.79 66.51c0 0-4.51-21.79-20.57-29.08Zm-11.68 4.02s-4.71 8.7 4.13 15.93c0 0-5.03-6.25-4.13-15.93Zm11.26.96s-4.71 8.7 4.13 15.93c0 0-5.03-6.25-4.13-15.93Z" style="opacity:.5;mix-blend-mode:multiply;fill:#3b3e38"/><path class="cls-11" d="M38.18 73.27s-4.04-1.72-4.99 2.58c-.95 4.3 3.7 7.48 7.48 4.47m48.71-7.05s4.04-1.72 4.99 2.58c.95 4.3-3.7 7.48-7.48 4.47"/><path d="M61.63 77.01s.26-1.29 2.11-1.29 2.19 1.16 2.19 1.16" style="stroke:#231916;stroke-width:.52px;stroke-linecap:round;stroke-linejoin:round;fill:none"/><path d="M60.2 82.18s.64 1.69 3.65 1.69 3.52-1.69 3.52-1.69" style="stroke-linecap:round;stroke-linejoin:round;stroke:#eb6d5e;stroke-width:.75px;fill:none"/><path d="M56.31 71.83c0 1.93-.74 3.5-1.65 3.5s-1.65-1.57-1.65-3.5.74-3.5 1.65-3.5 1.65 1.57 1.65 3.5Zm19.54 1.32s-1.46-1.44-3.26-1.44-3.26 1.44-3.26 1.44c0-1.47 1.46-2.65 3.26-2.65s3.26 1.19 3.26 2.65Z" style="fill:#231916"/><path class="cls-11" d="M37.03 110.33s-.2 17.75 5.46 18.14c5.66.39 4.82-6.76 3.2-10.84s-5.38-11.81-5.38-11.81l-3.77 1.74.49 2.78Z"/><path class="cls-11" d="M39.93 108.05c.07 0 .14-.02.2-.05.47-.21 2.38-1.29 1.2-4.64-1.34-3.8.02-4.07-2.22-5.74-1.91-1.43-1.56-4.12-3.42-5.77-.86-.76-2.52-1.36-2.17-.06.39 1.44 1.3 4.22.98 5.55-.47 1.95-1.53 2.21-1.33 2.85.2.64 1.66 8.45 6.77 7.87Z"/><path class="cls-11" d="M31.64 100.51c-.07-.65.32-1.25.96-1.42 1.69-.45 4.92-1.2 5.73-.53 1.11.91 1.86 2.07 1.46 3.29-.4 1.21.47 1.19.55 2.19.08 1 .66 1.95.64 2.98s-3.85 2.47-4.94 2.66c-1.03.18-3.72-2.67-4.41-9.16Z"/><path d="M34.23 99.16c1.69-.45 2.59-1.07 3.39-.41 1.11.91 1.64 1.88 1.24 3.1-.4 1.21.47 1.19.55 2.19.08 1 .18 1.4.17 2.43-.01 1.03-.88 1.43-1.96 1.62" style="stroke:#fbe2cc;mix-blend-mode:multiply;stroke-linecap:round;stroke-linejoin:round;fill:none"/><path class="cls-5" d="M49.16 100.35s-8.28 11.57-9.89 18.25c-.04.17 7.03 3.14 8.1 3.02 1.08-.12 2.65-6.83 2.65-6.83s1.11-14-.86-14.44Z"/><path class="cls-5" d="m35.97 113.61 6.89-3.66s8.12 14.84 1.64 18.52c-6.48 3.68-7.8-8.09-8.53-14.86Z"/><path class="cls-10" d="m81.39 141.66-3.17-41.42c-.22-.15-28.6-.15-28.82 0l.6 41.37c5.61 1.7 7.39.32 13.81.15 6.42.17 11.97 1.6 17.58-.1Z"/><path class="cls-5" d="M66.86 151.09c5.5-.02 11.18-.51 15.9-1.94l-.3-3.19-4.27-45.71c-.22-.15-.46-.3-.7-.45l-.39-.21c-.22-.12-.45-.22-.68-.33-.63-.29-1.39-.61-2.21-.94-2.61-.94-5.26-1.49-6.12-1.65l-4.3 34.13-4.24-34.14c-.76.14-3.35.67-5.96 1.59-.89.35-1.72.69-2.4 1-.24.12-.5.23-.73.35-.13.07-.26.14-.38.21-.25.14-.48.29-.7.45l-4.57 48.9c4.73 1.43 10.4 1.92 15.9 1.94l3.08-3.08 3.08 3.08Z"/><path d="M79.15 131.98s.5 11.38-1.69 12.56c-2.19 1.19-5.88 1.81-5.88 1.81s8.69 4.06 8.69-.56-1.12-13.81-1.12-13.81Z" style="opacity:.1;mix-blend-mode:multiply;fill:#231916"/><path class="cls-5" d="m63.77 130.21-4.29-34.03-6.14 2.02 6.23 11.9-2.96 3.73 7.16 16.38zm.08 0 4.29-34.03 6.14 2.02-6.23 11.9 2.96 3.73-7.16 16.38z"/><path class="cls-7" d="m82.21 132.39-1.17-.46s-2.3.82-1.13 1.54c0 0 2.82 1.9 2.31-1.08Z"/><path class="cls-11" d="M78.4 100.35s14.6 17.08 15.11 21.91c.46 4.41-8.59 15.27-8.59 15.27s.01 1.52-2.61 2.77-3.95 1.15-4.77-3.98c-.51-3.21 4.01-3.5 4.01-3.5l4.72-8.97-7.22-8.89"/><path class="cls-5" d="M78.4 100.35c-1.25 5.55-1.06 11.22 1.53 17.09l5.66 6.47-3.77 7.73c-.76.1 4.19 6.03 4.28 5.48 1.09-1.33 8.43-10.54 7.97-14.92-.52-4.95-15.07-21.15-15.67-21.86Z"/><path d="m31.8 35.23 2.23 1.09-2.23 1.09a4.21 4.21 0 0 0-2.16 2.5l-1.34 4.23-1.34-4.23a4.21 4.21 0 0 0-2.16-2.5l-2.23-1.09 2.23-1.09a4.21 4.21 0 0 0 2.16-2.5l1.34-4.23 1.34 4.23c.35 1.09 1.13 2 2.16 2.5Zm78.21 32.04 2.23 1.09-2.23 1.09a4.21 4.21 0 0 0-2.16 2.5l-1.34 4.23-1.34-4.23a4.21 4.21 0 0 0-2.16-2.5l-2.23-1.09 2.23-1.09a4.21 4.21 0 0 0 2.16-2.5l1.34-4.23 1.34 4.23c.35 1.09 1.13 2 2.16 2.5Zm-85.33 8.01 3.62 1.77-3.62 1.77a6.834 6.834 0 0 0-3.5 4.06l-2.17 6.85-2.17-6.85a6.797 6.797 0 0 0-3.5-4.06l-3.62-1.77 3.62-1.77a6.834 6.834 0 0 0 3.5-4.06l2.17-6.85 2.17 6.85a6.797 6.797 0 0 0 3.5 4.06Z" style="fill:#e6e6e6"/></g><rect class="cls-15" x="80.72" y="5" width="42" height="42" rx="21" ry="21"/><path class="cls-15" d="M88.74 37.45 80.72 50.8l13.75-9.15-5.73-4.2z"/><path class="cls-10" d="M106.66 24.62c0 1.15.02 1.56.07 2.03-.52-.04-1.06-.07-1.76-.07h-1.24v1.08h5.66c1.33 0 2.28-.04 2.84-.14v3.32c-.72-.09-1.69-.14-2.89-.14h-3.16c1.85 1.17 3.77 1.92 6.54 2.48-.79 1.15-1.24 1.94-1.83 3.23-1.78-.52-2.8-.95-4.08-1.69-1.38-.79-2.21-1.44-3.21-2.5 0 .16.02.18.02.32 0 .16.02.68.02.79v1.01c0 1.11.02 1.44.23 2.28h-3.77c.11-.84.16-1.35.16-2.28v-.99c0-.36.02-.75.07-1.11-.99 1.11-1.92 1.85-3.36 2.66-1.02.56-1.87.9-3.68 1.49-.59-1.22-1.13-2.08-1.96-3.09 2.84-.65 4.9-1.47 6.43-2.59h-3.07c-1.11 0-2.23.04-2.87.14v-3.32c.65.09 1.69.14 2.87.14h5.55v-1.08H99.2c-.72 0-1.29.02-1.78.07.05-.47.07-1.22.07-2.01v-5.33c0-.93 0-1.17-.07-1.94.59.07.77.07 1.83.07h.68c.34-.84.47-1.24.68-2.19l3.59.29q-.25.5-.59 1.31c-.09.2-.13.32-.25.59h1.54c1.06 0 1.22 0 1.83-.07-.07.63-.07.72-.07 1.94v.29c1.4-1.11 2.21-1.94 3.27-3.34l2.55 2.28c-1.35 1.49-2.35 2.42-3.63 3.48 1.51.7 2.71 1.38 3.9 2.21l-1.78 2.84c-1.56-1.17-2.75-1.94-4.31-2.75v.29Zm-9.18-.18c-1.35.9-2.21 1.38-3.97 2.17-.38.16-.7.32-.97.45l-1.15-3.18c1.51-.34 3.09-1.06 5.26-2.35l.83 2.91Zm-3.5-8.15c1.56 1.17 2.23 1.78 3.52 3.14l-2.19 2.6c-1.2-1.47-2.12-2.37-3.54-3.39l2.21-2.35Zm6.63 4.56h2.91v-.92h-2.91v.92Zm0 3.27h2.91v-.95h-2.91v.95Zm7.63-2.39-1.58-1.74v4.02l1.58-2.28Z"/></g></g></g></svg>