<svg width="20" height="17" fill="none" xmlns="http://www.w3.org/2000/svg"><g clip-path="url(#a)"><path d="M12.69 1.988a.365.365 0 0 1 .204.617l-1.188 1.147.282 1.625c.015.294-.26.519-.529.384l-1.453-.765-1.465.775a.367.367 0 0 1-.529-.381l.282-1.629-1.188-1.156a.365.365 0 0 1 .203-.617l1.635-.236L9.68.26a.356.356 0 0 1 .638 0l.737 1.493 1.635.236ZM12 8.061a1 1 0 0 1 1 1v6c0 .554-.447 1-1 1H8c-.553 0-1-.446-1-1v-6a1 1 0 0 1 1-1h4Zm-7 2a1 1 0 0 1 1 1v4c0 .554-.447 1-1 1H1a1 1 0 0 1-1-1v-4a1 1 0 0 1 1-1h4Zm9 3a1 1 0 0 1 1-1h4a1 1 0 0 1 1 1v2c0 .554-.447 1-1 1h-4c-.553 0-1-.446-1-1v-2Z" fill="url(#b)"/></g><defs><linearGradient id="b" x1="-.8" y1="6.134" x2="7.391" y2="17.881" gradientUnits="userSpaceOnUse"><stop offset=".474" stop-color="#68B9DC"/><stop offset=".495" stop-color="#42B0DC"/></linearGradient><clipPath id="a"><path fill="#fff" transform="translate(0 .061)" d="M0 0h20v16H0z"/></clipPath></defs></svg>