<svg width="20" height="21" fill="none" xmlns="http://www.w3.org/2000/svg"><path d="M18.457 8.108h-5a.157.157 0 0 0-.156.157v.937c0 .086.07.156.156.156h5c.086 0 .156-.07.156-.156v-.937a.157.157 0 0 0-.156-.157Zm-2.617 2.656h-2.383a.157.157 0 0 0-.156.157v.937c0 .086.07.156.156.156h2.383c.086 0 .156-.07.156-.156v-.937a.157.157 0 0 0-.156-.156ZM9.322 6.36h-.845a.218.218 0 0 0-.22.219v4.844c0 .07.034.134.09.175l2.909 2.122c.098.07.234.05.304-.047l.502-.686v-.002a.219.219 0 0 0-.048-.304l-2.475-1.79V6.58a.217.217 0 0 0-.217-.219Z" fill="url(#a)"/><path d="M15.719 13.223h-1.13a.321.321 0 0 0-.27.15 6.28 6.28 0 0 1-.87 1.089 6.195 6.195 0 0 1-4.4 1.822 6.196 6.196 0 0 1-4.4-1.822 6.195 6.195 0 0 1-1.823-4.4 6.195 6.195 0 0 1 1.822-4.4 6.195 6.195 0 0 1 4.4-1.823 6.194 6.194 0 0 1 4.4 1.822c.333.332.622.695.87 1.088a.32.32 0 0 0 .272.15h1.129c.135 0 .22-.14.16-.26A7.638 7.638 0 0 0 9.14 2.428c-4.221-.053-7.727 3.402-7.735 7.619a7.64 7.64 0 0 0 7.64 7.652 7.64 7.64 0 0 0 6.833-4.215.18.18 0 0 0-.16-.26Z" fill="url(#b)"/><defs><linearGradient id="a" x1="7.843" y1="9.169" x2="11.468" y2="14.987" gradientUnits="userSpaceOnUse"><stop offset=".474" stop-color="#68B9DC"/><stop offset=".495" stop-color="#42B0DC"/></linearGradient><linearGradient id="b" x1=".826" y1="8.223" x2="9.128" y2="17.261" gradientUnits="userSpaceOnUse"><stop offset=".474" stop-color="#68B9DC"/><stop offset=".495" stop-color="#42B0DC"/></linearGradient></defs></svg>