<svg width="20" height="21" fill="none" xmlns="http://www.w3.org/2000/svg"><path d="M2.5 11.728h1.667v5.833a.833.833 0 0 0 .833.834h10a.833.833 0 0 0 .833-.834v-5.833H17.5a.831.831 0 0 0 .823-.963.832.832 0 0 0-.204-.428l-7.5-8.333c-.316-.352-.922-.352-1.238 0l-7.5 8.333a.833.833 0 0 0 .619 1.391Zm4.957-.263c.026.079.678 1.93 2.543 1.93 1.89 0 2.535-1.906 2.542-1.926l1.583.517c-.04.126-1.04 3.075-4.125 3.075-3.086 0-4.084-2.949-4.125-3.074l1.582-.522Z" fill="url(#a)"/><defs><linearGradient id="a" x1="1" y1="8.061" x2="10" y2="18.395" gradientUnits="userSpaceOnUse"><stop offset=".474" stop-color="#68B9DC"/><stop offset=".495" stop-color="#42B0DC"/></linearGradient></defs></svg>