<svg width="4" height="7" viewBox="0 0 4 7" fill="none" xmlns="http://www.w3.org/2000/svg">
<path d="M3.84704 0.178411C3.94498 0.27638 4 0.409237 4 0.547766C4 0.686295 3.94498 0.819152 3.84704 0.917121L1.26103 3.50313L3.84704 6.08914C3.9422 6.18767 3.99486 6.31964 3.99367 6.45661C3.99248 6.59359 3.93754 6.72462 3.84068 6.82149C3.74381 6.91835 3.61278 6.97329 3.4758 6.97448C3.33883 6.97567 3.20686 6.92301 3.10833 6.82785L0.15296 3.87249C0.0550199 3.77452 2.38419e-07 3.64166 2.38419e-07 3.50313C2.38419e-07 3.3646 0.0550199 3.23174 0.15296 3.13377L3.10833 0.178411C3.2063 0.0804712 3.33916 0.0254517 3.47768 0.0254517C3.61621 0.0254517 3.74907 0.0804712 3.84704 0.178411Z" fill="#06AD85"/>
</svg>
