<svg width="18" height="21" viewBox="0 0 18 21" fill="none" xmlns="http://www.w3.org/2000/svg">
<g clip-path="url(#clip0_121_5317)">
<path d="M10.5116 0.0614014H7.3491C6.98278 0.0614014 6.68582 0.35836 6.68582 0.724678C6.68582 1.091 6.98278 1.38795 7.3491 1.38795H10.5116C10.8779 1.38795 11.1749 1.091 11.1749 0.724678C11.1749 0.35836 10.8779 0.0614014 10.5116 0.0614014Z" fill="#F15A24"/>
<path d="M0.928589 11.3662C0.928589 13.2977 1.61176 15.0726 2.74729 16.4629L6.37144 12.8387V12.7605H5.8952V11.3278H6.37144V12.7605H6.4497L8.35861 10.8515H7.95534V9.42418H6.37144V10.8515H5.8952V9.42418H6.37144V8.94794H7.95534V9.42418H8.43157V10.7786L14.0986 5.11155C12.7084 3.97602 10.9335 3.29285 9.00199 3.29285C4.55141 3.29285 0.929915 6.91434 0.929915 11.3649L0.928589 11.3662ZM5.36724 12.7605H4.891V13.2367H3.3071V12.7605H2.83087V11.3278H3.3071V12.7605H4.891V11.3278H5.36724V12.7605ZM5.36724 10.8515H4.891V9.42418H3.3071V10.8515H2.83087V9.42418H3.3071V8.94794H4.891V9.42418H5.36724V10.8515Z" fill="#FFF3BD"/>
<path d="M15.847 15.6444C16.6482 14.3643 17.0727 12.8852 17.0727 11.3663C17.0727 8.84716 15.912 6.59467 14.0973 5.11292L8.43025 10.78V10.8516H8.35862L6.44971 12.7605H7.95402V11.3278H8.43025V12.7605H7.95402V13.2367H6.37012V12.8401L2.74597 16.4642C4.22773 18.279 6.48022 19.4397 8.99934 19.4397C10.2649 19.4397 11.5211 19.1372 12.6421 18.5695L12.1791 17.5971L14.1026 17.9778C14.7738 17.4591 15.3641 16.8396 15.8497 16.1432C15.7542 15.996 15.7462 15.8023 15.8444 15.6444H15.847ZM13.2894 9.42554H13.7656V8.94931H15.3496V9.42554H15.8258V10.8529H15.3496V9.42554H13.7656V10.8529H13.2894V9.42554ZM9.59231 13.3017H9.06434V12.7738H9.59231V13.3017ZM9.59231 11.5772H9.06434V11.0492H9.59231V11.5772ZM12.7614 12.7618H12.2852V13.2381H10.7013V12.7618H10.2251V11.3291H10.7013V12.7618H12.2852V11.3291H12.7614V12.7618ZM12.7614 10.8529H12.2852V9.42554H10.7013V10.8529H10.2251V9.42554H10.7013V8.94931H12.2852V9.42554H12.7614V10.8529ZM15.3482 13.2367H13.7643V12.7605H13.2881V11.3278H13.7643V12.7605H15.3482V11.3278H15.8245V12.7605H15.3482V13.2367Z" fill="#F9C63F"/>
<path d="M3.30842 11.3278H2.83218V12.7604H3.30842V11.3278Z" fill="#F15A24"/>
<path d="M3.30842 9.42554H2.83218V10.8529H3.30842V9.42554Z" fill="#F15A24"/>
<path d="M5.36722 11.3278H4.89099V12.7604H5.36722V11.3278Z" fill="#F15A24"/>
<path d="M5.36722 9.42554H4.89099V10.8529H5.36722V9.42554Z" fill="#F15A24"/>
<path d="M4.11496 8.94934H4.08444H3.30841V9.42557H4.08444H4.11496H4.89099V8.94934H4.11496Z" fill="#F15A24"/>
<path d="M4.08444 12.7605H3.30841V13.2367H4.08444H4.11496H4.89099V12.7605H4.11496H4.08444Z" fill="#F15A24"/>
<path d="M6.37144 11.3278H5.8952V12.7604H6.37144V11.3278Z" fill="#F15A24"/>
<path d="M6.37144 9.42554H5.8952V10.8529H6.37144V9.42554Z" fill="#F15A24"/>
<path d="M8.43024 11.3278H7.95401V12.7604H8.43024V11.3278Z" fill="#F15A24"/>
<path d="M7.95401 9.42554V10.8516H8.35728L8.43024 10.7799V9.42554H7.95401Z" fill="#F15A24"/>
<path d="M8.43026 10.8515V10.7799L8.3573 10.8515H8.43026Z" fill="#F15A24"/>
<path d="M7.17799 8.94934H7.14748H6.37012V9.42557H7.14748H7.17799H7.95402V8.94934H7.17799Z" fill="#F15A24"/>
<path d="M6.37012 12.8388L6.44971 12.7605H6.37012V12.8388Z" fill="#F15A24"/>
<path d="M6.37012 13.2367H7.14748H7.17799H7.95402V12.7605H7.17799H7.14748H6.44971L6.37012 12.8388V13.2367Z" fill="#F15A24"/>
<path d="M10.7013 11.3278H10.2251V12.7604H10.7013V11.3278Z" fill="#F15A24"/>
<path d="M10.7013 9.42554H10.2251V10.8529H10.7013V9.42554Z" fill="#F15A24"/>
<path d="M12.7614 11.3278H12.2852V12.7604H12.7614V11.3278Z" fill="#F15A24"/>
<path d="M12.7614 9.42554H12.2852V10.8529H12.7614V9.42554Z" fill="#F15A24"/>
<path d="M11.5078 8.94934H11.4773H10.7013V9.42557H11.4773H11.5078H12.2852V8.94934H11.5078Z" fill="#F15A24"/>
<path d="M11.4773 12.7605H10.7013V13.2367H11.4773H11.5078H12.2852V12.7605H11.5078H11.4773Z" fill="#F15A24"/>
<path d="M13.7643 11.3278H13.2881V12.7604H13.7643V11.3278Z" fill="#F15A24"/>
<path d="M13.7643 9.42554H13.2881V10.8529H13.7643V9.42554Z" fill="#F15A24"/>
<path d="M15.8244 11.3278H15.3482V12.7604H15.8244V11.3278Z" fill="#F15A24"/>
<path d="M15.8244 9.42554H15.3482V10.8529H15.8244V9.42554Z" fill="#F15A24"/>
<path d="M14.5709 9.42557H15.3482V8.94934H14.5709H14.5403H13.7643V9.42557H14.5403H14.5709Z" fill="#F15A24"/>
<path d="M14.5403 12.7605H13.7643V13.2367H14.5403H14.5709H15.3482V12.7605H14.5709H14.5403Z" fill="#F15A24"/>
<path d="M9.59099 12.7725H9.06302V13.3004H9.59099V12.7725Z" fill="#F15A24"/>
<path d="M9.59099 11.0479H9.06302V11.5758H9.59099V11.0479Z" fill="#F15A24"/>
<path d="M9.65731 2.39214V1.38794H8.46341V2.38418C8.64117 2.37357 8.82025 2.36694 9.00066 2.36694C9.2222 2.36694 9.43975 2.37755 9.65731 2.39347V2.39214Z" fill="#FBB03B"/>
<path d="M9.00066 20.3669C10.4042 20.3669 11.797 20.0353 13.0427 19.4092L12.7641 18.8242C11.6325 19.3959 10.3551 19.7209 9.00066 19.7209C6.39929 19.7209 4.0765 18.531 2.54433 16.6672C1.35972 15.2252 0.647358 13.38 0.647358 11.3676C0.647358 6.75385 4.38691 3.0143 9.00066 3.0143C11.013 3.0143 12.8583 3.72666 14.3002 4.91127C16.164 6.44344 17.354 8.76623 17.354 11.3676C17.354 13.1439 16.7981 14.7901 15.8523 16.1445C15.8881 16.2002 15.9346 16.2493 15.9943 16.2865C16.2118 16.4231 16.4983 16.3568 16.6336 16.1392C17.5277 14.7105 18 13.0616 18 11.3689C18 6.62783 14.3135 2.73307 9.65598 2.3948V2.5845H8.46208V2.38684C3.74884 2.66276 0 6.58405 0 11.3663C0 16.1485 4.03803 20.3669 9.00066 20.3669Z" fill="#F7931E"/>
<path d="M0.928599 11.3662C0.928599 6.91566 4.55009 3.29417 9.00067 3.29417C10.9321 3.29417 12.7071 3.97734 14.0973 5.11287L14.3003 4.90991C12.8583 3.7253 11.0131 3.01294 9.00067 3.01294C4.38692 3.01294 0.647369 6.75249 0.647369 11.3662C0.647369 13.3786 1.35973 15.2239 2.54434 16.6658L2.7473 16.4629C1.61177 15.0726 0.928599 13.2977 0.928599 11.3662Z" fill="#F7931E"/>
<path d="M14.3003 4.90991L14.0973 5.11288C15.912 6.59463 17.0727 8.84712 17.0727 11.3662C17.0727 12.8838 16.6496 14.3643 15.847 15.6444C15.7475 15.8022 15.7568 15.9959 15.8523 16.1432C16.7982 14.7888 17.354 13.1438 17.354 11.3662C17.354 8.76488 16.1641 6.44208 14.3003 4.90991Z" fill="#F7931E"/>
<path d="M9.00068 19.4384C6.48155 19.4384 4.22906 18.2776 2.7473 16.4629L2.54434 16.6659C4.07651 18.5297 6.39931 19.7196 9.00068 19.7196C10.3551 19.7196 11.6326 19.3946 12.7641 18.8228L12.6434 18.5681C11.5225 19.1359 10.2662 19.4384 9.00068 19.4384Z" fill="#F7931E"/>
<path d="M9.65731 2.58183V2.39213C9.43975 2.37621 9.2222 2.3656 9.00066 2.3656C8.82025 2.3656 8.64117 2.37223 8.46341 2.38285V2.5805H9.65731V2.58183Z" fill="#F7931E"/>
<path d="M13.3743 18.7127C13.4937 18.9395 13.4061 19.2208 13.1793 19.3402C13.1342 19.364 13.0878 19.3866 13.0427 19.4091L13.4008 20.1613L14.5151 18.0587L14.1052 17.9778C13.832 18.1887 13.5454 18.385 13.2456 18.5615C13.2974 18.6013 13.3425 18.6517 13.3756 18.714L13.3743 18.7127Z" fill="#F7931E"/>
<path d="M12.6434 18.5681C12.6779 18.5508 12.7137 18.5349 12.7482 18.5177C12.9127 18.4314 13.1063 18.454 13.2456 18.5601C13.5441 18.3837 13.832 18.1887 14.1052 17.9764L12.1817 17.5957L12.6447 18.5681H12.6434Z" fill="#F7931E"/>
<path d="M13.3743 18.7127C13.3411 18.6504 13.296 18.6 13.2443 18.5602C13.0878 18.653 12.9273 18.7406 12.7641 18.8228L13.0427 19.4078C13.0878 19.3853 13.1342 19.3627 13.1793 19.3389C13.4062 19.2195 13.4937 18.9396 13.3743 18.7114V18.7127Z" fill="#F7931E"/>
<path d="M12.7482 18.5177C12.7137 18.5363 12.6779 18.5509 12.6434 18.5682L12.7641 18.8229C12.9273 18.7406 13.0878 18.6531 13.2443 18.5602C13.105 18.4541 12.9127 18.4302 12.7468 18.5177H12.7482Z" fill="#F7931E"/>
</g>
<defs>
<clipPath id="clip0_121_5317">
<rect width="18" height="20.3055" fill="white" transform="translate(0 0.0614014)"/>
</clipPath>
</defs>
</svg>
