<svg width="20" height="21" viewBox="0 0 20 21" fill="none" xmlns="http://www.w3.org/2000/svg">
<g clip-path="url(#clip0_121_5300)">
<path d="M9.99932 20.06C15.5218 20.06 19.9986 15.5832 19.9986 10.0607C19.9986 4.53825 15.5218 0.0614014 9.99932 0.0614014C4.47685 0.0614014 0 4.53825 0 10.0607C0 15.5832 4.47685 20.06 9.99932 20.06Z" fill="#F9C63F"/>
<path opacity="0.2" d="M9.99932 19.2424C15.0702 19.2424 19.1809 15.1316 19.1809 10.0608C19.1809 4.98989 15.0702 0.87915 9.99932 0.87915C4.92846 0.87915 0.817719 4.98989 0.817719 10.0608C0.817719 15.1316 4.92846 19.2424 9.99932 19.2424Z" fill="white"/>
<path d="M10.047 17.2334C14.0174 17.2334 17.2361 14.0148 17.2361 10.0443C17.2361 6.07389 14.0174 2.85522 10.047 2.85522C6.07658 2.85522 2.85791 6.07389 2.85791 10.0443C2.85791 14.0148 6.07658 17.2334 10.047 17.2334Z" fill="#FFF3BD"/>
<path d="M10.0811 10.4873C9.81806 10.4873 9.6041 10.2734 9.6041 10.0103V4.28633C9.6041 4.0233 9.81806 3.80933 10.0811 3.80933C10.3441 3.80933 10.5581 4.0233 10.5581 4.28633V10.0103C10.5581 10.2734 10.3441 10.4873 10.0811 10.4873Z" fill="#F15A24"/>
<path d="M10.0825 10.4873C9.92709 10.4873 9.77581 10.4123 9.6845 10.2733C9.53867 10.0539 9.6 9.75814 9.81942 9.61232L13.7349 7.02288C13.9543 6.87705 14.2501 6.93838 14.3959 7.1578C14.5417 7.37722 14.4804 7.67296 14.261 7.81879L10.3455 10.4082C10.2651 10.4614 10.1738 10.4873 10.0825 10.4873Z" fill="#F15A24"/>
<path d="M11.1032 9.9421C11.1032 9.33995 10.6151 8.85181 10.013 8.85181C9.41081 8.85181 8.92267 9.33995 8.92267 9.9421C8.92267 10.5442 9.41081 11.0324 10.013 11.0324C10.6151 11.0324 11.1032 10.5442 11.1032 9.9421Z" fill="#FCE021"/>
<path d="M10.0129 11.3731C9.22385 11.3731 8.58194 10.7312 8.58194 9.94211C8.58194 9.15302 9.22385 8.51111 10.0129 8.51111C10.802 8.51111 11.4439 9.15302 11.4439 9.94211C11.4439 10.7312 10.802 11.3731 10.0129 11.3731ZM10.0129 9.19254C9.6 9.19254 9.26337 9.52917 9.26337 9.94211C9.26337 10.3551 9.6 10.6917 10.0129 10.6917C10.4259 10.6917 10.7625 10.3551 10.7625 9.94211C10.7625 9.52917 10.4259 9.19254 10.0129 9.19254Z" fill="#FBB03B"/>
<path d="M10.3537 14.7463C10.3537 14.6522 10.2774 14.5759 10.1833 14.5759C10.0892 14.5759 10.0129 14.6522 10.0129 14.7463V16.1773C10.0129 16.2714 10.0892 16.3476 10.1833 16.3476C10.2774 16.3476 10.3537 16.2714 10.3537 16.1773V14.7463Z" fill="#1A1A1A"/>
<path d="M14.817 9.60142C14.7229 9.60142 14.6467 9.67769 14.6467 9.77178C14.6467 9.86587 14.7229 9.94214 14.817 9.94214H16.248C16.3421 9.94214 16.4184 9.86587 16.4184 9.77178C16.4184 9.67769 16.3421 9.60142 16.248 9.60142H14.817Z" fill="#1A1A1A"/>
<path d="M5.20885 10.2829C5.30294 10.2829 5.37921 10.2066 5.37921 10.1125C5.37921 10.0184 5.30294 9.94214 5.20885 9.94214H3.77785C3.68376 9.94214 3.60749 10.0184 3.60749 10.1125C3.60749 10.2066 3.68376 10.2829 3.77785 10.2829H5.20885Z" fill="#1A1A1A"/>
<path d="M4.06542 16.3667C4.01499 16.3667 3.9632 16.3476 3.92368 16.3095C2.20102 14.6509 1.25247 12.4212 1.25247 10.0308C1.25247 7.64031 2.15741 5.51424 3.80375 3.86927C3.88416 3.78886 4.01363 3.78886 4.09268 3.86927C4.17172 3.94968 4.17309 4.07915 4.09268 4.15819C2.52402 5.72685 1.65997 7.81203 1.65997 10.0308C1.65997 12.2495 2.56491 14.4342 4.20579 16.0151C4.28757 16.0928 4.29029 16.2222 4.21125 16.304C4.17172 16.3463 4.11721 16.3667 4.06406 16.3667H4.06542Z" fill="white"/>
</g>
<defs>
<clipPath id="clip0_121_5300">
<rect width="20" height="20" fill="white" transform="translate(0 0.0614014)"/>
</clipPath>
</defs>
</svg>
