<svg width="20" height="22" viewBox="0 0 20 22" fill="none" xmlns="http://www.w3.org/2000/svg">
<g clip-path="url(#clip0_121_5322)">
<path d="M14.7251 9.88792C17.6384 9.88792 20 7.68818 20 4.97466C20 2.26114 17.6384 0.0614014 14.7251 0.0614014C11.8119 0.0614014 9.45026 2.26114 9.45026 4.97466C9.45026 7.68818 11.8119 9.88792 14.7251 9.88792Z" fill="#F9C63F"/>
<g opacity="0.4">
<path opacity="0.4" d="M14.7251 9.2057C17.2341 9.2057 19.268 7.3114 19.268 4.97468C19.268 2.63795 17.2341 0.743652 14.7251 0.743652C12.2162 0.743652 10.1823 2.63795 10.1823 4.97468C10.1823 7.3114 12.2162 9.2057 14.7251 9.2057Z" fill="#FFF3BD"/>
</g>
<g opacity="0.4">
<path opacity="0.4" d="M14.7251 8.66102C16.9107 8.66102 18.6824 7.01056 18.6824 4.97461C18.6824 2.93867 16.9107 1.28821 14.7251 1.28821C12.5396 1.28821 10.7679 2.93867 10.7679 4.97461C10.7679 7.01056 12.5396 8.66102 14.7251 8.66102Z" fill="white"/>
</g>
<path d="M6.2704 0.300049H2.98514C2.76846 0.300049 2.59424 0.464019 2.59424 0.66459V10.1793C2.59424 10.3813 2.41856 10.5438 2.20335 10.5438H0.392353C0.0512359 10.5438 -0.125911 10.9201 0.103941 11.1543L5.72725 16.8874C5.88243 17.0455 6.15035 17.0455 6.30554 16.8874L11.9288 11.1543C12.1587 10.9201 11.9801 10.5438 11.6404 10.5438H9.71817C9.5015 10.5438 9.32728 10.3798 9.32728 10.1793V3.5165" fill="#FFF3BD"/>
<path d="M10.377 4.922H7.09172C6.87504 4.922 6.70083 5.08597 6.70083 5.28654V14.8027C6.70083 15.0047 6.52514 15.1672 6.30993 15.1672H4.5004C4.15928 15.1672 3.98214 15.5435 4.21199 15.7777L9.8353 21.5108C9.99048 21.6689 10.2584 21.6689 10.4136 21.5108L16.0369 15.7777C16.2667 15.5435 16.0881 15.1672 15.7485 15.1672H13.8262C13.6095 15.1672 13.4353 15.0033 13.4353 14.8027V8.13845" fill="#F9C63F"/>
<path d="M13.8335 4.01283C13.8335 4.98641 13.3504 5.47246 12.3856 5.47246C11.4208 5.47246 10.9377 4.98641 10.9377 4.01283C10.9377 3.03926 11.4208 2.54588 12.3856 2.54588C13.3504 2.54588 13.8335 3.03487 13.8335 4.01283ZM13.0503 4.01283C13.0503 3.39794 12.8292 3.0905 12.3856 3.0905C11.942 3.0905 11.7122 3.39794 11.7122 4.01283C11.7122 4.62772 11.9362 4.93517 12.3856 4.93517C12.8351 4.93517 13.0503 4.62772 13.0503 4.01283ZM17.1349 2.87236C17.1349 2.94995 17.11 3.0173 17.0617 3.07586L12.7824 7.9774C12.6901 8.08428 12.5642 8.13698 12.4047 8.13698C12.2817 8.13698 12.1763 8.10038 12.087 8.02864C11.9977 7.95544 11.9537 7.87199 11.9537 7.7739C11.9537 7.7007 11.9816 7.63336 12.0372 7.5704L16.3165 2.66886C16.4029 2.56784 16.5259 2.5166 16.6855 2.5166C16.8084 2.5166 16.9138 2.55174 17.0032 2.62201C17.0925 2.69228 17.1364 2.77573 17.1364 2.87236H17.1349ZM18.1495 6.65685C18.1495 7.63482 17.6634 8.1238 16.6928 8.1238C15.7221 8.1238 15.2536 7.63482 15.2536 6.65685C15.2536 5.67889 15.7338 5.19723 16.6928 5.19723C17.6517 5.19723 18.1495 5.68328 18.1495 6.65685ZM17.3662 6.65685C17.3662 6.04197 17.1422 5.73452 16.6928 5.73452C16.2433 5.73452 16.0384 6.04197 16.0384 6.65685C16.0384 7.27174 16.2565 7.58651 16.6928 7.58651C17.1291 7.58651 17.3662 7.27614 17.3662 6.65685Z" fill="#F15A24"/>
</g>
<defs>
<clipPath id="clip0_121_5322">
<rect width="20" height="21.568" fill="white" transform="translate(0 0.0614014)"/>
</clipPath>
</defs>
</svg>
