<svg width="18" height="21" viewBox="0 0 18 21" fill="none" xmlns="http://www.w3.org/2000/svg">
<g clip-path="url(#clip0_121_5320)">
<path d="M9.024 20.5784V20.5499L9 20.5634L9.024 20.5784Z" fill="#FFF3BD"/>
<path d="M8.976 20.5498V4.59885L9 4.58385L1.6395 0.209848C0.9 -0.228152 0 0.355348 0 1.27635V14.4943C0 14.9383 0.222 15.3478 0.579 15.5593L8.976 20.5483V20.5498Z" fill="#FFF3BD"/>
<path d="M9.024 13.0095L18 8.22896V1.27646C18 0.356959 17.1 -0.228041 16.3605 0.211459L9 4.58396L9.024 4.59896V13.0095Z" fill="#F9C63F"/>
<path d="M8.97601 13.0349L9.02401 13.0094V4.59886L9.00001 4.58386L8.97601 4.59886V13.0349Z" fill="#F9C63F"/>
<path d="M8.97601 20.5784L9.00001 20.5634L8.97601 20.5499V20.5784Z" fill="#FBB03B"/>
<path d="M9.02399 20.5499L17.421 15.5609C17.778 15.3494 18 14.9399 18 14.4959V8.22742L9.02399 13.0079V20.5484V20.5499Z" fill="#FBB03B"/>
<path d="M8.97601 13.0349V20.5499L9.00001 20.5634L9.02401 20.5499V13.0094L8.97601 13.0349Z" fill="#FBB03B"/>
</g>
<defs>
<clipPath id="clip0_121_5320">
<rect width="18" height="20.517" fill="white" transform="translate(0 0.0614014)"/>
</clipPath>
</defs>
</svg>
