<svg width="20" height="20" viewBox="0 0 20 20" fill="none" xmlns="http://www.w3.org/2000/svg">
<g clip-path="url(#clip0_121_5323)">
<path d="M20 6.27645L10.4514 0.233398C10.0889 0.00423177 9.62361 0.00423177 9.26111 0.233398L0 6.09451V6.95423H20V6.27645Z" fill="#F9C63F"/>
<path opacity="0.2" d="M20 6.95446V6.27668L10.4514 0.233624C10.2708 0.119735 10.0667 0.0614014 9.86111 0.0614014V6.95446H20Z" fill="#F7931E"/>
<path d="M18.3625 8.08362H1.63749C1.36902 8.08362 1.15138 8.30126 1.15138 8.56973V8.59056C1.15138 8.85903 1.36902 9.07667 1.63749 9.07667H18.3625C18.631 9.07667 18.8486 8.85903 18.8486 8.59056V8.56973C18.8486 8.30126 18.631 8.08362 18.3625 8.08362Z" fill="#F15A24"/>
<path d="M18.3625 14.4822H1.63749C1.36902 14.4822 1.15138 14.6998 1.15138 14.9683V14.9891C1.15138 15.2576 1.36902 15.4752 1.63749 15.4752H18.3625C18.631 15.4752 18.8486 15.2576 18.8486 14.9891V14.9683C18.8486 14.6998 18.631 14.4822 18.3625 14.4822Z" fill="#F15A24"/>
<path d="M19.5139 16.6058H0.486111C0.217639 16.6058 0 16.8235 0 17.0919V18.9586C0 19.2271 0.217639 19.4447 0.486111 19.4447H19.5139C19.7824 19.4447 20 19.2271 20 18.9586V17.0919C20 16.8235 19.7824 16.6058 19.5139 16.6058Z" fill="#F9C63F"/>
<path d="M2.26667 13.985C1.86528 13.985 1.7125 13.9906 1.48473 14.0003C1.51667 13.7767 1.52639 13.5989 1.52639 13.235V10.385C1.52639 10.1086 1.51528 9.88501 1.48473 9.63501C1.75417 9.65029 1.82778 9.65029 2.26112 9.65029H3.64445C4.5 9.65029 5.00139 10.0572 5.00139 10.7447C5.00139 11.0628 4.89584 11.3128 4.69584 11.4892C4.57917 11.5878 4.48473 11.6406 4.26806 11.7183C4.52639 11.7753 4.66389 11.8378 4.81667 11.9683C5.04306 12.167 5.15973 12.4475 5.15973 12.792C5.15973 13.542 4.62084 13.985 3.70278 13.985H2.26667ZM3.49167 11.3239C3.77084 11.3239 3.94584 11.1628 3.94584 10.9072C3.94584 10.6517 3.78195 10.5058 3.48056 10.5058H2.5625V11.3239H3.49167ZM2.5625 13.1267H3.53334C3.86667 13.1267 4.06667 12.9447 4.06667 12.6364C4.06667 12.3281 3.86667 12.1572 3.52778 12.1572H2.56112V13.1267H2.5625Z" fill="#F15A24"/>
<path d="M8.68751 13.985C8.64584 13.735 8.6139 13.5989 8.56112 13.4225L8.41806 12.9794H6.9139L6.77084 13.4225C6.70279 13.6308 6.66529 13.7919 6.6389 13.985H5.40279C5.48195 13.8294 5.52917 13.7044 5.65695 13.3489L6.79723 10.2128C6.89167 9.95721 6.94029 9.80166 6.96667 9.65027H8.34445C8.38195 9.80166 8.41806 9.93638 8.52362 10.2128L9.66945 13.3489C9.76945 13.6253 9.85418 13.8392 9.92223 13.985H8.68612H8.68751ZM7.65834 10.5419L7.16667 12.1044H8.15973L7.65834 10.5419Z" fill="#F15A24"/>
<path d="M12.8111 11.7808C12.9639 12.0044 13.0653 12.1711 13.1917 12.4003C13.1708 12.1614 13.1597 11.9211 13.1597 11.6294V10.4419C13.1597 10.0975 13.1486 9.88916 13.1181 9.65027H14.2431C14.2111 9.88499 14.2014 10.103 14.2014 10.4419V13.2072C14.2014 13.5253 14.2167 13.7642 14.2431 13.9836H13.0861C12.9917 13.785 12.8695 13.5933 12.6903 13.3225L11.7139 11.8697C11.5708 11.6614 11.482 11.5058 11.3333 11.2294C11.3597 11.4642 11.3708 11.7503 11.3708 12.0058V13.1725C11.3708 13.5322 11.382 13.7614 11.4125 13.985H10.2875C10.3195 13.7822 10.3292 13.553 10.3292 13.1669V10.4267C10.3292 10.1253 10.3181 9.89055 10.2875 9.65027H11.4333C11.4861 9.79055 11.6028 9.99888 11.8083 10.3017L12.8111 11.7808Z" fill="#F15A24"/>
<path d="M18.5083 13.2142C18.8195 13.6726 18.8889 13.767 19.0681 13.9851H17.6958C17.6222 13.8184 17.4695 13.542 17.332 13.324L16.5139 12.0323L15.9806 12.5587V13.2142C15.9806 13.5378 15.9917 13.7087 16.0222 13.9851H14.9028C14.9347 13.7198 14.9445 13.5267 14.9445 13.2142V10.4226C14.9445 10.1045 14.9333 9.90173 14.9028 9.65173H16.0222C15.9903 9.92257 15.9806 10.0948 15.9806 10.4226V11.3448L17.032 10.2351C17.2375 10.0212 17.375 9.84479 17.4917 9.65173H18.9167C18.8222 9.74479 18.7847 9.78784 18.7111 9.86007L18.3417 10.2253L17.2375 11.3656L18.5097 13.2142H18.5083Z" fill="#F15A24"/>
<path d="M9.99999 5.69478C10.9205 5.69478 11.6667 4.94859 11.6667 4.02812C11.6667 3.10764 10.9205 2.36145 9.99999 2.36145C9.07952 2.36145 8.33333 3.10764 8.33333 4.02812C8.33333 4.94859 9.07952 5.69478 9.99999 5.69478Z" fill="#FFF3BD"/>
<g opacity="0.2">
<path opacity="0.2" d="M4.8611 16.5281H2.77777V19.4447H4.8611V16.5281Z" fill="#FFF3BD"/>
<path opacity="0.2" d="M9.02778 16.5281H6.94444V19.4447H9.02778V16.5281Z" fill="#FFF3BD"/>
<path opacity="0.2" d="M13.1944 16.5281H11.1111V19.4447H13.1944V16.5281Z" fill="#FFF3BD"/>
<path opacity="0.2" d="M17.3611 16.5281H15.2778V19.4447H17.3611V16.5281Z" fill="#FFF3BD"/>
</g>
</g>
<defs>
<clipPath id="clip0_121_5323">
<rect width="20" height="19.3833" fill="white" transform="translate(0 0.0614014)"/>
</clipPath>
</defs>
</svg>
