<svg width="20" height="21" viewBox="0 0 20 21" fill="none" xmlns="http://www.w3.org/2000/svg">
<g clip-path="url(#clip0_121_5314)">
<path d="M15.0816 0.257515C14.8196 -0.00445823 14.3938 -0.00445823 14.1318 0.257515C13.8698 0.519489 13.8698 0.945364 14.1318 1.20734L16.0516 3.12713L17.0014 2.17731L15.0816 0.257515Z" fill="#ED1C24"/>
<path d="M17.9512 3.1272L17.0014 4.07702L18.7869 5.86247C18.9185 5.99413 19.0905 6.05861 19.2624 6.05861C19.4344 6.05861 19.6064 5.99278 19.738 5.86247C20 5.6005 20 5.17462 19.738 4.91265L17.9526 3.1272H17.9512Z" fill="#ED1C24"/>
<path d="M14.199 4.97982C13.937 5.24179 13.937 5.66767 14.199 5.92964C14.3306 6.0613 14.5026 6.12579 14.6745 6.12579C14.8465 6.12579 15.0185 6.05996 15.1501 5.92964L17.0027 4.07702L16.0529 3.1272L14.2003 4.97982H14.199Z" fill="#ED1C24"/>
<path d="M19.8038 1.27594C20.0658 1.01397 20.0658 0.588092 19.8038 0.326119C19.5419 0.0641453 19.116 0.0641453 18.854 0.326119L17.0014 2.17874L17.9512 3.12856L19.8038 1.27594Z" fill="#ED1C24"/>
<path d="M17.0015 2.17748L16.0515 3.12744L17.0015 4.07741L17.9514 3.12744L17.0015 2.17748Z" fill="#ED1C24"/>
<path d="M4.37967 4.30402C4.37967 2.70799 5.67745 1.41022 7.27347 1.41022C8.86949 1.41022 10.1673 2.70799 10.1673 4.30402V6.2265C10.6375 6.43071 11.0808 6.68328 11.4919 6.97749V4.30402C11.4933 1.97716 9.60033 0.0842285 7.27347 0.0842285C4.94661 0.0842285 3.05368 1.97716 3.05368 4.30402V6.97749C3.46612 6.68328 3.90946 6.43071 4.37833 6.2265V4.30402H4.37967Z" fill="#F7931E"/>
<path d="M7.27347 6.34741C8.31599 6.34741 9.29806 6.59729 10.1673 7.03929V6.2265C9.28059 5.84093 8.30256 5.62598 7.27347 5.62598C6.24438 5.62598 5.26635 5.84093 4.37967 6.2265V7.03929C5.24888 6.59729 6.23229 6.34741 7.27347 6.34741Z" fill="#F7931E"/>
<path d="M7.27346 20.1743C11.2904 20.1743 14.5469 16.9178 14.5469 12.9008C14.5469 10.4571 13.3405 8.29681 11.4933 6.97754V7.50552H10.9438C12.5962 8.66357 13.6777 10.5807 13.6777 12.753C13.6777 16.2904 10.8108 19.1573 7.27346 19.1573C3.73615 19.1573 0.869215 16.289 0.869215 12.7517C0.869215 10.5807 1.9507 8.66223 3.60314 7.50417H3.05367V6.9762C1.20642 8.29547 0 10.4571 0 12.8995C0 16.9164 3.25653 20.1729 7.27346 20.1729V20.1743Z" fill="#F7931E"/>
<path d="M3.6045 7.50419C3.85035 7.33223 4.10963 7.17638 4.37967 7.03935V6.22656C3.90946 6.43077 3.46612 6.68334 3.05502 6.97755V7.50553H3.6045V7.50419Z" fill="#F7931E"/>
<path d="M10.1673 7.03935C10.4373 7.17638 10.6966 7.33223 10.9424 7.50419H11.4919V6.97621C11.0795 6.68199 10.6361 6.42942 10.1673 6.22522V7.03801V7.03935Z" fill="#F7931E"/>
<path d="M10.1672 7.03929C9.29803 6.59729 8.31462 6.34741 7.27345 6.34741C6.23227 6.34741 5.24886 6.59729 4.37965 7.03929V7.50413H3.60447C1.95203 8.66218 0.870544 10.5793 0.870544 12.7517C0.870544 16.289 3.73748 19.1559 7.27479 19.1559C10.8121 19.1559 13.679 16.289 13.679 12.7517C13.679 10.5806 12.5976 8.66218 10.9451 7.50413H10.1699V7.03929H10.1672ZM12.9133 12.8161C12.9133 15.9316 10.3876 18.4573 7.2721 18.4573C7.23314 18.4573 7.19553 18.4546 7.15657 18.4546C4.09483 18.3928 1.63094 15.894 1.63094 12.8161C1.63094 9.73829 4.09618 7.24081 7.15791 7.17901C7.19687 7.17901 7.23449 7.17632 7.27345 7.17632C10.3889 7.17632 12.9146 9.70202 12.9146 12.8175L12.9133 12.8161Z" fill="#FFF3BD"/>
<path d="M4.37967 7.03931C4.10963 7.17634 3.85034 7.33218 3.60449 7.50414H4.37967V7.03931Z" fill="#FFF3BD"/>
<path d="M10.1673 7.50414H10.9424C10.6966 7.33218 10.4373 7.17634 10.1673 7.03931V7.50414Z" fill="#FFF3BD"/>
<path d="M5.47592 16.148L6.73608 13.3052C5.90448 13.0849 5.29052 12.3299 5.29052 11.4284C5.29052 10.3805 6.12077 9.52878 7.15792 9.48982V7.17908C4.09619 7.24088 1.63229 9.7397 1.63229 12.8176C1.63229 15.8954 4.09619 18.3942 7.15792 18.456V16.1493H5.47457L5.47592 16.148Z" fill="#F9C63F"/>
<path d="M7.15793 7.17908V9.48982C7.18345 9.48982 7.20764 9.48579 7.23316 9.48579C8.30658 9.48579 9.1758 10.3563 9.1758 11.4284C9.1758 12.2694 8.63976 12.9841 7.8928 13.2542L9.1758 16.148H7.15793V18.4547C7.19689 18.4547 7.23451 18.4574 7.27347 18.4574C10.3889 18.4574 12.9146 15.9317 12.9146 12.8162C12.9146 9.70074 10.3889 7.17505 7.27347 7.17505C7.23451 7.17505 7.19689 7.17774 7.15793 7.17774V7.17908Z" fill="#EAAA28"/>
<path d="M5.29053 11.4284C5.29053 12.3298 5.90449 13.0848 6.73608 13.3052L5.47592 16.1479H7.15927V9.48975C6.12078 9.53005 5.29187 10.3818 5.29187 11.4284H5.29053Z" fill="#FFF3BD"/>
<path d="M9.1758 16.1479L7.8928 13.2541C8.6411 12.9841 9.1758 12.2694 9.1758 11.4284C9.1758 10.3549 8.30524 9.48572 7.23316 9.48572C7.20764 9.48572 7.18345 9.4884 7.15793 9.48975V16.1479H9.1758Z" fill="#FFF3BD"/>
</g>
<defs>
<clipPath id="clip0_121_5314">
<rect width="20" height="20.1129" fill="white" transform="translate(0 0.0614014)"/>
</clipPath>
</defs>
</svg>
