<svg width="20" height="21" viewBox="0 0 20 21" fill="none" xmlns="http://www.w3.org/2000/svg">
<g clip-path="url(#clip0_121_5316)">
<path d="M20 18.639V16.339L14.3269 13.2017L12.3358 14.5061L20 18.639Z" fill="#F15A24"/>
<path d="M7.38358 15.2196L0 12.5331V14.6674L5.28657 16.5913L7.16716 15.3585L7.38358 15.2196Z" fill="#F9C63F"/>
<path d="M20 9.17188H16.8254L7.38358 15.2196L7.76418 15.3584L8.5 15.6271L7.42687 17.3704L5.67015 16.7301L5.28657 16.5913L5.07313 16.7301L0 19.9137V20.642H2.75522L12.3358 14.5062L11.5731 14.1241L12.9403 12.5077L14.3269 13.2017L20 9.62561V9.17188Z" fill="#F9C63F"/>
<path d="M11.5731 14.1241L12.3358 14.5062L14.3269 13.2017L12.9403 12.5077L11.5731 14.1241Z" fill="#F9C63F"/>
<path d="M7.42686 17.3704L8.49999 15.6271L7.76417 15.3584L7.38358 15.2196L7.16716 15.3584L5.28656 16.5912L5.67014 16.7301L7.42686 17.3704Z" fill="#F9C63F"/>
<path d="M9.86865 13.2256L13.5403 6.64947C13.5612 6.61663 13.5776 6.5823 13.597 6.54797H11.7881C11.2895 7.02559 10.6149 7.32111 9.87015 7.32111C9.12537 7.32111 8.45074 7.02559 7.95223 6.54797H6.14328C6.16268 6.58081 6.1791 6.61663 6.2 6.64947L9.87164 13.2256H9.86865Z" fill="#F15A24"/>
<path d="M11.7881 6.54942H13.597C13.6343 6.48375 13.6731 6.41808 13.7075 6.35091L13.7209 6.32554C13.9179 5.933 14.0552 5.50614 14.1254 5.05688H12.5925C12.4851 5.63897 12.197 6.15539 11.7866 6.54942H11.7881Z" fill="#F15A24"/>
<path opacity="0.3" d="M11.7881 6.54942H13.597C13.6343 6.48375 13.6731 6.41808 13.7075 6.35091L13.7209 6.32554C13.9179 5.933 14.0552 5.50614 14.1254 5.05688H12.5925C12.4851 5.63897 12.197 6.15539 11.7866 6.54942H11.7881Z" fill="#FBB03B"/>
<path d="M7.14627 5.05688H5.61343C5.68358 5.50614 5.8209 5.933 6.01791 6.32554L6.03134 6.35091C6.06567 6.41808 6.10448 6.48375 6.14179 6.54942H7.95075C7.54179 6.15539 7.25224 5.63897 7.14478 5.05688H7.14627Z" fill="#F15A24"/>
<path opacity="0.3" d="M7.14627 5.05688H5.61343C5.68358 5.50614 5.8209 5.933 6.01791 6.32554L6.03134 6.35091C6.06567 6.41808 6.10448 6.48375 6.14179 6.54942H7.95075C7.54179 6.15539 7.25224 5.63897 7.14478 5.05688H7.14627Z" fill="#FBB03B"/>
<path d="M7.0985 4.55098C7.0985 3.01964 8.3388 1.77934 9.87014 1.77934C11.4015 1.77934 12.6418 3.01964 12.6418 4.55098C12.6418 4.72412 12.6239 4.89277 12.594 5.05546H14.1269C14.1612 4.83606 14.1806 4.61217 14.1806 4.38382C14.1806 1.99576 12.2507 0.0599365 9.87014 0.0599365C7.48954 0.0599365 5.55969 1.99576 5.55969 4.38382C5.55969 4.61217 5.5791 4.83606 5.61342 5.05546H7.14626C7.11641 4.89128 7.0985 4.72262 7.0985 4.55098Z" fill="#F15A24"/>
<path opacity="0.2" d="M7.0985 4.55098C7.0985 3.01964 8.3388 1.77934 9.87014 1.77934C11.4015 1.77934 12.6418 3.01964 12.6418 4.55098C12.6418 4.72412 12.6239 4.89277 12.594 5.05546H14.1269C14.1612 4.83606 14.1806 4.61217 14.1806 4.38382C14.1806 1.99576 12.2507 0.0599365 9.87014 0.0599365C7.48954 0.0599365 5.55969 1.99576 5.55969 4.38382C5.55969 4.61217 5.5791 4.83606 5.61342 5.05546H7.14626C7.11641 4.89128 7.0985 4.72262 7.0985 4.55098Z" fill="#FBB03B"/>
<path opacity="0.3" d="M7.0985 4.55098C7.0985 3.01964 8.3388 1.77934 9.87014 1.77934C11.4015 1.77934 12.6418 3.01964 12.6418 4.55098C12.6418 4.72412 12.6239 4.89277 12.594 5.05546H14.1269C14.1612 4.83606 14.1806 4.61217 14.1806 4.38382C14.1806 1.99576 12.2507 0.0599365 9.87014 0.0599365C7.48954 0.0599365 5.55969 1.99576 5.55969 4.38382C5.55969 4.61217 5.5791 4.83606 5.61342 5.05546H7.14626C7.11641 4.89128 7.0985 4.72262 7.0985 4.55098Z" fill="#FBB03B"/>
</g>
<defs>
<clipPath id="clip0_121_5316">
<rect width="20" height="20.5806" fill="white" transform="translate(0 0.0614014)"/>
</clipPath>
</defs>
</svg>
