<svg width="20" height="20" viewBox="0 0 20 20" fill="none" xmlns="http://www.w3.org/2000/svg">
<g clip-path="url(#clip0_121_5319)">
<path d="M16.8919 6.14246H0V19.656H16.8919V6.14246Z" fill="#FFF3BD"/>
<path d="M3.03106 7.52086C2.72836 7.52086 2.48376 7.27627 2.48376 6.97356V4.53167C2.48376 4.22897 2.72836 3.98438 3.03106 3.98438C3.33376 3.98438 3.57836 4.22897 3.57836 4.53167V6.97356C3.57836 7.27627 3.33376 7.52086 3.03106 7.52086Z" fill="#1A1A1A"/>
<path d="M6.65267 7.56273C6.34997 7.56273 6.10538 7.31814 6.10538 7.01543V4.57354C6.10538 4.27084 6.34997 4.02625 6.65267 4.02625C6.95538 4.02625 7.19997 4.27084 7.19997 4.57354V7.01543C7.19997 7.31814 6.95538 7.56273 6.65267 7.56273Z" fill="#1A1A1A"/>
<path d="M10.2729 7.6046C9.97024 7.6046 9.72565 7.36001 9.72565 7.0573V4.61541C9.72565 4.31271 9.97024 4.06812 10.2729 4.06812C10.5756 4.06812 10.8202 4.31271 10.8202 4.61541V7.0573C10.8202 7.36001 10.5756 7.6046 10.2729 7.6046Z" fill="#1A1A1A"/>
<path d="M13.8932 7.64659C13.5905 7.64659 13.3459 7.402 13.3459 7.0993V4.6574C13.3459 4.3547 13.5905 4.11011 13.8932 4.11011C14.1959 4.11011 14.4405 4.3547 14.4405 4.6574V7.0993C14.4405 7.402 14.1959 7.64659 13.8932 7.64659Z" fill="#1A1A1A"/>
<path d="M15.6203 9.19654H1.30539C1.19323 9.19654 1.10269 9.106 1.10269 8.99384C1.10269 8.88168 1.19323 8.79114 1.30539 8.79114H15.6203C15.7324 8.79114 15.823 8.88168 15.823 8.99384C15.823 9.106 15.7324 9.19654 15.6203 9.19654Z" fill="#F7931E"/>
<path d="M2.89324 10.3844H1.90675C1.59777 10.3844 1.34729 10.6349 1.34729 10.9439V11.9303C1.34729 12.2393 1.59777 12.4898 1.90675 12.4898H2.89324C3.20222 12.4898 3.4527 12.2393 3.4527 11.9303V10.9439C3.4527 10.6349 3.20222 10.3844 2.89324 10.3844Z" fill="#F15A24"/>
<path d="M5.9243 10.3844H4.93782C4.62884 10.3844 4.37836 10.6349 4.37836 10.9439V11.9303C4.37836 12.2393 4.62884 12.4898 4.93782 12.4898H5.9243C6.23328 12.4898 6.48376 12.2393 6.48376 11.9303V10.9439C6.48376 10.6349 6.23328 10.3844 5.9243 10.3844Z" fill="#F15A24"/>
<path d="M8.95674 10.3844H7.97026C7.66128 10.3844 7.4108 10.6349 7.4108 10.9439V11.9303C7.4108 12.2393 7.66128 12.4898 7.97026 12.4898H8.95674C9.26572 12.4898 9.5162 12.2393 9.5162 11.9303V10.9439C9.5162 10.6349 9.26572 10.3844 8.95674 10.3844Z" fill="#F15A24"/>
<path d="M11.9878 10.3844H11.0014C10.6924 10.3844 10.4419 10.6349 10.4419 10.9439V11.9303C10.4419 12.2393 10.6924 12.4898 11.0014 12.4898H11.9878C12.2968 12.4898 12.5473 12.2393 12.5473 11.9303V10.9439C12.5473 10.6349 12.2968 10.3844 11.9878 10.3844Z" fill="#F15A24"/>
<path d="M15.0189 10.3844H14.0324C13.7234 10.3844 13.473 10.6349 13.473 10.9439V11.9303C13.473 12.2393 13.7234 12.4898 14.0324 12.4898H15.0189C15.3279 12.4898 15.5784 12.2393 15.5784 11.9303V10.9439C15.5784 10.6349 15.3279 10.3844 15.0189 10.3844Z" fill="#F15A24"/>
<path d="M2.93514 13.4154H1.94865C1.63967 13.4154 1.38919 13.6659 1.38919 13.9749V14.9614C1.38919 15.2703 1.63967 15.5208 1.94865 15.5208H2.93514C3.24412 15.5208 3.4946 15.2703 3.4946 14.9614V13.9749C3.4946 13.6659 3.24412 13.4154 2.93514 13.4154Z" fill="#F15A24"/>
<path d="M5.9662 13.4154H4.97972C4.67074 13.4154 4.42026 13.6659 4.42026 13.9749V14.9614C4.42026 15.2703 4.67074 15.5208 4.97972 15.5208H5.9662C6.27518 15.5208 6.52566 15.2703 6.52566 14.9614V13.9749C6.52566 13.6659 6.27518 13.4154 5.9662 13.4154Z" fill="#F15A24"/>
<path d="M8.99864 13.4154H8.01216C7.70318 13.4154 7.4527 13.6659 7.4527 13.9749V14.9614C7.4527 15.2703 7.70318 15.5208 8.01216 15.5208H8.99864C9.30762 15.5208 9.5581 15.2703 9.5581 14.9614V13.9749C9.5581 13.6659 9.30762 13.4154 8.99864 13.4154Z" fill="#F15A24"/>
<path d="M12.0297 13.4154H11.0433C10.7343 13.4154 10.4838 13.6659 10.4838 13.9749V14.9614C10.4838 15.2703 10.7343 15.5208 11.0433 15.5208H12.0297C12.3387 15.5208 12.5892 15.2703 12.5892 14.9614V13.9749C12.5892 13.6659 12.3387 13.4154 12.0297 13.4154Z" fill="#F15A24"/>
<path d="M15.0608 13.4154H14.0743C13.7653 13.4154 13.5149 13.6659 13.5149 13.9749V14.9614C13.5149 15.2703 13.7653 15.5208 14.0743 15.5208H15.0608C15.3698 15.5208 15.6203 15.2703 15.6203 14.9614V13.9749C15.6203 13.6659 15.3698 13.4154 15.0608 13.4154Z" fill="#F15A24"/>
<path d="M15.4054 9.25059C17.9429 9.25059 20 7.19352 20 4.656C20 2.11847 17.9429 0.0614014 15.4054 0.0614014C12.8679 0.0614014 10.8108 2.11847 10.8108 4.656C10.8108 7.19352 12.8679 9.25059 15.4054 9.25059Z" fill="#F9C63F"/>
<path opacity="0.2" d="M15.4054 8.5749C17.5698 8.5749 19.3243 6.82034 19.3243 4.65598C19.3243 2.49162 17.5698 0.737061 15.4054 0.737061C13.241 0.737061 11.4865 2.49162 11.4865 4.65598C11.4865 6.82034 13.241 8.5749 15.4054 8.5749Z" fill="#FFF3BD"/>
<path opacity="0.2" d="M15.4054 8.16948C17.3459 8.16948 18.9189 6.59643 18.9189 4.65597C18.9189 2.71551 17.3459 1.14246 15.4054 1.14246C13.465 1.14246 11.8919 2.71551 11.8919 4.65597C11.8919 6.59643 13.465 8.16948 15.4054 8.16948Z" fill="white"/>
<path d="M18.8027 4.0384C18.7243 3.96002 18.5987 3.96002 18.5203 4.0384L17.3676 5.1911C17.3554 5.1884 17.3432 5.18705 17.3297 5.18705C17.3162 5.18705 17.3041 5.1884 17.2919 5.1911L16.1392 4.0384C16.0608 3.96002 15.9351 3.96002 15.8568 4.0384C15.7784 4.11678 15.7784 4.24245 15.8568 4.32083L16.9811 5.44515H16.2176C16.1068 5.44515 16.0176 5.53434 16.0176 5.64515C16.0176 5.75597 16.1068 5.84515 16.2176 5.84515H17.1311V6.24515H16.2176C16.1068 6.24515 16.0176 6.33434 16.0176 6.44516C16.0176 6.55597 16.1068 6.64515 16.2176 6.64515H17.1311V7.21543C17.1311 7.32624 17.2203 7.41542 17.3311 7.41542C17.4419 7.41542 17.5311 7.32624 17.5311 7.21543V6.64515H18.4446C18.5554 6.64515 18.6446 6.55597 18.6446 6.44516C18.6446 6.33434 18.5554 6.24515 18.4446 6.24515H17.5311V5.84515H18.4446C18.5554 5.84515 18.6446 5.75597 18.6446 5.64515C18.6446 5.53434 18.5554 5.44515 18.4446 5.44515H17.6811L18.8054 4.32083C18.8838 4.24245 18.8838 4.11678 18.8054 4.0384H18.8027Z" fill="#F15A24"/>
<path d="M15.0851 7.03442C14.7946 7.4182 14.4189 7.60875 13.9743 7.60875C13.4838 7.60875 13.0784 7.40199 12.7716 6.97226C12.4878 6.54253 12.3419 5.74658 12.3419 4.58848C12.3419 3.76145 12.4189 3.11685 12.5716 2.64253C12.8392 1.88442 13.3068 1.5155 13.9743 1.5155C14.45 1.5155 14.8243 1.71415 15.1311 2.1128C15.4446 2.48848 15.5905 3.3155 15.5905 4.58848C15.5905 5.76821 15.4216 6.58848 15.0851 7.03307V7.03442ZM14.4419 2.84253C14.3122 2.65875 14.1581 2.55875 13.9743 2.55875C13.6824 2.55875 13.4919 2.77361 13.3919 3.19523C13.3081 3.50199 13.2689 3.96956 13.2689 4.58983C13.2689 5.2101 13.3068 5.68577 13.3919 5.99929C13.4919 6.42091 13.6824 6.63577 13.9743 6.63577C14.1203 6.63577 14.25 6.53577 14.3649 6.33712C14.5568 5.99253 14.6568 5.40199 14.6568 4.58983C14.6568 3.64658 14.5797 3.06415 14.4419 2.84253Z" fill="#F15A24"/>
<path d="M16.8919 16.9532H0V19.656H16.8919V16.9532Z" fill="#F9C63F"/>
</g>
<defs>
<clipPath id="clip0_121_5319">
<rect width="20" height="19.5946" fill="white" transform="translate(0 0.0614014)"/>
</clipPath>
</defs>
</svg>
