<svg width="19" height="21" viewBox="0 0 19 21" fill="none" xmlns="http://www.w3.org/2000/svg">
<g clip-path="url(#clip0_121_5318)">
<path d="M17.2701 8.47253V19.8641H1.72992V8.47253" fill="#FFF3BD"/>
<g opacity="0.1">
<g opacity="0.1">
<path opacity="0.1" d="M17.3575 15.7578H1.72726V19.7316H17.3575V15.7578Z" fill="#F15A24"/>
</g>
</g>
<g opacity="0.1">
<path opacity="0.1" d="M0.00531006 9.26733H3.18169V9.40112C3.18169 10.278 2.47038 10.9893 1.5935 10.9893C0.716618 10.9893 0.00531006 10.278 0.00531006 9.40112V9.26733Z" fill="#808080"/>
<path opacity="0.1" d="M3.06381 9.26733H6.24019V9.40112C6.24019 10.278 5.52888 10.9893 4.652 10.9893C3.77512 10.9893 3.06381 10.278 3.06381 9.40112V9.26733Z" fill="#808080"/>
<path opacity="0.1" d="M6.24017 9.26733H9.41655V9.40112C9.41655 10.278 8.70525 10.9893 7.82836 10.9893C6.95148 10.9893 6.24017 10.278 6.24017 9.40112V9.26733Z" fill="#808080"/>
<path opacity="0.1" d="M9.41788 9.26733H12.5943V9.40112C12.5943 10.278 11.8829 10.9893 11.0061 10.9893C10.1292 10.9893 9.41788 10.278 9.41788 9.40112V9.26733Z" fill="#808080"/>
<path opacity="0.1" d="M12.5943 9.26733H15.7706V9.40112C15.7706 10.278 15.0593 10.9893 14.1825 10.9893C13.3056 10.9893 12.5943 10.278 12.5943 9.40112V9.26733Z" fill="#808080"/>
<path opacity="0.1" d="M15.7707 9.26733H18.947V9.40112C18.947 10.278 18.2357 10.9893 17.3589 10.9893C16.482 10.9893 15.7707 10.278 15.7707 9.40112V9.26733Z" fill="#808080"/>
</g>
<path d="M0.00531006 8.73755H3.18169V8.87133C3.18169 9.74822 2.47038 10.4595 1.5935 10.4595C0.716618 10.4595 0.00531006 9.74822 0.00531006 8.87133V8.73755Z" fill="#F15A24"/>
<path d="M3.06381 8.73755H6.24019V8.87133C6.24019 9.74822 5.52888 10.4595 4.652 10.4595C3.77512 10.4595 3.06381 9.74822 3.06381 8.87133V8.73755Z" fill="#F15A24"/>
<path d="M6.24017 8.73755H9.41655V8.87133C9.41655 9.74822 8.70525 10.4595 7.82836 10.4595C6.95148 10.4595 6.24017 9.74822 6.24017 8.87133V8.73755Z" fill="#F15A24"/>
<path d="M9.41788 8.73755H12.5943V8.87133C12.5943 9.74822 11.8829 10.4595 11.0061 10.4595C10.1292 10.4595 9.41788 9.74822 9.41788 8.87133V8.73755Z" fill="#F15A24"/>
<path d="M12.5943 8.73755H15.7706V8.87133C15.7706 9.74822 15.0593 10.4595 14.1825 10.4595C13.3056 10.4595 12.5943 9.74822 12.5943 8.87133V8.73755Z" fill="#F15A24"/>
<path d="M15.7707 8.73755H18.947V8.87133C18.947 9.74822 18.2357 10.4595 17.3589 10.4595C16.482 10.4595 15.7707 9.74822 15.7707 8.87133V8.73755Z" fill="#F15A24"/>
<path d="M0.641104 4.07751H18.3589C18.7126 4.07751 19 4.36495 19 4.71862V8.82751H0V4.71862C0 4.36495 0.287437 4.07751 0.641104 4.07751Z" fill="#FBB03B"/>
<path d="M18.947 4.10144H0.00531006V5.16112H18.947V4.10144Z" fill="#F7931E"/>
<path d="M11.2591 0.525024H7.74096C6.59095 0.525024 5.65869 1.45729 5.65869 2.60729V3.77956C5.65869 4.92956 6.59095 5.86182 7.74096 5.86182H11.2591C12.4091 5.86182 13.3413 4.92956 13.3413 3.77956V2.60729C13.3413 1.45729 12.4091 0.525024 11.2591 0.525024Z" fill="white"/>
<path d="M11.2591 6.32541H7.74094C6.33687 6.32541 5.19507 5.18361 5.19507 3.77954V2.60727C5.19507 1.2032 6.33687 0.0614014 7.74094 0.0614014H11.2591C12.6631 0.0614014 13.8049 1.2032 13.8049 2.60727V3.77954C13.8049 5.18361 12.6631 6.32541 11.2591 6.32541ZM7.74094 0.988618C6.84816 0.988618 6.12229 1.7145 6.12229 2.60727V3.77954C6.12229 4.67232 6.84816 5.3982 7.74094 5.3982H11.2591C12.1518 5.3982 12.8777 4.67232 12.8777 3.77954V2.60727C12.8777 1.7145 12.1518 0.988618 11.2591 0.988618H7.74094Z" fill="#FBB03B"/>
<path d="M5.82954 13.4081H8.93174C9.4033 13.4081 9.78478 13.7909 9.78478 14.2611V19.9754H4.9765V14.2611C4.9765 13.7896 5.35931 13.4081 5.82954 13.4081Z" fill="#F7931E"/>
<path d="M8.57544 1.72241C8.72247 1.72241 8.86553 1.78334 8.97149 1.89064L9.13442 2.05356C9.24039 2.15953 9.30264 2.30259 9.30264 2.44962V2.83375C9.30264 2.9768 9.22052 3.13576 9.10263 3.22185L7.92506 4.09741C7.8681 4.14245 7.83499 4.20735 7.83499 4.27756H9.00461C9.1278 4.27756 9.22581 4.37558 9.22581 4.49876C9.22581 4.62195 9.1278 4.71997 9.00461 4.71997H7.631C7.50384 4.71997 7.39787 4.614 7.39787 4.48684V4.16762C7.3939 4.02059 7.46278 3.88548 7.58199 3.79938L8.79267 2.90395C8.83373 2.87084 8.86155 2.82183 8.86155 2.76487V2.4867C8.86155 2.43372 8.83638 2.38074 8.80062 2.33967C8.76353 2.30259 8.72247 2.26152 8.6867 2.22576C8.64564 2.18867 8.59266 2.16483 8.53967 2.16483H8.13435C8.08136 2.16483 8.02441 2.18867 7.98732 2.22576C7.95023 2.26285 7.90917 2.30391 7.8734 2.33967C7.83631 2.38074 7.81247 2.43372 7.81247 2.4867V2.65493C7.81247 2.77811 7.71445 2.87614 7.59126 2.87614C7.46808 2.87614 7.37006 2.77811 7.37006 2.65493V2.45094C7.37006 2.30391 7.43099 2.16085 7.53298 2.05489L7.70121 1.89196C7.80717 1.78599 7.95023 1.72374 8.09726 1.72374H8.57544V1.72241Z" fill="#F15A24"/>
<path d="M11.3107 3.92256H11.4617C11.5849 3.92256 11.6829 4.02058 11.6829 4.14377C11.6829 4.26696 11.5849 4.36498 11.4617 4.36498H11.3107V4.59413C11.3107 4.71732 11.2127 4.81534 11.0895 4.81534C10.9663 4.81534 10.8683 4.71732 10.8683 4.59413V4.36498H9.91592C9.64173 4.361 9.50662 4.24179 9.50662 3.9517V3.71063C9.50662 3.58347 9.54768 3.4616 9.62054 3.36358L10.7372 1.90388C10.8431 1.76082 10.9253 1.69062 11.0604 1.68665C11.1836 1.68665 11.3054 1.77274 11.3054 1.94362L11.3094 3.92256H11.3107ZM10.8696 3.92256V2.46683L10.0073 3.59141C9.97023 3.6444 9.94639 3.70533 9.94639 3.76759V3.92256H10.871H10.8696Z" fill="#F15A24"/>
</g>
<defs>
<clipPath id="clip0_121_5318">
<rect width="19" height="19.95" fill="white" transform="translate(0 0.0614014)"/>
</clipPath>
</defs>
</svg>
