<svg width="20" height="21" viewBox="0 0 20 21" fill="none" xmlns="http://www.w3.org/2000/svg">
<g clip-path="url(#clip0_121_5315)">
<path d="M15.2461 19.6861H4.19104V3.58716L16.8307 3.72021V18.0896" fill="#B3B3B3"/>
<path d="M15.2461 20.1519H3.72537V3.11621L17.2964 3.25857V18.0883C17.2964 18.3451 17.0875 18.5539 16.8307 18.5539C16.574 18.5539 16.3651 18.3451 16.3651 18.0883V4.18061L4.65672 4.05687V19.2192H15.2461C15.5029 19.2192 15.7118 19.4281 15.7118 19.6849C15.7118 19.9417 15.5029 20.1505 15.2461 20.1505V20.1519Z" fill="#B3B3B3"/>
<path d="M13.571 0.0614014H0V16.9587H13.571V0.0614014Z" fill="#F9C63F"/>
<path d="M13.571 0.0614014H0V16.9587H13.571V0.0614014Z" fill="#F9C63F"/>
<path opacity="0.1" d="M13.571 0.0614014H6.78552V16.9587H13.571V0.0614014Z" fill="#F15A24"/>
<path d="M10.4444 4.05293H2.99363C2.73684 4.05293 2.52795 3.84404 2.52795 3.58726C2.52795 3.33047 2.73684 3.12158 2.99363 3.12158H10.4444C10.7012 3.12158 10.9101 3.33047 10.9101 3.58726C10.9101 3.84404 10.7012 4.05293 10.4444 4.05293Z" fill="#F7931E"/>
<path d="M10.4444 6.44783H2.99363C2.73684 6.44783 2.52795 6.23894 2.52795 5.98215C2.52795 5.72537 2.73684 5.51648 2.99363 5.51648H10.4444C10.7012 5.51648 10.9101 5.72537 10.9101 5.98215C10.9101 6.23894 10.7012 6.44783 10.4444 6.44783Z" fill="#FFF3BD"/>
<path d="M10.4444 8.84272H2.99363C2.73684 8.84272 2.52795 8.63384 2.52795 8.37705C2.52795 8.12026 2.73684 7.91138 2.99363 7.91138H10.4444C10.7012 7.91138 10.9101 8.12026 10.9101 8.37705C10.9101 8.63384 10.7012 8.84272 10.4444 8.84272Z" fill="#F7931E"/>
<path d="M10.4444 11.2376H2.99363C2.73684 11.2376 2.52795 11.0287 2.52795 10.7719C2.52795 10.5152 2.73684 10.3063 2.99363 10.3063H10.4444C10.7012 10.3063 10.9101 10.5152 10.9101 10.7719C10.9101 11.0287 10.7012 11.2376 10.4444 11.2376Z" fill="#FFF3BD"/>
</g>
<defs>
<clipPath id="clip0_121_5315">
<rect width="20" height="20.0905" fill="white" transform="translate(0 0.0614014)"/>
</clipPath>
</defs>
</svg>
