<svg width="20" height="19" viewBox="0 0 20 19" fill="none" xmlns="http://www.w3.org/2000/svg">
<g clip-path="url(#clip0_121_5321)">
<path d="M0.0602941 12.5614H19.9397V13.3658C19.9397 13.4099 19.9368 13.4526 19.9338 13.4952C19.9765 13.3511 20 13.1996 20 13.0423V1.64081C20 0.768754 19.2926 0.0614014 18.4206 0.0614014H1.57941C0.707353 0.0614014 0 0.768754 0 1.64081V13.0408C0 13.1982 0.0235294 13.3511 0.0661765 13.4938C0.0617647 13.4511 0.0602941 13.4085 0.0602941 13.3658V12.5614ZM1.38971 2.09081C1.38971 1.78199 1.63971 1.53199 1.94853 1.53199H18.1059C18.3853 1.53199 18.6103 1.75846 18.6103 2.0364V10.0908C18.6103 10.3996 18.3603 10.6496 18.0515 10.6496H1.94853C1.63971 10.6496 1.38971 10.3996 1.38971 10.0908V2.09081Z" fill="#F15A24"/>
<path d="M1.94853 10.6496H5.59412L7.98383 8.25992C7.88089 8.27316 7.77647 8.28345 7.66471 8.28345C7.05442 8.28345 6.58383 8.08345 6.27353 7.68345C6.01324 7.33492 5.88383 6.88492 5.88383 6.32022C5.88383 5.75551 6.01324 5.31139 6.26618 4.95257C6.55883 4.51728 7.03089 4.30257 7.66471 4.30257C8.29853 4.30257 8.75442 4.51728 9.06324 4.95257C9.32353 5.31581 9.46177 5.77757 9.46177 6.33051C9.46177 6.50551 9.44706 6.66875 9.42059 6.82316L10.0971 6.14669V4.64963C10.0971 4.38786 10.2353 4.25992 10.5206 4.25992C10.8059 4.25992 10.9353 4.38786 10.9353 4.64963V5.30992L14.7132 1.53198H1.94853C1.63971 1.53198 1.38971 1.78198 1.38971 2.09081V10.0923C1.38971 10.4011 1.63971 10.6511 1.94853 10.6511V10.6496Z" fill="#FFF3BD"/>
<path d="M7.6647 5.01282C7.38823 5.01282 7.16029 5.13635 7.00588 5.36576C6.84264 5.59664 6.77058 5.91429 6.77058 6.31429C6.77058 6.71429 6.84411 7.02605 7.00588 7.25694C7.16911 7.49223 7.38823 7.60546 7.6647 7.60546C7.94117 7.60546 8.16029 7.49223 8.33088 7.26282C8.49411 7.02752 8.56617 6.71429 8.56617 6.32458C8.56617 5.93488 8.49264 5.62311 8.33088 5.37164C8.16029 5.13635 7.93235 5.01282 7.6647 5.01282Z" fill="#FFF3BD"/>
<path d="M10.9338 5.52022L12.4294 4.37316C12.5265 4.29669 12.625 4.25992 12.7471 4.25992C13.0397 4.25992 13.1868 4.37757 13.1868 4.61875C13.1868 4.71581 13.1382 4.80257 13.0324 4.88051L11.3412 6.10992L13.2029 7.67169C13.2838 7.75404 13.325 7.84081 13.325 7.93345C13.325 8.02022 13.2926 8.10257 13.2441 8.17904C13.1221 8.24522 13.0088 8.28198 12.8941 8.28198C12.7882 8.28198 12.675 8.24669 12.5603 8.17463L10.9338 6.76581V7.92316C10.9338 8.15845 10.7956 8.28198 10.5191 8.28198C10.2426 8.28198 10.0956 8.15845 10.0956 7.92316V6.14669L9.41912 6.82316C9.36029 7.15992 9.24118 7.44963 9.06323 7.68787C8.79853 8.00992 8.43382 8.19963 7.98382 8.25992L5.59412 10.6496H18.0515C18.3603 10.6496 18.6103 10.3996 18.6103 10.0908V2.03639C18.6103 1.75698 18.3838 1.53198 18.1059 1.53198H14.7118L10.9338 5.30992V5.52169V5.52022Z" fill="#FFF3BD"/>
<path opacity="0.2" d="M10.9338 5.52022L12.4294 4.37316C12.5265 4.29669 12.625 4.25992 12.7471 4.25992C13.0397 4.25992 13.1868 4.37757 13.1868 4.61875C13.1868 4.71581 13.1382 4.80257 13.0324 4.88051L11.3412 6.10992L13.2029 7.67169C13.2838 7.75404 13.325 7.84081 13.325 7.93345C13.325 8.02022 13.2926 8.10257 13.2441 8.17904C13.1221 8.24522 13.0088 8.28198 12.8941 8.28198C12.7882 8.28198 12.675 8.24669 12.5603 8.17463L10.9338 6.76581V7.92316C10.9338 8.15845 10.7956 8.28198 10.5191 8.28198C10.2426 8.28198 10.0956 8.15845 10.0956 7.92316V6.14669L9.41912 6.82316C9.36029 7.15992 9.24118 7.44963 9.06323 7.68787C8.79853 8.00992 8.43382 8.19963 7.98382 8.25992L5.59412 10.6496H18.0515C18.3603 10.6496 18.6103 10.3996 18.6103 10.0908V2.03639C18.6103 1.75698 18.3838 1.53198 18.1059 1.53198H14.7118L10.9338 5.30992V5.52169V5.52022Z" fill="#F9C63F"/>
<path d="M12.4691 14.6202H7.46912V16.2379H12.4691V14.6202Z" fill="#FFF3BD"/>
<path d="M18.4206 14.6202H18.6853C19.3353 14.6202 19.8691 14.1261 19.9338 13.4938C19.7382 14.1452 19.1353 14.6202 18.4206 14.6202Z" fill="#F9C63F"/>
<path d="M0.0661774 13.4938C0.130883 14.1261 0.664707 14.6202 1.31471 14.6202H1.57941C0.864707 14.6202 0.261766 14.1452 0.0661774 13.4938Z" fill="#F9C63F"/>
<path d="M12.4691 14.6202H18.4191C19.1338 14.6202 19.7368 14.1452 19.9323 13.4938C19.9368 13.4511 19.9382 13.4085 19.9382 13.3643V12.5599H0.0602875V13.3643C0.0602875 13.4085 0.0632287 13.4511 0.0661698 13.4923C0.261758 14.1438 0.864699 14.6188 1.57941 14.6188H12.4691V14.6202Z" fill="#F9C63F"/>
<path d="M13.175 18.2967C13.7441 18.2967 14.2044 17.8364 14.2044 17.2673C14.2044 16.6982 13.7441 16.2379 13.175 16.2379H12.4706V16.6791H7.46911V16.2379H6.70293C6.13382 16.2379 5.67352 16.6982 5.67352 17.2673C5.67352 17.8364 6.13382 18.2967 6.70293 18.2967H13.1735H13.175Z" fill="#F7931E"/>
<path d="M12.4691 16.2379H7.46912V16.6791H12.4691V16.2379Z" fill="#F7931E"/>
<path d="M9.46176 6.33055C9.46176 5.77761 9.32353 5.31585 9.06323 4.95261C8.75441 4.51732 8.29117 4.30261 7.6647 4.30261C7.03823 4.30261 6.55882 4.51732 6.26617 4.95261C6.0147 5.31144 5.88382 5.76732 5.88382 6.32026C5.88382 6.8732 6.01323 7.33497 6.27353 7.6835C6.58235 8.0835 7.05441 8.28349 7.6647 8.28349C7.77647 8.28349 7.88088 8.27467 7.98382 8.25997L9.42058 6.8232C9.44705 6.66879 9.46176 6.50555 9.46176 6.33055ZM8.33088 7.26291C8.16029 7.49379 7.93235 7.60555 7.6647 7.60555C7.39706 7.60555 7.16911 7.49232 7.00588 7.25702C6.84264 7.02614 6.77058 6.70849 6.77058 6.31438C6.77058 5.92026 6.84411 5.59673 7.00588 5.36585C7.16029 5.13497 7.38823 5.01291 7.6647 5.01291C7.94117 5.01291 8.16029 5.13644 8.33088 5.37173C8.49411 5.6232 8.56617 5.94085 8.56617 6.32467C8.56617 6.70849 8.49264 7.02614 8.33088 7.26291Z" fill="#F15A24"/>
<path d="M9.06323 7.68783C9.24117 7.44812 9.36176 7.15988 9.41911 6.82312L7.98235 8.25988C8.43382 8.19959 8.79705 8.00989 9.06176 7.68783H9.06323Z" fill="#F15A24"/>
<path d="M10.9338 4.64959C10.9338 4.38783 10.7956 4.25989 10.5191 4.25989C10.2426 4.25989 10.0956 4.38783 10.0956 4.64959V6.14665L10.9338 5.30842V4.64812V4.64959Z" fill="#F15A24"/>
<path d="M10.5191 8.28195C10.7956 8.28195 10.9338 8.15842 10.9338 7.92312V6.76577L12.5603 8.17459C12.6735 8.24665 12.7882 8.28195 12.8941 8.28195C13.0073 8.28195 13.1221 8.24665 13.2441 8.17901C13.2926 8.10254 13.325 8.02018 13.325 7.93342C13.325 7.84077 13.2838 7.75401 13.2029 7.67165L11.3412 6.10989L13.0323 4.88048C13.1382 4.80401 13.1868 4.71577 13.1868 4.61871C13.1868 4.37753 13.0397 4.25989 12.7471 4.25989C12.625 4.25989 12.5279 4.29518 12.4294 4.37312L10.9338 5.52018V5.30842L10.0956 6.14665V7.92312C10.0956 8.15842 10.2338 8.28195 10.5191 8.28195Z" fill="#F15A24"/>
</g>
<defs>
<clipPath id="clip0_121_5321">
<rect width="20" height="18.2353" fill="white" transform="translate(0 0.0614014)"/>
</clipPath>
</defs>
</svg>
