<svg width="19" height="20" viewBox="0 0 19 20" fill="none" xmlns="http://www.w3.org/2000/svg">
<g clip-path="url(#clip0_121_5324)">
<path d="M6.6217 9.79712H3.70097V11.327H6.6217V9.79712Z" fill="#FFF3BD"/>
<path opacity="0.2" d="M6.6217 10.2283V9.79712H3.70097V10.4007C4.03894 10.4591 4.41586 10.4925 4.81363 10.4925C5.5146 10.4925 6.14882 10.391 6.6217 10.2283Z" fill="#999999"/>
<path d="M7.59805 4.61212H6.53268C6.41864 4.61212 6.32684 4.52033 6.32684 4.40628C6.32684 4.29223 6.41864 4.20044 6.53268 4.20044H7.59805C7.7121 4.20044 7.80389 4.29223 7.80389 4.40628C7.80389 4.52033 7.7121 4.61212 7.59805 4.61212Z" fill="black"/>
<path d="M13.7149 8.96265C16.1729 8.96265 18.1655 6.97004 18.1655 4.51203C18.1655 2.05401 16.1729 0.0614014 13.7149 0.0614014C11.2569 0.0614014 9.26425 2.05401 9.26425 4.51203C9.26425 6.97004 11.2569 8.96265 13.7149 8.96265Z" fill="#F9C63F"/>
<g opacity="0.8">
<path opacity="0.8" d="M13.7149 8.40627C15.8656 8.40627 17.6092 6.66273 17.6092 4.51197C17.6092 2.36121 15.8656 0.617676 13.7149 0.617676C11.5641 0.617676 9.82059 2.36121 9.82059 4.51197C9.82059 6.66273 11.5641 8.40627 13.7149 8.40627Z" fill="#FFF3BD"/>
</g>
<g opacity="0.5">
<path opacity="0.5" d="M13.7149 7.57188C15.4048 7.57188 16.7747 6.20196 16.7747 4.51208C16.7747 2.82219 15.4048 1.45227 13.7149 1.45227C12.025 1.45227 10.6551 2.82219 10.6551 4.51208C10.6551 6.20196 12.025 7.57188 13.7149 7.57188Z" fill="white"/>
</g>
<path d="M11.2114 4.44803C11.2114 4.56208 11.1655 4.65387 11.1085 4.65387H10.573C10.516 4.65387 10.4701 4.56208 10.4701 4.44803C10.4701 4.33398 10.516 4.24219 10.573 4.24219H11.1085C11.1655 4.24219 11.2114 4.33398 11.2114 4.44803Z" fill="#F15A24"/>
<path d="M13.6509 7.0155C13.765 7.0155 13.8568 7.0614 13.8568 7.11842V7.65389C13.8568 7.71091 13.765 7.75681 13.6509 7.75681C13.5369 7.75681 13.4451 7.71091 13.4451 7.65389V7.11842C13.4451 7.0614 13.5369 7.0155 13.6509 7.0155Z" fill="#F15A24"/>
<path d="M16.2184 4.57596C16.2184 4.46191 16.2643 4.37012 16.3213 4.37012H16.8567C16.9138 4.37012 16.9597 4.46191 16.9597 4.57596C16.9597 4.69001 16.9138 4.7818 16.8567 4.7818H16.3213C16.2643 4.7818 16.2184 4.69001 16.2184 4.57596Z" fill="#F15A24"/>
<path d="M13.7775 2.00852C13.6634 2.00852 13.5716 1.96262 13.5716 1.9056V1.37013C13.5716 1.31311 13.6634 1.26721 13.7775 1.26721C13.8915 1.26721 13.9833 1.31311 13.9833 1.37013V1.9056C13.9833 1.96262 13.8915 2.00852 13.7775 2.00852Z" fill="#F15A24"/>
<path d="M8.34354 5.53431C8.34354 3.69387 6.85157 2.2019 5.01113 2.2019C3.1707 2.2019 1.67873 3.69387 1.67873 5.53431V6.76519C1.67873 8.60562 3.1707 10.0976 5.01113 10.0976C6.85157 10.0976 8.34354 8.60562 8.34354 6.76519V5.53431Z" fill="#FFF3BD"/>
<path d="M3.47983 11.3285H6.67177C8.59249 11.3285 10.1516 12.8876 10.1516 14.8083V19.0183H0V14.8083C0 12.8876 1.55911 11.3285 3.47983 11.3285Z" fill="#FFF3BD"/>
<path d="M3.71071 6.54128C3.92655 6.54128 4.10153 6.36631 4.10153 6.15046C4.10153 5.93462 3.92655 5.75964 3.71071 5.75964C3.49486 5.75964 3.31989 5.93462 3.31989 6.15046C3.31989 6.36631 3.49486 6.54128 3.71071 6.54128Z" fill="#F15A24"/>
<path d="M6.31154 6.54128C6.52738 6.54128 6.70236 6.36631 6.70236 6.15046C6.70236 5.93462 6.52738 5.75964 6.31154 5.75964C6.09569 5.75964 5.92072 5.93462 5.92072 6.15046C5.92072 6.36631 6.09569 6.54128 6.31154 6.54128Z" fill="#F15A24"/>
<path d="M13.7149 4.79021C13.8685 4.79021 13.9931 4.66568 13.9931 4.51205C13.9931 4.35843 13.8685 4.23389 13.7149 4.23389C13.5613 4.23389 13.4367 4.35843 13.4367 4.51205C13.4367 4.66568 13.5613 4.79021 13.7149 4.79021Z" fill="#F15A24"/>
<path d="M5.01112 8.61494C4.36578 8.61494 3.89847 8.35207 3.89847 7.98907C3.89847 7.87363 3.99165 7.78044 4.10709 7.78044C4.22253 7.78044 4.31571 7.87363 4.31571 7.98907C4.3324 8.05026 4.58831 8.19769 5.01112 8.19769C5.43393 8.19769 5.68984 8.05026 5.70653 7.98628C5.70653 7.87085 5.79972 7.77905 5.91516 7.77905C6.0306 7.77905 6.12378 7.87363 6.12378 7.98907C6.12378 8.35207 5.65646 8.61494 5.01112 8.61494Z" fill="#F15A24"/>
<path d="M7.45341 11.4175C7.42142 11.8306 6.4395 12.1616 5.23088 12.1616C4.02225 12.1616 3.00556 11.8194 3.00556 11.3966C3.00556 11.3841 3.00974 11.373 3.01113 11.3605C1.31154 11.59 0 13.0448 0 14.8083V19.0183H10.1502V14.8083C10.1502 13.156 8.99722 11.7722 7.45202 11.4175H7.45341Z" fill="#F9C63F"/>
<path d="M9.71627 19.4216C8.71627 19.4216 7.94297 19.0933 7.43532 18.4383C7.00834 17.8666 6.79555 17.1281 6.79555 16.2032C6.79555 15.2783 7.00834 14.5481 7.42281 13.9598C7.90264 13.2449 8.67594 12.8931 9.71627 12.8931C10.7566 12.8931 11.5035 13.2463 12.0111 13.9598C12.4381 14.5565 12.6648 15.3131 12.6648 16.2199C12.6648 17.1267 12.4381 17.875 12.0111 18.4466C11.477 19.0933 10.7038 19.4216 9.71627 19.4216ZM10.8095 14.6483C10.5299 14.2616 10.1558 14.06 9.71627 14.06C9.27677 14.06 8.88873 14.2616 8.6356 14.6399C8.36857 15.0182 8.24896 15.5384 8.24896 16.1949C8.24896 16.8513 8.36857 17.3632 8.6356 17.7415C8.90264 18.1281 9.26286 18.3131 9.71627 18.3131C10.1697 18.3131 10.5299 18.1281 10.8095 17.7498C11.0765 17.3632 11.1961 16.8513 11.1961 16.2116C11.1961 15.5718 11.0765 15.06 10.8095 14.6483Z" fill="#F15A24"/>
<path d="M18.2921 19.4216C18.1182 19.4216 17.9318 19.3632 17.7455 19.245L15.0779 16.9348V18.8333C15.0779 19.2199 14.8512 19.4216 14.3978 19.4216C13.9444 19.4216 13.7038 19.2199 13.7038 18.8333V13.4633C13.7038 13.035 13.9305 12.825 14.3978 12.825C14.8651 12.825 15.0779 13.035 15.0779 13.4633V14.8917L17.5327 13.0099C17.6926 12.8834 17.8526 12.825 18.0528 12.825C18.5327 12.825 18.7733 13.0183 18.7733 13.4133C18.7733 13.5732 18.694 13.7151 18.5202 13.8416L15.7455 15.8583L18.7997 18.4216C18.9332 18.5565 19 18.6984 19 18.85C19 18.9932 18.9471 19.1268 18.8665 19.2533C18.6662 19.3632 18.4798 19.4216 18.2935 19.4216H18.2921Z" fill="#F15A24"/>
<path d="M4.95828 0.671997C3.61753 0.671997 2.46314 1.46337 1.93463 2.60524L0.774689 3.67756L1.56328 4.62471L1.02643 5.70677L2.25869 4.80273L4.95828 2.95433L8.29068 5.23528V4.0044C8.29068 2.16435 6.79833 0.671997 4.95828 0.671997Z" fill="#F15A24"/>
</g>
<defs>
<clipPath id="clip0_121_5324">
<rect width="19" height="19.3602" fill="white" transform="translate(0 0.0614014)"/>
</clipPath>
</defs>
</svg>
