<svg width="26" height="27" viewBox="0 0 26 27" fill="none" xmlns="http://www.w3.org/2000/svg">
<g clip-path="url(#clip0_397_2823)">
<path d="M16.2344 18.4937L18.0019 16.7269L25.5138 24.2387L23.7463 26.0056L16.2344 18.4937Z" fill="#676C64"/>
<path d="M10.5 21C16.0228 21 20.5 16.5228 20.5 11C20.5 5.47715 16.0228 1 10.5 1C4.97715 1 0.5 5.47715 0.5 11C0.5 16.5228 4.97715 21 10.5 21Z" fill="#676C64"/>
<path d="M18.2812 20.5875L20.0481 18.82L25.4831 24.255L23.7156 26.0225L18.2812 20.5875Z" fill="#676C64"/>
<path d="M10.5 19.125C14.9873 19.125 18.625 15.4873 18.625 11C18.625 6.51269 14.9873 2.875 10.5 2.875C6.01269 2.875 2.375 6.51269 2.375 11C2.375 15.4873 6.01269 19.125 10.5 19.125Z" fill="#71D191"/>
<path d="M14.8125 7.375C13.75 6.125 12.1875 5.375 10.5 5.375C8.81247 5.375 7.24997 6.125 6.18747 7.375C5.93747 7.625 5.99997 8.0625 6.24997 8.25C6.49997 8.5 6.93747 8.4375 7.12497 8.1875C7.99997 7.1875 9.18747 6.625 10.5 6.625C11.8125 6.625 13 7.1875 13.875 8.1875C14 8.3125 14.1875 8.4375 14.375 8.4375C14.5 8.4375 14.6875 8.375 14.75 8.3125C15 8.0625 15 7.625 14.8125 7.375Z" fill="#DFF9D6"/>
</g>
<defs>
<clipPath id="clip0_397_2823">
<rect width="26" height="26" fill="white" transform="translate(0 0.5)"/>
</clipPath>
</defs>
</svg>
