<?xml version="1.0" encoding="UTF-8"?><svg id="Layer_2" xmlns="http://www.w3.org/2000/svg" xmlns:xlink="http://www.w3.org/1999/xlink" viewBox="0 0 228.85 162"><defs><style>.cls-1{fill:none;}.cls-2{clip-path:url(#clippath);}.cls-3{fill:#f4ce2c;}.cls-4{fill:#f4f4f4;}.cls-5{fill:#e8e8e8;}.cls-6{fill:#e0bb22;}.cls-7{fill:#dbd9d2;}.cls-8{fill:#fff;opacity:.3;}</style><clipPath id="clippath"><rect class="cls-1" x="188" y="68" width="26" height="68" rx="13" ry="13" transform="translate(-13.25 172) rotate(-45)"/></clipPath></defs><g id="Layer_1-2"><g><rect class="cls-7" x="17" y="51" width="156" height="111" rx="13.82" ry="13.82"/><rect class="cls-4" y="32" width="156" height="111" rx="13.82" ry="13.82"/><g><circle class="cls-5" cx="149" cy="55" r="35"/><rect class="cls-3" x="188" y="68" width="26" height="68" rx="13" ry="13" transform="translate(-13.25 172) rotate(-45)"/><g class="cls-2"><path class="cls-6" d="M175.46,81.98s-2.16,7.27,16.83,24.22c19,16.95,30.98,32.37,33.7,28.17l5.92,16.65-41.76,5.39-29.09-53.43,14.4-20.99Z"/></g><path class="cls-3" d="M149.5,0c-30.1,0-54.5,24.4-54.5,54.5s24.4,54.5,54.5,54.5,54.5-24.4,54.5-54.5S179.6,0,149.5,0Zm0,87c-17.95,0-32.5-14.55-32.5-32.5s14.55-32.5,32.5-32.5,32.5,14.55,32.5,32.5-14.55,32.5-32.5,32.5Z"/><path class="cls-8" d="M132,57c0-11.6,9.4-21,21-21,1.1,0,2.17,.11,3.23,.27-3.25-2.06-7.09-3.27-11.23-3.27-11.6,0-21,9.4-21,21,0,10.5,7.71,19.17,17.77,20.73-5.87-3.72-9.77-10.26-9.77-17.73Z"/></g></g></g></svg>