<svg width="30" height="31" viewBox="0 0 30 31" fill="none" xmlns="http://www.w3.org/2000/svg">
<g clip-path="url(#clip0_47_1207)">
<path d="M12.0475 4.15833C7.43298 4.15833 3.68982 7.89882 3.68982 12.516C3.68982 17.1331 7.43164 20.8736 12.0475 20.8736C16.6633 20.8736 20.4051 17.1331 20.4051 12.516C20.4051 7.89882 16.6615 4.15833 12.0475 4.15833ZM8.09092 15.6025C7.98444 15.6031 7.87998 15.5735 7.7896 15.5172C7.69922 15.4609 7.62659 15.3802 7.58011 15.2844C7.53363 15.1886 7.51519 15.0816 7.52691 14.9758C7.53863 14.87 7.58004 14.7696 7.64636 14.6863L13.482 7.34224C13.5752 7.22498 13.7111 7.14953 13.8599 7.13248C14.0086 7.11543 14.1581 7.15818 14.2754 7.25133C14.3926 7.34447 14.4681 7.48038 14.4851 7.62915C14.5022 7.77793 14.4594 7.92738 14.3663 8.04464L8.5297 15.3887C8.47702 15.4555 8.40988 15.5094 8.33334 15.5464C8.25679 15.5835 8.17284 15.6027 8.08781 15.6025H8.09092ZM16.8144 10.4941L10.977 17.8369C10.9308 17.895 10.8737 17.9435 10.8088 17.9796C10.7439 18.0156 10.6725 18.0386 10.5988 18.047C10.525 18.0555 10.4504 18.0494 10.379 18.029C10.3076 18.0086 10.2409 17.9744 10.1828 17.9282C10.1246 17.8821 10.0761 17.8249 10.0401 17.76C10.004 17.6952 9.9811 17.6238 9.97261 17.5501C9.96413 17.4763 9.97026 17.4016 9.99064 17.3302C10.011 17.2588 10.0453 17.1922 10.0914 17.134L15.9302 9.79174C16.0234 9.67449 16.1593 9.59904 16.308 9.58199C16.4568 9.56494 16.6063 9.60769 16.7235 9.70083C16.8408 9.79397 16.9162 9.92988 16.9333 10.0787C16.9503 10.2274 16.9076 10.3769 16.8144 10.4941Z" fill="#71D191"/>
<path d="M28.9771 26.7199L28.8517 26.5914L25.8016 29.6411L25.8758 29.7149L26.6845 30.5222C27.2028 31.0414 28.3058 30.7792 29.1487 29.9376C29.9915 29.0961 30.2529 27.9918 29.7346 27.4739L28.9788 26.7181L28.9771 26.7199Z" fill="white"/>
<path d="M28.1048 25.8597L25.0547 28.9076L25.8012 29.6429L28.8513 26.5933L28.7641 26.5061L28.7615 26.5075L28.1048 25.8597Z" fill="#AAD4C8"/>
<g filter="url(#filter0_d_47_1207)">
<path d="M11.8834 0.629395C5.32001 0.629395 0 5.95074 0 12.5146C0 19.0785 5.32001 24.398 11.8834 24.398C14.2237 24.4017 16.5125 23.7108 18.4598 22.4127L25.0548 28.9076L28.1049 25.8597L21.553 19.407C22.994 17.3984 23.7687 14.9884 23.7682 12.5164C23.7682 5.95074 18.4491 0.629395 11.8834 0.629395ZM12.0475 20.8705C7.43298 20.8705 3.68982 17.13 3.68982 12.5128C3.68982 7.89567 7.43165 4.15517 12.0475 4.15517C16.6633 4.15517 20.4051 7.89567 20.4051 12.5128C20.4051 17.13 16.6615 20.8705 12.0475 20.8705Z" fill="white"/>
</g>
<path d="M13.4821 7.34224L7.64636 14.6863C7.5622 14.8041 7.5265 14.9498 7.54662 15.0932C7.56674 15.2366 7.64116 15.3668 7.7545 15.4569C7.86785 15.5471 8.01147 15.5902 8.15572 15.5775C8.29997 15.5648 8.43384 15.4972 8.5297 15.3887L14.3663 8.04642C14.4597 7.92916 14.5026 7.77962 14.4858 7.63068C14.4689 7.48174 14.3935 7.3456 14.2763 7.25222C14.159 7.15884 14.0095 7.11587 13.8605 7.13275C13.7116 7.14963 13.5754 7.22499 13.4821 7.34224Z" fill="#E4F0F7"/>
<path d="M15.9302 9.79167L10.0914 17.134C10.0014 17.2516 9.96116 17.3998 9.97934 17.5468C9.99752 17.6937 10.0727 17.8277 10.1886 17.9198C10.3046 18.0119 10.4521 18.0548 10.5993 18.0393C10.7466 18.0238 10.8819 17.9511 10.9761 17.8368L16.8145 10.4941C16.8606 10.436 16.8948 10.3694 16.9152 10.2982C16.9356 10.2269 16.9417 10.1523 16.9333 10.0786C16.9249 10.0049 16.902 9.93364 16.866 9.86881C16.83 9.80399 16.7816 9.74688 16.7235 9.70076C16.6655 9.65464 16.5989 9.62041 16.5276 9.60002C16.4563 9.57963 16.3817 9.57348 16.3081 9.58192C16.2344 9.59036 16.1631 9.61323 16.0983 9.64922C16.0335 9.68521 15.9763 9.73362 15.9302 9.79167Z" fill="#E4F0F7"/>
</g>
<defs>
<filter id="filter0_d_47_1207" x="-2" y="-0.370605" width="32.1049" height="32.2782" filterUnits="userSpaceOnUse" color-interpolation-filters="sRGB">
<feFlood flood-opacity="0" result="BackgroundImageFix"/>
<feColorMatrix in="SourceAlpha" type="matrix" values="0 0 0 0 0 0 0 0 0 0 0 0 0 0 0 0 0 0 127 0" result="hardAlpha"/>
<feOffset dy="1"/>
<feGaussianBlur stdDeviation="1"/>
<feComposite in2="hardAlpha" operator="out"/>
<feColorMatrix type="matrix" values="0 0 0 0 0 0 0 0 0 0 0 0 0 0 0 0 0 0 0.1 0"/>
<feBlend mode="normal" in2="BackgroundImageFix" result="effect1_dropShadow_47_1207"/>
<feBlend mode="normal" in="SourceGraphic" in2="effect1_dropShadow_47_1207" result="shape"/>
</filter>
<clipPath id="clip0_47_1207">
<rect width="30" height="30.1614" fill="white" transform="translate(0 0.629395)"/>
</clipPath>
</defs>
</svg>
