<svg width="86" height="89" viewBox="0 0 86 89" fill="none" xmlns="http://www.w3.org/2000/svg">
<g filter="url(#filter0_d_35_2184)">
<path d="M69.6458 60.75C60.6711 76.2945 40.7945 81.6205 25.25 72.6458C9.70544 63.6712 4.3795 43.7945 13.3541 28.25C22.3288 12.7055 42.2054 7.37956 57.75 16.3542C73.2945 25.3288 78.6204 45.2055 69.6458 60.75Z" fill="url(#paint0_linear_35_2184)"/>
</g>
<path d="M29.943 23.773C29.693 23.853 29.603 23.863 29.153 23.863L26.933 23.873C26.963 23.553 26.963 23.463 26.973 23.243C26.993 22.723 26.993 22.723 27.013 22.513C27.013 22.443 27.023 22.383 27.023 22.323C27.033 22.183 27.043 22.143 27.063 22.013L25.723 21.983C25.753 22.163 25.753 22.243 25.753 22.373V22.623C25.753 22.913 25.733 23.493 25.703 23.873L23.953 23.883C23.453 23.883 23.183 23.863 22.843 23.803L22.853 25.033C23.183 24.993 23.323 24.983 23.933 24.983L25.593 24.973C25.583 25.043 25.563 25.143 25.543 25.283C25.453 25.983 25.303 26.473 25.033 27.023C24.503 28.093 23.683 28.883 22.433 29.543C22.853 29.913 22.993 30.073 23.333 30.603C24.593 29.803 25.483 28.893 26.033 27.833C26.483 26.973 26.693 26.223 26.833 24.973L29.163 24.963C29.163 26.113 29.063 27.473 28.943 28.163C28.783 29.033 28.633 29.253 28.203 29.253C27.873 29.253 27.473 29.183 26.883 29.023C27.063 29.483 27.093 29.673 27.113 30.303C27.633 30.383 27.973 30.413 28.353 30.413C29.553 30.413 29.903 30.003 30.163 28.273C30.263 27.613 30.373 26.073 30.403 24.943C30.413 24.593 30.433 24.453 30.513 24.273L29.943 23.773ZM32.903 23.763C33.833 24.283 34.653 24.943 35.453 25.793L36.313 24.703C35.543 23.973 34.923 23.513 33.733 22.773L32.903 23.763ZM33.253 30.363C33.483 30.283 33.513 30.273 33.913 30.193C35.463 29.863 36.703 29.373 37.723 28.693C39.093 27.783 40.043 26.603 40.893 24.773C40.383 24.413 40.223 24.263 39.833 23.793C39.533 24.603 39.253 25.153 38.813 25.793C38.023 26.933 37.093 27.703 35.843 28.243C34.933 28.643 33.743 28.933 32.883 28.983L33.253 30.363ZM49.793 23.003C49.533 23.093 49.323 23.113 48.913 23.123C46.473 23.143 46.473 23.143 46.313 23.163C46.363 23.073 46.433 22.953 46.553 22.683C46.743 22.303 46.743 22.303 46.853 22.123L45.553 21.833C45.463 22.203 45.263 22.693 44.973 23.223C44.363 24.343 43.563 25.253 42.463 26.073C42.983 26.373 43.133 26.503 43.463 26.873C44.473 26.023 45.183 25.213 45.803 24.183L48.913 24.153C48.603 25.093 48.263 25.793 47.793 26.513C47.043 25.923 46.623 25.643 45.783 25.173L45.023 26.063C45.773 26.473 46.373 26.893 47.073 27.493C46.563 28.063 46.143 28.423 45.433 28.883C44.833 29.283 44.333 29.533 43.483 29.883C43.863 30.203 43.993 30.373 44.313 30.913C46.443 29.933 47.853 28.753 48.873 27.093C49.283 26.423 49.833 25.253 50.153 24.343C50.313 23.883 50.333 23.843 50.463 23.673L49.793 23.003ZM52.903 23.763C53.833 24.283 54.653 24.943 55.453 25.793L56.313 24.703C55.543 23.973 54.923 23.513 53.733 22.773L52.903 23.763ZM53.253 30.363C53.483 30.283 53.513 30.273 53.913 30.193C55.463 29.863 56.703 29.373 57.723 28.693C59.093 27.783 60.043 26.603 60.893 24.773C60.383 24.413 60.223 24.263 59.833 23.793C59.533 24.603 59.253 25.153 58.813 25.793C58.023 26.933 57.093 27.703 55.843 28.243C54.933 28.643 53.743 28.933 52.883 28.983L53.253 30.363Z" fill="white"/>
<path d="M27.4114 64.983C27.4814 65.443 27.5314 65.673 27.6314 65.913C27.8414 66.483 28.2114 66.913 28.7114 67.193C29.2514 67.503 30.0914 67.683 30.9414 67.683C32.1114 67.683 32.9914 67.393 33.5714 66.833C34.0314 66.383 34.2714 65.743 34.2714 64.993C34.2714 64.073 33.9114 63.403 33.1914 62.953C32.8114 62.713 32.3314 62.543 31.5714 62.383C30.3914 62.143 30.3914 62.143 30.1914 62.053C29.8714 61.903 29.7214 61.693 29.7214 61.413C29.7214 60.953 30.1714 60.623 30.7814 60.623C31.5414 60.623 31.9014 60.893 32.0214 61.543L34.1414 61.313C34.0114 60.743 33.8914 60.443 33.6414 60.113C33.1014 59.363 32.1314 58.973 30.8614 58.973C28.8914 58.973 27.6514 59.943 27.6514 61.483C27.6514 62.293 27.9914 62.963 28.6214 63.403C28.9914 63.663 29.3114 63.783 30.2314 63.983C31.2714 64.223 31.5214 64.293 31.7314 64.393C31.9914 64.513 32.1514 64.783 32.1514 65.093C32.1514 65.653 31.6914 65.993 30.9214 65.993C30.4114 65.993 29.9914 65.823 29.7514 65.523C29.6014 65.323 29.5314 65.143 29.4914 64.783L27.4114 64.983ZM39.5681 60.943H40.6981C41.4181 60.943 41.8081 60.963 42.2581 61.013V59.103C41.7981 59.153 41.3981 59.173 40.6981 59.173H36.3181C35.7081 59.173 35.1581 59.143 34.8281 59.103V61.013C35.5381 60.953 35.7081 60.943 36.3381 60.943H37.5181V65.983C37.5181 66.613 37.4981 67.023 37.4381 67.493H39.6481C39.5881 67.023 39.5681 66.583 39.5681 65.983V60.943ZM49.3025 65.693C48.8725 65.743 48.4325 65.763 47.6725 65.763H45.0925V64.083H47.2525C47.9425 64.083 48.2825 64.103 48.7525 64.153V62.303C48.1525 62.363 47.9125 62.373 47.2525 62.373H45.0925V60.903H47.6925C48.3625 60.903 48.7225 60.923 49.1825 60.973V59.103C48.7125 59.153 48.3725 59.173 47.6925 59.173H44.5025C43.7225 59.173 43.4425 59.163 43.0325 59.143C43.0925 59.633 43.1125 59.983 43.1125 60.603V66.063C43.1125 66.753 43.0925 67.123 43.0325 67.523C43.4625 67.503 43.7425 67.493 44.5025 67.493H47.6525C48.5125 67.493 48.8725 67.513 49.3025 67.563V65.693ZM52.4676 67.493C52.4176 67.063 52.3876 66.573 52.3876 65.983V64.703H53.9676C55.9076 64.703 57.0476 63.643 57.0476 61.863C57.0476 60.123 55.9576 59.173 53.9776 59.173H51.7876C51.1476 59.173 50.7876 59.163 50.3176 59.143C50.3776 59.613 50.3976 60.063 50.3976 60.603V66.013C50.3976 66.603 50.3776 67.053 50.3176 67.493H52.4676ZM52.3876 63.003V60.873H53.8776C54.5976 60.873 54.9876 61.233 54.9876 61.923C54.9876 62.613 54.5776 63.003 53.8776 63.003H52.3876Z" fill="#FFEE53"/>
<path d="M34.121 51.413C33.5317 51.3957 33.0983 51.2744 32.821 51.049C32.561 50.8064 32.431 50.477 32.431 50.061C32.431 49.9397 32.431 49.8097 32.431 49.671C32.4483 49.5324 32.4743 49.4197 32.509 49.333L36.253 35.813C36.461 34.9117 37.0937 34.5564 38.151 34.747C38.6363 34.851 38.983 35.0417 39.191 35.319C39.4163 35.579 39.4683 35.9257 39.347 36.359L39.373 36.333L35.915 48.813H40.413V35.657C40.413 34.825 40.9157 34.409 41.921 34.409C42.961 34.409 43.481 34.825 43.481 35.657V48.813H44.651C45.3443 48.813 45.6823 49.2464 45.665 50.113C45.6303 50.9797 45.2923 51.413 44.651 51.413H43.481V54.377C43.481 55.1917 42.961 55.599 41.921 55.599C40.9157 55.599 40.413 55.1917 40.413 54.377V51.413H34.121Z" fill="#FFEE53"/>
<g clip-path="url(#clip0_35_2184)">
<path d="M3 29.5001L7.5 22.0001L12 21L16 18.5L17.5 20.5L16.5 22.5L14.5 24L22.5 29.5001L20.5 31.5L16 30L12 34.5L9 34L3 29.5001Z" fill="white"/>
<path d="M-0.307181 26.5389L3.50165 19.9418C3.93954 19.2638 4.79575 19.0859 5.42154 19.4361L8.37637 21.142C9.59547 20.981 10.7138 20.4264 11.9041 20.2445C12.3237 20.1812 12.6931 20.0548 13.0123 19.8652C14.1039 19.1557 14.4693 17.8071 15.6587 17.4259C17.4814 17.6424 18.7251 19.5297 18.4236 21.1904C18.1623 22.5379 17.2556 23.5087 16.2008 24.2231C17.9466 25.2272 19.6826 26.2483 21.4214 27.2646C22.7802 28.1904 23.2407 29.731 22.4653 31.0957C21.6706 32.4633 19.9145 32.7776 18.6433 32.0764L16.5913 30.8917C16.29 31.2558 15.9453 31.5447 15.5574 31.7585C15.1852 32.6687 14.4445 33.344 13.5917 33.6469C10.5007 38.3561 5.78846 31.7828 3.44069 30.3306L0.20885 28.4647C-0.474992 28.0255 -0.659112 27.1678 -0.307181 26.5389ZM4.09429 29.0801C5.98255 30.2251 10.8468 36.8878 12.6113 32.3832C13.5178 32.4097 14.3596 31.566 14.2999 30.6905C15.3107 30.4272 15.9548 29.7351 15.6957 28.7468C16.3113 29.1022 16.922 29.4502 17.5279 29.7909C18.1338 30.1316 18.7445 30.4796 19.3601 30.835C20.0731 31.227 20.8597 30.992 21.2239 30.379C21.6292 29.6397 21.3424 28.8568 20.7165 28.4855C18.3289 27.1069 15.9868 25.7278 13.7722 24.4489C14.8952 22.9641 18.0581 21.8938 16.8367 19.5082C16.6132 19.1748 16.4012 18.9657 16.0411 18.8368C15.9706 18.8326 15.924 18.8422 15.9014 18.8656C15.8787 18.889 15.8428 18.9275 15.7936 18.9812C14.8543 20.1297 13.929 21.286 12.4597 21.557C10.896 21.7623 9.50158 22.7017 7.95446 22.5127L7.90316 22.4831L4.09429 29.0801Z" fill="#FF5A36"/>
</g>
<defs>
<filter id="filter0_d_35_2184" x="4.99451" y="11.9946" width="73.0109" height="73.0109" filterUnits="userSpaceOnUse" color-interpolation-filters="sRGB">
<feFlood flood-opacity="0" result="BackgroundImageFix"/>
<feColorMatrix in="SourceAlpha" type="matrix" values="0 0 0 0 0 0 0 0 0 0 0 0 0 0 0 0 0 0 127 0" result="hardAlpha"/>
<feOffset dy="4"/>
<feGaussianBlur stdDeviation="2"/>
<feComposite in2="hardAlpha" operator="out"/>
<feColorMatrix type="matrix" values="0 0 0 0 0 0 0 0 0 0 0 0 0 0 0 0 0 0 0.1 0"/>
<feBlend mode="normal" in2="BackgroundImageFix" result="effect1_dropShadow_35_2184"/>
<feBlend mode="normal" in="SourceGraphic" in2="effect1_dropShadow_35_2184" result="shape"/>
</filter>
<linearGradient id="paint0_linear_35_2184" x1="57.75" y1="16.3542" x2="25.25" y2="72.6458" gradientUnits="userSpaceOnUse">
<stop offset="0.484375" stop-color="#EA3B3B"/>
<stop offset="0.546875" stop-color="#CA300E"/>
<stop offset="0.916667" stop-color="#E30D0D"/>
</linearGradient>
<clipPath id="clip0_35_2184">
<rect width="22" height="22" fill="white" transform="translate(8.60413 11.1042) rotate(30)"/>
</clipPath>
</defs>
</svg>
