<svg width="20" height="17" viewBox="0 0 20 17" fill="none" xmlns="http://www.w3.org/2000/svg">
<path d="M12.6906 2.42656C12.9813 2.47156 13.1063 2.83093 12.8938 3.04406L11.7063 4.19062L11.9875 5.81562C12.0031 6.10937 11.7281 6.33437 11.4594 6.2L10.0063 5.43437L8.54062 6.20937C8.27187 6.34375 7.96875 6.11875 8.0125 5.82812L8.29375 4.2L7.10625 3.04406C6.89375 2.83093 7.01875 2.47156 7.30937 2.42656L8.94375 2.19093L9.68125 0.69787C9.81562 0.428464 10.1969 0.439682 10.3188 0.69787L11.0562 2.19093L12.6906 2.42656V2.42656ZM12 8.5C12.5531 8.5 13 8.94687 13 9.5V15.5C13 16.0531 12.5531 16.5 12 16.5H8C7.44687 16.5 7 16.0531 7 15.5V9.5C7 8.94687 7.44687 8.5 8 8.5H12ZM5 10.5C5.55313 10.5 6 10.9469 6 11.5V15.5C6 16.0531 5.55313 16.5 5 16.5H1C0.447812 16.5 0 16.0531 0 15.5V11.5C0 10.9469 0.447812 10.5 1 10.5H5ZM14 13.5C14 12.9469 14.4469 12.5 15 12.5H19C19.5531 12.5 20 12.9469 20 13.5V15.5C20 16.0531 19.5531 16.5 19 16.5H15C14.4469 16.5 14 16.0531 14 15.5V13.5Z" fill="#FF5A36"/>
</svg>
