<svg width="20" height="21" viewBox="0 0 20 21" fill="none" xmlns="http://www.w3.org/2000/svg">
<g clip-path="url(#clip0_334_7843)">
<path d="M0 6.5V18.029C0 18.029 4.621 17.857 10 20.5C15.379 17.857 20 18.029 20 18.029V6.5C20 6.5 14.546 6.5 10 8.971C5.454 6.5 0 6.5 0 6.5Z" fill="#7CCA4D"/>
<path d="M10 6.5C11.6569 6.5 13 5.15685 13 3.5C13 1.84315 11.6569 0.5 10 0.5C8.34315 0.5 7 1.84315 7 3.5C7 5.15685 8.34315 6.5 10 6.5Z" fill="#7CCA4D"/>
</g>
<defs>
<clipPath id="clip0_334_7843">
<rect width="20" height="20" fill="white" transform="translate(0 0.5)"/>
</clipPath>
</defs>
</svg>
