<svg width="18" height="14" viewBox="0 0 18 14" fill="none" xmlns="http://www.w3.org/2000/svg">
<path fill-rule="evenodd" clip-rule="evenodd" d="M5.24981 11.875C5.24981 11.7093 5.31566 11.5503 5.43287 11.4331C5.55008 11.3159 5.70905 11.25 5.87481 11.25H17.1248C17.2906 11.25 17.4495 11.3159 17.5668 11.4331C17.684 11.5503 17.7498 11.7093 17.7498 11.875C17.7498 12.0408 17.684 12.1998 17.5668 12.317C17.4495 12.4342 17.2906 12.5 17.1248 12.5H5.87481C5.70905 12.5 5.55008 12.4342 5.43287 12.317C5.31566 12.1998 5.24981 12.0408 5.24981 11.875ZM5.24981 6.87502C5.24981 6.70926 5.31566 6.55029 5.43287 6.43308C5.55008 6.31587 5.70905 6.25002 5.87481 6.25002H17.1248C17.2906 6.25002 17.4495 6.31587 17.5668 6.43308C17.684 6.55029 17.7498 6.70926 17.7498 6.87502C17.7498 7.04078 17.684 7.19975 17.5668 7.31696C17.4495 7.43417 17.2906 7.50002 17.1248 7.50002H5.87481C5.70905 7.50002 5.55008 7.43417 5.43287 7.31696C5.31566 7.19975 5.24981 7.04078 5.24981 6.87502ZM5.24981 1.87502C5.24981 1.70926 5.31566 1.55029 5.43287 1.43308C5.55008 1.31587 5.70905 1.25002 5.87481 1.25002H17.1248C17.2906 1.25002 17.4495 1.31587 17.5668 1.43308C17.684 1.55029 17.7498 1.70926 17.7498 1.87502C17.7498 2.04078 17.684 2.19975 17.5668 2.31696C17.4495 2.43417 17.2906 2.50002 17.1248 2.50002H5.87481C5.70905 2.50002 5.55008 2.43417 5.43287 2.31696C5.31566 2.19975 5.24981 2.04078 5.24981 1.87502ZM3.81731 0.182519C3.87552 0.240576 3.9217 0.309545 3.9532 0.385477C3.98471 0.461408 4.00093 0.54281 4.00093 0.625019C4.00093 0.707228 3.98471 0.788629 3.9532 0.864561C3.9217 0.940492 3.87552 1.00946 3.81731 1.06752L1.94231 2.94252C1.88426 3.00072 1.81529 3.0469 1.73936 3.07841C1.66342 3.10992 1.58202 3.12614 1.49981 3.12614C1.4176 3.12614 1.3362 3.10992 1.26027 3.07841C1.18434 3.0469 1.11537 3.00072 1.05731 2.94252L0.432313 2.31752C0.374203 2.25941 0.328108 2.19042 0.296659 2.1145C0.26521 2.03857 0.249023 1.9572 0.249023 1.87502C0.249023 1.79284 0.26521 1.71146 0.296659 1.63554C0.328108 1.55962 0.374203 1.49063 0.432313 1.43252C0.490423 1.37441 0.559409 1.32831 0.635334 1.29686C0.711258 1.26542 0.792633 1.24923 0.874813 1.24923C0.956993 1.24923 1.03837 1.26542 1.11429 1.29686C1.19022 1.32831 1.2592 1.37441 1.31731 1.43252L1.49981 1.61627L2.93231 0.182519C2.99037 0.124314 3.05934 0.0781361 3.13527 0.046628C3.2112 0.0151199 3.2926 -0.00109863 3.37481 -0.00109863C3.45702 -0.00109863 3.53842 0.0151199 3.61436 0.046628C3.69029 0.0781361 3.75926 0.124314 3.81731 0.182519V0.182519ZM3.81731 5.18252C3.87552 5.24058 3.9217 5.30955 3.9532 5.38548C3.98471 5.46141 4.00093 5.54281 4.00093 5.62502C4.00093 5.70723 3.98471 5.78863 3.9532 5.86456C3.9217 5.94049 3.87552 6.00946 3.81731 6.06752L1.94231 7.94252C1.88426 8.00072 1.81529 8.0469 1.73936 8.07841C1.66342 8.10992 1.58202 8.12614 1.49981 8.12614C1.4176 8.12614 1.3362 8.10992 1.26027 8.07841C1.18434 8.0469 1.11537 8.00072 1.05731 7.94252L0.432313 7.31752C0.314955 7.20016 0.249023 7.04099 0.249023 6.87502C0.249023 6.70905 0.314955 6.54988 0.432313 6.43252C0.549671 6.31516 0.708843 6.24923 0.874813 6.24923C1.04078 6.24923 1.19995 6.31516 1.31731 6.43252L1.49981 6.61627L2.93231 5.18252C2.99037 5.12431 3.05934 5.07814 3.13527 5.04663C3.2112 5.01512 3.2926 4.9989 3.37481 4.9989C3.45702 4.9989 3.53842 5.01512 3.61436 5.04663C3.69029 5.07814 3.75926 5.12431 3.81731 5.18252V5.18252ZM3.81731 10.1825C3.87552 10.2406 3.9217 10.3095 3.9532 10.3855C3.98471 10.4614 4.00093 10.5428 4.00093 10.625C4.00093 10.7072 3.98471 10.7886 3.9532 10.8646C3.9217 10.9405 3.87552 11.0095 3.81731 11.0675L1.94231 12.9425C1.88426 13.0007 1.81529 13.0469 1.73936 13.0784C1.66342 13.1099 1.58202 13.1261 1.49981 13.1261C1.4176 13.1261 1.3362 13.1099 1.26027 13.0784C1.18434 13.0469 1.11537 13.0007 1.05731 12.9425L0.432313 12.3175C0.314955 12.2002 0.249023 12.041 0.249023 11.875C0.249023 11.709 0.314955 11.5499 0.432313 11.4325C0.549671 11.3152 0.708843 11.2492 0.874813 11.2492C1.04078 11.2492 1.19995 11.3152 1.31731 11.4325L1.49981 11.6163L2.93231 10.1825C2.99037 10.1243 3.05934 10.0781 3.13527 10.0466C3.2112 10.0151 3.2926 9.9989 3.37481 9.9989C3.45702 9.9989 3.53842 10.0151 3.61436 10.0466C3.69029 10.0781 3.75926 10.1243 3.81731 10.1825V10.1825Z" fill="#0E95CC"/>
</svg>
