<svg width="20" height="21" viewBox="0 0 20 21" fill="none" xmlns="http://www.w3.org/2000/svg">
<path d="M9.9999 0.899994C7.45382 0.899994 5.01203 1.91142 3.21168 3.71177C1.41133 5.51212 0.399902 7.95392 0.399902 10.5C0.399968 11.7607 0.648344 13.009 1.13085 14.1737C1.61336 15.3384 2.32054 16.3967 3.21203 17.2881C4.10352 18.1795 5.16185 18.8865 6.3266 19.3689C7.49135 19.8513 8.73971 20.0996 10.0004 20.0995C11.2611 20.0994 12.5094 19.8511 13.6741 19.3685C14.8388 18.886 15.8971 18.1789 16.7885 17.2874C17.6799 16.3959 18.387 15.3375 18.8693 14.1728C19.3517 13.008 19.6 11.7597 19.5999 10.499C19.5999 5.19799 15.3009 0.899994 9.9999 0.899994ZM9.9999 18.099C9.00186 18.099 8.01358 17.9024 7.09151 17.5205C6.16943 17.1385 5.33162 16.5787 4.62589 15.873C3.92017 15.1673 3.36035 14.3295 2.97842 13.4074C2.59648 12.4853 2.3999 11.497 2.3999 10.499C2.3999 9.50095 2.59648 8.51267 2.97842 7.5906C3.36035 6.66853 3.92017 5.83071 4.62589 5.12498C5.33162 4.41926 6.16943 3.85945 7.09151 3.47751C8.01358 3.09557 9.00186 2.89899 9.9999 2.89899V10.5L16.7919 7.10399C17.3229 8.15731 17.5996 9.32041 17.5999 10.5C17.5996 12.5155 16.7988 14.4483 15.3736 15.8734C13.9483 17.2984 12.0154 18.099 9.9999 18.099Z" fill="#F3C624"/>
</svg>
