<?xml version="1.0" encoding="UTF-8"?><svg id="Layer_2" xmlns="http://www.w3.org/2000/svg" viewBox="0 0 517.24 209.02"><defs><style>.cls-1{fill:#eaf9ff;}.cls-2{fill:#ffae22;}.cls-3{fill:#fff;}.cls-4{fill:#ffe198;}.cls-5{fill:#fff1d9;}.cls-6{fill:#ffd86e;}.cls-7{fill:#ffc73e;}.cls-8{fill:#fbe7b5;}.cls-9{fill:#fbf1f2;}.cls-10{fill:#f19114;}.cls-11{fill:#751d0e;}.cls-12{fill:#cef;}.cls-13{fill:#b1dfff;}.cls-14{fill:#e51e03;}</style></defs><g id="Layer_1-2"><g><path class="cls-14" d="M49.98,0H312.48c12,0,21.75,9.74,21.75,21.75v51.25H28.23V21.75C28.23,9.74,37.97,0,49.98,0Z"/><g><polygon class="cls-11" points="482.23 164 482.23 209.02 517.24 174.01 482.23 164"/><polygon class="cls-14" points="517.23 175 27.23 175 28.23 28 517.23 28 517.23 175"/></g><g><g><path class="cls-2" d="M66.66,144.04c-3.02-5.6-15.09-12.01-30.33-15.59-15.24-3.58-28.9-3.22-34.1,.45l-1.37-.32-.75,3.18c-1.45,6.18,12.41,14.73,30.96,19.09s34.77,2.88,36.22-3.31l.75-3.18-1.37-.32Z"/><ellipse class="cls-6" cx="34.44" cy="136.47" rx="11.5" ry="34.5" transform="translate(-106.29 138.79) rotate(-76.78)"/></g><g><path class="cls-2" d="M65.7,139.69c-2.84-5.28-14.22-11.31-28.57-14.68-14.36-3.37-27.23-3.03-32.12,.43l-1.29-.3-.7,2.99c-1.37,5.83,11.69,13.88,29.16,17.98,17.47,4.1,32.75,2.71,34.12-3.12l.7-2.99-1.29-.3Z"/><ellipse class="cls-6" cx="35.36" cy="132.56" rx="10.84" ry="32.5" transform="translate(-101.78 136.67) rotate(-76.78)"/></g><g><path class="cls-12" d="M59.76,112.95c-1.01-9.43-5.91-16.75-9.03-20.55-.66-.38-1.27-.72-1.83-1.04-.64-.37-.97-1.12-.8-1.84s.79-1.24,1.53-1.29c.11,0,.23-.01,.34-.02,3.31-2.45,10.42-8.31,16.75-17.55,4.86-7.08,6.37-19.71,6.77-29.35l-14.91-7.64-32.93,.4c-8.01,34.12,9.01,48.05,16.66,52.44,.64,.37,.97,1.11,.8,1.84s-.79,1.24-1.53,1.29c-8.73,.53-28.7,.29-36.87,33.64-.09,.2-.16,.41-.21,.63-1.35,5.74,11.52,13.67,28.73,17.72,4.23,.99,8.32,1.66,12.12,2.01,3.79-4.31,15.68-18.85,14.41-30.68Z"/><path class="cls-1" d="M66.73,70.66c-6.33,9.23-13.45,15.1-16.75,17.55,9-.64,30.01-5.84,37.92-39.52l-14.39-7.38c-.4,9.64-1.92,22.27-6.77,29.35Z"/><path class="cls-1" d="M66.85,138.55c.05-.22,.08-.43,.09-.66,6.98-31.03-7.94-40.76-16.21-45.49,3.12,3.8,8.02,11.12,9.03,20.55,1.26,11.83-10.62,26.37-14.41,30.68,11.66,1.09,20.48-.75,21.5-5.08Z"/><path class="cls-13" d="M34.86,63.17c1.56,11.09,5.32,19.51,7.19,23.17-7.78-4.58-24.27-18.59-16.36-52.27l16.17-.2c-3.94,8.81-8.2,20.8-7,29.3Z"/><path class="cls-13" d="M4.53,123.91c.05-.22,.12-.42,.21-.63,7.57-30.89,25.26-32.96,34.77-33.52-4.48,2.01-12.14,6.39-17.24,14.38-6.4,10.03-2.23,28.34-.75,33.89-10.93-4.21-18-9.79-16.98-14.12Z"/></g><g><path class="cls-9" d="M51.41,87.11c4.72-.08,9.31-1.89,14.07-4.62,8.23-4.7,9.84-8.23,9.84-8.23,0,0-3.29-2.33-8.1-4.36-.16,.26-.32,.51-.49,.76-5.53,8.06-11.65,13.55-15.32,16.45Z"/><path class="cls-9" d="M65.5,139.53l.34,.07,.23-.83c.19-.33,.33-.67,.42-1.03,.06-.26,.09-.52,.09-.79l.53-1.87s1.25-5.79-8.39-8.05c-.67-.16-1.29-.34-1.87-.53-3.19,6.94-8.13,13.2-10.8,16.31,9.37,.79,16.76-.39,19.44-3.28Z"/><g><path class="cls-6" d="M57.02,82.17c3.03-2.95,6.48-6.79,9.71-11.51,.17-.24,.33-.5,.49-.76-3.63-1.53-8.12-2.9-12.72-2.97-10.69-.17-14.15-3.32-19.94-4-5.79-.68-7.49,4.48-7.49,4.48,0,0,.24,.57,.71,1.52,1.81,1.75,4.17,3.75,7.23,5.93,5.45,3.88,14.49,6.09,22.01,7.31Z"/><path class="cls-7" d="M40.78,84.2c.57,.33,1.14,.62,1.71,.89,.86,1.08,1.65,2.3,1.47,2.94-.37,1.34-2.23,1.98-2.04,2.37,.19,.39,1.12,2.25,3.16,2.28,2.04,.02,2.01-.55,2.25-2.09,.25-1.54,1.28-3.28,2.3-3.27,.49,0,.77-.1,.93-.22,.28,0,.56,0,.83,0,1.52-1.2,3.46-2.84,5.61-4.93-7.53-1.23-16.56-3.43-22.01-7.31-3.06-2.18-5.42-4.18-7.23-5.93,1.66,3.35,6.16,11.38,13.01,15.27Z"/><path class="cls-7" d="M7.04,118.04l-.97,3.23,.15,.19c-.55,.56-.91,1.19-1.07,1.88-1.33,5.65,11.33,13.45,28.27,17.43,4.43,1.04,8.71,1.72,12.64,2.05,.52-.61,1.14-1.35,1.81-2.19-5.92-1.81-12.94-4.57-18.4-8.55-6.97-5.08-11.31-11.35-13.68-15.58-6.17-.24-8.75,1.54-8.75,1.54Z"/></g></g><path class="cls-1" d="M58.24,35.14l27.96,14.33c-3.44,13.84-9.49,24.07-18.02,30.41-3.18,2.37-6.69,4.17-10.43,5.35-2.71,.86-5.47,1.37-8.21,1.54-1.4,.08-2.55,1.06-2.87,2.42-.32,1.36,.28,2.74,1.49,3.44,.3,.17,.61,.35,.93,.53,3.89,2.2,9.76,5.53,13.75,12.12,2.19,3.62,3.58,7.88,4.14,12.65,.67,5.7,.17,12.31-1.48,19.64l-.03,.12v.13c-.01,.14-.03,.27-.06,.39-.28,1.18-1.56,2-2.59,2.48-1.68,.79-4.09,1.34-6.97,1.6-6.2,.57-14.11-.18-22.29-2.1-8.18-1.92-15.6-4.78-20.89-8.04-2.46-1.52-4.37-3.09-5.53-4.54-1.28-1.61-1.37-2.72-1.22-3.37,.03-.12,.07-.24,.13-.38l.05-.12,.03-.12c1.79-7.3,4.28-13.44,7.42-18.25,2.63-4.03,5.77-7.22,9.34-9.49,6.5-4.12,13.24-4.49,17.7-4.73,.37-.02,.73-.04,1.07-.06,1.4-.08,2.55-1.06,2.87-2.42,.32-1.36-.28-2.74-1.49-3.44-2.38-1.37-4.62-3.06-6.67-5.03-2.82-2.72-5.16-5.9-6.96-9.43-4.81-9.47-5.68-21.33-2.59-35.25l31.41-.38m.35-1.47l-32.93,.4c-8.01,34.12,9.01,48.05,16.66,52.44,.64,.37,.97,1.11,.8,1.84h0c-.17,.72-.79,1.24-1.53,1.29-8.73,.53-28.7,.29-36.87,33.64-.09,.2-.16,.41-.21,.63-1.35,5.74,11.52,13.67,28.73,17.72,17.22,4.04,32.27,2.67,33.62-3.07,.05-.22,.08-.43,.09-.66,7.53-33.5-10.46-42.18-18.04-46.54-.64-.37-.97-1.12-.8-1.84h0c.17-.72,.79-1.24,1.53-1.29,8.8-.53,30.25-5.42,38.26-39.54l-29.31-15.02h0Z"/><g><path class="cls-10" d="M53.61,54.86c-17.43-4.09-30.45-12.12-29.08-17.93l-.7,2.98c-1.36,5.81,11.66,13.84,29.08,17.93,17.43,4.09,32.66,2.7,34.03-3.11l.7-2.98c-1.36,5.81-16.6,7.2-34.03,3.11Z"/><g><path class="cls-8" d="M66.35,45.51c3.35-3.06,4.09-5.92,3.94-8.11-3.56-1.36-7.52-2.59-11.73-3.58-17.43-4.09-32.66-2.7-34.03,3.11-.97,4.13,5.33,9.38,15.32,13.55,4.6,.23,20.41,.59,26.5-4.97Z"/><path class="cls-5" d="M87.63,51.75c1.03-4.4-6.2-10.08-17.35-14.36,.16,2.19-.59,5.06-3.94,8.11-6.09,5.55-21.9,5.2-26.5,4.97,4.06,1.69,8.73,3.2,13.76,4.39,17.43,4.09,32.66,2.7,34.03-3.11Z"/></g></g><g><path class="cls-2" d="M54.3,51.9c-18.55-4.36-32.41-12.9-30.96-19.09l-.75,3.18c-1.45,6.18,12.41,14.73,30.96,19.09,18.55,4.36,34.77,2.88,36.22-3.31l.75-3.18c-1.45,6.18-17.67,7.67-36.22,3.31Z"/><g><path class="cls-4" d="M90.52,48.59c1.1-4.69-6.6-10.73-18.47-15.28,.17,2.33-.63,5.38-4.19,8.64-6.48,5.91-23.31,5.53-28.21,5.29,4.32,1.8,9.29,3.41,14.65,4.67,18.55,4.36,34.77,2.88,36.22-3.31Z"/><g><path class="cls-6" d="M72.06,33.31c-3.5-1.34-7.36-2.55-11.46-3.56-7.83-.62-21.89-1.02-25.73,3.58-5.4,6.49,4.79,13.9,4.79,13.9,4.9,.25,21.72,.63,28.21-5.29,3.57-3.25,4.36-6.31,4.19-8.64Z"/><path class="cls-7" d="M34.86,33.33c3.83-4.61,17.9-4.2,25.73-3.58-.34-.08-.68-.17-1.03-.25-18.55-4.36-34.77-2.88-36.22,3.31-1.03,4.4,5.68,9.99,16.31,14.42,0,0-10.19-7.41-4.79-13.9Z"/></g></g></g><path class="cls-6" d="M44.59,116.81c-1.2-.94-1.92-2.37-1.98-3.89-.12-3.07-.16-7.54,.42-10.73,.98-5.34,4.04-10.47,4.04-10.47l-2.54-.6-1.91,.24s1.24,1.74,.51,5.14c-.73,3.4-2.87,11.91-3.71,13.43-.58,1.06-2.16,4.04-4.81,3.38-.73-.18-1.48-.28-2.23-.22-4.9,.42-6.75,4.59-13.2,3.7-1.24-.17-2.36-.27-3.39-.31,2.37,4.23,6.71,10.51,13.68,15.58,5.47,3.98,12.49,6.74,18.4,8.55,2.73-3.42,6.43-8.55,8.99-14.12-6.06-2.04-7.59-6.04-12.27-9.69Z"/></g><g><path class="cls-3" d="M114.84,22.01c-1.57-.13-1.87-.13-4.66-.13h-12.24c-2.74,0-3.14,0-4.66,.13v-5.62c1.22,.17,2.53,.22,5.05,.22h11.46c2.57,0,3.83-.04,5.05-.22v5.62Zm-14.9,22.48c.57,.04,.74,.04,1.22,.09-.61-.83-1.26-1.44-2-2.05v9.58c0,2.35,.04,3.09,.13,4.05h-5.84c.17-1.53,.22-2.92,.22-5.97v-12.76c0-1.7-.04-2.96-.17-4.18,.83,.09,1.79,.13,3.27,.13h14.68c1.53,0,2.35-.04,3.18-.13-.09,1.13-.13,2.18-.13,3.88v13.72c0,2.92-.61,4.18-2.27,4.75-.92,.26-1.96,.35-4.4,.35-.31-2.79-.44-3.49-1.09-5.27,.78,.13,1.39,.22,1.7,.22,.65,0,.92-.22,.92-.87v-6.4h-1.22c-2.88,0-3.44-.35-3.44-2.09v-3.53h-.87c-.09,3.22-.61,4.75-2.05,6.58h4.66c1.18,0,1.39,0,2.13-.09v4.1c-.65-.09-1-.09-2.13-.09v3.92c0,1,.04,1.57,.13,2.4h-4.79c.09-.74,.13-1.57,.13-2.35v-3.96c-1,0-1.26,0-1.96,.09v-4.1Zm13.42-13.98c0,.52,.04,1.35,.09,1.83-.83-.09-1.31-.09-2.53-.09h-12.68c-1.92,0-2.31,0-3.27,.09,.04-.39,.04-1.57,.09-3.48v-2.48c-.04-1.87-.04-2.96-.09-3.4,.83,.09,1.26,.09,3.27,.09h11.94c2,0,2.4,0,3.27-.09-.04,.52-.09,1.31-.09,1.96v5.58Zm-14.2,11.63c1.18-1.04,1.53-1.96,1.61-4.14h-1.61v4.14Zm8.41-15.2h-6.58v1.48h6.58v-1.48Zm.17,12.76c0,.57,.17,.7,.78,.7h.83v-2.4h-1.61v1.7Zm13.03-19.47c0-2.48-.04-3.53-.22-4.84h6.8c-.17,1.31-.22,2.31-.22,4.84v1.66h1.96c1.92,0,2.83-.04,4.01-.13-.13,1.48-.17,2.48-.17,4.84v10.15c0,2.48,.04,3.66,.17,4.97-1.09-.09-2.27-.13-4.01-.13h-2.31v5.75c.7-.13,.92-.17,1.57-.3-.22-1-.31-1.35-.61-2.75l4.31-1.22c1.13,3.92,1.57,5.92,2.53,11.28l-4.71,1.87c-.26-2.05-.35-2.57-.52-3.75-2.35,.65-6.75,1.74-10.06,2.44-.13,.04-1.26,.3-3.44,.78l-1.26-6.88c2.18-.04,2.83-.09,6.19-.52v-6.71h-1.74c-2.18,0-2.48,0-3.62,.09,.09-1.18,.09-1.79,.09-4.44v-11.02c0-2.53,0-3.35-.09-4.44,1.09,.09,1.87,.13,4.31,.13h1.05v-1.66Zm-.78,7.62v7.8h1.44v-7.8h-1.44Zm8.15,7.8v-7.8h-1.53v7.8h1.53Z"/><path class="cls-3" d="M159.27,22.67c-1.48,1.52-2.53,2.4-4.75,3.83-1.61-2.05-2.53-2.92-4.01-4.05,3.31-2,6.27-5.14,7.14-7.54l6.71,.83c-.3,.52-.39,.61-.7,1.09-.17,.35-.22,.44-.52,.87h11.46c1.52,0,2.4-.04,3.14-.13l3.49,2.66q-.3,.44-1.7,2.7c-.83,1.35-1.57,2.26-3.01,4.01-2-.96-3.48-1.53-5.66-2.22,1.13-.87,1.57-1.31,2.22-2.05h-4.49c1.26,3.75,5.84,5.75,13.2,5.84-1.04,2.13-1.61,3.53-2.18,5.75-1.48-.17-1.96-.22-2.96-.44v10.8c0,2.66,.04,3.83,.17,4.75-1.09-.04-2.27-.09-4.36-.09h-1.7c3.05,1.26,6.01,1.83,11.11,2.09-1.52,1.66-2.35,2.79-3.75,5.18-6.58-1.13-9.76-2.27-15.03-5.31l3.62-1.96h-11.67l3.88,1.96c-5.1,3.09-7.8,4.09-14.59,5.31-1.26-2.09-2.05-3.18-3.7-4.92,5.1-.48,8.06-1.13,10.8-2.35h-1.57c-2.18,0-3.22,.04-4.4,.09,.09-1,.17-2.31,.17-4.27v-9.11c0-1.7-.04-3.09-.13-3.88q-1.87,.83-2.57,1.18l-2.27-6.06c2.7-.52,7.01-2.13,10.32-3.83l1.7,4.79c5.49-1,8.36-2.7,9.24-5.53h-2.66Zm-10.98,1.39c-2.75-2.09-4.18-2.96-6.93-4.27l3.92-4.53c2.83,1.26,4.36,2.09,7.14,3.88l-4.14,4.92Zm4.57,7.67c-.48-.87-.83-1.44-1.53-2.35-1.83,.92-2.7,1.35-4.83,2.31,1.61,.04,1.74,.04,3.27,.04h3.09Zm-.83,4.75h18.08v-1.13h-18.08v1.13Zm0,4.36h18.08v-1.18h-18.08v1.18Zm0,4.36h18.08v-1.18h-18.08v1.18Zm18.34-13.46c-2.18-1.18-3.44-2.22-5.01-4.36-1.31,2-2.83,3.18-5.62,4.36h10.63Z"/><path class="cls-3" d="M189.98,22.15c0-2.18-.04-3.01-.17-4.71,1.18,.13,1.87,.17,3.66,.17h7.36c1.7,0,2.53-.04,3.62-.13-.09,.96-.09,1.79-.09,4.31v25.96c0,2.57,0,3.27,.09,4.57h-6.06v-2.18h-2.35v3.79h-6.32c.22-1.48,.26-2.92,.26-5.75V22.15Zm6.1,8.67h2.35v-7.36h-2.35v7.36Zm0,13.33h2.35v-7.62h-2.35v7.62Zm13.98-1.96c-2.13,.04-3.18,.09-4.75,.22v-6.36c1.13,.13,2.57,.17,5.14,.17h8.36v-2.4h-8.36c-1.79,0-3.79,.09-5.14,.22v-6.27c1,.13,3.01,.22,5.23,.22h3.22v-2.61h-2.48c-.91,.04-2.09,.04-3.44,.09-.44,0-.87,0-1.66,.09v-6.36c1.35,.17,2.83,.26,4.88,.26h2.7v-.83c0-1.26-.04-2.13-.22-3.05h6.84c-.13,.87-.22,1.74-.22,3.01v.87h3.27c1.96,0,3.53-.09,4.84-.26v6.36c-1.31-.13-2.44-.17-4.75-.17h-3.35v2.61h4.27c2.13,0,4.05-.09,5.05-.22v6.27c-1.26-.17-2.22-.22-4.31-.22v2.4c2.26,0,3.18-.04,4.09-.17v6.36c-1.26-.17-2-.22-4.09-.22v8.63c0,4.01-1.96,5.31-7.89,5.31-.44,0-1.74-.04-3.35-.04-.26-2.53-.57-3.92-1.22-5.53l-1.74,1.35c-1.74-3.09-3.01-4.84-5.23-7.14l4.31-2.57Zm1.7,0c1.79,1.7,3.09,3.27,4.53,5.58l-2.79,2.18c1.74,.17,2.66,.22,3.75,.22,1.22,0,1.57-.26,1.57-1.09v-6.88h-7.06Z"/><path class="cls-3" d="M244.52,50.29c0,2.79,.09,4.57,.26,5.84h-7.01c.17-1.39,.26-2.88,.26-5.88V21.45c0-2.44-.04-3.62-.17-5.01,1.26,.13,2.31,.17,4.4,.17h9.15c2.35,0,3.31-.04,4.44-.17-.09,1.31-.13,2.31-.13,4.01v7.93c0,2.35,0,2.79,.09,3.79-.96-.04-2.27-.09-3.57-.09h-7.71v18.21Zm0-27.58h5.18v-1.53h-5.18v1.53Zm0,5.14h5.18v-1.57h-5.18v1.57Zm21.78,20.69v1.09c.39,.04,.65,.04,.74,.04,2.35,0,2.44-.04,2.44-1v-16.55h-8.1c-1.18,0-2.66,.04-3.57,.09,.09-1.18,.09-1.57,.09-3.83v-7.93c0-1.61-.04-2.7-.13-4.01,1.26,.13,2.18,.17,4.44,.17h9.5c2.13,0,3.14-.04,4.4-.17-.13,1.48-.17,2.61-.17,4.92v28.36c0,5.18-1.31,6.19-7.93,6.19-.57,0-.7,0-3.27-.09-.26-1.83-.35-2.48-.65-3.75h-10.5v1.83h-6.19c.13-1.35,.17-2.92,.17-4.62v-11.63c0-1.53-.04-2.66-.13-3.7,1.18,.09,2.22,.13,3.79,.13h11.41c1.66,0,2.61-.04,3.79-.13-.09,1-.13,2.05-.13,3.7v10.89Zm-12.72-7.71h6.71v-1.74h-6.71v1.74Zm0,6.14h6.71v-1.79h-6.71v1.79Zm10.41-24.26h5.49v-1.53h-5.49v1.53Zm0,5.14h5.49v-1.57h-5.49v1.57Z"/></g></g></g></svg>