<svg width="30" height="30" viewBox="0 0 30 30" fill="none" xmlns="http://www.w3.org/2000/svg">
<path d="M16.25 3.75H21.25V6.25H16.25V3.75ZM3.75 10H8.75V12.5H3.75V10ZM3.75 20H8.75V22.5H3.75V20ZM2.5 15H7.4875V17.5H2.5V15ZM27.1338 8.38375L25.3662 6.61625L23.2325 8.75C21.8801 7.9327 20.3302 7.50046 18.75 7.5C13.9263 7.5 10 11.4262 10 16.25C10 21.0737 13.9263 25 18.75 25C23.5737 25 27.5 21.0737 27.5 16.25C27.4988 14.0576 26.6707 11.9463 25.1813 10.3375L27.1338 8.38375ZM20 17.5H17.5V11.1975H20V17.5Z" fill="white"/>
</svg>
