<?xml version="1.0" encoding="UTF-8"?>
<svg id="Layer_2" data-name="Layer 2" xmlns="http://www.w3.org/2000/svg" viewBox="0 0 2039.73 479.94">
  <defs>
    <style>
      .cls-1 {
        opacity: .2;
      }

      .cls-1, .cls-2 {
        fill: #fbb03b;
      }

      .cls-1, .cls-2, .cls-3, .cls-4, .cls-5, .cls-6, .cls-7, .cls-8, .cls-9, .cls-10, .cls-11, .cls-12, .cls-13 {
        stroke-width: 0px;
      }

      .cls-2 {
        opacity: .6;
      }

      .cls-3 {
        fill: #f4bd37;
      }

      .cls-4 {
        fill: #f7d42b;
      }

      .cls-5 {
        fill: #f8f8f8;
      }

      .cls-6 {
        fill: #4b4d5e;
      }

      .cls-7 {
        fill: #3f3f3f;
      }

      .cls-8 {
        fill: #b9b8b7;
      }

      .cls-9 {
        fill: #333;
      }

      .cls-10 {
        fill: #fadf6a;
      }

      .cls-11 {
        fill: #f15a24;
      }

      .cls-12 {
        fill: #ecbba4;
      }

      .cls-13 {
        fill: #ea7b59;
      }
    </style>
  </defs>
  <g id="Layer_1-2" data-name="Layer 1">
    <g>
      <path class="cls-2" d="M1199.56,223.64c-1.55,4.72-7.27,9.19-11.99,7.64-4.72-1.55-6.66-8.54-5.11-13.26s7.58-10.14,12.3-8.59c4.72,1.55,6.35,9.49,4.8,14.21Z"/>
      <path class="cls-7" d="M594.06,129.86c-4.73.12-7.28.24-10.67.61v-14.91c3.64.48,6.91.61,14.06.61h84.39c7.03,0,10.18-.12,13.82-.61v14.91c-4-.49-7.15-.61-14.19-.61h-40.62v40.13c4.61-1.82,6.79-2.79,10.55-4.97-3.27-3.64-4.85-5.94-8.49-11.88l12.49-5.09h-2.18c-4.49,0-6.91.12-9.7.48v-15.52c2.91.36,5.21.49,10.18.49h20.98c3.88,0,6.91-.12,8.97-.49l8.61,9.34q-.73,1.09-2.91,5.46c-3.4,6.3-7.28,11.76-12,17.1,6.06,2.55,10.67,3.88,19.76,5.46-3.64,5.94-5.58,9.94-7.88,17.22-11.64-3.88-18.07-6.79-24.73-11.16-5.82,4.24-10.06,6.67-18.31,10.55-1.82-4.73-2.79-6.55-5.33-10.67,0,4.73.24,7.88.61,11.15h-18.55c.36-2.79.49-5.21.61-11.28-10.06,1.94-13.22,2.43-32.01,5.09-1.7.24-3.03.49-5.21,1.09l-3.64-17.7c1.09.12,1.7.12,2.42.12,1.33,0,3.4-.12,8.97-.49v-34.43ZM684.02,101.85c0,5.34.12,8.25.48,11.16-1.21,0-4.49-.12-9.94-.24h-67.53c-5.58,0-8.49.12-12,.36.36-3.15.49-6.06.49-11.28v-14.43c0-5.21-.12-8.25-.49-11.4,4,.36,6.91.49,12.73.49h64.02c5.82,0,8.73-.12,12.73-.49-.36,3.03-.48,5.82-.48,11.4v14.43ZM611.15,133.74h12.37v-3.88h-12.37v3.88ZM611.15,147.8h12.37v-4.24h-12.37v4.24ZM611.15,162.84c2.3-.24,6.43-.73,12.37-1.46v-3.76h-12.37v5.21ZM613.22,90.82h52.86v-3.64h-52.86v3.64ZM613.22,102.94h52.86v-3.52h-52.86v3.52ZM657.59,148.04c2.55,4,3.52,5.33,6.18,8,2.91-2.79,4.36-4.49,6.67-8h-12.85Z"/>
      <path class="cls-7" d="M735.07,103.55c-2.42,5.58-3.76,8-7.64,14.06-4.49-5.7-8.25-8.85-13.58-12.12,5.46-7.76,8.61-14.55,11.52-24.49,1.21-3.88,1.46-5.58,1.7-8.73l17.58,2.67c-.49,1.46-1.21,3.76-1.94,6.55-.36,1.82-.61,2.55-1.46,5.33h11.15c5.33,0,8.37-.12,11.52-.61v17.82c-3.03-.36-5.21-.36-10.06-.49q-.12,10.06-.49,15.76h1.21c5.09,0,7.4-.12,10.67-.61v17.94c-3.15-.36-5.94-.49-11.4-.49h-1.58c4,8.85,8,13.94,16.25,21.22-5.09,6.43-7.03,9.46-10.43,17.22-5.7-6.18-8.73-10.18-12.25-16.61-4.85,11.4-10.43,19.52-19.76,28.37-3.39-6.79-6.3-10.79-11.64-16.01,11.03-9.09,17.34-19.88,20.01-34.19h-4.85c-6.43,0-9.34.12-13.22.73v-18.31c3.88.61,6.43.73,13.58.73h6.3q.24-5.21.24-15.76h-1.46ZM780.41,141.38c-5.09,0-8.49.12-12.61.36.36-4,.48-7.15.48-12.85v-16.25c0-5.94-.12-9.21-.48-13.21,3.64.24,7.76.36,13.94.36h28.86c6.06,0,10.31-.12,13.94-.36-.36,4.24-.49,7.03-.49,13.21v16.25c0,6.06.12,8.61.49,12.85-4.37-.24-7.52-.36-12.73-.36h-3.52l14.55,5.33c-3.88,11.64-4.37,13.09-7.76,20.13h1.09c6.43,0,9.09-.12,13.58-.48v18.19c-4.24-.49-7.28-.61-13.58-.61h-40.01c-6.3,0-9.21.12-13.58.61v-18.19c4.49.36,7.15.48,13.58.48h2.42c-2.67-7.52-5.33-13.09-9.09-19.16l13.82-6.3h-2.91ZM766.35,76.75c4.37.48,6.91.61,13.58.61h34.43c6.67,0,9.34-.12,13.58-.61v17.94c-4.36-.36-7.64-.49-13.58-.49h-34.43c-5.82,0-9.21.12-13.58.49v-17.94ZM786.11,141.38c4.24,7.4,4.49,8,9.58,19.4l-13.58,6.06h14.79c3.4-8.12,5.82-16,7.88-25.46h-18.67ZM785.75,125.01h20.25v-8.97h-20.25v8.97Z"/>
      <path class="cls-11" d="M968.71,171.08c-4-4-7.03-8.61-8.85-13.46-3.15-8.61-4.73-17.94-4.73-27.77,0-12.73,3.03-25.95,7.64-33.58,7.4-12.37,20.01-19.16,35.28-19.16,11.76,0,22.07,4,29.46,11.28,4,4,7.03,8.61,8.85,13.46,3.15,8.61,4.73,17.95,4.73,27.89,0,12.73-3.03,26.07-7.64,33.71-7.27,12.12-20.01,18.91-35.4,18.91-11.88,0-21.95-3.88-29.34-11.28ZM979.98,128.89c0,21.7,6.18,32.86,18.19,32.86s17.95-10.91,17.95-32.49-6.31-31.65-18.07-31.65-18.07,11.52-18.07,31.28Z"/>
      <path class="cls-11" d="M1095.04,129.86c-3.27,0-5.46.12-8.25.49v-6.79c-5.82,6.06-8.73,8.61-15.03,13.46-3.88-6.91-6.91-11.28-12.37-17.1,13.94-9.7,23.4-20.49,30.55-34.56,2.42-4.73,3.64-7.76,4.24-11.28l19.88,7.28c-1.21,2.06-1.82,3.15-3.15,6.18-3.39,7.4-9.46,17.46-15.4,25.46h45.71c-6.43-8.25-11.28-16.61-15.64-26.67-.73-1.82-1.58-3.52-2.3-5.21l18.07-6.91c.97,3.27,1.94,5.58,4.97,11.15,7.27,13.34,17.46,23.89,31.28,32.37-5.82,7.27-7.27,9.46-12.25,18.55-5.21-3.88-7.28-5.58-10.31-8.37-.12,24.37-1.82,40.86-4.85,47.41-3.27,7.03-9.09,9.34-24.13,9.34q-1.21,0-8.61-.12c-.85-7.15-1.94-11.16-5.21-19.4,5.09.73,9.94,1.09,12.85,1.09,6.3,0,7.76-.85,8.97-5.94,1.21-4.73,2.06-16.73,2.06-30.43h-18.43c-1.33,13.1-4,21.46-9.7,30.92-4.73,7.76-11.16,14.55-19.16,20.13-3.76,2.55-6.3,4-12.12,6.67-3.88-6.91-6.3-10.31-12-16.49,14.19-5.7,22.92-12.61,28.25-22.31,3.4-6.06,4.73-11.03,5.21-18.92h-3.15Z"/>
      <g>
        <path class="cls-7" d="M1200.12,125.82c1.25.07,2.21.07,2.79.07,1.91,0,4.56-.15,12.57-.66,10.59-.66,17.72-1.03,31.69-1.54l7.57-.29,3.09-.15c2.5-.07,2.94-.15,3.31-.15.51,0,.81-.07,1.69-.29l.66,13.31c-1.03-.15-1.32-.15-2.06-.15-5.15,0-11.77,1.99-16.84,5.15-7.35,4.48-11.69,10.66-11.69,16.69,0,4.26,1.99,7.13,6.18,9.12,2.94,1.47,9.41,2.65,14.04,2.65.59,0,1.1,0,2.21-.07l-1.69,13.97c-1.03-.22-1.25-.22-2.72-.37-8.38-.74-13.9-1.99-18.6-4.12-8.68-4.04-13.16-10.81-13.16-20.15,0-6.1,2.06-11.62,6.25-16.62,1.91-2.35,3.68-3.82,7.21-6.25l-3.46.37c-1.62.15-4.19.37-17.94,1.47-6.84.74-7.21.74-10.37,1.4l-.74-13.38ZM1252.25,142.58c2.94,3.38,5.15,6.62,7.13,10.66l-7.06,3.23c-2.28-4.63-4.19-7.5-7.13-10.88l7.06-3.01ZM1262.11,138.32c2.65,2.94,4.71,5.81,7.21,10.37l-6.84,3.16c-2.65-4.93-4.49-7.72-6.99-10.59l6.62-2.94Z"/>
        <path class="cls-7" d="M1299.03,125.82c-1.4,3.82-1.99,5.22-3.82,9.34v42.65c0,3.31.07,4.85.37,8.46h-11.69c.29-3.02.44-5.07.44-8.46v-21.69q.07-1.4.07-5.07-.66.96-1.99,2.87c-.44.66-.96,1.25-1.84,2.28-1.03-5.37-1.91-8.6-3.75-13.53,4.41-4.49,7.87-10.22,10.52-17.5,1.4-3.68,2.06-6.18,2.43-9.19l11.69,2.57c-.15.44-.96,2.87-1.47,4.48,1.69.15,3.01.22,5.51.22h1.69v-.96c0-2.21-.15-3.68-.44-5.29h11.62c-.22,1.25-.29,2.72-.29,5.37v.88h7.43v-1.03c0-2.5-.07-3.82-.37-5.22h11.77c-.29,1.47-.37,3.02-.37,5.29v.96h2.79c2.87,0,4.78-.07,6.84-.37v10.44c-2.06-.22-3.6-.29-6.76-.29h-2.87v4.41h3.46c3.9,0,5.59-.07,7.35-.37v10.66c-1.84-.29-3.82-.37-7.57-.37h-34.93c-3.68,0-5.66.07-7.65.37v-10.66c1.69.29,3.68.37,7.5.37h2.5v-4.41h-1.69c-3.01,0-4.63.07-6.47.29v-7.5ZM1300.94,156.55c0-3.16-.07-4.78-.29-6.69,1.84.22,3.46.29,6.84.29h28.24c3.9,0,5.66-.07,7.13-.29-.22,1.76-.29,3.46-.29,6.99v19.85c0,3.82.07,6.62.37,9.56h-11.32v-2.72h-19.85v2.72h-11.25c.29-2.94.44-5.59.44-8.82v-20.88ZM1311.75,162.36h19.85v-3.31h-19.85v3.31ZM1311.75,174.27h19.85v-3.46h-19.85v3.46ZM1325.5,137.43v-4.41h-7.43v4.41h7.43Z"/>
        <path class="cls-7" d="M1380.36,119.2c-1.03,3.09-1.91,7.87-3.01,15.74,4.78-8.6,10.74-12.72,18.6-12.72,5,0,9.93,2.5,13.31,6.69,4.12,5.15,6.1,11.84,6.1,20.44,0,12.06-3.75,21.03-11.25,26.91-4.19,3.31-10.07,6.03-16.77,7.65-2.5.66-4.41,1.03-8.68,1.69-1.76-5.51-2.72-7.57-5.88-12.57,21.1-1.25,29.63-8.16,29.63-24.04,0-9.19-2.94-14.27-8.16-14.27-2.72,0-5.22,1.32-7.94,4.27-4.41,4.63-7.28,10.74-8.16,17.06-.22,1.69-.29,2.57-.29,6.03l-12.35.15c.07-.52.07-.96.07-1.25v-1.47c-.15-2.87-.22-7.28-.22-9.34,0-8.9.52-17.35,1.69-26.84.22-2.13.29-2.94.29-4.04v-.59l13.02.51Z"/>
        <path class="cls-7" d="M1452.8,133.68c-1.03,3.97-2.28,10.88-3.16,17.87,6.18-3.97,12.65-5.74,21.03-5.74,13.09,0,21.77,6.84,21.77,17.28,0,6.32-3.01,11.98-8.31,15.59-5.29,3.6-11.99,5.29-21.03,5.29-6.03,0-11.25-.59-18.46-2.21-.22-6.1-.51-8.46-1.69-13.09,7.28,2.28,14.12,3.46,19.63,3.46,9.71,0,16.18-3.46,16.18-8.68,0-3.9-3.82-6.18-10.44-6.18-5.51,0-11.1,1.47-16.1,4.41-1.91,1.03-2.65,1.69-4.12,3.31l-12.21-.51c.15-.66.15-.74.22-1.47.37-3.53,1.91-15.29,3.38-25.44.22-1.62.37-2.79.44-4.71l12.87.81ZM1451.47,117.51c3.6,1.84,8.02,3.38,15,5.22,5,1.32,11.32,2.65,14.78,3.16l-3.9,11.84c-13.31-2.72-23.16-5.66-31.77-9.63l5.88-10.59Z"/>
        <path class="cls-7" d="M1505.6,162.58c1.99-1.54,3.16-2.57,5.15-4.49,4.93-5,7.65-7.65,8.01-8.09.07-1.18.15-3.31.22-8.09q-8.24.51-10.96.96l-.59-11.62c1.69.15,2.57.22,3.82.22,1.84,0,4.93-.15,8.01-.37q.07-.88.07-2.35c.07-1.54.15-3.38.15-5.07,0-2.28-.07-3.01-.29-4.85l13.01.29c-.29,1.76-.74,6.4-.88,10.88l4.04,3.82c-1.32.96-2.79,2.65-4.63,5l-.07,1.03c0,.81,0,.96-.07,1.62,9.19-8.53,16.77-12.65,23.24-12.65,7.13,0,11.84,4.56,11.84,11.47,0,2.5-.44,4.93-1.91,11.1-2.28,9.26-3.16,13.9-3.16,15.74,0,1.32.66,2.13,1.76,2.13s2.65-1.25,4.04-3.31c1.84-2.65,3.53-5.66,4.41-7.87,1.69,4.63,2.94,7.06,6.18,11.84-5.66,9.27-10.44,12.79-17.5,12.79s-11.54-4.63-11.54-11.84c0-4.12.74-8.53,3.24-19.56.88-3.9,1.32-6.4,1.32-7.57,0-1.32-.81-2.06-2.13-2.06-1.76,0-4.34,1.1-6.99,3.01-4.93,3.46-9.56,7.57-12.72,11.32-.07,3.46-.07,5.59-.07,7.72,0,10.44.22,17.94.59,20.81l-13.31.07c.44-2.65.66-6.62.66-11.25v-7.72c-5.22,6.25-6.4,7.72-7.28,9.19l-5.66-12.28Z"/>
        <path class="cls-7" d="M1595.75,121.11c3.09.37,5.81.51,10.59.51,6.54,0,14.71-.29,22.13-.88,3.24-.22,4.19-.44,5.59-1.03l6.03,8.9q-1.91,1.1-11.84,9.63c-3.9,3.31-5.22,4.41-10.15,8.01,4.12-1.03,6.25-1.32,10.07-1.32,6.91,0,11.84,1.62,15.74,5,3.53,3.16,5.37,7.43,5.37,12.72,0,7.43-3.46,13.31-10.15,17.28-5.07,2.94-12.13,4.63-19.49,4.63-12.43,0-20-4.93-20-13.09,0-6.84,6.1-11.76,14.63-11.76,5.29,0,10,2.06,13.16,5.66,1.47,1.62,2.28,3.09,3.38,5.81,3.97-1.76,5.81-4.27,5.81-8.02,0-5.15-5-8.31-13.16-8.31s-16.03,2.43-22.65,6.77c-2.28,1.47-4.63,3.31-7.06,5.51l-6.84-11.18c6.76-3.16,22.28-15.22,31.4-24.27-3.9.44-6.84.59-17.21,1.1-1.99.07-3.38.22-4.85.37l-.52-12.06ZM1613.99,169.05c-1.69,0-2.87.96-2.87,2.43,0,1.99,2.35,3.24,6.32,3.24.88,0,1.03,0,2.43-.22-.96-3.53-3.01-5.44-5.88-5.44Z"/>
      </g>
      <rect class="cls-1" x="570.46" y="210.85" width="630" height="20" rx="10" ry="10"/>
      <g>
        <path class="cls-8" d="M512.06,199.65l-9.25-11.81c-4.28,4.19-9.19,7.78-14.56,10.56l9.69,12.34c3.06,3.91,8.69,4.59,12.59,1.53,3.87-3.07,4.6-8.66,1.53-12.62Z"/>
        <path class="cls-8" d="M416.5,187.84l-9.25,11.81c-3.06,3.91-2.38,9.56,1.53,12.62s9.53,2.37,12.59-1.53l9.66-12.34c-5.37-2.81-10.25-6.37-14.53-10.56Z"/>
        <path class="cls-10" d="M525.22,78.03c-11.78-11.78-30.87-11.78-42.66,0-1.81,1.81-2.34,4.37-1.84,7.37,17.22,6.25,30.87,19.91,37.09,37.12,3,.47,5.59-.06,7.41-1.88,11.78-11.75,11.78-30.84,0-42.62Z"/>
        <path class="cls-10" d="M436.72,78.03c-11.78-11.78-30.87-11.78-42.62,0-11.78,11.78-11.78,30.87,0,42.62,1.84,1.84,4.41,2.34,7.41,1.84,6.25-17.19,19.91-30.84,37.09-37.06.47-3-.06-5.59-1.88-7.41Z"/>
        <circle class="cls-12" cx="459.66" cy="143.59" r="61.84"/>
        <path class="cls-5" d="M459.66,96.94c-25.77,0-46.66,20.89-46.66,46.66s20.89,46.66,46.66,46.66,46.66-20.89,46.66-46.66-20.89-46.66-46.66-46.66Z"/>
        <g>
          <path class="cls-6" d="M459.65,104.37c-1.73,0-3.13,1.4-3.13,3.12v7.28c0,1.73,1.4,3.12,3.13,3.12s3.12-1.4,3.12-3.12v-7.28c0-1.73-1.4-3.12-3.12-3.12Z"/>
          <path class="cls-6" d="M459.65,169.28c-1.73,0-3.13,1.4-3.13,3.12v7.28c0,1.73,1.4,3.12,3.13,3.12s3.12-1.4,3.12-3.12v-7.28c0-1.73-1.4-3.12-3.12-3.12Z"/>
          <path class="cls-6" d="M495.75,140.47h-7.28c-1.73,0-3.12,1.4-3.12,3.12s1.4,3.12,3.12,3.12h7.28c1.73,0,3.13-1.4,3.13-3.12s-1.4-3.12-3.13-3.12Z"/>
          <path class="cls-6" d="M430.85,140.47h-7.28c-1.73,0-3.12,1.4-3.12,3.12s1.4,3.12,3.12,3.12h7.28c1.73,0,3.13-1.4,3.13-3.12s-1.4-3.12-3.13-3.12Z"/>
        </g>
        <path class="cls-10" d="M453.52,146.72h-7.98c-1.73,0-3.12-1.4-3.12-3.12s1.4-3.12,3.12-3.12h7.98c1.73,0,3.12,1.4,3.12,3.12s-1.4,3.12-3.12,3.12Z"/>
        <path class="cls-10" d="M459.65,140.58c-1.73,0-3.12-1.4-3.12-3.12v-12.69c0-1.73,1.4-3.12,3.12-3.12s3.12,1.4,3.12,3.12v12.69c0,1.73-1.4,3.12-3.12,3.12Z"/>
        <path class="cls-8" d="M459.66,137.46c-3.39,0-6.14,2.75-6.14,6.14s2.75,6.14,6.14,6.14,6.14-2.75,6.14-6.14-2.75-6.14-6.14-6.14Z"/>
      </g>
      <path class="cls-2" d="M324.62,194.69c-29.6,5-32.48,9.05-36.04,50.69-3.55-41.64-6.44-45.69-36.04-50.69,29.6-5,32.48-9.05,36.04-50.69,3.55,41.64,6.44,45.69,36.04,50.69Z"/>
      <path class="cls-1" d="M1224.62,50.69c-29.6,5-32.48,9.05-36.04,50.69-3.55-41.64-6.44-45.69-36.04-50.69,29.6-5,32.48-9.05,36.04-50.69,3.55,41.64,6.44,45.69,36.04,50.69Z"/>
      <g>
        <g>
          <path class="cls-11" d="M159.52,375.9c-6.57.17-10.11.34-14.83.84v-20.73c5.06.67,9.61.84,19.55.84h117.31c9.78,0,14.16-.17,19.21-.84v20.73c-5.56-.67-9.94-.84-19.72-.84h-56.46v55.79c6.4-2.53,9.44-3.88,14.66-6.91-4.55-5.06-6.74-8.26-11.8-16.52l17.36-7.08h-3.03c-6.24,0-9.61.17-13.48.67v-21.57c4.04.51,7.25.67,14.16.67h29.16c5.39,0,9.61-.17,12.47-.67l11.97,12.98q-1.01,1.52-4.04,7.58c-4.72,8.76-10.11,16.35-16.69,23.77,8.43,3.54,14.83,5.39,27.47,7.58-5.06,8.26-7.75,13.82-10.96,23.93-16.18-5.39-25.11-9.44-34.38-15.51-8.09,5.9-13.99,9.27-25.45,14.66-2.53-6.57-3.88-9.1-7.42-14.83,0,6.57.34,10.96.84,15.51h-25.79c.51-3.88.67-7.25.84-15.67-13.99,2.7-18.37,3.37-44.5,7.08-2.36.34-4.21.67-7.25,1.52l-5.06-24.61c1.52.17,2.36.17,3.37.17,1.85,0,4.72-.17,12.47-.67v-47.87ZM284.58,336.96c0,7.42.17,11.46.67,15.51-1.69,0-6.24-.17-13.82-.34h-93.88c-7.75,0-11.8.17-16.69.51.51-4.38.67-8.43.67-15.67v-20.06c0-7.25-.17-11.46-.67-15.84,5.56.51,9.61.67,17.7.67h88.99c8.09,0,12.14-.17,17.7-.67-.5,4.21-.67,8.09-.67,15.84v20.06ZM183.29,381.29h17.19v-5.39h-17.19v5.39ZM183.29,400.84h17.19v-5.9h-17.19v5.9ZM183.29,421.74c3.2-.34,8.93-1.01,17.19-2.02v-5.22h-17.19v7.25ZM186.15,321.63h73.49v-5.06h-73.49v5.06ZM186.15,338.48h73.49v-4.89h-73.49v4.89ZM247.84,401.18c3.54,5.56,4.89,7.42,8.6,11.12,4.04-3.88,6.07-6.24,9.27-11.12h-17.87Z"/>
          <path class="cls-11" d="M372.06,402.36c13.48-5.39,22.25-10.45,31.86-18.71h-9.1c-8.09,0-11.63.17-16.85.67.51-5.23.67-8.76.67-15v-18.2c0-6.57-.17-9.94-.67-15.17,5.06.51,8.93.67,17.02.67h20.73v-6.07h-25.11c-6.4,0-10.28.17-14.16.51l-17.36,17.53c-9.44-12.47-17.36-21.07-30.68-33.04l19.05-18.37c11.12,9.61,18.88,17.36,26.8,26.46v-16.52c5.9.84,11.12,1.01,21.07,1.01h20.39v-2.19c0-3.2-.34-6.57-.67-8.93h25.79c-.51,2.7-.67,4.72-.67,7.58v3.54h24.1c10.45,0,14.66-.17,20.9-1.01v24.1c-5.73-.51-8.26-.67-16.01-.67h-28.99v6.07h23.77c7.58,0,11.46-.17,16.35-.67-.51,5.06-.67,8.26-.67,15v18.2c0,6.74.17,10.11.67,15.17-4.55-.51-8.26-.67-16.69-.67h-10.11c9.78,8.6,19.55,13.65,35.73,18.2-5.56,8.6-7.92,13.48-11.12,23.77-16.18-6.57-26.29-13.32-38.26-25.11.34,2.53.34,4.72.34,8.6v7.08c0,4.21.17,6.74.67,9.44h-25.79c.51-2.87.67-5.56.67-9.61v-7.25c0-3.88,0-4.21.17-8.09-8.09,9.61-16.18,15.84-30.68,23.77-4.55-8.76-7.75-13.48-13.15-19.72v11.8c3.71,4.21,5.56,5.9,8.6,7.75,5.73,3.37,13.15,4.72,27.3,4.72,39.1,0,63.71-1.01,82.25-3.54-3.71,11.12-4.72,15.67-6.24,27.47-15,.51-37.25.84-56.8.84-45.34,0-53.94-2.02-66.75-16.01-6.41,5.9-11.12,9.44-20.73,15.84-.84.51-1.52,1.01-2.87,1.85l-10.96-27.14c4.89-1.85,13.65-6.91,21.24-12.64v-32.02h-7.08c-3.37,0-6.24.17-10.45.84v-25.45c5.06.67,7.58.84,13.99.84h16.18c5.06,0,8.76-.17,12.98-.67-.5,5.23-.67,9.1-.67,19.05v24.1ZM402.57,355.67v8.93h13.15v-8.93h-13.15ZM440.15,364.61h14.5v-8.93h-14.5v8.93Z"/>
          <path class="cls-7" d="M569.43,330.9c.51-6.57.84-16.35.84-21.57,0-3.54,0-4.89-.51-8.43l31.69.84c-.84,3.88-.84,4.38-1.85,20.39q-.17,4.55-.5,8.6h36.74c5.56,0,7.58-.34,11.29-1.85l13.15,11.46c-1.85,3.37-2.19,4.72-2.36,12.47-1.18,36.07-3.71,64.22-7.08,75.34-4.89,15.67-12.98,21.07-31.69,21.07-6.57,0-9.1-.17-22.08-1.35-.67-13.48-1.85-19.05-5.73-29.67,8.43,2.19,16.69,3.37,21.91,3.37,8.09,0,10.11-2.7,12.3-17.36,1.69-11.29,3.2-32.53,3.2-47.03h-32.19q-1.35,11.12-2.53,16.85c-7.42,34.05-23.43,55.96-57.64,78.54-7.58-11.97-12.64-17.7-21.91-25.62,22.42-11.8,35.39-23.77,43.82-40.79,4.21-8.6,6.07-14.66,8.43-28.82h-21.07c-11.29,0-14.83.17-22.75,1.01l-.17-28.82c8.43,1.18,11.46,1.35,23.43,1.35h23.26Z"/>
          <path class="cls-7" d="M697.87,360.06c7.92,1.18,17.02,1.52,34.55,1.52h80.57c16.85,0,23.26-.34,34.55-1.52v32.53c-8.09-.84-15.51-1.01-34.72-1.01h-80.23c-18.88,0-24.44.17-34.72,1.01v-32.53Z"/>
          <path class="cls-7" d="M899.12,450.57c.67-7.08.84-11.97,1.01-25.79v-98.09c-.17-14.5-.17-15.34-1.18-24.44h32.53c-.67,4.38-.67,7.08-.84,24.61v23.09c26.63,8.6,53.09,20.56,76.69,35.06l-16.01,28.65c-13.99-9.94-33.54-20.73-53.09-29.33-5.06-2.02-5.56-2.19-6.07-2.53-.5-.17-.84-.34-1.52-.84v43.82c0,12.47.34,21.41,1.01,25.79h-32.53ZM975.3,311.68c6.57,7.42,11.97,15.17,16.69,24.1l-16.01,7.75c-5.56-10.62-9.94-16.85-16.69-24.61l16.01-7.25ZM997.72,301.57c6.24,6.74,10.96,13.15,16.86,23.43l-15.51,7.58c-5.9-10.62-10.62-17.36-16.52-24.1l15.17-6.91Z"/>
          <path class="cls-7" d="M1085.37,435.4v11.63h-30.68c1.01-9.27,1.35-15,1.35-27.47v-86.63c0-7.25-.17-12.47-.67-19.38,5.9.51,9.27.67,20.39.67h90.85c10.45,0,12.98,0,20.9-.67-.34,5.9-.51,11.97-.51,19.89v85.45c0,12.98.34,21.07,1.18,27.81h-30.51v-11.29h-72.31ZM1157.67,341.18h-72.31v67.25h72.31v-67.25Z"/>
          <path class="cls-7" d="M1229.81,360.06c7.92,1.18,17.02,1.52,34.55,1.52h80.57c16.85,0,23.26-.34,34.55-1.52v32.53c-8.09-.84-15.51-1.01-34.72-1.01h-80.23c-18.88,0-24.44.17-34.72,1.01v-32.53Z"/>
          <path class="cls-7" d="M1429.71,310.16c21.24,12.47,32.19,20.23,46.35,33.04l-19.89,26.29c-14.66-15.34-28.99-26.46-45.85-35.56l19.38-23.77ZM1412.02,414.83c17.19-1.35,34.89-5.56,50.73-12.14,21.24-8.76,36.41-21.41,49.38-41.63,7.08-10.79,11.63-20.06,16.52-33.04,8.26,9.94,12.14,13.32,24.78,22.59-15.34,33.2-31.35,53.09-54.95,68.26-18.2,11.8-34.22,18.04-65.57,25.28-6.57,1.52-7.58,1.69-12.14,3.03l-8.76-32.36Z"/>
          <path class="cls-7" d="M1770.35,417.87c5.22,7.58,9.61,10.28,18.04,11.46-4.72-5.73-5.56-6.74-13.15-13.65,10.11-1.85,15.67-3.37,23.77-6.24h-12.98c-6.07,0-8.6.17-11.97.67v-19.55c3.71.5,5.39.67,11.63.67h8.6v-7.42h-1.52c-9.27,0-11.29.17-15.84.67v-19.05c4.38.51,6.24.51,15.84.51h1.52v-6.07c-9.61,0-13.15-.34-15.67-1.35-4.04-1.69-5.73-4.72-5.73-10.11v-17.87l-16.52,16.52c-9.44-12.64-15.51-19.21-29.16-30.84l18.88-18.37c11.46,9.44,19.21,17.02,26.8,25.79,4.21.34,5.22.34,12.3.34h15.51v-4.89h-16.01c-7.58,0-9.95,0-14.16.51v-18.88c4.38.34,9.1.51,14.5.51h23.76c8.76,0,11.29,0,15-.34-.51,1.69-.51,3.03-.51,5.9l.17,3.37v18.04c0,4.89,0,7.58.34,9.78-4.04-.17-7.42-.34-11.29-.34h-18.2v3.71c0,2.53.51,2.87,5.23,2.87,3.03,0,5.06-.34,5.9-.84.5-.5,1.01-2.19,1.01-4.38v-1.01c7.42,2.7,12.64,4.05,19.55,4.89-1.18,10.11-2.36,12.47-7.58,15v8.09h17.87v-7.25c-5.06-1.68-7.25-5.06-7.25-10.45v-13.65q0-5.23-.51-10.96c4.21.34,5.56.34,12.81.34h15.34v-4.89h-14.33c-7.58,0-9.94,0-14.16.51v-18.88c4.38.34,9.1.51,14.5.51h23.09c8.76,0,11.29,0,15-.34-.34,2.02-.34,3.2-.34,5.73v21.57c0,5.06,0,7.58.34,9.78-4.04-.17-7.42-.34-11.29-.34h-17.87v3.88c0,2.19,1.18,2.87,5.73,2.87,2.87,0,5.39-.34,6.07-1.01q.51-.5,1.01-3.37v-2.02c6.24,2.19,12.64,3.54,21.07,4.55-.84,8.76-2.36,12.3-6.07,14.5-3.03,1.85-6.91,2.36-19.21,2.7v6.24h5.56c9.44,0,11.29,0,15.67-.51v19.05c-4.72-.51-6.57-.67-15.67-.67h-5.39v7.42h8.6c9.61,0,11.46,0,16.01-.51v19.21c-4.89-.51-6.74-.51-16.01-.51h-11.63c9.44,3.03,15.84,4.55,27.47,5.9-4.72,4.89-5.22,5.73-9.94,12.98,4.04-.34,6.57-.67,14.16-1.69-3.37,9.1-4.89,16.01-6.24,26.46-14.83.51-38.77.84-64.22.84s-34.55-.84-42.64-3.71c-6.74-2.36-11.63-5.73-17.53-12.3-7.25,6.57-10.28,8.93-22.42,17.7l-10.96-27.14c4.89-1.69,11.63-5.9,20.39-12.81v-31.86h-6.91c-3.71,0-6.07.17-10.45.84v-25.45c4.72.67,7.42.84,13.82.84h16.18c6.91,0,8.43,0,12.64-.51-.34,4.89-.34,6.57-.34,18.88v39.44ZM1825.98,417.03c-9.44,5.9-17.53,9.78-27.98,13.32,5.39.17,12.98.34,20.56.34,9.1,0,27.98-.51,37.08-1.01-8.26-2.7-14.83-5.9-25.28-12.64l10.79-7.58h-26.8l11.63,7.58ZM1818.39,391.24h17.87v-7.42h-17.87v7.42Z"/>
        </g>
        <g>
          <path class="cls-4" d="M1854.31,274.62h-39.1s-.01,0-.02,0c0,0-.01,0-.02,0h-39.1c-2.3,0-4.16,1.86-4.16,4.16s1.86,4.16,4.16,4.16h39.1s.01,0,.02,0c0,0,0,0,.02,0h39.1c2.3,0,4.16-1.86,4.16-4.16s-1.86-4.16-4.16-4.16ZM1889.26,201.9c-1.76-1.2-4.16-.88-5.53.76-11.48,13.69-26.98,22.22-39.99,22.15-1.55,0-3.07-.12-4.55-.35-4.39-.65-8.79-4.17-12.39-9.39-3.59-5.15-6.24-11.73-7.53-17.2-.18-.77-.57-1.45-1.1-1.98-.18-.19-.4-.38-.67-.55-.3-.2-.66-.38-1.1-.51-.41-.13-.82-.2-1.2-.18-.49,0-.97.09-1.43.26h-.01s-.02,0-.02.01c-.55.21-.97.49-1.23.72h0c-.08.07-.17.15-.25.23h0c-.17.17-.32.34-.46.54-.06.09-.12.17-.16.24-.23.37-.4.78-.51,1.23-1.28,5.47-3.94,12.05-7.53,17.2-3.6,5.22-7.99,8.74-12.39,9.39-1.48.23-3,.35-4.55.35-13.01.07-28.52-8.45-39.99-22.15-1.37-1.63-3.77-1.96-5.53-.76-1.77,1.21-2.33,3.56-1.31,5.43l32.6,59.77c.73,1.34,2.13,2.17,3.66,2.17h39s.09,0,.13,0h0s39.1,0,39.1,0c1.53,0,2.92-.83,3.65-2.17l32.6-59.77c1.02-1.87.46-4.23-1.31-5.43ZM1895,174.89c-5.61.01-10.38,4.4-10.41,10.15.02,5.75,4.79,10.14,10.41,10.15,5.62,0,10.38-4.4,10.41-10.15-.02-5.75-4.79-10.14-10.41-10.15ZM1814.87,184.78c5.61-.01,10.38-4.4,10.41-10.15-.03-5.74-4.79-10.14-10.41-10.15-5.61,0-10.38,4.4-10.41,10.15.02,5.75,4.79,10.14,10.41,10.15ZM1749.3,185.04c-.02-5.75-4.79-10.14-10.4-10.15-5.62.01-10.38,4.4-10.41,10.15.03,5.75,4.79,10.14,10.41,10.15,5.61-.01,10.38-4.4,10.4-10.15Z"/>
          <path class="cls-3" d="M1826.79,215.06c-.14-.2-.27-.42-.4-.62l-37.93,54.83h18.24c9.39-13.8,20.14-29.55,30.83-45.2-3.83-1.18-7.58-4.45-10.72-9ZM1778.99,282.94h18.4c1.8-2.66,3.69-5.44,5.66-8.33h-18.3l-5.76,8.33Z"/>
          <path class="cls-3" d="M1854.31,274.62h-34.94l-5.51,8.33h1.31s.01,0,.02,0c0,0,0,0,.02,0h39.1c2.3,0,4.16-1.86,4.16-4.16s-1.86-4.16-4.16-4.16ZM1895,174.89c-5.61.01-10.38,4.4-10.41,10.15.02,5.75,4.79,10.14,10.41,10.15,5.62,0,10.38-4.4,10.41-10.15-.02-5.75-4.79-10.14-10.41-10.15ZM1889.26,201.9c-1.76-1.2-4.16-.88-5.53.76-8.78,10.48-19.92,17.92-30.5,20.8l-30.32,45.82h31.4c1.53,0,2.92-.83,3.65-2.17l32.6-59.77c1.02-1.87.46-4.23-1.31-5.43Z"/>
        </g>
      </g>
      <path class="cls-2" d="M587.56,223.64c-1.55,4.72-7.27,9.19-11.99,7.64-4.72-1.55-6.66-8.54-5.11-13.26s7.58-10.14,12.3-8.59c4.72,1.55,6.35,9.49,4.8,14.21Z"/>
      <rect class="cls-9" x="47.16" y="282.85" width="2" height="208" transform="translate(-170.58 64.16) rotate(-27.04)"/>
      <rect class="cls-13" x="1887.57" y="385.85" width="208" height="2" transform="translate(742.3 1985.38) rotate(-62.98)"/>
      <path class="cls-7" d="M1605.92,448.16c-15.82,0-19.86.18-26.37.7.7-8.61,1.58-13.89,3.69-20.74,4.57-14.59,13.01-27.95,25.31-39.38,6.68-6.15,13.36-11.25,31.29-23.38,15.12-10.2,18.81-14.77,18.81-22.85s-7.56-14.06-18.81-14.06c-8.44,0-14.41,2.81-18.28,8.79-2.46,3.87-3.52,7.38-4.39,14.77l-36.91-3.87c2.64-15.29,5.8-23.03,12.83-31.29,10.02-11.78,26.02-18.11,46.58-18.11,23.73,0,41.84,7.91,50.62,22.15,3.87,6.15,5.8,13.01,5.8,20.57,0,12.83-5.27,23.73-16.17,32.7-5.8,5.1-7.56,6.33-25.49,18.81-15.29,10.55-21.8,16.7-25.84,24.43h40.96c13.18,0,21.27-.35,28.12-1.23v33.22c-10.2-.88-17.58-1.23-30.06-1.23h-61.7Z"/>
      <path class="cls-11" d="M878,180.68c-10.69,0-13.43.12-17.82.49.47-5.97,1.07-9.62,2.5-14.37,3.09-10.11,8.79-19.36,17.11-27.28,4.52-4.26,9.03-7.79,21.15-16.19,10.22-7.06,12.71-10.23,12.71-15.83s-5.11-9.74-12.71-9.74c-5.7,0-9.74,1.95-12.36,6.09-1.66,2.68-2.38,5.11-2.97,10.23l-24.95-2.68c1.78-10.59,3.92-15.95,8.67-21.67,6.77-8.16,17.59-12.54,31.49-12.54,16.04,0,28.28,5.48,34.22,15.34,2.61,4.26,3.92,9.01,3.92,14.25,0,8.89-3.56,16.44-10.93,22.65-3.92,3.53-5.11,4.38-17.23,13.03-10.34,7.31-14.73,11.57-17.47,16.93h27.69c8.91,0,14.38-.24,19.01-.85v23.01c-6.89-.61-11.88-.85-20.32-.85h-41.71Z"/>
    </g>
  </g>
</svg>