<svg width="9" height="15" viewBox="0 0 9 15" fill="none" xmlns="http://www.w3.org/2000/svg">
<g clip-path="url(#clip0_275_7881)">
<path d="M0.992982 1.13593C0.805511 1.32345 0.700195 1.57776 0.700195 1.84293C0.700195 2.10809 0.805511 2.3624 0.992982 2.54993L5.94298 7.49993L0.992982 12.4499C0.810824 12.6385 0.710029 12.8911 0.712307 13.1533C0.714586 13.4155 0.819755 13.6663 1.00516 13.8517C1.19057 14.0372 1.44138 14.1423 1.70358 14.1446C1.96578 14.1469 2.21838 14.0461 2.40698 13.8639L8.06398 8.20693C8.25145 8.0194 8.35677 7.76509 8.35677 7.49993C8.35677 7.23476 8.25145 6.98045 8.06398 6.79293L2.40698 1.13593C2.21945 0.948455 1.96515 0.84314 1.69998 0.84314C1.43482 0.84314 1.18051 0.948455 0.992982 1.13593Z" fill="#474D41"/>
</g>
<defs>
<clipPath id="clip0_275_7881">
<rect width="8" height="13.6" fill="white" transform="translate(0.5 0.699951)"/>
</clipPath>
</defs>
</svg>
