<svg width="16" height="13" viewBox="0 0 16 13" fill="none" xmlns="http://www.w3.org/2000/svg">
<path d="M8.76768 0.267679C8.59628 0.439125 8.5 0.671625 8.5 0.91405C8.5 1.15648 8.59628 1.38898 8.76768 1.56042L13.2932 6.08594L8.76768 10.6115C8.60114 10.7839 8.50899 11.0148 8.51107 11.2545C8.51316 11.4942 8.60931 11.7236 8.77882 11.8931C8.94832 12.0626 9.17763 12.1587 9.41734 12.1608C9.65705 12.1629 9.888 12.0707 10.0604 11.9042L15.2323 6.73231C15.4037 6.56086 15.5 6.32836 15.5 6.08594C15.5 5.84351 15.4037 5.61101 15.2323 5.43957L10.0604 0.267679C9.88898 0.0962842 9.65648 0 9.41405 0C9.17163 0 8.93913 0.0962842 8.76768 0.267679Z" fill="#FFEE53"/>
<path d="M0.267679 0.267679C0.0962844 0.439125 0 0.671625 0 0.91405C0 1.15648 0.0962844 1.38898 0.267679 1.56042L4.7932 6.08594L0.267679 10.6115C0.101142 10.7839 0.00899045 11.0148 0.0110735 11.2545C0.0131565 11.4942 0.109307 11.7236 0.278816 11.8931C0.448325 12.0626 0.677629 12.1587 0.917342 12.1608C1.15705 12.1629 1.388 12.0707 1.56042 11.9042L6.73232 6.73231C6.90372 6.56086 7 6.32836 7 6.08594C7 5.84351 6.90372 5.61101 6.73232 5.43957L1.56042 0.267679C1.38898 0.0962842 1.15648 0 0.914052 0C0.671626 0 0.439126 0.0962842 0.267679 0.267679Z" fill="white"/>
</svg>
