<svg width="7" height="12" viewBox="0 0 7 12" fill="none" xmlns="http://www.w3.org/2000/svg">
<path d="M0.281991 0.834664C0.135081 0.981618 0.0525513 1.1809 0.0525513 1.3887C0.0525513 1.59649 0.135081 1.79578 0.281991 1.94273L4.16101 5.82174L0.281991 9.70076C0.139244 9.84855 0.0602574 10.0465 0.0620428 10.252C0.0638283 10.4574 0.146243 10.654 0.291536 10.7993C0.43683 10.9446 0.633376 11.027 0.838844 11.0288C1.04431 11.0306 1.24226 10.9516 1.39006 10.8088L5.82311 6.37577C5.97002 6.22882 6.05255 6.02954 6.05255 5.82174C6.05255 5.61395 5.97002 5.41466 5.82311 5.26771L1.39006 0.834664C1.2431 0.687754 1.04382 0.605225 0.836024 0.605225C0.628231 0.605225 0.428945 0.687754 0.281991 0.834664Z" fill="#FFEE53"/>
</svg>
