<?xml version="1.0" encoding="UTF-8"?><svg id="Layer_2" xmlns="http://www.w3.org/2000/svg" viewBox="0 0 790.67 291.23"><defs><style>.cls-1{fill:#333;}.cls-2{fill:#ba0b11;}.cls-3{fill:#8a080d;}</style></defs><g id="Layer_1-2"><g><path class="cls-2" d="M786.21,200.52H197.66c-2.46,0-4.46-2-4.46-4.46s2-4.46,4.46-4.46H786.21c2.46,0,4.46,2,4.46,4.46s-2,4.46-4.46,4.46Z"/><path class="cls-3" d="M376.01,67.87H197.66c-2.46,0-4.46-2-4.46-4.46s2-4.46,4.46-4.46h178.35c2.46,0,4.46,2,4.46,4.46s-2,4.46-4.46,4.46Z"/><path class="cls-3" d="M786.21,67.87H491.94c-2.46,0-4.46-2-4.46-4.46s2-4.46,4.46-4.46h294.27c2.46,0,4.46,2,4.46,4.46s-2,4.46-4.46,4.46Z"/><path class="cls-2" d="M238.08,168.87v-8.68c-5.54,6.14-13.17,10.18-24.25,10.18-15.12,0-27.55-8.68-27.55-24.55v-.3c0-17.52,13.32-25.6,32.34-25.6,8.08,0,13.92,1.35,19.61,3.29v-1.35c0-9.43-5.84-14.67-17.22-14.67-8.68,0-14.82,1.65-22.16,4.34l-5.69-17.37c8.83-3.89,17.52-6.44,31.14-6.44,24.85,0,35.78,12.88,35.78,34.58v46.56h-22.01Zm.45-32.34c-3.89-1.8-8.98-2.99-14.52-2.99-9.73,0-15.72,3.89-15.72,11.08v.3c0,6.14,5.09,9.73,12.43,9.73,10.63,0,17.82-5.84,17.82-14.07v-4.04Z"/><path class="cls-2" d="M327.34,111.84c-14.92,0-24.07,9.01-24.07,27.91v29.24h-22.45V89.83h22.45v15.95c4.58-10.93,11.96-18.02,25.25-17.43v23.48h-1.18Z"/><path class="cls-2" d="M398.22,168.98v-11.37c-5.46,7.38-13,12.85-24.66,12.85-18.46,0-36.03-14.47-36.03-40.9v-.3c0-26.43,17.28-40.9,36.03-40.9,11.96,0,19.34,5.46,24.66,11.81v-27.84h22.45v96.65h-22.45Zm.3-39.72c0-13.14-8.71-21.85-19.2-21.85s-19.34,8.56-19.34,21.85v.3c0,13.14,8.86,21.86,19.34,21.86s19.2-8.71,19.2-21.86v-.3Z"/><path class="cls-2" d="M569.53,170.75c-24.51,0-42.68-18.16-42.68-40.9v-.29c0-22.74,18.31-41.2,42.97-41.2s42.68,18.16,42.68,40.9v.3c0,22.74-18.31,41.2-42.97,41.2Zm20.82-41.2c0-11.67-8.42-21.86-20.82-21.86s-20.53,9.89-20.53,21.56v.3c0,11.67,8.42,21.86,20.82,21.86s20.53-9.89,20.53-21.56v-.29Z"/><path class="cls-2" d="M675.12,168.98v-8.56c-5.46,6.05-12.99,10.04-23.92,10.04-14.92,0-27.17-8.56-27.17-24.22v-.3c0-17.28,13.14-25.25,31.9-25.25,7.97,0,13.73,1.33,19.34,3.25v-1.33c0-9.3-5.76-14.47-16.98-14.47-8.56,0-14.62,1.62-21.85,4.28l-5.61-17.13c8.71-3.84,17.28-6.35,30.72-6.35,24.51,0,35.29,12.7,35.29,34.11v45.92h-21.71Zm.44-31.9c-3.84-1.77-8.86-2.95-14.32-2.95-9.6,0-15.51,3.84-15.51,10.93v.3c0,6.06,5.02,9.6,12.26,9.6,10.48,0,17.57-5.76,17.57-13.88v-3.99Z"/><path class="cls-2" d="M766.24,168.98v-44.15c0-10.63-5.02-16.1-13.58-16.1s-14.03,5.46-14.03,16.1v44.15h-22.45V89.83h22.45v11.22c5.17-6.65,11.81-12.7,23.18-12.7,16.98,0,26.88,11.22,26.88,29.39v51.24h-22.45Z"/><g><path class="cls-1" d="M335.57,289.98l-35.23-46.24v46.24h-15.8v-72.74h14.76l34.08,44.79v-44.79h15.79v72.74h-13.61Z"/><path class="cls-1" d="M425.32,267.64h-38.76c1.56,7.17,6.55,10.91,13.61,10.91,5.3,0,9.14-1.66,13.51-5.72l9.04,8c-5.2,6.44-12.68,10.39-22.76,10.39-16.73,0-29.1-11.74-29.1-28.78v-.21c0-15.9,11.33-28.99,27.54-28.99,18.6,0,27.12,14.44,27.12,30.24v.21c0,1.56-.1,2.49-.21,3.95Zm-26.91-21.72c-6.55,0-10.81,4.68-12.05,11.85h23.8c-.94-7.07-5.09-11.85-11.74-11.85Z"/><path class="cls-1" d="M510.99,290.39h-14.24l-10.7-34.19-10.91,34.19h-14.13l-17.15-56.11h16l8.94,33.77,10.5-33.98h13.61l10.6,34.08,9.14-33.88h15.69l-17.35,56.11Z"/><path class="cls-1" d="M567.92,291.02c-7.79,0-16.52-2.6-23.9-8.42l6.75-10.39c6.03,4.36,12.37,6.65,17.56,6.65,4.57,0,6.65-1.66,6.65-4.16v-.21c0-3.43-5.4-4.57-11.53-6.44-7.79-2.29-16.63-5.92-16.63-16.73v-.21c0-11.33,9.14-17.66,20.37-17.66,7.07,0,14.76,2.39,20.78,6.44l-6.03,10.91c-5.51-3.22-11.02-5.2-15.07-5.2s-5.82,1.66-5.82,3.84v.21c0,3.12,5.3,4.57,11.33,6.65,7.79,2.6,16.83,6.34,16.83,16.52v.21c0,12.37-9.25,17.98-21.3,17.98Z"/></g><rect class="cls-2" x="443.12" y="72.3" width="22.74" height="49.07"/><polygon class="cls-2" points="465.86 148.31 465.86 121.38 443.12 121.38 443.12 168.98 517.4 168.98 517.4 148.31 465.86 148.31"/><path class="cls-3" d="M129.18,40c24.04,0,46.9,9.79,63.55,26.67h49.52c-2.31-4.16-4.84-8.21-7.62-12.13C210.42,20.39,171,0,129.18,0,58.32,0,.63,57.35,.03,128.07H40.03c.6-48.66,40.35-88.06,89.15-88.06Z"/><path class="cls-2" d="M129.18,218.36c-49.17,0-89.18-40-89.18-89.18,0-.37,.02-.74,.03-1.11H.03c0,.37-.03,.74-.03,1.11,0,71.23,57.95,129.18,129.18,129.18,35.41,0,69.66-14.77,93.97-40.53,7.52-7.97,13.89-16.76,19.09-26.14h-49.49c-16.89,17.2-39.38,26.67-63.56,26.67Z"/><path class="cls-2" d="M125.09,76.4c11.82,0,23.07,4.81,31.25,13.12h24.36c-1.13-2.04-2.38-4.04-3.75-5.97-11.91-16.8-31.3-26.83-51.86-26.83-34.85,0-63.22,28.21-63.52,62.99h19.68c.3-23.93,19.85-43.31,43.85-43.31Z"/><path class="cls-3" d="M126.09,181.96c-24.18,0-43.86-19.68-43.86-43.86,0-.18,.01-.36,.01-.55h-19.68c0,.18-.01,.36-.01,.55,0,35.03,28.5,63.54,63.54,63.54,17.41,0,34.26-7.27,46.22-19.94,3.7-3.92,6.83-8.24,9.39-12.86h-24.34c-8.31,8.46-19.37,13.12-31.26,13.12Z"/></g></g></svg>