<?xml version="1.0" encoding="UTF-8"?><svg id="Layer_2" xmlns="http://www.w3.org/2000/svg" viewBox="0 0 788.68 279.23"><defs><style>.cls-1{fill:#ea3b3b;}.cls-2{fill:#333;}</style></defs><g id="Layer_1-2"><path class="cls-2" d="M376.01,67.87H197.66c-2.46,0-4.46-2-4.46-4.46s2-4.46,4.46-4.46h178.35c2.46,0,4.46,2,4.46,4.46s-2,4.46-4.46,4.46Z"/><path class="cls-2" d="M696.21,193.87H401.94c-2.46,0-4.46-2-4.46-4.46s2-4.46,4.46-4.46h294.27c2.46,0,4.46,2,4.46,4.46s-2,4.46-4.46,4.46Z"/><path class="cls-2" d="M238.08,168.87v-8.68c-5.54,6.14-13.17,10.18-24.25,10.18-15.12,0-27.55-8.68-27.55-24.55v-.3c0-17.52,13.32-25.6,32.34-25.6,8.08,0,13.92,1.35,19.61,3.29v-1.35c0-9.43-5.84-14.67-17.22-14.67-8.68,0-14.82,1.65-22.16,4.34l-5.69-17.37c8.83-3.89,17.52-6.44,31.14-6.44,24.85,0,35.78,12.88,35.78,34.58v46.56h-22.01Zm.45-32.34c-3.89-1.8-8.98-2.99-14.52-2.99-9.73,0-15.72,3.89-15.72,11.08v.3c0,6.14,5.09,9.73,12.43,9.73,10.63,0,17.82-5.84,17.82-14.07v-4.04Z"/><path class="cls-2" d="M327.34,111.84c-14.92,0-24.07,9.01-24.07,27.91v29.24h-22.45V89.83h22.45v15.95c4.58-10.93,11.96-18.02,25.25-17.43v23.48h-1.18Z"/><path class="cls-2" d="M398.22,168.98v-11.37c-5.46,7.38-13,12.85-24.66,12.85-18.46,0-36.03-14.47-36.03-40.9v-.3c0-26.43,17.28-40.9,36.03-40.9,11.96,0,19.34,5.46,24.66,11.81v-27.84h22.45v96.65h-22.45Zm.3-39.72c0-13.14-8.71-21.85-19.2-21.85s-19.34,8.56-19.34,21.85v.3c0,13.14,8.86,21.86,19.34,21.86s19.2-8.71,19.2-21.86v-.3Z"/><path class="cls-2" d="M569.53,170.75c-24.51,0-42.68-18.16-42.68-40.9v-.29c0-22.74,18.31-41.2,42.97-41.2s42.68,18.16,42.68,40.9v.3c0,22.74-18.31,41.2-42.97,41.2Zm20.82-41.2c0-11.67-8.42-21.86-20.82-21.86s-20.53,9.89-20.53,21.56v.3c0,11.67,8.42,21.86,20.82,21.86s20.53-9.89,20.53-21.56v-.29Z"/><path class="cls-2" d="M675.12,168.98v-8.56c-5.46,6.05-12.99,10.04-23.92,10.04-14.92,0-27.17-8.56-27.17-24.22v-.3c0-17.28,13.14-25.25,31.9-25.25,7.97,0,13.73,1.33,19.34,3.25v-1.33c0-9.3-5.76-14.47-16.98-14.47-8.56,0-14.62,1.62-21.85,4.28l-5.61-17.13c8.71-3.84,17.28-6.35,30.72-6.35,24.51,0,35.29,12.7,35.29,34.11v45.92h-21.71Zm.44-31.9c-3.84-1.77-8.86-2.95-14.32-2.95-9.6,0-15.51,3.84-15.51,10.93v.3c0,6.06,5.02,9.6,12.26,9.6,10.48,0,17.57-5.76,17.57-13.88v-3.99Z"/><path class="cls-2" d="M766.24,168.98v-44.15c0-10.63-5.02-16.1-13.58-16.1s-14.03,5.46-14.03,16.1v44.15h-22.45V89.83h22.45v11.22c5.17-6.65,11.81-12.7,23.18-12.7,16.98,0,26.88,11.22,26.88,29.39v51.24h-22.45Z"/><g><path class="cls-2" d="M346.39,277.62l-45.46-59.68v59.68h-20.39v-93.87h19.04l43.99,57.8v-57.8h20.38v93.87h-17.57Z"/><path class="cls-2" d="M462.22,248.78h-50.02c2.01,9.25,8.45,14.08,17.57,14.08,6.84,0,11.8-2.15,17.43-7.38l11.67,10.33c-6.71,8.31-16.36,13.41-29.37,13.41-21.59,0-37.55-15.15-37.55-37.15v-.27c0-20.52,14.62-37.42,35.54-37.42,24,0,35,18.64,35,39.02v.27c0,2.01-.13,3.22-.27,5.1Zm-34.73-28.03c-8.45,0-13.95,6.04-15.56,15.29h30.71c-1.21-9.12-6.57-15.29-15.15-15.29Z"/><path class="cls-2" d="M572.79,278.15h-18.37l-13.81-44.12-14.08,44.12h-18.24l-22.13-72.42h20.65l11.53,43.58,13.54-43.85h17.57l13.68,43.99,11.8-43.72h20.25l-22.39,72.42Z"/><path class="cls-2" d="M646.26,278.96c-10.06,0-21.32-3.35-30.84-10.86l8.72-13.41c7.78,5.63,15.96,8.58,22.66,8.58,5.9,0,8.58-2.15,8.58-5.36v-.27c0-4.43-6.97-5.9-14.89-8.31-10.06-2.95-21.46-7.65-21.46-21.59v-.27c0-14.62,11.8-22.8,26.28-22.8,9.12,0,19.04,3.08,26.82,8.32l-7.78,14.08c-7.11-4.16-14.22-6.71-19.45-6.71s-7.51,2.14-7.51,4.96v.27c0,4.02,6.84,5.9,14.62,8.58,10.06,3.35,21.73,8.18,21.73,21.32v.27c0,15.96-11.94,23.2-27.49,23.2Z"/></g><rect class="cls-2" x="443.12" y="72.3" width="22.74" height="49.07"/><polygon class="cls-2" points="465.86 148.31 465.86 121.38 443.12 121.38 443.12 168.98 517.4 168.98 517.4 148.31 465.86 148.31"/><path class="cls-2" d="M129.18,40c24.04,0,46.9,9.79,63.55,26.67h49.52c-2.31-4.16-4.84-8.21-7.62-12.13C210.42,20.39,171,0,129.18,0,58.32,0,.63,57.35,.03,128.07H40.03c.6-48.66,40.35-88.06,89.15-88.06Z"/><path class="cls-1" d="M129.18,218.36c-49.17,0-89.18-40-89.18-89.18,0-.37,.02-.74,.03-1.11H.03c0,.37-.03,.74-.03,1.11,0,71.23,57.95,129.18,129.18,129.18,35.41,0,69.66-14.77,93.97-40.53,7.52-7.97,13.89-16.76,19.09-26.14h-49.49c-16.89,17.2-39.38,26.67-63.56,26.67Z"/><path class="cls-1" d="M60.55,123.72l.02-2.02c.31-35.83,29.7-64.97,65.52-64.97,21.21,0,41.21,10.34,53.5,27.67,1.38,1.95,2.68,4.02,3.86,6.15l1.65,2.97h-28.59l-.59-.6c-7.84-7.96-18.72-12.52-29.83-12.52-22.79,0-41.56,18.54-41.85,41.34l-.02,1.98h-23.67Z"/><path class="cls-2" d="M127.09,200.63c-36.14,0-65.54-29.4-65.54-65.54,0-.12,.01-.57,.01-.57l.02-1.98h23.69l-.03,2.03v.52c-.01,23.08,18.76,41.86,41.85,41.86,11.31,0,21.91-4.45,29.84-12.52l.59-.6h28.57l-1.65,2.97c-2.67,4.82-5.93,9.28-9.68,13.26-12.33,13.07-29.71,20.56-47.67,20.56Z"/></g></svg>