<svg width="634" height="269" viewBox="0 0 634 269" fill="none" xmlns="http://www.w3.org/2000/svg">
<path d="M69.8076 115.405C76.2332 115.405 81.4421 110.199 81.4421 103.776C81.4421 97.3539 76.2332 92.1475 69.8076 92.1475H11.6346C5.20898 92.1475 0 97.3539 0 103.776C0 110.199 5.20898 115.405 11.6346 115.405H69.8076Z" fill="#0071BC"/>
<path d="M370.539 175.108H232.203C230.295 175.108 228.744 173.558 228.744 171.65C228.744 169.743 230.295 168.193 232.203 168.193H370.539C372.447 168.193 373.998 169.743 373.998 171.65C373.998 173.558 372.447 175.108 370.539 175.108Z" fill="#333333"/>
<path d="M206.925 130.918V124.189C202.628 128.949 196.71 132.081 188.116 132.081C176.388 132.081 166.747 125.352 166.747 113.049V112.816C166.747 99.2334 177.079 92.9693 191.831 92.9693C198.098 92.9693 202.628 94.0159 207.041 95.5199V94.4733C207.041 87.1626 202.512 83.1002 193.685 83.1002C186.952 83.1002 182.19 84.3794 176.497 86.4648L172.083 72.9986C178.932 69.9828 185.673 68.0059 196.237 68.0059C215.511 68.0059 223.989 77.9912 223.989 94.8144V130.911H206.917L206.925 130.918ZM207.274 105.846C204.257 104.451 200.309 103.528 196.012 103.528C188.465 103.528 183.819 106.544 183.819 112.118V112.351C183.819 117.111 187.767 119.894 193.46 119.894C201.705 119.894 207.282 115.367 207.282 108.986V105.854L207.274 105.846Z" fill="#333333"/>
<path d="M331.144 131.004V122.189C326.909 127.91 321.06 132.151 312.017 132.151C297.698 132.151 284.07 120.933 284.07 100.443V100.21C284.07 79.7201 297.473 68.502 312.017 68.502C321.293 68.502 327.017 72.735 331.144 77.6579V56.0746H348.557V131.004H331.144V131.004ZM331.376 100.21C331.376 90.0233 324.621 83.2708 316.484 83.2708C308.348 83.2708 301.483 89.907 301.483 100.21V100.443C301.483 110.63 308.355 117.39 316.484 117.39C324.613 117.39 331.376 110.637 331.376 100.443V100.21Z" fill="#333333"/>
<path d="M464.011 132.376C445 132.376 430.907 118.297 430.907 100.668V100.443C430.907 82.8134 445.109 68.502 464.236 68.502C483.363 68.502 497.34 82.5808 497.34 100.21V100.443C497.34 118.072 483.138 132.384 464.011 132.384V132.376ZM480.16 100.435C480.16 91.3877 473.629 83.4878 464.011 83.4878C454.393 83.4878 448.087 91.1552 448.087 100.202V100.435C448.087 109.482 454.618 117.382 464.236 117.382C473.854 117.382 480.16 109.715 480.16 100.668V100.443V100.435Z" fill="#333333"/>
<path d="M545.911 131.004V124.367C541.676 129.058 535.835 132.151 527.357 132.151C515.785 132.151 506.283 125.515 506.283 113.374V113.142C506.283 99.745 516.475 93.5662 531.026 93.5662C537.208 93.5662 541.676 94.5973 546.027 96.0858V95.0547C546.027 87.8448 541.559 83.8367 532.857 83.8367C526.217 83.8367 521.517 85.0926 515.909 87.1548L511.558 73.8746C518.313 70.8976 524.961 68.9517 535.385 68.9517C554.396 68.9517 562.757 78.7975 562.757 95.3958V130.996H545.918L545.911 131.004ZM546.252 106.273C543.273 104.901 539.38 103.986 535.145 103.986C527.699 103.986 523.115 106.963 523.115 112.459V112.692C523.115 117.39 527.008 120.134 532.624 120.134C540.753 120.134 546.252 115.669 546.252 109.374V106.28V106.273Z" fill="#333333"/>
<path d="M616.587 131.004V96.7758C616.587 88.5348 612.693 84.2941 606.054 84.2941C599.414 84.2941 595.171 88.527 595.171 96.7758V131.004H577.758V69.6417H595.171V78.3401C599.182 73.1846 604.332 68.4943 613.151 68.4943C626.321 68.4943 634 77.1927 634 91.2792V131.004H616.587V131.004Z" fill="#333333"/>
<path d="M443.363 196.156L416.93 161.479V196.156H405.078V141.601H416.146L441.719 175.193V141.601H453.571V196.156H443.356H443.363Z" fill="#333333"/>
<path d="M510.712 179.403H481.626C482.797 184.783 486.535 187.59 491.841 187.59C495.82 187.59 498.705 186.342 501.978 183.303L508.765 189.303C504.864 194.133 499.256 197.095 491.686 197.095C479.136 197.095 469.851 188.288 469.851 175.504V175.348C469.851 163.425 478.352 153.602 490.514 153.602C504.468 153.602 510.867 164.433 510.867 176.279V176.434C510.867 177.605 510.79 178.302 510.712 179.395V179.403ZM490.514 163.115C485.605 163.115 482.401 166.619 481.47 171.999H499.326C498.628 166.697 495.502 163.115 490.514 163.115Z" fill="#333333"/>
<path d="M574.997 196.467H564.317L556.289 170.829L548.098 196.467H537.495L524.627 154.385H536.634L543.343 179.713L551.216 154.23H561.431L569.381 179.791L576.246 154.385H588.02L574.997 196.467Z" fill="#333333"/>
<path d="M617.712 196.932C611.863 196.932 605.317 194.986 599.779 190.621L604.844 182.83C609.366 186.101 614.12 187.815 618.022 187.815C621.45 187.815 623.009 186.567 623.009 184.698V184.543C623.009 181.969 618.953 181.116 614.353 179.713C608.505 178 601.881 175.271 601.881 167.169V167.014C601.881 158.518 608.745 153.765 617.161 153.765C622.466 153.765 628.237 155.556 632.759 158.595L628.237 166.782C624.103 164.363 619.969 162.882 616.928 162.882C613.888 162.882 612.561 164.13 612.561 165.766V165.921C612.561 168.263 616.54 169.348 621.062 170.906C626.911 172.852 633.698 175.659 633.698 183.295V183.45C633.698 192.722 626.756 196.932 617.712 196.932V196.932Z" fill="#333333"/>
<path d="M383.608 56.0514H365.97V94.0934H383.608V56.0514Z" fill="#333333"/>
<path d="M383.608 114.979V94.1012H365.97V131.004H423.577V114.979H383.608Z" fill="#333333"/>
<path d="M122.466 31.0104C140.336 31.0104 157.377 37.98 170.129 50.0896C171.215 51.1207 172.673 51.6866 174.178 51.6866H199.44C204.226 51.6866 207.088 46.2831 204.327 42.3758C204.303 42.3447 204.28 42.3137 204.265 42.2827C185.471 15.8076 154.895 0 122.466 0C67.5039 0 22.7573 44.4612 22.2841 99.2877H53.3097C53.7751 61.5635 84.6068 31.0182 122.458 31.0182L122.466 31.0104Z" fill="#0071BC"/>
<path d="M122.466 169.286C84.3275 169.286 53.2942 138.276 53.2942 100.148C53.2942 99.8613 53.3097 99.5745 53.3175 99.2877H22.2841C22.2841 99.5745 22.2609 99.8613 22.2609 100.148C22.2609 155.37 67.2092 200.296 122.458 200.296C149.923 200.296 176.489 188.846 195.345 168.875C198.796 165.224 201.93 161.347 204.753 157.285C207.297 153.626 204.629 148.61 200.162 148.61H171.765C158.665 161.944 141.221 169.286 122.466 169.286Z" fill="#0071BC"/>
<path d="M69.2258 99.0163L69.2413 97.4503C69.4818 69.6727 92.2778 47.0816 120.061 47.0816C136.513 47.0816 152.025 55.0978 161.558 68.5331C162.628 70.0371 163.637 71.6419 164.56 73.3009L165.839 75.6034H143.664L143.206 75.1383C137.125 68.9672 128.694 65.432 120.069 65.432C102.392 65.432 87.8334 79.8054 87.6085 97.4813L87.593 99.0163H69.2336H69.2258Z" fill="#333333"/>
<path d="M120.061 151.664C92.0296 151.664 69.2258 128.872 69.2258 100.854C69.2258 100.761 69.2336 100.412 69.2336 100.412L69.2491 98.8768H87.624L87.6007 100.451V100.854C87.593 118.747 102.152 133.306 120.061 133.306C128.834 133.306 137.056 129.856 143.206 123.6L143.664 123.135H165.824L164.544 125.437C162.473 129.174 159.945 132.632 157.036 135.717C147.472 145.85 133.992 151.657 120.061 151.657V151.664Z" fill="#333333"/>
<path d="M277.865 86.3563C266.293 86.3563 259.195 93.3414 259.195 107.994V130.662H241.782V69.3006H259.195V81.666C262.748 73.1924 268.472 67.6958 278.78 68.1532V86.3563H277.865Z" fill="#333333"/>
<path d="M416.518 141.764H402.557C400.415 141.764 398.679 143.5 398.679 145.64C398.679 147.781 400.415 149.517 402.557 149.517H416.518C418.66 149.517 420.397 147.781 420.397 145.64C420.397 143.5 418.66 141.764 416.518 141.764Z" fill="#333333"/>
<path d="M536.743 150.292H522.781C520.639 150.292 518.903 152.028 518.903 154.168C518.903 156.309 520.639 158.045 522.781 158.045H536.743C538.884 158.045 540.621 156.309 540.621 154.168C540.621 152.028 538.884 150.292 536.743 150.292Z" fill="#333333"/>
<path d="M596.467 65.0134H568.544C566.402 65.0134 564.666 66.7488 564.666 68.8897C564.666 71.0305 566.402 72.766 568.544 72.766H596.467C598.609 72.766 600.345 71.0305 600.345 68.8897C600.345 66.7488 598.609 65.0134 596.467 65.0134Z" fill="#333333"/>
<path d="M351.365 51.8339H323.442C321.3 51.8339 319.563 53.5694 319.563 55.7102C319.563 57.8511 321.3 59.5865 323.442 59.5865H351.365C353.507 59.5865 355.243 57.8511 355.243 55.7102C355.243 53.5694 353.507 51.8339 351.365 51.8339Z" fill="#333333"/>
<path d="M386.268 51.8339H358.345C356.204 51.8339 354.467 53.5694 354.467 55.7102C354.467 57.8511 356.204 59.5865 358.345 59.5865H386.268C388.41 59.5865 390.147 57.8511 390.147 55.7102C390.147 53.5694 388.41 51.8339 386.268 51.8339Z" fill="#333333"/>
<path d="M257.512 68.8897H229.589C227.447 68.8897 225.711 70.6252 225.711 72.766C225.711 74.9068 227.447 76.6423 229.589 76.6423H257.512C259.654 76.6423 261.391 74.9068 261.391 72.766C261.391 70.6252 259.654 68.8897 257.512 68.8897Z" fill="#333333"/>
<path d="M633.24 213.956H4.19621V269H633.24V213.956Z" fill="#0071BC"/>
<path d="M175.783 234.385C175.721 234.547 175.62 234.749 175.45 234.85C174.953 244.672 173.991 250.657 172.735 252.836C171.641 254.658 169.989 255.379 168.135 255.379C166.747 255.379 164.529 255.115 162.217 254.65C162.248 253.758 162.147 252.27 162.016 251.347C164.265 251.843 166.716 252.138 167.507 252.138C168.601 252.138 169.291 251.843 169.857 250.681C170.749 248.96 171.54 243.703 171.843 236.889H162.551C160.961 244.199 157.951 250.681 151.932 255.441C151.335 254.844 150.11 253.921 149.249 253.425C154.841 249.161 157.649 243.471 159.076 236.858H150.474V233.78H159.673C160.038 231.462 160.17 229.516 160.332 226.834L164.73 227.229C164.668 227.593 164.366 227.787 163.807 227.888C163.606 230.136 163.474 231.787 163.148 233.772H172.743L173.371 233.54L175.783 234.369V234.385Z" fill="#F2F2F2"/>
<path d="M183.927 238.974H211.548V242.277H185.246C185.044 242.61 184.618 242.843 184.183 242.874L183.92 238.974H183.927Z" fill="#F2F2F2"/>
<path d="M238.672 244.827C235.632 243.106 231.164 241.029 227.72 239.672V255.572H224.245V226.64L228.674 226.903C228.643 227.268 228.341 227.531 227.712 227.663V237.183L228.372 236.253C232.141 237.641 237.167 239.858 240.51 241.641L238.657 244.812L238.672 244.827ZM235.632 228.694C237.02 229.818 238.905 231.865 239.967 233.354L238.377 234.71C237.485 233.354 235.5 231.175 234.142 230.012L235.632 228.686V228.694ZM240.13 225.787C241.588 227.043 243.504 228.958 244.466 230.415L242.876 231.702C241.953 230.415 239.998 228.26 238.61 227.074L240.13 225.787V225.787Z" fill="#F2F2F2"/>
<path d="M274.77 231.105V253.192H271.427V251.208H254.72V253.254H251.447V231.105H274.77V231.105ZM271.396 248.13V234.175H254.689V248.13H271.396Z" fill="#F2F2F2"/>
<path d="M283.83 238.974H311.45V242.277H285.148C284.947 242.61 284.52 242.843 284.086 242.874L283.822 238.974H283.83Z" fill="#F2F2F2"/>
<path d="M320.455 229.09C323.829 230.113 327.801 231.865 330.213 233.485L328.491 236.462C326.11 234.811 322.17 233.059 318.896 231.896L320.448 229.09H320.455ZM319.827 251.704C331.237 248.2 338.978 241.657 342.887 232.524C343.849 233.284 344.973 233.912 345.927 234.439C341.824 243.463 333.82 250.541 322.736 254.34C322.705 254.673 322.472 254.999 322.208 255.131L319.827 251.688V251.704Z" fill="#F2F2F2"/>
<path d="M379.575 248.928V252.138H352.148V248.928H379.575ZM376.302 231.276V234.485H355.592V231.276H376.302Z" fill="#F2F2F2"/>
<path d="M409.018 250.487V253.13H386.455V250.487H399.586C400.083 247.316 400.843 241.494 401.176 238.315H388.968V235.703H402.099L402.565 235.54L404.783 236.563C404.682 236.726 404.519 236.896 404.287 236.958C403.86 240.261 402.867 247.145 402.332 250.479H409.01L409.018 250.487Z" fill="#F2F2F2"/>
<path d="M416.495 238.974H444.116V242.277H417.814C417.612 242.61 417.185 242.843 416.751 242.874L416.487 238.974H416.495Z" fill="#F2F2F2"/>
<path d="M473.094 230.245C472.962 230.477 472.799 230.609 472.527 230.71C470.705 234.943 468.82 238.284 466.144 241.85C469.549 244.595 474.715 249.254 477.724 252.533L474.815 255.045C472.101 251.836 467.106 246.944 464.034 244.432C461.025 247.967 456.363 252.402 451.826 255.045C451.298 254.317 450.173 253.161 449.413 252.502C458.046 247.804 465.027 239.176 468.036 232.136H452.493V228.997H469.859L470.456 228.795L473.101 230.252L473.094 230.245Z" fill="#F2F2F2"/>
</svg>
