<svg width="15" height="15" viewBox="0 0 15 15" fill="none" xmlns="http://www.w3.org/2000/svg">
<g clip-path="url(#clip0_415_7910)">
<path fill-rule="evenodd" clip-rule="evenodd" d="M7.05256 1.40039C3.50881 1.40039 0.635895 4.27331 0.635895 7.81706C0.635895 11.3608 3.50881 14.2337 7.05256 14.2337C10.5963 14.2337 13.4692 11.3608 13.4692 7.81706C13.4692 4.27331 10.5963 1.40039 7.05256 1.40039ZM9.83389 6.73206C9.88511 6.67352 9.9241 6.60532 9.94857 6.53149C9.97304 6.45766 9.9825 6.37967 9.97639 6.30213C9.97027 6.22459 9.94872 6.14905 9.91298 6.07997C9.87724 6.01088 9.82805 5.94964 9.7683 5.89984C9.70854 5.85004 9.63943 5.8127 9.56504 5.79001C9.49064 5.76732 9.41245 5.75974 9.33508 5.76771C9.2577 5.77568 9.18271 5.79904 9.1145 5.83643C9.04629 5.87381 8.98624 5.92446 8.93789 5.98539L6.42956 8.99481L5.13164 7.69631C5.02163 7.59005 4.87428 7.53125 4.72133 7.53258C4.56838 7.53391 4.42207 7.59526 4.31392 7.70341C4.20576 7.81157 4.14441 7.95788 4.14308 8.11082C4.14176 8.26377 4.20055 8.41112 4.30681 8.52114L6.05681 10.2711C6.11413 10.3284 6.18275 10.3731 6.2583 10.4024C6.33386 10.4317 6.41469 10.4449 6.49563 10.4413C6.57658 10.4376 6.65588 10.4171 6.72847 10.3811C6.80105 10.345 6.86534 10.2943 6.91723 10.2321L9.83389 6.73206Z" fill="#FF5A36"/>
</g>
<defs>
<clipPath id="clip0_415_7910">
<rect width="14" height="14" fill="white" transform="translate(0.0525513 0.817017)"/>
</clipPath>
</defs>
</svg>
