<?xml version="1.0" encoding="UTF-8"?><svg id="Layer_2" xmlns="http://www.w3.org/2000/svg" viewBox="0 0 281.39 197.84"><defs><style>.cls-1{fill:#fff;}.cls-2{fill:#ffe953;}.cls-3{fill:#ffbe7d;}.cls-4{fill:#0e95cc;}</style></defs><g id="Layer_1-2"><g><g><g><rect class="cls-1" x="7.9" y="7.92" width="174.1" height="184.92" rx="11.98" ry="11.98"/><path class="cls-4" d="M170.02,197.84H19.88c-9.36,0-16.98-7.62-16.98-16.98V19.9C2.9,10.54,10.52,2.92,19.88,2.92H170.02c9.36,0,16.98,7.62,16.98,16.98V180.85c0,9.36-7.62,16.98-16.98,16.98ZM19.88,12.92c-3.85,0-6.98,3.13-6.98,6.98V180.85c0,3.85,3.13,6.98,6.98,6.98H170.02c3.85,0,6.98-3.13,6.98-6.98V19.9c0-3.85-3.13-6.98-6.98-6.98H19.88Z"/></g><g><rect class="cls-1" x="5" y="5" width="174.1" height="184.92" rx="11.98" ry="11.98"/><path class="cls-4" d="M167.12,194.92H16.98c-9.36,0-16.98-7.62-16.98-16.98V16.98C0,7.62,7.62,0,16.98,0H167.12c9.36,0,16.98,7.62,16.98,16.98V177.93c0,9.36-7.62,16.98-16.98,16.98ZM16.98,10c-3.85,0-6.98,3.13-6.98,6.98V177.93c0,3.85,3.13,6.98,6.98,6.98H167.12c3.85,0,6.98-3.13,6.98-6.98V16.98c0-3.85-3.13-6.98-6.98-6.98H16.98Z"/></g><g><rect class="cls-1" x="21" y="28" width="142" height="78.39"/><path class="cls-4" d="M163,109.39H21c-1.66,0-3-1.34-3-3V28c0-1.66,1.34-3,3-3H163c1.66,0,3,1.34,3,3V106.39c0,1.66-1.34,3-3,3Zm-139-6H160V31H24V103.39Z"/></g><g><rect class="cls-1" x="21" y="122" width="50" height="34"/><path class="cls-4" d="M71,159H21c-1.66,0-3-1.34-3-3v-34c0-1.66,1.34-3,3-3h50c1.66,0,3,1.34,3,3v34c0,1.66-1.34,3-3,3Zm-47-6h44v-28H24v28Z"/></g><rect class="cls-4" x="85" y="121.77" width="50" height="13.23"/></g><g><g><g><path class="cls-2" d="M149.74,154.29c-1.78,0-3.35-1.18-3.84-2.89l-2.63-9.15h-13.42l-2.63,9.15c-.49,1.71-2.06,2.89-3.84,2.89h-14.64c-1.29,0-2.5-.62-3.25-1.67s-.95-2.39-.54-3.62l19.13-56.43c.55-1.62,2.07-2.72,3.79-2.72h17.16c1.71,0,3.23,1.09,3.78,2.7l19.36,56.43c.42,1.22,.22,2.57-.53,3.62-.75,1.05-1.96,1.68-3.25,1.68h-14.64Zm-11.8-31.22l-1.35-4.58-1.35,4.58h2.69Z"/><path class="cls-4" d="M145.02,93.86l19.36,56.43h-14.64l-3.46-12.04h-19.44l-3.46,12.04h-14.64l19.13-56.43h17.16m-15.11,33.21h13.38l-3.31-11.25c-.26-.95-.62-2.22-1.06-3.82-.45-1.6-.89-3.24-1.34-4.92-.45-1.68-.8-3.09-1.06-4.25-.26,1.16-.6,2.58-1.02,4.29-.42,1.71-.84,3.36-1.26,4.96-.42,1.6-.76,2.85-1.02,3.74l-3.31,11.25m15.11-41.21h-17.16c-3.43,0-6.48,2.19-7.58,5.43l-19.13,56.43c-.83,2.44-.43,5.13,1.08,7.23,1.5,2.1,3.92,3.34,6.5,3.34h14.64c3.57,0,6.7-2.36,7.69-5.79l1.8-6.25h7.39l1.8,6.25c.99,3.43,4.12,5.79,7.69,5.79h14.64c2.58,0,5.01-1.25,6.51-3.35,1.5-2.1,1.9-4.8,1.06-7.25l-19.36-56.43c-1.11-3.23-4.15-5.4-7.57-5.4h0Z"/></g><g><path class="cls-2" d="M175.16,154.29c-2.21,0-4-1.79-4-4v-41.1h-10.56c-2.21,0-4-1.79-4-4v-11.1c0-2.21,1.79-4,4-4h42.5c2.21,0,4,1.79,4,4v11.1c0,2.21-1.79,4-4,4h-10.56v41.1c0,2.21-1.79,4-4,4h-13.38Z"/><path class="cls-4" d="M203.1,94.09v11.1h-14.56v45.1h-13.38v-45.1h-14.56v-11.1h42.5m0-8h-42.5c-4.42,0-8,3.58-8,8v11.1c0,4.42,3.58,8,8,8h6.56v37.1c0,4.42,3.58,8,8,8h13.38c4.42,0,8-3.58,8-8v-37.1h6.56c4.42,0,8-3.58,8-8v-11.1c0-4.42-3.58-8-8-8h0Z"/></g><g><path class="cls-2" d="M260.95,154.29c-2.21,0-4-1.79-4-4v-14.89l-4.93,16.06c-.52,1.68-2.07,2.83-3.82,2.83h-12.59c-1.77,0-3.33-1.16-3.83-2.86l-4.29-14.44v13.3c0,2.21-1.79,4-4,4h-11.96c-2.21,0-4-1.79-4-4v-56.2c0-2.21,1.79-4,4-4h18.1c1.76,0,3.32,1.16,3.83,2.85l8.9,29.55,9.19-29.58c.52-1.67,2.07-2.81,3.82-2.81h18.02c2.21,0,4,1.79,4,4v56.2c0,2.21-1.79,4-4,4h-12.44Z"/><path class="cls-4" d="M273.39,94.09v56.2h-12.44v-25.66c0-1.78,.04-3.76,.12-5.94,.08-2.18,.16-4.25,.24-6.22,.08-1.97,.14-3.48,.2-4.53h-.31l-12.99,42.34h-12.59l-12.59-42.42h-.31c.1,1.05,.21,2.56,.31,4.53,.1,1.97,.21,4.08,.32,6.34,.1,2.26,.16,4.33,.16,6.22v25.34h-11.96v-56.2h18.1l12.51,41.56h.32l12.91-41.56h18.02m0-8h-18.02c-3.5,0-6.6,2.28-7.64,5.63l-5.31,17.1-5.13-17.03c-1.02-3.38-4.13-5.69-7.66-5.69h-18.1c-4.42,0-8,3.58-8,8v56.2c0,4.42,3.58,8,8,8h11.96c2.42,0,4.59-1.08,6.06-2.78,1.49,1.72,3.68,2.78,6.06,2.78h12.59c2.56,0,4.89-1.21,6.38-3.17,1.46,1.92,3.77,3.17,6.38,3.17h12.44c4.42,0,8-3.58,8-8v-56.2c0-4.42-3.58-8-8-8h0Z"/></g></g><g><g><path class="cls-3" d="M145.74,151.29c-1.78,0-3.35-1.18-3.84-2.89l-2.63-9.15h-13.42l-2.63,9.15c-.49,1.71-2.06,2.89-3.84,2.89h-14.64c-1.29,0-2.5-.62-3.25-1.67s-.95-2.39-.54-3.62l19.13-56.43c.55-1.62,2.07-2.72,3.79-2.72h17.16c1.71,0,3.23,1.09,3.78,2.7l19.36,56.43c.42,1.22,.22,2.57-.53,3.62-.75,1.05-1.96,1.68-3.25,1.68h-14.64Zm-11.8-31.22l-1.35-4.58-1.35,4.58h2.69Z"/><path class="cls-4" d="M141.02,90.86l19.36,56.43h-14.64l-3.46-12.04h-19.44l-3.46,12.04h-14.64l19.13-56.43h17.16m-15.11,33.21h13.38l-3.31-11.25c-.26-.95-.62-2.22-1.06-3.82-.45-1.6-.89-3.24-1.34-4.92-.45-1.68-.8-3.09-1.06-4.25-.26,1.16-.6,2.58-1.02,4.29-.42,1.71-.84,3.36-1.26,4.96-.42,1.6-.76,2.85-1.02,3.74l-3.31,11.25m15.11-41.21h-17.16c-3.43,0-6.48,2.19-7.58,5.43l-19.13,56.43c-.83,2.44-.43,5.13,1.08,7.23,1.5,2.1,3.92,3.34,6.5,3.34h14.64c3.57,0,6.7-2.36,7.69-5.79l1.8-6.25h7.39l1.8,6.25c.99,3.43,4.12,5.79,7.69,5.79h14.64c2.58,0,5.01-1.25,6.51-3.35,1.5-2.1,1.9-4.8,1.06-7.25l-19.36-56.43c-1.11-3.23-4.15-5.4-7.57-5.4h0Z"/></g><g><path class="cls-3" d="M171.16,151.29c-2.21,0-4-1.79-4-4v-41.1h-10.56c-2.21,0-4-1.79-4-4v-11.1c0-2.21,1.79-4,4-4h42.5c2.21,0,4,1.79,4,4v11.1c0,2.21-1.79,4-4,4h-10.56v41.1c0,2.21-1.79,4-4,4h-13.38Z"/><path class="cls-4" d="M199.1,91.09v11.1h-14.56v45.1h-13.38v-45.1h-14.56v-11.1h42.5m0-8h-42.5c-4.42,0-8,3.58-8,8v11.1c0,4.42,3.58,8,8,8h6.56v37.1c0,4.42,3.58,8,8,8h13.38c4.42,0,8-3.58,8-8v-37.1h6.56c4.42,0,8-3.58,8-8v-11.1c0-4.42-3.58-8-8-8h0Z"/></g><g><path class="cls-3" d="M256.95,151.29c-2.21,0-4-1.79-4-4v-14.89l-4.93,16.06c-.52,1.68-2.07,2.83-3.82,2.83h-12.59c-1.77,0-3.33-1.16-3.83-2.86l-4.29-14.44v13.3c0,2.21-1.79,4-4,4h-11.96c-2.21,0-4-1.79-4-4v-56.2c0-2.21,1.79-4,4-4h18.1c1.76,0,3.32,1.16,3.83,2.85l8.9,29.55,9.19-29.58c.52-1.67,2.07-2.81,3.82-2.81h18.02c2.21,0,4,1.79,4,4v56.2c0,2.21-1.79,4-4,4h-12.44Z"/><path class="cls-4" d="M269.39,91.09v56.2h-12.44v-25.66c0-1.78,.04-3.76,.12-5.94,.08-2.18,.16-4.25,.24-6.22,.08-1.97,.14-3.48,.2-4.53h-.31l-12.99,42.34h-12.59l-12.59-42.42h-.31c.1,1.05,.21,2.56,.31,4.53,.1,1.97,.21,4.08,.32,6.34,.1,2.26,.16,4.33,.16,6.22v25.34h-11.96v-56.2h18.1l12.51,41.56h.32l12.91-41.56h18.02m0-8h-18.02c-3.5,0-6.6,2.28-7.64,5.63l-5.31,17.1-5.13-17.03c-1.02-3.38-4.13-5.69-7.66-5.69h-18.1c-4.42,0-8,3.58-8,8v56.2c0,4.42,3.58,8,8,8h11.96c2.42,0,4.59-1.08,6.06-2.78,1.49,1.72,3.68,2.78,6.06,2.78h12.59c2.56,0,4.89-1.21,6.38-3.17,1.46,1.92,3.77,3.17,6.38,3.17h12.44c4.42,0,8-3.58,8-8v-56.2c0-4.42-3.58-8-8-8h0Z"/></g></g></g></g></g></svg>