<?xml version="1.0" encoding="UTF-8"?><svg id="Layer_2" xmlns="http://www.w3.org/2000/svg" viewBox="0 0 327.13 200.5"><defs><style>.cls-1,.cls-2{fill:#fff;}.cls-3{fill:#ffbe7d;}.cls-4{fill:#0e95cc;}.cls-5{fill:none;stroke-miterlimit:10;stroke-width:10px;}.cls-5,.cls-6,.cls-2{stroke:#0e95cc;}.cls-2{stroke-linecap:round;stroke-linejoin:round;stroke-width:6px;}</style></defs><g id="Layer_1-2"><g><rect class="cls-5" x="9" y="9" width="285" height="186.5" rx="28.11" ry="28.11"/><g><path class="cls-6" d="M83.4,151.06c.18-1.36,.24-2.61,.24-4.48v-9.13c0-2.25-.06-3.32-.24-4.48h5.87v1.25q0,.12-.03,.42v.3c1.51-1.66,3.32-2.43,5.66-2.43,1.54,0,2.82,.36,3.79,1.07,.53,.39,.83,.74,1.22,1.48,1.84-1.81,3.65-2.58,6.23-2.58,4.24,0,6.4,2.31,6.4,6.79v7.35c0,1.84,.06,3.05,.24,4.45h-6.17c.18-1.39,.24-2.46,.24-4.48v-6.11c0-2.22-.65-3.08-2.34-3.08-1.51,0-2.88,1.19-3.62,3.17v6.05c0,1.78,.06,3.02,.24,4.45h-6.17c.18-1.33,.24-2.58,.24-4.48v-6.11c0-1.25-.12-1.81-.5-2.31-.33-.47-.92-.74-1.63-.74-1.6,0-2.96,1.16-3.79,3.17v5.99c0,1.87,.06,3.02,.24,4.48h-6.11Z"/><path class="cls-6" d="M122.07,132.97c-.18,1.22-.24,2.4-.24,4.48v9.13c0,1.6,.09,3.2,.24,4.48h-6.2c.18-1.45,.24-2.58,.24-4.48v-9.13c0-1.93-.06-3.14-.24-4.48h6.2Zm-.09-6.58v4.45h-6.02v-4.45h6.02Z"/><path class="cls-6" d="M125.21,151.06c.18-1.39,.24-2.64,.24-4.48v-9.13c0-2.05-.06-3.29-.24-4.48h5.9v1.25c0,.18-.03,.62-.03,.83,1.87-1.78,3.68-2.52,6.11-2.52,2.05,0,3.68,.56,4.77,1.66,1.19,1.19,1.69,2.64,1.69,4.98v7.44c0,1.72,.09,3.2,.24,4.45h-6.17c.18-1.42,.24-2.67,.24-4.48v-6.08c0-1.19-.12-1.69-.47-2.19-.39-.53-1.07-.83-1.96-.83-1.66,0-3.14,1.04-4.42,3.11v5.99c0,1.69,.06,2.93,.24,4.48h-6.14Z"/><path class="cls-6" d="M165.63,132.97c-.18,1.39-.24,2.64-.24,4.45v9.16c0,2.05,.06,3.26,.24,4.45h-5.9v-1.28c0-.15,0-.59,.03-.8-1.96,1.84-3.65,2.55-6.17,2.55-1.99,0-3.59-.56-4.71-1.66-1.19-1.19-1.69-2.64-1.69-4.98v-7.44c0-1.72-.09-3.2-.24-4.45h6.17c-.18,1.42-.24,2.67-.24,4.45v6.08c0,1.21,.12,1.75,.47,2.22,.42,.53,1.07,.83,1.93,.83,1.63,0,3.29-1.16,4.45-3.05v-6.08c0-1.66-.06-2.91-.24-4.45h6.14Z"/><path class="cls-6" d="M171.08,132.35c0-1.48-.06-2.67-.24-4.06h6.05c-.15,1.22-.24,2.64-.24,4.06v.62h1.07c1.3,0,1.99-.03,2.91-.15v4.92c-.89-.12-1.66-.18-2.73-.18h-1.25v7.59c0,.83,.15,1.25,.53,1.51,.33,.21,.8,.33,1.36,.33,.77,0,1.33-.15,2.08-.53l.45,4.51c-1.33,.42-2.49,.59-4.09,.59-2.02,0-3.41-.33-4.36-1.04-1.13-.86-1.54-1.87-1.54-3.88v-9.07h-1.13c-.95,0-1.72,.06-2.58,.18v-4.95c.86,.12,1.6,.18,2.64,.18h1.07v-.62Z"/><path class="cls-6" d="M187.63,143.67c.3,2.4,1.69,3.68,4.03,3.68,1.19,0,2.22-.38,2.99-1.1,.44-.42,.65-.74,.89-1.51l5.16,1.45c-.68,1.54-1.13,2.22-1.96,3.05-1.69,1.66-4.06,2.52-7,2.52s-5.19-.83-6.88-2.52c-1.75-1.78-2.7-4.3-2.7-7.23,0-5.87,3.76-9.75,9.43-9.75,4.62,0,7.86,2.52,8.89,6.94,.24,.95,.36,2.19,.44,3.88,0,.12,0,.3,.03,.59h-13.34Zm7.71-4.09c-.42-1.9-1.69-2.91-3.74-2.91s-3.38,.95-3.88,2.91h7.62Z"/><path class="cls-6" d="M208.53,145.01c.3,1.54,1.3,2.22,3.29,2.22,1.78,0,2.79-.5,2.79-1.42,0-.45-.24-.83-.65-1.07-.42-.24-.8-.36-2.43-.68-2.25-.44-3.41-.74-4.39-1.07-1.42-.53-2.4-1.21-2.96-2.1-.47-.8-.74-1.81-.74-2.82,0-3.56,2.99-5.72,7.95-5.72,2.82,0,4.92,.62,6.32,1.9,.98,.86,1.45,1.72,1.93,3.38l-5.72,.62c-.15-1.22-.89-1.75-2.49-1.75s-2.49,.5-2.49,1.27,.62,1.1,3.56,1.75c2.91,.62,3.82,.89,4.86,1.42,1.93,.95,2.85,2.4,2.85,4.54,0,1.57-.53,2.99-1.51,3.94-1.42,1.42-3.85,2.17-7.03,2.17-3.74,0-6.38-1.01-7.8-2.96-.59-.83-.89-1.54-1.19-2.96l5.87-.65Z"/></g><g><g><path class="cls-1" d="M123.54,117.69c-7.49,0-14.64-1.77-19.13-4.73-3.98-2.59-7.09-6.48-8.99-11.22-.51-1.19-.86-2.34-1.38-4.3-.29-1.08-.12-2.24,.49-3.19,.6-.95,1.58-1.6,2.69-1.79l13.13-2.29c-.67-.73-1.05-1.7-1.05-2.7v-12.49c0-.98,.36-1.92,1-2.65l-11.66-1.67c-1.16-.17-2.18-.83-2.81-1.82-.63-.99-.79-2.2-.45-3.32,1.54-5.03,2.99-7.75,5.74-10.75,5.26-5.69,12.96-8.56,22.93-8.56,8.91,0,16.5,2.59,21.37,7.3,3.48,3.48,5.29,8.02,5.29,13.19,0,4.57-1.26,10.03-6.14,14,.54,.38,1.08,.8,1.62,1.26,.03,.02,.05,.05,.08,.07,3.94,3.57,6.11,8.44,6.11,13.72,0,4.56-1.31,8.84-3.69,12.05-2,2.72-5.05,5.17-8.37,6.7-4.27,1.97-10.7,3.2-16.78,3.2Zm-7.11-26.47c.4,.5,.68,1.1,.81,1.78,.35,1.92,.56,2.14,1.01,2.62,1.48,1.54,3.78,1.87,5.44,1.87,1.95,0,5.22-.42,5.22-3.26,0-.9-.23-2.05-1.3-2.49-.96-.32-2.66-.7-5.37-.7-1.9,0-3.91,.07-5.8,.19Zm1.66-19.87c.93,.04,1.89,.06,2.9,.06,6.31,0,6.31-1.93,6.31-2.97,0-.81,0-2.17-3.55-2.17s-4.34,.94-4.97,3.59c-.13,.56-.37,1.06-.7,1.49Z"/><path class="cls-4" d="M124.04,50.21c7.92,0,14.45,2.18,18.59,6.17,2.69,2.69,4.07,6.17,4.07,10.31,0,7.7-4.14,12.49-12.49,14.45,4.43,.65,6.83,1.67,9.37,3.85,3.05,2.76,4.79,6.54,4.79,10.75,0,3.7-1.02,7.12-2.91,9.66-1.6,2.18-4.14,4.21-6.83,5.45-3.78,1.74-9.66,2.83-15.11,2.83-6.54,0-13.07-1.53-16.92-4.07-3.34-2.18-5.88-5.37-7.48-9.37-.44-1.02-.73-1.96-1.23-3.85l15.4-2.69c.44,2.4,.87,3.41,2.03,4.65,1.96,2.03,4.87,3.12,8.35,3.12,5.67,0,9.22-2.83,9.22-7.26,0-2.98-1.45-5.3-3.92-6.25-1.67-.58-3.92-.94-6.75-.94s-6.1,.15-8.93,.44v-12.49c2.47,.29,4.87,.44,7.7,.44,6.9,0,10.31-2.32,10.31-6.97,0-3.92-2.76-6.17-7.55-6.17-5.16,0-7.77,2.03-8.86,6.68l-15.69-2.25c1.38-4.5,2.54-6.68,4.87-9.22,4.43-4.79,11.11-7.26,19.97-7.26m0-8c-11.12,0-19.82,3.31-25.85,9.83-3.19,3.49-4.92,6.7-6.64,12.31-.68,2.23-.36,4.66,.89,6.63,1.25,1.97,3.31,3.3,5.62,3.63l7.23,1.04v11.34l-8.77,1.53c-2.21,.39-4.16,1.69-5.37,3.58-1.21,1.9-1.56,4.21-.98,6.38,.55,2.05,.95,3.38,1.57,4.83,2.21,5.47,5.84,9.97,10.5,13.01,5.07,3.35,13.05,5.37,21.29,5.37,6.72,0,13.62-1.33,18.46-3.57,3.9-1.79,7.51-4.69,9.91-7.96,2.88-3.89,4.47-9,4.47-14.41,0-5.76-2.12-11.11-6-15.28,2.84-3.68,4.33-8.32,4.33-13.77,0-6.25-2.22-11.78-6.41-15.97-.03-.03-.07-.07-.1-.1-5.71-5.51-14.06-8.42-24.15-8.42h0Z"/></g><g><path class="cls-1" d="M179.54,117.47c-8.16,0-15.22-2.74-20.41-7.92-2.79-2.79-4.94-6.07-6.22-9.49-2.05-5.6-3.09-11.66-3.09-18.04,0-8.42,1.97-16.92,5.15-22.19,5.17-8.64,13.89-13.41,24.56-13.41,8.01,0,15.27,2.81,20.45,7.9,2.81,2.81,4.96,6.09,6.24,9.51,2.05,5.6,3.09,11.69,3.09,18.11,0,8.33-2.02,17.07-5.15,22.26-5.06,8.43-14.04,13.26-24.63,13.26Zm0-50.77c-6.33,0-6.82,11.28-6.82,14.74,0,10.41,2.32,15.68,6.89,15.68s6.75-5.2,6.75-15.47c0-6.82-1.18-14.96-6.82-14.96Z"/><path class="cls-4" d="M179.54,50.43c7.04,0,13.22,2.4,17.65,6.75,2.4,2.4,4.21,5.16,5.3,8.06,1.89,5.16,2.83,10.75,2.83,16.71,0,7.63-1.82,15.62-4.58,20.19-4.36,7.26-11.98,11.33-21.21,11.33-7.12,0-13.15-2.32-17.58-6.75-2.4-2.4-4.21-5.16-5.3-8.06-1.89-5.16-2.83-10.75-2.83-16.63,0-7.63,1.82-15.54,4.58-20.12,4.43-7.41,11.98-11.48,21.14-11.48m.07,50.7c7.12,0,10.75-6.54,10.75-19.47s-3.78-18.96-10.82-18.96-10.82,6.9-10.82,18.74c0,13,3.7,19.68,10.89,19.68m-.07-58.7c-11.95,0-22.16,5.6-28,15.37-3.52,5.83-5.71,15.12-5.71,24.23,0,6.85,1.12,13.37,3.32,19.38,0,.02,.01,.04,.02,.06,1.48,3.95,3.95,7.72,7.13,10.91,5.95,5.95,13.99,9.1,23.24,9.1,12.04,0,22.27-5.55,28.07-15.21,3.52-5.84,5.72-15.16,5.72-24.31,0-6.89-1.12-13.44-3.32-19.46,0-.02-.01-.04-.02-.06-1.48-3.95-3.95-7.72-7.14-10.91-.02-.02-.03-.03-.05-.05-5.93-5.84-14.19-9.05-23.26-9.05h0Zm.07,50.7c-.56,0-.68,0-1.15-.84-.65-1.18-1.75-4.16-1.75-10.84,0-6.08,1.24-8.88,1.78-9.81,.54-.93,.78-.93,1.04-.93,.53,0,.65,0,1.11,.8,.51,.9,1.71,3.69,1.71,10.16,0,9.48-2.2,11.39-2.22,11.4-.03,.02-.2,.06-.53,.06h0Z"/></g></g><g><rect class="cls-1" x="5" y="5" width="285" height="186.5" rx="28.11" ry="28.11"/><path class="cls-4" d="M261.89,196.5H33.11c-18.25,0-33.11-14.85-33.11-33.11V33.11C0,14.85,14.85,0,33.11,0h228.79c18.25,0,33.11,14.85,33.11,33.11V163.39c0,18.25-14.85,33.11-33.11,33.11ZM33.11,10c-12.74,0-23.11,10.37-23.11,23.11V163.39c0,12.74,10.37,23.11,23.11,23.11h228.79c12.74,0,23.11-10.37,23.11-23.11V33.11c0-12.74-10.37-23.11-23.11-23.11H33.11Z"/></g><g><rect class="cls-4" x="241.62" y="0" width="85.52" height="9.5" rx="4.75" ry="4.75"/><rect class="cls-4" x="222.2" y="27" width="85.52" height="9.5" rx="4.75" ry="4.75"/><rect class="cls-4" x="203.13" y="54" width="64" height="9.5" rx="4.75" ry="4.75"/></g><g><path class="cls-4" d="M119.49,151.6c0,.34-.14,.53-.43,.57-.29,.04-1,.06-2.14,.06s-1.91-.03-2.2-.09c-.29-.06-.43-.29-.43-.71,0-.44,.01-1.11,.04-1.99,.03-.88,.04-1.55,.04-1.99,0-1.69-.02-2.89-.06-3.61-.06-1.15-.6-1.72-1.64-1.72-.45,0-.91,.19-1.35,.57-.45,.38-.7,.8-.75,1.27-.04,.41-.06,1.59-.06,3.56,0,.45,.01,1.14,.04,2.06s.04,1.61,.04,2.08c0,.32-.14,.48-.42,.48h-4.39c-.27,0-.41-.2-.41-.59,0-.45,.01-1.13,.04-2.04,.03-.91,.04-1.59,.04-2.06,0-.36,0-.9-.03-1.62-.02-.72-.03-1.27-.03-1.64,0-1.38-.53-2.07-1.58-2.07-.42,0-.88,.16-1.38,.49-.54,.36-.81,.73-.81,1.13,0,.88,0,2.19,.01,3.94,0,1.75,.01,3.06,.01,3.92,0,.24-.03,.39-.09,.45-.06,.06-.21,.1-.45,.12-.43,.04-1.12,.06-2.06,.06-.61,0-1.3-.03-2.07-.09-.23-.02-.37-.05-.41-.1-.04-.05-.07-.19-.07-.43,0-.77,0-1.93,.01-3.47,0-1.54,.01-2.7,.01-3.47,0-1.58-.12-3.36-.35-5.34-.02-.12-.03-.2-.03-.26,0-.16,.07-.28,.2-.33,.21-.09,.61-.16,1.2-.22,.72-.07,1.15-.11,1.29-.13,.1-.02,.48-.12,1.14-.3,.47-.14,.85-.2,1.14-.2,.18,0,.28,.34,.29,1.01,0,.67,.05,1.01,.12,1.01,.1-.04,.21-.11,.33-.2,.87-.67,1.55-1.14,2.06-1.39,.74-.36,1.55-.54,2.42-.54s1.68,.2,2.37,.59c.78,.44,1.29,1.07,1.52,1.87,.51-.7,1.22-1.28,2.11-1.75s1.77-.71,2.62-.71c1.27,0,2.31,.29,3.11,.88,.91,.67,1.36,1.62,1.36,2.85,0,.51-.01,1.28-.04,2.31-.03,1.03-.04,1.8-.04,2.31,0,.61,.01,1.52,.04,2.74,.03,1.22,.04,2.14,.04,2.74Z"/><path class="cls-4" d="M127.6,145.49c0,.7,.01,1.75,.04,3.15,.03,1.4,.04,2.44,.04,3.13,0,.2-.12,.32-.36,.36-.33,.06-1.07,.09-2.21,.09s-1.9-.03-2.23-.09c-.21-.04-.34-.1-.39-.19-.02-.04-.03-.18-.03-.43,0-.67,.01-1.67,.04-3s.04-2.34,.04-3.02c0-2.74-.11-4.92-.32-6.54-.02-.15-.03-.26-.03-.3,0-.19,.13-.29,.39-.29s.68,.03,1.24,.09c.55,.06,.97,.09,1.25,.09s.7-.02,1.26-.07c.56-.05,.98-.07,1.26-.07,.23,0,.35,.1,.35,.29,0,.04,0,.13-.03,.28-.21,1.88-.32,4.06-.32,6.54Zm.38-10.76c0,1.68-.95,2.52-2.84,2.52-.81,0-1.48-.21-2.01-.64-.58-.46-.87-1.09-.87-1.88s.3-1.37,.9-1.85c.55-.44,1.21-.67,1.98-.67s1.4,.23,1.95,.68c.59,.48,.88,1.1,.88,1.84Z"/><path class="cls-4" d="M144.79,151.72c0,.26-.14,.41-.41,.45-.27,.04-.98,.06-2.11,.06-1.22,0-1.97-.03-2.26-.09-.29-.06-.43-.26-.43-.59,0-.45,.01-1.14,.04-2.06,.03-.92,.04-1.61,.04-2.07,0-.36,0-.89-.03-1.6-.02-.71-.03-1.24-.03-1.6,0-1.32-.57-1.98-1.72-1.98-.38,0-.82,.16-1.32,.49-.54,.37-.81,.73-.81,1.09v7.82c0,.32-.15,.5-.45,.54-.34,.04-1.03,.06-2.07,.06-1.13,0-1.86-.03-2.2-.09-.3-.05-.45-.21-.45-.48,0-.75,0-1.89,.01-3.4,0-1.52,.01-2.66,.01-3.42,0-2.4-.19-4.29-.57-5.66-.02-.09-.03-.16-.03-.22,0-.15,.07-.26,.22-.32,.61-.07,1.42-.17,2.43-.32,1.54-.3,2.4-.45,2.59-.45,.11,0,.19,.33,.25,.98s.14,.98,.25,.98c-.11,0,.41-.34,1.56-1.01s2.14-1.01,3-1.01c1.23,0,2.25,.29,3.07,.87,.92,.67,1.38,1.59,1.38,2.78v4.62c0,.63,0,1.57,.01,2.82s.01,2.19,.01,2.82Z"/><path class="cls-4" d="M162.1,138.98c0,.71-.03,1.79-.1,3.21-.07,1.43-.1,2.5-.1,3.21s.02,1.74,.07,3.13c.05,1.39,.07,2.43,.07,3.11,0,.26-.12,.42-.36,.49-.37,.1-1.14,.14-2.33,.14-1.05,0-1.79-.03-2.2-.09-.18-.03-.3-.14-.35-.35-.03-.29-.06-.58-.09-.87-.05-.44-.12-.67-.2-.67,.13,0-.35,.33-1.46,.98s-2.12,.98-3.03,.98c-2.56,0-4.07-1.15-4.55-3.46-.21-1.07-.32-2.63-.32-4.66,0-2.2,.18-3.94,.54-5.21,.11-.4,.3-.59,.59-.59,.44,0,1.12,0,2.03,.01s1.58,.01,2.03,.01c.3,0,.45,.13,.45,.38,0,.07,0,.17-.03,.3-.2,1.31-.3,2.64-.3,4,0,1.68,.05,2.83,.16,3.45,.17,1.06,.81,1.59,1.9,1.59,.42,0,.88-.19,1.38-.56,.5-.38,.76-.77,.78-1.17,.02-.36,.03-2.78,.03-7.27,0-.32,.02-.51,.07-.56,.06-.1,.23-.14,.52-.14,.47,0,1.18,0,2.14,.01s1.66,.01,2.14,.01c.29,0,.46,.07,.51,.22,.02,.08,.03,.19,.03,.35Z"/><path class="cls-4" d="M174.18,147.89c0,.29-.04,.73-.11,1.32s-.11,1.02-.11,1.3-.03,.45-.09,.53c-.06,.08-.22,.19-.48,.33-1.25,.69-2.62,1.03-4.14,1.03-2.79,0-4.18-1.07-4.18-3.2,0-.64,.02-1.59,.07-2.87,.05-1.28,.07-2.24,.07-2.87,0-.42-.25-.64-.74-.64h-.19c-.09,0-.15,.01-.19,.01-.37,0-.55-.13-.55-.39,0-.15,.01-.39,.04-.71,.02-.32,.04-.55,.04-.71,0-.2-.01-.51-.04-.93-.02-.41-.04-.72-.04-.93s.31-.3,.93-.32c.35,0,.54-.11,.57-.29,.06-.37,.08-.95,.06-1.74-.04-1.25-.06-1.84-.06-1.78,0-1.12,.11-1.68,.32-1.68,.26,0,.63,.06,1.11,.17,.55,.13,.93,.2,1.14,.22,.49,.07,1.24,.16,2.23,.27,.24,.02,.36,.1,.36,.25,0,.39-.03,.97-.09,1.75-.06,.78-.09,1.37-.09,1.77,0,.47,.14,.71,.42,.71,.34,0,.85-.01,1.53-.04,.69-.03,1.2-.04,1.55-.04,.21,0,.32,.07,.32,.22,0,.22-.02,.55-.07,1-.05,.44-.07,.78-.07,1s0,.57,.01,1.01c0,.44,.01,.78,.01,1.01,0,.2-.14,.3-.42,.3-.19,0-.52,0-.97-.02s-.78-.02-.97-.02h-1.09c-.14,0-.22,.21-.22,.64v1.03c0,.46,.01,.81,.01,1.03,0,.81,.09,1.37,.28,1.68,.26,.42,.77,.62,1.54,.62,.24,0,.59-.06,1.04-.17,.45-.11,.76-.17,.95-.17,.2,0,.3,.11,.3,.32Z"/><path class="cls-4" d="M188.96,144.27c0,.98-.31,1.53-.94,1.67-.11,.02-1.1,.13-3,.32-1.14,.13-2.84,.28-5.1,.45,.13,.63,.54,1.11,1.23,1.43,.56,.27,1.2,.41,1.91,.41,.86,0,1.72-.23,2.59-.7,.37-.23,.73-.46,1.1-.69,.2,.1,.54,.59,1.02,1.48,.48,.89,.72,1.45,.72,1.69,0,.07-.07,.18-.22,.33-1.18,1.26-3.01,1.9-5.49,1.9-2.3,0-4.15-.67-5.56-2.01-1.45-1.36-2.17-3.18-2.17-5.46s.65-4.04,1.94-5.46c1.33-1.47,3.1-2.2,5.3-2.2,1.85,0,3.43,.68,4.72,2.03,1.29,1.35,1.94,2.96,1.94,4.82Zm-5.07-.88c0-.6-.21-1.12-.64-1.58-.42-.45-.93-.68-1.52-.68s-1.11,.26-1.51,.77c-.37,.47-.55,1.03-.55,1.67,0,.26,.14,.39,.41,.39,.71,0,1.82-.11,3.33-.33,.32-.05,.48-.12,.48-.23Z"/><path class="cls-4" d="M199.02,140.42c0,.1-.07,.23-.22,.39-.27-.07-.54-.1-.81-.1-.57,0-1.05,.13-1.43,.38-.46,.29-.69,.7-.69,1.23,0,.34,.25,.77,.74,1.29,.74,.78,1.2,1.31,1.38,1.58,.49,.73,.74,1.52,.74,2.36,0,.49-.1,1.01-.29,1.56-.22,.61-.5,1.05-.84,1.33-.71,.62-1.55,1.14-2.5,1.56-1.03,.44-1.98,.67-2.85,.67-.19,0-.62-.52-1.3-1.57s-1.01-1.69-1.01-1.92c0-.09,.05-.14,.16-.16,.68-.12,1.36-.25,2.04-.38,.85-.27,1.27-.71,1.27-1.33,0-.42-.25-.92-.74-1.48-.88-.98-1.34-1.49-1.38-1.55-.49-.7-.74-1.43-.74-2.2,0-1.45,.73-2.68,2.2-3.69,1.31-.9,2.72-1.35,4.21-1.35,.15,0,.54,.52,1.14,1.56,.61,1.04,.91,1.64,.91,1.82Z"/></g><g><g><path class="cls-1" d="M122.54,116.69c-7.49,0-14.64-1.77-19.13-4.73-3.98-2.59-7.09-6.48-8.99-11.22-.51-1.19-.86-2.34-1.38-4.3-.29-1.08-.12-2.24,.49-3.19,.6-.95,1.58-1.6,2.69-1.79l13.13-2.29c-.67-.73-1.05-1.7-1.05-2.7v-12.49c0-.98,.36-1.92,1-2.65l-11.66-1.67c-1.16-.17-2.18-.83-2.81-1.82-.63-.99-.79-2.2-.45-3.32,1.54-5.03,2.99-7.75,5.74-10.75,5.26-5.69,12.96-8.56,22.93-8.56,8.91,0,16.5,2.59,21.37,7.3,3.48,3.48,5.29,8.02,5.29,13.19,0,4.57-1.26,10.03-6.14,14,.54,.38,1.08,.8,1.62,1.26,.03,.02,.05,.05,.08,.07,3.94,3.57,6.11,8.44,6.11,13.72,0,4.56-1.31,8.84-3.69,12.05-2,2.72-5.05,5.17-8.37,6.7-4.27,1.97-10.7,3.2-16.78,3.2Zm-7.11-26.47c.4,.5,.68,1.1,.81,1.78,.35,1.92,.56,2.14,1.01,2.62,1.48,1.54,3.78,1.87,5.44,1.87,1.95,0,5.22-.42,5.22-3.26,0-.9-.23-2.05-1.3-2.49-.96-.32-2.66-.7-5.37-.7-1.9,0-3.91,.07-5.8,.19Zm1.66-19.87c.93,.04,1.89,.06,2.9,.06,6.31,0,6.31-1.93,6.31-2.97,0-.81,0-2.17-3.55-2.17s-4.34,.94-4.97,3.59c-.13,.56-.37,1.06-.7,1.49Z"/><path class="cls-4" d="M123.04,49.21c7.92,0,14.45,2.18,18.59,6.17,2.69,2.69,4.07,6.17,4.07,10.31,0,7.7-4.14,12.49-12.49,14.45,4.43,.65,6.83,1.67,9.37,3.85,3.05,2.76,4.79,6.54,4.79,10.75,0,3.7-1.02,7.12-2.91,9.66-1.6,2.18-4.14,4.21-6.83,5.45-3.78,1.74-9.66,2.83-15.11,2.83-6.54,0-13.07-1.53-16.92-4.07-3.34-2.18-5.88-5.37-7.48-9.37-.44-1.02-.73-1.96-1.23-3.85l15.4-2.69c.44,2.4,.87,3.41,2.03,4.65,1.96,2.03,4.87,3.12,8.35,3.12,5.67,0,9.22-2.83,9.22-7.26,0-2.98-1.45-5.3-3.92-6.25-1.67-.58-3.92-.94-6.75-.94s-6.1,.15-8.93,.44v-12.49c2.47,.29,4.87,.44,7.7,.44,6.9,0,10.31-2.32,10.31-6.97,0-3.92-2.76-6.17-7.55-6.17-5.16,0-7.77,2.03-8.86,6.68l-15.69-2.25c1.38-4.5,2.54-6.68,4.87-9.22,4.43-4.79,11.11-7.26,19.97-7.26m0-8c-11.12,0-19.82,3.31-25.85,9.83-3.19,3.49-4.92,6.7-6.64,12.31-.68,2.23-.36,4.66,.89,6.63,1.25,1.97,3.31,3.3,5.62,3.63l7.23,1.04v11.34l-8.77,1.53c-2.21,.39-4.16,1.69-5.37,3.58-1.21,1.9-1.56,4.21-.98,6.38,.55,2.05,.95,3.38,1.57,4.83,2.21,5.47,5.84,9.97,10.5,13.01,5.07,3.35,13.05,5.37,21.29,5.37,6.72,0,13.62-1.33,18.46-3.57,3.9-1.79,7.51-4.69,9.91-7.96,2.88-3.89,4.47-9,4.47-14.41,0-5.76-2.12-11.11-6-15.28,2.84-3.68,4.33-8.32,4.33-13.77,0-6.25-2.22-11.78-6.41-15.97-.03-.03-.07-.07-.1-.1-5.71-5.51-14.06-8.42-24.15-8.42h0Z"/></g><g><path class="cls-1" d="M178.54,116.47c-8.16,0-15.22-2.74-20.41-7.92-2.79-2.79-4.94-6.07-6.22-9.49-2.05-5.6-3.09-11.66-3.09-18.04,0-8.42,1.97-16.92,5.15-22.19,5.17-8.64,13.89-13.41,24.56-13.41,8.01,0,15.27,2.81,20.45,7.9,2.81,2.81,4.96,6.09,6.24,9.51,2.05,5.6,3.09,11.69,3.09,18.11,0,8.33-2.02,17.07-5.15,22.26-5.06,8.43-14.04,13.26-24.63,13.26Zm0-50.77c-6.33,0-6.82,11.28-6.82,14.74,0,10.41,2.32,15.68,6.89,15.68s6.75-5.2,6.75-15.47c0-6.82-1.18-14.96-6.82-14.96Z"/><path class="cls-4" d="M178.54,49.43c7.04,0,13.22,2.4,17.65,6.75,2.4,2.4,4.21,5.16,5.3,8.06,1.89,5.16,2.83,10.75,2.83,16.71,0,7.63-1.82,15.62-4.58,20.19-4.36,7.26-11.98,11.33-21.21,11.33-7.12,0-13.15-2.32-17.58-6.75-2.4-2.4-4.21-5.16-5.3-8.06-1.89-5.16-2.83-10.75-2.83-16.63,0-7.63,1.82-15.54,4.58-20.12,4.43-7.41,11.98-11.48,21.14-11.48m.07,50.7c7.12,0,10.75-6.54,10.75-19.47s-3.78-18.96-10.82-18.96-10.82,6.9-10.82,18.74c0,13,3.7,19.68,10.89,19.68m-.07-58.7c-11.95,0-22.16,5.6-28,15.37-3.52,5.83-5.71,15.12-5.71,24.23,0,6.85,1.12,13.37,3.32,19.38,0,.02,.01,.04,.02,.06,1.48,3.95,3.95,7.72,7.13,10.91,5.95,5.95,13.99,9.1,23.24,9.1,12.04,0,22.27-5.55,28.07-15.21,3.52-5.84,5.72-15.16,5.72-24.31,0-6.89-1.12-13.44-3.32-19.46,0-.02-.01-.04-.02-.06-1.48-3.95-3.95-7.72-7.14-10.91-.02-.02-.03-.03-.05-.05-5.93-5.84-14.19-9.05-23.26-9.05h0Zm.07,50.7c-.56,0-.68,0-1.15-.84-.65-1.18-1.75-4.16-1.75-10.84,0-6.08,1.24-8.88,1.78-9.81,.54-.93,.78-.93,1.04-.93,.53,0,.65,0,1.11,.8,.51,.9,1.71,3.69,1.71,10.16,0,9.48-2.2,11.39-2.22,11.4-.03,.02-.2,.06-.53,.06h0Z"/></g></g><g><g><path class="cls-3" d="M119.54,113.69c-7.49,0-14.64-1.77-19.13-4.73-3.98-2.59-7.09-6.48-8.99-11.22-.51-1.19-.86-2.34-1.38-4.3-.29-1.08-.12-2.24,.49-3.19,.6-.95,1.58-1.6,2.69-1.79l13.13-2.29c-.67-.73-1.05-1.7-1.05-2.7v-12.49c0-.98,.36-1.92,1-2.65l-11.66-1.67c-1.16-.17-2.18-.83-2.81-1.82-.63-.99-.79-2.2-.45-3.32,1.54-5.03,2.99-7.75,5.74-10.75,5.26-5.69,12.96-8.56,22.93-8.56,8.91,0,16.5,2.59,21.37,7.3,3.48,3.48,5.29,8.02,5.29,13.19,0,4.57-1.26,10.03-6.14,14,.54,.38,1.08,.8,1.62,1.26,.03,.02,.05,.05,.08,.07,3.94,3.57,6.11,8.44,6.11,13.72,0,4.56-1.31,8.84-3.69,12.05-2,2.72-5.05,5.17-8.37,6.7-4.27,1.97-10.7,3.2-16.78,3.2Zm-7.11-26.47c.4,.5,.68,1.1,.81,1.78,.35,1.92,.56,2.14,1.01,2.62,1.48,1.54,3.78,1.87,5.44,1.87,1.95,0,5.22-.42,5.22-3.26,0-.9-.23-2.05-1.3-2.49-.96-.32-2.66-.7-5.37-.7-1.9,0-3.91,.07-5.8,.19Zm1.66-19.87c.93,.04,1.89,.06,2.9,.06,6.31,0,6.31-1.93,6.31-2.97,0-.81,0-2.17-3.55-2.17s-4.34,.94-4.97,3.59c-.13,.56-.37,1.06-.7,1.49Z"/><path class="cls-4" d="M120.04,46.21c7.92,0,14.45,2.18,18.59,6.17,2.69,2.69,4.07,6.17,4.07,10.31,0,7.7-4.14,12.49-12.49,14.45,4.43,.65,6.83,1.67,9.37,3.85,3.05,2.76,4.79,6.54,4.79,10.75,0,3.7-1.02,7.12-2.91,9.66-1.6,2.18-4.14,4.21-6.83,5.45-3.78,1.74-9.66,2.83-15.11,2.83-6.54,0-13.07-1.53-16.92-4.07-3.34-2.18-5.88-5.37-7.48-9.37-.44-1.02-.73-1.96-1.23-3.85l15.4-2.69c.44,2.4,.87,3.41,2.03,4.65,1.96,2.03,4.87,3.12,8.35,3.12,5.67,0,9.22-2.83,9.22-7.26,0-2.98-1.45-5.3-3.92-6.25-1.67-.58-3.92-.94-6.75-.94s-6.1,.15-8.93,.44v-12.49c2.47,.29,4.87,.44,7.7,.44,6.9,0,10.31-2.32,10.31-6.97,0-3.92-2.76-6.17-7.55-6.17-5.16,0-7.77,2.03-8.86,6.68l-15.69-2.25c1.38-4.5,2.54-6.68,4.87-9.22,4.43-4.79,11.11-7.26,19.97-7.26m0-8c-11.12,0-19.82,3.31-25.85,9.83-3.19,3.49-4.92,6.7-6.64,12.31-.68,2.23-.36,4.66,.89,6.63,1.25,1.97,3.31,3.3,5.62,3.63l7.23,1.04v11.34l-8.77,1.53c-2.21,.39-4.16,1.69-5.37,3.58-1.21,1.9-1.56,4.21-.98,6.38,.55,2.05,.95,3.38,1.57,4.83,2.21,5.47,5.84,9.97,10.5,13.01,5.07,3.35,13.05,5.37,21.29,5.37,6.72,0,13.62-1.33,18.46-3.57,3.9-1.79,7.51-4.69,9.91-7.96,2.88-3.89,4.47-9,4.47-14.41,0-5.76-2.12-11.11-6-15.28,2.84-3.68,4.33-8.32,4.33-13.77,0-6.25-2.22-11.78-6.41-15.97-.03-.03-.07-.07-.1-.1-5.71-5.51-14.06-8.42-24.15-8.42h0Z"/></g><g><path class="cls-3" d="M175.54,113.47c-8.16,0-15.22-2.74-20.41-7.92-2.79-2.79-4.94-6.07-6.22-9.49-2.05-5.6-3.09-11.66-3.09-18.04,0-8.42,1.97-16.92,5.15-22.19,5.17-8.64,13.89-13.41,24.56-13.41,8.01,0,15.27,2.81,20.45,7.9,2.81,2.81,4.96,6.09,6.24,9.51,2.05,5.6,3.09,11.69,3.09,18.11,0,8.33-2.02,17.07-5.15,22.26-5.06,8.43-14.04,13.26-24.63,13.26Zm0-50.77c-6.33,0-6.82,11.28-6.82,14.74,0,10.41,2.32,15.68,6.89,15.68s6.75-5.2,6.75-15.47c0-6.82-1.18-14.96-6.82-14.96Z"/><path class="cls-4" d="M175.54,46.43c7.04,0,13.22,2.4,17.65,6.75,2.4,2.4,4.21,5.16,5.3,8.06,1.89,5.16,2.83,10.75,2.83,16.71,0,7.63-1.82,15.62-4.58,20.19-4.36,7.26-11.98,11.33-21.21,11.33-7.12,0-13.15-2.32-17.58-6.75-2.4-2.4-4.21-5.16-5.3-8.06-1.89-5.16-2.83-10.75-2.83-16.63,0-7.63,1.82-15.54,4.58-20.12,4.43-7.41,11.98-11.48,21.14-11.48m.07,50.7c7.12,0,10.75-6.54,10.75-19.47s-3.78-18.96-10.82-18.96-10.82,6.9-10.82,18.74c0,13,3.7,19.68,10.89,19.68m-.07-58.7c-11.95,0-22.16,5.6-28,15.37-3.52,5.83-5.71,15.12-5.71,24.23,0,6.85,1.12,13.37,3.32,19.38,0,.02,.01,.04,.02,.06,1.48,3.95,3.95,7.72,7.13,10.91,5.95,5.95,13.99,9.1,23.24,9.1,12.04,0,22.27-5.55,28.07-15.21,3.52-5.84,5.72-15.16,5.72-24.31,0-6.89-1.12-13.44-3.32-19.46,0-.02-.01-.04-.02-.06-1.48-3.95-3.95-7.72-7.14-10.91-.02-.02-.03-.03-.05-.05-5.93-5.84-14.19-9.05-23.26-9.05h0Zm.07,50.7c-.56,0-.68,0-1.15-.84-.65-1.18-1.75-4.16-1.75-10.84,0-6.08,1.24-8.88,1.78-9.81,.54-.93,.78-.93,1.04-.93,.53,0,.65,0,1.11,.8,.51,.9,1.71,3.69,1.71,10.16,0,9.48-2.2,11.39-2.22,11.4-.03,.02-.2,.06-.53,.06h0Z"/></g></g><rect class="cls-2" x="34.42" y="175.12" width="85" height="0"/><rect class="cls-2" x="137.42" y="175.12" width="21" height="0"/></g></g></svg>