<svg width="48" height="61" viewBox="0 0 48 61" fill="none" xmlns="http://www.w3.org/2000/svg">
<g filter="url(#filter0_d_243_10960)">
<path d="M26.7253 8.75781H21.2793V14.9321H26.7253V8.75781Z" fill="#E8944F"/>
<path opacity="0.2" d="M22.6756 14.9321H21.2793V8.75781H23.7616C24.5374 10.5878 23.3816 13.5388 22.6756 14.9321V14.9321Z" fill="white"/>
<path opacity="0.1" d="M26.725 8.75781V14.9321H23.4859C23.2991 14.7453 24.2046 12.7442 24.7556 10.7525C24.914 10.17 25.047 9.59061 25.1103 9.05549C25.1229 8.95422 25.1323 8.85601 25.1386 8.75781H26.7248H26.725Z" fill="black"/>
<path opacity="0.1" d="M26.7251 8.75782V10.6733C25.9811 10.7493 25.3257 10.7715 24.7557 10.7525C24.4833 10.7462 24.2301 10.7303 23.9927 10.705C22.5298 10.5531 21.7225 10.1096 21.2793 9.67271V8.81785C22.2703 9.06796 23.1442 9.15351 23.8947 9.15025C24.3443 9.14698 24.7495 9.10901 25.1105 9.0553C25.5917 8.97935 25.9939 8.86849 26.3137 8.75763H26.7253L26.7251 8.75782Z" fill="black"/>
<path d="M42.7779 16.7939L42.6228 16.9554L41.8281 17.7786L38.7093 21.0081L37.0661 19.4217L34.9636 17.389L34.4064 16.8539L34.2925 16.7432L34.3335 16.6987L38.361 12.5288L42.7779 16.7939Z" fill="#9FADAD"/>
<path opacity="0.1" d="M42.7779 16.7939L42.6227 16.9554C38.2311 13.5421 35.6539 16.4235 34.9636 17.3892C34.84 17.5664 34.7767 17.6773 34.7767 17.6773C34.6469 17.3796 34.5234 17.1075 34.4064 16.8541C34.3811 16.8002 34.3588 16.7496 34.3335 16.6989L38.3609 12.529L42.7779 16.7939V16.7939Z" fill="white"/>
<path opacity="0.1" d="M41.8282 17.7786L38.7094 21.0081L37.066 19.4217C36.5088 18.5383 36.0054 17.7817 36.0054 17.7817C36.0054 17.7817 39.6877 16.3727 41.828 17.7784L41.8282 17.7786Z" fill="black"/>
<path d="M13.7086 16.7432L10.0105 20.3148L9.29181 21.0081L8.64583 20.3401C8.64256 20.3337 5.22314 16.7939 5.22314 16.7939L9.64012 12.529L10.3271 13.2413L11.0617 14.0013L13.7088 16.7432H13.7086Z" fill="#9FADAD"/>
<path opacity="0.1" d="M8.64276 20.3337L5.22314 16.7939L9.64012 12.529L10.3271 13.2413C9.08601 14.6217 6.78421 17.7563 8.64276 20.3337Z" fill="white"/>
<path opacity="0.1" d="M13.7085 16.7432L10.0104 20.3147C9.79828 20.0993 9.61147 19.7637 9.46589 19.2857C8.73129 16.8794 9.97569 15.0588 11.0617 14.0012L13.7087 16.7432H13.7085Z" fill="black"/>
<path d="M43.9992 32.0835C43.9992 43.1273 35.0468 52.0819 23.9985 52.0819C22.4305 52.0819 20.9055 51.9007 19.4419 51.5585C17.0422 51.0011 14.8082 50.0086 12.8278 48.6717C7.88358 45.3342 4.50981 39.8464 4.05447 33.5473C4.01822 33.0647 4 32.5752 4 32.0835C4 22.1635 11.2236 13.9317 20.6926 12.357C21.7688 12.1734 22.8724 12.0829 23.9985 12.0829C29.024 12.0829 33.6125 13.9341 37.1222 16.9907C37.1495 17.0133 37.1767 17.0382 37.2016 17.0632C41.3708 20.7248 43.9992 26.0972 43.9992 32.0835Z" fill="#FFEE53"/>
<path opacity="0.1" d="M12.8284 48.6717C7.50287 45.0779 4.00098 38.9892 4.00098 32.0836C4.00098 22.1637 11.2232 13.9314 20.6936 12.3579C21.6434 24.1047 16.1847 40.1291 12.8286 48.6717H12.8284Z" fill="white"/>
<path opacity="0.1" d="M44.0002 32.0836C44.0002 43.1275 35.046 52.0817 23.9991 52.0817C22.4317 52.0817 20.9057 51.9012 19.4429 51.5592C25.1484 45.2837 37.2278 30.3992 37.1232 16.9901C41.3375 20.6565 44.0002 26.0582 44.0002 32.0836V32.0836Z" fill="black"/>
<path d="M39.3552 32.5112C39.3552 38.7867 35.5905 44.182 30.1952 46.563C28.2987 47.4022 26.2025 47.8675 23.9989 47.8675C23.6189 47.8675 23.2422 47.8548 22.8686 47.8264C14.9181 47.247 8.64258 40.6105 8.64258 32.5114C8.64258 32.467 8.64258 32.4195 8.64584 32.3752C8.69341 26.7203 11.7994 21.7935 16.3873 19.1687L16.6247 19.0358C18.8126 17.839 21.3267 17.155 23.9989 17.155C26.3293 17.155 28.5425 17.6742 30.5215 18.6052C30.5594 18.6242 30.6007 18.6432 30.6386 18.6622C35.7363 21.1065 39.2729 26.2865 39.3521 32.2992C39.3554 32.3688 39.3554 32.4417 39.3554 32.5114L39.3552 32.5112Z" fill="white"/>
<path d="M39.3521 32.299C39.2698 38.4827 35.5272 43.7831 30.1954 46.1355C28.2988 46.9747 26.2026 47.44 23.9991 47.44C23.6191 47.44 23.2424 47.4273 22.8688 47.3987C15.0134 46.8256 8.79483 40.3412 8.646 32.3748C8.69356 26.7199 11.7996 21.7932 16.3874 19.1684L16.6249 19.0355C18.8128 17.8386 21.3269 17.1547 23.9991 17.1547C26.3294 17.1547 28.5426 17.6739 30.5216 18.6049C30.5596 18.6239 30.6008 18.6428 30.6388 18.6618C35.7365 21.1061 39.2731 26.2861 39.3523 32.2988L39.3521 32.299Z" fill="#EDEDED"/>
<path opacity="0.1" d="M39.3554 32.0836C39.3554 32.1563 39.3554 32.2261 39.3521 32.2988C39.2729 26.2861 35.7363 21.1061 30.6386 18.6618C30.6007 18.6428 30.5594 18.6238 30.5215 18.6048C28.5426 17.674 26.3293 17.1546 23.9989 17.1546C21.3265 17.1546 18.8126 17.8386 16.6247 19.0354L16.3873 19.1683C11.7994 21.7931 8.69321 26.7199 8.64584 32.3748C8.64258 32.2766 8.64258 32.1816 8.64258 32.0834C8.64258 26.3714 11.7613 21.3879 16.3873 18.7408C18.6321 17.4617 21.2285 16.7271 23.9989 16.7271C26.3293 16.7271 28.5425 17.2463 30.5215 18.1773C35.7426 20.628 39.3554 25.9347 39.3554 32.0834V32.0836Z" fill="black"/>
<path opacity="0.2" d="M22.8683 47.3989C15.0129 46.8258 8.79434 40.3414 8.64551 32.375C8.69307 26.7201 11.7991 21.7934 16.387 19.1686L16.6244 19.0356C22.7194 26.5429 23.226 39.4864 22.8683 47.3989Z" fill="white"/>
<path opacity="0.1" d="M39.3521 32.299C39.2698 38.4827 35.5272 43.7831 30.1953 46.1355C31.2466 41.0474 33.14 29.1738 30.6386 18.662C35.7362 21.1063 39.2728 26.2862 39.3521 32.299V32.299Z" fill="black"/>
<path d="M26.4369 0.639655C25.7183 0.23112 24.8887 0 24.002 0C22.783 0 21.6653 0.440182 20.8042 1.16826C19.7276 2.07701 19.0469 3.43534 19.0469 4.95191C19.0469 7.5134 20.991 9.62206 23.4859 9.88176C23.6568 9.89767 23.8279 9.90707 24.002 9.90707C24.5372 9.90707 25.0533 9.82153 25.5376 9.66329C27.5229 9.01731 28.9539 7.15243 28.9539 4.95191C28.9539 3.10276 27.9409 1.48799 26.4368 0.639463L26.4369 0.639655ZM25.9114 8.24493C25.3479 8.57099 24.6987 8.7578 24.0022 8.7578C23.7679 8.7578 23.5431 8.73555 23.3215 8.69451C21.542 8.37478 20.1965 6.82004 20.1965 4.95191C20.1965 3.90391 20.6175 2.96025 21.3048 2.27322C21.9918 1.57986 22.9481 1.15234 24.0024 1.15234C25.0568 1.15234 25.9243 1.54169 26.6019 2.17828C27.3428 2.8749 27.8051 3.8596 27.8051 4.95191C27.8051 6.3578 27.0421 7.58303 25.9116 8.24474L25.9114 8.24493Z" fill="#E8944F"/>
<path opacity="0.2" d="M23.4859 9.88196C20.991 9.62226 19.0469 7.5136 19.0469 4.95211C19.0469 3.43554 19.7276 2.07721 20.8042 1.16846C20.9814 1.54841 21.1492 1.91571 21.3044 2.27342C20.6173 2.96045 20.1961 3.90411 20.1961 4.95211C20.1961 6.82024 21.5418 8.37479 23.3211 8.69471C23.3908 9.10938 23.4477 9.50526 23.4857 9.88196H23.4859Z" fill="white"/>
<path opacity="0.1" d="M28.9539 4.95209C28.9539 7.15262 27.5229 9.0175 25.5376 9.66348C25.6674 9.21064 25.791 8.73574 25.908 8.24492C27.0415 7.58321 27.8045 6.3578 27.8045 4.95209C27.8045 3.85979 27.3422 2.87508 26.6013 2.17846C26.576 1.656 26.5254 1.13986 26.4368 0.639648C27.9407 1.48817 28.9539 3.10294 28.9539 4.95209V4.95209Z" fill="black"/>
<path d="M24.5072 21.9888C24.5072 22.2696 24.2795 22.4973 23.9987 22.4973C23.7179 22.4973 23.4902 22.2696 23.4902 21.9888V18.6785C23.4902 18.3977 23.7179 18.17 23.9987 18.17C24.2795 18.17 24.5072 18.3977 24.5072 18.6785V21.9888Z" fill="#393D3D"/>
<path d="M19.2842 23.116C19.4246 23.3592 19.3413 23.6701 19.0981 23.8105C18.8549 23.9509 18.544 23.8676 18.4036 23.6244L16.7484 20.7576C16.608 20.5144 16.6912 20.2035 16.9344 20.0631C17.1776 19.9227 17.4886 20.0059 17.629 20.2491L19.2842 23.116Z" fill="#393D3D"/>
<path d="M15.3244 26.7036C15.5676 26.844 15.6508 27.1549 15.5104 27.3981C15.37 27.6413 15.0591 27.7246 14.8159 27.5842L11.9491 25.9289C11.7059 25.7885 11.6226 25.4776 11.763 25.2344C11.9034 24.9912 12.2144 24.908 12.4576 25.0484L15.3244 26.7036Z" fill="#393D3D"/>
<path d="M13.6889 31.7905C13.9697 31.7905 14.1973 32.0182 14.1973 32.299C14.1973 32.5798 13.9697 32.8075 13.6889 32.8075H10.3786C10.0978 32.8075 9.87012 32.5798 9.87012 32.299C9.87012 32.0182 10.0978 31.7905 10.3786 31.7905H13.6889Z" fill="#393D3D"/>
<path d="M14.8159 37.0137C15.0591 36.8733 15.37 36.9565 15.5104 37.1997C15.6508 37.4429 15.5676 37.7538 15.3244 37.8942L12.4576 39.5494C12.2144 39.6898 11.9034 39.6066 11.763 39.3634C11.6226 39.1202 11.7059 38.8093 11.9491 38.6689L14.8159 37.0137V37.0137Z" fill="#393D3D"/>
<path d="M18.4036 40.9736C18.544 40.7304 18.8549 40.6471 19.0981 40.7875C19.3413 40.9279 19.4246 41.2388 19.2842 41.482L17.629 44.3489C17.4886 44.5921 17.1776 44.6753 16.9344 44.5349C16.6912 44.3945 16.608 44.0836 16.7484 43.8404L18.4036 40.9736Z" fill="#393D3D"/>
<path d="M23.4902 42.609C23.4902 42.3283 23.7179 42.1006 23.9987 42.1006C24.2795 42.1006 24.5072 42.3283 24.5072 42.609V45.9193C24.5072 46.2001 24.2795 46.4278 23.9987 46.4278C23.7179 46.4278 23.4902 46.2001 23.4902 45.9193V42.609V42.609Z" fill="#393D3D"/>
<path d="M28.7137 41.482C28.5733 41.2388 28.6566 40.9279 28.8998 40.7875C29.143 40.6471 29.4539 40.7304 29.5943 40.9736L31.2495 43.8404C31.3899 44.0836 31.3067 44.3945 31.0635 44.5349C30.8203 44.6753 30.5094 44.5921 30.369 44.3489L28.7137 41.482Z" fill="#393D3D"/>
<path d="M32.6732 37.8942C32.43 37.7538 32.3468 37.4429 32.4872 37.1997C32.6276 36.9565 32.9385 36.8733 33.1817 37.0137L36.0485 38.6689C36.2917 38.8093 36.375 39.1202 36.2346 39.3634C36.0942 39.6066 35.7833 39.6898 35.5401 39.5494L32.6732 37.8942V37.8942Z" fill="#393D3D"/>
<path d="M34.3088 32.8073C34.028 32.8073 33.8003 32.5796 33.8003 32.2988C33.8003 32.018 34.028 31.7903 34.3088 31.7903H37.619C37.8998 31.7903 38.1275 32.018 38.1275 32.2988C38.1275 32.5796 37.8998 32.8073 37.619 32.8073H34.3088Z" fill="#393D3D"/>
<path d="M33.1817 27.5842C32.9385 27.7246 32.6276 27.6413 32.4872 27.3981C32.3468 27.1549 32.43 26.844 32.6732 26.7036L35.5401 25.0484C35.7833 24.908 36.0942 24.9912 36.2346 25.2344C36.375 25.4776 36.2917 25.7885 36.0485 25.9289L33.1817 27.5842Z" fill="#393D3D"/>
<path d="M29.5943 23.6244C29.4539 23.8676 29.143 23.9509 28.8998 23.8105C28.6566 23.6701 28.5733 23.3592 28.7137 23.116L30.369 20.2491C30.5094 20.0059 30.8203 19.9227 31.0635 20.0631C31.3067 20.2035 31.3899 20.5144 31.2495 20.7576L29.5943 23.6244Z" fill="#393D3D"/>
<path d="M31.6486 27.274L30.1004 28.5374L27.8523 30.3739L24.059 33.4769C23.7709 33.6637 23.3307 33.5149 23.0204 33.1412C22.9855 33.1 22.9539 33.0557 22.9222 33.0083C22.6119 32.5365 22.6215 31.9856 22.9412 31.7766L27.2949 29.5254L31.6486 27.2742V27.274Z" fill="#393D3D"/>
<path opacity="0.2" d="M31.6484 27.274L30.1002 28.5374C27.8014 29.6171 24.3534 32.1406 23.0204 33.1412C22.9855 33.1 22.9539 33.0557 22.9222 33.0083C22.6119 32.5365 22.6215 31.9856 22.9412 31.7766L27.2949 29.5254L31.6486 27.2742L31.6484 27.274Z" fill="white"/>
</g>
<defs>
<filter id="filter0_d_243_10960" x="0" y="0" width="48" height="60.0819" filterUnits="userSpaceOnUse" color-interpolation-filters="sRGB">
<feFlood flood-opacity="0" result="BackgroundImageFix"/>
<feColorMatrix in="SourceAlpha" type="matrix" values="0 0 0 0 0 0 0 0 0 0 0 0 0 0 0 0 0 0 127 0" result="hardAlpha"/>
<feOffset dy="4"/>
<feGaussianBlur stdDeviation="2"/>
<feComposite in2="hardAlpha" operator="out"/>
<feColorMatrix type="matrix" values="0 0 0 0 0 0 0 0 0 0 0 0 0 0 0 0 0 0 0.25 0"/>
<feBlend mode="normal" in2="BackgroundImageFix" result="effect1_dropShadow_243_10960"/>
<feBlend mode="normal" in="SourceGraphic" in2="effect1_dropShadow_243_10960" result="shape"/>
</filter>
</defs>
</svg>
