<svg width="30" height="30" viewBox="0 0 30 30" fill="none" xmlns="http://www.w3.org/2000/svg">
<path d="M0 15C0 6.71573 6.71573 0 15 0C23.2843 0 30 6.71573 30 15C30 23.2843 23.2843 30 15 30C6.71573 30 0 23.2843 0 15Z" fill="#474D41"/>
<path fill-rule="evenodd" clip-rule="evenodd" d="M15 4.5C15 4.30109 15.079 4.11032 15.2197 3.96967C15.3603 3.82902 15.5511 3.75 15.75 3.75C17.975 3.75 20.1501 4.4098 22.0002 5.64597C23.8502 6.88213 25.2922 8.63914 26.1436 10.6948C26.9951 12.7505 27.2179 15.0125 26.7838 17.1948C26.3498 19.3771 25.2783 21.3816 23.705 22.955C22.1316 24.5283 20.1271 25.5998 17.9448 26.0338C15.7625 26.4679 13.5005 26.2451 11.4448 25.3936C9.38914 24.5422 7.63213 23.1002 6.39597 21.2502C5.1598 19.4001 4.5 17.225 4.5 15C4.5 14.8011 4.57902 14.6103 4.71967 14.4697C4.86032 14.329 5.05109 14.25 5.25 14.25C5.44891 14.25 5.63968 14.329 5.78033 14.4697C5.92098 14.6103 6 14.8011 6 15C6 16.9284 6.57183 18.8134 7.64317 20.4168C8.71452 22.0202 10.2373 23.2699 12.0188 24.0078C13.8004 24.7458 15.7608 24.9389 17.6521 24.5627C19.5434 24.1865 21.2807 23.2579 22.6443 21.8943C24.0079 20.5307 24.9365 18.7934 25.3127 16.9021C25.6889 15.0108 25.4958 13.0504 24.7578 11.2688C24.0199 9.48726 22.7702 7.96452 21.1668 6.89317C19.5634 5.82183 17.6784 5.25 15.75 5.25C15.5511 5.25 15.3603 5.17098 15.2197 5.03033C15.079 4.88968 15 4.69891 15 4.5Z" fill="#FFFFFF"/>
<path d="M12 4.875C12 5.17337 11.8815 5.45952 11.6705 5.6705C11.4595 5.88147 11.1734 6 10.875 6C10.5766 6 10.2905 5.88147 10.0795 5.6705C9.86853 5.45952 9.75 5.17337 9.75 4.875C9.75 4.57663 9.86853 4.29048 10.0795 4.0795C10.2905 3.86853 10.5766 3.75 10.875 3.75C11.1734 3.75 11.4595 3.86853 11.6705 4.0795C11.8815 4.29048 12 4.57663 12 4.875ZM8.25 7.125C8.25 7.42337 8.13147 7.70952 7.9205 7.9205C7.70952 8.13147 7.42337 8.25 7.125 8.25C6.82663 8.25 6.54048 8.13147 6.3295 7.9205C6.11853 7.70952 6 7.42337 6 7.125C6 6.82663 6.11853 6.54048 6.3295 6.3295C6.54048 6.11853 6.82663 6 7.125 6C7.42337 6 7.70952 6.11853 7.9205 6.3295C8.13147 6.54048 8.25 6.82663 8.25 7.125ZM6 10.875C6 11.1734 5.88147 11.4595 5.6705 11.6705C5.45952 11.8815 5.17337 12 4.875 12C4.57663 12 4.29048 11.8815 4.0795 11.6705C3.86853 11.4595 3.75 11.1734 3.75 10.875C3.75 10.5766 3.86853 10.2905 4.0795 10.0795C4.29048 9.86853 4.57663 9.75 4.875 9.75C5.17337 9.75 5.45952 9.86853 5.6705 10.0795C5.88147 10.2905 6 10.5766 6 10.875Z" fill="#FFFFFF"/>
<path fill-rule="evenodd" clip-rule="evenodd" d="M8.9205 16.836C9.0096 16.6581 9.02442 16.4522 8.96169 16.2634C8.89896 16.0747 8.76382 15.9186 8.58599 15.8295L5.58599 14.3295C5.40838 14.2422 5.20346 14.2286 5.0159 14.2918C4.82834 14.3549 4.67333 14.4896 4.58467 14.6666C4.496 14.8435 4.48087 15.0483 4.54255 15.2363C4.60424 15.4244 4.73775 15.5804 4.91399 15.6705L7.91399 17.1705C8.09182 17.2596 8.29777 17.2744 8.48652 17.2117C8.67527 17.1489 8.83138 17.0138 8.9205 16.836Z" fill="#FFFFFF"/>
<path fill-rule="evenodd" clip-rule="evenodd" d="M5.78099 14.469C5.85084 14.5387 5.90625 14.6214 5.94406 14.7126C5.98187 14.8037 6.00133 14.9013 6.00133 15C6.00133 15.0987 5.98187 15.1963 5.94406 15.2874C5.90625 15.3786 5.85084 15.4613 5.78099 15.531L3.53099 17.781C3.39036 17.9218 3.19954 18.001 3.00052 18.0012C2.8015 18.0013 2.61057 17.9224 2.46974 17.7817C2.32891 17.6411 2.24971 17.4503 2.24957 17.2513C2.24943 17.0523 2.32836 16.8613 2.46899 16.7205L4.71899 14.4705C4.78866 14.4007 4.87142 14.3452 4.96254 14.3074C5.05366 14.2696 5.15134 14.2502 5.24999 14.2502C5.34864 14.2502 5.44632 14.2696 5.53744 14.3074C5.62856 14.3452 5.71132 14.4007 5.78099 14.4705V14.469ZM15.75 9.75C15.9489 9.75 16.1397 9.82902 16.2803 9.96967C16.421 10.1103 16.5 10.3011 16.5 10.5V15C16.5 15.1989 16.421 15.3897 16.2803 15.5303C16.1397 15.671 15.9489 15.75 15.75 15.75C15.5511 15.75 15.3603 15.671 15.2197 15.5303C15.079 15.3897 15 15.1989 15 15V10.5C15 10.3011 15.079 10.1103 15.2197 9.96967C15.3603 9.82902 15.5511 9.75 15.75 9.75Z" fill="#FFFFFF"/>
<path fill-rule="evenodd" clip-rule="evenodd" d="M21 15C21 15.1989 20.921 15.3897 20.7803 15.5303C20.6397 15.671 20.4489 15.75 20.25 15.75H15.75C15.5511 15.75 15.3603 15.671 15.2197 15.5303C15.079 15.3897 15 15.1989 15 15C15 14.8011 15.079 14.6103 15.2197 14.4697C15.3603 14.329 15.5511 14.25 15.75 14.25H20.25C20.4489 14.25 20.6397 14.329 20.7803 14.4697C20.921 14.6103 21 14.8011 21 15Z" fill="#FFFFFF"/>
</svg>
