<svg width="25" height="25" viewBox="0 0 25 25" fill="none" xmlns="http://www.w3.org/2000/svg">
<g clip-path="url(#clip0_828_6115)">
<g clip-path="url(#clip1_828_6115)">
<path d="M20.8288 11.5491H15.4229V17.2232H20.8288V11.5491Z" fill="#5BB9CA"/>
<path d="M9.08612 10.3788H4.23767V18.0069H9.08612V10.3788Z" fill="#5BB9CA"/>
<path d="M21.9437 6.95398H3.02557V11.2592H21.9437V6.95398Z" fill="#EE7541"/>
<path d="M21.9949 7.82362C21.9949 7.04525 21.9949 6.50844 21.9949 6.36887C21.9847 5.48313 21.8721 5.01074 20.6651 5C20.3992 5 4.59569 5 4.32974 5C3.12786 5.01074 3.01023 5.48313 3 6.36887C3 6.50844 3 7.04525 3 7.82362H21.9949Z" fill="#F4C93D"/>
<path d="M21.9949 12C21.9949 11.125 21.9949 10.2607 21.9949 9.47699H3C3 10.2554 3 11.1196 3 12C3 14.7055 3 17.2983 3 17.6311C3.01023 18.5169 3.12786 18.9893 4.32974 19C4.59569 19 20.3992 19 20.6651 19C21.8721 18.9893 21.9847 18.5169 21.9949 17.6311C21.9949 17.3037 21.9949 14.7109 21.9949 12ZM8.5747 17.0514H4.64172V16.0851H8.57981V17.0514H8.5747ZM8.5747 14.7431H4.64172V13.7768H8.57981V14.7431H8.5747ZM8.5747 12.4348H4.64172V11.4686H8.57981V12.4348H8.5747ZM20.5168 16.4985H15.7911V12.9179H20.5168V16.4985Z" fill="#F4C93D"/>
</g>
<path d="M23.7245 19.3125C23.9398 19.1062 23.9398 18.7717 23.7245 18.5653C23.5091 18.359 23.16 18.359 22.9447 18.5653L20.6827 20.7327C20.4674 20.939 20.4674 21.2735 20.6827 21.4799C20.898 21.6862 21.2471 21.6862 21.4625 21.4799L23.7245 19.3125Z" fill="#EE7447"/>
<path d="M22.9384 21.4777C23.1537 21.684 23.5028 21.684 23.7182 21.4777C23.9335 21.2714 23.9335 20.9369 23.7182 20.7306L21.4562 18.5632C21.2408 18.3569 20.8917 18.3569 20.6764 18.5632C20.4611 18.7695 20.4611 19.104 20.6764 19.3103L22.9384 21.4777Z" fill="#EE7447"/>
</g>
<defs>
<clipPath id="clip0_828_6115">
<rect width="25" height="25" fill="white"/>
</clipPath>
<clipPath id="clip1_828_6115">
<rect width="19" height="14" fill="white" transform="translate(3 5)"/>
</clipPath>
</defs>
</svg>
