<svg width="25" height="25" viewBox="0 0 25 25" fill="none" xmlns="http://www.w3.org/2000/svg">
<g clip-path="url(#clip0_828_6119)">
<path d="M19.0636 15.2884C19.0636 11.6409 16.0056 8.68414 12.2332 8.68414C8.46079 8.68414 5.40274 11.6409 5.40274 15.2884C5.40274 18.9358 8.46079 21.8926 12.2332 21.8926C16.0056 21.8926 19.0636 18.9358 19.0636 15.2884Z" fill="#EF7740"/>
<path d="M14.6301 4.28323L15.6809 2H7.84094L8.96853 4.28323H14.6301Z" fill="#F4C336"/>
<path d="M18.1604 8.9353C17.145 7.93639 16.0705 7.13155 14.6714 5.56183H8.92129C7.49852 7.48545 6.37684 8.18183 5.39685 9.34628C3.91505 10.7961 3 12.7312 3 14.8603C3 19.3582 7.03214 23 12.003 23C16.9738 23 21.0059 19.3582 21.0059 14.8603C21.0059 12.52 19.9078 10.4194 18.1604 8.9353Z" fill="#F4C336"/>
<path d="M14.6773 4.70565C14.6773 4.386 14.5887 4.20905 14.3408 4.20905H13.467C11.8081 4.20905 10.3736 4.20905 9.56478 4.20905C9.41719 4.20905 9.28141 4.20905 9.17515 4.20905C8.96852 4.20905 8.85635 4.386 8.85635 4.70565C8.85635 5.12234 8.86226 4.96822 8.85635 5.21937C8.85635 5.53903 8.96852 5.71598 9.17515 5.71598H9.55888C10.3677 5.71598 11.8022 5.71598 13.4611 5.71598C13.9807 5.71598 14.3054 5.71598 14.3349 5.71598C14.5828 5.71598 14.6714 5.53903 14.6714 5.21937C14.6714 5.00247 14.6714 5.08809 14.6714 4.83693C14.6714 4.79127 14.6714 4.7456 14.6714 4.70565H14.6773Z" fill="#5BB9CA"/>
<path d="M10.6097 17.5716H9.53527C9.35226 17.5716 9.28141 17.4974 9.28141 17.3262V16.6812H8.50805C8.33094 16.6812 8.25419 16.6127 8.25419 16.4357V15.7736C8.25419 15.6024 8.33094 15.5281 8.50805 15.5281H8.88587L8.1007 14.5464C7.89407 14.2838 7.89407 14.0041 7.89407 13.6559V12.891C7.89407 12.7198 7.97082 12.6456 8.14793 12.6456H9.24599C9.4231 12.6456 9.49985 12.7198 9.49985 12.891V13.8785C9.49985 13.9755 9.50575 14.0555 9.55888 14.1582L9.88358 14.6034C9.94261 14.6776 9.98984 14.7176 10.0666 14.7176H10.1492C10.226 14.7176 10.2791 14.6834 10.3322 14.6034L10.6392 14.1639C10.7042 14.0669 10.6983 13.9813 10.6983 13.8842V12.891C10.6983 12.7198 10.7691 12.6456 10.9521 12.6456H11.9912C12.1683 12.6456 12.245 12.7198 12.245 12.891V13.6673C12.245 14.0155 12.2391 14.2952 12.0384 14.5578L11.2591 15.5281H11.6369C11.814 15.5281 11.8908 15.5966 11.8908 15.7736V16.4357C11.8908 16.6127 11.814 16.6812 11.6369 16.6812H10.8636V17.3262C10.8636 17.4974 10.7868 17.5716 10.6097 17.5716Z" fill="white"/>
<path d="M15.1319 17.6744C13.3903 17.6744 12.9652 17.115 12.9652 16.2759V13.9413C12.9652 13.1079 13.3903 12.5371 15.1319 12.5371C16.8734 12.5371 17.2926 13.1079 17.2926 13.9413V16.2759C17.2926 17.1093 16.8734 17.6744 15.1319 17.6744ZM15.1319 16.3558C15.6218 16.3558 15.6986 16.2188 15.6986 16.0362V14.1925C15.6986 14.0155 15.6218 13.8785 15.1319 13.8785C14.6419 13.8785 14.5651 14.0155 14.5651 14.1925V16.0362C14.5651 16.2188 14.6478 16.3558 15.1319 16.3558Z" fill="white"/>
</g>
<defs>
<clipPath id="clip0_828_6119">
<rect width="18" height="21" fill="white" transform="translate(3 2)"/>
</clipPath>
</defs>
</svg>
