<svg width="25" height="25" viewBox="0 0 25 25" fill="none" xmlns="http://www.w3.org/2000/svg">
<g clip-path="url(#clip0_828_6117)">
<path d="M23.4128 8.40186H1.80355V22.1995H23.4128V8.40186Z" fill="white"/>
<path d="M23.9876 6.10115C23.9876 5.37629 23.3386 4.90985 22.6711 4.90985C22.3991 4.90985 2.41548 4.96028 2.30422 4.96028C1.45741 4.98549 1.01855 5.83012 1 6.15788C0.987641 6.42892 1.08036 17.762 1.03091 21.5692C1.01855 22.502 1.66757 22.937 2.32277 22.9874C2.65037 23.0126 20.384 23 22.5351 22.9874C23.419 22.9748 24.0062 22.3949 24.0062 21.5187C24.0062 17.6297 23.9938 6.81972 23.9938 6.10115H23.9876ZM22.6711 21.7267C21.7377 21.7267 2.56383 21.7961 2.38458 21.7898C2.21151 21.7898 2.11879 21.733 2.10643 21.5566C2.10643 21.4998 2.06934 9.34099 2.07552 9.28426C2.08788 9.10777 2.18678 9.05735 2.35367 9.05104C2.53292 9.05104 21.7068 9.02583 22.6402 9.01953C22.7823 9.01953 22.9059 9.13929 22.8998 9.32208C22.8998 9.39141 22.9245 21.3486 22.9245 21.4242C22.9368 21.607 22.807 21.733 22.6649 21.733L22.6711 21.7267Z" fill="#5EBBCC"/>
<path d="M20.316 3.9833C20.316 3.55468 20.316 3.29625 20.316 3.27734C20.3037 3.06933 20.2357 3.01891 20.0503 3C20.0194 3 18.0538 3 18.029 3C17.8621 3 17.7756 3.06933 17.7632 3.27734C17.7632 3.29625 17.7632 6.42893 17.7632 6.44784C17.7818 6.65585 17.8436 6.70627 18.029 6.72518C18.0538 6.72518 20.0255 6.72518 20.0503 6.72518C20.2172 6.72518 20.2975 6.65585 20.316 6.44784C20.316 6.42893 20.316 3.9833 20.316 3.9833Z" fill="#30526D"/>
<path d="M7.12551 3.9833C7.12551 3.55468 7.12551 3.29625 7.12551 3.27734C7.11315 3.06933 7.04515 3.01891 6.85972 3C6.835 3 4.86321 3 4.83849 3C4.6716 3 4.59124 3.06933 4.5727 3.27734C4.5727 3.29625 4.5727 6.42893 4.5727 6.44784C4.59124 6.65585 4.65306 6.70627 4.83849 6.72518C4.86321 6.72518 6.835 6.72518 6.85972 6.72518C7.02661 6.72518 7.11315 6.65585 7.12551 6.44784C7.12551 6.42893 7.12551 3.9833 7.12551 3.9833Z" fill="#30526D"/>
<path d="M7.44074 14.9824V14.8437C7.44074 14.5034 7.38511 14.3206 7.23676 14.3206C7.21822 14.3206 7.02661 14.3206 6.71137 14.3206C5.71002 14.3206 4.85085 14.3206 4.36254 14.3206C4.26982 14.3206 4.18947 14.3206 4.12765 14.3206C4.00403 14.3206 3.93604 14.5034 3.93604 14.8437C3.93604 15.2786 3.93604 15.1211 3.93604 15.3795C3.93604 15.7199 4.00403 15.9027 4.12765 15.9027H4.36254C4.85085 15.9027 5.71621 15.9027 6.71137 15.9027H7.23676C7.38511 15.9027 7.44074 15.7136 7.44074 15.3795C7.44074 15.1526 7.44074 15.2408 7.44074 14.9761V14.9824Z" fill="#F4C336"/>
<path d="M11.9839 14.9824C11.9839 14.932 11.9839 14.8878 11.9839 14.8437C11.9839 14.5034 11.9282 14.3206 11.7799 14.3206C11.7614 14.3206 11.5697 14.3206 11.2545 14.3206C10.2532 14.3206 9.39398 14.3206 8.90567 14.3206H8.67697C8.55334 14.3206 8.48535 14.5034 8.48535 14.8437C8.48535 15.2849 8.48535 15.1211 8.48535 15.3858C8.48535 15.7262 8.55334 15.909 8.68315 15.909C8.74496 15.909 8.82531 15.909 8.91185 15.909C9.40016 15.909 10.2655 15.909 11.2607 15.909H11.7861C11.9344 15.909 11.9901 15.7199 11.9901 15.3858C11.9901 15.1589 11.9901 15.2471 11.9901 14.9824H11.9839Z" fill="#F4C336"/>
<path d="M16.5208 14.9824C16.5208 14.932 16.5208 14.8878 16.5208 14.8437C16.5208 14.5034 16.4652 14.3206 16.3169 14.3206C16.2983 14.3206 16.1067 14.3206 15.7915 14.3206C14.7901 14.3206 13.9309 14.3206 13.4426 14.3206C13.3561 14.3206 13.2757 14.3206 13.2077 14.3206C13.0841 14.3206 13.0161 14.5034 13.0161 14.8437C13.0161 15.2786 13.0161 15.1211 13.0161 15.3795C13.0161 15.7199 13.0841 15.9027 13.2077 15.9027H13.4426C13.9309 15.9027 14.7901 15.9027 15.7915 15.9027H16.3169C16.4652 15.9027 16.5208 15.7136 16.5208 15.3795C16.5208 15.1526 16.5208 15.2408 16.5208 14.9761V14.9824Z" fill="#F4C336"/>
<path d="M21.064 14.9824V14.8437C21.064 14.5034 21.0083 14.3206 20.86 14.3206C20.8414 14.3206 20.6498 14.3206 20.3346 14.3206C19.3332 14.3206 18.4741 14.3206 17.9858 14.3206C17.893 14.3206 17.8127 14.3206 17.7509 14.3206C17.6272 14.3206 17.5593 14.5034 17.5593 14.8437C17.5593 15.2786 17.5593 15.1211 17.5654 15.3795C17.5654 15.7199 17.6334 15.9027 17.7571 15.9027H17.9919C18.4802 15.9027 19.3456 15.9027 20.3408 15.9027C20.656 15.9027 20.8476 15.9027 20.8662 15.9027C21.0145 15.9027 21.0701 15.7136 21.0701 15.3795C21.0701 15.1463 21.0701 15.2471 21.0701 14.9761L21.064 14.9824Z" fill="#F4C336"/>
<path d="M7.44074 17.8882V17.7495C7.44074 17.4091 7.38511 17.2263 7.23676 17.2263C7.21822 17.2263 7.02661 17.2263 6.71137 17.2263C5.71002 17.2263 4.85085 17.2263 4.36254 17.2263H4.12765C4.00403 17.2263 3.93604 17.4091 3.93604 17.7495C3.93604 18.1907 3.93604 18.0268 3.93604 18.2916C3.93604 18.6256 4.00403 18.8147 4.12765 18.8084C4.18947 18.8084 4.26982 18.8084 4.36254 18.8084C4.85085 18.8084 5.71621 18.8084 6.71137 18.8084C7.02661 18.8084 7.21822 18.8084 7.23676 18.8084C7.38511 18.8084 7.44074 18.6193 7.44074 18.2853C7.44074 18.052 7.44074 18.1466 7.44074 17.8818V17.8882Z" fill="#EE7447"/>
<path d="M11.9839 17.8882C11.9839 17.8377 11.9839 17.7936 11.9839 17.7495C11.9839 17.4091 11.9282 17.2263 11.7799 17.2263C11.7614 17.2263 11.5697 17.2263 11.2545 17.2263C10.2532 17.2263 9.39398 17.2263 8.90567 17.2263H8.67697C8.55334 17.2263 8.48535 17.4091 8.48535 17.7495C8.48535 18.1907 8.48535 18.0268 8.48535 18.2916C8.48535 18.6256 8.55334 18.8147 8.68315 18.8084C8.74496 18.8084 8.82531 18.8084 8.91185 18.8084C9.40016 18.8084 10.2655 18.8084 11.2607 18.8084C11.5759 18.8084 11.7675 18.8084 11.7861 18.8084C11.9344 18.8084 11.9901 18.6193 11.9901 18.2853C11.9901 18.052 11.9901 18.1466 11.9901 17.8818L11.9839 17.8882Z" fill="#EE7447"/>
<path d="M16.5208 17.8882C16.5208 17.8377 16.5208 17.7936 16.5208 17.7495C16.5208 17.4091 16.4652 17.2263 16.3169 17.2263C16.2983 17.2263 16.1067 17.2263 15.7915 17.2263C14.7901 17.2263 13.9309 17.2263 13.4426 17.2263H13.2077C13.0841 17.2263 13.0161 17.4091 13.0161 17.7495C13.0161 18.1907 13.0161 18.0268 13.0161 18.2916C13.0161 18.6256 13.0841 18.8147 13.2077 18.8084C13.2696 18.8084 13.3499 18.8084 13.4426 18.8084C13.9309 18.8084 14.7901 18.8084 15.7915 18.8084C16.1067 18.8084 16.2983 18.8084 16.3169 18.8084C16.4652 18.8084 16.5208 18.6193 16.5208 18.2853C16.5208 18.052 16.5208 18.1466 16.5208 17.8818V17.8882Z" fill="#EE7447"/>
<path d="M16.5208 12.0829C16.5208 12.0325 16.5208 11.9884 16.5208 11.9442C16.5208 11.6039 16.4652 11.4211 16.3169 11.4211C16.2983 11.4211 16.1067 11.4211 15.7915 11.4211C14.7901 11.4211 13.9309 11.4211 13.4426 11.4211H13.2077C13.0841 11.4211 13.0161 11.6039 13.0161 11.9442C13.0161 12.3855 13.0161 12.2216 13.0161 12.4863C13.0161 12.8267 13.0841 13.0095 13.2077 13.0095C13.2696 13.0095 13.3499 13.0095 13.4426 13.0095C13.9309 13.0095 14.7901 13.0095 15.7915 13.0095C16.1067 13.0095 16.2983 13.0095 16.3169 13.0095C16.4652 13.0095 16.5208 12.8267 16.5208 12.4863C16.5208 12.2531 16.5208 12.354 16.5208 12.0829Z" fill="#EE7447"/>
<path d="M21.064 12.0829V11.9443C21.064 11.6102 21.0083 11.4211 20.86 11.4274C20.8414 11.4274 20.6498 11.4274 20.3346 11.4274C19.3332 11.4274 18.4741 11.4274 17.9858 11.4274H17.7509C17.6272 11.4274 17.5593 11.6102 17.5593 11.9506C17.5593 12.3918 17.5593 12.2279 17.5654 12.4926C17.5654 12.833 17.6334 13.0158 17.7571 13.0158C17.8189 13.0158 17.8992 13.0158 17.9919 13.0158C18.4802 13.0158 19.3456 13.0158 20.3408 13.0158C20.656 13.0158 20.8476 13.0158 20.8662 13.0158C21.0145 13.0158 21.0701 12.833 21.0701 12.4926C21.0701 12.2594 21.0701 12.3603 21.0701 12.0892L21.064 12.0829Z" fill="#EE7447"/>
</g>
<defs>
<clipPath id="clip0_828_6117">
<rect width="23" height="20" fill="white" transform="translate(1 3)"/>
</clipPath>
</defs>
</svg>
