<svg width="25" height="25" viewBox="0 0 25 25" fill="none" xmlns="http://www.w3.org/2000/svg">
<g clip-path="url(#clip0_828_6113)">
<path d="M19 3.84779C19 3.31875 18.5485 2.97544 18.0698 2.95856L2.84864 2.99795C2.2992 3.08237 2.01088 3.64518 2 3.8703C2 4.02788 2 21.6774 2 22.1051C2 22.6454 2.47872 23 2.97376 23C4.41536 23 17.553 22.9887 18.0317 22.9775C18.6573 22.9662 18.9837 22.3303 18.9946 22.0826C19 21.925 18.9946 4.27552 18.9946 3.84779H19Z" fill="#F4C336"/>
<path d="M3.93664 4.8496C3.80608 4.83834 3.7408 4.89462 3.72448 5.04095C3.72448 5.08598 3.72448 20.6813 3.72448 20.7263C3.73536 20.867 3.80608 20.9289 3.93664 20.9176C3.99648 20.9176 17.1504 20.9176 17.2102 20.9176C17.3354 20.9289 17.4061 20.8726 17.417 20.7263C17.417 20.6813 17.417 5.08598 17.417 5.04095C17.4061 4.90025 17.3354 4.83834 17.2048 4.8496C17.1885 4.8496 3.94752 4.8496 3.9312 4.8496H3.93664Z" fill="white"/>
<path d="M15.9264 9.5321H8.10368C7.90784 9.5321 7.75008 9.72909 7.75008 9.97109C7.75008 10.2131 7.90784 10.4101 8.10368 10.4101H15.9264C16.1222 10.4101 16.28 10.2131 16.28 9.97109C16.28 9.72909 16.1222 9.5321 15.9264 9.5321Z" fill="#2D4B5B"/>
<path d="M6 9.51583C6 9.22894 5.77591 9 5.5014 9C5.22689 9 5 9.23184 5 9.51583C5 9.79983 5.22409 10.0317 5.5014 10.0317C5.77871 10.0317 6 9.79983 6 9.51583Z" fill="#2D4B5B"/>
<path d="M15.9101 13.1791H8.08736C7.89152 13.1791 7.73376 13.3761 7.73376 13.6181C7.73376 13.8601 7.89152 14.0571 8.08736 14.0571H15.9101C16.1059 14.0571 16.2637 13.8601 16.2637 13.6181C16.2637 13.3761 16.1059 13.1791 15.9101 13.1791Z" fill="#2D4B5B"/>
<path d="M6.0272 13.1643C6.0272 12.8795 5.80248 12.647 5.5272 12.647C5.25192 12.647 5.0272 12.8795 5.0272 13.1643C5.0272 13.4491 5.25192 13.6815 5.5272 13.6815C5.80248 13.6815 6.0272 13.4491 6.0272 13.1643Z" fill="#D03D2E"/>
<path d="M15.8502 16.826H8.02208C7.82624 16.826 7.66848 17.023 7.66848 17.265C7.66848 17.507 7.82624 17.704 8.02208 17.704H15.8448C16.0406 17.704 16.1984 17.507 16.1984 17.265C16.1984 17.023 16.0406 16.826 15.8448 16.826H15.8502Z" fill="#2D4B5B"/>
<path d="M6.08704 16.8085C6.08704 16.5208 5.86232 16.2883 5.58704 16.2883C5.31176 16.2883 5.08704 16.5208 5.08704 16.8085C5.08704 17.0962 5.31176 17.3258 5.58704 17.3258C5.86232 17.3258 6.08704 17.0933 6.08704 16.8085Z" fill="#2D4B5B"/>
<path d="M21.7245 18.3125C21.9398 18.1062 21.9398 17.7717 21.7245 17.5653C21.5091 17.359 21.16 17.359 20.9447 17.5653L18.6827 19.7327C18.4674 19.939 18.4674 20.2735 18.6827 20.4799C18.898 20.6862 19.2471 20.6862 19.4625 20.4799L21.7245 18.3125Z" fill="#EE7447"/>
<path d="M20.9384 20.4777C21.1537 20.684 21.5028 20.684 21.7181 20.4777C21.9335 20.2714 21.9335 19.9369 21.7181 19.7306L19.4561 17.5632C19.2408 17.3569 18.8917 17.3569 18.6764 17.5632C18.4611 17.7695 18.4611 18.104 18.6764 18.3103L20.9384 20.4777Z" fill="#EE7447"/>
</g>
<defs>
<clipPath id="clip0_828_6113">
<rect width="25" height="25" fill="white"/>
</clipPath>
</defs>
</svg>
