<svg width="25" height="25" viewBox="0 0 25 25" fill="none" xmlns="http://www.w3.org/2000/svg">
<path d="M14.1423 20.6334H10.9441V23.0861H14.1423V20.6334Z" fill="#3B526A"/>
<path d="M15.3754 1.37146H9.40558V3.82416H15.3754V1.37146Z" fill="#3B526A"/>
<path d="M18.199 3.74158H6.71454V20.0202H18.199V3.74158Z" fill="#F4C93D"/>
<path d="M19 2.51525C19 1.59549 18.2163 1 17.4038 1C14.4938 1 8.37411 1.02358 7.58466 1.04127C6.55895 1.05896 6.01728 2.14381 5.99999 2.55652C5.98847 2.90438 6.08643 17.314 6.01728 22.1605C5.99999 23.3456 6.78944 23.8998 7.58466 23.9587C8.03412 23.9941 14.1192 24.0059 17.2136 23.9823C18.2855 23.9764 19 23.2394 19 22.1192C19 17.1666 19 3.42322 19 2.50936V2.51525ZM10.8231 2.20277H14.1826C14.3209 2.20277 14.4362 2.42681 14.4362 2.70392C14.4362 2.98103 14.3209 3.20508 14.1826 3.20508H10.8231C10.6848 3.20508 10.5696 2.98103 10.5696 2.70392C10.5696 2.42681 10.6848 2.20277 10.8231 2.20277ZM13.4105 22.526C13.4105 22.7619 13.2145 22.7736 13.2145 22.7736H11.82C11.82 22.7736 11.6011 22.7854 11.6011 22.5437C11.6011 22.302 11.6011 21.3056 11.6011 21.1169C11.6011 20.9282 11.8027 20.9282 11.8027 20.9282H13.203C13.203 20.9282 13.4105 20.9223 13.4105 21.0815C13.4105 21.2407 13.4105 22.2902 13.4105 22.526ZM17.6574 19.183C17.6574 19.3481 17.594 19.4425 17.4269 19.4425H7.56161C7.42331 19.4425 7.3484 19.3481 7.3484 19.183C7.3484 17.2079 7.33687 4.45501 7.3484 4.31941C7.35992 4.17201 7.43483 4.11305 7.57313 4.11894C7.69991 4.13074 16.1246 4.11894 17.4557 4.11305C17.5709 4.11305 17.6689 4.21328 17.6631 4.37247C17.6574 4.51397 17.6516 17.2138 17.6516 19.183H17.6574Z" fill="#E5E5E5"/>
<path d="M7.55008 4.12481C7.41178 4.11302 7.33687 4.17198 7.32534 4.32527C7.31382 4.46678 7.32534 17.2138 7.32534 19.1889C7.32534 19.354 7.40025 19.4483 7.53855 19.4483H17.4038C17.5709 19.4483 17.7207 19.3304 17.6343 19.1889C16.2917 17.1253 7.67685 4.13071 7.55008 4.12481Z" fill="#ECBE27"/>
<path d="M20.7245 21.3125C20.9398 21.1062 20.9398 20.7717 20.7245 20.5653C20.5091 20.359 20.16 20.359 19.9447 20.5653L17.6827 22.7327C17.4674 22.939 17.4674 23.2735 17.6827 23.4799C17.898 23.6862 18.2471 23.6862 18.4625 23.4799L20.7245 21.3125Z" fill="#EE7447"/>
<path d="M19.9384 23.4777C20.1537 23.684 20.5028 23.684 20.7181 23.4777C20.9335 23.2714 20.9335 22.9369 20.7181 22.7306L18.4561 20.5632C18.2408 20.3569 17.8917 20.3569 17.6764 20.5632C17.4611 20.7695 17.4611 21.104 17.6764 21.3103L19.9384 23.4777Z" fill="#EE7447"/>
</svg>
