<svg width="25" height="25" viewBox="0 0 25 25" fill="none" xmlns="http://www.w3.org/2000/svg">
<g clip-path="url(#clip0_828_6116)">
<path d="M18.8426 1.20638C18.8426 0.538441 18.2934 0 17.6123 0H2.23028C1.54911 0 1 0.538441 1 1.20638V3.30562H18.8426V1.20638Z" fill="#EBB721"/>
<path d="M1 3.3056V20.6448C1 21.3604 1.59081 21.9329 2.31369 21.9329H17.5289C18.2587 21.9329 18.8426 21.3536 18.8426 20.6448V3.3056H1Z" fill="#F8D981"/>
<path d="M24 5.30945H5.59445V25.0068H24V5.30945Z" fill="#F6F6F6"/>
<path d="M21.4769 12.6567H8.59021C8.38169 12.6567 8.21487 12.8544 8.21487 13.0998C8.21487 13.3451 8.38169 13.5428 8.59021 13.5428H21.4769C21.6854 13.5428 21.8522 13.3451 21.8522 13.0998C21.8522 12.8544 21.6854 12.6567 21.4769 12.6567Z" fill="#55B6C6"/>
<path d="M21.4769 15.2058H8.59021C8.38169 15.2058 8.21487 15.4035 8.21487 15.6488C8.21487 15.8942 8.38169 16.0919 8.59021 16.0919H21.4769C21.6854 16.0919 21.8522 15.8942 21.8522 15.6488C21.8522 15.4035 21.6854 15.2058 21.4769 15.2058Z" fill="#55B6C6"/>
<path d="M21.4769 17.7549H8.59021C8.38169 17.7549 8.21487 17.9525 8.21487 18.1979C8.21487 18.4433 8.38169 18.6409 8.59021 18.6409H21.4769C21.6854 18.6409 21.8522 18.4433 21.8522 18.1979C21.8522 17.9525 21.6854 17.7549 21.4769 17.7549Z" fill="#55B6C6"/>
<path d="M21.4769 20.304H8.59021C8.38169 20.304 8.21487 20.5016 8.21487 20.747C8.21487 20.9923 8.38169 21.19 8.59021 21.19H21.4769C21.6854 21.19 21.8522 20.9923 21.8522 20.747C21.8522 20.5016 21.6854 20.304 21.4769 20.304Z" fill="#55B6C6"/>
<path d="M18.349 9.11938H11.7111C11.5443 9.11938 11.4122 9.31704 11.4122 9.56241C11.4122 9.80777 11.5443 10.0054 11.7111 10.0054H18.349C18.5159 10.0054 18.6479 9.80777 18.6479 9.56241C18.6479 9.31704 18.5089 9.11938 18.349 9.11938Z" fill="#55B6C6"/>
<path d="M14.7457 12.3928C15.0334 12.1107 15.0334 11.6532 14.7457 11.3711C14.4579 11.0889 13.9914 11.0889 13.7037 11.3711L10.681 14.335C10.3933 14.6172 10.3933 15.0746 10.681 15.3568C10.9687 15.6389 11.4352 15.6389 11.723 15.3568L14.7457 12.3928Z" fill="#EE7447"/>
<path d="M13.704 15.3597C13.9918 15.6419 14.4583 15.6419 14.746 15.3597C15.0337 15.0776 15.0337 14.6202 14.746 14.338L11.7233 11.3741C11.4356 11.0919 10.9691 11.0919 10.6814 11.3741C10.3936 11.6562 10.3936 12.1136 10.6814 12.3958L13.704 15.3597Z" fill="#EE7447"/>
</g>
<defs>
<clipPath id="clip0_828_6116">
<rect width="23" height="25" fill="white" transform="translate(1)"/>
</clipPath>
</defs>
</svg>
