<svg width="25" height="25" viewBox="0 0 25 25" fill="none" xmlns="http://www.w3.org/2000/svg">
<g clip-path="url(#clip0_828_6112)">
<path d="M3 18.2925L6.98745 16.626V12.7358L3.83196 14.7738L3 18.2925Z" fill="#F39211"/>
<path d="M21 18.2925L17.0125 16.626V12.7358L20.168 14.7738L21 18.2925Z" fill="#F39211"/>
<path d="M15.4853 11.9926C15.4853 10.2275 14.0235 8.79333 12.2169 8.79333C10.4104 8.79333 8.94257 10.2217 8.94257 11.9926C8.94257 13.7635 10.4044 15.1861 12.2169 15.1861C14.0294 15.1861 15.4853 13.7577 15.4853 11.9926Z" fill="white"/>
<path d="M17.0957 8.60174C17.0838 4.87411 14.279 2.06387 12.0802 2C9.52491 1.92452 6.97556 4.90894 6.97556 8.71786V18.606H17.0957C17.0957 18.606 17.1076 12.3294 17.0957 8.60174ZM12.0386 14.1758C10.755 14.1758 9.71507 13.1597 9.71507 11.9055C9.71507 10.6514 10.755 9.63526 12.0386 9.63526C13.3222 9.63526 14.3622 10.6514 14.3622 11.9055C14.3622 13.1597 13.3222 14.1758 12.0386 14.1758Z" fill="#55B6C6"/>
<path d="M14.6771 19.7788H9.40013C8.94849 20.2201 8.56223 20.731 8.56223 21.3465C8.56223 22.1129 8.91878 22.2233 9.62 22.8387C9.64971 22.8677 10.3093 21.2013 10.3509 21.2304C10.7194 21.4684 11.7415 24 12.0267 24H12.0446C12.3357 24 13.3519 21.4684 13.7263 21.2304C13.7679 21.2072 14.4275 22.8677 14.4572 22.8387C15.1585 22.2233 15.515 22.1129 15.515 21.3465C15.515 20.7368 15.1347 20.2259 14.6831 19.7788H14.6771Z" fill="#F4C336"/>
</g>
<defs>
<clipPath id="clip0_828_6112">
<rect width="18" height="22" fill="white" transform="translate(3 2)"/>
</clipPath>
</defs>
</svg>
