<svg width="25" height="25" viewBox="0 0 25 25" fill="none" xmlns="http://www.w3.org/2000/svg">
<g clip-path="url(#clip0_828_6114)">
<path d="M21.1852 5.46277H4.04904V18.5078H21.1852V5.46277Z" fill="white"/>
<path d="M21.9949 7.91147C21.9949 6.85081 21.9949 6.10731 21.9949 5.98772C21.9949 4.96346 20.8949 4.99986 20.8949 4.99986H4.10507C4.10507 4.99986 3.01018 4.96346 3.01018 5.98772C3.01018 6.52325 3 18.6376 3 18.6376C3 18.6376 3 18.6428 3 18.6532C3 18.8768 3.03055 19.3603 3.3361 19.6827C3.47869 19.8595 3.67221 19.9895 3.95738 20.0051C4.04396 20.0051 21.0121 20.0051 21.0426 20.0051C21.3227 19.9947 21.5213 19.8647 21.6588 19.6827C21.9694 19.3603 22 18.8768 21.9949 18.6532V7.91147H21.9898H21.9949ZM6.99759 6.1489H8.51005V7.56311H6.99759V6.1489ZM4.66524 6.1489H6.1777V7.56311H4.66524V6.1489ZM20.4723 18.1021H4.52774V8.67576H20.4723V18.1021ZM20.5385 7.56311H16.1131V6.1489H20.5385V7.56311Z" fill="#4B96A1"/>
<path d="M18.6593 13.9844H6.35594C6.35594 13.9844 6.22862 13.9844 6.21335 14.1248C6.19807 14.2652 6.20316 14.5772 6.21335 14.7643C6.22353 14.9515 6.3814 14.9255 6.3814 14.9255H18.6186C18.6186 14.9255 18.7968 14.9255 18.7968 14.7383C18.7968 14.5564 18.7968 14.286 18.7968 14.1352C18.7968 13.9844 18.6593 13.9844 18.6593 13.9844Z" fill="#F18960"/>
<path d="M18.6593 16.0173H6.35594C6.35594 16.0173 6.22862 16.0173 6.21335 16.1629C6.19807 16.3033 6.20316 16.6153 6.21335 16.8024C6.22353 16.9896 6.3814 16.9636 6.3814 16.9636H18.6186C18.6186 16.9636 18.7968 16.9636 18.7968 16.7764C18.7968 16.5893 18.7968 16.3241 18.7968 16.1733C18.7968 16.0225 18.6593 16.0225 18.6593 16.0225V16.0173Z" fill="#F18960"/>
<path d="M18.5829 11.9515C18.5829 11.9515 11.8252 11.9619 11.7998 11.9619C11.7743 11.9619 11.6317 11.9307 11.6063 12.1127C11.5859 12.2946 11.6063 12.5598 11.6063 12.7314C11.6063 12.8978 11.759 12.8978 11.759 12.8978H18.6135C18.6135 12.8978 18.7765 12.877 18.7917 12.7314C18.8019 12.5858 18.7917 12.3154 18.7917 12.1491C18.7917 11.9827 18.5829 11.9567 18.5829 11.9567V11.9515Z" fill="#F18960"/>
<path d="M9.57438 9.63776H6.66149C6.66149 9.63776 6.23372 9.65855 6.21844 10.1317C6.20317 10.5996 6.20317 11.9982 6.21844 12.4714C6.23372 12.9393 6.61566 12.8717 6.61566 12.8717H9.68132C9.68132 12.8717 10.0836 12.8613 10.0887 12.4922C10.0938 12.123 10.0836 10.6256 10.0887 10.1057C10.0938 9.58576 9.58457 9.64815 9.58457 9.64815L9.57438 9.63776Z" fill="#F4C336"/>
</g>
<defs>
<clipPath id="clip0_828_6114">
<rect width="19" height="15" fill="white" transform="translate(3 5)"/>
</clipPath>
</defs>
</svg>
