<svg width="33" height="33" viewBox="0 0 33 33" fill="none" xmlns="http://www.w3.org/2000/svg">
<g filter="url(#filter0_d_301_7947)">
<path d="M16.499 30.498C24.7827 30.498 31.498 23.7827 31.498 15.499C31.498 7.21527 24.7827 0.5 16.499 0.5C8.21527 0.5 1.5 7.21527 1.5 15.499C1.5 23.7827 8.21527 30.498 16.499 30.498Z" fill="#F9C63F"/>
</g>
<path opacity="0.2" d="M16.499 29.2714C24.1053 29.2714 30.2714 23.1053 30.2714 15.499C30.2714 7.89268 24.1053 1.72656 16.499 1.72656C8.89268 1.72656 2.72656 7.89268 2.72656 15.499C2.72656 23.1053 8.89268 29.2714 16.499 29.2714Z" fill="white"/>
<path d="M16.5705 26.2581C22.5262 26.2581 27.3542 21.4301 27.3542 15.4744C27.3542 9.5188 22.5262 4.6908 16.5705 4.6908C10.6149 4.6908 5.78687 9.5188 5.78687 15.4744C5.78687 21.4301 10.6149 26.2581 16.5705 26.2581Z" fill="#FFF3BD"/>
<path d="M16.6237 16.1389C16.3906 16.1389 16.1637 16.0264 16.0268 15.8179C15.808 15.4888 15.9 15.0452 16.2291 14.8264L22.1024 10.9423C22.4315 10.7235 22.8751 10.8155 23.0939 11.1447C23.3126 11.4738 23.2206 11.9174 22.8915 12.1361L17.0182 16.0203C16.8976 16.1 16.7607 16.1389 16.6237 16.1389V16.1389Z" fill="#F15A24"/>
<path d="M18.1549 15.3211C18.1549 14.4179 17.4227 13.6857 16.5195 13.6857C15.6162 13.6857 14.884 14.4179 14.884 15.3211C14.884 16.2243 15.6162 16.9565 16.5195 16.9565C17.4227 16.9565 18.1549 16.2243 18.1549 15.3211Z" fill="#FCE021"/>
<path d="M16.5194 17.4676C15.3358 17.4676 14.3729 16.5047 14.3729 15.3211C14.3729 14.1374 15.3358 13.1746 16.5194 13.1746C17.7031 13.1746 18.6659 14.1374 18.6659 15.3211C18.6659 16.5047 17.7031 17.4676 16.5194 17.4676ZM16.5194 14.1967C15.9 14.1967 15.3951 14.7016 15.3951 15.3211C15.3951 15.9405 15.9 16.4454 16.5194 16.4454C17.1389 16.4454 17.6438 15.9405 17.6438 15.3211C17.6438 14.7016 17.1389 14.1967 16.5194 14.1967Z" fill="#FBB03B"/>
<path d="M7.59808 24.958C7.52244 24.958 7.44476 24.9293 7.38548 24.8721C4.80149 22.3842 3.37866 19.0397 3.37866 15.454C3.37866 11.8684 4.73607 8.67926 7.20558 6.2118C7.32619 6.09118 7.5204 6.09118 7.63897 6.2118C7.75754 6.33241 7.75958 6.52662 7.63897 6.64519C5.28599 8.99817 3.98991 12.1259 3.98991 15.454C3.98991 18.7822 5.34732 22.0592 7.80865 24.4305C7.9313 24.5471 7.93539 24.7413 7.81682 24.8639C7.75754 24.9273 7.67577 24.958 7.59604 24.958H7.59808Z" fill="white"/>
<path d="M16.0137 28.3828V30H10.8047V28.6465C12.3477 26.123 13.2637 24.5625 13.5527 23.9648C13.8457 23.3633 13.9922 22.8945 13.9922 22.5586C13.9922 22.3008 13.9473 22.1094 13.8574 21.9844C13.7715 21.8555 13.6387 21.791 13.459 21.791C13.2793 21.791 13.1445 21.8613 13.0547 22.002C12.9688 22.1426 12.9258 22.4219 12.9258 22.8398V23.7422H10.8047V23.3965C10.8047 22.8652 10.832 22.4473 10.8867 22.1426C10.9414 21.834 11.0762 21.5312 11.291 21.2344C11.5059 20.9375 11.7852 20.7129 12.1289 20.5605C12.4727 20.4082 12.8848 20.332 13.3652 20.332C14.3066 20.332 15.0176 20.5664 15.498 21.0352C15.9824 21.5 16.2246 22.0898 16.2246 22.8047C16.2246 23.3477 16.0879 23.9219 15.8145 24.5273C15.5449 25.1328 14.7461 26.418 13.418 28.3828H16.0137Z" fill="#FC8B72"/>
<path d="M21.7617 20.5137V26.7129H22.4355V28.3301H21.7617V30H19.3945V28.3301H16.582V26.7129L18.627 20.5137H21.7617ZM19.3945 26.7129V22.6758L18.3516 26.7129H19.3945Z" fill="#FC8B72"/>
<path fill-rule="evenodd" clip-rule="evenodd" d="M17.0137 29.3301V31H9.80469V28.365L9.95154 28.1248C10.8485 26.6578 11.5223 25.5344 11.9822 24.7422H9.80469V23.3965C9.80469 22.8421 9.83243 22.3567 9.90225 21.967C9.98751 21.487 10.1927 21.0464 10.4809 20.6481C10.8022 20.2042 11.2228 19.8683 11.7237 19.6463C12.2253 19.424 12.7825 19.332 13.3652 19.332C14.46 19.332 15.4622 19.605 16.1934 20.3165C16.6608 20.7661 16.967 21.302 17.1167 21.8999L17.9038 19.5137H22.7617V25.7129H23.4355V29.3301H22.7617V31H18.3945V29.3301H17.0137ZM16.0137 28.3828H13.418C13.6583 28.0272 13.8814 27.6939 14.087 27.3828C15.0179 25.9751 15.5937 25.0232 15.8145 24.5273C16.0879 23.9219 16.2246 23.3477 16.2246 22.8047C16.2246 22.0898 15.9824 21.5 15.498 21.0352C15.0176 20.5664 14.3066 20.332 13.3652 20.332C12.8848 20.332 12.4727 20.4082 12.1289 20.5605C11.7852 20.7129 11.5059 20.9375 11.291 21.2344C11.0762 21.5312 10.9414 21.834 10.8867 22.1426C10.8569 22.3088 10.8352 22.5086 10.8216 22.7422C10.8103 22.9369 10.8047 23.155 10.8047 23.3965V23.7422H12.9258V22.8398C12.9258 22.4219 12.9688 22.1426 13.0547 22.002C13.1445 21.8613 13.2793 21.791 13.459 21.791C13.6387 21.791 13.7715 21.8555 13.8574 21.9844C13.9473 22.1094 13.9922 22.3008 13.9922 22.5586C13.9922 22.6892 13.9701 22.8398 13.9258 23.0106C13.8706 23.2233 13.7811 23.4672 13.6572 23.7422C13.6247 23.8143 13.5899 23.8885 13.5527 23.9648C13.4677 24.1406 13.3284 24.3998 13.1349 24.7422C12.6705 25.5639 11.8938 26.8653 10.8047 28.6465V30H16.0137V28.3828ZM15.582 26.9186C15.4874 27.0671 15.3877 27.2219 15.2831 27.3828H15.582V26.9186ZM16.582 28.3301H19.3945V30H21.7617V28.3301H22.4355V26.7129H21.7617V20.5137H18.627L16.582 26.7129V28.3301ZM19.3945 26.7129V22.6758L18.3516 26.7129H19.3945Z" fill="#FC8B72"/>
<defs>
<filter id="filter0_d_301_7947" x="0.5" y="0.5" width="31.9979" height="31.9979" filterUnits="userSpaceOnUse" color-interpolation-filters="sRGB">
<feFlood flood-opacity="0" result="BackgroundImageFix"/>
<feColorMatrix in="SourceAlpha" type="matrix" values="0 0 0 0 0 0 0 0 0 0 0 0 0 0 0 0 0 0 127 0" result="hardAlpha"/>
<feOffset dy="1"/>
<feGaussianBlur stdDeviation="0.5"/>
<feComposite in2="hardAlpha" operator="out"/>
<feColorMatrix type="matrix" values="0 0 0 0 0 0 0 0 0 0 0 0 0 0 0 0 0 0 0.15 0"/>
<feBlend mode="normal" in2="BackgroundImageFix" result="effect1_dropShadow_301_7947"/>
<feBlend mode="normal" in="SourceGraphic" in2="effect1_dropShadow_301_7947" result="shape"/>
</filter>
</defs>
</svg>
