<svg width="28" height="29" viewBox="0 0 28 29" fill="none" xmlns="http://www.w3.org/2000/svg">
<g clip-path="url(#clip0_275_7864)">
<path d="M21.0823 27.4325H6.15796V5.69885L23.2216 5.87847V25.2771" fill="#FFE6A3"/>
<path d="M21.0823 28.0611H5.5293V5.06299L23.8502 5.25518V25.2753C23.8502 25.6219 23.5682 25.9039 23.2216 25.9039C22.8749 25.9039 22.5929 25.6219 22.5929 25.2753V6.49992L6.78661 6.33288V26.802H21.0823C21.429 26.802 21.711 27.084 21.711 27.4307C21.711 27.7773 21.429 28.0593 21.0823 28.0593V28.0611Z" fill="#F2F2F2"/>
<path d="M18.8209 0.938965H0.5V23.7503H18.8209V0.938965Z" fill="#F9C63F"/>
<g filter="url(#filter0_d_275_7864)">
<path d="M18.8209 0.938965H0.5V23.7503H18.8209V0.938965Z" fill="#F9C63F"/>
</g>
<path opacity="0.1" d="M18.8209 0.938965H9.66046V23.7503H18.8209V0.938965Z" fill="#F15A24"/>
<path d="M14.5999 6.32751H4.54138C4.19472 6.32751 3.91272 6.04551 3.91272 5.69885C3.91272 5.35219 4.19472 5.07019 4.54138 5.07019H14.5999C14.9466 5.07019 15.2286 5.35219 15.2286 5.69885C15.2286 6.04551 14.9466 6.32751 14.5999 6.32751Z" fill="#F7931E"/>
<path d="M14.5999 9.56066H4.54138C4.19472 9.56066 3.91272 9.27866 3.91272 8.932C3.91272 8.58534 4.19472 8.30334 4.54138 8.30334H14.5999C14.9466 8.30334 15.2286 8.58534 15.2286 8.932C15.2286 9.27866 14.9466 9.56066 14.5999 9.56066Z" fill="#FFF3BD"/>
<path d="M14.5999 12.7937H4.54138C4.19472 12.7937 3.91272 12.5117 3.91272 12.165C3.91272 11.8184 4.19472 11.5364 4.54138 11.5364H14.5999C14.9466 11.5364 15.2286 11.8184 15.2286 12.165C15.2286 12.5117 14.9466 12.7937 14.5999 12.7937Z" fill="#F7931E"/>
<path d="M14.5999 16.0268H4.54138C4.19472 16.0268 3.91272 15.7449 3.91272 15.3982C3.91272 15.0515 4.19472 14.7695 4.54138 14.7695H14.5999C14.9466 14.7695 15.2286 15.0515 15.2286 15.3982C15.2286 15.7449 14.9466 16.0268 14.5999 16.0268Z" fill="#FFF3BD"/>
<path d="M23.75 3.10559C15 3.10559 13.8333 11.2723 13.25 14.7723H14.4155C14.804 12.828 15.7764 11.7588 17.3333 11.5639C19.6667 11.2723 21.4167 9.23059 22 7.48059L21.125 6.89726L21.7083 6.31392C22.2917 5.73059 22.8773 4.85559 23.75 3.10559Z" fill="#FC8B72"/>
</g>
<defs>
<filter id="filter0_d_275_7864" x="-0.5" y="0.938965" width="20.3209" height="24.8113" filterUnits="userSpaceOnUse" color-interpolation-filters="sRGB">
<feFlood flood-opacity="0" result="BackgroundImageFix"/>
<feColorMatrix in="SourceAlpha" type="matrix" values="0 0 0 0 0 0 0 0 0 0 0 0 0 0 0 0 0 0 127 0" result="hardAlpha"/>
<feOffset dy="1"/>
<feGaussianBlur stdDeviation="0.5"/>
<feComposite in2="hardAlpha" operator="out"/>
<feColorMatrix type="matrix" values="0 0 0 0 0 0 0 0 0 0 0 0 0 0 0 0 0 0 0.11 0"/>
<feBlend mode="normal" in2="BackgroundImageFix" result="effect1_dropShadow_275_7864"/>
<feBlend mode="normal" in="SourceGraphic" in2="effect1_dropShadow_275_7864" result="shape"/>
</filter>
<clipPath id="clip0_275_7864">
<rect width="27" height="27.1221" fill="white" transform="translate(0.5 0.938965)"/>
</clipPath>
</defs>
</svg>
