<?xml version="1.0" encoding="UTF-8"?><svg id="Layer_2" xmlns="http://www.w3.org/2000/svg" viewBox="0 0 51 51"><defs><style>.cls-1{fill:#cbe7f4;}.cls-2{opacity:.5;}</style></defs><g id="Layer_1-2"><g class="cls-2"><path class="cls-1" d="M25.5,51C11.44,51,0,39.56,0,25.5S11.44,0,25.5,0s25.5,11.44,25.5,25.5-11.44,25.5-25.5,25.5Zm0-47.01C13.64,3.99,3.99,13.64,3.99,25.5s9.65,21.51,21.51,21.51,21.51-9.65,21.51-21.51S37.36,3.99,25.5,3.99Z"/><path class="cls-1" d="M25.5,42.79c-6.88,0-13.1-4.08-15.86-10.38-.95-2.19-1.44-4.51-1.44-6.91,0-2.08,.37-4.12,1.09-6.05,2.51-6.72,9.03-11.24,16.2-11.24,9.54,0,17.29,7.76,17.29,17.29s-7.76,17.29-17.29,17.29Zm0-30.6c-5.52,0-10.53,3.47-12.47,8.65-.56,1.49-.84,3.05-.84,4.66,0,1.85,.37,3.64,1.1,5.32,2.12,4.85,6.91,7.99,12.2,7.99,7.34,0,13.3-5.97,13.3-13.3s-5.97-13.3-13.3-13.3Z"/></g></g></svg>