<?xml version="1.0" encoding="UTF-8"?><svg id="Layer_2" xmlns="http://www.w3.org/2000/svg" xmlns:xlink="http://www.w3.org/1999/xlink" viewBox="0 0 64.83 67"><defs><style>.cls-1{fill:none;}.cls-2{clip-path:url(#clippath);}.cls-3{opacity:.1;}.cls-4{fill:#054663;}.cls-5{fill:#efb00c;}.cls-6{fill:#f4f4f4;}.cls-7{fill:#dce1e2;}.cls-8{fill:#229ef2;}.cls-9{fill:#0679b7;}</style><clipPath id="clippath"><path class="cls-1" d="M38.05,48.9l8.09-3.04-6.11-6.11-3.04,8.09c-.15,.64,.42,1.21,1.06,1.06Z"/></clipPath></defs><g id="Layer_1-2"><g><g class="cls-3"><path class="cls-4" d="M63.27,31.7c-1.77-1.77-4.65-1.77-6.42,0l-16.52,16.52,6.42,6.42,16.52-16.52c1.77-1.77,1.77-4.65,0-6.42Z"/><polygon class="cls-4" points="40.03 48.83 37.77 54.84 37.58 54.64 35.29 56.94 38.96 60.61 41.25 58.31 40.14 57.2 46.14 54.95 40.03 48.83"/></g><rect class="cls-7" width="49.97" height="67"/><rect class="cls-6" x="7.38" y="6.81" width="35.2" height="21.58"/><rect class="cls-6" x="7.1" y="36.34" width="15.9" height="21.58"/><g><path class="cls-8" d="M52.87,18.53h1.08c2.21,0,4,1.79,4,4v23.9h-9.08V22.53c0-2.21,1.79-4,4-4Z" transform="translate(38.61 -28.25) rotate(45)"/><path class="cls-5" d="M38.05,48.9l8.09-3.04-6.11-6.11-3.04,8.09c-.15,.64,.42,1.21,1.06,1.06Z"/><g class="cls-2"><rect class="cls-9" x="35.67" y="46.92" width="5.19" height="3.24" transform="translate(45.53 -12.84) rotate(45)"/></g></g></g></g></svg>