<?xml version="1.0" encoding="UTF-8"?><svg id="Layer_2" xmlns="http://www.w3.org/2000/svg" xmlns:xlink="http://www.w3.org/1999/xlink" viewBox="0 0 75.1 67.79"><defs><style>.cls-1{fill:none;}.cls-2{fill:#efb00c;}.cls-3{fill:#edd591;}.cls-4{fill:#cc900a;}.cls-5{fill:#229ef2;}.cls-6{clip-path:url(#clippath-1);}.cls-7{clip-path:url(#clippath-2);}</style><clipPath id="clippath-1"><path class="cls-1" d="M23.17,42.79h0c4.14,0,7.5,3.36,7.5,7.5v17.5H15.67v-17.5c0-4.14,3.36-7.5,7.5-7.5Z"/></clipPath><clipPath id="clippath-2"><circle class="cls-1" cx="37.55" cy="17.79" r="5"/></clipPath></defs><g id="Layer_1-2"><g><path class="cls-2" d="M8.02,4.79h6.3c1.85,0,3.35,1.5,3.35,3.35V29.79H4.67V8.14c0-1.85,1.5-3.35,3.35-3.35Z"/><path class="cls-3" d="M4.92,29.79H69.92v30.81c0,3.97-3.22,7.19-7.19,7.19H12.11c-3.97,0-7.19-3.22-7.19-7.19V29.79h0Z"/><path class="cls-5" d="M36.28,.43L.81,27.73c-1.57,1.21-.72,3.72,1.27,3.72H73.01c1.98,0,2.84-2.51,1.27-3.72L38.81,.43c-.75-.57-1.79-.57-2.53,0Z"/><path class="cls-2" d="M23.17,42.79h0c4.14,0,7.5,3.36,7.5,7.5v17.5H15.67v-17.5c0-4.14,3.36-7.5,7.5-7.5Z"/><circle class="cls-3" cx="37.55" cy="17.79" r="5"/><g class="cls-6"><path class="cls-4" d="M26.17,42.79h0c4.14,0,7.5,3.36,7.5,7.5v17.5h-15v-17.5c0-4.14,3.36-7.5,7.5-7.5Z"/></g><g class="cls-7"><circle class="cls-2" cx="39.67" cy="17.79" r="5"/></g></g></g></svg>