<?xml version="1.0" encoding="UTF-8"?><svg id="Layer_2" xmlns="http://www.w3.org/2000/svg" xmlns:xlink="http://www.w3.org/1999/xlink" viewBox="0 0 63 68.44"><defs><style>.cls-1{fill:none;}.cls-2{clip-path:url(#clippath);}.cls-3{fill:#efb00c;}.cls-4{fill:#edd591;}.cls-5{fill:#b4bec1;}.cls-6{fill:#c9d2d6;}.cls-7{fill:#dce1e2;}.cls-8{fill:#229ef2;}.cls-9{fill:#0679b7;}</style><clipPath id="clippath"><path class="cls-1" d="M36.5,40.44c0-2.76-2.24-5-5-5s-5,2.24-5,5c0,1.64,.8,3.09,2.03,4h-.03v6.66c0,1.3,1.05,2.34,2.34,2.34h1.31c1.3,0,2.34-1.05,2.34-2.34v-6.66h-.03c1.22-.91,2.03-2.36,2.03-4Z"/></clipPath></defs><g id="Layer_1-2"><g><g><path class="cls-8" d="M36.5,40.44c0-2.76-2.24-5-5-5s-5,2.24-5,5c0,1.64,.8,3.09,2.03,4h-.03v6.66c0,1.3,1.05,2.34,2.34,2.34h1.31c1.3,0,2.34-1.05,2.34-2.34v-6.66h-.03c1.22-.91,2.03-2.36,2.03-4Z"/><path class="cls-6" d="M56.17,23.44h-2.17V11.83c0-6.52-5.3-11.83-11.83-11.83H20.83c-6.52,0-11.83,5.3-11.83,11.83v11.62h-2.17c-3.77,0-6.83,3.06-6.83,6.83v31.35c0,3.77,3.06,6.83,6.83,6.83H56.17c3.77,0,6.83-3.06,6.83-6.83V30.27c0-3.77-3.06-6.83-6.83-6.83ZM19,11.83c0-1.01,.82-1.83,1.83-1.83h21.35c1.01,0,1.83,.82,1.83,1.83v4.53c0,3.91-3.17,7.08-7.08,7.08h-10.83c-3.91,0-7.08-3.17-7.08-7.08v-4.53Z"/><path class="cls-8" d="M36.5,40.44c0-2.76-2.24-5-5-5s-5,2.24-5,5c0,1.64,.8,3.09,2.03,4h-.03v6.66c0,1.3,1.05,2.34,2.34,2.34h1.31c1.3,0,2.34-1.05,2.34-2.34v-6.66h-.03c1.22-.91,2.03-2.36,2.03-4Z"/><path class="cls-5" d="M59.25,45.19v15.15c0,2.27-1.83,4.1-4.1,4.1H22.08c10.39-1.57,21.09-3.73,28.2-5.5,5.21-1.3,7.79-7.05,8.97-13.75Z"/><path class="cls-7" d="M3.25,46.69v-15.15c0-2.27,1.83-4.1,4.1-4.1H40.42c-10.39,1.57-21.09,3.73-28.2,5.5-5.21,1.3-7.79,7.05-8.97,13.75Z"/><g class="cls-2"><path class="cls-9" d="M38.25,40.44c0-2.76-2.24-5-5-5s-5,2.24-5,5c0,1.64,.8,3.09,2.03,4h-.03v6.66c0,1.3,1.05,2.34,2.34,2.34h1.31c1.3,0,2.34-1.05,2.34-2.34v-6.66h-.03c1.22-.91,2.03-2.36,2.03-4Z"/></g></g><circle class="cls-4" cx="2.75" cy="15.94" r="2.5"/><circle class="cls-3" cx="31.75" cy="15.94" r="2.5"/><circle class="cls-4" cx="59.75" cy="15.94" r="2.5"/></g></g></svg>