<?xml version="1.0" encoding="UTF-8"?><svg id="Layer_2" xmlns="http://www.w3.org/2000/svg" viewBox="0 0 83.04 70.82"><defs><style>.cls-1{fill:#f9f4e8;}.cls-2{fill:#f9d793;}.cls-3{fill:#229ef2;}.cls-4{fill:#dce1e2;}.cls-4,.cls-5,.cls-6{opacity:.2;}.cls-5{fill:#cc9e2b;}.cls-6{fill:#fcf9f2;}</style></defs><g id="Layer_1-2"><g><rect class="cls-3" x="60.91" y="24.35" width="18.81" height="5.53" rx="2.5" ry="2.5"/><rect class="cls-3" x="56.48" y="34.3" width="18.81" height="5.53" rx="2.5" ry="2.5"/><rect class="cls-3" x="77.51" y="34.3" width="5.53" height="5.53" rx="2.5" ry="2.5"/><circle class="cls-3" cx="35.41" cy="35.41" r="35.41"/><g><circle class="cls-2" cx="35.41" cy="35.41" r="30.99"/><path class="cls-5" d="M47.36,10.45c4.93,5,7.97,11.85,7.97,19.43,0,15.28-12.39,27.67-27.67,27.67-4.28,0-8.33-.97-11.95-2.71,5.02,5.09,11.99,8.24,19.69,8.24,15.28,0,27.67-12.39,27.67-27.67,0-11-6.42-20.5-15.72-24.96Z"/><path class="cls-6" d="M16.96,37.39c0-11.02,8.94-19.96,19.96-19.96,3.85,0,7.44,1.09,10.49,2.98,.45,.18,.89,.36,1.32,.57-3.62-3.67-8.65-5.94-14.21-5.94-11.02,0-19.96,8.94-19.96,19.96,0,6.11,2.75,11.57,7.08,15.23-2.92-3.47-4.68-7.95-4.68-12.84Z"/></g><rect class="cls-1" x="33.7" y="19.37" width="3.42" height="11.07" rx="1" ry="1"/><rect class="cls-1" x="42" y="34.86" width="3.42" height="18.81" rx="1" ry="1" transform="translate(-18.5 43.87) rotate(-45)"/><circle class="cls-3" cx="35.41" cy="35.41" r="4.98"/><circle class="cls-4" cx="35.41" cy="33.2" r="2.21"/></g></g></svg>