<?xml version="1.0" encoding="UTF-8"?><svg id="Layer_2" xmlns="http://www.w3.org/2000/svg" viewBox="0 0 732.94 834.94"><defs><style>.cls-1{fill:#ededed;}.cls-2{fill:#9d9d9c;}.cls-3{fill:#b2b2b2;}.cls-4{fill:#c6c6c6;}.cls-5{fill:#706f6f;}.cls-6{fill:#878787;}.cls-7{fill:#3c3c3b;}</style></defs><g id="_ÎÓÈ_4"><g><rect class="cls-6" x="75.9" y="184.05" width="55.99" height="43.69" transform="translate(-115.16 133.77) rotate(-45)"/><path class="cls-1" d="M70.08,127.83l-44.25,44.25c-1.7,1.7-1.7,4.47,0,6.17l37.4,37.4c1.15,1.15,2.72,1.81,4.35,1.83l8.42,.1,39.59-39.59-.1-8.42c-.02-1.63-.68-3.19-1.83-4.35l-37.4-37.4c-1.7-1.7-4.47-1.7-6.17,0Z"/><path class="cls-3" d="M70.08,127.83l-22.12,22.12,47.84,47.84,19.79-19.8-.1-8.42c-.02-1.63-.68-3.19-1.83-4.35l-37.4-37.4c-1.7-1.7-4.47-1.7-6.17,0Z"/><path class="cls-5" d="M65.21,216.99c.74,.32,1.55,.49,2.37,.5l8.42,.1,39.59-39.59-.1-8.42c-.01-.82-.18-1.63-.5-2.38l-49.78,49.78Z"/><rect class="cls-5" x="338.37" y="52.17" width="56.2" height="81.44"/><circle class="cls-1" cx="366.47" cy="468.47" r="366.47"/><path class="cls-3" d="M625.61,209.34L107.34,727.61c143.12,143.12,375.15,143.12,518.27,0,143.12-143.12,143.12-375.15,0-518.27Z"/><g><circle class="cls-4" cx="366.47" cy="468.47" r="299.67"/><path class="cls-2" d="M366.47,189.16c37.72,0,74.29,7.38,108.71,21.94,33.26,14.07,63.13,34.21,88.79,59.87,25.66,25.66,45.8,55.53,59.87,88.79,14.56,34.42,21.94,71,21.94,108.71s-7.38,74.29-21.94,108.71c-14.07,33.26-34.21,63.13-59.87,88.79-25.66,25.66-55.53,45.8-88.79,59.87-34.42,14.56-71,21.94-108.71,21.94s-74.29-7.38-108.71-21.94c-33.26-14.07-63.13-34.21-88.79-59.87-25.66-25.66-45.8-55.53-59.87-88.79-14.56-34.42-21.94-71-21.94-108.71s7.38-74.29,21.94-108.71c14.07-33.26,34.21-63.13,59.87-88.79s55.53-45.8,88.79-59.87c34.42-14.56,71-21.94,108.71-21.94m0-20.36c-165.5,0-299.67,134.17-299.67,299.67s134.17,299.67,299.67,299.67,299.67-134.17,299.67-299.67S531.97,168.8,366.47,168.8h0Z"/></g><path class="cls-1" d="M192.98,661.69c-5.05,0-10.1-1.93-13.95-5.78-50.07-50.07-77.64-116.63-77.64-187.44s27.57-137.37,77.64-187.44c50.07-50.07,116.63-77.64,187.44-77.64s137.37,27.57,187.44,77.64c7.7,7.7,7.7,20.19,0,27.89-7.7,7.7-20.19,7.7-27.89,0-42.62-42.62-99.28-66.09-159.55-66.09s-116.93,23.47-159.55,66.09c-42.62,42.62-66.09,99.28-66.09,159.55s23.47,116.93,66.09,159.55c7.7,7.7,7.7,20.19,0,27.89-3.85,3.85-8.9,5.78-13.95,5.78Z"/><path class="cls-7" d="M366.47,481.83c-7.38,0-13.36-5.98-13.36-13.36v-169.32c0-7.38,5.98-13.36,13.36-13.36s13.36,5.98,13.36,13.36v169.32c0,7.38-5.98,13.36-13.36,13.36Z"/><circle class="cls-7" cx="366.47" cy="468.47" r="31.49"/><rect class="cls-1" x="298.08" width="136.79" height="77.62" rx="12.35" ry="12.35"/><path class="cls-3" d="M422.52,0h-56.05V77.62h56.05c6.82,0,12.35-5.53,12.35-12.35V12.35c0-6.82-5.53-12.35-12.35-12.35Z"/></g></g></svg>