<?xml version="1.0" encoding="UTF-8"?><svg id="Layer_2" xmlns="http://www.w3.org/2000/svg" xmlns:xlink="http://www.w3.org/1999/xlink" viewBox="0 0 136 205.14"><defs><style>.cls-1{fill:none;}.cls-2{clip-path:url(#clippath);}.cls-3{fill:#fff;}.cls-4{fill:#f0a63b;}.cls-5{fill:#dd912c;}</style><clipPath id="clippath"><path class="cls-1" d="M123.55,205.14H1.85c1.39-12.02,5.63-23.32,12.7-33.91,7.07-10.59,20.33-23.09,39.79-37.5,11.88-8.83,19.49-15.54,22.81-20.12,3.32-4.58,4.98-8.93,4.98-13.05,0-4.45-1.64-8.25-4.93-11.4-3.29-3.15-7.42-4.73-12.4-4.73s-9.41,1.63-12.7,4.88c-3.29,3.25-5.49,9-6.62,17.23l-40.63-3.29c1.59-11.42,4.51-20.33,8.76-26.74,4.25-6.41,10.24-11.32,17.98-14.74,7.73-3.42,18.44-5.13,32.12-5.13s25.38,1.63,33.31,4.88c7.93,3.25,14.17,8.25,18.72,14.99,4.55,6.74,6.82,14.29,6.82,22.66,0,8.9-2.61,17.4-7.82,25.5-5.21,8.1-14.69,17-28.43,26.69-8.17,5.64-13.63,9.59-16.38,11.85-2.76,2.26-5.99,5.21-9.71,8.86h63.34v33.06Z"/></clipPath></defs><g id="Layer_1-2"><g><path class="cls-4" d="M123.55,205.14H1.85c1.39-12.02,5.63-23.32,12.7-33.91,7.07-10.59,20.33-23.09,39.79-37.5,11.88-8.83,19.49-15.54,22.81-20.12,3.32-4.58,4.98-8.93,4.98-13.05,0-4.45-1.64-8.25-4.93-11.4-3.29-3.15-7.42-4.73-12.4-4.73s-9.41,1.63-12.7,4.88c-3.29,3.25-5.49,9-6.62,17.23l-40.63-3.29c1.59-11.42,4.51-20.33,8.76-26.74,4.25-6.41,10.24-11.32,17.98-14.74,7.73-3.42,18.44-5.13,32.12-5.13s25.38,1.63,33.31,4.88c7.93,3.25,14.17,8.25,18.72,14.99,4.55,6.74,6.82,14.29,6.82,22.66,0,8.9-2.61,17.4-7.82,25.5-5.21,8.1-14.69,17-28.43,26.69-8.17,5.64-13.63,9.59-16.38,11.85-2.76,2.26-5.99,5.21-9.71,8.86h63.34v33.06Z"/><g class="cls-2"><polygon class="cls-5" points="123 121.98 -14 184.98 -14 29.98 123 29.98 123 121.98"/></g><g><rect class="cls-4" width="136" height="43.49"/><g><path class="cls-3" d="M26.99,21.62c-.11,.44-.11,.5-.19,1-.8,4.26-2.24,7.88-4.29,10.93-1.47-.97-3.1-1.8-4.56-2.27,2.21-2.88,3.96-7.22,4.29-10.76l4.76,1.11Zm16.24-2.38c-.91-.11-1.85-.14-4.26-.17h-5.37v12.14c0,1.85,.06,3.35,.14,4.15h-5.23c.11-1.08,.17-2.08,.17-4.21v-12.09h-5.12c-2.43,0-3.18,.03-4.18,.17v-4.73c1,.17,1.91,.22,4.23,.22h5.06v-1.08c0-1.47-.06-2.27-.17-3.07h5.26c-.11,.77-.17,1.6-.17,3.13v1.02h5.95c-.64-.61-1-1.41-1-2.3,0-1.74,1.38-3.13,3.13-3.13s3.1,1.38,3.1,3.13c0,1.13-.58,2.13-1.55,2.71v4.09Zm-3.38,1.22c.8,3.6,2.68,8.05,4.48,10.57-1.69,.75-3.18,1.6-4.56,2.57-2.02-3.68-2.93-6.06-4.09-10.62-.22-.91-.25-.94-.42-1.36l4.59-1.16Zm.25-8.02c0,.83,.72,1.55,1.55,1.55s1.58-.72,1.58-1.55-.72-1.58-1.55-1.58-1.58,.72-1.58,1.58Z"/><path class="cls-3" d="M69.78,13.49c-.61,.53-.64,.55-1.08,1.02-2.19,2.24-4.15,3.96-6.39,5.56v10.65c0,2.27,.03,2.99,.17,4.48h-5.37c.14-1.47,.17-2.08,.17-4.45v-7.63c-2.88,1.69-5.09,2.68-9.05,4.09-.75-1.85-1.3-2.77-2.66-4.45,6-1.69,10.24-3.76,14.69-7.19,2.38-1.8,4.23-3.68,5.04-5.06l4.48,2.99Z"/><path class="cls-3" d="M75.78,12.02c3.49,2.05,5.28,3.32,7.61,5.42l-3.26,4.32c-2.41-2.52-4.76-4.34-7.52-5.84l3.18-3.9Zm-2.91,17.18c2.82-.22,5.73-.91,8.33-1.99,3.49-1.44,5.98-3.51,8.11-6.83,1.16-1.77,1.91-3.29,2.71-5.42,1.36,1.63,1.99,2.19,4.07,3.71-2.52,5.45-5.15,8.71-9.02,11.2-2.99,1.94-5.62,2.96-10.76,4.15-1.08,.25-1.25,.28-1.99,.5l-1.44-5.31Z"/><path class="cls-3" d="M101.39,35.07c.11-1.24,.17-2.05,.17-4.23V14.73c0-2.24-.03-2.52-.19-4.01h5.34c-.11,.8-.14,2.19-.14,4.04v3.79c4.7,1.55,8.27,3.18,12.59,5.75l-2.63,4.7c-2.68-1.85-5.95-3.65-8.71-4.81q-.97-.39-1.25-.55v7.19c0,1.85,.06,3.24,.17,4.23h-5.34Z"/></g></g></g></g></svg>