<svg width="14" height="14" fill="none" xmlns="http://www.w3.org/2000/svg"><path d="M14 7A7 7 0 1 1 0 7a7 7 0 0 1 14 0Z" fill="#F9D30D"/><path fill-rule="evenodd" clip-rule="evenodd" d="M4.83 3.818 2.287 6.454c.047.003.069.005.095.005h.4c.174 0 .294.121.3.293v2.955c0 .07.034.105.103.105h7.688c.066 0 .1-.032.101-.098 0-.197-.002-.393 0-.593 0-.203.096-.317.296-.352.443-.08.742-.362.824-.78.102-.513-.268-1.043-.784-1.119-.075-.01-.1-.033-.1-.112.002-.272 0-.547-.092-.808a1.416 1.416 0 0 0-.975-.93c-.07-.02-.088-.05-.09-.118-.006-.296-.07-.576-.257-.814a1.077 1.077 0 0 0-1.462-.21c-.097.068-.193.105-.307.06a.279.279 0 0 1-.185-.235.289.289 0 0 1 .122-.28c.18-.135.382-.226.599-.28.948-.227 1.89.41 2.035 1.376.005.03.033.066.06.08.626.332.994.849 1.104 1.549.007.05.019.103.014.154-.014.094.037.133.112.175.532.311.81.779.787 1.393-.023.647-.355 1.102-.943 1.37a.27.27 0 0 1-.033.014.223.223 0 0 0-.149.224v.6c0 .191-.126.315-.317.315H2.837a.45.45 0 0 1-.195-.049c-.089-.045-.134-.13-.138-.232V7.134c0-.096 0-.098-.098-.098h-.768a.297.297 0 0 1-.29-.18c-.051-.11-.023-.235.071-.335l3.173-3.29c.156-.16.313-.164.474-.005L6 4.135c.128.125.137.305.021.426a.3.3 0 0 1-.425-.006c-.24-.229-.478-.458-.718-.69-.012-.012-.026-.022-.047-.041v-.006Z" fill="#2C296E"/><path fill-rule="evenodd" clip-rule="evenodd" d="M5.49 6.323c-.109.128-.214.254-.322.385-.12-.131-.231-.256-.356-.392-.003.038-.008.06-.008.079 0 .138-.002.276-.006.416-.005.219-.152.37-.36.368-.205 0-.35-.16-.35-.377V5.486c0-.168.087-.304.23-.357.153-.06.304-.02.421.109.136.152.273.303.436.481.017-.033.028-.061.047-.082.112-.131.227-.261.341-.39.114-.132.271-.177.42-.121.15.056.238.189.238.366v1.323c0 .208-.147.362-.346.364-.207 0-.354-.144-.359-.36l-.014-.48c0-.002-.004-.004-.014-.016h.002Zm2.164 1.029c.592.002 1.07.49 1.064 1.09a1.078 1.078 0 0 1-1.086 1.076c-.585-.003-1.059-.493-1.057-1.092a1.072 1.072 0 0 1 1.078-1.074h.001Zm.415 1.085a.42.42 0 0 0-.425-.425.422.422 0 0 0-.424.421.431.431 0 0 0 .43.427.427.427 0 0 0 .421-.423h-.002Zm.081-1.875c0 .09.003.177 0 .266a.357.357 0 0 1-.277.343.347.347 0 0 1-.385-.173.412.412 0 0 1-.045-.182 99.336 99.336 0 0 1-.002-1.337c0-.173.096-.308.252-.355.154-.047.304.01.406.156l.317.455c.003-.039.007-.058.007-.076.003-.085 0-.171.012-.255a.353.353 0 0 1 .702.053c.002.425 0 .848 0 1.273 0 .051.003.104-.007.153a.334.334 0 0 1-.279.281.339.339 0 0 1-.362-.147c-.094-.133-.184-.269-.276-.404-.012-.019-.028-.037-.042-.054-.007 0-.012.003-.02.005l-.001-.002Zm.726 1.803v-.723c0-.16.084-.241.245-.241.226 0 .45-.002.674 0 .332.003.614.22.69.526.103.427-.197.809-.65.828a1.702 1.702 0 0 1-.189 0c-.042-.002-.056.012-.056.054v.293c0 .211-.147.369-.348.372-.207.002-.36-.148-.362-.365-.004-.249 0-.497 0-.748l-.004.004Zm.714-.124c.018.003.025.007.035.007.058 0 .117.003.175 0a.162.162 0 0 0 .152-.165.16.16 0 0 0-.15-.159.898.898 0 0 0-.168 0c-.014 0-.04.021-.042.033-.002.095 0 .187 0 .284H9.59ZM4.513 9.525a.854.854 0 0 1-.639-.253c-.106-.11-.126-.26-.049-.38a.292.292 0 0 1 .36-.116c.06.023.116.06.176.088.044.02.093.056.126-.007.03-.06-.025-.088-.065-.112-.073-.046-.154-.084-.226-.133-.224-.149-.369-.343-.357-.628a.634.634 0 0 1 .546-.627.754.754 0 0 1 .697.233.26.26 0 0 1 .045.322.256.256 0 0 1-.315.112c-.063-.021-.119-.054-.178-.086-.04-.021-.086-.038-.114.009-.03.047 0 .086.042.108.067.04.137.076.205.114.194.109.343.256.402.476.118.448-.217.879-.652.879l-.004.001Z" fill="#2C296E"/><path fill-rule="evenodd" clip-rule="evenodd" d="M5.647 8.619c0-.179-.003-.356 0-.534 0-.06-.019-.079-.077-.074a.304.304 0 0 1-.292-.127.292.292 0 0 1-.025-.312.28.28 0 0 1 .261-.171c.3-.006.599-.006.9 0a.299.299 0 0 1 .292.31.297.297 0 0 1-.296.299c-.068 0-.086.022-.084.087.002.347 0 .693 0 1.04a.338.338 0 0 1-.658.11c-.016-.044-.016-.091-.017-.137-.002-.162 0-.325 0-.49h-.002l-.002-.001Zm4.464-2.476c0 .225.004.453 0 .679a.366.366 0 0 1-.28.35.363.363 0 0 1-.41-.188.446.446 0 0 1-.044-.189 94.88 94.88 0 0 1-.002-1.307c0-.224.16-.388.37-.387.209 0 .367.167.368.39v.652h-.002Zm-2.91.001c0 .224.002.448 0 .672 0 .17-.107.303-.268.352a.35.35 0 0 1-.406-.154.45.45 0 0 1-.06-.206 66.504 66.504 0 0 1 0-1.322c0-.224.162-.386.37-.385.212 0 .364.167.366.392v.651h-.002Z" fill="#2C296E"/></svg>