<svg width="14" height="14" fill="none" xmlns="http://www.w3.org/2000/svg"><path d="M7 14a6.98 6.98 0 0 0 5.114-2.223H1.886A6.98 6.98 0 0 0 7 14Zm6.104-10.426a6.999 6.999 0 0 0-12.208 0A14.403 14.403 0 0 1 7 2.223c2.698 0 4.826.748 6.104 1.35Z" fill="#E30613"/><path d="M13.104 3.573A14.403 14.403 0 0 0 7 2.223c-2.699 0-4.826.748-6.104 1.35A6.982 6.982 0 0 0 0 7c0 1.848.718 3.526 1.887 4.777h10.226A6.974 6.974 0 0 0 14 7a6.982 6.982 0 0 0-.896-3.427Z" fill="#fff"/><path d="M6.839 3.484a.875.875 0 0 1 .871.303l.109.15h.049l.569-.266c.02.006.05-.012.063.018.01.05-.034.065-.063.094l-1.964.993c-.058-.002-.086-.069-.115-.104-.174-.218-.144-.574-.013-.801l.151-.215c-.012-.08-.07-.184 0-.258.05-.049.122-.075.19-.047.07.026.09.095.153.133Z" fill="#E30613"/><path d="M6.46 3.36a.17.17 0 0 0-.05.126.4.4 0 0 0 .021.117s.006.021.009.04l-.138.197a.922.922 0 0 0-.117.448.66.66 0 0 0 .13.413l.022.028c.026.038.065.092.133.094h.012l1.981-1.001.009-.007.017-.016c.028-.02.072-.056.058-.124v-.01c-.024-.055-.077-.05-.094-.048h-.02l-.02.004-.559.26h-.01l-.095-.129a.931.931 0 0 0-.896-.325 3.31 3.31 0 0 0-.044-.042.255.255 0 0 0-.106-.086.228.228 0 0 0-.245.056l.001.005Zm.075.317.012-.018-.004-.017-.015-.068a.355.355 0 0 1-.018-.091c0-.021.005-.039.02-.055.013-.014.071-.061.134-.035a.192.192 0 0 1 .068.058l.098.091.018-.012a.823.823 0 0 1 .822.287l.107.147.014.02h.086l.509-.237-1.92.97c-.014-.004-.028-.022-.047-.048l-.026-.035a.558.558 0 0 1-.107-.35c0-.14.039-.283.102-.392l.147-.212" fill="#E30613"/><path d="m6.815 4.982.355.012.017.016c.198.93.074 1.941-.32 2.755-.094.203-.203.402-.285.609.147.113.297.222.448.323.157-.203.266-.44.383-.668.079-.138.103-.301.158-.453.353.299.549.684.75 1.058.05.104.088.209.146.308.159-.049.315-.117.469-.18V8.72c-.128-.48-.405-.898-.73-1.295l.215-.058c.324-.085.672-.374.735-.72a.978.978 0 0 0-.378-1.033l-.406.273v.033l.112.186c.082.148.047.36-.017.505-.132.209-.363.266-.61.245-.019-.03-.013-.077-.006-.11.014-.308.045-.607.042-.924.001-.453-.025-.898-.179-1.288-.117-.017-.233.002-.348.005-.19.1-.385.19-.564.296l.018.145-.005.002Z" fill="#FC0"/><path d="m7.469 4.485-.119.005-.012.006-.194.1a5.439 5.439 0 0 0-.373.197l-.028.016.026.222.373.012a4.277 4.277 0 0 1-.319 2.7l-.103.212c-.063.13-.13.265-.184.403l-.014.035.03.024c.15.116.301.226.452.326l.04.026.03-.038a3.42 3.42 0 0 0 .332-.569l.054-.107c.054-.094.086-.203.114-.306l.021-.074c.29.27.474.6.65.926l.033.06.041.094.125.254.038-.016c.133-.04.264-.094.39-.145l.118-.049v-.088c-.11-.406-.328-.794-.695-1.25a2.78 2.78 0 0 0 .06-.017l.082-.02c.324-.086.703-.382.773-.762a1.03 1.03 0 0 0-.399-1.085l-.028-.02-.458.307v.075l.119.198c.071.128.042.322-.02.459-.122.192-.346.225-.524.217v-.009c0-.01 0-.025.005-.044l.017-.297a8.62 8.62 0 0 0 .025-.573v-.122c0-.399-.027-.852-.184-1.248l-.01-.028-.03-.003a1.073 1.073 0 0 0-.249 0l-.005-.004Zm.012.105c.069-.005.133-.007.196 0 .142.375.167.802.167 1.181v.121c0 .194-.013.383-.025.567l-.018.29c-.003.022-.006.041-.006.058 0 .032.006.062.022.084l.014.02.025.003c.303.026.53-.066.658-.268a.802.802 0 0 0 .073-.325.48.48 0 0 0-.054-.233s-.075-.124-.101-.17c.041-.026.295-.199.348-.234a.924.924 0 0 1 .334.957c-.063.343-.408.607-.7.684l-.084.023-.207.056.05.061c.386.471.608.863.719 1.27l-.053.02c-.11.046-.224.091-.34.13l-.08-.168-.043-.098-.034-.062c-.19-.355-.388-.722-.73-1.013l-.059-.05-.07.23a1.23 1.23 0 0 1-.105.286l-.056.11c-.088.175-.18.353-.296.511a7.89 7.89 0 0 1-.37-.27c.05-.12.108-.241.166-.357l.103-.213a4.372 4.372 0 0 0 .418-1.878c0-.304-.032-.61-.095-.908l-.003-.016-.042-.042-.333-.012c-.003-.028-.005-.042-.006-.067A5.63 5.63 0 0 1 7.2 4.69l.186-.095.1-.005" fill="#FC0"/><path d="M6.358 7.616c-.037-.429-.072-.88-.107-1.309-.028-.222 0-.467-.133-.646-.126-.187-.338-.28-.557-.203-.157.03-.26.187-.365.298-.007-.086-.01-.156-.021-.252-.177.014-.396.033-.57.049 0 0 .022.308.038.444l.136-.007c.01.091.007.168.02.254.043.504.076.987.127 1.487l.406-.035a34.547 34.547 0 0 0-.1-1.282c-.019-.146-.005-.293.125-.378.08-.046.215-.067.295-.007a.292.292 0 0 1 .123.2c.035.47.068.942.115 1.41v.019l.466-.042h.002Z" fill="#009640"/><path d="M5.544 5.411c-.128.023-.222.126-.306.222l-.016-.185-.05.005-.622.054.005.051.042.493.05-.003.087-.004c.001.034.005.072.005.072l.01.135.042.506.09 1.032.05-.005.457-.04-.003-.05c-.03-.49-.062-.899-.1-1.284-.021-.166.01-.27.101-.329.067-.038.179-.05.238-.009.055.035.084.088.104.168l.015.223c.028.388.058.79.1 1.183v.017l.004.053.565-.051L6.3 6.307l-.012-.168c-.01-.175-.021-.357-.13-.504-.145-.215-.387-.303-.614-.22V5.41Zm-.312.385.063-.07c.083-.095.167-.193.275-.214.194-.068.383.002.506.182.093.125.101.282.11.452l.014.173.054.655.051.6-.362.033a44.392 44.392 0 0 1-.096-1.151l-.016-.23a.364.364 0 0 0-.147-.238c-.096-.07-.252-.05-.348.006-.105.07-.156.175-.156.323a.76.76 0 0 0 .007.105c.035.37.066.763.096 1.23-.065.008-.238.022-.306.029l-.08-.93-.043-.507-.01-.13-.012-.175-.05.006-.087.003a27.665 27.665 0 0 0-.03-.345c.076-.007.392-.035.47-.04.003.056.012.15.012.15l.012.172.079-.089h-.006Zm-.864 1.582c.03.126.072.301.1.43l-.548.128-.06-.245c-.082.153-.166.328-.367.377a.503.503 0 0 1-.511-.123.68.68 0 0 1-.175-.296l-.378-1.597-.005-.025c.133-.028.313-.073.448-.096.119.465.229.93.341 1.398.023.075.093.14.163.17.115.037.227-.007.31-.088.068-.087.064-.196.045-.302l-.278-1.175-.037-.145c.126-.028.29-.075.416-.1l.016.065c.128.54.263 1.108.39 1.65l.13-.028v.002Z" fill="#009640"/><path d="m3.824 5.64-.263.061-.206.051.012.051.037.145.278 1.173c.021.119.01.2-.037.259-.04.038-.134.108-.253.07a.235.235 0 0 1-.128-.135l-.109-.445-.245-.999-.047.01-.317.069-.182.04.014.074.378 1.597a.738.738 0 0 0 .19.322.552.552 0 0 0 .561.133c.17-.042.26-.16.334-.288l.042.17.648-.153-.123-.527s-.092.021-.13.028l-.111-.472-.268-1.127-.016-.065-.01-.05-.047.01-.002-.002Zm-.236.16.208-.05c0 .006.406 1.715.406 1.715l.13-.028.076.331-.45.105-.08-.324-.075.14c-.075.14-.154.286-.322.328a.455.455 0 0 1-.464-.11.635.635 0 0 1-.161-.275s-.322-1.369-.37-1.567c.04-.008.083-.019.083-.019s.2-.042.266-.058l.22.903.109.448a.336.336 0 0 0 .193.205c.127.04.259.004.364-.098a.357.357 0 0 0 .073-.224.66.66 0 0 0-.012-.122l-.28-1.176-.025-.097.109-.026m7.395 2.013-.115.42-.529-.139c.013-.084.028-.166.04-.255l-.022.01c-.168.112-.387.231-.597.121-.198-.08-.289-.285-.303-.481l.013-.163c.14-.527.253-1.069.393-1.598l.004-.022c.14.036.315.073.455.117 0 0-.235.947-.343 1.398-.021.075.009.144.042.203.08.095.2.135.32.1.207-.091.2-.306.248-.485l.27-1.085.408.098s-.277 1.164-.413 1.706l.13.05v.005Z" fill="#009640"/><path d="m9.814 5.702-.004.02-.395 1.598v.006l-.012.162c.017.261.143.457.334.534.196.102.396.025.574-.082l-.007.047-.023.149.044.012.578.15.141-.512-.131-.05.413-1.712-.049-.013-.458-.11-.282 1.134-.028.119c-.028.145-.055.268-.193.329a.248.248 0 0 1-.257-.082.278.278 0 0 1-.038-.121c0-.012 0-.024.005-.037l.355-1.449-.352-.09-.205-.051-.01.052v-.003Zm-.102.841.191-.77.102.027s.187.049.253.064c-.02.091-.332 1.351-.332 1.351a.286.286 0 0 0-.009.063c0 .072.033.135.054.177v.005l.007.006a.348.348 0 0 0 .373.115c.193-.086.228-.255.257-.406l.027-.114.259-1.036c.065.016.243.058.31.076l-.412 1.7.042.016.088.034c-.018.06-.072.26-.091.327l-.436-.114.009-.056.038-.25-.087.042-.023.01c-.184.121-.373.216-.553.121-.158-.063-.259-.227-.275-.44l.01-.15c.004-.01.198-.794.198-.794m-8.137.045c-.077-.019-.15-.052-.226-.08-.201-.044-.38.033-.53.15a.626.626 0 0 0-.138.684c.078.266.36.387.61.415.202.025.485-.061.557.191.007.063.017.138-.028.187-.068.082-.16.133-.278.109-.088-.006-.147-.077-.228-.1-.068.026-.138.065-.208.1l.245.568.19-.08c-.104-.268-.017-.028-.11-.28.088.052.18.075.268.107a.609.609 0 0 0 .552-.17c.164-.166.18-.45.108-.667-.096-.268-.385-.402-.656-.413-.145-.016-.342.05-.44-.103a.228.228 0 0 1 0-.24c.058-.105.174-.114.279-.105.063.025.12.065.185.088l.22-.1c-.06-.189-.155-.36-.227-.544l-.02-.053c-.065.026-.148.068-.21.096l.085.24Z" fill="#009640"/><path d="m1.68 6.209-.12.054-.132.06.014.045.05.14a3.324 3.324 0 0 0-.048-.015l-.076-.028c-.196-.044-.388.01-.577.157a.657.657 0 0 0-.205.485c0 .087.016.177.051.259.103.359.525.432.651.444l.164.006c.191-.002.308.007.35.15.006.047.013.107-.017.137-.068.082-.142.112-.231.094a.24.24 0 0 1-.116-.047l-.129-.063-.01.012-.177.082-.079.04.02.044.263.616.284-.119-.08-.197-.004-.011.091.032.066.022a.66.66 0 0 0 .606-.18c.187-.19.196-.499.122-.721-.115-.315-.45-.437-.701-.446h-.132c-.133.005-.215 0-.267-.079a.178.178 0 0 1 0-.184c.038-.068.106-.09.224-.082l.078.037.125.058L1.755 7l.261-.117-.014-.044c-.037-.117-.088-.227-.137-.336l-.09-.212-.04-.101-.048.02-.007-.001Zm-.079.147.07-.031.095.218c.042.091.082.186.117.282l-.156.07-.073-.033-.102-.05h-.005c-.06-.004-.242-.022-.327.132a.28.28 0 0 0 0 .29c.087.137.238.132.358.127h.12c.225.01.517.113.614.38.061.185.057.456-.098.614a.56.56 0 0 1-.506.155l-.063-.022c-.063-.021-.13-.042-.19-.08l-.127-.073.107.277.037.094c-.035.014-.063.027-.098.04l-.207-.477.144-.068.068.035c.044.026.093.056.156.059.117.025.23-.02.32-.128.06-.061.049-.154.04-.22v-.012c-.068-.228-.28-.224-.45-.223l-.152-.003c-.112-.012-.478-.075-.567-.378a.57.57 0 0 1 .124-.632c.163-.126.324-.173.485-.138l.067.026.257.088-.04-.1s-.05-.137-.07-.196l.049-.023m11.432.624h-.012c-.047-.081-.077-.17-.126-.255a.671.671 0 0 0-.348-.213.59.59 0 0 0-.576.196c-.147.18-.222.458-.105.675.077.21.31.359.418.557.03.09 0 .187-.057.257-.055.067-.152.06-.231.05a.353.353 0 0 1-.223-.325 2.78 2.78 0 0 0-.237-.1c-.081.177-.162.39-.235.571l.21.08c.04-.089.072-.185.116-.267.03.101.075.175.111.262.109.174.296.254.489.273.245.007.465-.183.562-.393.17-.382-.116-.714-.384-.975-.031-.067-.063-.16-.017-.228.045-.071.119-.131.208-.12.072-.002.124.045.175.087.07.063.065.158.1.238l.232.088c.085-.196.158-.385.235-.592l-.205-.08-.1.22v-.005Z" fill="#009640"/><path d="M11.93 6.674a.78.78 0 0 0-.175.473c0 .09.019.178.064.26.044.121.14.225.233.324.072.077.139.15.184.23a.187.187 0 0 1 .009.054.24.24 0 0 1-.058.15c-.037.046-.108.042-.18.034a.304.304 0 0 1-.186-.277V7.89l-.318-.133-.016.047-.175.422-.079.198.047.019.256.098.066-.16s.011-.026.02-.041c.008.02.017.042.028.061l.04.09.004.003c.134.215.36.28.526.297.284.009.516-.213.613-.423a.607.607 0 0 0 .054-.252c0-.338-.284-.62-.441-.774a.286.286 0 0 1-.031-.117c0-.021.005-.039.014-.053.026-.042.08-.108.16-.1.055 0 .091.03.133.065l.014.013c.034.03.044.073.056.126l.036.115.022.004.279.105.019-.046c.084-.192.155-.376.236-.595l.018-.047-.298-.117-.08.18-.09-.182h-.002a.697.697 0 0 0-.374-.231.634.634 0 0 0-.627.212l-.001.001Zm.336 1.553c.073-.09.1-.203.066-.305v-.005l-.003-.005c-.051-.093-.128-.175-.202-.254-.089-.096-.175-.187-.215-.296-.115-.213-.031-.472.095-.625a.538.538 0 0 1 .527-.178c.134.038.24.101.316.194l.056.116.08.164.03-.003h.046l.093-.207c.038.016.073.03.114.044-.067.178-.13.338-.197.499-.052-.021-.134-.051-.162-.062l-.018-.057a.322.322 0 0 0-.089-.179c-.002 0-.016-.012-.016-.012-.049-.04-.108-.09-.194-.088-.091-.01-.185.042-.25.144-.046.068-.042.161.014.276l.003.01.006.004c.281.277.521.58.372.92-.084.18-.28.37-.514.363-.14-.014-.333-.068-.447-.248a6.364 6.364 0 0 1-.038-.084.89.89 0 0 1-.068-.167l-.039-.134-.126.287-.028.066-.115-.045.04-.104.154-.372.165.068a.4.4 0 0 0 .25.336h.012c.07.01.201.026.277-.067" fill="#009640"/><path d="M6.436 8.515c.202.156.415.291.611.454v.017l-.465.424c-.058.075-.114.182-.058.273.213.252.642.017.83.324.087.106.087.278.024.397a.269.269 0 0 1-.186.138c-.348.021-.603-.248-.843-.493-.112-.118-.142-.371-.354-.342-.057.007-.1.05-.14.091-.101-.033-.185-.11-.278-.17a.371.371 0 0 1 .215-.348c.405-.05.408-.512.623-.764h.021Z" fill="#E30613"/><path d="M6.416 8.465h-.023l-.016.017c-.079.091-.13.209-.178.32-.093.212-.174.396-.41.426h-.007l-.007.003a.422.422 0 0 0-.247.398v.026l.104.072c.064.045.13.092.21.119l.031.01.023-.023c.038-.042.07-.071.11-.077.103-.014.149.058.212.177a.637.637 0 0 0 .098.15l.017.018c.235.24.5.513.865.492a.322.322 0 0 0 .229-.166.448.448 0 0 0 .049-.21.377.377 0 0 0-.08-.244c-.109-.178-.3-.19-.468-.203-.141-.01-.276-.019-.364-.122a.093.093 0 0 1-.012-.05c0-.052.035-.111.07-.158.009-.01.476-.434.476-.434v-.063l-.02-.016a5.686 5.686 0 0 0-.354-.266l-.27-.198h-.038v.002Zm-.125.38c.044-.1.088-.191.146-.268.045.035.229.168.229.168.105.075.21.152.313.234l-.432.394v.004c-.072.089-.095.162-.095.222a.2.2 0 0 0 .032.108c.119.142.282.153.437.165.165.01.307.02.392.16.04.052.062.12.062.188a.34.34 0 0 1-.039.16.22.22 0 0 1-.15.111c-.312.018-.55-.226-.781-.462l-.017-.017a.577.577 0 0 1-.083-.128c-.061-.112-.136-.252-.315-.23a.264.264 0 0 0-.145.081.912.912 0 0 1-.156-.092l-.06-.04c.008-.104.064-.228.181-.277.284-.042.387-.275.478-.483m2.896.056c.037.241.044.495.107.726.033.056.089.107.154.112.276-.037.381-.39.635-.49a.358.358 0 0 1 .336.04c.101.109.166.24.145.396-.068.148-.222.196-.348.274a1.69 1.69 0 0 1-.784.121c-.087.004-.189.002-.233.095-.036.06-.005.131-.005.196l-.024.024c-.126.009-.27.193-.378.03a.464.464 0 0 1-.018-.424.452.452 0 0 0-.016-.211L8.447 9.2v-.03l.714-.278.021.006h.002Z" fill="#E30613"/><path d="m9.144 8.846-.748.29v.078s.305.579.31.591a.39.39 0 0 1 .016.184.5.5 0 0 0-.044.205c0 .09.023.183.068.255.098.149.228.08.314.037a.37.37 0 0 1 .11-.044h.02l.053-.056v-.019l-.008-.072c-.006-.04-.01-.075.003-.098.028-.06.084-.064.172-.07h.02c.274.021.56-.023.802-.126l.097-.052c.103-.056.22-.118.278-.247l.003-.007v-.007c.023-.154-.031-.301-.157-.436a.404.404 0 0 0-.39-.056c-.128.051-.218.152-.303.252-.095.11-.188.212-.315.233-.044-.005-.084-.044-.107-.08a3.017 3.017 0 0 1-.072-.459l-.035-.289-.035-.007-.037-.007-.014.005-.001.002Zm-.004.11c.007.065.025.198.025.198.017.161.035.327.077.483v.007l.007.007c.047.08.12.131.194.135h.01c.17-.023.28-.149.385-.27.083-.094.16-.183.261-.224.105-.036.214-.024.285.034.086.092.13.19.13.295 0 .016 0 .03-.003.044-.046.093-.135.142-.231.193l-.095.052c-.219.093-.49.135-.754.114h-.027c-.085.004-.203.01-.255.123a.16.16 0 0 0-.023.087c0 .026.004.05.007.073l.004.035a.488.488 0 0 0-.125.048c-.1.05-.138.063-.182-.002a.373.373 0 0 1-.052-.2c0-.06.012-.122.038-.173l.004-.007v-.007a.552.552 0 0 0-.018-.234V9.76s-.273-.514-.297-.563l.633-.247" fill="#E30613"/><path d="M4.41 5.38c.297-.036.623-.053.922-.08.007.025 0 .05.006.055.015-.007.082-.047.111-.053.261-.082.559-.068.756.17.067.072.14.194.184.362.074.685.15 1.679.165 1.957-.272.021-.553.05-.826.068l-.004-.01a96.177 96.177 0 0 0-.14-1.62c-.017-.043-.063-.057-.105-.043-.082.014-.082.093-.07.182.007.051.093 1.047.128 1.498v.012l-.786.065-.003-.019c-.046-.567-.102-1.162-.139-1.73l-.136.013-.063-.826V5.38Zm1.948 2.236c-.037-.429-.072-.88-.107-1.309-.028-.222 0-.467-.133-.646-.126-.187-.338-.28-.557-.203-.157.03-.26.187-.365.298-.007-.086-.01-.156-.021-.252-.177.014-.396.033-.57.049 0 0 .022.308.038.444l.136-.007c.01.091.007.168.02.254.043.504.076.987.127 1.487l.406-.035a34.547 34.547 0 0 0-.1-1.282c-.019-.146-.005-.293.125-.378.08-.046.215-.067.295-.007a.292.292 0 0 1 .123.2c.035.47.068.942.115 1.41v.019l.466-.042h.002ZM3.199 5.658c.252-.065.518-.131.77-.19l.018.078c.124.539.264 1.106.392 1.641l.13-.033c.064.24.12.544.183.786l-.887.22c-.016-.02-.004-.043-.018-.043-.038.019-.112.082-.164.096-.217.107-.524.087-.71-.075a.896.896 0 0 1-.29-.464l-.411-1.78c.26-.072.537-.14.807-.196l.01.05c.116.501.233 1.003.356 1.499.012.037.02.064.057.07.039.008.088 0 .109-.025.02-.019.012-.063.012-.063L3.21 5.707l-.013-.051.002.002Zm1.04 1.748-.39-1.648-.016-.067c-.126.024-.291.072-.417.1l.037.145.278 1.174c.02.107.021.217-.047.303-.082.08-.194.124-.31.087a.293.293 0 0 1-.163-.17c-.113-.466-.222-.934-.341-1.397-.135.024-.315.068-.448.096l.005.024.378 1.598a.69.69 0 0 0 .175.296.503.503 0 0 0 .511.122c.202-.049.286-.226.368-.376l.06.245.547-.128c-.03-.13-.072-.304-.1-.43l-.13.028.003-.002Zm6.483-1.676.767.197-.42 1.713.126.039c-.062.259-.133.528-.196.786l-.886-.23.005-.038c-.27.017-.568-.044-.724-.287-.116-.173-.145-.399-.112-.621l.448-1.794.005-.007c.264.065.541.128.804.2-.021.09-.291 1.144-.386 1.588.008.035.034.056.065.07.053.018.095-.02.116-.063l.336-1.372.049-.183.003.001Zm.13 2.036c.136-.542.413-1.708.413-1.708l-.408-.098-.27 1.085c-.05.179-.041.392-.248.485a.302.302 0 0 1-.32-.1c-.032-.06-.063-.129-.042-.203.108-.451.343-1.398.343-1.398-.14-.044-.315-.08-.455-.117l-.004.023c-.142.528-.255 1.069-.394 1.597l-.012.163c.014.196.104.401.303.481.21.109.429-.01.599-.12l.022-.01c-.012.088-.028.169-.04.255l.528.138.116-.42-.13-.049-.001-.004Zm.579-.199c.116.046.271.109.394.144v-.03c-.194-.242-.266-.61-.121-.9.12-.25.378-.467.66-.469.246-.019.463.093.642.238l.023-.045.546.219-.004.014-.353.936c-.135-.04-.226-.088-.345-.116l-.028-.008c.014.098.103.175.128.273a.831.831 0 0 1-.209.871.755.755 0 0 1-.726.208.86.86 0 0 1-.378-.22l-.023.05c-.189-.064-.388-.152-.57-.223.119-.308.238-.615.354-.923l.008-.019h.002Zm1.598-.584h-.01c-.05-.083-.078-.172-.127-.258a.678.678 0 0 0-.348-.213.59.59 0 0 0-.576.196c-.147.178-.222.457-.105.675.077.21.31.357.418.557a.27.27 0 0 1-.057.255c-.056.069-.152.062-.233.051a.356.356 0 0 1-.222-.325 2.315 2.315 0 0 0-.238-.098c-.079.176-.161.39-.235.57l.21.08c.04-.089.072-.185.116-.267.03.101.075.173.112.262.108.174.294.254.488.273.245.007.466-.183.562-.393.17-.384-.116-.714-.382-.975-.031-.067-.063-.161-.017-.228.045-.071.119-.131.208-.12.072-.002.123.045.175.087.07.063.065.158.1.238l.232.088c.086-.196.158-.385.235-.592l-.205-.08-.1.22-.001-.003Zm-.457.243c-.01.014-.01.017-.009.033.025.03.051.068.088.075.005-.024-.007-.045-.012-.068-.021-.014-.032-.058-.067-.042v.002Zm-.605.649a.17.17 0 0 0 .024.126.09.09 0 0 0 .088.054.04.04 0 0 0 .015-.04.288.288 0 0 0-.127-.138m-10.15.943c-.179.072-.375.168-.56.247L.86 8.148c.126-.068.259-.117.385-.184v-.012c-.303-.046-.65-.224-.739-.548-.089-.233-.071-.551.076-.754a.87.87 0 0 1 .663-.341l-.02-.053.566-.245.054.123c.112.273.247.537.345.819-.119.05-.233.11-.348.168.036.038.105.036.157.05.277.065.506.322.569.594.058.346-.031.707-.348.889-.131.064-.27.11-.424.115l.02.051Zm-.242-2.228c-.077-.019-.15-.052-.224-.08-.201-.044-.38.033-.53.15a.626.626 0 0 0-.139.684c.077.266.361.387.611.415.202.025.485-.061.557.191.007.063.017.138-.028.187-.069.082-.16.133-.278.109-.088-.006-.147-.077-.228-.1-.068.026-.138.065-.208.1l.245.568.19-.08c-.105-.268-.017-.028-.11-.28.088.052.18.075.268.107a.609.609 0 0 0 .551-.17c.165-.166.18-.45.109-.669-.097-.266-.385-.402-.657-.41-.145-.017-.34.048-.439-.104a.231.231 0 0 1 0-.24c.058-.105.173-.114.279-.105.063.025.12.065.185.088l.22-.1c-.06-.189-.155-.36-.227-.544l-.021-.053c-.065.026-.147.068-.21.096l.086.24h-.002Zm-.01.511c-.037.018-.104.021-.14-.003-.004-.025.012-.03.03-.042.045-.007.076.019.11.045Zm.068.872a.363.363 0 0 0-.184-.006c.038.05.107.104.178.083.02-.009.037-.03.03-.053l-.024-.024Z" fill="#1D1D1B"/><path d="M7.023 5.175h-.385a2.036 2.036 0 0 0-.03-.24l-.198.073a.976.976 0 0 1-.308-1.053 1.61 1.61 0 0 1 .186-.34c-.028-.119-.016-.269.075-.358.093-.1.22-.121.354-.1a.56.56 0 0 1 .192.115c.38-.038.733.121.98.43h.028c.243-.053.494-.396.744-.127.05.075.031.196-.018.266l-.08.082c-.252.128-.502.252-.751.387.002.03.046.02.046.054.178.448.208.961.22 1.469h.03l.675-.454c.331.209.545.548.581.917.028.473-.196.916-.617 1.14-.069.031-.137.071-.209.096.02.065.08.112.11.17.207.308.366.633.475.981.072-.012.135-.043.203-.064l.019.028c.032.283.061.565.096.841.007.025.03.039.053.025.222-.203.404-.513.731-.488a.47.47 0 0 1 .418.248c.091.15.153.368.058.536-.222.266-.534.386-.859.443a2.597 2.597 0 0 1-.451.01c-.046.021-.007.065-.018.107-.003.045.028.108-.007.145l-.465.175c-.142 0-.256-.119-.312-.24-.058-.162-.077-.357 0-.516l-.007-.07c-.131-.27-.289-.525-.411-.796.031-.032.13-.025.09-.098-.16-.354-.34-.702-.596-1.017-.09.131-.14.285-.22.423l-.249.433v.022l.15.121v.018l-.614.551c-.01.02-.033.033-.028.058.076.054.177.043.272.054.243.007.486.122.588.36a.569.569 0 0 1-.104.61.494.494 0 0 1-.435.12c-.4-.084-.77-.43-.97-.789-.012-.007-.017-.028-.037-.023-.063.039-.08.191-.166.121l-.453-.296c-.044-.101 0-.21.023-.306.052-.152.19-.313.355-.343.075.007.135-.049.173-.109l.394-.749c.023-.012.044.018.07.018.315-.595.605-1.197.656-1.906.044-.38.032-.782-.04-1.144l-.007-.023v.002Zm-.336-1.826c-.068-.028-.14-.001-.191.046-.07.072-.012.177 0 .257l-.15.215c-.132.228-.161.583.012.802.031.037.058.101.115.103l1.964-.992c.028-.03.072-.044.063-.095-.012-.028-.04-.012-.063-.015l-.569.266h-.049l-.108-.15a.879.879 0 0 0-.872-.304c-.063-.038-.082-.106-.152-.133Zm.128 1.631.355.013.017.017a4.39 4.39 0 0 1-.318 2.755c-.095.203-.203.402-.285.61.147.114.297.223.448.324.157-.203.266-.44.383-.668.08-.139.103-.301.157-.454.354.301.55.685.75 1.057.048.104.087.209.145.308.159-.049.315-.115.469-.178v-.042c-.128-.48-.405-.898-.732-1.295.074-.02.144-.04.215-.058.324-.086.672-.376.737-.72a.984.984 0 0 0-.378-1.035l-.406.275v.033l.112.185c.082.15.047.361-.017.506-.132.208-.363.266-.61.245-.019-.03-.013-.077-.006-.11.014-.308.045-.607.042-.926.001-.453-.025-.898-.179-1.286-.115-.018-.233.002-.348.003-.19.1-.385.19-.564.296l.018.145h-.005Zm1.265.896c-.02.265-.005.5-.033.76l.015.02c.098-.015.198-.057.245-.153.126-.249-.082-.45-.227-.627Zm-1.664 2.64c-.216.251-.22.713-.623.764-.142.058-.217.21-.216.348.093.058.177.135.279.17.04-.044.082-.084.14-.09.21-.03.241.225.353.34.24.245.494.513.844.494a.266.266 0 0 0 .185-.138c.063-.12.063-.29-.024-.397-.19-.309-.618-.072-.83-.324-.056-.091 0-.198.058-.273l.464-.424V8.97c-.196-.161-.41-.298-.61-.454h-.02Zm2.747.377-.714.279V9.2l.308.586c.021.07.028.133.018.212a.459.459 0 0 0 .017.423c.109.165.252-.019.378-.03l.025-.024c0-.065-.032-.138.005-.196.044-.093.145-.09.233-.095.27.021.546-.02.784-.12.124-.079.28-.126.348-.275.023-.156-.044-.285-.146-.396a.354.354 0 0 0-.335-.042c-.252.1-.36.454-.636.49-.064-.005-.12-.056-.154-.112-.063-.229-.07-.484-.106-.726l-.021-.005-.004.003Z" fill="#1D1D1B"/></svg>