<svg width="14" height="14" fill="none" xmlns="http://www.w3.org/2000/svg"><g clip-path="url(#a)"><path d="M14 7A7 7 0 1 1 0 7a7 7 0 0 1 14 0Z" fill="#2974B1"/><path d="M7 13.338A6.346 6.346 0 0 1 .661 7 6.346 6.346 0 0 1 7 .661 6.346 6.346 0 0 1 13.338 7 6.346 6.346 0 0 1 7 13.338Z" fill="#2974B1"/><path d="M7 13.449A6.456 6.456 0 0 1 .551 7 6.456 6.456 0 0 1 7 .551 6.456 6.456 0 0 1 13.449 7 6.456 6.456 0 0 1 7 13.449ZM7 .772A6.236 6.236 0 0 0 .772 7 6.236 6.236 0 0 0 7 13.228 6.236 6.236 0 0 0 13.228 7 6.236 6.236 0 0 0 7 .772Z" fill="#fff"/><path fill-rule="evenodd" clip-rule="evenodd" d="M6.265 5.709c-.341-.02-.333-.018-.259-.387.017-.09-.037-.201-.077-.294-.203-.48-.1-.604.423-.665.492-.058.986-.067 1.474.035.32.066.38.189.271.495-.035.096-.077.193-.1.292-.014.065.007.135.01.202.001.089.022.19-.013.266-.018.036-.142.024-.217.035l-.065.01c-.019.023-.038.047-.06.07.055.026.118.042.163.079.319.26.462.612.47 1.011.012.793.006 1.586.005 2.379 0 .255-.091.416-.349.434-.521.036-1.034.028-1.564.017-.133.002-.266-.028-.397-.049-.184-.031-.286-.157-.286-.33.004-.895.01-1.791.037-2.687.01-.301.175-.555.406-.752.053-.046.123-.072.184-.107l-.056-.056v.002Zm1.48-.158c.1-.283.198-.544.284-.808.04-.125-.033-.202-.15-.224a4.27 4.27 0 0 0-1.775.005c-.063.014-.161.135-.149.182.077.282.18.556.28.849.18-.123.187-.273.187-.427.002-.245.002-.247.25-.252.226-.004.452.007.676 0 .165-.007.233.045.214.218-.018.165-.007.331.183.459V5.55ZM6.52 5.66h.957c-.161-.105-.83-.102-.957 0Zm-.533-2.15c.066-.178.138-.355.215-.54a1.16 1.16 0 0 0-.098.007c-.037.003-.058-.012-.06-.05a2.457 2.457 0 0 0-.008-.116c-.002-.03.01-.048.043-.05.15-.01.3-.017.448-.024.034 0 .048.012.048.044 0 .042 0 .084.003.126.002.031-.012.047-.045.047-.023 0-.044 0-.067.002-.038.003-.044.01-.024.044.05.092.101.185.15.278l.084.16.025.045c.01-.018.019-.03.024-.042.075-.151.152-.301.231-.45.023-.042.02-.046-.03-.046h-.07c-.031 0-.049-.012-.05-.043 0-.044 0-.088-.002-.132 0-.028.014-.042.044-.042.152-.001.304 0 .456.002.032 0 .046.021.046.047 0 .044 0 .088-.004.132 0 .028-.019.042-.049.04-.124-.004-.098-.016-.16.094-.109.193-.212.389-.31.585-.025.05-.021.056.033.056.094 0 .094 0 .096.094v.079c0 .033-.016.049-.047.049-.131 0-.263.005-.394.009-.04 0-.054-.014-.058-.056-.003-.039-.003-.077-.005-.114 0-.035.016-.05.05-.052h.05c.042.001.049-.01.03-.046a11.409 11.409 0 0 0-.203-.381 1.854 1.854 0 0 0-.05-.084h-.012c-.075.175-.145.35-.218.537.033-.002.056-.005.08-.005.065-.002.075.007.079.07l.005.078c.002.05-.01.069-.06.072l-.4.025c-.012 0-.035-.018-.037-.03-.009-.046-.012-.095-.016-.142-.001-.026.016-.04.04-.044l.07-.007c.029 0 .036-.014.02-.036-.044-.069-.086-.139-.131-.205a27.22 27.22 0 0 0-.273-.403c-.027-.036-.055-.056-.102-.043a.159.159 0 0 1-.04.005c-.026 0-.046-.01-.049-.039l-.018-.133c-.003-.026.01-.04.037-.043.152-.02.306-.037.46-.05.014 0 .039.02.04.032a.8.8 0 0 1 .013.145c0 .013-.023.03-.039.035-.026.007-.054.007-.082.01-.04.006-.045.015-.023.048a15.46 15.46 0 0 1 .3.455c.005 0 .008 0 .014-.002v-.001Zm4.508.456c.009-.021.016-.034.019-.044.039-.133.079-.264.117-.397.014-.048.009-.053-.04-.069-.119-.035-.117-.02-.084-.138.033-.115.02-.107.14-.072.117.034.233.069.348.107.05.016.055.026.039.072-.01.035-.023.07-.034.105-.014.042-.022.045-.07.031a.798.798 0 0 0-.059-.019c-.032-.007-.05 0-.061.032-.063.206-.126.41-.191.616-.01.031 0 .047.03.054h.003c.114.033.105.038.07.142-.033.101-.037.103-.136.071-.105-.033-.21-.07-.315-.101-.039-.01-.046-.032-.035-.067l.028-.094c.017-.06.019-.061.08-.044.021.005.04.012.062.018a.05.05 0 0 1 .01-.014 12.312 12.312 0 0 0-.424-.622c-.007.02-.012.028-.014.039-.033.136-.064.273-.1.41-.008.033.004.045.034.052.024.005.05.014.075.02.034.01.044.032.035.064a.96.96 0 0 1-.042.126c-.003.01-.028.023-.038.02a19.75 19.75 0 0 1-.405-.095c-.012-.004-.03-.03-.028-.046.004-.044.018-.087.027-.131.005-.025.02-.035.045-.033.007 0 .014 0 .02.003.06.01.097-.015.111-.077.044-.192.086-.385.132-.576.008-.033 0-.049-.037-.056-.123-.022-.098-.024-.079-.12l.016-.074c.005-.024.02-.035.047-.03.142.03.284.063.424.098.047.013.054.028.043.07l-.026.104c-.012.04-.028.049-.07.038a1.433 1.433 0 0 0-.084-.017c-.003 0-.007.003-.019.008.152.209.298.415.438.634l-.002.002ZM7.938 2.762c.117.008.234.017.352.03.105.01.159.075.147.173l-.02.18c-.003.035-.022.052-.059.047h-.016c-.093-.009-.096-.012-.089-.101.005-.067-.009-.084-.08-.091a11.522 11.522 0 0 0-.49-.035c-.053-.004-.069.012-.072.06-.002.048-.006.095-.007.143-.002.05.012.066.063.068.189.01.376.028.563.042.08.007.166.08.15.182-.019.122-.027.247-.043.37a.147.147 0 0 1-.158.136c-.215-.02-.432-.037-.647-.048-.08-.003-.138-.075-.138-.168 0-.073.008-.147.014-.218.001-.032.017-.046.05-.044.125.005.123 0 .114.122-.003.072.012.088.08.093.146.009.291.023.435.037.075.007.098-.012.105-.09l.014-.145c.003-.056-.01-.073-.069-.078a8.49 8.49 0 0 0-.556-.039c-.11-.003-.175-.072-.172-.182.004-.1.006-.2.011-.3a.174.174 0 0 1 .049-.125.136.136 0 0 1 .108-.04c.12.007.237.012.356.02h.005ZM5.23 3.801a2.327 2.327 0 0 0-.08-.103c-.007-.007-.024-.009-.036-.007-.128.017-.254.038-.382.06-.037.005-.06.024-.068.059l-.032.108a4.24 4.24 0 0 1 .102-.019c.05-.009.065 0 .075.05.007.034.01.069.02.102.008.037-.008.058-.04.063l-.407.076c-.01.001-.033-.014-.037-.027-.014-.045-.022-.09-.033-.138-.007-.028.01-.045.035-.047.077-.002.098-.051.117-.116.063-.218.139-.435.217-.652.006-.014.009-.027.016-.05l-.086.016c-.04.007-.06-.003-.068-.043a2.69 2.69 0 0 1-.023-.116c-.007-.033.007-.052.044-.06.145-.027.292-.052.44-.075.03-.005.047.007.052.035.005.046.012.091.019.137.005.03-.01.044-.038.049l-.109.017c.01.018.016.03.025.04.164.197.323.394.476.596.015.02.031.024.056.02.106-.013.106-.012.119.097.012.112.012.112-.097.124-.108.014-.217.03-.325.046-.05.007-.063-.004-.072-.055l-.014-.105c-.005-.033.009-.052.042-.057.03-.006.061-.01.091-.014 0-.006.004-.01.005-.014l-.003.003Zm-.35-.227c.038-.007.074-.011.111-.02.035-.008.04-.024.02-.05l-.14-.167c-.02-.022-.037-.02-.048.007-.028.07-.052.14-.079.212-.01.03.004.04.032.037a1.34 1.34 0 0 0 .107-.02H4.88Zm3.667-.164c.018-.14.037-.281.053-.421a.158.158 0 0 1 .187-.136c.222.036.446.068.668.112.109.02.167.096.146.196-.055.274-.11.547-.168.822-.02.09-.09.154-.198.131a6.114 6.114 0 0 0-.613-.1.154.154 0 0 1-.13-.174c.022-.142.038-.284.055-.426v-.003Zm.802.129c.017-.097.036-.191.054-.287.012-.06-.005-.083-.068-.095a11.25 11.25 0 0 0-.482-.079c-.07-.01-.094.007-.105.076-.02.147-.042.295-.061.444a1.464 1.464 0 0 0-.017.133c-.006.046.014.075.049.08l.476.083c.059.01.087-.01.098-.072.019-.094.036-.19.054-.285l.002.002Zm-5.574.811c-.128.037-.257.076-.385.116-.058.018-.077.009-.097-.049l-.026-.082c-.008-.028 0-.05.03-.058l.007-.002c.119-.036.096-.033.067-.134l-.175-.564c-.016-.049-.018-.05-.07-.033-.116.038-.112.037-.147-.07-.034-.107-.04-.098.073-.135a8.6 8.6 0 0 1 .366-.108c.052-.014.061-.011.075.036l.03.11c.008.03-.006.05-.035.058a.554.554 0 0 1-.077.021c-.035.009-.044.027-.034.058.032.103.062.208.093.313.03.105.063.209.091.314.01.035.025.042.06.031.115-.035.234-.068.352-.096.035-.009.045-.023.035-.058-.013-.045-.023-.091-.035-.136-.011-.035.003-.056.036-.067l.012-.003c.095-.025.097-.023.118.068l.07.296c.01.049.002.063-.046.075-.131.031-.26.066-.39.103l.002-.003Zm6.79 6.01c-.004-.023-.004-.035-.007-.047l-.112-.389c-.012-.045-.02-.049-.067-.037-.112.03-.103.039-.134-.075-.03-.114-.037-.098.073-.127.107-.029.212-.06.319-.09.043-.014.052-.007.068.037l.031.103c.012.042.009.051-.037.065a.365.365 0 0 0-.056.018c-.027.01-.04.026-.03.057.062.201.123.403.183.606.009.031.026.038.056.026h.003c.117-.038.112-.031.146.072.03.1.03.105-.081.134-.115.034-.233.062-.35.092-.042.01-.06-.004-.068-.037l-.023-.095c-.016-.057-.014-.06.05-.077a.918.918 0 0 0 .066-.017v-.018c-.23-.101-.454-.208-.68-.325.002.019.002.03.006.04.031.135.065.268.094.4.007.034.025.04.056.03.027-.006.055-.01.08-.017.036-.007.057.007.066.037.01.042.019.085.022.127 0 .011-.016.034-.026.036a7.713 7.713 0 0 1-.443.096c-.014.002-.042-.016-.047-.03-.014-.04-.02-.086-.028-.128-.005-.024.007-.04.03-.047l.019-.005c.063-.015.088-.053.075-.114-.042-.189-.084-.376-.124-.565-.007-.034-.021-.044-.052-.035-.114.026-.095.015-.116-.079l-.014-.072c-.005-.024.002-.038.028-.043.128-.027.257-.057.385-.086.042-.01.056 0 .067.042.008.033.017.066.024.1.009.04 0 .054-.04.064l-.079.021c-.003 0-.005.006-.012.018.219.115.443.226.68.332l-.001.002Zm-6.757-.7c.103.025.207.047.31.068.093.021.135.084.117.177-.01.058-.023.114-.031.17-.007.033-.025.047-.06.04l-.016-.004c-.087-.017-.09-.02-.075-.104.012-.063 0-.081-.065-.095a12.617 12.617 0 0 1-.444-.105c-.047-.012-.065 0-.077.046l-.033.13c-.013.048 0 .066.047.078.177.045.355.089.535.122.077.016.154.093.132.188-.028.115-.046.234-.069.351-.014.079-.09.128-.176.11-.23-.045-.457-.1-.683-.16a.154.154 0 0 1-.11-.191c.017-.069.04-.135.061-.201.009-.03.028-.039.06-.03.12.033.119.026.089.14-.018.066-.005.085.066.105.147.038.294.075.441.108.077.018.104 0 .118-.072.008-.045.019-.09.028-.136.008-.053-.004-.07-.06-.082-.18-.04-.36-.084-.54-.128-.107-.026-.155-.105-.127-.208l.076-.277c.012-.042.031-.082.071-.106a.12.12 0 0 1 .104-.016c.103.028.206.052.311.079v.003Zm2.399 1.358c-.019-.039-.038-.079-.06-.116-.005-.008-.022-.012-.034-.013-.13-.011-.26-.021-.389-.035-.038-.004-.065.007-.084.038a1.814 1.814 0 0 1-.063.093l.105.01c.053.006.065.02.061.07a1.823 1.823 0 0 0-.008.102c0 .037-.023.052-.056.049-.147-.014-.29-.026-.438-.042-.024 0-.03-.037-.03-.05 0-.046.01-.092.016-.138.004-.027.023-.035.05-.031.038.002.081.007.081.007s.053-.06.072-.088c.13-.185.257-.355.38-.542l.026-.044a.964.964 0 0 1-.079-.007c-.038-.003-.05-.019-.049-.058l.011-.115c.003-.033.02-.047.052-.046.132.013.265.022.396.029.028 0 .04.015.038.043l-.007.135c0 .03-.017.042-.045.04a.99.99 0 0 1-.102-.007c.006.02.007.034.013.044.108.224.224.444.344.665.013.023.03.03.055.03.11.003.112.003.108.11-.002.11-.002.11-.12.108a11.82 11.82 0 0 1-.352-.015c-.055-.004-.067-.016-.063-.069.001-.035.007-.07.008-.105.002-.033.021-.049.055-.047.031 0 .063.004.094.005.004-.003.005-.007.009-.012l.005.002Zm-.296-.294c.037.002.074.007.11.007.036 0 .044-.014.029-.044a18.915 18.915 0 0 0-.095-.19c-.012-.027-.028-.03-.045-.006l-.125.182c-.017.025-.007.039.021.042.035.005.072.005.107.009h-.002Zm2.631-.121a16.557 16.557 0 0 0-.051-.413.151.151 0 0 1 .135-.173c.205-.021.408-.056.609-.091.098-.017.173.03.194.128.056.268.109.535.161.805.016.087-.026.175-.147.192-.222.035-.446.069-.67.102-.093.014-.173-.055-.18-.133-.014-.14-.034-.278-.05-.417h-.001Zm.8-.115-.053-.28c-.01-.058-.033-.074-.093-.063-.15.026-.302.049-.453.07-.066.008-.084.031-.075.098l.058.434c.005.043.01.085.017.13.007.043.033.067.072.062a8.12 8.12 0 0 0 .504-.072c.065-.01.082-.04.072-.1l-.053-.28h.004Zm-2.496.782a.063.063 0 0 1-.063-.063v-.114c0-.035.028-.063.063-.063h.088v-.654h-.232v.171c0 .037-.03.067-.066.067h-.079a.067.067 0 0 1-.066-.067v-.341c0-.037.03-.066.066-.066h1.008c.037 0 .067.03.067.066v.341c0 .037-.03.067-.067.067h-.08a.065.065 0 0 1-.065-.067v-.171h-.254v.652h.09c.034 0 .063.03.063.065v.114a.063.063 0 0 1-.064.063h-.409Zm-1.913-.173h-.012l-.4-.077a.064.064 0 0 1-.051-.075l.02-.114a.063.063 0 0 1 .062-.053h.012l.086.018.122-.66-.227-.044-.033.173a.066.066 0 0 1-.065.056h-.012l-.08-.015a.07.07 0 0 1-.052-.08l.065-.344a.066.066 0 0 1 .065-.056h.012l.99.191a.07.07 0 0 1 .053.08l-.065.344c-.007.033-.033.055-.064.055h-.013l-.078-.014a.07.07 0 0 1-.053-.08l.032-.173-.249-.047-.122.657.007.004.08.016c.035.007.056.04.05.075l-.02.114a.064.064 0 0 1-.061.052l.001-.003Zm2.957.126a.06.06 0 0 1-.057-.056l-.009-.112a.059.059 0 0 1 .04-.062h.004s.01-.003.016-.003l.086-.007-.048-.642-.085.007H7.83a.063.063 0 0 1-.063-.056l-.008-.112a.064.064 0 0 1 .057-.067l.415-.03h.002c.031.004.056.027.058.058l.008.112a.06.06 0 0 1-.04.062h-.003s-.011.005-.016.005l-.086.007.047.642.086-.007h.005c.034 0 .06.024.063.058l.009.112a.065.065 0 0 1-.058.066l-.414.03H7.89v-.005Z" fill="#fff"/></g><defs><clipPath id="a"><path fill="#fff" d="M0 0h14v14H0z"/></clipPath></defs></svg>