<svg width="14" height="14" fill="none" xmlns="http://www.w3.org/2000/svg"><path d="M11.807 1.914c-.626 3.219-1.49 7.678-1.545 8.085-.093.69-.413 1.2-1.335 1.2h-3.93c-.921 0-1.243-.51-1.334-1.2-.058-.418-.91-4.926-1.503-8.051A6.97 6.97 0 0 0 0 7a7 7 0 0 0 14 0 6.98 6.98 0 0 0-2.193-5.086Z" fill="#29663F"/><path d="M4.996 11.198h3.93c.923 0 1.245-.509 1.336-1.199.054-.407.919-4.865 1.545-8.085A6.972 6.972 0 0 0 7 0a7.006 7.006 0 0 0-4.84 1.946c.594 3.126 1.445 7.633 1.503 8.052.09.69.413 1.199 1.333 1.199v.001Z" fill="#fff"/><path d="M8.03 8.965H5.739c-.082.79-.119 1.673-.119 2.67h2.326c0-.764-.016-1.73.086-2.67ZM5.99 7.424h2.354c.296-.886.812-1.59 1.706-1.836V3.213c-2.324.707-3.523 1.927-4.062 4.21h.002Z" fill="#E30613"/><path d="M9.494 3.213H3.409v2.109h3.133C7.05 4.58 8.345 3.48 9.494 3.213Z" fill="#EA5B0C"/><path fill-rule="evenodd" clip-rule="evenodd" d="M4.839 7.814v-.278H4.11V8.86h.728v-.278H4.53v-.241h.308v-.279H4.53v-.248h.308Zm1.75 0v-.278H5.86V8.86h.728v-.278H6.28v-.241h.308v-.279H6.28v-.248h.308Zm1.926 0v-.278h-.727V8.86h.727v-.278h-.307v-.241h.307v-.279h-.307v-.248h.307ZM5.432 8.6V7.536h-.385V8.86h.674l.035-.26h-.324Zm2.237-1.061h-.284l-.189.847-.18-.849h-.322l.224 1.325h.38l-.002-.002h.114l.259-1.321Zm2.092.261a.202.202 0 0 0-.078-.158.456.456 0 0 0-.273-.098.51.51 0 0 0-.31.084v-.094h-.371V8.86H9.1v-.913c0-.086.04-.125.126-.125.066 0 .103.032.112.093v.947h.425V7.8h-.002Z" fill="#29663F"/></svg>