<svg width="14" height="14" fill="none" xmlns="http://www.w3.org/2000/svg"><path d="M2.553 7.136c-.065 0-.292-.024-.292.2 0 .12.108.16.135.16.182 0 .22-.004.246-.027a.092.092 0 0 0 .04-.08v-.183c0-.043-.068-.068-.129-.068v-.002Z" fill="#fff"/><path d="M.668 9.987h12.664A6.964 6.964 0 0 0 14 7a6.97 6.97 0 0 0-.569-2.767H.57A6.971 6.971 0 0 0 0 7c0 1.07.241 2.08.668 2.987Zm5.223-2.166h-.382V6.395h.381V7.82Zm6.774-1.426h.208v-.361l.375-.173v.532h.33v.373h-.33v.5s0 .19.138.19.173-.027.173-.027v.353s-.06.04-.212.04-.451-.041-.472-.395v-.66h-.209v-.372h-.001Zm-.961 0h.376v.119c.067-.055.203-.133.289-.133.11 0 .201.052.201.052v.413s-.072-.058-.226-.058a.45.45 0 0 0-.264.109v.922h-.376V6.393v.002Zm-1.264.623a.595.595 0 0 1 .335-.147c.226-.01.285.024.294.03l.014.005s.01 0 .015-.004c.006-.003.007-.023.007-.023a.353.353 0 0 0-.033-.085c-.005-.013-.015-.023-.026-.034-.042-.035-.112-.066-.287-.061-.177.005-.303.102-.303.102v-.33s.051-.083.464-.094h.114c.399.018.444.347.45.427v.837c0 .028.03.106.043.129.009.016.021.028.035.046h-.411s-.002-.007-.009-.018a.128.128 0 0 1-.019-.066c0-.011-.021-.013-.033-.004a.428.428 0 0 1-.123.067c-.052.015-.17.022-.276.019-.009 0-.217-.037-.287-.152a.601.601 0 0 1-.098-.296c0-.238.094-.308.135-.355v.007ZM8.254 5.782h.413s.467.576.508.623l.507-.623h.413v2.039h-.413V6.414l-.507.65-.508-.65V7.82h-.413V5.782Zm-1.127.61.297.76.28-.76h.419s-.65 1.761-.653 1.784c0 .004-.424.005-.438.005.008-.014.184-.465.19-.474.006-.01-.53-1.312-.53-1.312h.437l-.002-.002Zm-.952-.612h.38v2.037h-.38V5.78Zm-.473-.03c.139 0 .253.113.253.253a.25.25 0 0 1-.252.25.25.25 0 1 1 0-.502ZM3.295 7.785V6.41c0-.014.001-.019.017-.019h.327a.05.05 0 0 1 .014.002v.089c.056-.065.191-.11.348-.11.202 0 .366.075.375.168.01-.093.19-.168.413-.168.222 0 .446.128.462.404v1.042h-.39v-.932c0-.075-.091-.138-.203-.138-.112 0-.203.061-.203.138v.931H4.07v-.93c0-.076-.091-.139-.203-.139-.112 0-.204.061-.204.138v.931h-.376v-.033h.006Zm-.646-.994a.135.135 0 0 0-.026-.033c-.042-.035-.112-.067-.288-.061a.572.572 0 0 0-.302.101v-.329s.05-.084.463-.094h.114c.4.017.445.346.45.427v.836c0 .028.03.107.044.13.008.015.02.028.035.045h-.411s-.002-.007-.01-.017a.128.128 0 0 1-.018-.067c0-.01-.021-.012-.034-.003a.428.428 0 0 1-.122.066c-.053.016-.17.023-.277.02-.009 0-.217-.037-.285-.153a.602.602 0 0 1-.098-.296c0-.238.095-.308.133-.355a.596.596 0 0 1 .334-.147c.228-.009.285.025.294.03 0 0 .012.005.016.005 0 0 .01 0 .016-.003.005-.004.007-.023.007-.023a.35.35 0 0 0-.033-.086l-.002.007ZM.563 5.78h1.32v.39h-.92v.361h.885v.39H.962v.896H.568V5.78H.564Z" fill="#fff"/><path d="M10.819 7.495c.181 0 .22-.003.248-.026a.092.092 0 0 0 .04-.08v-.183c0-.043-.066-.068-.13-.068-.062 0-.292-.024-.292.2 0 .12.109.159.135.159l-.002-.002Z" fill="#fff"/><path d="M7 14a7.003 7.003 0 0 0 6.332-4.013H.668A6.999 6.999 0 0 0 7 14Zm.03-5.819c.014 0 .437 0 .437-.005.004-.023.653-1.783.653-1.783h-.418l-.28.76-.298-.76h-.437s.537 1.302.53 1.312c-.005.009-.182.46-.189.475l.002.001ZM5.703 6.256a.252.252 0 1 0-.252-.25c0 .14.112.25.252.25Zm-3.043.65s-.014-.004-.016-.006c-.007-.005-.066-.04-.294-.03a.596.596 0 0 0-.334.148c-.038.047-.133.117-.133.355 0 .08.03.178.098.296.07.115.278.152.285.152.107.003.224-.004.277-.02a.404.404 0 0 0 .122-.066c.01-.009.034-.007.034.004a.12.12 0 0 0 .019.066c.007.01.009.018.009.018h.41c-.013-.018-.026-.03-.034-.046a.471.471 0 0 1-.044-.13v-.836c-.005-.08-.053-.41-.45-.427-.003 0-.114-.002-.114 0-.413.01-.463.095-.463.095v.329s.126-.097.302-.102c.175-.005.247.026.288.061.01.01.019.021.026.034a.35.35 0 0 1 .033.085s-.003.02-.007.023c-.003.004-.016.004-.016.004l.002-.007Zm.023.483a.092.092 0 0 1-.04.08c-.027.025-.065.026-.247.026a.16.16 0 0 1-.135-.159c0-.224.228-.2.292-.2.065 0 .13.025.13.069v.184Zm8.01.431a1.12 1.12 0 0 0 .276-.018.43.43 0 0 0 .123-.067c.01-.009.033-.007.033.004a.13.13 0 0 0 .019.066c.007.01.009.018.009.018h.411c-.014-.018-.026-.03-.035-.046a.42.42 0 0 1-.044-.13v-.836c-.005-.08-.052-.41-.45-.427-.003 0-.113-.002-.113 0-.413.01-.464.095-.464.095v.329s.126-.097.303-.102c.175-.005.245.026.287.061.008.01.019.021.026.034a.35.35 0 0 1 .033.085s-.003.02-.007.023c-.003.004-.015.004-.015.004-.004 0-.015-.004-.015-.006-.008-.005-.066-.04-.293-.03a.596.596 0 0 0-.335.148c-.038.047-.135.117-.135.355 0 .08.03.178.098.296.069.115.279.152.288.152V7.82Zm.283-.683c.061 0 .13.024.13.068v.182a.092.092 0 0 1-.04.08c-.029.025-.067.027-.25.027a.16.16 0 0 1-.134-.16c0-.224.227-.2.292-.2l.002.003ZM3.672 6.89c0-.076.09-.139.203-.139.112 0 .203.062.203.139v.93h.383v-.93c0-.076.09-.139.203-.139.112 0 .203.062.203.139v.93h.39V6.78c-.016-.276-.241-.404-.462-.404-.22 0-.402.075-.413.168-.009-.093-.173-.168-.374-.168-.158 0-.293.046-.349.11v-.089l-.014-.002h-.327c-.016 0-.017.007-.017.02V7.82h.376v-.93h-.005Zm8.41.009a.449.449 0 0 1 .264-.109c.154 0 .226.058.226.058v-.413s-.091-.053-.201-.053c-.086 0-.223.077-.289.133v-.119h-.376v1.427h.376v-.924Zm-6.19-.505h-.381v1.427h.381V6.394Zm.664-.61h-.38V7.82h.38V5.784ZM.962 7.82v-.895h.886v-.39H.962v-.361h.923v-.39H.567V7.82h.395Zm11.911-.433v.038c.021.354.325.396.473.396a.43.43 0 0 0 .211-.04v-.354s-.035.028-.173.028c-.138 0-.138-.19-.138-.19v-.501h.33V6.39h-.33v-.532l-.375.173v.36h-.208v.374h.208v.619l.002.002Zm-4.207-.972.507.651.508-.65v1.406h.413V5.784h-.413s-.467.575-.508.623l-.507-.623h-.413v2.038h.413V6.415Z" fill="#0079C2"/><path d="M7 0A7.002 7.002 0 0 0 .569 4.233H13.43A7 7 0 0 0 7 0Z" fill="#3AAA35"/></svg>