<svg width="14" height="14" fill="none" xmlns="http://www.w3.org/2000/svg"><path d="M0 7c0 3.86 3.141 7 7 7s7-3.14 7-7-3.141-7-7-7-7 3.14-7 7Z" fill="#EC6608"/><path d="M12.525 6.972a5.555 5.555 0 0 1-5.556 5.556 5.555 5.555 0 0 1-5.557-5.556 5.555 5.555 0 1 1 11.111-.002" fill="#fff"/><path d="M7.021.808a6.171 6.171 0 0 0-.002 12.341 6.17 6.17 0 0 0 6.169-6.17A6.17 6.17 0 0 0 7.021.809Zm4.006 9.197L8.38 6.41l1.405-1.43c.263-.262.787-1.072-.023-1.834-.786-.74-1.573-.119-1.858.167-.191.19-1.596 1.573-1.596 1.573v-.835c0-.19-.287-1.144-1.215-1.144-.978 0-1.335 1.023-1.335 1.358v5.433s.047 1.192 1.286 1.192c1.24 0 1.264-1.192 1.264-1.192V7.912l2.814 3.63a5.04 5.04 0 0 1-2.123.466A5.049 5.049 0 1 1 7 1.91a5.049 5.049 0 0 1 4.027 8.098" fill="#E30613"/></svg>