<svg width="14" height="14" fill="none" xmlns="http://www.w3.org/2000/svg"><path d="M7 14A7 7 0 1 0 7 0a7 7 0 0 0 0 14Z" fill="#D0271F"/><path d="M5.787 4.91a7.078 7.078 0 0 1 .435.072c.244.046.486.109.715.207.091.038.173.092.26.136a.855.855 0 0 1 .323.28.197.197 0 0 1 .031.082.402.402 0 0 1-.019.223c-.02.049-.035.1-.053.148-.1.287-.218.567-.332.85-.109.263-.231.522-.34.787-.059.145-.124.288-.19.432a1.15 1.15 0 0 0-.133.47.296.296 0 0 0 .148.28.109.109 0 0 0 .104.011 2.27 2.27 0 0 0 .567-.33 2.6 2.6 0 0 0 .525-.568c.089-.127.162-.266.238-.402.06-.109.108-.222.141-.343.062-.215.088-.436.088-.665.007-.044-.004-.095-.007-.144a3.118 3.118 0 0 0-.06-.4 1.781 1.781 0 0 0-.234-.562 1.618 1.618 0 0 0-.523-.527 1.617 1.617 0 0 0-.828-.238 2.858 2.858 0 0 0-.424.033c-.127.018-.25.051-.37.1a.295.295 0 0 0-.067.033c-.02.013-.014.028.007.034l-.002.001Z" fill="#fff"/><path fill-rule="evenodd" clip-rule="evenodd" d="M6.297 4.508a2.31 2.31 0 0 1 .451.032c.096.014.194.033.287.064.117.039.236.07.35.123.173.079.324.187.46.317.121.113.216.246.312.38a3.437 3.437 0 0 1 .217.527 2.708 2.708 0 0 1 .073.513c.013.22.004.436-.043.653-.028.13-.072.256-.125.377a3.23 3.23 0 0 1-.6.92 2.734 2.734 0 0 1-.562.45 2.025 2.025 0 0 1-.337.168c-.282.103-.57.126-.854.017-.198-.077-.31-.211-.307-.455a1.3 1.3 0 0 1 .149-.532c.079-.164.15-.334.222-.502.104-.241.207-.485.308-.728.097-.233.191-.465.277-.703.037-.104.084-.203.11-.31.021-.08-.005-.145-.06-.2a1.415 1.415 0 0 0-.529-.311 1.984 1.984 0 0 0-.317-.084 2.578 2.578 0 0 0-.349-.033c-.087-.002-.173 0-.26 0a.346.346 0 0 0-.336.234c-.081.219-.177.432-.27.648a.108.108 0 0 1-.012.024c-.02.03-.035.033-.058.005-.03-.035-.049-.077-.07-.117a.928.928 0 0 1-.084-.289c-.007-.049-.017-.098-.02-.148a.64.64 0 0 1 .095-.326c.107-.19.273-.317.459-.423.175-.1.367-.154.562-.203.182-.048.369-.069.556-.08.098-.004.196-.013.301-.006l.004-.002Zm2 2.07c.007-.043-.004-.094-.007-.143a3.118 3.118 0 0 0-.06-.401 1.781 1.781 0 0 0-.234-.562 1.618 1.618 0 0 0-.523-.526 1.617 1.617 0 0 0-.828-.238 2.858 2.858 0 0 0-.424.033 1.46 1.46 0 0 0-.37.1.295.295 0 0 0-.067.033c-.02.012-.014.028.007.033.01.004.023.005.035.007a6.9 6.9 0 0 1 .399.065c.245.045.486.108.716.206.09.039.173.093.26.137a.855.855 0 0 1 .322.28.197.197 0 0 1 .032.082.402.402 0 0 1-.02.222c-.019.05-.034.1-.052.149-.1.287-.219.567-.332.849-.109.264-.231.523-.34.787-.06.146-.124.289-.19.433-.07.148-.13.3-.134.47a.296.296 0 0 0 .149.28.109.109 0 0 0 .103.01 2.27 2.27 0 0 0 .567-.33c.207-.16.377-.355.525-.567.09-.128.163-.266.238-.402.06-.109.109-.223.142-.343.061-.216.088-.436.088-.665l-.002.001Z" fill="#3B2215"/><path fill-rule="evenodd" clip-rule="evenodd" d="M5.8 11.256a5.025 5.025 0 0 1-.562-.023 2.817 2.817 0 0 1-.795-.171c-.031-.012-.064-.023-.096-.037a3.347 3.347 0 0 1-.667-.345 1.893 1.893 0 0 1-.271-.23c-.047-.048-.082-.11-.122-.165a1.05 1.05 0 0 1-.126-.25.762.762 0 0 1-.039-.338c.009-.153.068-.289.123-.427.12-.305.24-.61.369-.909.05-.117.094-.238.145-.355.012-.03.007-.044-.016-.063-.052-.044-.106-.087-.15-.138-.114-.131-.249-.242-.338-.394-.028-.047-.065-.087-.094-.135a2.296 2.296 0 0 1-.24-.498c-.044-.133-.091-.265-.116-.403-.019-.117-.043-.233-.052-.352-.005-.08-.016-.159-.021-.24a2.501 2.501 0 0 1 .185-.998c.053-.127.098-.254.168-.375.13-.224.279-.434.464-.616a3.64 3.64 0 0 1 .413-.352 2.25 2.25 0 0 1 .345-.212c.154-.077.308-.15.472-.208.11-.038.223-.073.335-.101.143-.037.287-.079.435-.102.165-.024.331-.038.499-.049.166-.01.329-.005.495-.005.11 0 .219.014.33.02a4.228 4.228 0 0 1 1.47.32c.136.055.26.132.388.204a4.4 4.4 0 0 1 .576.385c.171.133.323.29.465.455.184.214.332.45.446.705.098.221.172.448.23.683.047.196.078.395.103.595.02.182.03.364.02.548a9.33 9.33 0 0 1-.027.472 2.928 2.928 0 0 1-.105.56 5.93 5.93 0 0 1-.593 1.386 3.324 3.324 0 0 1-.48.627c-.103.103-.196.217-.303.318a3.889 3.889 0 0 1-.71.541 4.537 4.537 0 0 1-.476.245c-.273.119-.55.231-.844.289-.287.056-.575.11-.87.122-.12.005-.241.018-.363.016Zm.497-6.75c-.104-.007-.203.002-.301.007a2.717 2.717 0 0 0-.557.079 2.25 2.25 0 0 0-.562.203c-.185.107-.351.233-.458.423a.62.62 0 0 0-.095.326c0 .05.013.1.02.149.015.1.04.197.084.288.019.04.04.083.07.118.022.026.038.024.057-.006a.107.107 0 0 0 .013-.024c.094-.214.189-.427.269-.648a.346.346 0 0 1 .336-.234c.088 0 .173-.004.26 0 .118.003.234.016.349.033.109.018.215.05.319.084a1.433 1.433 0 0 1 .528.312c.054.056.08.12.06.2-.028.106-.074.206-.11.309-.086.236-.181.47-.277.703-.1.244-.205.485-.308.728-.072.168-.144.338-.222.503a1.283 1.283 0 0 0-.15.532c-.004.243.108.378.307.455.284.108.572.085.854-.018.119-.044.23-.101.338-.168.208-.126.394-.275.562-.45a3.322 3.322 0 0 0 .6-.92c.052-.12.096-.247.124-.376a2.44 2.44 0 0 0 .044-.655 2.708 2.708 0 0 0-.028-.292 1.823 1.823 0 0 0-.046-.22 3.437 3.437 0 0 0-.155-.405c-.02-.042-.035-.084-.062-.122-.096-.133-.19-.266-.311-.38a1.7 1.7 0 0 0-.46-.317c-.112-.052-.233-.084-.35-.122a1.62 1.62 0 0 0-.287-.065 2.335 2.335 0 0 0-.452-.032l-.003.002Z" fill="#F2D737"/><path fill-rule="evenodd" clip-rule="evenodd" d="m11.349 5.679.003-.009-.002-.005c-.003-.014-.008-.027-.01-.04a2.494 2.494 0 0 0-.044-.2 3.87 3.87 0 0 0-.371-.913 3.14 3.14 0 0 0-.26-.384 3.767 3.767 0 0 0-.298-.329c-.09-.084-.175-.171-.275-.243-.089-.065-.175-.131-.266-.19-.124-.081-.25-.158-.378-.234-.077-.043-.152-.092-.234-.127a5.58 5.58 0 0 0-.572-.207 5.576 5.576 0 0 0-.861-.164 6.555 6.555 0 0 0-.89-.054c-.094 0-.189-.01-.281.003-.116.016-.233.017-.35.021a6.592 6.592 0 0 0-.669.063c-.12.016-.238.046-.357.072a4.326 4.326 0 0 0-.661.206 3.064 3.064 0 0 0-.55.28c-.098.063-.197.124-.288.2a3.302 3.302 0 0 0-.629.66 2.845 2.845 0 0 0-.311.579 3.84 3.84 0 0 0-.175.577 2.38 2.38 0 0 0-.044.65c.01.206.05.409.095.61.057.256.145.502.274.73.158.28.359.525.599.737.03.026.042.052.026.089l-.023.058c-.035.077-.072.154-.103.232-.123.303-.245.608-.366.912-.05.128-.101.254-.112.394a1.03 1.03 0 0 0 .03.408c.049.15.13.285.23.411.148.187.335.324.537.443.167.1.346.177.526.252.202.084.412.142.627.173.372.054.747.079 1.123.079.105 0 .212.002.317 0 .179-.007.357-.02.535-.034a7.186 7.186 0 0 0 .898-.126c.035-.005.389-.066.893-.306a3.56 3.56 0 0 0 .716-.41c.075-.057.159-.106.229-.17l.057-.051.086-.07c.38-.314.75-.758 1.045-1.296h.005c.009-.017.02-.034.028-.054.021-.038.039-.077.058-.115l-.002-.004c.43-.862.662-1.942.445-3.108v.004Zm-4.316 5.439a5.82 5.82 0 0 1-.87.122c-.12.005-.241.018-.364.016a5.025 5.025 0 0 1-.561-.023 2.817 2.817 0 0 1-.795-.171c-.031-.012-.064-.023-.096-.037a3.342 3.342 0 0 1-.667-.345 1.893 1.893 0 0 1-.271-.23c-.047-.048-.082-.11-.122-.165a1.05 1.05 0 0 1-.127-.25.762.762 0 0 1-.038-.338c.009-.152.068-.289.123-.427.12-.305.24-.61.369-.909.05-.117.094-.238.145-.355.012-.03.007-.043-.016-.063-.052-.043-.107-.087-.15-.138-.114-.131-.249-.241-.338-.394-.028-.047-.065-.087-.095-.134a2.296 2.296 0 0 1-.24-.5c-.043-.132-.09-.264-.115-.402-.019-.117-.044-.232-.052-.351-.006-.081-.016-.16-.021-.24a2.501 2.501 0 0 1 .186-.998c.052-.127.097-.255.167-.376.13-.224.279-.434.464-.616a3.64 3.64 0 0 1 .413-.352 2.25 2.25 0 0 1 .345-.212c.154-.076.308-.15.472-.208.11-.038.223-.073.335-.101.143-.037.287-.079.435-.102.165-.024.331-.038.499-.049.166-.01.329-.005.495-.005.11 0 .219.014.33.02a4.228 4.228 0 0 1 1.47.32c.136.055.26.132.388.204a4.4 4.4 0 0 1 .575.385 3.232 3.232 0 0 1 .912 1.16c.098.221.172.449.23.683.047.196.078.396.103.595.02.182.03.364.02.548a9.33 9.33 0 0 1-.027.472 2.928 2.928 0 0 1-.105.56 5.93 5.93 0 0 1-.594 1.386 3.324 3.324 0 0 1-.479.627c-.103.103-.196.217-.303.318a3.884 3.884 0 0 1-.71.541 4.518 4.518 0 0 1-.476.245c-.273.119-.55.231-.844.289Z" fill="#3B2215"/></svg>