<svg width="65" height="14" fill="none" xmlns="http://www.w3.org/2000/svg"><g clip-path="url(#a)"><path d="M2.934 12.985c-.314.16-.67-.121-.606-.481l.674-3.843L.14 5.934c-.268-.255-.129-.722.23-.772l3.98-.565L6.123 1.08a.417.417 0 0 1 .753 0l1.775 3.516 3.98.565c.357.05.496.517.228.772L10 8.661l.674 3.843c.063.36-.293.642-.606.48L6.5 11.152l-3.566 1.833h.001Z" fill="url(#b)"/><path d="M15.934 12.985c-.314.16-.67-.121-.606-.481l.674-3.843-2.862-2.727c-.268-.255-.129-.722.23-.772l3.98-.565 1.774-3.516a.417.417 0 0 1 .753 0l1.774 3.516 3.98.565c.358.05.497.517.23.772l-2.862 2.727.674 3.843c.063.36-.292.642-.606.48l-3.568-1.832-3.566 1.833h.001Z" fill="url(#c)"/><path d="M28.934 12.985c-.314.16-.67-.121-.606-.481l.674-3.843-2.862-2.727c-.268-.255-.129-.722.23-.772l3.98-.565 1.774-3.516a.417.417 0 0 1 .753 0l1.774 3.516 3.98.565c.358.05.497.517.23.772l-2.862 2.727.674 3.843c.063.36-.293.642-.606.48l-3.568-1.832-3.566 1.833h.001Z" fill="url(#d)"/><path d="M41.934 12.985c-.314.16-.67-.121-.606-.481l.674-3.843-2.862-2.727c-.267-.255-.129-.722.23-.772l3.98-.565 1.774-3.516a.417.417 0 0 1 .753 0l1.774 3.516 3.98.565c.358.05.497.517.23.772l-2.862 2.727.674 3.843c.063.36-.293.642-.606.48l-3.568-1.832-3.566 1.833h.001Z" fill="url(#e)"/><path d="M54.934 12.985c-.314.16-.67-.121-.606-.481l.674-3.843-2.862-2.727c-.267-.255-.129-.722.23-.772l3.98-.565 1.774-3.516a.417.417 0 0 1 .753 0l1.774 3.516 3.98.565c.358.05.497.517.23.772l-2.862 2.727.674 3.843c.063.36-.293.642-.606.48l-3.568-1.832-3.566 1.833h.001Z" fill="url(#f)"/></g><defs><linearGradient id="b" x1="6.5" y1=".843" x2="6.5" y2="13.031" gradientUnits="userSpaceOnUse"><stop offset=".524" stop-color="#FFC226"/><stop offset=".524" stop-color="#FFCF53"/></linearGradient><linearGradient id="c" x1="19.5" y1=".843" x2="19.5" y2="13.031" gradientUnits="userSpaceOnUse"><stop offset=".524" stop-color="#FFC226"/><stop offset=".524" stop-color="#FFCF53"/></linearGradient><linearGradient id="d" x1="32.5" y1=".843" x2="32.5" y2="13.031" gradientUnits="userSpaceOnUse"><stop offset=".524" stop-color="#FFC226"/><stop offset=".524" stop-color="#FFCF53"/></linearGradient><linearGradient id="e" x1="45.5" y1=".843" x2="45.5" y2="13.031" gradientUnits="userSpaceOnUse"><stop offset=".524" stop-color="#FFC226"/><stop offset=".524" stop-color="#FFCF53"/></linearGradient><linearGradient id="f" x1="58.5" y1=".843" x2="58.5" y2="13.031" gradientUnits="userSpaceOnUse"><stop offset=".524" stop-color="#FFC226"/><stop offset=".524" stop-color="#FFCF53"/></linearGradient><clipPath id="a"><path fill="#fff" transform="translate(0 .843)" d="M0 0h65v12.188H0z"/></clipPath></defs></svg>