<svg width="65" height="15" fill="none" xmlns="http://www.w3.org/2000/svg"><g clip-path="url(#a)"><path d="M2.934 13.828c-.313.161-.67-.121-.606-.48l.675-3.844L.14 6.777c-.267-.255-.128-.721.23-.772l3.98-.565 1.774-3.516a.417.417 0 0 1 .753 0L8.652 5.44l3.98.565c.358.05.497.517.229.772L9.998 9.504l.674 3.843c.064.36-.292.642-.606.481L6.5 11.995l-3.567 1.833h.001Z" fill="url(#b)"/><path d="M15.934 13.828c-.313.161-.67-.121-.606-.48l.675-3.844-2.863-2.727c-.267-.255-.128-.721.23-.772l3.98-.565 1.774-3.516a.417.417 0 0 1 .753 0l1.775 3.516 3.98.565c.358.05.497.517.228.772L23 9.504l.674 3.843c.064.36-.292.642-.606.481L19.5 11.995l-3.567 1.833h.001Z" fill="url(#c)"/><path d="M28.934 13.828c-.313.161-.67-.121-.606-.48l.675-3.844-2.863-2.727c-.267-.255-.128-.721.23-.772l3.98-.565 1.774-3.516a.417.417 0 0 1 .753 0l1.775 3.516 3.98.565c.358.05.497.517.229.772l-2.862 2.727.674 3.843c.064.36-.292.642-.606.481L32.5 11.995l-3.566 1.833h.001Z" fill="url(#d)"/><path d="M41.934 13.828c-.313.161-.67-.121-.606-.48l.674-3.844-2.862-2.727c-.267-.255-.128-.721.23-.772l3.98-.565 1.774-3.516a.417.417 0 0 1 .753 0l1.775 3.516 3.98.565c.358.05.497.517.229.772l-2.862 2.727.674 3.843c.064.36-.292.642-.606.481L45.5 11.995l-3.566 1.833h.001Z" fill="url(#e)"/><path d="M54.934 13.828c-.313.161-.67-.121-.606-.48l.674-3.844-2.862-2.727c-.267-.255-.128-.721.23-.772l3.98-.565 1.774-3.516a.417.417 0 0 1 .753 0l1.775 3.516 3.98.565c.358.05.497.517.228.772L62 9.504l.674 3.843c.064.36-.292.642-.606.481L58.5 11.995l-3.566 1.833h.001Z" fill="url(#f)"/><mask id="h" style="mask-type:alpha" maskUnits="userSpaceOnUse" x="52" y="1" width="14" height="13"><path d="M54.934 13.828c-.313.161-.67-.121-.606-.48l.674-3.844-2.862-2.727c-.267-.255-.128-.721.23-.772l3.98-.565 1.774-3.516a.417.417 0 0 1 .753 0l1.775 3.516 3.98.565c.358.05.497.517.228.772L62 9.504l.674 3.843c.064.36-.292.642-.606.481L58.5 11.995l-3.566 1.833h.001Z" fill="url(#g)"/></mask><g mask="url(#h)"><path fill="#F5F4EF" d="M58.501.837h7v13h-7z"/></g></g><defs><linearGradient id="b" x1="6.501" y1="1.687" x2="6.501" y2="13.874" gradientUnits="userSpaceOnUse"><stop offset=".524" stop-color="#FFC226"/><stop offset=".524" stop-color="#FFCF53"/></linearGradient><linearGradient id="c" x1="19.501" y1="1.687" x2="19.501" y2="13.874" gradientUnits="userSpaceOnUse"><stop offset=".524" stop-color="#FFC226"/><stop offset=".524" stop-color="#FFCF53"/></linearGradient><linearGradient id="d" x1="32.501" y1="1.687" x2="32.501" y2="13.874" gradientUnits="userSpaceOnUse"><stop offset=".524" stop-color="#FFC226"/><stop offset=".524" stop-color="#FFCF53"/></linearGradient><linearGradient id="e" x1="45.501" y1="1.687" x2="45.501" y2="13.874" gradientUnits="userSpaceOnUse"><stop offset=".524" stop-color="#FFC226"/><stop offset=".524" stop-color="#FFCF53"/></linearGradient><linearGradient id="f" x1="58.501" y1="1.687" x2="58.501" y2="13.874" gradientUnits="userSpaceOnUse"><stop offset=".524" stop-color="#FFC226"/><stop offset=".524" stop-color="#FFCF53"/></linearGradient><linearGradient id="g" x1="58.501" y1="1.687" x2="58.501" y2="13.874" gradientUnits="userSpaceOnUse"><stop offset=".524" stop-color="#FFC226"/><stop offset=".524" stop-color="#FFCF53"/></linearGradient><clipPath id="a"><path fill="#fff" transform="translate(0 .843)" d="M0 0h65v14H0z"/></clipPath></defs></svg>