<svg width="65" height="15" fill="none" xmlns="http://www.w3.org/2000/svg"><g clip-path="url(#a)"><path d="M2.935 13.828c-.314.161-.67-.121-.607-.48l.675-3.844L.14 6.777c-.267-.255-.128-.721.23-.772l3.98-.565 1.774-3.516a.417.417 0 0 1 .754 0L8.652 5.44l3.98.565c.358.05.497.517.229.772L9.999 9.504l.675 3.843c.063.36-.293.642-.606.481L6.5 11.995l-3.566 1.833Z" fill="url(#b)"/><path d="M15.935 13.828c-.314.161-.67-.121-.607-.48l.675-3.844-2.863-2.727c-.267-.255-.128-.721.23-.772l3.98-.565 1.774-3.516a.417.417 0 0 1 .754 0l1.774 3.516 3.98.565c.358.05.497.517.229.772l-2.862 2.727.675 3.843c.063.36-.293.642-.607.481L19.5 11.995l-3.566 1.833Z" fill="url(#c)"/><path d="M28.935 13.828c-.314.161-.67-.121-.607-.48l.675-3.844-2.863-2.727c-.267-.255-.128-.721.23-.772l3.98-.565 1.774-3.516a.417.417 0 0 1 .754 0l1.774 3.516 3.98.565c.358.05.497.517.229.772l-2.862 2.727.675 3.843c.063.36-.293.642-.606.481L32.5 11.995l-3.566 1.833Z" fill="url(#d)"/><path d="M41.935 13.828c-.314.161-.67-.121-.607-.48l.675-3.844-2.863-2.727c-.267-.255-.128-.721.23-.772l3.98-.565 1.774-3.516a.417.417 0 0 1 .754 0l1.774 3.516 3.98.565c.358.05.497.517.229.772l-2.862 2.727.675 3.843c.063.36-.293.642-.606.481L45.5 11.995l-3.566 1.833Z" fill="url(#e)"/><path d="M54.935 13.828c-.314.161-.67-.121-.607-.48l.675-3.844-2.863-2.727c-.267-.255-.128-.721.23-.772l3.98-.565 1.774-3.516a.417.417 0 0 1 .754 0l1.774 3.516 3.98.565c.358.05.497.517.229.772l-2.862 2.727.675 3.843c.063.36-.293.642-.606.481L58.5 11.995l-3.566 1.833Z" fill="url(#f)"/><mask id="h" style="mask-type:alpha" maskUnits="userSpaceOnUse" x="52" y="1" width="14" height="13"><path d="M54.935 13.828c-.314.161-.67-.121-.607-.48l.675-3.844-2.863-2.727c-.267-.255-.128-.721.23-.772l3.98-.565 1.774-3.516a.417.417 0 0 1 .754 0l1.774 3.516 3.98.565c.358.05.497.517.229.772l-2.862 2.727.675 3.843c.063.36-.293.642-.606.481L58.5 11.995l-3.566 1.833Z" fill="url(#g)"/></mask><g mask="url(#h)"><path fill="#F5F4EF" d="M52 1h14v13H52z"/></g></g><defs><linearGradient id="b" x1="6.501" y1="1.687" x2="6.501" y2="13.874" gradientUnits="userSpaceOnUse"><stop offset=".524" stop-color="#FFC226"/><stop offset=".524" stop-color="#FFCF53"/></linearGradient><linearGradient id="c" x1="19.501" y1="1.687" x2="19.501" y2="13.874" gradientUnits="userSpaceOnUse"><stop offset=".524" stop-color="#FFC226"/><stop offset=".524" stop-color="#FFCF53"/></linearGradient><linearGradient id="d" x1="32.501" y1="1.687" x2="32.501" y2="13.874" gradientUnits="userSpaceOnUse"><stop offset=".524" stop-color="#FFC226"/><stop offset=".524" stop-color="#FFCF53"/></linearGradient><linearGradient id="e" x1="45.501" y1="1.687" x2="45.501" y2="13.874" gradientUnits="userSpaceOnUse"><stop offset=".524" stop-color="#FFC226"/><stop offset=".524" stop-color="#FFCF53"/></linearGradient><linearGradient id="f" x1="58.501" y1="1.687" x2="58.501" y2="13.874" gradientUnits="userSpaceOnUse"><stop offset=".524" stop-color="#FFC226"/><stop offset=".524" stop-color="#FFCF53"/></linearGradient><linearGradient id="g" x1="58.501" y1="1.687" x2="58.501" y2="13.874" gradientUnits="userSpaceOnUse"><stop offset=".524" stop-color="#FFC226"/><stop offset=".524" stop-color="#FFCF53"/></linearGradient><clipPath id="a"><path fill="#fff" transform="translate(0 .843)" d="M0 0h65v14H0z"/></clipPath></defs></svg>