<svg width="8" height="9" fill="none" xmlns="http://www.w3.org/2000/svg"><g clip-path="url(#a)"><path fill-rule="evenodd" clip-rule="evenodd" d="M.333 4.843a3.667 3.667 0 1 1 7.334 0 3.667 3.667 0 0 1-7.334 0Zm2.774-1.857a.334.334 0 0 0-.547.382l.8 1.142H3a.333.333 0 1 0 0 .667h.667v.333H3a.333.333 0 1 0 0 .667h.667v.666a.333.333 0 0 0 .666 0v-.666H5a.333.333 0 1 0 0-.667h-.667v-.333H5a.333.333 0 1 0 0-.667h-.36l.8-1.142a.333.333 0 1 0-.547-.382L4 4.262l-.893-1.276Z" fill="#CFC039"/></g><defs><clipPath id="a"><path fill="#fff" transform="translate(0 .843)" d="M0 0h8v8H0z"/></clipPath></defs></svg>