<svg width="8" height="9" fill="none" xmlns="http://www.w3.org/2000/svg"><path d="M2.675 6.843h1V6.51h-.667v-.333h.667v-1h-1v.333h.667v.333h-.667v1Zm2.333 0h.334V5.177h-.334v.666h-.333v-.666h-.333v1h.666v.666Zm2-2.316v2.65c0 .183-.065.34-.195.47a.643.643 0 0 1-.471.196H1.675a.642.642 0 0 1-.47-.195.642.642 0 0 1-.197-.471v-2.65a1.146 1.146 0 0 1-.295-.45.904.904 0 0 1-.005-.6l.35-1.134a.736.736 0 0 1 .238-.358.601.601 0 0 1 .396-.142h4.633c.15 0 .28.046.392.138a.777.777 0 0 1 .241.362l.35 1.134a.88.88 0 0 1-.004.591c-.07.178-.168.33-.296.459Zm-2.266-.35c.15 0 .264-.052.341-.155a.455.455 0 0 0 .092-.345L4.992 2.51h-.65v1.233a.44.44 0 0 0 .116.305.368.368 0 0 0 .284.129Zm-1.5 0a.41.41 0 0 0 .312-.13.432.432 0 0 0 .121-.304V2.51h-.65l-.183 1.167a.422.422 0 0 0 .087.35c.08.1.185.15.313.15Zm-1.484 0a.37.37 0 0 0 .263-.109.465.465 0 0 0 .137-.275l.184-1.283h-.65l-.334 1.117a.459.459 0 0 0 .054.358c.07.128.185.192.346.192Zm4.5 0c.161 0 .278-.064.35-.192.073-.128.09-.247.05-.358l-.35-1.117h-.633l.183 1.283a.465.465 0 0 0 .138.275.366.366 0 0 0 .262.109Z" fill="#CFC039"/></svg>