<svg width="8" height="9" fill="none" xmlns="http://www.w3.org/2000/svg"><g clip-path="url(#a)"><path d="M2.95 3.541c-.178.11.48 1.697.64 1.955a.482.482 0 0 0 .82-.506c-.158-.26-1.281-1.56-1.46-1.449Zm-.134-1.737a3.592 3.592 0 0 1 2.368 0c.131.046.306-.046.228-.244a66.71 66.71 0 0 1-.132-.342c-.053-.136-.24-.248-.322-.266A4.35 4.35 0 0 0 4 .843c-.33 0-.65.04-.958.109-.082.018-.27.13-.322.266l-.132.342c-.078.198.097.29.228.244Zm4.823.314a4.052 4.052 0 0 0-.513-.514c-.061-.052-.241-.094-.355.02l-.66.659c.165.116.32.245.463.386.144.145.27.301.386.462l.659-.659c.114-.114.072-.294.02-.354ZM4 2.003a3.24 3.24 0 1 0 0 6.48 3.24 3.24 0 0 0 0-6.48Zm0 5.68a2.44 2.44 0 1 1 0-4.879 2.44 2.44 0 0 1 0 4.88Z" fill="#E1D143"/></g><defs><clipPath id="a"><path fill="#fff" transform="translate(0 .843)" d="M0 0h8v8H0z"/></clipPath></defs></svg>