<svg id="Layer_2" xmlns="http://www.w3.org/2000/svg" viewBox="0 0 403.56 69.85"><defs><style>.cls-1{fill:#eaf9ff}.cls-2{fill:#ffae22}.cls-6{fill:#ffd86e}.cls-7{fill:#ffc73e}</style></defs><g id="Layer_1-2"><rect x="18.56" y="12.77" width="385" height="52" rx="26" ry="26" style="fill:#d95d44"/><path d="M62.96 33.39c-1.24 0-2.2.06-3.36.17v-3.44c1.1.14 2.03.2 3.36.2h7.26v-2c0-1.1-.06-1.8-.17-2.62h3.53c-.14.79-.2 1.55-.2 2.59v2.03h7.65c1.41 0 2.46-.06 3.42-.2v3.44c-1.24-.11-2.09-.17-3.42-.17h-6.04c1.33 2.4 2.65 4.26 4.24 5.92 1.92 2 3.93 3.55 6.16 4.74-.88 1.04-1.36 1.8-1.92 3.07-1.81-1.24-3.02-2.23-4.74-3.92v3.21c-.88-.11-1.67-.17-2.82-.17H73.4v1.92c0 1.33.06 2.51.2 3.5h-3.56c.14-1.04.2-2.17.2-3.5v-1.92h-2.23c-1.16 0-1.98.06-2.82.17v-3.19c-1.61 1.69-2.8 2.71-4.58 3.95-.56-1.27-.99-1.92-1.92-2.96a26.52 26.52 0 0 0 9.83-10.83h-5.54Zm7.26 5.39c0-.87.09-2 .23-3.16-1.5 3.05-2.85 5.02-5.14 7.47.65.08 1.21.11 2.51.11h2.4v-4.43Zm5.9 4.43c1.3 0 1.81-.03 2.48-.11-2.2-2.2-3.45-3.92-5.48-7.47.17 1.16.25 2.28.25 3.13v4.46h2.74Zm15.11-13.29c0-1.1-.06-2.09-.14-3.02.9.11 1.84.14 3.14.14h13.67c1.33 0 2.2-.03 3.05-.14-.11 1.07-.14 1.89-.14 2.88V48c0 1.47.06 2.4.17 3.41h-3.42v-1.69H94.43v1.69h-3.36c.11-.96.17-2.09.17-3.41V29.92Zm3.19 6.66h13.13v-6.54H94.42v6.54Zm0 10.18h13.13v-7.22H94.42v7.22Zm33.64-18.05c0-1.47-.03-2.14-.17-3.07h3.56c-.11.87-.17 1.61-.17 2.96v1.83h7.74c1.24 0 1.84-.03 2.57-.11-.08.79-.11 1.38-.11 2.48v8.6c0 1.27.03 2 .14 2.82h-3.33v-1.69h-7v5.72c0 1.69.06 2.51.2 3.5h-3.62c.14-1.04.2-1.92.2-3.5v-5.72h-6.67v1.69h-3.33c.11-.93.14-1.64.14-2.82v-8.63c0-1.04-.03-1.55-.11-2.45.82.08 1.41.11 2.54.11h7.43v-1.72Zm-6.67 4.71v6.12h6.67v-6.12h-6.67Zm16.89 6.12v-6.12h-7v6.12h7Zm10.74 10.71c-.03-.51-.06-.68-.14-1.33-.54-3.41-.73-5.58-.73-8.43 0-3.64.34-6.85 1.16-11.03.31-1.58.37-1.86.42-2.62l3.73.39c-.68 1.66-1.33 4.82-1.78 8.43-.28 2.11-.39 3.78-.42 6.23 0 .62-.03.85-.06 1.55.31-.99.37-1.18 1.47-3.72l2.26 1.01c-1.55 3.27-2.51 6.54-2.51 8.54 0 .17 0 .39.03.76l-3.42.2Zm12.03-11.14c-1.41 1.64-2.01 2.85-2.01 4.06 0 1.61 1.55 2.45 4.49 2.45 2.49 0 4.94-.39 6.72-1.07l.28 3.58c-.39.03-.51.06-1.16.17-2.26.37-3.98.54-5.85.54-3.5 0-5.76-.79-7-2.45-.54-.7-.85-1.75-.85-2.76 0-1.83.85-3.72 2.6-5.81l2.77 1.3Zm-4.66-9.33c1.27.34 2.77.45 5.23.45 3.13 0 5.82-.25 7.68-.76l.17 3.41c-.23.03-.65.08-2.01.25-1.81.23-3.95.34-6.04.34s-2.09 0-5.08-.31l.05-3.38Zm21.55 10.29c0-.68 0-.76.09-3.19-1.3 2.11-1.36 2.23-2.15 3.16-.4-1.38-.68-2.17-1.3-3.36 1.87-2 3.39-4.57 4.52-7.67.59-1.58.82-2.42.99-3.72l3.25.76q-.11.34-.71 2.09c-.51 1.64-.96 2.76-1.72 4.43v15.9c0 1.27.03 2.2.14 3.27h-3.28c.11-1.04.17-1.95.17-3.3v-8.38Zm15.56-11.36v-.73c0-.99-.06-1.66-.14-2.28h3.19c-.08.65-.14 1.33-.14 2.31v.7h1.38c1.13 0 1.92-.03 2.71-.14v2.9c-.68-.08-1.38-.11-2.68-.11h-1.41v2.76h1.98c1.38 0 2.2-.06 2.85-.14V37c-.71-.11-1.55-.17-2.91-.17H185c-1.3 0-2.09.03-2.91.14v-2.99c.62.11 1.38.14 2.85.14h1.58v-2.76h-.96c-1.24 0-1.95.03-2.6.11v-2.9c.68.11 1.47.14 2.63.14h.93v-.7c0-.99-.05-1.64-.17-2.31h3.22c-.11.59-.14 1.27-.14 2.34v.68h4.07Zm-9.46 12.13c0-1.04-.03-1.66-.11-2.34.71.08 1.33.11 2.57.11h9.88c1.36 0 2.01-.03 2.63-.11-.08.62-.11 1.3-.11 2.45v7.44c0 1.38.06 2.34.14 3.36h-3.14v-1.3h-8.92v1.3h-3.11c.11-.96.17-1.95.17-3.19v-7.73Zm2.94 2.42h8.92v-2.11h-8.92v2.11Zm0 4.62h8.92v-2.17h-8.92v2.17Zm6.52-13.76v-2.76h-4.07v2.76h4.07Zm18.73-7.78c-.34.96-.48 1.69-1.02 5.44-.2 1.18-.31 2.14-.37 2.82h.08q.06-.17.17-.62c.28-.99 1.02-2.37 1.78-3.36 1.55-1.92 3.3-2.88 5.37-2.88 1.92 0 3.62.9 4.83 2.54 1.41 1.89 2.04 4.17 2.04 7.5 0 5.44-2.54 9.5-7.29 11.59-1.44.65-3.42 1.21-5.54 1.58-.56-1.61-.88-2.23-1.67-3.33 2.82-.31 4.46-.73 6.19-1.61 3.28-1.66 4.77-4.34 4.77-8.63 0-4.06-1.36-6.32-3.79-6.32-1.07 0-2.06.48-3.05 1.49-2.2 2.28-3.56 5.75-3.56 9.11v.59l-3.39.06c.03-.17.03-.31.03-.37v-.54c-.03-.82-.08-2.9-.08-3.47 0-2.28.17-5.41.4-7.36l.42-3.5c.06-.48.09-.59.09-.96l3.59.2Zm26.86 3.72c-.76 0-1.61.06-2.71.14v-3.38c.82.11 1.41.14 2.65.14h4.49c1.16 0 1.92-.03 2.57-.14-.08.82-.08 1.07-.08 1.78 0 4 1.02 7.73 3.02 11.17 1.19 1.97 2.57 3.67 4.52 5.41 1.44 1.33 2.26 1.92 4.18 3.05-1.07 1.04-1.61 1.78-2.4 3.19-2.82-1.97-4.94-4.03-6.86-6.63-1.04-1.38-1.67-2.45-2.49-4.17-.73-1.55-.99-2.26-1.44-4-1.02 3.61-2.15 6.01-4.04 8.52-1.81 2.34-3.93 4.31-7 6.37-.59-1.24-1.24-2.09-2.32-2.96 2.4-1.38 3.79-2.45 5.68-4.43 2.2-2.28 3.93-5.3 4.83-8.35.57-1.95.82-3.41.93-5.7h-3.53Zm30.42 6.03c.82-.9 1.41-1.41 3.45-2.93 2.46-1.86 4.24-2.65 5.96-2.65 2.37 0 3.96 1.49 3.96 3.75 0 .93-.2 2.14-.71 4.31-.96 4.26-1.19 5.44-1.19 6.34s.42 1.41 1.16 1.41c.62 0 1.38-.56 1.98-1.44.68-.99 1.3-2.2 1.64-3.21.62 1.49.96 2.09 1.89 3.38-.85 1.47-1.24 2-1.98 2.79-1.24 1.38-2.62 2.03-4.18 2.03-.93 0-1.81-.28-2.43-.73-1.02-.79-1.47-1.83-1.47-3.55s.11-2.4 1.16-7.08c.42-1.8.59-2.9.59-3.55s-.39-1.04-1.16-1.04c-.9 0-2.12.54-3.5 1.52-2.06 1.52-4.07 3.3-5.14 4.6-.06 1.27-.06 2.06-.06 2.85q0 .23.03 3.36c.03 3.52.03 3.61.14 4.65h-3.64q.17-1.16.2-4.48 0-3.02.06-3.78l-.06.03c-.25.39-.56.76-2.01 2.37-.62.71-1.02 1.18-1.3 1.61l-1.64-3.36c.65-.45 1.1-.87 1.84-1.61q2.65-2.62 3.19-3.21c.03-1.35.03-1.66.09-2.76 0-.65.03-.7.03-1.47-2.99.2-3.56.25-4.32.4l-.17-3.19c.51.06.76.06 1.16.06.54 0 2.09-.08 3.42-.17q.03-.42.06-1.07c0-.79.03-1.66.03-2.31 0-.73 0-.93-.09-1.58l3.59.06c-.08.34-.08.39-.11 1.04 0 .14-.03.51-.08 1.07-.03.56-.06.79-.11 2.51.03 0 .14-.06.34-.11l1.05 1.18c-.28.23-.4.34-.82.85q-.14.14-.39.51c-.11.17-.17.23-.34.45l-.06 1.66s-.03.17-.06.51h.03Zm30.25 1.64c2.57-1.02 3.81-1.3 5.93-1.3 4.83 0 7.94 2.48 7.94 6.34 0 2.68-1.33 4.82-3.84 6.23-1.84 1.04-4.24 1.61-6.83 1.61-2.37 0-4.35-.45-5.48-1.3-1.07-.79-1.69-1.97-1.69-3.24 0-2.34 2.03-4.03 4.86-4.03 1.98 0 3.7.82 4.89 2.31.56.71.88 1.33 1.3 2.54 2.34-.87 3.36-2.09 3.36-4.09 0-2.2-2.18-3.64-5.59-3.64-4.12 0-8.25 1.66-11.64 4.74l-1.92-3.04c.99-.48 2.12-1.24 3.98-2.65 2.63-2 6.3-5.16 8.45-7.33l.51-.51-.03-.03c-1.07.14-2.88.25-7.99.48-.62.03-.82.06-1.36.14l-.14-3.38c.96.11 1.78.17 3.33.17 2.4 0 5.85-.14 8.59-.34.99-.08 1.3-.14 1.75-.37l1.75 2.48c-.48.25-.68.42-1.47 1.16-1.41 1.3-3.47 3.13-4.44 3.95-.51.42-2.54 1.95-3.11 2.31q-.71.48-1.16.73l.06.06Zm.85 7.02c-1.02 0-1.67.51-1.67 1.3 0 1.13 1.27 1.78 3.36 1.78.54 0 .68 0 1.47-.11-.51-1.95-1.58-2.96-3.16-2.96Zm28.5-18.38q-.17.54-.45 1.89c-.14.68-.28 1.24-.59 2.48 1.95-.2 3.42-.45 4.52-.79l.08 3.24c-.31.03-.37.03-.9.14-1.02.17-2.74.37-4.49.51a54.36 54.36 0 0 1-3.11 8.18c-.65 1.38-.9 1.89-1.98 3.86q-.37.68-.54 1.02l-3.25-1.8c.99-1.3 1.78-2.57 2.74-4.51 1.1-2.26 1.58-3.41 2.65-6.65-1.27.03-1.44.03-1.78.03-.37 0-.54 0-1.13-.03l-1.5-.03V30.7c1.02.2 2.09.25 3.81.25.34 0 .82 0 1.44-.03.48-2 .79-3.69.85-4.91l3.62.37Zm12.79 22.84c-1.02-1.21-2.66-2.54-4.32-3.5.03.25.06.45.06.56 0 1.04-.48 2.26-1.21 2.99-.99 1.02-2.68 1.58-4.69 1.58-3.73 0-6.16-1.86-6.16-4.74s2.51-4.85 6.1-4.85c.85 0 1.44.06 2.63.25-.09-1.3-.14-2.4-.14-3.24 0-1.1.06-1.92.23-2.85l3.28.17c-.28 1.04-.34 1.69-.34 2.85s.06 2.26.25 3.86c2.03.9 2.32 1.04 4.46 2.59.42.28.54.39.99.76q.23.23.42.4l-1.55 3.16Zm-10.03-5.16c-1.84 0-3.02.76-3.02 1.95s1.02 1.83 2.77 1.83c1.92 0 2.85-.79 2.85-2.37 0-.28-.06-.96-.06-.96-.99-.34-1.67-.45-2.54-.45Zm10.17-7.81c-2.46-1.64-4.97-2.85-8.13-3.95l1.7-2.74c3.33 1.27 5.45 2.26 7.96 3.78l-1.53 2.9Zm12.2-4.35c-.42 1.55-.9 4.17-1.27 6.94q-.06.39-.14.82l.06.06c1.64-1.58 5.14-2.68 8.56-2.68 4.8 0 7.96 2.37 7.96 5.98 0 2.06-1.1 4.15-2.91 5.44-1.84 1.33-4.18 1.92-7.46 1.92-2.43 0-3.98-.2-7.2-.99-.03-1.75-.08-2.31-.42-3.64 2.77.96 5.2 1.41 7.6 1.41 3.98 0 6.75-1.66 6.75-4.06 0-1.89-1.78-3.02-4.77-3.02-2.51 0-5.14.76-7.03 2.06-.51.37-.68.54-1.27 1.21l-3.56-.11c.08-.51.08-.62.23-1.69.22-1.75.68-4.88 1.19-8.21.11-.68.14-1.02.17-1.64l3.53.2Zm.37-5.53c1.95 1.07 7.34 2.68 10.54 3.13l-1.16 3.24c-4.83-1.1-7.79-2.03-11.01-3.52l1.64-2.85Z" style="fill:#fff"/><path class="cls-2" d="M36.85 64.7c-1.67-3.1-8.34-6.64-16.77-8.62S4.1 54.3 1.23 56.33l-.76-.18-.41 1.76c-.8 3.42 6.86 8.14 17.12 10.55 10.26 2.41 19.22 1.59 20.02-1.83l.41-1.76-.76-.18Z"/><ellipse class="cls-6" cx="19.04" cy="60.52" rx="6.36" ry="19.08" transform="rotate(-76.78 19.043 60.522)"/><path class="cls-2" d="M36.33 62.3c-1.57-2.92-7.86-6.25-15.8-8.12s-15.05-1.68-17.76.24l-.72-.17-.39 1.65c-.76 3.22 6.46 7.67 16.12 9.94s18.11 1.5 18.86-1.72l.39-1.65-.72-.17Z"/><ellipse class="cls-6" cx="19.55" cy="58.36" rx="5.99" ry="17.97" transform="rotate(-76.78 19.55 58.366)"/><path d="M33.04 47.52c-.56-5.21-3.27-9.26-4.99-11.36-.36-.21-.7-.4-1.01-.58-.36-.2-.53-.62-.44-1.02s.44-.69.85-.71c.06 0 .13 0 .19-.01 1.83-1.35 5.76-4.6 9.26-9.7 2.68-3.91 3.52-10.89 3.74-16.23l-8.25-4.23-18.21.22c-4.43 18.86 4.98 26.56 9.21 28.99.36.2.53.62.44 1.02s-.44.69-.85.71c-4.83.29-15.87.16-20.38 18.6-.05.11-.09.23-.12.35-.75 3.17 6.37 7.56 15.89 9.79 2.34.55 4.6.92 6.7 1.11 2.1-2.38 8.67-10.42 7.97-16.96Z" style="fill:#cef"/><path class="cls-1" d="M36.89 24.14c-3.5 5.1-7.43 8.35-9.26 9.7 4.98-.35 16.59-3.23 20.96-21.85l-7.96-4.08c-.22 5.33-1.06 12.31-3.74 16.23Zm.07 37.53c.03-.12.04-.24.05-.36 3.86-17.15-4.39-22.54-8.96-25.15 1.72 2.1 4.44 6.15 4.99 11.36.7 6.54-5.87 14.58-7.97 16.96 6.45.6 11.32-.42 11.88-2.81Z"/><path d="M19.27 20c.86 6.13 2.94 10.78 3.98 12.81-4.3-2.53-13.42-10.28-9.04-28.9l8.94-.11c-2.18 4.87-4.53 11.5-3.87 16.2ZM2.51 53.58c.03-.12.07-.23.12-.35C6.81 36.15 16.6 35.01 21.85 34.7c-2.48 1.11-6.71 3.53-9.53 7.95-3.54 5.55-1.23 15.67-.42 18.74-6.04-2.33-9.95-5.41-9.39-7.81Z" style="fill:#b1dfff"/><path d="M28.42 33.23c2.61-.04 5.15-1.05 7.78-2.55 4.55-2.6 5.44-4.55 5.44-4.55s-1.82-1.29-4.48-2.41l-.27.42c-3.06 4.46-6.44 7.49-8.47 9.09Zm7.79 28.99.19.04.13-.46c.11-.18.18-.37.23-.57.03-.14.05-.29.05-.44l.29-1.03s.69-3.2-4.64-4.45c-.37-.09-.71-.19-1.03-.29-1.76 3.84-4.5 7.3-5.97 9.02 5.18.43 9.27-.22 10.75-1.81Z" style="fill:#fbf1f2"/><path class="cls-6" d="M31.52 30.5a42.13 42.13 0 0 0 5.37-6.37l.27-.42c-2.01-.85-4.49-1.6-7.03-1.64-5.91-.09-7.82-1.84-11.03-2.21-3.2-.37-4.14 2.48-4.14 2.48s.13.32.39.84c1 .97 2.31 2.07 4 3.28 3.02 2.15 8.01 3.36 12.17 4.04Z"/><path class="cls-7" d="M22.55 31.62c.32.18.63.34.94.49.48.6.91 1.27.81 1.63-.2.74-1.23 1.09-1.13 1.31.11.21.62 1.25 1.75 1.26 1.13.01 1.11-.31 1.25-1.15.14-.85.71-1.81 1.27-1.81.27 0 .43-.06.51-.12h.46c.84-.66 1.91-1.57 3.1-2.73-4.16-.68-9.15-1.9-12.17-4.04-1.69-1.2-2.99-2.31-4-3.28.92 1.85 3.41 6.29 7.19 8.44ZM3.89 50.33l-.54 1.79.09.1c-.3.31-.5.66-.59 1.04-.73 3.12 6.26 7.44 15.63 9.64 2.45.57 4.81.95 6.99 1.13.29-.34.63-.75 1-1.21-3.27-1-7.15-2.52-10.18-4.73-3.85-2.81-6.25-6.28-7.56-8.61-3.41-.13-4.84.85-4.84.85Z"/><path class="cls-1" d="m32.2 4.5 15.46 7.92c-1.9 7.65-5.25 13.31-9.96 16.81-1.76 1.31-3.7 2.3-5.77 2.96-1.5.47-3.02.76-4.54.85-.77.05-1.41.58-1.59 1.34s.16 1.52.83 1.9l.52.29c2.15 1.22 5.4 3.06 7.6 6.7 1.21 2 1.98 4.35 2.29 7 .37 3.15.09 6.81-.82 10.86l-.02.07v.07c0 .08-.02.15-.03.22-.15.65-.86 1.1-1.43 1.37-.93.43-2.26.74-3.85.89-3.43.31-7.8-.1-12.32-1.16s-8.62-2.64-11.55-4.45c-1.36-.84-2.42-1.71-3.06-2.51-.71-.89-.76-1.51-.67-1.86.02-.07.04-.13.07-.21l.03-.06.02-.07c.99-4.04 2.37-7.43 4.1-10.09 1.45-2.23 3.19-3.99 5.17-5.24 3.59-2.28 7.32-2.48 9.79-2.62l.59-.03c.77-.05 1.41-.58 1.59-1.34s-.16-1.52-.83-1.9c-1.32-.76-2.56-1.69-3.69-2.78a19.672 19.672 0 0 1-3.85-5.22c-2.66-5.24-3.14-11.79-1.43-19.49l17.37-.21m.19-.81-18.21.22c-4.43 18.86 4.98 26.56 9.21 28.99.36.2.53.62.44 1.02-.09.4-.44.69-.85.71-4.83.29-15.87.16-20.38 18.6-.05.11-.09.23-.12.35-.75 3.17 6.37 7.56 15.89 9.79s17.84 1.48 18.58-1.7c.03-.12.04-.24.05-.36C41.18 42.8 31.24 38 27.05 35.59a.928.928 0 0 1-.44-1.02c.09-.4.44-.69.85-.71 4.87-.29 16.72-3 21.15-21.86L32.39 3.69Z"/><path d="M29.64 15.4C20 13.14 12.81 8.7 13.56 5.49l-.39 1.65c-.75 3.21 6.44 7.65 16.08 9.91s18.06 1.49 18.81-1.72l.39-1.65c-.75 3.21-9.18 3.98-18.81 1.72Z" style="fill:#f19114"/><path d="M36.68 10.23c1.85-1.69 2.26-3.28 2.18-4.49a51.79 51.79 0 0 0-6.49-1.98C22.73 1.5 14.31 2.27 13.56 5.48c-.54 2.28 2.95 5.19 8.47 7.49 2.54.13 11.28.33 14.65-2.75Z" style="fill:#fbe7b5"/><path d="M48.45 13.68c.57-2.43-3.43-5.57-9.59-7.94.09 1.21-.32 2.8-2.18 4.49-3.37 3.07-12.11 2.87-14.65 2.75 2.24.94 4.82 1.77 7.61 2.42 9.64 2.26 18.06 1.49 18.81-1.72Z" style="fill:#fff1d9"/><path class="cls-2" d="M30.02 13.77C19.77 11.36 12.1 6.63 12.91 3.21l-.41 1.76c-.8 3.42 6.86 8.14 17.12 10.55 10.26 2.41 19.22 1.59 20.02-1.83l.41-1.76c-.8 3.42-9.77 4.24-20.02 1.83Z"/><path d="M50.05 11.94c.61-2.59-3.65-5.93-10.21-8.45.09 1.29-.35 2.98-2.32 4.77-3.58 3.27-12.89 3.06-15.59 2.92 2.39 1 5.13 1.88 8.1 2.58 10.26 2.41 19.22 1.59 20.02-1.83Z" style="fill:#ffe198"/><path class="cls-6" d="M39.84 3.49c-1.93-.74-4.07-1.41-6.34-1.97-4.33-.34-12.1-.57-14.22 1.98-2.99 3.59 2.65 7.68 2.65 7.68 2.71.14 12.01.35 15.59-2.92 1.97-1.8 2.41-3.49 2.32-4.77Z"/><path class="cls-7" d="M19.28 3.5C21.4.95 29.17 1.18 33.5 1.52c-.19-.05-.38-.09-.57-.14C22.68-1.03 13.71-.21 12.91 3.21c-.57 2.43 3.14 5.52 9.02 7.97 0 0-5.64-4.1-2.65-7.68Z"/><path class="cls-6" d="M24.65 49.65a2.884 2.884 0 0 1-1.1-2.15c-.07-1.7-.09-4.17.23-5.93.54-2.95 2.23-5.79 2.23-5.79l-1.41-.33-1.06.13s.69.96.28 2.84c-.4 1.88-1.58 6.59-2.05 7.43-.32.59-1.19 2.23-2.66 1.87-.4-.1-.82-.16-1.24-.12-2.71.23-3.73 2.54-7.3 2.04-.68-.09-1.31-.15-1.88-.17 1.31 2.34 3.71 5.81 7.56 8.61 3.02 2.2 6.9 3.73 10.18 4.73 1.51-1.89 3.55-4.73 4.97-7.81-3.35-1.13-4.2-3.34-6.78-5.36Z"/></g></svg>