<?xml version="1.0" encoding="UTF-8"?>
<svg id="Layer_2" data-name="Layer 2" xmlns="http://www.w3.org/2000/svg" viewBox="0 0 403.56 69.85">
  <defs>
    <style>
      .cls-1 {
        fill: #d95d44;
      }

      .cls-1, .cls-2, .cls-3, .cls-4, .cls-5, .cls-6, .cls-7, .cls-8, .cls-9, .cls-10, .cls-11, .cls-12, .cls-13 {
        stroke-width: 0px;
      }

      .cls-2 {
        fill: #b1dfff;
      }

      .cls-3 {
        fill: #cef;
      }

      .cls-4 {
        fill: #ffae22;
      }

      .cls-5 {
        fill: #fff;
      }

      .cls-6 {
        fill: #ffe198;
      }

      .cls-7 {
        fill: #fff1d9;
      }

      .cls-8 {
        fill: #f19114;
      }

      .cls-9 {
        fill: #fbf1f2;
      }

      .cls-10 {
        fill: #fbe7b5;
      }

      .cls-11 {
        fill: #ffd86e;
      }

      .cls-12 {
        fill: #ffc73e;
      }

      .cls-13 {
        fill: #eaf9ff;
      }
    </style>
  </defs>
  <g id="Layer_2-2" data-name="Layer 2">
    <g>
      <rect class="cls-1" x="18.56" y="12.77" width="385" height="52" rx="26" ry="26"/>
      <g>
        <g>
          <path class="cls-4" d="m36.85,64.7c-1.67-3.1-8.34-6.64-16.77-8.62s-15.98-1.78-18.85.25l-.76-.18-.41,1.76c-.8,3.42,6.86,8.14,17.12,10.55,10.26,2.41,19.22,1.59,20.02-1.83l.41-1.76-.76-.18h0Z"/>
          <ellipse class="cls-11" cx="19.04" cy="60.53" rx="6.36" ry="19.08" transform="translate(-44.24 65.22) rotate(-76.78)"/>
        </g>
        <g>
          <path class="cls-4" d="m36.33,62.3c-1.57-2.92-7.86-6.25-15.8-8.12-7.94-1.86-15.05-1.68-17.76.24l-.72-.17-.39,1.65c-.76,3.22,6.46,7.67,16.12,9.94s18.11,1.5,18.86-1.72l.39-1.65-.72-.17h.02Z"/>
          <ellipse class="cls-11" cx="19.54" cy="58.37" rx="5.99" ry="17.97" transform="translate(-41.75 64.04) rotate(-76.78)"/>
        </g>
        <g>
          <path class="cls-3" d="m33.04,47.52c-.56-5.21-3.27-9.26-4.99-11.36-.36-.21-.7-.4-1.01-.58-.36-.2-.53-.62-.44-1.02s.44-.69.85-.71c.06,0,.13,0,.19,0,1.83-1.35,5.76-4.6,9.26-9.7,2.68-3.91,3.52-10.89,3.74-16.23l-8.25-4.23-18.21.22c-4.43,18.86,4.98,26.56,9.21,28.99.36.2.53.62.44,1.02s-.44.69-.85.71c-4.83.29-15.87.16-20.38,18.6-.05.11-.09.23-.12.35-.75,3.17,6.37,7.56,15.89,9.79,2.34.55,4.6.92,6.7,1.11,2.1-2.38,8.67-10.42,7.97-16.96h0Z"/>
          <path class="cls-13" d="m36.89,24.14c-3.5,5.1-7.43,8.35-9.26,9.7,4.98-.35,16.59-3.23,20.96-21.85l-7.96-4.08c-.22,5.33-1.06,12.31-3.74,16.23Z"/>
          <path class="cls-13" d="m36.96,61.67c.03-.12.04-.24.05-.36,3.86-17.15-4.39-22.54-8.96-25.15,1.72,2.1,4.44,6.15,4.99,11.36.7,6.54-5.87,14.58-7.97,16.96,6.45.6,11.32-.42,11.88-2.81h0Z"/>
          <path class="cls-2" d="m19.27,20c.86,6.13,2.94,10.78,3.98,12.81-4.3-2.53-13.42-10.28-9.04-28.9l8.94-.11c-2.18,4.87-4.53,11.5-3.87,16.2h0Z"/>
          <path class="cls-2" d="m2.51,53.58c.03-.12.07-.23.12-.35,4.18-17.08,13.97-18.22,19.22-18.53-2.48,1.11-6.71,3.53-9.53,7.95-3.54,5.55-1.23,15.67-.42,18.74-6.04-2.33-9.95-5.41-9.39-7.81Z"/>
        </g>
        <g>
          <path class="cls-9" d="m28.42,33.23c2.61-.04,5.15-1.05,7.78-2.55,4.55-2.6,5.44-4.55,5.44-4.55,0,0-1.82-1.29-4.48-2.41-.09.14-.18.28-.27.42-3.06,4.46-6.44,7.49-8.47,9.09Z"/>
          <path class="cls-9" d="m36.21,62.22l.19.04.13-.46c.11-.18.18-.37.23-.57.03-.14.05-.29.05-.44l.29-1.03s.69-3.2-4.64-4.45c-.37-.09-.71-.19-1.03-.29-1.76,3.84-4.5,7.3-5.97,9.02,5.18.43,9.27-.22,10.75-1.81h0Z"/>
          <g>
            <path class="cls-11" d="m31.52,30.5c1.68-1.63,3.58-3.76,5.37-6.37.09-.14.18-.28.27-.42-2.01-.85-4.49-1.6-7.03-1.64-5.91-.09-7.82-1.84-11.03-2.21-3.2-.37-4.14,2.48-4.14,2.48,0,0,.13.32.39.84,1,.97,2.31,2.07,4,3.28,3.02,2.15,8.01,3.36,12.17,4.04Z"/>
            <path class="cls-12" d="m22.55,31.62c.32.18.63.34.94.49.48.6.91,1.27.81,1.63-.2.74-1.23,1.09-1.13,1.31.11.21.62,1.25,1.75,1.26s1.11-.31,1.25-1.15c.14-.85.71-1.81,1.27-1.81.27,0,.43-.06.51-.12h.46c.84-.66,1.91-1.57,3.1-2.73-4.16-.68-9.15-1.9-12.17-4.04-1.69-1.2-2.99-2.31-4-3.28.92,1.85,3.41,6.29,7.19,8.44h.02Z"/>
            <path class="cls-12" d="m3.89,50.33l-.54,1.79.09.1c-.3.31-.5.66-.59,1.04-.73,3.12,6.26,7.44,15.63,9.64,2.45.57,4.81.95,6.99,1.13.29-.34.63-.75,1-1.21-3.27-1-7.15-2.52-10.18-4.73-3.85-2.81-6.25-6.28-7.56-8.61-3.41-.13-4.84.85-4.84.85Z"/>
          </g>
        </g>
        <path class="cls-13" d="m32.2,4.5l15.46,7.92c-1.9,7.65-5.25,13.31-9.96,16.81-1.76,1.31-3.7,2.3-5.77,2.96-1.5.47-3.02.76-4.54.85-.77.05-1.41.58-1.59,1.34s.16,1.52.83,1.9c.16.09.34.19.52.29,2.15,1.22,5.4,3.06,7.6,6.7,1.21,2,1.98,4.35,2.29,7,.37,3.15.09,6.81-.82,10.86l-.02.07v.07c0,.08-.02.15-.03.22-.15.65-.86,1.1-1.43,1.37-.93.43-2.26.74-3.85.89-3.43.31-7.8-.1-12.32-1.16-4.52-1.06-8.62-2.64-11.55-4.45-1.36-.84-2.42-1.71-3.06-2.51-.71-.89-.76-1.51-.67-1.86.02-.07.04-.13.07-.21l.03-.06.02-.07c.99-4.04,2.37-7.43,4.1-10.09,1.45-2.23,3.19-3.99,5.17-5.24,3.59-2.28,7.32-2.48,9.79-2.62.21,0,.4-.02.59-.03.77-.05,1.41-.58,1.59-1.34s-.16-1.52-.83-1.9c-1.32-.76-2.56-1.69-3.69-2.78-1.56-1.51-2.85-3.26-3.85-5.22-2.66-5.24-3.14-11.79-1.43-19.49l17.37-.21m.19-.81l-18.21.22c-4.43,18.86,4.98,26.56,9.21,28.99.36.2.53.62.44,1.02h0c-.09.4-.44.69-.85.71-4.83.29-15.87.16-20.38,18.6-.05.11-.09.23-.12.35-.75,3.17,6.37,7.56,15.89,9.79,9.52,2.24,17.84,1.48,18.58-1.7.03-.12.04-.24.05-.36,4.16-18.52-5.78-23.32-9.97-25.73-.36-.2-.53-.62-.44-1.02h0c.09-.4.44-.69.85-.71,4.87-.29,16.72-3,21.15-21.86L32.39,3.69h.02Z"/>
        <g>
          <path class="cls-8" d="m29.64,15.4c-9.64-2.26-16.83-6.7-16.08-9.91l-.39,1.65c-.75,3.21,6.44,7.65,16.08,9.91,9.64,2.26,18.06,1.49,18.81-1.72l.39-1.65c-.75,3.21-9.18,3.98-18.81,1.72Z"/>
          <g>
            <path class="cls-10" d="m36.68,10.23c1.85-1.69,2.26-3.28,2.18-4.49-1.97-.75-4.16-1.43-6.49-1.98-9.64-2.26-18.06-1.49-18.81,1.72-.54,2.28,2.95,5.19,8.47,7.49,2.54.13,11.28.33,14.65-2.75h0Z"/>
            <path class="cls-7" d="m48.45,13.68c.57-2.43-3.43-5.57-9.59-7.94.09,1.21-.32,2.8-2.18,4.49-3.37,3.07-12.11,2.87-14.65,2.75,2.24.94,4.82,1.77,7.61,2.42,9.64,2.26,18.06,1.49,18.81-1.72Z"/>
          </g>
        </g>
        <g>
          <path class="cls-4" d="m30.02,13.77C19.77,11.36,12.1,6.63,12.91,3.21l-.41,1.76c-.8,3.42,6.86,8.14,17.12,10.55s19.22,1.59,20.02-1.83l.41-1.76c-.8,3.42-9.77,4.24-20.02,1.83h0Z"/>
          <g>
            <path class="cls-6" d="m50.05,11.94c.61-2.59-3.65-5.93-10.21-8.45.09,1.29-.35,2.98-2.32,4.77-3.58,3.27-12.89,3.06-15.59,2.92,2.39,1,5.13,1.88,8.1,2.58,10.26,2.41,19.22,1.59,20.02-1.83h0Z"/>
            <g>
              <path class="cls-11" d="m39.84,3.49c-1.93-.74-4.07-1.41-6.34-1.97-4.33-.34-12.1-.57-14.22,1.98-2.99,3.59,2.65,7.68,2.65,7.68,2.71.14,12.01.35,15.59-2.92,1.97-1.8,2.41-3.49,2.32-4.77Z"/>
              <path class="cls-12" d="m19.28,3.5c2.12-2.55,9.89-2.32,14.22-1.98-.19-.05-.38-.09-.57-.14C22.68-1.03,13.71-.21,12.91,3.21c-.57,2.43,3.14,5.52,9.02,7.97,0,0-5.64-4.1-2.65-7.68Z"/>
            </g>
          </g>
        </g>
        <path class="cls-11" d="m24.65,49.65c-.67-.52-1.06-1.31-1.1-2.15-.07-1.7-.09-4.17.23-5.93.54-2.95,2.23-5.79,2.23-5.79l-1.41-.33-1.06.13s.69.96.28,2.84c-.4,1.88-1.58,6.59-2.05,7.43-.32.59-1.19,2.23-2.66,1.87-.4-.1-.82-.16-1.24-.12-2.71.23-3.73,2.54-7.3,2.04-.68-.09-1.31-.15-1.88-.17,1.31,2.34,3.71,5.81,7.56,8.61,3.02,2.2,6.9,3.73,10.18,4.73,1.51-1.89,3.55-4.73,4.97-7.81-3.35-1.13-4.2-3.34-6.78-5.36h.03Z"/>
      </g>
      <g>
        <path class="cls-5" d="m85.77,47.7c-1.57-1.26-3.05-2.67-4.45-4.21v2.83h-5.44v5.33h-3.02v-5.33h-5.36v-2.5c-1.35,1.46-2.83,2.8-4.42,3.93l-2.03-2.67c4.4-2.8,8.55-7.28,10.77-11.87h-9.54v-2.91h10.58v-4.62h3.02v4.62h10.61v2.91h-9.67c2.8,4.64,6.95,9.1,10.94,11.73l-1.98,2.75Zm-12.92-11.84c-1.35,2.72-3,5.28-4.97,7.53h4.97v-7.53Zm8.35,7.53c-2.01-2.25-3.82-4.78-5.33-7.58v7.58h5.33Z"/>
        <path class="cls-5" d="m110.8,51.44v-1.87h-14.56v1.87h-2.97v-24.76h20.53v24.76h-3Zm0-21.82h-14.56v6.84h14.56v-6.84Zm0,9.76h-14.56v7.28h14.56v-7.28Z"/>
        <path class="cls-5" d="m129.65,45.26c-2.94,1.02-6.27,2.01-9.34,2.75l-.63-2.91c1.04-.17,2.36-.44,3.74-.77v-6.62h-3v-2.69h3v-5.25h-3.22v-2.72h9.26v2.72h-3.22v5.25h2.97v2.69h-2.97v5.88c1.29-.38,2.47-.8,3.41-1.18v2.86Zm10.5,5.63c-1.68,0-2.31-.85-2.34-2.36v-6.24h-1.87c-.22,4.95-3.52,7.78-7.09,9.32l-2.09-2.34c3.74-1.13,6.18-3.54,6.38-6.98h-2.69v-15.8h13.58v15.8h-3.38v5.08c0,.69.06.77.6.77h.66c.93,0,1.07-.14,1.18-3.88l2.56,1.4c-.27,4.64-1.02,5.22-3.35,5.22h-2.14Zm1.04-21.85h-7.91v2.01h7.91v-2.01Zm0,4.2h-7.91v2.09h7.91v-2.09Zm0,4.29h-7.91v2.23h7.91v-2.23Z"/>
        <path class="cls-5" d="m149.46,50.86v-2.69h5.74c-.55-1.65-1.46-3.68-2.23-5.17l2.75-1.21c.82,1.76,1.73,4.4,2.25,6.38h2.31v-6.49h-9.43v-2.67h9.43v-3.35h-6.16v-1.65c-1.43.74-2.94,1.37-4.4,1.84l-1.29-3.08c4.7-1.18,8.71-3.71,11.84-6.98h2.86c3.02,3,7.15,5.52,12.06,6.87l-1.29,3.05c-1.37-.47-2.83-1.1-4.26-1.81v1.76h-6.46v3.35h9.48v2.67h-9.48v6.49h2.36c.96-2.12,1.7-4.62,2.14-6.4l2.83,1.24c-.55,1.62-1.32,3.6-2.06,5.17h5.61v2.69h-24.62Zm18.41-17.92c-2.39-1.37-4.62-2.97-6.16-4.48-1.51,1.62-3.49,3.16-5.69,4.48h11.84Z"/>
        <path class="cls-5" d="m199.91,50.51c-2.42.38-5.03.52-7.56.52-4.53,0-8.6-1.35-8.6-5.06s5.11-6.05,7.78-7.2c-.19-1.37-.69-2.2-1.95-2.2-3.33,0-7.31,4.67-8.74,6.49l-2.56-1.9c2.86-2.58,5.44-6.13,7.23-9.26h-6.65v-2.67h7.83c.49-1.07.88-2.06,1.15-2.89l3.35.52c-.33.8-.71,1.59-1.1,2.34h8.79v2.67h-10.06c-.88,1.46-1.9,2.86-2.8,3.98,1.29-.88,2.58-1.62,4.2-1.62,2.14,0,3.52,1.07,4.04,3.46,2.83-.99,5.14-1.62,7.56-2.31l1.18,2.91c-2.61.52-5.66,1.29-8.38,2.23.03.52.03,1.04.03,1.59,0,.99-.03,2.06-.08,3.19l-3.1.19c.08-1.18.19-2.56.19-3.87-1.32.6-5,2.23-5,4.31s4.23,2.25,5.69,2.25c2.42,0,5.08-.3,7.69-.8l-.14,3.11Z"/>
        <path class="cls-5" d="m218.92,42.13h-11.65c.41-2.61.93-7.12,1.1-9.23h9.87v-3.49h-10.42v-2.83h13.25v9.15h-10c-.11.88-.3,2.56-.5,3.6h11.24v2.01c0,8.99-.99,10.25-11.96,10.28l-.93-3h1.79c7.34,0,8.19-.6,8.22-5.72v-.77Zm8.05,9.54v-25.97h2.91v25.97h-2.91Z"/>
        <path class="cls-5" d="m255.36,50.12c-2.2.38-4.84.69-7.26.69-4.78,0-10.8-1.15-10.8-5.5s6.1-5.08,9.32-5.11c2.17,0,4.31.03,6.43.38-.91-1.02-1.84-2.12-2.69-3.24-3.66.41-7.31.63-10.99.63-.83,0-1.65,0-2.47-.03l-.36-2.75c1.1.06,2.2.08,3.3.08,3,0,5.96-.19,8.93-.47-.6-.85-1.18-1.73-1.79-2.61-2.47.19-4.95.3-7.42.3-.77,0-1.57,0-2.34-.03l-.47-2.69c.99.06,1.98.06,3,.06,1.9,0,3.82-.06,5.74-.19-.52-.91-1.04-1.84-1.54-2.78l2.91-.71c.47.99,1.04,2.09,1.7,3.22,2.72-.27,5.36-.66,7.78-1.13l.36,2.75c-2.25.38-4.53.69-6.73.93.55.82,1.13,1.68,1.73,2.53,2.17-.27,4.34-.63,6.43-1.04l.47,2.72c-1.79.33-3.57.61-5.33.85,1.46,1.84,2.25,2.86,4.48,5.03l-1.98,2.23c-1.26-.77-3.41-1.59-8.52-1.59-1.62,0-6.82,0-6.82,2.5,0,2.23,4.31,2.78,6.29,2.78,3.05,0,6.02-.38,8.96-1.02l-.33,3.21Z"/>
        <path class="cls-5" d="m284.59,51.66v-1.73h-17.62v1.73h-2.8v-11.9h2.8v7.37h7.39v-9.23h-9.29v-9.98h2.83v7.15h6.46v-9.37h2.83v9.37h6.4v-7.15h2.83v9.98h-9.23v9.23h7.39v-7.37h2.8v11.93l-2.8-.03Z"/>
        <path class="cls-5" d="m296.51,48.53c6.87-.82,9.01-3.11,9.73-5.08-.93.93-2.14,1.35-3.44,1.35-3.13,0-5.44-1.84-5.44-4.78,0-3.24,2.86-5.25,5.91-5.28.8,0,1.54.05,2.28.36,0-.41-.03-2.06-.06-2.47l-12.89.03v-2.78l12.83-.03c-.03-1.26-.05-2.42-.11-3.44h3.13c0,1.04.03,2.2.03,3.41h8.85v2.78l-8.79.03c0,1.43,0,3.46-.03,4.73.71,1.21.91,2.64.91,4.12,0,5.11-3.46,8.68-10.69,9.89l-2.23-2.83Zm9.23-10.22c-.63-.77-1.59-1.18-2.75-1.18-1.54,0-2.78,1.15-2.78,2.69,0,1.24.85,2.36,2.53,2.36,2.39,0,3-1.7,3-3.52v-.36Z"/>
        <path class="cls-5" d="m320.53,45.2c2.83-3.96,5.08-8.49,6.73-12.56h-5.61l.03-2.78h6.4c.49-1.32.85-2.58,1.18-3.68l3.19.44c-.33,1.02-.69,2.12-1.1,3.24h3.93v2.78h-4.78c-1.84,4.48-4.23,9.43-7.09,13.74l-2.89-1.18Zm23.33,4.75c-1.48-1.46-2.94-2.75-4.45-3.71-.44,3.44-2.94,4.64-6.13,4.64-3.63,0-6.07-1.9-6.07-4.53,0-3.35,3.71-4.62,6.35-4.62.99,0,1.92.11,2.89.33-.06-2.09-.22-4.51-.3-6.62h3.13c.08,2.47.17,5.11.19,7.67,2.01.93,3.96,2.25,5.77,3.82l-1.37,3.02Zm-10.14-5.61c-.91,0-3.71.16-3.71,1.87,0,1.18,1.51,1.92,3.27,1.92,2.42,0,3.13-1.1,3.22-3.33-.91-.3-1.81-.47-2.78-.47Zm11.4-10.17c-1.81-.55-4.09-.91-6.07-.91-.82,0-1.59.08-2.25.22l-.25-2.83c.88-.14,2.03-.22,3.24-.22,1.98,0,4.18.19,5.85.69l-.52,3.05Z"/>
        <path class="cls-5" d="m351.19,46.96c2.45.49,5.39.71,7.75.71,3.71,0,9.29-1.1,9.29-5,0-2.47-2.8-3.33-5.39-3.33-5.03,0-8.68,2.72-10.31,4.09l-2.58-.66c.28-3.33.82-7.5,1.24-10.75l3.13.36c-.41,2.34-.91,5.22-1.13,7.15,1.48-.91,5.19-3.02,9.84-3.02,4.04,0,8.46,1.65,8.46,6.4,0,5.41-5.91,7.75-12.39,7.75-2.14,0-4.7-.08-6.98-.44l-.93-3.27Zm14.24-15.58c-3.98-1.07-8.82-1.32-12.81-1.32l.93-2.89c4.26,0,8.55.17,12.7,1.15l-.83,3.05Z"/>
      </g>
    </g>
  </g>
</svg>