<svg xmlns="http://www.w3.org/2000/svg" viewBox="0 0 886 886"><g style="opacity:.2"><path d="M443 741c-79.6 0-154.43-31-210.72-87.28C176 597.44 145 522.6 145 443s31-154.43 87.28-210.72C288.56 175.99 363.4 145 443 145s154.43 31 210.72 87.28C710 288.56 741 363.4 741 443s-31 154.43-87.28 210.72C597.44 710.01 522.6 741 443 741Zm0-566c-71.59 0-138.89 27.88-189.5 78.5C202.88 304.12 175 371.42 175 443s27.88 138.89 78.5 189.5C304.12 683.12 371.42 711 443 711s138.89-27.88 189.5-78.5C683.12 581.88 711 514.58 711 443s-27.88-138.89-78.5-189.5C581.88 202.88 514.58 175 443 175Z" style="fill:#f6c23d"/></g><path d="M460.41 412.07v-93.94c0-7.73-6.27-14-14-14s-14 6.27-14 14v90.98c-14.44 4.5-24.91 17.98-24.91 33.89 0 4.28.76 8.39 2.15 12.19L325.1 504c-6.7 3.87-8.99 12.43-5.12 19.12 3.87 6.7 12.43 8.99 19.12 5.12l90.63-52.32a35.28 35.28 0 0 0 13.27 2.57c19.61 0 35.5-15.89 35.5-35.5 0-13.28-7.29-24.84-18.09-30.93Z" style="fill:#f7931e;opacity:.2"/><path d="m802.45 184-22.52 20.04c17.3 24.33 31.89 50.47 43.62 78.21C845.08 333.16 856 387.24 856 443s-10.92 109.85-32.45 160.75c-20.8 49.18-50.58 93.35-88.52 131.28s-82.1 67.71-131.28 88.52C552.84 845.08 498.76 856 443 856s-109.85-10.92-160.75-32.45c-49.18-20.8-93.35-50.58-131.28-88.52s-67.71-82.1-88.52-131.28C40.92 552.84 30 498.76 30 443s10.92-109.85 32.45-160.75c20.8-49.18 50.58-93.35 88.52-131.28s82.1-67.71 131.28-88.52C333.16 40.92 387.24 30 443 30s109.85 10.92 160.75 32.45c35.72 15.11 68.77 34.97 98.74 59.24l22.71-20.2c-33.14-27.46-69.91-49.81-109.76-66.66C560.82 11.71 502.8 0 443 0S325.18 11.71 270.56 34.82c-52.75 22.31-100.13 54.25-140.81 94.93-40.68 40.68-72.62 88.05-94.93 140.81C11.71 325.18 0 383.2 0 443s11.71 117.82 34.82 172.44c22.31 52.75 54.25 100.13 94.93 140.81 40.68 40.68 88.05 72.62 140.81 94.93C325.18 874.28 383.2 886 443 886s117.82-11.71 172.44-34.82c52.75-22.31 100.13-54.25 140.81-94.93 40.68-40.68 72.62-88.05 94.93-140.81C874.28 560.82 886 502.8 886 443s-11.71-117.82-34.82-172.44A440.966 440.966 0 0 0 802.45 184Z" style="opacity:.2;fill:#f0a63b"/></svg>