<svg width="47" height="23" fill="none" xmlns="http://www.w3.org/2000/svg"><path d="M3.063 15c-1.053 0-1.751.021-2.095.065V.648c.172.043.526.065 1.063.065.545 0 1.175-.014 1.89-.043v11.752h2.225c.644 0 1.16-.022 1.546-.065-.05 1.676-.075 2.546-.075 2.61v.108c-.702-.05-1.88-.075-3.534-.075h-1.02Zm6.015-5.554c0-.787.133-1.54.398-2.256a5.657 5.657 0 0 1 1.16-1.89c1.095-1.16 2.517-1.74 4.264-1.74 1.74 0 3.123.547 4.147 1.643.981 1.046 1.472 2.403 1.472 4.071 0 1.669-.505 3.051-1.515 4.147-1.067 1.16-2.482 1.74-4.243 1.74-1.82 0-3.244-.57-4.276-1.708-.938-1.038-1.407-2.374-1.407-4.007Zm2.61-.064c0 .451.076.888.226 1.31.15.423.365.785.645 1.085.594.652 1.375.978 2.341.978.896 0 1.601-.319 2.117-.956.5-.616.752-1.418.752-2.406 0-1.003-.258-1.812-.774-2.428-.551-.659-1.307-.988-2.267-.988-.973 0-1.736.35-2.288 1.052-.5.645-.752 1.429-.752 2.353Zm14.03 2.632c-.265.35-.398.63-.398.838 0 .2.032.358.097.472.064.108.204.212.419.312.473.222 1.25.419 2.331.59 1.081.165 1.926.373 2.535.624.616.25 1.114.558 1.493.923.71.695 1.064 1.68 1.064 2.954 0 1.275-.448 2.253-1.343 2.933-.895.688-2.224 1.031-3.985 1.031-1.776 0-3.209-.386-4.297-1.16-1.089-.773-1.647-1.8-1.676-3.083-.043-1.49.54-2.567 1.751-3.233a2.013 2.013 0 0 1-.666-.956 4.573 4.573 0 0 1-.161-1.268c0-.795.347-1.468 1.042-2.02-.81-.766-1.214-1.718-1.214-2.857 0-1.274.458-2.342 1.375-3.2.967-.903 2.22-1.354 3.76-1.354.809 0 1.568.15 2.277.45.931-.393 1.615-.737 2.052-1.03.437-.301.716-.52.838-.656l.064.011c.065.172.14.415.226.73l.193.774c.172.637.276 1.074.312 1.31-.316.344-.87.588-1.665.73.307.595.461 1.225.461 1.892 0 .666-.114 1.27-.343 1.815a4.299 4.299 0 0 1-.978 1.418c-.938.88-2.134 1.321-3.588 1.321a6.083 6.083 0 0 1-1.976-.311Zm-.28-4.834c-.1.258-.15.519-.15.784s.054.52.161.763c.115.243.28.461.494.655.48.43 1.107.644 1.88.644.587 0 1.096-.197 1.526-.59.45-.43.676-.946.676-1.547 0-.609-.204-1.1-.612-1.472-.408-.372-.97-.559-1.686-.559-1.182 0-1.945.44-2.288 1.322Zm2.632 13.234c1.762 0 2.643-.616 2.643-1.848 0-.587-.287-1.06-.86-1.418-.644-.408-1.75-.726-3.319-.956l-.558-.096c-.473.25-.82.573-1.042.966-.222.394-.333.767-.333 1.118.007.358.093.666.257.924.165.257.394.483.688.676.652.423 1.493.634 2.524.634Zm6.703-10.968c0-.787.133-1.54.398-2.256a5.657 5.657 0 0 1 1.16-1.89c1.096-1.16 2.517-1.74 4.265-1.74 1.74 0 3.122.547 4.146 1.643.981 1.046 1.472 2.403 1.472 4.071 0 1.669-.505 3.051-1.515 4.147-1.067 1.16-2.481 1.74-4.243 1.74-1.819 0-3.244-.57-4.275-1.708-.938-1.038-1.408-2.374-1.408-4.007Zm2.61-.064c0 .451.076.888.226 1.31.15.423.366.785.645 1.085.594.652 1.375.978 2.342.978.895 0 1.6-.319 2.116-.956.501-.616.752-1.418.752-2.406 0-1.003-.258-1.812-.774-2.428-.551-.659-1.306-.988-2.266-.988-.974 0-1.737.35-2.288 1.052-.502.645-.752 1.429-.752 2.353Z" fill="#474D41"/></svg>