<svg xmlns="http://www.w3.org/2000/svg" viewBox="0 0 424.01 180.92"><path d="M0 61.65c0-18.87 14.93-33.79 33.89-33.79 9.86 0 18.4 4.04 24.12 9.95 1.22 1.31 1.88 3.19 1.88 4.79 0 3.85-3.19 6.95-7.04 6.95-1.88 0-3.75-1.03-5.63-2.72-3.47-3.19-7.89-5.35-13.33-5.35-10.79 0-19.34 8.92-19.34 20.18s8.54 20.18 19.34 20.18c5.44 0 9.86-2.16 13.33-5.35 1.88-1.69 3.75-2.72 5.63-2.72 3.85 0 7.04 3.1 7.04 6.95 0 1.6-.66 3.47-1.88 4.79-5.73 5.91-14.27 9.95-24.12 9.95C14.93 95.45 0 80.52 0 61.65Zm66.46 8.92c0-13.89 9.95-24.88 23.19-24.88 5.16 0 9.95 1.78 13.8 4.69a6.672 6.672 0 0 1 6.38-4.69 6.53 6.53 0 0 1 6.57 6.57v36.61a6.53 6.53 0 0 1-6.57 6.57c-3 0-5.54-1.97-6.38-4.69-3.85 3-8.64 4.69-13.8 4.69-13.24 0-23.19-10.98-23.19-24.88Zm36.8 0c0-7.23-5.16-12.67-11.73-12.67S79.7 63.34 79.7 70.57s5.16 12.67 11.83 12.67 11.73-5.35 11.73-12.67Zm24.4-1.13c0-14.55 10.14-23.75 22.81-23.75 3.38 0 6.1 2.72 6.1 6.1s-2.72 6.1-6.1 6.1c-5.35 0-9.67 3.75-9.67 11.55v19.43c0 3.66-2.91 6.57-6.57 6.57s-6.57-2.91-6.57-6.57V69.44Zm32.2 1.13c0-13.89 9.95-24.88 23.19-24.88 5.07 0 9.76 1.69 13.61 4.51V34.43c0-3.66 2.91-6.57 6.57-6.57s6.57 2.91 6.57 6.57v54.45a6.53 6.53 0 0 1-6.57 6.57c-3 0-5.54-1.97-6.38-4.69-3.85 3-8.64 4.69-13.8 4.69-13.24 0-23.19-10.98-23.19-24.88Zm36.8 0c0-7.23-5.16-12.67-11.73-12.67s-11.83 5.44-11.83 12.67 5.16 12.67 11.83 12.67 11.73-5.35 11.73-12.67Zm24.4-35.67c0-3.85 3.19-7.04 7.04-7.04s7.04 3.19 7.04 7.04v46.47h16.99c3.66 0 6.57 2.91 6.57 6.57s-2.91 6.57-6.57 6.57H228.1c-3.85 0-7.04-3.19-7.04-7.04V34.9Zm40.93 35.67c0-13.89 10.51-24.88 25.06-24.88s25.06 10.98 25.06 24.88-10.51 24.88-25.06 24.88-25.06-10.98-25.06-24.88Zm36.8 0c0-6.85-4.88-12.67-11.73-12.67s-11.83 5.82-11.83 12.67 4.97 12.67 11.83 12.67 11.73-5.82 11.73-12.67Zm20.83 0c0-13.89 9.95-24.88 23.19-24.88 5.16 0 9.95 1.78 13.8 4.69a6.672 6.672 0 0 1 6.38-4.69 6.53 6.53 0 0 1 6.57 6.57v36.61a6.53 6.53 0 0 1-6.57 6.57c-3 0-5.54-1.97-6.38-4.69-3.85 3-8.64 4.69-13.8 4.69-13.24 0-23.19-10.98-23.19-24.88Zm36.8 0c0-7.23-5.16-12.67-11.73-12.67s-11.83 5.44-11.83 12.67 5.16 12.67 11.83 12.67 11.73-5.35 11.73-12.67Zm24.41-2.82c0-13.24 9.48-22.06 21.59-22.06s21.59 8.82 21.59 22.06v21.12c0 3.66-2.91 6.57-6.57 6.57s-6.57-2.91-6.57-6.57V67.28c0-6.1-3.76-9.39-8.45-9.39s-8.45 3.29-8.45 9.39v21.59c0 3.66-2.91 6.57-6.57 6.57s-6.57-2.91-6.57-6.57V67.75Z" style="fill:#0e95cc"/><path d="M115.47 128.06c0-3.63 2.8-6.51 6.43-6.51 2.06 0 3.96.99 4.95 2.23l22.84 27.29v-23.34c0-3.38 2.8-6.18 6.18-6.18s6.18 2.8 6.18 6.18v47c0 3.38-2.8 6.18-6.18 6.18s-6.18-2.8-6.18-6.18v-4.45l-21.85-26.06v30.51c0 3.38-2.8 6.18-6.18 6.18s-6.18-2.8-6.18-6.18v-46.67Zm56.08 31c0-12.21 9.23-21.85 22.02-21.85 6.76 0 11.87 2.8 14.18 4.95 1.32 1.15 2.06 2.8 2.06 4.45 0 1.4-.41 2.64-1.57 4.04l-10.64 12.7c-1.15 1.32-2.39 1.9-3.96 1.9-3.13 0-5.53-2.23-5.53-5.28 0-1.24.33-2.47 1.24-3.46l7.09-8.16c-.58-.25-1.98-.41-2.89-.41-5.85 0-10.39 4.95-10.39 11.13s4.45 11.13 10.39 11.13c3.05 0 5.11-1.24 6.51-2.39 1.65-1.4 2.8-2.64 5.03-2.64 3.22 0 5.69 2.31 5.69 5.52 0 1.15-.58 2.56-1.65 3.79-2.8 3.38-8.49 6.43-15.58 6.43-12.7 0-22.02-9.56-22.02-21.85Zm47.08 16.08v-32.16c0-3.22 2.56-5.77 5.77-5.77s5.77 2.56 5.77 5.77v17.56l11.13-13.28v-4.29c0-3.22 2.56-5.77 5.77-5.77s5.77 2.56 5.77 5.77v17.56l17.98-21.44c1.15-1.32 2.39-1.9 3.96-1.9 3.13 0 5.53 2.23 5.53 5.28 0 1.15-.41 2.39-1.24 3.46L251.28 179c-1.16 1.32-2.39 1.9-4.21 1.9-3.22 0-5.77-2.56-5.77-5.77v-11.21l-12.7 15.09c-1.15 1.32-2.39 1.9-4.21 1.9-3.22 0-5.77-2.56-5.77-5.77Zm69.93-9.15c1.48 0 2.56.5 3.46 1.24 1.73 1.4 2.97 3.38 5.61 3.38 1.57 0 2.89-1.32 2.89-2.89 0-2.64-2.89-3.46-6.27-4.62-4.78-1.65-10.64-3.88-10.64-12.78 0-7.17 6.1-13.11 14.02-13.11 7.01 0 14.02 4.04 14.02 8.82 0 2.97-2.39 5.36-5.36 5.36-.99 0-1.73-.25-2.47-.58-2.14-1.07-3.63-3.3-6.18-3.3-1.57 0-2.89 1.32-2.89 2.89 0 2.31 2.97 3.05 6.43 4.21 4.95 1.57 10.88 3.96 10.88 12.7 0 7.42-6.35 13.61-14.43 13.61-7.5 0-14.43-4.62-14.43-9.56 0-2.97 2.39-5.36 5.36-5.36Z" style="fill:#5b5e5d"/><rect x="159.94" width="106" height="10" rx="5" ry="5" style="fill:#0e95cc"/></svg>