<svg id="Layer_2" xmlns="http://www.w3.org/2000/svg" viewBox="0 0 744.29 110.51"><defs><style>.cls-1{fill:#efa90c}.cls-2{fill:#0e95cc}</style></defs><g id="Layer_1-2"><path class="cls-2" d="M0 76.65c0-18.87 14.93-33.79 33.89-33.79 9.86 0 18.4 4.04 24.12 9.95 1.22 1.31 1.88 3.19 1.88 4.79 0 3.85-3.19 6.95-7.04 6.95-1.88 0-3.75-1.03-5.63-2.72-3.47-3.19-7.89-5.35-13.33-5.35-10.79 0-19.34 8.92-19.34 20.18s8.54 20.18 19.34 20.18c5.44 0 9.86-2.16 13.33-5.35 1.88-1.69 3.75-2.72 5.63-2.72 3.85 0 7.04 3.1 7.04 6.95 0 1.6-.66 3.47-1.88 4.79-5.73 5.91-14.27 9.95-24.12 9.95C14.93 110.44 0 95.52 0 76.65Zm66.46 8.92c0-13.89 9.95-24.88 23.19-24.88 5.16 0 9.95 1.78 13.8 4.69a6.672 6.672 0 0 1 6.38-4.69 6.53 6.53 0 0 1 6.57 6.57v36.61a6.53 6.53 0 0 1-6.57 6.57c-3 0-5.54-1.97-6.38-4.69-3.85 3-8.64 4.69-13.8 4.69-13.24 0-23.19-10.98-23.19-24.88Zm36.8 0c0-7.23-5.16-12.67-11.73-12.67S79.7 78.34 79.7 85.57s5.16 12.67 11.83 12.67 11.73-5.35 11.73-12.67Zm24.4-1.13c0-14.55 10.14-23.75 22.81-23.75 3.38 0 6.1 2.72 6.1 6.1s-2.72 6.1-6.1 6.1c-5.35 0-9.67 3.75-9.67 11.55v19.43c0 3.66-2.91 6.57-6.57 6.57s-6.57-2.91-6.57-6.57V84.44Zm32.2 1.13c0-13.89 9.95-24.88 23.19-24.88 5.07 0 9.76 1.69 13.61 4.51V49.43c0-3.66 2.91-6.57 6.57-6.57s6.57 2.91 6.57 6.57v54.45a6.53 6.53 0 0 1-6.57 6.57c-3 0-5.54-1.97-6.38-4.69-3.85 3-8.64 4.69-13.8 4.69-13.24 0-23.19-10.98-23.19-24.88Zm36.8 0c0-7.23-5.16-12.67-11.73-12.67s-11.83 5.44-11.83 12.67 5.16 12.67 11.83 12.67 11.73-5.35 11.73-12.67Zm24.4-35.67c0-3.85 3.19-7.04 7.04-7.04s7.04 3.19 7.04 7.04v46.47h16.99c3.66 0 6.57 2.91 6.57 6.57s-2.91 6.57-6.57 6.57H228.1c-3.85 0-7.04-3.19-7.04-7.04V49.9Zm40.93 35.67c0-13.89 10.51-24.88 25.06-24.88s25.06 10.98 25.06 24.88-10.51 24.88-25.06 24.88-25.06-10.98-25.06-24.88Zm36.8 0c0-6.85-4.88-12.67-11.73-12.67s-11.83 5.82-11.83 12.67 4.97 12.67 11.83 12.67 11.73-5.82 11.73-12.67Zm20.83 0c0-13.89 9.95-24.88 23.19-24.88 5.16 0 9.95 1.78 13.8 4.69a6.672 6.672 0 0 1 6.38-4.69 6.53 6.53 0 0 1 6.57 6.57v36.61a6.53 6.53 0 0 1-6.57 6.57c-3 0-5.54-1.97-6.38-4.69-3.85 3-8.64 4.69-13.8 4.69-13.24 0-23.19-10.98-23.19-24.88Zm36.8 0c0-7.23-5.16-12.67-11.73-12.67s-11.83 5.44-11.83 12.67 5.16 12.67 11.83 12.67 11.73-5.35 11.73-12.67Zm24.41-2.82c0-13.24 9.48-22.06 21.59-22.06s21.59 8.82 21.59 22.06v21.12c0 3.66-2.91 6.57-6.57 6.57s-6.57-2.91-6.57-6.57V82.28c0-6.1-3.75-9.39-8.45-9.39s-8.45 3.29-8.45 9.39v21.59c0 3.66-2.91 6.57-6.57 6.57s-6.57-2.91-6.57-6.57V82.75Z"/><path class="cls-1" d="M512.27 48.13c0-4.28 3.31-7.69 7.59-7.69 2.43 0 4.67 1.17 5.84 2.63l26.96 32.21V47.74c0-3.99 3.31-7.3 7.3-7.3s7.3 3.31 7.3 7.3v55.47c0 3.99-3.31 7.3-7.3 7.3s-7.3-3.31-7.3-7.3v-5.25l-25.79-30.75v36.01c0 3.99-3.31 7.3-7.3 7.3s-7.3-3.31-7.3-7.3V48.13Zm66.18 36.59c0-14.4 10.9-25.79 25.98-25.79 7.98 0 14.01 3.31 16.74 5.84 1.56 1.36 2.43 3.31 2.43 5.26 0 1.65-.49 3.11-1.85 4.77L609.2 89.79c-1.36 1.56-2.82 2.24-4.67 2.24-3.7 0-6.52-2.63-6.52-6.23 0-1.46.39-2.92 1.46-4.09l8.37-9.63c-.68-.29-2.33-.49-3.41-.49-6.91 0-12.26 5.84-12.26 13.14s5.25 13.14 12.26 13.14c3.6 0 6.03-1.46 7.69-2.82 1.95-1.65 3.31-3.11 5.94-3.11 3.8 0 6.72 2.73 6.72 6.52 0 1.36-.68 3.02-1.95 4.48-3.31 3.99-10.02 7.59-18.39 7.59-14.99 0-25.98-11.29-25.98-25.79Zm55.57 18.98V65.74c0-3.8 3.02-6.81 6.81-6.81s6.81 3.02 6.81 6.81v20.73l13.14-15.67v-5.06c0-3.8 3.02-6.81 6.81-6.81s6.81 3.02 6.81 6.81v20.73l21.22-25.3c1.36-1.56 2.82-2.24 4.67-2.24 3.7 0 6.52 2.63 6.52 6.23 0 1.36-.49 2.82-1.46 4.09l-32.8 39.03c-1.36 1.56-2.82 2.24-4.96 2.24-3.8 0-6.81-3.02-6.81-6.81V90.47l-14.99 17.81c-1.36 1.56-2.82 2.24-4.96 2.24-3.79 0-6.81-3.02-6.81-6.81Zm82.53-10.8c1.75 0 3.02.58 4.09 1.46 2.04 1.65 3.5 3.99 6.62 3.99 1.85 0 3.41-1.56 3.41-3.41 0-3.11-3.41-4.09-7.4-5.45-5.64-1.95-12.55-4.57-12.55-15.08 0-8.47 7.2-15.47 16.54-15.47 8.27 0 16.54 4.77 16.54 10.41 0 3.5-2.82 6.33-6.33 6.33-1.17 0-2.04-.29-2.92-.68-2.53-1.27-4.28-3.89-7.3-3.89-1.85 0-3.41 1.56-3.41 3.41 0 2.72 3.5 3.6 7.59 4.96 5.84 1.85 12.85 4.67 12.85 14.99 0 8.76-7.49 16.06-17.03 16.06-8.86 0-17.03-5.45-17.03-11.29 0-3.5 2.82-6.33 6.33-6.33Z"/><path class="cls-2" d="M23.2 7.15c-.05.17-.17.33-.33.44-.39 8.39-1.21 13.39-2.29 15.1-.97 1.52-2.43 2.21-4.17 2.21-1.3 0-2.95-.17-4.8-.55.03-.94-.11-2.51-.25-3.48 1.68.39 3.67.63 4.36.63.83 0 1.41-.22 1.85-1.1.63-1.27 1.3-5.38 1.52-10.63H12.3C11 15.43 8.74 20.81 3.66 24.95c-.63-.61-1.96-1.6-2.84-2.13C5.4 19.29 7.58 14.54 8.6 9.76H1.89V6.5h7.37c.28-1.9.33-3.45.44-5.58l4.53.39c-.06.3-.33.52-.83.61-.17 1.74-.22 2.98-.47 4.61H20l.66-.28 2.54.88Zm3.9 3.64h23.05v3.48H28.26c-.17.28-.55.47-.94.52l-.22-4Zm42.93 5.55c-2.29-1.33-5.91-3.04-8.64-4.14v12.83h-3.7V.77l4.53.22c-.03.33-.25.61-.83.69v7.87l.69-.94c3.04 1.08 7.18 2.9 9.91 4.33l-1.96 3.4ZM67.82 2.46c1.05.88 2.57 2.51 3.45 3.75l-1.6 1.35c-.72-1.05-2.29-2.87-3.37-3.81l1.52-1.3ZM71.6 0c1.16.99 2.68 2.51 3.45 3.67L73.45 5c-.69-1.02-2.26-2.79-3.37-3.73L71.6 0Zm25.93 4.44v18.61H94v-1.57H81.22v1.63h-3.45V4.44h19.76Zm-3.56 13.8V7.67H81.22v10.57h12.75Zm8.23-7.45h23.05v3.48h-21.89c-.17.28-.55.47-.94.52l-.22-4Zm28-8.2c2.76.86 6.07 2.32 8.09 3.64l-1.82 3.15c-1.99-1.33-5.24-2.84-7.89-3.78l1.63-3.01Zm-.94 18.69c9.3-2.87 15.71-8.28 18.91-15.87 1.02.83 2.21 1.49 3.23 2.04-3.42 7.54-10.02 13.42-19.16 16.64-.06.3-.22.61-.47.72l-2.51-3.53Zm47.37-2.37v3.34h-22.97v-3.34h22.97Zm-2.76-14.38v3.34h-17.36V4.53h17.36Zm24.55 15.79v2.73h-18.88v-2.73h10.71c.41-2.51.97-6.79 1.24-9.27h-9.88V8.32h10.79l.53-.17 2.24.99c-.08.19-.25.33-.44.41-.36 2.62-1.19 8.12-1.6 10.77h5.3Zm3.46-9.53h23.05v3.48h-21.89c-.17.28-.55.47-.94.52l-.22-4Zm44.86-6.9c-.08.22-.28.39-.5.47-1.55 3.56-2.98 6.13-5.16 9.14 2.71 2.21 6.76 5.88 9.22 8.5l-3.06 2.71c-2.15-2.57-6.1-6.51-8.42-8.47-2.59 2.93-6.18 6.29-9.77 8.45-.55-.75-1.77-2.01-2.57-2.65 6.87-3.73 12.48-10.35 14.96-16.12h-12.45V2.59h14.44l.58-.19 2.73 1.49Z"/><rect class="cls-2" x="465.63" y="42" width="26.47" height="30" rx="9.17" ry="9.17"/><rect class="cls-1" x="442.13" y="80.5" width="26.47" height="30" rx="9.17" ry="9.17"/></g></svg>