<svg width="130" height="75" fill="none" xmlns="http://www.w3.org/2000/svg"><path d="M39.625 45c-1.34 0-2.228.027-2.666.082V26.734c.219.055.67.082 1.353.082.693 0 1.495-.018 2.407-.054v14.957h2.83c.82 0 1.476-.028 1.969-.082-.064 2.133-.096 3.24-.096 3.322v.137c-.893-.064-2.393-.096-4.498-.096h-1.299Zm7.656-7.068c0-1.003.169-1.96.506-2.872a7.202 7.202 0 0 1 1.477-2.406c1.394-1.476 3.203-2.215 5.427-2.215 2.215 0 3.974.698 5.278 2.092 1.248 1.331 1.873 3.058 1.873 5.182 0 2.124-.643 3.883-1.928 5.277-1.358 1.477-3.158 2.215-5.4 2.215-2.315 0-4.13-.724-5.442-2.174-1.194-1.321-1.79-3.021-1.79-5.1Zm3.322-.082c0 .574.096 1.13.288 1.668.191.537.465.998.82 1.38.756.83 1.75 1.245 2.98 1.245 1.14 0 2.037-.406 2.694-1.217.638-.784.957-1.805.957-3.063 0-1.276-.328-2.306-.985-3.09-.701-.838-1.663-1.257-2.884-1.257-1.24 0-2.21.446-2.913 1.34-.638.82-.957 1.818-.957 2.994ZM68.46 41.2c-.337.446-.506.801-.506 1.066 0 .255.041.455.123.601.082.137.26.27.533.397.602.282 1.59.533 2.967.752 1.377.21 2.452.474 3.227.793.784.319 1.417.71 1.9 1.175.903.884 1.354 2.138 1.354 3.76 0 1.623-.57 2.867-1.71 3.733-1.139.875-2.83 1.312-5.072 1.312-2.26 0-4.083-.492-5.468-1.477-1.386-.984-2.097-2.292-2.133-3.923-.055-1.896.688-3.268 2.228-4.116-.419-.346-.701-.752-.847-1.216a5.825 5.825 0 0 1-.205-1.614c0-1.011.442-1.868 1.326-2.57-1.03-.975-1.545-2.188-1.545-3.637 0-1.622.583-2.98 1.75-4.074 1.23-1.148 2.825-1.723 4.785-1.723 1.03 0 1.996.192 2.898.575 1.185-.502 2.056-.94 2.612-1.313.556-.383.911-.66 1.066-.834l.082.014c.082.219.178.529.287.93l.246.984c.22.811.351 1.367.397 1.668-.401.437-1.108.747-2.12.93.393.756.589 1.558.589 2.406 0 .848-.146 1.618-.438 2.31a5.472 5.472 0 0 1-1.244 1.805c-1.194 1.121-2.716 1.682-4.566 1.682a7.725 7.725 0 0 1-2.516-.397Zm-.356-6.153a2.74 2.74 0 0 0-.19.998c0 .337.068.66.204.97.146.31.356.588.63.835.61.547 1.407.82 2.392.82.747 0 1.394-.25 1.941-.752.574-.547.861-1.203.861-1.969 0-.774-.26-1.399-.779-1.873-.52-.474-1.235-.71-2.146-.71-1.504 0-2.475.56-2.913 1.68Zm3.35 16.844c2.242 0 3.363-.784 3.363-2.352 0-.747-.364-1.349-1.093-1.805-.82-.52-2.229-.925-4.225-1.216l-.71-.123c-.602.319-1.044.729-1.327 1.23-.283.501-.424.975-.424 1.422.01.456.119.848.328 1.176.21.328.502.615.875.861.83.538 1.9.807 3.213.807Zm8.531-13.96c0-1.002.169-1.959.506-2.87a7.202 7.202 0 0 1 1.477-2.407c1.394-1.476 3.204-2.215 5.427-2.215 2.215 0 3.974.698 5.278 2.092 1.249 1.331 1.873 3.058 1.873 5.182 0 2.124-.643 3.883-1.928 5.277-1.358 1.477-3.158 2.215-5.4 2.215-2.315 0-4.13-.724-5.442-2.174-1.194-1.321-1.79-3.021-1.79-5.1Zm3.323-.081c0 .574.095 1.13.287 1.668.191.537.465.998.82 1.38.757.83 1.75 1.245 2.98 1.245 1.14 0 2.038-.406 2.694-1.217.638-.784.957-1.805.957-3.063 0-1.276-.328-2.306-.984-3.09-.702-.838-1.664-1.257-2.885-1.257-1.24 0-2.21.446-2.912 1.34-.638.82-.957 1.818-.957 2.994Z" fill="#474D41"/></svg>