<svg id="Layer_2" xmlns="http://www.w3.org/2000/svg" viewBox="0 0 1298 333"><defs><style>.cls-7{fill:#ffedd8}.cls-11{fill:#4d4d4d}</style></defs><g id="Layer_1-2"><path d="M529.64 0h229.37c31.63 0 57.32 25.68 57.32 57.32V181H472.32V57.32C472.32 25.69 498 0 529.64 0Z" style="fill:#f2f2f2"/><path style="fill:#1baddb" d="M1297.57 38v13l-649.5 90L0 51.2V246l642.33 87L1298 246V38h-.43z"/><path class="cls-11" d="M520.81 73.52c6.56 4.26 13.19 5.82 16.1 5.82 2.03 0 2.5-.81 2.5-1.62 0-.95-.61-1.35-1.49-1.56-2.37-.61-9.2-1.35-14.21-5.75-2.57-2.3-4.33-5.48-4.33-10.22 0-9.81 7.58-16.51 19.96-16.51 5.95 0 12.99 1.56 17.46 3.86v16.04c-6.36-3.18-12.31-4.33-14.82-4.33-1.96 0-2.5.74-2.5 1.49 0 1.01.74 1.42 1.56 1.69 2.03.61 8.8 1.42 13.6 5.21 3.31 2.71 4.94 6.16 4.94 10.55 0 9.4-7.58 15.97-20.43 15.97-6.16 0-13.53-1.49-18.33-3.99V73.53Zm53.78-12.45h-13.67V44.43h47.5v16.64h-13.67v32.34h-20.16V61.07Zm39.1-16.64h35.25V60.8h-15.09v2.64h12.18v11.64h-12.18v2.77h16.04v15.56h-36.2V44.43Zm41.2 0h18.54c11.77 0 24.97 3.38 24.97 17.39 0 12.58-10.55 17.66-22.67 17.66h-.68v13.94h-20.16V44.43Zm20.7 22.6c3.45 0 5.08-1.83 5.08-4.13s-1.69-4.13-5.08-4.13h-.54v8.25h.54Zm29.37 6.29c5.95 0 10.42 4.67 10.42 10.42s-4.47 10.42-10.42 10.42-10.42-4.67-10.42-10.42 4.47-10.42 10.42-10.42Z"/><path d="M730.56 93.66c-2.21 0-3.18-.97-3.18-3.18v-15.2c0-13.69 5.74-16.88 13.87-19.35l11.84-3.71c1.86-.53 2.39-1.24 2.39-3.18 0-1.77-.62-2.3-2.39-2.3h-19.17c-2.21 0-3.18-.97-3.18-3.18V33.22c0-2.21.97-3.18 3.18-3.18h26.06c10.07 0 15.55 5.12 15.55 14.67v8.3c0 8.92-5.21 12.99-13.78 15.64l-12.02 3.8c-1.77.53-2.3.71-2.3 2.65v1.85h25.18c2.21 0 3.18.97 3.18 3.18v10.34c0 2.21-.97 3.18-3.18 3.18h-42.05Z" style="fill:#efa90c"/><path class="cls-7" d="M165.19 266.91s2.69-14.53 9.04-21.64c9.62-10.76 33.2-16.6 47.97-43.28l-78.95-40.39s-.15-16.56-.15-37.86c0-18.17-6.56-23.46-11.14-23.51-3.02-.04-4.58 1.6-5.39 3.16-.61 1.17-.84 2.49-.77 3.81.26 4.65.43 8.24.84 13.95 1.01 14.09-5.98 39.04-7.15 50.91-.85 8.58-3.02 21.38-.79 42.9 1.53 14.75-5.26 28.85-5.26 28.85l51.74 23.1Z"/><path class="cls-11" d="M165.19 269.1c-.3 0-.61-.06-.9-.19l-51.74-23.09c-.54-.24-.96-.69-1.17-1.25-.2-.56-.17-1.17.08-1.71.06-.13 6.5-13.74 5.05-27.67-1.95-18.8-.6-30.81.38-39.58.15-1.33.29-2.59.41-3.76.43-4.34 1.62-10.4 2.88-16.82 2.3-11.69 4.9-24.95 4.27-33.72-.33-4.58-.51-7.83-.69-11.28-.05-.88-.1-1.77-.15-2.71-.1-1.76.25-3.47 1.01-4.94 1.47-2.84 4.09-4.39 7.36-4.34 3.48.04 6.81 2.23 9.13 6.01 2.77 4.51 4.18 11.14 4.18 19.7 0 17.63.11 32.16.14 36.51l77.77 39.78c.53.27.93.74 1.1 1.31.17.57.11 1.18-.18 1.7-9.99 18.04-23.78 26.74-34.86 33.72-5.53 3.49-10.31 6.5-13.4 9.96-5.87 6.57-8.5 20.44-8.52 20.58-.12.66-.54 1.23-1.14 1.54-.32.17-.67.25-1.02.25Zm-48.86-26.41 47.29 21.11c1.13-4.7 3.95-14.37 8.98-20 3.5-3.91 8.52-7.08 14.33-10.74 10.24-6.45 22.88-14.42 32.23-30.16l-76.9-39.34a2.199 2.199 0 0 1-1.2-1.93c0-.17-.15-16.82-.15-37.88 0-16.74-5.64-21.27-8.97-21.31-1.62 0-2.71.61-3.41 1.97-.4.77-.58 1.7-.53 2.68.05.94.1 1.84.15 2.72.19 3.43.36 6.66.69 11.2.67 9.36-1.99 22.92-4.34 34.88-1.24 6.31-2.41 12.27-2.82 16.4-.12 1.19-.26 2.47-.41 3.82-.96 8.57-2.28 20.31-.38 38.64 1.25 12-2.7 23.4-4.56 27.96Z"/><rect x="123.02" y="228.76" width="24.73" height="67.3" rx="3.42" ry="3.42" transform="rotate(-68 135.397 262.414)" style="fill:#00648d"/><path class="cls-11" d="M160.06 287.64c-.71 0-1.42-.14-2.1-.41l-56.06-22.65a5.593 5.593 0 0 1-3.07-3.01c-.59-1.38-.6-2.91-.04-4.3l6.7-16.59a5.593 5.593 0 0 1 3.01-3.07c1.38-.59 2.91-.6 4.3-.04l56.06 22.64a5.621 5.621 0 0 1 3.1 7.31l-6.7 16.59a5.593 5.593 0 0 1-3.01 3.07c-.71.3-1.45.45-2.19.45Zm-49.36-46.08c-.16 0-.32.03-.48.1-.3.13-.53.37-.66.67l-6.7 16.59c-.12.3-.12.64 0 .94.13.3.37.53.67.66l56.06 22.65c.3.12.64.12.94 0 .3-.13.53-.37.66-.67l6.7-16.59c.25-.63-.05-1.34-.68-1.6l-56.06-22.64c-.15-.06-.3-.09-.46-.09Z"/><path d="M155.63 54.29h64.95c6.37 0 11.54 5.17 11.54 11.54v146.55c0 6.37-5.17 11.54-11.54 11.54h-64.95c-6.37 0-11.54-5.17-11.54-11.54V65.83c0-6.37 5.17-11.54 11.54-11.54Z" style="fill:#ebebeb"/><path d="M232.11 65.83v146.55c0 6.36-5.18 11.54-11.54 11.54h-64.95c-2.98 0-5.7-1.13-7.74-2.99L228.5 57.45c2.22 2.1 3.61 5.08 3.61 8.38Z" style="opacity:.7;fill:#fff"/><path d="M220.57 51.18h-64.95c-8.06 0-14.65 6.59-14.65 14.65v146.55c0 8.06 6.59 14.65 14.65 14.65h64.95c8.06 0 14.65-6.59 14.65-14.65V65.83c0-8.06-6.59-14.65-14.65-14.65Zm9.67 161.2c0 5.34-4.33 9.67-9.67 9.67h-64.95c-5.34 0-9.67-4.33-9.67-9.67V65.83c0-5.34 4.33-9.67 9.67-9.67h8.01c.78 0 1.41.63 1.41 1.41 0 3.14 2.57 5.71 5.71 5.71h34.69c3.14 0 5.71-2.57 5.71-5.71 0-.78.63-1.41 1.41-1.41h8.01c5.34 0 9.67 4.33 9.67 9.67v146.55Z" style="fill:#666"/><path class="cls-7" d="M243.57 191.14c3.6-2.55 5.42-8.49 3.31-12.84-.78-1.6-1.8-2.81-3.08-3.57 3.93-2.94 4.97-9.27 2.56-14.03-1.15-2.27-2.62-3.62-4.59-4.28 3.56-3.08 3.76-8.73 1.42-13.29-2.44-4.76-7.61-6.22-11.54-3.27l-11.71 10.07c-3.98 3.88-5.03 8.51-2.55 13.25 1.22 2.33 3.05 2.84 5.1 3.46-2.54 3.24-5.21 7.06-3.12 11.82 1.37 3.1 4.82 4.41 6.66 5.12-1.49 2.8-2.67 5.04-1.39 8.48.98 2.65 2.81 3.78 5.06 4.04.65.08 1.3.04 1.94-.09 2-.39 7.22-1.66 11.94-4.87Z"/><path class="cls-11" d="M230.36 198.33c-.31 0-.62-.02-.93-.05-3.31-.38-5.68-2.27-6.86-5.46-1.23-3.33-.61-5.85.43-8.14-2.01-.97-4.44-2.58-5.65-5.34-2.09-4.74-.35-8.72 1.61-11.64-1.31-.65-2.57-1.66-3.53-3.49-2.9-5.53-1.85-11.16 2.96-15.84.03-.03.07-.06.1-.09l11.71-10.07.12-.09c2.32-1.74 5.09-2.35 7.8-1.72 2.93.68 5.48 2.77 7.01 5.75 2.42 4.73 2.35 9.94.04 13.65 1.25.96 2.29 2.26 3.14 3.93 2.51 4.96 1.88 11.01-1.26 14.9.69.77 1.29 1.68 1.8 2.73 2.49 5.14.66 12.28-4.01 15.59-.01 0-.02.02-.04.02-5.05 3.44-10.6 4.79-12.76 5.21-.57.11-1.13.17-1.69.17Zm-8.95-46.78c-3.35 3.29-4.05 6.86-2.09 10.61.74 1.41 1.65 1.73 3.66 2.33l.13.04c.7.21 1.24.75 1.46 1.44.22.69.08 1.45-.36 2.02-2.47 3.15-4.39 6.05-2.84 9.58.98 2.23 3.73 3.29 5.37 3.93l.07.03c.59.23 1.05.69 1.26 1.28.22.59.18 1.24-.12 1.8-1.53 2.88-2.17 4.25-1.27 6.69.61 1.64 1.58 2.43 3.25 2.62.4.05.82.03 1.26-.06 1.88-.37 6.74-1.55 11.11-4.52 2.62-1.87 4.29-6.57 2.59-10.08-.6-1.23-1.35-2.12-2.22-2.64a2.201 2.201 0 0 1-.19-3.65c3-2.24 3.87-7.41 1.91-11.28-.87-1.72-1.9-2.71-3.33-3.19-.75-.25-1.3-.89-1.45-1.66-.15-.77.12-1.57.72-2.08 2.89-2.5 2.64-7.24.9-10.63-.93-1.82-2.43-3.09-4.09-3.48-1.43-.33-2.86-.01-4.13.92l-11.6 9.97Zm22.16 39.59Zm-21.09-24.51 19.28-10.2"/><path class="cls-11" d="M222.48 168.83c-.79 0-1.55-.42-1.94-1.17-.57-1.07-.16-2.4.91-2.97l19.28-10.21a2.197 2.197 0 0 1 2.06 3.88l-19.28 10.21c-.33.17-.68.26-1.03.26Zm3.54 14.74 17.78-8.83m-17.77 11.03c-.81 0-1.58-.45-1.97-1.22-.54-1.09-.1-2.4.99-2.94l17.77-8.83c1.09-.54 2.4-.1 2.94.99s.1 2.4-.99 2.94L227 185.54c-.31.16-.65.23-.98.23Z"/><path d="M184.27 137.53c0 9.3-5.67 15.47-14.24 15.47s-14.21-6.03-14.21-15.37 5.57-15.26 14.24-15.26 14.21 5.92 14.21 15.16Zm-7.33.07c0-5.71-2.61-9.17-6.87-9.17s-6.94 3.49-6.94 9.17 2.64 9.3 6.94 9.3 6.87-3.52 6.87-9.3Zm38.45 9.52c2.08 3.1 2.54 3.74 3.74 5.22h-9.17c-.49-1.13-1.52-3-2.43-4.48l-5.46-8.74-3.56 3.56v4.44c0 2.19.07 3.35.28 5.22h-7.47c.21-1.8.28-3.1.28-5.22v-18.89c0-2.15-.07-3.53-.28-5.22h7.47c-.21 1.83-.28 3-.28 5.22v6.24l7.01-7.51c1.37-1.44 2.29-2.64 3.07-3.95h9.52c-.63.63-.88.92-1.38 1.41l-2.47 2.47-7.37 7.72 8.5 12.51Z" style="fill:#dd4a3a"/><path d="M366.7 193.09c.23-3 .39-7.47.39-9.86 0-1.62 0-2.23-.23-3.85l14.48.38c-.39 1.77-.39 2-.85 9.32q-.08 2.08-.23 3.93h16.79c2.54 0 3.47-.15 5.16-.85l6.01 5.24c-.85 1.54-1 2.16-1.08 5.7-.54 16.48-1.69 29.34-3.24 34.42-2.23 7.16-5.93 9.63-14.48 9.63-3 0-4.16-.08-10.09-.62-.31-6.16-.85-8.7-2.62-13.55 3.85 1 7.62 1.54 10.01 1.54 3.7 0 4.62-1.23 5.62-7.93.77-5.16 1.46-14.86 1.46-21.49h-14.71q-.62 5.08-1.16 7.7c-3.39 15.56-10.71 25.57-26.34 35.89-3.47-5.47-5.78-8.09-10.01-11.71 10.24-5.39 16.17-10.86 20.02-18.64 1.92-3.93 2.77-6.7 3.85-13.17h-9.63c-5.16 0-6.78.08-10.4.46l-.08-13.17c3.85.54 5.24.62 10.71.62h10.63Zm58.69 13.32c3.62.54 7.78.69 15.79.69h36.81c7.7 0 10.63-.15 15.79-.69v14.86c-3.7-.38-7.08-.46-15.86-.46h-36.66c-8.62 0-11.17.08-15.86.46v-14.86Zm91.95 41.36c.31-3.23.39-5.47.46-11.78v-44.82c-.08-6.62-.08-7.01-.54-11.17h14.86c-.31 2-.31 3.24-.38 11.24v10.55c12.17 3.93 24.26 9.4 35.04 16.02l-7.32 13.09c-6.39-4.54-15.33-9.47-24.26-13.4-2.31-.92-2.54-1-2.77-1.16-.23-.08-.39-.15-.69-.38v20.02c0 5.7.15 9.78.46 11.78h-14.86Zm34.81-63.46c3 3.39 5.47 6.93 7.62 11.01l-7.32 3.54c-2.54-4.85-4.54-7.7-7.62-11.24l7.32-3.31Zm10.24-4.62c2.85 3.08 5.01 6.01 7.7 10.7l-7.08 3.47c-2.7-4.85-4.85-7.93-7.55-11.01l6.93-3.16Zm43.75 1.93c-.38 2.93-.46 4.93-.54 9.47l-.46 40.82c15.56-3.47 27.11-12.25 34.12-26.18 3.54 5.08 5.93 7.7 10.4 11.09-11.17 17.25-25.41 26.18-48.13 30.11-2.85.54-3.31.62-4.62 1.39l-6.85-8.01c.77-1.62.85-2.46.92-6.31l.31-42.82v-1.23c0-3.62-.15-6.08-.46-8.39l15.33.08Zm110.82 66.46c-6.7-8.47-13.48-15.17-22.1-21.87-7.24 8.55-16.4 15.33-28.34 21.1-2.7-5.39-4.31-7.7-8.62-12.17 10.01-3.85 17.94-8.86 24.95-15.56 7.16-6.85 11.86-13.71 15.48-22.64l-20.02.31c-6.62.15-9.09.31-12.25.77l-.38-13.71c3 .38 5.08.54 8.09.54.62 0 2.08 0 4.31-.08l26.34-.39c3.62-.08 4.08-.08 6.16-.85l6.78 6.93c-1.16 1.16-1.62 1.93-2.77 4.54-4.08 9.63-7.01 15.02-11.32 20.79 9.32 6.7 12.48 9.4 24.49 20.87l-10.78 11.4Zm21.67-40.96c.84.05 1.48.05 1.88.05 1.29 0 3.07-.1 8.46-.45 7.12-.45 11.92-.69 21.31-1.04l5.09-.2 2.08-.1c1.68-.05 1.98-.1 2.23-.1.35 0 .54-.05 1.14-.2l.44 8.95c-.69-.1-.89-.1-1.38-.1-3.46 0-7.91 1.33-11.32 3.46-4.95 3.02-7.86 7.17-7.86 11.23 0 2.87 1.33 4.8 4.15 6.13 1.98.99 6.33 1.78 9.45 1.78.4 0 .74 0 1.48-.05l-1.14 9.4c-.69-.15-.84-.15-1.83-.25-5.64-.49-9.35-1.33-12.51-2.77-5.84-2.72-8.85-7.27-8.85-13.55 0-4.1 1.38-7.81 4.2-11.18 1.29-1.58 2.47-2.57 4.85-4.2l-2.32.25c-1.09.1-2.82.25-12.07.99-4.6.49-4.85.49-6.97.94l-.5-9Zm35.06 11.28c1.98 2.28 3.46 4.45 4.8 7.17l-4.75 2.18c-1.53-3.12-2.82-5.04-4.8-7.32l4.75-2.03Zm6.63-2.87c1.78 1.98 3.17 3.91 4.85 6.97l-4.6 2.13c-1.78-3.31-3.02-5.19-4.7-7.12l4.45-1.98Zm40.77 4.82c.39-2 .54-2.77.54-4 0-.08 0-.23-.08-.38-7.08.69-11.78 1.08-19.87 1.62-5.16.31-6.08.38-7.01.46l-1.23-9.93c1.31.15 2.7.23 3.47.23.08 0 3.39-.08 10.01-.31l-.15-3.7h-4.24c-3.08 0-4.39.08-6.31.23v-9.17c1.69.15 3.08.23 6.78.23h3.47l-.08-3h-5.7c-3.23 0-4.31.08-6.39.23v-9.78c2.16.23 3.62.31 6.47.31h5.24l-.08-1.46c0-1.08-.15-2.54-.38-3.54l11.78-.15c-.08.77-.15 1.77-.15 2.93v.62l.08 1.62h4.31c2.46 0 4.16-.08 5.93-.31v9.78c-1.69-.15-2.93-.23-5.93-.23h-4l.15 3h2.77c2.77 0 3.54 0 5.08-.15v9.01c-1.69-.15-2.54-.15-5.31-.15h-2.23l.15 3.16c1.54-.08 4.24-.23 8.01-.62 5.31-3.23 7.62-7.93 7.93-15.94-2.39 0-3.54.08-5.08.23V180.1c2.39.31 6.31.46 9.78.46h15.48c3.39 0 6.08-.08 8.24-.38-.23 1.77-.23 2.46-.39 6.32-.31 12.55-1 20.25-2.16 23.72-1.69 5.24-4.24 6.55-12.94 6.55-1.31 0-2.23 0-4.85-.15-.08-3.23-.54-5.24-1.77-8.7-2 3.08-3.7 5.08-6.31 7.39q-.23 1.23-.39 2.16c-.15.92-.31 1.77-.54 2.93h18.64c5.08 0 8.78-.15 11.01-.46v11.17c-2.62-.31-6.16-.46-10.63-.46h-14.17c4.7 4.7 13.71 7.32 27.03 7.86-2.46 4.16-3.77 7.24-4.93 11.55-8.09-.92-12.48-1.93-17.64-4.24-6.62-2.93-10.55-6.08-14.79-11.63-3 4.24-6.47 7.32-10.86 9.78-5.7 3.16-11.01 4.77-20.18 6.08-1.31-4.16-2.54-6.93-5.24-11.32 6.47-.38 10.17-.92 13.79-2.08 4.39-1.31 7.7-3.16 10.63-6.01h-11.32c-4.7 0-8.55.15-11.09.46v-11.09c2.54.23 6.01.39 11.09.39h16.56Zm10.63-5.24c-1.93-2.7-3.16-4.16-5.24-6.24l-.08 6.24h5.31Zm13.48-24.18c-.46 6.32-1.54 10.63-3.77 15.17 2.31.31 4 .46 5.24.46 1.85 0 2.7-.77 3.16-2.93s.69-6.01.85-12.71h-5.47Zm42.2 32.04c-.23 11.4-.77 16.17-2.7 23.72l-8.32-4c1.77-5.93 2.62-12.17 2.7-20.72l8.32 1Zm-10.09-13.48c1.39.23 2.46.31 4.85.31.69 0 1.15 0 2.08-.08q1.39-1.69 2.54-3.23c-3.85-5.39-5.01-6.7-9.86-11.63l5.24-9.55 2.16 2.46c2-3.16 4.39-8.24 5-10.63l9.93 3.7c-.46.69-.69 1.16-1.46 2.7-1.69 3.31-4.77 8.55-6.93 11.63.77 1 .85 1 2 2.46 3.77-5.85 6.47-10.4 7.47-12.71l9.17 5.01c-.62.85-1.16 1.54-2.77 4-2.93 4.39-8.55 11.94-11.63 15.56 3.16-.15 4.31-.23 6.62-.39-.62-1.85-.92-2.54-1.85-4.93l6.32-2.46c5.31-6.93 9.63-16.56 10.86-24.26l11.71 1.69q-.46 1.16-1.69 5.08c-.23 1-.39 1.31-1.08 3.39h15.71c3.23 0 4.62-.08 6.31-.31q-.38 2.93-.46 15.02c0 9.7-.69 23.03-1.46 29.34-1.08 9.24-2.7 13.71-5.78 15.86-2.16 1.46-6.01 2.16-12.24 2.16-1.69 0-3 0-5.78-.15-.46-4.47-1.08-6.78-2.93-12.01 3.46.46 7.7.85 9.78.85 3.39 0 4.24-.92 5.08-5.54 1.08-5.7 1.62-17.25 1.62-33.81h-14.63c-2.46 4.77-4.08 7.24-7.32 11.09-1.62-2.46-3.08-3.93-6.08-6.55 1.54 3.62 3.16 8.32 4.93 14.71l-8.01 3.16c-.23-1.54-.23-1.69-.54-3-2 .15-3.39.31-4.16.31V242c0 4.39.08 6.01.46 8.55h-11.47c.38-2.46.46-4.08.46-8.55v-22.41c-2.62.15-4.7.23-6.16.31-3.7.23-3.85.23-5.16.54l-.85-10.94Zm32.19 12.4c1.46 7.32 2.31 13.71 2.85 20.95l-9.01 1.23c-.38-8.09-.92-14.32-1.69-20.64l7.86-1.54Zm11.55 8.7c-2.93-10.4-4.16-13.71-7.01-19.41l10.17-4.16c3.7 7.55 5.47 11.94 7.62 19.18l-10.78 4.39Z" style="fill:#fff"/></g></svg>