<svg id="Layer_2" xmlns="http://www.w3.org/2000/svg" viewBox="0 0 1298 339"><defs><style>.cls-4{fill:#fff}.cls-6{fill:#fdecd4}.cls-8{fill:#4d4d4d}</style></defs><g id="Layer_1-2"><path d="M527.01 0h229.37c31.63 0 57.32 25.68 57.32 57.32V181H469.69V57.32C469.69 25.69 495.37 0 527.01 0Z" style="fill:#f2f2f2"/><path style="fill:#1baddb" d="M1297.57 44v13l-649.5 90L0 57.2V252l642.33 87L1298 252V44h-.43z"/><path class="cls-4" d="M394.06 250.67c-6.71-8.49-13.5-15.2-22.15-21.91-7.25 8.56-16.44 15.36-28.4 21.14-2.7-5.4-4.32-7.72-8.64-12.19 10.03-3.86 17.98-8.87 25-15.59 7.18-6.87 11.88-13.74 15.51-22.69l-20.06.31c-6.64.15-9.11.31-12.27.77l-.39-13.74c3.01.39 5.09.54 8.1.54.62 0 2.08 0 4.32-.08l26.39-.39c3.63-.08 4.09-.08 6.17-.85l6.79 6.94c-1.16 1.16-1.62 1.93-2.78 4.55-4.09 9.65-7.02 15.05-11.34 20.83 9.34 6.71 12.5 9.41 24.54 20.91l-10.8 11.42Zm35.73-50.08c-6.41 0-9.11.08-12.5.39V187.4c4.24.46 6.64.62 12.73.62l42.29-.08c2.47 0 3.7-.23 5.32-.77l7.41 8.33c-1.23 1.16-1.62 1.7-3.55 4.94-7.95 13.35-14.28 20.99-24.46 29.55 3.32 3.94 5.48 6.71 9.18 11.73l-11.57 9.03c-4.63-7.56-8.49-12.89-14.89-20.14-6.25-7.18-9.88-10.73-15.51-15.36l10.57-7.41c6.33 5.17 8.87 7.56 13.35 12.27 4.4-3.63 9.26-8.57 12.04-12.19 1.93-2.39 4.01-5.71 4.94-7.48l-35.34.15Zm91.13 12.2c-.23.93-.62 2.93-1.23 6.1-.77 3.86-2.78 10.34-4.63 14.74-1.93 4.63-3.47 7.56-6.64 12.42-5.4-3.32-7.87-4.55-12.73-6.33 5.09-7.02 7.95-13.04 10.34-21.68.93-3.32 1.39-5.48 1.62-8.33l13.27 3.09Zm4.71-22.22c0-3.86-.08-5.32-.46-8.57h14.58c-.23 2.32-.39 5.25-.39 8.72v2.85h14.66c6.17 0 8.64-.15 12.12-.62v13.12c-3.09-.31-5.87-.39-11.88-.39h-14.89v34.03c0 6.33.08 8.57.46 11.42h-14.74c.46-3.55.54-5.32.54-11.57v-33.88h-14.35c-7.18 0-8.41.08-11.65.39v-13.12c3.47.46 5.94.62 11.73.62h14.27v-3.01Zm31.17 18.98c.62 3.01 1.54 6.25 2.85 10.03 2.55 7.48 5.09 12.65 9.65 19.45-7.1 3.55-7.25 3.63-12.73 7.1-5.56-10.03-8.03-16.44-11.42-29.55-.62-2.31-.69-2.62-1.16-3.78l12.81-3.24Zm23.32-1.81c.89.05 1.56.05 1.98.05 1.36 0 3.23-.1 8.92-.47 7.51-.47 12.57-.73 22.48-1.09l5.37-.21 2.19-.1c1.77-.05 2.09-.1 2.35-.1.37 0 .57-.05 1.2-.21l.47 9.44c-.73-.1-.94-.1-1.46-.1-3.65 0-8.34 1.41-11.94 3.65-5.21 3.18-8.29 7.56-8.29 11.84 0 3.03 1.41 5.06 4.38 6.47 2.09 1.04 6.68 1.88 9.96 1.88.42 0 .78 0 1.57-.05l-1.2 9.91c-.73-.16-.89-.16-1.93-.26-5.95-.52-9.86-1.41-13.2-2.92-6.15-2.87-9.33-7.67-9.33-14.29 0-4.33 1.46-8.24 4.43-11.79 1.36-1.67 2.61-2.71 5.11-4.43l-2.45.26c-1.15.1-2.97.26-12.73 1.04-4.85.52-5.11.52-7.35.99l-.52-9.49Zm36.98 11.89c2.09 2.4 3.65 4.69 5.06 7.56l-5.01 2.29c-1.62-3.29-2.97-5.32-5.06-7.72l5.01-2.14Zm6.99-3.02c1.88 2.09 3.34 4.12 5.11 7.35l-4.85 2.24c-1.88-3.49-3.18-5.48-4.96-7.51l4.69-2.09Zm57.93-13.39c-1.16.15-1.39.15-2.93.46-3.01.54-7.87 1.16-11.65 1.54v6.79c4.48-1 7.18-1.31 11.27-1.31 9.49 0 16.59 2.39 21.07 7.02 3.4 3.47 5.25 8.33 5.25 13.66 0 10.88-8.26 19.06-19.21 19.06-9.57 0-15.12-6.4-15.12-17.52v-1.93c5.63-1.62 7.48-2.39 11.73-4.71-.08 1.62-.15 2.47-.15 4.09 0 2.39.15 3.7.62 4.86.54 1.39 1.85 2.31 3.4 2.31 3.32 0 5.56-2.7 5.56-6.64 0-2.62-1.39-5.17-3.78-6.79-2.08-1.31-5.09-2.01-9.18-2.01-3.78 0-6.94.39-11.34 1.54l.08 13.66v2.01c0 4.71-.31 6.4-1.47 8.02-1.47 2.16-4.4 3.4-7.87 3.4-5.71 0-12.27-2.39-16.67-6.1-3.16-2.7-5.02-6.33-5.02-10.03 0-4.17 2.55-8.72 7.18-12.81 3.09-2.7 6.33-4.63 11.5-6.87v-9.11l-5.86.15-7.48-.15c-.23 0-.93 0-1.62.08l-.15-12.12c2.47.46 5.63.7 10.57.7h2.93q1.08-.08 1.54-.08v-2.47c0-5.79-.08-7.56-.54-10.42h13.35c-.39 2.78-.46 4.55-.46 9.65v2.47c5.25-.54 10.03-1.47 14.12-2.62l.39 12.19Zm-26.78 24.46c-3.63 1.7-6.4 4.71-6.4 6.87 0 .93.54 1.7 1.7 2.47 1.08.69 2.55 1.23 3.47 1.23 1 0 1.23-.54 1.23-3.09v-7.49Zm43.13-16.98c-3.94-6.87-8.33-12.12-15.2-18.13l10.19-6.87c6.56 5.32 11.34 10.73 15.2 17.05l-10.19 7.95Zm37.82 22.38v4.01h-12.35c.31-2.39.39-4.71.39-8.72v-31.1c0-3.32-.08-5.25-.31-7.56 2.86.23 4.4.31 8.57.31h17.83v-1c0-4.32-.08-6.25-.46-8.8h12.81c-.39 2.39-.46 4.32-.46 8.26v1.54h18.06c4.48 0 6.4-.08 8.8-.31-.23 2.24-.31 4.24-.31 7.56v31.1c0 4.4.08 6.56.39 8.72h-12.5v-4.01h-14.43v9.34c0 4.86.15 7.64.54 10.42H749.8c.39-3.09.54-5.79.54-10.42v-9.34h-14.12Zm0-32.56v5.94h14.12v-5.94h-14.12Zm0 16.13v5.94h14.12v-5.94h-14.12Zm26-10.19h14.43v-5.94h-14.43v5.94Zm0 16.13h14.43v-5.94h-14.43v5.94Zm63.35 5.63c5.79-4.24 10.19-9.1 13.43-14.82 2.01-3.63 3.78-8.33 4.78-12.81.46-1.93.62-2.86 1.24-7.25h-7.25c-2.7 0-4.48.08-6.56.31v-11.57c1.62.31 3.24.39 6.56.39h14.2c2.55 0 4.01-.08 5.56-.31-.08 1.47-.15 3.09-.15 4.32 0 6.87 1.54 14.04 4.4 20.68 2.01 4.48 4.17 8.03 7.1 11.42 2.86 3.32 4.94 5.09 9.49 8.26-3.16 3.86-4.78 6.56-6.87 11.81-5.02-3.63-8.1-6.64-11.57-11.11-3.4-4.48-5.4-8.26-8.1-15.36-2.39 7.18-4.24 10.96-7.79 15.66-3.01 3.86-5.4 6.33-10.42 10.34-2.55-4.17-4.24-6.17-8.02-9.34v5.56c.62 1.47.93 1.85 2.31 2.93 3.4 2.62 7.1 3.24 18.98 3.24 12.89 0 23.61-.54 32.18-1.7-1.62 4.78-2.16 7.41-2.85 12.58-5.4.23-20.91.46-28.09.46-17.82 0-22.84-1.39-28.71-7.95-2.24 2.24-4.17 3.93-7.95 6.79-.39.23-.46.39-1.54 1.16-.39.31-.54.46-1 .69l-5.02-12.42c2.01-.69 5.71-2.86 10.26-5.86v-14.58h-3.78c-1.7 0-2.78.08-4.78.39V208.4c2.16.31 3.39.39 6.4.39h7.95c2.39 0 4.17-.08 5.94-.31-.23 2.39-.31 4.17-.31 8.72v11.03Zm-11.65-47.53c6.41 5.25 10.49 9.34 14.43 14.28l-8.95 9.03c-4.94-6.33-7.95-9.57-14.27-14.89l8.8-8.41ZM899 184c1.62.31 3.55.39 7.95.39 5.32 0 12.35-.31 15.97-.77 1.54-.15 2.16-.39 3.16-.93l8.33 7.1c-.77 1.08-1 1.54-1.85 3.7-.69 1.7-3.86 11.5-5.09 15.67 5.71 1.16 8.87 2.01 13.2 3.78.54-3.78.62-5.79.62-12.65 0-1.78-.08-2.78-.31-4.4l13.43.46c-.39 1.85-.46 2.62-.54 5.63-.31 7.25-.62 10.73-1.39 15.97q5.32 2.7 8.03 4.17c1.39.77 1.7.93 2.62 1.23l-4.47 14.43c-2.16-1.93-5.17-4.01-9.57-6.48-3.86 9.18-10.26 15.9-19.99 21.22-3.24-4.32-5.71-6.94-9.65-10.03 5.71-2.7 8.33-4.4 11.34-7.25 2.93-2.86 4.86-5.63 6.71-9.8-4.94-2.24-8.1-3.24-13.58-4.4-3.16 9.41-5.71 15.43-7.95 19.06-3.01 4.86-7.1 7.41-11.81 7.41-3.63 0-7.33-1.62-10.03-4.4-3.09-3.16-4.71-7.56-4.71-12.65 0-7.56 3.63-14.12 9.95-18.21 4.09-2.62 8.41-3.78 15.28-4.17 1.39-4.55 2.55-8.49 3.63-12.89-3.39.31-7.64.54-12.81.77-2.78.08-3.7.15-5.94.46l-.54-12.42Zm4.55 40.13c-1.47 1.7-2.16 3.7-2.16 5.86 0 2.39 1.16 4.17 2.62 4.17 1.78 0 3.78-4.01 7.25-14.28-3.63.62-5.79 1.77-7.72 4.24Z"/><path class="cls-6" d="M152.95 293.04s2.41-13 8.09-19.36c8.6-9.63 29.71-14.85 42.92-38.72l-70.64-36.13s-.14-14.82-.14-33.87c0-16.25-5.87-20.99-9.97-21.03-2.7-.03-4.1 1.43-4.82 2.82-.54 1.05-.75 2.23-.69 3.41.23 4.16.39 7.38.75 12.48.91 12.61-5.35 34.93-6.4 45.55-.76 7.68-2.7 19.13-.7 38.38 1.37 13.2-4.71 25.81-4.71 25.81l46.29 20.66Z"/><path class="cls-8" d="M152.96 295a1.958 1.958 0 0 1-1.93-2.32c.1-.55 2.58-13.62 8.56-20.31 3.13-3.5 7.62-6.33 12.82-9.61 9.16-5.77 20.47-12.9 28.83-26.99l-68.8-35.19c-.65-.33-1.06-1-1.07-1.73 0-.15-.14-15.04-.14-33.89 0-8.62-1.72-13.22-3.16-15.56-1.36-2.21-3.13-3.48-4.87-3.5-1.46 0-2.42.54-3.05 1.76-.36.69-.52 1.52-.47 2.4.05.85.09 1.65.13 2.44.17 3.06.33 5.95.62 10.01.6 8.37-1.78 20.51-3.88 31.21-1.11 5.65-2.16 10.98-2.52 14.67-.11 1.07-.23 2.21-.37 3.41-.86 7.67-2.04 18.17-.34 34.57 1.41 13.6-4.63 26.33-4.89 26.87a1.963 1.963 0 1 1-3.54-1.7c.06-.12 5.82-12.29 4.52-24.75-1.75-16.82-.54-27.57.34-35.41.13-1.19.26-2.32.36-3.36.38-3.88 1.45-9.31 2.58-15.05 2.05-10.46 4.38-22.32 3.82-30.17-.29-4.09-.45-7-.62-10.08-.04-.79-.09-1.59-.13-2.44-.09-1.58.22-3.11.9-4.42 1.31-2.54 3.65-3.91 6.59-3.89 3.12.04 6.09 2 8.17 5.37 2.48 4.04 3.74 9.96 3.74 17.62 0 15.77.09 28.77.13 32.66l69.58 35.59c.47.24.83.67.98 1.18.16.51.1 1.06-.16 1.52-8.94 16.14-21.27 23.92-31.19 30.17-4.95 3.12-9.23 5.82-11.99 8.91-5.24 5.87-7.6 18.29-7.63 18.41-.18.95-1 1.61-1.93 1.61Z"/><rect class="cls-8" x="131.37" y="103.21" width="84.32" height="154.15" rx="4.81" ry="4.81"/><path class="cls-4" d="M176.43 254.18c-5.1 2.77-10.28-2.42-7.52-7.52.39-.72.99-1.32 1.71-1.71 5.1-2.77 10.29 2.42 7.52 7.52-.39.72-.99 1.32-1.71 1.71Zm-1.68-8.96a4.517 4.517 0 0 0-5.56 5.57c.4 1.5 1.61 2.72 3.12 3.12 3.42.91 6.47-2.14 5.56-5.56-.4-1.5-1.61-2.72-3.12-3.12Z"/><rect class="cls-4" x="161.67" y="110.5" width="23.72" height="2.64" rx="1.32" ry="1.32"/><rect x="136.64" y="119.02" width="73.78" height="122.53" rx="1.43" ry="1.43" style="fill:#ebebeb"/><path d="M210.42 121.2v118.92c0 .79-.64 1.43-1.43 1.43H138.8c-1.05-.01-1.65-1.24-1.11-2.14l72.03-119.8c.43.4.69.96.69 1.59Z" style="opacity:.7;fill:#fff"/><path class="cls-6" d="M223.08 225.25c3.22-2.28 4.85-7.6 2.96-11.48-.7-1.43-1.61-2.51-2.76-3.19 3.51-2.63 4.44-8.29 2.29-12.55-1.03-2.03-2.35-3.23-4.11-3.83 3.19-2.75 3.36-7.81 1.27-11.89-2.18-4.25-6.81-5.57-10.33-2.93l-10.48 9.01c-3.56 3.47-4.5 7.62-2.28 11.86 1.09 2.09 2.73 2.54 4.56 3.09-2.27 2.9-4.66 6.32-2.79 10.57 1.22 2.78 4.31 3.94 5.96 4.58-1.33 2.5-2.39 4.51-1.24 7.59.88 2.37 2.52 3.38 4.52 3.62.58.07 1.16.03 1.73-.08 1.79-.35 6.46-1.48 10.69-4.36Z"/><path class="cls-8" d="M211.27 231.68c-.28 0-.56-.02-.83-.05-2.96-.34-5.08-2.03-6.14-4.88-1.1-2.98-.55-5.24.38-7.28-1.8-.87-3.97-2.31-5.06-4.78-1.87-4.24-.31-7.8 1.44-10.42-1.18-.59-2.3-1.49-3.16-3.13-2.59-4.95-1.65-9.98 2.65-14.17.03-.03.06-.06.09-.08l10.48-9.01s.07-.06.1-.08c2.08-1.55 4.56-2.1 6.98-1.54 2.62.61 4.91 2.48 6.27 5.15 2.17 4.23 2.11 8.9.03 12.21 1.12.86 2.05 2.02 2.81 3.52 2.24 4.44 1.68 9.85-1.13 13.33.62.69 1.15 1.5 1.61 2.44 2.23 4.6.59 10.99-3.59 13.95-.01 0-.02.01-.03.02-4.52 3.07-9.49 4.28-11.41 4.66-.51.1-1.01.15-1.51.15Zm-8.01-41.86c-3 2.95-3.62 6.14-1.87 9.49.66 1.26 1.48 1.55 3.27 2.09l.12.03c.62.19 1.11.67 1.31 1.29.2.62.07 1.29-.33 1.81-2.21 2.82-3.93 5.41-2.54 8.57.88 2 3.34 2.95 4.81 3.52l.07.03c.52.2.94.62 1.13 1.15.2.53.16 1.11-.11 1.61-1.37 2.58-1.94 3.81-1.14 5.98.55 1.47 1.42 2.17 2.91 2.35.35.04.73.02 1.13-.05 1.69-.33 6.03-1.38 9.94-4.04 2.35-1.68 3.83-5.88 2.31-9.01-.53-1.1-1.2-1.89-1.99-2.36-.57-.33-.93-.93-.96-1.59-.04-.66.26-1.29.79-1.68 2.68-2 3.46-6.63 1.71-10.09-.78-1.54-1.7-2.42-2.98-2.85-.67-.23-1.16-.79-1.3-1.48-.14-.69.11-1.4.64-1.86 2.58-2.23 2.36-6.48.81-9.51-.84-1.63-2.17-2.76-3.66-3.11-1.28-.3-2.55-.01-3.69.82l-10.38 8.92Zm19.82 35.42Z"/><path class="cls-4" d="m204.21 203.32 17.26-9.13"/><path class="cls-8" d="M204.22 205.07c-.63 0-1.23-.34-1.55-.93-.45-.85-.13-1.91.73-2.36l17.25-9.13c.85-.45 1.91-.13 2.36.73.45.85.13 1.91-.73 2.36l-17.25 9.13c-.26.14-.54.2-.82.2Z"/><path class="cls-4" d="m207.39 218.48 15.9-7.91"/><path class="cls-8" d="M207.39 220.22c-.64 0-1.26-.36-1.57-.97-.43-.86-.08-1.91.79-2.34l15.9-7.9c.86-.43 1.91-.08 2.34.79.43.86.08 1.91-.79 2.34l-15.9 7.9c-.25.12-.51.18-.78.18Z"/><path class="cls-6" d="M272.61 318.37c-1.38-4.08-.99-8.13-.86-11.42.17-4.11.7-6.76.9-10.87.66-13.85-1.59-28.24-7.47-40.8-2.87-6.14-8.64-8.62-11.28-9.53-5.49-1.9-11.35 1.73-11.35 1.73-4.69-4.69-12.57-6.38-19.69-2.56-2.64-2.23-6.14-3.72-8.77-3.7-4.67.03-8.94 1.91-12.34 5.47l-11.17-34.32c-2.48-7.19-5.63-15.14-13.77-12.33-7.64 2.63-5.3 11.88-3.13 18.16l12.58 35.21s-.17 22.01.79 30.37c.63 5.48 2.27 10.79 4.86 15.52 2.59 4.73 6.14 8.87 10.59 12.01 5.51 3.9 6.96 4.76 22.06 11.11 6.12 2.58 8.21 9.75 8.21 9.75l39.85-13.8Z"/><path class="cls-8" d="M232.76 334.13c-.85 0-1.63-.56-1.88-1.41-.02-.06-1.93-6.32-7.09-8.49-14.99-6.31-16.61-7.21-22.43-11.32-4.58-3.24-8.34-7.5-11.18-12.67-2.67-4.86-4.43-10.48-5.09-16.24-.91-7.9-.82-27.31-.8-30.26l-12.47-34.89c-1.01-2.94-2.34-7.27-2.22-11.16.17-6.05 3.67-8.52 6.57-9.52 4.45-1.54 8.21-.52 11.16 3.02 2.33 2.79 3.8 6.73 5.11 10.53 0 .01 0 .02.01.03l10.24 31.45c3.33-2.57 7.21-3.93 11.4-3.95h.05c2.74 0 6.14 1.29 8.97 3.36 3.45-1.57 7.16-2.11 10.82-1.54 3.31.51 6.44 1.93 8.94 4.03 2.26-1.08 7.01-2.83 11.69-1.2 4.07 1.41 9.53 4.39 12.41 10.56 5.72 12.22 8.37 26.65 7.65 41.73-.1 2.05-.28 3.75-.45 5.4-.19 1.75-.36 3.41-.44 5.45-.02.37-.03.76-.05 1.15-.14 2.95-.3 6.29.81 9.56a1.96 1.96 0 0 1-1.23 2.49 1.96 1.96 0 0 1-2.49-1.23c-1.35-3.97-1.16-7.87-1.01-11.01.02-.38.04-.76.05-1.12.09-2.18.28-3.97.46-5.71.17-1.59.34-3.23.44-5.17.69-14.44-1.83-28.23-7.28-39.88-2.31-4.93-6.79-7.35-10.14-8.51-4.52-1.57-9.62 1.52-9.67 1.55-.77.48-1.78.36-2.42-.28-3.73-3.74-10.55-5.87-17.38-2.22-.71.38-1.58.29-2.2-.23-2.26-1.91-5.33-3.24-7.46-3.24h-.03c-4.13.02-7.91 1.71-10.94 4.86-.48.5-1.18.71-1.86.56-.67-.15-1.22-.65-1.43-1.31l-11.17-34.31c-3.06-8.88-5.65-13.04-11.27-11.1-2.58.89-3.83 2.77-3.92 5.91-.09 3.26 1.1 7.12 2 9.75l12.58 35.19c.08.22.12.45.11.68 0 .22-.16 21.99.78 30.13.6 5.26 2.21 10.37 4.63 14.8 2.55 4.64 5.91 8.46 10 11.35 5.32 3.76 6.63 4.57 21.68 10.9 6.91 2.91 9.24 10.68 9.34 11.01a1.97 1.97 0 0 1-1.89 2.52Z"/><path class="cls-8" d="M194.8 280.57c-.82 0-1.58-.52-1.86-1.33l-8.61-25.36a1.96 1.96 0 0 1 1.23-2.49c1.03-.35 2.14.2 2.49 1.23l8.61 25.36a1.96 1.96 0 0 1-1.23 2.49c-.21.07-.42.11-.63.11ZM522.49 79.52c6.56 4.26 13.19 5.82 16.1 5.82 2.03 0 2.5-.81 2.5-1.62 0-.95-.61-1.35-1.49-1.56-2.37-.61-9.2-1.35-14.21-5.75-2.57-2.3-4.33-5.48-4.33-10.22 0-9.81 7.58-16.51 19.96-16.51 5.95 0 12.99 1.56 17.46 3.86v16.04c-6.36-3.18-12.31-4.33-14.82-4.33-1.96 0-2.5.74-2.5 1.49 0 1.01.74 1.42 1.56 1.69 2.03.61 8.8 1.42 13.6 5.21 3.31 2.71 4.94 6.16 4.94 10.55 0 9.4-7.58 15.97-20.43 15.97-6.16 0-13.53-1.49-18.33-3.99V79.53Zm53.78-12.45H562.6V50.43h47.5v16.64h-13.67v32.34h-20.16V67.07Zm39.1-16.64h35.25V66.8h-15.09v2.64h12.18v11.64h-12.18v2.77h16.04v15.56h-36.2V50.43Zm41.2 0h18.54c11.77 0 24.97 3.38 24.97 17.39 0 12.58-10.55 17.66-22.67 17.66h-.68v13.94h-20.16V50.43Zm20.7 22.6c3.45 0 5.08-1.83 5.08-4.13s-1.69-4.13-5.08-4.13h-.54v8.25h.54Zm29.36 6.29c5.95 0 10.42 4.67 10.42 10.42s-4.47 10.42-10.42 10.42-10.42-4.67-10.42-10.42 4.47-10.42 10.42-10.42Z"/><path d="M732.95 99.66c-2.21 0-3.18-.97-3.18-3.18V85.79c0-2.21.97-3.18 3.18-3.18h9.9V53.1h-8.13c-2.21 0-3.18-.97-3.18-3.18V39.23c0-2.21.97-3.18 3.18-3.18h25.62c2.21 0 3.18.97 3.18 3.18v43.38H772c2.21 0 3.18.97 3.18 3.18v10.69c0 2.21-.97 3.18-3.18 3.18h-39.05Z" style="fill:#efa90c"/></g></svg>