<svg id="Layer_2" xmlns="http://www.w3.org/2000/svg" viewBox="0 0 1432.17 372.69"><defs><style>.cls-1{fill:#fff}.cls-4{fill:#de5637}</style></defs><g id="Layer_1-2"><path class="cls-1" d="M613.14 116.52c-3.04 4.4-5.28 7.12-8.96 10.64-2.16-2.4-3.92-3.84-6.96-5.84 5.76-5.2 9.52-10 12.24-15.76 1.6-3.44 2.64-6.48 3.04-8.8l9.2 2.24q-.64 1.36-2 4.56c-.56 1.52-1.12 2.72-2 4.64h10.8c0-.64.08-.96.08-1.2 0-7.2-.08-8.96-.56-11.68h9.76q-.4 2.48-.4 12.88h15.92c4.48 0 7.52-.16 9.68-.56V117c-2.72-.32-6.16-.48-9.68-.48h-16.08c-.24 4.64-.48 7.44-.96 11.36h21.76c4.48 0 7.28-.16 9.76-.48v9.36c-2.56-.32-5.76-.48-9.84-.48H639.3c2.72 5.28 5.76 8.88 10.8 12.96 6.24 4.96 11.36 7.6 19.84 10-2.64 3.84-3.28 5.04-5.12 9.2-8.08-3.2-13.2-6.16-18.8-10.96-6.24-5.36-9.92-10-13.12-16.72-2.72 6.56-6.08 11.28-11.84 16.16-5.76 4.96-12 8.48-20.32 11.52-1.44-3.6-2.72-5.92-4.88-8.88 6.8-1.6 13.2-4.4 18.08-8.08 5.52-4.08 8.96-8.64 11.52-15.2h-18.32c-3.76 0-6.8.16-9.76.48v-9.36c3.04.32 5.28.48 9.12.48h20.96c.48-3.84.64-6.16.88-11.36h-15.2Zm86.48 37.28c-3.6 7.52-5.6 10.48-10.72 15.68-2.8-3.2-3.6-3.92-6.4-5.84 4.96-4.24 7.36-7.6 10-13.76l7.12 3.92Zm8.8-4.08c2.64 4.24 4.48 6.64 7.52 9.84 6.4-3.6 11.36-7.6 14.88-12-4.08-6.48-6.8-12.32-8.96-19.52-1.84 2.56-2.32 3.2-4.16 5.36-1.2-2-1.68-2.72-2.96-4.32v12.64c0 3.12.08 6 .24 7.68-1.44-.16-3.52-.24-5.76-.24H692.5c-2.16 0-4.4.08-5.6.24.16-1.68.24-4.72.24-7.84v-36.88c0-2.8-.08-5.12-.32-7.12 2.08.16 4 .24 7.12.24h14.32c3.2 0 5.04-.08 6.72-.24-.16 2.32-.24 4.4-.24 6.56v18.96c4.16-5.52 6.72-10.64 8.64-17.2 1.2-3.92 2.08-8.32 2.16-10.64l9.28 1.52c-.24.64-.8 2.88-1.76 6.56-.56 1.92-.8 2.88-1.28 4.48h15.84c3.84 0 6.64-.16 8.48-.48v8.88c-1.6-.24-2.72-.32-5.76-.4-1.28 13.84-3.68 22.16-9.04 31.2 4.88 5.28 9.2 8.56 16.4 12.4-2.72 3.28-3.68 4.8-5.76 9.12-7.2-5.04-11.52-8.88-16-14.08-4.96 5.92-9.04 9.2-17.92 14.64-1.2-2.64-2.56-4.8-4.16-6.64-1.28 1.2-1.92 1.84-3.68 3.68-3.28-4.16-5.44-7.28-8.4-12.32l6.64-4.08Zm-13.12-37.04h11.6v-7.44h-11.6v7.44Zm0 14.24h11.6v-7.36h-11.6v7.36Zm0 14.8h11.6v-7.84h-11.6v7.84Zm33.44-25.92c-.56 1.28-.8 1.76-1.36 2.96.96 4.48 1.6 6.56 3.44 11.12 1.84 4.56 3.12 7.04 5.04 10.08 3.2-6.16 5.2-13.92 6.08-24.16h-13.2Zm60.56-17.52c-.48 2.32-.64 4.64-.96 10.8-.32 7.44-.8 23.68-.8 29.36 0 7.6.48 10.48 2.08 12.88 1.84 2.64 5.68 4.16 10.72 4.16 8.64 0 15.6-4.88 19.36-13.68 1.76-4.16 2.8-7.92 3.68-13.44 4.32 3.52 5.76 4.4 9.68 6.16-3.2 10.8-5.6 16-9.52 20.4-6 6.8-13.92 10.16-24 10.16-5.52 0-10.64-1.28-14-3.52-5.52-3.68-7.84-9.84-7.84-20.56 0-4.16.16-12.16.64-32.24.08-2.4.08-4.08.08-5.2 0-2.24-.08-3.36-.32-5.44l11.2.16Zm88.64-1.52q-.48 1.52-1.28 5.36c-.4 1.92-.8 3.52-1.68 7.04 5.52-.56 9.68-1.28 12.8-2.24l.24 9.2c-.88.08-1.04.08-2.56.4-2.88.48-7.76 1.04-12.72 1.44-2.32 8-5.2 15.6-8.8 23.2-1.84 3.92-2.56 5.36-5.6 10.96q-1.04 1.92-1.52 2.88l-9.2-5.12c2.8-3.68 5.04-7.28 7.76-12.8 3.12-6.4 4.48-9.68 7.52-18.88-3.6.08-4.08.08-5.04.08-1.04 0-1.52 0-3.2-.08l-4.24-.08V109c2.88.56 5.92.72 10.8.72.96 0 2.32 0 4.08-.08 1.36-5.68 2.24-10.48 2.4-13.92l10.24 1.04Zm36.24 64.8c-2.88-3.44-7.52-7.2-12.24-9.92.08.72.16 1.28.16 1.6 0 2.96-1.36 6.4-3.44 8.48-2.8 2.88-7.6 4.48-13.28 4.48-10.56 0-17.44-5.28-17.44-13.44S875.06 139 885.22 139c2.4 0 4.08.16 7.44.72-.24-3.68-.4-6.8-.4-9.2 0-3.12.16-5.44.64-8.08l9.28.48c-.8 2.96-.96 4.8-.96 8.08s.16 6.4.72 10.96c5.76 2.56 6.56 2.96 12.64 7.36 1.2.8 1.52 1.12 2.8 2.16q.64.64 1.2 1.12l-4.4 8.96Zm-28.4-14.64c-5.2 0-8.56 2.16-8.56 5.52s2.88 5.2 7.84 5.2c5.44 0 8.08-2.24 8.08-6.72 0-.8-.16-2.72-.16-2.72-2.8-.96-4.72-1.28-7.2-1.28Zm28.8-22.16c-6.96-4.64-14.08-8.08-23.04-11.2l4.8-7.76c9.44 3.6 15.44 6.4 22.56 10.72l-4.32 8.24Zm32.08-21.52c-.4 2.96-.64 6.88-.64 12.16 0 6.96.64 16.56 1.52 21.44 1.36 8.32 3.92 13.44 6.48 13.44 1.2 0 2.32-1.2 3.28-3.44 1.92-4.32 3.36-9.12 4.24-14.48 2.8 3.2 4.08 4.4 8 7.28-4.16 15.6-8.8 22.08-15.6 22.08-5.36 0-9.68-3.92-12.88-11.6-3.28-8-4.72-19.6-5.04-41.76-.08-2.8-.08-3.36-.32-5.12h10.96Zm37.84 3.6c10.08 12.08 15.68 25.44 18 43.04l-9.92 3.76c-.48-7.52-2.32-15.84-5.12-23.12-2.72-7.28-6.56-13.76-11.36-19.68l8.4-4Z"/><path d="M544.73 64.17 209.7 25.9l-15.54 136.03 335.03 38.27 51.43-63.03-35.89-73Zm-19.54 85.38c-9.97-1.14-17.13-10.14-15.99-20.11 1.14-9.97 10.14-17.13 20.11-15.99 9.97 1.14 17.13 10.14 15.99 20.11-1.14 9.97-10.14 17.13-20.11 15.99Z" style="fill:#f0a63b"/><path class="cls-1" d="M252.07 105.87c-2.12 12.37-2.78 15.44-5.2 22.93l-6.68-3.22c2.53-6.4 3.99-12.31 5.18-21.4l6.7 1.69Zm-8.19-12.62c1.14.28 1.68.35 3.38.54.08 0 1.62.18 2.4.27q.79-.76 2.22-2.28c.53-.55 1.07-1.18 2.42-2.65-2.01-3.69-5.08-8.27-8.29-12.4l4.7-6.15 2.31 3.11c3.11-3.95 6-8.62 7.01-11.35l7.24 3.75c-.72.84-1.57 2.05-3.17 4.48-2.44 3.56-4.29 6.04-6.98 9.04 1.28 1.84 1.47 2.24 2.33 3.57 5.17-6.18 7.41-9.38 8.92-12.28l6.5 4.82q-1.07 1.11-5.25 6.24c-2.64 3.24-8.56 9.79-11.56 12.75 3.25.29 4.74.31 8.57.36-.49-1.9-.76-2.93-1.68-5.88l5.74-1.58c2.08 5.77 3.1 9.89 4.03 16.15l-6.47 1.8c-.18-1.87-.27-2.41-.44-3.67-2.51.02-2.74 0-5.02.04l-2.77 24.21c-.42 3.64-.56 5.63-.45 8.02l-8.42-.96c.58-2.32.98-4.43 1.37-7.92l2.69-23.53c-7.16-.36-9.97-.45-11.4-.23l.09-8.3Zm26.63 13.65c.59 7.83.63 11.6.32 17.8l-6.67.85c.58-6.47.66-10.61.25-17.96l6.11-.69Zm36.87-17.78c3.48.4 5.34.53 6.91.48-.37 1.88-.61 3.31-.95 6.27l-1.47 12.9c-.43 3.79-.5 5.09-.56 6.93-1.75-.43-3.29-.68-6.69-1.07l-22.1-2.52-1.4 12.22c-.17 1.52.14 2.17 1.34 2.69 1.18.6 4.71 1.23 9.27 1.75 8.19.94 10.64.75 11.77-.89.92-1.2 1.39-3.23 2.15-9.21 2.68 1.92 4.74 3.08 7.6 4.1-3.09 14.72-4.35 15.5-22.05 13.47-16.07-1.84-18.8-3.3-18.07-9.75l4.07-35.67c-1.02.73-1.19.86-2.3 1.66-1-2.88-1.86-4.29-3.75-6.89 4.03-2.38 7.51-5.45 10.78-9.38 3.08-3.65 5.57-7.67 6.52-10.48l7.84 3.36c-.28.43-.48.79-.66 1-.19.29-.68 1.15-1.63 2.58l6.88.79c3.17.36 4.41.43 6.37.42l3.36 4.15c-1.34 1.46-2.72 3.23-4.96 6.43-1.49 2.06-1.95 2.7-3.13 4.1l4.87.56Zm-13.76-1.57c2.15-2.37 3.72-4.5 5.22-7.32l-9.35-1.07a55.703 55.703 0 0 1-6.69 7.16l10.82 1.24Zm-10.3 17.51 6.88.79 1.3-11.39-6.88-.79-1.3 11.39Zm13.76 1.57 7.42.85 1.3-11.39-7.42-.85-1.3 11.39Zm48.47-26.14c.39-3.42.5-5.09.35-7.19l8.96 1.02c-.47 2.02-.85 4.05-1.2 7.09l-.49 4.25 5.49.63c3.25.37 5.11.51 7.47.39l-.93 8.12c-1.84-.36-2.83-.55-6-.92-1.44 7.83-4.1 15.29-7.88 22.4 4.18 6.63 4.7 7.53 9.32 15.75l-6.87 5.98c-2.62-5.84-3.58-7.71-7.39-14.15-5.17 6.87-9.66 11.2-17.52 16.99-1.71-3.58-2.78-5.16-5.07-7.73 7.73-4.58 12.9-9.44 17.97-16.79-3.05-4.81-6.78-9.85-11.54-15.47l6.28-4.97q1.37 1.69 5.4 6.85c.55.68 1.7 2.27 4.25 5.94 2.11-4.76 3.84-10.32 4.85-15.75l-14.3-1.63c-2.86-.33-5.03-.5-7.23-.44l.94-8.27c2.28.57 4.59.98 7.6 1.33l7.03.8.49-4.25Zm23.39 23.43c4.39 7.5 6.15 11.24 8.89 18.78l-7.55 3.75c-2.68-8.76-4.73-13.46-8.72-19.6l7.38-2.92Zm4.87-4.21c-3.32-.38-5.19-.52-7.38-.46l.95-8.35c2.05.54 3.9.83 7.3 1.22l9.82 1.12.69-6c.51-4.48.63-6.92.49-9.09l9.27 1.06c-.58 2.32-1.03 4.88-1.5 8.98l-.69 6 .93.11c3.25.37 5.35.46 7.32.38l-.97 8.5-1.75-.43c-.76-.24-3.3-.61-5.38-.85l-1-.11-4.19 36.66c-.45 3.95-.83 5.21-2.15 6.44-1.68 1.65-4.55 2.09-9.65 1.51-3.17-.36-6.02-.76-9.08-1.34-.11-3.86-.43-5.82-1.43-8.7 2.73.77 7.32 1.76 9.25 1.98 4.17.48 4.66.3 4.84-1.29l4.14-36.2-9.82-1.12Zm40.7 48.09c.08-1.37.05-1.84.02-3.61-.42-9.35-.29-15.26.58-22.92 1.12-9.79 3.03-18.34 6.56-29.32 1.34-4.15 1.58-4.89 1.97-6.93l10.08 2.23c-2.37 4.27-5.11 12.56-7.46 22.14-1.42 5.6-2.24 10.05-3.08 16.64-.19 1.67-.34 2.27-.63 4.16 1.15-2.56 1.37-3.07 5.16-9.56l5.87 3.44c-5.26 8.32-8.89 16.82-9.51 22.21-.05.46-.12 1.06-.16 2.06l-9.41-.54Zm36.35-26.22c-4.37 3.96-6.36 7.04-6.74 10.3-.49 4.33 3.5 7.09 11.53 8.01 6.8.78 13.65.48 18.72-.78l-.33 9.73c-1.09-.05-1.41 0-3.22.09-6.3.28-11.06.2-16.16-.39-9.58-1.1-15.52-3.93-18.41-8.79-1.25-2.06-1.78-4.97-1.47-7.7.56-4.93 3.46-9.75 8.9-14.82l7.18 4.36ZM440.98 95c3.37 1.31 7.44 2.08 14.16 2.85 8.58.98 16 1.14 21.25.35l-.59 9.24c-.63 0-1.8.02-5.56.06-5.02.04-10.92-.32-16.64-.98-5.64-.64-5.72-.65-13.82-2.42l1.2-9.09Z"/><circle class="cls-4" cx="1110.29" cy="126.21" r="75.28"/><circle class="cls-1" cx="1110.29" cy="126.21" r="60.42"/><circle class="cls-4" cx="1110.29" cy="126.21" r="45.55"/><circle class="cls-1" cx="1110.29" cy="126.21" r="30.68"/><circle class="cls-4" cx="1110.29" cy="126.21" r="15.81"/><rect x="1088.98" y="62.63" width="148.5" height="21.91" rx="10.96" ry="10.96" transform="rotate(-44.83 1163.275 73.572)" style="fill:#bba28c"/><path d="m1193.65 0-35.2 35.24 5.42 22.62 35.21-35.23L1193.65 0zm21.72 36.92-35.2 35.23 22.63 5.4 35.2-35.23-22.63-5.4z" style="fill:#ad7b4e"/><path class="cls-1" d="M42.25 279.12c.39-5.05.65-12.57.65-16.59 0-2.72 0-3.76-.39-6.48l24.37.65c-.65 2.98-.65 3.37-1.43 15.68q-.13 3.5-.39 6.61h28.25c4.28 0 5.83-.26 8.68-1.43l10.11 8.81c-1.43 2.59-1.68 3.63-1.81 9.59-.91 27.74-2.85 49.38-5.44 57.93-3.76 12.05-9.98 16.2-24.37 16.2-5.05 0-7-.13-16.98-1.04-.52-10.37-1.43-14.65-4.41-22.81 6.48 1.69 12.83 2.59 16.85 2.59 6.22 0 7.78-2.07 9.46-13.35 1.3-8.68 2.46-25.01 2.46-36.16H63.1q-1.04 8.55-1.94 12.96c-5.7 26.18-18.02 43.03-44.33 60.4-5.83-9.2-9.72-13.61-16.85-19.7 17.24-9.07 27.22-18.28 33.7-31.37 3.24-6.61 4.67-11.28 6.48-22.16H23.98c-8.68 0-11.41.13-17.5.78l-.13-22.16c6.48.91 8.81 1.04 18.02 1.04h17.89Zm98.77 22.42c6.09.91 13.09 1.17 26.57 1.17h61.95c12.96 0 17.89-.26 26.57-1.17v25.01c-6.22-.65-11.92-.78-26.7-.78h-61.69c-14.52 0-18.79.13-26.7.78v-25.01Zm154.76 69.6c.52-5.44.65-9.2.78-19.83v-75.43c-.13-11.15-.13-11.79-.91-18.79h25.01c-.52 3.37-.52 5.44-.65 18.92v17.76c20.48 6.61 40.83 15.81 58.97 26.96l-12.31 22.03c-10.76-7.65-25.79-15.94-40.83-22.55-3.89-1.56-4.28-1.68-4.67-1.94-.39-.13-.65-.26-1.17-.65v33.7c0 9.59.26 16.46.78 19.83h-25.01Zm58.58-106.8c5.05 5.7 9.2 11.67 12.83 18.53l-12.31 5.96c-4.28-8.17-7.65-12.96-12.83-18.92l12.31-5.57Zm17.24-7.78c4.8 5.18 8.42 10.11 12.96 18.02l-11.92 5.83c-4.54-8.17-8.17-13.35-12.7-18.53l11.67-5.31ZM439 359.47v8.94h-23.59c.78-7.13 1.04-11.54 1.04-21.13v-66.62c0-5.57-.13-9.59-.52-14.91 4.54.39 7.13.52 15.68.52h69.86c8.04 0 9.98 0 16.07-.52-.26 4.54-.39 9.2-.39 15.29v65.71c0 9.98.26 16.2.91 21.39H494.6v-8.68H439Zm55.6-72.45H439v51.71h55.6v-51.71Zm55.48 14.52c6.09.91 13.09 1.17 26.57 1.17h61.95c12.96 0 17.89-.26 26.57-1.17v25.01c-6.22-.65-11.92-.78-26.7-.78h-61.69c-14.52 0-18.79.13-26.7.78v-25.01Zm153.73-38.37c16.33 9.59 24.76 15.55 35.64 25.4l-15.29 20.22c-11.28-11.79-22.29-20.35-35.25-27.35l14.9-18.27Zm-13.61 80.49c13.22-1.04 26.83-4.28 39.01-9.33 16.33-6.74 28-16.46 37.98-32.01 5.44-8.29 8.94-15.42 12.7-25.4 6.35 7.65 9.33 10.24 19.05 17.37-11.79 25.53-24.11 40.83-42.25 52.49-14 9.07-26.31 13.87-50.42 19.44-5.05 1.17-5.83 1.3-9.33 2.33l-6.74-24.88Zm176.22-.91c-6.01 13.27-12.96 19.08-22.4 19.08-13.89 0-23.64-13.27-23.64-32.25 0-12.13 4.15-23.12 11.92-31.62 9.12-9.95 22.29-15.24 37.53-15.24 13.89 0 26.13 4.67 33.8 12.75 6.64 7.05 10.16 17.11 10.16 28.82 0 13.48-5.08 25.71-13.79 33.49-7.05 6.32-15.24 9.64-29.76 11.92-2.49-7.46-4.46-11.2-8.81-17 9.75-.73 16.17-2.38 21.77-5.29 7.98-4.25 12.44-12.96 12.44-24.05 0-8.81-3.11-15.86-9.12-20.42-2.7-2.07-4.98-3.01-8.71-3.63-2.28 17.83-5.81 31.21-11.41 43.44Zm-17.83-37.95c-6.84 5.81-11.3 15.45-11.3 24.68 0 7.36 2.8 13.17 6.43 13.17 2.59 0 5.29-3.63 8.4-11.51 3.63-9.33 6.64-21.36 7.78-31.62-4.35.62-7.67 2.18-11.3 5.29Zm134.34 37.56c4.02 5.83 7.39 7.91 13.87 8.81-3.63-4.41-4.28-5.18-10.11-10.5 7.78-1.43 12.05-2.59 18.27-4.8h-9.98c-4.67 0-6.61.13-9.2.52v-15.03c2.85.39 4.15.52 8.94.52h6.61v-5.7h-1.17c-7.13 0-8.68.13-12.18.52v-14.65c3.37.39 4.8.39 12.18.39h1.17v-4.67c-7.39 0-10.11-.26-12.05-1.04-3.11-1.3-4.41-3.63-4.41-7.78v-13.74l-12.7 12.7c-7.26-9.72-11.92-14.78-22.42-23.72l14.52-14.13c8.81 7.26 14.78 13.09 20.61 19.83 3.24.26 4.02.26 9.46.26h11.92v-3.76h-12.31c-5.83 0-7.65 0-10.89.39v-14.52c3.37.26 7 .39 11.15.39h18.27c6.74 0 8.68 0 11.53-.26-.39 1.3-.39 2.33-.39 4.54l.13 2.59v13.87c0 3.76 0 5.83.26 7.52-3.11-.13-5.7-.26-8.68-.26h-14v2.85c0 1.94.39 2.2 4.02 2.2 2.33 0 3.89-.26 4.54-.65.39-.39.78-1.68.78-3.37v-.78c5.7 2.07 9.72 3.11 15.03 3.76-.91 7.78-1.81 9.59-5.83 11.54v6.22h13.74v-5.57c-3.89-1.3-5.57-3.89-5.57-8.04v-10.5q0-4.02-.39-8.42c3.24.26 4.28.26 9.85.26h11.79v-3.76h-11.02c-5.83 0-7.65 0-10.89.39v-14.52c3.37.26 7 .39 11.15.39h17.76c6.74 0 8.68 0 11.54-.26-.26 1.56-.26 2.46-.26 4.41v16.59c0 3.89 0 5.83.26 7.52-3.11-.13-5.7-.26-8.68-.26h-13.74v2.98c0 1.69.91 2.2 4.41 2.2 2.2 0 4.15-.26 4.67-.78q.39-.39.78-2.59v-1.56c4.8 1.69 9.72 2.72 16.2 3.5-.65 6.74-1.81 9.46-4.67 11.15-2.33 1.42-5.31 1.81-14.78 2.07v4.8h4.28c7.26 0 8.68 0 12.05-.39v14.65c-3.63-.39-5.05-.52-12.05-.52h-4.15v5.7h6.61c7.39 0 8.81 0 12.31-.39v14.78c-3.76-.39-5.18-.39-12.31-.39h-8.94c7.26 2.33 12.18 3.5 21.13 4.54-3.63 3.76-4.02 4.41-7.65 9.98 3.11-.26 5.05-.52 10.89-1.3-2.59 7-3.76 12.31-4.8 20.35-11.41.39-29.81.65-49.38.65s-26.57-.65-32.79-2.85c-5.18-1.81-8.94-4.41-13.48-9.46-5.57 5.06-7.91 6.87-17.24 13.61l-8.42-20.87c3.76-1.3 8.94-4.54 15.68-9.85v-24.5h-5.31c-2.85 0-4.67.13-8.04.65v-19.57c3.63.52 5.7.65 10.63.65h12.44c5.31 0 6.48 0 9.72-.39-.26 3.76-.26 5.05-.26 14.52v30.33Zm42.77-.65c-7.26 4.54-13.48 7.52-21.51 10.24 4.15.13 9.98.26 15.81.26 7 0 21.52-.39 28.51-.78-6.35-2.07-11.41-4.54-19.44-9.72l8.29-5.83h-20.61l8.94 5.83Zm-5.83-19.83h13.74v-5.7h-13.74v5.7Zm75.31-62.21c2.59.39 3.63.39 6.61.39 16.2 0 33.18-1.82 39.53-4.15l11.02 19.83c-5.83 3.37-10.89 7.78-16.46 14.13-10.24 11.79-15.42 23.59-15.42 34.99 0 12.57 7.13 20.48 18.53 20.48 8.94 0 16.85-5.57 20.61-14.52 3.37-8.17 4.8-17.11 4.8-30.07 0-13.74-2.2-27.22-6.09-36.29l21.9-6.09c5.05 18.79 18.66 38.75 33.57 48.99l-10.89 21.51-1.17-1.17-1.81-1.81c-5.96-5.7-12.57-14.39-16.33-21.52.65 5.57.78 8.04.78 12.05 0 14.13-3.24 25.27-9.72 34.35-7.91 11.02-20.74 17.24-35.12 17.24-9.46 0-18.66-2.46-25.14-6.87-10.37-7-16.85-20.61-16.85-35.38 0-13.35 5.05-26.96 14.26-39.01 2.2-2.72 3.89-4.67 7.78-8.68-5.57 1.17-8.94 1.56-16.85 2.2-4.93.52-5.05.52-7 .91l-.52-21.52Zm98.11-9.46c3.5 5.96 6.22 12.44 8.68 20.74l-10.24 3.24c-2.2-7.78-4.92-14.39-8.55-21l10.11-2.98Zm13.87 18.79c-2.33-8.04-4.67-13.74-8.29-20.09l9.98-2.72c3.11 4.79 6.48 12.44 8.42 19.57l-10.11 3.24Zm76.86-8.81c0-4.15-.26-7-.78-9.98h22.42c-.52 2.85-.78 5.96-.78 9.98v6.09h31.88c7.78 0 13.09-.26 17.89-.91v20.74c-4.67-.52-9.07-.78-17.11-.78h-46.14c-.39 6.74-.39 7-.78 10.89h37.85c6.87 0 9.98-.13 13.48-.52-.52 4.8-.52 5.57-1.04 18.66-.91 23.46-2.72 37.2-6.22 44.97-3.63 8.55-9.46 11.41-22.81 11.41-3.24 0-8.94-.26-16.59-.65-.65-7.65-1.81-12.31-5.31-20.09 7.26.91 13.35 1.43 18.92 1.43 6.61 0 8.29-1.68 9.59-9.59 1.04-5.96 1.81-15.55 2.07-26.96h-32.66c-1.68 7.65-4.92 16.2-9.07 24.11-6.74 12.7-16.07 22.68-31.24 33.18-4.15-7.39-7.91-11.92-14.52-17.24 19.57-11.67 28.38-22.16 33.31-39.53 2.46-9.07 3.63-17.89 3.76-30.07h-16.07c-6.74 0-12.83.26-18.02.78v-20.74c5.57.65 10.76.91 17.89.91h30.07v-6.09Zm122.36 71.03c.26-2.59.26-3.76.26-5.83q0-2.46-.52-10.11l-2.59-41.09c-.26-5.31-.91-11.15-1.56-17.5h30.2c-.39 2.98-1.17 12.05-1.56 17.5l-2.59 41.09c-.26 5.44-.39 8.04-.39 9.98 0 1.3 0 2.72.13 5.96h-21.39Zm-2.33 33.31v-24.5h26.05v24.5h-26.05Z"/></g></svg>