<svg id="Layer_2" xmlns="http://www.w3.org/2000/svg" viewBox="0 0 1192.5 497.61"><defs><style>.cls-2{fill:#fff}.cls-6{fill:#333}</style></defs><g id="Layer_1-2"><path class="cls-6" d="M213.04 418.49c.32-4.17.54-10.37.54-13.69 0-2.25 0-3.1-.32-5.35l20.1.53c-.53 2.46-.53 2.78-1.18 12.94q-.11 2.89-.32 5.45h23.31c3.53 0 4.81-.21 7.16-1.18l8.34 7.27c-1.18 2.14-1.39 2.99-1.5 7.91-.75 22.88-2.35 40.74-4.49 47.79-3.1 9.94-8.23 13.37-20.1 13.37-4.17 0-5.77-.11-14.01-.86-.43-8.55-1.18-12.08-3.64-18.82 5.35 1.39 10.58 2.14 13.9 2.14 5.13 0 6.42-1.71 7.8-11.01 1.07-7.16 2.03-20.63 2.03-29.83h-20.42q-.86 7.06-1.6 10.69c-4.7 21.6-14.86 35.5-36.57 49.82-4.81-7.59-8.02-11.23-13.9-16.25 14.22-7.48 22.45-15.08 27.8-25.87 2.67-5.45 3.85-9.3 5.35-18.28h-13.36c-7.16 0-9.41.11-14.43.64l-.11-18.28c5.35.75 7.27.85 14.86.85h14.75Zm83.61 18.49c5.03.75 10.8.96 21.92.96h51.11c10.69 0 14.75-.21 21.92-.96v20.64c-5.13-.53-9.84-.64-22.03-.64h-50.89c-11.97 0-15.5.11-22.03.64v-20.64Zm129.8 57.42c.43-4.49.54-7.59.64-16.36v-62.23c-.11-9.19-.11-9.73-.75-15.5h20.63c-.43 2.78-.43 4.49-.53 15.61v14.65c16.89 5.45 33.68 13.04 48.65 22.24l-10.16 18.18c-8.87-6.31-21.28-13.15-33.68-18.6-3.21-1.28-3.53-1.39-3.85-1.6-.32-.11-.53-.21-.96-.53v27.8c0 7.91.21 13.58.64 16.36h-20.64Zm48.33-88.1c4.17 4.7 7.59 9.62 10.58 15.29l-10.16 4.92c-3.53-6.74-6.31-10.69-10.58-15.61l10.16-4.6Zm14.22-6.42c3.96 4.28 6.95 8.34 10.69 14.86l-9.84 4.81c-3.74-6.74-6.74-11.01-10.48-15.29l9.62-4.38Zm57.73 84.9v7.38h-19.46c.64-5.88.86-9.52.86-17.43v-54.96c0-4.6-.11-7.91-.43-12.3 3.74.32 5.88.43 12.94.43h57.63c6.63 0 8.23 0 13.26-.43-.21 3.74-.32 7.59-.32 12.62v54.21c0 8.23.21 13.36.75 17.64h-19.35v-7.16h-45.87Zm45.87-59.77h-45.87v42.66h45.87v-42.66Zm47.89 11.97c5.03.75 10.8.96 21.92.96h51.11c10.69 0 14.75-.21 21.92-.96v20.64c-5.13-.53-9.84-.64-22.03-.64h-50.89c-11.97 0-15.5.11-22.03.64v-20.64Zm128.94-31.64c13.47 7.91 20.42 12.83 29.4 20.96l-12.62 16.68c-9.3-9.73-18.39-16.79-29.08-22.56l12.3-15.08Zm-11.23 66.4c10.91-.86 22.13-3.53 32.18-7.7 13.47-5.56 23.09-13.58 31.33-26.41 4.49-6.84 7.38-12.72 10.48-20.96 5.24 6.31 7.7 8.45 15.72 14.33-9.73 21.06-19.89 33.68-34.86 43.3-11.55 7.48-21.7 11.44-41.59 16.04-4.17.96-4.81 1.07-7.7 1.92l-5.56-20.53Zm132.26-7.49c.64 3.53 1.28 5.03 2.99 6.84 2.89 2.99 7.16 4.6 12.3 4.6 8.34 0 13.58-4.17 13.58-10.69 0-4.38-2.14-7.8-5.77-9.19-2.46-.86-5.77-1.39-9.94-1.39s-8.98.21-13.15.64v-18.39c3.63.43 7.16.64 11.33.64 10.16 0 15.18-3.42 15.18-10.26 0-5.77-4.06-9.09-11.12-9.09-7.59 0-11.44 2.99-13.04 9.84l-23.09-3.31c2.03-6.63 3.74-9.84 7.16-13.58 6.52-7.06 16.36-10.69 29.4-10.69 11.65 0 21.28 3.21 27.37 9.09 3.96 3.96 5.99 9.09 5.99 15.18 0 11.33-6.09 18.39-18.39 21.28 6.52.96 10.05 2.46 13.79 5.67 4.49 4.06 7.06 9.62 7.06 15.82 0 5.45-1.5 10.48-4.28 14.22-2.35 3.21-6.09 6.2-10.05 8.02-5.56 2.57-14.22 4.17-22.24 4.17-9.62 0-19.25-2.25-24.91-5.99-4.92-3.21-8.66-7.91-11.01-13.79-.64-1.5-1.07-2.89-1.82-5.67l22.67-3.96Zm99.32 9.41c3.31 4.81 6.09 6.52 11.44 7.27-2.99-3.64-3.53-4.28-8.34-8.66 6.42-1.18 9.94-2.14 15.08-3.96h-8.23c-3.85 0-5.45.11-7.59.43v-12.4c2.35.32 3.42.43 7.38.43h5.45v-4.7h-.96c-5.88 0-7.16.11-10.05.43v-12.08c2.78.32 3.96.32 10.05.32h.96v-3.85c-6.09 0-8.34-.21-9.94-.86-2.57-1.07-3.64-2.99-3.64-6.42v-11.33l-10.48 10.48c-5.99-8.02-9.84-12.19-18.5-19.57l11.97-11.65c7.27 5.99 12.19 10.8 17 16.36 2.67.21 3.31.21 7.81.21h9.84v-3.1h-10.16c-4.81 0-6.31 0-8.98.32v-11.97c2.78.21 5.77.32 9.19.32h15.08c5.56 0 7.16 0 9.52-.21-.32 1.07-.32 1.92-.32 3.74l.11 2.14v11.44c0 3.1 0 4.81.21 6.2-2.57-.11-4.71-.21-7.16-.21h-11.55v2.35c0 1.6.32 1.82 3.31 1.82 1.92 0 3.21-.21 3.74-.53.32-.32.64-1.39.64-2.78V423c4.7 1.71 8.02 2.57 12.4 3.1-.75 6.42-1.5 7.91-4.81 9.52v5.13h11.33v-4.6c-3.21-1.07-4.6-3.21-4.6-6.63v-8.66q0-3.31-.32-6.95c2.67.21 3.53.21 8.13.21h9.73v-3.1h-9.09c-4.81 0-6.31 0-8.98.32v-11.97c2.78.21 5.77.32 9.2.32h14.65c5.56 0 7.16 0 9.52-.21-.21 1.28-.21 2.03-.21 3.64v13.69c0 3.21 0 4.81.21 6.2-2.57-.11-4.7-.21-7.16-.21h-11.33v2.46c0 1.39.75 1.82 3.63 1.82 1.82 0 3.42-.21 3.85-.64q.32-.32.64-2.14v-1.28c3.96 1.39 8.02 2.25 13.37 2.89-.54 5.56-1.5 7.8-3.85 9.2-1.92 1.18-4.38 1.5-12.19 1.71v3.96h3.53c5.99 0 7.16 0 9.94-.32v12.08c-2.99-.32-4.17-.43-9.94-.43h-3.42v4.7h5.45c6.09 0 7.27 0 10.16-.32v12.19c-3.1-.32-4.28-.32-10.16-.32h-7.38c5.99 1.92 10.05 2.89 17.43 3.74-2.99 3.1-3.31 3.64-6.31 8.23 2.57-.21 4.17-.43 8.98-1.07-2.14 5.77-3.1 10.16-3.96 16.79-9.41.32-24.59.53-40.74.53s-21.92-.53-27.05-2.35c-4.28-1.5-7.38-3.64-11.12-7.81-4.6 4.17-6.52 5.67-14.22 11.23l-6.95-17.21c3.1-1.07 7.38-3.74 12.94-8.13V452.1h-4.38c-2.35 0-3.85.11-6.63.53v-16.14c2.99.43 4.7.53 8.77.53h10.26c4.38 0 5.35 0 8.02-.32-.21 3.1-.21 4.17-.21 11.97v25.02Zm35.28-.54c-5.99 3.74-11.12 6.2-17.75 8.45 3.42.11 8.23.21 13.04.21 5.77 0 17.75-.32 23.52-.64-5.24-1.71-9.41-3.74-16.04-8.02l6.84-4.81h-17l7.38 4.81Zm-4.81-16.36h11.33v-4.7h-11.33v4.7Z"/><path class="cls-2" d="M317.57 293.71c3.09 5.91 5.65 9.62 10.15 14.47 6.18 6.62 12.27 11.3 19.86 15.27-3.09 4.41-4.77 7.59-7.15 13.59-6.18-4.06-9.36-6.62-13.77-10.86v7.94c-2.82-.26-5.47-.44-8.83-.44h-6.35v4.68c0 4.41.18 8.38.62 11.83h-15.18c.35-3.53.62-7.5.62-11.83v-4.68h-5.74c-3.27 0-6.09.18-8.74.44V326c-5.03 5.03-8.12 7.68-13.42 11.21-2.47-6.18-3.97-9.09-6.97-13.15 7.33-4.41 13.15-9.44 18.89-16.24 4.06-4.77 6.18-7.85 9.44-14.12h-14.3c-4.32 0-7.68.18-11.3.62v-13.94c3.53.44 6.97.62 11.3.62h20.83v-5.38c0-3.88-.18-6.09-.62-8.3H312c-.44 2.12-.53 4.41-.53 8.3V281h21.71c4.59 0 8.12-.18 11.47-.62v13.94c-3.79-.44-6.97-.62-11.47-.62h-15.62Zm-20.03 19.68c0-2.74.09-4.59.35-7.59-3.18 6-5.91 10.06-10.77 15.8h10.42v-8.21Zm21.36 8.21h3.35c-4.59-5.29-7.77-9.8-11.21-15.89.35 5.03.44 6 .44 7.5v8.38h7.41Zm77.84-44.84c0-3.71-.18-6.62-.53-9.53h14.74c-.35 2.47-.53 5.47-.53 9.53v21.36h15.62l-10.15-5.91c5.38-7.33 8.12-12.27 12.09-21.8l12.97 5.91c-4.77 9.35-7.94 14.83-12.8 21.8h4.59c3.27 0 4.59-.09 7.15-.35-.26 2.29-.35 4.5-.35 7.94v33.89c0 5.12.18 8.38.53 11.12h-14.12v-3.97h-48.54c-4.77 0-8.38.18-10.94.53v-13.24c2.65.35 5.38.44 10.33.44h49.34v-6.27h-47.31c-4.5 0-6.8.09-9.09.26v-12.36c1.94.26 4.5.35 8.91.35h47.48v-5.82h-48.98c-4.24 0-6.97.09-9.97.35v-13.42c3.35.35 5.91.53 9.97.53h2.21c-4.15-8.56-7.94-14.65-13.15-21.18l11.74-6.53c6.53 8.65 10.15 14.21 13.86 21.71l-11.39 6h16.33v-21.36Zm83.11 11.3c-2.66 7.78-4.71 20.54-5.19 32.97l5.26 1.77c-1.78 6.14-2.66 12.29-2.66 19.11 0 1.3 0 1.91.21 3.34l-11.74.55c-.07-1.3-.07-1.84-.34-3.62-1.3-9.15-1.77-15.08-1.77-21.57 0-7.85.82-16.45 2.59-26.28.82-4.78.89-5.26 1.02-7.3l12.63 1.02Zm18.84 29.83c-3.14 4.03-4.57 6.96-4.57 9.42 0 3.14 3.07 4.85 8.87 4.85s11.81-.96 16.99-2.8l.68 12.08q-1.77.2-5.8.82c-3.69.55-7.92.89-11.81.89-6.35 0-10.58-.89-14.13-2.87-3.82-2.18-6.28-6.42-6.28-10.85 0-3.34 1.16-7.1 3.28-10.65.96-1.57 1.37-2.25 3.21-4.91l9.56 4.03Zm-13.38-24.64c3.21.68 6.83 1.02 12.15 1.02 9.08 0 15.77-.55 20.34-1.71l.48 11.67c-.61 0-1.3.07-5.05.48-4.71.48-9.69.75-14.4.75-4.16 0-7.58-.14-11.74-.55-.55-.07-1.02-.07-1.98-.14l.21-11.53Z"/><path class="cls-6" d="M587.85 293.53c-1.32.18-1.59.18-3.35.53-3.44.62-9 1.32-13.33 1.77v7.77c5.12-1.15 8.21-1.5 12.88-1.5 10.86 0 18.98 2.74 24.09 8.03 3.88 3.97 6 9.53 6 15.62 0 12.44-9.44 21.8-21.98 21.8-10.94 0-17.3-7.33-17.3-20.03v-2.21c6.44-1.85 8.56-2.74 13.41-5.38-.09 1.85-.18 2.82-.18 4.68 0 2.74.18 4.24.71 5.56a4.129 4.129 0 0 0 3.88 2.65c3.79 0 6.35-3.09 6.35-7.59 0-3-1.59-5.91-4.32-7.77-2.38-1.5-5.83-2.29-10.5-2.29-4.32 0-7.94.44-12.97 1.77l.09 15.62v2.29c0 5.38-.35 7.33-1.68 9.18-1.68 2.47-5.03 3.88-9 3.88-6.53 0-14.03-2.74-19.06-6.97-3.62-3.09-5.74-7.24-5.74-11.47 0-4.77 2.91-9.97 8.21-14.65 3.53-3.09 7.24-5.3 13.15-7.85v-10.41l-6.71.18-8.56-.18c-.27 0-1.06 0-1.85.09l-.18-13.86c2.82.53 6.44.79 12.09.79h3.35q1.24-.09 1.76-.09v-2.82c0-6.62-.09-8.65-.62-11.91h15.27c-.44 3.18-.53 5.21-.53 11.03v2.82c6-.62 11.47-1.68 16.15-3l.44 13.94Zm-30.63 27.98c-4.15 1.94-7.33 5.38-7.33 7.85 0 1.06.62 1.94 1.94 2.82 1.24.79 2.91 1.41 3.97 1.41 1.15 0 1.41-.62 1.41-3.53v-8.56Zm49.34-19.42c-4.5-7.85-9.53-13.86-17.39-20.74l11.65-7.85c7.5 6.09 12.97 12.27 17.39 19.5l-11.65 9.09Zm26.74-23.65c2.21.18 3.18.26 5.38.26 2.38 0 26.12-.62 34.33-.88-.09-5.65-.18-6.8-.62-9.35h15.62c-.35 3.09-.44 4.06-.44 9 14.65-.09 21.18-.27 24.71-.62l.09 14.47c-3.97-.35-5.74-.44-15.89-.44-4.68 0-5.29 0-8.83.09v13.06c2.56 4.68 3.53 8.83 3.53 14.74 0 9.88-5.12 18.53-14.56 24.45-4.32 2.65-9.36 4.68-17.74 7.15-2.47-6.27-4.41-9.53-8.38-13.94 8.91-1.32 13.94-2.74 18.18-5.38 3.27-1.94 5.12-3.88 6.53-6.97-3.71 3.09-6.71 4.15-11.83 4.15-10.24 0-17.47-6.71-17.47-16.15 0-10.06 8.3-16.95 20.47-16.95 2.82 0 4.85.26 6.88.97v-2.74q0-1.24-.09-2.12c-18.27.53-32.65 1.32-39.45 2.29l-.44-15.09Zm27.45 32.92c0 2.74 2.47 4.77 5.83 4.77 3.79 0 6.71-2.29 6.71-5.3 0-2.74-2.29-4.59-5.83-4.59-3.88 0-6.71 2.12-6.71 5.12Zm67.16-32.92c2.21.18 3.18.26 5.38.26 2.38 0 26.12-.62 34.33-.88-.09-5.65-.18-6.8-.62-9.35h15.62c-.35 3.09-.44 4.06-.44 9 14.65-.09 21.18-.27 24.71-.62l.09 14.47c-3.97-.35-5.74-.44-15.89-.44-4.68 0-5.29 0-8.83.09v13.06c2.56 4.68 3.53 8.83 3.53 14.74 0 9.88-5.12 18.53-14.56 24.45-4.32 2.65-9.36 4.68-17.74 7.15-2.47-6.27-4.41-9.53-8.38-13.94 8.91-1.32 13.94-2.74 18.18-5.38 3.27-1.94 5.12-3.88 6.53-6.97-3.71 3.09-6.71 4.15-11.83 4.15-10.24 0-17.47-6.71-17.47-16.15 0-10.06 8.3-16.95 20.47-16.95 2.82 0 4.85.26 6.88.97v-2.74q0-1.24-.09-2.12c-18.27.53-32.65 1.32-39.45 2.29l-.44-15.09Zm27.45 32.92c0 2.74 2.47 4.77 5.83 4.77 3.79 0 6.71-2.29 6.71-5.3 0-2.74-2.29-4.59-5.83-4.59-3.88 0-6.71 2.12-6.71 5.12Zm90.63-39.28c.09 4.32.79 8.74 1.85 13.06 4.68-1.77 10.06-2.74 15.09-2.74h1.94c1.85-7.68 2.21-9.8 2.29-13.06l15.53 2.91c-.35.79-.88 2.47-1.59 4.94-1.32 4.59-1.94 7.06-2.03 7.33 5.21 1.59 8.3 3.18 11.74 6.09 6.62 5.56 10.06 13.15 10.06 22.33 0 14.03-7.85 25.33-21.36 30.8-4.77 1.94-9.18 3.27-15.89 4.59-1.76-6.18-3.44-9.62-7.06-14.74 9.27-.79 16.33-2.82 20.74-5.82 5.47-3.79 8.12-9.09 8.12-16.06s-3.18-11.47-10.15-14.39c-4.77 13.86-9.27 23.21-14.92 30.8-7.33 9.88-14.03 14.39-21.53 14.39-10.68 0-17.92-9.18-17.92-22.68 0-11.21 4.94-21.09 14.21-28.15-1.06-4.24-1.59-6.44-2.56-11.3-.62-3-.79-3.53-1.59-5.38l15-2.91Zm-11.38 46.78c0 5.38 1.94 8.74 4.94 8.74 1.76 0 3.62-1.24 5.47-3.71-2.74-5.91-4.24-10.15-6.09-17.12-2.65 3.27-4.32 7.94-4.32 12.09Zm19.95-7.68c3.18-6.09 4.68-9.71 6.53-15.62-4.5.18-7.24.79-10.68 2.47 1.24 5.12 2.29 8.3 4.15 13.15Z"/><path class="cls-2" d="M948.42 328.6c-3.96 8.74-8.53 12.56-14.74 12.56-9.15 0-15.56-8.74-15.56-21.23 0-7.99 2.73-15.22 7.85-20.82 6.01-6.55 14.67-10.03 24.71-10.03 9.15 0 17.2 3.07 22.25 8.4 4.37 4.64 6.69 11.26 6.69 18.97 0 8.87-3.34 16.93-9.08 22.05-4.64 4.16-10.03 6.35-19.59 7.85-1.64-4.91-2.93-7.37-5.8-11.19 6.42-.48 10.65-1.57 14.33-3.48 5.26-2.8 8.19-8.53 8.19-15.83 0-5.8-2.05-10.44-6.01-13.45-1.77-1.37-3.28-1.98-5.73-2.39-1.5 11.74-3.82 20.54-7.51 28.6Zm-11.74-24.98c-4.5 3.82-7.44 10.17-7.44 16.24 0 4.85 1.84 8.67 4.23 8.67 1.71 0 3.48-2.39 5.53-7.58 2.39-6.14 4.37-14.06 5.12-20.82-2.87.41-5.05 1.43-7.44 3.48ZM239.1 160.35l27.63 46.63A30.632 30.632 0 0 0 293.08 222h269.66c7.07 0 13.92 2.44 19.39 6.92l23.49 19.21 19.56-21.31a30.664 30.664 0 0 1 24.13-9.88l325.68 16.69c15.26.78 28.77-9.81 31.65-24.81l11.95-62.21c3.64-18.95-10.95-36.51-30.25-36.41l-723.07 3.91c-23.66.13-38.25 25.89-26.19 46.24Z"/><path class="cls-6" d="M366.7 166.46c-2.25-.97-4.32-2.12-6.23-3.26v3.47h-20.46v-3.39c-1.74 1.14-4.19 2.63-6.78 3.77l-2.63-4.07c11.48-4.15 17.66-11.99 17.66-11.99h3.35s6.86 7.67 17.88 11.44l-2.8 4.02Zm-1.53 8.34c-2.29 5.21-8.3 11.1-17.83 14.66l-3.05-4.07c9.11-2.75 13.51-6.65 15.5-9.78h-24.74v-3.9h30.12v3.09Zm-5.08-11.82c-5.12-3.05-9.95-7.88-9.95-7.88s-4.07 4.15-9.74 7.88h19.7Zm22.37 22.49c4.19-.68 9.36-2.8 10.33-7.5-1.14.59-2.54.93-3.98.93-6.1 0-6.74-5.59-6.74-6.95 0-1.82.89-7.67 7.29-7.67 1.02 0 1.95.21 2.75.55 0-1.06-.04-2.5-.08-4.19-6.74.04-13.43.13-18.38.21l-.04-4.19c4.28.08 11.22.13 18.34.13-.04-1.4-.04-2.88-.08-4.41l4.79.13a138.3 138.3 0 0 0-.08 4.28c5.17 0 10.21-.04 13.81-.08l-.08 4.19c-4.96-.21-13.64-.25-13.77-.25v2.16c0 2.16.04 4.19.13 5.8.8 1.61 1.27 3.73 1.27 5.97 0 5.97-3.26 12.96-12.5 15.04l-2.96-4.15Zm10.12-14.57c0-2.84-2.46-2.92-2.88-2.92-1.74 0-3.43 1.44-3.43 3.6 0 1.65 1.06 3.3 3.01 3.3.17 0 .34 0 .51-.04 1.95-.3 2.8-2.29 2.8-3.94Zm43.72 18.9c-5.21-5.85-15.46-13.22-20.97-16.48-1.82-1.06-2.63-2.37-2.63-3.6s.85-2.5 2.37-3.43c3.77-2.29 13.39-9.23 19.19-15.12l3.81 3.85c-6.27 5.08-12.41 9.49-17.96 13-1.02.64-1.57 1.1-1.57 1.52s.55.85 1.65 1.52c4.96 2.96 13.81 9.06 20.04 14.32l-3.94 4.41Zm4.02-23.04c-1.23-1.48-2.8-3.05-4.28-4.41l2.29-1.91c1.52 1.27 3.09 2.75 4.41 4.24l-2.41 2.08Zm3.73-2.96a34.59 34.59 0 0 0-4.28-4.28l2.25-1.82c1.57 1.23 3.05 2.67 4.36 4.07l-2.33 2.03Z"/><path d="M450 181.41c7.63-7.93 12.8-19.62 14-30.11l6.07 1.1c-2.16 11.39-7.28 23.44-13.95 32.27l-6.12-3.26Zm41.4 2.06c-2.51-9.64-7.68-22.23-13-30.71l5.32-2.01c5.52 9.28 9.99 19.02 13.7 29.66l-6.02 3.06Zm.65-26.35c-1.51-1.76-3.31-3.61-5.12-5.17l2.76-2.31c1.76 1.56 3.66 3.26 5.17 5.07l-2.81 2.41Zm4.42-3.51c-1.46-1.71-3.21-3.46-5.07-5.07l2.66-2.16c1.81 1.51 3.61 3.16 5.12 4.87l-2.71 2.36Zm48.73 12.24c-7.98 8.93-19.02 16.96-34.73 22.03l-3.92-3.41c.15-6.67.25-14.35.25-21.58 0-5.77-.05-11.29-.25-15.81l6.17.15c-.6 9.99-.75 24.59-.75 33.73 10.89-2.91 22.48-10.44 30.06-19.52l3.16 4.42Zm15.71 19.48c4.97-.8 11.09-3.31 12.25-8.88-1.36.7-3.01 1.1-4.72 1.1-7.23 0-7.98-6.62-7.98-8.23 0-2.16 1.05-9.08 8.63-9.08 1.2 0 2.31.25 3.26.65 0-1.25-.05-2.96-.1-4.97-7.98.05-15.91.15-21.78.25l-.05-4.97c5.07.1 13.3.15 21.73.15-.05-1.66-.05-3.41-.1-5.22l5.67.15c-.05 1.56-.1 3.26-.1 5.07 6.12 0 12.1-.05 16.36-.1l-.1 4.97c-5.87-.25-16.16-.3-16.31-.3v2.56c0 2.56.05 4.97.15 6.88.95 1.91 1.51 4.42 1.51 7.08 0 7.08-3.86 15.36-14.8 17.82l-3.51-4.92Zm12-17.26c0-3.36-2.91-3.46-3.41-3.46-2.06 0-4.07 1.71-4.07 4.27 0 1.96 1.25 3.91 3.56 3.91.2 0 .4 0 .6-.05 2.31-.35 3.31-2.71 3.31-4.67Zm12.9-17.46c-1.1-2.01-2.51-4.22-3.91-6.12l3.06-1.66c1.46 1.86 2.91 3.91 4.07 5.92l-3.21 1.86Zm5.92-1.31a46.19 46.19 0 0 0-4.01-5.97l3.06-1.56c1.5 1.81 2.91 3.81 4.12 5.77l-3.16 1.76Zm20.11 25.34c-1.96 4.52-3.01 9.03-4.42 11.54-.75 1.36-1.56 2.01-2.31 2.01-2.46 0-4.07-6.37-4.07-15.51 0-7.33.95-16.26 2.71-25.09l5.42.95c-2.51 8.13-3.26 18.07-3.26 23.29 0 3.41.25 4.77 1 4.77.5 0 1.3-1 2.56-4.06l2.36 2.11Zm28.46 10.74c-3.01.35-6.37.55-9.54.55-5.82 0-15.11 0-15.11-8.58 0-1.35.25-2.81.75-4.42l4.72.95c-.35.85-.5 1.66-.5 2.41 0 4.06 3.86 4.57 8.38 4.57 3.46 0 7.63-.4 11.29-1.1v5.62Zm-1-29.06c-4.42.25-8.98.45-13.35.45-2.81 0-5.57-.05-8.18-.25l-.15-5.22c2.66.4 6.47.6 10.34.6 4.07 0 8.18-.2 11.34-.65v5.07Z" style="fill:#f15a24"/><path class="cls-6" d="M653.64 190.04v-26.1c-1.51 2.26-3.11 4.32-3.11 4.32l-2.56-4.87c4.87-5.02 8.63-12.7 10.09-18.42l4.52 1.41c-1.2 4.01-2.51 7.53-4.06 10.59v33.07h-4.87Zm7.18-25.75v-4.32h7.53v-5.77h-5.82v-4.12h5.82v-4.72h4.77v4.72h7.78v-4.72h4.77v4.72h5.92v4.12h-5.92v5.77h7.48v4.32h-32.32Zm24.19 25.75v-2.01h-15.96v2.01h-4.87v-22.33h25.7v22.33h-4.87Zm0-18.17h-15.96v3.96h15.96v-3.96Zm0 7.53h-15.96v4.42h15.96v-4.42Zm-4.12-25.19h-7.78v5.77h7.78v-5.77Zm33.72 8.18c-2.01 3.41-3.91 7.38-5.67 10.74-.75 1.41-1.81 2.41-2.76 2.41-2.01 0-2.56-3.91-2.56-10.19 0-5.92.5-13.3.95-18.12l5.62.5c-.8 4.12-1.61 10.59-1.61 14.1v.3c0 1.56.2 2.21.65 2.21.6 0 1.66-1.41 3.21-3.86l2.16 1.91Zm-2.81 22.08c8.83-.4 16.46-4.17 17.31-13.85.15-1.61.2-3.31.2-5.17 0-5.57-.5-12.15-.9-18.87l5.72-.05v.9c0 7.38.45 14.75.45 20.17s-.05 18.52-19.32 22.33l-3.46-5.47Zm32.07 2.11c3.21-6.57 7.33-17.57 9.99-28.05-2.81.15-5.52.2-7.78.25l-.25-4.97c1.2.1 2.71.1 4.47.1 1.46 0 3.01 0 4.67-.05.65-2.96 1.15-5.87 1.41-8.58l5.52.45c-.5 2.56-1.1 5.17-1.71 7.88 3.36-.2 6.67-.5 9.18-.9l-.25 4.87c-2.81.25-6.37.5-10.04.7-2.66 10.54-6.12 21.48-9.94 31.07l-5.27-2.76Zm41.3.85c-3.66.25-7.78.45-11.19.45-4.42 0-13.05 0-13.05-7.83 0-1.41.25-2.96.75-4.62l4.87.8c-.4 1.1-.6 2.06-.6 2.81 0 3.66 4.17 3.81 7.18 3.81 3.41 0 8.13-.3 11.69-.8l.35 5.37Zm-.9-20.63c-3.01-.35-6.27-.5-9.54-.5s-6.57.15-9.69.45l-.3-4.87c2.91-.15 6.02-.25 9.13-.25 3.56 0 7.13.1 10.59.35l-.2 4.82Zm29.25 8.54c-3.81 8.58-5.92 12.04-9.79 12.04-7.63 0-8.03-14.45-8.03-18.87 0-6.47.85-13.8 2.36-20.33l5.52 1.1c-1.66 5.92-2.71 13.8-2.71 20.33 0 3.76.45 11.09 2.91 11.09 2.01 0 4.67-6.22 5.67-9.28l4.06 3.91Zm18.02 3.91c-.45-6.98-4.77-18.07-8.83-22.68l4.57-2.56c4.47 5.42 8.88 15.36 9.89 23.59l-5.62 1.66Zm31.12 5.42c1.19 0 2.25.04 3.13.04 5 0 5.72-.89 5.72-12.33h-14.95c-.85 7.29-3.3 12.03-10.8 17.07l-3.05-3.64c9.87-5.55 10.29-12.2 10.29-23.51h-9.91v-3.81h16.18v-6.48h4.32v6.48h16.01v3.81h-22.41c0 2.33-.13 4.41-.25 6.27h18.89c0 19.23-1.06 20.29-11.48 20.29l-1.69-4.19Zm57.73-1.61c-7.07-5.29-15.63-13.98-19.87-18.93-.89-1.02-1.52-1.48-2.08-1.48-.59 0-1.14.51-1.82 1.44-2.08 2.84-6.06 7.75-9.02 11.23l-3.22-4.36c3.64-3.09 7.84-8.22 9.83-10.97 1.27-1.78 2.63-2.63 4.07-2.63 1.36 0 2.8.8 4.28 2.41 6.31 6.78 13.13 13.6 20.76 18.72l-2.92 4.57Z"/><path d="M114.93 289.5c-47.2 7.97-51.79 14.44-57.46 80.84-5.67-66.4-10.26-72.86-57.46-80.84 47.2-7.97 51.79-14.44 57.46-80.84 5.67 66.4 10.26 72.86 57.46 80.84Zm1077.57-208c-29.6 5-32.48 9.05-36.04 50.69-3.55-41.64-6.44-45.69-36.04-50.69 29.6-5 32.48-9.05 36.04-50.69 3.55 41.64 6.44 45.69 36.04 50.69Z" style="fill:#7fc4f7"/><path class="cls-2" d="M904.96 370h-373l10-10h373l-10 10z"/><rect class="cls-2" x="874.76" y="13.73" width="134.25" height="83.39" rx="7.93" ry="7.93" transform="rotate(-14.48 941.919 55.43)"/><path style="fill:#6b6666" d="m878.87 43.75 8.99 1.6-1.9-7.37-7.09 5.77z"/><path d="M980.54 235.15c-.56-21.99-4.89-29.88-13.12-50.94-9.09-3.27-16.73-10.39-20.65-19.22-3.54-7.99-4.05-16.98-6.83-25.27-2.24-6.69-5.99-13.02-6.5-20.06-.24-3.3.21-6.79-1.23-9.76-1.12-2.32-3.39-4.41-2.96-6.95.34-2.01 2.43-3.39 4.47-3.48s4 .82 5.71 1.94c8.74 5.7 12.7 16.28 16.11 26.14 4.42-11.79 8.84-23.57 12.92-35.38l25.41-6.78c-1.84-3.2-3.74-6.65-3.44-10.33s3.89-7.29 7.39-6.14c1.56.51 2.72 1.81 3.8 3.05 4.01 4.6 8.01 9.2 12.02 13.8 1.79 2.06 3.62 4.17 4.62 6.71s1.04 5.63-.6 7.81c4.29 1.03 7.14 5.4 7.7 9.78.56 4.38-.7 8.77-2.09 12.96s-2.94 8.43-2.97 12.84c-.03 4.69 1.64 9.21 2.11 13.88.96 9.57-3.18 18.84-7.28 27.37 6.21 20.35 14.87 39.94 25.84 58.17l-.22-.34" style="fill:#f2d5b1"/></g></svg>