<?xml version="1.0" encoding="UTF-8"?><svg xmlns="http://www.w3.org/2000/svg" viewBox="0 0 186 193.66"><defs><style>.cls-1{fill:#fff;}.cls-2{fill:#fcd33f;}.cls-3{fill:#fddc65;}.cls-4{fill:#c51717;}.cls-5{fill:#dfeaf2;}.cls-6{fill:#c1272d;}.cls-6,.cls-7,.cls-8{mix-blend-mode:multiply;}.cls-7{fill:#333;}.cls-8{fill:#feefba;}.cls-9{fill:#fcbe31;stroke:#333;stroke-miterlimit:10;}.cls-10{isolation:isolate;}</style></defs><g class="cls-10"><g id="Layer_2"><g id="PC"><g><path class="cls-5" d="m93,0C41.64,0,0,41.64,0,93c0,24.8,9.71,47.34,25.54,64.01-3.19,7.15-16.69,36.14-25.54,35.72,0,0,25.6,6.51,54.79-14.91,11.66,5.26,24.59,8.19,38.21,8.19,51.36,0,93-41.64,93-93S144.36,0,93,0Z"/><path class="cls-7" d="m126.23,34.06l-.09.11c-10.44-6.66-22.83-10.54-36.13-10.54-37.15,0-67.27,30.12-67.27,67.27s30.12,67.27,67.27,67.27c.04,0,.08,0,.12,0,.04,0,.07,0,.11,0,37.15,0,67.27-30.12,67.27-67.27,0-23.92-12.48-44.92-31.28-56.84Z"/><g><circle class="cls-2" cx="90.01" cy="90.9" r="63.41"/><circle class="cls-3" cx="90.01" cy="90.9" r="51.07"/><path class="cls-9" d="m96.03,110.71l-.63,11.19-10.32,1.02v-12.21h-16.62v-6.7h16.62v-8.35h-16.62v-6.62h13.23l-16.94-28.44,12.76-1.73,12.52,28.59,18.04-28.04,7.4,2.36-15.2,27.25h12.84v6.62h-16.15l-.55,8.35h16.7v6.7h-17.09Z"/><path class="cls-8" d="m90.23,154.31c35.02,0,63.41-28.39,63.41-63.41,0-22.54-11.76-42.33-29.49-53.58l-83.28,93.37c11.62,14.4,29.41,23.61,49.36,23.61Z"/></g><g><path class="cls-1" d="m153.87,75.32c5.99,0,10.86,4.87,10.86,10.86v17.15c3.14.55,5.94,2.46,7.56,5.27,1.93,3.35,1.93,7.51,0,10.86l-14.44,25.01c-1.93,3.35-5.54,5.43-9.41,5.43s-7.47-2.08-9.41-5.43l-14.44-25.01c-1.93-3.35-1.93-7.51,0-10.86,1.62-2.81,4.42-4.73,7.56-5.27v-17.15c0-5.99,4.87-10.86,10.86-10.86h10.86Z"/><path class="cls-4" d="m129.29,116.76l14.44,25.01c.97,1.68,2.76,2.72,4.7,2.72h0c1.94,0,3.73-1.04,4.7-2.72l14.44-25.01c.97-1.68.97-3.75,0-5.43-.97-1.68-2.76-2.72-4.7-2.72h-3.58v-22.42c0-3-2.43-5.43-5.43-5.43h-10.86c-3,0-5.43,2.43-5.43,5.43v22.42h-3.58c-1.94,0-3.73,1.04-4.7,2.72-.97,1.68-.97,3.75,0,5.43Z"/><path class="cls-6" d="m135.33,127.21l23.97-23.97v-17.05c0-3-2.43-5.43-5.43-5.43h-10.86c-3,0-5.43,2.43-5.43,5.43v22.42h-3.58c-1.94,0-3.73,1.04-4.7,2.72-.97,1.68-.97,3.75,0,5.43l6.04,10.46Z"/></g></g></g></g></g></svg>