<?xml version="1.0" encoding="UTF-8"?>
<svg id="Layer_2" data-name="Layer 2" xmlns="http://www.w3.org/2000/svg" viewBox="0 0 894 248">
  <defs>
    <style>
      .cls-1 {
        opacity: .2;
      }

      .cls-1, .cls-2, .cls-3 {
        fill: #fff;
      }

      .cls-1, .cls-4, .cls-5, .cls-6, .cls-7, .cls-3 {
        stroke-width: 0px;
      }

      .cls-2 {
        stroke: #2f6b76;
      }

      .cls-2, .cls-8, .cls-9 {
        stroke-miterlimit: 10;
      }

      .cls-8 {
        stroke: #333;
        stroke-width: 4px;
      }

      .cls-8, .cls-9 {
        fill: none;
      }

      .cls-9 {
        stroke: #fff;
      }

      .cls-4 {
        fill: #2f6b76;
      }

      .cls-5 {
        fill: #d7e9f6;
      }

      .cls-6 {
        fill: #c51717;
      }

      .cls-7 {
        fill: #333;
      }
    </style>
  </defs>
  <g id="PC">
    <g>
      <rect class="cls-5" width="894" height="206.5"/>
      <g>
        <circle class="cls-1" cx="97.32" cy="101.05" r="71.32"/>
        <g>
          <path class="cls-2" d="m393.04,50.91h20.19v4.5c0,5.44-.11,10.29-.34,14.57-.23,4.27-.53,7.52-.9,9.73-.53,3-1.57,5.1-3.12,6.3-1.56,1.2-3.93,1.8-7.11,1.8h-7.2l-1.58-7.54h7.42c1.5,0,2.57-.24,3.21-.73.64-.49,1.03-1.46,1.18-2.92.22-1.8.42-4.36.59-7.68.17-3.32.25-6.38.25-9.2v-1.74h-12.88c-.67,7.5-2.55,13.67-5.62,18.5-3.08,4.84-7.48,9.02-13.22,12.54l-4.72-6.3c3.37-1.99,6.15-4.11,8.32-6.35,2.17-2.25,3.89-4.85,5.15-7.82,1.25-2.96,2.09-6.49,2.5-10.57h-14.51v-7.09h14.85v-9.56h7.54v9.56Z"/>
          <path class="cls-2" d="m472.78,69.36h-44.99v-7.87h44.99v7.87Z"/>
          <path class="cls-2" d="m501.64,42.64v15.07c3.49,1.24,7.56,2.87,12.23,4.89,4.67,2.02,9.16,4.14,13.47,6.36l-3.49,6.86c-3.67-1.99-7.53-3.85-11.56-5.6-4.03-1.74-7.58-3.16-10.66-4.25v23.62h-7.76v-46.96h7.76Zm15.13,13.83c-1.54-3.41-3.17-6.56-4.89-9.45l4.55-1.86c2.1,3.52,3.71,6.67,4.84,9.45l-4.5,1.86Zm7.2-2.81c-1.76-3.86-3.39-7.01-4.89-9.45l4.56-1.86c1.99,3.3,3.6,6.45,4.84,9.45l-4.5,1.86Z"/>
          <path class="cls-2" d="m551.58,87.3h-7.65v-41.84h42.18v41.84h-7.65v-4.16h-26.88v4.16Zm0-34.76v23.51h26.88v-23.51h-26.88Z"/>
          <path class="cls-2" d="m644.88,69.36h-44.99v-7.87h44.99v7.87Z"/>
          <path class="cls-2" d="m675.41,59.52c-4.95-3.49-10.5-6.64-16.65-9.45l3.99-6.92c2.66,1.2,5.49,2.64,8.49,4.33,3,1.69,5.89,3.45,8.66,5.29l-4.5,6.75Zm-15.52,19.74c6.6-1.16,12.11-2.87,16.53-5.12,4.42-2.25,8.17-5.28,11.25-9.08,3.07-3.81,5.83-8.71,8.27-14.71l6.92,4.39c-2.59,6.26-5.68,11.55-9.28,15.86-3.6,4.31-7.96,7.83-13.08,10.54-5.12,2.72-11.26,4.75-18.42,6.1l-2.19-7.99Z"/>
        </g>
        <g>
          <path class="cls-4" d="m390.29,47.25h20.19v4.5c0,5.44-.11,10.29-.34,14.57-.23,4.27-.53,7.52-.9,9.73-.53,3-1.57,5.1-3.12,6.3-1.56,1.2-3.93,1.8-7.11,1.8h-7.2l-1.58-7.54h7.42c1.5,0,2.57-.24,3.21-.73.64-.49,1.03-1.46,1.18-2.92.22-1.8.42-4.36.59-7.68.17-3.32.25-6.38.25-9.2v-1.74h-12.88c-.67,7.5-2.55,13.67-5.62,18.5-3.08,4.84-7.48,9.02-13.22,12.54l-4.72-6.3c3.37-1.99,6.15-4.11,8.32-6.35,2.17-2.25,3.89-4.85,5.15-7.82,1.25-2.96,2.09-6.49,2.5-10.57h-14.51v-7.09h14.85v-9.56h7.54v9.56Z"/>
          <path class="cls-4" d="m470.04,65.7h-44.99v-7.87h44.99v7.87Z"/>
          <path class="cls-4" d="m498.89,38.99v15.07c3.49,1.24,7.56,2.87,12.23,4.89,4.67,2.02,9.16,4.14,13.47,6.36l-3.49,6.86c-3.67-1.99-7.53-3.85-11.56-5.6-4.03-1.74-7.58-3.16-10.66-4.25v23.62h-7.76v-46.96h7.76Zm15.13,13.83c-1.54-3.41-3.17-6.56-4.89-9.45l4.55-1.86c2.1,3.52,3.71,6.67,4.84,9.45l-4.5,1.86Zm7.2-2.81c-1.76-3.86-3.39-7.01-4.89-9.45l4.56-1.86c1.99,3.3,3.6,6.45,4.84,9.45l-4.5,1.86Z"/>
          <path class="cls-4" d="m548.83,83.64h-7.65v-41.84h42.18v41.84h-7.65v-4.16h-26.88v4.16Zm0-34.76v23.51h26.88v-23.51h-26.88Z"/>
          <path class="cls-4" d="m642.13,65.7h-44.99v-7.87h44.99v7.87Z"/>
          <path class="cls-4" d="m672.67,55.86c-4.95-3.49-10.5-6.64-16.65-9.45l3.99-6.92c2.66,1.2,5.49,2.64,8.49,4.33,3,1.69,5.89,3.45,8.66,5.29l-4.5,6.75Zm-15.52,19.74c6.6-1.16,12.11-2.87,16.53-5.12,4.42-2.25,8.17-5.28,11.25-9.08,3.07-3.81,5.83-8.71,8.27-14.71l6.92,4.39c-2.59,6.26-5.68,11.55-9.28,15.86-3.6,4.31-7.96,7.83-13.08,10.54-5.12,2.72-11.26,4.75-18.42,6.1l-2.19-7.99Z"/>
        </g>
        <g>
          <rect class="cls-4" x="190.37" y="24.4" width="77.7" height="77.7"/>
          <path class="cls-3" d="m266.57,25.9v74.7h-74.7V25.9h74.7m3-3h-80.7v80.7h80.7V22.9h0Z"/>
        </g>
        <g>
          <rect class="cls-4" x="271.15" y="24.4" width="77.7" height="77.7"/>
          <path class="cls-3" d="m347.35,25.9v74.7h-74.7V25.9h74.7m3-3h-80.7v80.7h80.7V22.9h0Z"/>
        </g>
        <polyline class="cls-9" points="306.78 29.81 343.44 29.81 343.44 96.69 276.56 96.69 276.56 29.81 280.78 29.81"/>
        <polyline class="cls-9" points="223.06 96.69 195.78 96.69 195.78 29.81 200 29.81 226 29.81 262.66 29.81 262.66 96.69 243.86 96.69"/>
        <g>
          <path class="cls-3" d="m227.37,88.11c-6.71,1.25-14.71,2.23-24,2.94l-1.88-9.81c2.62-.12,5.71-.31,9.25-.56v-2.75l-6.19,2.12c-.88-3.46-1.88-6.67-3-9.62l6.75-2.37c.83,2.04,1.65,4.48,2.44,7.31v-8.25h-8.19v-8.5h8.12v-2.12h-3.94v-2.62c-.96.83-1.79,1.52-2.5,2.06l-3.25-9.75c4-3.29,7.04-7.19,9.12-11.69h10.06c1.54,3.67,4.46,7.5,8.75,11.5v-10.94h28.87v29.69h-2.81l5.87,5.19c-2.25,2.54-4.54,4.9-6.87,7.06,1.88,2.12,4.21,4.1,7,5.94l-8,8.31c-3.88-3.29-6.88-7.12-9-11.5v7.75c-5.29,1.71-10.67,2.87-16.12,3.5l-.5-2.87Zm-15.56-39.43h6.75c-1.25-1.62-2.35-3.25-3.31-4.87-.96,1.67-2.1,3.29-3.44,4.87Zm8,31.19c2.67-.29,5.27-.62,7.81-1v1.5c.29-.04.73-.08,1.31-.12v-33.06l-4.88,7.5v1.81h-4.25v2.12h7.5v8.5h-7.5v7.75c.71-2.12,1.35-4.44,1.94-6.94l6.44,1.81c-.67,2.54-1.62,5.42-2.88,8.62l-5.5-1.31v2.81Zm18.37-.94c1.75-.33,3.4-.71,4.94-1.12-1.5-3.58-2.65-7.94-3.44-13.06h-1.5v14.19Zm9.62-32.19v-2.75h-9v2.75h9Zm0,10.12v-2.88h-9v2.88h9Zm.38,7.87c.29,1.67.71,3.23,1.25,4.69,1.42-1.42,2.81-2.98,4.19-4.69h-5.44Z"/>
          <path class="cls-3" d="m298.36,90.67h-10.56v-20.44c-1.04.79-2.33,1.73-3.87,2.81l-5.69-9.12c6.83-4.42,12.83-9.56,18-15.44l6.31,5.06v-1.06h35.06v9.69h-7.69v18.44c0,3.96-.71,6.56-2.12,7.81-1.29,1.08-3.94,1.62-7.94,1.62h-8.12l-3.37-10.06h8.06c1.08,0,1.77-.2,2.06-.59.29-.4.44-1.05.44-1.97v-15.25h-16.37v-5.62c-1.21,1.42-2.6,2.92-4.19,4.5v29.62Zm3.94-51.56c-4.04,5.5-9.62,10.9-16.75,16.19l-6.44-8.25c5.71-3.75,10.56-8.21,14.56-13.37l8.62,5.44Zm33.06,7.37h-30.69v-9.94h30.69v9.94Z"/>
        </g>
        <g>
          <path class="cls-6" d="m264.2,137.22c1.97-9.38,9.71-16.54,22.63-16.54,11.77,0,20.49,5.68,20.49,16.21,0,5.18-3.37,11.68-12.59,14.23,9.21,1.65,14.97,6.99,14.97,16.87,0,10.78-8.88,18.92-23.53,18.92-12.34,0-19.91-4.69-24.35-15.22l14.81-5.59c.66,6.09,3.62,10.45,9.13,10.45s7.32-3.95,7.32-8.06c0-6.58-4.85-9.46-11.27-9.46h-5.68l2.55-11.93h4.11c5.68,0,9.38-3.7,9.38-9.05,0-4.85-3.29-7.24-6.91-7.24-4.11,0-6.75,2.71-7.98,9.38l-13.08-2.96Z"/>
          <path class="cls-6" d="m327.04,163.64l-4-8.18.19-.56c17.11-7.93,28.47-11.68,36.53-11.68,11.55,0,19.23,6.81,19.23,18.42,0,9.8-6.68,16.3-12.67,18.98-4.93,2.25-11.18,3.68-18.73,4.31-1,0-1.31,0-1.69-.62l-5-8.37c7.37-.37,13.61-1.31,19.17-3.56,6.24-2.5,8.55-6.18,8.55-12.05,0-4.81-3.12-7.93-9.37-7.99-6.62-.06-15.92,3.37-31.59,11.49l-.62-.19Z"/>
        </g>
        <path class="cls-8" d="m228.56,171.47h-96.27c-3.33,0-6.03-2.7-6.03-6.03v-97.45c0-3.29,2.67-5.96,5.96-5.96h16.82"/>
        <path class="cls-8" d="m752.94,62.03h41.34c4.27,0,7.73,3.46,7.73,7.73v94.97c0,3.73-3.02,6.75-6.75,6.75h-104.7"/>
        <rect class="cls-7" x="235.07" y="166.32" width="8.23" height="8.23"/>
        <rect class="cls-7" x="154.61" y="58.42" width="8.23" height="8.23"/>
        <rect class="cls-7" x="737.99" y="58.42" width="8.23" height="8.23"/>
        <rect class="cls-7" x="677.64" y="167.23" width="8.23" height="8.23"/>
        <polygon class="cls-7" points="449.63 106 445.64 108.92 459.58 123.22 449.63 106"/>
        <polygon class="cls-7" points="495.41 113.53 492.49 109.54 478.19 123.48 495.41 113.53"/>
        <polygon class="cls-7" points="472.33 99.99 467.39 99.76 469.01 113.07 472.33 99.99"/>
        <polygon class="cls-5" points="448 248 212 206 674 206 448 248"/>
        <path class="cls-7" d="m425.74,146.66c3.32,1.65,5.9,3.96,7.75,6.93,1.85,2.97,2.78,6.36,2.78,10.17,0,6.01-1.75,10.77-5.25,14.29-3.5,3.52-8.58,5.7-15.25,6.54l-1.1-3.79c6.01-.73,10.45-2.47,13.33-5.22,2.88-2.75,4.31-6.61,4.31-11.6,0-4.62-1.42-8.35-4.26-11.19-2.84-2.84-6.72-4.46-11.63-4.86-1.25,11.18-3.06,19.43-5.44,24.76-2.38,5.33-5.46,8-9.24,8-1.87,0-3.62-.53-5.25-1.59-1.63-1.06-2.94-2.63-3.93-4.7-.99-2.07-1.48-4.54-1.48-7.39,0-4.43,1.01-8.38,3.02-11.85,2.02-3.46,4.8-6.16,8.36-8.08s7.57-2.89,12.04-2.89c4.18,0,7.92.82,11.24,2.47Zm-17.7,22.95c1.92-4.75,3.42-11.99,4.48-21.74-3.37.22-6.4,1.16-9.07,2.83-2.67,1.67-4.76,3.91-6.27,6.73-1.5,2.82-2.25,5.99-2.25,9.51,0,2.02.3,3.77.91,5.25.61,1.48,1.41,2.61,2.42,3.38s2.12,1.15,3.33,1.15c2.38,0,4.53-2.37,6.46-7.12Z"/>
        <g>
          <path class="cls-7" d="m463.57,161.02c-.77,3.92-1.91,7.97-3.41,12.15-1.65,4.47-3.33,8.04-5.06,10.72l-9.29-4.12c4.29-6.93,7.09-13.71,8.41-20.34l9.34,1.59Zm29.19-18.69c0,2.16-.88,3.85-2.64,5.06h1.76v9.4h-16.33v30.56h-10.17v-30.56h-15.94v-9.4h15.94v-7.53h10.17v7.53h7.64c-1.8-1.25-2.69-2.93-2.69-5.06,0-1.65.61-3.07,1.84-4.26,1.23-1.19,2.67-1.79,4.32-1.79s3.12.6,4.31,1.79c1.19,1.19,1.79,2.61,1.79,4.26Zm2.36,37.38l-9.18,4.18c-1.76-2.67-3.46-6.27-5.11-10.77-1.58-4.21-2.75-8.25-3.52-12.09l9.34-1.59c1.39,6.56,4.21,13.32,8.46,20.28Zm-6.49-37.38c0-1.32-.66-1.98-1.98-1.98-.55,0-1.03.19-1.43.58-.4.38-.6.85-.6,1.4,0,1.39.68,2.09,2.03,2.09s1.98-.7,1.98-2.09Z"/>
          <path class="cls-7" d="m546.74,144.97c-3.45,3.74-7.68,7.49-12.7,11.27v30.78h-10.39v-23.69c-5.24,3.26-10.41,6.07-15.5,8.41l-6.21-8.47c14.95-6.27,27.08-14.44,36.39-24.52l8.41,6.21Z"/>
          <path class="cls-7" d="m582.2,151.4l-6.71,7.86c-5.09-4.32-10.46-7.9-16.11-10.72l6.32-8.08c6.01,3.12,11.51,6.76,16.49,10.94Zm21.6,10.22c-9.67,10.88-22.23,19.07-37.65,24.57l-5.55-9.34c15.02-4.76,27.34-12.81,36.94-24.13l6.27,8.9Z"/>
          <path class="cls-7" d="m657.61,163.16l-4.4,9.23c-9.05-3.59-16.62-6.32-22.7-8.19v22.59h-10.28v-46.89h10.28v13.63c10.11,3.08,19.15,6.29,27.1,9.62Z"/>
        </g>
      </g>
    </g>
  </g>
</svg>