<?xml version="1.0" encoding="UTF-8"?><svg xmlns="http://www.w3.org/2000/svg" viewBox="0 0 186 193.66"><defs><style>.cls-1{fill:#ebebeb;}.cls-2{fill:#fff;}.cls-3,.cls-4{fill:#b5b5b5;}.cls-5{fill:#c51717;}.cls-6{fill:#333;}.cls-7{fill:#ccc;}.cls-8{fill:#c9c9c9;}.cls-9{fill:#dfeaf2;}.cls-10{fill:#a8a8a8;}.cls-11{fill:#616161;}.cls-4{mix-blend-mode:multiply;}.cls-12{isolation:isolate;}</style></defs><g class="cls-12"><g id="Layer_2"><g id="PC"><g><path class="cls-9" d="m93,0C41.64,0,0,41.64,0,93c0,24.8,9.71,47.34,25.54,64.01-3.19,7.15-16.69,36.14-25.54,35.72,0,0,25.6,6.51,54.79-14.91,11.66,5.26,24.59,8.19,38.21,8.19,51.36,0,93-41.64,93-93S144.36,0,93,0Z"/><g><path class="cls-6" d="m92.43,18.91c.38,0,.76.09,1.1.28l64.13,35.38c1.11.61,1.51,2,.9,3.11l-1.41,2.56v3.71c0,.83-.67,1.5-1.5,1.5h-8.27c.67.29,1.15.95,1.15,1.73h0v8.25c0,1.04-.84,1.88-1.88,1.88h-1.74v37.53h0v.74h1.74c1.04,0,1.88.84,1.88,1.88v8.25c0,.08-.01.15-.02.22v.07s0,.03-.01.05c0,.05-.02.1-.04.15-.02.07-.04.13-.06.19-.02.05-.04.09-.06.14-.03.06-.06.12-.1.18-.03.04-.05.08-.08.12-.04.06-.08.11-.13.16-.03.04-.06.07-.1.1-.05.05-.1.09-.16.13-.04.03-.07.06-.11.08-.06.04-.12.07-.19.1-.04.02-.08.04-.12.06-.07.03-.15.05-.23.07-.04,0-.07.02-.11.03-.12.02-.24.04-.36.04h9.14c.75,0,1.37.61,1.37,1.37v7.98c0,.75-.61,1.37-1.37,1.37H30.11c-.75,0-1.37-.61-1.37-1.37v-7.98c0-.75.61-1.37,1.37-1.37h8.1c-.94,0-1.72-.69-1.86-1.6-.01-.09-.02-.19-.02-.29v-8.25c0-1.04.84-1.88,1.88-1.88h1.74v-.74h0v-37.53h-1.74c-1.04,0-1.88-.84-1.88-1.88v-8.25c0-.14.01-.27.04-.4.13-.6.56-1.09,1.11-1.33h-8.29c-.83,0-1.5-.67-1.5-1.5v-3.71l-1.41-2.56c-.61-1.11-.21-2.5.9-3.11L91.32,19.19c.34-.19.72-.28,1.1-.28m0-3c-.89,0-1.77.23-2.55.66L25.74,51.94c-2.55,1.41-3.48,4.63-2.07,7.18l1.04,1.88v2.93c0,2.48,2.02,4.5,4.5,4.5h4.13v6.98c0,2.26,1.54,4.16,3.62,4.72v32.61c-2.08.56-3.62,2.46-3.62,4.71v7.13h-3.22c-2.41,0-4.37,1.96-4.37,4.37v7.98c0,2.41,1.96,4.37,4.37,4.37h125.66c2.41,0,4.37-1.96,4.37-4.37v-7.98c0-2.41-1.96-4.37-4.37-4.37h-4.26v-7.13c0-2.25-1.54-4.16-3.62-4.71v-32.61c2.08-.56,3.62-2.46,3.62-4.72v-6.98h4.13c2.48,0,4.5-2.02,4.5-4.5v-2.93l1.04-1.88c1.41-2.55.48-5.77-2.07-7.18L94.98,16.56c-.78-.43-1.66-.66-2.55-.66h0Z"/><g><polygon class="cls-8" points="92.43 29.59 44.82 55.18 140.03 55.18 92.43 29.59"/><rect class="cls-11" x="43.12" y="65.29" width="96.91" height="62.29"/><polygon class="cls-10" points="53.66 57.26 92.37 35.28 135.56 58.9 150.64 57.97 91.59 25.96 42.92 53.28 53.66 57.26"/><rect class="cls-1" x="27.71" y="55.03" width="129.44" height="10.41" rx="1.5" ry="1.5"/><path class="cls-1" d="m152.63,63.69l-59.1-32.61c-.69-.38-1.52-.38-2.21,0l-59.1,32.61c-1.11.61-2.5.21-3.11-.9l-2.82-5.12c-.61-1.11-.21-2.5.9-3.11L91.32,19.19c.69-.38,1.52-.38,2.21,0l64.13,35.38c1.11.61,1.51,2,.9,3.11l-2.82,5.12c-.61,1.11-2,1.51-3.11.9Z"/><path class="cls-1" d="m52.9,77.3c1.04,0,1.88-.84,1.88-1.88v-8.25c0-1.04-.84-1.88-1.88-1.88h-14.69c-.9,0-1.65.63-1.84,1.48-.03.13-.04.27-.04.4v8.25c0,1.04.84,1.88,1.88,1.88h1.74v38.28h-1.74c-1.04,0-1.88.84-1.88,1.88v8.25c0,.1,0,.19.02.29.14.9.92,1.59,1.86,1.59h14.69c1.04,0,1.88-.84,1.88-1.88v-8.25c0-1.04-.84-1.88-1.88-1.88h-1.74v-38.28h1.74Z"/><path class="cls-1" d="m84.15,77.3c1.04,0,1.88-.84,1.88-1.88v-8.25c0-1.04-.84-1.88-1.88-1.88h-14.69c-.9,0-1.65.63-1.84,1.48-.03.13-.04.27-.04.4v8.25c0,1.04.84,1.88,1.88,1.88h1.74v38.28h-1.74c-1.04,0-1.88.84-1.88,1.88v8.25c0,.1,0,.19.02.29.14.9.92,1.59,1.86,1.59h14.69c1.04,0,1.88-.84,1.88-1.88v-8.25c0-1.04-.84-1.88-1.88-1.88h-1.74v-38.28h1.74Z"/><path class="cls-1" d="m115.39,77.3c1.04,0,1.88-.84,1.88-1.88v-8.25c0-1.04-.84-1.88-1.88-1.88h-14.69c-.9,0-1.65.63-1.84,1.48-.03.13-.04.27-.04.4v8.25c0,1.04.84,1.88,1.88,1.88h1.74v38.28h-1.74c-1.04,0-1.88.84-1.88,1.88v8.25c0,.1,0,.19.02.29.14.9.92,1.59,1.86,1.59h14.69c1.04,0,1.88-.84,1.88-1.88v-8.25c0-1.04-.84-1.88-1.88-1.88h-1.74v-38.28h1.74Z"/><path class="cls-1" d="m146.63,77.3c1.04,0,1.88-.84,1.88-1.88v-8.25c0-1.04-.84-1.88-1.88-1.88h-14.69c-.9,0-1.65.63-1.84,1.48-.03.13-.04.27-.04.4v8.25c0,1.04.84,1.88,1.88,1.88h1.74v38.28h-1.74c-1.04,0-1.88.84-1.88,1.88v8.25c0,.1,0,.19.02.29.14.9.92,1.59,1.86,1.59h14.69c1.04,0,1.88-.84,1.88-1.88v-8.25c0-1.04-.84-1.88-1.88-1.88h-1.74v-38.28h1.74Z"/><path class="cls-4" d="m148.51,67.17v.2H36.38v-.61c.18-.84.94-1.48,1.84-1.48h108.42c1.04,0,1.88.84,1.88,1.88Z"/><rect class="cls-3" x="39.95" y="114.84" width="11.21" height=".74"/><rect class="cls-3" x="71.2" y="114.84" width="11.21" height=".74"/><rect class="cls-3" x="102.44" y="114.84" width="11.21" height=".74"/><rect class="cls-3" x="133.68" y="114.84" width="11.21" height=".74"/><path class="cls-4" d="m148.49,125.5v.49c-.14.9-.92,1.59-1.86,1.59H38.22c-.94,0-1.72-.69-1.86-1.59v-.49h112.13Z"/><path class="cls-7" d="m39.95,83.12v-5.82h11.21v.28s0,0,0,0c-5.42.23-9.11,1.54-11.2,5.54Z"/><path class="cls-7" d="m71.2,83.12v-5.82h11.21v.28s0,0,0,0c-5.42.23-9.11,1.54-11.2,5.54Z"/><path class="cls-7" d="m102.44,83.12v-5.82h11.21v.28s0,0,0,0c-5.42.23-9.11,1.54-11.2,5.54Z"/><path class="cls-7" d="m133.68,83.12v-5.82h11.21v.28s0,0,0,0c-5.42.23-9.11,1.54-11.2,5.54Z"/><rect class="cls-1" x="28.75" y="127.59" width="128.39" height="10.71" rx="1.37" ry="1.37"/></g></g><g><rect class="cls-5" x="53.41" y="41.02" width="74.86" height="24.72" rx="3.44" ry="3.44"/><g><path class="cls-2" d="m73.32,47.83c.57,0,1.09.05,1.56.15.47.1.87.27,1.21.5.34.23.6.53.78.91.18.38.28.85.28,1.41,0,.6-.14,1.11-.41,1.51-.27.4-.68.73-1.22.99.74.21,1.29.58,1.65,1.12.36.53.55,1.17.55,1.92,0,.6-.12,1.13-.35,1.57-.24.44-.55.8-.95,1.08-.4.28-.85.49-1.36.62-.51.13-1.03.2-1.57.2h-5.81v-11.99h5.64Zm-.34,4.85c.47,0,.86-.11,1.16-.34.3-.22.45-.59.45-1.09,0-.28-.05-.51-.15-.69-.1-.18-.24-.32-.4-.42-.17-.1-.36-.17-.58-.21-.22-.04-.44-.06-.68-.06h-2.47v2.8h2.67Zm.15,5.09c.26,0,.5-.03.74-.08.23-.05.44-.13.62-.25.18-.12.32-.28.43-.48.11-.2.16-.46.16-.77,0-.62-.17-1.05-.52-1.32-.35-.26-.81-.39-1.38-.39h-2.87v3.29h2.82Z"/><path class="cls-2" d="m85.48,47.83l4.48,11.99h-2.74l-.91-2.67h-4.48l-.94,2.67h-2.65l4.53-11.99h2.7Zm.15,7.35l-1.51-4.4h-.03l-1.56,4.4h3.11Z"/><path class="cls-2" d="m93.62,47.83l5,8.04h.03v-8.04h2.47v11.99h-2.64l-4.99-8.02h-.03v8.02h-2.47v-11.99h2.62Z"/><path class="cls-2" d="m106.07,47.83v4.97l4.68-4.97h3.29l-4.68,4.73,5.14,7.25h-3.31l-3.61-5.39-1.51,1.53v3.86h-2.64v-11.99h2.64Z"/></g></g></g></g></g></g></svg>