<?xml version="1.0" encoding="UTF-8"?><svg xmlns="http://www.w3.org/2000/svg" viewBox="0 0 186 193.66"><defs><style>.cls-1{fill:#e7e8dd;}.cls-2{fill:#fff;}.cls-3{fill:#8fab5b;}.cls-4{fill:#c51717;}.cls-5{fill:#333;}.cls-6{fill:#a8ca69;}.cls-7{fill:#dfeaf2;}.cls-8{fill:#55652b;}.cls-9{fill:#c1272d;mix-blend-mode:multiply;}.cls-10{isolation:isolate;}</style></defs><g class="cls-10"><g id="Layer_2"><g id="PC"><g><path class="cls-7" d="m93,0C41.64,0,0,41.64,0,93c0,24.8,9.71,47.34,25.54,64.01-3.19,7.15-16.69,36.14-25.54,35.72,0,0,25.6,6.51,54.79-14.91,11.66,5.26,24.59,8.19,38.21,8.19,51.36,0,93-41.64,93-93S144.36,0,93,0Z"/><path class="cls-5" d="m159.84,45.6v13.94h-5.98v13.94h5.98v27.88h-3.5v10.42h-6.99v13.94h3.5v13.94H29.48v-13.94h-3.5v-13.94h6.99v-13.94h-3.5v-13.94h6.99v-10.42h-5.98v-13.94h5.98v-13.94h123.37m3-3H33.47v13.94h-5.98v19.94h5.98v4.42h-6.99v19.94h3.5v7.94h-6.99v19.94h3.5v13.94h129.37v-19.94h-3.5v-7.94h6.99v-10.42h3.5v-33.88h-5.98v-7.94h5.98v-19.94h0Z"/><g><g><g><rect class="cls-6" x="36.47" y="45.33" width="94.37" height="12.99"/><rect class="cls-8" x="36.47" y="58.32" width="123.37" height=".99"/><rect class="cls-3" x="130.85" y="45.33" width="28.99" height="12.99"/><rect class="cls-1" x="69.17" y="45.33" width="28.99" height="12.99"/></g><g><rect class="cls-6" x="30.5" y="59.31" width="94.37" height="12.99"/><rect class="cls-8" x="30.5" y="72.3" width="123.37" height=".99"/><rect class="cls-3" x="124.87" y="59.31" width="28.99" height="12.99"/><rect class="cls-1" x="63.19" y="59.31" width="28.99" height="12.99"/></g><g><rect class="cls-6" x="36.47" y="73.29" width="94.37" height="12.99"/><rect class="cls-8" x="36.47" y="86.28" width="123.37" height=".99"/><rect class="cls-3" x="130.85" y="73.29" width="28.99" height="12.99"/><rect class="cls-1" x="69.17" y="73.29" width="28.99" height="12.99"/></g><g><rect class="cls-6" x="36.47" y="87.27" width="94.37" height="12.99"/><rect class="cls-8" x="36.47" y="100.26" width="123.37" height=".99"/><rect class="cls-3" x="130.85" y="87.27" width="28.99" height="12.99"/><rect class="cls-1" x="69.17" y="87.27" width="28.99" height="12.99"/></g></g><g><g><rect class="cls-6" x="29.48" y="83.74" width="94.37" height="12.99"/><rect class="cls-8" x="29.48" y="96.73" width="123.37" height=".99"/><rect class="cls-3" x="123.85" y="83.74" width="28.99" height="12.99"/><rect class="cls-1" x="62.17" y="83.74" width="28.99" height="12.99"/></g><g><rect class="cls-6" x="32.98" y="97.72" width="94.37" height="12.99"/><rect class="cls-8" x="32.98" y="110.71" width="123.37" height=".99"/><rect class="cls-3" x="127.35" y="97.72" width="28.99" height="12.99"/><rect class="cls-1" x="65.67" y="97.72" width="28.99" height="12.99"/></g><g><rect class="cls-6" x="25.98" y="111.7" width="94.37" height="12.99"/><rect class="cls-8" x="25.98" y="124.69" width="123.37" height=".99"/><rect class="cls-3" x="120.36" y="111.7" width="28.99" height="12.99"/><rect class="cls-1" x="58.67" y="111.7" width="28.99" height="12.99"/></g><g><rect class="cls-6" x="29.48" y="125.68" width="94.37" height="12.99"/><rect class="cls-8" x="29.48" y="138.67" width="123.37" height=".99"/><rect class="cls-3" x="123.85" y="125.68" width="28.99" height="12.99"/><rect class="cls-1" x="62.17" y="125.68" width="28.99" height="12.99"/></g></g></g><g><path class="cls-2" d="m142.91,148.84c-5.85,0-10.6-4.76-10.6-10.6v-16.74c-3.06-.53-5.79-2.4-7.37-5.14-1.89-3.27-1.89-7.33,0-10.6l14.1-24.41c1.89-3.27,5.41-5.3,9.18-5.3s7.29,2.03,9.18,5.3l14.09,24.41c1.89,3.27,1.89,7.33,0,10.6-1.58,2.74-4.31,4.61-7.38,5.14v16.74c0,5.85-4.76,10.6-10.6,10.6h-10.6Z"/><path class="cls-4" d="m166.89,108.41l-14.09-24.41c-.95-1.64-2.7-2.65-4.59-2.65h0c-1.89,0-3.64,1.01-4.59,2.65l-14.1,24.41c-.95,1.64-.95,3.66,0,5.3.95,1.64,2.7,2.65,4.59,2.65h3.49s0,21.88,0,21.88c0,2.93,2.37,5.3,5.3,5.3h10.6c2.93,0,5.3-2.37,5.3-5.3v-21.88s3.49,0,3.49,0c1.89,0,3.64-1.01,4.59-2.65.95-1.64.95-3.66,0-5.3Z"/><path class="cls-9" d="m161,98.2l-23.39,23.39v16.64c0,2.93,2.37,5.3,5.3,5.3h10.6c2.93,0,5.3-2.37,5.3-5.3v-21.88s3.49,0,3.49,0c1.89,0,3.64-1.01,4.59-2.65.95-1.64.95-3.66,0-5.3l-5.89-10.2Z"/></g></g></g></g></g></svg>