<?xml version="1.0" encoding="UTF-8"?>
<svg id="_レイヤー_2" data-name="レイヤー_2" xmlns="http://www.w3.org/2000/svg" viewBox="0 0 949.58 334.7">
  <defs>
    <style>
      .cls-1 {
        fill: #c51717;
      }

      .cls-2 {
        stroke-width: 2px;
      }

      .cls-2, .cls-3 {
        stroke: #fff;
        stroke-linecap: round;
        stroke-linejoin: round;
      }

      .cls-2, .cls-3, .cls-4 {
        fill: none;
      }

      .cls-5 {
        fill: #2f6b76;
      }

      .cls-6 {
        fill: #fff;
      }

      .cls-3 {
        stroke-width: 4px;
      }

      .cls-7 {
        fill: #efe9b9;
      }

      .cls-8 {
        fill: #333;
      }

      .cls-4 {
        stroke: #2f6b76;
        stroke-miterlimit: 10;
      }
    </style>
  </defs>
  <g id="PC">
    <g>
      <g>
        <path class="cls-5" d="M949.58,101.42h-402.24c-20.84-13.13-45.76-20.78-72.55-20.78s-51.71,7.65-72.55,20.78H0v216.28h408.61c19.47,10.81,42.07,17,66.18,17s46.71-6.19,66.18-17h408.61V101.42Z"/>
        <g>
          <path class="cls-6" d="M330.41,234.86c.18-2.36.3-5.86.3-7.74,0-1.27,0-1.75-.18-3.02l11.37.3c-.3,1.39-.3,1.57-.67,7.32q-.06,1.63-.18,3.08h13.18c2,0,2.72-.12,4.05-.67l4.71,4.11c-.67,1.21-.79,1.69-.85,4.47-.42,12.94-1.33,23.03-2.54,27.02-1.75,5.62-4.66,7.56-11.37,7.56-2.36,0-3.27-.06-7.92-.48-.24-4.84-.67-6.83-2.05-10.64,3.02.79,5.99,1.21,7.86,1.21,2.9,0,3.63-.97,4.41-6.23.6-4.05,1.15-11.67,1.15-16.87h-11.55q-.48,3.99-.91,6.05c-2.66,12.21-8.4,20.07-20.68,28.17-2.72-4.29-4.53-6.35-7.86-9.19,8.04-4.23,12.7-8.52,15.72-14.63,1.51-3.08,2.18-5.26,3.02-10.34h-7.56c-4.05,0-5.32.06-8.16.36l-.06-10.34c3.02.42,4.11.48,8.4.48h8.34Z"/>
          <path class="cls-6" d="M376.48,245.32c2.84.42,6.11.54,12.39.54h28.9c6.05,0,8.34-.12,12.39-.54v11.67c-2.9-.3-5.56-.36-12.45-.36h-28.78c-6.77,0-8.77.06-12.45.36v-11.67Z"/>
          <path class="cls-6" d="M448.66,277.79c.24-2.54.3-4.29.36-9.25v-35.19c-.06-5.2-.06-5.5-.42-8.77h11.67c-.24,1.57-.24,2.54-.3,8.83v8.28c9.55,3.08,19.04,7.38,27.51,12.57l-5.74,10.28c-5.02-3.57-12.03-7.44-19.04-10.52-1.81-.73-2-.79-2.18-.91-.18-.06-.3-.12-.54-.3v15.72c0,4.47.12,7.68.36,9.25h-11.67ZM475.99,227.97c2.36,2.66,4.29,5.44,5.99,8.65l-5.74,2.78c-2-3.81-3.57-6.05-5.99-8.83l5.74-2.6ZM484.03,224.34c2.24,2.42,3.93,4.72,6.04,8.4l-5.56,2.72c-2.12-3.81-3.81-6.23-5.93-8.65l5.44-2.48Z"/>
          <path class="cls-6" d="M515.46,272.35v4.17h-11c.36-3.33.48-5.38.48-9.85v-31.07c0-2.6-.06-4.47-.24-6.95,2.12.18,3.33.24,7.32.24h32.59c3.75,0,4.66,0,7.5-.24-.12,2.12-.18,4.29-.18,7.13v30.65c0,4.66.12,7.56.42,9.98h-10.94v-4.05h-25.94ZM541.4,238.55h-25.94v24.12h25.94v-24.12Z"/>
          <path class="cls-6" d="M567.27,245.32c2.84.42,6.11.54,12.39.54h28.9c6.05,0,8.34-.12,12.39-.54v11.67c-2.9-.3-5.56-.36-12.45-.36h-28.78c-6.77,0-8.77.06-12.45.36v-11.67Z"/>
          <path class="cls-6" d="M638.96,227.43c7.62,4.47,11.55,7.26,16.63,11.85l-7.13,9.43c-5.26-5.5-10.4-9.49-16.44-12.76l6.95-8.52ZM632.62,264.97c6.17-.48,12.51-2,18.2-4.35,7.62-3.14,13.06-7.68,17.71-14.93,2.54-3.87,4.17-7.19,5.93-11.85,2.96,3.57,4.35,4.78,8.89,8.1-5.5,11.91-11.25,19.04-19.71,24.48-6.53,4.23-12.27,6.47-23.52,9.07-2.36.54-2.72.6-4.35,1.09l-3.14-11.61Z"/>
        </g>
        <path class="cls-6" d="M779.66,264.29c1.87,2.72,3.45,3.69,6.47,4.11-1.69-2.06-2-2.42-4.71-4.9,3.63-.67,5.62-1.21,8.52-2.24h-4.66c-2.18,0-3.08.06-4.29.24v-7.01c1.33.18,1.93.24,4.17.24h3.08v-2.66h-.54c-3.33,0-4.05.06-5.68.24v-6.83c1.57.18,2.24.18,5.68.18h.54v-2.18c-3.45,0-4.71-.12-5.62-.48-1.45-.6-2.06-1.69-2.06-3.63v-6.41l-5.93,5.92c-3.38-4.53-5.56-6.89-10.46-11.06l6.77-6.59c4.11,3.39,6.89,6.11,9.61,9.25,1.51.12,1.87.12,4.41.12h5.56v-1.75h-5.74c-2.72,0-3.57,0-5.08.18v-6.77c1.57.12,3.27.18,5.2.18h8.52c3.14,0,4.05,0,5.38-.12-.18.6-.18,1.09-.18,2.12l.06,1.21v6.47c0,1.75,0,2.72.12,3.51-1.45-.06-2.66-.12-4.05-.12h-6.53v1.33c0,.91.18,1.03,1.87,1.03,1.09,0,1.81-.12,2.12-.3.18-.18.36-.79.36-1.57v-.36c2.66.97,4.53,1.45,7.01,1.75-.42,3.63-.85,4.47-2.72,5.38v2.9h6.41v-2.6c-1.81-.6-2.6-1.81-2.6-3.75v-4.9q0-1.87-.18-3.93c1.51.12,2,.12,4.6.12h5.5v-1.75h-5.14c-2.72,0-3.57,0-5.08.18v-6.77c1.57.12,3.27.18,5.2.18h8.28c3.14,0,4.05,0,5.38-.12-.12.73-.12,1.15-.12,2.06v7.74c0,1.81,0,2.72.12,3.51-1.45-.06-2.66-.12-4.05-.12h-6.41v1.39c0,.79.42,1.03,2.06,1.03,1.03,0,1.93-.12,2.18-.36q.18-.18.36-1.21v-.73c2.24.79,4.53,1.27,7.56,1.63-.3,3.14-.85,4.41-2.18,5.2-1.09.67-2.48.85-6.89.97v2.24h2c3.39,0,4.05,0,5.62-.18v6.83c-1.69-.18-2.36-.24-5.62-.24h-1.93v2.66h3.08c3.45,0,4.11,0,5.74-.18v6.89c-1.75-.18-2.42-.18-5.74-.18h-4.17c3.39,1.09,5.68,1.63,9.85,2.12-1.69,1.75-1.87,2.06-3.57,4.66,1.45-.12,2.36-.24,5.08-.6-1.21,3.26-1.75,5.74-2.24,9.49-5.32.18-13.91.3-23.03.3s-12.39-.3-15.3-1.33c-2.42-.85-4.17-2.06-6.29-4.41-2.6,2.36-3.69,3.2-8.04,6.35l-3.93-9.73c1.75-.6,4.17-2.12,7.32-4.59v-11.43h-2.48c-1.33,0-2.18.06-3.75.3v-9.13c1.69.24,2.66.3,4.96.3h5.8c2.48,0,3.02,0,4.53-.18-.12,1.75-.12,2.36-.12,6.77v14.15ZM799.61,263.99c-3.38,2.12-6.29,3.51-10.04,4.78,1.94.06,4.66.12,7.38.12,3.27,0,10.04-.18,13.3-.36-2.96-.97-5.32-2.12-9.07-4.53l3.87-2.72h-9.61l4.17,2.72ZM796.89,254.74h6.41v-2.66h-6.41v2.66Z"/>
        <rect class="cls-7" x="121.17" y="200.58" width="84.84" height="84.84"/>
        <rect class="cls-7" x="212.91" y="200.58" width="84.84" height="84.84"/>
        <polyline class="cls-4" points="251.67 205.02 293.31 205.02 293.31 280.98 217.35 280.98 217.35 205.02 222.15 205.02"/>
        <polyline class="cls-4" points="156.59 280.98 125.6 280.98 125.6 205.02 130.4 205.02 159.92 205.02 201.57 205.02 201.57 280.98 180.21 280.98"/>
        <g>
          <path class="cls-5" d="M161.48,271.24c-7.62,1.42-16.71,2.53-27.26,3.34l-2.13-11.14c2.98-.14,6.48-.36,10.51-.64v-3.12l-7.03,2.41c-.99-3.93-2.13-7.57-3.41-10.93l7.67-2.7c.95,2.32,1.87,5.09,2.77,8.31v-9.37h-9.3v-9.65h9.23v-2.41h-4.47v-2.98c-1.09.95-2.04,1.73-2.84,2.34l-3.69-11.07c4.54-3.74,8-8.16,10.36-13.27h11.43c1.75,4.16,5.06,8.52,9.94,13.06v-12.42h32.79v33.72h-3.19l6.67,5.89c-2.56,2.89-5.16,5.56-7.81,8.02,2.13,2.41,4.78,4.66,7.95,6.74l-9.09,9.44c-4.4-3.74-7.81-8.09-10.22-13.06v8.8c-6.01,1.94-12.11,3.26-18.31,3.97l-.57-3.27ZM143.8,226.45h7.67c-1.42-1.85-2.67-3.69-3.76-5.54-1.09,1.89-2.39,3.74-3.9,5.54ZM152.89,261.87c3.03-.33,5.99-.71,8.87-1.14v1.7c.33-.05.83-.09,1.49-.14v-37.55l-5.54,8.52v2.06h-4.83v2.41h8.52v9.65h-8.52v8.8c.8-2.41,1.54-5.04,2.2-7.88l7.31,2.06c-.76,2.89-1.85,6.15-3.27,9.8l-6.25-1.49v3.19ZM173.76,260.8c1.99-.38,3.86-.8,5.61-1.28-1.7-4.07-3.01-9.01-3.9-14.84h-1.7v16.11ZM184.69,224.25v-3.12h-10.22v3.12h10.22ZM184.69,235.75v-3.27h-10.22v3.27h10.22ZM185.12,244.69c.33,1.89.8,3.67,1.42,5.32,1.61-1.61,3.19-3.38,4.76-5.32h-6.18Z"/>
          <path class="cls-5" d="M242.12,274.15h-12v-23.21c-1.18.9-2.65,1.96-4.4,3.19l-6.46-10.36c7.76-5.01,14.57-10.86,20.44-17.53l7.17,5.75v-1.21h39.82v11h-8.73v20.94c0,4.5-.81,7.45-2.41,8.87-1.47,1.23-4.47,1.85-9.01,1.85h-9.23l-3.83-11.43h9.16c1.23,0,2.01-.22,2.34-.67.33-.45.5-1.19.5-2.24v-17.32h-18.6v-6.39c-1.37,1.61-2.96,3.31-4.76,5.11v33.65ZM246.59,215.59c-4.59,6.25-10.93,12.38-19.02,18.38l-7.31-9.37c6.48-4.26,12-9.32,16.54-15.19l9.8,6.18ZM284.14,223.96h-34.85v-11.29h34.85v11.29Z"/>
        </g>
        <g>
          <g>
            <line class="cls-2" x1="220.42" y1="153.36" x2="242.69" y2="170.91"/>
            <line class="cls-3" x1="230.05" y1="136.46" x2="247.59" y2="158.74"/>
          </g>
          <g>
            <line class="cls-2" x1="716.58" y1="153.36" x2="694.31" y2="170.91"/>
            <line class="cls-3" x1="706.95" y1="136.46" x2="689.4" y2="158.74"/>
          </g>
        </g>
        <rect class="cls-6" x="298.03" y="142.97" width="305.77" height="44.39" rx="22.2" ry="22.2"/>
        <g>
          <path class="cls-5" d="M332.62,160.12c3.47,4.76,7.07,8.27,11.35,11.02l-2.79,3.62c-.09.12-.21.24-.36.24-.12,0-.27-.06-.42-.21-3.86-3.59-6.83-6.83-9.25-10.66l.15,6.71h.84l3.92-.09.21.21v3.29l-.21.21-3.92-.09h-.75l.12,5.24h-4.73l.12-5.24h-.3l-3.92.09-.21-.21v-3.29l.21-.21,3.92.09h.39l.12-6.35c-2.25,3.86-5.57,7.61-9.01,10.57-.15.12-.27.18-.39.18-.15,0-.24-.12-.39-.27l-2.66-2.99c3.95-2.87,7.76-6.8,11.02-11.86h-4.73l-4.97.09-.21-.21v-3.44l.21-.21,4.97.09h5.99v-5.21l.21-.21h4.01l.21.21v5.21h6.32l4.97-.09.21.21v3.44l-.21.21-4.97-.09h-5.06Z"/>
          <path class="cls-5" d="M359.89,151.38l.15-.18h4.04l.18.18v9.16h4.58l4.97-.09.21.21-.03,5.3v5.63l.15,7.94h-4.7v-1.83h-14.35l-4.97.09-.21-.21v-3.65l.21-.21,4.97.09h14.35v-2.99h-13.57l-4.97.09-.21-.21v-3.53l.21-.21,4.97.09h13.57v-2.73h-14.35l-4.97.09-.21-.21v-3.53l.21-.21,4.97.09h4.79v-9.16ZM354.77,159.76l-.3-.06c-.9-1.8-2.22-3.92-3.29-5.21l.06-.3,2.99-1.71.3.03c1.17,1.23,2.64,3.2,3.56,4.85l-.06.3-3.26,2.1ZM373.46,153.89c-.78,1.59-2.25,4.13-3.38,5.66-.09.12-.18.18-.27.18-.12,0-.24-.06-.45-.15l-3.14-1.23c1.29-1.83,2.61-4.22,3.32-5.99l.27-.09,3.53,1.35.12.27Z"/>
          <path class="cls-5" d="M385.41,153.65l4.13.57.18.24c-.09,1.74-.48,3.44-1.38,6.5-.69,2.49-1.11,4.97-1.11,6.95,0,1.59.03,2.37.18,3.02.09.39.39.42.84-.03.48-.54,1.11-1.35,1.53-1.95l.87.45c-.9,2.55-1.35,4.43-1.41,6.32-.03,1.35-.69,2.19-2.07,2.22-1.2.03-1.92-.63-2.61-1.83-.66-1.11-1.5-3.53-1.5-7.85,0-2.7.63-6.35,1.32-9.1.45-1.98.75-3.56.78-5.33l.24-.18ZM407.06,175.81c-2.04.3-4.19.48-7.04.48-6.02,0-7.61-3.02-8.33-6.35l.15-.27,3.2-1.47.27.09c.57,2.81,1.74,3.71,5.75,3.68.99,0,3.53-.21,5.6-.63l.27.18.27,4.01-.15.27ZM394,156.68c.99.03,1.95.06,2.87.06,2.85,0,5.45-.21,8.45-.72l.21.18.18,3.77-.18.24c-2.25.48-5.39.75-8.66.75-.96,0-1.89,0-2.84-.06l-.21-.27v-3.71l.18-.24Z"/>
        </g>
        <g>
          <path class="cls-1" d="M422.07,160.35c-2.82.4-5.64.67-8.59.81l-.31-.27-.27-5.41.31-.31c3.09-.13,6.04-.36,8.86-.76l.05-7.83.36-.31h5.82l.31.27-.09,6.85c1.88-.4,3.54-.85,5.28-1.34l.36.22.58,5.41-.31.36c-2.01.45-4.03.94-6,1.3l-.04,4.34c2.82-1.03,6.22-1.97,9.4-1.97,7.34,0,11.14,4.61,11.14,9.67,0,6.85-4.65,10.52-11.28,10.52-2.64,0-4.61-.4-6.4-1.52-.27-.18-.31-.54-.22-.81l1.39-5.41c1.52.72,3.31,1.3,4.88,1.25,2.6-.09,4.56-1.48,4.56-4.07,0-2.28-1.75-3.89-4.83-3.89-2.77,0-5.37.85-8.55,2.42v10.02c0,2.46-1.39,4.16-4.79,4.16-2.91,0-11.19-3.89-11.19-8.32,0-2.73,4.47-7.34,9.53-9.84l.04-5.5ZM422.16,172.34c-1.97,1.16-3.27,2.42-3.27,3.04,0,.85,2.01,1.92,2.73,1.92.4,0,.54-.22.54-.85v-4.12ZM438.4,154.94l3.18-4.7.49-.09c3.85,1.25,7.61,3.22,10.38,6.13l.05.49-3.36,4.74-.49.13c-2.91-2.91-5.82-4.92-10.11-6.35l-.13-.36Z"/>
          <path class="cls-1" d="M467.89,180.89c6.49-1.34,10.56-4.16,11.72-6.94-.58.58-1.83,1.03-4.3,1.03-4.12,0-6.35-2.15-6.35-5.32,0-5.33,4.12-10.11,8.05-10.11,1.39,0,1.83.13,2.24.22,0-.98,0-1.83-.04-2.91-5.73.31-11.77.85-18.08,1.57l-.36-.27-.45-5.64.31-.4c6.22-.45,12.57-.89,18.57-1.21v-6.04l.27-.31h6.18l.36.36c-.05,2.06-.09,3.89-.13,5.59,4.48-.18,8.95-.36,13.2-.4l.36.31v5.59l-.36.31c-4.43,0-8.9.04-13.24.22,0,2.46,0,5.06.13,8.1.58,1.7.99,3.76.99,5.46,0,2.91-.63,5.06-1.88,7.34-2.19,3.94-6.04,6.4-10.29,7.79-.18.04-.31.09-.45.13-.22.09-.45.09-.63.09-.27,0-.49-.09-.72-.22l-5.1-4.34ZM477.51,164.82c-1.25,0-2.73,1.92-2.73,3.31,0,.85.27,1.25,1.43,1.25,1.83,0,3.13-.76,3.22-2.82-.31-1.25-1.03-1.75-1.92-1.75Z"/>
          <path class="cls-1" d="M515.72,180.89c6.49-1.34,10.56-4.16,11.72-6.94-.58.58-1.83,1.03-4.3,1.03-4.12,0-6.35-2.15-6.35-5.32,0-5.33,4.12-10.11,8.05-10.11,1.39,0,1.83.13,2.24.22,0-.98,0-1.83-.04-2.91-5.73.31-11.77.85-18.08,1.57l-.36-.27-.45-5.64.31-.4c6.22-.45,12.57-.89,18.57-1.21v-6.04l.27-.31h6.18l.36.36c-.05,2.06-.09,3.89-.13,5.59,4.48-.18,8.95-.36,13.2-.4l.36.31v5.59l-.36.31c-4.43,0-8.91.04-13.25.22,0,2.46,0,5.06.13,8.1.58,1.7.99,3.76.99,5.46,0,2.91-.63,5.06-1.88,7.34-2.19,3.94-6.04,6.4-10.29,7.79-.18.04-.31.09-.45.13-.22.09-.45.09-.63.09-.27,0-.49-.09-.72-.22l-5.1-4.34ZM525.34,164.82c-1.25,0-2.73,1.92-2.73,3.31,0,.85.27,1.25,1.43,1.25,1.83,0,3.13-.76,3.22-2.82-.31-1.25-1.03-1.75-1.92-1.75Z"/>
          <path class="cls-1" d="M573.98,177c-.45-.4-.85-.9-1.25-1.3-3.22,3.36-6,4.52-9.17,4.52-3.36,0-6.89-2.6-6.89-8.01,0-4.88,1.66-8.68,5.42-12.35-1.03-2.28-2.01-4.7-3.09-7.29l.13-.4,4.97-2.24.4.13c.94,2.24,1.75,4.34,2.59,6.18,3.04-1.7,7.07-2.6,9.8-2.73.49-1.79,1.03-4.03,1.39-6.49l.4-.31,5.95,1.16.27.4c-.31,1.88-.9,4.43-1.3,5.95,5.59,1.43,10.56,6.49,10.56,13.87,0,7.96-4.79,12.48-12.98,14.99-.63.09-.85,0-1.21-.31l-4.92-4.47c8.32-1.61,12.44-5.06,12.44-10.07,0-4.39-2.19-7.7-5.59-8.73-1.43,4.12-3.04,7.43-5.19,11.01.54.54,1.12,1.16,1.75,1.79v.45l-4.03,4.21-.45.04ZM562.62,171.31c0,1.88.72,2.51,1.57,2.51,1.25,0,2.55-.63,4.47-2.91-1.43-1.83-2.68-3.8-3.85-5.82-1.7,2.42-2.19,5.01-2.19,6.22ZM575.28,159.14c-1.83.22-3.98.94-5.73,1.88.81,1.48,1.97,3.22,2.95,4.61,1.03-1.79,2.15-4.52,2.77-6.49Z"/>
        </g>
        <path class="cls-6" d="M627.2,178.25c8.54-1.43,12.39-5.52,12.39-10.29,0-6.04-3.34-9.85-7.39-10.68-.79,7.51-3.38,14.5-6.12,18.51-2.15,3.14-4.37,4.29-7.47,4.29-2.38,0-4.09-1.15-5.6-3.53-1.15-1.79-1.95-3.97-1.95-7.19,0-9.61,7.19-17.4,18.11-17.4s16.64,7.27,16.64,16.09c0,7.23-5.08,12.71-13.5,14.7-.56.04-.83.04-1.27-.4l-3.85-4.09ZM616.55,169.35c0,1.31.24,2.26.68,3.02.44.79.99,1.31,1.63,1.31.91,0,2.07-.91,3.14-3.06,2.22-4.45,3.34-8.66,3.93-13.5-5.8.99-9.37,6.12-9.37,12.23Z"/>
        <g>
          <path class="cls-1" d="M158.12,28.53c2.36-7.35,9.15-12.45,19.52-11.38,9.44.97,15.97,6.24,15.1,14.68-.43,4.15-3.67,9.08-11.27,10.36,7.26,2.08,11.44,6.84,10.62,14.75-.89,8.64-8.69,14.43-20.44,13.22-9.9-1.02-15.59-5.4-18.28-14.21l12.34-3.26c.03,4.93,2.04,8.67,6.46,9.13,4.22.44,6.2-2.56,6.54-5.85.54-5.27-3.11-7.98-8.26-8.51l-4.55-.47,3.03-9.35,3.3.34c4.55.47,7.83-2.19,8.27-6.48.4-3.89-2.04-6.07-4.95-6.37-3.3-.34-5.64,1.62-7.18,6.86l-10.25-3.45Z"/>
          <path class="cls-1" d="M204.98,54.66l-2.69-6.47.17-.42c13.53-5.28,22.45-7.62,28.64-7.24,8.88.55,14.47,6.14,13.92,15.05-.46,7.53-5.91,12.2-10.64,13.98-3.9,1.49-8.77,2.3-14.61,2.42-.77-.05-1.01-.06-1.27-.56l-3.45-6.66c5.68.06,10.53-.36,14.91-1.83,4.92-1.62,6.87-4.34,7.15-8.85.23-3.69-2.03-6.24-6.83-6.58-5.09-.36-12.4,1.84-24.84,7.33l-.47-.17Z"/>
          <path class="cls-8" d="M273.6,71.32c10.36-1.61,15.09-6.5,15.15-12.27.08-7.3-3.9-11.96-8.8-13.03-1.07,9.07-4.29,17.49-7.67,22.3-2.64,3.76-5.35,5.13-9.1,5.08-2.89-.03-4.94-1.45-6.73-4.35-1.37-2.18-2.3-4.83-2.26-8.72.13-11.62,8.95-20.94,22.18-20.78,13.13.15,20.05,9.03,19.93,19.69-.1,8.74-6.34,15.3-16.56,17.58-.67.04-1.01.04-1.53-.5l-4.61-5ZM260.83,60.41c-.02,1.58.26,2.74.77,3.66.52.97,1.19,1.6,1.95,1.61,1.11.01,2.51-1.08,3.84-3.65,2.76-5.35,4.16-10.42,4.95-16.28-7.04,1.12-11.44,7.27-11.52,14.66Z"/>
          <path class="cls-8" d="M304.75,66.64c2.83-3.22,5.05-6.79,6.51-10.38l.47-.22,6.15,2.63.17.52c-1.78,3.98-4.13,7.9-6.86,11.12l-.53.03-5.85-3.27-.07-.43ZM320.49,37.67l.37-.36,6.87-.34.4.36.4,8.06,8.07-.4,6.38-.46.4.32.3,6.05-.32.4-6.3.17-8.22.41.47,9.5.46,6.37c.43,5.75-1.84,7.45-9.42,8.21-.96.05-1.06,0-1.53-.79l-3.58-6.12c6.44-.32,6.77-.48,6.62-3.41l-.67-13.39-7.74.39-6.86.49-.36-.37-.31-6.09.42-.31,6.54-.18,7.98-.4-.41-8.11ZM346.34,64.23l-5.41,4.5-.48.02c-2.76-4.1-5.66-7.32-8.67-9.72l-.02-.43,5.05-4.05.48-.02c3.71,2.85,7.05,6.09,9.13,9.21l-.07.48ZM345.12,37.94c.13,2.64-1.97,4.96-4.61,5.09-2.69.13-5.01-1.96-5.14-4.6-.13-2.69,1.96-5,4.66-5.14,2.64-.13,4.96,1.97,5.1,4.65ZM338.06,38.29c.06,1.2,1.12,2.11,2.32,2.05,1.2-.06,2.11-1.07,2.05-2.27-.06-1.25-1.07-2.16-2.27-2.1-1.2.06-2.16,1.07-2.1,2.32Z"/>
          <path class="cls-8" d="M370.52,50.69c-3.3,3.03-6.77,5.94-10.66,8.9-.89.64-1.13.67-2.08.07l-5.67-3.79c10.53-6.85,18.66-13.88,26.07-25.13l.57-.07,6.49,3.39.12.57c-2.66,3.53-5.27,6.62-7.79,9.36l1.39,11.01,2.13,14.94-8.26,1.04-1.64-14.85-.69-5.43Z"/>
          <path class="cls-8" d="M394.06,38.69l3.4-6.14.45-.2c3.13.77,7.45,2.4,10.99,4.31l.11.47-3.6,6.78-.41.14c-3.43-2.08-7.1-3.66-10.79-4.94l-.14-.41ZM431.31,34.34c.23.34.34.61.39.85.07.33-.02.55-.28.95-6.27,11.08-14.91,20.22-26.02,28.65h-.49s-5.66-5.36-5.66-5.36v-.49c10.62-7.09,20.76-18.06,27.81-31.38l4.25,6.77Z"/>
          <path class="cls-8" d="M452.47,36.32l3.68,17.98-8.22,1.57-3.22-18.17-3.88-20.34.31-.4,7-1.33.45.31,3.01,15.76,3.2-5.31.46-.14c4.34,1.42,7.62,2.7,12.01,5.19l.04.48-3.49,6.58-.46.14c-3.72-2.27-7.3-4.09-11.48-5.49l.6,3.16Z"/>
          <path class="cls-8" d="M474.41,34.83c5.08-4.72,8.63-8.67,11.14-13.03-2.29.35-4.69.56-6.95.71l-.31-.27-.59-5.88.32-.31c3.6-.24,7.15-.58,10.69-1.05.73-2.02,1.31-4.18,1.83-6.57l.37-.27,6.64.52.31.32c-.46,1.72-.94,3.19-1.38,4.62,2.38-.54,4.75-1.14,7.11-1.87l.45.21.86,5.62-.26.45c-3.46.95-7.35,1.84-11.31,2.59-.69,1.2-1.65,2.76-2.53,3.97,1.41-.53,2.55-.8,4.47-.93,2.98-.2,5.26,1.53,6.17,4.21,2.95-1.35,6.28-2.78,9.94-4.28l.49.16,3.37,5.7-.21.45c-4.77,1.57-8.81,3.09-12.28,4.63.22,1.86.43,4.21.63,6.51l-.32.31-6.32.67-.4-.26c-.09-1.39-.19-2.83-.26-3.93-2.84,1.59-4.38,3.04-4.27,4.67.11,1.63,2.06,1.93,6.33,1.69,3.51-.19,8.28-.94,12.46-1.85l.5.26.86,6.35-.26.4c-4.54.69-8.55,1.2-14.17,1.58-9.7.65-12.52-3.25-12.79-7.38-.31-4.6,3.37-8.08,7.66-10.92.83-.54,1.76-1.08,2.78-1.63-.32-1.18-1.08-1.76-2.52-1.66-1.92.13-3.76.73-5.36,2.04-2.01,1.68-5.07,4.96-7.83,8.33l-.48.08-4.54-4.41-.03-.53Z"/>
          <path class="cls-8" d="M520.52,47.18c2.79-5.2,4.74-10.16,7.3-18.41l5.73,3.69c.54.41.58.79.45,1.34-1.77,6.01-3.3,10.16-6.37,17.01l-.56.31-6.35-3.38-.2-.56ZM528.84,24.99l-.67.14c-2.41-2.19-5.16-4.16-7.28-5.4l-.15-.45,4.5-5.09.67-.14c2.01.96,4.99,2.94,7.35,4.8l.14.56-4.57,5.58ZM531.59,11.55l-.67.09c-2.35-2.35-4.99-4.32-7.43-5.74l-.1-.45,4.88-4.85.67-.09c2.5,1.36,5.09,3.11,7.51,5.13l.09.56-4.95,5.35ZM557.56,38.95l.25-7.06.4-.37,4.37.16.32.45-.28,7.67-.06,4.69-.46.37-5.91-.38-7.41-.27-.09,2.65-5.08-.18.47-8.44.25-6.84.4-.37,4.2.15.32.45-.25,7.01,1.44.05.34-9.33-7.96-.29-.83,23.12-7.19-.26.82-15.22.28-7.84.04-5.74.4-.37,5.96.38,7.63.27.11-2.98-8.4-.3-7.25-.09-.37-.4.19-5.35.4-.37,7.23.43,2.6.09.13-3.7-7.25-.09-.37-.4.19-5.24.4-.37,7.23.43.17-4.64.4-.43,6.3.23.37.4-.17,4.69,5.53.2.17-4.63.4-.43,6.41.23.37.4-.17,4.69,7.47.1.37.4-.19,5.24-.4.37-7.46-.43-.13,3.7,2.93.1,7.25.09.37.4-.19,5.35-.4.37-7.23-.43-9.23-.33-.11,2.98,8.07.29,5.97.05.37.4-.37,5.73-.27,7.61-.14,8.45c-.2,5.63-2.52,6.87-8.98,6.64-1.1-.04-1.21-.15-1.41-.71l-2.1-6.15c2.1.13,3.65.13,4.37.1.83-.03.96-.52.98-1.13l.54-15.12-8.29-.3-.33,9.33,1.55.06ZM551.51,14.7l5.53.2.13-3.7-5.53-.2-.13,3.7Z"/>
          <path class="cls-8" d="M580.54,50.21c4.01-10.1,7.52-18.69,11.03-27.4-2.84,0-5.62-.04-8.38-.2l-.39-.43.22-6.7.43-.39c4.1.14,7.72.17,11.12.12,1.18-2.98,2.44-6.11,3.69-9.24l.53-.22,7.39,2.03.33.54c-.98,2.17-1.98,4.55-2.84,6.68,2.24-.13,4.49-.31,6.57-.52l.41.27-.3,6.91-.43.39c-3.03.2-6.22.39-9.36.52-4.09,9.81-7.95,19.53-12.06,30.45l-.52.16-7.28-2.51-.17-.46ZM599.46,47.35l4.6-4.58h.56c2.4,3.29,4.89,4.36,11.15,5.09,3.35.39,7.01.54,10.1.28l.41.27-.89,7.68-.38.4c-3.46.04-5.95-.08-10.45-.6-9.61-1.12-12.43-3.72-15.17-7.93l.07-.6ZM606.56,31.33l1.28-6.69.44-.45c2.77.1,5.47.3,8.06.6,3.74.43,7.28,1.07,10.36,1.87l.33.48-1.34,6.74-.53.27c-3.7-.76-7.3-1.4-11.2-1.86-2.25-.26-4.57-.42-7.06-.54l-.34-.43Z"/>
          <path class="cls-8" d="M645.83,13.09l7.68,1.38.37.46c-1.44,6.7-2.51,11.28-3.75,16.84-1.04,4.7-2.42,10.73-3.15,14.98-.68,3.92.88,5.98,4.14,6.54,6.27,1.08,14.2-2.59,20.29-10.23l3.65,7.13c.39.68.42,1.14-.14,1.77-6.87,7.61-16.29,11.14-24.63,9.7-8.23-1.42-13.17-6.25-11.59-15.45,1.31-7.56,2.56-12.56,3.58-17.48.9-4.22,2-8.96,3.1-15.32l.45-.31Z"/>
          <path class="cls-8" d="M681.05,65.15c5.01-9.64,9.36-17.85,13.73-26.16-2.83-.28-5.59-.61-8.32-1.04l-.35-.47.89-6.64.47-.35c4.07.55,7.66.95,11.05,1.24,1.47-2.84,3.04-5.83,4.6-8.83l.55-.16,7.15,2.76.27.57c-1.19,2.06-2.42,4.33-3.49,6.36,2.24.1,4.5.14,6.59.15l.39.31-1,6.85-.47.35c-3.04-.1-6.23-.24-9.36-.42-5.06,9.35-9.87,18.64-15.06,29.09l-.53.11-6.99-3.23-.12-.48ZM700.17,64.21l5.03-4.1.55.07c2.06,3.5,4.43,4.82,10.59,6.17,3.3.72,6.92,1.24,10.02,1.3l.38.31-1.66,7.55-.42.36c-3.44-.3-5.91-.68-10.34-1.65-9.45-2.08-11.99-4.95-14.3-9.41l.13-.59ZM708.84,48.98l1.94-6.53.49-.4c2.75.38,5.42.85,7.96,1.41,3.67.81,7.14,1.79,10.12,2.9l.28.51-2.01,6.57-.56.22c-3.6-1.13-7.12-2.13-10.96-2.97-2.21-.49-4.51-.88-6.97-1.25l-.3-.46Z"/>
        </g>
        <circle class="cls-5" cx="119.67" cy="45.69" r="2.83"/>
        <circle class="cls-5" cx="102.67" cy="39.08" r="2.83"/>
        <circle class="cls-5" cx="87.56" cy="20.19" r="2.83"/>
        <circle class="cls-5" cx="797.18" cy="63.48" r="2.83"/>
        <circle class="cls-5" cx="769.98" cy="70.35" r="2.83"/>
        <circle class="cls-5" cx="747.4" cy="64.26" r="2.83"/>
        <path class="cls-7" d="M113.48,185.63c-4.15,2.53-5.67,4.58-7.54,10.2-1.87-5.62-3.39-7.67-7.54-10.2,4.15-2.53,5.67-4.58,7.54-10.2,1.87,5.62,3.39,7.67,7.54,10.2Z"/>
        <path class="cls-7" d="M812.19,171.29c-6.63,4.04-9.05,7.32-12.04,16.29-2.99-8.97-5.41-12.25-12.04-16.29,6.63-4.04,9.05-7.32,12.04-16.29,2.99,8.97,5.41,12.25,12.04,16.29Z"/>
      </g>
      <path class="cls-1" d="M691.69,262.07v-33.84c0-12.59,5.88-21.15,25.38-21.15h23.73c2.68,0,3.71,1.13,3.71,3.71v12.17c0,2.58-1.13,3.71-3.71,3.71h-19.29c-5.06,0-6.5,1.13-6.5,6.19v2.27c3.3-1.03,7.63-1.55,13.1-1.55,18.67,0,24.24,6.29,24.24,18.57v9.9c0,12.59-5.98,20.84-29.71,20.84-25.38,0-30.95-8.25-30.95-20.84ZM715,260.42c0,2.17.93,3.82,6.91,3.82s7.12-1.65,7.12-3.82v-6.09c0-2.06-.93-3.71-7.12-3.71s-6.91,1.65-6.91,3.71v6.09Z"/>
    </g>
  </g>
</svg>