<?xml version="1.0" encoding="utf-8"?>
<!-- Generator: Adobe Illustrator 27.9.0, SVG Export Plug-In . SVG Version: 6.00 Build 0)  -->
<svg version="1.1" id="Layer_1" xmlns="http://www.w3.org/2000/svg" xmlns:xlink="http://www.w3.org/1999/xlink" x="0px" y="0px"
	 viewBox="0 0 781 204.5" style="enable-background:new 0 0 781 204.5;" xml:space="preserve">
<style type="text/css">
	.st0{fill:#C51717;}
	.st1{fill:#2F6B76;}
	.st2{enable-background:new    ;}
	.st3{fill:#333333;}
	.st4{fill:#FFFFFF;}
	.st5{fill:#C9C9C9;}
	.st6{fill:#616161;}
	.st7{fill:#A8A8A8;}
	.st8{fill:#EBEBEB;}
	.st9{fill:#B5B5B5;}
	.st10{fill:#CCCCCC;}
	.st11{fill:none;}
</style>
<g>
	<g id="Layer_2_00000004518843385110701140000014280010393727675580_">
		<g id="PC">
			<g>
				<circle class="st0" cx="142.9" cy="58.7" r="30.5"/>
				<polygon class="st1" points="503.7,87.3 315.9,93.8 315.9,41.1 509.3,41.1 				"/>
				<g class="st2">
					<path d="M536.3,49.5c-0.2,0.4-0.6,0.7-1.2,0.7c-1.6,13.9-5.5,22-12.2,22c-4.3,0-7.3-3.7-7.3-10.7c0-10.4,8-18,17.9-18
						c11.1,0,16.7,6.8,16.7,15.6c0,9.6-4.7,14.5-14.6,17.1c-0.7-1.2-1.8-2.9-3.1-4.3c8.9-1.8,12.5-6.3,12.5-12.7
						c0-6.5-4.4-11-11.6-11c-0.7,0-1.3,0.1-2,0.2L536.3,49.5z M530.1,48.7c-5.9,1.5-9.7,6.8-9.7,12.6c0,3.4,1,5.8,2.7,5.8
						C526.8,67.1,529.4,58.2,530.1,48.7z"/>
				</g>
				<g>
					<path class="st3" d="M319.4,136.1c0.2-2.5,0.3-6.3,0.3-8.3c0-1.4,0-1.9-0.2-3.2l12.2,0.3c-0.3,1.5-0.3,1.7-0.7,7.8
						c0,1.2-0.1,2.3-0.2,3.3h14.1c2.1,0,2.9-0.1,4.3-0.7l5,4.4c-0.7,1.3-0.8,1.8-0.9,4.8c-0.5,13.8-1.4,24.6-2.7,28.9
						c-1.9,6-5,8.1-12.2,8.1c-2.5,0-3.5-0.1-8.5-0.5c-0.3-5.2-0.7-7.3-2.2-11.4c3.2,0.8,6.4,1.3,8.4,1.3c3.1,0,3.9-1,4.7-6.7
						c0.6-4.3,1.2-12.5,1.2-18.1h-12.4c-0.3,2.8-0.7,5-1,6.5c-2.9,13.1-9,21.5-22.1,30.1c-2.9-4.6-4.9-6.8-8.4-9.8
						c8.6-4.5,13.6-9.1,16.8-15.6c1.6-3.3,2.3-5.6,3.2-11.1h-8.1c-4.3,0-5.7,0.1-8.7,0.4l-0.1-11.1c3.2,0.4,4.4,0.5,9,0.5
						L319.4,136.1L319.4,136.1z"/>
					<path class="st3" d="M368.7,147.3c3,0.4,6.5,0.6,13.3,0.6h30.9c6.5,0,8.9-0.1,13.3-0.6v12.5c-3.1-0.3-6-0.4-13.3-0.4H382
						c-7.2,0-9.4,0.1-13.3,0.4L368.7,147.3L368.7,147.3z"/>
					<path class="st3" d="M445.9,182.1c0.3-2.7,0.3-4.6,0.4-9.9v-37.7c-0.1-5.6-0.1-5.9-0.5-9.4h12.5c-0.3,1.7-0.3,2.7-0.3,9.4v8.9
						c10.2,3.3,20.4,7.9,29.4,13.4l-6.1,11c-5.4-3.8-12.9-8-20.4-11.2c-1.9-0.8-2.1-0.8-2.3-1c-0.2-0.1-0.3-0.1-0.6-0.3v16.8
						c0,4.8,0.1,8.2,0.4,9.9L445.9,182.1L445.9,182.1z M475.1,128.8c2.5,2.9,4.6,5.8,6.4,9.2l-6.1,3c-2.1-4.1-3.8-6.5-6.4-9.4
						L475.1,128.8L475.1,128.8z M483.8,124.9c2.4,2.6,4.2,5,6.5,9l-6,2.9c-2.3-4.1-4.1-6.7-6.3-9.2L483.8,124.9z"/>
					<path class="st3" d="M517.4,176.2v4.5h-11.8c0.4-3.6,0.5-5.8,0.5-10.5v-33.2c0-2.8-0.1-4.8-0.3-7.4c2.3,0.2,3.6,0.3,7.8,0.3
						h34.9c4,0,5,0,8-0.3c-0.1,2.3-0.2,4.6-0.2,7.6v32.8c0,5,0.1,8.1,0.5,10.7h-11.7v-4.3L517.4,176.2L517.4,176.2z M545.1,140.1
						h-27.8v25.8h27.8V140.1z"/>
					<path class="st3" d="M572.8,147.3c3,0.4,6.5,0.6,13.3,0.6H617c6.5,0,8.9-0.1,13.3-0.6v12.5c-3.1-0.3-6-0.4-13.3-0.4h-30.8
						c-7.2,0-9.4,0.1-13.3,0.4L572.8,147.3L572.8,147.3z"/>
					<path class="st3" d="M649.5,128.2c8.2,4.8,12.3,7.8,17.8,12.7l-7.6,10.1c-5.6-5.9-11.1-10.1-17.6-13.6L649.5,128.2L649.5,128.2
						z M642.8,168.3c6.6-0.5,13.4-2.1,19.5-4.7c8.2-3.4,14-8.2,19-16c2.7-4.1,4.5-7.7,6.3-12.7c3.2,3.8,4.7,5.1,9.5,8.7
						c-5.9,12.7-12,20.4-21.1,26.2c-7,4.5-13.1,6.9-25.2,9.7c-2.5,0.6-2.9,0.6-4.7,1.2L642.8,168.3L642.8,168.3z"/>
				</g>
				<g>
					<g>
						<path class="st4" d="M378.7,70.2c-3.2-0.3-6.3-0.5-10.2-0.5h-34.3c-3.9,0-7,0.1-10.3,0.5l-2.2,0.2v-15l2.2,0.2
							c3,0.3,5.8,0.5,10.2,0.5h34.3c4.8,0,7.6-0.1,10.1-0.5l2.3-0.3v15L378.7,70.2L378.7,70.2z"/>
						<path class="st1" d="M378.9,57.7v10.5c-3.5-0.4-6.7-0.5-10.4-0.5h-34.3c-3.7,0-6.8,0.1-10.5,0.5V57.7c3.2,0.4,6,0.5,10.5,0.5
							h34.3C373.2,58.2,376.2,58,378.9,57.7 M382.9,53.1l-4.5,0.6c-2.4,0.3-5.2,0.5-9.9,0.5h-34.3c-4.4,0-7-0.1-10-0.5l-4.5-0.5
							v19.4l4.4-0.4c3.3-0.3,6.3-0.5,10.1-0.5h34.3c3.9,0,6.9,0.1,10,0.5l4.4,0.5V53.1L382.9,53.1z"/>
					</g>
					<g>
						<path class="st4" d="M417,94.6l0.2-2.2c0.2-2.7,0.4-4.9,0.4-7.6v-5.4h-13.1l0.2-2.2c0.2-1.5,0.2-3.1,0.2-5.7v-0.8
							c-0.4,0.2-0.8,0.3-1.1,0.4v13.8c0,6.1-1.8,9.6-11,9.6c-1.4,0-2.4-0.1-4.3-0.2l-2-0.1l-0.1-1.7c-0.3-3.6-0.6-5.2-1.5-8.2
							l-0.9-2.9l3,0.4c1.9,0.2,2.8,0.3,3.8,0.3v-6.8c-0.3,0.1-0.5,0.2-0.9,0.2c-0.5,0.1-1.3,0.4-2.1,0.7l-2.4,0.8l-1.3-14l2.1-0.1
							c1,0,2.4-0.3,4.6-0.9v-5.5c-1.3,0-2.4,0.1-3.6,0.2l-2.2,0.3V43.3l2.3,0.4c1.1,0.2,2,0.3,3.5,0.3v-2.2c0-3.2-0.1-4.4-0.3-6
							l-0.3-2.3h14.2l-0.3,2.3c-0.2,1.6-0.3,2.8-0.3,5.9V44c0.3,0,0.6,0,1.1-0.1l0,0c0-3-0.1-4.5-0.2-6.4l-0.2-2.4l2.4,0.2
							c1.6,0.2,3.4,0.2,6.4,0.2H435c3.2,0,5.1-0.1,6.6-0.2L444,35l-0.2,2.5c-0.2,1.9-0.2,3.3-0.2,6.5v26.4c0,2.6,0.1,4.4,0.2,6.5
							l0.2,2.2h-13.4v5.8c0,3.3,0.1,5.3,0.4,7.6l0.2,2.2L417,94.6L417,94.6z M430.7,64.1v-2.4h-0.1v2.4H430.7z M403.8,58
							c0.3-0.1,1.1-0.4,1.1-0.4v-1.2c0,0-0.9-0.1-1.1-0.1V58z M430.7,50v-2.2h-0.1V50H430.7z"/>
						<path class="st1" d="M402.1,35.6c-0.2,1.7-0.3,3-0.3,6.2V46h1.1c1,0,1.4,0,2.7-0.2v8.7c-0.2-0.1-0.4-0.1-0.5-0.1
							c-0.8-0.1-1.4-0.1-2.2-0.1h-1.1v6.4c1.1-0.4,1.9-0.6,3.8-1.2v8.7c-1.9,0.7-2.2,0.8-3.8,1.3v15.2c0,6-1.9,7.6-9,7.6
							c-1.4,0-2.4-0.1-4.4-0.2c-0.3-3.6-0.6-5.4-1.6-8.7c2,0.2,3.1,0.3,4.2,0.3c1.5,0,1.8-0.4,1.8-1.9v-9.5
							c-0.3,0.1-1.4,0.4-3.4,0.9c-0.5,0.1-1.2,0.4-2.2,0.7l-0.9-9.3c1.4-0.1,3.5-0.5,6.5-1.3v-9.1h-1.6c-1.4,0-2.7,0.1-4.3,0.2v-8.9
							c1.5,0.2,2.7,0.3,4.4,0.3h1.5v-4.2c0-3.3-0.1-4.5-0.3-6.2L402.1,35.6 M441.9,37.3c-0.2,1.9-0.2,3.3-0.2,6.7v26.4
							c0,2.5,0.1,4.4,0.2,6.7h-9.3v-2.6h-4v10.3c0,3.3,0.1,5.3,0.4,7.8h-9.7c0.2-2.6,0.4-4.8,0.4-7.8V74.5h-3.9v2.9h-9
							c0.2-1.6,0.2-3.3,0.2-5.9V43.9c0-3.1-0.1-4.7-0.2-6.6c1.8,0.2,3.6,0.2,6.6,0.2h21.7C438.2,37.5,440.2,37.5,441.9,37.3
							 M428.6,52h4.1v-6.2h-4.1V52 M415.6,52h4v-6.2h-4V52 M428.6,66.1h4.1v-6.4h-4.1V66.1 M415.6,66.1h4v-6.4h-4V66.1 M406.8,31.6
							H388l0.6,4.6c0.2,1.4,0.3,2.4,0.3,5.7v0.1c-0.4,0-0.8-0.1-1.2-0.2L383,41v18.1l4.5-0.5c0.5-0.1,1-0.1,1.4-0.1v1.9
							c-1.1,0.2-2,0.4-2.6,0.5l-4.2,0.2l0.4,4.2l0.9,9.3l0.4,4.7l-2.4-0.3l1.7,5.8c0.9,2.9,1.1,4.4,1.4,7.8l0.3,3.5l3.5,0.2h0.2
							c1.9,0.1,3,0.2,4.4,0.2c3.5,0,7.1-0.3,9.7-2.5c2.9-2.4,3.2-6.2,3.2-9.1v-3.4h9.7v3.4c0,2.7-0.1,4.7-0.4,7.4l-0.4,4.4h18.5
							l-0.4-4.4c-0.2-2.2-0.3-4.2-0.3-7.4v-3.8h13.6l-0.4-4.3c-0.2-2-0.2-3.8-0.2-6.3V44c0-3.5,0.1-4.7,0.2-6.3l0.5-4.9l-4.9,0.5
							c-1.4,0.2-3.2,0.2-6.3,0.2h-21.7c-3,0-4.6-0.1-6.2-0.2l-0.6-0.1L406.8,31.6L406.8,31.6L406.8,31.6z M384.6,79.3l4-1.4
							c0.1,0,0.2-0.1,0.3-0.1v2c-0.4,0-0.9-0.1-1.5-0.2L384.6,79.3L384.6,79.3L384.6,79.3z"/>
					</g>
					<g>
						<path class="st4" d="M474.4,92.8c-6.7,0-11.8-1.7-15.4-5.2c-3.9-3.8-5.2-8.1-5.2-17.1c0-1.1,0.1-5.7,0.3-13.8l0-2.2
							c0.1-5.3,0.2-10,0.2-12c0-1.8-0.1-2.7-0.3-4.3l-0.3-2.3l16.5,0.2l-0.4,2.3c-0.6,3.7-1.4,19.5-1.4,29.7c0,5.9,0.2,7.3,1,8.4
							c0.8,1.2,2.8,2,5.4,2c5.4,0,9.5-3.2,11.6-8.9c1.1-3,1.8-6,2.3-10.5l0.4-3.5l2.8,2.2c4.5,3.5,6.3,4.6,9.9,6.1l1.6,0.7l-0.4,1.7
							c-2.4,9.3-4.5,14-8.1,18C489.7,90,482.8,92.8,474.4,92.8L474.4,92.8z"/>
						<path class="st1" d="M456,38l11.9,0.2c-0.7,3.8-1.4,20-1.4,30.1c0,6.1,0.2,7.9,1.3,9.5c1.1,1.8,3.8,2.9,7.1,2.9
							c6.2,0,11.1-3.7,13.4-10.2c1.2-3.3,1.9-6.5,2.4-11c4.5,3.5,6.5,4.8,10.4,6.4c-2.3,9.1-4.3,13.5-7.6,17.2
							c-4.8,5.2-11.1,7.8-19,7.8c-6.2,0-10.8-1.5-14-4.6c-3.5-3.3-4.6-7.2-4.6-15.7c0-1,0.1-5.6,0.3-13.7c0.1-6.1,0.2-11.9,0.2-14.2
							C456.3,40.7,456.2,39.8,456,38 M451.4,33.9l0.6,4.6c0.2,1.5,0.3,2.3,0.3,4c0,2-0.1,6.9-0.2,12l0,2.1
							c-0.2,8.1-0.3,12.7-0.3,13.8c0,8.2,1,13.9,5.8,18.6c4.1,3.9,9.6,5.7,16.8,5.7c9,0,16.4-3.1,22-9.1c3.9-4.3,6.1-9.2,8.6-18.9
							l0.9-3.4l-3.2-1.3c-3.4-1.4-5.1-2.4-9.4-5.8l-5.6-4.4l-0.9,7c-0.5,4.4-1.1,7.2-2.2,10.1c-1.3,3.5-4,7.6-9.7,7.6
							c-2.3,0-3.5-0.7-3.7-1.1c-0.4-0.7-0.6-2-0.6-7.4c0-10,0.7-25.9,1.3-29.4l0.8-4.6l-4.7-0.1L456.1,34L451.4,33.9L451.4,33.9
							L451.4,33.9z"/>
					</g>
				</g>
				<g>
					<path d="M186.3,45.3c1.8,2.4,3.5,5.6,4.3,7.8l-4,1.7c-0.6-2.2-2.4-5.5-4-8L186.3,45.3L186.3,45.3z M199.1,44.2
						c0,0.3-0.3,0.5-0.9,0.7v11.4h11v20H205V75h-22.4v-4H205v-3.5h-20.4v-3.9H205v-3.3h-21.6v-4H194V43.9L199.1,44.2L199.1,44.2z
						 M201.7,53.5c1.3-2.3,2.9-5.8,3.8-8.5l5.1,1.8c-0.2,0.3-0.5,0.4-1,0.4c-1,2.5-2.8,5.7-4.2,7.8L201.7,53.5L201.7,53.5z"/>
					<path d="M246.3,56.3h-6.3v1.5c0,7.1-2.4,13.4-10.7,17.3c-0.8-0.9-2.1-2.2-3.1-3c7.8-3.5,9.5-8.7,9.5-14.3v-1.5h-8.8v7.7h-4.3
						v-7.7h-5.9v-4.1h5.9v-6.8l5.3,0.3c0,0.3-0.4,0.8-1,0.9v5.6h8.8V45l5.4,0.3c0,0.4-0.4,0.7-1,0.8v6.2h6.3L246.3,56.3L246.3,56.3z
						"/>
					<path d="M278.4,48.1c-0.2,0.3-0.5,0.4-1.1,0.4c-2.7,2.6-6,5.4-9.2,7.8c0.4,0.1,0.8,0.3,1.1,0.4c-0.1,0.3-0.4,0.6-1,0.7v17.9
						h-4.5V59.1c-3,2-7.6,4.6-11.4,6.4c-0.6-1-1.7-2.5-2.6-3.3c8.9-4,19.2-11.1,24.4-17.2L278.4,48.1L278.4,48.1z"/>
					<path d="M302.3,64.2c-2.8-1.6-7.3-3.8-10.7-5.1v16H287V45l5.6,0.3c0,0.4-0.3,0.8-1,0.9v9.6l0.9-1.2c3.8,1.3,8.9,3.6,12.3,5.4
						L302.3,64.2L302.3,64.2z"/>
				</g>
				<path class="st1" d="M176.7,145.8c0.5,3.6,0.9,5.1,1.8,7.7c3.3-2.4,5.5-4.5,7.2-6.7l8,8.9c-0.9,0.7-0.9,0.7-2.1,1.7
					c-2.5,2.1-5.1,4.2-7.7,6.1c3.1,3.8,5.5,6,10.4,9.2c-3,4-4.7,6.8-7.5,12.1c-5.8-4.8-9.3-8.7-12.4-13.8l0.1,6.6
					c-8.2,2.7-18.6,5.3-25.1,6.5c-1.2,0.2-2.3,0.5-3.3,0.8l-1.2-5.9c-5.4,1.3-10.7,2.5-16.6,3.5c-0.7,0.1-2.1,0.3-4.4,0.7
					c-0.6,0.1-7.1,1.1-9.3,1.5l-1.8-13.2h1.2c2.4,0,6-0.3,12-1v-21.8h-3.3c-3.3,0-6.4,0.2-8.8,0.5V137c2.2,0.3,5.2,0.5,8.8,0.5h3.3
					v-3.8c-2.1,0-3.3,0.1-5.2,0.3v-3.4c-1.8,1.6-2.4,2.1-4.4,3.5c-1.5-5.3-2.7-8-5.1-12.5c7.6-5.1,11.9-10,15-16.8h12.9
					c2,4.2,3.9,6.8,7.8,10.1c1,0.9,1.8,1.4,3.3,2.4v-1.2c0-4.1-0.1-6.7-0.3-9.3c2.1,0.3,4.3,0.3,8.1,0.3h24.2c3.6,0,5.8-0.1,7.7-0.3
					c-0.3,2-0.3,4.5-0.3,9.6v20.4c0,3.9,0.1,7.5,0.3,9.1c-2.1-0.1-3.3-0.2-5.3-0.2L176.7,145.8L176.7,145.8z M116.5,169.7
					c-0.9-7.1-1.7-11-3.7-16.7l8.5-2.8c2.2,6.7,3.1,10.5,3.9,16.3C125.2,166.5,116.5,169.7,116.5,169.7z M139,123.6
					c-2.7-2.8-3.7-4.2-6-7.8c-2.3,3.9-3.3,5.4-5.3,7.8H139z M150.4,120.5c-2.5,3.4-3.9,5.6-5.1,8.2v5.2c-1.5-0.2-3.1-0.3-4.9-0.3
					h-2.5v3.8h3.8c3.3,0,5.1-0.1,6.5-0.3V149c-1.8-0.3-3.4-0.3-6.5-0.3h-3.8v20.1c2.9-0.5,4.4-0.8,8.7-1.6v4.7
					c0.6-0.1,1.2-0.2,1.9-0.3c1-0.1,1.2-0.1,2-0.3L150.4,120.5L150.4,120.5z M138.1,163.4c1.8-4.6,2.7-7.5,3.7-13.1l7.5,2.8
					c-1.4,5.2-2.5,8.6-4.4,13L138.1,163.4L138.1,163.4z M162.6,121.9h15.1v-3.6h-15.1V121.9z M162.6,134.7h15.1V131h-15.1V134.7z
					 M162.6,169c5.1-1.1,5.3-1.2,9.4-2.3c-3.6-7.4-5.1-12-6.4-20.9h-3V169L162.6,169z"/>
				<path class="st1" d="M267.5,173.8c0,5.9-1.5,8.7-5.3,10.3c-2.3,1-5.4,1.3-12.7,1.3c-1.6,0-3.2,0-6.8-0.1
					c-0.6-5.3-1.4-8.4-3.4-13.5c5.9,0.5,9.1,0.8,11.3,0.8c3.3,0,3.7-0.2,3.7-2v-28.1h-13.4c-4,0-8.2,0.2-11.4,0.5v-8.9
					c-2,2.7-3,4.1-5.3,6.9v33.8c0,4.7,0.1,8,0.5,11.3h-14.2c0.4-3.1,0.6-7,0.6-11.6v-20.8c-1.8,1.9-3.5,3.5-5.7,5.1
					c-1.4-5.9-2.6-9.2-5.4-13.8c8.4-5.2,17-14.1,21.1-21.7l8.4,6.2c3.6,0.4,7.1,0.5,11.4,0.5h28.5c5,0,8.9-0.2,11.3-0.5V143
					c-3.4-0.4-7.1-0.5-10.9-0.5h-2.4V173.8z M230.3,111.9c-0.6,0.5-1,1.1-1.4,1.6c-5.6,6.5-14.1,13.5-21.9,18
					c-1.9-5.2-3.7-8.4-6.8-12.1c7.1-3.5,11.8-7,16.2-11.8c1.7-1.8,2.6-2.9,3.4-4.5l11.1,8.4L230.3,111.9L230.3,111.9z M233.3,107.2
					c2.5,0.3,6,0.5,11,0.5h22.2c4.7,0,7.8-0.2,10.6-0.5v13.4c-3.4-0.3-6.8-0.5-10.4-0.5h-22.5c-3.9,0-7.7,0.2-11,0.5L233.3,107.2
					L233.3,107.2z"/>
				<g>
					<polygon class="st5" points="143.6,44.5 130.8,51.4 156.4,51.4 					"/>
					<rect x="130.4" y="54.1" class="st6" width="26" height="16.7"/>
					<polygon class="st7" points="133.2,52 143.6,46.1 155.2,52.4 159.2,52.2 143.4,43.6 130.3,50.9 					"/>
					<path class="st8" d="M126.7,51.4h33.9c0.2,0,0.4,0.2,0.4,0.4v2c0,0.2-0.2,0.4-0.4,0.4h-33.9c-0.2,0-0.4-0.2-0.4-0.4v-2
						C126.2,51.5,126.4,51.4,126.7,51.4z"/>
					<path class="st8" d="M159.8,53.7l-15.9-8.8c-0.2-0.1-0.4-0.1-0.6,0l-15.9,8.8c-0.3,0.2-0.7,0.1-0.8-0.2l-0.8-1.4
						c-0.2-0.3-0.1-0.7,0.2-0.8l17.2-9.5c0.2-0.1,0.4-0.1,0.6,0l17.2,9.5c0.3,0.2,0.4,0.5,0.2,0.8l-0.8,1.4
						C160.4,53.7,160.1,53.8,159.8,53.7z"/>
					<path class="st8" d="M133,57.3c0.3,0,0.5-0.2,0.5-0.5v-2.2c0-0.3-0.2-0.5-0.5-0.5h-3.9c-0.2,0-0.4,0.2-0.5,0.4c0,0,0,0.1,0,0.1
						v2.2c0,0.3,0.2,0.5,0.5,0.5h0.5v10.3h-0.5c-0.3,0-0.5,0.2-0.5,0.5v2.2c0,0,0,0.1,0,0.1c0,0.2,0.2,0.4,0.5,0.4h3.9
						c0.3,0,0.5-0.2,0.5-0.5v-2.2c0-0.3-0.2-0.5-0.5-0.5h-0.5V57.4L133,57.3L133,57.3z"/>
					<path class="st8" d="M141.4,57.3c0.3,0,0.5-0.2,0.5-0.5v-2.2c0-0.3-0.2-0.5-0.5-0.5h-3.9c-0.2,0-0.4,0.2-0.5,0.4
						c0,0,0,0.1,0,0.1v2.2c0,0.3,0.2,0.5,0.5,0.5h0.5v10.3h-0.5c-0.3,0-0.5,0.2-0.5,0.5v2.2c0,0,0,0.1,0,0.1c0,0.2,0.2,0.4,0.5,0.4
						h3.9c0.3,0,0.5-0.2,0.5-0.5v-2.2c0-0.3-0.2-0.5-0.5-0.5h-0.5V57.4L141.4,57.3L141.4,57.3z"/>
					<path class="st8" d="M149.8,57.3c0.3,0,0.5-0.2,0.5-0.5v-2.2c0-0.3-0.2-0.5-0.5-0.5h-3.9c-0.2,0-0.4,0.2-0.5,0.4
						c0,0,0,0.1,0,0.1v2.2c0,0.3,0.2,0.5,0.5,0.5h0.5v10.3h-0.5c-0.3,0-0.5,0.2-0.5,0.5v2.2c0,0,0,0.1,0,0.1c0,0.2,0.2,0.4,0.5,0.4
						h3.9c0.3,0,0.5-0.2,0.5-0.5v-2.2c0-0.3-0.2-0.5-0.5-0.5h-0.5V57.4L149.8,57.3L149.8,57.3z"/>
					<path class="st8" d="M158.2,57.3c0.3,0,0.5-0.2,0.5-0.5v-2.2c0-0.3-0.2-0.5-0.5-0.5h-3.9c-0.2,0-0.4,0.2-0.5,0.4
						c0,0,0,0.1,0,0.1v2.2c0,0.3,0.2,0.5,0.5,0.5h0.5v10.3h-0.5c-0.3,0-0.5,0.2-0.5,0.5v2.2c0,0,0,0.1,0,0.1c0,0.2,0.2,0.4,0.5,0.4
						h3.9c0.3,0,0.5-0.2,0.5-0.5v-2.2c0-0.3-0.2-0.5-0.5-0.5h-0.5V57.4L158.2,57.3L158.2,57.3z"/>
					<path class="st9" d="M158.7,54.6L158.7,54.6l-30.1,0v-0.2c0.1-0.2,0.2-0.4,0.5-0.4h29.1C158.4,54.1,158.7,54.3,158.7,54.6
						L158.7,54.6z"/>
					<rect x="129.5" y="67.4" class="st9" width="3" height="0.2"/>
					<rect x="137.9" y="67.4" class="st9" width="3" height="0.2"/>
					<rect x="146.3" y="67.4" class="st9" width="3" height="0.2"/>
					<rect x="154.7" y="67.4" class="st9" width="3" height="0.2"/>
					<path class="st9" d="M158.7,70.3v0.1c0,0.2-0.2,0.4-0.5,0.4h-29.1c-0.2,0-0.5-0.2-0.5-0.4v-0.1H158.7z"/>
					<path class="st10" d="M129.5,58.9v-1.6h3v0.1l0,0C131.1,57.5,130.1,57.8,129.5,58.9L129.5,58.9z"/>
					<path class="st10" d="M137.9,58.9v-1.6h3v0.1l0,0C139.5,57.5,138.5,57.8,137.9,58.9L137.9,58.9z"/>
					<path class="st10" d="M146.3,58.9v-1.6h3v0.1l0,0C147.9,57.5,146.9,57.8,146.3,58.9L146.3,58.9z"/>
					<path class="st10" d="M154.7,58.9v-1.6h3v0.1l0,0C156.2,57.5,155.2,57.8,154.7,58.9L154.7,58.9z"/>
					<path class="st8" d="M126.9,70.8h33.7c0.2,0,0.4,0.2,0.4,0.4v2.1c0,0.2-0.2,0.4-0.4,0.4h-33.7c-0.2,0-0.4-0.2-0.4-0.4v-2.1
						C126.5,71,126.7,70.8,126.9,70.8z"/>
				</g>
				<polyline class="st0" points="363.9,25.1 357.5,6.4 351.2,10.1 				"/>
				<polyline class="st0" points="360.9,30.5 344,20.3 341.6,27.1 				"/>
				<rect class="st11" width="781" height="204.5"/>
			</g>
		</g>
	</g>
</g>
</svg>
