<?xml version="1.0" encoding="UTF-8"?><svg id="Layer_2" xmlns="http://www.w3.org/2000/svg" viewBox="0 0 575 69.93"><defs><style>.cls-1{fill:#fff;}.cls-2{fill:#333;}.cls-3{fill:#d7e9f6;}.cls-4{fill:#dfeaf2;}.cls-5{fill:#2f6b76;}.cls-6{stroke-width:2px;}.cls-6,.cls-7{fill:none;stroke:#333;stroke-miterlimit:10;}.cls-7{stroke-width:.5px;}</style></defs><g id="PC"><g><rect class="cls-4" y="8" width="55" height="61"/><polygon class="cls-3" points="55 8 71 1 575 1 565.13 29.46 575 62 71 62 55 69 55 8"/><rect class="cls-5" x="1" y="8" width="54" height="61"/><g><rect class="cls-1" x="92" y="36" width="113" height="14"/><g><path class="cls-5" d="m98.17,34.36c0-.71.03-2.55.07-3.43-.61.88-.99,1.39-1.84,2.31-.48-2.48-.88-3.91-1.73-6.25,1.97-2.04,3.4-4.35,4.59-7.51.71-1.8,1.12-3.4,1.33-4.76l5.41,1.22c-1.33,4.28-1.56,4.96-2.82,7.48v19.75c0,1.5.03,2.45.2,3.91h-5.41c.17-1.39.2-2.31.2-3.91v-8.81Zm22.88,11.86c-1.19-.14-2.11-.17-3.67-.17h-8.36c-1.63,0-2.41.03-3.6.17v-4.96c.65.07,1.29.1,2.31.1h9.65c.78,0,1.33,0,2.21-.07-1.09-1.39-1.8-2.82-2.55-5.17-.61-1.73-.88-3.2-1.26-6.26l-4.42.1v4.86c1.63-.34,2.41-.51,4.69-1.12l.1,4.73c-3.03.99-5.78,1.7-10.23,2.62-.68.14-1.05.24-1.56.41l-.61-5.34c.88-.03.99-.07,2.55-.31v-15.13c0-1.8,0-2.24-.1-3.13,2.82,0,6.32-.37,10.03-1.05,3.06-.54,4.96-1.09,6.36-1.8l3.81,4.73c-.51.14-.68.17-1.26.31-1.9.51-2.58.65-4.76,1.05v1.33c0,.92,0,1.5.07,2.86l2.96-.07c1.73-.03,2.28-.07,3.37-.24l.07,5.07c-.88-.07-1.12-.07-2.35-.07-.58,0-.92,0-1.12.03l-2.58.03c.34,2.92.88,5.17,1.7,6.7.44.85.99,1.6,1.16,1.6.31,0,.54-1.5.75-4.59,1.5,1.5,2.14,2.01,3.54,2.86-.2,2.62-.41,3.94-.95,5.37-.58,1.6-1.6,2.48-2.82,2.48-.88,0-1.97-.44-3.09-1.33v3.4Zm-5.64-21.11c0-.51-.07-1.7-.14-3.57-1.12.14-1.87.2-3.91.34v3.33l4.05-.1Z"/><path class="cls-5" d="m143.93,28.27c-1.33,0-2.35.03-3.5.14v-1.63c-2.11,1.22-3.3,1.8-5.54,2.72-.95-2.31-1.36-3.13-2.55-5,3.5-1.09,6.43-2.55,9.15-4.62,1.97-1.5,3.47-3.03,4.32-4.45h5.81c1.26,1.77,2.35,2.82,4.39,4.35,2.79,2.11,5.54,3.47,9.11,4.49-1.09,1.94-1.67,3.26-2.35,5.34-2.38-.95-3.71-1.63-5.88-2.92v1.73c-.95-.1-2.07-.14-3.54-.14h-2.11v2.21h7.75c2.04,0,3.2-.07,4.01-.17v5.03c-.92-.14-2.28-.2-4.08-.2h-2.69l4.39,1.53c-1.02,2.18-1.84,3.64-2.62,4.83h1.77c1.9,0,3.03-.07,4.25-.2v5.1c-1.29-.14-2.86-.2-4.39-.2h-21.55c-1.8,0-3.26.07-4.62.2v-5.1c1.33.14,2.69.2,4.59.2h1.05c-.71-2.04-1.16-2.96-2.38-4.9l4.39-1.46h-2.52c-1.63,0-2.92.07-4.08.2v-5.03c.99.14,2.14.17,4.11.17h7.34v-2.21h-2.04Zm2.04,6.87h-4.28c.99,1.6,1.46,2.62,2.45,5.03l-4.25,1.33h6.08v-6.36Zm6.73-11.32c-1.8-1.39-2.69-2.28-3.98-3.84-1.26,1.56-2.07,2.38-3.91,3.84h7.89Zm4.52,17.68l-4.15-1.39c1.43-2.21,1.84-2.99,2.52-4.96h-4.35v6.36h5.98Z"/><path class="cls-5" d="m176.47,21.91c-1.73.27-2.38.37-4.11.58-.44-1.9-.82-2.99-1.56-4.73,3.33-.27,5.88-.68,9.01-1.46,2.21-.54,3.2-.92,4.11-1.46l2.99,4.52q-.17.07-.78.27c-1.33.44-3.06.92-4.52,1.26v3.47h2.11c1.29,0,1.97-.03,2.79-.17v5c-.85-.1-1.7-.14-2.89-.14h-1.84c1.8,2.55,2.89,3.64,5.13,5.24-.99,1.67-1.63,2.96-2.31,4.79-1.39-1.33-2.14-2.28-3.09-3.91.07.78.1,1.7.1,2.79v4.59c0,2.18.03,3.09.2,4.45h-5.54c.14-1.39.2-2.45.2-4.45v-4.01q0-1.7.07-2.65c-1.05,2.62-2.11,4.28-4.05,6.29-.92-2.48-1.33-3.37-2.45-5.2,1.33-1.12,2.14-2.11,3.23-3.77,1.02-1.6,1.67-2.86,2.11-4.15h-1.53c-1.26,0-2.11.03-2.99.17v-5.03c.92.14,1.7.17,3.09.17h2.52v-2.45Zm16.62-4.22c-.14,1.26-.17,2.24-.17,4.35v12.58c0,2.07.03,3.03.17,4.15h-5.41c.14-1.02.17-1.73.17-4.01v-12.71c0-2.01-.07-3.13-.17-4.35h5.41Zm7.85-2.21c-.17,1.56-.2,2.86-.2,4.96v21.42c0,2.21-.54,3.54-1.77,4.15-.95.51-2.86.75-5.88.75-.58,0-1.12-.03-2.35-.07-.41-2.11-.75-3.26-1.6-5.27,2.14.2,3.2.27,4.66.27s1.8-.17,1.8-1.02v-20.23c0-1.6-.07-3.23-.2-4.96h5.54Z"/><path class="cls-2" d="m207.37,23.54c.85,0,2.07-.03,2.87-.08,2.89-.23,16.18-1.11,20.43-1.22l.03,3.01c-2.33-.09-3.83.08-6.02,1.56-3.66,2.33-7.63,6.56-7.63,9.99s2.81,5.68,9.42,6.47l-1.36,2.81c-8.09-1.05-11.15-4.29-11.15-9.25,0-3.72,3.55-8.4,8.23-11.49-3.32.26-10.76.82-13.85,1.14-.08.2-.43.4-.68.45l-.28-3.38Zm18.7,6.22c1.28.99,2.84,2.67,3.63,3.89l-1.39,1.08c-.71-1.14-2.41-3.01-3.52-3.89l1.28-1.08Zm3.21-2.53c1.33,1.05,2.87,2.61,3.63,3.86l-1.36,1.11c-.71-1.08-2.3-2.9-3.55-3.89l1.28-1.08Z"/><path class="cls-2" d="m250.46,21.92c-.14.11-.2.11-.68.11-1.14.57-2.61,1.11-4.26,1.59v4.88h5.25v2.5h-5.25v1.82c1.36,1.02,4.4,3.6,5.19,4.29l-1.53,2.3c-.79-.94-2.33-2.5-3.66-3.77v10.84h-2.64v-11.49c-1.36,2.98-3.06,5.85-4.8,7.66-.28-.77-.94-1.9-1.42-2.61,2.13-2.07,4.37-5.7,5.65-9.03h-5.11v-2.5h5.68v-4.2c-1.7.4-3.46.74-5.11,1.02-.11-.6-.51-1.53-.85-2.07,4.09-.74,8.68-1.96,11.18-3.35l2.36,2.02Zm5.42,1.65c-.03.23-.2.4-.65.45v15.35h-2.61v-16.01l3.26.2Zm3.66-3.09l3.32.17c-.03.26-.17.43-.65.48v21.94c0,3.09-1.28,3.49-6.84,3.43-.14-.74-.57-1.99-.96-2.75,1.16.06,2.3.06,3.15.06,1.79,0,1.99,0,1.99-.74v-22.59Z"/><path class="cls-2" d="m292.69,21.87v21.23c0,2.95-1.28,3.29-6.84,3.24-.11-.74-.54-1.9-.91-2.61,1.11.06,2.24.06,3.09.06,1.87,0,1.96,0,1.96-.71v-5.19h-7.12v8.26h-2.64v-8.26h-6.58c-.48,3.18-1.5,6.44-3.63,8.8-.4-.54-1.5-1.48-2.1-1.79,3.15-3.52,3.43-8.63,3.43-12.69v-10.33h21.34Zm-18.67,10.36c0,.96-.03,2.02-.11,3.09h6.33v-4.17h-6.22v1.08Zm6.22-7.78h-6.22v4.17h6.22v-4.17Zm9.76,4.17v-4.17h-7.12v4.17h7.12Zm-7.12,6.7h7.12v-4.17h-7.12v4.17Z"/><path class="cls-2" d="m299.33,23.54c.85,0,2.07-.03,2.87-.08,2.9-.23,16.18-1.11,20.43-1.22l.03,3.01c-2.33-.09-3.83.08-6.02,1.56-3.66,2.33-7.63,6.56-7.63,9.99s2.81,5.68,9.42,6.47l-1.36,2.81c-8.09-1.05-11.15-4.29-11.15-9.25,0-3.72,3.55-8.4,8.23-11.49-3.32.26-10.76.82-13.85,1.14-.08.2-.43.4-.68.45l-.28-3.38Zm18.7,6.22c1.28.99,2.84,2.67,3.63,3.89l-1.39,1.08c-.71-1.14-2.41-3.01-3.52-3.89l1.28-1.08Zm3.21-2.53c1.33,1.05,2.87,2.61,3.63,3.86l-1.36,1.11c-.71-1.08-2.3-2.9-3.55-3.89l1.28-1.08Z"/><path class="cls-2" d="m352.35,30.67c-2.27.77-5.31,1.31-8.23,1.62.88,1.42,2.5,3.24,4.4,3.97l-1.53,2.24c-1.62-.85-2.36-1.25-4.74-1.25-.45,0-.94.03-1.36.09l-.62-2.13c.31-.03.65-.03,1.02-.03.65,0,1.36.03,1.84.09-.62-.65-1.39-1.65-1.87-2.67-2.04.14-4.31.23-6.07.23-1.53,0-3.72,0-5.51-.06l-.03-2.38c1.62.06,3.83.06,5.45.06s3.63-.06,5.34-.17c-.26-.79-.68-2.16-.94-3.24-.91.09-2.5.14-5.42.14-.94,0-1.84-.03-2.64-.06v-2.44c1.19.06,2.44.08,3.52.08,1.36,0,3.01,0,4.09-.08-.26-1.25-.51-2.78-.71-4.26l3.77.09c0,.31-.28.54-.77.65.11,1.05.26,2.24.45,3.29,2.5-.23,5.39-.79,7.38-1.53l.6,2.44c-2.16.71-4.85,1.19-7.46,1.45.28,1.22.6,2.44.88,3.24,3.01-.34,6.19-.97,8.63-1.85l.54,2.47Zm-11.49,14.84c-4.71-.06-8.23-1.62-8.23-4.85,0-1.84,1.56-3.58,3.21-4.54l1.84,1.76c-1.39.74-2.16,1.76-2.19,2.67-.03,1.7,2.16,2.44,5.34,2.47,2.07,0,4.71-.11,6.58-.28l-.11,2.61c-1.28.08-2.98.17-5.34.17h-1.11Z"/><path class="cls-2" d="m365.49,32.06c1.73-.82,4.29-1.31,6.22-1.31,4.4,0,7.32,2.61,7.32,6.92,0,5.14-4.48,8.03-10.42,8.03-3.69,0-6.24-1.59-6.24-4.29,0-2.19,2.21-3.97,4.85-3.97,3.09,0,5.28,2.27,5.73,4.77,1.85-.74,3.12-2.33,3.12-4.48,0-2.75-2.13-4.51-5.34-4.51-4.06,0-7.92,1.76-9.88,3.63-.74.71-1.87,1.87-2.61,2.7l-2.02-1.99c2.24-2.33,9.88-9.59,13.71-13.14-1.5.2-6.81.45-9.54.57-.06.2-.37.4-.62.45l-.28-3.26c3.75,0,11.41-.28,13.37-.6l.43-.23,1.96,2.38c-.2.17-.48.26-.79.31-1.73,1.33-6.67,5.9-8.97,7.98v.03Zm2.7,11.18c.62,0,1.56-.11,2.13-.23-.26-1.84-1.65-3.29-3.35-3.29-1.19,0-2.27.65-2.27,1.7,0,1.45,1.96,1.82,3.49,1.82Z"/><path class="cls-2" d="m387.26,41.99c0-1.28.99-2.3,2.24-2.3s2.27,1.02,2.27,2.3-1.02,2.33-2.27,2.33-2.24-1.08-2.24-2.33Zm.99-4.68l-.57-15.07h3.75l-.57,15.07h-2.61Z"/></g><g><path class="cls-1" d="m27.08,25.53v22.78c0,.29-.1.54-.31.75s-.45.31-.75.31h-2.65c-.29,0-.54-.1-.75-.31-.2-.2-.31-.45-.31-.75v-14.6c0-.29-.07-.48-.22-.54-.15-.07-.32,0-.53.2l-2.14,2.04c-.2.18-.45.27-.75.27s-.53-.1-.71-.31l-1.83-1.97c-.2-.2-.3-.45-.29-.75.01-.29.12-.53.32-.71l7.13-6.76c.2-.2.48-.37.83-.51.35-.14.67-.2.97-.2h.92c.29,0,.54.1.75.31s.31.45.31.75Z"/><path class="cls-1" d="m39,47.12c0,.7-.24,1.3-.73,1.78-.49.49-1.08.73-1.78.73s-1.26-.24-1.75-.73c-.49-.49-.73-1.08-.73-1.78s.24-1.26.73-1.75c.49-.49,1.07-.73,1.75-.73s1.3.24,1.78.73c.49.49.73,1.07.73,1.75Z"/></g><polyline class="cls-6" points="575 62 71 62 55 68.93 .36 68.93"/><polyline class="cls-6" points=".36 7.93 55 7.93 71 1 575 1"/><line class="cls-7" x1="71.43" y1="9.94" x2="71.43" y2="54.36"/></g></g></g></svg>