<?xml version="1.0" encoding="UTF-8"?><svg id="Layer_2" xmlns="http://www.w3.org/2000/svg" viewBox="0 0 576.64 69.93"><defs><style>.cls-1{fill:#fff;}.cls-2{fill:#333;}.cls-3{fill:#d7e9f6;}.cls-4{fill:#2f6b76;}.cls-5{stroke-width:2px;}.cls-5,.cls-6{fill:none;stroke:#333;stroke-miterlimit:10;}.cls-6{stroke-width:.5px;}</style></defs><g id="PC"><g><polygon class="cls-3" points="55 8.15 71 1.15 575 1.15 565.12 29.61 575 62.15 71 62.15 55 69.15 55 8.15"/><rect class="cls-4" x="1" y="8.15" width="55" height="61"/><g><rect class="cls-1" x="90" y="37.15" width="113" height="14"/><g><path class="cls-4" d="m106.01,20.95q-.03.07-.1.27s-.03.1-.07.24c-.51,1.7-1.67,4.66-2.82,7.04,2.04,3.26,2.58,4.86,2.58,7.51,0,1.9-.88,3.47-2.35,4.18-.92.41-2.18.65-3.81.68-.1-2.45-.27-3.33-.88-4.9.41.07.61.1.92.1,1.02,0,1.29-.24,1.29-1.12,0-1.5-.41-3.09-1.16-4.42-.27-.51-.41-.71-1.12-1.67v14.65c0,1.67.07,3.13.17,4.62h-5.37c.14-1.12.2-2.79.2-4.62v-22.74c0-.82-.03-2.07-.14-3.74.75.1,1.29.14,2.69.14h5.3c1.56,0,2.11-.03,2.58-.17l2.07,2.86q-.03-1.36-.14-2.72c.85.1,1.5.14,3.2.14h10.71c1.63,0,2.04-.03,3.06-.14-.1.68-.14,1.77-.14,3.81v8.6c0,1.77.03,2.45.14,3.81q-.82-.03-1.6-.07l3.43,2.79c-.17.14-.27.2-1.73,1.53-.68.61-1.77,1.5-2.72,2.18,1.46,1.6,2.72,2.55,4.73,3.6-1.12,1.5-1.77,2.72-2.58,5-1.67-.99-2.35-1.5-3.47-2.55-1.19-1.05-2.04-2.01-2.82-3.09v2.55c-2.62.71-6.6,1.67-9.01,2.14-2.28.44-3.13.65-3.71.85l-.82-5.37c.68,0,1.43-.1,3.47-.37v-21.59Zm-7.51,7.44c1.12-2.31,1.56-3.54,2.38-6.56h-2.38v6.56Zm12.51-5.07h6.73v-1.53h-6.73v1.53Zm0,5.75h6.73v-1.67h-6.73v1.67Zm0,12.54c1.39-.27,2.58-.54,3.81-.88-1.22-2.24-1.9-4.32-2.41-7.45h-1.39v8.33Zm6.08-8.33c.2,1.19.34,1.67.68,2.52.95-.75,2.21-1.94,2.69-2.52h-3.37Z"/><path class="cls-4" d="m158.64,37.03c-.31.34-.58.65-1.26,1.5-1.29,1.56-2.45,2.65-4.08,3.88,2.38.48,4.32.61,8.47.61-.82,1.77-1.29,3.2-1.8,5.34-5.3-.41-8.77-1.12-12.44-2.65-3.4,1.43-5.92,2.04-10.91,2.62-.44-2.18-.71-2.96-1.53-4.56-.61,1.84-1.02,2.75-2.04,4.52-1.33-1.97-2.28-3.13-3.91-4.62,2.24-4.35,2.75-8.19,2.75-20.6,0-2.28-.03-3.5-.14-4.86,1.33.14,2.58.17,4.22.17h7.99v-.51c0-.68-.07-1.16-.17-1.7h5.58c-.1.51-.14.99-.14,1.77v.44h7.58c2.04,0,3.33-.07,4.45-.2v4.79c-1.16-.07-1.9-.1-3.54-.1h-1.67c-.03.58-.03.71-.03,1.39h2.35c1.33,0,1.97-.03,2.96-.14v4.49c-.82-.1-1.36-.14-2.89-.14h-2.41v2.58c0,.95.03,1.67.1,2.28h-.44c-.27-.03-.71-.03-1.73-.03h-11.35c-.85,0-1.6,0-2.24.03.07-.58.1-1.39.1-2.28v-2.58h-3.47c-.14,7.17-.61,11.01-1.8,14.96,3.03-.07,4.93-.27,7.07-.71q-.88-.68-3.26-2.65l3.57-1.5h-1.5c-1.46,0-2.62.03-3.54.1v-4.25c.99.1,1.94.14,3.88.14h11.49c1.67,0,2.41-.03,3.3-.1l2.45,2.58Zm-18.19-12.78c0-.61,0-.82-.03-1.39h-3.4v1.39h3.43Zm3.98,14.31c.92.82,1.97,1.46,3.47,2.14,1.22-.68,1.8-1.09,2.92-2.14h-6.39Zm6.53-14.31c0-.65,0-.85-.03-1.39h-5.37q-.03.92-.03,1.39h5.44Zm-5.44,5.41h5.44v-1.46h-5.44v1.46Z"/><path class="cls-4" d="m169.15,38.67c-.34.1-.44.14-.82.27-.37-1.9-.78-2.86-1.84-4.22,2.35-.48,3.94-1.05,5.64-1.97-.65-.61-.82-.82-1.33-1.39-.68.58-.92.71-1.7,1.26-.75-1.56-1.26-2.38-2.45-3.74,1.63-.95,2.82-1.9,4.01-3.3h-3.23q.03-.24.1-1.05c0-.1.03-1.19.03-1.36v-2.11c0-.54-.03-1.02-.1-2.45.51.07,1.26.1,2.69.1h2.79v-.34c-.03-.88-.07-1.53-.14-1.94h5.34c-.1.51-.14.88-.14,2.04v.24h2.38c.95,0,1.7,0,2.24-.03v-1.9c1.19.14,1.67.17,3.84.17h8.57c2.01,0,3.3-.07,3.84-.17v4.93q-.27,0-.75-.07-.27-.03-3.09-.07h-1.43c-.27.71-.37.95-.61,1.43h1.36c2.55,0,2.92,0,3.57-.1-.07,1.22-.1,1.77-.1,2.96v11.86c0,1.56.03,2.45.1,3.77q-.27,0-.95-.03-.07-.03-1.94-.07h-.41c1.33,1.05,2.79,1.8,5.13,2.62-1.16,1.43-1.9,2.65-2.69,4.45-2.89-1.36-4.52-2.48-6.77-4.69-2.21,2.24-3.77,3.4-6.32,4.73-.65-1.16-1.02-1.7-2.04-2.86v.37c0,.07.03.48.07,1.29h-4.73v-.99h-3.4v1.46h-4.93c.1-.85.17-2.11.17-3.23v-5.88Zm9.49-15.81h-6.53v.31l4.39.68-.27.51q-.2.41-.27.54h2.69v-2.04Zm.88,14.07c-1.43-.51-2.41-.92-3.67-1.6-.99.68-1.63,1.09-2.65,1.6h6.32Zm-5.98-8.29c.61.78.95,1.09,1.87,1.77.68-.61.95-.92,1.7-1.87h-3.5l-.07.1Zm.41,13.9h3.3v-1.87h-3.3v1.87Zm8.91-15.33c-.27.37-.34.51-.61.92-1.12,1.87-1.84,2.82-2.96,4.11,1.77.58,2.96.82,4.39.95v-7.07c0-.99-.03-2.04-.07-3.2.58.07.65.07,2.75.07h1.7c.34-.78.41-.88.61-1.43h-2.18c-1.02,0-2.96.07-3.54.1v1.29c0,1.77,0,2.07.07,2.58h-1.73l1.56,1.67Zm-.88,16.96c1.7-.75,2.89-1.56,4.15-2.79-1.09,0-1.29,0-1.9.07h-.61c.03-.65.07-2.62.07-3.13v-4.45c-.58,1.22-.78,1.9-1.05,3.94l-.61-.17q-.03.44-.03,1.84v4.69Zm10.67-2.79h-4.69l2.41,1.9,2.28-1.9Zm-4.15-13.36h4.49v-1.29h-4.49v1.29Zm0,4.62h4.49v-1.33h-4.49v1.33Zm0,4.73h4.49v-1.33h-4.49v1.33Z"/><path class="cls-2" d="m215.92,22.45c-.09.4-.43.54-.94.57-.31,1.48-.77,4.06-1.11,5.73,1.02-.11,2.1-.2,2.75-.2,4.51-.03,5.96,3.04,5.96,7.38,0,1.13-.2,3.92-.85,5.99-.88,3.18-2.75,4.74-5.28,4.74-1.14,0-2.75-.54-5.14-2.41.4-.71.77-1.59.99-2.41,2.1,1.56,3.26,1.9,4.09,1.9,1.36,0,2.16-.99,2.67-2.7.45-1.5.74-3.97.74-5.22-.03-3.01-.99-4.65-3.41-4.63-.77,0-1.82.06-3.07.23-1.36,5.48-2.95,10.47-5.53,15.04l-2.61-1.25c2.53-4.34,4.03-8.46,5.28-13.48l-4.68.65-.23-2.78,5.45-.6c.4-2.07.79-4.57,1.08-7.01l3.83.45Zm8.17,4.06c-.68-1.22-2.33-3.07-3.49-3.97l1.33-.96c1.33,1.02,2.87,2.7,3.6,3.92l-1.45,1.02Zm3.69,11.52c-.79-3.83-2.84-7.44-5.19-9.48l2.33-1.5c2.72,2.38,4.97,6.05,5.82,9.96l-2.95,1.02Zm.71-12.69c-.68-1.19-2.33-3.04-3.52-3.94l1.36-.99c1.33,1.05,2.84,2.72,3.6,3.94l-1.45.99Z"/><path class="cls-2" d="m250.12,23.64h11.41v2.33h-25.2v-2.33h11.04v-2.61l3.41.2c-.03.26-.2.4-.65.45v1.96Zm10.27,11.35v9.62c0,2.72-1.28,2.98-6.04,2.98-.11-.77-.51-1.82-.85-2.5h-7.72v1.42h-2.36v-7.66h10.96v6.24c.65,0,1.22.03,1.7.03,1.39,0,1.62-.03,1.62-.54v-7.35h-17.45v10.42h-2.64v-12.66h22.79Zm-19.27-7.63h15.55v6.07h-15.55v-6.07Zm12.86,4.2v-2.33h-10.27v2.33h10.27Zm-2.02,11.67v-2.47h-6.19v2.47h6.19Z"/><path class="cls-2" d="m272.31,24.97c-.06.26-.37.45-.77.48-.4,2.21-.62,5.05-.62,7.61,0,7.72,2.53,9.39,3.97,9.39,1.05-.03,2.38-2.89,3.18-5.62.57.51,1.65,1.39,2.33,1.73-1.62,5.05-3.43,6.93-5.65,6.93-4,0-6.3-4.97-6.61-9.93-.08-1.08-.11-2.27-.11-3.52,0-2.5.14-5.25.45-7.8l3.83.74Zm17.28,13.45c-.82-5.02-3.26-8.32-6.92-10.42l1.79-2.13c4.06,2.19,7.24,6.19,8.09,11.61l-2.95.94Z"/><path class="cls-2" d="m300.52,43.14c0-1.28.99-2.3,2.24-2.3s2.27,1.02,2.27,2.3-1.02,2.33-2.27,2.33-2.24-1.08-2.24-2.33Zm.99-4.68l-.57-15.07h3.75l-.57,15.07h-2.61Z"/></g><g><path class="cls-1" d="m30.48,46.59v1.95c0,.27-.09.5-.28.69-.19.19-.42.28-.69.28h-13.97c-.27,0-.5-.09-.68-.28-.18-.19-.27-.42-.27-.69v-2.45c0-.27.07-.56.2-.86.14-.3.31-.54.52-.71.13-.1.26-.22.41-.35.15-.13.3-.26.47-.41.36-.29.71-.59,1.07-.89.36-.3.73-.61,1.13-.93.38-.33.76-.66,1.15-.99.39-.32.78-.65,1.18-.99.38-.31.74-.61,1.08-.89s.66-.55.96-.8c.36-.29.66-.56.93-.8.26-.24.5-.48.71-.71.21-.23.39-.45.55-.66.16-.21.29-.42.39-.63.1-.19.19-.38.25-.58.06-.2.1-.38.13-.55.06-.33.09-.69.09-1.07,0-.31-.03-.6-.08-.85-.05-.25-.13-.49-.24-.72-.21-.4-.49-.72-.85-.97-.38-.27-.76-.45-1.16-.53-.48-.1-.9-.16-1.26-.16-.73,0-1.33.17-1.79.5-.46.34-.84.73-1.13,1.19-.17.23-.29.43-.36.61-.07.18-.16.36-.27.55-.08.17-.23.32-.44.46-.21.14-.51.15-.91.05l-2.23-.56c-.25-.08-.44-.24-.58-.46-.14-.22-.15-.46-.05-.71.08-.17.16-.34.24-.52.07-.18.16-.36.27-.55.4-.75.92-1.45,1.57-2.1.63-.67,1.42-1.22,2.39-1.66.92-.46,2.02-.69,3.3-.69s2.52.21,3.55.63c.96.42,1.79.97,2.48,1.66.69.71,1.18,1.48,1.48,2.29.31.86.47,1.72.47,2.57s-.12,1.66-.35,2.42c-.23.75-.55,1.44-.97,2.07-.21.34-.44.66-.71.97-.26.31-.54.62-.83.91s-.61.6-.94.91c-.34.31-.69.62-1.07.91-.17.1-.33.23-.49.38-.16.15-.34.3-.55.47-.19.17-.39.34-.6.52-.21.18-.43.35-.66.52-.23.19-.46.38-.69.56-.23.19-.46.38-.69.57-.1.1-.19.18-.27.24-.07.05-.16.12-.27.2-.19.17-.25.32-.19.46.06.14.22.2.47.2h8.1c.27,0,.5.09.69.28s.28.42.28.69Z"/><path class="cls-1" d="m41,47.44c0,.65-.23,1.2-.67,1.65-.45.45-1,.68-1.65.68s-1.17-.23-1.62-.68c-.45-.45-.68-1-.68-1.65s.22-1.17.68-1.62c.45-.45.99-.67,1.62-.67s1.2.23,1.65.67c.45.45.67.99.67,1.62Z"/></g><polyline class="cls-5" points="0 68.93 56.64 68.93 72.64 62 576.64 62"/><polyline class="cls-5" points="0 7.93 56.64 7.93 72.64 1 576.64 1"/><line class="cls-6" x1="72.08" y1="10.94" x2="72.08" y2="55.36"/></g></g></g></svg>