<?xml version="1.0" encoding="UTF-8"?><svg id="Layer_2" xmlns="http://www.w3.org/2000/svg" viewBox="0 0 576.64 69.93"><defs><style>.cls-1{fill:#fff;}.cls-2{fill:#333;}.cls-3{fill:#d7e9f6;}.cls-4{fill:#2f6b76;}.cls-5{stroke-width:2px;}.cls-5,.cls-6{fill:none;stroke:#333;stroke-miterlimit:10;}.cls-6{stroke-width:.5px;}</style></defs><g id="PC"><g><polygon class="cls-3" points="55 8.15 71 1.15 575 1.15 565.12 29.61 575 62.15 71 62.15 55 69.15 55 8.15"/><rect class="cls-4" x="1" y="8.15" width="55" height="61"/><g><rect class="cls-1" x="300" y="34.15" width="113" height="14"/><g><path class="cls-2" d="m103.97,38.96l.14,2.29c-3.88.74-7.93,1.44-10.47,1.9-.06.23-.25.4-.45.42l-.82-2.89c1.33-.17,3-.4,4.81-.68v-7.44h-4.53v-2.32h4.53v-2.63h-2.92v-.57c-.2.23-.42.42-.65.65-.4-.57-1.22-1.44-1.81-1.81,2.58-2.32,4.44-5.38,5.49-7.76l3.06.48c-.03.25-.23.4-.62.4l-.03.06c1.84,1.39,4.02,3.2,5.09,4.47-.71.88-1.13,1.53-1.56,2.15-.96-1.22-2.92-3.03-4.67-4.44-.76,1.3-1.67,2.72-2.77,4.08h6.99v2.29h-3.17v2.63h4.36v2.32h-4.36v7.08l4.36-.68Zm-9.57.34c-.14-1.39-.62-3.51-1.19-5.15l1.84-.51c.62,1.61,1.16,3.71,1.3,5.07l-1.95.59Zm9.74-5.04c-.08.2-.31.28-.65.28-.37,1.27-1.05,3.17-1.61,4.39l-1.7-.62c.51-1.3,1.13-3.42,1.44-4.84l2.52.79Zm8.04-2.21c.34,1.39.74,2.69,1.27,3.91,1.16-.91,2.43-2.07,3.25-2.97l2.18,2.04c-.14.14-.42.2-.71.14-.93.79-2.46,1.95-3.74,2.77,1.16,2.01,2.69,3.57,4.64,4.5-.59.54-1.36,1.53-1.73,2.26-4.1-2.29-6.26-6.88-7.44-12.65h-2.12v8.6c1.53-.25,3.17-.57,4.78-.88l.23,2.38c-3.06.71-6.23,1.44-8.27,1.87-.03.25-.23.42-.42.48l-1.02-3.06c.65-.08,1.39-.2,2.18-.34v-21.82h12.14v12.77h-5.24Zm2.69-10.36h-7.08v2.77h7.08v-2.77Zm-7.08,5.07v2.92h7.08v-2.92h-7.08Z"/><path class="cls-2" d="m127.6,33.18c-.91.99-1.81,1.92-2.72,2.72-.37-.57-1.19-1.67-1.7-2.18,2.72-2.18,5.8-5.92,7.7-9.45l3,1.25c-.11.2-.37.31-.74.25-.79,1.33-1.73,2.72-2.75,4.05l.57.17c-.06.23-.25.42-.68.45v14.18h-2.69v-11.44Zm5.15-13.78c-.11.2-.34.28-.71.25-1.73,2.09-4.7,4.92-7.33,6.74-.34-.59-1.05-1.64-1.5-2.15,2.35-1.56,5.12-4.08,6.54-6.11l3,1.27Zm17.04,8.66v2.55h-4.3v10.81c0,2.89-1.19,3.23-6.91,3.17-.11-.76-.48-1.9-.85-2.66,1.1.03,2.21.06,3.03.06,1.78,0,1.98,0,1.98-.59v-10.78h-9.11v-2.55h16.16Zm-1.1-8.21v2.58h-14.01v-2.58h14.01Z"/><path class="cls-2" d="m165.83,18.97c-.08.28-.37.51-.85.57-.17,1.1-.45,2.52-.68,3.48,2.38-.14,5.38-.62,7.64-1.33l.37,2.69c-2.55.59-5.52,1.05-8.52,1.27-1.33,5.29-3.11,9.68-5.69,13.73l-2.77-1.02c2.46-3.62,4.39-7.87,5.46-12.65-.59.03-1.33.03-1.95.03h-3.31v-2.58h3.25c.88,0,1.75,0,2.49-.03.28-1.39.51-2.97.68-4.53l3.88.37Zm7.39,12.23c.03,1.98.14,3.57.28,5.35,1.67.68,4.08,1.87,5.77,3.06l-1.36,2.6c-1.3-1.02-3.11-2.07-4.42-2.69,0,1.56-.62,4.67-5.52,4.67-3.09-.03-5.6-1.5-5.58-4.36.03-2.86,2.92-4.39,5.63-4.39.85,0,1.73.14,2.69.37-.11-1.58-.2-3.2-.2-4.3l2.69-.31Zm-2.32,7.13c-.96-.4-2.07-.57-2.92-.57-1.53,0-3.14.65-3.14,2.07,0,1.3,1.3,2.01,3.2,2.01,1.58,0,2.86-.71,2.86-2.46v-1.05Zm8.1-9.6c-3.11.03-6.91.48-9.91,1.25l-.42-2.46c3.23-.85,7.08-1.44,10.19-1.44l.14,2.66Z"/><path class="cls-2" d="m190.65,24.44c-.11.28-.34.42-.74.48-.28,4.05-.71,6.93-1.16,7.59h.03c2.58-1.81,6.62-3.14,9.85-3.14,4.19,0,7.08,2.26,7.05,6.34-.06,5.32-4.25,7.81-15.37,8.24-.23-.68-.62-1.81-1.02-2.58,9.62-.42,13.33-1.9,13.36-5.6.03-2.35-1.67-3.85-4.59-3.85-4.42,0-9.09,2.66-10.02,4.42l-2.66-1.19c.59-.51,1.61-5.8,1.67-11.15l3.59.45Zm-.06-5.75c3.59.4,8.07,1.22,10.93,2.35l-.93,2.75c-2.89-1.19-7.39-2.04-10.84-2.49l.85-2.6Z"/><path class="cls-2" d="m210.74,21.75c.85,0,2.07-.03,2.86-.08,2.89-.23,16.13-1.1,20.38-1.22l.03,3c-2.32-.08-3.82.08-6,1.56-3.65,2.32-7.61,6.54-7.61,9.96s2.8,5.66,9.4,6.45l-1.36,2.8c-8.07-1.05-11.12-4.27-11.12-9.23,0-3.71,3.54-8.38,8.21-11.46-3.31.25-10.73.82-13.81,1.13-.08.2-.42.4-.68.45l-.28-3.37Zm18.65,6.2c1.27.99,2.83,2.66,3.62,3.88l-1.39,1.08c-.71-1.13-2.41-3-3.51-3.88l1.27-1.08Zm3.2-2.52c1.33,1.05,2.86,2.6,3.62,3.85l-1.36,1.1c-.71-1.08-2.29-2.89-3.54-3.88l1.27-1.08Z"/><path class="cls-2" d="m242.66,43.03c-.85-2.12-1.19-6.6-1.19-10.42s.59-8.43,1.47-12.99l3.65.71c-.06.28-.4.48-.79.51-1.67,6.26-1.67,11.12-1.67,13.1,0,1.47.03,2.97.17,3.71.51-1.39,1.53-3.91,2.04-5.09l1.58,1.78c-.28.57-2.8,5.66-2.8,7.16,0,.4.08.79.23,1.33l-2.69.2Zm7.36-17.1c1.22.06,5.35.03,6.65-.08-.11-2.32-.2-4.33-.23-6.43l3.71.14c-.03.28-.25.51-.71.59-.03,1.61,0,2.97.08,5.49,2.07-.25,3.79-.62,5.21-1.08l.28,2.77c-1.3.4-3.17.71-5.41.91.11,2.83.25,5.75.34,7.59,2.04.88,4.08,2.12,5.52,3.42l-1.5,2.6c-1.02-1.08-2.41-2.18-3.93-2.94-.14,2.83-1.27,4.61-5.04,4.61-3.4,0-5.55-1.75-5.55-4.33,0-2.92,2.8-4.39,5.58-4.39.71,0,1.42.11,2.15.25-.11-1.61-.23-4.25-.37-6.62-.85.03-1.92.08-2.63.08h-4.13l-.03-2.6Zm7.39,11.66c-.74-.28-1.59-.45-2.38-.45-1.53,0-3.2.54-3.2,2.04,0,1.33,1.42,1.95,3.14,1.95s2.46-.91,2.46-2.69l-.03-.85Z"/><path class="cls-2" d="m285.8,24.1c-.08.25-.37.45-.76.45-1.1,9.28-3.99,15.88-8.75,15.88-2.75,0-4.95-2.52-4.95-7.16,0-7.02,5.52-12.51,12.85-12.51,8.12,0,11.94,4.95,11.94,10.78,0,6.71-3.65,10.05-10.64,11.77-.42-.65-1.08-1.64-1.78-2.41,6.48-1.27,9.43-4.39,9.43-9.28,0-4.61-3.06-8.24-8.97-8.24-.4,0-.76.03-1.16.06l2.8.65Zm-3.62-.48c-4.98.88-8.1,5.07-8.1,9.57,0,2.69.99,4.44,2.29,4.44,3.06,0,5.21-6.82,5.8-14.01Z"/><path class="cls-4" d="m328.89,29.56c-1.23,3.19-2.13,4.76-3.96,6.86,3.78,1.58,5.78,2.56,9.63,4.66l-4.06,4.41c-3.61-2.35-5.95-3.64-9.77-5.43-1.79,1.19-3.4,2.03-5.57,2.84-3.01,1.16-5.46,1.79-10.01,2.56-.59-2.06-1.08-3.04-2.45-5.15,5.46-.46,8.4-1.08,12.15-2.66-2.7-1.02-4.59-1.61-8.93-2.84,1.86-2.31,2.56-3.26,3.85-5.25h-2.94c-2,0-3.08.04-4.17.18v-5.18c1.09.1,1.75.14,4.17.14h5.78c1.02-1.96,1.58-3.26,1.89-4.27l5.81.77c-.88,1.79-1.08,2.17-1.72,3.5h12.18c2.48,0,3.19-.04,4.13-.14v5.18c-1.12-.14-2.17-.18-4.13-.18h-1.89Zm-13.16-14.74c0-.98-.04-1.68-.14-2.42h5.85c-.07.67-.14,1.44-.14,2.38v.35h8.93c2.03,0,3.12-.04,4.27-.14-.1.95-.14,1.79-.14,2.73v3.19c0,1.05.07,1.86.17,2.7h-5.32v-3.6h-20.86v3.6h-5.36c.14-.77.17-1.5.17-2.73v-3.15c0-.84-.04-1.82-.14-2.73,1.19.1,2.21.14,4.27.14h8.44v-.31Zm.21,14.74c-.67,1.12-.95,1.54-1.93,2.94,2.49.7,3.26.95,5.85,1.89,1.54-1.54,2.35-2.73,3.26-4.83h-7.18Z"/><path class="cls-4" d="m340.33,37.61c2-4.06,2.84-7.81,3.36-14.67l5.18,1.3c-.6,8.19-1.33,11.83-3.33,16.31l-5.22-2.94Zm21.63-15.37c-3.15-2.07-6.16-3.4-12.36-5.43l3.05-4.66c5.85,1.75,8.75,2.87,12.53,4.87l-3.22,5.22Zm-6.27,16.38c0,.67.52.81,2.73.81,1.93,0,2.77-.21,3.05-.81.53-.94.74-3.15.77-6.97,2.07.98,3.22,1.37,5.01,1.79-1.16-3.47-2.03-5.64-3.78-9l5.22-2.24c2.56,4.97,3.92,8.47,5.81,15.05l-5.53,2.7c-.52-2.27-.73-3.22-1.33-5.18q-.03.49-.1,1.61c-.21,3.29-.91,5.71-1.96,6.79-1.26,1.33-2.94,1.68-7.81,1.68-3.99,0-5.43-.18-6.37-.74-1.05-.63-1.44-1.61-1.44-3.75v-16.28c0-1.58-.04-2.45-.21-3.82h6.16c-.14,1.33-.21,2.35-.21,3.61v14.74Z"/><path class="cls-4" d="m396.93,33.37h-7.91c-.84,0-1.51.04-2.06.1,0-.21.03-1.02.07-2.45v-3.61c0-.88-.04-1.79-.07-2.31.52.07,1.29.1,2.1.1h6.93c.94,0,1.47-.04,2.1-.1-.04.56-.07,1.33-.07,2.28v2.7c1.05-.81,1.23-.98,2.24-2-.56-1.19-1.02-2.38-1.47-3.96h-12.15c-.46,5.04-1.05,7.77-2.31,10.4l3.12,1.37c-1.23,4.45-2.03,6.09-4.03,8.65l-4.24-3.12c1.68-1.75,2.56-3.33,3.4-6.16-1.23-1.23-2.07-1.89-3.47-2.87,2.06-3.01,2.73-6.44,2.73-14.14,0-1.26-.07-2.49-.17-3.47,1.4.1,2.83.14,4.31.14h11.34q-.04-.49-.1-1.37c0-.42-.04-.67-.14-1.16h5.43c-.04.49-.07,1.05-.07,1.54,0,.17,0,.24.04.98h2.17c-.56-.98-.7-1.19-1.19-1.82l4.34-.81c.84,1.12,1.12,1.58,1.65,2.59,1.19-.07,1.47-.07,2.17-.17v4.87c-1.37-.14-2.84-.21-4.66-.21h-4.17c.25,1.82.49,3.05.91,4.34.95-1.58,1.37-2.38,1.79-3.71l4.52,1.92c-.1.18-.21.32-.25.39q-.35.56-.63,1.16c-.63,1.19-1.65,2.8-3.05,4.83.49.63,1.26,1.4,1.44,1.44.14.03.25.07.28.1v.03s.1-.1.28-.24c.21-.18.6-1.72.84-3.4,1.29,1.08,2.03,1.61,3.68,2.59-.91,4.24-2.07,6.06-4.17,6.41,1.58,2.21,2.62,4.03,3.96,6.79l-4.73,2.49c-1.44-3.57-2.42-5.46-4.41-8.4l2.94-1.26c-1.12-.52-2.24-1.44-3.33-2.66-.63.67-1.09,1.05-2.59,2.42-.98-1.08-1.4-1.5-2.24-2.21.03.7.03.77.07,1.08-.31-.03-.38-.03-.73-.07,1.85,1.85,2.27,2.35,3.4,3.78l-.56.31c1.61.74,2.56,1.02,4.8,1.47-.35,3.15-.81,4.38-1.96,5.15-1.02.7-2.77.91-7.11.91-7.18,0-8.23-.46-8.23-3.68v-4.34c0-1.05-.07-1.68-.18-2.35h5.39c-.1.67-.14,1.05-.14,1.68v3.15c0,.53.07.7.42.81.31.07,1.26.14,2.59.14,2.31,0,3.43-.17,3.85-.52.25-.25.39-.98.39-2.03,0-.04,0-.14-.04-.28l-3.54,2.07c-.77-1.44-1.93-2.94-3.26-4.27l3.75-2.03Zm1.05-12.81q-.1-.59-.21-1.19h-10.92l-.03,1.19h11.17Zm-6.83,9.45h2.77v-1.54h-2.77v1.54Z"/><path class="cls-2" d="m425.81,34.39c.07-.7.07-1.02.07-1.58q0-.67-.14-2.73l-.7-11.1c-.07-1.44-.25-3.01-.42-4.73h8.16c-.11.81-.32,3.26-.42,4.73l-.7,11.1c-.07,1.47-.11,2.17-.11,2.69,0,.35,0,.74.04,1.61h-5.78Zm-.63,9v-6.62h7.04v6.62h-7.04Z"/></g><g><path class="cls-1" d="m28.06,39.22c.1.06.21.12.31.17.1.05.21.11.31.17.45.27.85.58,1.2.95.37.43.66.93.86,1.51.23.57.34,1.3.34,2.19v.34c0,.12-.01.26-.03.4-.04.33-.1.66-.18.99-.04.16-.1.34-.17.52-.07.18-.15.37-.23.55-.1.18-.21.37-.31.55-.1.18-.24.37-.4.55-.41.51-.89.94-1.45,1.29-.6.37-1.16.64-1.69.8-.55.21-1.14.34-1.76.4-.29.04-.56.07-.83.09-.27.02-.53.03-.8.03-1.33,0-2.45-.23-3.36-.68-.92-.43-1.68-.97-2.28-1.63-.31-.33-.58-.67-.82-1.02-.24-.35-.45-.7-.63-1.05-.08-.16-.16-.33-.23-.49-.07-.16-.14-.33-.2-.49-.1-.25-.09-.48.03-.71.12-.23.32-.38.59-.46l2.31-.65c.25-.08.47-.07.68.03.21.1.34.27.4.49.06.18.12.36.18.54.06.17.16.37.31.6.25.43.61.82,1.08,1.17.51.35,1.16.52,1.94.52,1.19,0,2.08-.27,2.68-.8.57-.55.86-1.2.86-1.94s-.12-1.37-.37-1.85c-.25-.51-.61-.88-1.08-1.11-.47-.27-1.06-.45-1.76-.55-.23-.04-.46-.07-.71-.08-.25-.01-.51-.03-.8-.05-.27-.04-.49-.15-.68-.34-.18-.18-.28-.41-.28-.68v-1.42c0-.27.09-.5.28-.69.18-.19.41-.3.68-.32.27-.02.52-.04.75-.05.24,0,.47-.04.69-.08.66-.06,1.25-.2,1.79-.43.45-.2.82-.53,1.11-.99.25-.43.37-1.02.37-1.76s-.29-1.4-.86-1.91c-.6-.53-1.49-.8-2.68-.8-.78,0-1.43.17-1.94.52-.47.35-.83.74-1.08,1.17-.23.35-.38.67-.46.95-.08.29-.23.49-.43.62-.21.12-.43.14-.68.06l-2.31-.68c-.27-.06-.46-.21-.59-.43-.12-.23-.13-.46-.03-.71.06-.16.13-.33.2-.49.07-.16.15-.33.23-.49.18-.35.39-.7.63-1.05.24-.35.51-.69.82-1.02.29-.33.62-.63,1-.89.38-.27.81-.51,1.28-.74.92-.43,2.04-.65,3.36-.65,1.48,0,2.7.2,3.66.58.99.39,1.8.9,2.43,1.54.64.68,1.09,1.38,1.35,2.09.27.74.4,1.51.4,2.31,0,.86-.1,1.56-.31,2.09-.1.29-.23.55-.39.79-.15.24-.31.46-.48.66-.39.43-.79.76-1.2.99-.1.06-.21.12-.31.18-.1.06-.21.11-.31.15-.39.21-.4.39-.03.55Z"/><path class="cls-1" d="m41,48.27c0,.64-.22,1.18-.66,1.62-.44.44-.98.66-1.62.66s-1.14-.22-1.59-.66c-.44-.44-.66-.98-.66-1.62s.22-1.14.66-1.59c.44-.44.97-.66,1.59-.66s1.17.22,1.62.66c.44.44.66.97.66,1.59Z"/></g><polyline class="cls-5" points="0 68.93 56.64 68.93 72.64 62 576.64 62"/><polyline class="cls-5" points="0 7.93 56.64 7.93 72.64 1 576.64 1"/><line class="cls-6" x1="72.08" y1="10.94" x2="72.08" y2="55.36"/></g></g></g></svg>