<?xml version="1.0" encoding="UTF-8"?>
<svg xmlns="http://www.w3.org/2000/svg" viewBox="0 0 929 208.5">
  <defs>
    <style>
      .cls-1, .cls-2, .cls-3, .cls-4 {
        fill: none;
      }

      .cls-5, .cls-6 {
        fill: #b5b5b5;
      }

      .cls-2 {
        stroke: #fff;
        stroke-miterlimit: 10;
      }

      .cls-7 {
        fill: #ebebeb;
      }

      .cls-8 {
        fill: #fbd747;
      }

      .cls-9, .cls-10 {
        fill: #c51717;
      }

      .cls-10 {
        opacity: .2;
      }

      .cls-11 {
        fill: #ccc;
      }

      .cls-12 {
        isolation: isolate;
      }

      .cls-13 {
        fill: #c9c9c9;
      }

      .cls-14 {
        fill: #2f6b76;
      }

      .cls-15 {
        fill: #fff;
      }

      .cls-3 {
        stroke-width: 4px;
      }

      .cls-3, .cls-4 {
        stroke: #2f6b76;
        stroke-linecap: round;
        stroke-linejoin: round;
      }

      .cls-6 {
        mix-blend-mode: multiply;
      }

      .cls-4 {
        stroke-width: 2px;
      }

      .cls-16 {
        fill: #a8a8a8;
      }

      .cls-17 {
        fill: #616161;
      }

      .cls-18 {
        fill: #333;
      }
    </style>
  </defs>
  <g class="cls-12">
    <g id="_レイヤー_2" data-name="レイヤー 2">
      <g id="PC">
        <g>
          <rect class="cls-1" width="929" height="208.5"/>
          <g>
            <g>
              <circle class="cls-14" cx="371.49" cy="24.19" r="2.86"/>
              <circle class="cls-14" cx="523.75" cy="23.19" r="2.86"/>
              <g>
                <line class="cls-4" x1="305.11" y1="57.95" x2="329.63" y2="77.27"/>
                <line class="cls-3" x1="315.71" y1="39.34" x2="335.02" y2="63.87"/>
              </g>
              <g>
                <line class="cls-4" x1="596.11" y1="57.95" x2="571.59" y2="77.27"/>
                <line class="cls-3" x1="585.5" y1="39.34" x2="566.19" y2="63.87"/>
              </g>
              <g>
                <path class="cls-9" d="M366.74,53.38c-2.84.41-5.69.68-8.67.81l-.32-.27-.27-5.46.32-.32c3.12-.13,6.1-.36,8.94-.77l.05-7.9.36-.32h5.87l.32.27-.09,6.91c1.9-.41,3.57-.86,5.33-1.35l.36.23.59,5.46-.32.36c-2.03.45-4.06.95-6.05,1.31l-.05,4.38c2.84-1.04,6.28-1.99,9.48-1.99,7.4,0,11.24,4.65,11.24,9.75,0,6.91-4.7,10.61-11.38,10.61-2.66,0-4.65-.41-6.46-1.54-.27-.18-.32-.54-.23-.81l1.4-5.46c1.53.72,3.34,1.31,4.92,1.26,2.62-.09,4.6-1.49,4.6-4.11,0-2.3-1.76-3.93-4.88-3.93-2.8,0-5.42.86-8.62,2.44v10.11c0,2.48-1.4,4.2-4.83,4.2-2.93,0-11.29-3.93-11.29-8.4,0-2.75,4.52-7.41,9.62-9.93l.04-5.55ZM366.83,65.48c-1.99,1.17-3.3,2.44-3.3,3.07,0,.86,2.03,1.94,2.75,1.94.41,0,.54-.23.54-.86v-4.15ZM383.22,47.91l3.21-4.74.5-.09c3.88,1.26,7.68,3.25,10.48,6.19l.04.5-3.39,4.79-.5.13c-2.94-2.93-5.87-4.97-10.2-6.41l-.14-.36Z"/>
                <path class="cls-9" d="M413.8,74.04c7.1-1.47,11.56-4.56,12.84-7.59-.64.64-2.01,1.13-4.7,1.13-4.51,0-6.96-2.35-6.96-5.83,0-5.83,4.51-11.07,8.82-11.07,1.52,0,2.01.15,2.45.25,0-1.08,0-2.01-.05-3.18-6.27.34-12.89.93-19.79,1.71l-.39-.29-.49-6.17.34-.44c6.81-.49,13.77-.98,20.33-1.32v-6.61l.29-.34h6.76l.39.39c-.05,2.25-.1,4.26-.15,6.12,4.9-.2,9.8-.39,14.45-.44l.39.34v6.12l-.39.34c-4.85,0-9.75.05-14.5.24,0,2.7,0,5.54.15,8.87.64,1.86,1.08,4.12,1.08,5.98,0,3.18-.69,5.54-2.06,8.04-2.4,4.31-6.61,7.01-11.27,8.53-.2.05-.34.1-.49.15-.25.1-.49.1-.69.1-.29,0-.54-.1-.78-.25l-5.59-4.75ZM424.34,56.45c-1.37,0-2.99,2.11-2.99,3.63,0,.93.29,1.37,1.57,1.37,2.01,0,3.43-.83,3.53-3.09-.34-1.37-1.13-1.91-2.11-1.91Z"/>
                <path class="cls-9" d="M466.18,74.04c7.1-1.47,11.56-4.56,12.84-7.59-.64.64-2.01,1.13-4.7,1.13-4.51,0-6.96-2.35-6.96-5.83,0-5.83,4.51-11.07,8.82-11.07,1.52,0,2.01.15,2.45.25,0-1.08,0-2.01-.05-3.18-6.27.34-12.89.93-19.79,1.71l-.39-.29-.49-6.17.34-.44c6.81-.49,13.77-.98,20.33-1.32v-6.61l.29-.34h6.76l.39.39c-.05,2.25-.1,4.26-.15,6.12,4.9-.2,9.8-.39,14.45-.44l.39.34v6.12l-.39.34c-4.85,0-9.75.05-14.5.24,0,2.7,0,5.54.15,8.87.64,1.86,1.08,4.12,1.08,5.98,0,3.18-.69,5.54-2.06,8.04-2.4,4.31-6.61,7.01-11.27,8.53-.2.05-.34.1-.49.15-.25.1-.49.1-.69.1-.29,0-.54-.1-.78-.25l-5.59-4.75ZM476.72,56.45c-1.37,0-2.99,2.11-2.99,3.63,0,.93.29,1.37,1.57,1.37,2.01,0,3.43-.83,3.53-3.09-.34-1.37-1.13-1.91-2.11-1.91Z"/>
                <path class="cls-9" d="M528.26,70.17c-.45-.41-.86-.9-1.26-1.31-3.25,3.39-6.05,4.56-9.26,4.56-3.39,0-6.95-2.62-6.95-8.08,0-4.92,1.67-8.76,5.46-12.46-1.04-2.3-2.03-4.74-3.12-7.36l.14-.41,5.01-2.26.41.14c.95,2.26,1.76,4.38,2.62,6.23,3.07-1.72,7.13-2.62,9.89-2.75.5-1.81,1.04-4.06,1.4-6.55l.41-.32,6,1.17.27.41c-.32,1.9-.9,4.47-1.31,6,5.64,1.45,10.66,6.55,10.66,14,0,8.04-4.83,12.6-13.09,15.12-.63.09-.86,0-1.22-.32l-4.97-4.52c8.4-1.62,12.55-5.1,12.55-10.16,0-4.42-2.21-7.77-5.64-8.8-1.44,4.15-3.07,7.5-5.24,11.11.54.54,1.13,1.17,1.76,1.81v.45l-4.06,4.24-.45.05ZM516.8,64.44c0,1.9.72,2.53,1.58,2.53,1.26,0,2.57-.63,4.52-2.93-1.44-1.85-2.71-3.84-3.88-5.87-1.72,2.44-2.21,5.06-2.21,6.28ZM529.57,52.16c-1.85.23-4.02.95-5.78,1.9.81,1.49,1.99,3.25,2.98,4.65,1.04-1.81,2.17-4.56,2.8-6.55Z"/>
              </g>
              <g>
                <path class="cls-8" d="M289.75,56.5c-4.4,2.68-6,4.85-7.99,10.8-1.98-5.95-3.59-8.12-7.99-10.8,4.4-2.68,6-4.85,7.99-10.8,1.98,5.95,3.59,8.12,7.99,10.8Z"/>
                <path class="cls-8" d="M647.54,64.32c-7.02,4.28-9.59,7.75-12.75,17.25-3.16-9.5-5.73-12.97-12.75-17.25,7.02-4.28,9.59-7.75,12.75-17.25,3.16,9.5,5.73,12.97,12.75,17.25Z"/>
              </g>
            </g>
            <g>
              <g>
                <rect class="cls-14" x="138.61" y="93.06" width="86" height="86"/>
                <rect class="cls-14" x="231.61" y="93.06" width="86" height="86"/>
                <polyline class="cls-2" points="270.9 97.56 313.11 97.56 313.11 174.56 236.11 174.56 236.11 97.56 240.97 97.56"/>
                <polyline class="cls-2" points="174.52 174.56 143.11 174.56 143.11 97.56 147.97 97.56 177.9 97.56 220.11 97.56 220.11 174.56 198.46 174.56"/>
                <g>
                  <path class="cls-15" d="M179.47,164.68c-7.72,1.44-16.93,2.57-27.63,3.38l-2.16-11.3c3.02-.14,6.57-.36,10.65-.65v-3.17l-7.12,2.45c-1.01-3.98-2.16-7.67-3.45-11.08l7.77-2.73c.96,2.35,1.89,5.16,2.81,8.42v-9.5h-9.43v-9.79h9.35v-2.45h-4.53v-3.02c-1.1.96-2.06,1.75-2.88,2.37l-3.74-11.22c4.6-3.79,8.11-8.27,10.5-13.46h11.58c1.77,4.22,5.13,8.63,10.07,13.24v-12.59h33.24v34.18h-3.24l6.76,5.97c-2.59,2.93-5.23,5.64-7.92,8.13,2.16,2.45,4.84,4.73,8.06,6.84l-9.21,9.57c-4.46-3.79-7.92-8.2-10.36-13.24v8.92c-6.09,1.97-12.28,3.31-18.56,4.03l-.58-3.31ZM161.56,119.28h7.77c-1.44-1.87-2.71-3.74-3.81-5.61-1.1,1.92-2.42,3.79-3.96,5.61ZM170.77,155.19c3.07-.33,6.07-.72,8.99-1.15v1.73c.33-.05.84-.1,1.51-.14v-38.06l-5.61,8.63v2.09h-4.89v2.45h8.63v9.79h-8.63v8.92c.81-2.45,1.56-5.11,2.23-7.99l7.41,2.09c-.77,2.93-1.87,6.24-3.31,9.93l-6.33-1.51v3.24ZM191.92,154.11c2.01-.38,3.91-.82,5.68-1.3-1.73-4.12-3.05-9.14-3.96-15.04h-1.73v16.33ZM203,117.05v-3.17h-10.36v3.17h10.36ZM203,128.71v-3.31h-10.36v3.31h10.36ZM203.43,137.77c.33,1.92.81,3.72,1.44,5.4,1.63-1.63,3.24-3.43,4.82-5.4h-6.26Z"/>
                  <path class="cls-15" d="M261.21,167.63h-12.16v-23.53c-1.2.91-2.69,1.99-4.46,3.24l-6.55-10.51c7.87-5.08,14.77-11.01,20.72-17.77l7.27,5.83v-1.22h40.37v11.15h-8.85v21.23c0,4.56-.82,7.56-2.45,8.99-1.49,1.25-4.53,1.87-9.14,1.87h-9.35l-3.89-11.58h9.28c1.25,0,2.04-.23,2.37-.68.33-.46.5-1.21.5-2.27v-17.56h-18.85v-6.48c-1.39,1.63-3,3.36-4.82,5.18v34.11ZM265.74,108.27c-4.65,6.33-11.08,12.54-19.28,18.64l-7.41-9.5c6.57-4.32,12.16-9.45,16.76-15.4l9.93,6.26ZM303.81,116.76h-35.33v-11.44h35.33v11.44Z"/>
                </g>
              </g>
              <g>
                <rect class="cls-10" x="56.47" y="18.06" width="64.29" height="162" rx="32.14" ry="32.14"/>
                <rect class="cls-18" x="61.61" y="23.06" width="54" height="157" rx="26.08" ry="26.08"/>
                <g>
                  <path class="cls-8" d="M76.16,58.48h1.68v-8.7h-1.57s0-2.55,0-2.55h25.21s0,2.55,0,2.55h-12.98s0,12.79,0,12.79h-3.06s0-1.97,0-1.97c-3.01.37-5.98.61-8.99.72l-.29-2.85ZM78.47,38.27h20.77s0,7.87,0,7.87h-20.77s0-7.87,0-7.87ZM80.84,49.79v1.38h4.6v-1.38h-4.6ZM80.84,53.24v1.41h4.6v-1.41h-4.6ZM85.44,56.7h-4.6v1.7c1.12-.05,2.55-.11,4.6-.32v-1.38ZM81.79,40.4v1.12h14.12v-1.12h-14.12ZM81.79,43.06v1.14h14.12v-1.14h-14.12ZM92.7,53.75c.37.72.96,1.73,2.26,2.93,1.28-1.17,1.89-2.42,2.29-3.22h-8.03s0-2.42,0-2.42h11.28s0,2.47,0,2.47c-.35.93-1.01,2.69-3.06,4.76,1.6.74,2.93,1.12,4.18,1.44l-1.68,2.9c-.9-.29-2.77-.85-5-2.31-2.26,1.46-4.04,1.99-5.11,2.29l-1.25-2.79c1.01-.27,2.42-.66,3.91-1.46-1.65-1.75-2.23-3.06-2.55-3.83l2.77-.75Z"/>
                  <path class="cls-8" d="M76,88.94c1.81-1.2,3.64-2.61,5-4.31h-4.26s0-2.9,0-2.9h5.13v-2.07h-5.27s0-2.9,0-2.9h2.71c-.16-1.09-.35-2.29-.69-3.32h-1.52s0-2.9,0-2.9h4.76v-1.99s3.06,0,3.06,0v1.99h4.42s0,2.9,0,2.9h-1.25c-.4,1.78-.48,2.13-.82,3.32h2.34s0,2.9,0,2.9h-4.73v2.07h4.31s0,2.9,0,2.9h-3.51c1.52,1.75,2.26,2.29,3.14,2.87l-1.57,2.85c-1.22-1.2-1.68-1.73-2.37-2.79v6.14s-3.01,0-3.01,0v-6.04c-1.91,2.63-3.43,3.78-4.36,4.44l-1.52-3.16ZM81.48,73.44c.32,1.06.53,2.21.72,3.32h2.26c.29-.93.58-2.47.69-3.32h-3.67ZM101.48,71.52c-2.37,1.06-5.27,1.7-7.9,1.81v3.48h7.9s0,3.14,0,3.14h-2.34v13.75s-3.24,0-3.24,0v-13.75h-2.31v.88c0,8.03-2.21,11.17-3.4,12.87l-2.95-2.02c1.81-2.31,3.24-4.95,3.24-10.8v-10.53c1.22,0,5.13.05,9.47-1.89l1.54,3.06Z"/>
                  <path class="cls-8" d="M84.35,122.16v2.13s-3.01,0-3.01,0v-9.52h-1.97c-.11,1.65-.43,6.41-2.02,9.52l-2.63-2.26c1.41-2.93,1.68-7.05,1.68-10.56v-11.86s3.06,0,3.06,0v6.2h2.02v-6.62s2.98,0,2.98,0v6.62h1.04s0,3.09,0,3.09h-6.04v2.79h4.89s0,9.97,0,9.97c.61-1.14,2.05-3.78,2.05-9.55v-11.97s13.86,0,13.86,0v3.16s-10.8,0-10.8,0v3.43h10.27c-.29,5.32-1.62,8.83-3.19,11.41,1.49,1.6,2.74,2.39,3.99,3.11l-1.89,2.98c-.72-.48-2.47-1.65-4.04-3.48-1.91,2.07-3.38,2.95-4.31,3.54l-1.99-2.85c.93-.48,2.71-1.33,4.42-3.19-2.05-3.19-2.63-6.41-2.85-7.5l2.85-.56c.37,1.94.8,3.38,1.94,5.37,1.38-2.53,1.6-4.97,1.68-5.88h-6.86v2.47c0,7.95-1.97,10.88-2.77,12.13l-2.34-2.13Z"/>
                </g>
                <g>
                  <polygon class="cls-13" points="89.5 134.61 65.05 147.75 113.95 147.75 89.5 134.61"/>
                  <rect class="cls-17" x="64.18" y="152.94" width="49.77" height="31.99"/>
                  <polygon class="cls-16" points="69.59 148.82 89.47 137.53 111.65 149.66 119.4 149.19 89.07 132.74 64.08 146.77 69.59 148.82"/>
                  <rect class="cls-7" x="56.26" y="147.67" width="66.47" height="5.35" rx=".77" ry=".77"/>
                  <path class="cls-7" d="M120.42,152.12l-30.35-16.75c-.35-.19-.78-.19-1.13,0l-30.35,16.75c-.57.31-1.28.11-1.59-.46l-1.45-2.63c-.31-.57-.11-1.28.46-1.59l32.93-18.17c.35-.19.78-.19,1.13,0l32.93,18.17c.57.31.77,1.03.46,1.59l-1.45,2.63c-.31.57-1.03.77-1.59.46Z"/>
                  <path class="cls-7" d="M69.2,159.11c.53,0,.97-.43.97-.97v-4.23c0-.53-.43-.97-.97-.97h-7.54c-.46,0-.85.32-.94.76-.02.07-.02.14-.02.21v4.23c0,.53.43.97.97.97h.89v19.66h-.89c-.53,0-.97.43-.97.97v4.23c0,.05,0,.1.01.15.07.46.47.82.95.82h7.54c.53,0,.97-.43.97-.97v-4.23c0-.53-.43-.97-.97-.97h-.89v-19.66h.89Z"/>
                  <path class="cls-7" d="M85.25,159.11c.53,0,.97-.43.97-.97v-4.23c0-.53-.43-.97-.97-.97h-7.54c-.46,0-.85.32-.94.76-.02.07-.02.14-.02.21v4.23c0,.53.43.97.97.97h.89v19.66h-.89c-.53,0-.97.43-.97.97v4.23c0,.05,0,.1.01.15.07.46.47.82.95.82h7.54c.53,0,.97-.43.97-.97v-4.23c0-.53-.43-.97-.97-.97h-.89v-19.66h.89Z"/>
                  <path class="cls-7" d="M101.29,159.11c.53,0,.97-.43.97-.97v-4.23c0-.53-.43-.97-.97-.97h-7.54c-.46,0-.85.32-.94.76-.02.07-.02.14-.02.21v4.23c0,.53.43.97.97.97h.89v19.66h-.89c-.53,0-.97.43-.97.97v4.23c0,.05,0,.1.01.15.07.46.47.82.95.82h7.54c.53,0,.97-.43.97-.97v-4.23c0-.53-.43-.97-.97-.97h-.89v-19.66h.89Z"/>
                  <path class="cls-7" d="M117.34,159.11c.53,0,.97-.43.97-.97v-4.23c0-.53-.43-.97-.97-.97h-7.54c-.46,0-.85.32-.94.76-.02.07-.02.14-.02.21v4.23c0,.53.43.97.97.97h.89v19.66h-.89c-.53,0-.97.43-.97.97v4.23c0,.05,0,.1.01.15.07.46.47.82.95.82h7.54c.53,0,.97-.43.97-.97v-4.23c0-.53-.43-.97-.97-.97h-.89v-19.66h.89Z"/>
                  <path class="cls-6" d="M118.31,153.91v.1h-57.59v-.31c.09-.43.48-.76.94-.76h55.68c.53,0,.97.43.97.97Z"/>
                  <rect class="cls-5" x="62.55" y="178.39" width="5.76" height=".38"/>
                  <rect class="cls-5" x="78.6" y="178.39" width="5.76" height=".38"/>
                  <rect class="cls-5" x="94.64" y="178.39" width="5.76" height=".38"/>
                  <rect class="cls-5" x="110.69" y="178.39" width="5.76" height=".38"/>
                  <path class="cls-6" d="M118.29,183.87v.25c-.07.46-.47.82-.95.82h-55.68c-.48,0-.88-.36-.95-.82v-.25h57.59Z"/>
                  <path class="cls-11" d="M62.55,162.1v-2.99h5.76v.15s0,0,0,0c-2.78.12-4.68.79-5.75,2.84Z"/>
                  <path class="cls-11" d="M78.6,162.1v-2.99h5.76v.15s0,0,0,0c-2.78.12-4.68.79-5.75,2.84Z"/>
                  <path class="cls-11" d="M94.64,162.1v-2.99h5.76v.15s0,0,0,0c-2.78.12-4.68.79-5.75,2.84Z"/>
                  <path class="cls-11" d="M110.69,162.1v-2.99h5.76v.15s0,0,0,0c-2.78.12-4.68.79-5.75,2.84Z"/>
                  <rect class="cls-7" x="56.8" y="184.94" width="65.94" height="5.5" rx=".7" ry=".7"/>
                </g>
              </g>
              <g>
                <path class="cls-14" d="M869.14,153.32h4.47l-1.81,7.97h-26.51c-10.85,0-14.02-3.9-15.6-5.82-2.04,2.32-5.03,5.09-8.31,7.12l-3.05-8.82c2.26-1.07,4.41-2.6,5.71-3.67v-12.38h-4.92v-7.97h13.17v16.56c.51,1.81,1.36,4.75,6.56,6.27l-3.73-4.92c1.75-.34,4.69-.96,8.87-2.77h-10.12v-5.99h7.4v-2.77h-6.5v-5.43h6.5v-1.47h7.74v1.47h7.8v-1.47h7.69v1.47h6.67v5.43h-6.67v2.77h8.08v5.99h-9.21c3,1.3,6.05,2.43,9.16,3l-3.39,5.43ZM834.1,118.72l-5.65,5.6c-2.21-3-5.71-6.61-9.04-9.16l5.94-5.94c3.62,2.66,7.4,6.61,8.76,8.2v-.68h9.61v-1.87h-10.01v-4.75h17.18v10.8h-9.55v1.64c0,.62.06,1.07.96,1.07h2.2c1.13,0,1.24-.62,1.53-2.09l6.05.74c-.28,2.37-.74,6.05-3.96,6.05h-10.12c-2.37,0-3.9-.9-3.9-3.9v-5.71ZM859.36,144.9h-12.15l4.01,3.11c-4.24,3-8.48,4.69-9.55,5.09,1.75.23,3.67.23,5.48.23h19.33c-.68-.23-5.77-2.04-10.74-5.31l3.62-3.11ZM849.02,136.13v2.77h7.8v-2.77h-7.8ZM853.03,110.13h17.69v10.8h-10.4v1.58c0,.57,0,1.13,1.3,1.13h3.56c1.07,0,1.19-.74,1.36-2.15l6.33.85c-.23,1.87-.68,5.99-4.13,5.99h-11.53c-3.79,0-3.96-3-3.96-3.34v-8.25h10.29v-1.87h-10.51v-4.75Z"/>
                <g>
                  <path class="cls-14" d="M351.84,115.71c.19-2.52.32-6.28.32-8.29,0-1.36,0-1.88-.19-3.24l12.17.32c-.32,1.49-.32,1.68-.71,7.83q-.06,1.75-.19,3.3h14.11c2.14,0,2.91-.13,4.34-.71l5.05,4.4c-.71,1.29-.84,1.81-.91,4.79-.45,13.85-1.42,24.67-2.72,28.94-1.88,6.02-4.99,8.09-12.17,8.09-2.52,0-3.5-.06-8.48-.52-.26-5.18-.71-7.32-2.2-11.4,3.24.84,6.41,1.29,8.42,1.29,3.11,0,3.88-1.04,4.73-6.67.65-4.34,1.23-12.5,1.23-18.06h-12.37q-.52,4.27-.97,6.47c-2.85,13.08-9,21.5-22.14,30.17-2.91-4.6-4.86-6.8-8.42-9.84,8.61-4.53,13.6-9.13,16.83-15.67,1.62-3.3,2.33-5.63,3.24-11.07h-8.09c-4.34,0-5.7.06-8.74.39l-.06-11.07c3.24.45,4.4.52,9,.52h8.93Z"/>
                  <path class="cls-14" d="M396,126.91c3.04.45,6.54.58,13.27.58h30.95c6.47,0,8.93-.13,13.27-.58v12.5c-3.11-.32-5.96-.39-13.34-.39h-30.82c-7.25,0-9.39.06-13.34.39v-12.5Z"/>
                  <path class="cls-14" d="M468.13,161.67c.26-2.72.32-4.6.39-9.91v-37.68c-.06-5.57-.06-5.89-.45-9.39h12.5c-.26,1.68-.26,2.72-.32,9.45v8.87c10.23,3.3,20.39,7.9,29.46,13.47l-6.15,11.01c-5.37-3.82-12.88-7.96-20.39-11.27-1.94-.78-2.14-.84-2.33-.97-.19-.06-.32-.13-.58-.32v16.83c0,4.79.13,8.22.39,9.91h-12.5ZM497.39,108.33c2.53,2.85,4.6,5.83,6.41,9.26l-6.15,2.98c-2.14-4.08-3.82-6.47-6.41-9.45l6.15-2.78ZM506,104.44c2.4,2.59,4.21,5.05,6.47,9l-5.96,2.91c-2.27-4.08-4.08-6.67-6.34-9.26l5.83-2.65Z"/>
                  <path class="cls-14" d="M534.5,155.85v4.47h-11.78c.39-3.56.52-5.76.52-10.55v-33.28c0-2.78-.06-4.79-.26-7.45,2.27.19,3.56.26,7.83.26h34.9c4.01,0,4.98,0,8.03-.26-.13,2.27-.19,4.6-.19,7.64v32.82c0,4.99.13,8.09.45,10.68h-11.72v-4.34h-27.77ZM562.27,119.66h-27.77v25.83h27.77v-25.83Z"/>
                  <path class="cls-14" d="M584.81,126.91c3.04.45,6.54.58,13.27.58h30.95c6.47,0,8.93-.13,13.27-.58v12.5c-3.11-.32-5.96-.39-13.34-.39h-30.82c-7.25,0-9.39.06-13.34.39v-12.5Z"/>
                  <path class="cls-14" d="M656.42,107.74c8.16,4.79,12.37,7.77,17.8,12.69l-7.64,10.1c-5.63-5.89-11.14-10.16-17.61-13.66l7.45-9.13ZM649.63,147.95c6.6-.52,13.4-2.14,19.49-4.66,8.16-3.37,13.98-8.22,18.97-15.99,2.72-4.14,4.47-7.7,6.34-12.69,3.17,3.82,4.66,5.11,9.52,8.68-5.89,12.75-12.04,20.39-21.11,26.22-6.99,4.53-13.14,6.93-25.19,9.71-2.53.58-2.91.65-4.66,1.17l-3.37-12.43Z"/>
                </g>
                <g>
                  <path class="cls-9" d="M718.27,162.45c-1.94,0-2.79-.85-2.79-2.79v-9.39c0-1.94.85-2.79,2.79-2.79h8.69v-25.92h-7.14c-1.94,0-2.79-.85-2.79-2.79v-9.39c0-1.94.85-2.79,2.79-2.79h22.5c1.94,0,2.79.85,2.79,2.79v38.1h7.45c1.94,0,2.79.85,2.79,2.79v9.39c0,1.94-.85,2.79-2.79,2.79h-34.3Z"/>
                  <path class="cls-9" d="M786.64,163.61c-19.09,0-23.75-6.36-23.75-15.83v-26.46c0-9.47,4.66-15.91,23.75-15.91s23.67,6.44,23.67,15.91v26.46c0,9.47-4.58,15.83-23.67,15.83ZM786.64,148.64c5.35,0,6.21-1.55,6.21-3.65v-20.88c0-2.02-.85-3.57-6.21-3.57s-6.21,1.55-6.21,3.57v20.88c0,2.1.93,3.65,6.21,3.65Z"/>
                </g>
              </g>
            </g>
          </g>
        </g>
      </g>
    </g>
  </g>
</svg>