<?xml version="1.0" encoding="UTF-8"?><svg id="Layer_2" xmlns="http://www.w3.org/2000/svg" viewBox="0 0 677 238"><defs><style>.cls-1{fill:none;}.cls-2{fill:#fff;}.cls-3{fill:#f36e64;}.cls-4{fill:#a7f9ab;}.cls-5{fill:#404040;}</style></defs><g id="PC"><g><g><rect class="cls-4" x="198.5" y="37.5" width="291" height="12"/><g><path class="cls-3" d="m217.57,42.95c0,.48-.03,1.56-1.59,1.56-1.32,0-1.77-.48-1.77-1.56v-15.09c-1.86,2.25-4.29,4.83-7.47,6.99-.78.54-2.31,1.59-3.06,1.59-.93,0-1.71-1.02-1.71-1.95,0-.87.63-1.26,1.62-1.8,5.07-2.85,9.6-7.47,11.82-12.15h-12.03c-.45,0-1.59-.03-1.59-1.47,0-1.14.42-1.65,1.59-1.65h25.14c.48,0,1.59.03,1.59,1.47,0,1.14-.42,1.65-1.59,1.65h-9.63c-.24.54-.6,1.26-1.32,2.58v19.83Zm7.71-8.49c-3.36-2.94-6.18-6.75-6.48-7.17-.39-.57-.54-.9-.54-1.2,0-.87.87-1.5,1.59-1.5s.81.12,2.58,2.25c2.46,2.97,5.07,4.95,6.84,6.27.39.3.75.6.75,1.29,0,1.2-1.02,1.95-1.77,1.95-.63,0-1.11-.27-2.97-1.89Z"/><path class="cls-3" d="m236.47,30.02c-.42,0-1.56-.03-1.56-1.44,0-1.17.75-1.47,1.56-1.47h6.87c.27-.54,1.26-2.88,1.5-3.36.15-.39.45-.99,1.41-.99s1.98.54,1.98,1.41c0,.57-.78,2.16-1.14,2.94h14.28c.36,0,1.59,0,1.59,1.44,0,1.29-.9,1.47-1.59,1.47h-3.39c-.87,2.79-2.22,5.43-4.23,7.56,2.94,1.26,3.24,1.44,6.33,3.18.66.39,1.17.69,1.17,1.5,0,1.17-.93,1.92-1.71,1.92-.39,0-.81-.15-1.65-.66-2.58-1.59-3.69-2.28-6.72-3.66-.78.57-3.21,2.34-7.44,3.39-3.27.81-5.79,1.02-6.21,1.02-.48,0-1.68-.09-1.68-1.74,0-1.41.99-1.53,1.71-1.59,1.77-.12,6.15-.48,10.08-2.58-2.76-.96-3.21-1.11-5.73-1.89-1.26-.39-2.4-.72-2.4-2.04,0-.66.33-1.23.72-1.89.99-1.56,1.2-1.92,1.56-2.52h-5.31Zm22.41-11.16c2.25,0,3.36.72,3.36,3.33v2.13c0,.69-.09,1.65-1.5,1.65-1.14,0-1.74-.3-1.74-1.59v-1.65c0-.6-.21-1.08-1.05-1.08h-18c-.75,0-1.08.39-1.08,1.08v1.68c0,.48-.03,1.56-1.53,1.56-1.32,0-1.71-.48-1.71-1.56v-2.22c0-2.58,1.05-3.33,3.33-3.33h8.31v-1.2c0-.84.42-1.32,1.47-1.32,1.17,0,1.8.27,1.8,1.32v1.2h8.34Zm-13.35,11.16c-.57,1.02-.96,1.62-1.65,2.7-.3.45-.39.63-.39.84,0,.51.48.66.93.78,3.45.96,5.73,1.8,6.09,1.95,1.38-1.38,2.61-3.03,3.99-6.27h-8.97Z"/><path class="cls-3" d="m276.47,21.95c.17-.42.38-.88,1.35-.88s1.4.52,1.4,1.12c0,.47-.22.95-.6,1.8.75,0,2.57-.05,5.05-.15,2.37-.1,3.82-.12,4-.12.35,0,1.35,0,1.35,1.25,0,1.1-.8,1.2-1.02,1.22-.42.07-7.6.32-10.72.35-.33.62-.85,1.42-1.85,2.95,1.62-1.1,3.1-1.25,3.8-1.25,1.9,0,3.27.95,3.75,2.7.8-.28,4.62-1.58,5.67-1.58,1.17,0,1.3,1,1.3,1.4,0,1-.72,1.25-1.52,1.42-2.97.7-3.3.78-5.07,1.33.12,1.35.12,2.62.12,3.07,0,1.62,0,2.55-1.35,2.55s-1.35-.95-1.35-1.77c0-.45.03-2.45,0-2.87-3.32,1.5-5.17,2.65-5.17,4.32s2.4,1.9,5.07,1.9c1.05,0,2.9-.05,4.75-.3.3-.05,1.1-.15,1.8-.15,1.22,0,1.22.97,1.22,1.25,0,.87-.45,1.15-1.15,1.27-1.77.33-4.25.47-6.1.47-3.62,0-5.05-.4-6.12-.85-1.42-.58-2.35-1.82-2.35-3.22,0-3.52,4.12-5.72,7.72-7.3-.4-1.27-1.35-1.47-2.05-1.47-3.27,0-5.67,3.15-6.9,4.77-.88,1.15-1.3,1.72-2.08,1.72s-1.32-.75-1.32-1.4c0-.5.2-.72,1.85-2.55,1.8-2.02,3.85-5.22,4.47-6.37-1.15.03-3.15.05-4.22.05-.38,0-1.45,0-1.45-1.27s1-1.25,1.4-1.25c3.62-.02,4.02-.02,5.5-.07.25-.58.58-1.5.83-2.1Z"/><path class="cls-3" d="m303.84,18.5c1.08,0,1.32,0,1.71.18.6.27.99.81.99,1.65,0,1.5-.81,2.67-1.26,3.33h.66c2.37,0,2.37,2.16,2.37,3.06v14.49c0,3.09-1.08,3.12-4.44,3.12-.99,0-2.13-.03-2.13-1.59,0-1.44.93-1.44,1.62-1.44.63,0,1.71,0,1.89-.06.33-.09.57-.3.57-.93v-3.12h-7.14c-.15,2.55-.6,4.08-.9,4.98-.57,1.77-.9,2.16-1.71,2.16s-1.59-.66-1.59-1.41c0-.33.09-.57.36-1.2,1.05-2.37,1.35-4.95,1.35-7.53v-7.47c0-.27,0-.84.12-1.44-.15.09-.39.27-.75.27-.66,0-1.44-.72-1.44-1.59,0-.48.03-.48,1.59-2.19,1.26-1.38,2.01-2.91,2.88-4.59.33-.66.66-.87,1.32-.87,1.02,0,1.65.54,1.65,1.11,0,.33-.21.78-.33,1.08h2.61Zm-4.11,2.61c-.75,1.17-1.47,2.07-1.95,2.64.45-.09.9-.12,1.53-.12h2.67c.15-.18,1.17-1.65,1.17-2.07,0-.45-.51-.45-.72-.45h-2.7Zm1.32,8.16v-3.12h-1.41c-.57,0-.84.27-.84.84v2.28h2.25Zm0,2.31h-2.25v3.15h2.25v-3.15Zm2.4-2.31h2.37v-2.28c0-.54-.27-.84-.84-.84h-1.53v3.12Zm2.37,2.31h-2.37v3.15h2.37v-3.15Zm3.96-11.46c-.57,0-1.38-.18-1.38-1.26,0-.87.3-1.41,1.38-1.41h9.21c1.92,0,3,.3,3,2.61,0,1.56-.21,4.59-1.14,5.79-.72.9-1.89.9-3.87.9-.9,0-1.98,0-1.98-1.47,0-1.32.81-1.32,1.53-1.32,1.53,0,1.71,0,2.01-.39.42-.51.57-1.98.57-2.67,0-.78-.51-.78-1.08-.78h-3.03c-.6,4.26-3.48,7.02-4.74,7.02-.87,0-1.59-.87-1.59-1.53,0-.54.06-.6,1.56-1.83.12-.09,1.35-1.11,1.83-3.66h-2.28Zm5.25,9.81v-1.5c0-.69.3-1.32,1.41-1.32.99,0,1.44.45,1.44,1.32v1.5h2.79c.3,0,1.38,0,1.38,1.32,0,1.05-.39,1.5-1.38,1.5h-2.79v3.15h3.21c.42,0,1.53.03,1.53,1.38,0,1.02-.42,1.5-1.53,1.5h-3.21v4.29c0,.48-.06,1.53-1.41,1.53-1.17,0-1.41-.72-1.41-1.53v-4.29h-4.56c-.36,0-1.56,0-1.56-1.38,0-1.05.48-1.5,1.56-1.5h4.53v-3.15h-2.73c-.9,2.1-1.14,2.31-1.74,2.31-.06,0-1.5-.09-1.5-1.26,0-.36.06-.48.69-1.8.57-1.2.9-2.46,1.29-3.9.12-.51.3-.96,1.14-.96.3,0,1.38.06,1.38,1.05,0,.48-.27,1.5-.33,1.74h1.8Z"/><path class="cls-3" d="m331.68,25.92c2.04,1.41,2.28,1.59,2.28,2.31s-.57,1.65-1.53,1.65c-.54,0-.84-.18-1.5-.69-.45-.36-2.58-1.77-2.97-2.07-.21-.15-.57-.48-.57-1.02,0-.87.72-1.62,1.53-1.62.6,0,2.1.96,2.76,1.44Zm3.39,7.98c0,.84-1.47,3.93-2.34,5.55-2.52,4.77-3,4.77-3.66,4.77-.78,0-1.65-.66-1.65-1.56,0-.51.18-.75,1.59-2.91,1.17-1.77,1.71-3.06,3.03-5.94.42-.93.63-1.35,1.47-1.35.6,0,1.56.51,1.56,1.44Zm-2.19-15.78c2.22,1.41,2.49,1.59,2.49,2.34s-.63,1.74-1.47,1.74c-.45,0-.54-.03-2.13-1.08-.42-.27-2.49-1.5-2.88-1.77-.39-.3-.48-.69-.48-.93,0-.75.66-1.68,1.59-1.68.6,0,2.25.96,2.88,1.38Zm7.53,1.26c.42.72,1.32,2.22,1.32,2.85,0,.93-.78,1.41-1.59,1.41s-.99-.27-1.62-1.47c-.48-.87-.75-1.32-1.68-2.79-.27-.42-.45-.66-.45-1.05,0-1.14,1.32-1.44,1.68-1.44.63,0,.81,0,2.34,2.49Zm3.75-1.71c0-.42,0-1.41,1.41-1.41,1.14,0,1.56.36,1.56,1.41v6.6h4.2c2.07,0,3.03.72,3.03,3.03v13.98c0,2.97-1.68,3.06-3.72,3.06-.57,0-2.22,0-2.73-.09-.27-.03-1.32-.15-1.32-1.53s1.14-1.41,1.5-1.41c.39,0,2.13.09,2.49.03.45-.06.69-.21.69-.87v-3.39h-11.25v5.91c0,.51-.03,1.59-1.44,1.59-1.11,0-1.62-.39-1.62-1.59v-15.69c0-2.25.93-3.03,3.03-3.03h4.17v-6.6Zm-4.14,11.91h11.25v-1.8c0-.51-.18-.87-.84-.87h-9.54c-.6,0-.87.27-.87.84v1.83Zm11.25,2.34h-11.25v2.82h11.25v-2.82Zm3.69-13.8c0,.72-1.2,2.73-1.74,3.57-1.02,1.62-1.41,2.04-2.1,2.04s-1.65-.48-1.65-1.35c0-.42.09-.57.96-1.92.3-.48,1.53-2.67,1.8-3.12.3-.54.69-.57,1.23-.6.51,0,1.5.48,1.5,1.38Z"/><path class="cls-5" d="m365.6,22.93c0,.7-.15,3.7-.17,4.32-.05,1.65-.17,5.32-.17,6.75,0,3.37,0,6.45,5.12,6.45,5.65,0,6.97-3,7.72-5.45.12-.42.47-2.4.67-2.75.33-.55.97-.55,1.15-.55.45,0,1.62.1,1.62,1.3,0,.8-.42,3.42-2.02,5.95-2,3.12-5.4,4.17-9.05,4.17s-5.8-.97-7.15-3.1c-.95-1.5-.97-3.5-.97-5.92,0-1.72.15-9.22.17-10.77.03-1.27.2-1.97,1.6-1.97,1.47,0,1.47,1.12,1.47,1.57Z"/><path class="cls-5" d="m392.52,25.85c-.4.03-3.9.28-4.02.28-.38,0-1.45,0-1.45-1.47,0-.9.35-1.35,1.5-1.45,1.17-.1,15.5-.62,18.17-.62,1.35,0,2.35,0,2.35,1.3,0,1.5-.92,1.5-2.37,1.5-2.02,0-3.7.33-6.55,2.2-1.12.73-5,3.5-5,7.57,0,3.5,2.67,4.85,8.07,4.85,1.75,0,1.95-.02,2.33.05.77.12,1.05.65,1.05,1.25,0,1.62-1.33,1.62-2.5,1.62-1.8,0-4.37-.12-7.07-1.02-1-.33-4.77-1.58-4.77-6.5,0-1.75.4-4.32,3.6-7.37,1.45-1.4,2.5-1.97,3.62-2.62-2.52.15-2.95.17-6.95.45Z"/><path class="cls-5" d="m417.45,29.38c7.45-4.3,8.07-4.62,10.07-6.05.35-.25,1.88-1.5,2.2-1.72.25-.17.57-.32.97-.32.82,0,1.67.5,1.67,1.4,0,.62-.3,1-1.47,1.85-3.55,2.55-7.95,4.85-11.15,6.5-1.15.6-1.5.83-1.5,1.3,0,.45.35.65,1.15,1,3.97,1.77,6.62,2.95,10.9,5.52,3.2,1.92,3.42,2.38,3.42,3.12,0,.62-.65,1.5-1.58,1.5-.6,0-1.05-.3-1.62-.72-1.55-1.17-4.52-3.37-9.62-5.92-.67-.35-3.77-1.67-4.37-2-1.05-.55-1.77-1.15-1.77-2.4,0-1.5,1.05-2.1,2.7-3.05Z"/><path class="cls-5" d="m444.07,28.05l-3.65.17c-.3.02-1.52.08-1.52-1.33,0-1.22.97-1.3,1.42-1.32l3.85-.15c.02-.55.12-2.67.15-2.8.03-.55.08-1.45,1.4-1.45s1.37.8,1.37,1.4c0,.25-.02.72-.15,2.72.33.08.47.35.47.67,0,.38-.17.65-.52,1.15,3.32-3.42,5.55-3.75,6.9-3.75,1.83,0,4.3.82,4.3,4.2,0,1.55-.42,3.35-.75,4.85-.35,1.5-.92,4.1-.92,5.52,0,1.7,1.35,1.72,1.6,1.72s.6-.03,1-.2c.95-.4,1.05-.42,1.35-.42.62,0,1.1.58,1.1,1.3,0,1.92-3.25,2.12-3.72,2.12-1.15,0-2.5-.3-3.37-1.45-.6-.8-.7-1.72-.7-2.52,0-1.8.32-3.6,1.37-9.37.1-.6.12-1.05.12-1.2,0-1.83-1.57-1.83-1.82-1.83-2.55,0-5.45,3.17-6.65,4.62-.08,1.88-.1,2.07-.1,5.35,0,.88.05,4.72.05,5.52,0,.85,0,1.9-1.35,1.9-.25,0-1.2,0-1.35-.9-.08-.25-.08-.4-.08-1.9,0-2.35.02-2.85.08-6.62-1.4,2.1-1.55,2.32-2.4,3.6-.55.8-.83,1.1-1.47,1.1-.75,0-1.45-.57-1.45-1.35,0-.57.15-.75,1.2-1.95.87-1.02,2.12-2.67,3.02-4.05.62-.95.88-1.45,1.2-2.12l.03-1.25Z"/><path class="cls-5" d="m479.3,28.85c5.22,0,7.5,3.25,7.5,6.82,0,2.05-.78,5.25-4.67,6.77-1.67.67-3.5.87-5.32.87-4.9,0-6.97-1.77-6.97-4.17,0-2.92,2.72-4.12,5.17-4.12.68,0,2.45.1,3.65,1.12.88.77,1.22,1.95,1.22,3.1,0,.67-.1.97-.27,1.4,2.87-.53,4.27-2.4,4.27-4.75,0-3.6-2.82-4.67-5.7-4.67-3.9,0-6.8,2.05-8.7,3.77-1.57,1.42-1.65,1.5-2.17,1.5-.75,0-1.47-.67-1.47-1.47,0-.57.07-.67,2.22-2.3,2.58-1.97,8.97-6.77,10.6-8.35-1.52.08-7.72.42-9,.42-.4,0-1.42-.02-1.42-1.35s.75-1.35,2.62-1.37c.47,0,5.82-.08,6.55-.1,1.2-.05,2.82-.12,3.55-.12s2.07.05,2.07,1.5c0,.97-.38,1.25-1.82,2.25-3.6,2.52-4,2.8-5.37,3.95.83-.32,1.7-.7,3.47-.7Zm-1.72,10.7c0-1.97-1.5-2.3-2.65-2.3-1.33,0-2.6.67-2.6,1.88,0,1.35,1.97,1.92,3.72,1.92.4,0,.88-.02,1.17-.1.2-.42.35-.75.35-1.4Z"/></g></g><g><g><path class="cls-5" d="m187.52,112.23c-.79,0-3.56,0-3.56-3.26,0-2.67,1.23-3.65,3.6-3.65h31.45v-2.96c0-.84-.44-1.33-1.33-1.33h-31.85c-.89,0-3.65,0-3.65-3.36,0-2.57.99-3.7,3.65-3.7h15.31v-12.1c0-1.98.59-3.65,3.55-3.65.74,0,2.67.15,3.26.64,1.14.89,1.14,2.37,1.14,3.01v12.1h10.86c4.05,0,6.57,1.28,6.57,6.57v16.79c0,5.33-2.57,6.57-6.57,6.57h-34.61c-1.19,0-3.65-.1-3.65-3.36,0-2.67.89-3.9,3.65-3.9h32.29c.84,0,1.33-.44,1.33-1.33v-3.06h-31.45Zm5.68-29.48c3.11,4.64,3.46,5.78,3.46,6.67,0,2.52-2.77,3.95-4.69,3.95-2.02,0-2.47-.74-4.59-4.35-.1-.2-1.98-3.11-2.27-3.6-.44-.64-.89-1.38-.89-2.32,0-2.42,2.62-3.85,4.44-3.85s2.57.59,4.54,3.51Zm32.79.35c0,1.58-2.32,4.84-3.65,6.62-2.47,3.31-3.31,3.65-4.59,3.65-2.32,0-4.59-1.43-4.59-3.85,0-1.14.35-1.63,1.93-3.7,1.09-1.48,1.23-1.73,2.91-4.54.69-1.09,1.38-2.07,3.16-2.07,2.02-.05,4.84,1.53,4.84,3.9Z"/><path class="cls-5" d="m260.93,83.94c0-1.92.69-3.65,3.9-3.65,2.47,0,4,.89,4,3.65v5.14h4.2c1.09,0,3.9.2,3.9,3.65,0,2.62-1.53,3.75-3.9,3.75h-4.2v5.14c0,6.67-1.23,14.22-11.11,18.81-4.35,2.02-9.09,3.01-11.21,3.01-3.7,0-4-3.65-4-4.34,0-2.57,2.22-3.01,3.46-3.21,3.8-.59,9.23-1.48,12.69-5.58,1.33-1.53,2.27-3.9,2.27-8.79v-5.04h-13.23v8.44c0,2.27-1.09,3.65-3.75,3.65-1.88,0-4.1-.35-4.1-3.65v-8.44h-4c-1.14,0-3.9-.2-3.9-3.65,0-2.62,1.48-3.75,3.9-3.75h4v-5.09c0-1.88.74-3.65,3.9-3.65,2.42,0,3.95.94,3.95,3.65v5.09h13.23v-5.14Z"/><path class="cls-5" d="m310.11,120.18c0,1.83-.54,3.85-4.15,3.85-2.67,0-4.25-.99-4.25-3.8v-19.75c-6.27,2.91-13.73,5.63-16.29,5.63-3.11,0-3.85-3.06-3.85-4.49,0-2.37,1.43-2.86,2.96-3.31,4.2-1.23,10.52-3.01,18.76-7.46,5.73-3.06,7.31-4.44,13.92-10.02,1.28-1.04,2.07-1.14,2.57-1.14,2.17,0,4.54,1.98,4.54,4.39,0,1.09-.39,1.98-1.73,3.16-1.88,1.68-5.09,4.3-12.49,8.79v24.15Z"/><path class="cls-5" d="m341.8,119.94c0,1.43-.1,4.1-4.2,4.1s-4.25-2.52-4.25-4.1v-36.14c0-1.38.1-4.1,4.2-4.1s4.25,2.52,4.25,4.1v8.1c8.94,2.72,16.49,6.47,18.76,7.6,3.21,1.63,4.15,2.57,4.15,4.54,0,2.12-1.48,4.89-4.15,4.89-1.23,0-2.27-.49-3.95-1.53-4.74-2.81-9.63-5.38-14.81-7.21v19.75Z"/><path class="cls-5" d="m410.88,97.47c2.42,0,3.85,1.23,3.85,3.9,0,2.91-1.43,4.1-3.85,4.1h-38.61c-2.47,0-3.85-1.28-3.85-3.9,0-2.91,1.48-4.1,3.85-4.1h38.61Z"/><path class="cls-5" d="m435.12,86.26c0-4.59,2.07-5.97,6.02-5.97h15.8c3.85,0,5.97,1.33,5.97,5.97v20.2c0,4.69-2.12,6.02-5.97,6.02h-4.54v9.33c0,.99,0,3.7-3.6,3.7-3.21,0-3.65-1.97-3.65-3.7v-9.33h-4c-3.8,0-6.02-1.28-6.02-6.02v-2.62c-.35.74-.74,1.23-4.84,3.01v12.25c0,5.88-1.53,6.12-7.55,6.12-1.83,0-4.94,0-4.94-3.85,0-1.58.64-3.51,3.36-3.51,1.73,0,2.07,0,2.07-1.33v-6.96c-.74.25-2.07.69-3.06.69-2.02,0-3.01-2.32-3.01-4.1,0-2.22,1.43-2.81,2.07-3.06.2-.05,3.55-1.04,4-1.19v-8.1h-2.37c-1.09,0-3.46-.1-3.46-3.56,0-3.06,1.78-3.6,3.46-3.6h2.37v-4.59c0-.89,0-3.65,3.51-3.65s3.56,2.42,3.56,3.65v4.59h1.18c1.09,0,3.46.1,3.46,3.56,0,3.06-1.73,3.6-3.46,3.6h-1.18v5.68c.74-.25,1.48-.49,2.22-.49.99,0,2.02.4,2.62,1.63v-14.37Zm6.37,6.91h3.9v-6.17h-2.86c-.74,0-1.04.44-1.04,1.04v5.14Zm0,6.07v5.33c0,.64.35,1.04,1.04,1.04h2.86v-6.37h-3.9Zm14.62-6.07v-5.14c0-.64-.35-1.04-1.04-1.04h-2.81v6.17h3.85Zm0,6.07h-3.85v6.37h2.81c.69,0,1.04-.39,1.04-1.04v-5.33Z"/><path class="cls-5" d="m479.7,83.94c0,.49-.3,7.01-.35,8-.35,6.76-.44,8.79-.44,14.47,0,4.94.35,9.63,8.69,9.63s12.79-3.7,14.17-11.31c.54-2.96.94-5.04,4.2-5.04.74,0,4.44.05,4.44,3.6,0,2.17-.89,7.75-4.64,12.79-3.95,5.28-10.12,7.5-17.92,7.5-7.36,0-11.8-1.83-14.57-5.58-1.33-1.78-2.42-4.1-2.42-13.28,0-3.41.35-20.89.39-21.28.2-2.07.89-3.7,4.39-3.7,4.05,0,4.05,3.06,4.05,4.2Z"/></g><g><path class="cls-3" d="m139.71,73.62c-.11-.18-.35-.25-.54-.13l-4.35,2.59c-.1.06-.17.16-.19.27-.02.11.01.23.09.32l20.85,24.84c.08.09.19.14.3.14.08,0,.16-.02.23-.07.17-.12.21-.35.11-.52l-16.5-27.43Z"/><path class="cls-3" d="m134.81,84.17c-.13-.15-.35-.18-.52-.06l-3.49,2.43c-.1.07-.17.19-.17.31,0,.13.06.24.16.32l16.94,12.75c.07.05.15.08.24.08.11,0,.21-.04.29-.13.14-.15.14-.38,0-.53l-13.45-15.18Z"/></g><g><path class="cls-3" d="m549.82,77.62c.11-.18.35-.25.54-.13l4.35,2.59c.1.06.17.16.19.27.02.11-.01.23-.09.32l-20.85,24.84c-.08.09-.19.14-.3.14-.08,0-.16-.02-.23-.07-.17-.12-.21-.35-.11-.52l16.5-27.43Z"/><path class="cls-3" d="m554.71,88.17c.13-.15.35-.18.52-.06l3.49,2.43c.1.07.17.19.17.31,0,.13-.06.24-.16.32l-16.94,12.75c-.07.05-.15.08-.24.08-.11,0-.21-.04-.29-.13-.14-.15-.14-.38,0-.53l13.45-15.18Z"/></g></g><g><g><circle class="cls-3" cx="72.5" cy="180.5" r="45"/><circle class="cls-3" cx="134.5" cy="175.5" r="45"/><circle class="cls-3" cx="196.5" cy="186.5" r="45"/><circle class="cls-3" cx="258.5" cy="180.5" r="45"/><g><path class="cls-2" d="m95.33,164.33c1.39,0,4.22.17,4.22,3.81,0,3-.98,4.45-4.22,4.45h-17.27v8.55h15.02c.98,0,4.22,0,4.22,3.81,0,2.89-1.21,4.16-4.22,4.16h-15.02v9.3h18.6c1.38,0,4.21.17,4.21,3.81,0,3-.98,4.45-4.21,4.45h-46.21c-1.33,0-4.27-.12-4.27-3.87,0-2.89.98-4.39,4.27-4.39h18.54v-9.3h-14.96c-.98,0-4.22,0-4.22-3.75,0-2.83,1.15-4.22,4.22-4.22h14.96v-8.55h-17.04c-1.39,0-4.22-.17-4.22-3.87,0-2.89.98-4.39,4.22-4.39h20.16c-2.95-1.44-4.56-2.02-8.55-3.35-1.1-.35-2.48-1.16-2.48-3s1.44-4.85,4.51-4.91c2.89,0,8.95,2.43,12.36,4.04,3.23,1.56,4.27,2.43,4.27,4.33,0,.35,0,1.5-.87,2.89h13.98Z"/><path class="cls-2" d="m156.96,175.71c5.54,0,6.53,1.04,6.53,6.53v2.83c0,2.66-1.04,3.93-3.35,4.1.17.69.35,1.79.35,3.23v7.57c0,2.37-.12,5.37-5.89,5.37-2.37,0-5.37,0-5.37-4.56,0-3.12,1.44-3.35,2.48-3.52.69-.12,1.1-.23,1.1-1.5v-3.29c0-.75-.4-1.1-1.1-1.1h-2.66v13.11c0,1.21-.12,4.16-3.64,4.16-2.83,0-3.64-1.85-3.64-4.16v-13.11h-2.43c-.75,0-1.1.35-1.1,1.1v9.24c0,1.39-.23,4.16-3.7,4.16-2.83,0-3.7-1.73-3.7-4.16v-9.3c0-1.33.12-2.19.35-3.18-2.37-.17-3.46-1.5-3.46-4.16v-3.06c-.46,2.77-1.04,5.49-1.91,8.26,3.52,2.71,4.22,3.7,4.22,5.43,0,2.31-1.62,5.03-4.33,5.03-1.5,0-2.31-.75-3.29-1.73-.35.64-3.06,6.01-5.31,8.03-.69.64-1.56.92-2.48.92-2.6,0-4.45-2.14-4.45-4.39,0-1.62.64-2.54,2.77-4.97,2.43-2.71,3.35-4.39,3.81-5.14-.87-.69-4.73-3.52-5.43-4.22-.29-.29-1.21-1.39-1.21-3.18,0-.75.17-1.62.63-3.58,1.04-4.5,1.68-8.95,2.08-11.84-.75-.06-3.47-.35-3.47-3.93,0-4.04,3.12-4.04,4.33-4.04.35-5.78.35-6.41.75-7.22.12-.29,1.04-1.96,3.46-1.96,1.62,0,3.87.69,3.87,3.98,0,2.02-.35,4.62-.46,5.2h2.2c4.22,0,5.54,1.5,5.54,5.72,0,3-.52,7.57-.75,9.41,1.1-1.96,2.89-2.08,5.95-2.08h22.7Zm-36.73-5.08c-.75,4.5-1.56,9.01-2.31,11.78-.17.58-.35,1.27-.35,1.62,0,.17.06.35.35.64.23.12,1.67,1.1,2.02,1.33,1.15-3.7,2.6-10.63,2.6-14.27,0-.4-.06-1.1-1.04-1.1h-1.27Zm13.46-3.12c-1.56,0-2.54-.69-2.54-2.25s.58-2.54,2.54-2.54h18.66c0-.63-.06-1.04-.17-1.33-.17-.29-.4-.4-.92-.4h-17.85c-.81,0-3.23,0-3.23-2.83s2.37-2.83,3.23-2.83h20.1c6.01,0,7.1,1.16,7.1,7.1v4.56c0,5.95-1.1,7.16-7.1,7.16h-20.56c-.69,0-2.77,0-2.77-2.48s1.9-2.54,2.77-2.54h18.31c.98,0,1.04-.46,1.1-1.62h-18.66Zm1.56,17.67c1.27-.29,2.54-.29,3.18-.29h3.35v-2.83h-5.43c-.58,0-1.1.29-1.1,1.04v2.08Zm13.8-.29h3.87c.69,0,1.5,0,2.71.17v-2.02c0-.64-.46-.98-1.1-.98h-5.49v2.83Z"/><path class="cls-2" d="m216.8,160.23c4.91,0,7.91,1.62,7.91,7.85v32.29c0,8.03-4.62,8.03-11.09,8.03-1.79,0-4.79,0-6.01-.81-1.56-1.1-1.62-3.52-1.62-3.98,0-4.16,3-4.16,4.33-4.16.63,0,3.58.12,4.16,0,.81-.12,1.5-.58,1.5-1.91v-27.43c0-1.1-.52-1.96-1.91-1.96h-29.11c-1.27,0-1.91.69-1.91,1.96v34.19c0,1.44-.23,4.27-4.1,4.27-3.35,0-4.68-1.1-4.68-4.27v-36.21c0-6.29,3-7.85,7.91-7.85h9.76c.69-2.08.75-2.31,1.45-4.5.29-1.04.98-2.71,4.27-2.71.58,0,4.97.06,4.97,3.23,0,.69-.12,1.04-1.21,3.99h15.36Zm-4.97,30.26c0,5.49-2.54,6.99-6.99,6.99h-10.68c-4.62,0-7.05-1.62-7.05-6.99v-12.01c0-5.26,2.25-7.05,7.05-7.05h10.68c4.56,0,6.99,1.62,6.99,7.05v12.01Zm-7.56-9.82c0-1.04-.52-1.62-1.62-1.62h-6.35c-1.1,0-1.62.63-1.62,1.62v7.51c0,1.04.52,1.62,1.62,1.62h6.35c1.1,0,1.62-.58,1.62-1.62v-7.51Z"/><path class="cls-2" d="m248.86,159.43c0,1.04-.69,5.72-.81,6.7-.35,3.18-1.04,10.17-1.04,16.98,0,5.43.4,10.57.98,15.13.23,1.67.29,2.89.29,3.29,0,3.64-3.46,3.81-4.68,3.81-2.89,0-3.81-1.39-4.39-3.87-.64-2.6-1.16-9.7-1.16-17.38,0-12.42,1.39-23.56,1.96-25.64.81-2.83,2.48-2.83,5.08-2.83,2.43,0,3.75,1.44,3.75,3.81Zm30.32,24.66c0,7.57-.17,17.1-12.3,21.2-3.58,1.21-7.45,1.62-8.78,1.62-3.23,0-4.5-2.6-4.5-4.85,0-2.48,1.15-3.47,3.46-3.81,4.62-.64,7.04-.98,9.7-3.23,2.54-2.08,3-5.78,3-11.96,0-2.31-.12-4.56-.12-6.76-2.77.06-9.64.23-12.13.23-3.52,0-6.47,0-6.47-4.27s2.71-4.39,6.18-4.39c6.87-.06,7.62-.06,12.19-.17-.06-.98-.23-7.28-.23-7.68,0-2.25.35-4.74,4.62-4.74,3.29,0,4.68,1.21,4.79,4.33.06,1.21.12,6.64.17,7.74.87,0,4.74-.23,5.49-.23,1.56,0,4.45.29,4.45,4.27,0,.58,0,3.41-2.43,4.1-.98.29-2.77.35-7.22.52.12,5.2.12,6.06.12,8.09Z"/></g></g><g><path class="cls-5" d="m323.03,168.11c-1.33,0-4.74,0-4.74-4.33s3.35-4.39,4.74-4.39h12.3c.12-6.12.12-6.35.29-7.05.23-1.1.81-3,4.33-3,4.85,0,4.85,2.77,4.85,5.03,0,.29,0,2.48-.12,5.02h12.82c7.57,0,7.74,4.74,7.74,9.47,0,3.93-.52,17.73-1.91,23.16-1.85,7.1-5.89,8.38-12.48,8.38s-10.28-.23-10.28-5.26c0-2.83,1.39-4.27,4.16-4.27.87,0,4.68.4,5.49.4,3.23,0,4.27-1.04,4.74-4.27.92-6.06,1.1-15.94,1.1-16.17,0-1.73-.17-2.71-1.91-2.71h-10.16c-.52,4.33-2.31,17.38-13.4,27.61-1.04.92-2.77,2.43-4.68,3.58-.46.29-1.91,1.16-3.29,1.16-2.2,0-4.56-2.31-4.56-4.85,0-2.02,1.56-3.18,3.06-4.27,4.74-3.47,11.96-8.78,13.63-23.22h-11.72Z"/><path class="cls-5" d="m381.02,180.07c-1.44,0-5.08,0-5.08-4.74s3.06-4.85,5.08-4.85h41.24c1.44,0,5.08,0,5.08,4.74s-3.23,4.85-5.08,4.85h-41.24Z"/><path class="cls-5" d="m451.14,196.35c0,1.67-.12,4.79-4.91,4.79s-4.97-2.95-4.97-4.79v-42.28c0-1.62.12-4.79,4.91-4.79s4.97,2.95,4.97,4.79v9.47c10.45,3.18,19.29,7.57,21.95,8.89,3.75,1.91,4.85,3,4.85,5.31,0,2.48-1.73,5.72-4.85,5.72-1.44,0-2.66-.58-4.62-1.79-5.54-3.29-11.26-6.29-17.33-8.43v23.1Zm12.94-42.22c-.17-.52-.17-.98-.17-1.1,0-1.67,1.85-1.85,2.25-1.85,1.1,0,1.67.81,2.31,2.43.81,2.14,1.39,4.39,1.39,5.31,0,1.96-1.96,2.02-2.19,2.02-.63,0-1.39-.17-1.85-1.5-.23-.75-.64-2.02-.87-2.77-.12-.46-.75-2.19-.87-2.54Zm6.64-1.04c-.12-.35-.12-.75-.12-1.04,0-1.56,1.73-1.85,2.25-1.85,1.1,0,1.62.75,2.31,2.42.87,2.25,1.44,4.27,1.44,5.26,0,2.02-2.08,2.02-2.25,2.02-1.39,0-1.5-.4-2.66-4.22-.12-.46-.87-2.25-.98-2.6Z"/><path class="cls-5" d="m526.92,153.09c5.49,0,7.91,2.14,7.91,7.91v28.53c0,6.01-2.66,7.91-7.91,7.91h-30.49c-5.43,0-7.91-2.08-7.91-7.91v-28.53c0-6.41,3.12-7.91,7.91-7.91h30.49Zm-26.97,8.49c-1.33,0-1.96.75-1.96,1.96v23.45c0,1.27.64,1.96,1.96,1.96h23.51c1.21,0,1.91-.64,1.91-1.96v-23.45c0-1.39-.81-1.96-1.91-1.96h-23.51Z"/><path class="cls-5" d="m551.13,180.07c-1.44,0-5.08,0-5.08-4.74s3.06-4.85,5.08-4.85h41.24c1.44,0,5.08,0,5.08,4.74s-3.23,4.85-5.08,4.85h-41.24Z"/><path class="cls-5" d="m611.37,152c1.56,0,5.49,2.08,7.45,3.12,10.34,5.37,11.15,6.82,11.15,9.01,0,1.91-2.02,5.37-4.79,5.37-1.1,0-1.91-.23-4.39-1.96-3.52-2.43-8.32-5.08-10.57-6.3-1.56-.81-3.46-1.79-3.46-4.22,0-2.19,1.67-4.22,3.52-4.85.35-.12.69-.17,1.1-.17Zm44.7,9.93c0,2.71-3.93,13.8-11.03,21.95-7.68,8.78-16.58,11.84-22.12,13.4-3.23.87-7.85,1.91-9.93,1.91-3.75,0-4.68-3.35-4.68-5.37,0-3.47,2.08-4.16,5.14-4.56,14.79-1.91,26.34-7.57,33.04-26.74,1.27-3.7,1.67-4.85,4.27-4.85.35,0,.92,0,1.56.17,1.67.46,3.75,1.44,3.75,4.1Z"/></g></g><rect class="cls-1" width="677" height="238"/></g></g></svg>