<?xml version="1.0" encoding="UTF-8"?><svg id="Layer_2" xmlns="http://www.w3.org/2000/svg" viewBox="0 0 677 187.66"><defs><style>.cls-1{fill:none;}.cls-2{fill:#fff;}.cls-3,.cls-4{fill:#f36e64;}.cls-5{fill:#404040;}.cls-6{fill:#ec6d95;stroke:#f36e64;stroke-miterlimit:10;}.cls-4{font-family:ArialRoundedMTBold, 'Arial Rounded MT Bold';font-size:88.6px;letter-spacing:.1em;}</style></defs><g id="PC"><g><rect class="cls-3" x="52.02" y="27.89" width="584.96" height="62" rx="31" ry="31"/><g><g><path class="cls-2" d="m90.59,69.63c-4.48,0-5.15-3.01-5.15-4.81,0-3.54,1.69-5.25,5.15-5.25h14.35v-4.95h-11.29c-4.61,0-5.1-3.29-5.1-4.71,0-3.34,1.76-5.1,5.1-5.1h11.29v-4.31h-13.07c-4.61,0-5.1-3.36-5.1-4.81,0-3.49,1.72-5.25,5.1-5.25h9.27c-1.88-.66-2.97-2.09-2.97-3.93,0-2.35,1.85-5.63,5.32-5.7,2.89,0,8.42,2.26,11.24,3.6,2.64,1.28,4.51,2.38,4.51,5.06,0,.33-.03.65-.08.97h9.79c4.61,0,5.1,3.33,5.1,4.76,0,3.57-1.67,5.3-5.1,5.3h-13.26v4.31h11.34c4.61,0,5.1,3.33,5.1,4.76,0,3.31-1.76,5.06-5.1,5.06h-11.34v4.95h14.4c4.61,0,5.1,3.33,5.1,4.76,0,3.57-1.67,5.3-5.1,5.3h-39.5Z"/><path class="cls-3" d="m103.53,22.31c2.47,0,7.65,2.07,10.57,3.46,2.77,1.33,3.65,2.07,3.65,3.7,0,.3,0,1.28-.74,2.47h11.95c1.19,0,3.6.15,3.6,3.26,0,2.57-.84,3.8-3.6,3.8h-14.76v7.31h12.84c.84,0,3.6,0,3.6,3.26,0,2.47-1.04,3.56-3.6,3.56h-12.84v7.95h15.9c1.19,0,3.6.15,3.6,3.26,0,2.57-.84,3.8-3.6,3.8h-39.5c-1.14,0-3.65-.1-3.65-3.31,0-2.47.84-3.75,3.65-3.75h15.85v-7.95h-12.79c-.84,0-3.6,0-3.6-3.21,0-2.42.99-3.6,3.6-3.6h12.79v-7.31h-14.57c-1.19,0-3.6-.15-3.6-3.31,0-2.47.84-3.75,3.6-3.75h17.23c-2.52-1.23-3.9-1.73-7.31-2.86-.94-.3-2.12-.99-2.12-2.57s1.23-4.15,3.85-4.2m0-3h-.06c-4.43.08-6.8,4.23-6.8,7.2,0,.88.19,1.7.54,2.43h-5.34c-2.47,0-6.6.88-6.6,6.75,0,4.65,3.41,6.31,6.6,6.31h11.57v1.31h-9.79c-4.2,0-6.6,2.41-6.6,6.6,0,3,1.74,6.21,6.6,6.21h9.79v1.95h-12.85c-2.48,0-6.65.88-6.65,6.75,0,4.65,3.44,6.31,6.65,6.31h39.5c5.75,0,6.6-4.26,6.6-6.8,0-4.61-3.41-6.26-6.6-6.26h-12.9v-1.95h9.84c4.2,0,6.6-2.39,6.6-6.56,0-3.03-1.74-6.26-6.6-6.26h-9.84v-1.31h11.76c5.75,0,6.6-4.26,6.6-6.8,0-4.61-3.41-6.26-6.6-6.26h-8.23c-.27-3.44-3.18-4.84-5.33-5.87-1.33-.63-8.1-3.75-11.87-3.75h0Z"/></g><g><path class="cls-2" d="m172.25,71.31c-1.39,0-4.61-.49-4.61-5.06v-9.71h-.01v7.34c0,4.56-3.26,5.06-4.66,5.06s-4.66-.49-4.66-5.06v-.31c-.79.6-1.77.97-2.89.97-.99,0-1.75-.27-2.37-.65-1.54,2.78-2.85,4.63-3.99,5.65-.83.76-1.92,1.17-3.12,1.17-2.92,0-5.3-2.36-5.3-5.25,0-2.03.94-3.19,2.75-5.24,1.17-1.31,1.9-2.31,2.39-3.04-.09-.07-.18-.14-.28-.21-1.73-1.3-2.99-2.26-3.43-2.7-.35-.35-1.48-1.64-1.48-3.78,0-.83.19-1.72.58-3.4.73-3.18,1.24-6.39,1.56-8.62-1.77-.68-2.78-2.28-2.78-4.51,0-1.64.53-4.25,3.78-4.84h0c.24-3.98.27-4.54.7-5.42.4-.92,1.78-2.55,4.33-2.55,2.92,0,4.81,1.93,4.81,4.91,0,.96-.08,2.04-.18,2.94h.16c2.6,0,4.31.67,5.27,2.16.17-.44.41-.83.72-1.14-1.65-.91-1.81-2.7-1.81-3.38,0-1.18.42-3.92,4.27-3.92h17.18c5.95,0,7.57,1.63,7.57,7.57v3.9c0,3.09-.43,5.03-1.68,6.17,3.18.58,4.14,2.45,4.14,6.87v2.42c0,2.82-1.23,4.11-2.65,4.66.05.47.08,1,.08,1.61v6.47c0,1.82,0,6.09-6.54,6.09-.84,0-2.2,0-3.42-.53-.7,2.98-3.24,3.34-4.43,3.34Zm4.61-12.61c.07-.02.14-.03.21-.05v-2.11h-.21v2.16Zm-18.49-4.2s0-.09.01-.14c-.11-.04-.23-.09-.34-.15.11.1.22.19.33.29Z"/><path class="cls-3" d="m148.75,22.65c1.38,0,3.31.59,3.31,3.41,0,1.73-.3,3.95-.4,4.44h1.88c3.6,0,4.74,1.28,4.74,4.89,0,2.57-.44,6.47-.64,8.05.94-1.68,2.47-1.78,5.09-1.78h19.41c4.74,0,5.58.89,5.58,5.58v2.42c0,2.27-.89,3.36-2.86,3.51.15.59.3,1.53.3,2.77v6.47c0,2.02-.1,4.59-5.04,4.59-2.02,0-4.59,0-4.59-3.9,0-2.67,1.23-2.86,2.12-3.01.59-.1.94-.2.94-1.28v-2.81c0-.64-.35-.94-.94-.94h-2.27v11.21c0,1.04-.1,3.56-3.11,3.56-2.42,0-3.11-1.58-3.11-3.56v-11.21h-2.07c-.64,0-.94.3-.94.94v7.9c0,1.19-.2,3.56-3.16,3.56-2.42,0-3.16-1.48-3.16-3.56v-7.95c0-1.14.1-1.88.3-2.72-2.03-.15-2.96-1.28-2.96-3.56v-2.62c-.4,2.37-.89,4.69-1.63,7.06,3.01,2.32,3.6,3.16,3.6,4.64,0,1.97-1.38,4.3-3.7,4.3-1.28,0-1.97-.64-2.81-1.48-.3.54-2.62,5.13-4.54,6.86-.59.54-1.33.79-2.12.79-2.22,0-3.8-1.83-3.8-3.75,0-1.38.54-2.17,2.37-4.25,2.07-2.32,2.86-3.75,3.26-4.39-.74-.59-4.05-3.01-4.64-3.6-.25-.25-1.04-1.19-1.04-2.72,0-.64.15-1.38.54-3.06.89-3.85,1.43-7.65,1.78-10.12-.64-.05-2.96-.3-2.96-3.36,0-3.46,2.67-3.46,3.7-3.46.3-4.94.3-5.48.64-6.17.1-.25.89-1.68,2.96-1.68m1.73,27.8c.99-3.16,2.22-9.08,2.22-12.2,0-.35-.05-.94-.89-.94h-1.09c-.64,3.85-1.33,7.7-1.98,10.07-.15.49-.3,1.09-.3,1.38,0,.15.05.3.3.54.2.1,1.43.94,1.73,1.14m24.89-.94h3.31c.59,0,1.28,0,2.32.15v-1.73c0-.54-.39-.84-.94-.84h-4.69v2.42m-11.8.25c1.09-.25,2.17-.25,2.72-.25h2.86v-2.42h-4.64c-.49,0-.94.25-.94.89v1.78m15.6-25.53c5.13,0,6.07.99,6.07,6.07v3.9c0,5.09-.94,6.12-6.07,6.12h-17.58c-.59,0-2.37,0-2.37-2.12s1.63-2.17,2.37-2.17h15.65c.84,0,.89-.4.94-1.38h-15.95c-1.33,0-2.17-.59-2.17-1.93s.49-2.17,2.17-2.17h15.95c0-.54-.05-.89-.15-1.14-.15-.25-.35-.35-.79-.35h-15.26c-.69,0-2.77,0-2.77-2.42s2.02-2.42,2.77-2.42h17.18m-30.42-4.58c-3.28,0-5.08,2.08-5.68,3.41-.5,1.02-.58,1.7-.77,4.88-3.53,1.24-3.85,4.78-3.85,6.02,0,2.37.98,4.26,2.65,5.35-.32,2.1-.77,4.8-1.38,7.46-.42,1.79-.62,2.75-.62,3.74,0,2.71,1.47,4.39,1.92,4.84.4.4,1.16,1,2.7,2.16-.38.49-.85,1.06-1.43,1.72-1.95,2.21-3.13,3.68-3.13,6.24,0,3.72,3.05,6.75,6.8,6.75,1.59,0,3.02-.55,4.15-1.58,1.06-.95,2.25-2.55,3.6-4.83.51.15,1.09.24,1.73.24.57,0,1.11-.07,1.61-.2.57,2.46,2.34,4.6,5.94,4.6,1.3,0,2.63-.33,3.72-1.09,1.03,2.5,3.35,3.46,5.56,3.46,2.06,0,4.22-.84,5.34-2.98.92.17,1.79.17,2.51.17,8.04,0,8.04-5.71,8.04-7.59v-6.47c0-.26,0-.5-.01-.74,1.37-.87,2.58-2.5,2.58-5.54v-2.42c0-4.09-.94-6.48-3.31-7.65.59-1.35.84-3.12.84-5.38v-3.9c0-6.78-2.29-9.07-9.07-9.07h-17.18c-2.66,0-5.77,1.42-5.77,5.42,0,.38.03.77.11,1.16-.41-.1-.85-.18-1.32-.23.03-.51.05-1.03.05-1.52,0-3.83-2.54-6.41-6.31-6.41h0Z"/></g><g><path class="cls-2" d="m220.54,68.84c-3.76,0-5.45-2.79-5.45-5.55,0-4.46,3.59-5,5.13-5.24,4.36-.67,11.56-1.79,11.56-12.34,0-5.97-2.73-10.01-7.39-11.07-1.16,8.11-3.77,18.15-7.28,23.59-2.94,4.61-6.3,6.76-10.54,6.76-7.12,0-11.72-6.33-11.72-16.12,0-17.11,13.17-24.9,25.4-24.9,14.05,0,22.78,8.5,22.78,22.19,0,18.52-16.65,22.68-22.49,22.68Zm-7-33.48c-7.25,3.16-8.09,10.4-8.09,13.57s1.1,4.57,1.56,4.57c.38,0,1.45-.5,3.13-5.09,1.9-5.24,2.79-9.37,3.4-13.05Z"/><path class="cls-3" d="m220.24,25.47c14.52,0,21.28,9.13,21.28,20.69,0,18.47-17.13,21.18-20.99,21.18s-3.95-3.51-3.95-4.05c0-3.16,2.22-3.51,3.85-3.75,4.15-.64,12.84-1.93,12.84-13.83,0-8.49-4.89-12.29-10.17-12.79-1.04,8.35-3.75,19.06-7.26,24.49-2.62,4.1-5.53,6.07-9.28,6.07-7.16,0-10.22-7.26-10.22-14.62,0-15.95,11.95-23.4,23.9-23.4m-4.84,7.65c-10.57,2.86-11.46,12.49-11.46,15.8,0,4.05,1.53,6.07,3.06,6.07,2.02,0,3.46-3.11,4.54-6.07,2.47-6.81,3.26-11.75,3.85-15.8m4.84-10.65c-12.96,0-26.9,8.26-26.9,26.4,0,10.54,5.31,17.62,13.22,17.62,2.61,0,4.96-.74,7.08-2.25.37,3.09,2.56,6.1,6.89,6.1,6.22,0,23.99-4.44,23.99-24.18,0-6.76-2.08-12.55-6.01-16.73-4.28-4.55-10.6-6.96-18.27-6.96h0Zm-.5,34.14c2.69-5.37,4.74-13.17,5.86-19.99,3.01,1.37,4.68,4.55,4.68,9.09,0,8.56-4.84,10.02-10.23,10.85h-.07c-.07.02-.15.03-.24.05h0Zm-12.52-5.34c-.15-.53-.28-1.3-.28-2.35,0-2.94.69-7.59,4.53-10.61-.58,2.8-1.4,5.88-2.74,9.59-.64,1.74-1.14,2.77-1.51,3.37h0Z"/></g><g><path class="cls-2" d="m254.55,70.62c-3.5,0-5.94-3.32-5.94-6.29,0-2.42,1.51-3.53,3.43-4.93,6.79-4.88,9.13-10.41,9.3-22.36h-7.82c-4.61,0-5.3-3.07-5.3-4.91,0-3.6,1.73-5.35,5.3-5.35h14.35v-1.31c0-2.79,1.87-4.46,5.01-4.46,1.41,0,5.7,0,5.7,4.46v1.31h14.45c4.61,0,5.3,3.17,5.3,5.05,0,2.37-.92,5.2-5.3,5.2h-20.73c-.01.58-.03,1.14-.06,1.74h12.5c2.34,0,8.56,0,8.56,7.77,0,2.26-.67,14.79-2.45,18.74-1.5,3.31-4.43,4.76-6.68,5.02-1.38.19-4.08.21-6.49.21h-1.57c-2.66,0-3.92-.08-4.66-.32-2.44-.7-3.32-3.23-3.32-5.18,0-3.49,1.93-5.25,5.75-5.25.3,0,.94.01,1.68.02,1.01.02,2.23.04,3.04.04.3,0,.53,0,.66-.01,1.52-.05,2.04-.34,2.52-3.61.33-2.06.63-5.27.63-6.89,0-.14,0-.24-.02-.31-.08,0-.2-.02-.36-.02h-10.9c-.67,3.37-2.03,8.69-6.38,14.33-.58.75-5.79,7.3-10.17,7.3Z"/><path class="cls-3" d="m272.87,22.5c2.27,0,4.2.39,4.2,2.96v2.81h15.95c1.53,0,3.8.3,3.8,3.55,0,2.86-1.43,3.7-3.8,3.7h-22.22c0,1.73-.05,2.91-.15,4.74h14.07c3.06,0,7.06.3,7.06,6.27,0,2.32-.69,14.52-2.32,18.12-1.43,3.16-4.2,4-5.48,4.15-1.43.2-4.59.2-6.32.2-.48,0-1.02,0-1.57,0-1.68,0-3.5-.03-4.21-.25-1.73-.49-2.27-2.42-2.27-3.75,0-3.75,2.86-3.75,4.25-3.75.71,0,3.33.06,4.72.06.34,0,.61,0,.76-.01,2.86-.1,3.46-1.83,3.9-4.89.35-2.12.64-5.43.64-7.11,0-1.48-.59-1.83-1.88-1.83h-12.15c-.59,3.21-1.68,8.89-6.32,14.91-1.88,2.42-6.02,6.72-8.99,6.72-2.52,0-4.44-2.47-4.44-4.79,0-1.68,1.04-2.42,2.86-3.75,7.21-5.19,9.88-11.31,9.88-25.04h-9.33c-1.88,0-3.8-.49-3.8-3.41,0-2.57.84-3.85,3.8-3.85h15.85v-2.81c0-2.27,1.63-2.96,3.51-2.96m0-3c-3.88,0-6.42,2.26-6.5,5.78h-12.85c-5.92,0-6.8,4.29-6.8,6.85,0,1.5.49,6.41,6.8,6.41h6.28c-.41,11.56-3.29,15.8-8.58,19.6l-.07.05c-1.99,1.45-4.04,2.95-4.04,6.14,0,3.68,3.06,7.79,7.44,7.79,2.07,0,4.3-1.03,6.83-3.15,1.55-1.3,3.24-3.06,4.53-4.73.33-.43.64-.86.94-1.28-.15.6-.24,1.29-.24,2.06,0,2.47,1.16,5.68,4.41,6.63.92.28,2.21.38,5.07.38h.85s.72,0,.72,0c2.45,0,5.18-.02,6.7-.22,2.65-.32,6.09-2.02,7.84-5.88,2.02-4.48,2.59-17.97,2.59-19.36,0-4.69-2.09-6.91-3.85-7.96-.03-.02-.06-.04-.1-.06h2.18c4.32,0,6.8-2.44,6.8-6.7,0-1.54-.49-6.55-6.8-6.55h-12.95c-.05-2.24-1.1-5.78-7.2-5.78h0Zm-.56,30.98h8.53c-.09,1.65-.32,3.93-.57,5.46v.03s0,.03,0,.03c-.22,1.53-.42,2.07-.53,2.26-.07.02-.23.05-.51.06h-.05s-.05,0-.05,0c-.11,0-.31,0-.56,0-.8,0-2-.02-3.01-.04-.76-.01-1.4-.02-1.71-.02-.87,0-2.5,0-4.04.82-.28.15-.61.35-.94.62,1.93-3.54,2.89-6.78,3.44-9.22h0Z"/></g><g><path class="cls-2" d="m309.42,68.54c-3.7,0-4.29-2.83-4.58-4.19-.21-.98-.66-4.85-.66-10.46,0-9.83,1.01-17.72,1.42-19.35.78-3.29,3.22-3.29,4.84-3.29,2.13,0,4.41,1.26,4.41,4.02,0,.49-.16,1.66-.45,3.5l-.08.53c-.54,4.63-.81,9.11-.81,13.29,0,1.32,0,4.41.27,7.01.05.36.44,3.96.44,4.44,0,2.85-1.75,4.49-4.81,4.49Zm19.29-1.73c-4,0-14.61,0-14.61-9.41,0-3.03,1.24-8.15,5.87-8.15,2.44,0,5.04,1.4,5.04,3.98,0,1.08-.25,1.6-.96,2.95-.41.75-.42.94-.42.95.03.07.58.59,4.13.59,1.47,0,3.01-.18,4.13-.31l.67-.08.44-.07c1.78-.27,2.82-.41,3.26-.41,2.7,0,4.37,1.71,4.37,4.45,0,2.29-.84,3.7-2.66,4.46-2.32,1.03-9.21,1.06-9.28,1.06Zm-8.78-23.54c-2.91,0-4.65-1.71-4.65-4.57,0-1.76.63-3.97,3.66-4.47,1.05-.19,5.98-.46,12.21-.46,3.21,0,4.84.08,5.61.29,1.79.4,2.93,2.06,2.93,4.32,0,1.71-.63,4.57-4.89,4.57-.32,0-1.21-.01-2.08-.02-.83,0-1.65-.02-1.93-.02-1.73,0-6.31.08-9.6.27-.1,0-.22.01-.35.03-.32.03-.73.06-.92.06Z"/><path class="cls-3" d="m310.45,32.76c.67,0,2.91.28,2.91,2.52,0,.59-.43,3.27-.51,3.82-.2,1.69-.83,7.2-.83,13.5,0,1.3,0,4.49.28,7.17.08.55.43,3.98.43,4.29,0,1.18-.31,2.99-3.31,2.99-2.28,0-2.76-1.3-3.11-2.99-.2-.91-.63-4.65-.63-10.16,0-9.68.98-17.44,1.38-18.98.51-2.17,1.81-2.17,3.38-2.17m20.71,2.52c1.26,0,4.33,0,5.24.24,1.22.28,1.81,1.46,1.81,2.87,0,2.76-1.89,3.07-3.39,3.07-.63,0-3.42-.04-4.02-.04-1.73,0-6.34.08-9.68.28-.12,0-.91.08-1.18.08-1.89,0-3.15-.87-3.15-3.07,0-2.64,1.73-2.87,2.44-2.99.87-.16,5.67-.43,11.93-.43m-11.18,15.47c1.57,0,3.54.79,3.54,2.48,0,.71-.12.98-.79,2.24-.47.87-.59,1.3-.59,1.65,0,1.54,1.73,2.09,5.63,2.09,1.89,0,3.86-.28,4.96-.39.55-.08,3.03-.47,3.54-.47,2.01,0,2.87,1.22,2.87,2.95,0,2.05-.79,2.68-1.73,3.07-1.77.79-7.36.94-8.7.94-6.53,0-13.11-1.1-13.11-7.91,0-.04,0-6.65,4.37-6.65m-9.53-20.99c-1.57,0-5.23,0-6.3,4.45-.5,1.99-1.46,9.98-1.46,19.69,0,5.53.43,9.56.7,10.79.27,1.3,1.12,5.35,6.04,5.35,3.6,0,5.94-1.97,6.27-5.19.78.7,1.71,1.3,2.77,1.79,2.5,1.14,5.75,1.68,10.25,1.68.29,0,7.18-.01,9.88-1.19,2.36-.99,3.55-2.95,3.55-5.83,0-3.56-2.36-5.95-5.87-5.95-.49,0-1.3.1-3.49.43l-.44.07c-.19.02-.39.04-.62.07-1.09.13-2.57.3-3.96.3-.87,0-1.52-.03-2-.07.5-1,.75-1.75.75-2.91,0-3.12-2.81-5.48-6.54-5.48-2.1,0-3.73.86-4.92,2.21.06-2.21.19-4.5.4-6.84,1.07,1.06,2.61,1.66,4.48,1.66.27,0,.6-.03,1.04-.06.08,0,.16-.01.22-.02h.1c3.25-.2,7.8-.28,9.51-.28.29,0,1.09,0,1.92.02.88.01,1.77.02,2.1.02,5.93,0,6.39-4.65,6.39-6.07,0-2.94-1.61-5.2-4.11-5.79-.94-.23-2.57-.32-5.94-.32-5.87,0-11.19.25-12.46.48-1.05.17-1.88.51-2.53.95-.72-2.6-3.23-3.95-5.71-3.95h0Z"/></g><g><path class="cls-2" d="m373.76,69.38c-3.5,0-5.54-1.27-6.09-3.79-1.61,2.09-4.24,3.59-8.53,3.59-8.28,0-12.61-6.24-12.61-12.41,0-9.99,9.01-14.14,13.18-15.75v-2.31c-1.89.05-4.69.1-5.41.1h-1.93c-4.55,0-5.5-2.78-5.5-5.1,0-2.78,1.45-4.54,4.09-4.94.32-.04,1.69-.08,8.75-.23v-.85c0-1.5,0-5.5,5.25-5.5s5.25,4.1,5.25,5.45v.46h.19c1.13-.06,1.7-.08,2.16-.08.82,0,1.51.1,2.1.28.21-1.28,1.06-2.39,1.53-2.79h0c1.22-1.03,2.47-1.54,3.73-1.54,3.69,0,8.88,5.33,9.88,6.4,2.11,2.21,3.52,4.14,3.52,6.31,0,3.23-2.92,5.4-5.65,5.4-.55,0-1.03-.08-1.45-.22.54.34,1.05.72,1.54,1.13,2.96,2.48,4.67,6.44,4.67,10.87,0,9.58-7.16,15.52-18.68,15.52Zm-3.54-14.49c0,1.3,0,3.13-.31,5.05,1.26-.57,2.69-.57,3.4-.57,5.38,0,7.78-1.67,7.78-5.41s-2.55-5.51-8.52-5.51c-1.05,0-1.73.03-2.35.1v6.35Zm-10.41-3.18c-1.61,1.04-3.02,2.5-3.02,4.61,0,1.26.63,2.6,1.81,2.6.81,0,1.21-1.46,1.21-4.33v-2.88Zm13.15-13.08c2.35,0,7.55.28,11.88,2.45-.66-.55-1.18-1.26-1.72-2l-.06-.09c-2.03-2.8-3.01-3.73-5.2-5.41-.18,3-2.13,3.98-2.99,4.26l-.11.03c-.84.21-1.42.28-4.54.42v.45c.75-.07,1.67-.12,2.75-.12Z"/><path class="cls-3" d="m364.97,23.69c3.65,0,3.75,2.37,3.75,3.95v2.02c2.37-.1,3.21-.15,3.85-.15,1.09,0,3.8,0,3.8,3.6,0,2.57-1.53,3.16-1.97,3.31-.79.2-1.28.25-5.68.45v3.55c.89-.1,2.27-.3,4.25-.3,2.77,0,9.68.44,13.83,4,3.01,2.52,4.15,6.32,4.15,9.73,0,8.49-6.27,14.02-17.18,14.02-1.58,0-4.74,0-4.74-3.8,0-3.21,2.72-3.21,4.3-3.21,2.12,0,9.28,0,9.28-6.91,0-6.12-5.43-7.01-10.02-7.01-1.88,0-2.67.1-3.85.3v7.65c0,4.34,0,12.79-9.58,12.79-7.26,0-11.11-5.28-11.11-10.91,0-9.73,9.73-13.43,13.18-14.71v-4.89c-1.14.05-5.92.15-6.91.15h-1.93c-1.23,0-4,0-4-3.6,0-2.62,1.53-3.26,2.81-3.46.4-.05,7.75-.2,10.02-.25v-2.32c0-1.73.1-4,3.75-4m-6.37,36.74c2.12,0,2.71-2.27,2.71-5.83v-5.38c-1.73.79-6.02,2.81-6.02,7.11,0,2.22,1.33,4.1,3.31,4.1m21.33-34.96c2.42,0,6.52,3.51,8.79,5.92,1.97,2.07,3.11,3.65,3.11,5.28,0,2.32-2.17,3.9-4.15,3.9-1.63,0-2.32-.99-3.41-2.47-2.47-3.41-3.55-4.25-6.76-6.67-1.38-1.04-1.38-2.42-1.38-2.57,0-1.04.89-2.12,1.04-2.22.3-.25,1.38-1.18,2.76-1.18m-14.96-4.78c-2.97,0-6.49,1.13-6.74,6.38-6.61.14-7.12.17-7.41.21h-.04s-.04.01-.04.01c-3.36.52-5.36,2.92-5.36,6.42,0,1.99.68,6.6,7,6.6h1.93c.5,0,1.92-.02,3.37-.05-8.39,3.75-12.64,9.29-12.64,16.51s4.85,13.91,14.11,13.91c3.68,0,6.24-1.05,8.04-2.49,1.06,1.5,3.01,2.69,6.58,2.69,12.26,0,20.18-6.68,20.18-17.02,0-4.16-1.39-7.96-3.86-10.71,2.57-.93,4.75-3.3,4.75-6.47,0-2.97-2.03-5.35-3.94-7.35-1.5-1.6-6.76-6.86-10.96-6.86-1.62,0-3.19.63-4.67,1.87h0c-.51.43-1.16,1.23-1.61,2.24-.34-.03-.7-.05-1.08-.05-.26,0-.54,0-.9.02-.49-5.06-4.34-5.85-6.7-5.85h0Zm12.99,16.81c.31-.38.57-.8.78-1.26.57.51,1.08,1.04,1.63,1.71-.83-.19-1.64-.33-2.41-.45h0Zm-6.23,12.46c.25,0,.53,0,.85,0,7.02,0,7.02,2.41,7.02,4.01,0,1.89-.49,3.91-6.28,3.91-.6,0-1.16.04-1.67.1.07-1.14.07-2.19.07-3.08v-4.94h0Z"/></g><g><path class="cls-2" d="m413.65,69.78c-5.32,0-5.9-3.74-5.9-5.35,0-4.71,3.94-4.71,6.29-4.71,1.67-.03,3.58-.11,5.41-.42-7.68-.25-12.98-4.85-12.98-11.36,0-4.1,2.27-8.23,7.18-10.18-1.34.01-2.68.02-4.2.02-5.04,0-5.61-.04-6.56-.3-.97-.26-3.24-1.25-3.24-4.81,0-5.06,4.47-5.06,5.94-5.06.66,0,2.45.01,4.2.03,1.68.01,3.32.02,3.9.02,4.57-.04,6.82-.08,10.75-.16h.53c-.03-.79,0-2.56,1.29-3.91.96-1.01,2.36-1.52,4.17-1.52,2.03,0,5.4.68,5.54,5.15.61-.02,1.32-.04,2.03-.07,1.49-.05,2.97-.1,3.49-.1,4.66,0,5.35,3.14,5.35,5.01,0,3.28-1.82,5-5.41,5.1-.72.04-1.25.05-3.77.09l-1.69.03v8.75c.46,1.39,1.09,3.43,1.09,6.51,0,9.18-5.42,14.88-15.69,16.49-3.59.58-6.8.71-7.74.71Zm7.65-24.29s-4.18.03-4.18,2.45,3.62,2.45,4.03,2.45c.68,0,4.08-.12,4.08-2.45s-3.01-2.45-3.93-2.45Z"/><path class="cls-3" d="m430.44,23.59c4.05,0,4.05,2.91,4.05,3.95v1.23c1.09,0,5.97-.2,7.01-.2,1.63,0,3.85.35,3.85,3.51s-2.27,3.55-3.95,3.6c-.99.05-1.58.05-6.91.15v10.47c.44,1.33,1.09,3.26,1.09,6.27,0,8.74-5.28,13.58-14.42,15.01-3.65.59-6.81.69-7.5.69-.94,0-4.4,0-4.4-3.85,0-3.21,2.27-3.21,4.79-3.21,2.86-.05,7.11-.25,10.17-1.83,2.47-1.28,3.06-3.11,3.31-3.9-1.53,1.13-3.06,2.32-7.41,2.32-7.06,0-12.15-3.85-12.15-9.88,0-5.28,4.25-9.83,12.34-9.83,1.73,0,4.05.15,6.42,1.04l-.05-3.11c-8.74.15-11.85.25-17.23.25-4.99,0-5.43-.05-6.17-.25-.74-.2-2.12-.84-2.12-3.36,0-3.51,2.67-3.56,4.44-3.56,1.28,0,6.91.05,8.1.05,5.33-.05,7.51-.1,12.84-.2l-.05-1.33c-.05-1.04-.1-4.05,3.95-4.05m-9.28,28.29c2.77,0,5.58-1.13,5.58-3.95,0-3.8-4.64-3.95-5.43-3.95-2.22,0-5.68.94-5.68,3.95,0,3.55,4.3,3.95,5.53,3.95m9.28-31.29c-2.23,0-4,.67-5.26,1.98-.88.92-1.42,2.08-1.62,3.46-3.46.06-5.66.1-9.9.14-.55,0-2.19-.01-3.86-.02-1.76-.01-3.55-.03-4.21-.03-6.15,0-7.44,3.56-7.44,6.56,0,3.19,1.63,5.53,4.35,6.26,1.09.29,1.85.34,6.09.35-2.3,2.22-3.62,5.2-3.62,8.65,0,4.53,2.22,8.24,5.91,10.5-.48.1-.96.24-1.42.46-1.2.54-3.21,1.99-3.21,5.54,0,3.31,1.94,6.85,7.4,6.85.97,0,4.29-.13,7.99-.73,10.92-1.71,16.94-8.09,16.94-17.97,0-3.13-.62-5.33-1.09-6.75v-7.04h.22c2.5-.05,3.04-.06,3.82-.1,5.94-.19,6.83-4.22,6.83-6.6,0-1.53-.49-6.51-6.85-6.51-.56,0-1.94.05-3.54.1-.21,0-.43.01-.65.02-.66-3.23-3.12-5.11-6.87-5.11h0Zm-9.28,28.29c-.33,0-2.53-.18-2.53-.95,0-.46,1.38-.95,2.68-.95.02,0,2.43.04,2.43.95,0,.65-1.54.95-2.58.95h0Z"/></g><g><path class="cls-2" d="m466.97,69.78c-5.32,0-5.89-3.74-5.89-5.35,0-4.71,3.94-4.71,6.29-4.71,1.67-.03,3.58-.11,5.41-.42-7.68-.25-12.98-4.85-12.98-11.36,0-4.1,2.27-8.23,7.18-10.18-1.34.01-2.68.02-4.2.02-5.04,0-5.61-.04-6.56-.3-.97-.26-3.24-1.25-3.24-4.81,0-5.06,4.47-5.06,5.94-5.06.66,0,2.45.01,4.2.03,1.68.01,3.32.02,3.9.02,4.57-.04,6.82-.08,10.75-.16h.53c-.03-.79,0-2.56,1.29-3.91.96-1.01,2.36-1.52,4.17-1.52,2.03,0,5.4.68,5.54,5.15.61-.02,1.32-.04,2.03-.07,1.49-.05,2.97-.1,3.49-.1,4.66,0,5.35,3.14,5.35,5.01,0,3.28-1.82,5-5.41,5.1-.72.04-1.25.05-3.77.09l-1.69.03v8.75c.46,1.39,1.09,3.43,1.09,6.51,0,9.18-5.42,14.88-15.69,16.49-3.59.58-6.8.71-7.74.71Zm7.65-24.29s-4.18.03-4.18,2.45,3.62,2.45,4.03,2.45c.68,0,4.08-.12,4.08-2.45s-3.01-2.45-3.93-2.45Z"/><path class="cls-3" d="m483.76,23.59c4.05,0,4.05,2.91,4.05,3.95v1.23c1.09,0,5.97-.2,7.01-.2,1.63,0,3.85.35,3.85,3.51s-2.27,3.55-3.95,3.6c-.99.05-1.58.05-6.91.15v10.47c.44,1.33,1.09,3.26,1.09,6.27,0,8.74-5.28,13.58-14.42,15.01-3.65.59-6.81.69-7.5.69-.94,0-4.39,0-4.39-3.85,0-3.21,2.27-3.21,4.79-3.21,2.86-.05,7.11-.25,10.17-1.83,2.47-1.28,3.06-3.11,3.31-3.9-1.53,1.13-3.06,2.32-7.41,2.32-7.06,0-12.15-3.85-12.15-9.88,0-5.28,4.25-9.83,12.34-9.83,1.73,0,4.05.15,6.42,1.04l-.05-3.11c-8.74.15-11.85.25-17.23.25-4.99,0-5.43-.05-6.17-.25-.74-.2-2.12-.84-2.12-3.36,0-3.51,2.67-3.56,4.44-3.56,1.28,0,6.91.05,8.1.05,5.33-.05,7.51-.1,12.84-.2l-.05-1.33c-.05-1.04-.1-4.05,3.95-4.05m-9.28,28.29c2.77,0,5.58-1.13,5.58-3.95,0-3.8-4.64-3.95-5.43-3.95-2.22,0-5.68.94-5.68,3.95,0,3.55,4.3,3.95,5.53,3.95m9.28-31.29c-2.23,0-4,.67-5.26,1.98-.88.92-1.42,2.08-1.62,3.46-3.46.06-5.66.1-9.9.14-.55,0-2.19-.01-3.86-.02-1.76-.01-3.55-.03-4.21-.03-6.15,0-7.44,3.56-7.44,6.56,0,3.19,1.63,5.53,4.35,6.26,1.09.29,1.85.34,6.09.35-2.3,2.22-3.62,5.2-3.62,8.65,0,4.53,2.22,8.24,5.91,10.5-.48.1-.96.24-1.42.46-1.2.54-3.21,1.99-3.21,5.54,0,3.31,1.94,6.85,7.39,6.85.97,0,4.29-.13,7.99-.73,10.92-1.71,16.94-8.09,16.94-17.97,0-3.13-.62-5.33-1.09-6.75v-7.04h.22c2.5-.05,3.04-.06,3.82-.1,5.94-.19,6.83-4.22,6.83-6.6,0-1.53-.49-6.51-6.85-6.51-.56,0-1.94.05-3.54.1-.21,0-.43.01-.65.02-.66-3.23-3.12-5.11-6.87-5.11h0Zm-9.28,28.29c-.33,0-2.53-.18-2.53-.95,0-.46,1.38-.95,2.68-.95.02,0,2.43.04,2.43.95,0,.65-1.54.95-2.58.95h0Z"/></g><g><path class="cls-2" d="m532.89,69.28c-3.95,0-5.35-2.91-5.35-5.4,0-.88.13-1.6.35-2.18-.44-.08-.91-.23-1.37-.43-4.21,4.64-7.27,5.29-9.72,5.29-5.1,0-10.24-4.02-10.24-13,0-5.72,2.2-11.27,6.06-15.36l-.07-.26c-.84-3.29-1.6-6.37-1.6-8.03,0-3.12,2.14-5.05,5.6-5.05s4.1,2.23,4.43,3.18c.19.64.46,2.19.78,4.07,2.17-.86,4.55-1.48,7.22-1.86.54-3.18.98-4.89,1.48-5.77.89-1.52,2.39-2.29,4.46-2.29,3.41,0,5.8,1.9,5.8,4.61,0,.85-.42,2.71-.77,4.1,9.14,2.27,14.15,8.62,14.15,18.02,0,7.04-2.78,12.94-7.62,16.21-6.11,4.11-13.28,4.16-13.58,4.16Zm-.63-16.48c.9.82,1.59,1.77,1.59,3.28,0,.98-.3,1.95-.79,2.81,3.71-.56,10.53-1.62,10.53-10.31,0-6.06-3.66-7.58-6.35-8.19-1.04,2.98-3.04,8.54-4.98,12.42Zm-15.38-3.06c-.38,1.3-.56,2.59-.56,3.53,0,.51.05,3.04,1.02,3.04.36,0,.79,0,2.37-1.91-1.09-1.57-2.01-3.09-2.82-4.67Zm7.15-8.16c.4,1.04.83,2.03,1.28,2.97.46-1.18.93-2.51,1.38-3.96-.81.22-1.72.54-2.66,1Z"/><path class="cls-3" d="m534.91,23.69c2.47,0,4.3,1.19,4.3,3.11,0,.99-.84,4.3-1.14,5.23,10.22,1.93,14.52,8.34,14.52,16.89,0,5.88-2.12,11.7-6.96,14.96-5.14,3.46-11.21,3.9-12.74,3.9-3.75,0-3.85-3.21-3.85-3.9,0-2.86,1.43-3.06,4.2-3.51,3.6-.54,11.85-1.78,11.85-11.8,0-8.34-6.22-9.43-8.84-9.92-1.04,3.01-3.6,10.37-5.88,14.52,1.33,1.09,1.97,1.68,1.97,2.91,0,2.17-2.07,4.2-3.7,4.2-.64,0-1.58-.3-2.47-.89-4.1,4.84-6.86,5.68-9.38,5.68-4.94,0-8.74-4.1-8.74-11.5,0-5.63,2.22-11.01,6.22-14.91-.54-2.17-1.83-6.86-1.83-8.74,0-3.46,3.31-3.55,4.1-3.55,2.07,0,2.62,1.04,3.01,2.17.25.84.89,4.94,1.04,5.73,3.01-1.48,6.27-2.27,9.68-2.67.34-2.17.89-5.33,1.48-6.37.69-1.19,1.83-1.53,3.16-1.53m-6.12,14.91c-1.48.25-4,.69-6.62,2.27,1.43,4.1,2.91,6.47,3.31,7.11.99-2.17,2.32-5.48,3.31-9.38m-11.46,19.21c1.14,0,2.02-.49,4.25-3.36-1.88-2.57-3.41-5.14-4.74-8.39-1.38,2.27-2.03,5.23-2.03,7.21,0,2.17.49,4.54,2.52,4.54m17.58-37.12c-3.3,0-4.95,1.64-5.75,3.02-.55.96-.99,2.49-1.48,5.22-1.69.29-3.26.67-4.75,1.16-.22-1.22-.37-1.97-.49-2.4l-.02-.07-.02-.07c-.36-1.04-1.46-4.19-5.85-4.19s-7.1,2.63-7.1,6.55c0,1.74.67,4.59,1.51,7.88-3.77,4.3-5.91,9.95-5.91,15.77,0,10.02,5.9,14.5,11.74,14.5,3.32,0,6.2-1.27,9.25-4.15.02,4.11,2.76,6.87,6.85,6.87.8,0,8.04-.12,14.42-4.41,5.27-3.55,8.29-9.91,8.29-17.45,0-9.67-4.89-16.34-13.85-19.08.26-1.13.47-2.31.47-3.04,0-3.54-3.07-6.11-7.3-6.11h0Zm-.85,31.83c1.21-2.55,2.57-5.96,4.12-10.3,2.24.8,3.91,2.36,3.91,6.35,0,5.63-3.09,7.49-6.8,8.37.04-.29.06-.57.06-.86,0-1.56-.55-2.68-1.29-3.56h0Z"/></g><g><path class="cls-2" d="m580.98,68.35c-3.21,0-4.65-2.37-4.65-4.73,0-.46.05-.88.13-1.25-1.91,1.97-4.07,2.9-6.62,2.9-6.67,0-9.65-6.61-9.65-13.15,0-13.85,10.65-20.16,20.55-20.16,11.39,0,18.47,6.9,18.47,18,0,15.01-13.5,18.39-18.23,18.39Zm3.32-27.19c-.96,6.44-3.03,14.29-5.8,18.59,0,0,0,.01-.01.02.82-.42,1.68-.55,2.19-.62,3.38-.52,8.96-1.39,8.96-9.54,0-5.89-3.08-7.82-5.33-8.44Zm-9.29.71c-5.15,2.57-5.76,7.91-5.76,10.3s.72,3.27.96,3.34c0,0,.79-.05,2.19-3.86,1.46-4.02,2.17-7.27,2.6-9.78Z"/><path class="cls-3" d="m580.75,33.46c11.57,0,16.97,7.28,16.97,16.5,0,14.72-13.66,16.89-16.73,16.89s-3.15-2.79-3.15-3.23c0-2.52,1.77-2.8,3.07-2.99,3.31-.51,10.24-1.54,10.24-11.02,0-6.77-3.9-9.8-8.11-10.2-.83,6.65-2.99,15.2-5.79,19.53-2.09,3.27-4.41,4.84-7.4,4.84-5.71,0-8.15-5.79-8.15-11.65,0-12.72,9.53-18.66,19.05-18.66m-3.86,6.1c-8.42,2.28-9.13,9.96-9.13,12.6,0,3.23,1.22,4.84,2.44,4.84,1.61,0,2.76-2.48,3.62-4.84,1.97-5.43,2.6-9.37,3.07-12.6m3.86-9.1c-10.62,0-22.05,6.78-22.05,21.66,0,8.76,4.48,14.65,11.15,14.65,1.9,0,3.64-.46,5.22-1.39.62,2.38,2.53,4.46,5.92,4.46,5.12,0,19.73-3.65,19.73-19.89,0-11.84-7.84-19.5-19.97-19.5h0Zm.65,27.04c1.82-4.03,3.23-9.36,4.08-14.2,1.42.93,2.66,2.76,2.66,6.3,0,5.89-2.98,7.22-6.74,7.9h0Zm-10.64-5.74c.05-1.75.44-4.11,1.92-6.08-.41,1.64-.95,3.43-1.68,5.46-.08.22-.16.43-.24.62h0Z"/></g></g><g><path class="cls-5" d="m96.67,120.1c0-1.09,0-3.9,4.1-3.9s4.25,2.62,4.25,3.9v4.74c0,4.99,1.09,10.91,3.11,15.5,3.7,8.49,9.68,11.95,13.78,14.37,1.18.69,2.22,1.43,2.22,3.31s-1.48,4.59-4.34,4.59c-3.11,0-9.58-6.22-11.36-8.25-5.04-5.58-6.81-11.26-7.55-13.83-1.58,5.18-4.05,10.71-10.07,16.34-2.42,2.27-6.47,5.73-8.94,5.73s-4.35-2.52-4.35-4.54,1.23-2.76,2.32-3.36c5.18-3.01,12.74-7.8,15.8-20.54.44-1.83,1.04-8.05,1.04-9.33v-4.74Z"/><path class="cls-5" d="m174.93,119.11c.89,0,3.56,0,3.56,3.06,0,2.17-.99,3.26-3.56,3.26h-29.68c-.2.35-1.09,1.73-1.28,2.02.49-.15.69-.25,1.38-.25h26.81c2.72,0,2.91,1.92,2.91,2.86,0,1.19-.25,2.96-2.91,2.96h-26.81c-3.01,0-2.91-2.32-2.86-3.36-1.09,1.53-2.52,3.55-4.25,5.13h27.9c1.73,0,5.38,0,5.38,4.54,0,.69-.05,1.04-.25,4.1-.15,1.92-.2,3.16-.2,5.23,0,3.26.2,5.04,1.23,5.04.54,0,.59-.15,1.38-1.58.4-.74.94-1.63,2.32-1.63s3.06,1.09,3.06,3.21c0,3.01-3.31,9.48-8.49,9.48-6.96,0-6.96-9.63-6.96-13.28,0-1.14.15-6.22.15-7.31,0-.59,0-1.78-1.58-1.78h-25.03c-1.23,0-3.56-.2-3.56-2.96,0-.3,0-1.28.59-1.98-2.02-.89-2.72-2.76-2.72-3.85s.44-1.78,1.53-2.86c3.46-3.6,5.48-7.06,6.71-9.23,1.93-3.31,2.57-4.3,4.69-4.3,1.78,0,4.34.84,4.34,2.81,0,.25-.05.44-.1.64h26.27Zm-38.42,28.79c-.59-.54-1.19-1.28-1.19-2.17,0-1.83,1.53-3.65,3.46-3.65,1.73,0,3.06.79,11.06,5.63,1.24-.94,2.91-2.22,5.38-4.79.79-.79,1.33-1.28,2.57-1.28,1.93,0,3.95,1.53,3.95,3.46,0,2.07-3.46,4.84-5.73,6.67,5.68,4,5.97,5.04,5.97,6.22,0,2.17-2.07,4.1-4,4.1-1.33,0-1.43-.1-6.32-4.39-.84-.74-1.33-1.09-1.78-1.43-6.17,4.1-12.25,6.47-13.97,6.47-2.07,0-3.6-2.07-3.6-4.1s1.23-2.52,2.27-2.91c4.64-1.78,6.32-2.52,8.84-3.9-1.09-.64-6.37-3.46-6.91-3.9Z"/><path class="cls-5" d="m191.37,133.53c-1.14,0-4.05,0-4.05-3.7s2.86-3.75,4.05-3.75h10.52c.1-5.23.1-5.43.25-6.02.2-.94.69-2.57,3.7-2.57,4.15,0,4.15,2.37,4.15,4.3,0,.25,0,2.12-.1,4.3h10.96c6.47,0,6.62,4.05,6.62,8.1,0,3.36-.44,15.16-1.63,19.8-1.58,6.07-5.04,7.16-10.67,7.16s-8.79-.2-8.79-4.49c0-2.42,1.18-3.65,3.55-3.65.74,0,4,.35,4.69.35,2.76,0,3.65-.89,4.05-3.65.79-5.18.94-13.63.94-13.83,0-1.48-.15-2.32-1.63-2.32h-8.69c-.44,3.7-1.98,14.86-11.46,23.6-.89.79-2.37,2.07-4,3.06-.4.25-1.63.99-2.81.99-1.88,0-3.9-1.97-3.9-4.15,0-1.73,1.33-2.72,2.62-3.65,4.05-2.96,10.22-7.51,11.65-19.85h-10.02Z"/><path class="cls-5" d="m243.4,143.75c-1.23,0-4.34,0-4.34-4.05s2.62-4.15,4.34-4.15h35.26c1.23,0,4.35,0,4.35,4.05s-2.77,4.15-4.35,4.15h-35.26Z"/><path class="cls-5" d="m305.81,157.67c0,1.43-.1,4.1-4.2,4.1s-4.25-2.52-4.25-4.1v-36.14c0-1.38.1-4.1,4.2-4.1s4.25,2.52,4.25,4.1v8.1c8.94,2.72,16.49,6.47,18.76,7.6,3.21,1.63,4.15,2.57,4.15,4.54,0,2.12-1.48,4.89-4.15,4.89-1.23,0-2.27-.49-3.95-1.53-4.74-2.81-9.63-5.38-14.81-7.21v19.75Zm11.06-36.1c-.15-.44-.15-.84-.15-.94,0-1.43,1.58-1.58,1.93-1.58.94,0,1.43.69,1.97,2.07.69,1.83,1.19,3.75,1.19,4.54,0,1.68-1.68,1.73-1.88,1.73-.54,0-1.18-.15-1.58-1.28-.2-.64-.54-1.73-.74-2.37-.1-.39-.64-1.88-.74-2.17Zm5.68-.89c-.1-.3-.1-.64-.1-.89,0-1.33,1.48-1.58,1.93-1.58.94,0,1.38.64,1.97,2.07.74,1.93,1.23,3.65,1.23,4.49,0,1.73-1.78,1.73-1.93,1.73-1.18,0-1.28-.35-2.27-3.6-.1-.4-.74-1.93-.84-2.22Z"/><path class="cls-5" d="m373.06,120.69c4.69,0,6.76,1.83,6.76,6.76v24.39c0,5.14-2.27,6.76-6.76,6.76h-26.07c-4.64,0-6.76-1.78-6.76-6.76v-24.39c0-5.48,2.67-6.76,6.76-6.76h26.07Zm-23.06,7.26c-1.14,0-1.68.64-1.68,1.68v20.05c0,1.09.54,1.68,1.68,1.68h20.1c1.04,0,1.63-.54,1.63-1.68v-20.05c0-1.18-.69-1.68-1.63-1.68h-20.1Z"/><path class="cls-5" d="m396.21,143.75c-1.23,0-4.34,0-4.34-4.05s2.62-4.15,4.34-4.15h35.26c1.23,0,4.35,0,4.35,4.05s-2.77,4.15-4.35,4.15h-35.26Z"/><path class="cls-5" d="m450.17,119.75c1.33,0,4.69,1.78,6.37,2.67,8.84,4.59,9.53,5.83,9.53,7.7,0,1.63-1.73,4.59-4.1,4.59-.94,0-1.63-.2-3.75-1.68-3.01-2.07-7.11-4.35-9.04-5.38-1.33-.69-2.96-1.53-2.96-3.6,0-1.88,1.43-3.61,3.01-4.15.3-.1.59-.15.94-.15Zm38.22,8.49c0,2.32-3.36,11.8-9.43,18.76-6.57,7.51-14.17,10.12-18.91,11.46-2.77.74-6.72,1.63-8.49,1.63-3.21,0-4-2.86-4-4.59,0-2.96,1.78-3.56,4.4-3.9,12.64-1.63,22.52-6.47,28.24-22.86,1.09-3.16,1.43-4.15,3.65-4.15.3,0,.79,0,1.33.15,1.43.4,3.21,1.23,3.21,3.51Z"/></g><path class="cls-5" d="m606.64,154.96c3.41,0,3.55,2.91,3.55,3.51,0,.35,0,3.6-3.6,3.6h-22.52c-7.26,0-10.02-3.16-11.26-4.54-3.7,4.94-4.69,5.13-5.73,5.13-2.02,0-4.2-2.12-4.2-4.44,0-1.53.79-2.22,2.02-3.21.64-.49,3.41-2.62,3.95-3.06v-10.02c0-.39-.05-.79-.64-.79h-1.63c-1.14,0-3.5-.1-3.5-3.55,0-3.21,1.92-3.6,3.5-3.6h2.86c5.09,0,6.12.89,6.12,6.07v9.38c0,5.53,6.32,5.53,8.99,5.53h22.07Zm-33.87-34.32c.69.69,2.47,2.52,3.11,3.46.35.49.59,1.04.59,1.78,0,2.07-1.83,3.9-3.9,3.9-1.24,0-1.38-.44-4.15-3.16-.25-.2-3.01-2.91-3.6-3.51-.74-.74-1.14-1.33-1.14-2.42,0-1.63,1.58-3.8,3.85-3.8.79,0,1.53,0,5.23,3.75Zm33.23,14.76c.74,0,2.77,0,2.77,2.42s-2.02,2.37-2.77,2.37h-3.6v1.98h4.64c.84,0,2.91.05,2.91,2.57s-1.88,2.57-2.91,2.57h-7.65c.39.15,1.97.74,2.32.84,2.07.59,2.72.74,5.04,1.19,1.97.39,1.97,2.12,1.97,2.42,0,1.53-1.09,3.06-2.91,3.06-1.63,0-4.69-.99-6.07-1.48-3.56-1.28-4.3-1.63-4.3-3.16,0-.99.59-2.37,2.27-2.86h-9.43c1.48.45,2.27,1.73,2.27,2.91s-.54,1.63-2.86,2.62c-1.78.79-4.99,1.78-6.47,1.78-2.57,0-3.36-1.73-3.36-3.16,0-1.83.89-2.02,3.9-2.62,1.83-.35,2.52-.64,4.39-1.33.25-.1.4-.15.59-.2h-7.55c-.79,0-2.96,0-2.96-2.52,0-2.37,1.68-2.62,2.96-2.62h4.15v-1.98h-3.36c-.69,0-2.77,0-2.77-2.32s1.98-2.47,2.77-2.47h3.36c0-.84,0-1.09.2-1.53-5.92,0-6.96,0-6.96-4.64v-1.48c0-3.9.69-4.64,4.64-4.64h3.51c.79,0,.84-.49.84-.74,0-.15,0-.59-.84-.59h-6.27c-.74,0-2.42-.05-2.42-2.22s1.48-2.22,2.42-2.22h8.59c3.26,0,4.64.3,4.64,4.25v1.48c0,3.85-1.28,4.25-4.64,4.25h-3.46c-.59,0-.84.35-.84.84v.74c0,1.04.3,1.04,1.68,1.04,2.07,0,2.07-.05,2.52-.74.64-.99.94-1.48,2.37-1.48,1.09,0,3.06.44,3.06,2.17,0,.79-.44,3.46-2.57,3.9.3.49.35.64.35,1.63h5.48c0-1.04,0-1.09.35-1.63-2.81-.3-3.01-1.83-3.01-4.54v-1.48c0-3.85.69-4.64,4.64-4.64h3.55c.84,0,.84-.44.84-.74,0-.49-.49-.59-.84-.59h-6.47c-.69,0-2.42,0-2.42-2.22s1.48-2.22,2.42-2.22h8.79c3.26,0,4.64.3,4.64,4.25v1.48c0,3.85-1.28,4.25-4.64,4.25h-3.6c-.59,0-.84.35-.84.84v.69c0,1.09.59,1.09,2.57,1.09s2.12,0,2.52-.99c.3-.84.79-1.28,2.02-1.28,1.33,0,3.6.44,3.6,2.32,0,.1-.15,3.26-2.86,3.75-.94.2-4.05.2-4.74.2.15.3.25.74.25,1.48h3.6Zm-10.37,4.79h-5.48v1.98h5.48v-1.98Z"/><text class="cls-4" transform="translate(497.34 168.97)"><tspan x="0" y="0">4</tspan></text><polygon class="cls-3" points="344 106 360.95 90 328.05 90 344 106"/><g><path class="cls-6" d="m29.43,39.33c-.18.07-.33.23-.39.42l-1.23,3.64c-.07.19-.05.41.05.59.1.18.27.3.46.34l10.95,1.98c.32.06.63-.14.74-.46.03-.1.04-.2.03-.3-.02-.22-.14-.43-.34-.54l-9.72-5.62c-.17-.1-.37-.11-.56-.04Z"/><path class="cls-6" d="m27.32,52l.86,3.75c.05.2.17.37.35.46.18.09.38.1.56.02l10.2-4.62c.27-.12.43-.41.4-.71,0-.03,0-.06-.02-.09-.08-.33-.37-.56-.7-.53l-11.06.87c-.19.02-.37.12-.49.28-.12.17-.15.38-.11.58Z"/><path class="cls-6" d="m36.04,30.15l-2.89,2.39c-.15.13-.25.32-.25.53,0,.21.07.4.22.54l8.25,7.81c.24.23.6.24.86.03.18-.15.27-.39.25-.62,0-.09-.04-.18-.08-.26l-5.36-10.2c-.09-.18-.26-.31-.45-.35-.19-.04-.39,0-.54.14Z"/></g><rect class="cls-1" width="677" height="186.5"/></g></g></svg>