<svg width="24" height="25" viewBox="0 0 24 25" fill="none" xmlns="http://www.w3.org/2000/svg">
<path d="M16.6154 10.6538C16.6154 8.875 15.9832 7.35337 14.7188 6.08894C13.4543 4.82452 11.9327 4.19231 10.1538 4.19231C8.375 4.19231 6.85337 4.82452 5.58894 6.08894C4.32452 7.35337 3.69231 8.875 3.69231 10.6538C3.69231 12.4327 4.32452 13.9543 5.58894 15.2188C6.85337 16.4832 8.375 17.1154 10.1538 17.1154C11.9327 17.1154 13.4543 16.4832 14.7188 15.2188C15.9832 13.9543 16.6154 12.4327 16.6154 10.6538ZM24 22.6538C24 23.1538 23.8173 23.5865 23.4519 23.9519C23.0865 24.3173 22.6538 24.5 22.1538 24.5C21.6346 24.5 21.2019 24.3173 20.8558 23.9519L15.9087 19.0192C14.1875 20.2115 12.2692 20.8077 10.1538 20.8077C8.77885 20.8077 7.46394 20.5409 6.20913 20.0072C4.95433 19.4736 3.8726 18.7524 2.96394 17.8438C2.05529 16.9351 1.33413 15.8534 0.800481 14.5986C0.266827 13.3438 0 12.0288 0 10.6538C0 9.27885 0.266827 7.96394 0.800481 6.70913C1.33413 5.45433 2.05529 4.3726 2.96394 3.46394C3.8726 2.55529 4.95433 1.83413 6.20913 1.30048C7.46394 0.766827 8.77885 0.5 10.1538 0.5C11.5288 0.5 12.8438 0.766827 14.0986 1.30048C15.3534 1.83413 16.4351 2.55529 17.3438 3.46394C18.2524 4.3726 18.9736 5.45433 19.5072 6.70913C20.0409 7.96394 20.3077 9.27885 20.3077 10.6538C20.3077 12.7692 19.7115 14.6875 18.5192 16.4087L23.4663 21.3558C23.8221 21.7115 24 22.1442 24 22.6538Z" fill="#FFEE53"/>
</svg>
