<svg width="19" height="20" fill="none" xmlns="http://www.w3.org/2000/svg"><g clip-path="url(#a)"><path d="M6.622 9.797H3.7v1.53h2.92v-1.53Z" fill="#FFF3BD"/><path opacity=".2" d="M6.622 10.228v-.43H3.7v.603c.338.058.715.091 1.113.091.7 0 1.335-.101 1.808-.264Z" fill="#999"/><path d="M7.598 4.612H6.533a.205.205 0 1 1 0-.412h1.065a.205.205 0 1 1 0 .412Z" fill="#000"/><path d="M13.715 8.963a4.45 4.45 0 1 0 0-8.902 4.45 4.45 0 0 0 0 8.902Z" fill="#F9C63F"/><path opacity=".8" d="M13.715 8.406a3.894 3.894 0 1 0 0-7.788 3.894 3.894 0 0 0 0 7.788Z" fill="#FFF3BD"/><path opacity=".5" d="M13.715 7.572a3.06 3.06 0 1 0 0-6.12 3.06 3.06 0 0 0 0 6.12Z" fill="#fff"/><path d="M11.211 4.448c0 .114-.046.206-.103.206h-.535c-.057 0-.103-.092-.103-.206 0-.114.046-.206.103-.206h.535c.057 0 .103.092.103.206Zm2.439 2.568c.115 0 .207.045.207.102v.536c0 .057-.092.103-.206.103-.114 0-.206-.046-.206-.103v-.536c0-.057.092-.103.206-.103Zm2.568-2.44c0-.114.046-.206.103-.206h.536c.057 0 .103.092.103.206 0 .114-.046.206-.103.206h-.536c-.057 0-.103-.092-.103-.206Zm-2.441-2.567c-.114 0-.205-.046-.205-.103V1.37c0-.057.091-.103.206-.103.114 0 .205.046.205.103v.536c0 .057-.091.103-.206.103Z" fill="#F15A24"/><path d="M8.344 5.534a3.332 3.332 0 1 0-6.665 0v1.231a3.332 3.332 0 0 0 6.665 0v-1.23ZM3.48 11.329h3.192c1.92 0 3.48 1.559 3.48 3.48v4.21H0v-4.21c0-1.921 1.56-3.48 3.48-3.48Z" fill="#FFF3BD"/><path d="M3.71 6.541a.39.39 0 1 0 0-.781.39.39 0 0 0 0 .781Zm2.602 0a.39.39 0 1 0 0-.781.39.39 0 0 0 0 .781Zm7.403-1.751a.278.278 0 1 0 0-.556.278.278 0 0 0 0 .556ZM5.011 8.615c-.645 0-1.113-.263-1.113-.626a.208.208 0 1 1 .418 0c.016.061.272.209.695.209.423 0 .679-.148.696-.212 0-.115.093-.207.208-.207a.21.21 0 0 1 .209.21c0 .363-.468.626-1.113.626Z" fill="#F15A24"/><path d="M7.453 11.418c-.032.413-1.014.744-2.222.744-1.209 0-2.225-.343-2.225-.765 0-.013.004-.024.005-.037A3.48 3.48 0 0 0 0 14.809v4.21h10.15v-4.21a3.481 3.481 0 0 0-2.698-3.39h.001Z" fill="#F9C63F"/><path d="M9.716 19.422c-1 0-1.773-.329-2.28-.984-.428-.571-.64-1.31-.64-2.235 0-.925.212-1.655.627-2.243.48-.715 1.253-1.067 2.293-1.067 1.04 0 1.788.353 2.295 1.067.427.596.654 1.353.654 2.26 0 .907-.227 1.655-.654 2.227-.534.646-1.307.975-2.295.975Zm1.094-4.774c-.28-.386-.654-.588-1.094-.588-.44 0-.827.202-1.08.58-.267.378-.387.898-.387 1.555 0 .656.12 1.168.387 1.546.267.387.627.572 1.08.572.454 0 .814-.185 1.094-.563.266-.387.386-.899.386-1.538 0-.64-.12-1.152-.386-1.564Zm7.482 4.774c-.174 0-.36-.059-.547-.177l-2.667-2.31v1.898c0 .387-.227.589-.68.589-.454 0-.694-.202-.694-.589v-5.37c0-.428.226-.638.694-.638.467 0 .68.21.68.638v1.429l2.455-1.882a.79.79 0 0 1 .52-.185c.48 0 .72.193.72.588 0 .16-.079.302-.253.429l-2.774 2.016 3.054 2.564c.133.134.2.276.2.428a.75.75 0 0 1-.134.403c-.2.11-.386.169-.572.169h-.002ZM4.958.672a3.33 3.33 0 0 0-3.023 1.933L.775 3.678l.788.947-.537 1.082 1.233-.904 2.7-1.849L8.29 5.235v-1.23A3.333 3.333 0 0 0 4.958.671Z" fill="#F15A24"/></g><defs><clipPath id="a"><path fill="#fff" transform="translate(0 .061)" d="M0 0h19v19.36H0z"/></clipPath></defs></svg>