<svg width="20" height="20" fill="none" xmlns="http://www.w3.org/2000/svg"><g clip-path="url(#a)"><path d="M16.892 6.142H0v13.514h16.892V6.142Z" fill="#FFF3BD"/><path d="M3.031 7.52a.547.547 0 0 1-.547-.546V4.532a.547.547 0 1 1 1.094 0v2.442a.547.547 0 0 1-.547.547Zm3.622.043a.547.547 0 0 1-.548-.548V4.574a.547.547 0 1 1 1.095 0v2.441a.547.547 0 0 1-.547.548Zm3.62.042a.547.547 0 0 1-.547-.548V4.615a.547.547 0 1 1 1.094 0v2.442a.547.547 0 0 1-.547.548Zm3.62.042a.547.547 0 0 1-.547-.548V4.657a.547.547 0 1 1 1.095 0V7.1a.547.547 0 0 1-.548.548Z" fill="#1A1A1A"/><path d="M15.62 9.197H1.305a.202.202 0 1 1 0-.406H15.62a.202.202 0 1 1 0 .406Z" fill="#F7931E"/><path d="M2.893 10.384h-.986a.56.56 0 0 0-.56.56v.986c0 .31.25.56.56.56h.986a.56.56 0 0 0 .56-.56v-.986a.56.56 0 0 0-.56-.56Zm3.031 0h-.986a.56.56 0 0 0-.56.56v.986c0 .31.25.56.56.56h.986a.56.56 0 0 0 .56-.56v-.986a.56.56 0 0 0-.56-.56Zm3.033 0H7.97a.56.56 0 0 0-.56.56v.986c0 .31.251.56.56.56h.987a.56.56 0 0 0 .56-.56v-.986a.56.56 0 0 0-.56-.56Zm3.031 0H11a.56.56 0 0 0-.56.56v.986c0 .31.251.56.56.56h.987a.56.56 0 0 0 .56-.56v-.986a.56.56 0 0 0-.56-.56Zm3.031 0h-.987a.56.56 0 0 0-.559.56v.986c0 .31.25.56.56.56h.986a.56.56 0 0 0 .56-.56v-.986a.56.56 0 0 0-.56-.56ZM2.935 13.415H1.95a.56.56 0 0 0-.56.56v.986c0 .31.25.56.56.56h.986a.56.56 0 0 0 .56-.56v-.986a.56.56 0 0 0-.56-.56Zm3.031 0H4.98a.56.56 0 0 0-.56.56v.986c0 .31.25.56.56.56h.986a.56.56 0 0 0 .56-.56v-.986a.56.56 0 0 0-.56-.56Zm3.033 0h-.987a.56.56 0 0 0-.56.56v.986c0 .31.251.56.56.56H9a.56.56 0 0 0 .56-.56v-.986a.56.56 0 0 0-.56-.56Zm3.031 0h-.987a.56.56 0 0 0-.56.56v.986c0 .31.251.56.56.56h.987a.56.56 0 0 0 .56-.56v-.986a.56.56 0 0 0-.56-.56Zm3.03 0h-.986a.56.56 0 0 0-.56.56v.986c0 .31.251.56.56.56h.987a.56.56 0 0 0 .56-.56v-.986a.56.56 0 0 0-.56-.56Z" fill="#F15A24"/><path d="M15.405 9.25a4.595 4.595 0 1 0 0-9.189 4.595 4.595 0 0 0 0 9.19Z" fill="#F9C63F"/><path opacity=".2" d="M15.405 8.575a3.919 3.919 0 1 0 0-7.838 3.919 3.919 0 0 0 0 7.838Z" fill="#FFF3BD"/><path opacity=".2" d="M15.405 8.17a3.513 3.513 0 1 0 0-7.027 3.513 3.513 0 0 0 0 7.026Z" fill="#fff"/><path d="M18.803 4.038a.199.199 0 0 0-.283 0l-1.152 1.153a.172.172 0 0 0-.076 0l-1.153-1.153a.199.199 0 0 0-.282 0 .199.199 0 0 0 0 .283l1.124 1.124h-.763a.2.2 0 1 0 0 .4h.913v.4h-.913a.2.2 0 1 0 0 .4h.913v.57a.2.2 0 1 0 .4 0v-.57h.914a.2.2 0 1 0 0-.4h-.914v-.4h.914a.2.2 0 1 0 0-.4h-.764l1.124-1.124a.199.199 0 0 0 0-.283h-.002Zm-3.718 2.996c-.29.384-.666.575-1.11.575-.491 0-.897-.207-1.203-.637-.284-.43-.43-1.225-.43-2.384 0-.827.077-1.471.23-1.945.267-.759.735-1.127 1.402-1.127.476 0 .85.198 1.157.597.314.375.46 1.203.46 2.475 0 1.18-.17 2-.506 2.445v.001Zm-.643-4.191c-.13-.184-.284-.284-.468-.284-.292 0-.482.215-.582.636-.084.307-.123.775-.123 1.395s.038 1.096.123 1.41c.1.42.29.636.582.636.146 0 .276-.1.39-.299.193-.344.293-.935.293-1.747 0-.943-.077-1.526-.215-1.747Z" fill="#F15A24"/><path d="M16.892 16.953H0v2.703h16.892v-2.703Z" fill="#F9C63F"/></g><defs><clipPath id="a"><path fill="#fff" transform="translate(0 .061)" d="M0 0h20v19.595H0z"/></clipPath></defs></svg>