<svg width="20" height="21" fill="none" xmlns="http://www.w3.org/2000/svg"><g clip-path="url(#a)"><path d="M15.246 19.686H4.191V3.587l12.64.133v14.37" fill="#B3B3B3"/><path d="M15.246 20.152H3.726V3.116l13.57.143v14.83a.466.466 0 0 1-.93 0V4.18l-11.71-.124v15.162h10.59a.466.466 0 0 1 0 .931v.002Z" fill="#B3B3B3"/><path d="M13.571.061H0V16.96h13.571V.06Z" fill="#F9C63F"/><path d="M13.571.061H0V16.96h13.571V.06Z" fill="#F9C63F"/><path opacity=".1" d="M13.571.061H6.786V16.96h6.785V.06Z" fill="#F15A24"/><path d="M10.444 4.053h-7.45a.466.466 0 0 1 0-.931h7.45a.466.466 0 0 1 0 .93Z" fill="#F7931E"/><path d="M10.444 6.448h-7.45a.466.466 0 0 1 0-.932h7.45a.466.466 0 0 1 0 .932Z" fill="#FFF3BD"/><path d="M10.444 8.843h-7.45a.466.466 0 0 1 0-.932h7.45a.466.466 0 0 1 0 .932Z" fill="#F7931E"/><path d="M10.444 11.238h-7.45a.466.466 0 0 1 0-.932h7.45a.466.466 0 0 1 0 .932Z" fill="#FFF3BD"/></g><defs><clipPath id="a"><path fill="#fff" transform="translate(0 .061)" d="M0 0h20v20.09H0z"/></clipPath></defs></svg>