<svg width="20" height="21" fill="none" xmlns="http://www.w3.org/2000/svg"><g clip-path="url(#a)"><path d="M15.082.258a.672.672 0 0 0-.95.95l1.92 1.92.95-.95-1.92-1.92Zm2.869 2.869-.95.95 1.786 1.785a.675.675 0 0 0 .951 0 .672.672 0 0 0 0-.95l-1.785-1.785h-.002Z" fill="#ED1C24"/><path d="M14.199 4.98a.672.672 0 0 0 .951.95l1.853-1.853-.95-.95L14.2 4.98Zm5.605-3.704a.672.672 0 0 0-.95-.95L17.001 2.18l.95.95 1.853-1.853Z" fill="#ED1C24"/><path d="m17.002 2.177-.95.95.95.95.95-.95-.95-.95Z" fill="#ED1C24"/><path d="M4.38 4.304A2.897 2.897 0 0 1 7.273 1.41a2.897 2.897 0 0 1 2.894 2.894v1.922c.47.205.914.457 1.325.751V4.304A4.222 4.222 0 0 0 7.273.084a4.224 4.224 0 0 0-4.22 4.22v2.673a7.303 7.303 0 0 1 1.325-.75V4.303h.002Z" fill="#F7931E"/><path d="M7.273 6.347c1.043 0 2.025.25 2.894.692v-.813a7.238 7.238 0 0 0-2.894-.6 7.241 7.241 0 0 0-2.893.6v.813a6.367 6.367 0 0 1 2.893-.692Z" fill="#F7931E"/><path d="M7.273 20.174a7.274 7.274 0 0 0 4.22-13.196v.528h-.55A6.404 6.404 0 1 1 .869 12.752a6.397 6.397 0 0 1 2.735-5.248h-.55v-.528a7.274 7.274 0 0 0 4.22 13.197v.001Z" fill="#F7931E"/><path d="M3.604 7.504c.246-.172.506-.328.776-.465v-.812c-.47.204-.914.456-1.325.75v.529h.55v-.002Zm6.563-.464c.27.136.53.292.775.464h.55v-.528a7.302 7.302 0 0 0-1.325-.75v.812Z" fill="#F7931E"/><path d="M10.167 7.04a6.366 6.366 0 0 0-2.894-.693c-1.04 0-2.024.25-2.893.692v.465h-.776a6.404 6.404 0 1 0 7.34 0h-.774V7.04h-.003Zm2.746 5.776a5.641 5.641 0 0 1-5.64 5.641l-.116-.002a5.64 5.64 0 0 1 0-11.276c.04 0 .077-.003.116-.003a5.641 5.641 0 0 1 5.642 5.642l-.002-.002Z" fill="#FFF3BD"/><path d="M4.38 7.04c-.27.136-.53.292-.776.464h.776V7.04Zm5.787.464h.775a6.43 6.43 0 0 0-.775-.465v.465Z" fill="#FFF3BD"/><path d="m5.476 16.148 1.26-2.843a1.94 1.94 0 0 1 .422-3.815V7.18a5.64 5.64 0 0 0 0 11.276v-2.307H5.475v-.001Z" fill="#F9C63F"/><path d="M7.158 7.18v2.31c.025 0 .05-.004.075-.004a1.943 1.943 0 0 1 .66 3.768l1.283 2.894H7.158v2.307l.115.002a5.641 5.641 0 0 0 0-11.282c-.038 0-.076.003-.115.003v.001Z" fill="#EAAA28"/><path d="M5.29 11.428c0 .902.614 1.657 1.446 1.877l-1.26 2.843h1.683V9.49a1.941 1.941 0 0 0-1.867 1.938H5.29Z" fill="#FFF3BD"/><path d="m9.176 16.148-1.283-2.894a1.94 1.94 0 0 0-.66-3.768.942.942 0 0 0-.075.004v6.658h2.018Z" fill="#FFF3BD"/></g><defs><clipPath id="a"><path fill="#fff" transform="translate(0 .061)" d="M0 0h20v20.113H0z"/></clipPath></defs></svg>