<svg width="20" height="21" fill="none" xmlns="http://www.w3.org/2000/svg"><g clip-path="url(#a)"><path d="M10 20.06c5.522 0 9.999-4.477 9.999-10 0-5.522-4.477-9.999-10-9.999C4.477.061 0 4.538 0 10.061c0 5.522 4.477 9.999 10 9.999Z" fill="#F9C63F"/><path opacity=".2" d="M10 19.242A9.182 9.182 0 1 0 10 .88a9.182 9.182 0 0 0 0 18.363Z" fill="#fff"/><path d="M10.047 17.233a7.19 7.19 0 1 0 0-14.378 7.19 7.19 0 0 0 0 14.378Z" fill="#FFF3BD"/><path d="M10.081 10.487a.477.477 0 0 1-.477-.477V4.286a.478.478 0 0 1 .954 0v5.724a.477.477 0 0 1-.477.477Z" fill="#F15A24"/><path d="M10.082 10.487a.477.477 0 0 1-.263-.875l3.916-2.59a.477.477 0 0 1 .526.797l-3.915 2.59a.475.475 0 0 1-.264.078Z" fill="#F15A24"/><path d="M11.103 9.942a1.09 1.09 0 1 0-2.18 0 1.09 1.09 0 0 0 2.18 0Z" fill="#FCE021"/><path d="M10.013 11.373a1.433 1.433 0 0 1-1.431-1.43c0-.79.642-1.432 1.43-1.432a1.432 1.432 0 0 1 .001 2.862Zm0-2.18a.75.75 0 0 0-.75.75.75.75 0 0 0 1.5 0 .75.75 0 0 0-.75-.75Z" fill="#FBB03B"/><path d="M10.354 14.746a.17.17 0 0 0-.341 0v1.431a.17.17 0 0 0 .34 0v-1.43Zm4.463-5.145a.17.17 0 1 0 0 .341h1.431a.17.17 0 1 0 0-.34h-1.431Zm-9.608.682a.17.17 0 0 0 0-.34H3.778a.17.17 0 1 0 0 .34h1.43Z" fill="#1A1A1A"/><path d="M4.065 16.367a.205.205 0 0 1-.141-.058 8.643 8.643 0 0 1-2.672-6.278c0-2.39.905-4.517 2.552-6.162a.204.204 0 0 1 .289.289 8.25 8.25 0 0 0-2.433 5.873c0 2.218.905 4.403 2.546 5.984a.203.203 0 0 1 .005.289.201.201 0 0 1-.147.063h.001Z" fill="#fff"/></g><defs><clipPath id="a"><path fill="#fff" transform="translate(0 .061)" d="M0 0h20v20H0z"/></clipPath></defs></svg>