<svg width="20" height="22" fill="none" xmlns="http://www.w3.org/2000/svg"><g clip-path="url(#a)"><path d="M14.725 9.888c2.913 0 5.275-2.2 5.275-4.913C20 2.26 17.638.06 14.725.06c-2.913 0-5.275 2.2-5.275 4.914 0 2.713 2.362 4.913 5.275 4.913Z" fill="#F9C63F"/><path opacity=".4" d="M14.725 9.206c2.51 0 4.543-1.895 4.543-4.231 0-2.337-2.034-4.231-4.543-4.231-2.509 0-4.543 1.894-4.543 4.23 0 2.337 2.034 4.232 4.543 4.232Z" fill="#FFF3BD"/><path opacity=".4" d="M14.725 8.661c2.186 0 3.957-1.65 3.957-3.686s-1.771-3.687-3.957-3.687c-2.185 0-3.957 1.65-3.957 3.687 0 2.036 1.772 3.686 3.957 3.686Z" fill="#fff"/><path d="M6.27.3H2.985c-.217 0-.39.164-.39.365v9.514c0 .202-.176.365-.392.365H.393c-.342 0-.519.376-.29.61l5.624 5.733a.412.412 0 0 0 .579 0l5.623-5.733c.23-.234.051-.61-.289-.61H9.718c-.216 0-.39-.164-.39-.365V3.517" fill="#FFF3BD"/><path d="M10.377 4.922H7.092c-.217 0-.391.164-.391.365v9.516c0 .202-.176.364-.391.364H4.5c-.34 0-.518.377-.288.61l5.623 5.734a.412.412 0 0 0 .579 0l5.623-5.733c.23-.235.051-.61-.288-.61h-1.923c-.216 0-.39-.165-.39-.365V8.138" fill="#F9C63F"/><path d="M13.834 4.013c0 .973-.484 1.46-1.448 1.46-.965 0-1.448-.487-1.448-1.46 0-.974.483-1.467 1.448-1.467.964 0 1.448.489 1.448 1.467Zm-.784 0c0-.615-.22-.922-.664-.922-.444 0-.674.307-.674.922s.224.922.674.922c.45 0 .664-.307.664-.922Zm4.085-1.14a.31.31 0 0 1-.073.203l-4.28 4.901a.473.473 0 0 1-.377.16.491.491 0 0 1-.318-.108c-.09-.074-.133-.157-.133-.255 0-.073.028-.14.083-.204l4.28-4.901a.46.46 0 0 1 .369-.152c.122 0 .228.035.317.105a.31.31 0 0 1 .133.25h-.001Zm1.014 3.784c0 .978-.486 1.467-1.456 1.467s-1.44-.49-1.44-1.467c0-.978.48-1.46 1.44-1.46.959 0 1.456.486 1.456 1.46Zm-.783 0c0-.615-.224-.922-.673-.922-.45 0-.655.307-.655.922s.218.93.655.93c.436 0 .673-.31.673-.93Z" fill="#F15A24"/></g><defs><clipPath id="a"><path fill="#fff" transform="translate(0 .061)" d="M0 0h20v21.568H0z"/></clipPath></defs></svg>