<svg width="18" height="21" fill="none" xmlns="http://www.w3.org/2000/svg"><g clip-path="url(#a)"><path d="M9.024 20.578v-.028L9 20.563l.024.015Zm-.048-.028V4.599L9 4.584 1.64.21C.9-.228 0 .355 0 1.276v13.218c0 .444.222.854.579 1.065l8.397 4.99Z" fill="#FFF3BD"/><path d="M9.024 13.01 18 8.229V1.276c0-.919-.9-1.504-1.64-1.065L9 4.584l.024.015v8.41Z" fill="#F9C63F"/><path d="m8.976 13.035.048-.026V4.6L9 4.584l-.024.015v8.436Z" fill="#F9C63F"/><path d="M8.976 20.578 9 20.563l-.024-.013v.028Zm.048-.028 8.397-4.99c.357-.21.579-.62.579-1.064V8.227l-8.976 4.78v7.543Z" fill="#FBB03B"/><path d="M8.976 13.035v7.515l.024.013.024-.013v-7.54l-.048.025Z" fill="#FBB03B"/></g><defs><clipPath id="a"><path fill="#fff" transform="translate(0 .061)" d="M0 0h18v20.517H0z"/></clipPath></defs></svg>