<svg width="18" height="21" fill="none" xmlns="http://www.w3.org/2000/svg"><g clip-path="url(#a)"><path d="M10.512.061H7.349a.663.663 0 1 0 0 1.327h3.163a.663.663 0 0 0 0-1.327Z" fill="#F15A24"/><path d="M.929 11.366c0 1.932.683 3.707 1.818 5.097l3.624-3.624v-.079h-.476v-1.432h.476v1.433h.079l1.909-1.91h-.404V9.425H6.371v1.428h-.476V9.424h.476v-.476h1.584v.476h.477v1.355l5.667-5.667a8.032 8.032 0 0 0-5.097-1.82C4.552 3.293.93 6.915.93 11.366l-.001.001Zm4.438 1.395h-.476v.476H3.307v-.476h-.476v-1.433h.476v1.433h1.584v-1.433h.476v1.433Zm0-1.91h-.476V9.425H3.307v1.428h-.476V9.424h.476v-.476h1.584v.476h.476v1.428Z" fill="#FFF3BD"/><path d="M15.847 15.644a8.053 8.053 0 0 0 1.226-4.278 8.058 8.058 0 0 0-2.976-6.253L8.43 10.78v.072h-.07l-1.91 1.909h1.505v-1.433h.476v1.433h-.476v.476H6.37v-.397l-3.624 3.624a8.058 8.058 0 0 0 9.896 2.106l-.463-.973 1.924.38a8.374 8.374 0 0 0 1.747-1.834.464.464 0 0 1-.006-.499h.003Zm-2.558-6.218h.477v-.477h1.584v.477h.476v1.427h-.476V9.426h-1.584v1.427h-.477V9.426Zm-3.697 3.876h-.528v-.528h.528v.528Zm0-1.725h-.528v-.528h.528v.528Zm3.17 1.185h-.477v.476h-1.584v-.476h-.476v-1.433h.476v1.433h1.584v-1.433h.476v1.433Zm0-1.91h-.477V9.427h-1.584v1.427h-.476V9.426h.476v-.477h1.584v.477h.476v1.427Zm2.586 2.385h-1.584v-.476h-.476v-1.433h.476v1.433h1.584v-1.433h.476v1.433h-.476v.476Z" fill="#F9C63F"/><path d="M3.308 11.328h-.476v1.432h.476v-1.432Zm0-1.902h-.476v1.427h.476V9.426Zm2.059 1.902h-.476v1.432h.476v-1.432Zm0-1.902h-.476v1.427h.476V9.426ZM4.115 8.95h-.807v.476h1.583v-.477h-.776Zm-.031 3.81h-.776v.477h1.583v-.476h-.806Zm2.287-1.432h-.476v1.432h.476v-1.432Zm0-1.902h-.476v1.427h.476V9.426Zm2.059 1.902h-.476v1.432h.476v-1.432Zm-.476-1.902v1.426h.403l.073-.072V9.426h-.476Z" fill="#F15A24"/><path d="M8.43 10.851v-.071l-.073.072h.073ZM7.178 8.95H6.37v.476h1.584v-.477h-.776Zm-.808 3.889.08-.079h-.08v.079Zm0 .398h1.584v-.476H6.45l-.08.078v.398Zm4.331-1.909h-.476v1.432h.476v-1.432Zm0-1.902h-.476v1.427h.476V9.426Zm2.06 1.902h-.476v1.432h.476v-1.432Zm0-1.902h-.476v1.427h.476V9.426Zm-1.253-.476H10.7v.476h1.584v-.477h-.777Zm-.031 3.81h-.776v.477h1.584v-.476h-.807Zm2.287-1.432h-.476v1.432h.476v-1.432Zm0-1.902h-.476v1.427h.476V9.426Zm2.06 1.902h-.476v1.432h.476v-1.432Zm0-1.902h-.476v1.427h.476V9.426Zm-1.254 0h.778v-.477h-1.584v.477h.806Zm-.03 3.334h-.776v.477h1.584v-.476h-.807Zm-4.949.013h-.528v.527h.528v-.527Zm0-1.725h-.528v.528h.528v-.528Z" fill="#F15A24"/><path d="M9.657 2.392V1.388H8.463v.996a8.901 8.901 0 0 1 1.194.009Z" fill="#FBB03B"/><path d="M9 20.367a9.03 9.03 0 0 0 4.043-.958l-.279-.585a8.32 8.32 0 0 1-3.763.897 8.337 8.337 0 0 1-6.457-3.054A8.353 8.353 0 0 1 14.3 4.911a8.337 8.337 0 0 1 3.054 6.457 8.314 8.314 0 0 1-1.502 4.777.463.463 0 0 0 .781-.005A8.979 8.979 0 0 0 18 11.368c0-4.741-3.687-8.636-8.344-8.974v.19H8.462v-.198C3.75 2.663 0 6.584 0 11.367c0 4.781 4.038 9 9 9Z" fill="#F7931E"/><path d="M.929 11.366C.929 6.916 4.55 3.294 9 3.294c1.931 0 3.706.683 5.096 1.819l.203-.203A8.353 8.353 0 0 0 2.544 16.666l.203-.203A8.033 8.033 0 0 1 .93 11.366ZM14.3 4.91l-.203.203a8.058 8.058 0 0 1 2.976 6.253 8.045 8.045 0 0 1-1.226 4.278c-.1.158-.09.352.005.5a8.311 8.311 0 0 0 1.502-4.778A8.337 8.337 0 0 0 14.3 4.91Z" fill="#F7931E"/><path d="M9 19.438a8.058 8.058 0 0 1-6.253-2.975l-.203.203a8.337 8.337 0 0 0 6.457 3.054 8.32 8.32 0 0 0 3.763-.897l-.12-.255a8.09 8.09 0 0 1-3.643.87Zm.657-16.856v-.19a8.963 8.963 0 0 0-.656-.026c-.18 0-.36.006-.538.017v.197h1.194v.002Zm3.717 16.131a.465.465 0 0 1-.195.627l-.136.07.358.751 1.114-2.102-.41-.081a8.3 8.3 0 0 1-.86.583.47.47 0 0 1 .13.153v-.001Z" fill="#F7931E"/><path d="m12.643 18.568.105-.05a.465.465 0 0 1 .498.042c.298-.176.586-.371.86-.584l-1.924-.38.463.972h-.002Z" fill="#F7931E"/><path d="M13.374 18.713a.472.472 0 0 0-.13-.153 7.98 7.98 0 0 1-.48.263l.279.585c.045-.023.091-.045.136-.07a.463.463 0 0 0 .195-.627v.002Z" fill="#F7931E"/><path d="M12.748 18.518c-.034.018-.07.033-.105.05l.121.255c.163-.082.324-.17.48-.263a.462.462 0 0 0-.497-.042h.001Z" fill="#F7931E"/></g><defs><clipPath id="a"><path fill="#fff" transform="translate(0 .061)" d="M0 0h18v20.305H0z"/></clipPath></defs></svg>