<svg width="20" height="20" fill="none" xmlns="http://www.w3.org/2000/svg"><g clip-path="url(#a)"><path d="M20 6.276 10.451.233a1.116 1.116 0 0 0-1.19 0L0 6.095v.86h20v-.679Z" fill="#F9C63F"/><path opacity=".2" d="M20 6.954v-.677L10.451.234a1.105 1.105 0 0 0-.59-.173v6.893H20Z" fill="#F7931E"/><path d="M18.363 8.084H1.637a.486.486 0 0 0-.486.486v.02c0 .269.218.487.486.487h16.726a.486.486 0 0 0 .486-.486V8.57a.486.486 0 0 0-.486-.486Zm0 6.398H1.637a.486.486 0 0 0-.486.486v.021c0 .269.218.486.486.486h16.726a.486.486 0 0 0 .486-.486v-.02a.486.486 0 0 0-.486-.487Z" fill="#F15A24"/><path d="M19.514 16.606H.486a.486.486 0 0 0-.486.486v1.867c0 .268.218.486.486.486h19.028a.486.486 0 0 0 .486-.486v-1.867a.486.486 0 0 0-.486-.486Z" fill="#F9C63F"/><path d="M2.267 13.985c-.402 0-.554.006-.782.015.032-.223.041-.401.041-.765v-2.85c0-.276-.01-.5-.041-.75.27.015.343.015.776.015h1.383c.856 0 1.357.407 1.357 1.095 0 .318-.105.568-.305.744-.117.099-.211.152-.428.23.258.056.396.119.549.25.226.198.343.479.343.823 0 .75-.54 1.193-1.457 1.193H2.267Zm1.225-2.661c.279 0 .454-.161.454-.417 0-.255-.164-.401-.465-.401h-.918v.818h.929Zm-.93 1.803h.971c.334 0 .534-.182.534-.49 0-.309-.2-.48-.54-.48h-.966v.97h.002Zm6.126.858a4.079 4.079 0 0 0-.127-.563l-.143-.443H6.914l-.143.444a2.97 2.97 0 0 0-.132.562H5.403c.079-.156.126-.28.254-.636l1.14-3.136c.095-.256.143-.411.17-.563h1.377c.038.152.074.286.18.563l1.145 3.136c.1.276.185.49.253.636H8.686h.002Zm-1.03-3.443-.491 1.562h.993l-.502-1.562Zm5.153 1.238c.153.224.254.391.38.62a8.583 8.583 0 0 1-.031-.77v-1.188a5.77 5.77 0 0 0-.042-.792h1.125a5.55 5.55 0 0 0-.042.792v2.765c0 .318.016.557.042.777h-1.157a5.497 5.497 0 0 0-.396-.662l-.976-1.452a6.15 6.15 0 0 1-.38-.64c.026.234.037.52.037.776v1.166c0 .36.011.59.041.813h-1.125c.032-.203.042-.432.042-.818v-2.74c0-.302-.01-.536-.042-.777h1.146c.053.14.17.349.375.652l1.003 1.479Zm5.697 1.434c.312.459.38.553.56.771h-1.372a6.045 6.045 0 0 0-.364-.661l-.818-1.292-.533.527v.655c0 .324.01.495.041.771h-1.12a5.77 5.77 0 0 0 .043-.77v-2.792c0-.319-.012-.521-.042-.771h1.12c-.033.27-.042.443-.042.77v.923l1.051-1.11c.206-.214.343-.39.46-.583h1.425c-.095.093-.132.136-.206.208l-.37.365-1.104 1.14 1.273 1.85h-.002Z" fill="#F15A24"/><path d="M10 5.695a1.667 1.667 0 1 0 0-3.334 1.667 1.667 0 0 0 0 3.334Z" fill="#FFF3BD"/><path opacity=".2" d="M4.861 16.528H2.778v2.917H4.86v-2.917Zm4.167 0H6.944v2.917h2.084v-2.917Zm4.166 0h-2.083v2.917h2.083v-2.917Zm4.167 0h-2.083v2.917h2.083v-2.917Z" fill="#FFF3BD"/></g><defs><clipPath id="a"><path fill="#fff" transform="translate(0 .061)" d="M0 0h20v19.383H0z"/></clipPath></defs></svg>