<svg width="19" height="21" fill="none" xmlns="http://www.w3.org/2000/svg"><g clip-path="url(#a)"><path d="M17.27 8.473v11.391H1.73V8.473" fill="#FFF3BD"/><path opacity=".1" d="M17.358 15.758H1.728v3.974h15.63v-3.974Z" fill="#F15A24"/><g opacity=".1" fill="gray"><path opacity=".1" d="M.005 9.267h3.177v.134a1.589 1.589 0 0 1-3.177 0v-.134Z"/><path opacity=".1" d="M3.064 9.267H6.24v.134a1.589 1.589 0 0 1-3.176 0v-.134Zm3.176 0h3.177v.134a1.588 1.588 0 0 1-3.177 0v-.134Zm3.178 0h3.176v.134a1.589 1.589 0 0 1-3.176 0v-.134Zm3.176 0h3.177v.134a1.588 1.588 0 0 1-3.177 0v-.134Z"/><path opacity=".1" d="M15.77 9.267h3.177v.134a1.588 1.588 0 0 1-3.176 0v-.134Z"/></g><path d="M.005 8.738h3.177v.133a1.588 1.588 0 0 1-3.177 0v-.133Z" fill="#F15A24"/><path d="M3.064 8.738H6.24v.133a1.588 1.588 0 0 1-3.176 0v-.133Zm3.176 0h3.177v.133a1.588 1.588 0 0 1-3.177 0v-.133Zm3.178 0h3.176v.133a1.589 1.589 0 0 1-3.176 0v-.133Zm3.176 0h3.177v.133a1.588 1.588 0 0 1-3.177 0v-.133Z" fill="#F15A24"/><path d="M15.77 8.738h3.177v.133a1.588 1.588 0 0 1-3.176 0v-.133Z" fill="#F15A24"/><path d="M.641 4.078H18.36a.64.64 0 0 1 .641.64v4.11H0v-4.11a.64.64 0 0 1 .641-.64Z" fill="#FBB03B"/><path d="M18.947 4.101H.005v1.06h18.942v-1.06Z" fill="#F7931E"/><path d="M11.26.525H7.74c-1.15 0-2.082.932-2.082 2.082V3.78c0 1.15.932 2.082 2.082 2.082h3.518c1.15 0 2.082-.932 2.082-2.082V2.607c0-1.15-.932-2.082-2.082-2.082Z" fill="#fff"/><path d="M11.26 6.325H7.74A2.548 2.548 0 0 1 5.196 3.78V2.607A2.548 2.548 0 0 1 7.741.061h3.518a2.548 2.548 0 0 1 2.546 2.546V3.78a2.548 2.548 0 0 1-2.546 2.545ZM7.74.99a1.62 1.62 0 0 0-1.618 1.618V3.78a1.62 1.62 0 0 0 1.619 1.618h3.518a1.62 1.62 0 0 0 1.619-1.618V2.607A1.62 1.62 0 0 0 11.259.99H7.741Z" fill="#FBB03B"/><path d="M5.83 13.408h3.102c.471 0 .853.383.853.853v5.714H4.976v-5.714c0-.471.383-.853.854-.853Z" fill="#F7931E"/><path d="M8.575 1.722c.147 0 .29.061.396.169l.163.163a.565.565 0 0 1 .169.396v.384a.51.51 0 0 1-.2.388l-1.178.875a.229.229 0 0 0-.09.18h1.17a.22.22 0 0 1 .22.222.22.22 0 0 1-.22.221H7.63a.235.235 0 0 1-.233-.233v-.32a.437.437 0 0 1 .184-.368l1.21-.895a.178.178 0 0 0 .07-.14v-.277A.232.232 0 0 0 8.8 2.34l-.114-.114a.225.225 0 0 0-.147-.061h-.406a.217.217 0 0 0-.147.06l-.114.115a.225.225 0 0 0-.06.147v.168a.22.22 0 0 1-.222.221.22.22 0 0 1-.22-.221V2.45c0-.147.06-.29.162-.396l.168-.163a.565.565 0 0 1 .396-.168h.478v-.002Zm2.735 2.201h.152a.22.22 0 0 1 .22.22.22.22 0 0 1-.22.222h-.151v.23a.22.22 0 0 1-.222.22.22.22 0 0 1-.22-.22v-.23h-.953c-.274-.004-.41-.123-.41-.413V3.71c0-.128.042-.25.115-.347l1.116-1.46c.106-.143.188-.213.323-.217.124 0 .245.086.245.257l.004 1.979h.002Zm-.44 0V2.467l-.863 1.124a.311.311 0 0 0-.06.177v.155h.924-.001Z" fill="#F15A24"/></g><defs><clipPath id="a"><path fill="#fff" transform="translate(0 .061)" d="M0 0h19v19.95H0z"/></clipPath></defs></svg>