<svg width="20" height="21" fill="none" xmlns="http://www.w3.org/2000/svg"><g clip-path="url(#a)"><path d="M20 18.639v-2.3l-5.673-3.137-1.991 1.304L20 18.64Z" fill="#F15A24"/><path d="M7.384 15.22 0 12.533v2.134l5.287 1.924 1.88-1.233.217-.138Z" fill="#F9C63F"/><path d="M20 9.172h-3.175L7.384 15.22l.38.138.736.27-1.073 1.742-1.757-.64-.383-.139-.214.14L0 19.913v.728h2.755l9.58-6.136-.762-.382 1.367-1.616 1.387.694L20 9.626v-.454Z" fill="#F9C63F"/><path d="m11.573 14.124.763.382 1.99-1.304-1.386-.694-1.367 1.616ZM7.427 17.37 8.5 15.627l-.736-.269-.38-.138-.217.138-1.88 1.233.383.14 1.757.64Z" fill="#F9C63F"/><path d="m9.869 13.226 3.671-6.577c.021-.032.038-.067.057-.101h-1.809a2.764 2.764 0 0 1-3.836 0H6.143c.02.033.036.069.057.101l3.672 6.577h-.003Z" fill="#F15A24"/><path d="M11.788 6.55h1.809c.037-.066.076-.132.11-.2l.014-.024c.197-.393.334-.82.404-1.27h-1.533a2.76 2.76 0 0 1-.805 1.493h.001Z" fill="#F15A24"/><path opacity=".3" d="M11.788 6.55h1.809c.037-.066.076-.132.11-.2l.014-.024c.197-.393.334-.82.404-1.27h-1.533a2.76 2.76 0 0 1-.805 1.493h.001Z" fill="#FBB03B"/><path d="M7.146 5.057H5.613c.07.45.208.876.405 1.269l.013.025c.035.067.073.133.11.198h1.81a2.77 2.77 0 0 1-.806-1.492h.001Z" fill="#F15A24"/><path opacity=".3" d="M7.146 5.057H5.613c.07.45.208.876.405 1.269l.013.025c.035.067.073.133.11.198h1.81a2.77 2.77 0 0 1-.806-1.492h.001Z" fill="#FBB03B"/><path d="M7.098 4.551a2.77 2.77 0 1 1 5.496.504h1.533A4.317 4.317 0 0 0 9.87.06a4.317 4.317 0 0 0-4.257 4.996h1.533a2.82 2.82 0 0 1-.048-.504Z" fill="#F15A24"/><path opacity=".2" d="M7.098 4.551a2.77 2.77 0 1 1 5.496.504h1.533A4.317 4.317 0 0 0 9.87.06a4.317 4.317 0 0 0-4.257 4.996h1.533a2.82 2.82 0 0 1-.048-.504Z" fill="#FBB03B"/><path opacity=".3" d="M7.098 4.551a2.77 2.77 0 1 1 5.496.504h1.533A4.317 4.317 0 0 0 9.87.06a4.317 4.317 0 0 0-4.257 4.996h1.533a2.82 2.82 0 0 1-.048-.504Z" fill="#FBB03B"/></g><defs><clipPath id="a"><path fill="#fff" transform="translate(0 .061)" d="M0 0h20v20.581H0z"/></clipPath></defs></svg>