<svg width="20" height="19" fill="none" xmlns="http://www.w3.org/2000/svg"><g clip-path="url(#a)"><path d="M.06 12.561h19.88v.805c0 .044-.003.087-.006.13a1.59 1.59 0 0 0 .066-.454V1.641A1.58 1.58 0 0 0 18.42.06H1.58A1.58 1.58 0 0 0 0 1.641v11.4c0 .157.024.31.066.453a1.243 1.243 0 0 1-.006-.128v-.805Zm1.33-10.47c0-.309.25-.559.559-.559h16.157c.28 0 .504.226.504.504v8.055c0 .309-.25.559-.558.559H1.948a.559.559 0 0 1-.56-.56v-8Z" fill="#F15A24"/><path d="M1.949 10.65h3.645l2.39-2.39a2.466 2.466 0 0 1-.32.023c-.61 0-1.08-.2-1.39-.6-.26-.348-.39-.798-.39-1.363 0-.564.13-1.009.382-1.367.293-.436.765-.65 1.399-.65s1.09.214 1.398.65c.26.363.399.825.399 1.378 0 .175-.015.338-.041.492l.676-.676V4.65c0-.262.138-.39.424-.39.285 0 .414.128.414.39v.66l3.778-3.778H1.95a.559.559 0 0 0-.56.559v8.001c0 .31.25.56.56.56v-.002Z" fill="#FFF3BD"/><path d="M7.665 5.013a.765.765 0 0 0-.66.353c-.162.23-.234.548-.234.948 0 .4.073.712.235.943a.759.759 0 0 0 .659.348.788.788 0 0 0 .666-.342c.163-.235.235-.549.235-.938 0-.39-.073-.702-.235-.953-.17-.236-.399-.36-.666-.36Zm3.269.507 1.495-1.147a.487.487 0 0 1 .318-.113c.293 0 .44.118.44.359 0 .097-.049.184-.155.262l-1.69 1.229 1.86 1.562a.367.367 0 0 1 .123.261c0 .087-.032.17-.08.246a.732.732 0 0 1-.35.103.632.632 0 0 1-.335-.107l-1.626-1.41v1.158c0 .235-.138.359-.415.359-.276 0-.423-.124-.423-.359V6.147l-.677.676a2 2 0 0 1-.356.865c-.264.322-.63.512-1.08.572l-2.389 2.39h12.457c.31 0 .56-.25.56-.56V2.037a.504.504 0 0 0-.505-.504h-3.394L10.934 5.31v.212-.002Z" fill="#FFF3BD"/><path opacity=".2" d="m10.934 5.52 1.495-1.147a.487.487 0 0 1 .318-.113c.293 0 .44.118.44.359 0 .097-.049.184-.155.262l-1.69 1.229 1.86 1.562a.367.367 0 0 1 .123.261c0 .087-.032.17-.08.246a.732.732 0 0 1-.35.103.632.632 0 0 1-.335-.107l-1.626-1.41v1.158c0 .235-.138.359-.415.359-.276 0-.423-.124-.423-.359V6.147l-.677.676a2 2 0 0 1-.356.865c-.264.322-.63.512-1.08.572l-2.389 2.39h12.457c.31 0 .56-.25.56-.56V2.037a.504.504 0 0 0-.505-.504h-3.394L10.934 5.31v.212-.002Z" fill="#F9C63F"/><path d="M12.47 14.62h-5v1.618h5V14.62Z" fill="#FFF3BD"/><path d="M18.42 14.62h.265c.65 0 1.184-.494 1.249-1.126a1.58 1.58 0 0 1-1.513 1.126ZM.066 13.494a1.256 1.256 0 0 0 1.249 1.126h.264a1.58 1.58 0 0 1-1.513-1.126Z" fill="#F9C63F"/><path d="M12.47 14.62h5.95a1.58 1.58 0 0 0 1.512-1.126 1.11 1.11 0 0 0 .006-.13v-.804H.06v.804c0 .044.003.087.006.128A1.58 1.58 0 0 0 1.58 14.62h10.89v.001Z" fill="#F9C63F"/><path d="M13.175 18.297a1.029 1.029 0 1 0 0-2.06h-.704v.442H7.469v-.441h-.766a1.029 1.029 0 1 0 0 2.059h6.472Z" fill="#F7931E"/><path d="M12.47 16.238h-5v.441h5v-.441Z" fill="#F7931E"/><path d="M9.462 6.33c0-.552-.138-1.014-.399-1.377-.309-.436-.772-.65-1.398-.65-.627 0-1.106.214-1.399.65-.251.358-.382.814-.382 1.367s.13 1.015.39 1.364c.308.4.78.6 1.39.6.112 0 .217-.01.32-.024L9.42 6.823c.026-.154.04-.317.04-.492Zm-1.131.933a.796.796 0 0 1-.666.343.769.769 0 0 1-.66-.349c-.162-.23-.234-.549-.234-.943 0-.394.073-.717.235-.948a.762.762 0 0 1 .659-.353c.276 0 .495.123.666.359.163.251.235.569.235.953 0 .383-.073.701-.235.938Z" fill="#F15A24"/><path d="M9.063 7.688c.178-.24.299-.528.356-.865L7.982 8.26c.452-.06.815-.25 1.08-.572h.001Zm1.871-3.038c0-.262-.138-.39-.415-.39-.276 0-.423.128-.423.39v1.497l.838-.839v-.66.002Z" fill="#F15A24"/><path d="M10.52 8.282c.276 0 .414-.124.414-.359V6.766l1.626 1.409a.628.628 0 0 0 .334.107.72.72 0 0 0 .35-.103.461.461 0 0 0 .081-.246.371.371 0 0 0-.122-.261L11.34 6.11l1.691-1.23c.106-.076.155-.164.155-.261 0-.241-.147-.36-.44-.36a.481.481 0 0 0-.318.114L10.934 5.52v-.212l-.838.839v1.776c0 .235.138.359.423.359Z" fill="#F15A24"/></g><defs><clipPath id="a"><path fill="#fff" transform="translate(0 .061)" d="M0 0h20v18.235H0z"/></clipPath></defs></svg>