<svg width="30" height="31" fill="none" xmlns="http://www.w3.org/2000/svg"><g clip-path="url(#a)"><path d="M12.047 4.158a8.358 8.358 0 1 0 0 16.716 8.358 8.358 0 0 0 0-16.716ZM8.091 15.602a.564.564 0 0 1-.445-.916l5.836-7.344a.565.565 0 0 1 .884.703L8.53 15.389a.561.561 0 0 1-.442.213h.003Zm8.723-5.108-5.837 7.343a.567.567 0 0 1-.937-.077.564.564 0 0 1 .051-.626l5.84-7.342a.565.565 0 0 1 .883.702Z" fill="#71D191"/><path d="m28.977 26.72-.125-.129-3.05 3.05.074.074.808.807c.519.52 1.622.257 2.465-.584.842-.842 1.104-1.946.586-2.464l-.756-.756-.002.002Z" fill="#fff"/><path d="m28.105 25.86-3.05 3.048.746.735 3.05-3.05-.087-.087-.002.002-.657-.648Z" fill="#AAD4C8"/><g filter="url(#b)"><path d="M11.883.63C5.32.63 0 5.95 0 12.514c0 6.563 5.32 11.883 11.883 11.883 2.34.004 4.63-.687 6.577-1.985l6.595 6.495 3.05-3.048-6.552-6.453a11.817 11.817 0 0 0 2.215-6.89C23.768 5.95 18.45.628 11.883.628Zm.165 20.24a8.358 8.358 0 1 1 0-16.715 8.358 8.358 0 0 1 0 16.715Z" fill="#fff"/></g><path d="m13.482 7.342-5.836 7.344a.565.565 0 0 0 .884.703l5.836-7.343a.565.565 0 0 0-.884-.704Zm2.448 2.45-5.839 7.342a.565.565 0 0 0 .885.703l5.838-7.343a.566.566 0 0 0-.506-.912.564.564 0 0 0-.378.21Z" fill="#E4F0F7"/></g><defs><clipPath id="a"><path fill="#fff" transform="translate(0 .63)" d="M0 0h30v30.161H0z"/></clipPath><filter id="b" x="-2" y="-.371" width="32.105" height="32.278" filterUnits="userSpaceOnUse" color-interpolation-filters="sRGB"><feFlood flood-opacity="0" result="BackgroundImageFix"/><feColorMatrix in="SourceAlpha" values="0 0 0 0 0 0 0 0 0 0 0 0 0 0 0 0 0 0 127 0" result="hardAlpha"/><feOffset dy="1"/><feGaussianBlur stdDeviation="1"/><feComposite in2="hardAlpha" operator="out"/><feColorMatrix values="0 0 0 0 0 0 0 0 0 0 0 0 0 0 0 0 0 0 0.1 0"/><feBlend in2="BackgroundImageFix" result="effect1_dropShadow_47_1207"/><feBlend in="SourceGraphic" in2="effect1_dropShadow_47_1207" result="shape"/></filter></defs></svg>