<svg id="Layer_2" xmlns="http://www.w3.org/2000/svg" viewBox="0 0 228.85 162"><defs><clipPath id="clippath"><rect x="188" y="68" width="26" height="68" rx="13" ry="13" transform="rotate(-45 200.997 101.994)" style="fill:none"/></clipPath><style>.cls-3{fill:#f4ce2c}</style></defs><g id="Layer_1-2"><rect x="17" y="51" width="156" height="111" rx="13.82" ry="13.82" style="fill:#dbd9d2"/><rect y="32" width="156" height="111" rx="13.82" ry="13.82" style="fill:#f4f4f4"/><circle cx="149" cy="55" r="35" style="fill:#e8e8e8"/><rect class="cls-3" x="188" y="68" width="26" height="68" rx="13" ry="13" transform="rotate(-45 200.997 101.994)"/><g style="clip-path:url(#clippath)"><path d="M175.46 81.98s-2.16 7.27 16.83 24.22c19 16.95 30.98 32.37 33.7 28.17l5.92 16.65-41.76 5.39-29.09-53.43 14.4-20.99Z" style="fill:#e0bb22"/></g><path class="cls-3" d="M149.5 0C119.4 0 95 24.4 95 54.5s24.4 54.5 54.5 54.5S204 84.6 204 54.5 179.6 0 149.5 0Zm0 87C131.55 87 117 72.45 117 54.5S131.55 22 149.5 22 182 36.55 182 54.5 167.45 87 149.5 87Z"/><path d="M132 57c0-11.6 9.4-21 21-21 1.1 0 2.17.11 3.23.27A20.891 20.891 0 0 0 145 33c-11.6 0-21 9.4-21 21 0 10.5 7.71 19.17 17.77 20.73C135.9 71.01 132 64.47 132 57Z" style="fill:#fff;opacity:.3"/></g></svg>