<svg width="26" height="27" fill="none" xmlns="http://www.w3.org/2000/svg"><g clip-path="url(#a)"><path d="m16.234 18.494 1.768-1.767 7.512 7.512-1.768 1.767-7.512-7.512Z" fill="#676C64"/><path d="M10.5 21c5.523 0 10-4.477 10-10s-4.477-10-10-10S.5 5.477.5 11s4.477 10 10 10Zm7.781-.413 1.767-1.767 5.435 5.435-1.767 1.768-5.435-5.436Z" fill="#676C64"/><path d="M10.5 19.125a8.125 8.125 0 1 0 0-16.25 8.125 8.125 0 0 0 0 16.25Z" fill="#71D191"/><path d="M14.813 7.375a5.654 5.654 0 0 0-4.313-2c-1.688 0-3.25.75-4.313 2-.25.25-.187.688.063.875.25.25.687.188.875-.063.875-1 2.062-1.562 3.375-1.562 1.313 0 2.5.563 3.375 1.563.125.124.313.25.5.25.125 0 .313-.063.375-.126.25-.25.25-.687.063-.937Z" fill="#DFF9D6"/></g><defs><clipPath id="a"><path fill="#fff" transform="translate(0 .5)" d="M0 0h26v26H0z"/></clipPath></defs></svg>