<svg width="20" height="17" fill="none" xmlns="http://www.w3.org/2000/svg"><path d="M12.69 2.427a.365.365 0 0 1 .204.617l-1.188 1.147.282 1.625c.015.293-.26.518-.529.384l-1.453-.766-1.465.775a.367.367 0 0 1-.529-.38L8.294 4.2 7.106 3.044a.365.365 0 0 1 .203-.617l1.635-.236L9.68.698a.356.356 0 0 1 .638 0l.737 1.493 1.635.236ZM12 8.5a1 1 0 0 1 1 1v6a1 1 0 0 1-1 1H8a1 1 0 0 1-1-1v-6a1 1 0 0 1 1-1h4Zm-7 2a1 1 0 0 1 1 1v4a1 1 0 0 1-1 1H1a1 1 0 0 1-1-1v-4a1 1 0 0 1 1-1h4Zm9 3a1 1 0 0 1 1-1h4a1 1 0 0 1 1 1v2a1 1 0 0 1-1 1h-4a1 1 0 0 1-1-1v-2Z" fill="#FF5A36"/></svg>