<svg width="18" height="14" fill="none" xmlns="http://www.w3.org/2000/svg"><path fill-rule="evenodd" clip-rule="evenodd" d="M5.25 11.875a.625.625 0 0 1 .625-.625h11.25a.625.625 0 0 1 0 1.25H5.875a.625.625 0 0 1-.625-.625Zm0-5a.625.625 0 0 1 .625-.625h11.25a.625.625 0 0 1 0 1.25H5.875a.625.625 0 0 1-.625-.625Zm0-5a.625.625 0 0 1 .625-.625h11.25a.625.625 0 0 1 0 1.25H5.875a.625.625 0 0 1-.625-.625ZM3.817.183a.625.625 0 0 1 0 .885L1.942 2.943a.625.625 0 0 1-.885 0l-.625-.625a.626.626 0 0 1 .885-.885l.183.183L2.932.183a.625.625 0 0 1 .885 0Zm0 5a.625.625 0 0 1 0 .885L1.942 7.943a.625.625 0 0 1-.885 0l-.625-.625a.626.626 0 0 1 .885-.885l.183.183 1.432-1.433a.625.625 0 0 1 .885 0Zm0 5a.625.625 0 0 1 0 .885l-1.875 1.875a.625.625 0 0 1-.885 0l-.625-.625a.626.626 0 1 1 .885-.886l.183.184 1.432-1.434a.625.625 0 0 1 .885 0Z" fill="#0E95CC"/></svg>