<?xml version="1.0" encoding="UTF-8"?>
<!DOCTYPE svg PUBLIC "-//W3C//DTD SVG 1.1//EN" "http://www.w3.org/Graphics/SVG/1.1/DTD/svg11.dtd">
<svg xmlns="http://www.w3.org/2000/svg" version="1.1" width="512px" height="512px" style="shape-rendering:geometricPrecision; text-rendering:geometricPrecision; image-rendering:optimizeQuality; fill-rule:evenodd; clip-rule:evenodd" xmlns:xlink="http://www.w3.org/1999/xlink">
<g><path style="opacity:0.985" fill="#323332" d="M 133.5,93.5 C 179.176,87.8875 217.843,101.388 249.5,134C 236.704,150.3 223.704,166.467 210.5,182.5C 198.744,170.785 184.744,162.952 168.5,159C 136.203,155.065 112.036,167.232 96,195.5C 86.7245,214.04 82.2245,233.706 82.5,254.5C 81.7271,281.088 88.5604,305.421 103,327.5C 124.002,350.793 149.502,357.627 179.5,348C 192.688,341.974 204.354,333.808 214.5,323.5C 228.18,339.183 241.514,355.183 254.5,371.5C 222.467,407.075 182.467,422.408 134.5,417.5C 70.2249,408.385 29.0582,372.718 11,310.5C 0.760268,267.436 3.0936,225.102 18,183.5C 40.3405,132.649 78.8405,102.649 133.5,93.5 Z"/></g>
<g><path style="opacity:0.99" fill="#04d1ef" d="M 257.5,98.5 C 283.509,98.1669 309.509,98.5002 335.5,99.5C 362.255,150.677 388.755,202.01 415,253.5C 424.333,274.833 433.667,296.167 443,317.5C 440.421,289.192 437.754,260.859 435,232.5C 434.5,187.835 434.333,143.168 434.5,98.5C 458.5,98.5 482.5,98.5 506.5,98.5C 506.5,202.833 506.5,307.167 506.5,411.5C 480.491,411.833 454.491,411.5 428.5,410.5C 402,358.833 375.5,307.167 349,255.5C 339.861,234.417 330.528,213.417 321,192.5C 323.497,222.485 326.164,252.485 329,282.5C 329.5,325.499 329.667,368.499 329.5,411.5C 305.5,411.5 281.5,411.5 257.5,411.5C 257.5,307.167 257.5,202.833 257.5,98.5 Z"/></g>
</svg>
