<?xml version="1.0" encoding="UTF-8"?><svg xmlns="http://www.w3.org/2000/svg" xmlns:xlink="http://www.w3.org/1999/xlink" viewBox="0 0 107.56 113.39"><defs><style>.cls-1,.cls-2,.cls-3,.cls-4{fill:none;}.cls-5{clip-path:url(#clippath);}.cls-2{stroke:#fad8be;stroke-width:.75px;}.cls-2,.cls-3,.cls-4,.cls-6,.cls-7,.cls-8{stroke-linecap:round;stroke-linejoin:round;}.cls-2,.cls-9,.cls-10,.cls-11{mix-blend-mode:multiply;opacity:.5;}.cls-12,.cls-9{fill:#fad8be;}.cls-13,.cls-10{fill:#fbe2cc;}.cls-14{fill:#231916;}.cls-15,.cls-11{fill:#614d3f;}.cls-3{stroke:#231916;stroke-width:.52px;}.cls-16{fill:#946135;stroke:#b28147;}.cls-16,.cls-17{stroke-miterlimit:10;}.cls-16,.cls-17,.cls-6,.cls-7,.cls-8{stroke-width:.5px;}.cls-4{stroke:#8dc220;stroke-width:2px;}.cls-17{fill:#b28147;stroke:#c89f63;}.cls-6{fill:#fffded;stroke:#fff4d6;}.cls-7{fill:#f2a6a3;stroke:#ef9091;}.cls-18{isolation:isolate;}.cls-8{fill:#f8cfc2;stroke:#eb6d5e;}</style><clipPath id="clippath"><rect class="cls-1" width="107.56" height="113.39"/></clipPath></defs><g class="cls-18"><g id="Layer_2"><g id="PC"><g class="cls-5"><g><g><path class="cls-15" d="m83.95,35.84l-28.46,35.92-28.46-35.92s-4.11,31.21.63,35.44c4.74,4.23,11.59,6.08,11.59,6.08l1.48-1.69s-.24,1.17,5.56,3.03c2.05.66,16.34.66,18.39,0,5.8-1.86,5.56-3.03,5.56-3.03l1.48,1.69s6.86-1.85,11.59-6.08c4.74-4.23.63-35.44.63-35.44Z"/><g><path class="cls-12" d="m63.73,78.17c.02-.06.04-.13.06-.18.24-1.07-.34-1.27-1.81-1.57-1.25-.58-2.67-.68-2.67-.68l.11-5.94-3.94.32-3.94-.32.11,5.94s-1.42.1-2.67.68c-1.47.3-2.05.5-1.81,1.57.01.06.04.12.06.18-.11.36-.15.77-.05,1.25.64,3.18,4.54,6.35,7.94,6.64.07,0,.15.03.21.03.05,0,.1,0,.14,0,.05,0,.1,0,.14,0,.06,0,.14-.02.21-.03,3.4-.29,7.3-3.46,7.94-6.64.1-.48.06-.89-.05-1.25Z"/><polygon class="cls-9" points="51.77 70.79 58.46 71.01 58.46 75.92 51.77 70.79"/></g><path class="cls-13" d="m55.6,18.78s-.07,0-.11,0c-.04,0-.07,0-.11,0-26.95,0-26.5,30.31-26.5,30.31,0,0,0,.02,0,.04.1.74,3.18,22.49,24.6,23.8.19.01.4.01.59.02.37.01.73.04,1.1.04.1,0,.2,0,.3,0,.1,0,.2,0,.3,0,.38,0,.74-.03,1.1-.04.2,0,.4-.01.59-.02,21.42-1.31,24.5-23.06,24.6-23.8,0-.01,0-.04,0-.04,0,0,.45-30.31-26.5-30.31Z"/><g><path class="cls-10" d="m39.2,35.15l3.69-1.92s4.88,7.72,15.57,8.02c0,0,21.24,5.34,21.8,6.16.56.82-1.93-12.06-12.75-16.93-10.82-4.87-29.28-13.08-28.31,4.67Z"/><path class="cls-15" d="m80.15,21.75c-7.86-8.33-17.85-10.06-24.66-10.1-6.81.05-16.8,1.78-24.66,10.1-5.1,5.4-6.71,12.03-6.92,17.79.1,3.83.95,8.11,2.83,12.88l3.21,1.5,2.23-.82c6.39-3.86,9.83-25.86,9.83-25.86,0,0,1.79,10.18,16.46,12.77,0,0,17.27,2.64,19.34,5.86,1.35,2.11,2.06,7.59,1.34,8.92l1.88-.88,3.21-1.5c1.88-4.77,2.73-9.04,2.83-12.88-.2-5.76-1.82-12.39-6.92-17.79Z"/><path class="cls-11" d="m61.07,16.51s20.18,7.87,20.57,29.08c0,0-4.51-21.79-20.57-29.08Z"/><path class="cls-11" d="m49.39,20.54s-4.71,8.7,4.13,15.93c0,0-5.03-6.25-4.13-15.93Z"/><path class="cls-11" d="m60.65,21.5s-4.71,8.7,4.13,15.93c0,0-5.03-6.25-4.13-15.93Z"/></g><g><path class="cls-13" d="m29.89,52.35s-4.04-1.72-4.99,2.58c-.95,4.3,3.7,7.48,7.48,4.47"/><path class="cls-13" d="m81.09,52.35s4.04-1.72,4.99,2.58c.95,4.3-3.7,7.48-7.48,4.47"/></g><path class="cls-3" d="m53.34,56.09s.26-1.29,2.11-1.29,2.19,1.16,2.19,1.16"/><g><path class="cls-14" d="m48.16,50.91c0,1.93-.74,3.5-1.65,3.5s-1.65-1.57-1.65-3.5.74-3.5,1.65-3.5,1.65,1.57,1.65,3.5Z"/><path class="cls-14" d="m67.69,52.24s-1.46-1.44-3.26-1.44-3.26,1.44-3.26,1.44c0-1.47,1.46-2.65,3.26-2.65s3.26,1.19,3.26,2.65Z"/></g><path class="cls-8" d="m59.07,60.52s-.51,4.33-3.52,4.33-3.65-4.33-3.65-4.33c2.39-1.53,4.78-1.54,7.17,0Z"/></g><g><line class="cls-4" x1="1.56" y1="27.85" x2="13.25" y2="35.23"/><line class="cls-4" x1="11.4" y1="17.18" x2="16.33" y2="27.23"/><line class="cls-4" x1="-.29" y1="41.39" x2="9.35" y2="41.18"/></g><g><g><path class="cls-17" d="m61.68,162.72c5.71-.13,11.16-.69,16.03-1.93l-4.45-45.69c-.26-.15-1.23-.3-1.52-.45-2.12-1.05-4.89-1.83-7.18-2.36h-18.14c-2.29.53-5.06,1.31-7.18,2.36-.29.14-1.26.29-1.52.45l-4.37,45.69c4.88,1.25,10.25,1.8,15.96,1.93h12.39Z"/><path class="cls-6" d="m69.87,79.33c-.22-.15-.46-.3-.71-.45-1.79-1.05-4.13-1.83-6.06-2.36-.58-.16-1.1-.29-1.58-.4-1.11,2.37-3.41,4-6.07,4s-4.96-1.63-6.07-4c-.48.11-1,.24-1.58.4-1.93.53-4.26,1.31-6.06,2.36-.25.14-.48.29-.7.45l-2.94,31.49c5.11.64,11.05,1,17.38,1s12.26-.37,17.37-1l-2.99-31.49Z"/><path class="cls-16" d="m55.49,111.82c-6.34,0-12.27-.37-17.38-1l-.4,4.26c5.2.67,11.28,1.05,17.78,1.05s12.57-.38,17.77-1.05l-.4-4.26c-5.11.63-11.03,1-17.37,1Z"/><path class="cls-7" d="m49.39,76.13c-.48.11-1,.24-1.58.4-1.93.53-4.26,1.31-6.06,2.36-.25.14-.48.29-.7.45l-2.94,31.49-.4,4.26c4.41.56,9.45.92,14.85,1.02v-33.42c-2.52-2.1-3.17-6.55-3.17-6.55Z"/><path class="cls-7" d="m61.58,76.13c.48.11,1,.24,1.58.4,1.93.53,4.26,1.31,6.06,2.36.25.14.48.29.7.45l2.94,31.49.4,4.26c-4.41.56-9.45.92-14.85,1.02v-33.42c2.52-2.1,3.17-6.55,3.17-6.55Z"/></g><path class="cls-2" d="m68.89,69.28s.45-12.74-4.81-12.93c-2.57-.09.43,4.73.1,7.7-.21,1.9-2.67,3.74-2.41,6.41l.44,1.67"/><path class="cls-13" d="m68.55,72.29s.82-15.6-4.12-15.73c-2.41-.06.34,4.68,0,7.62-.22,1.89-2.55,3.73-2.35,6.37.2,2.52,1.76,3.28,1.76,3.28.98,1.78.96,17.9,7.64,18.31,6.68.41,3.95-9.99-2.92-19.85Z"/><path class="cls-7" d="m70.19,73.54l-6.35,2.82s.77,16.9,8.23,16.67c7.45-.22,4.21-9.75-1.88-19.49Z"/><path class="cls-2" d="m42.09,69.28s-.45-12.74,4.81-12.93c2.57-.09-.43,4.73-.1,7.7.21,1.9,2.67,3.74,2.41,6.41l-.44,1.67"/><path class="cls-13" d="m42.43,72.29s-.82-15.6,4.12-15.73c2.41-.06-.34,4.68,0,7.62.22,1.89,2.55,3.73,2.35,6.37-.2,2.52-1.76,3.28-1.76,3.28-.98,1.78-.96,17.9-7.64,18.31-6.68.41-3.95-9.99,2.92-19.85Z"/><path class="cls-7" d="m40.79,73.54l6.35,2.82s-.77,16.9-8.23,16.67c-7.45-.22-4.21-9.75,1.88-19.49Z"/></g></g></g></g></g></g></svg>