<?xml version="1.0" encoding="UTF-8"?><svg xmlns="http://www.w3.org/2000/svg" xmlns:xlink="http://www.w3.org/1999/xlink" viewBox="0 0 734 456.14"><defs><style>.cls-1,.cls-2,.cls-3,.cls-4{fill:none;}.cls-5{stroke:#f36e64;stroke-width:5px;}.cls-5,.cls-6{fill:#fff;}.cls-5,.cls-7,.cls-8,.cls-9{stroke-miterlimit:10;}.cls-2{stroke:#eb6d5e;stroke-width:.75px;}.cls-2,.cls-10,.cls-11,.cls-3,.cls-12,.cls-13,.cls-4{stroke-linecap:round;stroke-linejoin:round;}.cls-14{clip-path:url(#clippath);}.cls-15,.cls-16{fill:#fad8be;}.cls-17{fill:#e6e6e6;}.cls-18{fill:#f36e64;}.cls-19{fill:#ffd82a;}.cls-20{fill:red;}.cls-21,.cls-22{fill:#fbe2cc;}.cls-23{fill:#666;}.cls-24,.cls-25{fill:#8cd893;}.cls-26{fill:#ccc;}.cls-27{fill:#231916;}.cls-28{fill:#404040;}.cls-29{fill:#595857;}.cls-30,.cls-31{fill:#614d3f;}.cls-10{fill:#c8c9ca;stroke-width:.41px;}.cls-10,.cls-11{stroke:#9e9e9f;}.cls-11{fill:#dbdcdc;stroke-width:.48px;}.cls-3{stroke:#231916;stroke-width:.52px;}.cls-7{fill:#946135;stroke:#b28147;}.cls-7,.cls-8,.cls-9,.cls-12,.cls-13{stroke-width:.5px;}.cls-8{fill:#b28147;stroke:#c89f63;}.cls-9{fill:#a38a78;stroke:#a38a78;}.cls-16,.cls-22,.cls-31,.cls-25{opacity:.5;}.cls-16,.cls-22,.cls-31,.cls-4{mix-blend-mode:multiply;}.cls-12{fill:#fffded;stroke:#fff4d6;}.cls-13{fill:#f2a6a3;stroke:#ef9091;}.cls-32{isolation:isolate;}.cls-4{stroke:#fbe2cc;stroke-width:1.55px;}</style><clipPath id="clippath"><rect class="cls-1" x="493.27" y="262.56" width="108.73" height="96.65"/></clipPath></defs><g class="cls-32"><g id="Layer_2"><g id="PC"><g><rect class="cls-1" y=".14" width="734" height="456"/><rect class="cls-5" x="2.5" y="290.14" width="729" height="163"/><g><path class="cls-28" d="m86.11,405.24c0,.08,0,.13-.03.29h7.66c1.17,0,3.59.08,3.59,3.49,0,.52-.26,8.41-1.17,10.99-.96,2.79-2.58,2.79-5.52,2.79-2.53,0-3.1-.03-3.59-.6-.42-.44-.57-1.17-.57-1.77,0-2.14,1.54-2.14,1.98-2.14.29,0,1.62.08,1.88.08,1.25,0,1.64-.57,2.01-3.18.1-.86.34-3.98.34-4.79,0-.42-.21-.73-.7-.73h-6.3c-.49,2.94-1.64,7.84-5.71,11.54-1.64,1.48-2.11,1.48-2.5,1.48-1.54,0-2.58-1.56-2.58-2.76,0-.73.37-1.09,1.09-1.64,5.21-3.93,5.65-9.46,5.65-13.18v-2.16h-4.82c-.52,0-2.14,0-2.14-1.98,0-1.64.68-2.27,2.14-2.27h20.6c.52,0,2.14.03,2.14,2.01,0,1.61-.68,2.24-2.14,2.24h-11.25l-.05,2.29Z"/><path class="cls-28" d="m106.3,413.42v7.32c0,.76-.13,2.14-2.03,2.14-1.72,0-2.4-.6-2.4-2.14v-18.65c0-2.06.94-3.41,3.41-3.41h15.58c2.24,0,3.62.76,3.62,3.62v16.85c0,3.65-2.19,3.65-4.98,3.65-2.58,0-4.17,0-4.17-2.27,0-.5.1-1.25.6-1.75.42-.42.99-.52,1.59-.52.26,0,1.43.03,1.67.03.68,0,.89-.13.89-.81v-4.06h-13.78Zm4.71-4.14v-6.36h-3.99c-.47,0-.73.29-.73.7v5.65h4.71Zm4.3,0h4.77v-5.65c0-.42-.26-.7-.7-.7h-4.06v6.36Z"/><path class="cls-28" d="m51.39,396.53c.37-3.76,2.14-4.12,4.53-4.12h9.87c.7,0,3.17.04,3.17,2.84s-2.32,2.87-3.17,2.87h-7.96c-.88,0-1.14.63-1.18,1.03l-.44,4.27c.59-.37,1.92-1.18,4.49-1.18,4.94,0,9.32,3.65,9.32,9.95,0,8.21-5.49,11.23-10.61,11.23-7.66,0-10.24-5.67-10.24-7.62,0-2.06,1.51-2.76,3.09-2.76,1.11,0,2.69.18,3.32,1.92.33.96.99,2.8,3.65,2.8,3.87,0,4.02-3.83,4.02-5.16,0-3.09-1.62-4.68-3.91-4.68-1.88,0-2.62.77-3.42,1.58-.22.22-1.03,1.03-2.65,1.03-.96,0-3.28-.18-3.02-2.87l1.14-11.12Z"/></g><g><path class="cls-28" d="m168.16,402.38c-1.4,0-2.36-1.07-2.36-2.62,0-2.17,1.44-2.36,2.65-2.54.81-.11,3.39-.44,4.68-3.72.52-1.36.88-2.32,2.95-2.32s2.8,1.22,2.8,2.1v26.56c0,1.58-.48,3.17-3.28,3.17-2.13,0-3.54-.59-3.54-3.17v-17.46h-3.9Z"/><path class="cls-28" d="m188.82,399.62c0-5.75,5.27-8.4,9.54-8.4s9.54,2.65,9.54,8.4c0,2.95-1.44,5.05-3.09,6.04,1.21.59,3.98,2.47,3.98,7.29,0,6.26-4.27,10.06-10.42,10.06s-10.42-3.79-10.42-10.06c0-4.9,2.84-6.74,3.98-7.29-1.66-.99-3.09-3.09-3.09-6.04Zm5.89,13.37c0,3.21,1.77,4.35,3.65,4.35,2.47,0,3.65-1.73,3.65-4.46,0-2.39-1.29-4.05-3.65-4.05-1.99,0-3.65,1.18-3.65,4.16Zm.63-12.71c0,2.47,1.69,3.28,3.02,3.28,1.22,0,3.02-.66,3.02-3.31,0-1.03-.29-3.35-3.02-3.35s-3.02,2.28-3.02,3.39Z"/><path class="cls-28" d="m221.49,405.45c0,3.61-1.59,6.26-5.17,6.26-3.91,0-5.16-3.09-5.16-6.26s1.37-6.23,5.16-6.23c4.15,0,5.17,3.5,5.17,6.23Zm-6.78,0c0,2.6.6,3.58,1.61,3.58s1.61-.96,1.61-3.58-.6-3.58-1.61-3.58-1.61.96-1.61,3.58Zm5.14,16.48c-.3.55-.74.88-1.37.88-.87,0-1.53-.77-1.53-1.42,0-.27.03-.52.19-.79l11.42-20.52c.27-.52.71-.85,1.37-.85.88,0,1.5.77,1.5,1.39,0,.27-.03.55-.16.79l-11.42,20.52Zm17.41-5.38c0,3.61-1.61,6.26-5.19,6.26-3.88,0-5.17-3.09-5.17-6.26s1.37-6.26,5.17-6.26c4.18,0,5.19,3.5,5.19,6.26Zm-6.8,0c0,2.6.6,3.58,1.61,3.58s1.61-.98,1.61-3.58-.6-3.58-1.61-3.58-1.61.93-1.61,3.58Z"/></g><g><path class="cls-28" d="m300.69,413.47c0,2.03-.63,9.54-10.39,9.54-3.46,0-6.37-.74-8.43-3.24-1.29-1.62-2.03-3.68-2.03-5.34,0-1.4.77-2.84,3.21-2.84,1.58,0,3.02.48,3.28,2.1.22,1.55.55,3.65,3.68,3.65,2.17,0,3.91-1.07,3.91-3.9,0-1.03,0-4.27-3.94-4.27-1.25,0-3.02,0-3.02-2.54s1.8-2.58,3.02-2.58c1.99,0,3.06-1.29,3.06-3.83,0-1.84-.92-3.32-2.95-3.32-1.66,0-2.98.44-3.35,2.98-.11.88-.37,2.5-3.13,2.5-1.73,0-3.21-.7-3.21-2.8,0-2.39,2.03-8.36,9.61-8.36,6.12,0,9.76,3.65,9.76,8.77,0,.66,0,3.98-2.95,5.89.96.7,3.87,2.84,3.87,7.59Z"/><path class="cls-28" d="m315.42,402.05c6.12,0,9.13,4.9,9.13,10.13,0,6.19-3.94,10.83-10.09,10.83-3.54,0-6.23-1.73-7.7-3.65-1.66-2.14-3.06-4.97-3.06-11.35,0-5.16.74-16.83,11.2-16.83,6.45,0,9.25,4.53,9.25,6.89,0,.74-.48,2.73-3.28,2.73-2.39,0-2.76-.92-3.35-2.43-.44-1.14-1.58-1.51-2.62-1.51-2.87,0-3.98,2.73-4.16,6.85.66-.59,1.92-1.66,4.68-1.66Zm-4.86,10.35c0,4.05,2.25,4.94,3.5,4.94s3.54-.85,3.54-4.94-2.25-4.9-3.54-4.9c-1.18,0-3.5.85-3.5,4.9Z"/><path class="cls-28" d="m329.78,396.12c.37-3.76,2.14-4.12,4.53-4.12h9.87c.7,0,3.17.04,3.17,2.84s-2.32,2.87-3.17,2.87h-7.96c-.88,0-1.14.63-1.18,1.03l-.44,4.27c.59-.37,1.92-1.18,4.49-1.18,4.94,0,9.32,3.65,9.32,9.95,0,8.21-5.49,11.23-10.61,11.23-7.66,0-10.24-5.67-10.24-7.62,0-2.06,1.51-2.76,3.09-2.76,1.11,0,2.69.18,3.32,1.92.33.96.99,2.8,3.65,2.8,3.87,0,4.02-3.83,4.02-5.16,0-3.09-1.62-4.68-3.91-4.68-1.88,0-2.62.77-3.42,1.58-.22.22-1.03,1.03-2.65,1.03-.96,0-3.28-.18-3.02-2.87l1.14-11.12Z"/><path class="cls-28" d="m372.69,420.3c0,2.87-1.35,3.62-3.59,3.62h-13.26c-2.27,0-3.62-.75-3.62-3.62v-15.92c0-2.84,1.36-3.59,3.62-3.59h13.26c2.24,0,3.59.75,3.59,3.59v15.92Zm-4.58-10.21v-4.32c0-.57-.44-.73-.73-.73h-9.82c-.65,0-.73.5-.73.73v4.32h11.28Zm-11.28,4.14v4.69c0,.26.1.73.73.73h9.82c.26,0,.73-.13.73-.73v-4.69h-11.28Z"/></g><g><path class="cls-28" d="m430.69,413.47c0,2.03-.63,9.54-10.39,9.54-3.46,0-6.37-.74-8.43-3.24-1.29-1.62-2.03-3.68-2.03-5.34,0-1.4.77-2.84,3.21-2.84,1.58,0,3.02.48,3.28,2.1.22,1.55.55,3.65,3.68,3.65,2.17,0,3.91-1.07,3.91-3.9,0-1.03,0-4.27-3.94-4.27-1.25,0-3.02,0-3.02-2.54s1.8-2.58,3.02-2.58c1.99,0,3.06-1.29,3.06-3.83,0-1.84-.92-3.32-2.95-3.32-1.66,0-2.98.44-3.35,2.98-.11.88-.37,2.5-3.13,2.5-1.73,0-3.21-.7-3.21-2.8,0-2.39,2.03-8.36,9.61-8.36,6.12,0,9.76,3.65,9.76,8.77,0,.66,0,3.98-2.95,5.89.96.7,3.87,2.84,3.87,7.59Z"/><path class="cls-28" d="m451.57,394.79c2.87,4.13,2.98,10.79,2.98,12.3,0,2.1-.26,8.51-2.98,12.34-1.47,2.1-4.35,3.57-7.44,3.57s-6.04-1.62-7.44-3.57c-2.76-3.87-2.98-10.39-2.98-12.34,0-1.55.11-8.14,2.98-12.3,1.99-2.87,5.63-3.57,7.44-3.57,2.36,0,5.67.99,7.44,3.57Zm-11.09,12.3c0,3.79.41,10.24,3.61,10.24,2.8,0,3.68-4.49,3.68-10.24,0-5.19-.77-10.2-3.65-10.2s-3.65,4.97-3.65,10.2Z"/><path class="cls-28" d="m478.82,420.3c0,2.87-1.36,3.62-3.6,3.62h-13.26c-2.27,0-3.62-.75-3.62-3.62v-15.92c0-2.84,1.35-3.59,3.62-3.59h13.26c2.24,0,3.6.75,3.6,3.59v15.92Zm-4.58-10.21v-4.32c0-.57-.44-.73-.73-.73h-9.82c-.65,0-.73.5-.73.73v4.32h11.28Zm-11.28,4.14v4.69c0,.26.11.73.73.73h9.82c.26,0,.73-.13.73-.73v-4.69h-11.28Z"/><path class="cls-28" d="m486.43,422.93c0,.47,0,1.85-1.85,1.85-1.56,0-2.11-.6-2.11-1.85v-19.07c0-2.55,1.2-3.26,3.26-3.26h4.64c2.03,0,3.23.7,3.23,3.26v3.99c0,2.55-1.2,3.26-3.23,3.26h-3.93v11.83Zm3.39-18.36v-.65c0-.23-.13-.39-.39-.39h-2.58c-.26,0-.42.16-.42.39v.65h3.39Zm-3.39,2.63v1.04h3c.26,0,.39-.16.39-.39v-.65h-3.39Zm4.66,15.11c-2.08,0-3.26-.7-3.26-3.23v-4.01c0-2.55,1.2-3.26,3.26-3.26h6.09c2.06,0,3.26.7,3.26,3.26v4.01c0,.62-.05.91-.1,1.2.99.03,1.09.03,1.3-.05.26-.08.26-.31.26-.68v-8.44h-4.01c-2.06,0-3.26-.73-3.26-3.26v-3.99c0-2.55,1.2-3.26,3.26-3.26h4.71c2.06,0,3.23.7,3.23,3.26v16.96c0,2.71-.34,3.78-4.3,3.78-2.84,0-4.32-.03-4.45-2.29h-5.99Zm.57-6.56h4.87v-.62c0-.26-.13-.42-.42-.42h-4.04c-.26,0-.42.16-.42.42v.62Zm0,2.37v.7c0,.23.16.39.42.39h4.04c.26,0,.42-.16.42-.39v-.7h-4.87Zm6.93-13.54h3.31v-.65c0-.23-.13-.39-.39-.39h-2.53c-.26,0-.39.16-.39.39v.65Zm3.31,2.63h-3.31v.65c0,.23.13.39.39.39h2.92v-1.04Z"/></g><path class="cls-28" d="m656.72,417.22v7.32c0,.76-.13,2.14-2.03,2.14-1.72,0-2.4-.6-2.4-2.14v-18.65c0-2.06.94-3.41,3.41-3.41h15.58c2.24,0,3.62.76,3.62,3.62v16.85c0,3.65-2.19,3.65-4.97,3.65-2.58,0-4.17,0-4.17-2.27,0-.5.1-1.25.6-1.75.42-.42.99-.52,1.59-.52.26,0,1.43.03,1.67.03.68,0,.88-.13.88-.81v-4.06h-13.78Zm4.71-4.14v-6.36h-3.98c-.47,0-.73.29-.73.7v5.65h4.71Zm4.3,0h4.77v-5.65c0-.42-.26-.7-.7-.7h-4.06v6.36Z"/><path class="cls-28" d="m152.75,400.56c.78-.88,1.34-1.13,1.98-1.13,1.55,0,2.58,1.48,2.58,2.37,0,.46-.14,1.06-.78,1.77l-5.97,6.96,6.29,7.28c.28.32.78.92.78,1.7,0,1.1-1.13,2.47-2.58,2.47-.81,0-1.45-.53-1.98-1.17l-5.69-6.57-5.69,6.57c-.32.35-.99,1.17-2.02,1.17-1.45,0-2.54-1.41-2.54-2.4,0-.85.49-1.45.74-1.77l6.29-7.28-5.97-6.96c-.39-.42-.78-1.02-.78-1.7,0-.99,1.03-2.44,2.62-2.44.46,0,1.06.07,1.98,1.13l5.37,6.25,5.37-6.25Z"/><path class="cls-28" d="m266.72,407.14c.3,0,1.75,0,1.75,1.72,0,1.22-.73,1.72-1.75,1.72h-21.25c-.33,0-1.79,0-1.79-1.69,0-1.36.83-1.75,1.79-1.75h21.25Zm-7.87-6.35c0,1.52-1.26,2.74-2.78,2.74s-2.78-1.22-2.78-2.74,1.26-2.78,2.78-2.78,2.78,1.22,2.78,2.78Zm0,16.13c0,1.55-1.26,2.78-2.78,2.78s-2.78-1.22-2.78-2.78,1.26-2.74,2.78-2.74,2.78,1.22,2.78,2.74Z"/><path class="cls-28" d="m396.94,402.91c.73-.83,1.26-1.06,1.85-1.06,1.46,0,2.41,1.39,2.41,2.21,0,.43-.13.99-.73,1.65l-5.58,6.51,5.88,6.81c.26.3.73.86.73,1.59,0,1.02-1.06,2.31-2.41,2.31-.76,0-1.36-.5-1.85-1.09l-5.32-6.15-5.32,6.15c-.3.33-.93,1.09-1.88,1.09-1.36,0-2.38-1.32-2.38-2.25,0-.79.46-1.35.7-1.65l5.88-6.81-5.59-6.51c-.36-.4-.73-.96-.73-1.59,0-.92.96-2.28,2.45-2.28.43,0,.99.07,1.85,1.06l5.02,5.85,5.02-5.85Z"/><path class="cls-28" d="m538.38,403.01c.3,0,1.75,0,1.75,1.69,0,1.29-.76,1.72-1.75,1.72h-21.25c-.53,0-1.79,0-1.79-1.69,0-1.32.83-1.72,1.79-1.72h21.25Zm0,8.3c.53,0,1.75,0,1.75,1.69,0,1.26-.73,1.72-1.75,1.72h-21.25c-.33,0-1.79,0-1.79-1.69,0-1.32.83-1.72,1.79-1.72h21.25Z"/><g><rect class="cls-6" x="2" y="42.64" width="730" height="153"/><path class="cls-26" d="m731.5,43.14v152H2.5V43.14h729m1-1H1.5v154h731V42.14h0Z"/></g><polygon class="cls-17" points="731.5 43.14 2.5 43.14 2.5 112.14 508.25 112.14 527.5 128.14 546.75 112.14 731.5 112.14 731.5 43.14"/><g><path class="cls-28" d="m261.64,71.62c-.42,0-1.36-.28-1.36-1.5s.64-1.31,2.31-1.61c1.72-.31,2.78-1.5,3.33-3.03.28-.78.5-1.42,1.7-1.42,1.03,0,1.61.67,1.61,1.28v20.51c0,.44,0,1.86-1.89,1.86-1.11,0-2-.36-2-1.86v-14.23h-3.7Z"/><path class="cls-28" d="m302.04,85.15c0,2.83-1.2,3.72-3.72,3.72h-13.67c-2.5,0-3.72-.86-3.72-3.72v-16.81c0-2.86,1.2-3.72,3.72-3.72h13.67c2.5,0,3.72.86,3.72,3.72v16.81Zm-3.67-10.25v-5.7c0-.75-.39-1.19-1.22-1.19h-11.36c-.7,0-1.2.33-1.2,1.19v5.7h13.78Zm-13.78,3.31v6.08c0,.81.44,1.22,1.2,1.22h11.36c.78,0,1.22-.42,1.22-1.22v-6.08h-13.78Z"/><path class="cls-28" d="m316.3,64.78c.08-.28.42-.94,1.61-.94s1.97.44,1.92,1.72c-.03.44-.06,1.11-.06,1.42,1.47-.03,4.53-.08,6.7-.19.39-.03,3.95-.22,4.58-.22.47,0,1.86,0,1.86,1.72,0,.72-.28,1.47-1.31,1.64-1.67.25-10.5.42-12,.44,0,.39-.03.56-.06,2,1.22-.19,2.45-.31,3.67-.31,7.03,0,10.45,3.7,10.45,8.45,0,2.64-1,5.42-4.2,7-2.61,1.28-5.61,1.28-5.7,1.28-.5,0-1.97,0-1.97-1.72,0-1.5.95-1.58,1.89-1.64,2.53-.19,6.28-.81,6.28-5.08,0-3.25-2.22-4.33-4.14-4.86-.75,1.86-2.58,5.58-4.97,8.25.31.56.47.95.47,1.42,0,.86-.83,1.75-1.89,1.75-.72,0-1.06-.42-1.22-.64-1.22,1-2.72,1.72-4.33,1.72-2.7,0-4.58-2.31-4.58-5.5,0-4.78,3.75-7.78,6.67-9.03.03-1,.03-2.36.06-3.03-.69.03-4.39.03-4.7,0-.53-.06-1.42-.31-1.42-1.7,0-1.69,1.25-1.69,2.67-1.69h3.56c.06-1.81.06-1.92.17-2.25Zm-.36,12.14c-.75.5-1.22.83-1.86,1.58-1.25,1.5-1.47,3.08-1.47,3.89,0,2.17,1.33,2.36,1.75,2.36.92,0,2-.94,2.53-1.42-.64-2.08-.86-4.11-.95-6.42Zm6.53-1.92c-.83,0-1.58.03-3,.36-.06,1.58-.06,2.67.22,4.7,1.44-1.94,2.19-3.61,2.78-5.06Z"/><path class="cls-28" d="m342.43,67.81c.08,0,2.56-.03,2.81-.03.11-.56.42-2.42.53-2.78.33-.92,1.22-.97,1.58-.97,1.28,0,1.94.53,1.94,1.58,0,.58-.17,1.5-.28,2.08,2-.06,4.64-.11,7.45-.22.36-.03,1.86-.11,2.17-.11.47,0,1.81.03,1.81,1.72s-1.19,1.7-1.86,1.72c-3.39.17-6.86.28-10.25.36-.7,3.17-.86,3.97-2.39,9-.58,1.97-2.08,6.5-2.7,7.59-.08.17-.47.89-1.47.89-.61,0-2.06-.33-2.06-1.67,0-.31.03-.61.64-1.95.67-1.44,2.86-6.89,4.28-13.81-.75.03-3.22.06-3.81-.08-.44-.11-.94-.58-.94-1.61,0-1.17.5-1.81,1.83-1.75l.72.03Zm20.42,20.34c-1.33.36-3.89.36-4.75.36-6.58,0-9.42-1.11-9.42-4.56,0-.81.31-3.22,2.45-3.22.67,0,1.7.31,1.7,1.22,0,.33-.11.58-.17.72-.22.53-.25.61-.25.89,0,.75.56,1.11,1.53,1.31.72.17,1.78.25,2.92.25,1.81,0,3.06-.14,4.78-.31.33-.03.5-.06.75-.06,1.17,0,1.67.64,1.67,1.64,0,.89-.36,1.53-1.19,1.75Zm-.2-11.09c-.36.25-.72.28-1.17.28-.19,0-1.28-.08-1.92-.11-.39-.03-.72-.03-1.33-.03-1.83,0-3.25.11-3.67.14-2.17.19-2.5.22-2.75.22-1.53,0-1.53-1.45-1.53-1.7,0-.86.42-1.45,1.61-1.7,1.81-.39,4.89-.5,6.81-.5,4.53,0,4.53.72,4.53,2.08,0,.36-.17,1-.58,1.31Z"/><path class="cls-28" d="m377.56,66.37c1.5-1.22,3.28-1.75,4.97-1.75,2.78,0,4.7,1.5,5.61,2.89,1.5,2.31,2.03,5.39,2.03,8.84,0,6.42-1.92,12.45-13.89,12.45-1.47,0-2.97,0-2.97-1.83,0-1.7,1.58-1.7,2.06-1.7,2.53,0,2.81,0,3.78-.14,5.2-.72,7.17-3.14,7.17-8.75,0-3.03-.33-8.36-4.2-8.36-2.72,0-4.7,2.31-5.5,3.39-1.75,2.33-2.36,4.61-2.36,6.75,0,.39.11,2.17.11,2.53,0,.56,0,1.81-1.78,1.81-.75,0-1.53-.14-1.75-1.2-.2-.92-.33-3.03-.33-4.14,0-4.22.53-10.09.97-11.78.14-.53.42-1.39,1.86-1.39s1.95.69,1.95,1.56c0,.39-.14,1.06-.22,1.47-.36,1.64-.44,2.36-.58,3.36.58-1.17,1.28-2.56,3.08-4Z"/><path class="cls-28" d="m402.8,84.31c-.88,1.42-1.83,2.17-3.16,2.17-2.33,0-3.61-2.39-3.61-5.24,0-5.48,4.08-8.39,8.6-8.39,5.48,0,7.67,3.57,7.67,7.49,0,.9,0,4-3.27,6.16-1.85,1.24-4.06,1.4-4.35,1.4-1.19,0-1.2-1.1-1.2-1.24,0-.93.67-1.04,1.33-1.13,1.44-.22,5.01-.77,5.01-5.35,0-2.95-1.6-4.9-4.4-5.08-.59,4.67-1.74,7.76-2.62,9.21Zm-1.76-8.35c-2.07,1.28-2.71,3.56-2.71,5.32s.7,2.69,1.42,2.69c.75,0,1.29-1.01,1.78-2.3.99-2.62,1.29-4.56,1.56-6.52-.41.11-1.18.29-2.05.81Z"/><path class="cls-28" d="m424.83,70.65h3.28c.47,0,1.7.03,1.7,1.56,0,1.22-.64,1.64-1.7,1.64h-3.22c1.36,2.45,2.83,4.22,3.14,4.53,1.53,1.56,1.53,1.58,1.53,2.14,0,.89-.64,1.97-1.58,1.97-.5,0-1-.39-1.7-1.36-.78-1.06-1.08-1.61-1.44-2.36v9.42c0,.44,0,1.53-1.56,1.53s-1.72-.67-1.72-1.53v-8.28c-1.19,2.28-2.33,3.61-2.72,4.06-.5.53-.83.81-1.42.81-1,0-1.78-1.03-1.78-1.95,0-.67.22-.86,1.72-2.47,1.45-1.53,3.06-4,4.08-6.5h-3.95c-.58,0-1.72-.08-1.72-1.53,0-1.14.5-1.67,1.72-1.67h4.06v-2.83c-1.44.17-2.61.31-3.56.31-1.14,0-1.69-.61-1.69-1.64,0-1.36.97-1.45,1.97-1.53.42-.03,2.33-.17,2.7-.19,3-.33,4.11-.56,6.36-1.08.25-.06.47-.06.64-.06,1.33,0,1.47,1.33,1.47,1.67,0,1.33-.78,1.45-4.61,2.08v3.28Zm9.47,11.36c0,.42,0,1.58-1.67,1.58-1.53,0-1.83-.67-1.83-1.58v-15.06c0-.39,0-1.58,1.67-1.58,1.42,0,1.83.56,1.83,1.58v15.06Zm6.7,3.97c0,.72-.03,2.45-1.5,3.11-.67.31-1.7.36-4.11.36-2,0-2.17-.06-2.42-.14-1-.33-1.06-1.5-1.06-1.86,0-1.75,1.14-1.75,1.75-1.75.39,0,2.2.11,2.56.11.94,0,1.31-.11,1.31-1v-19.9c0-.42,0-1.58,1.61-1.58,1.31,0,1.86.44,1.86,1.58v21.06Z"/><path class="cls-28" d="m451.76,82.37c0,.47-.36,2.31-1.53,4.61-.53,1.06-.89,1.67-1.83,1.67s-2-.61-2-1.53c0-.42.19-.78.67-1.64.5-.95.81-1.67,1.17-2.78.36-1.06.61-1.78,1.75-1.78.36,0,1.78.22,1.78,1.45Zm.08-2.39c-2,0-3-.69-3-3v-8.5c0-2.28.97-3,3-3h4.75c.11-.25.5-1.33.61-1.56.25-.53.83-.67,1.5-.67.53,0,2,.08,2,1.2,0,.19-.22.75-.33,1.03h6.61c2.03,0,3.03.7,3.03,3v8.5c0,2.31-1,3-3.03,3h-7.75c.89.53,2.03,1.33,2.42,1.61.56.42.89.72.89,1.36,0,.86-.67,1.78-1.72,1.78-.58,0-.89-.22-1.61-.78-.33-.28-1.92-1.33-2.25-1.58-.44-.33-.81-.64-.81-1.25,0-.42.17-.83.44-1.14h-4.75Zm.33-10.42h14.39v-.75c0-.39-.14-.67-.67-.67h-13.03c-.58,0-.7.33-.7.67v.75Zm14.39,2.39h-14.39v1.47h14.39v-1.47Zm-14.39,3.83v.92c0,.44.19.67.7.67h13.03c.47,0,.67-.22.67-.67v-.92h-14.39Zm4.17,9.59c0,.64.28.81.75.81h3.86c1.58,0,1.7,0,1.92-1.14.14-.75.25-1.44,1.44-1.44,1.11,0,2.06.47,2.06,1.7,0,.72-.36,2.58-1.22,3.36-.69.64-1.5.7-4.06.7-1.08,0-5.61-.03-6.34-.14-.47-.05-1.89-.5-1.89-2.36v-3.47c0-.44,0-1.53,1.67-1.53s1.81.81,1.81,1.53v2Zm14.14-2.58c.25.39,2,3.22,2,3.95,0,1.14-1.11,1.7-1.95,1.7-.89,0-1-.28-1.83-1.78-.14-.28-1.31-2.45-1.89-3.28-.53-.75-.53-.97-.53-1.19,0-1.17,1.39-1.61,1.89-1.61.83,0,1.08.33,2.31,2.22Z"/></g><g><path class="cls-28" d="m200.53,151.45c0,.07,0,.12-.02.26h7.1c1.09,0,3.33.07,3.33,3.24,0,.48-.24,7.8-1.09,10.19-.89,2.58-2.39,2.58-5.12,2.58-2.34,0-2.87-.02-3.33-.56-.39-.41-.53-1.09-.53-1.64,0-1.98,1.42-1.98,1.83-1.98.27,0,1.5.07,1.74.07,1.16,0,1.52-.53,1.86-2.95.1-.8.31-3.69.31-4.44,0-.39-.19-.68-.65-.68h-5.84c-.46,2.73-1.52,7.27-5.29,10.69-1.52,1.38-1.96,1.38-2.32,1.38-1.42,0-2.39-1.45-2.39-2.56,0-.68.34-1.01,1.01-1.52,4.83-3.65,5.24-8.76,5.24-12.21v-2h-4.47c-.48,0-1.98,0-1.98-1.83,0-1.52.63-2.1,1.98-2.1h19.09c.48,0,1.98.02,1.98,1.86,0,1.5-.63,2.08-1.98,2.08h-10.43l-.05,2.12Z"/><path class="cls-28" d="m219.25,159.03v6.78c0,.7-.12,1.98-1.88,1.98-1.59,0-2.22-.55-2.22-1.98v-17.28c0-1.91.87-3.16,3.16-3.16h14.43c2.08,0,3.36.7,3.36,3.36v15.62c0,3.38-2.03,3.38-4.61,3.38-2.39,0-3.86,0-3.86-2.1,0-.46.1-1.16.56-1.62.39-.39.92-.48,1.47-.48.24,0,1.33.02,1.54.02.63,0,.82-.12.82-.75v-3.77h-12.77Zm4.37-3.84v-5.89h-3.69c-.43,0-.68.26-.68.65v5.24h4.37Zm3.98,0h4.42v-5.24c0-.39-.24-.65-.65-.65h-3.77v5.89Z"/><path class="cls-28" d="m167.18,142.19c.38-3.6,2.1-4.02,4.47-4.02h10.4c.6,0,2.93,0,2.93,2.63s-2.21,2.67-2.93,2.67h-8.6c-.71,0-1.28.38-1.35,1.16l-.49,4.95c.79-.53,2.1-1.35,4.84-1.35,5.52,0,9.68,3.98,9.68,10.17,0,7.58-4.92,11.19-10.77,11.19-8.11,0-10.47-6.04-10.47-7.77,0-2.06,1.65-2.59,2.89-2.59.83,0,2.44,0,3.12,1.91.41,1.16,1.09,3.15,4.24,3.15,4.05,0,4.66-3.42,4.66-5.56,0-3-1.43-5.22-4.58-5.22-2.18,0-2.93.79-3.83,1.73-.23.22-1.05,1.01-2.55,1.01-1.61,0-3.04-.6-2.82-2.7l1.16-11.37Z"/></g><g><path class="cls-18" d="m506.32,169.86c-3.71,0-3.92-3.14-3.92-3.75,0-4.67,6.06-9.38,9.03-11.51,5.93-4.32,7.85-5.71,7.85-9.81,0-3.23-1.66-5.28-4.58-5.28-4.36,0-4.67,4.1-4.75,4.97-.09,1.26-.31,3.27-3.49,3.27-.79,0-3.75-.22-3.75-3.45,0-2.96,2.27-10.95,11.91-10.95,7.24,0,11.99,4.8,11.99,11.86,0,6.5-3.58,9.07-9.42,13.26-.61.44-4.93,3.53-4.93,4.67,0,.52.74.57,1.05.57h9.99c.7,0,3.4,0,3.4,3.05s-2.57,3.1-3.4,3.1h-16.96Z"/><path class="cls-18" d="m534.27,162.66c-2.49,0-4.1-1.96-4.1-4.41,0-1.48.48-2.66.92-3.36l11.29-18.62c1.4-2.31,3.36-2.92,4.88-2.92,3.14,0,4.23,2.18,4.23,3.71v19.45c1.53,0,3.92,0,3.92,3.05s-2.27,3.1-3.92,3.1v4.71c0,1.48-.35,3.44-3.53,3.44-2.27,0-3.79-.65-3.79-3.44v-4.71h-9.9Zm9.9-6.15v-11.86c0-.17-.09-.7-.57-.7-.26,0-.48.17-.61.39l-6.67,10.95c-.09.17-.22.39-.22.61,0,.17,0,.61.7.61h7.37Z"/></g><g><path class="cls-28" d="m274.57,148.8c-1.3,0-2.18-.99-2.18-2.42,0-2.01,1.33-2.18,2.46-2.36.75-.1,3.14-.41,4.34-3.45.48-1.26.82-2.15,2.73-2.15s2.59,1.13,2.59,1.95v24.61c0,1.47-.44,2.94-3.04,2.94-1.98,0-3.28-.55-3.28-2.94v-16.18h-3.62Z"/><path class="cls-28" d="m293.71,146.24c0-5.33,4.88-7.78,8.84-7.78s8.84,2.46,8.84,7.78c0,2.73-1.33,4.68-2.87,5.6,1.13.55,3.69,2.29,3.69,6.76,0,5.8-3.96,9.32-9.66,9.32s-9.66-3.52-9.66-9.32c0-4.54,2.63-6.25,3.69-6.76-1.54-.92-2.87-2.87-2.87-5.6Zm5.46,12.39c0,2.97,1.64,4.03,3.38,4.03,2.29,0,3.38-1.6,3.38-4.13,0-2.22-1.19-3.75-3.38-3.75-1.84,0-3.38,1.09-3.38,3.86Zm.58-11.78c0,2.29,1.57,3.04,2.8,3.04,1.13,0,2.8-.61,2.8-3.07,0-.96-.27-3.11-2.8-3.11s-2.8,2.12-2.8,3.14Z"/><path class="cls-28" d="m324,151.64c0,3.34-1.47,5.8-4.79,5.8-3.62,0-4.79-2.86-4.79-5.8s1.27-5.77,4.79-5.77c3.85,0,4.79,3.24,4.79,5.77Zm-6.28,0c0,2.41.56,3.32,1.49,3.32s1.49-.89,1.49-3.32-.56-3.32-1.49-3.32-1.49.89-1.49,3.32Zm4.76,15.27c-.28.51-.68.81-1.27.81-.81,0-1.42-.71-1.42-1.32,0-.25.03-.48.18-.73l10.59-19.02c.25-.48.66-.79,1.27-.79.81,0,1.39.71,1.39,1.29,0,.25-.03.51-.15.74l-10.59,19.02Zm16.13-4.99c0,3.34-1.49,5.8-4.81,5.8-3.6,0-4.79-2.86-4.79-5.8s1.27-5.8,4.79-5.8c3.88,0,4.81,3.24,4.81,5.8Zm-6.31,0c0,2.41.56,3.32,1.49,3.32s1.49-.91,1.49-3.32-.56-3.32-1.49-3.32-1.49.86-1.49,3.32Z"/></g><g><path class="cls-28" d="m397.39,159.08c0,1.88-.58,8.84-9.62,8.84-3.21,0-5.91-.68-7.82-3-1.19-1.5-1.88-3.41-1.88-4.95,0-1.3.72-2.63,2.97-2.63,1.47,0,2.8.44,3.04,1.95.2,1.43.51,3.38,3.41,3.38,2.01,0,3.62-.99,3.62-3.62,0-.96,0-3.96-3.65-3.96-1.16,0-2.8,0-2.8-2.36s1.67-2.39,2.8-2.39c1.84,0,2.83-1.19,2.83-3.55,0-1.71-.85-3.07-2.73-3.07-1.54,0-2.76.41-3.11,2.76-.1.82-.34,2.32-2.9,2.32-1.6,0-2.97-.65-2.97-2.59,0-2.22,1.88-7.75,8.91-7.75,5.67,0,9.04,3.38,9.04,8.12,0,.61,0,3.69-2.73,5.46.89.65,3.58,2.63,3.58,7.03Z"/><path class="cls-28" d="m411.04,148.5c5.67,0,8.46,4.54,8.46,9.39,0,5.73-3.65,10.04-9.35,10.04-3.28,0-5.77-1.6-7.13-3.38-1.54-1.98-2.83-4.61-2.83-10.51,0-4.78.68-15.6,10.38-15.6,5.97,0,8.57,4.2,8.57,6.38,0,.68-.44,2.53-3.04,2.53-2.22,0-2.56-.85-3.11-2.25-.41-1.06-1.47-1.4-2.42-1.4-2.66,0-3.69,2.53-3.86,6.35.61-.55,1.77-1.54,4.33-1.54Zm-4.51,9.59c0,3.75,2.08,4.57,3.24,4.57s3.28-.79,3.28-4.57-2.08-4.54-3.28-4.54c-1.09,0-3.24.79-3.24,4.54Z"/><path class="cls-28" d="m424.35,143c.34-3.48,1.98-3.82,4.2-3.82h9.15c.65,0,2.94.03,2.94,2.63s-2.15,2.66-2.94,2.66h-7.37c-.82,0-1.06.58-1.09.96l-.41,3.96c.55-.34,1.77-1.09,4.16-1.09,4.57,0,8.64,3.38,8.64,9.22,0,7.61-5.09,10.41-9.83,10.41-7.1,0-9.49-5.26-9.49-7.07,0-1.91,1.4-2.56,2.87-2.56,1.02,0,2.49.17,3.07,1.78.31.89.92,2.59,3.38,2.59,3.58,0,3.72-3.55,3.72-4.78,0-2.87-1.5-4.33-3.62-4.33-1.74,0-2.42.72-3.17,1.47-.2.2-.96.96-2.46.96-.89,0-3.04-.17-2.8-2.66l1.06-10.31Z"/><path class="cls-28" d="m464.12,165.4c0,2.66-1.26,3.35-3.33,3.35h-12.29c-2.1,0-3.36-.7-3.36-3.35v-14.75c0-2.63,1.25-3.33,3.36-3.33h12.29c2.08,0,3.33.7,3.33,3.33v14.75Zm-4.25-9.46v-4.01c0-.53-.41-.68-.68-.68h-9.1c-.6,0-.68.46-.68.68v4.01h10.45Zm-10.45,3.84v4.34c0,.24.1.68.68.68h9.1c.24,0,.68-.12.68-.68v-4.34h-10.45Z"/></g><path class="cls-28" d="m564.4,162.55v6.78c0,.7-.12,1.98-1.88,1.98-1.59,0-2.22-.55-2.22-1.98v-17.28c0-1.91.87-3.16,3.16-3.16h14.43c2.08,0,3.36.7,3.36,3.36v15.62c0,3.38-2.03,3.38-4.61,3.38-2.39,0-3.86,0-3.86-2.1,0-.46.1-1.16.56-1.62.39-.39.92-.48,1.47-.48.24,0,1.33.02,1.54.02.63,0,.82-.12.82-.75v-3.77h-12.77Zm4.37-3.84v-5.89h-3.69c-.43,0-.68.26-.68.65v5.24h4.37Zm3.98,0h4.42v-5.24c0-.39-.24-.65-.65-.65h-3.77v5.89Z"/><path class="cls-28" d="m260.29,147.11c.72-.82,1.25-1.05,1.83-1.05,1.44,0,2.39,1.38,2.39,2.2,0,.43-.13.98-.72,1.64l-5.54,6.45,5.83,6.75c.26.29.72.85.72,1.57,0,1.02-1.05,2.29-2.39,2.29-.75,0-1.34-.49-1.83-1.08l-5.27-6.09-5.27,6.09c-.29.33-.92,1.08-1.87,1.08-1.34,0-2.36-1.31-2.36-2.23,0-.79.46-1.34.69-1.64l5.83-6.75-5.54-6.45c-.36-.39-.72-.95-.72-1.57,0-.92.95-2.26,2.42-2.26.43,0,.98.07,1.83,1.05l4.98,5.8,4.98-5.8Z"/><path class="cls-28" d="m365.91,153.21c.28,0,1.62,0,1.62,1.59,0,1.13-.67,1.59-1.62,1.59h-19.69c-.31,0-1.65,0-1.65-1.56,0-1.26.77-1.62,1.65-1.62h19.69Zm-7.29-5.88c0,1.41-1.16,2.54-2.57,2.54s-2.57-1.13-2.57-2.54,1.16-2.57,2.57-2.57,2.57,1.13,2.57,2.57Zm0,14.94c0,1.44-1.16,2.57-2.57,2.57s-2.57-1.13-2.57-2.57,1.16-2.54,2.57-2.54,2.57,1.13,2.57,2.54Z"/><path class="cls-28" d="m494.42,149.38c.28,0,1.62,0,1.62,1.56,0,1.19-.7,1.59-1.62,1.59h-19.69c-.49,0-1.65,0-1.65-1.56,0-1.22.77-1.59,1.65-1.59h19.69Zm0,7.69c.49,0,1.62,0,1.62,1.56,0,1.16-.67,1.59-1.62,1.59h-19.69c-.31,0-1.65,0-1.65-1.56,0-1.22.77-1.59,1.65-1.59h19.69Z"/><rect class="cls-18" x="2.5" y="290.14" width="729" height="69"/><rect class="cls-6" x="365" y="310.14" width="128" height="29" rx="14.5" ry="14.5"/><g><path class="cls-6" d="m253.31,327.29c-.12,1.5-.45,4.95-2.34,7.95-.93,1.47-1.35,1.68-2.16,1.68-1.26,0-2.34-.99-2.34-1.89,0-.54.24-.96.69-1.68,1.41-2.22,2.7-5.01,2.7-10.29v-9.81c0-2.94,1.29-3.75,3.72-3.75h13.59c2.37,0,3.72.78,3.72,3.75v19.59c0,.72,0,2.73-1.68,3.39-.9.36-1.77.36-4.38.36-1.05,0-2.67,0-3.12-.15-1.05-.36-1.2-1.41-1.2-1.95,0-1.86,1.29-1.86,1.83-1.86.51,0,2.7.09,3.15.09.81,0,1.56-.06,1.56-1.14v-4.29h-13.74Zm13.74-10.5v-2.43c0-.72-.36-1.11-1.11-1.11h-11.19c-.78,0-1.11.39-1.11,1.11v2.43h13.41Zm-13.41,3.45v3.6h13.41v-3.6h-13.41Z"/><path class="cls-6" d="m284.52,331.31c-.88,1.42-1.83,2.17-3.16,2.17-2.33,0-3.61-2.39-3.61-5.24,0-5.48,4.08-8.39,8.6-8.39,5.48,0,7.67,3.57,7.67,7.49,0,.9,0,4-3.27,6.16-1.85,1.24-4.06,1.4-4.35,1.4-1.19,0-1.2-1.1-1.2-1.24,0-.93.67-1.04,1.33-1.13,1.44-.22,5.01-.77,5.01-5.35,0-2.95-1.6-4.9-4.4-5.08-.59,4.67-1.74,7.76-2.62,9.21Zm-1.76-8.35c-2.07,1.28-2.71,3.56-2.71,5.32s.7,2.69,1.42,2.69c.75,0,1.29-1.01,1.78-2.3.99-2.62,1.29-4.56,1.56-6.52-.41.11-1.18.29-2.05.81Z"/><path class="cls-6" d="m306.54,317.65h3.28c.47,0,1.7.03,1.7,1.56,0,1.22-.64,1.64-1.7,1.64h-3.22c1.36,2.45,2.83,4.22,3.14,4.53,1.53,1.56,1.53,1.58,1.53,2.14,0,.89-.64,1.97-1.58,1.97-.5,0-1-.39-1.7-1.36-.78-1.06-1.08-1.61-1.44-2.36v9.42c0,.44,0,1.53-1.56,1.53s-1.72-.67-1.72-1.53v-8.28c-1.19,2.28-2.33,3.61-2.72,4.06-.5.53-.83.81-1.42.81-1,0-1.78-1.03-1.78-1.95,0-.67.22-.86,1.72-2.47,1.45-1.53,3.06-4,4.08-6.5h-3.95c-.58,0-1.72-.08-1.72-1.53,0-1.14.5-1.67,1.72-1.67h4.06v-2.83c-1.44.17-2.61.31-3.56.31-1.14,0-1.69-.61-1.69-1.64,0-1.36.97-1.45,1.97-1.53.42-.03,2.33-.17,2.7-.19,3-.33,4.11-.56,6.36-1.08.25-.06.47-.06.64-.06,1.33,0,1.47,1.33,1.47,1.67,0,1.33-.78,1.45-4.61,2.08v3.28Zm9.47,11.36c0,.42,0,1.58-1.67,1.58-1.53,0-1.83-.67-1.83-1.58v-15.06c0-.39,0-1.58,1.67-1.58,1.42,0,1.83.56,1.83,1.58v15.06Zm6.7,3.97c0,.72-.03,2.45-1.5,3.11-.67.31-1.7.36-4.11.36-2,0-2.17-.06-2.42-.14-1-.33-1.06-1.5-1.06-1.86,0-1.75,1.14-1.75,1.75-1.75.39,0,2.2.11,2.56.11.94,0,1.31-.11,1.31-1v-19.9c0-.42,0-1.58,1.61-1.58,1.31,0,1.86.44,1.86,1.58v21.06Z"/><path class="cls-6" d="m333.48,329.37c0,.47-.36,2.31-1.53,4.61-.53,1.06-.89,1.67-1.83,1.67s-2-.61-2-1.53c0-.42.19-.78.67-1.64.5-.95.81-1.67,1.17-2.78.36-1.06.61-1.78,1.75-1.78.36,0,1.78.22,1.78,1.45Zm.08-2.39c-2,0-3-.69-3-3v-8.5c0-2.28.97-3,3-3h4.75c.11-.25.5-1.33.61-1.56.25-.53.83-.67,1.5-.67.53,0,2,.08,2,1.2,0,.19-.22.75-.33,1.03h6.61c2.03,0,3.03.7,3.03,3v8.5c0,2.31-1,3-3.03,3h-7.75c.89.53,2.03,1.33,2.42,1.61.56.42.89.72.89,1.36,0,.86-.67,1.78-1.72,1.78-.58,0-.89-.22-1.61-.78-.33-.28-1.92-1.33-2.25-1.58-.44-.33-.81-.64-.81-1.25,0-.42.17-.83.44-1.14h-4.75Zm.33-10.42h14.39v-.75c0-.39-.14-.67-.67-.67h-13.03c-.58,0-.7.33-.7.67v.75Zm14.39,2.39h-14.39v1.47h14.39v-1.47Zm-14.39,3.83v.92c0,.44.19.67.7.67h13.03c.47,0,.67-.22.67-.67v-.92h-14.39Zm4.17,9.59c0,.64.28.81.75.81h3.86c1.58,0,1.7,0,1.92-1.14.14-.75.25-1.44,1.44-1.44,1.11,0,2.06.47,2.06,1.7,0,.72-.36,2.58-1.22,3.36-.69.64-1.5.7-4.06.7-1.08,0-5.61-.03-6.34-.14-.47-.05-1.89-.5-1.89-2.36v-3.47c0-.44,0-1.53,1.67-1.53s1.81.81,1.81,1.53v2Zm14.14-2.58c.25.39,2,3.22,2,3.95,0,1.14-1.11,1.7-1.95,1.7-.89,0-1-.28-1.83-1.78-.14-.28-1.31-2.45-1.89-3.28-.53-.75-.53-.97-.53-1.19,0-1.17,1.39-1.61,1.89-1.61.83,0,1.08.33,2.31,2.22Z"/></g><g><path class="cls-20" d="m376.33,324.79c-.85,0-.91-.63-.91-.87,0-.35.13-.89.91-.89h.45c1.24,0,2.26-.71,2.26-2.43,0-1.19-.67-2.3-2.32-2.3-2.02,0-2.36,1.5-2.49,2.17-.07.46-.17.98-1.06.98-.61,0-1.09-.3-1.09-.98,0-.76.72-4.06,4.69-4.06,3.14,0,4.49,2.08,4.49,4.12,0,2.15-1.34,2.86-1.86,3.14,1.02.63,2.38,1.45,2.38,3.82s-1.45,4.6-4.97,4.6c-2.76,0-3.8-1.19-4.3-1.91-.54-.82-.82-1.74-.82-2.3,0-.63.39-1.04,1.08-1.04.96,0,1.06.54,1.19,1.34.13.71.87,2.04,2.76,2.04.91,0,2.84-.43,2.84-2.75,0-1.61-.83-2.67-2.76-2.67h-.46Z"/><path class="cls-20" d="m393.47,324.25c0,1.39-.13,4.4-1.47,6.16-.8,1.06-2.17,1.67-3.58,1.67-1.54,0-2.88-.72-3.58-1.67-1.28-1.74-1.47-4.49-1.47-6.16,0-2.86.48-7.85,5.05-7.85s5.03,5.01,5.05,7.85Zm-7.87,0c0,2.78.3,5.96,2.82,5.96s2.82-3.34,2.82-5.96-.3-5.96-2.82-5.96-2.82,3.17-2.82,5.96Z"/><path class="cls-20" d="m410.15,330.41c0,1.87-.76,2.45-2.45,2.45h-8.98c-1.69,0-2.45-.58-2.45-2.45v-11.17c0-1.82.71-2.45,2.45-2.45h8.98c1.73,0,2.45.61,2.45,2.45v11.17Zm-2.06-6.64v-4.14c0-.67-.35-.95-.95-.95h-7.89c-.5,0-.95.2-.95.95v4.14h9.78Zm-9.78,1.87v4.4c0,.69.39.95.95.95h7.89c.61,0,.95-.32.95-.95v-4.4h-9.78Z"/><path class="cls-20" d="m415.29,332.47c0,.22,0,.89-.87.89-.74,0-.96-.32-.96-.89v-14.12c0-1.39.56-1.87,1.86-1.87h3.51c1.28,0,1.87.45,1.87,1.87v3.08c0,1.39-.58,1.87-1.87,1.87h-3.53v9.17Zm3.62-13.34v-.63c0-.28-.11-.52-.5-.52h-2.6c-.43,0-.52.26-.52.52v.63h3.62Zm-3.62,1.41v1.26h3.1c.39,0,.52-.2.52-.52v-.74h-3.62Zm10.41,8.87c0,1.43-.59,1.87-1.86,1.87h-4.88c-1.28,0-1.87-.45-1.87-1.87v-3.32c0-1.41.58-1.87,1.87-1.87h4.88c1.28,0,1.86.46,1.86,1.87v3.32Zm-6.85-2.41h5.07v-.85c0-.33-.15-.52-.52-.52h-4.03c-.3,0-.52.13-.52.52v.85Zm0,1.32v.96c0,.35.19.52.52.52h4.03c.37,0,.52-.19.52-.52v-.96h-5.07Zm5.16-5.01c-1.32,0-1.87-.48-1.87-1.87v-3.08c0-1.41.58-1.87,1.87-1.87h3.49c1.35,0,1.87.52,1.87,1.87v12.78c0,1.73-.52,2.04-2.43,2.04s-1.95-.06-2.12-.13c-.24-.11-.54-.41-.54-.95,0-.89.63-.89.87-.89.26,0,1.43.04,1.67.04.5,0,.74-.06.74-.63v-7.31h-3.56Zm-.06-4.17h3.62v-.63c0-.33-.17-.52-.52-.52h-2.58c-.37,0-.52.2-.52.52v.63Zm3.62,1.41h-3.62v.74c0,.3.13.52.52.52h3.1v-1.26Z"/><path class="cls-28" d="m433.9,319.58c-.2.02-1.09.11-1.28.11-.24,0-.83,0-.83-.89,0-.8.43-.83,1.8-.89,6.81-.28,10.95-.46,12.97-.46.87,0,1.45,0,1.45.82s-.54.85-1.48.85c-1.5,0-2.62.13-4.53,1.26-2,1.19-4.58,3.32-4.56,6.35,0,2.52,1.65,3.97,6.42,3.97,1.74,0,2.26,0,2.26.78,0,.96-.76.96-1.48.96-2.67,0-5.05-.41-6.66-1.32-1.73-.98-2.28-2.84-2.28-4.27,0-1.82.72-3.79,3.01-5.81,1.09-.98,1.93-1.43,2.82-1.91-2.34.09-5.07.28-7.61.45Zm9.78,2.5c-.04-.09-.07-.2-.07-.28,0-.32.33-.48.58-.48s.33.07.78.72c.24.35.85,1.41.85,1.73,0,.35-.41.52-.61.52-.17,0-.32-.11-.37-.17-.02-.02-.52-.96-.58-1.06-.09-.17-.5-.83-.58-.98Zm2.12-.72c-.07-.13-.15-.28-.15-.43,0-.28.28-.48.54-.48.28,0,.39.15.72.63.3.41.93,1.37.93,1.74,0,.39-.43.52-.61.52-.13,0-.33-.07-.45-.26-.15-.26-.35-.67-.5-.93-.07-.13-.41-.67-.48-.8Z"/><path class="cls-28" d="m466.52,331.43c.28,0,.74.09.74.69,0,.78-.61.78-.78.78h-8.35c-1.17,0-3.67-.11-4.92-2.34-.11.13-1.56,1.86-2.06,2.3-.09.09-.32.22-.54.22-.45,0-.78-.45-.78-.87,0-.22.15-.45.3-.58,1.28-1.19,1.37-1.28,2.1-2.17v-4.21c0-.22-.02-.63-.59-.63h-1.02c-.46,0-.74-.24-.74-.72,0-.63.46-.71.78-.71h1.35c1.34,0,1.74.35,1.74,1.74v3.51c.09,1.02.52,1.78,1.39,2.34.46.3,1.17.65,2.8.65h8.57Zm-13.97-14.31c.13.11,1.13.93,1.61,1.47.22.22.24.41.24.52,0,.43-.39.82-.82.82-.26,0-.39-.07-1.08-.74-.74-.71-.83-.8-1.78-1.58-.32-.26-.45-.35-.45-.65,0-.45.39-.78.76-.78.33,0,1,.54,1.5.95Zm4.95,4.51v1.22c0,2.95-.52,5.05-1,6.31-.26.69-.45,1-.85,1-.35,0-.91-.28-.91-.82,0-.06,0-.15.13-.45.85-1.87,1.13-3.9,1.13-6.22v-4.03c0-1.56.59-2.04,2.04-2.04h8.13c.2,0,.78,0,.78.69s-.58.71-.78.71h-7.83c-.61,0-.83.32-.83.83v1.45h6.74c.71,0,1.8.02,1.8,1.32,0,1.02-.93,3.36-2.91,5.46.91.71,1.93,1.28,3.32,1.76.35.13.56.26.56.63,0,.22-.15.89-.78.89-.06,0-1.76-.33-4.17-2.3-1.24,1-3.27,2.3-3.86,2.3-.48,0-.74-.52-.74-.83,0-.37.28-.52.5-.63,1.91-.95,2.54-1.41,3.08-1.82-1.82-1.93-2.54-3.75-2.54-4.17,0-.39.41-.63.8-.63.35,0,.5.22.63.52.74,1.61,1.41,2.5,2.17,3.34,1.82-1.87,2.41-3.88,2.41-4.12,0-.35-.32-.37-.58-.37h-6.42Z"/><path class="cls-28" d="m470.38,321.73c.26.19.89.61,1.37,1,.24.2.32.35.32.56,0,.39-.33.89-.78.89-.24,0-.32-.06-.89-.54-.45-.37-.96-.71-1.47-1.02-.2-.13-.48-.32-.48-.61s.24-.74.69-.82c.22-.04.45.02,1.24.54Zm1.58,7.09c-.28.63-1.22,2.65-1.91,3.73-.24.35-.46.43-.67.43-.46,0-.87-.41-.87-.82,0-.15.06-.3.24-.58,1-1.5,1.24-1.93,2.41-4.66.09-.2.24-.48.65-.48s.76.37.76.63c0,.37-.13.71-.61,1.74Zm-.04-11.63c.71.45.89.65.89.96,0,.39-.3.89-.74.89-.24,0-.32-.07-1.08-.59-.2-.15-1.22-.8-1.41-.93-.28-.19-.41-.35-.41-.61,0-.3.24-.78.76-.78.33,0,1.52.76,1.99,1.06Zm12.95.3c.22,0,.71,0,.71.69s-.5.67-.69.67h-1.24c-.78,1.28-1.63,2.25-2.89,3.14,1.11.43,2.13.69,4.06,1.02.48.07.82.2.82.69,0,.35-.19.87-.71.87-.3,0-3.08-.5-5.58-1.73-.76.37-1.5.72-3.02,1.13-1.26.33-2.58.52-2.88.52-.65,0-.67-.71-.67-.8,0-.56.41-.61.72-.65,1.82-.2,3.15-.5,4.42-1.06-1-.72-2.02-1.8-2.73-3.14h-1.32c-.2,0-.72,0-.72-.67s.52-.69.72-.69h4.71v-.95c0-.5.35-.63.83-.63.41,0,.74.17.74.65v.93h4.71Zm-2.36,7.85v-.46c0-.37.3-.52.74-.52.69,0,.82.3.82.72v7.55c0,.22-.02.76-.74.76-.58,0-.82-.2-.82-.76v-3.02h-6.59c-.26,1.04-.61,2.06-1.22,2.93-.46.67-.69.74-.93.74-.39,0-.89-.32-.89-.8,0-.2.02-.22.56-.98,1.22-1.73,1.22-3.53,1.22-4.23v-2.19c0-.2,0-.72.76-.72s.76.5.76.72v.26h6.33Zm-6.33,1.24v.76c0,.33-.02.65-.06.98h6.38v-1.74h-6.33Zm.59-7.74c.61.96,1.37,1.74,2.52,2.43,1.17-.71,1.91-1.43,2.63-2.43h-5.16Z"/></g><path class="cls-18" d="m384.79,245.89h0c-2.43-2.43-6.36-2.43-8.79,0l-4.85,4.85v-37.05h-12.43v37.83l-5.62-5.63c-2.43-2.43-6.36-2.43-8.79,0h0c-2.43,2.43-2.43,6.36,0,8.79l15.38,15.38c1.33,1.33,3.12,1.93,4.86,1.8,1.74.13,3.53-.47,4.86-1.8l15.38-15.38c2.43-2.43,2.43-6.36,0-8.79Z"/><path class="cls-26" d="m445.79,245.89h0c-2.43-2.43-6.36-2.43-8.79,0l-4.85,4.85v-37.05h-12.43v37.83l-5.62-5.63c-2.43-2.43-6.36-2.43-8.79,0h0c-2.43,2.43-2.43,6.36,0,8.79l15.38,15.38c1.33,1.33,3.12,1.93,4.86,1.8,1.74.13,3.53-.47,4.86-1.8l15.38-15.38c2.43-2.43,2.43-6.36,0-8.79Z"/><path class="cls-26" d="m321.79,245.89h0c-2.43-2.43-6.36-2.43-8.79,0l-4.85,4.85v-37.05h-12.43v37.83l-5.62-5.63c-2.43-2.43-6.36-2.43-8.79,0h0c-2.43,2.43-2.43,6.36,0,8.79l15.38,15.38c1.33,1.33,3.12,1.93,4.86,1.8,1.74.13,3.53-.47,4.86-1.8l15.38-15.38c2.43-2.43,2.43-6.36,0-8.79Z"/><polygon class="cls-24" points="622.5 375.14 644.15 357.14 600.85 357.14 622.5 375.14"/><polygon class="cls-25" points="663.09 359.14 581.91 359.14 552 288.14 693 288.14 663.09 359.14"/><polygon class="cls-24" points="652 359.14 593 359.14 571.26 288.14 673.74 288.14 652 359.14"/><g class="cls-14"><g><g><path class="cls-30" d="m571.9,294.77l-24.26,30.61-24.26-30.61s-3.5,26.6.54,30.21c4.04,3.61,9.88,5.18,9.88,5.18l1.27-1.44s-.21,1,4.74,2.59c1.75.56,13.93.56,15.68,0,4.94-1.59,4.74-2.59,4.74-2.59l1.27,1.44s5.84-1.57,9.88-5.18c4.04-3.61.54-30.21.54-30.21Z"/><g><path class="cls-15" d="m554.66,330.85c.01-.05.04-.11.05-.16.2-.92-.29-1.08-1.54-1.34-1.06-.49-2.27-.58-2.27-.58l.1-5.06-3.36.27-3.36-.27.1,5.06s-1.21.09-2.27.58c-1.25.25-1.75.42-1.54,1.34.01.05.03.11.05.16-.09.31-.12.66-.04,1.07.54,2.71,3.87,5.41,6.77,5.66.06,0,.12.02.18.02.04,0,.08,0,.12,0,.04,0,.08,0,.12,0,.05,0,.12-.02.18-.02,2.89-.25,6.23-2.95,6.77-5.66.08-.41.05-.76-.04-1.07Z"/><polygon class="cls-16" points="544.47 324.57 550.17 324.75 550.17 328.93 544.47 324.57"/></g><path class="cls-21" d="m547.73,280.23s-.06,0-.09,0c-.03,0-.06,0-.09,0-22.97,0-22.59,25.84-22.59,25.84,0,0,0,.02,0,.03.08.63,2.71,19.17,20.97,20.29.17,0,.34.01.51.02.31.01.62.03.94.04.09,0,.17,0,.26,0,.09,0,.17,0,.26,0,.32,0,.63-.02.94-.04.17,0,.34,0,.51-.02,18.26-1.12,20.89-19.65,20.97-20.29,0-.01,0-.03,0-.03,0,0,.38-25.84-22.59-25.84Z"/><g><path class="cls-22" d="m533.75,294.18l3.15-1.64s4.16,6.58,13.27,6.84c0,0,18.1,4.55,18.58,5.25.48.7-1.64-10.28-10.87-14.43-9.22-4.15-24.96-11.15-24.13,3.98Z"/><path class="cls-30" d="m568.66,282.76c-6.7-7.1-15.22-8.57-21.02-8.61-5.8.04-14.32,1.52-21.02,8.61-4.35,4.6-5.72,10.25-5.89,15.16.08,3.27.81,6.91,2.41,10.98l2.73,1.28,1.9-.7c5.44-3.29,8.38-22.04,8.38-22.04,0,0,1.53,8.67,14.03,10.88,0,0,14.72,2.25,16.49,5,1.15,1.8,1.75,6.47,1.14,7.61l1.61-.75,2.73-1.28c1.6-4.06,2.33-7.71,2.41-10.98-.17-4.91-1.55-10.56-5.89-15.16Z"/><path class="cls-31" d="m552.39,278.3s17.2,6.71,17.53,24.79c0,0-3.85-18.58-17.53-24.79Z"/><path class="cls-31" d="m542.43,281.73s-4.01,7.42,3.52,13.58c0,0-4.29-5.33-3.52-13.58Z"/><path class="cls-31" d="m552.03,282.55s-4.01,7.42,3.52,13.58c0,0-4.29-5.33-3.52-13.58Z"/></g><g><path class="cls-21" d="m525.81,308.85s-3.44-1.47-4.25,2.2c-.81,3.66,3.15,6.38,6.38,3.81"/><path class="cls-21" d="m569.46,308.85s3.44-1.47,4.25,2.2c.81,3.66-3.15,6.38-6.38,3.81"/></g></g><path class="cls-3" d="m545.8,312.04s.22-1.1,1.8-1.1,1.87.99,1.87.99"/><g><g><path class="cls-27" d="m542.79,308.75s-1.24-1.23-2.78-1.23-2.78,1.23-2.78,1.23c0-1.25,1.24-2.26,2.78-2.26s2.78,1.01,2.78,2.26Z"/><path class="cls-27" d="m558.04,308.75s-1.24-1.23-2.78-1.23-2.78,1.23-2.78,1.23c0-1.25,1.24-2.26,2.78-2.26s2.78,1.01,2.78,2.26Z"/></g><path class="cls-2" d="m544.58,316.44s.54,1.44,3.11,1.44,3-1.44,3-1.44"/></g></g><g><path class="cls-13" d="m560.1,331.93s7.05,9.86,8.43,15.55c.03.14-5.99,2.67-6.91,2.58-.92-.1-2.26-5.82-2.26-5.82,0,0-.95-11.93.73-12.31Z"/><g><path class="cls-21" d="m533.82,371.96s1.2,7.23,1.9,13.23c.7,6,6.12,41.76,6.12,41.76h5.27s-.26-20.54,0-22.99c.26-2.45.59-31.47.59-31.47l-13.88-.52Z"/><path class="cls-21" d="m561.38,371.96s-1.2,7.23-1.9,13.23c-.7,6-6.12,41.76-6.12,41.76h-5.27s.26-20.54,0-22.99c-.26-2.45-.59-31.47-.59-31.47l13.88-.52Z"/><path class="cls-9" d="m548.09,426.95c-1.14,1.92-.04,5.25-.04,5.25h7.52c1.84-2.36-2.21-5.25-2.21-5.25h-5.27Z"/><path class="cls-9" d="m547.11,426.95c1.14,1.92.04,5.25.04,5.25h-7.52c-1.84-2.36,2.21-5.25,2.21-5.25h5.27Z"/></g><path class="cls-8" d="m552.91,402.92c4.86-.11,9.51-.58,13.67-1.65l-3.79-38.95c-.23-.13-1.05-.26-1.3-.38-1.81-.89-4.17-1.56-6.12-2.01h-15.46c-1.95.45-4.31,1.12-6.12,2.01-.25.12-1.07.25-1.3.38l-3.73,38.95c4.16,1.06,8.74,1.53,13.6,1.65h10.56Z"/><path class="cls-12" d="m559.89,331.84c-.19-.13-.39-.26-.6-.38-1.53-.89-3.52-1.56-5.16-2.01-.5-.14-.94-.24-1.35-.34-.95,2.02-2.9,3.41-5.17,3.41s-4.22-1.39-5.17-3.41c-.41.1-.85.2-1.35.34-1.65.45-3.63,1.12-5.16,2.01-.21.12-.41.25-.6.38l-2.51,26.84c4.36.54,9.41.85,14.82.85s10.45-.31,14.8-.85l-2.55-26.84Z"/><path class="cls-7" d="m547.64,359.54c-5.4,0-10.46-.31-14.82-.85l-.34,3.63c4.43.57,9.62.89,15.16.89s10.72-.33,15.15-.89l-.34-3.63c-4.35.54-9.4.85-14.8.85Z"/><path class="cls-13" d="m542.43,329.11c-.41.1-.85.2-1.35.34-1.65.45-3.63,1.12-5.16,2.01-.21.12-.41.25-.6.38l-2.51,26.84-.34,3.63c3.76.48,8.06.79,12.66.87v-28.49c-2.15-1.79-2.7-5.58-2.7-5.58Z"/><path class="cls-13" d="m552.83,329.11c.41.1.85.2,1.35.34,1.65.45,3.63,1.12,5.16,2.01.21.12.41.25.6.38l2.51,26.84.34,3.63c-3.76.48-8.06.79-12.66.87v-28.49c2.15-1.79,2.7-5.58,2.7-5.58Z"/><g><g><path class="cls-10" d="m542.11,331.56s.04-1.22,1.21-1.22h10.62s.99-.1.99,1.51l-12.82-.29Z"/><path class="cls-11" d="m553.36,349.14h-9.67c-.5,0-.92-.33-.94-.74l-.64-16.39c-.02-.51.42-.92.98-.92h10.86c.56,0,1,.41.98.92l-.64,16.39c-.02.41-.44.74-.94.74Z"/><path class="cls-29" d="m546,333.4h-2.15c-.28,0-.51-.2-.52-.46v-.11c-.01-.25.21-.46.49-.46h2.17c.28,0,.51.21.52.46v.11c0,.25-.22.46-.5.46Z"/></g><path class="cls-13" d="m555.73,342l-3.12,5.87s12.65,6.92,15.79,1.4c3.14-5.53-6.89-6.65-12.66-7.27Z"/><g><path class="cls-21" d="m555.67,341.87c.03-.63-.56-1.13-1.3-1.15-1.99-.05-6.42.16-6.55.84-.16.89-.57,1.2.55,1.6,1.12.4,5.81.29,6.91-.44.41-.27.37-.52.38-.86Z"/><path class="cls-21" d="m555.42,344.01c.03-.63-.56-1.13-1.3-1.15-1.99-.05-6.42.16-6.55.84-.16.89-.57,1.2.55,1.6,1.12.4,5.81.29,6.91-.44.41-.27.37-.52.38-.86Z"/><path class="cls-21" d="m555.58,346.01c.03-.63-.56-1.13-1.3-1.15-1.99-.05-6.42.16-6.55.84-.16.89-.57,1.2.55,1.6,1.12.4,5.81.29,6.91-.44.41-.27.37-.52.38-.86Z"/><path class="cls-21" d="m556.04,347.71c.03-.55-.48-.98-1.13-1-1.72-.04-5.58.14-5.68.73-.14.78-.5,1.04.48,1.39.98.35,5.04.25,6-.38.35-.23.32-.45.33-.74Z"/><path class="cls-21" d="m553.54,340.88s1.73-.59,2.4.55c.67,1.13.99,6.11-.51,6.88s-2.46,1.21-2.13-1.28c.33-2.49.24-6.15.24-6.15Z"/></g></g><g><path class="cls-13" d="m530.02,329.72l5.91.39s4.36,13.74-1.67,15.76c-6.03,2.02-6.23-6.56-4.24-16.15Z"/><path class="cls-21" d="m537.06,339.71c.09-.02.17-.06.25-.11.57-.36,2.85-2.15.64-6.29-2.5-4.69-.77-5.31-4.03-7.05-2.78-1.49-2.84-5.06-5.6-6.84-1.27-.82-3.55-1.27-2.84.34.79,1.8,2.53,5.25,2.38,7.04-.22,2.64-1.56,3.18-1.17,3.98.38.79,3.83,10.69,10.37,8.92Z"/><path class="cls-21" d="m524.76,331.52c-.22-.83.18-1.7.96-2.04,2.12-.92,6.18-2.53,7.36-1.83,1.62.97,2.83,2.34,2.56,4-.28,1.66.85,1.46,1.15,2.75.3,1.29,1.24,2.41,1.43,3.75.19,1.34-4.53,3.99-5.91,4.44-1.3.43-5.38-2.75-7.55-11.07Z"/><path class="cls-4" d="m527.87,329.24c2.12-.92,3.16-1.91,4.34-1.21,1.62.97,2.51,2.13,2.23,3.79-.28,1.66.85,1.46,1.15,2.75.3,1.29.51,1.79.7,3.13.19,1.34-.86,2.04-2.24,2.5"/></g></g><g><path class="cls-19" d="m520.37,276.42l1.9.93-1.9.93c-.88.43-1.54,1.2-1.84,2.13l-1.14,3.6-1.14-3.6c-.3-.93-.96-1.7-1.84-2.13l-1.9-.93,1.9-.93c.88-.43,1.54-1.2,1.84-2.13l1.14-3.6,1.14,3.6c.3.93.96,1.7,1.84,2.13Z"/><path class="cls-19" d="m587.04,303.74l1.9.93-1.9.93c-.88.43-1.54,1.2-1.84,2.13l-1.14,3.6-1.14-3.6c-.3-.93-.96-1.7-1.84-2.13l-1.9-.93,1.9-.93c.88-.43,1.54-1.2,1.84-2.13l1.14-3.6,1.14,3.6c.3.93.96,1.7,1.84,2.13Z"/><path class="cls-19" d="m514.31,310.56l3.08,1.51-3.08,1.51c-1.42.7-2.5,1.95-2.98,3.46l-1.85,5.84-1.85-5.84c-.48-1.51-1.56-2.76-2.98-3.46l-3.08-1.51,3.08-1.51c1.42-.7,2.5-1.95,2.98-3.46l1.85-5.84,1.85,5.84c.48,1.51,1.56,2.76,2.98,3.46Z"/></g></g><g><path d="m605.03,309.31l-2.01.11c-.21.02-1.11.06-1.11-.94,0-.91.76-.94,1.04-.96l2.15-.09c.03-.62.08-1.71.12-1.89.11-.46.53-.61.96-.61.88,0,1,.5,1,.97,0,.38-.14,2.28-.15,2.71,1.86-1.48,3.2-1.51,3.85-1.51,2.44,0,4.49,1.49,4.49,4.77,0,4.11-2.25,5.24-3.7,5.7-.78.24-1.83.41-2.62.41-.38,0-1.2,0-1.2-.96,0-.87.64-.91,1.81-.99,1.29-.09,3.68-.72,3.68-3.85,0-.9-.23-3.23-2.74-3.23-1.17,0-2.28.49-3.67,1.77-.03,1.17-.04,2.33-.04,3.49,0,.49.03,2.63.03,3.08,0,.55,0,1.29-.97,1.29s-1.02-.61-1.02-1.57c0-1.04.02-2.86.03-3.81-.59.9-1.02,1.55-1.32,1.98-.32.43-.52.58-.85.58-.5,0-1.07-.41-1.07-.99,0-.38.12-.52.7-1.17.97-1.1,1.87-2.25,2.6-3.52v-.76Z"/><path d="m626.98,311.57c.15.43.37,1.04.37,2.04,0,3.03-2.03,4.33-4.49,4.69-1.11.17-2.07.18-2.27.18-.3,0-1.2,0-1.2-.99,0-.81.53-.81,1.51-.82,3.49-.03,4.2-1.36,4.46-2.42-.43.47-.96,1.05-2.54,1.05-2.42,0-3.75-1.36-3.75-3s1.31-3.03,3.75-3.03c.23,0,1.36,0,2.21.44l-.03-1.31c-1.69.05-3.61.08-5.62.08-1.6,0-1.67-.01-1.87-.06-.15-.05-.53-.21-.53-.87,0-.9.68-.9,1.17-.9h2.68c1.36,0,1.46,0,4.14-.05v-.72c-.01-.24-.03-1.04.99-1.04s1.04.76,1.04,1v.7c.29-.01,2.47-.08,2.51-.08.38,0,1,.06,1,.91s-.61.9-1.02.91c-.11,0-.33,0-2.5.06v3.2Zm-1.96.67c0-1.28-1.4-1.45-1.92-1.45-.85,0-2.09.38-2.09,1.51s1.22,1.45,1.96,1.45c1.57,0,2.04-.82,2.04-1.51Zm2.7-1.71c-.05-.09-.05-.2-.05-.24,0-.38.38-.47.55-.47.32,0,.43.23.69.72.44.81.44,1.2.44,1.28,0,.44-.46.5-.56.5-.09,0-.33-.02-.46-.35-.15-.44-.17-.49-.29-.75-.04-.11-.27-.58-.32-.69Zm1.63-.85c0-.38.38-.46.53-.46.3,0,.4.18.78.96.09.18.32.76.32.99,0,.4-.37.49-.53.49-.23,0-.38-.15-.46-.35-.12-.37-.14-.41-.27-.69-.33-.7-.37-.78-.37-.94Z"/><path d="m635.98,305.46c.03-.09.23-.52.87-.52.26,0,1.1.05,1.1.82,0,.32-.29,1.49-.4,1.9,1.35-.02,2.12-.02,2.85.5.29.2,1.42,1.1,1.42,3.87,0,4.19-.76,6.38-3.37,6.38-.82,0-1.64-.18-2.38-.55-.32-.15-.62-.37-.62-.87,0-.37.23-.99.81-.99.23,0,.29.02.93.27.32.14.76.21,1.1.21.76,0,1.04-.33,1.26-1.31.18-.79.3-1.95.3-3.32,0-1.65-.26-2.39-1.96-2.39-.27,0-.46,0-.81.03-.67,2.45-1.45,4.71-2.24,6.61-.72,1.74-.99,2.12-1.6,2.12-.56,0-1.16-.46-1.16-.96,0-.35.12-.55.44-1.11.55-.97,1.29-2.79,1.67-3.88.29-.81.66-2.13.81-2.62-.32.03-1.72.2-2.01.2-.32,0-.61-.09-.76-.33-.15-.23-.17-.5-.17-.62,0-.81.52-.9.75-.94.33-.06.65-.08,2.67-.2.08-.35.41-2.06.5-2.3Zm6.14.65c1.04,0,2.12,1.55,2.18,1.66,1.32,1.87,1.4,4.45,1.4,5.1,0,.26,0,1.08-1.11,1.08-.82,0-.91-.55-.94-.99-.11-1.31-.17-2.19-.65-3.44-.3-.79-.52-1-1.4-1.87-.18-.17-.38-.37-.38-.7s.24-.58.35-.66c.23-.17.44-.18.56-.18Z"/><path d="m603.93,335.98c-.73.2-2.67.43-4.89.43-1.25,0-2.19-.09-2.86-.17-1.07-.14-3.91-.69-3.91-3.18,0-1.54,1.02-2.57,1.78-3.17.35-.26.56-.37.82-.37.72,0,1.05.58,1.05.93s-.26.58-.84,1.16c-.67.64-.73.94-.73,1.28,0,1.42,2.48,1.58,4.29,1.58,1.43,0,3.02-.14,4.11-.35.9-.17.93-.17,1.16-.17.18,0,.96,0,.96.91,0,.7-.26.93-.94,1.11Zm-9.49-9.88c-.49,0-1.28-.02-1.28-.97s.69-.99,1.31-.99c.24,0,2.13.05,2.53.05.58,0,3.81-.08,4.55-.11.18,0,.78-.03.91-.03.56,0,1.29.05,1.29.94,0,.62-.2.73-1.22,1.36-.38.23-2.1,1.31-2.45,1.54-.41.26-.66.37-.94.37-.56,0-.99-.44-.99-.93,0-.35.21-.56.82-.94.14-.09.81-.41.94-.5-1.55.12-3.88.23-5.48.23Z"/><path d="m609.69,327.59l-2.01.11c-.21.02-1.11.06-1.11-.94,0-.91.76-.94,1.04-.96l2.15-.09c.03-.62.08-1.71.12-1.89.11-.46.53-.61.96-.61.93,0,1,.56,1,.96,0,.08,0,.32-.02.55-.03.29-.11,1.55-.12,1.81,1.8-1.69,2.98-2.03,3.99-2.03.72,0,2.71.2,2.71,2.67,0,.75-.05.97-.7,3.91-.04.18-.32,1.45-.32,2.13,0,.87.55,1,.88,1,.27,0,.35-.03.91-.24.18-.08.33-.11.44-.11.47,0,.78.46.78.94,0,1-1.19,1.42-2.35,1.42-2.63,0-2.63-2.1-2.63-2.63,0-.81.12-1.95.52-4.02.3-1.61.35-1.78.35-2.1,0-.21,0-.99-.96-.99-1.48,0-3.14,1.92-3.73,2.6-.03,1.13-.04,2.27-.04,3.4,0,.49.03,2.6.03,3.05,0,.58,0,1.33-.97,1.33s-1.02-.61-1.02-1.57c0-1.04.02-2.86.03-3.81-.56.85-1,1.54-1.32,1.98-.27.38-.47.58-.88.58-.53,0-1.05-.44-1.05-.99,0-.4.14-.53.78-1.25.87-.94,2.1-2.6,2.54-3.52v-.69Z"/><path d="m625.06,323.72c.14-.38.49-.53.87-.53.94,0,1.08.5,1.08.88,0,.17-.03.35-.15,1.11,1.43-.03,2.79-.08,4.33-.15.12,0,.27-.02.35-.02.64,0,1,.27,1,.94,0,.55-.26.84-.75.91-.43.06-3.9.17-5.33.21-.52,2.44-1.22,4.84-2.04,7.19-.68,1.98-.84,2.41-1.55,2.41-.33,0-1.13-.18-1.13-.91,0-.17.01-.33.35-1.07.56-1.22,1.25-3.26,1.65-4.69.24-.88.5-1.96.7-2.89-.41.02-1.77.03-2.09-.06-.24-.06-.52-.32-.52-.87,0-.52.2-.87.75-.94.11-.01,1.96-.01,2.19-.01.06-.3.23-1.31.29-1.51Zm9.37,12.69c-.23.06-1.02.2-2.6.2-3.61,0-5.16-.61-5.16-2.5,0-.44.17-1.77,1.34-1.77.37,0,.93.17.93.67,0,.14-.06.32-.09.4-.08.18-.14.33-.14.49,0,.41.3.61.84.71.4.09.97.14,1.6.14.99,0,1.67-.08,2.62-.17.18-.01.27-.03.41-.03.61,0,.91.3.91.9,0,.52-.24.85-.66.96Zm-.11-6.08c-.2.14-.4.15-.64.15-.11,0-.7-.05-1.05-.06-.21-.01-.4-.01-.73-.01-1,0-1.78.06-2.01.08-1.19.11-1.37.12-1.51.12-.84,0-.84-.79-.84-.93,0-.47.23-.79.88-.93.99-.21,2.68-.27,3.73-.27,2.48,0,2.48.4,2.48,1.14,0,.2-.09.55-.32.72Zm-2.04-6.62c-.03-.11-.05-.17-.05-.26,0-.37.37-.46.55-.46.29,0,.35.15.66.76.3.62.46,1.08.46,1.29,0,.32-.26.49-.56.49-.23,0-.37-.15-.44-.37-.14-.37-.18-.5-.29-.73-.09-.21-.24-.53-.32-.73Zm1.78-.32c-.05-.11-.05-.21-.05-.26,0-.38.43-.44.55-.44.21,0,.4.09.7.78.12.29.4.97.4,1.25,0,.43-.43.49-.55.49-.33,0-.44-.34-.49-.49-.06-.21-.09-.27-.23-.58-.05-.12-.29-.64-.33-.75Z"/><path d="m639.62,324.24c0,.32-.23,1.69-.26,1.98-.05.43-.27,2.44-.27,4.4,0,1.48.12,3,.27,4.1.01.12.09.65.09.85,0,.85-.84.85-1.02.85-.67,0-.85-.32-1-1-.18-.76-.3-2.76-.3-4.69,0-3.15.38-6,.53-6.61.18-.7.55-.7,1.16-.7.02,0,.81.02.81.82Zm8.16,6.47c0,2.03,0,4.46-3.11,5.62-1.14.43-2.48.47-2.51.47-.78,0-.99-.62-.99-1.04,0-.62.33-.78.88-.85,1.04-.12,2.03-.24,2.86-1.04.64-.59.81-1.55.81-3.38,0-.3-.03-1.63-.03-1.9-.76.02-3.18.05-3.81.05-.88,0-1.49,0-1.49-.94s.61-.94,1.49-.94c.64,0,2.67,0,3.76-.05-.03-.62-.08-1.64-.08-2.28,0-.55.05-1.13,1-1.13.76,0,1.05.29,1.07,1.04.01.37.03,2,.04,2.31,1.42-.06,1.51-.08,1.68-.08.41,0,1,.08,1,.96s-.55.91-1.29.94c-.61.03-.67.03-1.34.06.05,1.67.05,1.86.05,2.18Z"/><path d="m654.9,334.89c0,.7-.58,1.28-1.28,1.28s-1.28-.58-1.28-1.28.58-1.28,1.28-1.28,1.28.56,1.28,1.28Zm-.61-3.23c-.05.43-.18.76-.66.76s-.64-.24-.68-.75l-.43-4.22v-3.21c0-.53.23-1.04,1.08-1.04.78,0,1.11.38,1.11,1.04v3.21l-.43,4.2Z"/></g><g><g><rect class="cls-6" x="2.5" width="729" height="42"/><g><g><path class="cls-23" d="m7.95,26.77c0,.22,0,.81-.79.81s-.81-.58-.81-.81v-6c-.13.2-.27.4-.58.4-.46,0-.87-.55-.87-1.15,0-.29.08-.48.22-.74.75-1.33,1.02-1.83,1.46-3.16.2-.57.29-.93.51-2.03.07-.38.18-.73.73-.73.09,0,.88.02.88.72,0,.29-.24,1.66-.75,3.18v9.51Zm3.56-11.16c-.02.25-.06.75-.18,1.62h1.08c.66,0,1.5,0,1.5,1.26,0,.3-.18,2.61-.9,4.56-.9,2.41-2.75,4.41-3.58,4.41-.56,0-.95-.51-.95-.95s.27-.66.58-.91c1.14-.96,1.77-1.88,2.21-2.76-.39-.38-.92-.89-1.41-1.31-.27.44-.51.81-.9.81s-.87-.42-.87-.95c0-.24.07-.43.31-.85,1.08-1.85,1.33-3.06,1.46-4.94h-.25c-.34,0-.92-.04-.92-.87s.66-.86.92-.86h3.75c.3,0,.9.03.9.87s-.64.86-.9.86h-1.84Zm-.54,3.25c-.18.63-.32.98-.42,1.26.58.42.93.7,1.33,1.06.22-.84.34-1.8.34-2,0-.33-.25-.33-.42-.33h-.84Zm5.01,4.56c0,.22,0,.79-.78.79s-.78-.49-.78-.79v-8.17c0-.2,0-.81.78-.81s.78.55.78.81v8.17Zm2.76,2.36c0,.51-.04,1.32-.87,1.56-.13.04-.32.09-1.65.09-.87,0-1.63,0-1.63-1.04,0-.93.69-.93,1.14-.93.48,0,.96,0,1.05-.03.18-.04.27-.16.27-.51v-10.66c0-.27,0-.92.84-.92.78,0,.86.51.86.92v11.52Z"/><path class="cls-23" d="m31.25,18.17c0,.69-.56,1.25-1.26,1.25s-1.24-.56-1.24-1.25.57-1.26,1.24-1.26,1.26.55,1.26,1.26Zm0,7.05c0,.69-.56,1.26-1.26,1.26s-1.24-.57-1.24-1.26.57-1.26,1.24-1.26,1.26.55,1.26,1.26Z"/></g><g><path class="cls-23" d="m56.84,14.69c.21,0,.92,0,.92.84,0,.67-.3.93-.92.93h-3.83v1.8h3.34c.3,0,.9.03.9.83,0,.6-.23.9-.9.9h-3.34v2.4h4.38c.32,0,.9.02.9.87s-.54.88-.9.88h-4.38v2.55c0,.35-.03.92-.92.92-.83,0-1-.33-1-.92v-2.55h-6.12c-.27,0-.9,0-.9-.87s.58-.88.9-.88h1.3v-2.38c0-1.35.58-1.74,1.74-1.74h3.07v-1.8h-3.07c-.23.36-.89,1.32-1.7,2.19-.69.72-.86.78-1.12.78-.58,0-1.16-.54-1.16-1.11,0-.35.17-.53.36-.72,1.54-1.5,1.86-1.96,2.79-3.71.18-.33.34-.55.83-.55.51,0,1.12.3,1.12.83,0,.16-.06.33-.13.52h7.83Zm-5.75,7.7v-2.4h-2.42c-.31,0-.51.17-.51.51v1.89h2.92Z"/><path class="cls-23" d="m61.72,15.94c-.27,0-.79-.03-.79-.77,0-.67.39-.78.79-.78h4.96v-.4c0-.44.17-.72.98-.72.92,0,1.08.25,1.08.72v.4h4.98c.25,0,.78.02.78.77,0,.69-.4.78-.78.78h-5.67c-.55.91-.83,1.32-1.26,1.88.27.22.34.29.69.58.33-.4.75-.94,1.16-1.51.24-.35.41-.54.76-.54.32,0,.93.22.93.77,0,.24,0,.38-.95,1.47-.72.82-1.5,1.68-1.98,2.17,1.21-.04,1.35-.06,1.9-.09-.33-.53-.41-.68-.41-.87,0-.41.41-.72.84-.72.39,0,.51.18,1.03.99.14-.39.48-.6.75-.6.45,0,1.42.66,1.94,1,.82.55,1.05.78,1.05,1.19s-.33.91-.88.91c-.25,0-.33-.06-.99-.57-.39-.28-.41-.3-1.23-.87.14.27.26.49.26.72,0,.49-.6.73-.95.73s-.5-.21-.66-.57c-.21.03-1.05.09-1.37.12v.9h5.17c.29,0,.9.03.9.79,0,.59-.2.92-.9.92h-5.17v1.99c0,.24,0,.87-.93.87-.85,0-1.08-.32-1.08-.87v-1.99h-5.17c-.29,0-.92-.03-.92-.79,0-.59.2-.92.92-.92h5.17v-.76c-.25.01-1.5.09-1.69.09s-.77,0-.77-.79c0-.11.02-.17.03-.24-.71.42-1.47.81-1.67.9-.52.25-.69.3-.92.3-.62,0-.81-.57-.81-.9,0-.49.21-.6.92-.9.64-.29,1.2-.54,1.53-.72.77-.39.81-.42,1-.42.41,0,.71.4.71.84,0,.22-.07.31-.12.4.08-.01.12-.01.41-.01.38-.39.86-.88,1.14-1.2-.31-.27-.87-.76-1.68-1.3-.01.33-.3.87-.83.87-.24,0-.34-.08-1.21-.66-.18-.12-.97-.6-1.12-.72-.17-.12-.28-.3-.28-.55,0-.44.39-.86.82-.86s1.53.74,2.03,1.08c.06-.39.42-.76.81-.76.24,0,.42.1.63.24.35-.48.54-.81.65-1h-4.53Zm11.55,2.38c-.45.29-1.23.77-1.63.77-.65,0-.86-.63-.86-.92,0-.4.17-.49.9-.91.41-.24.69-.42,1.06-.68.21-.15.36-.2.56-.2.51,0,.79.38.85.81.04.42-.17.64-.88,1.12Z"/><path class="cls-23" d="m78.78,17.8c-.23,0-.74-.15-.74-.81s.34-.7,1.25-.87c.93-.16,1.5-.81,1.8-1.63.15-.42.27-.77.92-.77.55,0,.87.36.87.69v11.07c0,.24,0,1.01-1.02,1.01-.6,0-1.08-.2-1.08-1.01v-7.68h-1.99Z"/><path class="cls-23" d="m88.68,17.02c0-2.13,1.86-3.3,3.71-3.3s3.69,1.17,3.69,3.3c0,1.63-1,2.25-1.46,2.49,1.09.52,1.84,1.51,1.84,3.06,0,2.43-1.7,3.92-4.08,3.92s-4.09-1.49-4.09-3.92c0-1.54.75-2.54,1.84-3.06-.43-.24-1.46-.86-1.46-2.49Zm1.73,5.58c0,1.75,1.3,2.1,1.98,2.1.41,0,1.98-.15,1.98-2.13,0-1.42-.98-2.02-1.98-2.02-.79,0-1.98.39-1.98,2.05Zm.31-5.43c0,1.04.66,1.69,1.67,1.69s1.65-.64,1.65-1.69-.6-1.68-1.65-1.68-1.67.59-1.67,1.68Z"/><path class="cls-23" d="m104.63,16.97c0,2.13-1.09,3.25-2.67,3.25-1.8,0-2.65-1.44-2.65-3.21,0-2.37,1.24-3.3,2.65-3.3,1.61,0,2.67,1.16,2.67,3.26Zm-3.76.03c0,.92.17,2.05,1.09,2.05s1.11-1.08,1.11-2.12c0-.96-.18-2.07-1.11-2.07-.87,0-1.09.99-1.09,2.13Zm2.62,9.11c-.04.07-.21.38-.58.38s-.65-.35-.65-.62c0-.04.02-.22.08-.35l6.42-11.44c.04-.08.2-.36.57-.36s.64.33.64.6c0,.05-.01.24-.08.35l-6.4,11.45Zm9.43-2.88c0,2.13-1.09,3.26-2.66,3.26-1.8,0-2.67-1.44-2.67-3.21,0-2.37,1.25-3.3,2.67-3.3,1.59,0,2.66,1.14,2.66,3.25Zm-3.76.03c0,.91.18,2.05,1.11,2.05s1.09-1.08,1.09-2.12c0-.96-.18-2.07-1.09-2.07s-1.11.99-1.11,2.13Z"/><path class="cls-23" d="m121.46,23.83c-.74,1.19-1.53,1.82-2.64,1.82-1.95,0-3.01-2-3.01-4.38,0-4.57,3.4-7,7.18-7,4.57,0,6.4,2.98,6.4,6.25,0,.75,0,3.35-2.73,5.14-1.54,1.04-3.39,1.17-3.63,1.17-.99,0-1-.91-1-1.04,0-.78.55-.87,1.11-.94,1.2-.18,4.19-.65,4.19-4.47,0-2.46-1.33-4.09-3.68-4.24-.49,3.9-1.45,6.48-2.19,7.69Zm-1.47-6.97c-1.73,1.07-2.26,2.97-2.26,4.44s.58,2.25,1.18,2.25c.63,0,1.08-.84,1.49-1.92.82-2.19,1.08-3.81,1.3-5.44-.35.09-.99.24-1.71.67Z"/><path class="cls-23" d="m135.7,19c-.79,0-.93-.42-.92-.93-.53.27-1.42.74-1.84.74-.48,0-.89-.57-.89-1.14s.39-.75.83-.91c.78-.3,1.21-.48,1.73-.75,1.12-.59,1.57-.96,2.76-1.92.81-.65,1.02-.83,1.83-.83.75,0,.96.17,1.91.9,1.38,1.08,2.38,1.86,4.38,2.64.38.15.71.3.71.84,0,.33-.18,1.14-1,1.14-.36,0-.69-.13-1.79-.73.03.45-.03.96-.9.96h-2.49v1.3h4.72c.66,0,.92.29.92.91,0,.83-.69.83-.92.83h-4.72v3.21h5.02c.69,0,.92.31.92.93,0,.82-.67.82-.92.82h-11.89c-.67,0-.92-.31-.92-.93,0-.82.69-.82.92-.82h5.03v-3.21h-4.73c-.67,0-.91-.3-.91-.92,0-.82.67-.82.91-.82h4.73v-1.3h-2.46Zm.48,3.97c.2.42.5,1.09.5,1.47,0,.59-.79.72-1.08.72-.57,0-.64-.21-1.02-1.14-.04-.09-.24-.51-.27-.58-.06-.12-.13-.29-.13-.48,0-.49.6-.78,1.11-.78s.66.29.9.79Zm5.97-5.67c-1.35-.87-2.32-1.8-2.64-2.1-.2-.2-.25-.26-.36-.26-.12,0-.19.07-.39.29-.79.84-2.04,1.72-2.61,2.07h6Zm1.21,7.17c-.17.33-.36.69-.97.69-.42,0-.99-.24-.99-.73,0-.21.03-.29.32-.9.08-.15.34-.86.43-.99.21-.35.46-.39.71-.39.12,0,1.04.04,1.04.77,0,.42-.38,1.29-.53,1.56Z"/><path class="cls-23" d="m155.58,13.84c.22,0,.79,0,.79.76,0,.63-.25.84-.79.84h-6.29c-.24,0-.81,0-.81-.79s.49-.81.81-.81h6.29Zm-3.42,7.42c-.04.68-.21,1.16-.46,1.61-.21.36-.36.55-.66.55-.24,0-.56-.16-.56-.51,0-.17.03-.2.27-.53.2-.27.34-.69.36-1.12h-.45c-.21,0-.33.11-.33.33v5.19c0,.26-.02.78-.72.78-.65,0-.72-.44-.72-.78v-5.16c0-1.35.29-1.68,1.68-1.68h3.7c1.4,0,1.68.32,1.68,1.68v4.76c0,1.06-.72,1.06-1.31,1.06-.69,0-1.26,0-1.26-.84,0-.69.42-.71.83-.69.29,0,.38.02.38-.27v-2.37h-.79c-.92,0-1.16-.4-1.16-1.14v-.87h-.48Zm3.43-3.12c0,.91-.29,1.24-1.25,1.24h-3.85c-.93,0-1.25-.3-1.25-1.24v-.9c0-.9.29-1.24,1.25-1.24h3.85c.95,0,1.25.31,1.25,1.24v.9Zm-2.47,8.17c0,.2,0,.77-.68.77s-.66-.54-.66-.77v-1.54h-.63c-.29,0-.56-.13-.56-.55s.23-.57.63-.57h2.5c.23,0,.62.04.62.55,0,.35-.17.57-.57.57h-.66v1.54Zm.75-8.77c0-.2-.09-.32-.32-.32h-2.31c-.2,0-.3.11-.3.32v.22c0,.21.09.31.3.31h2.31c.24,0,.32-.13.32-.31v-.22Zm-.09,3.72v.55c0,.2.06.35.33.35h.48v-.57c0-.21-.11-.33-.33-.33h-.48Zm4.73.73h-.71c-1.04,0-1.46-.45-1.46-1.62v-3.2c0-1.14.39-1.62,1.46-1.62h.71v-1.32c0-.3.03-.9.72-.9.54,0,.85.17.85.9v1.32h.74c1.02,0,1.46.42,1.46,1.62v3.2c0,1.2-.45,1.62-1.46,1.62h-.75v2.93s.3-.06.42-.07c.09-.02.27-.03.38-.06-.04-.15-.25-.82-.29-.96-.08-.27-.13-.46-.13-.69,0-.57.58-.62.71-.62.48,0,.54.21.88,1.29.23.71.66,2.25.66,2.88,0,.75-.62.75-.75.75-.54,0-.58-.24-.75-1.14-1.42.33-4.17.79-4.44.79-.63,0-.68-.71-.68-.93,0-.12,0-.63.44-.76.09-.03,1.71-.22,2-.26v-3.15Zm0-4.77h-.54c-.23,0-.33.12-.33.35v2.34c0,.22.1.36.33.36h.54v-3.04Zm1.56,0v3.04h.57c.19,0,.34-.09.34-.36v-2.34c0-.21-.11-.35-.34-.35h-.57Z"/><path class="cls-23" d="m173.16,15.5c0-1.46.32-1.79,1.79-1.79h1.98c1.47,0,1.78.33,1.78,1.79v10.15c0,1.47-.28,1.82-2.01,1.82-.03,0-.75-.02-.97-.04-.72-.12-.72-.79-.72-.92,0-.45.22-.87.81-.87.12,0,.69.01.79.01.38-.03.39-.34.39-.49v-2.36h-2.25c-.21,2.23-.78,3.44-1.02,3.9-.36.66-.54.78-.92.78-.31,0-.94-.2-1.04-.81-.15.1-.31.16-.49.16-.35,0-.5-.2-1.08-.93-.12-.13-.62-.69-.69-.83-.06-.12-.09-.24-.09-.31,0-.45.5-.73.78-.73.58,0,1.71,1.33,1.88,1.74.49-.97.54-1.05.79-2.24-.17.33-.42.35-.71.35h-6.38c-.18,0-.81,0-.81-.81,0-.43.21-.81.73-.81h.51v-5.73h-.39c-.55,0-.67-.51-.67-.81,0-.39.18-.81.67-.81h.39v-.66c0-.41.17-.9.87-.9.56,0,.88.3.88.9v.66h2.12v-.66c0-.45.2-.9.88-.9.6,0,.9.33.9.9v.66h.42c.64,0,.64.69.64.79,0,.21-.04.82-.64.82h-.42v5.73h.43c.63,0,.66.55.68.72.13-.91.16-1.66.16-1.88v-5.61Zm-4.65,9.3c0,.34-.63,1.14-.92,1.47-.78.92-1.21,1.16-1.59,1.16-.46,0-.79-.42-.79-.81,0-.29.12-.5.55-.88.51-.45.54-.5,1.2-1.29.27-.34.41-.45.72-.45.18,0,.83.22.83.81Zm1.59-8.27h-2.12v.97h2.12v-.97Zm0,2.32h-2.12v.99h2.12v-.99Zm0,2.33h-2.12v1.08h2.12v-1.08Zm4.79-3.69h2.11v-1.53c0-.34-.19-.43-.45-.43h-1.23c-.31,0-.43.15-.43.43v1.53Zm2.11,1.63h-2.11v2.04h2.11v-2.04Z"/><path class="cls-23" d="m183.84,26.71c0,.22,0,.84-.83.84-.72,0-.93-.3-.93-.84v-11.28c0-1.23.54-1.62,1.63-1.62h2.78c1.08,0,1.62.39,1.62,1.62v2.5c0,1.25-.54,1.62-1.62,1.62h-2.66v7.15Zm2.61-10.71v-.41c0-.2-.09-.36-.36-.36h-1.89c-.3,0-.36.2-.36.36v.41h2.61Zm-2.61,1.33v.81h2.25c.25,0,.36-.13.36-.36v-.45h-2.61Zm2.87,8.61c-1.05,0-1.62-.34-1.62-1.62v-2.56c0-1.25.52-1.63,1.62-1.63h3.81c1.09,0,1.62.39,1.62,1.63v2.56c0,.48-.06.88-.34,1.21.33.02.73.02,1.06.02.43,0,.58-.03.58-.48v-5.52h-2.7c-1.09,0-1.63-.38-1.63-1.62v-2.5c0-1.23.54-1.62,1.63-1.62h2.79c1.14,0,1.62.44,1.62,1.62v10.15c0,1.53-.39,1.81-2.21,1.81-1.23,0-1.54-.04-1.72-.13-.27-.13-.48-.45-.48-.9,0-.22.04-.33.08-.43-.1.01-.17.01-.3.01h-3.81Zm.06-3.6h3.67v-.55c0-.22-.12-.35-.36-.35h-2.96c-.2,0-.36.08-.36.35v.55Zm0,1.23v.63c0,.24.12.36.36.36h2.96c.25,0,.36-.13.36-.36v-.63h-3.67Zm4.08-7.57h2.59v-.41c0-.22-.12-.36-.36-.36h-1.88c-.25,0-.36.13-.36.36v.41Zm2.59,1.33h-2.59v.45c0,.21.09.36.34.36h2.25v-.81Z"/><path class="cls-23" d="m200.57,16.85c-.18.02-.97.09-1.14.09-.87,0-.99-.61-.99-1.03,0-.65.26-.96.98-1.04.78-.08,9.16-.36,10.77-.36.85,0,1.54,0,1.54.96s-.69,1-1.51,1c-1.2.02-2.12.26-3.63,1.19-1.04.63-3.02,2.25-3.02,4.46,0,2.05,1.74,2.62,4.51,2.62,1.2,0,1.33-.02,1.56.04.5.12.64.48.64.88,0,1.15-.9,1.15-1.81,1.15-2.13,0-3.79-.43-4.82-.9-1.5-.69-2.14-2.19-2.14-3.63,0-1.1.27-2.52,1.92-4.19.86-.85,1.46-1.21,2.1-1.59-1.65.11-3.31.21-4.96.33Zm7.3,1.82c-.04-.09-.07-.2-.07-.29,0-.29.33-.45.54-.45.24,0,.36.12.69.68.18.3.55,1.05.55,1.29,0,.38-.39.48-.57.48s-.32-.15-.41-.31c-.1-.2-.24-.5-.34-.69-.06-.11-.33-.6-.39-.71Zm1.61-.71c-.06-.12-.08-.21-.08-.3,0-.27.32-.44.53-.44.27,0,.38.18.66.65.1.16.58.94.58,1.3,0,.31-.32.46-.56.46-.19,0-.34-.17-.39-.24-.06-.12-.32-.64-.36-.73-.06-.12-.34-.6-.39-.71Z"/><g><path class="cls-23" d="m240.7,13.9c.23,0,.93,0,.93.87,0,.72-.33.96-.93.96h-7.08v1.68c-.02.09-.03.44-.03.51h4.6c.9,0,2.03.09,2.03,1.8,0,.42-.2,5-.86,6.46-.57,1.26-1.62,1.26-2.98,1.26-1.2,0-1.37-.03-1.51-.07-.48-.17-.58-.69-.58-.96,0-.91.67-.91,1-.91.19,0,1.05.03,1.23.03.99,0,1.19-.62,1.35-1.5.24-1.38.35-3.64.35-3.67,0-.36-.04-.65-.66-.65h-4.12c-.3,2.06-.87,3.99-2.38,5.82-.17.2-1.61,1.89-2.42,1.89-.57,0-1.06-.59-1.06-1.14,0-.39.21-.57.54-.81,3.03-2.14,3.57-5.23,3.57-8.1v-1.63h-3.33c-.21,0-.93,0-.93-.85,0-.71.29-.98.93-.98h12.36Z"/><path class="cls-23" d="m246.55,21.82v4.8c0,.25-.01.93-.9.93-.71,0-1.02-.24-1.02-.93v-10.77c0-1.52.77-1.94,1.94-1.94h8.86c1.35,0,2.01.46,2.01,2.01v9.51c0,2.01-1.11,2.03-2.77,2.03-1.29,0-1.92-.02-1.92-.99,0-.2,0-.95.92-.95.21,0,1.11.03,1.3.02.52-.02.57-.39.57-.69v-3.03h-8.99Zm3.57-1.77v-4.32h-2.92c-.42,0-.65.21-.65.65v3.67h3.57Zm1.86,0h3.56v-3.67c0-.41-.18-.65-.65-.65h-2.91v4.32Z"/><path class="cls-23" d="m272.34,15.14c.25,0,.96,0,.96.88,0,.77-.55.86-.73.88-.27.03-4.07.17-6.24.21-.29.45-.41.63-.95,1.48.95-.6,1.8-.66,2.12-.66,1.08,0,1.86.51,2.25,1.48.69-.27,2.66-.87,3.2-.87.91,0,.91.86.91,1,0,.68-.46.86-.91.96-2.1.49-2.33.54-2.88.73.04.62.07,1.3.07,1.7,0,.82,0,1.52-.97,1.52s-.95-.68-.95-1.17c0-.23.02-1.17.02-1.37-2.15.93-2.73,1.57-2.73,2.31,0,.87,1.23,1.02,2.8,1.02.84,0,1.97-.08,2.97-.23.18-.03.52-.07.81-.07.22,0,.9,0,.9.88,0,.69-.41.83-.69.88-1.27.29-3.12.32-3.63.32-2.19,0-3.08-.24-3.76-.51-.88-.36-1.47-1.11-1.47-2.02,0-2.15,2.49-3.51,4.53-4.39-.31-.57-.81-.63-1.09-.63-.45,0-1.8.13-3.17,1.75-.22.27-1.16,1.49-1.38,1.7-.12.12-.34.29-.69.29-.57,0-.95-.54-.95-.97,0-.38.18-.58,1.09-1.59,1.29-1.43,2.38-3.27,2.54-3.51-.34,0-1.88.02-2.17.03-.29,0-1.05-.01-1.05-.91s.73-.88,1-.88c1.03-.02,2.07-.02,3.1-.04.08-.17.36-.93.42-1.08.11-.27.24-.62.98-.62.54,0,.99.25.99.78,0,.24-.09.44-.29.88,2.81-.09,3.11-.16,4.96-.16h.08Z"/><path class="cls-23" d="m279.62,26.65c0,.22,0,.93-.89.93s-.9-.62-.9-.93v-5.98c-.13.13-.29.31-.62.31-.52,0-.97-.49-.97-1.12,0-.29.04-.45.25-.76.67-1.04,1.18-1.79,1.74-3.41.1-.3.48-1.8.52-1.9.13-.27.38-.4.74-.4.63,0,.97.33.97.76,0,.39-.29,1.74-.85,3.22v9.29Zm6.82-11.65v-.78c0-.39.15-.86.88-.86.65,0,.96.26.96.86v.78h1.04c.23,0,.81,0,.81.79s-.54.82-.81.82h-1.04v1.43h1.4c.24,0,.83.02.83.82,0,.59-.29.83-.83.83h-8.83c-.21,0-.83,0-.83-.81s.6-.84.83-.84h1.39v-1.43h-1c-.18,0-.82,0-.82-.81s.64-.81.82-.81h1v-.78c0-.36.11-.86.89-.86.66,0,.92.33.92.86v.78h2.4Zm2.99,10.59c0,1.23-.53,1.62-1.64,1.62h-5.05c-1.11,0-1.63-.39-1.63-1.62v-3.46c0-1.19.48-1.63,1.63-1.63h5.05c1.14,0,1.64.44,1.64,1.63v3.46Zm-1.83-2.51v-.79c0-.22-.11-.36-.36-.36h-3.96c-.25,0-.36.13-.36.36v.79h4.68Zm0,1.38h-4.68v.84c0,.24.12.36.36.36h3.96c.25,0,.36-.13.36-.36v-.84Zm-1.16-7.85h-2.4v1.43h2.4v-1.43Z"/><path class="cls-23" d="m297.53,14.96c.81-.66,1.77-.95,2.69-.95,1.5,0,2.54.81,3.03,1.56.81,1.24,1.1,2.91,1.1,4.77,0,3.46-1.04,6.72-7.5,6.72-.79,0-1.61,0-1.61-.99,0-.91.86-.91,1.11-.91,1.37,0,1.51,0,2.04-.08,2.8-.39,3.87-1.69,3.87-4.72,0-1.63-.18-4.51-2.27-4.51-1.47,0-2.53,1.24-2.97,1.83-.94,1.26-1.27,2.49-1.27,3.64,0,.21.06,1.17.06,1.37,0,.3,0,.97-.96.97-.41,0-.83-.07-.94-.64-.11-.5-.18-1.63-.18-2.24,0-2.28.29-5.44.53-6.36.08-.29.22-.75,1-.75s1.05.38,1.05.84c0,.21-.08.57-.12.79-.2.88-.24,1.28-.31,1.82.31-.63.69-1.38,1.66-2.16Z"/><path class="cls-23" d="m309.34,15.74s1.38-.02,1.51-.02c.06-.3.22-1.3.29-1.5.18-.49.66-.52.85-.52.69,0,1.05.29,1.05.85,0,.32-.09.81-.15,1.12,1.08-.03,2.5-.06,4.02-.12.2-.02,1-.06,1.17-.06.25,0,.97.02.97.93s-.64.92-1,.93c-1.83.09-3.7.15-5.53.2-.38,1.71-.46,2.14-1.29,4.86-.32,1.06-1.12,3.51-1.46,4.09-.04.09-.25.48-.79.48-.33,0-1.11-.18-1.11-.9,0-.16.02-.33.35-1.05.36-.78,1.54-3.72,2.31-7.45-.41.01-1.74.03-2.05-.04-.24-.06-.51-.32-.51-.87,0-.63.27-.97.99-.95l.39.02Zm11.02,10.98c-.72.19-2.1.19-2.57.19-3.55,0-5.08-.6-5.08-2.46,0-.44.17-1.74,1.32-1.74.36,0,.92.17.92.66,0,.18-.06.31-.09.39-.12.29-.13.33-.13.48,0,.41.3.6.82.71.39.09.96.13,1.58.13.97,0,1.65-.07,2.58-.16.18-.02.27-.03.41-.03.63,0,.9.34.9.88,0,.48-.2.82-.64.95Zm-.11-5.99c-.2.14-.39.15-.63.15-.1,0-.69-.04-1.04-.06-.21-.01-.39-.01-.72-.01-.99,0-1.75.06-1.98.07-1.17.11-1.35.12-1.49.12-.83,0-.83-.78-.83-.92,0-.46.23-.78.87-.91.97-.21,2.64-.27,3.67-.27,2.45,0,2.45.39,2.45,1.12,0,.2-.09.54-.32.71Z"/><path class="cls-23" d="m330.21,22.94c-.34.33-1.54,1.46-2.29,1.46-.43,0-.58-.29-.66-.42-.46.18-2.55.96-2.89.96-.84,0-.84-1.04-.84-1.07,0-.49.34-.66.64-.75.17-.06.9-.25,1.04-.3v-4.19h-.71c-.67,0-.87-.43-.87-.9,0-.57.29-.91.87-.91h.71v-2.55c0-.22,0-.91.9-.91.79,0,.9.51.9.91v2.55h.63c.17,0,.71.09.71.81,0,.66-.24,1-.71,1h-.63v3.63c.51-.18.62-.21.79-.21.44,0,.53.24.63.45.71-.53,1.08-1.08,1.38-1.52h-1.12c-.19,0-.79,0-.79-.72s.56-.75.79-.75h8.42c.18,0,.79,0,.79.74s-.57.73-.79.73h-5.46c-.17.31-.24.44-.36.63h4.47c.58,0,1.67,0,1.67,1.38,0,.88-.12,2.89-.5,3.64-.36.75-1.04.79-1.98.79-.72,0-1.41,0-1.41-.81,0-.39.23-.74.68-.74.12,0,.71.04.84.04.43,0,.52-.36.58-.66.13-.67.18-1.65.18-1.92,0-.42-.15-.42-.55-.42-.6,1.94-1.86,3.27-2.67,3.93-.77.63-1,.66-1.25.66-.51,0-.81-.4-.81-.79,0-.33.07-.39,1.05-1.08.39-.29,1.36-1.08,2.08-2.71h-.86c-.69,1.28-1.67,2.33-2.98,3.18-.44.29-1.35.84-1.79.84s-.74-.39-.74-.79.29-.54.53-.64c1.29-.6,2.61-1.5,3.25-2.58h-.87Zm6.76-5.73c0,1.38-.3,1.68-1.68,1.68h-4.86c-1.38,0-1.68-.3-1.68-1.68v-1.68c0-1.35.27-1.68,1.68-1.68h4.86c1.38,0,1.68.3,1.68,1.68v1.68Zm-1.75-1.41v-.32c0-.22-.1-.36-.36-.36h-4c-.28,0-.36.17-.36.36v.32h4.72Zm0,1.14h-4.72v.35c0,.2.08.36.36.36h4c.3,0,.36-.18.36-.36v-.35Z"/><path class="cls-23" d="m344.36,19.46c-.62,0-.89-.3-.89-.86,0-.12.02-.2.03-.27-.75.48-1.81,1.17-2.38,1.17-.6,0-.97-.6-.97-1.14,0-.49.27-.68.42-.77.09-.06,1.3-.66,1.51-.76,1.29-.63,2.38-1.61,3.41-2.61.75-.73,1-.99,1.77-.99s1.04.25,1.8.99c1.33,1.31,2.38,2.19,4.67,3.23.36.16.67.34.67.93,0,.64-.43,1.12-.92,1.12-.63,0-1.7-.69-2.37-1.12.06.3.14,1.08-.87,1.08h-5.88Zm8.58,5.97c0,1.44-.63,1.86-1.86,1.86h-7.53c-1.23,0-1.86-.42-1.86-1.86v-2.92c0-1.47.66-1.88,1.86-1.88h7.53c1.2,0,1.86.4,1.86,1.88v2.92Zm-1.95-2.54c0-.39-.22-.55-.54-.55h-6.27c-.38,0-.55.2-.55.55v2.12c0,.35.18.55.55.55h6.27c.38,0,.54-.21.54-.55v-2.12Zm-.76-5.14c-.38-.27-1.62-1.2-2.46-2.12-.22-.24-.34-.38-.48-.38-.17,0-.32.18-.5.38-.9,1.01-2.42,2.1-2.45,2.12h5.88Z"/><path class="cls-23" d="m362.63,23.83c-.74,1.19-1.53,1.82-2.64,1.82-1.95,0-3.01-2-3.01-4.38,0-4.57,3.4-7,7.18-7,4.57,0,6.4,2.98,6.4,6.25,0,.75,0,3.35-2.73,5.14-1.54,1.04-3.39,1.17-3.63,1.17-.99,0-1-.91-1-1.04,0-.78.55-.87,1.11-.94,1.2-.18,4.19-.65,4.19-4.47,0-2.46-1.33-4.09-3.68-4.24-.49,3.9-1.45,6.48-2.19,7.69Zm-1.47-6.97c-1.73,1.07-2.26,2.97-2.26,4.44s.58,2.25,1.18,2.25c.63,0,1.08-.84,1.48-1.92.83-2.19,1.08-3.81,1.31-5.44-.34.09-.99.24-1.71.67Z"/><path class="cls-23" d="m378.11,17.27h1.77c.25,0,.92.02.92.84,0,.66-.34.89-.92.89h-1.74c.74,1.32,1.53,2.28,1.7,2.44.83.84.83.86.83,1.16,0,.48-.35,1.06-.86,1.06-.27,0-.54-.21-.92-.73-.42-.57-.58-.87-.78-1.28v5.08c0,.24,0,.83-.84.83s-.93-.36-.93-.83v-4.47c-.64,1.23-1.26,1.95-1.47,2.19-.27.29-.45.44-.76.44-.54,0-.96-.55-.96-1.05,0-.36.12-.46.93-1.33.78-.83,1.65-2.16,2.21-3.51h-2.13c-.32,0-.93-.04-.93-.83,0-.62.27-.9.93-.9h2.19v-1.53c-.78.09-1.41.17-1.92.17-.62,0-.92-.33-.92-.89,0-.73.53-.78,1.07-.82.22-.02,1.26-.09,1.46-.11,1.62-.18,2.22-.3,3.43-.58.13-.03.25-.03.34-.03.72,0,.79.72.79.9,0,.72-.42.78-2.49,1.12v1.77Zm5.11,6.13c0,.23,0,.86-.9.86-.83,0-.99-.36-.99-.86v-8.13c0-.21,0-.86.9-.86.77,0,.99.3.99.86v8.13Zm3.62,2.15c0,.39-.02,1.32-.81,1.68-.36.16-.92.2-2.22.2-1.08,0-1.17-.03-1.3-.08-.54-.18-.57-.81-.57-1,0-.95.62-.95.95-.95.21,0,1.18.06,1.38.06.51,0,.71-.06.71-.54v-10.74c0-.22,0-.85.87-.85.71,0,1,.24,1,.85v11.37Z"/><path class="cls-23" d="m392.65,23.6c0,.26-.2,1.25-.83,2.49-.29.57-.48.9-.99.9s-1.08-.33-1.08-.83c0-.22.11-.42.36-.88.27-.51.43-.9.63-1.5.2-.57.33-.96.94-.96.2,0,.96.12.96.78Zm.04-1.29c-1.08,0-1.62-.38-1.62-1.62v-4.59c0-1.23.52-1.62,1.62-1.62h2.56c.06-.13.27-.72.33-.84.13-.29.45-.36.81-.36.29,0,1.08.04,1.08.64,0,.11-.12.4-.18.55h3.57c1.1,0,1.64.38,1.64,1.62v4.59c0,1.25-.54,1.62-1.64,1.62h-4.18c.48.29,1.09.72,1.3.87.3.22.48.39.48.73,0,.47-.36.96-.93.96-.32,0-.48-.12-.87-.42-.18-.15-1.04-.72-1.21-.86-.24-.18-.44-.34-.44-.67,0-.23.09-.45.24-.62h-2.56Zm.18-5.62h7.77v-.4c0-.21-.08-.36-.36-.36h-7.03c-.32,0-.38.18-.38.36v.4Zm7.77,1.29h-7.77v.79h7.77v-.79Zm-7.77,2.07v.5c0,.24.1.36.38.36h7.03c.26,0,.36-.12.36-.36v-.5h-7.77Zm2.25,5.18c0,.34.15.43.4.43h2.08c.86,0,.92,0,1.04-.62.08-.4.13-.78.78-.78.6,0,1.11.26,1.11.92,0,.39-.2,1.39-.66,1.81-.38.34-.81.38-2.19.38-.58,0-3.03-.02-3.42-.08-.25-.03-1.02-.27-1.02-1.27v-1.88c0-.24,0-.83.9-.83s.98.44.98.83v1.08Zm7.63-1.4c.13.21,1.08,1.74,1.08,2.13,0,.62-.6.91-1.05.91-.48,0-.54-.15-.99-.96-.08-.15-.71-1.32-1.02-1.77-.29-.41-.29-.53-.29-.65,0-.63.75-.87,1.02-.87.45,0,.58.18,1.25,1.2Z"/></g></g></g></g><path class="cls-23" d="m215.69,15.4c.15-1.56.99-1.72,1.94-1.72h4.62c.32,0,1.11.08,1.11,1,0,1.02-.88,1.02-1.11,1.02h-3.96c-.14,0-.65,0-.7.61l-.25,2.7c.44-.32.99-.71,2.31-.71,2.07,0,4.28,1.5,4.28,4.61,0,3.35-2.29,4.88-4.71,4.88-3.3,0-4.56-2.55-4.56-3.5s.95-1.02,1.12-1.02c.88,0,1.09.58,1.17.83.14.37.58,1.67,2.21,1.67,1.26,0,2.38-.85,2.38-2.77s-1.24-2.69-2.36-2.69-1.5.44-1.92.88c-.42.44-.85.44-1.02.44-.48,0-1.14-.15-1.05-1.11l.49-5.13Z"/></g><g><path class="cls-20" d="m576.78,387.6c3.04,0,3.96,2.41,3.96,4.1s-.72,2.65-1.93,4.15c-2.99,3.86-10.04,12.83-12.06,27.65-.05.39-.19,2.12-.29,2.51-.14.58-.96,1.98-3.91,1.98-4.25,0-4.25-2.32-4.25-3.14,0-3.23,2.94-14.09,7.19-21.37,1.59-2.7,3.28-5.36,5.16-7.91.1-.14.24-.43.24-.63,0-.48-.77-.53-1.11-.53h-13.08c-.82,0-3.76,0-3.76-3.38s2.89-3.43,3.76-3.43h20.07Z"/><path class="cls-20" d="m611.76,415.58c0,1.98-.39,12.4-13.56,12.4-4.68,0-8.54-1.06-11.14-4.44-1.64-2.08-2.61-4.68-2.61-6.71,0-1.88,1.11-3.47,3.86-3.47,3.52,0,3.81,1.59,4.15,3.86.05.43.63,3.96,5.5,3.96,2.7,0,5.65-1.3,5.65-5.6,0-1.35,0-5.93-5.65-5.93-1.79,0-3.96,0-3.96-3.09s2.17-3.09,3.96-3.09c3.81,0,4.49-3.18,4.49-5.36,0-2.6-1.4-4.78-4.44-4.78-2.03,0-4.54.34-5.11,4.34-.19,1.45-.43,3.09-3.76,3.09-2.07,0-3.86-.82-3.86-3.38s2.17-10.86,12.64-10.86c8.68,0,12.59,5.45,12.59,11.29,0,1.11,0,5.31-4.1,7.86,1.45,1.01,5.36,3.76,5.36,9.89Z"/><path class="cls-20" d="m627.73,413.75c-8.2,0-12.01-6.42-12.01-13.22,0-7.24,4.25-13.99,13.17-13.99,5.07,0,8.39,2.46,10.08,4.54,1.83,2.27,4.05,5.89,4.05,15.1,0,8.15-1.54,21.81-14.67,21.81-8.93,0-12.06-6.32-12.06-8.93,0-1.11.77-3.28,3.96-3.28,2.89,0,3.33,1.16,4.05,2.99.58,1.59,1.88,2.41,4,2.41,2.32,0,5.89-.63,6.32-10.04-1.64,1.4-3.04,2.61-6.9,2.61Zm-3.67-13.51c0,5.07,2.51,6.95,5.31,6.95,3.04,0,5.4-2.27,5.36-6.95,0-4.54-2.17-6.9-5.36-6.9-2.56,0-5.31,1.64-5.31,6.9Z"/></g></g></g></g></g></svg>