<?xml version="1.0" encoding="UTF-8"?><svg id="Layer_2" xmlns="http://www.w3.org/2000/svg" viewBox="0 0 64 52"><defs><style>.cls-1{fill:none;}.cls-2{fill:#f36e64;}.cls-3{fill:#fff;font-family:ArialRoundedMTBold, 'Arial Rounded MT Bold';font-size:32px;letter-spacing:.1em;}</style></defs><g id="PC"><g><rect class="cls-1" width="64" height="52"/><circle class="cls-2" cx="36" cy="26" r="26"/><text class="cls-3" transform="translate(25.74 36.66)"><tspan x="0" y="0">1</tspan></text><polygon class="cls-2" points="54.46 38.02 60.4 48.54 48.18 44.14 54.46 38.02"/><g><path class="cls-2" d="M1.66,11.07c-.1,.04-.17,.11-.21,.21l-.65,1.82c-.03,.1-.02,.2,.03,.29,.05,.09,.14,.15,.24,.17l5.76,.99c.17,.03,.33-.07,.39-.23,.02-.05,.02-.1,.02-.15-.01-.11-.08-.21-.18-.27L1.95,11.09c-.09-.05-.2-.06-.29-.02Z"/><path class="cls-2" d="M.55,17.42l.45,1.88c.02,.1,.09,.18,.18,.23,.09,.05,.2,.05,.3,0l5.37-2.32c.14-.06,.23-.21,.21-.36,0-.02,0-.03,0-.05-.04-.17-.2-.28-.37-.27l-5.82,.43c-.1,0-.2,.06-.26,.14-.06,.08-.08,.19-.06,.29Z"/><path class="cls-2" d="M5.14,6.46l-1.52,1.2c-.08,.06-.13,.16-.13,.26,0,.1,.04,.2,.12,.27l4.34,3.92c.13,.11,.32,.12,.45,.01,.1-.08,.14-.2,.13-.31,0-.05-.02-.09-.04-.13l-2.82-5.11c-.05-.09-.14-.15-.24-.17-.1-.02-.21,0-.29,.07Z"/></g></g></g></svg>