<?xml version="1.0" encoding="UTF-8"?><svg id="Layer_2" xmlns="http://www.w3.org/2000/svg" viewBox="0 0 677 171"><defs><style>.cls-1{fill:none;}.cls-2{fill:#f9d6d8;}.cls-3{fill:#f8cfdc;}.cls-4{fill:#f4c1c4;}.cls-5{fill:#fff;}.cls-6{fill:#f36e64;}.cls-7{fill:#eda6aa;}.cls-8{fill:#8cd893;}.cls-9{fill:#cef2d0;}.cls-10{fill:#404040;}</style></defs><g id="PC"><g><rect class="cls-1" width="677" height="171"/><g><g><g><polygon class="cls-4" points="58.5 5.44 70.98 24.04 58.5 56.16 160.69 56.16 160.69 5.44 58.5 5.44"/><polygon class="cls-7" points="160.69 56.16 105.3 62.92 105.3 12.21 160.69 5.44 160.69 56.16"/></g><g><polygon class="cls-4" points="612.5 82.55 600.02 63.95 612.5 31.83 510.31 31.83 510.31 82.55 612.5 82.55"/><polygon class="cls-7" points="510.31 31.83 565.7 25.07 565.7 75.78 510.31 82.55 510.31 31.83"/></g><rect class="cls-2" x="117.62" y="18.98" width="435.61" height="50.71"/></g><g><path class="cls-10" d="M163.71,35.33c.33,0,1.43,.03,1.43,1.32,0,1.02-.44,1.43-1.43,1.43h-9.25v5.44h8.21c.36,0,1.43,0,1.43,1.32,0,1.21-.85,1.35-1.43,1.35h-8.21v5.99h9.91c.36,0,1.43,0,1.43,1.29,0,1.04-.47,1.43-1.43,1.43h-22.85c-.33,0-1.43,0-1.43-1.29,0-.99,.41-1.43,1.43-1.43h9.89v-5.99h-8.18c-.38,0-1.43,0-1.43-1.32,0-1.18,.77-1.35,1.43-1.35h8.18v-5.44h-9.23c-.33,0-1.43,0-1.43-1.29,0-.99,.41-1.46,1.43-1.46h11.67c-.27-.14-1.43-.88-1.68-1.02-1.51-.85-2.14-1.1-3.87-1.79-.49-.19-.88-.44-.88-1.04s.47-1.59,1.43-1.59c1.02,0,3.79,1.21,5.63,2.25,1.62,.91,1.81,1.24,1.81,1.79,0,.27-.11,.96-.74,1.4h8.16Z"/><path class="cls-10" d="M176.65,34.72c2.06,0,2.47,.8,2.47,2.64,0,.88-.25,6.26-1.68,10.46,.72,.6,1.26,1.07,1.79,1.65,.25,.33,.41,.63,.41,1.02,0,.71-.55,1.62-1.43,1.62-.58,0-.72-.16-1.95-1.54-.74,1.43-1.9,3.1-2.72,4.01-.69,.77-1.04,.96-1.54,.96-.91,0-1.48-.8-1.48-1.48,0-.52,.11-.66,1.51-2.17,.52-.58,1.48-1.68,2.28-3.19-.47-.38-2.58-1.89-2.94-2.28-.52-.52-.52-1.15-.52-1.4,0-.3,.14-.99,.55-2.91,.47-2.12,.74-4.07,.85-4.72h-.52c-.33,0-1.4,0-1.4-1.32s1.07-1.35,1.4-1.35h.83c.3-3.54,.33-3.93,.49-4.2,.17-.3,.49-.58,1.1-.58,.74,0,1.32,.41,1.32,1.35,0,1.07-.19,2.31-.33,3.43h1.51Zm-1.89,2.66c-.06,.36-.36,2.42-1.02,5.25-.27,1.21-.38,1.62-.38,1.76,0,.22,.03,.39,.3,.6,.25,.19,1.46,.99,1.7,1.18,1.21-3.76,1.37-8.05,1.37-8.07,0-.19,0-.71-.77-.71h-1.21Zm13.84,17.03c0,.47-.06,1.4-1.24,1.4-.99,0-1.26-.6-1.26-1.4v-7.33h-1.9c-.6,0-.77,.33-.77,.77v5.05c0,.36,0,1.43-1.26,1.43-1.15,0-1.26-.88-1.26-1.43v-5.19c0-.47,.03-1.02,.27-1.62-.17,.08-.36,.19-.77,.19-1.15,0-1.29-.82-1.29-1.43v-1.46c0-2.14,.52-2.69,2.69-2.69h11.23c2.14,0,2.69,.52,2.69,2.69v1.46c0,.49-.08,1.43-1.32,1.43-.33,0-.49-.08-.66-.11,.14,.33,.25,.71,.25,1.54v3.87c0,2.25-.8,2.5-3.3,2.5-.52,0-1.65,0-1.65-1.48,0-1.21,.69-1.21,1.46-1.24,.58,0,.88-.06,.88-.85v-2.66c0-.49-.22-.77-.77-.77h-2.03v7.33Zm-6.87-18.15c-.58,0-.99-.25-.99-.91,0-.55,.19-.99,.99-.99h9.8v-.55c-.03-.27-.05-.8-.77-.8h-9.42c-.44,0-1.18-.06-1.18-1.04,0-.82,.47-1.1,1.18-1.1h10.08c2.28,0,2.83,.58,2.83,2.86v2.94c0,2.25-.49,2.86-2.83,2.86h-10.19c-.28,0-1.07,0-1.07-.96,0-.8,.49-.99,1.07-.99h9.53c.69,0,.77-.44,.77-.8v-.52h-9.8Zm-.03,8.73c0,.16-.03,.22-.06,.41,.44-.41,1.02-.63,2.2-.63h2.25v-1.84h-3.63c-.49,0-.77,.25-.77,.77v1.29Zm6.89-.22h2.47c1.07,0,1.62,.19,2.03,.49v-1.56c0-.49-.28-.77-.77-.77h-3.74v1.84Z"/><path class="cls-10" d="M206.18,36.77c.09-.47,.24-1.25,1.25-1.25,.24,0,1.29,.04,1.29,.97,0,.43-.26,1.48-.65,2.99,.95-.02,1.03-.02,1.4-.02,1.55,0,2.97,.13,4.07,1.87,.92,1.46,.92,3.29,.92,4.07,0,6.99-1.59,9.06-4.71,9.06-1.79,0-3.25-.69-3.64-.9-.24-.15-.6-.41-.6-.99,0-.54,.32-1.2,.97-1.2,.28,0,.39,.06,1.42,.49,.47,.19,1.23,.32,1.7,.32,1.16,0,1.63-.47,2.02-1.94,.41-1.59,.47-3.96,.47-4.95,0-2.71-.49-3.68-3.14-3.68-.41,0-.78,.02-1.44,.06-.56,2.22-1.08,4.19-2.64,8.28-1.64,4.26-2,4.26-2.6,4.26-.65,0-1.38-.47-1.38-1.12,0-.45,.15-.73,.47-1.29,.88-1.57,2.69-5.83,3.7-9.96-.49,.04-2.75,.28-3.1,.28-1.03,0-1.14-.67-1.14-1.14,0-.97,.67-1.1,.9-1.14,.3-.04,1.7-.13,3.87-.26,.13-.58,.39-1.72,.58-2.82Zm8.39,.88c1.03,0,3.03,1.46,4.17,4.13,.58,1.38,.8,2.49,.95,3.64,.04,.26,.15,1.18,.15,1.74,0,.28,0,1.33-1.33,1.33-1.03,0-1.12-.73-1.16-1.31-.13-1.48-.28-3.12-1.25-5.25-.41-.9-.58-1.05-2.04-2.37-.28-.24-.56-.49-.56-.93s.28-.69,.41-.77c.24-.17,.47-.21,.67-.21Zm1.12-1.59c-.06-.11-.11-.28-.11-.43,0-.39,.45-.58,.71-.58s.43,.04,1.08,1.14c.28,.45,.84,1.44,.84,1.85,0,.45-.49,.62-.71,.62-.09,0-.41-.02-.6-.41-.17-.32-.39-.8-.56-1.1-.09-.17-.56-.95-.65-1.1Zm2.54-.49c-.04-.13-.09-.28-.09-.41,0-.34,.39-.58,.71-.58,.34,0,.47,.17,.88,.82,.3,.45,.99,1.72,.99,2.13s-.41,.62-.69,.62c-.41,0-.56-.32-.67-.56-.19-.41-.24-.49-.49-.95-.11-.17-.56-.93-.65-1.08Z"/><path class="cls-10" d="M225.56,42.83c-.33,0-1.7,0-1.7-1.51,0-1.18,.58-1.68,1.7-1.68h5.85c.36-.74,.85-1.95,1.21-2.69,.19-.41,.49-1.04,1.54-1.04s2.17,.58,2.17,1.48c0,.52-.17,.88-.83,2.25h12.55c.44,0,1.7,.03,1.7,1.59,0,1.32-.85,1.59-1.7,1.59h-2.66c-.33,1.04-1.26,3.84-3.57,6.45,2.55,1.1,2.8,1.24,5.14,2.44,.77,.41,1.32,.77,1.32,1.68,0,1.26-1.02,2.06-1.84,2.06-.63,0-.83-.11-3.21-1.51-1.76-1.04-3.41-1.79-4.26-2.17-1.4,1.02-2.99,1.76-4.64,2.33-3.32,1.15-7.11,1.51-7.85,1.51-.36,0-1.76,0-1.76-1.89,0-1.54,1.07-1.65,1.87-1.7,1.84-.14,5.16-.41,8.35-1.9-1.54-.55-1.9-.66-5.25-1.7-.82-.25-1.9-.58-1.9-1.76,0-.6,.27-1.13,.63-1.7,.63-.99,.69-1.1,1.32-2.14h-4.18Zm20.38-10.74c2.06,0,3.18,.66,3.18,3.19v1.84c0,.85-.19,1.76-1.62,1.76-1.24,0-1.9-.33-1.9-1.7v-1.24c0-.49-.22-.8-.8-.8h-16.01c-.55,0-.8,.27-.8,.8v1.24c0,.55-.06,1.7-1.65,1.7-1.43,0-1.89-.52-1.89-1.7v-1.89c0-2.44,1.04-3.19,3.18-3.19h7.36v-.88c0-.93,.55-1.37,1.62-1.37,1.24,0,1.92,.27,1.92,1.37v.88h7.39Zm-12.11,10.74c-.52,.91-.8,1.37-1.24,2.06-.25,.41-.36,.55-.36,.74,0,.44,.41,.55,.66,.63,1.79,.52,4.09,1.18,5.36,1.65,1.92-1.92,2.88-4.12,3.32-5.08h-7.75Z"/><path class="cls-10" d="M259.89,39.75c0,.74-.38,5.93-1.84,10.33-.55,1.7-.88,2.36-1.95,2.36-.91,0-2.11-.69-2.11-1.9,0-.38,.08-.63,.82-2.77,1.13-3.27,1.4-6.4,1.51-7.85,.11-1.37,.44-1.79,1.92-1.79,.08,0,1.65,0,1.65,1.62Zm11.84-3.08c-.33,0-.74-.14-1.4-.41-3.13-1.32-4.56-1.92-8.71-2.77-.6-.11-1.54-.3-1.54-1.54,0-.38,.19-1.87,1.65-1.87,.99,0,5.36,.99,9.06,2.42,2.01,.77,2.5,1.07,2.5,2.06,0,.8-.52,2.12-1.57,2.12Zm-6.56,14.23c0,.96,.52,.96,1.73,.96,3.13,0,3.13-.03,3.41-.69,.19-.41,.22-.66,.44-3.1,.05-.52,.16-1.59,1.62-1.59,1.81,0,1.81,1.43,1.81,1.81,0,1.54-.33,4.42-1.24,5.63-1.02,1.35-2.12,1.4-5.66,1.4-2.31,0-3.1,0-3.84-.16-1.84-.41-1.84-2.42-1.84-3.05v-14.09c0-.66,.11-1.68,1.73-1.68,1.73,0,1.84,.99,1.84,1.68v12.88Zm12.5-9.75c1.51,4.17,2.36,8.54,2.36,9.64,0,1.65-1.65,1.7-2.09,1.7-1.37,0-1.59-.93-1.73-1.7-.88-5.22-1.24-6.18-2.83-10.46-.08-.22-.3-.82-.3-1.26,0-.85,.8-1.51,2.01-1.51,1.04,0,1.32,.16,2.58,3.6Z"/><path class="cls-10" d="M290.77,32.66c0,.71-.19,3.93-.22,4.59-.19,5.27-.19,6.18-.19,7.36,0,3.54,0,6.67,5.27,6.67,5.85,0,7.36-3.02,8.13-5.6,.11-.41,.47-2.28,.58-2.66,.33-1.13,1.37-1.13,1.68-1.13,.44,0,2.09,.08,2.09,1.68,0,1.04-.49,4.01-2.39,6.78-2.2,3.21-5.8,4.42-9.97,4.42-2.91,0-5.05-.58-6.51-1.73-2.06-1.65-2.64-3.6-2.64-7.39,0-4.39,.22-13.1,.22-13.21,.11-1.07,.47-1.81,2.06-1.81,1.9-.03,1.9,1.4,1.9,2.03Z"/><path class="cls-10" d="M317.58,36.26c-.33,.03-1.79,.16-2.09,.16-1.59,0-1.81-1.13-1.81-1.9,0-1.18,.47-1.76,1.79-1.89,1.43-.14,16.78-.66,19.72-.66,1.56,0,2.83,0,2.83,1.76s-1.26,1.84-2.77,1.84c-2.2,.03-3.87,.47-6.65,2.17-1.9,1.15-5.52,4.12-5.52,8.16,0,3.76,3.19,4.81,8.27,4.81,2.2,0,2.44-.03,2.86,.08,.91,.22,1.18,.88,1.18,1.62,0,2.11-1.65,2.11-3.32,2.11-3.9,0-6.95-.8-8.82-1.65-2.75-1.26-3.93-4.01-3.93-6.65,0-2,.49-4.61,3.52-7.66,1.56-1.57,2.66-2.22,3.84-2.91-3.02,.19-6.07,.38-9.09,.6Z"/><path class="cls-10" d="M352.16,37.03h3.24c.47,0,1.68,.03,1.68,1.54,0,1.21-.63,1.62-1.68,1.62h-3.19c1.35,2.42,2.8,4.17,3.1,4.48,1.51,1.54,1.51,1.57,1.51,2.12,0,.88-.63,1.95-1.57,1.95-.49,0-.99-.39-1.68-1.35-.77-1.04-1.07-1.59-1.43-2.33v9.31c0,.44,0,1.51-1.54,1.51s-1.7-.66-1.7-1.51v-8.18c-1.18,2.25-2.31,3.57-2.69,4.01-.49,.52-.82,.8-1.4,.8-.99,0-1.76-1.02-1.76-1.92,0-.66,.22-.85,1.7-2.44,1.43-1.51,3.02-3.95,4.04-6.43h-3.9c-.58,0-1.7-.08-1.7-1.51,0-1.13,.49-1.65,1.7-1.65h4.01v-2.8c-1.43,.16-2.58,.3-3.52,.3-1.13,0-1.68-.6-1.68-1.62,0-1.35,.96-1.43,1.95-1.51,.41-.03,2.31-.17,2.66-.19,2.97-.33,4.07-.55,6.29-1.07,.25-.05,.47-.05,.63-.05,1.32,0,1.46,1.32,1.46,1.65,0,1.32-.77,1.43-4.56,2.06v3.24Zm9.36,11.23c0,.41,0,1.57-1.65,1.57-1.51,0-1.81-.66-1.81-1.57v-14.89c0-.39,0-1.57,1.65-1.57,1.4,0,1.81,.55,1.81,1.57v14.89Zm6.62,3.93c0,.71-.03,2.42-1.48,3.08-.66,.3-1.68,.36-4.07,.36-1.98,0-2.14-.05-2.39-.14-.99-.33-1.04-1.48-1.04-1.84,0-1.73,1.13-1.73,1.73-1.73,.38,0,2.17,.11,2.53,.11,.93,0,1.29-.11,1.29-.99V31.37c0-.41,0-1.57,1.59-1.57,1.29,0,1.84,.44,1.84,1.57v20.82Z"/><path class="cls-10" d="M388.39,47.63v6.29c0,.69-.11,1.68-1.51,1.68-1.18,0-1.76-.36-1.76-1.68v-6.29h-5.74c-.22,2.17-.58,3.95-1.56,6.1-.82,1.76-1.32,2.03-2.14,2.03-1.15,0-2.11-.85-2.11-1.9,0-.38,.03-.41,1.15-2.58,.69-1.37,1.32-3.71,1.32-7.17v-9.75c0-2.64,1.13-3.43,3.41-3.43h15c2.25,0,3.43,.77,3.43,3.43v18.1c0,3.21-1.7,3.21-4.67,3.21-1.54,0-2.86,0-2.86-1.84,0-.99,.41-1.7,1.57-1.7,.25,0,1.4,.03,1.65,.03,.6,0,.82-.3,.82-1.04v-3.49h-5.99Zm-3.27-9.86v-3.6h-4.64c-.66,0-.93,.36-.93,.93v2.66h5.57Zm0,3.02h-5.57v3.76h5.57v-3.76Zm3.27-3.02h5.99v-2.66c0-.58-.3-.93-.93-.93h-5.05v3.6Zm5.99,3.02h-5.99v3.76h5.99v-3.76Z"/><path class="cls-10" d="M422.4,42.5c.28,.77,.66,1.87,.66,3.68,0,5.47-3.65,7.8-8.1,8.46-2,.3-3.73,.33-4.09,.33-.55,0-2.17,0-2.17-1.79,0-1.46,.96-1.46,2.72-1.48,6.29-.05,7.58-2.44,8.05-4.37-.77,.85-1.73,1.89-4.59,1.89-4.37,0-6.76-2.44-6.76-5.41s2.36-5.47,6.76-5.47c.41,0,2.45,0,3.98,.8l-.06-2.36c-3.41,.08-6.73,.14-10.27,.14-2.99,0-3.1-.03-3.46-.11-.28-.08-.96-.38-.96-1.57,0-1.62,1.24-1.62,2.11-1.62h3.05c3.76,0,7.28-.06,9.47-.11l-.03-1.26c0-.44-.03-1.87,1.81-1.87s1.87,1.37,1.87,1.81v1.26c.52-.03,4.12-.14,4.31-.14,.69,0,1.81,.11,1.81,1.65s-.99,1.62-2.75,1.68c-.55,0-2.91,.06-3.38,.08v5.77Zm-3.54,1.21c0-2.31-2.53-2.61-3.46-2.61-1.54,0-3.76,.69-3.76,2.72s2.2,2.61,3.54,2.61c2.83,0,3.68-1.48,3.68-2.72Z"/><path class="cls-10" d="M448.77,38.9c5.74,0,8.27,3.54,8.27,7.55,0,2.17-.82,5.74-5.03,7.5-1.92,.8-4.01,1.04-6.07,1.04-3.27,0-4.83-.66-5.91-1.32-1.21-.74-1.92-2.03-1.92-3.41,0-3.32,2.99-4.7,5.82-4.7,1.29,0,5.44,.22,5.44,4.64,0,.55-.06,.82-.22,1.29,3.24-.69,4.09-3.02,4.09-4.75,0-1.4-.55-2.88-1.73-3.71-1.26-.88-2.94-1.04-4.2-1.04-3.93,0-6.87,1.79-9.23,3.93-1.76,1.59-1.87,1.68-2.47,1.68-1.02,0-1.92-.85-1.92-1.9,0-.77,.19-.93,2.36-2.58,3.32-2.47,9.23-6.89,10.99-8.57-.66,.06-7.85,.47-8.95,.47-.55,0-1.87-.03-1.87-1.76s1.29-1.7,1.95-1.73c1.51-.03,8.24-.14,9.61-.19,.3-.03,1.95-.08,2.91-.08s2.33,.19,2.33,1.76c0,1.26-.3,1.46-3.41,3.46-2.22,1.43-3.35,2.39-4.12,3.02,.74-.27,1.54-.6,3.27-.6Zm-2.28,11.75c0-2.06-1.7-2.25-2.61-2.25-1.43,0-2.55,.71-2.55,1.79,0,1.26,1.76,1.87,3.65,1.87,.44,0,.74-.03,1.24-.11,.17-.47,.27-.77,.27-1.29Z"/><path class="cls-10" d="M464.23,40.73c-.97,0-1.7,0-1.7-1.12,0-.9,.49-1.14,1.2-1.14h3.01c.3-1.83,.34-2.02,.41-2.26,.19-.67,.75-.73,1.05-.73,.88,0,1.29,.39,1.29,1.05,0,.28-.02,.58-.26,1.87,2.62-.06,3.7-.09,6.22-.19,.26-.02,1.42-.09,1.66-.09,.34,0,1.2,.04,1.2,1.14s-.82,1.1-1.23,1.12c-4.24,.22-6.32,.26-8.3,.3-.58,2.62-.84,3.87-2.02,7.57-.52,1.66-1.59,4.73-2.02,5.51-.19,.37-.49,.62-1.01,.62-.43,0-1.33-.24-1.33-1.08,0-.24,.02-.43,.45-1.38,.62-1.33,1.79-4.39,2.58-7.34,.34-1.29,.65-2.58,.9-3.87h-2.11Zm16.05,13.36c-.39,.09-1.55,.26-3.68,.26-5.1,0-7.27-.9-7.27-3.46,0-.99,.47-2.37,1.7-2.37,.43,0,1.12,.24,1.12,.82,0,.28-.11,.47-.17,.6-.15,.32-.24,.47-.24,.75,0,.71,.58,1.01,1.33,1.18,.45,.11,1.31,.24,2.6,.24,.93,0,2.07-.04,3.05-.15,1.01-.11,1.14-.13,1.33-.13,.8,0,1.12,.45,1.12,1.1s-.34,1.03-.9,1.16Zm-.13-8.82c-.26,.15-.54,.17-.73,.17s-1.1-.09-1.63-.13c-.32-.02-.58-.02-1.1-.02-1.05,0-2.13,.04-3.16,.15-.24,.02-1.87,.19-1.96,.19-.99,0-.99-.99-.99-1.1,0-.84,.56-1.1,1.98-1.29,1.38-.19,3.48-.26,4.47-.26,.04,0,2.45,.02,3.05,.32,.47,.26,.47,.67,.47,1.08,0,.26-.13,.69-.41,.88Z"/><path class="cls-10" d="M489.14,53.16c-1.7,0-3.42-1.44-3.42-4.69,0-2.5,1.03-4.88,2.86-6.6-.43-1.51-.92-3.59-.92-4.26,0-1.05,.95-1.08,1.25-1.08,.67,0,.86,.37,.97,.82,.13,.5,.52,2.69,.6,3.12,1.94-1.1,3.81-1.38,5.12-1.51,.09-.41,.45-2.28,.54-2.65,.11-.56,.39-.93,1.12-.93,.64,0,1.27,.3,1.27,1.14,0,.43-.54,2.45-.56,2.54,.58,.09,1.79,.28,3.12,.93,2.75,1.35,3.68,3.96,3.68,6.37,0,2.17-.8,4.84-2.99,6.28-1.63,1.1-4.02,1.68-5.98,1.68-.3,0-1.31,0-1.31-1.23,0-.86,.39-.9,1.57-1.03,2.11-.22,3.25-.49,4.3-1.27,1.4-1.03,2.06-2.75,2.06-4.5,0-4.52-3.76-5.03-5.01-5.18-.79,2.54-1.66,5.1-2.95,7.44,.8,.8,.95,.97,.95,1.36,0,.54-.56,1.23-1.14,1.23-.45,0-.82-.32-1.14-.6-.78,1.05-2.22,2.62-3.98,2.62Zm.17-9.03c-1.29,1.68-1.44,3.51-1.44,4.37,0,1.44,.58,2.49,1.46,2.49,.71,0,1.4-.6,2.43-2.04-1.03-1.48-1.81-3.14-2.45-4.82Zm3.72,2.71c.09-.15,1.2-2.41,2.07-5.72-1.81,.26-2.84,.58-4.07,1.42,.49,1.48,1.12,2.95,2,4.3Z"/><path class="cls-10" d="M516.99,49.91c-.86,1.48-1.94,2.58-3.59,2.58-2.56,0-4.22-2.67-4.22-6.22,0-6.32,4.67-9.94,10.22-9.94,7.16,0,9.14,5.01,9.14,8.78,0,1.25,0,5.12-4.32,7.66-2.07,1.2-4.52,1.42-4.8,1.42-1.25,0-1.25-1.14-1.25-1.25,0-.95,.67-1.05,1.55-1.16,1.61-.21,6.3-.97,6.3-6.71,0-2.84-1.31-6.24-5.89-6.47-.82,6.56-2.37,10-3.14,11.31Zm-1.87-10.32c-2.69,1.53-3.61,4.43-3.61,6.73s1.01,3.64,1.98,3.64,1.61-1.1,2.26-2.84c1.2-3.16,1.61-5.57,2-8.45-.56,.11-1.55,.32-2.62,.93Z"/></g></g><g><g><path class="cls-6" d="M96.81,150.69c-4.91,0-5.2-4.16-5.2-4.97,0-6.18,8.03-12.42,11.96-15.25,7.86-5.72,10.4-7.57,10.4-13,0-4.27-2.2-6.99-6.06-6.99-5.78,0-6.18,5.43-6.29,6.58-.12,1.67-.4,4.33-4.62,4.33-1.04,0-4.97-.29-4.97-4.56,0-3.93,3-14.5,15.77-14.5,9.59,0,15.88,6.35,15.88,15.71,0,8.6-4.74,12.01-12.47,17.56-.81,.58-6.53,4.68-6.53,6.18,0,.69,.98,.75,1.39,.75h13.23c.92,0,4.5,0,4.5,4.04s-3.41,4.1-4.5,4.1h-22.47Z"/><path class="cls-6" d="M144.86,142.37c.63,0,2.71,.17,3.41,.23,1.44,.12,2.83,.17,4.16,.17,7.39,0,21.43-.75,21.43-14.61,0-8.66-5.72-11.9-12.47-11.9s-13.4,1.85-17.27,3.12c-6.47,2.08-7.16,2.31-8.32,2.31-3.75,0-4.45-3.64-4.45-5.2,0-3.41,1.91-4.27,5.2-5.2,12.65-3.7,21.89-3.93,24.89-3.93s11.44,0,17.21,6.06c3.7,3.87,5.14,9.24,5.14,14.61,0,15.19-10.86,20.1-14.15,21.25-6.01,2.14-12.36,2.71-18.65,2.71-2.66,0-5.78,0-7.97-.69-1.91-.58-2.77-2.31-2.77-4.22s.46-4.74,4.62-4.74Z"/><path class="cls-6" d="M215.21,141.91c-3.06,4.79-6.47,7.1-10.86,7.1-8.37,0-11.96-8.49-11.96-17.1,0-18.65,13.98-27.38,27.95-27.38,16.98,0,24.89,10.68,24.89,24.2,0,21.6-20.04,24.78-24.55,24.78s-4.62-4.1-4.62-4.74c0-3.7,2.6-4.1,4.5-4.39,4.85-.75,15.02-2.25,15.02-16.17,0-9.93-5.72-14.38-11.9-14.96-1.21,9.76-4.39,22.29-8.49,28.65Zm-13.92-9.93c0,4.74,1.79,7.1,3.58,7.1,2.37,0,4.04-3.64,5.31-7.1,2.89-7.97,3.81-13.75,4.5-18.48-12.36,3.35-13.4,14.61-13.4,18.48Z"/><path class="cls-6" d="M295.84,146.7c1.96,.17,4.45,.17,7.16,.17,2.48,0,4.45,.81,4.45,4.27,0,4.33-2.83,4.33-4.68,4.33-5.95,0-9.64,0-13.46-2.25-2.19-1.33-3.98-3.12-5.31-5.31-1.16,3.41-2.31,5.6-2.43,5.78-.4,.69-1.39,2.48-3.35,2.48-1.04,0-4.39-.75-4.22-4.16-.35,.12-.81,.35-1.56,.35-1.5,0-2.6-1.16-3.87-2.83-.58-.81-1.1-1.62-1.5-2.25-2.83,5.26-7.68,8.89-10.17,8.89-1.79,0-4.04-1.79-4.04-4.33,0-1.44,.64-2.25,2.14-3.41,3.93-3,5.37-4.33,6.64-7.45h-6.06c-1.33,0-3.64-.12-3.64-3.58s2.6-3.58,3.64-3.58h7.51c.06-1.04,.12-1.73,.12-3.41h-3.06c-2.08,2.6-3,3-3.98,3-1.91,0-4.1-1.5-4.1-3.7,0-.23,0-.87,.52-1.79,.29-.52,2.48-3.06,2.95-3.7,.75-1.04,2.19-3.18,2.54-3.81-3.7-.75-3.87-3.18-3.87-6.99v-8.43c0-2.43,.87-3.7,4.39-3.7,3.75,0,3.81,2.43,3.81,3.7,2.14-.29,3.75-.58,6.41-1.5,3.64-1.21,3.7-1.21,4.56-1.21,3.23,0,3.58,2.95,3.58,3.75,0,2.31-1.33,2.66-4.79,3.58-2.95,.81-4.85,1.16-9.76,1.96v1.39c0,1.04,.75,1.1,1.21,1.1h5.49c1.56,0,1.73-.06,2.37-1.44,.69-1.44,1.16-2.31,3.35-2.31,.87,0,4.1,.29,4.1,3.35,0,.87-.29,2.37-.87,3.64-1.27,2.95-3.06,3.29-5.89,3.29h-8.55c.69,.69,.75,1.44,.75,1.91,0,.35-.06,.58-.12,.92h9.65c1.1,0,2.31,.06,3.18,1.44-.06-.29-.17-.63-.17-1.33,0-3.7,2.89-3.81,4.22-3.81h8.09c-1.1-.75-2.77-1.79-4.16-2.54-2.31-1.33-3.35-1.91-3.35-3.52,0-1.44,1.15-3.06,3.23-3.06,1.91,0,5.02,1.67,7.05,2.83,.92-.63,3.35-2.25,3.35-2.71,0-.23-.23-.4-.52-.4h-12.53c-2.83,0-4.16-1.16-4.16-3.75,0-3.06,2.08-3.7,4.16-3.7h17.79c2.2,0,5.6,0,5.6,4.27,0,2.77-1.16,5.08-8.2,9.76,1.21,.87,1.91,1.44,1.91,2.83h1.1c4.33,0,6.12,.98,6.12,4.79,0,1.27-.4,2.83-.75,4.1-1.04,3.81-2.08,4.27-3.81,4.27s-3.87-.4-3.87-2.37c0-.46,.12-.75,.4-1.33,.17-.35,.46-.98,.46-1.27,0-.52-.52-.52-.64-.52h-2.54v6.24h5.6c3.52,0,4.16,1.73,4.16,3.98,0,3.23-2.77,3.47-4.16,3.47h-5.6v5.6Zm-7.22-19.29h-7.51c-1.04,0-2.89-.06-3.75-1.73,.06,.29,.12,.64,.12,1.21,0,2.95-1.67,3.52-3.58,3.52h-3.29c0,.98,0,1.5-.12,3.41h4.97c.92,0,3.52,0,3.52,3.35,0,2.66-.87,3.81-3.52,3.81h-4.85c1.04,1.39,1.33,1.73,4.04,4.68,.23,.17,.92,.98,1.27,1.73,1.85-3.58,3.18-6.12,3.87-14.84,.12-1.33,.29-3.75,3.46-3.75,1.73,0,3.41,.81,3.41,3.29,0,.87-.23,3.75-.58,6.24,.87,2.14,1.85,3.41,2.54,4.22v-15.13Z"/><path class="cls-6" d="M323,151.96c0,.92,0,4.27-4.1,4.27-3.7,0-4.39-2.02-4.39-4.27v-42.22c0-5.2,2.25-6.87,6.81-6.87h10.51c4.74,0,6.82,1.91,6.82,6.87v10.63c0,5.2-2.25,6.87-6.82,6.87h-8.84v24.72Zm7.39-39.39v-1.44c0-.69-.35-1.1-1.1-1.1h-5.2c-.81,0-1.1,.4-1.1,1.1v1.44h7.39Zm-7.39,8.26h6.29c.46,0,1.1-.17,1.1-1.1v-1.56h-7.39v2.66Zm12.36,29.4c-6.06,0-7.28-1.16-7.28-7.33v-6.06c0-6.01,1.1-7.28,7.28-7.28h9.53c6.12,0,7.28,1.15,7.28,7.28v6.06c0,1.79,0,2.71-.29,3.99,.63,0,3.41,.12,3.99,.12,1.33,0,1.33-.98,1.33-1.91v-17.85h-8.78c-4.33,0-6.87-1.5-6.87-6.87v-10.63c0-5.2,2.31-6.87,6.87-6.87h10.45c4.79,0,6.87,1.91,6.87,6.87v39.91c0,2.71-1.1,5.37-3.64,6.01-1.33,.35-5.89,.4-7.45,.4-3.81,0-5.95,0-7.05-2.37-.46-1.04-.52-2.48-.35-3.52-.58,0-.98,.06-2.37,.06h-9.53Zm8.84-12.42c0-.81-.4-1.21-1.16-1.21h-5.83c-.81,0-1.16,.46-1.16,1.21v3.81c0,.75,.35,1.16,1.16,1.16h5.83c.81,0,1.16-.46,1.16-1.16v-3.81Zm13-25.24v-1.44c0-.75-.4-1.1-1.1-1.1h-5.2c-.75,0-1.1,.4-1.1,1.1v1.44h7.39Zm0,8.26v-2.66h-7.39v1.56c0,.69,.35,1.1,1.1,1.1h6.3Z"/><path class="cls-10" d="M434.07,112.53c.29-.67,.96-1.77,3.44-1.77,1.72,0,3.87,.62,3.87,2.82,0,.76-.38,1.67-.53,2.01,4.82-.14,13.37-.48,14.42-.48,1.77,0,3.68,.76,3.68,3.44,0,2.91-2.15,3.25-2.87,3.34-1.15,.19-14.09,.57-19.15,.67-1.34,2.1-1.38,2.2-2.2,3.58,2.91-1.62,5.4-1.67,6.07-1.67,1,0,2.72,.19,4.2,1.05,1.77,1.05,2.58,2.53,2.87,3.06,2.82-1,7.59-2.48,9.41-2.48,3.25,0,3.39,3.25,3.39,3.87,0,2.91-2.05,3.39-3.87,3.77-5.21,1.15-5.35,1.19-7.55,1.82,.14,1.86,.24,3.77,.24,4.73,0,2.2,0,4.87-3.63,4.87s-3.63-2.58-3.68-3.34c-.05-1,0-2.67,0-3.68-4.16,1.81-7.07,3.49-7.07,6.21,0,2.15,3.1,2.67,8.02,2.67,3.34,0,6.64-.43,9.93-.91,.81-.14,1.48-.14,1.81-.14,2.48,0,3.2,1.67,3.2,3.44,0,2.63-1.67,3.1-2.29,3.29-3.63,1.1-9.74,1.1-11.13,1.1-7.16,0-10.03-.53-12.61-1.58-2.91-1.15-4.97-3.63-4.97-6.83,0-7.16,8.12-11.46,13.71-13.99-.72-.72-1.67-1.05-2.67-1.05-5.35,0-9.27,4.97-10.46,6.5-.43,.53-2.15,2.82-2.53,3.3-.62,.72-1.53,1.43-2.96,1.43-2.15,0-3.63-1.91-3.63-3.68,0-1.53,.81-2.44,3.39-5.25,2.44-2.67,3.92-4.58,7.35-9.93-.86,0-4.63,.05-5.4,.05-1.05,0-3.96,0-3.96-3.49s2.77-3.39,3.82-3.39c5.59-.05,6.21-.05,9.03-.09,.38-.91,.86-2.34,1.29-3.25Z"/><path class="cls-10" d="M486.31,104.83c2.48,0,5.54,0,5.54,4.62,0,2.89-1.1,4.5-2.37,6.29,1.27,.06,2.77,.12,3.93,1.96,.81,1.33,.81,3.18,.81,5.02v26.1c0,6.64-1.62,7.16-8.43,7.16-2.31,0-3.58,0-4.45-.64-1.33-.98-1.62-2.48-1.62-3.64,0-4.04,2.83-4.04,4.85-4.04,2.48,0,3.12,0,3.12-1.67v-3.35h-11.38c-.06,1.62-.29,4.5-1.21,8.14-1.04,3.93-1.85,5.08-4.16,5.08-2.6,0-4.39-1.91-4.39-3.7,0-.92,.23-1.44,.92-3.29,2.02-5.14,2.37-11.09,2.37-14.55v-11.61c0-1.39,.06-2.14,.17-3.23-2.08,.06-4.04-2.08-4.04-4.33,0-1.27,.17-1.5,3.12-4.85,1.96-2.31,2.31-2.89,4.74-7.22,.92-1.62,1.73-2.25,3.58-2.25,2.31,0,4.62,.92,4.62,2.95,0,.46-.12,.81-.17,1.04h4.45Zm-8.37,7.1c-.69,.92-1.39,1.85-2.95,3.7,.81-.06,.92-.06,2.02-.06h3.41c.35-.4,1.91-2.37,1.91-3,0-.29-.17-.63-.87-.63h-3.52Zm1.62,14.21v-3.75h-1.67c-.75,0-1.1,.4-1.1,1.04v2.71h2.77Zm0,6.06h-2.77v3.81h2.77v-3.81Zm5.37-6.06h2.77v-2.71c0-.69-.35-1.04-1.04-1.04h-1.73v3.75Zm2.77,6.06h-2.77v3.81h2.77v-3.81Zm9.99-21.83c-.87,0-3.58,0-3.58-3.52,0-3.12,1.44-3.87,3.58-3.87h16.46c4.1,0,6.29,.81,6.29,5.43,0,13.57-3.18,13.57-9.3,13.57-2.48,0-5.14,0-5.14-3.75s2.37-3.64,3.29-3.64c2.02,0,3.23,0,3.23-3.18,0-1.04-.69-1.04-1.33-1.04h-3.7c-.69,4.97-4.16,10.63-7.16,12.07,2.6-.06,3.81,.98,3.81,2.66,0,.4,0,.52-.17,1.79h1.73v-1.33c0-2.66,1.85-3.35,3.7-3.35,2.2,0,4.1,.63,4.1,3.35v1.33h3.47c.98,0,3.64,0,3.64,3.7,0,3.29-1.33,4.16-3.64,4.16h-3.47v3.81h3.93c1.21,0,4.22,.12,4.22,3.81,0,2.83-1.04,4.27-4.22,4.27h-3.93v5.37c0,1.5-.23,4.22-3.87,4.22-2.95,0-3.87-1.67-3.87-4.22v-5.37h-6.7c-1.1,0-4.22,0-4.22-3.81,0-2.83,1.04-4.27,4.22-4.27h6.64v-3.81h-3.87c-.75,2.02-1.21,3.23-3.18,3.23-.69,0-3.93-.23-3.93-3.23,0-.98,1.56-5.02,1.85-5.89,.23-.81,.98-4.45,1.33-5.14,.17-.46,.4-.63,.64-.81-2.14,0-4.33-2.31-4.33-4.27,0-1.27,.29-1.5,2.83-3.93,.23-.23,1.67-1.67,2.43-4.33h-1.79Z"/><path class="cls-10" d="M542.34,136.42c0,3.18-6.18,15.25-7.85,17.67-.98,1.39-1.96,1.67-2.95,1.67-1.85,0-4.62-1.44-4.62-4.1,0-1.39,.75-2.77,2.19-5.14,2.25-3.7,2.89-5.02,5.89-11.61,.63-1.33,1.21-2.14,3.29-2.14,1.67,0,4.04,1.21,4.04,3.64Zm-4.45-7.05c-1.1,0-1.56-.35-5.6-3.18-.63-.46-3.41-2.25-3.93-2.66-.81-.69-1.1-1.67-1.1-2.48,0-2.25,1.85-4.45,4.16-4.45,1.85,0,5.54,2.6,7.45,3.87,1.56,1.1,3.29,2.31,3.29,4.33,0,1.56-1.67,4.56-4.27,4.56Zm-5.31-27.84c1.85,0,5.72,2.31,7.74,3.64,2.48,1.56,3.41,2.37,3.41,4.1,0,2.31-1.73,4.79-4.1,4.79-1.33,0-2.31-.64-5.43-2.66-.69-.4-3.87-2.25-4.45-2.71-.4-.29-1.33-1.16-1.33-2.66,0-1.73,1.27-3.87,3.23-4.39,.29-.06,.63-.12,.92-.12Zm33.79,32.29c1.16,3.7,4.27,8.37,10.05,11.67,4.33,2.48,5.43,3.12,5.43,5.54s-1.96,5.08-4.79,5.08-11.61-5.08-16.52-14.55c-2.6,5.2-6.41,8.72-8.14,10.17-1.44,1.21-5.37,4.33-8.03,4.33s-4.68-2.48-4.68-5.02c0-.69,.17-1.39,.52-1.96,.58-1.04,.98-1.27,5.08-3.81,4.16-2.54,7.16-6.76,8.78-11.44h-7.57c-3,0-4.27-1.21-4.27-4.33,0-3.93,3.18-3.93,4.27-3.93h9.01v-9.3h-7.05c-2.95,0-4.22-1.27-4.22-4.1,0-3.18,1.79-3.98,4.22-3.98h7.05v-2.89c0-3.41,1.85-4.1,4.56-4.1,3.93,0,4.1,2.71,4.1,4.1v2.89h6.64c4.62,0,7.68,1.39,7.68,7.68v9.7c1.79,.06,3.81,.12,3.81,4.16s-2.95,4.1-4.04,4.1h-11.9Zm3.52-8.26v-7.74c0-.98-.52-1.56-1.56-1.56h-4.16v9.3h5.72Z"/><path class="cls-10" d="M602.41,146.35c0,3.12-2.48,5.6-5.54,5.6s-5.54-2.48-5.54-5.6,2.48-5.54,5.54-5.54,5.54,2.43,5.54,5.54Zm-2.54-12.76c-.23,1.79-.58,3.47-2.95,3.47s-2.77-1.27-3.06-3.47l-2.02-15.48v-11.09c0-1.62,.29-4.68,4.97-4.68,3.58,0,5.08,1.56,5.08,4.68v11.09l-2.02,15.48Z"/></g><g><g><path class="cls-3" d="M377.74,159.09l-3.29-.55-.29-3.32-.84-.85-3.02-.37c-.19,.22-.3,.47-.4,.72l-2.23,5.49,4.79,5.17,5.64-1.81c.25-.08,.5-.18,.73-.34l-.27-3.25-.81-.88Z"/><path class="cls-3" d="M378.82,163.2v.02s.13-.12,.13-.12c-.04,.03-.09,.06-.13,.09Z"/><path class="cls-3" d="M370.3,154.01h.04c.09-.1,.18-.2,.28-.3l-.32,.3Z"/></g><g><polygon class="cls-8" points="374.45 158.54 374.16 155.23 403.5 128.07 407.08 131.94 377.74 159.09 374.45 158.54"/><path class="cls-8" d="M370.3,154.01l30.01-27.78c.44-.41,1.18-.34,1.64,.16l.75,.81-29.37,27.19-3.02-.37Z"/><path class="cls-8" d="M378.82,163.23l-.27-3.25,29.34-27.16,.92,.99c.46,.5,.48,1.23,.03,1.64l-30.01,27.78Z"/><polygon class="cls-5" points="374.16 155.23 373.32 154.38 402.69 127.19 403.5 128.07 374.16 155.23"/><rect class="cls-5" x="372.83" y="145.36" width="39.98" height="1.2" transform="translate(4.64 303.83) rotate(-42.52)"/></g><path class="cls-8" d="M365.67,166.86c-.31-.33-.35-.87-.12-1.45l2.12-5.2,4.79,5.17-5.35,1.71c-.59,.19-1.12,.1-1.43-.23Z"/></g><path class="cls-9" d="M77.3,165.35c62.62-3.73,125.64-3.77,188.32-2.1,31.08,.83,62.15,2.27,93.16,4.47,2.77,.2,5.87-6.17,2.81-6.39-87.75-6.22-176.04-6.95-263.93-3.24-6.27,.26-12.54,.54-18.8,.91-2.66,.16-5.26,6.57-1.56,6.35h0Z"/></g></g></g></svg>