<?xml version="1.0" encoding="UTF-8"?><svg id="Layer_2" xmlns="http://www.w3.org/2000/svg" viewBox="0 0 608 49"><defs><style>.cls-1{fill:none;}.cls-2{fill:#f36e64;}.cls-3{fill:#404040;}</style></defs><g id="PC"><g><rect class="cls-1" width="608" height="49"/><g><path class="cls-3" d="M11.95,20.74h3.21c.46,0,1.66,.03,1.66,1.52,0,1.2-.63,1.6-1.66,1.6h-3.15c1.33,2.39,2.77,4.13,3.07,4.43,1.5,1.52,1.5,1.55,1.5,2.09,0,.87-.62,1.93-1.55,1.93-.49,0-.98-.38-1.66-1.33-.76-1.03-1.06-1.58-1.41-2.31v9.22c0,.43,0,1.5-1.52,1.5s-1.69-.65-1.69-1.5v-8.1c-1.17,2.23-2.28,3.54-2.67,3.97-.49,.52-.82,.79-1.39,.79-.98,0-1.74-1.01-1.74-1.9,0-.65,.22-.84,1.69-2.42,1.41-1.5,2.99-3.92,4-6.36h-3.86c-.57,0-1.69-.08-1.69-1.5,0-1.11,.49-1.63,1.69-1.63h3.97v-2.77c-1.41,.16-2.56,.3-3.48,.3-1.12,0-1.66-.6-1.66-1.6,0-1.33,.95-1.41,1.93-1.5,.41-.03,2.28-.16,2.64-.19,2.94-.33,4.02-.54,6.23-1.06,.25-.05,.46-.05,.63-.05,1.3,0,1.44,1.31,1.44,1.63,0,1.3-.76,1.41-4.51,2.04v3.21Zm9.27,11.12c0,.41,0,1.55-1.63,1.55-1.5,0-1.79-.65-1.79-1.55v-14.74c0-.38,0-1.55,1.63-1.55,1.39,0,1.79,.54,1.79,1.55v14.74Zm6.55,3.89c0,.71-.03,2.39-1.47,3.05-.65,.3-1.66,.35-4.02,.35-1.96,0-2.12-.05-2.37-.14-.98-.33-1.03-1.47-1.03-1.82,0-1.71,1.11-1.71,1.71-1.71,.38,0,2.15,.11,2.5,.11,.92,0,1.28-.11,1.28-.98V15.14c0-.41,0-1.55,1.58-1.55,1.28,0,1.82,.43,1.82,1.55v20.61Z"/><path class="cls-3" d="M38.3,32.21c0,.46-.35,2.26-1.5,4.51-.52,1.03-.87,1.63-1.79,1.63s-1.96-.6-1.96-1.5c0-.41,.19-.76,.65-1.6,.49-.92,.79-1.63,1.14-2.72,.35-1.03,.6-1.74,1.71-1.74,.35,0,1.74,.22,1.74,1.41Zm.08-2.34c-1.96,0-2.94-.68-2.94-2.94v-8.32c0-2.23,.95-2.94,2.94-2.94h4.65c.11-.25,.49-1.31,.6-1.52,.25-.52,.82-.65,1.47-.65,.52,0,1.96,.08,1.96,1.17,0,.19-.22,.73-.33,1.01h6.47c1.99,0,2.96,.68,2.96,2.94v8.32c0,2.26-.98,2.94-2.96,2.94h-7.59c.87,.52,1.99,1.31,2.37,1.58,.54,.41,.87,.71,.87,1.33,0,.84-.65,1.74-1.69,1.74-.57,0-.87-.22-1.58-.76-.33-.27-1.88-1.31-2.2-1.55-.44-.33-.79-.63-.79-1.22,0-.41,.16-.82,.44-1.12h-4.65Zm.33-10.2h14.08v-.73c0-.38-.14-.65-.65-.65h-12.75c-.57,0-.68,.33-.68,.65v.73Zm14.08,2.34h-14.08v1.44h14.08v-1.44Zm-14.08,3.75v.9c0,.44,.19,.65,.68,.65h12.75c.46,0,.65-.22,.65-.65v-.9h-14.08Zm4.08,9.38c0,.62,.27,.79,.73,.79h3.78c1.55,0,1.66,0,1.88-1.11,.14-.73,.25-1.41,1.41-1.41,1.09,0,2.01,.46,2.01,1.66,0,.71-.35,2.53-1.2,3.29-.68,.63-1.47,.68-3.97,.68-1.06,0-5.49-.03-6.2-.14-.46-.05-1.85-.49-1.85-2.31v-3.4c0-.44,0-1.5,1.63-1.5s1.77,.79,1.77,1.5v1.96Zm13.84-2.53c.24,.38,1.96,3.15,1.96,3.86,0,1.12-1.09,1.66-1.9,1.66-.87,0-.98-.27-1.79-1.74-.14-.27-1.28-2.39-1.85-3.21-.52-.73-.52-.95-.52-1.17,0-1.14,1.36-1.58,1.85-1.58,.82,0,1.06,.33,2.26,2.17Z"/><path class="cls-3" d="M83.89,19.05c1.85,0,1.85,1.66,1.85,1.9,0,1.41-1.01,1.66-2.56,1.93-3.15,.57-8.38,1.85-11.26,3.24-1.39,.65-4.51,2.28-4.51,5.03,0,2.26,1.52,3.51,7.37,3.51,2.77,0,4.24-.22,7.64-.71,.68-.11,.9-.14,1.17-.14,1.01,0,1.79,.49,1.79,1.85,0,1.28-.76,1.6-1.69,1.82-1.71,.38-5.47,.65-8.32,.65-4.81,0-11.8-.52-11.8-6.66,0-5.08,4.65-7.23,7.83-8.73-.16-1.33-.71-3.51-1.09-4.98-.05-.22-.33-1.17-.38-1.36-.08-.3-.16-.65-.16-.95,0-1.2,1.11-1.55,2.01-1.55,1.63,0,1.77,.71,2.23,2.96,.16,.84,.73,3.89,.79,4.57,2.69-1.01,7.88-2.39,9.08-2.39Z"/><path class="cls-3" d="M98.54,15.25c.05-.16,.41-.92,1.55-.92,.46,0,1.96,.08,1.96,1.47,0,.57-.52,2.67-.71,3.4,2.42-.03,3.78-.03,5.08,.9,.52,.35,2.53,1.96,2.53,6.91,0,7.48-1.36,11.39-6.01,11.39-1.47,0-2.94-.33-4.24-.98-.57-.27-1.12-.65-1.12-1.55,0-.65,.41-1.77,1.44-1.77,.41,0,.52,.03,1.66,.49,.57,.25,1.36,.38,1.96,.38,1.36,0,1.85-.6,2.26-2.34,.33-1.41,.54-3.48,.54-5.93,0-2.94-.46-4.27-3.51-4.27-.49,0-.82,0-1.44,.05-1.2,4.38-2.58,8.4-4,11.8-1.28,3.1-1.77,3.78-2.86,3.78-1.01,0-2.07-.82-2.07-1.71,0-.63,.22-.98,.79-1.99,.98-1.74,2.31-4.98,2.99-6.93,.52-1.44,1.17-3.81,1.44-4.68-.57,.05-3.07,.35-3.59,.35-.57,0-1.09-.16-1.36-.6-.27-.41-.3-.9-.3-1.11,0-1.44,.92-1.6,1.33-1.69,.6-.11,1.17-.14,4.76-.35,.14-.62,.73-3.67,.9-4.11Zm10.96,1.17c1.85,0,3.78,2.77,3.89,2.96,2.37,3.34,2.5,7.94,2.5,9.11,0,.46,0,1.93-1.98,1.93-1.47,0-1.63-.98-1.69-1.77-.19-2.34-.3-3.92-1.17-6.15-.54-1.41-.92-1.79-2.5-3.34-.33-.3-.68-.65-.68-1.25s.44-1.03,.63-1.17c.41-.3,.79-.33,1.01-.33Z"/><path class="cls-3" d="M144.68,15.6c.65,0,1.63,.14,1.63,1.36,0,1.06-.68,1.39-1.63,1.39h-22.35c-.38,0-1.63,0-1.63-1.36,0-1.14,.84-1.39,1.63-1.39h9.44v-.71c0-.92,.57-1.39,1.63-1.39,1.5,0,1.9,.54,1.9,1.39v.71h9.38Zm-14.38,21.05c-2.31,0-2.85-.49-2.85-2.86v-.73c0-2.31,.49-2.86,2.85-2.86h6.42c2.34,0,2.86,.52,2.86,2.86v.73c0,.38,0,1.41-.27,1.93,.24,0,1.41,.03,1.63,0,.49-.03,.82-.27,.82-.92v-4.76c0-.6-.3-.92-.92-.92h-14.55c-.62,0-.95,.3-.95,.92v7.7c0,.84-.22,1.69-1.63,1.69-1.22,0-1.88-.3-1.88-1.69v-8.08c0-2.42,1.03-3.13,3.13-3.13h17.1c2.07,0,3.15,.71,3.15,3.13v6.39c0,3.13-1.41,3.13-4.21,3.13-1.9,0-2.88,0-2.88-1.79,0-.49,.08-.76,.14-.87-.27,.08-.6,.14-1.52,.14h-6.42Zm12.02-13.57c0,1.6-.6,2.45-2.45,2.45h-12.81c-1.79,0-2.45-.76-2.45-2.45v-1.25c0-1.69,.65-2.47,2.45-2.47h12.81c1.82,0,2.45,.84,2.45,2.47v1.25Zm-3.37-.9c0-.33-.14-.54-.54-.54h-9.92c-.44,0-.57,.22-.57,.54v.49c0,.33,.16,.54,.57,.54h9.92c.41,0,.54-.22,.54-.54v-.49Zm-2.61,10.79c0-.33-.14-.54-.54-.54h-4.57c-.49,0-.57,.33-.57,.54v.73c0,.3,.14,.57,.57,.57h4.57c.41,0,.54-.25,.54-.57v-.73Z"/><path class="cls-3" d="M173.52,22.94c.84,0,2.15,0,2.15,1.66,0,1.74-1.01,1.82-2.2,1.82-1.69,0-3.48,0-4.27,.11-2.12,.3-7.31,1.88-7.31,5.66,0,.9,.27,1.66,1.25,2.12,1.2,.54,2.69,.68,4.05,.68,.49,0,2.64-.11,3.07-.11,1.12,0,1.85,.52,1.85,1.66,0,1.74-1.09,1.98-3.81,1.98-4.05,0-7.5-.62-9.41-2.96-.6-.76-.87-1.77-.87-2.56,0-3.43,3.26-5.41,5.41-6.69-5.79,.76-6.88,.9-8.86,1.31-1.28,.27-1.5,.3-1.85,.3-1.11,0-1.66-.79-1.66-1.88,0-1.47,.84-1.58,2.75-1.79,1.58-.19,2.77-.46,6.53-2.75,1.01-.6,4.92-3.13,4.92-3.34,0-.05-.11-.05-.24-.05-.65,0-3.54,.19-4.13,.22-1.28,.08-2.72,.14-3.97,.14-1.36,0-1.79-.68-1.79-1.63,0-1.41,.6-1.71,1.79-1.74,3.81-.05,6.96-.08,10.69-.19,.35,0,.82-.03,1.09-.03,1.52,0,2.45,.46,2.45,1.85,0,1.01-.33,1.55-1.6,2.39-4.73,3.07-6.5,3.97-7.97,4.7,3.92-.41,10.31-.87,11.96-.87Z"/><path class="cls-3" d="M193.02,38.28c-1.5,.22-2.99,.3-4.51,.3-.49,0-2.2,0-2.2-1.85,0-1.58,1.01-1.58,2.88-1.63,6.77-.14,10.41-2.72,10.41-6.55,0-1.39-.62-2.64-1.47-3.24-1.2-.84-2.94-.92-3.59-.92-1.66,0-5.08,.68-7.88,2.01-.44,.22-2.39,1.25-2.83,1.44-.46,.19-.73,.24-1.01,.24-1.31,0-1.85-1.22-1.85-2.01,0-.98,.57-1.36,1.69-1.9,.95-.46,6.5-3.02,12.29-3.02,7.61,0,8.48,5.52,8.48,7.31,0,7.12-6.06,9.16-10.41,9.82Zm-6.77-24.01c.35,0,.57,.05,1.47,.24,2.8,.57,6.36,.92,10.44,1.17,.73,.05,2.15,.14,2.15,1.77,0,.71-.38,1.31-.71,1.55-.27,.19-.65,.27-1.22,.27-1.88,0-8.59-.76-11.42-1.33-1.22-.25-2.5-.49-2.26-2.09,.11-.79,.49-1.58,1.55-1.58Z"/><path class="cls-3" d="M215.01,15.22c.25-.68,.87-.95,1.55-.95,1.69,0,1.93,.9,1.93,1.58,0,.3-.05,.62-.27,1.98,2.56-.05,4.98-.14,7.72-.27,.22,0,.49-.03,.63-.03,1.14,0,1.79,.49,1.79,1.69,0,.98-.46,1.5-1.33,1.63-.76,.11-6.96,.3-9.52,.38-.92,4.35-2.18,8.65-3.64,12.83-1.22,3.54-1.5,4.3-2.77,4.3-.6,0-2.01-.33-2.01-1.63,0-.3,.03-.6,.63-1.9,1.01-2.18,2.23-5.82,2.94-8.38,.43-1.58,.9-3.51,1.25-5.17-.73,.03-3.15,.05-3.73-.11-.43-.11-.92-.57-.92-1.55,0-.92,.35-1.55,1.33-1.69,.19-.03,3.51-.03,3.92-.03,.11-.54,.41-2.34,.52-2.69Zm16.72,22.65c-.41,.11-1.82,.35-4.65,.35-6.44,0-9.22-1.09-9.22-4.46,0-.79,.3-3.15,2.39-3.15,.65,0,1.66,.3,1.66,1.2,0,.24-.11,.57-.16,.71-.14,.33-.24,.6-.24,.87,0,.73,.54,1.09,1.5,1.28,.71,.16,1.74,.24,2.86,.24,1.77,0,2.99-.14,4.68-.3,.33-.03,.49-.05,.73-.05,1.09,0,1.63,.54,1.63,1.6,0,.92-.43,1.52-1.17,1.71Zm-.19-10.85c-.35,.25-.71,.27-1.14,.27-.19,0-1.25-.08-1.88-.11-.38-.03-.71-.03-1.31-.03-1.79,0-3.18,.11-3.59,.14-2.12,.19-2.45,.22-2.69,.22-1.5,0-1.5-1.41-1.5-1.66,0-.84,.41-1.41,1.58-1.66,1.77-.38,4.79-.49,6.66-.49,4.43,0,4.43,.71,4.43,2.04,0,.35-.16,.98-.57,1.28Zm-3.64-11.83c-.05-.19-.08-.3-.08-.46,0-.65,.65-.82,.98-.82,.52,0,.62,.27,1.17,1.36,.54,1.11,.82,1.93,.82,2.31,0,.57-.46,.87-1.01,.87-.41,0-.65-.27-.79-.65-.25-.65-.33-.9-.52-1.3-.16-.38-.44-.95-.57-1.31Zm3.18-.57c-.08-.19-.08-.38-.08-.46,0-.68,.76-.79,.98-.79,.38,0,.71,.16,1.25,1.39,.22,.52,.71,1.74,.71,2.23,0,.76-.76,.87-.98,.87-.6,0-.79-.6-.87-.87-.11-.38-.16-.49-.41-1.03-.08-.22-.52-1.14-.6-1.33Z"/><path class="cls-3" d="M243.72,16.14c0,.57-.41,3.02-.46,3.54-.08,.76-.49,4.35-.49,7.86,0,2.64,.22,5.36,.49,7.31,.03,.22,.16,1.17,.16,1.52,0,1.52-1.5,1.52-1.82,1.52-1.2,0-1.52-.57-1.79-1.79-.33-1.36-.54-4.92-.54-8.38,0-5.63,.68-10.71,.95-11.8,.33-1.25,.98-1.25,2.07-1.25,.03,0,1.44,.03,1.44,1.47Zm14.58,11.56c0,3.62,0,7.97-5.55,10.03-2.04,.76-4.43,.84-4.49,.84-1.39,0-1.77-1.12-1.77-1.85,0-1.12,.6-1.39,1.58-1.52,1.85-.22,3.62-.43,5.11-1.85,1.14-1.06,1.44-2.77,1.44-6.04,0-.54-.05-2.91-.05-3.4-1.36,.03-5.68,.08-6.8,.08-1.58,0-2.67,0-2.67-1.69s1.09-1.69,2.67-1.69c1.14,0,4.76,0,6.72-.08-.05-1.12-.14-2.94-.14-4.08,0-.98,.08-2.01,1.79-2.01,1.36,0,1.88,.52,1.9,1.85,.03,.65,.05,3.56,.08,4.13,2.53-.11,2.69-.14,2.99-.14,.73,0,1.79,.14,1.79,1.71s-.98,1.63-2.31,1.69c-1.09,.05-1.2,.05-2.39,.11,.08,2.99,.08,3.32,.08,3.89Z"/><path class="cls-3" d="M288.39,19.38c1.55,0,1.9,.92,1.9,1.88,0,1.44-1.03,1.69-2.56,1.93-2.07,.35-7.97,1.55-11.04,2.99-1.63,.76-4.46,2.39-4.46,5.03,0,2.23,1.41,3.51,7.34,3.51,2.77,0,4.27-.24,7.64-.71,.71-.11,.92-.11,1.17-.11,.68,0,1.79,.22,1.79,1.82,0,1.31-.79,1.63-1.69,1.82-1.74,.41-5.6,.68-8.29,.68-5.03,0-11.83-.57-11.83-6.69,0-5.14,4.62-7.26,7.78-8.7-.16-1.36-.82-4.08-1.22-5.44-.14-.49-.41-1.39-.41-1.82,0-1.28,1.2-1.58,2.01-1.58,1.6,0,1.77,.76,2.2,2.99,.19,.9,.73,3.86,.82,4.57,3.56-1.31,7.72-2.18,8.84-2.18Zm-2.39-4.02c-.05-.16-.11-.35-.11-.49,0-.62,.68-.79,.98-.79,.52,0,.68,.3,1.25,1.44,.46,.95,.71,1.88,.71,2.2,0,.76-.63,.9-.95,.9-.43,0-.65-.25-.79-.54-.14-.27-.46-1.25-.52-1.41-.08-.22-.49-1.09-.57-1.31Zm3.1-.71c-.05-.14-.08-.3-.08-.43,0-.68,.73-.84,1.01-.84,.49,0,.65,.33,1.14,1.3,.44,.84,.79,1.96,.79,2.31,0,.9-.92,.9-1.01,.9-.43,0-.68-.3-.82-.71-.22-.62-.3-.84-.46-1.25-.08-.22-.49-1.09-.57-1.28Z"/><path class="cls-2" d="M327.71,12.29c.63,0,2.31,.04,2.31,2.08,0,1.56-.59,2.34-2.31,2.34h-11.9v6.54h10.49c.78,0,2.27,.11,2.27,2.12,0,1.79-1.12,2.16-2.27,2.16h-10.49v7.18h12.79c.63,0,2.27,.04,2.27,2.08,0,1.6-.59,2.31-2.27,2.31h-30.42c-.59,0-2.27,0-2.27-2.05,0-1.56,.56-2.34,2.27-2.34h12.75v-7.18h-10.45c-.52,0-2.27,0-2.27-2.04,0-1.6,.74-2.23,2.27-2.23h10.45v-6.54h-11.83c-.63,0-2.27-.04-2.27-2.08,0-1.56,.56-2.34,2.27-2.34h14.65c-1.23-.71-2.9-1.67-4.8-2.38-2.86-1.08-3.31-1.23-3.31-2.34,0-1,.78-2.6,2.38-2.6s5.58,1.75,6.69,2.31c3.35,1.64,3.64,2.19,3.64,3.12,0,.33-.08,1.12-.74,1.9h10.08Z"/><path class="cls-2" d="M345.67,11.36c2.57,0,3.46,.86,3.46,3.57,0,.48-.19,7.73-2.19,14.17,2.42,2.01,2.83,2.6,2.83,3.61,0,1.15-.82,2.6-2.27,2.6-.82,0-1.38-.41-2.45-1.67-.3,.63-1.12,2.16-2.46,4.05-1.45,2.04-2.19,2.27-2.94,2.27-1.45,0-2.38-1.19-2.38-2.34,0-.86,.45-1.38,1-2.01,2.46-2.83,2.71-3.12,3.72-4.95-.59-.48-3.27-2.42-3.76-2.9-.33-.33-.74-.97-.74-1.97,0-.52,.11-1.08,.37-2.23,.71-3.01,1.12-5.54,1.45-7.92-.78,0-2.42,0-2.42-2.12s1.67-2.16,2.19-2.16h.71c.07-.67,.26-3.72,.33-4.31,.19-1.64,1.3-1.93,2.05-1.93,1.3,0,2.08,.86,2.08,2.01,0,1.41-.26,3.5-.37,4.24h1.79Zm-2.38,4.28c-.59,3.87-1.19,6.47-1.6,8-.11,.48-.19,.82-.19,1.12,0,.33,.15,.48,.52,.78,.22,.15,1.34,.89,1.6,1.08,1.38-4.43,1.71-9.74,1.71-10.15,0-.52-.26-.82-.86-.82h-1.19Zm18.67,22.5c0,.67-.04,2.23-1.97,2.23-1.56,0-1.97-1-1.97-2.23v-9.26h-2.16c-.59,0-.89,.33-.89,.93v6.4c0,.56,0,2.27-1.97,2.27-1.71,0-1.97-1.19-1.97-2.27v-6.58c0-.82,.04-1.34,.22-2.04-1.34,.22-2.49-.26-2.49-2.19v-1.9c0-3.16,.67-3.9,3.87-3.9h14.95c3.2,0,3.9,.71,3.9,3.9v1.9c0,1.23-.48,2.42-2.42,2.23,.22,.78,.22,1.3,.22,2.01v5.09c0,1.6,0,3.42-3.68,3.42-1.67,0-3.2,0-3.2-2.42,0-1.82,.97-1.9,1.67-1.93,.78-.04,1.08-.08,1.08-1.08v-2.9c0-.56-.22-.93-.89-.93h-2.31v9.26Zm-9.56-24.13c-.93,0-1.45-.45-1.45-1.34s.3-1.56,1.45-1.56h12.75c-.04-.89-.07-1.38-.93-1.38h-12.2c-.48,0-1.82,0-1.82-1.67,0-1.45,.97-1.67,1.82-1.67h13.35c3.42,0,4.17,.74,4.17,4.17v3.64c0,3.42-.71,4.2-4.17,4.2h-13.57c-.41,0-1.6,0-1.6-1.52,0-1.38,.97-1.52,1.6-1.52h12.42c.86,0,.89-.45,.93-1.34h-12.75Zm.41,11.71c.33-.15,.97-.45,2.57-.45h2.64v-2.12h-4.31c-.52,0-.89,.26-.89,.86v1.71Zm9.15-.45h2.97c1.38,0,1.93,.19,2.34,.33v-1.6c0-.56-.33-.86-.93-.86h-4.39v2.12Z"/><path class="cls-2" d="M383.9,13.78c-.45,.04-2.42,.22-2.83,.22-2.16,0-2.45-1.52-2.45-2.57,0-1.6,.63-2.38,2.42-2.57,1.93-.19,22.72-.89,26.7-.89,2.12,0,3.83,0,3.83,2.38s-1.71,2.49-3.75,2.49c-2.98,.04-5.24,.63-9,2.94-2.57,1.56-7.47,5.58-7.47,11.04,0,5.09,4.31,6.51,11.19,6.51,2.98,0,3.31-.04,3.87,.11,1.23,.3,1.6,1.19,1.6,2.19,0,2.86-2.23,2.86-4.5,2.86-5.28,0-9.41-1.08-11.94-2.23-3.72-1.71-5.32-5.43-5.32-9,0-2.71,.67-6.25,4.76-10.38,2.12-2.12,3.61-3.01,5.21-3.94-4.09,.26-8.22,.52-12.31,.82Zm18.11,4.5c-.11-.22-.19-.48-.19-.71,0-.71,.82-1.12,1.34-1.12,.59,0,.89,.3,1.71,1.67,.45,.74,1.38,2.6,1.38,3.2,0,.93-.97,1.19-1.41,1.19s-.78-.37-1-.78c-.26-.48-.59-1.23-.86-1.71-.15-.26-.82-1.49-.97-1.75Zm3.98-1.75c-.15-.3-.19-.52-.19-.74,0-.67,.78-1.08,1.3-1.08,.67,0,.93,.45,1.64,1.6,.26,.41,1.45,2.34,1.45,3.24,0,.78-.78,1.15-1.38,1.15-.48,0-.86-.41-.97-.59-.15-.3-.78-1.6-.89-1.82-.15-.3-.86-1.49-.97-1.75Z"/><path class="cls-2" d="M431.46,20.73c4.8-.07,4.87-.07,6.21-.15,.45,0,2.42-.15,2.83-.15,.52,0,2.38,.04,2.38,2.23,0,1.93-1.45,2.16-1.82,2.19-1.04,.15-7.81,.37-9.48,.37h-.52c-.11,1.71-.15,2.97-.15,3.35,0,3.09,.63,5.65,7.18,5.65,5.5,0,8.29-1.64,8.29-6.69,0-1.78-.52-3.46-.86-4.5-.33-.93-.41-1.19-.41-1.64,0-1.3,1.45-1.86,2.49-1.86,1.45,0,2.16,.85,2.71,1.9,.67,1.34,1.23,3.68,1.23,6.36,0,9.45-6.36,11.16-13.42,11.16-9.04,0-12.2-3.5-12.2-10.41,0-.74,.11-2.46,.15-3.31-1.23,0-4.76-.04-5.58-.22-.86-.22-1.38-1-1.38-2.08,0-2.19,1.86-2.23,2.45-2.23,1.38,0,3.53,.07,4.87,.07l.45-4.98c-1.19,0-4.8,.04-5.65-.19-.74-.19-1.34-.97-1.34-2.12,0-2.08,1.71-2.23,2.49-2.23s4.2,.07,4.87,.11l.26-2.9c.11-1.15,.22-2.53,2.57-2.53,1.52,0,2.86,.59,2.64,2.64l-.3,2.75c2.64-.04,5.84-.04,9.89-.22,.45-.04,2.57-.15,2.97-.15,.59,0,2.45,.04,2.45,2.23s-1.56,2.19-3.01,2.27c-4.24,.19-8.52,.3-12.75,.33l-.52,4.95Z"/><path class="cls-2" d="M460.5,18.58c-.78,0-2.49-.15-2.49-2.23,0-1.6,.71-2.42,2.49-2.42h12.53V7.38c0-1.41,.71-2.23,2.27-2.23s2.6,.48,2.6,2.23v6.54h12.9c.97,0,2.49,.26,2.49,2.23,0,1.64-.74,2.42-2.49,2.42h-12.16c1.86,8.22,5.13,12.46,12.5,16.32,.71,.37,1.6,.86,1.6,2.23,0,1.56-1.34,2.75-2.49,2.75-1.9,0-6.1-3.31-8.11-5.32-3.87-3.79-5.5-7.55-6.43-9.85-2.86,7.33-6.99,10.52-9.59,12.46-1.56,1.19-3.68,2.71-5.06,2.71-1.56,0-2.49-1.56-2.49-2.75s.59-1.67,1.82-2.31c9.71-5.02,11.3-11.94,12.2-16.25h-12.09Z"/><path class="cls-2" d="M515.28,15.49h-13.98c-.56,0-2.27,0-2.27-2.19,0-2.01,1.04-2.42,2.27-2.42h13.98v-3.61c0-.63,0-2.31,2.27-2.31,1.97,0,2.64,.71,2.64,2.31v3.61h11.56c.59,0,2.31,.04,2.31,2.23,0,2.04-1.12,2.38-2.31,2.38h-11.56v1.49c0,7.1-1.67,10.9-3.05,13.28,2.31,1.64,6.36,3.57,12.83,4.61,2.79,.45,3.53,.56,3.53,2.34,0,.26-.04,2.83-2.46,2.83-1.82,0-10.52-1.34-16.88-6.02-5.28,5.13-11.83,6.17-12.38,6.17-1.56,0-2.42-1.52-2.42-2.83,0-1.64,.63-1.79,3.83-2.68,2.53-.71,5.13-1.9,7.4-3.98-4.02-4.46-6.06-10.11-6.06-11.23,0-1.41,1.38-2.08,2.53-2.08s1.6,.56,2.08,1.64c1.93,4.46,2.38,5.5,4.31,7.77,1.64-3.35,1.82-7.07,1.82-9.71v-1.6Z"/><path class="cls-2" d="M542.24,24.45c-.56,0-2.31,0-2.31-2.16s1.67-2.19,2.31-2.19h12.64c.07-1.04,.15-2.04,.15-3.09v-2.45h-10.71c-.56,0-2.3,0-2.3-2.19s1.52-2.19,2.3-2.19h10.71v-2.79c0-.59,0-2.31,2.27-2.31,1.97,0,2.57,.74,2.57,2.31v2.79h10.78c.56,0,2.31,0,2.31,2.19s-1.6,2.19-2.31,2.19h-10.78v2.49c0,.89-.07,2.05-.15,3.05h13.01c.56,0,2.31,0,2.31,2.16s-1.64,2.19-2.31,2.19h-11.75c2.08,6.21,7.74,9.22,10.6,10.26,2.08,.74,3.05,1.12,3.05,2.53,0,1.23-.89,2.79-2.42,2.79-1.64,0-10.78-3.42-14.58-12.2-2.86,5.91-6.47,8.37-9.78,10.19-1.45,.82-3.68,2.04-4.98,2.04-1.9,0-2.49-1.75-2.49-2.68,0-1.52,1.15-1.93,2.9-2.53,4.98-1.71,9.41-5.54,10.75-10.41h-11.79Z"/><path class="cls-2" d="M591.62,28.62c-2.6,0-2.71-1.52-2.71-2.94s0-4.17,3.46-6.73c2.75-2.04,4.13-3.09,4.13-4.98,0-2.86-2.9-3.24-4.46-3.24-4.13,0-4.46,1.9-4.87,4.31-.22,1.34-1.45,1.75-2.75,1.75-.52,0-2.71-.07-2.71-2.34s1.67-8.44,10.52-8.44c7.29,0,9.78,4.31,9.78,7.88,0,3.2-1.23,4.24-5.02,7.44-2.04,1.71-2.83,2.38-2.83,4.57,0,.86,0,2.71-2.53,2.71Zm3.05,5.91c0,1.71-1.41,3.12-3.12,3.12s-3.12-1.41-3.12-3.12,1.41-3.12,3.12-3.12,3.12,1.38,3.12,3.12Z"/></g></g></g></svg>