<?xml version="1.0" encoding="UTF-8"?><svg xmlns="http://www.w3.org/2000/svg" xmlns:xlink="http://www.w3.org/1999/xlink" viewBox="0 0 107.56 113.39"><defs><style>.cls-1,.cls-2{fill:none;}.cls-3{clip-path:url(#clippath);}.cls-4,.cls-5{fill:#fad8be;}.cls-6,.cls-7{fill:#fbe2cc;}.cls-8{fill:#d60051;}.cls-9{fill:#231916;}.cls-10,.cls-11{fill:#614d3f;}.cls-2{stroke:#231916;}.cls-2,.cls-12,.cls-13,.cls-14{stroke-linecap:round;stroke-linejoin:round;}.cls-2,.cls-14{stroke-width:.52px;}.cls-15{fill:#946135;stroke:#b28147;stroke-miterlimit:10;}.cls-15,.cls-12,.cls-13{stroke-width:.5px;}.cls-5,.cls-7,.cls-11{mix-blend-mode:multiply;opacity:.5;}.cls-12{fill:#fffded;stroke:#fff4d6;}.cls-13{fill:#f2a6a3;stroke:#ef9091;}.cls-14{fill:#f8cfc2;stroke:#eb6d5e;}.cls-16{isolation:isolate;}</style><clipPath id="clippath"><rect class="cls-1" width="107.56" height="113.39"/></clipPath></defs><g class="cls-16"><g id="Layer_2"><g id="PC"><g class="cls-3"><g><path class="cls-8" d="m97.12,44.13c-.3,1.01-1.36,1.58-2.37,1.28s-1.58-1.36-1.28-2.37c.3-1.01,1.36-1.58,2.37-1.28,1.01.3,1.58,1.36,1.28,2.37Z"/><path class="cls-8" d="m95.45,40.87c-.69-.21-1.15-.89-1.06-1.63.31-2.42,1.87-6.56,5.69-6.67.09,0,.17,0,.26.01,1.5.22,2.76-1.29,3.11-2.87.18-.8.49-3.48-2.79-4.46-1.76-.53-3.16-.28-4.17.74-1.04,1.06-1.3,2.6-1.17,2.99.3.77-.08,1.64-.85,1.94-.77.3-1.64-.08-1.95-.85-.64-1.62.11-4.33,1.67-6.02,1.04-1.13,3.38-2.86,7.33-1.68,4.29,1.28,5.53,4.94,4.86,7.98-.73,3.32-3.42,5.53-6.3,5.21-2.11.18-2.7,4.01-2.71,4.05-.11.82-.86,1.4-1.68,1.29-.08-.01-.16-.03-.24-.05Z"/></g><g><path class="cls-10" d="m76.15,32.99l-21.79,40.31-34.27-30.43s1.37,31.45,6.78,34.79c5.4,3.34,12.47,3.97,12.47,3.97l1.17-1.92s-.03,1.19,6,2.02c2.13.29,16.21-2.19,18.11-3.19,5.38-2.84,4.94-3.95,4.94-3.95l1.75,1.4s6.43-3.01,10.36-8c3.93-4.99-5.53-35.01-5.53-35.01Z"/><g><path class="cls-4" d="m62.02,80.11c.02-.06.04-.13.06-.18.24-1.07-.34-1.27-1.81-1.57-1.25-.58-2.67-.68-2.67-.68l.11-5.94-3.94.32-3.94-.32.11,5.94s-1.42.1-2.67.68c-1.47.3-2.05.5-1.81,1.57.01.06.04.12.06.18-.11.36-.15.77-.05,1.25.64,3.18,4.54,6.35,7.94,6.64.07,0,.15.03.21.03.05,0,.1,0,.14,0,.05,0,.1,0,.14,0,.06,0,.14-.02.21-.03,3.4-.29,7.3-3.46,7.94-6.64.1-.48.06-.89-.05-1.25Z"/><polygon class="cls-5" points="50.06 72.74 56.75 72.95 56.75 77.87 50.06 72.74"/></g><path class="cls-6" d="m45.26,21.11s-.07.02-.1.02c-.04,0-.07,0-.11.01-26.54,4.68-20.83,34.45-20.83,34.45,0,0,0,.02.01.03.23.71,7.04,21.59,28.36,19.17.19-.02.39-.05.59-.08.36-.05.72-.09,1.09-.15.1-.02.19-.04.3-.06.1-.02.2-.03.3-.05.37-.07.72-.15,1.08-.23.19-.04.39-.08.58-.13,20.87-5.01,20.13-26.96,20.1-27.71,0-.01,0-.04,0-.04,0,0-4.82-29.93-31.36-25.25Z"/><g><path class="cls-7" d="m31.95,40.08l3.3-2.53s6.14,6.75,16.72,5.2c0,0,21.84,1.57,22.54,2.28.7.71-3.99-11.54-15.5-14.46-11.5-2.92-31.11-7.79-27.07,9.51Z"/><path class="cls-10" d="m69.96,19.77c-9.19-6.83-19.33-6.8-26.04-5.67-6.69,1.23-16.23,4.67-22.53,14.23-4.08,6.2-4.52,13.01-3.72,18.72.76,3.76,2.35,7.82,5.02,12.19l3.42.92,2.05-1.19c5.62-4.91,5.19-27.17,5.19-27.17,0,0,3.53,9.71,18.42,9.72,0,0,17.47-.4,20.07,2.41,1.7,1.84,3.34,7.12,2.87,8.55l1.7-1.2,2.9-2.04c1.02-5.02,1.12-9.38.55-13.17-1.2-5.64-3.94-11.89-9.9-16.32Z"/><path class="cls-11" d="m50.25,17.93s21.24,4.24,25.31,25.07c0,0-8.23-20.68-25.31-25.07Z"/><path class="cls-11" d="m39.45,23.92s-3.12,9.39,6.83,14.97c0,0-6.04-5.29-6.83-14.97Z"/><path class="cls-11" d="m50.71,22.92s-3.12,9.39,6.83,14.97c0,0-6.04-5.29-6.83-14.97Z"/></g><g><path class="cls-6" d="m25.77,58.64s-4.28-.99-4.46,3.41c-.18,4.4,4.94,6.72,8.14,3.1"/><path class="cls-6" d="m76.19,49.75s3.68-2.39,5.36,1.67c1.68,4.07-2.34,8.01-6.59,5.7"/></g><g><path class="cls-9" d="m43.38,54.08c.34,1.91-.12,3.58-1.02,3.74-.9.16-1.9-1.26-2.24-3.16-.34-1.91.12-3.58,1.02-3.74.9-.16,1.9,1.26,2.24,3.16Z"/><path class="cls-9" d="m61.08,50.95c.34,1.91-.12,3.58-1.02,3.74s-1.9-1.26-2.24-3.16c-.34-1.91.12-3.58,1.02-3.74.9-.16,1.9,1.26,2.24,3.16Z"/></g><path class="cls-2" d="m49.52,58.25s.03-1.31,1.85-1.64c1.82-.32,2.36.76,2.36.76"/><path class="cls-14" d="m54.43,63.66c.23,1.32-.35,2.52-1.31,2.69s-1.91-.76-2.15-2.08c-.23-1.32.35-2.52,1.31-2.69s1.91.76,2.15,2.08Z"/></g><g><path class="cls-6" d="m68.22,81.28s6.15,25.08,6.82,29.31c.67,4.23,2.43,11.64,4.58,15.07,2.15,3.43,6.45,7.28,4.37,8.2-2.08.92-6.93-1.13-7.64-1.69-.71-.56-1.32,2.91-1.97,2.69-.65-.22-2.53-2.87-1.26-6.29s-7.88-28.29-8.03-30.64-.87-17.7,3.13-16.66Z"/><path class="cls-13" d="m68.43,81.39s9.2,35.15,10.82,41.83c.04.17-5,3.4-6.08,3.29-1.08-.12-5.59-30.67-5.59-30.67,0,0-1.11-14,.86-14.44Z"/><path class="cls-12" d="m68.16,81.28c-.22-.15-.46-.3-.7-.45-1.79-1.05-4.13-1.83-6.06-2.36-.58-.16-1.1-.29-1.58-.4-1.11,2.37-3.41,4-6.07,4s-4.96-1.63-6.07-4c-.48.11-1,.24-1.58.4-1.93.53-4.26,1.31-6.06,2.36-.25.14-.48.29-.7.45l-2.94,31.49c5.11.64,11.05,1,17.38,1s12.26-.37,17.37-1l-2.99-31.49Z"/><path class="cls-15" d="m53.78,113.77c-6.34,0-12.27-.37-17.38-1l-.4,4.26c5.2.67,11.28,1.05,17.78,1.05s12.57-.38,17.77-1.05l-.4-4.26c-5.11.63-11.03,1-17.37,1Z"/><path class="cls-13" d="m47.68,78.08c-.48.11-1,.24-1.58.4-1.93.53-4.26,1.31-6.06,2.36-.25.14-.48.29-.7.45l-2.94,31.49-.4,4.26c4.41.56,9.45.92,14.85,1.02v-33.42c-2.52-2.1-3.17-6.55-3.17-6.55Z"/><path class="cls-13" d="m59.87,78.08c.48.11,1,.24,1.58.4,1.93.53,4.26,1.31,6.06,2.36.25.14.48.29.7.45l2.94,31.49.4,4.26c-4.41.56-9.45.92-14.85,1.02v-33.42c2.52-2.1,3.17-6.55,3.17-6.55Z"/><g><g><path class="cls-5" d="m34.23,67.1s-.24-1.88,1.27-1.59c1.5.29,2.76,2.06,5.28,3.59,2.53,1.54,6.95,2.51,6.89,4.11-.06,1.6-2.13,2.58-4.67.89-2.54-1.69-8.77-7-8.77-7Z"/><path class="cls-6" d="m40.72,77.85s-11.28-10.02-6.57-11.49c2.38-.74,5.41,3.95,7.3,4.21,1.88.26,7.12,2.97,6.09,5.28-1.03,2.3-1.05,1.81-2.11,3.54-1.06,1.73-.96,17.9-7.64,18.31-6.68.41-3.95-9.99,2.92-19.85Z"/></g><path class="cls-13" d="m39.08,79.1l6.35,2.82s-.77,16.9-8.23,16.67-4.21-9.75,1.88-19.49Z"/></g></g></g></g></g></g></svg>