<?xml version="1.0" encoding="UTF-8"?><svg id="Layer_2" xmlns="http://www.w3.org/2000/svg" viewBox="0 0 608 49"><defs><style>.cls-1{fill:none;}.cls-2{fill:#f36e64;}.cls-3{fill:#404040;}</style></defs><g id="PC"><g><rect class="cls-1" width="608" height="49"/><g><path class="cls-2" d="M26.91,19.42c.22,1.56,.74,3.46,1.3,5.17,.82-.48,1.93-1.15,3.27-2.19,1.79-1.41,1.86-1.49,2.49-1.49,1.12,0,2.16,1.08,2.16,2.31,0,.78-.37,1.12-1.75,2.19-1.97,1.49-3.27,2.23-4.5,2.94,1.82,3.31,4.09,5.54,5.73,6.95,.82,.67,1.52,1.26,1.52,2.19,0,1.26-1.19,2.6-2.64,2.6-.59,0-1-.26-1.45-.6-.52-.41-2.12-1.9-3.72-4.05-4.46-6.06-5.95-13.61-6.36-16.03h-1c-.41,.41-.89,.93-2.01,1.82,1.41,1.56,5.13,5.73,5.13,13.72,0,7.07-3.68,7.07-7.25,7.07-.59,0-2.68-.07-3.16-.15-1.12-.22-1.45-1.23-1.45-1.97,0-1.86,1.52-1.86,1.93-1.86,.45,0,2.75,.11,3.27,.11,1.45,0,2.6-.08,2.31-5.17-5.69,4.54-14.87,7.1-16.06,7.1-1.56,0-2.19-1.49-2.19-2.38,0-.78,.37-1.34,1.45-1.64,.45-.15,2.6-.67,3.09-.78,4.72-1.26,9.07-3.12,13.05-6.14-.22-.74-.41-1.19-.59-1.64-5.88,4.39-13.39,6.1-14.13,6.1-1.34,0-1.97-1.34-1.97-2.27,0-1.38,.89-1.56,2.12-1.82,.63-.11,6.95-1.45,12.16-4.87-.3-.37-.56-.71-1.04-1.19-6.06,3.38-10.93,3.94-11.3,3.94-1.64,0-1.97-1.45-1.97-2.08,0-1.49,1.12-1.67,2.05-1.82,1.75-.3,3.98-.74,7.33-2.27,.48-.22,2.57-1.6,3.09-1.82h-6.02c-.82,0-2.01-.15-2.01-1.79s1.34-1.75,2.04-1.75H29.95c.78,0,2.01,.11,2.01,1.79s-1.38,1.75-2.01,1.75h-3.05Zm5.39-9.45c3.46,0,4.31,.82,4.31,4.31v2.38c0,.78-.11,2.31-2.12,2.31-1.64,0-2.42-.56-2.42-2.31v-1.9c0-.63-.37-.89-.93-.89H8.54c-.56,0-.93,.22-.93,.89v1.9c0,.67-.07,2.31-2.04,2.31-1.6,0-2.42-.56-2.42-2.31v-2.38c0-3.46,.86-4.31,4.31-4.31h10.04v-.97c0-1.45,1.04-1.9,2.19-1.9,1.45,0,2.45,.41,2.45,1.9v.97h10.15Z"/><path class="cls-2" d="M76.07,11.17c.56,0,2.27,0,2.27,2.01,0,1.52-.63,2.23-2.27,2.23h-13.01c-.93,1.67-2.16,3.2-2.57,3.72-.45,.56-.82,.85-1.52,.85-1.23,0-2.38-1.12-2.38-2.23,0-.56,.22-.93,.67-1.52-.45,.22-1.15,.22-1.34,.22h-5.39v4.05h3.2c1.3,0,1.9-.04,2.64,.48,1.12,.78,1.12,1.93,1.12,3.46,0,2.97-.07,8.55-.59,13.05-.26,2.42-.89,4.57-4.54,4.57-.04,0-1.23,0-1.75-.07-1.75-.19-1.75-2.01-1.75-2.42,0-.89,.3-2.12,1.64-2.12s1.71,0,2.08-.71c.63-1.26,.78-9.3,.78-11.08,0-1-.41-1.08-1.08-1.08h-1.75c0,3.24-.3,8.7-2.12,13.83-1,2.83-1.3,3.42-2.64,3.42-1.19,0-2.53-.82-2.53-2.16,0-.78,.19-1.19,1.6-4.69,.89-2.23,1.49-6.8,1.49-10.23v-8.33h-1.26c-.15,0-1.9-.04-1.9-2.01,0-1.56,.71-2.19,2.23-2.19h3.12v-3.24c0-.59,0-2.01,2.08-2.01,1.93,0,2.45,.59,2.45,2.01v3.24h2.86c.71,0,2.27,.07,2.27,2.04,0,.37-.08,.63-.08,.78,1.6-2.19,1.93-3.01,3.31-6.51,.37-.89,.78-1.56,2.05-1.56,1.08,0,2.42,.59,2.42,1.82,0,.41-.07,.78-.74,2.34h10.93Zm-5.73,13.31c0,.33-.04,1.71-.22,2.97h5.95c1.6,0,2.27,.63,2.27,2.19,0,2.01-1.75,2.01-2.27,2.01h-4.91c1.6,2.9,2.45,3.94,5.43,5.84,.93,.59,1.52,1.04,1.52,2.01,0,1.23-.97,2.53-2.27,2.53-1.23,0-3.38-2.01-3.79-2.38-2.45-2.31-3.53-4.5-3.94-5.32-1.3,2.68-3.12,4.46-5.24,5.91-1.12,.78-2.75,1.82-3.75,1.82-1.41,0-2.12-1.52-2.12-2.42,0-1.15,.93-1.6,1.52-1.9,3.68-1.82,4.98-3.31,6.21-6.1h-4.72c-1.26,0-2.01-.45-2.01-2.23,0-1.97,1.41-1.97,2.01-1.97h5.8c.22-1.79,.22-2.68,.22-2.94v-1.38h-1.93c-.59,1.08-1.26,2.08-1.86,2.86-.56,.71-1,.89-1.52,.89-1,0-2.31-.86-2.31-2.12,0-.56,.11-.74,1.15-2.16,1-1.34,1.45-2.34,1.9-3.5,.86-2.27,1.04-2.68,2.34-2.68,1.12,0,2.31,.56,2.31,1.52,0,.37-.19,.86-.26,1.08h9.52c1.49,0,2.23,.6,2.23,2.05,0,1.71-1.12,2.04-2.23,2.04h-5.02v1.34Z"/><path class="cls-2" d="M92.21,10.61c0,.63-.48,3.27-.56,3.83-.45,3.31-.82,8-.82,12.83,0,2.68,.11,5.32,.41,7.92,.07,.63,.33,2.68,.33,3.16,0,.86-.19,2.38-2.6,2.38-1.82,0-2.19-1.12-2.49-2.45-.04-.3-.6-3.42-.6-10.82,0-8.96,1.04-15.95,1.3-17.03,.45-1.82,1.41-1.82,2.79-1.82,.22,0,2.23,.08,2.23,2.01Zm23.2,27.63c-1.45,.59-6.17,.86-8.33,.86-4.8,.04-12.12-.52-12.12-7.25,0-1.38,.63-5.99,3.72-5.99,1.19,0,2.71,.63,2.71,2.01,0,.56-.04,.71-.74,1.97-.45,.82-.59,1.38-.59,1.86,0,2.19,2.64,2.6,6.17,2.6,1,0,2.9-.07,4.91-.33,.52-.07,2.9-.48,3.38-.48,1.34,0,2.34,.59,2.34,2.31s-.67,2.12-1.45,2.45Zm-2.04-22.2c-.59,0-3.2-.04-3.72-.04-2.08,0-6.54,.04-9.93,.3-.22,0-.74,.04-1,.04-1.41,0-2.45-.63-2.45-2.38,0-2.08,1.38-2.31,1.9-2.38,.89-.15,6.17-.41,11.16-.41s5.21,.11,5.65,.37c.78,.45,1,1.3,1,2.12,0,2.16-1.49,2.38-2.6,2.38Z"/><path class="cls-2" d="M137.16,11.91c0,.52-.89,14.84-6.62,24.25-1.9,3.12-2.68,3.68-3.87,3.68s-2.75-1.19-2.75-2.53c0-.93,.48-1.6,1.04-2.34,5.39-7.44,6.36-15.58,7.25-23.09,.15-1.08,.45-2.68,2.86-2.3,1.93,.3,2.08,1.45,2.08,2.34Zm11.56-.04c.86,7.36,1.86,15.62,7.29,23.09,.67,.89,1.04,1.49,1.04,2.34,0,1.41-1.64,2.57-2.75,2.57-1.3,0-2.12-.86-3.9-3.76-5.65-9.3-6.62-23.54-6.62-24.21,0-.71,.04-2.04,2.12-2.34,2.42-.37,2.71,1.3,2.83,2.3Zm1.45-2.9c-.07-.22-.15-.52-.15-.78,0-.82,.93-1.04,1.38-1.04,.71,0,1,.52,1.56,1.86,.37,.93,.86,2.49,.86,3.01,0,1.19-1.23,1.19-1.3,1.19-.41,0-.89-.19-1.12-.78-.22-.52-.45-1.38-.63-1.9-.08-.22-.48-1.26-.6-1.56Zm4.39-.41c-.08-.22-.11-.48-.11-.63,0-.86,.93-1.08,1.34-1.08,.78,0,1,.45,1.52,1.67,.33,.74,.97,2.45,.97,3.16,0,1.08-1.12,1.19-1.34,1.19-.86,0-.97-.45-1.71-2.64-.07-.26-.59-1.45-.67-1.67Z"/><path class="cls-2" d="M166.47,11.06c0-1.08,.3-2.49,2.57-2.49,1.79,0,2.64,.78,2.64,2.49v22.76c0,.6,0,1.23,.97,1.23,1.26,0,7.59-1.15,11.94-5.5,2.79-2.79,3.9-5.21,5.24-8.11,.45-.97,.89-1.49,1.93-1.49s2.97,.71,2.97,2.34c0,1.3-1.97,5.47-4.46,8.44-3.83,4.61-8.37,6.95-14.8,8.74-1.64,.45-3.31,.89-5.02,.89-2.6,0-3.98-.93-3.98-3.53V11.06Z"/><path class="cls-2" d="M206.89,15.78c-.45,.04-2.42,.22-2.83,.22-2.16,0-2.45-1.52-2.45-2.57,0-1.6,.63-2.38,2.42-2.57,1.93-.19,22.72-.89,26.7-.89,2.12,0,3.83,0,3.83,2.38s-1.71,2.49-3.75,2.49c-2.98,.04-5.24,.63-9,2.94-2.57,1.56-7.47,5.58-7.47,11.04,0,5.09,4.31,6.51,11.19,6.51,2.98,0,3.31-.04,3.87,.11,1.23,.3,1.6,1.19,1.6,2.19,0,2.86-2.23,2.86-4.5,2.86-5.28,0-9.41-1.08-11.94-2.23-3.72-1.71-5.32-5.43-5.32-9,0-2.71,.67-6.25,4.76-10.38,2.12-2.12,3.61-3.01,5.21-3.94-4.09,.26-8.22,.52-12.31,.82Z"/><path class="cls-2" d="M250.32,10.91c0,.97-.26,5.32-.3,6.21-.26,7.14-.26,8.37-.26,9.97,0,4.8,0,9.04,7.14,9.04,7.92,0,9.97-4.09,11.01-7.59,.15-.56,.63-3.09,.78-3.61,.45-1.52,1.86-1.52,2.27-1.52,.59,0,2.83,.11,2.83,2.27,0,1.41-.67,5.43-3.24,9.19-2.97,4.35-7.85,5.99-13.5,5.99-3.94,0-6.84-.78-8.81-2.34-2.79-2.23-3.57-4.87-3.57-10,0-5.95,.3-17.74,.3-17.89,.15-1.45,.63-2.45,2.79-2.45,2.57-.04,2.57,1.9,2.57,2.75Z"/><path class="cls-2" d="M300.19,19.72c1.38-.04,7.51-.19,8.78-.22,.45-.04,.78-.04,.93-.04,.71,0,2.19,.11,2.19,2.12s-1.34,2.04-3.2,2.08c-1.38,.04-7.4,.22-8.63,.26l.07,4.35c4.54,1.49,8.85,4.57,10.6,5.99,1.52,1.23,1.52,2.05,1.52,2.42,0,1.45-1.19,2.79-2.49,2.79-.97,0-1.52-.45-2.64-1.49-1-.93-2.75-2.23-4.54-3.38-1-.63-1.75-1.04-2.42-1.38-.19,3.68-1,7.7-8.33,7.7-6.06,0-10.49-2.42-10.49-6.95,0-3.94,3.57-7.03,10.34-7.03,1.67,0,2.83,.19,3.53,.26l-.07-3.2c-2.86,.04-7.4,.11-10.26,.11-2.19,0-3.61,0-3.61-2.12,0-1.67,1.12-2.08,2.23-2.08,3.24,0,8.37-.07,11.57-.07l-.08-3.38c-2.9,.04-7.51,.11-10.41,.11-2.23,0-3.64,0-3.64-2.16s1.71-2.08,2.6-2.08h2.01c1.49,0,8.03-.07,9.37-.07l-.04-2.12c-.04-1.79,1.26-2.19,2.45-2.19,1.41,0,2.42,.48,2.46,2.19l.04,2.01c1.45-.04,7.88-.19,9.22-.26,.45,0,.82-.04,.93-.04,.56,0,2.23,.04,2.23,2.12s-1.38,2.12-3.09,2.16c-4.13,.15-4.61,.11-9.22,.26l.07,3.35Zm-8.52,11.04c-1.6,0-5.5,.3-5.5,3.09,0,2.01,2.46,2.9,5.24,2.9s3.72-.86,3.94-2.34c.11-.67,.11-1.08,.11-3.05-.71-.22-1.82-.59-3.79-.59Z"/><path class="cls-2" d="M335.66,40.81c-2.04,.3-4.09,.41-6.17,.41-.67,0-3.01,0-3.01-2.53,0-2.16,1.38-2.16,3.94-2.23,9.26-.19,14.24-3.72,14.24-8.96,0-1.9-.86-3.61-2.01-4.42-1.64-1.15-4.02-1.26-4.91-1.26-2.27,0-6.95,.93-10.78,2.75-.6,.3-3.27,1.71-3.87,1.97-.63,.26-1,.33-1.38,.33-1.79,0-2.53-1.67-2.53-2.75,0-1.34,.78-1.86,2.31-2.6,1.3-.63,8.89-4.13,16.81-4.13,10.41,0,11.6,7.55,11.6,10,0,9.74-8.29,12.53-14.24,13.42Zm-9.26-32.83c.48,0,.78,.07,2.01,.33,3.83,.78,8.7,1.26,14.28,1.6,1,.07,2.94,.19,2.94,2.42,0,.97-.52,1.79-.97,2.12-.37,.26-.89,.37-1.67,.37-2.57,0-11.75-1.04-15.62-1.82-1.67-.33-3.42-.67-3.09-2.86,.15-1.08,.67-2.16,2.12-2.16Z"/><path class="cls-2" d="M386.46,39.21c-1.78,.48-6.51,1.04-11.94,1.04-3.05,0-5.35-.22-6.99-.41-2.6-.33-9.56-1.67-9.56-7.77,0-3.76,2.49-6.28,4.35-7.73,.85-.63,1.38-.89,2.01-.89,1.75,0,2.57,1.41,2.57,2.27s-.63,1.41-2.04,2.83c-1.64,1.56-1.79,2.31-1.79,3.12,0,3.46,6.06,3.87,10.49,3.87,3.5,0,7.36-.33,10.04-.86,2.19-.41,2.27-.41,2.83-.41,.45,0,2.34,0,2.34,2.23,0,1.71-.63,2.27-2.31,2.71Zm-23.17-24.13c-1.19,0-3.12-.04-3.12-2.38s1.67-2.42,3.2-2.42c.59,0,5.21,.11,6.17,.11,1.41,0,9.3-.19,11.12-.26,.45,0,1.9-.07,2.23-.07,1.38,0,3.16,.11,3.16,2.3,0,1.53-.48,1.79-2.97,3.31-.93,.56-5.13,3.2-5.99,3.76-1,.63-1.6,.89-2.31,.89-1.38,0-2.42-1.08-2.42-2.27,0-.85,.52-1.38,2.01-2.31,.33-.22,1.97-1,2.31-1.23-3.79,.3-9.48,.56-13.39,.56Z"/><path class="cls-2" d="M424.24,14.52c2.53,0,2.53,2.27,2.53,2.6,0,1.93-1.38,2.27-3.5,2.64-4.31,.78-11.45,2.53-15.4,4.42-1.9,.89-6.17,3.12-6.17,6.88,0,3.09,2.08,4.8,10.08,4.8,3.79,0,5.8-.3,10.45-.97,.93-.15,1.23-.19,1.6-.19,1.38,0,2.45,.67,2.45,2.53,0,1.75-1.04,2.19-2.31,2.49-2.34,.52-7.47,.89-11.38,.89-6.58,0-16.14-.71-16.14-9.11,0-6.95,6.36-9.89,10.71-11.94-.22-1.82-.97-4.8-1.49-6.81-.07-.3-.45-1.6-.52-1.86-.11-.41-.22-.89-.22-1.3,0-1.64,1.52-2.12,2.75-2.12,2.23,0,2.42,.97,3.05,4.05,.22,1.15,1,5.32,1.08,6.25,3.68-1.38,10.78-3.27,12.42-3.27Z"/><path class="cls-3" d="M439.35,18.28c0,.38-.54,3.67-.62,4.35-.25,2.23-.38,4.73-.38,6.91,0,2.83,.22,5.6,.49,7.42,.05,.41,.19,1.25,.19,1.63,0,1.17-.76,1.58-1.74,1.58-.65,0-1.44-.11-1.74-1.28-.41-1.66-.71-6.06-.71-9.54,0-6.09,.9-10.85,1.01-11.31,.16-.6,.46-1.52,2.12-1.31,1.31,.16,1.39,.95,1.39,1.55Zm9.82,.22c-.03-.65,.05-1.9,1.82-1.9s1.82,1.2,1.82,1.88l.03,2.91c2.94-.11,3.26-.14,3.4-.14,.46,0,1.74,0,1.74,1.71,0,1.6-1.01,1.69-2.69,1.74-.38,.03-2.04,.08-2.39,.08l.08,6.01c2.58,1.39,4,2.72,4.43,3.13,.73,.68,.98,1.25,.98,1.79,0,1.03-.87,1.96-1.79,1.96-.65,0-.79-.14-1.96-1.39-.46-.49-.95-.87-1.82-1.55-.03,1.2-.08,2.23-.52,3.13-1.03,2.15-3.94,2.34-5.14,2.34-4.62,0-6.47-2.56-6.47-5.36,0-3.29,2.64-5.36,6.39-5.36,1.12,0,1.88,.16,2.37,.27l-.11-4.84c-2.99,.08-4.21,.11-6.88,.11-.57,0-1.82,0-1.82-1.71s1.12-1.66,2.2-1.69c3.05-.03,3.4-.03,6.42-.11l-.08-3.02Zm-2.07,13.95c-.9,0-3.32,.24-3.32,2.47s2.39,2.34,3.04,2.34c.54,0,2.01-.11,2.47-1.2,.27-.62,.25-1.63,.19-3.13-.62-.25-1.22-.49-2.39-.49Z"/><path class="cls-3" d="M467.27,34.38c-.44,.76-.84,1.28-1.79,1.28-1.12,0-1.93-.79-1.93-1.58,0-.65,.14-.9,1.99-4.11,1.11-1.9,1.96-4.32,2.64-6.42-.79,.03-3.21,.05-3.67-.05-.52-.14-1.01-.62-1.01-1.6,0-1.41,.98-1.58,1.33-1.63,.22-.03,3.81-.11,4.32-.11,.11-.43,.46-2.45,.6-2.85,.19-.65,.73-1.03,1.6-1.03,.38,0,1.96,.05,1.96,1.44,0,.6-.19,1.28-.46,2.31,.24,0,2.56-.11,2.61-.11,.49,0,1.74,.03,1.74,1.69s-1.2,1.66-1.82,1.69c-.76,.03-2.17,.08-3.54,.16-.9,2.86-2.2,6.8-4.57,10.93Zm10.99-8.57c-.05-.73,.14-1.74,1.74-1.74,1.03,0,1.71,.43,1.77,1.58l.3,5.55c1.52,.73,2.94,1.66,4.19,2.77,.68,.62,.98,1.14,.98,1.74,0,.87-.65,1.85-1.77,1.85-.57,0-.84-.3-1.96-1.22-1.06-.87-1.22-.92-1.66-1.3,0,.98-.03,1.82-.46,2.69-1.33,2.69-4.46,2.72-5.38,2.72-4.81,0-6.63-2.64-6.63-5.17,0-2.28,1.63-5.36,7.1-5.36,.9,0,1.52,.08,2.12,.16l-.33-4.27Zm-2.07,7.02c-1.33,0-3.67,.35-3.67,2.37,0,2.23,2.75,2.23,3.24,2.23,2.94,0,2.99-1.88,2.96-4.13-.52-.22-1.17-.46-2.53-.46Zm3.67-15.09c1.03,0,4.11,1.66,6.39,3.45,.82,.65,1.2,1.22,1.2,1.9,0,1.03-.95,1.79-1.79,1.79-.62,0-1.01-.33-1.6-.84-1.69-1.47-2.01-1.63-5-3.26-.27-.16-.95-.54-.95-1.36,0-.38,.19-.73,.27-.87,.16-.25,.65-.82,1.5-.82Z"/><path class="cls-3" d="M497.26,19.01c0,.35-.16,1.79-.19,2.09-.05,.73-.27,3.1-.27,5.41s.27,6.39,1.36,8.27c.27,.46,.84,.95,1.6,.95,1.44,0,2.34-1.63,2.94-3.51,.44-1.31,.57-1.82,1.66-1.82s1.93,.6,1.93,1.63c0,1.17-.71,2.72-1.5,4.13-.9,1.6-2.45,3.64-5.22,3.64-6.31,0-6.31-10.85-6.31-13.76,0-2.23,.22-6.74,.41-7.48,.33-1.17,1.14-1.22,1.96-1.22,1.09,0,1.63,.63,1.63,1.66Zm15.93,16.83c0-4.49,0-8.21-1.28-11.18-.87-1.96-2.31-2.15-3.34-2.28-.71-.08-1.66-.19-1.66-1.74,0-.52,.19-1.79,1.9-1.79,1.09,0,4.24,.46,6.06,3.45,1.63,2.69,2.15,7.97,2.15,12.97,0,1.14,0,2.61-1.9,2.61s-1.93-1.33-1.93-2.04Z"/><path class="cls-3" d="M529.94,32.83c-1.9,0-1.99-1.12-1.99-2.15s0-3.05,2.53-4.92c2.01-1.5,3.02-2.26,3.02-3.64,0-2.09-2.12-2.37-3.26-2.37-3.02,0-3.26,1.39-3.56,3.15-.16,.98-1.06,1.28-2.01,1.28-.38,0-1.98-.05-1.98-1.71s1.22-6.17,7.69-6.17c5.33,0,7.15,3.15,7.15,5.76,0,2.34-.9,3.1-3.67,5.44-1.5,1.25-2.07,1.74-2.07,3.34,0,.62,0,1.99-1.85,1.99Zm2.23,4.32c0,1.25-1.03,2.28-2.28,2.28s-2.28-1.03-2.28-2.28,1.03-2.28,2.28-2.28,2.28,1.01,2.28,2.28Z"/></g></g></g></svg>