<?xml version="1.0" encoding="UTF-8"?><svg id="Layer_2" xmlns="http://www.w3.org/2000/svg" viewBox="0 0 106.48 60.4"><defs><style>.cls-1{fill:none;}.cls-2{fill:#f36e64;}.cls-3{fill:#8cd893;}.cls-4{fill:#404040;}</style></defs><g id="PC"><g><rect class="cls-1" x=".48" width="106" height="60"/><path class="cls-3" d="M106.26,35.41l-8.44-10.56c-.19-.24-.31-.53-.35-.83l-2.17-17.71c-.03-.14-.12-.25-.24-.31-.12-.05-.26-.03-.35,.06-2.83,2.7-6,5.1-9.42,7.13-6.42,3.83-14,6.02-22.52,6.52-8.19,.48-9.94-.66-15.09-1.56-5.18-.9-6.98-2.05-15.24-1.57-8.62,.51-16.29,2.73-22.8,6.61C6.18,25.27,2.97,27.7,.11,30.42c-.14,.13-.14,.37-.02,.53l8.93,11.69c.18,.24,.3,.53,.33,.83l1.71,16.61c.03,.13,.13,.24,.25,.29,.05,.02,.1,.03,.15,.02,.07,0,.14-.03,.19-.09,2.84-2.7,6-5.1,9.42-7.13,6.42-3.83,7.95-6.03,16.47-6.52,8.19-.48,15.99,.66,21.14,1.56,5.18,.9,6.98,2.05,15.24,1.57,8.62-.51,16.29-2.73,22.8-6.61,3.46-2.06,6.67-4.49,9.53-7.22,.07-.07,.11-.16,.11-.26,0-.1-.04-.2-.1-.28Z"/><g><path class="cls-4" d="M34.95,22.99c.48,0,1.22,0,1.22,.94,0,.99-.57,1.04-1.25,1.04-.96,0-1.98,0-2.43,.06-1.21,.17-4.16,1.07-4.16,3.22,0,.51,.15,.94,.71,1.21,.68,.31,1.53,.39,2.31,.39,.28,0,1.5-.06,1.75-.06,.63,0,1.05,.29,1.05,.94,0,.99-.62,1.13-2.17,1.13-2.31,0-4.27-.36-5.35-1.69-.34-.43-.5-1-.5-1.45,0-1.95,1.86-3.08,3.08-3.81-3.3,.43-3.92,.51-5.04,.74-.73,.15-.85,.17-1.05,.17-.63,0-.94-.45-.94-1.07,0-.84,.48-.9,1.56-1.02,.9-.11,1.58-.26,3.71-1.56,.57-.34,2.8-1.78,2.8-1.9,0-.03-.06-.03-.14-.03-.37,0-2.01,.11-2.35,.12-.73,.05-1.55,.08-2.26,.08-.77,0-1.02-.39-1.02-.93,0-.8,.34-.97,1.02-.99,2.17-.03,3.96-.05,6.08-.11,.2,0,.46-.02,.62-.02,.87,0,1.39,.26,1.39,1.05,0,.57-.19,.88-.91,1.36-2.69,1.75-3.7,2.26-4.53,2.68,2.23-.23,5.86-.5,6.81-.5Z"/><path class="cls-4" d="M45.02,28.5c-.76,1.22-1.58,1.87-2.72,1.87-2.01,0-3.11-2.06-3.11-4.52,0-4.72,3.51-7.23,7.41-7.23,4.72,0,6.61,3.08,6.61,6.45,0,.77,0,3.45-2.82,5.31-1.59,1.07-3.5,1.21-3.74,1.21-1.02,0-1.04-.94-1.04-1.07,0-.8,.57-.9,1.14-.97,1.24-.19,4.32-.67,4.32-4.61,0-2.54-1.38-4.22-3.79-4.38-.51,4.02-1.5,6.68-2.26,7.94Zm-1.52-7.19c-1.78,1.1-2.34,3.06-2.34,4.58s.6,2.32,1.22,2.32c.65,0,1.11-.87,1.53-1.98,.85-2.26,1.11-3.93,1.35-5.62-.36,.09-1.02,.25-1.76,.7Z"/></g><path class="cls-2" d="M56.74,41.23c-3.34,0-3.82-2.77-3.82-3.73,0-5.44,7.21-10.7,9.6-12.42,7.74-5.64,9.46-6.88,9.46-11.46,0-3.68-2.05-6.35-5.83-6.35-5.25,0-6.02,5.06-6.11,6.3-.14,1.34-.24,3.1-3.2,3.1-.81,0-3.39-.24-3.39-3.2,0-3.82,2.91-11.84,12.66-11.84,6.92,0,12.61,4.3,12.61,12.42,0,6.97-3.68,9.55-9.74,13.75-2.01,1.43-7.26,5.11-7.26,7.07,0,.57,.67,.67,1.15,.67h12.75c.91,0,3.1,.24,3.1,2.82,0,2.87-2.48,2.87-3.1,2.87h-18.87Z"/></g></g></svg>