<?xml version="1.0" encoding="UTF-8"?><svg xmlns="http://www.w3.org/2000/svg" xmlns:xlink="http://www.w3.org/1999/xlink" viewBox="0 0 107.56 113.39"><defs><style>.cls-1,.cls-2,.cls-3,.cls-4,.cls-5{fill:none;}.cls-2{stroke:#eb6d5e;stroke-width:.75px;}.cls-2,.cls-3,.cls-6,.cls-7,.cls-4,.cls-5{stroke-linecap:round;stroke-linejoin:round;}.cls-8{clip-path:url(#clippath);}.cls-9,.cls-10{fill:#fad8be;}.cls-11,.cls-12{fill:#fbe2cc;}.cls-13{fill:#231916;}.cls-14,.cls-15{fill:#614d3f;}.cls-3{stroke-width:.52px;}.cls-3,.cls-5{stroke:#231916;}.cls-16{fill:#946135;stroke:#b28147;stroke-miterlimit:10;}.cls-16,.cls-6,.cls-7,.cls-5{stroke-width:.5px;}.cls-10,.cls-12,.cls-15{mix-blend-mode:multiply;opacity:.5;}.cls-6{fill:#fffded;stroke:#fff4d6;}.cls-7{fill:#f2a6a3;stroke:#ef9091;}.cls-4{stroke:#4f64ad;stroke-width:2px;}.cls-17{isolation:isolate;}</style><clipPath id="clippath"><rect class="cls-1" width="107.56" height="113.39"/></clipPath></defs><g class="cls-17"><g id="Layer_2"><g id="PC"><g class="cls-8"><path class="cls-4" d="M104.53,26.4s-8.43-12.38-16.77-12.13c-12.12,.37,9.55,19.81,12.12,16.73,2.39-2.86-11.25-15.03-14.89-9.24s7.61,15.76,9.67,14.25c2.06-1.51-2.15-7.04-6.75-7.62-4.59-.58-3.7,4.87-.42,8.19"/><g><path class="cls-14" d="M76.15,32.99l-21.79,40.31L20.09,42.87s1.37,31.45,6.78,34.79c5.4,3.34,12.47,3.97,12.47,3.97l1.17-1.92s-.03,1.19,6,2.02c2.13,.29,16.21-2.19,18.11-3.19,5.38-2.84,4.94-3.95,4.94-3.95l1.75,1.4s6.43-3.01,10.36-8c3.93-4.99-5.53-35.01-5.53-35.01Z"/><g><path class="cls-9" d="M62.02,80.11c.02-.06,.04-.13,.06-.18,.24-1.07-.34-1.27-1.81-1.57-1.25-.58-2.67-.68-2.67-.68l.11-5.94-3.94,.32-3.94-.32,.11,5.94s-1.42,.1-2.67,.68c-1.47,.3-2.05,.5-1.81,1.57,.01,.06,.04,.12,.06,.18-.11,.36-.15,.77-.05,1.25,.64,3.18,4.54,6.35,7.94,6.64,.07,0,.15,.03,.21,.03,.05,0,.1,0,.14,0,.05,0,.1,0,.14,0,.06,0,.14-.02,.21-.03,3.4-.29,7.3-3.46,7.94-6.64,.1-.48,.06-.89-.05-1.25Z"/><polygon class="cls-10" points="50.06 72.74 56.75 72.95 56.75 77.87 50.06 72.74"/></g><path class="cls-11" d="M45.26,21.11s-.07,.02-.1,.02c-.04,0-.07,0-.11,.01-26.54,4.68-20.83,34.45-20.83,34.45,0,0,0,.02,.01,.04,.23,.71,7.04,21.59,28.36,19.17,.19-.02,.39-.05,.59-.08,.36-.05,.72-.09,1.09-.15,.1-.02,.19-.04,.3-.06,.1-.02,.2-.03,.3-.05,.37-.07,.72-.16,1.08-.23,.19-.04,.39-.08,.58-.13,20.87-5.01,20.13-26.96,20.1-27.71,0-.01,0-.04,0-.04,0,0-4.82-29.93-31.36-25.25Z"/><g><path class="cls-12" d="M31.95,40.08l3.3-2.53s6.14,6.75,16.72,5.2c0,0,21.84,1.57,22.54,2.28s-3.99-11.54-15.5-14.46-31.11-7.79-27.07,9.51Z"/><path class="cls-14" d="M69.96,19.77c-9.19-6.83-19.33-6.8-26.04-5.67-6.69,1.23-16.23,4.67-22.53,14.23-4.08,6.2-4.52,13.01-3.72,18.72,.76,3.76,2.35,7.82,5.02,12.19l3.42,.92,2.05-1.19c5.62-4.91,5.19-27.17,5.19-27.17,0,0,3.53,9.71,18.42,9.72,0,0,17.47-.4,20.07,2.41,1.7,1.84,3.34,7.12,2.87,8.55l1.7-1.2,2.9-2.04c1.02-5.02,1.12-9.38,.55-13.17-1.2-5.64-3.94-11.89-9.9-16.32Z"/><path class="cls-15" d="M50.25,17.93s21.24,4.24,25.31,25.07c0,0-8.23-20.68-25.31-25.07Z"/><path class="cls-15" d="M39.45,23.92s-3.12,9.39,6.83,14.97c0,0-6.04-5.29-6.83-14.97Z"/><path class="cls-15" d="M50.71,22.92s-3.12,9.39,6.83,14.97c0,0-6.04-5.29-6.83-14.97Z"/></g><g><path class="cls-11" d="M25.77,58.64s-4.28-.99-4.46,3.41c-.18,4.4,4.94,6.72,8.14,3.1"/><path class="cls-11" d="M76.19,49.75s3.68-2.39,5.36,1.67c1.68,4.07-2.34,8.01-6.59,5.7"/></g><g><path class="cls-13" d="M43.38,54.08c.34,1.91-.12,3.58-1.02,3.74-.9,.16-1.9-1.26-2.24-3.16-.34-1.91,.12-3.58,1.02-3.74,.9-.16,1.9,1.26,2.24,3.16Z"/><path class="cls-13" d="M61.08,50.95c.34,1.91-.12,3.58-1.02,3.74s-1.9-1.26-2.24-3.16c-.34-1.91,.12-3.58,1.02-3.74,.9-.16,1.9,1.26,2.24,3.16Z"/></g><path class="cls-3" d="M49.52,58.25s.03-1.31,1.85-1.64c1.82-.32,2.36,.76,2.36,.76"/><path class="cls-2" d="M56.23,64.12s-.92-1.56-3.88-1.03c-2.96,.52-3.17,2.28-3.17,2.28"/><path class="cls-5" d="M55.69,43.76s.68,.74,2.55,.66"/></g><g><g><path class="cls-6" d="M68.16,81.28c-.22-.15-.46-.3-.71-.45-1.79-1.05-4.13-1.83-6.06-2.36-.58-.16-1.1-.29-1.58-.4-1.11,2.37-3.41,4-6.07,4s-4.96-1.63-6.07-4c-.48,.11-1,.24-1.58,.4-1.93,.53-4.26,1.31-6.06,2.36-.25,.14-.48,.29-.7,.45l-2.94,31.49c5.11,.64,11.05,1,17.38,1s12.26-.37,17.37-1l-2.99-31.49Z"/><path class="cls-16" d="M53.78,113.77c-6.34,0-12.27-.37-17.38-1l-.4,4.26c5.2,.67,11.28,1.05,17.78,1.05s12.57-.38,17.77-1.05l-.4-4.26c-5.11,.63-11.03,1-17.37,1Z"/><path class="cls-7" d="M47.68,78.08c-.48,.11-1,.24-1.58,.4-1.93,.53-4.26,1.31-6.06,2.36-.25,.14-.48,.29-.7,.45l-2.94,31.49-.4,4.26c4.41,.56,9.45,.92,14.85,1.02v-33.42c-2.52-2.1-3.17-6.55-3.17-6.55Z"/><path class="cls-7" d="M59.87,78.08c.48,.11,1,.24,1.58,.4,1.93,.53,4.26,1.31,6.06,2.36,.25,.14,.48,.29,.7,.45l2.94,31.49,.4,4.26c-4.41,.56-9.45,.92-14.85,1.02v-33.42c2.52-2.1,3.17-6.55,3.17-6.55Z"/></g><path class="cls-11" d="M48.86,98.35s-2.84-.37-5.37,.55c-2.53,.92-5.6,3.62-1.37,3.77,4.23,.15,6.74-4.32,6.74-4.32Z"/><path class="cls-7" d="M39.16,81.38s-3.63,3.96-4.09,19.62c0,.03,.12,7.64,3.92,7.2,2.67,.06,19.56-1.03,23.67-2.77,0,0-1.06-3.84-.52-3.89l-17.59-.11s-3.41-19.61-5.38-20.05Z"/><path class="cls-7" d="M68.46,81.38s3.63,3.96,4.09,19.62c0,.03-.43,6.36-6.05,6.35-2.67,.06-17.2-4.18-21.31-5.92,0,0,4.86-3.87,4.32-3.93l15.22,2.08s1.76-17.76,3.73-18.21Z"/><path class="cls-11" d="M60.77,98.81s3.27-4.69,5.66-3.77,3.62,2.92,1.77,3.77c-1.85,.85-3.46,.54-3.46,.54l-3.96-.54Z"/></g></g></g></g></g></svg>