<?xml version="1.0" encoding="UTF-8"?><svg id="Layer_2" xmlns="http://www.w3.org/2000/svg" viewBox="0 0 107.56 113.39"><defs><style>.cls-1{fill:#f2f2f2;}.cls-2{fill:#fff;}.cls-3{fill:#f36e64;}.cls-4{fill:#8cd893;}.cls-5{fill:#333;}.cls-6{fill:#1a1a1a;}.cls-7{fill:none;stroke:#fff;stroke-linecap:round;stroke-miterlimit:10;stroke-width:2px;}</style></defs><g id="PC"><g><rect class="cls-4" x="0" y="0" width="107.56" height="113.39" rx="53.78" ry="53.78"/><g><g><path class="cls-2" d="m34.26,14.59h39.12c2.96,0,5.36,2.4,5.36,5.36v73.49c0,2.96-2.4,5.36-5.36,5.36h-39.13c-2.96,0-5.36-2.4-5.36-5.36V19.95c0-2.96,2.4-5.36,5.36-5.36Z"/><path class="cls-6" d="m73.39,15.59c2.41,0,4.36,1.95,4.36,4.36v73.49c0,2.41-1.95,4.36-4.36,4.36h-39.13c-2.41,0-4.36-1.95-4.36-4.36V19.95c0-2.41,1.95-4.36,4.36-4.36h39.13m0-2h-39.13c-3.51,0-6.36,2.85-6.36,6.36v73.49c0,3.51,2.85,6.36,6.36,6.36h39.13c3.51,0,6.36-2.85,6.36-6.36V19.95c0-3.51-2.85-6.36-6.36-6.36h0Z"/></g><rect class="cls-5" x="31.33" y="16.69" width="44.99" height="80" rx="3.96" ry="3.96"/><path class="cls-2" d="m61.36,18.69h-14.96c-1.16,0-2.25-.47-2.87-1.26l-1.32-1.67h23.34l-1.32,1.67c-.62.78-1.7,1.26-2.87,1.26Z"/><g><line class="cls-7" x1="10.91" y1="45.01" x2="17.89" y2="46.36"/><line class="cls-7" x1="15.57" y1="34.55" x2="20.3" y2="39.85"/><line class="cls-7" x1="14.42" y1="57.09" x2="20.3" y2="53.12"/></g><g><path class="cls-3" d="m57.7,65.22c-1.65-1.15-2.06-1.42-2.97-1.82-.44-.19-.95-.08-1.27.27-.25.28-.54.61-.72.88-.42.61-1.06,1.98-1.06,1.98-1.47.06-4.44-2.39-6.85-5.88s-3.96-7.6-3.38-8.95c0,0,1.5-.12,2.23-.29.32-.08.73-.22,1.08-.36.45-.17.73-.61.71-1.09-.05-1-.16-1.47-.65-3.42-.42-1.69-.97-2.73-1.41-3.38-.2-.3-.64-.76-1.23-.77-.35,0-2.99.77-3.75,1.22-5.05,3.03-5.14,12.26.88,20.98,6.02,8.72,14.32,11.25,18.87,7.66.69-.54,2.35-2.74,2.47-3.07.2-.56-.08-1.13-.28-1.42-.45-.65-1.23-1.53-2.66-2.53Z"/><g><path class="cls-1" d="m70.81,61.53l-2.19-.77.39-1.1c1.84-5.22,1.23-10.63-1.67-14.83-2.9-4.21-7.74-6.7-13.27-6.84l-1.16-.03.06-2.32,1.16.03c6.29.16,11.8,3.01,15.13,7.84,3.33,4.83,4.04,10.99,1.95,16.93l-.39,1.1Z"/><path class="cls-1" d="m65.77,60.36l-2.19-.77.39-1.1c1.3-3.71.88-7.54-1.18-10.52-2.05-2.98-5.48-4.74-9.41-4.84l-1.16-.03.06-2.32,1.16.03c4.68.12,8.79,2.25,11.27,5.85,2.48,3.6,3.01,8.19,1.46,12.61l-.39,1.1Z"/><path class="cls-1" d="m60.73,59.18l-2.19-.77.39-1.1c.77-2.19.52-4.45-.69-6.2-1.21-1.75-3.23-2.79-5.55-2.85l-1.16-.03.06-2.32,1.16.03c3.07.08,5.77,1.48,7.41,3.85,1.63,2.37,1.99,5.39.97,8.29l-.39,1.1Z"/></g></g></g></g></g></svg>