<?xml version="1.0" encoding="UTF-8"?><svg id="Layer_2" xmlns="http://www.w3.org/2000/svg" xmlns:xlink="http://www.w3.org/1999/xlink" viewBox="0 0 107.56 113.39"><defs><style>.cls-1{fill:none;}.cls-2{clip-path:url(#clippath);}.cls-3{fill:#f2f2f2;}.cls-4{fill:#f36e64;}.cls-5{fill:#ffb74d;}.cls-6{fill:#8cd893;}.cls-7{fill:#404040;}</style><clipPath id="clippath"><rect class="cls-1" x="16.35" y="42.59" width="74.92" height="48.05" rx="3.09" ry="3.09"/></clipPath></defs><g id="PC"><g><rect class="cls-6" x="0" y="0" width="107.56" height="113.39" rx="53.78" ry="53.78"/><g><g><rect class="cls-7" x="16.29" y="42.39" width="74.92" height="48.05" rx="3.37" ry="3.37"/><g class="cls-2"><rect x="10.17" y="-24.16" width="17.71" height="137.18" transform="translate(36.99 -.44) rotate(45)"/></g><g><path class="cls-3" d="m27.55,49.93c0-2.02,1.35-3.18,2.89-3.18.79,0,1.43.37,1.84.79l-.76.93c-.31-.28-.63-.47-1.06-.47-.78,0-1.43.7-1.43,1.88s.55,1.91,1.41,1.91c.49,0,.87-.24,1.16-.55l.77.91c-.51.59-1.19.9-1.98.9-1.54,0-2.84-1.06-2.84-3.11Z"/><path class="cls-3" d="m33.67,46.86h2.22c1.29,0,2.37.45,2.37,1.91,0,.89-.42,1.46-1.04,1.75l1.35,2.4h-1.63l-1.12-2.13h-.7v2.13h-1.46v-6.07Zm2.11,2.78c.69,0,1.07-.3,1.07-.87s-.37-.76-1.07-.76h-.65v1.63h.65Z"/><path class="cls-3" d="m39.84,46.86h3.84v1.21h-2.39v1.12h2.03v1.22h-2.03v1.29h2.48v1.22h-3.93v-6.07Z"/><path class="cls-3" d="m45.38,46.86h1.74c1.85,0,3.07.9,3.07,3s-1.22,3.06-2.99,3.06h-1.82v-6.07Zm1.65,4.89c.98,0,1.67-.45,1.67-1.89s-.69-1.84-1.67-1.84h-.2v3.73h.2Z"/><path class="cls-3" d="m51.72,46.86h1.46v6.07h-1.46v-6.07Z"/><path class="cls-3" d="m56.15,48.07h-1.64v-1.21h4.74v1.21h-1.64v4.85h-1.46v-4.85Z"/><path class="cls-3" d="m62.59,49.93c0-2.02,1.35-3.18,2.89-3.18.79,0,1.43.37,1.84.79l-.76.93c-.31-.28-.63-.47-1.06-.47-.78,0-1.42.7-1.42,1.88s.55,1.91,1.41,1.91c.49,0,.87-.24,1.16-.55l.77.91c-.51.59-1.19.9-1.98.9-1.54,0-2.84-1.06-2.84-3.11Z"/><path class="cls-3" d="m69.83,46.86h1.74l1.88,6.07h-1.53l-.35-1.39h-1.79l-.35,1.39h-1.48l1.88-6.07Zm.23,3.55h1.24l-.13-.51c-.16-.6-.32-1.33-.48-1.95h-.03c-.15.64-.31,1.34-.46,1.95l-.13.51Z"/><path class="cls-3" d="m74.49,46.86h2.22c1.29,0,2.37.45,2.37,1.91,0,.89-.42,1.46-1.04,1.75l1.35,2.4h-1.63l-1.12-2.13h-.7v2.13h-1.46v-6.07Zm2.11,2.78c.69,0,1.07-.3,1.07-.87s-.37-.76-1.07-.76h-.65v1.63h.65Z"/><path class="cls-3" d="m80.66,46.86h1.74c1.85,0,3.07.9,3.07,3s-1.22,3.06-2.99,3.06h-1.82v-6.07Zm1.65,4.89c.98,0,1.67-.45,1.67-1.89s-.69-1.84-1.67-1.84h-.2v3.73h.2Z"/></g><polygon class="cls-4" points="25.14 51.05 20.7 49.71 25.14 48.36 25.14 51.05"/><g><g><circle class="cls-3" cx="41.73" cy="73.46" r="1.55"/><circle class="cls-3" cx="45.73" cy="73.46" r="1.55"/></g><g><circle class="cls-3" cx="53.64" cy="73.46" r="1.55"/><circle class="cls-3" cx="57.64" cy="73.46" r="1.55"/></g><path class="cls-3" d="m48.63,75.06c-.14,0-.28-.05-.38-.16-.21-.21-.21-.56,0-.77l2.11-2.11c.21-.21.56-.21.77,0,.21.21.21.56,0,.77l-2.11,2.11c-.11.11-.24.16-.38.16Z"/></g><g><circle class="cls-3" cx="23.19" cy="73.46" r="1.55"/><circle class="cls-3" cx="27.37" cy="73.46" r="1.55"/><circle class="cls-3" cx="31.55" cy="73.46" r="1.55"/><circle class="cls-3" cx="35.73" cy="73.46" r="1.55"/></g><g><rect class="cls-5" x="22.19" y="62.57" width="2.36" height="1.17"/><path class="cls-5" d="m28.84,61.49h2.8v-.38c0-.9-.73-1.63-1.63-1.63h-1.17v2.01Z"/><rect class="cls-5" x="22.19" y="64.82" width="2.36" height="1.17"/><rect class="cls-5" x="28.84" y="64.82" width="2.8" height="1.17"/><rect class="cls-5" x="25.64" y="59.48" width="2.12" height="9.45"/><path class="cls-5" d="m24.55,67.08h-2.36v.22c0,.9.73,1.63,1.63,1.63h.73v-1.85Z"/><path class="cls-5" d="m28.84,67.08v1.85h1.17c.9,0,1.63-.73,1.63-1.63v-.22h-2.8Z"/><path class="cls-5" d="m24.55,61.49v-2.01h-.73c-.9,0-1.63.73-1.63,1.63v.38h2.36Z"/><rect class="cls-5" x="28.84" y="62.57" width="2.8" height="1.17"/></g></g><rect class="cls-4" x="49.36" y="17.04" width="6.81" height="45.81" rx="3.4" ry="3.4" transform="translate(43.7 -25.61) rotate(45)"/><rect class="cls-4" x="49.36" y="17.04" width="6.81" height="45.81" rx="3.4" ry="3.4" transform="translate(118.32 30.87) rotate(135)"/></g></g></g></svg>