<?xml version="1.0" encoding="UTF-8"?><svg id="Layer_2" xmlns="http://www.w3.org/2000/svg" viewBox="0 0 107.56 113.39"><defs><style>.cls-1{fill:#f2f2f2;}.cls-2{fill:#fff;}.cls-3{fill:#f36e64;}.cls-4{fill:#8cd893;}.cls-5{fill:#333;}.cls-6{fill:#1a1a1a;}.cls-7{fill:none;stroke:#fff;stroke-linecap:round;stroke-miterlimit:10;stroke-width:2px;}</style></defs><g id="PC"><g><rect class="cls-4" x="0" y="0" width="107.56" height="113.39" rx="53.78" ry="53.78"/><g><g><path class="cls-2" d="m32.71,14.59h39.12c2.96,0,5.36,2.4,5.36,5.36v73.49c0,2.96-2.4,5.36-5.36,5.36h-39.12c-2.96,0-5.36-2.4-5.36-5.36V19.95c0-2.96,2.4-5.36,5.36-5.36Z"/><path class="cls-6" d="m71.84,15.59c2.41,0,4.36,1.95,4.36,4.36v73.49c0,2.41-1.95,4.36-4.36,4.36h-39.13c-2.41,0-4.36-1.95-4.36-4.36V19.95c0-2.41,1.95-4.36,4.36-4.36h39.13m0-2h-39.13c-3.51,0-6.36,2.85-6.36,6.36v73.49c0,3.51,2.85,6.36,6.36,6.36h39.13c3.51,0,6.36-2.85,6.36-6.36V19.95c0-3.51-2.85-6.36-6.36-6.36h0Z"/></g><rect class="cls-5" x="29.78" y="16.69" width="44.99" height="80" rx="3.96" ry="3.96"/><path class="cls-2" d="m59.81,18.69h-14.96c-1.16,0-2.25-.47-2.87-1.26l-1.32-1.67h23.34l-1.32,1.67c-.62.78-1.7,1.26-2.87,1.26Z"/><g><path class="cls-3" d="m34.31,62.31c0-2.62.73-4.66,2.19-6.12s3.49-2.19,6.09-2.19,4.73.72,6.17,2.15,2.17,3.44,2.17,6.02c0,1.88-.32,3.41-.95,4.61-.63,1.2-1.54,2.13-2.74,2.8-1.19.67-2.68,1-4.46,1s-3.31-.29-4.49-.86-2.15-1.49-2.88-2.74c-.74-1.25-1.11-2.81-1.11-4.68Zm4.96.02c0,1.62.3,2.78.9,3.49.6.71,1.42,1.06,2.46,1.06s1.89-.35,2.47-1.04c.58-.69.88-1.94.88-3.73,0-1.51-.3-2.61-.91-3.31-.61-.7-1.44-1.04-2.48-1.04s-1.8.35-2.41,1.06c-.61.71-.91,1.88-.91,3.51Z"/><path class="cls-3" d="m53.62,54.27h4.96v6.06l5.19-6.06h6.59l-5.85,6.06,6.12,9.99h-6.1l-3.38-6.6-2.56,2.68v3.91h-4.96v-16.04Z"/></g><g><path class="cls-1" d="m47.1,39.28h4.37v7.28h-1.54v-.58h-2.83v3.16h-1.54v-3.16h-2.67v.66h-1.46v-7.35h4.13v-1.65l1.87.11c-.01.12-.11.19-.33.23v1.3Zm-1.54,1.4h-2.67v1.26h2.67v-1.26Zm-2.67,3.89h2.67v-1.29h-2.67v1.29Zm7.04-3.89h-2.83v1.26h2.83v-1.26Zm-2.83,3.89h2.83v-1.29h-2.83v1.29Z"/><path class="cls-1" d="m56.81,42.42v3.88c.76,1.23,2.23,1.23,4.36,1.23,1.4,0,3.06-.04,4.19-.13-.16.35-.39,1.06-.46,1.49-.9.05-2.17.07-3.36.07-2.73,0-4.19,0-5.38-1.4-.54.48-1.08.95-1.55,1.32,0,.13-.05.21-.17.24l-.74-1.61c.52-.32,1.15-.72,1.68-1.15v-2.58h-1.43v-1.35h2.85Zm-1.76-4.49c.74.51,1.65,1.27,2.06,1.85l-1.16.97c-.38-.58-1.26-1.4-1.99-1.95l1.08-.88Zm3.32.23h3.38c.2,3.49.94,6.45,3.5,7.73-.35.24-.88.77-1.15,1.12-1.52-.9-2.43-2.33-2.96-4.07-.61,1.74-1.56,3.16-2.95,4.07-.21-.29-.71-.82-1.02-1.06,1.65-.99,2.62-2.89,3.01-5.24l.49.09c-.06-.4-.11-.83-.15-1.26h-2.15v-1.38Z"/></g><g><line class="cls-7" x1="9.36" y1="45.01" x2="16.34" y2="46.36"/><line class="cls-7" x1="14.02" y1="34.55" x2="18.75" y2="39.85"/><line class="cls-7" x1="12.87" y1="57.09" x2="18.75" y2="53.12"/></g></g></g></g></svg>