<svg id="Layer_2" xmlns="http://www.w3.org/2000/svg" viewBox="0 0 437.27 391"><defs><style>.cls-1{fill:#fff}.cls-2{fill:#edd1b7}.cls-4{fill:#939393}</style></defs><g id="Layer_1-2"><path class="cls-2" d="M249 139.29s51.62 43.22 63.76 74.36C324.9 244.8 310.58 388 310.58 388l-107.31 3-74.32-177.35 120.06-74.36Z"/><rect class="cls-4" x="63.27" width="212" height="346" rx="20.97" ry="20.97"/><rect class="cls-1" x="72.27" y="9" width="194" height="328" rx="13.89" ry="13.89"/><path class="cls-4" d="M185.91 25.61h-33.29c-4.45 0-8.64-2.96-11.36-8.02l-6-11.2h68l-6 11.2c-2.71 5.06-6.91 8.02-11.36 8.02Z"/><path class="cls-2" d="M238.88 279.08s-30.79-29.36-50.12-60.86 7.16-52.98 25.06-45.11c17.9 7.87 42.24 58.7 42.24 58.71.31.65 10.31 1.79 11.44 2.15 7.23 2.31 13.22 6.14 15.96 13.31 14.12 36.81 9.31 82.4-6.43 117.89"/><path style="fill:#f15a24;opacity:.7" d="M258.09 75.52 226.27 43.7l-97.22 97.23L31.82 43.7 0 75.52l97.23 97.23L0 269.98l31.82 31.82 97.23-97.23 97.22 97.23 31.82-31.82-97.22-97.23 97.22-97.23z"/><path d="M344.77 9c-51.09 0-92.5 41.41-92.5 92.5 0 32.68 16.95 61.41 42.54 77.86l-14.7 65.32 41.54-53.59a92.76 92.76 0 0 0 23.12 2.91c51.09 0 92.5-41.41 92.5-92.5S395.85 9 344.77 9Z" style="fill:#b8ddf2"/><rect class="cls-1" x="311.27" y="75.5" width="67" height="10" rx="5" ry="5"/><rect class="cls-1" x="327.27" y="102" width="51" height="10" rx="5" ry="5"/><rect class="cls-1" x="311.27" y="128" width="67" height="10" rx="5" ry="5"/></g></svg>