<svg id="Layer_2" xmlns="http://www.w3.org/2000/svg" viewBox="0 0 379.57 358.48"><defs><style>.cls-2{fill:#fff}.cls-7{fill:#dd350e}</style></defs><g id="Layer_1-2"><path transform="rotate(-5.67 124.63 185.324)" style="fill:#edd18c" d="M13 48.18h223v274H13z"/><path class="cls-2" transform="rotate(-5.67 54.989 111.834)" d="M30.39 81.7h49v60h-49z"/><path transform="rotate(-5.67 54.969 112.238)" style="fill:#dbd9d7" d="M34.94 87.3h40v49.8h-40z"/><path class="cls-2" transform="rotate(-5.67 112.57 81.385)" d="M107.01 75.86h11v11h-11z"/><path class="cls-7" d="m119.07 86.73-11.94 1.19-1.19-11.94 11.94-1.19 1.19 11.94Zm-11.04.09 9.95-.99-.99-9.95-9.95.99.99 9.95Z"/><path class="cls-2" transform="rotate(-5.67 125.791 80.117)" d="M120.14 74.55h11v11h-11z"/><path class="cls-7" d="m132.21 85.43-11.94 1.19-1.19-11.94 11.94-1.19 1.19 11.94Zm-11.04.09 9.95-.99-.99-9.95-9.95.99.99 9.95Z"/><path class="cls-2" transform="rotate(-5.67 138.911 78.843)" d="M133.28 73.25h11v11h-11z"/><path class="cls-7" d="m145.34 84.12-11.94 1.19-1.19-11.94 11.94-1.19 1.19 11.94Zm-11.04.09 9.95-.99-.99-9.95-9.95.99.99 9.95Z"/><path class="cls-2" transform="rotate(-5.67 157.12 77.012)" d="M151.52 71.43h11v11h-11z"/><path class="cls-7" d="m163.59 82.31-11.94 1.19-1.19-11.94 11.94-1.19 1.19 11.94Zm-11.04.09 9.95-.99-.99-9.95-9.95.99.99 9.95Z"/><path class="cls-2" transform="rotate(-5.67 170.345 75.643)" d="M164.66 70.13h11v11h-11z"/><path class="cls-7" d="m176.72 81.01-11.94 1.19-1.19-11.94 11.94-1.19 1.19 11.94Zm-11.04.09 9.95-.99-.99-9.95-9.95.99.99 9.95Z"/><path class="cls-2" transform="rotate(-5.67 183.465 74.37)" d="M177.79 68.82h11v11h-11z"/><path class="cls-7" d="m189.86 79.7-11.94 1.19-1.19-11.94 11.94-1.19 1.19 11.94Zm-11.04.09 9.95-.99-.99-9.95-9.95.99.99 9.95Z"/><path class="cls-2" transform="rotate(-5.67 196.585 73.096)" d="M190.93 67.52h11v11h-11z"/><path class="cls-7" d="m202.99 78.4-11.94 1.19-1.19-11.94 11.94-1.19 1.19 11.94Zm-11.04.09 9.95-.99-.99-9.95-9.95.99.99 9.95Z"/><path style="fill:#e5c273" d="M221.91 37.83 0 59.88l15.95-41.79L198.05 0l23.86 37.83z"/><path transform="rotate(-84.36 201.553 211.177)" style="fill:#f4dd9d" d="M64.56 99.68h274v223h-274z"/><path class="cls-2" transform="rotate(5.64 147.72 125.51)" d="M123.22 95.47h49v60h-49z"/><path transform="rotate(5.64 147.745 126.018)" style="fill:#cecbc4" d="M127.67 101.07h40v49.8h-40z"/><path class="cls-2" transform="rotate(-84.36 210.171 107.024)" d="M204.67 101.52h11v11h-11z"/><path class="cls-7" d="m215.55 113.58-11.94-1.18 1.18-11.94 11.94 1.18-1.18 11.94Zm-10.85-2.08 9.95.98.98-9.95-9.95-.98-.98 9.95Z"/><path class="cls-2" transform="rotate(-84.36 223.304 108.323)" d="M217.81 102.82h11v11h-11z"/><path class="cls-7" d="m228.69 114.88-11.94-1.18 1.18-11.94 11.94 1.18-1.18 11.94Zm-10.85-2.08 9.95.98.98-9.95-9.95-.98-.98 9.95Z"/><path class="cls-2" transform="rotate(-84.36 236.437 109.621)" d="M230.94 104.12h11v11h-11z"/><path class="cls-7" d="M241.82 116.18 229.88 115l1.18-11.94 11.94 1.18-1.18 11.94Zm-10.85-2.08 9.95.98.98-9.95-9.95-.98-.98 9.95Z"/><path class="cls-2" transform="rotate(-84.36 254.682 111.422)" d="M249.19 105.92h11v11h-11z"/><path class="cls-7" d="m260.07 117.98-11.94-1.18 1.18-11.94 11.94 1.18-1.18 11.94Zm-10.85-2.08 9.95.98.98-9.95-9.95-.98-.98 9.95Z"/><path class="cls-2" transform="rotate(-84.36 267.814 112.72)" d="M262.32 107.22h11v11h-11z"/><path class="cls-7" d="m273.2 119.28-11.94-1.18 1.18-11.94 11.94 1.18-1.18 11.94Zm-10.85-2.08 9.95.98.98-9.95-9.95-.98-.98 9.95Z"/><path class="cls-2" transform="rotate(-84.36 280.958 114.018)" d="M275.46 108.52h11v11h-11z"/><path class="cls-7" d="m286.34 120.58-11.94-1.18 1.18-11.94 11.94 1.18-1.18 11.94Zm-10.85-2.08 9.95.98.98-9.95-9.95-.98-.98 9.95Z"/><path class="cls-2" transform="rotate(-84.36 294.09 115.316)" d="M288.59 109.81h11v11h-11z"/><path class="cls-7" d="m299.48 121.87-11.94-1.18 1.18-11.94 11.94 1.18-1.18 11.94Zm-10.85-2.08 9.95.98.98-9.95-9.95-.98-.98 9.95Z"/><path style="fill:#eace88" d="M325.98 85.8 104.06 63.88l23.84-37.84 182.11 17.99 15.97 41.77z"/><path style="fill:#f15a24;opacity:.7" d="m379.57 88.05-31.82-31.82-97.23 97.23-97.22-97.23-31.82 31.82 97.22 97.23-97.22 97.23 31.82 31.81 97.22-97.22 97.23 97.22 31.82-31.81-97.23-97.23 97.23-97.23z"/></g></svg>