<svg id="Layer_2" xmlns="http://www.w3.org/2000/svg" viewBox="0 0 386 358.58"><defs><linearGradient id="linear-gradient" x1="194" y1="64.58" x2="194" y2="115.58" gradientUnits="userSpaceOnUse"><stop offset=".33" stop-color="#fff"/><stop offset=".36" stop-color="#fff" stop-opacity=".81"/><stop offset=".4" stop-color="#fff" stop-opacity=".64"/><stop offset=".43" stop-color="#fff" stop-opacity=".49"/><stop offset=".47" stop-color="#fff" stop-opacity=".36"/><stop offset=".52" stop-color="#fff" stop-opacity=".24"/><stop offset=".57" stop-color="#fff" stop-opacity=".15"/><stop offset=".62" stop-color="#fff" stop-opacity=".08"/><stop offset=".69" stop-color="#fff" stop-opacity=".04"/><stop offset=".78" stop-color="#fff" stop-opacity="0"/><stop offset="1" stop-color="#fff" stop-opacity="0"/></linearGradient><style>.cls-6{fill:#939393}</style></defs><g id="Layer_1-2"><path style="fill:#686868" d="M156.18 267.58h81.64v69h-81.64z"/><path class="cls-6" d="M125 324.58h144v34H125z"/><rect class="cls-6" y="38.58" width="386" height="237" rx="9.93" ry="9.93"/><path style="fill:#f9f9f9" d="M13 53.22h360v207.71H13z"/><path style="fill:url(#linear-gradient)" d="M24 64.58h340v51H24z"/><path d="M285.5 90.51c0 49.99-90.51 140.65-90.51 140.65s-90.51-90.66-90.51-140.65S144.99 0 194.98 0s90.51 40.52 90.51 90.51Z" style="fill:#b8ddf2"/><g style="opacity:.7"><path d="M190.34 93.08c0 6.65-2.12 12.23-6.37 16.73-4.33 4.56-9.81 6.85-16.44 6.85s-12.06-2.3-16.41-6.91c-4.27-4.5-6.4-10.06-6.4-16.67s2.13-12.21 6.4-16.73c4.35-4.63 9.82-6.94 16.41-6.94s12.01 2.31 16.38 6.94c4.29 4.56 6.43 10.14 6.43 16.73Zm-12.12-.06c0-3.2-.97-5.92-2.91-8.16-2.03-2.35-4.62-3.52-7.77-3.52s-5.56 1.22-7.65 3.65c-2.03 2.35-3.04 5.04-3.04 8.09 0 3.26.95 5.98 2.85 8.16 2 2.28 4.62 3.42 7.84 3.42 3.01 0 5.57-1.21 7.68-3.62 2-2.3 3.01-4.98 3.01-8.03Zm62.16 20.67c0 .92-.4 1.51-1.18 1.79-.64.21-2.32.32-5.05.32s-4.54-.11-5.76-.32c-.58-.11-.96-.22-1.14-.34-.18-.12-.41-.42-.69-.91-1.56-2.86-3.1-5.71-4.64-8.57-2.54-4.61-4.05-7.15-4.54-7.61-2.3.83-3.46 1.43-3.46 1.79 0 1.6.06 4.02.19 7.25.13 3.23.19 5.66.19 7.28 0 .66-.29 1.04-.86 1.12-1.11.17-3.11.26-6.01.26s-4.61-.08-5.5-.26c-.62-.13-.93-.46-.93-.99 0-2.3.11-5.78.34-10.43s.34-8.14.34-10.46c0-2.47-.11-6.19-.32-11.15s-.32-8.67-.32-11.15c0-.47.22-.7.67-.7.66 0 1.66.03 2.99.1 1.33.06 2.33.1 2.99.1s1.7-.03 3.04-.1c1.34-.06 2.35-.1 3.01-.1.36 0 .54.19.54.58 0 1.58-.08 3.96-.24 7.15-.16 3.19-.24 5.57-.24 7.15 0 1.83.5 2.75 1.5 2.75 2.54 0 4.51-.69 5.92-2.08 1.04-1.02 2.1-2.89 3.17-5.6.68-2.07 1.8-5.12 3.36-9.15.23-.53.71-.8 1.44-.8.55 0 1.39.03 2.51.1 1.12.06 1.96.1 2.51.1s1.43-.02 2.58-.06c1.14-.04 1.99-.06 2.54-.06.51 0 .77.25.77.74 0 .7-.45 2.42-1.34 5.15-2.65 8.06-5.68 13.1-9.12 15.1-.7.41-1.06.74-1.06.99 0-.02 1.97 3.18 5.9 9.6 3.94 6.42 5.9 10.24 5.9 11.45Z" style="fill:#f15a24"/></g></g></svg>