<svg id="Layer_2" xmlns="http://www.w3.org/2000/svg" viewBox="0 0 1505.77 453.58"><defs><clipPath id="clippath"><path d="M251.84 95.45c1.42-2.6.45-5.86-2.15-7.27a5.356 5.356 0 0 0-7.27 2.15 5.338 5.338 0 0 0-.14 4.81h-.03l-3.41 6.25a2.517 2.517 0 0 0 1.01 3.41l1.23.67c1.22.66 2.75.21 3.41-1.01l3.41-6.27h-.03c1.62-.25 3.12-1.19 3.96-2.74Z" style="fill:none"/></clipPath><style>.cls-5{fill:#f15a24}.cls-10{fill:#229ef2}.cls-12{fill:#1a1a1a}</style></defs><g id="Layer_1-2"><path d="M208 0h63c114.8 0 208 93.2 208 208v208H208C93.2 416 0 322.8 0 208S93.2 0 208 0Z" style="fill:#ede18c"/><path style="stroke:#4c4a40;stroke-linecap:round;stroke-miterlimit:10;stroke-width:2px;fill:none" d="M449.34 384.5v6h-6"/><path d="M423.36 390.5H197.37c-90.41 0-163.71-73.29-163.71-163.71v-33.58c0-90.42 73.3-163.71 163.71-163.71h88.26c90.41 0 163.71 73.29 163.71 163.71v181.3" style="stroke:#4c4a40;stroke-linecap:round;stroke-miterlimit:10;stroke-width:2px;stroke-dasharray:0 0 11.99 19.98;fill:none"/><path class="cls-5" d="M1046.34 186.3c-6.01 1.02-6.6 1.84-7.32 10.3-.72-8.46-1.31-9.28-7.32-10.3 6.01-1.02 6.6-1.84 7.32-10.3.72 8.46 1.31 9.28 7.32 10.3Zm-3.91 22c-2.8.47-3.08.86-3.41 4.8-.34-3.94-.61-4.33-3.41-4.8 2.8-.47 3.08-.86 3.41-4.8.34 3.94.61 4.33 3.41 4.8ZM916 76.3c-15.12 2.55-16.6 4.63-18.41 25.9-1.82-21.28-3.29-23.35-18.41-25.9 15.12-2.55 16.6-4.63 18.41-25.9 1.82 21.28 3.29 23.35 18.41 25.9Zm-787.17 92.46 12.07 2.52c-.61 2.18-1.57 6.27-1.84 7.84-.95 5.11-3.48 14.05-5.59 20.05-2.39 6.82-6.61 15-10.02 19.91l-11.66-4.91c4.23-5.52 8.32-12.96 10.71-19.16 3.07-7.91 5.52-17.12 6.34-26.25Zm17.46 2.59 11.05-3.55c2.93 5.46 7.77 16.57 10.16 22.78 2.25 5.86 5.86 16.98 7.77 24.07l-12.34 4.02c-1.98-8.73-4.09-16.98-6.75-24.41-2.52-7.23-7.02-17.66-9.89-22.91Zm23.12-.48-6.48 2.73c-1.43-2.79-3.41-6.82-5.25-9.48l6.41-2.59c1.71 2.52 4.09 6.96 5.32 9.34Zm8.46-3.34-6.41 2.73c-1.36-2.8-3.55-6.82-5.39-9.41l6.41-2.59c1.77 2.59 4.23 6.96 5.39 9.27Zm18.2 41.06v-35.87c0-3-.41-6.34-.89-8.59h12.96c-.48 3.14-.75 5.59-.75 8.59v33.62c10.02-3.07 24.89-11.66 33.75-22.16l5.86 9.41c-9.61 11.25-23.87 19.23-39.41 24.69-1.02.34-2.8.89-4.71 2.18l-7.84-6.82c.95-2.05 1.02-3.34 1.02-5.05Zm114.57-40.85-4.71 1.91c4.16 0 8.05-.07 10.16 0l-.14 9.82c-4.09-.21-10.5-.41-19.09-.48.07 3.21.07 6.61.07 9.48 1.77 2.73 2.73 6.14 2.73 9.89 0 8.8-5.66 20.59-22.78 25.23l-8.73-8.8c5.93-1.23 11.59-2.86 15.62-6-.41.07-.82.07-1.23.07-5.05 0-12.14-4.3-12.14-13.09 0-8.25 6.61-13.3 14.59-13.3.61 0 1.16 0 1.7.07 0-1.16 0-2.32-.07-3.48-10.23.14-20.32.61-28.64 1.02l-.27-9.96c7.84.07 19.98-.2 28.78-.34-.07-.27-.07-.55-.07-.75-.27-3.27-.55-5.8-.75-6.82h11.87c-.2 1.3-.48 5.52-.55 6.75v.75c1.91 0 4.16 0 6.41-.07-1.23-2.39-2.46-4.71-4.02-7.09l6.68-2.73c1.7 2.52 3.41 5.52 4.57 7.91Zm-25.98 32.05c2.25 0 4.5-1.57 3.75-6.82-.82-1.23-2.18-1.84-3.75-1.84-2.05 0-4.3 1.3-4.3 4.43 0 2.46 2.18 4.23 4.3 4.23Zm35.66-34.16-6.75 2.8c-1.36-2.73-2.8-5.39-4.64-7.91l6.75-2.73c1.71 2.59 3.48 5.46 4.64 7.84Zm24.08 5.18c-.75 3.55-3.27 18-3.27 24.34 0 .21 0 1.3.07 1.57.95-1.91 1.77-3.27 2.66-5.25l4.98 3.96c-2.05 6.21-4.16 13.71-4.91 17.53-.2 1.02-.41 2.66-.41 3.27 0 .75 0 1.98.07 3.07l-9.55.61c-1.36-4.57-2.73-13.16-2.73-22.44 0-10.43 1.98-21.82 2.66-26.87.27-2.05.75-5.11.82-7.71l11.52.96c-.61 1.57-1.64 5.73-1.91 6.96Zm17.32 32.53c0 3 2.86 4.16 8.46 4.16 6.07 0 10.98-.55 17.18-1.84l.2 11.18c-4.5.82-9.89 1.3-17.93 1.3-11.93 0-17.87-4.43-17.87-11.73 0-2.93.41-5.8 1.23-9.34l9.41.82c-.48 2.18-.68 3.68-.68 5.46Zm23.73-35.39v10.64c-8.93.75-20.87.82-30 0l-.07-10.57c8.93 1.09 22.44.75 30.07-.07Z"/><path d="M105.61 259.23c-1.71 4.5-3.82 9.21-6.21 13.71v47.8h-9.41V287.6c-1.09 1.36-2.25 2.66-3.34 3.89-.89-2.46-3.55-7.98-5.18-10.43 5.86-5.93 11.52-15.34 14.8-24.75l9.34 2.93Zm42.21 18v8.87h-45.76v-8.87h9.75v-5.18h-7.5v-8.39h7.5v-7.09h9.62v7.09h7.23v-7.09h9.82v7.09h7.91v8.39h-7.91v5.18h9.34ZM108 289.1h35.19v31.71h-9.96v-1.91h-15.75v2.25H108V289.1Zm9.48 7.98v3.21h15.75v-3.21h-15.75Zm15.75 13.84v-3.34h-15.75v3.34h15.75Zm-11.8-33.69h7.23v-5.18h-7.23v5.18Zm51.21-6.75c3.55-4.3 8.86-8.52 15.96-8.52 9.75 0 17.59 9.41 17.59 24.82 0 19.5-11.73 29.12-30.48 32.6l-6.27-9.61c15.34-2.39 25.5-6.82 25.5-22.98 0-10.36-3.48-15.14-8.32-15.14-7.77 0-14.39 11.93-14.39 20.93 0 1.43.07 3.55.41 6.55l-10.16.68c-.41-2.66-.89-7.02-.89-11.66 0-6.34.68-13.84 1.77-21.75.34-2.86.55-6 .55-7.84l11.25.48c-.68 2.39-2.11 8.18-2.52 11.46Zm61.45 16.77c5.93-3.82 12.34-5.52 18.89-5.52 12.82 0 19.78 7.98 19.78 16.37 0 12.62-9.34 22.91-39.35 20.32l-3.2-10.84c19.91 2.93 30.89-1.36 30.89-9.68 0-3.89-3.68-6.75-9.14-6.75-6.96 0-13.64 2.59-17.66 7.43-1.36 1.64-2.11 2.73-2.8 4.23l-9.48-2.32c1.36-6.96 2.93-19.78 3.41-28.98l11.12 1.5c-.96 3.34-2.11 10.57-2.46 14.25Zm28.71-23.32-2.45 10.16c-7.16-.95-22.57-4.23-27.96-5.59l2.59-9.89c6.82 2.11 21.89 4.64 27.82 5.32Zm38.67-5.52 11.93.34c-.48 2.11-1.02 5.59-1.57 9.68l2.59 3.48c-.89 1.16-2.46 3.61-3.68 5.39v.14c5.32-4.43 12.75-9.41 19.16-9.41 7.91 0 11.39 4.77 11.39 10.64 0 7.16-2.11 16.23-2.11 23.39 0 1.5.82 2.39 2.11 2.39 2.11 0 5.11-1.64 7.98-4.43l1.3 11.66c-2.93 2.52-6.96 4.77-13.02 4.77-5.46 0-9.07-4.09-9.07-11.25s2.39-16.64 2.39-22.64c0-3-1.57-4.64-4.16-4.64-4.71 0-11.59 6-16.84 11.8-.07 1.43-.07 2.93-.07 4.3 0 5.18 0 11.87.48 18.41.07 1.23.34 4.16.55 5.86h-11.32c.14-1.77.2-4.57.2-5.66.07-4.09.14-7.71.27-12-2.59 3.82-5.32 7.91-7.23 10.43l-6.41-9.07c3.82-4.77 10.23-12.96 14.32-18.82.07-1.23.2-2.46.27-3.68-3.55.41-8.39 1.02-11.93 1.5l-1.02-10.5c2.18.07 3.89.07 6.75-.07 1.84-.14 4.3-.41 6.89-.75.14-2.18.2-3.89.2-4.57 0-2.18.07-4.36-.34-6.68Zm76.24 3.41c3.68 0 17.32-.2 21.34-.54 3.27-.27 5.18-.55 6.07-.82l5.11 7.3c-1.77 1.09-3.55 2.11-5.25 3.34-3.82 2.59-9.82 7.5-13.57 10.37 1.77-.34 3.14-.41 4.77-.41 11.73 0 20.93 7.5 20.93 17.8s-7.71 19.98-25.37 19.98c-9.62 0-17.59-4.5-17.59-12 0-6 5.46-11.59 13.23-11.59 8.32 0 13.64 4.84 14.8 11.32 2.73-1.84 4.02-4.5 4.02-7.84 0-5.86-6-9.55-13.5-9.55-9.96 0-17.12 6-23.66 13.98l-7.5-7.77c4.36-3.41 12.34-10.16 16.37-13.5 3.82-3.14 10.16-8.05 13.43-10.98-3.41.07-10.43.34-14.12.61-2.05.14-4.5.34-6.14.61l-.34-10.71c2.11.27 4.71.41 6.96.41Zm11.93 47.6c1.09 0 2.11-.07 3.07-.14-.34-3.75-2.39-6.21-5.25-6.21-2.25 0-3.55 1.36-3.55 2.73 0 2.11 2.25 3.61 5.73 3.61Z"/><path class="cls-12" d="M608.89 268.16c.34-4.38.56-10.89.56-14.37 0-2.36 0-3.26-.34-5.62l21.11.56c-.56 2.58-.56 2.92-1.24 13.59q-.11 3.03-.34 5.73h24.48c3.71 0 5.05-.22 7.52-1.23l8.76 7.64c-1.24 2.25-1.46 3.14-1.57 8.31-.79 24.03-2.47 42.79-4.72 50.2-3.26 10.44-8.65 14.04-21.11 14.04-4.38 0-6.06-.11-14.71-.9-.45-8.98-1.24-12.69-3.82-19.77 5.62 1.46 11.12 2.25 14.6 2.25 5.39 0 6.74-1.8 8.2-11.57 1.12-7.52 2.13-21.67 2.13-31.33h-21.45q-.9 7.41-1.68 11.23c-4.94 22.68-15.61 37.28-38.41 52.33-5.05-7.97-8.42-11.79-14.6-17.07 14.94-7.86 23.58-15.83 29.2-27.18 2.81-5.73 4.04-9.77 5.62-19.2h-14.04c-7.52 0-9.88.11-15.16.67l-.11-19.2c5.62.79 7.64.9 15.61.9h15.5Zm85.57 19.42c5.28.79 11.34 1.01 23.02 1.01h53.68c11.23 0 15.5-.22 23.02-1.01v21.67c-5.39-.56-10.33-.67-23.13-.67h-53.46c-12.58 0-16.28.11-23.13.67v-21.67Zm134.09 60.31c.45-4.72.56-7.97.67-17.18v-65.36c-.11-9.66-.11-10.22-.79-16.28h21.67c-.45 2.92-.45 4.72-.56 16.4v15.39c17.74 5.73 35.38 13.7 51.1 23.36l-10.67 19.09c-9.32-6.63-22.35-13.81-35.38-19.54-3.37-1.35-3.71-1.46-4.04-1.68-.34-.11-.56-.23-1.01-.56v29.2c0 8.31.22 14.26.67 17.18h-21.67Zm50.76-92.54c4.38 4.94 7.97 10.11 11.12 16.06l-10.67 5.17c-3.71-7.07-6.63-11.23-11.12-16.4l10.67-4.83Zm14.94-6.74c4.16 4.49 7.3 8.76 11.23 15.61l-10.33 5.05c-3.93-7.07-7.08-11.57-11.01-16.06l10.11-4.6Zm58.4 89.17v7.75h-20.44c.67-6.18.9-10 .9-18.31V269.5c0-4.83-.11-8.31-.45-12.92 3.93.34 6.18.45 13.59.45h60.53c6.96 0 8.65 0 13.93-.45-.22 3.93-.34 7.97-.34 13.25v56.94c0 8.65.22 14.04.79 18.53h-20.33v-7.52h-48.18Zm48.18-62.78h-48.18v44.81h48.18V275Zm48.06 12.58c5.28.79 11.34 1.01 23.02 1.01h53.68c11.23 0 15.5-.22 23.02-1.01v21.67c-5.39-.56-10.33-.67-23.13-.67h-53.46c-12.58 0-16.28.11-23.13.67v-21.67Zm133.19-33.24c14.15 8.31 21.45 13.48 30.88 22.01l-13.25 17.52c-9.77-10.22-19.32-17.63-30.55-23.7l12.92-15.83Zm-11.79 69.74c11.45-.9 23.25-3.71 33.8-8.09 14.15-5.84 24.26-14.26 32.9-27.74 4.72-7.19 7.75-13.36 11.01-22.01 5.5 6.63 8.09 8.87 16.51 15.05-10.22 22.12-20.89 35.38-36.61 45.48-12.13 7.86-22.8 12.02-43.69 16.85-4.38 1.01-5.05 1.12-8.09 2.02l-5.84-21.56Z"/><path class="cls-5" d="M1281.87 299.12q5.96-6.63 12.72-14.58l28.76-33.66c6.36-7.29 8.88-10.6 12.32-15.77h27.17c-.8 7.82-1.06 13.12-1.06 22v43.07h3.84c4.11 0 8.48-.4 13.12-1.06v24.12c-3.98-.53-8.88-.8-12.99-.8h-3.98v6.63c0 7.42.26 11.27 1.06 16.3h-27.3c.66-4.51 1.06-10.07 1.06-16.57v-6.49h-37.51c-8.61 0-12.33.13-17.23.53v-23.72Zm54.87-14.05c0-5.96.26-13.25.8-19.09-2.65 3.71-4.64 6.36-8.22 10.87l-19.35 23.59h26.77v-15.37Zm89.97 41.03c3.48 5.05 6.4 6.85 12.02 7.64-3.14-3.82-3.71-4.49-8.76-9.1 6.74-1.24 10.44-2.25 15.83-4.16h-8.65c-4.04 0-5.73.11-7.97.45V307.9c2.47.34 3.59.45 7.75.45h5.73v-4.94h-1.01c-6.18 0-7.52.11-10.56.45v-12.69c2.92.34 4.15.34 10.56.34h1.01v-4.04c-6.4 0-8.76-.22-10.44-.9-2.7-1.12-3.82-3.14-3.82-6.74v-11.9l-11.01 11.01c-6.29-8.42-10.33-12.8-19.43-20.55l12.58-12.24c7.64 6.29 12.8 11.34 17.86 17.18 2.81.22 3.48.22 8.2.22h10.33v-3.26h-10.67c-5.05 0-6.63 0-9.43.34v-12.58c2.92.23 6.06.34 9.66.34h15.83c5.84 0 7.52 0 9.99-.22-.34 1.12-.34 2.02-.34 3.93l.11 2.25v12.02c0 3.26 0 5.05.22 6.51-2.7-.11-4.94-.23-7.52-.23h-12.13v2.47c0 1.68.34 1.91 3.48 1.91 2.02 0 3.37-.23 3.93-.56.34-.34.67-1.46.67-2.92v-.67c4.94 1.8 8.42 2.7 13.03 3.26-.79 6.74-1.57 8.31-5.05 10v5.39h11.9v-4.83c-3.37-1.12-4.83-3.37-4.83-6.96v-9.1q0-3.48-.34-7.3c2.81.22 3.71.22 8.53.22h10.22v-3.26h-9.55c-5.05 0-6.63 0-9.43.34v-12.58c2.92.23 6.06.34 9.66.34h15.39c5.84 0 7.52 0 9.99-.22-.22 1.35-.22 2.13-.22 3.82v14.37c0 3.37 0 5.05.22 6.51-2.7-.11-4.94-.23-7.52-.23h-11.9v2.58c0 1.46.79 1.91 3.82 1.91 1.91 0 3.59-.22 4.04-.67q.34-.34.67-2.25v-1.35c4.16 1.46 8.42 2.36 14.04 3.03-.56 5.84-1.57 8.2-4.04 9.66-2.02 1.23-4.6 1.57-12.8 1.8v4.15h3.71c6.29 0 7.52 0 10.44-.34v12.69c-3.14-.34-4.38-.45-10.44-.45h-3.59v4.94h5.73c6.4 0 7.64 0 10.67-.34v12.8c-3.26-.34-4.49-.34-10.67-.34h-7.75c6.29 2.02 10.56 3.03 18.31 3.93-3.14 3.26-3.48 3.82-6.63 8.65 2.7-.22 4.38-.45 9.43-1.12-2.25 6.07-3.26 10.67-4.15 17.63-9.88.34-25.83.56-42.79.56s-23.02-.56-28.41-2.47c-4.49-1.57-7.75-3.82-11.68-8.2-4.83 4.38-6.85 5.95-14.94 11.79l-7.3-18.08c3.26-1.12 7.75-3.93 13.59-8.53V303.4h-4.6c-2.47 0-4.04.11-6.96.56V287c3.14.45 4.94.56 9.21.56h10.78c4.6 0 5.62 0 8.42-.34-.22 3.26-.22 4.38-.22 12.58v26.28Zm37.06-.56c-6.29 3.93-11.68 6.51-18.64 8.87 3.59.11 8.65.22 13.7.22 6.06 0 18.64-.34 24.71-.67-5.5-1.8-9.88-3.93-16.85-8.42l7.19-5.05h-17.86l7.75 5.05Zm-5.05-17.18h11.9v-4.94h-11.9v4.94Z"/><path class="cls-12" d="M603.49 119.72c-1.23-4.93-4.85-12.47-8.47-17.93l10.24-3.93c3.93 5.31 7.54 12.39 9.08 17.32l-10.85 4.54Zm28.79 1.69h24.32v46.64h-12.01v-3h-49.18v-11.16h49.18v-5.7h-44.64v-10.78h44.64v-4.77h-47.33V121.4h22.63V95h12.39v26.4Zm25.78-20.78c-3.39 7.16-7.23 14.39-10.39 19.24l-10.01-3.39c2.92-5.31 6.16-13.16 7.77-19.4l12.62 3.54Zm48.49 65.8-10.01-9.39c15.39-5.08 21.63-11.78 21.63-29.17v-2.77h-16.16v9.31c0 3.77.23 6.77.38 8.7h-13.01c.23-1.92.46-4.93.46-8.7v-9.31h-5.54c-4.16 0-6.46.15-8.7.31v-12.62c1.77.31 4.54.85 8.7.85h5.54v-6.39c0-2.54-.23-5-.54-7.7h13.24c-.23 1.85-.54 4.46-.54 7.77v6.31h16.16v-7.23c0-3.16-.15-5.7-.46-7.62h13.24c-.23 2-.54 4.46-.54 7.62v7.23h4.08c4.46 0 6.62-.15 9.31-.62v12.31c-2.15-.23-4.85-.23-9.24-.23h-4.16v2.46c0 18.24-4.7 30.48-23.86 38.87Zm82.13-50.25c7.77-4.77 17.16-13.08 22.01-18.93l10.08 9.62c-5.77 5.62-13.24 11.62-20.55 16.47v30.32c0 3.69.15 9.01.77 11.16h-14.78c.31-2.08.62-7.47.62-11.16v-22.55c-7.77 3.93-17.09 7.85-26.01 10.39l-5.77-11.78c14.01-3.54 25.01-8.31 33.63-13.55Zm56.34-7.01c0-3.08-.31-7.08-.92-10.01h14.55c-.31 2.92-.77 6.31-.77 10.01v10.54c10.39 3 25.32 8.47 31.79 11.62l-5.31 13.01c-7.77-4-18.32-8.08-26.48-11.01v19.78c0 2.08.46 8.16.85 11.62h-14.62c.54-3.31.92-8.47.92-11.62v-43.95Z"/><path class="cls-5" d="M1023.82 112.51c-1.98.26-2.38.26-5.02.79-5.15.92-13.47 1.98-19.94 2.64v11.62c7.66-1.72 12.28-2.24 19.28-2.24 16.24 0 28.39 4.09 36.05 12.01 5.81 5.94 8.98 14.26 8.98 23.37 0 18.62-14.13 32.61-32.88 32.61-16.37 0-25.88-10.96-25.88-29.97v-3.3c9.64-2.77 12.81-4.09 20.07-8.05-.13 2.77-.26 4.22-.26 7 0 4.09.26 6.34 1.06 8.32.92 2.38 3.17 3.96 5.81 3.96 5.68 0 9.51-4.62 9.51-11.35 0-4.49-2.38-8.85-6.47-11.62-3.56-2.25-8.71-3.43-15.71-3.43-6.47 0-11.88.66-19.41 2.64l.13 23.37v3.43c0 8.05-.53 10.96-2.51 13.73-2.51 3.7-7.53 5.81-13.47 5.81-9.77 0-20.99-4.09-28.52-10.43-5.41-4.62-8.58-10.83-8.58-17.16 0-7.13 4.36-14.92 12.28-21.92 5.28-4.62 10.83-7.92 19.67-11.75v-15.58l-10.03.26-12.81-.26c-.4 0-1.58 0-2.77.13l-.26-20.73c4.23.79 9.64 1.19 18.09 1.19h5.02q1.85-.13 2.64-.13v-4.23c0-9.9-.13-12.94-.92-17.82h22.84c-.66 4.75-.79 7.79-.79 16.5v4.23c8.98-.92 17.16-2.51 24.16-4.49l.66 20.86ZM978 154.36c-6.21 2.91-10.96 8.05-10.96 11.75 0 1.58.92 2.91 2.9 4.23 1.85 1.19 4.36 2.11 5.94 2.11 1.72 0 2.11-.92 2.11-5.28v-12.81Zm73.81-29.05c-6.73-11.75-14.26-20.73-26.01-31.03l17.43-11.75c11.22 9.11 19.41 18.35 26.01 29.18l-17.43 13.6Zm36.97-35.38c3.3.26 4.75.4 8.05.4 3.56 0 39.08-.92 51.36-1.32-.13-8.45-.26-10.17-.92-14h23.37c-.53 4.62-.66 6.07-.66 13.47 21.92-.13 31.69-.4 36.97-.92l.13 21.65c-5.94-.53-8.58-.66-23.77-.66-7 0-7.92 0-13.2.13v19.54c3.83 7 5.28 13.2 5.28 22.05 0 14.79-7.66 27.73-21.79 36.57-6.47 3.96-14 7-26.54 10.7-3.7-9.38-6.6-14.26-12.54-20.86 13.34-1.98 20.86-4.09 27.2-8.05 4.89-2.9 7.66-5.81 9.77-10.43-5.55 4.62-10.03 6.21-17.69 6.21-15.32 0-26.14-10.04-26.14-24.16 0-15.05 12.41-25.35 30.63-25.35 4.23 0 7.26.4 10.3 1.45v-4.09q0-1.85-.13-3.17c-27.33.79-48.85 1.98-59.02 3.43l-.66-22.58Zm41.06 49.25c0 4.09 3.7 7.13 8.71 7.13 5.68 0 10.03-3.43 10.03-7.92 0-4.09-3.43-6.87-8.71-6.87-5.81 0-10.03 3.17-10.03 7.66Zm97.43-49.25c3.3.26 4.75.4 8.05.4 3.56 0 39.08-.92 51.36-1.32-.13-8.45-.26-10.17-.92-14h23.37c-.53 4.62-.66 6.07-.66 13.47 21.92-.13 31.69-.4 36.97-.92l.13 21.65c-5.94-.53-8.58-.66-23.77-.66-7 0-7.92 0-13.2.13v19.54c3.83 7 5.28 13.2 5.28 22.05 0 14.79-7.66 27.73-21.79 36.57-6.47 3.96-14 7-26.54 10.7-3.7-9.38-6.6-14.26-12.54-20.86 13.34-1.98 20.86-4.09 27.2-8.05 4.89-2.9 7.66-5.81 9.77-10.43-5.55 4.62-10.03 6.21-17.69 6.21-15.32 0-26.14-10.04-26.14-24.16 0-15.05 12.41-25.35 30.63-25.35 4.23 0 7.26.4 10.3 1.45v-4.09q0-1.85-.13-3.17c-27.33.79-48.85 1.98-59.02 3.43l-.66-22.58Zm41.06 49.25c0 4.09 3.7 7.13 8.71 7.13 5.68 0 10.03-3.43 10.03-7.92 0-4.09-3.43-6.87-8.71-6.87-5.81 0-10.03 3.17-10.03 7.66Zm132.56-58.76c.13 6.47 1.19 13.07 2.77 19.54 7-2.64 15.05-4.09 22.58-4.09h2.9c2.77-11.49 3.3-14.66 3.43-19.54l23.24 4.36c-.53 1.19-1.32 3.7-2.38 7.39-1.98 6.87-2.9 10.56-3.04 10.96 7.79 2.38 12.41 4.75 17.56 9.11 9.9 8.32 15.05 19.67 15.05 33.41 0 20.99-11.75 37.89-31.95 46.08-7.13 2.91-13.73 4.89-23.77 6.87-2.64-9.24-5.15-14.39-10.56-22.05 13.86-1.19 24.43-4.22 31.03-8.71 8.19-5.68 12.15-13.6 12.15-24.03s-4.75-17.17-15.18-21.52c-7.13 20.73-13.86 34.72-22.31 46.08-10.96 14.79-20.99 21.52-32.22 21.52-15.98 0-26.8-13.73-26.8-33.93 0-16.77 7.39-31.56 21.26-42.12-1.58-6.34-2.38-9.64-3.83-16.9-.92-4.49-1.19-5.28-2.38-8.05l22.45-4.36Zm-17.03 69.98c0 8.05 2.9 13.07 7.39 13.07 2.64 0 5.41-1.85 8.19-5.54-4.09-8.85-6.34-15.18-9.11-25.62-3.96 4.89-6.47 11.88-6.47 18.09Zm29.84-11.49c4.75-9.11 7-14.52 9.77-23.37-6.73.26-10.83 1.19-15.98 3.7 1.85 7.66 3.43 12.41 6.21 19.67Z"/><path class="cls-10" d="M251.84 95.45c1.42-2.6.45-5.86-2.15-7.27a5.356 5.356 0 0 0-7.27 2.15 5.338 5.338 0 0 0-.14 4.81h-.03l-3.41 6.25a2.517 2.517 0 0 0 1.01 3.41l1.23.67c1.22.66 2.75.21 3.41-1.01l3.41-6.27h-.03c1.62-.25 3.12-1.19 3.96-2.74Z"/><path d="m279.08 89.52-2.05-1.11 5.95-10.94c3.34-6.14 1.06-13.86-5.08-17.2l-20.11-10.94c-6.14-3.34-13.86-1.06-17.2 5.08l-5.95 10.94-2.05-1.11a7.327 7.327 0 0 0-9.93 2.93L206.6 96.7a7.327 7.327 0 0 0 2.93 9.93l46.48 25.29c3.55 1.93 7.99.62 9.93-2.93L282 99.46c1.93-3.55.62-7.99-2.93-9.93Zm-29.06-29.99c.52-.95 1.7-1.3 2.65-.78l20.11 10.94c.95.52 1.3 1.7.78 2.65l-2.32 4.27c-2.01 3.69-6.62 5.05-10.3 3.04l-10.2-5.55c-3.69-2.01-5.05-6.62-3.04-10.3l2.32-4.27Z" style="fill:#c9d2d6"/><path class="cls-10" d="M251.84 95.45c1.42-2.6.45-5.86-2.15-7.27a5.356 5.356 0 0 0-7.27 2.15 5.338 5.338 0 0 0-.14 4.81h-.03l-3.41 6.25a2.517 2.517 0 0 0 1.01 3.41l1.23.67c1.22.66 2.75.21 3.41-1.01l3.41-6.27h-.03c1.62-.25 3.12-1.19 3.96-2.74Z"/><path d="m270.83 111.58-7.76 14.27a4.385 4.385 0 0 1-5.96 1.76l-31.15-16.95c10.59 3.85 21.77 7.29 29.38 9.27 5.57 1.45 10.95-2.65 15.49-8.35Z" style="fill:#b4bec1"/><path d="m217.32 84.3 7.76-14.27a4.385 4.385 0 0 1 5.96-1.76l31.15 16.95c-10.59-3.85-21.77-7.29-29.38-9.27-5.57-1.45-10.95 2.65-15.49 8.35Z" style="fill:#dce1e2"/><g style="clip-path:url(#clippath)"><path d="M253.49 96.35c1.42-2.6.45-5.86-2.15-7.27a5.356 5.356 0 0 0-7.27 2.15 5.338 5.338 0 0 0-.14 4.81h-.03l-3.41 6.25a2.517 2.517 0 0 0 1.01 3.41l1.23.67c1.22.66 2.75.21 3.41-1.01l3.41-6.27h-.03c1.62-.25 3.12-1.19 3.96-2.74Z" style="fill:#0679b7"/></g><path d="m1050.92 453.58-2.33-1.03-35.05-35.05h-350c-.83 0-1.5-.67-1.5-1.5s.67-1.5 1.5-1.5h351.25l35.49 35.49 34.99-34.99h329.24c.83 0 1.5.67 1.5 1.5s-.67 1.5-1.5 1.5h-328l-35.58 35.58Z" style="fill:#3d3d3d"/></g></svg>