<svg xmlns="http://www.w3.org/2000/svg" viewBox="0 0 381 142.18"><path style="fill:#0a799b" d="m0 123.87 24.22 18.31v-29.09L0 123.87z"/><path style="fill:#0e95cc" d="M381 123.87H0V10.45h381l-23.63 56.71L381 123.87z"/><path d="M79.3 86.26c.22-1.84.36-3.98.36-6.25v-20.9c0-2.78-.09-4.54-.36-6.73h8.78v1.46c0 .26-.04.6-.04.81 2.68-2.14 5.44-3.04 9.14-3.04 3.92 0 7.13 1.11 9.45 3.3 2.36 2.27 3.57 5.65 3.57 9.98s-1.34 7.92-3.88 10.37c-2.27 2.18-5.53 3.38-9.18 3.38-2.09 0-4.37-.43-6.02-1.11-1.16-.47-1.83-.94-3.08-1.97 0 .39 0 .94.04 1.54v2.96c0 2.4.09 4.37.36 6.21H79.3Zm20.24-15.72c1.25-1.16 1.96-3.13 1.96-5.57 0-4.37-2.41-6.9-6.6-6.9-3.7 0-6.73 3.13-6.73 7.02s2.99 7.07 7 7.07c1.69 0 3.21-.56 4.37-1.63Zm17.08-5.14c0-8.57 5.71-14.01 14.71-14.01s14.71 5.44 14.71 13.92-5.88 14.18-14.76 14.18-14.67-5.48-14.67-14.09Zm8.51-.04c0 4.75 2.32 7.62 6.2 7.62s6.11-2.78 6.11-7.54-2.27-7.62-6.06-7.62-6.24 2.83-6.24 7.54Zm37.85-12.98c-.27 1.76-.36 3.47-.36 6.47v13.19c0 2.31.13 4.63.36 6.47h-9.32c.27-2.1.36-3.73.36-6.47V58.85c0-2.78-.09-4.54-.36-6.47h9.32Zm-.13-9.51v6.43h-9.05v-6.43h9.05Zm8.87 35.64c.27-2.01.36-3.81.36-6.47V58.85c0-2.96-.09-4.75-.36-6.47h8.87v1.8c0 .26-.04.9-.04 1.2 2.81-2.57 5.53-3.64 9.18-3.64 3.08 0 5.53.81 7.18 2.4 1.78 1.71 2.54 3.81 2.54 7.2v10.75c0 2.48.13 4.63.36 6.42h-9.27c.27-2.06.36-3.85.36-6.47v-8.78c0-1.71-.18-2.44-.71-3.17-.58-.77-1.61-1.2-2.94-1.2-2.5 0-4.73 1.5-6.64 4.5v8.65c0 2.44.09 4.24.36 6.47h-9.23Zm40.26-27.03c0-2.14-.09-3.86-.36-5.87h9.09a48.43 48.43 0 0 0-.36 5.87v.9h1.61c1.96 0 2.99-.04 4.37-.21v7.11a30.2 30.2 0 0 0-4.1-.26h-1.87v10.97c0 1.2.22 1.8.8 2.18.49.3 1.2.47 2.05.47 1.16 0 2.01-.21 3.12-.77l.67 6.51c-2.01.6-3.74.86-6.15.86-3.03 0-5.13-.47-6.55-1.5-1.69-1.24-2.32-2.7-2.32-5.61V59.02h-1.69c-1.43 0-2.59.09-3.88.26v-7.15c1.29.17 2.41.26 3.97.26h1.61v-.9Z" style="fill:#fff"/><path d="m264.69 39.73-13.34 2.83v-28.5L298.39 4v83.12h-33.7V39.73Z" style="fill:#0071bc"/><path d="m260.69 35.73-13.34 2.83v-28.5L294.39 0v83.12h-33.7V35.73Z" style="fill:#ffce76"/></svg>