<svg id="Layer_2" xmlns="http://www.w3.org/2000/svg" viewBox="0 0 1526.35 465.49"><defs><style>.cls-1{fill:#f2f2f2}.cls-3{fill:#f0a63b}.cls-5{fill:#0e95cc}.cls-6{fill:#1baddb}</style></defs><g id="Layer_1-2"><path d="M435.33 208.64c.25-3.2.41-7.97.41-10.52 0-1.73 0-2.38-.25-4.11l15.45.41c-.41 1.89-.41 2.14-.9 9.94q-.08 2.22-.25 4.19h17.91c2.71 0 3.7-.16 5.51-.9l6.41 5.59c-.9 1.64-1.07 2.3-1.15 6.08-.57 17.58-1.81 31.31-3.45 36.73-2.38 7.64-6.33 10.27-15.45 10.27-3.21 0-4.44-.08-10.76-.66-.33-6.57-.9-9.29-2.79-14.46 4.11 1.07 8.14 1.64 10.68 1.64 3.94 0 4.93-1.31 6-8.46.82-5.51 1.56-15.86 1.56-22.93h-15.69q-.66 5.42-1.23 8.22c-3.62 16.6-11.42 27.28-28.1 38.29-3.7-5.83-6.16-8.63-10.68-12.49 10.93-5.75 17.26-11.59 21.36-19.89 2.05-4.19 2.96-7.15 4.11-14.05h-10.27c-5.51 0-7.23.08-11.09.49l-.08-14.05c4.11.57 5.59.66 11.42.66h11.34Zm54.41 14.21c3.86.57 8.3.74 16.85.74h39.28c8.22 0 11.34-.16 16.85-.74v15.86c-3.94-.41-7.56-.49-16.93-.49h-39.11c-9.2 0-11.91.08-16.93.49v-15.86Zm89.9 44.13c.33-3.45.41-5.83.49-12.57v-47.82c-.08-7.07-.08-7.48-.57-11.91h15.86c-.33 2.14-.33 3.45-.41 12v11.26c12.98 4.19 25.88 10.02 37.39 17.09L624.59 249c-6.82-4.85-16.35-10.11-25.88-14.3-2.47-.99-2.71-1.07-2.96-1.23-.25-.08-.41-.16-.74-.41v21.36c0 6.08.16 10.44.49 12.57h-15.86Zm37.14-67.71c3.2 3.62 5.83 7.4 8.13 11.75l-7.81 3.78c-2.71-5.18-4.85-8.22-8.13-12l7.81-3.53Zm10.93-4.93c3.04 3.29 5.34 6.41 8.22 11.42l-7.56 3.7c-2.88-5.18-5.18-8.46-8.05-11.75l7.4-3.37Zm34.51 65.24v5.67h-14.96c.49-4.52.66-7.31.66-13.39v-42.24c0-3.53-.08-6.08-.33-9.45 2.88.25 4.52.33 9.94.33h44.29c5.1 0 6.33 0 10.19-.33-.16 2.88-.25 5.83-.25 9.7v41.66c0 6.33.16 10.27.57 13.56h-14.87v-5.51h-35.25Zm35.25-45.93h-35.25v32.79h35.25v-32.79Zm26.96 9.2c3.86.57 8.3.74 16.85.74h39.28c8.22 0 11.34-.16 16.85-.74v15.86c-3.94-.41-7.56-.49-16.93-.49h-39.11c-9.2 0-11.91.08-16.93.49v-15.86Zm89.25-24.32c10.35 6.08 15.69 9.86 22.6 16.11l-9.7 12.82c-7.15-7.48-14.13-12.9-22.35-17.34l9.45-11.59Zm-8.63 51.03c8.38-.66 17.01-2.71 24.73-5.92 10.35-4.27 17.75-10.44 24.08-20.3 3.45-5.26 5.67-9.78 8.05-16.11 4.03 4.85 5.92 6.49 12.08 11.01-7.48 16.19-15.28 25.88-26.79 33.28-8.87 5.75-16.68 8.79-31.97 12.33-3.2.74-3.7.82-5.92 1.48l-4.27-15.78Zm94.75 1.48c2.55 3.7 4.68 5.01 8.79 5.59-2.3-2.79-2.71-3.29-6.41-6.66 4.93-.9 7.64-1.64 11.59-3.04h-6.33c-2.96 0-4.19.08-5.83.33v-9.53c1.81.25 2.63.33 5.67.33h4.19v-3.62h-.74c-4.52 0-5.51.08-7.72.33v-9.29c2.14.25 3.04.25 7.72.25h.74v-2.96c-4.68 0-6.41-.16-7.64-.66-1.97-.82-2.79-2.3-2.79-4.93v-8.71l-8.05 8.05c-4.6-6.16-7.56-9.37-14.22-15.04l9.2-8.96c5.59 4.6 9.37 8.3 13.07 12.57 2.05.16 2.55.16 6 .16h7.56v-2.38h-7.81c-3.7 0-4.85 0-6.9.25v-9.2c2.14.16 4.44.25 7.07.25h11.59c4.27 0 5.51 0 7.31-.16-.25.82-.25 1.48-.25 2.88l.08 1.64v8.79c0 2.38 0 3.7.16 4.77-1.97-.08-3.62-.16-5.51-.16h-8.87v1.81c0 1.23.25 1.4 2.55 1.4 1.48 0 2.47-.16 2.88-.41.25-.25.49-1.07.49-2.14v-.49c3.62 1.31 6.16 1.97 9.53 2.38-.57 4.93-1.15 6.08-3.7 7.31v3.94h8.71v-3.53c-2.47-.82-3.53-2.47-3.53-5.09v-6.66q0-2.55-.25-5.34c2.05.16 2.71.16 6.25.16h7.48v-2.38h-6.98c-3.7 0-4.85 0-6.9.25v-9.2c2.14.16 4.44.25 7.07.25h11.26c4.27 0 5.51 0 7.31-.16-.16.99-.16 1.56-.16 2.79v10.52c0 2.47 0 3.7.16 4.77-1.97-.08-3.62-.16-5.51-.16h-8.71v1.89c0 1.07.57 1.4 2.79 1.4 1.4 0 2.63-.16 2.96-.49q.25-.25.49-1.64v-.99c3.04 1.07 6.16 1.72 10.27 2.22-.41 4.27-1.15 6-2.96 7.07-1.48.9-3.37 1.15-9.37 1.31v3.04h2.71c4.6 0 5.51 0 7.64-.25v9.29c-2.3-.25-3.21-.33-7.64-.33h-2.63v3.62h4.19c4.68 0 5.59 0 7.81-.25v9.37c-2.38-.25-3.29-.25-7.81-.25h-5.67c4.6 1.48 7.72 2.22 13.39 2.88-2.3 2.38-2.55 2.79-4.85 6.33 1.97-.16 3.21-.33 6.9-.82-1.64 4.44-2.38 7.81-3.04 12.9-7.23.25-18.9.41-31.31.41s-16.85-.41-20.79-1.81c-3.29-1.15-5.67-2.79-8.55-6-3.53 3.21-5.01 4.36-10.93 8.63l-5.34-13.23c2.38-.82 5.67-2.88 9.94-6.24v-15.53h-3.37c-1.81 0-2.96.08-5.09.41v-12.41c2.3.33 3.62.41 6.74.41h7.89c3.37 0 4.11 0 6.16-.25-.16 2.38-.16 3.2-.16 9.2v19.23Zm27.12-.41c-4.6 2.88-8.55 4.77-13.64 6.49 2.63.08 6.33.16 10.02.16 4.44 0 13.64-.25 18.08-.49-4.03-1.32-7.23-2.88-12.33-6.16l5.26-3.7h-13.07l5.67 3.7Zm-3.7-12.57h8.71v-3.62h-8.71v3.62Zm39.52-39.45c1.64.25 2.3.25 4.19.25 10.27 0 21.04-1.15 25.06-2.63l6.98 12.57c-3.7 2.14-6.9 4.93-10.44 8.96-6.49 7.48-9.78 14.95-9.78 22.19 0 7.97 4.52 12.98 11.75 12.98 5.67 0 10.68-3.53 13.06-9.2 2.14-5.18 3.04-10.85 3.04-19.06 0-8.71-1.4-17.26-3.86-23.01l13.89-3.86c3.2 11.91 11.83 24.57 21.28 31.06l-6.9 13.64-.74-.74-1.15-1.15c-3.78-3.62-7.97-9.12-10.35-13.64.41 3.53.49 5.09.49 7.64 0 8.96-2.05 16.02-6.16 21.78-5.01 6.98-13.15 10.93-22.27 10.93-6 0-11.83-1.56-15.94-4.36-6.57-4.44-10.68-13.07-10.68-22.43 0-8.46 3.2-17.09 9.04-24.73 1.4-1.73 2.47-2.96 4.93-5.51-3.53.74-5.67.99-10.68 1.4-3.12.33-3.2.33-4.44.57l-.33-13.64Zm62.2-6c2.22 3.78 3.94 7.89 5.51 13.15l-6.49 2.05c-1.4-4.93-3.12-9.12-5.42-13.31l6.41-1.89Zm8.79 11.91c-1.48-5.09-2.96-8.71-5.26-12.74l6.33-1.73c1.97 3.04 4.11 7.89 5.34 12.41l-6.41 2.05Zm46.52 41.18c-4.77 10.52-10.27 15.12-17.75 15.12-11.01 0-18.74-10.52-18.74-25.55 0-9.61 3.29-18.32 9.45-25.06 7.23-7.89 17.67-12.08 29.75-12.08 11.01 0 20.71 3.7 26.79 10.11 5.26 5.59 8.05 13.56 8.05 22.84 0 10.68-4.03 20.38-10.93 26.54-5.59 5.01-12.08 7.64-23.58 9.45-1.97-5.92-3.53-8.87-6.98-13.48 7.72-.57 12.82-1.89 17.26-4.19 6.33-3.37 9.86-10.27 9.86-19.06 0-6.98-2.47-12.57-7.23-16.19-2.14-1.64-3.94-2.38-6.9-2.88-1.81 14.13-4.6 24.73-9.04 34.43Zm-14.13-30.07c-5.42 4.6-8.96 12.24-8.96 19.56 0 5.83 2.22 10.44 5.09 10.44 2.05 0 4.19-2.88 6.66-9.12 2.88-7.4 5.26-16.93 6.16-25.06-3.45.49-6.08 1.73-8.96 4.19Z"/><rect class="cls-6" x="265.38" y="297.65" width="299" height="167.84" rx="56.74" ry="56.74"/><path d="M322.66 402.79c.88 4.84 1.76 6.89 4.11 9.39 3.96 4.11 9.83 6.31 16.87 6.31 11.44 0 18.62-5.72 18.62-14.67 0-6.01-2.93-10.71-7.92-12.61-3.37-1.17-7.92-1.91-13.64-1.91s-12.32.29-18.04.88v-25.22c4.99.59 9.83.88 15.55.88 13.93 0 20.82-4.69 20.82-14.08 0-7.92-5.57-12.47-15.25-12.47-10.41 0-15.69 4.11-17.89 13.49l-31.68-4.55c2.79-9.09 5.13-13.49 9.83-18.62 8.95-9.68 22.44-14.67 40.33-14.67 15.99 0 29.18 4.4 37.54 12.46 5.43 5.43 8.21 12.47 8.21 20.83 0 15.54-8.36 25.22-25.22 29.18 8.95 1.32 13.79 3.37 18.92 7.77 6.16 5.57 9.68 13.2 9.68 21.7 0 7.48-2.05 14.37-5.87 19.5-3.23 4.4-8.36 8.51-13.79 11-7.63 3.52-19.5 5.72-30.5 5.72-13.2 0-26.4-3.08-34.17-8.21-6.75-4.4-11.88-10.85-15.11-18.92-.88-2.05-1.47-3.96-2.49-7.77l31.09-5.43Zm93.87-61.59c5.87-.59 9.53-1.17 19.36-3.37 29.92-6.16 41.21-7.77 56.02-7.77s27.57 3.08 36.37 9.24c11.44 8.07 18.04 21.26 18.04 36.37 0 21.56-12.61 40.18-34.32 50.59-14.81 7.04-29.18 10.41-54.99 12.76-3.52-13.2-4.69-15.99-10.41-26.54 18.04-.15 30.65-1.76 41.8-5.13 11.59-3.37 19.8-8.8 25.22-16.42 3.23-4.4 4.69-9.09 4.69-14.67 0-5.87-1.76-10.56-5.43-14.23-4.69-4.84-11.44-7.04-21.7-7.04-15.54 0-33.29 3.23-56.46 10.41-5.43 1.61-9.24 3.08-12.61 4.69l-5.57-28.89Z" style="fill:#fff"/><path d="M619.52 414.16c-6.19 13.65-13.33 19.62-23.04 19.62-14.29 0-24.32-13.65-24.32-33.17 0-12.48 4.27-23.78 12.27-32.53 9.39-10.24 22.93-15.68 38.61-15.68 14.29 0 26.88 4.8 34.77 13.12 6.83 7.25 10.45 17.6 10.45 29.65 0 13.87-5.23 26.45-14.19 34.45-7.25 6.51-15.68 9.92-30.61 12.27-2.56-7.68-4.59-11.52-9.07-17.49 10.03-.75 16.64-2.45 22.4-5.44 8.21-4.37 12.8-13.33 12.8-24.75 0-9.07-3.2-16.32-9.39-21.01-2.77-2.13-5.12-3.09-8.96-3.73-2.35 18.34-5.97 32.1-11.73 44.69Zm-18.35-39.04c-7.04 5.97-11.62 15.89-11.62 25.38 0 7.57 2.88 13.55 6.61 13.55 2.67 0 5.44-3.73 8.64-11.84 3.73-9.6 6.83-21.97 8-32.53-4.48.64-7.89 2.24-11.63 5.44Z" style="fill:#333"/><path class="cls-6" d="M732.71 372.88c-.59 2.35-.59 2.64-1.03 5.28-4.25 22.58-11.88 41.8-22.73 57.93-7.77-5.13-16.43-9.53-24.2-12.03 11.73-15.25 20.97-38.28 22.73-57.05l25.22 5.87Zm86.08-12.61c-4.84-.59-9.83-.73-22.58-.88h-28.45v64.38c0 9.83.29 17.75.73 22h-27.72c.59-5.72.88-11 .88-22.29v-64.09h-27.13c-12.91 0-16.87.15-22.14.88v-25.08c5.28.88 10.12 1.17 22.44 1.17h26.84v-5.72c0-7.77-.29-12.03-.88-16.28h27.86c-.59 4.11-.88 8.51-.88 16.57v5.43h31.53c-3.37-3.23-5.28-7.48-5.28-12.17 0-9.24 7.33-16.57 16.57-16.57S827 314.95 827 324.19c0 6.01-3.08 11.29-8.21 14.37v21.71Zm-17.89 6.45c4.25 19.07 14.23 42.68 23.76 56.02-8.95 3.96-16.87 8.51-24.2 13.64-10.71-19.5-15.54-32.12-21.71-56.31-1.17-4.84-1.32-4.99-2.2-7.19l24.34-6.16Zm1.32-42.53c0 4.4 3.81 8.21 8.21 8.21s8.36-3.81 8.36-8.21-3.81-8.36-8.21-8.36-8.36 3.81-8.36 8.36Zm170.57 5.57c-3.23 2.79-3.37 2.93-5.72 5.43-11.59 11.88-22 20.97-33.88 29.48v56.46c0 12.03.15 15.84.88 23.76h-28.45c.73-7.77.88-11 .88-23.61V380.8c-15.25 8.95-26.98 14.23-47.96 21.7-3.96-9.83-6.89-14.67-14.08-23.61 31.82-8.95 54.26-19.95 77.87-38.13 12.61-9.53 22.44-19.5 26.69-26.84l23.76 15.84Zm45.02-7.77c18.48 10.85 28.01 17.6 40.33 28.74l-17.31 22.88c-12.76-13.34-25.22-23.02-39.89-30.94l16.86-20.68Zm-15.4 91.07c14.96-1.17 30.36-4.84 44.14-10.56 18.48-7.63 31.68-18.62 42.97-36.22 6.16-9.39 10.12-17.45 14.37-28.74 7.19 8.65 10.56 11.59 21.56 19.65-13.35 28.89-27.28 46.2-47.81 59.39-15.84 10.27-29.77 15.69-57.05 22-5.72 1.32-6.6 1.47-10.56 2.64l-7.63-28.16Zm164.41 31.09c.59-6.6.88-10.85.88-22.44v-85.35c0-11.88-.15-13.35-1.03-21.26h28.3c-.59 4.25-.73 11.58-.73 21.41v20.09c24.93 8.21 43.85 16.86 66.73 30.5l-13.93 24.93c-14.22-9.83-31.53-19.36-46.2-25.52q-5.13-2.05-6.6-2.93v38.13c0 9.83.29 17.16.88 22.44h-28.3Z"/><circle class="cls-5" cx="9.31" cy="292.44" r="9.31"/><circle class="cls-3" cx="33.65" cy="333.25" r="9.31"/><circle class="cls-5" cx="58" cy="374.07" r="9.31"/><circle class="cls-3" cx="82.35" cy="414.88" r="9.31"/><circle class="cls-5" cx="106.69" cy="455.7" r="9.31"/><circle class="cls-5" cx="1517.04" cy="292.44" r="9.31"/><circle class="cls-3" cx="1492.7" cy="333.25" r="9.31"/><circle class="cls-5" cx="1468.35" cy="374.07" r="9.31"/><circle class="cls-3" cx="1444.01" cy="414.88" r="9.31"/><circle class="cls-5" cx="1419.66" cy="455.7" r="9.31"/><path class="cls-1" d="M1275.91 122.91H240.07L210.07 0h1095.84l-30 122.91z"/><path d="M410.73 70.08c-1.04-1.97-2.2-4-3.42-5.75l2.9-1.28c2.67 3.71 5.46 8.76 6.44 12.01l-3.13 1.51c-.29-1.04-.75-2.2-1.33-3.48-1.8.12-3.66.17-5.4.29v24.84h-3.48V73.56c-3.25.17-6.15.29-8.47.35-.06.46-.41.64-.81.75l-1.04-4.35h4.06c1.28-1.57 2.61-3.37 4-5.34-1.8-2.67-4.82-6.09-7.49-8.59l2.03-2.5c.58.52 1.22 1.1 1.86 1.74 1.97-3.37 4.24-8.01 5.51-11.32l4.12 1.74c-.17.35-.58.52-1.22.52-1.51 3.25-4.06 8.01-6.27 11.26 1.33 1.39 2.55 2.84 3.48 4.12 2.5-3.77 4.82-7.72 6.5-11.03l4.06 1.92c-.17.29-.64.52-1.28.52-2.96 4.93-7.6 11.84-11.66 16.89l10.04-.17Zm-9.69 8.76c-.17.35-.52.58-1.16.58-.81 4.93-2.15 10.5-3.89 13.93-.81-.52-2.09-1.1-2.9-1.51 1.68-3.25 2.9-8.82 3.66-14.1l4.29 1.1Zm12.01 11.26c-.52-3.13-2.15-7.95-3.83-11.55l3.02-.99c1.74 3.66 3.42 8.36 4 11.43l-3.19 1.1Zm9.4.81c0 2.5.75 3.08 4.41 3.08h13.58c3.13 0 3.66-1.28 4-7.83.87.7 2.44 1.28 3.48 1.51-.58 7.66-1.8 9.86-7.31 9.86h-13.87c-6.09 0-7.95-1.28-7.95-6.62V65.72c-.76 1.1-1.51 2.15-2.32 3.08-.64-.7-1.97-1.8-2.9-2.38 4.47-5.11 8.76-13.87 11.37-22.23l4.7 1.45c-.17.41-.58.58-1.28.52-.46 1.39-.99 2.79-1.57 4.18h10.5l.64-.17 2.84 1.8c-.12.23-.46.41-.81.46-1.16 2.79-2.84 6.15-4.53 9.05h9.58v20.49h-3.71v-2.38h-18.86v11.32Zm9.17-29.42c1.28-2.15 2.67-5.05 3.66-7.66h-9.98c-1.16 2.67-2.5 5.28-3.83 7.66h10.16Zm-9.17 3.48v11.14h7.54V64.97h-7.54Zm18.86 11.14V64.97h-7.83v11.14h7.83Zm20.07-12.07c3.13 3.31 6.5 7.14 9.52 10.91 1.74-4.64 3.02-9.86 3.89-15.61l4.82.93c-.12.46-.52.7-1.28.75-1.1 6.44-2.67 12.24-4.82 17.35 2.84 3.77 5.16 7.37 6.67 10.27l-3.13 2.67c-1.22-2.55-3.13-5.63-5.4-8.94-3.31 6.38-7.78 11.43-13.7 15.15-.52-.87-1.68-2.2-2.44-2.96 6.04-3.54 10.5-8.82 13.7-15.55-3.31-4.41-7.08-8.94-10.62-12.77l2.79-2.21Zm22.57-9.69v3.66H455.8v-3.66h12.25v-9.98l4.87.29c-.06.41-.35.7-1.1.81v8.88h12.13Zm25.59 4.35v3.71h-7.14V92.7c0 5.34-2.96 5.46-12.07 5.46-.17-1.1-.76-2.9-1.34-4.06 1.92.06 3.66.06 5.11.06 4.24 0 4.41 0 4.41-1.39V62.42h-16.42v-3.71h16.42V44.26l5.05.29c-.12.46-.41.75-1.16.81v13.35h7.14Zm-23.27 10.21c2.84 4.06 5.69 9.52 6.62 13.06l-3.42 1.74c-.93-3.6-3.66-9.23-6.44-13.35l3.25-1.45Z"/><path class="cls-6" d="M551.33 33.41c-.16.58-.25 1.15-.25 1.32-.08.25-.25 1.07-.33 2.31l-.25 1.65-.33 1.89c-3.3 25.21-9.56 42.34-20.43 55.69-3.62-3.62-8.9-7.5-13.43-9.8 11.2-11.37 18.95-33.86 19.36-55.85l15.65 2.8Zm24.05-2.88v.33c0 3.05 1.57 12.52 2.96 17.87 4.12 15.9 9.31 26.61 18.04 37.15-5.44 3.3-9.14 6.26-13.02 10.38-10.96-14.33-18.12-33.44-21.25-56.51-.08-.82-.16-1.4-.16-1.57l-.58-3.13-.08-.82s-.16-.49-.33-.99l14.42-2.72Zm7.33-4.2c2.06 3.87 3.79 8.07 5.27 13.26l-6.51 2.06c-1.15-4.61-2.88-9.39-4.94-13.59l6.18-1.73Zm8.65 12.27c-1.24-4.37-2.96-8.81-5.11-12.93l6.1-1.89c2.39 4.2 4.04 8.15 5.19 12.52l-6.18 2.31Zm38.81-11.21c-.41 3.13-.49 5.27-.58 10.13l-.49 43.66c16.64-3.71 29-13.1 36.49-28.01 3.79 5.44 6.34 8.24 11.12 11.86-11.94 18.45-27.18 28.01-51.48 32.21-3.05.58-3.54.66-4.94 1.48l-7.33-8.57c.82-1.73.91-2.64.99-6.75l.33-45.8v-1.32c0-3.87-.17-6.51-.49-8.98l16.39.08Zm119.04-4.45c2.06 3.21 3.46 6.26 4.86 10.46 1.07 0 2.31-.08 3.71-.08-1.15-3.62-2.72-7.33-4.53-10.38l6.75-1.73c2.55 3.95 3.79 6.67 5.44 12.27l-4.61 1.24.08 11.86c-3.62-.33-6.09-.41-15.07-.41-2.97 0-4.7 0-7.99.08v12.11c2.39 4.45 3.3 8.24 3.3 13.76 0 9.31-4.78 17.3-13.59 22.82-4.04 2.55-8.73 4.45-16.56 6.75-2.06-5.52-4.53-9.56-7.74-13.02 12.93-1.73 20.35-5.52 22.98-11.61-3.46 2.88-6.26 3.87-11.04 3.87-9.56 0-16.31-6.26-16.31-14.99 0-9.39 7.74-15.82 19.11-15.82 2.64 0 4.53.25 6.51.91-.08-.58-.08-.91-.08-1.07v-2.47c0-.08 0-.49-.08-.99-15.16.33-33.77 1.48-36.82 2.14l-.41-14.09c2.06.16 2.97.25 5.03.25 2.22 0 25.37-.58 32.04-.82-.08-5.02-.17-6.67-.58-8.73h14.58c-.33 2.72-.41 3.95-.41 8.4 2.72 0 5.44 0 8.15-.08-1.07-3.05-2.22-5.6-4.04-8.73l7.33-1.89ZM712.72 65.2c0 2.55 2.31 4.45 5.52 4.45 3.46 0 6.18-2.14 6.18-4.94 0-2.55-2.14-4.2-5.44-4.2-3.62 0-6.26 1.98-6.26 4.7Zm85.1-37.31c-3.21 9.39-5.68 24.79-6.26 39.79l6.34 2.14c-2.14 7.41-3.21 14.83-3.21 23.07 0 1.57 0 2.31.25 4.04l-14.17.66c-.08-1.57-.08-2.22-.41-4.37-1.57-11.04-2.14-18.21-2.14-26.03 0-9.47.99-19.85 3.13-31.71.99-5.77 1.07-6.34 1.24-8.81l15.24 1.24Zm22.74 36c-3.79 4.86-5.52 8.4-5.52 11.37 0 3.79 3.71 5.85 10.71 5.85s14.25-1.15 20.51-3.38l.82 14.58q-2.14.25-7 .99c-4.45.66-9.55 1.07-14.25 1.07-7.66 0-12.77-1.07-17.05-3.46-4.61-2.64-7.58-7.74-7.58-13.1 0-4.04 1.4-8.57 3.95-12.85 1.15-1.89 1.65-2.72 3.87-5.93l11.53 4.86Zm-16.15-29.74c3.87.82 8.24 1.24 14.66 1.24 10.96 0 19.03-.66 24.55-2.06l.58 14.09c-.74 0-1.57.08-6.1.58-5.68.58-11.7.91-17.38.91-5.02 0-9.14-.17-14.17-.66-.66-.08-1.24-.08-2.39-.17l.25-13.92Z"/><path d="M866.5 64.97c-2.09 3.54-4.29 6.79-6.61 9.52-.46-.93-1.39-2.79-2.03-3.66 5.34-6.04 10.56-16.13 13.81-26.17l4.58 1.51c-.12.41-.58.64-1.28.58-1.39 3.89-3.02 7.78-4.87 11.49l1.33.41c-.06.35-.41.64-1.16.76v38.88h-3.77V64.98Zm36.56-1.28h10.62v3.6h-40.33v-3.6h10.56v-8.42h-8.07v-3.48h8.07v-6.96l4.93.35c-.06.41-.41.7-1.16.76v5.86h11.55v-6.96l4.99.35c-.06.41-.41.7-1.16.81v5.8h8.41v3.48h-8.41v8.42Zm-23.33 34.7V72.28h28.61V98.1h-3.89v-2.44H883.5v2.73h-3.77Zm24.72-22.75H883.5v6.62h20.95v-6.62ZM883.5 92.29h20.95v-6.85H883.5v6.85Zm4.18-37.02v8.42h11.55v-8.42h-11.55Zm39.51 23.28c-1.1-3.13-1.62-7.66-1.68-10.91 0-5.46.58-11.78 1.97-19.15l5.8.99c-.23.76-.93.93-1.68.99-1.16 4.82-1.97 12.19-1.97 16.89 0 1.28.06 2.32.17 3.13 1.16-2.84 3.31-6.79 4.53-9 .52.76 1.68 1.97 2.26 2.55-4.29 7.72-5.57 9.92-5.57 12.36 0 .46.06.93.17 1.45l-4 .7Zm31.1-31.57c-.06.7-.52.99-1.51 1.28.41 5.05.99 13.46.99 20.14-.06 11.2-4.12 21.3-21.59 28.55-.64-.93-2.03-2.5-2.9-3.37 15.84-6.04 20.08-15.61 20.08-25.13 0-7.14-.7-15.55-1.33-21.76l6.27.29Zm24.14 9.81c-.23.58-.7.87-1.51.99-.46 8.59-1.57 15.9-2.38 17.12h.06c5.69-4.24 14.57-7.14 21.36-7.14 8.94 0 14.51 4.58 14.39 12.71-.17 10.68-9 15.44-31.45 16.37-.29-1.1-.81-2.73-1.45-3.83 20.25-.87 28.38-4.18 28.55-12.48.06-5.57-3.83-8.94-10.62-8.94-10.74 0-20.43 6.44-22.05 9.28l-3.95-1.91c1.16-1.1 3.19-11.49 3.31-22.86l5.74.7Zm.99-11.26c7.89.93 16.83 2.73 22.52 5.11l-1.45 4c-5.98-2.55-14.62-4.24-22.28-5.28l1.22-3.83Zm44.5 12.07c4.7 0 9-.41 10.91-.87.12-3.48.17-5.4.41-10.68l5.98.46c-.12.64-.64 1.04-1.63 1.16-.23 2.55-.46 6.15-.58 8.3l1.8.7c-1.39 2.79-1.97 6.21-2.32 8.3 6.38-5.98 13.46-10.21 18.28-10.21 5.46 0 8.18 3.83 8.18 10.56 0 .75-.06 1.51-.12 2.26-.41 5.11-.99 12.36-.99 17 0 3.48.41 5.34 2.84 5.34 1.74 0 5.22-1.74 7.72-3.89.12 1.16.58 3.54.81 4.41-2.96 2.15-6.44 3.77-9.11 3.77-4.87 0-6.5-2.9-6.5-8.94 0-3.02 1.05-18.98 1.05-19.03 0-5.05-1.74-7.31-4.58-7.31-4.35 0-11.66 4.7-17.7 11.08 0 8.42 0 18.74.06 26.64h-4.06c.06-3.37 0-19.9.06-23.62-2.03 4.06-5.98 9.34-10.56 13.99l-2.09-3.66c4.82-4.53 10.21-11.55 12.77-17.53 0-1.68.06-3.25.12-5.11-2.03.46-6.27.93-10.68.99l-.06-4.12Zm75.66 12.19c3.83-1.97 9.81-3.37 14.39-3.37 9.23 0 15.03 5.4 15.03 13.93 0 10.5-9.23 16.31-20.89 16.31-7.54 0-12.71-3.02-12.71-8.12 0-4.29 4.24-7.78 9.52-7.78 6.56 0 10.97 5.22 11.84 10.5 4.64-1.74 8.01-5.46 8.01-10.85 0-6.27-4.64-10.27-11.95-10.27-8.7 0-17.23 3.89-21.07 7.6-1.74 1.63-4 4.06-5.57 5.86l-2.96-2.96c5.22-5.46 21.82-21.3 29.71-28.67-3.37.46-14.97.93-21.59 1.16-.17.41-.75.75-1.22.87l-.46-4.93c7.83-.06 22.81-.64 27.04-1.28l.87-.41 3.08 3.77c-.29.23-.81.46-1.39.52-4.12 3.37-15.15 13.7-19.67 18.05v.06Zm8.01 23.21c1.74 0 3.77-.23 5.28-.58-.64-4.47-3.95-8.24-8.24-8.24-3.02 0-5.69 1.62-5.69 4.29 0 3.54 4.82 4.53 8.65 4.53Z"/><path class="cls-1" d="m763.22 164 42.58-43.01h-85.16L763.22 164z"/></g></svg>