<?xml version="1.0" encoding="UTF-8"?><svg id="Layer_2" xmlns="http://www.w3.org/2000/svg" viewBox="0 0 247.5 247.5"><defs><style>.cls-1,.cls-2{fill:none;}.cls-2{stroke:#fcee21;stroke-width:3px;}.cls-2,.cls-3{stroke-miterlimit:10;}.cls-4{fill:#0c5faa;}.cls-3{fill:#fff;stroke:#dae4ea;}</style></defs><g id="PC"><g><rect class="cls-1" width="247.5" height="247.5"/><g><rect class="cls-3" x="46.41" y="28.41" width="154.69" height="189.06"/><rect class="cls-4" x="91.52" y="23.04" width="61.23" height="10.21"/><g><rect class="cls-4" x="64.67" y="74.6" width="21.48" height="21.48"/><rect class="cls-4" x="93.13" y="75.14" width="89.16" height="3.22" rx="1.48" ry="1.48"/><rect class="cls-4" x="107.1" y="84.84" width="75.2" height="3.19" rx="1.48" ry="1.48"/></g><polyline class="cls-2" points="69.35 85.15 73.9 89.75 81.32 81.91"/><g><rect class="cls-4" x="64.67" y="110.05" width="21.48" height="21.48"/><rect class="cls-4" x="93.13" y="110.59" width="89.16" height="3.22" rx="1.48" ry="1.48"/><rect class="cls-4" x="107.1" y="120.29" width="75.2" height="3.19" rx="1.48" ry="1.48"/></g><polyline class="cls-2" points="69.35 120.6 73.9 125.2 81.32 117.36"/><g><rect class="cls-4" x="64.67" y="145.5" width="21.48" height="21.48"/><rect class="cls-4" x="93.13" y="146.04" width="89.16" height="3.22" rx="1.48" ry="1.48"/><rect class="cls-4" x="107.1" y="155.74" width="75.2" height="3.19" rx="1.48" ry="1.48"/></g><polyline class="cls-2" points="69.35 156.05 73.9 160.65 81.32 152.81"/></g></g></g></svg>