<?xml version="1.0" encoding="UTF-8"?><svg id="Layer_2" xmlns="http://www.w3.org/2000/svg" viewBox="0 0 659.69 68.23"><defs><style>.cls-1{fill:#fff;}.cls-2{fill:#fbd747;}.cls-3{fill:#333;}.cls-4{fill:#0c5faa;}</style></defs><g id="PC"><g><rect class="cls-1" x="0" y="1.06" width="658.49" height="66.57"/><rect class="cls-4" x="154.13" y="65.83" width="505.56" height="2.4"/><g><path class="cls-4" d="M190.88,26.63c-.7,.64-1.14,.97-2.38,1.91-1.07-1.57-1.84-2.48-3.21-3.58,2.85-1.91,4.59-3.55,5.89-5.52,.33-.5,.57-.97,.77-1.47l5.36,.87q-.27,.33-.6,.9c-.2,.37-.5,.8-.8,1.24h15.53c2.01,0,3.15-.07,4.29-.2v5.02c-1.04-.13-1.74-.17-2.98-.2v3.08h.9c1.71,0,2.28-.03,3.31-.17v5.02c-1.01-.13-1.67-.17-3.31-.17h-.9v3.18h.27c1.71,0,2.44-.03,3.18-.13v4.92c-.87-.13-1.51-.17-3.15-.17,1.47,1.77,1.84,2.31,3.98,6.03l-4.55,2.81c-1.24-2.95-2.18-4.69-3.98-7.36l3.08-1.47h-21.06l3.55,1.74c-1.37,3.38-2.28,4.95-4.29,7.3l-4.12-3.15c1.88-1.88,2.81-3.28,3.95-5.89h-.27c-1.31,0-1.97,.03-2.81,.17v-4.95c.9,.13,1.67,.17,3.31,.17h.67v-3.18h-1.17c-1.61,0-2.28,.03-3.31,.17v-5.02c1.04,.13,1.61,.17,3.31,.17h1.54v-2.04Zm4.25,23.43c.07-.9,.07-1.17,.07-1.81,0-2.21-.1-3.88-.3-5.89l4.65-.43c.54,3.45,.7,5.12,.77,7.77l-5.19,.37Zm-.07-21.39h1.54v-3.08h-1.54v3.08Zm0,7.87h1.54v-3.18h-1.54v3.18Zm5.79-7.87h1.57v-3.08h-1.57v3.08Zm0,7.87h1.57v-3.18h-1.57v3.18Zm2.21,13.42c-.47-3.28-.77-4.99-1.44-7.36l4.65-.97c.97,2.91,1.44,4.62,1.94,7.3l-5.16,1.04Zm5.19-21.29v-3.08h-1.61v3.08h1.61Zm0,7.87v-3.18h-1.61v3.18h1.61Z"/><path class="cls-4" d="M226.97,25.29c-1.71,.27-2.34,.37-4.05,.57-.43-1.88-.8-2.95-1.54-4.65,3.28-.27,5.79-.67,8.87-1.44,2.18-.54,3.15-.9,4.05-1.44l2.95,4.45q-.17,.07-.77,.27c-1.31,.44-3.01,.9-4.45,1.24v3.41h2.08c1.27,0,1.94-.03,2.74-.17v4.92c-.84-.1-1.67-.13-2.85-.13h-1.81c1.77,2.51,2.85,3.58,5.06,5.16-.97,1.64-1.61,2.91-2.28,4.72-1.37-1.31-2.11-2.24-3.05-3.85,.07,.77,.1,1.67,.1,2.74v4.52c0,2.14,.03,3.05,.2,4.39h-5.46c.13-1.37,.2-2.41,.2-4.39v-3.95q0-1.67,.07-2.61c-1.04,2.58-2.08,4.22-3.98,6.19-.9-2.44-1.31-3.31-2.41-5.12,1.31-1.1,2.11-2.08,3.18-3.72,1.01-1.57,1.64-2.81,2.08-4.08h-1.51c-1.24,0-2.08,.03-2.95,.17v-4.95c.9,.13,1.67,.17,3.05,.17h2.48v-2.41Zm16.37-4.15c-.13,1.24-.17,2.21-.17,4.29v12.39c0,2.04,.03,2.98,.17,4.08h-5.32c.13-1,.17-1.71,.17-3.95v-12.52c0-1.98-.07-3.08-.17-4.29h5.32Zm7.73-2.18c-.17,1.54-.2,2.81-.2,4.89v21.09c0,2.18-.54,3.48-1.74,4.08-.94,.5-2.81,.74-5.79,.74-.57,0-1.11-.03-2.31-.07-.4-2.08-.74-3.21-1.57-5.19,2.11,.2,3.15,.27,4.59,.27s1.77-.17,1.77-1V23.85c0-1.57-.07-3.18-.2-4.89h5.46Z"/><path class="cls-4" d="M255.52,46.41c1.67-2.38,2.38-4.02,3.15-7.16l4.65,1.71c-1,3.75-1.77,5.69-3.48,8.6l-4.32-3.15Zm7.53-7.8c-1.77,0-2.71,.03-3.65,.1,.1-1.14,.13-1.98,.13-3.98v-9.78c0-1.88-.03-2.95-.13-4.02,1.07,.1,2.11,.13,4.22,.13h3.95c.5-1.14,.7-1.74,1-2.88l5.76,.37q-.17,.37-.64,1.37-.34,.74-.54,1.14h6.36c2.11,0,3.15-.03,4.22-.13-.1,1.04-.13,2.08-.13,4.02v9.78c0,2.11,.03,2.88,.13,3.98-.94-.07-1.94-.1-3.65-.1h-5.36c.67,.74,1.54,1.84,2.61,3.25l-1.51,.84c1.41,.57,2.74,.94,4.49,1.17-.37,2.88-.6,3.78-1.24,4.45-1,1-3.11,1.41-7.83,1.41-6.06,0-7.2-.57-7.2-3.68v-4.05c0-1.1-.03-1.54-.17-2.44h5.32c-.1,.74-.13,1.24-.13,2.44v2.34c0,.84,.3,.97,2.38,.97,3.65,0,3.75-.07,3.78-2.24l-2.21,1.24c-.94-1.54-2.04-2.95-3.35-4.32l3.01-1.37h-9.64Zm1.51-12.69h14.03v-1.17h-14.03v1.17Zm0,4.52h14.03v-1.24h-14.03v1.24Zm0,4.52h14.03v-1.24h-14.03v1.24Zm18.25,14.06c-1.04-2.85-2.18-4.99-4.05-7.83l4.32-1.91c2.14,2.88,3.11,4.49,4.45,7.33l-4.72,2.41Z"/><path class="cls-4" d="M312.86,39.92c-.54,5.19-1.37,7.63-3.58,10.58-1-1.34-1.84-2.24-3.01-3.28-1.14,.84-1.74,1.41-2.71,2.41-1.64-1.98-2.14-2.75-3.72-5.62l3.08-1.77h-6.36l3.05,1.84c-1.74,2.91-2.78,4.22-5.12,6.43-1.2-1.64-1.67-2.11-3.55-3.65,2.04-1.61,3.08-2.71,4.35-4.62h-1.64c-1.37,0-1.84,.03-2.48,.1v-4.62c.6,.1,1,.13,2.24,.13v-11.58c-1,0-1.51,.03-2.01,.1v-4.62c.54,.1,1.04,.13,2.01,.13v-.5c0-1.07-.03-1.74-.13-2.48h4.99c-.1,.77-.13,1.37-.13,2.48v.5h3.15v-.5c0-1.1-.03-1.77-.13-2.48h4.99c-.1,.7-.13,1.37-.13,2.48v.5c.9-.03,1.17-.07,1.74-.13v4.62c-.54-.07-.8-.07-1.74-.1v11.58c.64-.03,.87-.07,1.34-.13v4.62c-.6-.07-1.17-.1-2.54-.1h-.94c.84,1.37,1.37,2.11,2.41,3.21,1.84-2.81,2.28-6.56,2.28-20.29,0-2.95-.03-4.05-.2-5.52,1.34,.13,2.18,.17,4.18,.17h5.09c2.11,0,2.98-.03,4.02-.17-.1,.94-.13,1.94-.13,4.12v21.83c0,1.94-.5,3.18-1.54,3.85-.8,.47-2.11,.7-4.32,.7-.33,0-.84,0-1.51-.03-.27-2.01-.54-3.15-1.21-5.06,1.41,.17,1.94,.23,2.44,.23,1,0,1.2-.1,1.2-.67v-4.69h-3.72Zm-11.58-12.25v-1.41h-3.15v1.41h3.15Zm0,5.05v-1.47h-3.15v1.47h3.15Zm0,5.12v-1.54h-3.15v1.54h3.15Zm12.02-5.69c-.03,1.64-.03,2.11-.1,3.31h3.38v-3.31h-3.28Zm3.28-7.6h-3.25v3.11h3.25v-3.11Z"/><path class="cls-4" d="M332.34,45.44c0,2.14,.07,3.52,.2,4.49h-5.39c.13-1.07,.2-2.21,.2-4.52V23.28c0-1.88-.03-2.78-.13-3.85,.97,.1,1.78,.13,3.38,.13h7.03c1.81,0,2.54-.03,3.41-.13-.07,1-.1,1.77-.1,3.08v6.09c0,1.81,0,2.14,.07,2.91-.74-.03-1.74-.07-2.74-.07h-5.93v13.99Zm0-21.19h3.98v-1.17h-3.98v1.17Zm0,3.95h3.98v-1.21h-3.98v1.21Zm16.74,15.9v.84c.3,.03,.5,.03,.57,.03,1.81,0,1.87-.03,1.87-.77v-12.72h-6.23c-.9,0-2.04,.03-2.74,.07,.07-.9,.07-1.2,.07-2.95v-6.09c0-1.24-.03-2.08-.1-3.08,.97,.1,1.67,.13,3.41,.13h7.3c1.64,0,2.41-.03,3.38-.13-.1,1.14-.13,2.01-.13,3.78v21.79c0,3.98-1.01,4.75-6.09,4.75-.43,0-.54,0-2.51-.07-.2-1.41-.27-1.91-.5-2.88h-8.07v1.41h-4.75c.1-1.04,.13-2.24,.13-3.55v-8.94c0-1.17-.03-2.04-.1-2.85,.9,.07,1.71,.1,2.91,.1h8.77c1.27,0,2.01-.03,2.91-.1-.07,.77-.1,1.57-.1,2.85v8.37Zm-9.78-5.93h5.16v-1.34h-5.16v1.34Zm0,4.72h5.16v-1.37h-5.16v1.37Zm8-18.65h4.22v-1.17h-4.22v1.17Zm0,3.95h4.22v-1.21h-4.22v1.21Z"/><path class="cls-3" d="M362.8,30.31q1.17-.13,3.85-.64c4.62-.94,7.8-1.34,10.51-1.34,3.28,0,5.52,.64,7.33,2.08,1.81,1.44,2.78,3.65,2.78,6.33,0,5.12-3.31,8.94-9.27,10.75-2.31,.7-2.91,.8-7.6,1.34-.4-2.08-.8-3.18-2.04-5.36,3.15,0,5.62-.33,8.13-1.1,2.28-.7,4.12-2.08,4.79-3.62,.27-.57,.4-1.27,.4-1.97,0-2.11-1.77-3.35-4.82-3.35-2.24,0-5.02,.4-8.77,1.24-2.24,.5-2.98,.7-4.18,1.17l-1.1-5.52Z"/><path class="cls-3" d="M391.89,22.64c.57,.03,1,.03,1.27,.03,.87,0,2.08-.07,5.72-.3,5.22-.33,7.67-.47,17.88-.84,2.78-.1,3.08-.13,3.68-.27l.3,6.06c-.47-.07-.6-.07-.94-.07-2.34,0-5.36,.9-7.67,2.34-3.35,2.04-5.32,4.89-5.32,7.63,0,1.91,.9,3.21,2.81,4.12,1.37,.67,4.22,1.21,6.39,1.21,.33,0,.54,0,1-.07l-.77,6.39c-.47-.1-.64-.1-1.24-.17-3.82-.37-6.33-.9-8.47-1.87-3.95-1.84-5.99-4.92-5.99-9.17,0-2.78,.94-5.29,2.85-7.57,.87-1.07,1.67-1.74,3.28-2.85l-11.58,1.04c-1.31,.13-1.64,.17-2.88,.44l-.33-6.09Z"/><path class="cls-3" d="M438.99,19.39c-.2,.6-.23,.6-.64,2.68-.17,.8-.23,1.1-.4,1.87,2.14-.23,3.58-.47,4.65-.8l.1,5.42q-.8,.07-2.48,.27c-.9,.1-2.74,.27-3.58,.33-1.2,3.95-2.08,6.26-3.65,9.71-.7,1.54-1.01,2.14-2.31,4.75q-.44,.84-.64,1.31l-5.46-2.98c2.38-3.18,4.69-7.93,6.19-12.65h-1.87q-.77,0-1.54-.03h-1.31v-5.36c1.27,.23,2.81,.33,4.89,.33,.37,0,.54,0,1.2-.03q.03-.27,.3-1.41c.27-1.14,.47-2.78,.5-3.98l6.03,.57Zm14.4,28.22c-1.24-1.44-2.51-2.51-4.32-3.65-.1,1.57-.5,2.54-1.41,3.48-1.31,1.31-3.65,2.08-6.33,2.08s-4.95-.8-6.33-2.21c-1.1-1.14-1.67-2.58-1.67-4.15,0-3.88,3.25-6.59,7.9-6.59,.7,0,1.24,.03,2.34,.2-.1-1.27-.13-1.91-.13-2.68,0-1.37,.07-2.44,.2-3.95l5.52,.23c-.27,1.17-.37,2.18-.37,3.78,0,1.21,.07,2.21,.27,3.88,2.04,.9,3.62,1.81,5.15,2.98,.1,.07,.64,.5,1.64,1.31l-2.48,5.29Zm-11.98-6.29c-1.57,0-2.58,.67-2.58,1.71,0,.97,.94,1.61,2.38,1.61,1.67,0,2.54-.74,2.54-2.14,0-.23-.03-.7-.07-.74-.9-.33-1.47-.44-2.28-.44Zm12.32-9.41c-3.15-1.98-6.43-3.48-10.41-4.82l2.78-4.62c4.22,1.51,6.96,2.71,10.08,4.52l-2.44,4.92Z"/><path class="cls-3" d="M469.52,20.43c-1.31,3.82-2.31,10.08-2.54,16.17l2.58,.87c-.87,3.01-1.31,6.03-1.31,9.37,0,.64,0,.94,.1,1.64l-5.76,.27c-.03-.64-.03-.9-.17-1.77-.64-4.49-.87-7.4-.87-10.58,0-3.85,.4-8.07,1.27-12.89,.4-2.34,.44-2.58,.5-3.58l6.19,.5Zm9.24,14.63c-1.54,1.97-2.24,3.41-2.24,4.62,0,1.54,1.51,2.38,4.35,2.38s5.79-.47,8.34-1.37l.34,5.93q-.87,.1-2.85,.4c-1.81,.27-3.88,.44-5.79,.44-3.11,0-5.19-.44-6.93-1.41-1.87-1.07-3.08-3.15-3.08-5.32,0-1.64,.57-3.48,1.61-5.22,.47-.77,.67-1.1,1.57-2.41l4.69,1.98Zm-6.56-12.09c1.57,.33,3.35,.5,5.96,.5,4.45,0,7.73-.27,9.98-.84l.23,5.72c-.3,0-.64,.03-2.48,.23-2.31,.23-4.75,.37-7.06,.37-2.04,0-3.72-.07-5.76-.27-.27-.03-.5-.03-.97-.07l.1-5.66Z"/><path class="cls-3" d="M502.79,39.62c.07-.54,.07-.57,.07-1.54,0-2.31,.4-3.65,1.47-4.95,.8-.94,1.07-1.14,3.45-2.58,1.64-.97,2.18-1.67,2.18-2.78,0-1.57-1.17-2.51-3.18-2.51-1.51,0-2.61,.54-3.25,1.57-.33,.54-.47,1-.6,2.04l-6.9-.64c.34-2.41,.87-3.72,2.14-5.12,1.94-2.21,4.92-3.35,8.77-3.35,6.16,0,10.01,2.91,10.01,7.53,0,2.04-.67,3.62-2.08,4.92-.8,.74-1.14,.97-4.05,2.78-1.41,.9-1.91,1.77-1.91,3.31,0,.4,.03,.77,.1,1.31h-6.23Zm6.49,2.28v6.33h-6.73v-6.33h6.73Z"/></g><g><polygon class="cls-2" points="150.86 68.09 5.87 68.09 5.87 0 166.12 0 150.86 68.09"/><polygon class="cls-4" points="144.99 68.09 0 68.09 0 0 160.25 0 144.99 68.09"/><g><g><g><path class="cls-1" d="M39.63,26.94c-.04,.19-.07,.37-.13,.59,1.16-1.18,2.26-1.65,3.8-1.65,1.37,0,2.38,.4,3.01,1.18,.72,.91,.92,2.16,.58,3.85-.61,3.06-2.68,4.89-5.56,4.89-1.49,0-2.51-.51-3.11-1.59q-.04,.2-.08,.53c0,.12-.06,.41-.12,.71l-.24,1.25c-.18,.97-.25,1.5-.3,2.18h-2.38c.23-.77,.37-1.33,.53-2.17l1.57-8.36c.18-.97,.25-1.53,.3-2.25h2.27l-.16,.83Zm2.91,.74c-1.69,0-3.23,1.38-3.57,3.16-.36,1.9,.64,3.22,2.4,3.22,1.66,0,2.94-1.23,3.32-3.19s-.43-3.2-2.15-3.2Z"/><path class="cls-1" d="M48.23,30.94c.62-3.11,3.01-5.12,6.12-5.12s4.64,1.99,3.98,5.08c-.65,3.08-3.06,5.09-6.07,5.09s-4.66-1.95-4.04-5.06Zm2.19,0c-.42,2.05,.41,3.31,2.17,3.31s3.11-1.24,3.53-3.27c.45-2.16-.33-3.4-2.14-3.4s-3.14,1.28-3.57,3.36Z"/><path class="cls-1" d="M64.39,22.36l-.47,2.15h-2.52l.46-2.15h2.52Zm-.83,3.76c-.22,.62-.37,1.18-.6,2.2l-1.13,5.2c-.2,.91-.28,1.47-.35,2.17h-2.47c.26-.74,.42-1.32,.6-2.15l1.12-5.24c.2-.92,.29-1.5,.33-2.19h2.5Z"/><path class="cls-1" d="M63.6,35.69c.26-.71,.4-1.22,.61-2.15l1.15-5.24c.2-.92,.29-1.5,.34-2.19h2.32l-.2,.89c-.06,.25-.07,.3-.19,.72,1.33-1.31,2.34-1.78,3.88-1.78,1.32,0,2.19,.42,2.62,1.25,.28,.55,.3,1.23,.04,2.35l-.91,4c-.21,.91-.32,1.54-.36,2.15h-2.45c.25-.74,.41-1.31,.6-2.15l.84-3.7c.16-.7,.18-1.16,.04-1.47-.17-.44-.63-.69-1.28-.69-1.23,0-2.42,.84-3.54,2.5l-.74,3.36c-.18,.81-.29,1.44-.34,2.15h-2.44Z"/><path class="cls-1" d="M81.4,23.51c-.21,.59-.43,1.32-.61,2.08l-.12,.52h.72c.8,0,1.18-.02,1.75-.1l-.47,1.99c-.54-.08-.86-.1-1.65-.1h-.77l-1.22,5.18c-.19,.81,.04,1.11,.86,1.11,.44,0,.73-.08,1.32-.36l-.11,1.75c-.79,.26-1.32,.35-2.2,.35-1.94,0-2.56-.68-2.16-2.41l1.3-5.61h-.65c-.63,0-.96,.02-1.54,.1l.46-1.99c.48,.08,.8,.1,1.52,.1h.63l.12-.52c.17-.73,.29-1.47,.36-2.08h2.45Z"/></g><path class="cls-1" d="M95.56,19l5.88-5.61h7.68l-7.87,29.97h-6.42l6.22-24.36h-5.5Z"/></g><rect class="cls-2" x="58.68" y="48.77" width="49.69" height=".92"/><rect class="cls-2" x="31.07" y="44.17" width="49.69" height=".92"/></g></g></g></g></svg>