<?xml version="1.0" encoding="UTF-8"?><svg id="Layer_2" xmlns="http://www.w3.org/2000/svg" viewBox="0 0 765 177"><defs><style>.cls-1{fill:none;}.cls-2{fill:#fff;}.cls-3{fill:#fcee21;}.cls-4{fill:#333;}.cls-5{fill:#0c5faa;}</style></defs><g id="PC"><g><rect class="cls-1" width="765" height="177"/><g><g><path class="cls-4" d="m110.37,113.75c-1.64,1.98-2.37,2.8-4.44,4.78-2.17-2.75-3.04-3.62-5.31-5.36,4.05-3.43,6.61-6.52,8.4-10.04.72-1.45,1.01-2.22,1.21-3.19l7.96.92c-.1.19-.53,1.06-1.25,2.56h21c2.61,0,4.34-.1,5.94-.29v7.14c-1.74-.14-3.52-.24-5.94-.24h-24.81c-.39.58-.53.77-1.01,1.5h22.92c2.56,0,4.39-.05,5.5-.19v6.03c-1.54-.15-2.99-.19-5.5-.19h-19.98c-1.98,0-3.23.05-4.68.19v-3.62Zm18.97,13.66c-.39.48-.58.72-1.64,2.17-1.21,1.74-2.22,2.99-3.57,4.49,3.48,2.65,4.54,3.57,7.43,6.08l-5.07,5.65c-2.46-2.41-4.3-4.1-7.58-6.8-3.72,2.99-7.05,4.92-12.74,7.48-1.45-2.61-2.56-4.1-4.83-6.32,5.89-2.17,8.3-3.38,11.68-5.74-2.8-2.03-4.05-2.85-7.34-4.83l4.92-4.49h-1.01c-2.85,0-4.58.1-6.08.24v-6.8c.87.14,2.03.19,3.76.19h26.01c3.33,0,4.3-.05,5.79-.14-.19,1.5-.24,3.04-.24,4.78,0,7.19.68,11.68,2.12,13.75.48-.82.72-2.85.72-5.26v-.87c1.88,1.69,3.09,2.51,5.16,3.47-.48,4.88-1.11,7.48-2.12,9.22-.96,1.54-2.36,2.37-4.05,2.37-2.46,0-4.92-2.17-6.47-5.6-1.69-3.91-2.46-8.3-2.51-15.35h-7.58l5.21,2.32Zm-18.58-2.32c3.48,2.03,5.02,2.99,7.53,4.73,1.69-1.88,2.46-2.94,3.47-4.73h-11Z"/><path class="cls-4" d="m168.18,103.23c-1.88,5.5-3.33,14.53-3.67,23.31l3.72,1.25c-1.25,4.34-1.88,8.69-1.88,13.51,0,.92,0,1.35.14,2.37l-8.3.39c-.05-.92-.05-1.3-.24-2.56-.92-6.47-1.25-10.67-1.25-15.25,0-5.55.58-11.63,1.83-18.58.58-3.38.63-3.72.72-5.16l8.93.72Zm13.32,21.09c-2.22,2.85-3.23,4.92-3.23,6.66,0,2.22,2.17,3.43,6.27,3.43s8.35-.68,12.02-1.98l.48,8.54q-1.25.14-4.1.58c-2.61.38-5.6.63-8.35.63-4.49,0-7.48-.63-9.99-2.03-2.7-1.54-4.44-4.54-4.44-7.67,0-2.37.82-5.02,2.32-7.53.68-1.11.96-1.59,2.27-3.47l6.76,2.85Zm-9.46-17.42c2.27.48,4.83.72,8.59.72,6.42,0,11.15-.39,14.38-1.21l.34,8.25c-.43,0-.92.05-3.57.34-3.33.34-6.85.53-10.18.53-2.94,0-5.36-.1-8.3-.39-.39-.05-.72-.05-1.4-.1l.14-8.16Z"/><path class="cls-4" d="m226.43,101.73c-.29.87-.34.87-.92,3.86-.24,1.16-.34,1.59-.58,2.7,3.09-.34,5.16-.68,6.71-1.16l.15,7.82q-1.16.1-3.57.39c-1.3.14-3.96.38-5.16.48-1.74,5.7-2.99,9.03-5.26,14-1.01,2.22-1.45,3.09-3.33,6.85q-.63,1.21-.92,1.88l-7.87-4.3c3.43-4.58,6.76-11.44,8.93-18.24h-2.7q-1.11,0-2.22-.05h-1.88v-7.72c1.83.34,4.05.48,7.05.48.53,0,.77,0,1.74-.05q.05-.39.43-2.03c.39-1.64.67-4.01.72-5.74l8.69.82Zm20.75,40.69c-1.79-2.08-3.62-3.62-6.23-5.26-.14,2.27-.72,3.67-2.03,5.02-1.88,1.88-5.26,2.99-9.12,2.99s-7.14-1.16-9.12-3.19c-1.59-1.64-2.41-3.72-2.41-5.98,0-5.6,4.68-9.51,11.39-9.51,1.01,0,1.79.05,3.38.29-.15-1.83-.19-2.75-.19-3.86,0-1.98.1-3.52.29-5.7l7.96.34c-.39,1.69-.53,3.14-.53,5.46,0,1.74.1,3.19.39,5.6,2.94,1.3,5.21,2.61,7.43,4.29.14.1.92.72,2.36,1.88l-3.57,7.63Zm-17.28-9.07c-2.27,0-3.72.96-3.72,2.46,0,1.4,1.35,2.32,3.43,2.32,2.41,0,3.67-1.06,3.67-3.09,0-.34-.05-1.01-.1-1.06-1.3-.48-2.12-.63-3.28-.63Zm17.76-13.56c-4.54-2.85-9.27-5.02-15.01-6.95l4.01-6.66c6.08,2.17,10.04,3.91,14.53,6.52l-3.52,7.09Z"/><path class="cls-4" d="m264.5,103.23c2.03.24,3.81.34,6.95.34,4.29,0,9.65-.19,14.53-.58,2.12-.14,2.75-.29,3.67-.68l3.96,5.84q-1.25.72-7.77,6.32c-2.56,2.17-3.43,2.9-6.66,5.26,2.7-.68,4.1-.87,6.61-.87,4.54,0,7.77,1.06,10.33,3.28,2.32,2.08,3.52,4.88,3.52,8.35,0,4.88-2.27,8.74-6.66,11.34-3.33,1.93-7.96,3.04-12.79,3.04-8.16,0-13.13-3.23-13.13-8.59,0-4.49,4.01-7.72,9.6-7.72,3.48,0,6.56,1.35,8.64,3.71.96,1.06,1.5,2.03,2.22,3.81,2.61-1.16,3.81-2.8,3.81-5.26,0-3.38-3.28-5.45-8.64-5.45s-10.52,1.59-14.87,4.44c-1.5.96-3.04,2.17-4.63,3.62l-4.49-7.34c4.44-2.07,14.62-9.99,20.61-15.93-2.56.29-4.49.38-11.29.72-1.3.05-2.22.14-3.19.24l-.34-7.92Zm11.97,31.47c-1.11,0-1.88.63-1.88,1.59,0,1.3,1.54,2.12,4.15,2.12.58,0,.68,0,1.59-.15-.63-2.32-1.98-3.57-3.86-3.57Z"/><path class="cls-5" d="m318.73,143.36c-5.24,0-6.58.06-8.74.23.23-2.86.52-4.6,1.22-6.88,1.51-4.84,4.31-9.26,8.39-13.05,2.21-2.04,4.43-3.73,10.37-7.75,5.01-3.38,6.23-4.89,6.23-7.57s-2.5-4.66-6.23-4.66c-2.8,0-4.78.93-6.06,2.91-.82,1.28-1.17,2.45-1.46,4.89l-12.23-1.28c.87-5.07,1.92-7.63,4.25-10.37,3.32-3.9,8.62-6,15.44-6,7.87,0,13.87,2.62,16.78,7.34,1.28,2.04,1.92,4.31,1.92,6.82,0,4.25-1.75,7.87-5.36,10.84-1.92,1.69-2.51,2.1-8.45,6.23-5.07,3.5-7.22,5.54-8.56,8.1h13.57c4.37,0,7.05-.12,9.32-.41v11.01c-3.38-.29-5.83-.41-9.96-.41h-20.45Z"/><path class="cls-5" d="m359.51,104.09c2.33-.23,3.79-.46,7.69-1.34,11.88-2.45,16.37-3.09,22.25-3.09s10.95,1.22,14.45,3.67c4.54,3.2,7.17,8.45,7.17,14.45,0,8.56-5.01,15.96-13.63,20.1-5.88,2.79-11.59,4.13-21.85,5.07-1.4-5.24-1.86-6.35-4.14-10.54,7.17-.06,12.18-.7,16.6-2.04,4.6-1.34,7.87-3.5,10.02-6.53,1.28-1.75,1.86-3.61,1.86-5.83,0-2.33-.7-4.19-2.16-5.65-1.86-1.92-4.54-2.8-8.62-2.8-6.18,0-13.22,1.28-22.43,4.14-2.16.64-3.67,1.22-5.01,1.86l-2.21-11.48Z"/><path class="cls-4" d="m443.6,131.9c-2.8,6.18-6.03,8.88-10.42,8.88-6.47,0-11-6.18-11-15.01,0-5.65,1.93-10.76,5.55-14.72,4.25-4.63,10.38-7.09,17.47-7.09,6.47,0,12.16,2.17,15.73,5.94,3.09,3.28,4.73,7.96,4.73,13.42,0,6.27-2.36,11.97-6.42,15.59-3.28,2.94-7.09,4.49-13.85,5.55-1.16-3.47-2.08-5.21-4.1-7.91,4.54-.34,7.53-1.11,10.14-2.46,3.72-1.98,5.79-6.03,5.79-11.2,0-4.1-1.45-7.38-4.25-9.51-1.25-.97-2.32-1.4-4.05-1.69-1.06,8.3-2.7,14.53-5.31,20.22Zm-8.3-17.67c-3.19,2.7-5.26,7.19-5.26,11.49,0,3.43,1.3,6.13,2.99,6.13,1.21,0,2.46-1.69,3.91-5.36,1.69-4.34,3.09-9.94,3.62-14.72-2.03.29-3.57,1.01-5.26,2.46Z"/><path class="cls-4" d="m489.11,120.94c-.19.77-.19.87-.34,1.74-1.4,7.43-3.91,13.75-7.48,19.06-2.56-1.69-5.41-3.14-7.96-3.96,3.86-5.02,6.9-12.6,7.48-18.77l8.3,1.93Zm28.33-4.15c-1.59-.19-3.23-.24-7.43-.29h-9.36v21.19c0,3.23.1,5.84.24,7.24h-9.12c.19-1.88.29-3.62.29-7.34v-21.09h-8.93c-4.25,0-5.55.05-7.29.29v-8.25c1.74.29,3.33.39,7.38.39h8.83v-1.88c0-2.56-.1-3.96-.29-5.36h9.17c-.19,1.35-.29,2.8-.29,5.45v1.79h10.38c-1.11-1.06-1.74-2.46-1.74-4.01,0-3.04,2.41-5.45,5.45-5.45s5.41,2.41,5.41,5.45c0,1.98-1.01,3.72-2.7,4.73v7.14Zm-5.89,2.12c1.4,6.28,4.68,14.04,7.82,18.44-2.94,1.3-5.55,2.8-7.96,4.49-3.52-6.42-5.12-10.57-7.14-18.53-.39-1.59-.43-1.64-.72-2.37l8.01-2.03Zm.43-14c0,1.45,1.25,2.7,2.7,2.7s2.75-1.26,2.75-2.7-1.25-2.75-2.7-2.75-2.75,1.25-2.75,2.75Z"/><path class="cls-4" d="m568.59,106.75c-1.06.92-1.11.96-1.88,1.79-3.81,3.91-7.24,6.9-11.15,9.7v18.58c0,3.96.05,5.21.29,7.82h-9.36c.24-2.56.29-3.62.29-7.77v-13.32c-5.02,2.94-8.88,4.68-15.78,7.14-1.3-3.23-2.27-4.83-4.63-7.77,10.47-2.94,17.86-6.56,25.63-12.55,4.15-3.14,7.38-6.42,8.78-8.83l7.82,5.21Z"/><path class="cls-4" d="m583.88,104.19c6.08,3.57,9.22,5.79,13.27,9.46l-5.7,7.53c-4.2-4.39-8.3-7.58-13.13-10.18l5.55-6.81Zm-5.07,29.97c4.92-.39,9.99-1.59,14.53-3.47,6.08-2.51,10.42-6.13,14.14-11.92,2.03-3.09,3.33-5.74,4.73-9.46,2.36,2.85,3.47,3.81,7.09,6.47-4.39,9.51-8.98,15.2-15.73,19.55-5.21,3.38-9.8,5.16-18.77,7.24-1.88.43-2.17.48-3.47.87l-2.51-9.27Z"/><path class="cls-4" d="m633.4,144.4c.19-2.17.29-3.57.29-7.38v-28.09c0-3.91-.05-4.39-.34-7h9.32c-.19,1.4-.24,3.81-.24,7.05v6.61c8.2,2.7,14.43,5.55,21.96,10.04l-4.59,8.21c-4.68-3.23-10.38-6.37-15.2-8.4q-1.69-.68-2.17-.96v12.55c0,3.23.1,5.65.29,7.38h-9.31Z"/></g><g><polygon class="cls-5" points="592.91 76.22 213.56 76.22 231.2 25.05 610.55 25.05 592.91 76.22"/><g><path class="cls-3" d="m244.39,43.67c-.86.83-1.32,1.2-2.53,2.16-.96-1.17-1.36-1.6-2.25-2.34,2.9-2.1,4.59-3.82,5.73-5.95.28-.52.52-1.05.65-1.51l3.57.68q-.25.37-.65,1.11c-.31.52-.55.92-.99,1.57h14.95c1.88,0,2.93-.06,3.88-.19v3.39c-1.02-.09-1.45-.12-3.02-.15v4.1h1.2c1.45,0,2.13-.03,3.02-.19v3.45c-.89-.15-1.6-.19-3.02-.19h-1.2v4.13h.62c1.45,0,2.13-.03,2.93-.15v3.39c-.8-.16-1.54-.19-2.87-.19h-21.02c-1.2,0-1.88.03-2.74.19v-3.39c.83.12,1.63.15,3.02.15h.71v-4.13h-1.32c-1.39,0-2.1.03-3.02.19v-3.45c.89.15,1.57.19,3.02.19h1.32v-2.87Zm-4.38,19.23c1.88-1.85,2.77-3.18,3.82-5.76l2.83,1.42c-1.26,2.99-2.06,4.25-3.97,6.47l-2.68-2.13Zm7.43-16.36h2.5v-4.1h-2.5v4.1Zm0,7.21h2.5v-4.13h-2.5v4.13Zm1.45,11.15v-1.26c0-1.17-.25-3.94-.46-5.46l2.99-.34c.52,2.8.71,4.16.83,6.75l-3.36.31Zm6.41-18.36v-4.1h-2.56v4.1h2.56Zm0,7.21v-4.13h-2.56v4.13h2.56Zm.74,11.06c-.46-2.99-.65-3.85-1.45-6.47l2.99-.68c.86,2.44,1.26,3.79,1.82,6.41l-3.36.74Zm4.65-18.27v-4.1h-2.62v4.1h2.62Zm0,7.21v-4.13h-2.62v4.13h2.62Zm4.13,11.09c-1.11-2.56-1.88-3.85-3.7-6.44l2.65-1.33c1.79,2.19,2.71,3.58,4.01,5.92l-2.96,1.85Z"/><path class="cls-3" d="m276.87,41.88c-2,.4-2.65.49-4.5.77-.25-1.05-.56-1.79-1.14-2.96,5.09-.52,9.95-1.73,11.86-2.96l2,2.83c-2.22.77-3.64,1.2-4.99,1.57v3.98h2.47c1.11,0,1.88-.03,2.59-.15v3.36c-.77-.12-1.51-.15-2.65-.15h-2.25c1.2,2.22,2.65,3.91,4.93,5.76-.62.83-1.23,2-1.63,3.02-1.82-1.85-2.5-2.8-3.61-4.93.09,1.05.15,2.31.15,3.88v5.36c0,1.94.03,2.84.19,3.91h-3.67c.15-1.14.22-2.16.22-3.91v-5.15c0-1.23.06-2.65.15-3.7-.89,2.25-1.33,3.11-2.1,4.34-.86,1.33-1.51,2.16-2.68,3.39-.62-1.45-1.08-2.31-1.73-3.24,1.33-1.23,2.31-2.43,3.36-4.13.8-1.3,2-3.58,2.4-4.62h-2.22c-1.2,0-1.97.06-2.83.19v-3.42c.8.15,1.51.19,2.9.19h2.77v-3.24Zm13.56-2.9c-.15,1.02-.19,1.91-.19,3.73v11.65c0,1.97.03,2.74.15,3.67h-3.64c.12-.89.15-1.54.15-3.61v-11.71c0-1.79-.03-2.65-.19-3.73h3.7Zm7.33-1.85c-.15,1.23-.22,2.43-.22,4.19v19.81c0,1.63-.4,2.53-1.39,3.05-.74.4-1.79.52-4.28.52-.77,0-1.23,0-2.28-.06-.25-1.39-.49-2.09-1.05-3.42,1.76.19,2.93.28,4.07.28,1.36,0,1.57-.12,1.57-.92v-19.26c0-1.54-.06-2.83-.18-4.19h3.76Z"/><path class="cls-3" d="m301.31,62.28c1.76-2.25,2.37-3.48,3.3-6.44l2.99,1.14c-1.02,3.2-1.82,4.87-3.48,7.33l-2.8-2.03Zm11.12-23.05c.59-1.17.89-1.97,1.14-2.93l3.7.43c-.62,1.35-.77,1.69-1.23,2.5h6.25c1.76,0,2.74-.03,3.73-.12-.09.95-.12,1.82-.12,3.58v8.44c0,1.88.03,2.65.12,3.51-.83-.09-1.91-.12-3.42-.12h-14.08c-1.66,0-2.47.03-3.42.12.09-.95.12-1.57.12-3.51v-8.44c0-1.66-.03-2.68-.12-3.58.99.09,1.97.12,3.73.12h3.61Zm-3.97,4.44h14.21v-1.76h-14.21v1.76Zm0,4.07h14.21v-1.66h-14.21v1.66Zm0,4.13h14.21v-1.73h-14.21v1.73Zm3.91,8.81c0,.62.09.8.4.92.37.12,1.23.19,2.53.19,2.4,0,3.61-.09,4.1-.31.49-.25.68-1.02.74-2.93,1.33.62,2.1.86,3.33.99-.34,2.74-.59,3.51-1.26,4.1-.86.74-2.68,1.05-6.56,1.05-3.24,0-4.47-.12-5.36-.55-.86-.4-1.17-1.02-1.17-2.5v-3.58c0-1.11-.03-1.63-.19-2.49h3.61c-.12.71-.15,1.29-.15,2.49v2.62Zm4.96-.46c-1.17-1.45-2.37-2.65-3.82-3.82l2.43-1.76c1.63,1.26,2.37,1.97,3.82,3.51l-2.43,2.06Zm9.43,3.76c-1.08-2.62-2.1-4.47-3.91-6.99l2.71-1.33c1.94,2.43,2.77,3.73,4.25,6.66l-3.05,1.66Z"/><path class="cls-3" d="m334.84,39.63c0-1.11-.03-1.88-.15-2.62h3.36c-.12.74-.15,1.51-.15,2.62v.52h4.44v-.52c0-1.2-.03-1.94-.15-2.62h3.36c-.12.71-.15,1.48-.15,2.62v.52c1.08-.03,1.57-.06,2.1-.15v3.11c-.52-.09-.99-.12-2.1-.12v11.89c1.02-.03,1.29-.03,1.85-.12v3.08c-.59-.06-1.33-.09-2.59-.09h-10.11c-1.26,0-1.79.03-2.37.12v-3.11c.62.09,1.11.12,2.28.12h.4v-11.89c-1.29,0-1.79.03-2.34.12v-3.11c.52.12,1.05.15,2.34.15v-.52Zm4.44,20c-1.57,2.59-2.4,3.54-4.74,5.61-.68-.92-1.14-1.42-2.37-2.43,2.13-1.51,3.2-2.65,4.5-4.78l2.62,1.6Zm3.05-14.61v-2.03h-4.44v2.03h4.44Zm0,4.81v-2.1h-4.44v2.1h4.44Zm0,5.05v-2.34h-4.44v2.34h4.44Zm.74,3.2c1.08,1.66,1.14,1.73,2.87,3.3-.96.74-1.66,1.42-2.31,2.28q-1.76-1.94-2.99-3.97l2.43-1.6Zm8.14-2.65c-.46,4.87-1.23,7.12-3.39,9.89-.96-1.08-1.54-1.6-2.62-2.5,1.51-1.69,2.22-3.27,2.65-5.73.43-2.65.62-7.21.62-15.13,0-2.09-.03-2.96-.15-4.01.99.09,1.82.12,3.42.12h4.47c1.69,0,2.4-.03,3.33-.12-.09.77-.12,1.69-.12,3.39v20.43c0,1.51-.43,2.47-1.29,2.84-.62.28-1.7.43-3.05.43-.37,0-.43,0-1.94-.09-.15-1.32-.34-2.09-.8-3.39,1.39.25,2,.31,2.71.31.96,0,1.17-.12,1.17-.68v-5.76h-4.99Zm.37-7.27c-.03,1.82-.06,2.96-.15,4.34h4.78v-4.34h-4.62Zm4.62-7.03h-4.59v4.07h4.59v-4.07Z"/><path class="cls-3" d="m367.53,61.23c0,1.85.06,2.96.18,3.79h-3.61c.12-.92.18-1.91.18-3.82v-20.12c0-1.6-.03-2.47-.12-3.45.86.09,1.66.12,3.17.12h5.45c1.6,0,2.31-.03,3.14-.12-.06.99-.09,1.66-.09,2.87v4.72c0,1.42.03,2.13.09,2.8-.8-.06-1.76-.09-2.83-.09h-5.58v13.31Zm0-19.45h5.3v-1.54h-5.3v1.54Zm0,3.76h5.3v-1.57h-5.3v1.57Zm15.81,13.25c0,1.17.03,1.88.09,2.68.68.06,1.79.15,2.34.15.86,0,1.14-.21,1.14-.83v-12.88h-6.07c-1.08,0-2.06.03-2.84.09.06-.89.09-1.48.09-2.8v-4.72c0-1.05-.03-1.91-.09-2.87.83.09,1.57.12,3.14.12h5.92c1.54,0,2.31-.03,3.17-.12-.09,1.11-.12,1.88-.12,3.42v20.19c0,1.85-.37,2.65-1.48,3.11-.65.28-1.57.37-3.48.37-.43,0-.55,0-2.13-.09-.18-1.39-.34-1.94-.8-3.18-.89-.03-1.48-.03-1.73-.03h-6.53v1.73h-3.27c.12-.74.22-1.97.22-3.08v-7.52c0-1.08-.03-1.94-.09-2.77.89.09,1.6.12,2.87.12h6.87c1.29,0,1.97-.03,2.87-.12-.06.8-.09,1.57-.09,2.77v6.25Zm-9.37-4.47h6.29v-1.85h-6.29v1.85Zm0,4.5h6.29v-2h-6.29v2Zm7.18-17.04h5.76v-1.54h-5.76v1.54Zm0,3.76h5.76v-1.57h-5.76v1.57Z"/><path class="cls-2" d="m406.64,55.41c-1.76,3.97-3.73,5.79-6.26,5.79-3.51,0-6.04-3.57-6.04-8.54,0-3.39,1.2-6.56,3.39-8.97,2.59-2.83,6.23-4.31,10.6-4.31,7.4,0,12.2,4.5,12.2,11.43,0,5.33-2.77,9.58-7.49,11.49-1.48.62-2.68.92-4.84,1.29-.52-1.63-.89-2.31-1.88-3.61,2.83-.37,4.68-.86,6.13-1.7,2.68-1.48,4.28-4.41,4.28-7.7,0-2.96-1.33-5.36-3.79-6.84-.96-.55-1.76-.8-3.11-.92-.59,4.84-1.66,9.09-3.2,12.57Zm-4.53-11.03c-2.59,1.85-4.19,5.02-4.19,8.32,0,2.53,1.08,4.53,2.43,4.53,1.02,0,2.06-1.3,3.17-3.94,1.17-2.77,2.19-6.93,2.56-10.42-1.6.19-2.71.62-3.97,1.51Z"/><path class="cls-2" d="m448.52,44.38c-.25.55-.31.99-.34,2.06-.09,3.48-.43,8.23-.74,10.26-.8,5.33-1.88,6.59-5.58,6.59-1.17,0-2.22-.09-3.82-.34-.06-1.94-.15-2.53-.71-3.94,1.82.49,3.05.71,4.07.71,1.33,0,1.79-.68,2.28-3.36.37-2.13.68-6.32.68-9.86l-7.18.03c-.43,3.85-1.08,6.16-2.47,8.81-1.7,3.27-4.44,6.07-8.32,8.54-1.05-1.64-1.48-2.13-2.77-3.27,3.85-2.03,6.38-4.47,8.01-7.76.83-1.7,1.29-3.2,1.57-5.36.06-.43.12-.74.15-.95l-5.12.03c-1.88,0-2.31.03-3.33.15l-.03-3.79c1.05.18,1.88.25,3.42.25l5.39-.03c.09-1.17.15-2.96.15-3.85v-.77c0-.4,0-.65-.09-1.2l4.13.09c-.06.4-.09.52-.12.95,0,.19-.03.37-.03.59q-.06.65-.12,2.25c-.03.68-.03.95-.12,1.94l6.84-.03c1.39,0,1.66-.03,2.43-.28l1.76,1.54Z"/><path class="cls-2" d="m453.24,48.63c1.36.19,1.94.22,4.99.22h16.42c3.05,0,3.64-.03,4.99-.22v4.28c-1.23-.15-1.57-.15-5.02-.15h-16.36c-3.45,0-3.79,0-5.02.15v-4.28Z"/><path class="cls-2" d="m486.83,63.97c.12-.86.19-1.69.19-3.45v-19.75c-.03-1.79-.06-2.4-.19-3.14h4.22c-.09.83-.12,1.42-.12,3.24v5.73c3.57,1.17,9.12,3.76,13.99,6.5l-2.16,3.64c-2.16-1.54-6.53-3.91-10.91-5.89-.71-.34-.8-.37-1.05-.52.09.86.12,1.39.12,2.09v8.14c0,1.66.03,2.53.12,3.42h-4.22Zm12.7-24.74c1.36,1.45,2.19,2.62,3.24,4.53l-2.16,1.14c-1.02-1.88-1.88-3.11-3.24-4.59l2.16-1.08Zm4.78,3.73c-.92-1.69-1.94-3.14-3.14-4.47l2.06-1.08c1.39,1.42,2.25,2.59,3.2,4.34l-2.13,1.2Z"/><path class="cls-2" d="m515.3,60.8v2.16h-3.97c.09-.74.12-1.48.12-2.65v-17.66c0-1.17-.03-1.76-.12-2.59.74.06,1.39.09,2.62.09h17.5c1.33,0,1.88-.03,2.59-.09-.06.8-.09,1.42-.09,2.56v17.63c0,1.14.03,1.97.12,2.68h-3.97v-2.13h-14.79Zm14.79-17.16h-14.79v13.65h14.79v-13.65Z"/><path class="cls-2" d="m539.52,48.63c1.36.19,1.94.22,4.99.22h16.42c3.05,0,3.64-.03,4.99-.22v4.28c-1.23-.15-1.57-.15-5.02-.15h-16.36c-3.45,0-3.79,0-5.02.15v-4.28Z"/><path class="cls-2" d="m568.52,58.89c2.65-.15,6.32-1.05,9.12-2.28,3.85-1.66,6.72-4.04,9.15-7.55,1.36-1.97,2.22-3.67,3.14-6.16,1.2,1.45,1.7,1.91,3.27,3.02-2.62,5.64-5.55,9.28-9.77,12.08-3.14,2.1-6.96,3.61-11.74,4.62-1.23.25-1.33.28-2.03.52l-1.14-4.25Zm2.62-19.14c3.67,2.28,5.58,3.7,7.95,5.95l-2.65,3.36c-2.47-2.62-4.99-4.65-7.86-6.26l2.56-3.05Z"/></g><g><path class="cls-3" d="m221.14,65.15l-8.11-8.55c.34-1.79.52-3.63.52-5.52,0-16.32-13.23-29.55-29.55-29.55s-29.55,13.23-29.55,29.55,13.23,29.55,29.55,29.55c10.04,0,18.91-5.01,24.25-12.67l12.89-2.82Z"/><g><path class="cls-5" d="m172.64,63.38l-4.12,1.43-.34-3.49,4.12-1.43-.11-1.04-4.1,1.43-.34-3.49,3.04-1.06-5.28-6.58,5.44-1.89,3.12,4.48,1.7-6.16,6.13-2.13-3.61,9.67,2.93-1.02.34,3.49-4.09,1.43.09,1.04,4.09-1.42.34,3.49-4.12,1.43.24,2.51-5.24,1.82-.25-2.51Z"/><path class="cls-5" d="m186.11,54.09c-2.06-5.9-.15-12.47,5.04-14.28,4.14-1.44,7.55.93,8.82,4.57,2.05,5.9.15,12.47-5.04,14.28-4.14,1.44-7.55-.93-8.82-4.57Zm8.78-7.36c-.56-1.62-1.55-2.08-2.47-1.76-2.01.7-2.08,4.34-1.23,6.77.57,1.62,1.55,2.08,2.47,1.76,2.01-.7,2.08-4.34,1.23-6.77Z"/></g></g></g></g></g></g></svg>