<?xml version="1.0" encoding="UTF-8"?><svg id="Layer_2" xmlns="http://www.w3.org/2000/svg" viewBox="0 0 885 180"><defs><style>.cls-1{fill:none;}.cls-2{fill:#e6e6e6;}.cls-3{fill:#ee628a;}.cls-4{fill:#fde2ea;}.cls-5{fill:#fbd747;}.cls-6{fill:#333;}.cls-7{fill:#d7ebf6;}.cls-8{fill:#d2d8d5;}</style></defs><g id="PC"><g><rect class="cls-1" width="885" height="180"/><g><g><path class="cls-6" d="m194.63,120.21c.18-2.34.3-5.82.3-7.68,0-1.26,0-1.74-.18-3l11.27.3c-.3,1.38-.3,1.56-.66,7.26q-.06,1.62-.18,3.06h13.07c1.98,0,2.7-.12,4.02-.66l4.68,4.08c-.66,1.2-.78,1.68-.84,4.44-.42,12.83-1.32,22.85-2.52,26.81-1.74,5.58-4.62,7.5-11.27,7.5-2.34,0-3.24-.06-7.86-.48-.24-4.8-.66-6.78-2.04-10.55,3,.78,5.94,1.2,7.8,1.2,2.88,0,3.6-.96,4.38-6.18.6-4.02,1.14-11.57,1.14-16.73h-11.45q-.48,3.96-.9,6c-2.64,12.11-8.33,19.91-20.51,27.94-2.7-4.26-4.5-6.3-7.8-9.12,7.98-4.2,12.59-8.46,15.59-14.51,1.5-3.06,2.16-5.22,3-10.25h-7.5c-4.02,0-5.28.06-8.1.36l-.06-10.25c3,.42,4.08.48,8.34.48h8.28Z"/><path class="cls-6" d="m240.33,130.58c2.82.42,6.06.54,12.29.54h28.66c6,0,8.28-.12,12.29-.54v11.57c-2.88-.3-5.52-.36-12.35-.36h-28.54c-6.72,0-8.69.06-12.35.36v-11.57Z"/><path class="cls-6" d="m311.93,162.79c.24-2.52.3-4.26.36-9.17v-34.9c-.06-5.16-.06-5.46-.42-8.7h11.57c-.24,1.56-.24,2.52-.3,8.76v8.21c9.47,3.06,18.89,7.32,27.29,12.47l-5.7,10.19c-4.98-3.54-11.93-7.38-18.89-10.43-1.8-.72-1.98-.78-2.16-.9-.18-.06-.3-.12-.54-.3v15.59c0,4.44.12,7.62.36,9.17h-11.57Zm27.11-49.41c2.34,2.64,4.26,5.4,5.94,8.58l-5.7,2.76c-1.98-3.78-3.54-6-5.94-8.75l5.7-2.58Zm7.98-3.6c2.22,2.4,3.9,4.68,6,8.33l-5.52,2.7c-2.1-3.78-3.78-6.18-5.88-8.58l5.4-2.46Z"/><path class="cls-6" d="m378.2,157.39v4.14h-10.91c.36-3.3.48-5.34.48-9.77v-30.82c0-2.58-.06-4.44-.24-6.9,2.1.18,3.3.24,7.26.24h32.32c3.72,0,4.62,0,7.44-.24-.12,2.1-.18,4.26-.18,7.08v30.4c0,4.62.12,7.5.42,9.89h-10.85v-4.02h-25.73Zm25.73-33.52h-25.73v23.93h25.73v-23.93Z"/><path class="cls-6" d="m429.6,130.58c2.82.42,6.06.54,12.29.54h28.66c6,0,8.28-.12,12.29-.54v11.57c-2.88-.3-5.52-.36-12.35-.36h-28.54c-6.72,0-8.69.06-12.35.36v-11.57Z"/><path class="cls-6" d="m500.72,112.83c7.56,4.44,11.45,7.2,16.49,11.75l-7.08,9.36c-5.22-5.46-10.31-9.42-16.31-12.65l6.9-8.46Zm-6.3,37.24c6.12-.48,12.41-1.98,18.05-4.32,7.56-3.12,12.95-7.62,17.57-14.81,2.52-3.84,4.14-7.14,5.88-11.75,2.94,3.54,4.32,4.74,8.82,8.04-5.46,11.81-11.15,18.89-19.55,24.29-6.48,4.2-12.17,6.42-23.33,9-2.34.54-2.7.6-4.32,1.08l-3.12-11.51Z"/></g><g><path class="cls-3" d="m573.32,162.04c-8.1,0-10.17.09-13.5.36.36-4.41.81-7.11,1.89-10.62,2.34-7.47,6.66-14.3,12.96-20.15,3.42-3.15,6.84-5.76,16.01-11.97,7.74-5.22,9.63-7.56,9.63-11.7s-3.87-7.2-9.63-7.2c-4.32,0-7.38,1.44-9.36,4.5-1.26,1.98-1.8,3.78-2.25,7.56l-18.89-1.98c1.35-7.83,2.97-11.79,6.57-16.01,5.13-6.03,13.32-9.27,23.84-9.27,12.14,0,21.41,4.05,25.91,11.33,1.98,3.15,2.97,6.66,2.97,10.53,0,6.57-2.7,12.15-8.28,16.73-2.97,2.61-3.87,3.24-13.04,9.63-7.83,5.4-11.16,8.55-13.22,12.5h20.96c6.75,0,10.89-.18,14.39-.63v17c-5.22-.45-9-.63-15.38-.63h-31.58Z"/><path class="cls-6" d="m651.11,151.15c1.86,2.7,3.42,3.66,6.42,4.08-1.68-2.04-1.98-2.4-4.68-4.86,3.6-.66,5.58-1.2,8.46-2.22h-4.62c-2.16,0-3.06.06-4.26.24v-6.96c1.32.18,1.92.24,4.14.24h3.06v-2.64h-.54c-3.3,0-4.02.06-5.64.24v-6.78c1.56.18,2.22.18,5.64.18h.54v-2.16c-3.42,0-4.68-.12-5.58-.48-1.44-.6-2.04-1.68-2.04-3.6v-6.36l-5.88,5.88c-3.36-4.5-5.52-6.84-10.37-10.97l6.72-6.54c4.08,3.36,6.84,6.06,9.54,9.17,1.5.12,1.86.12,4.38.12h5.52v-1.74h-5.7c-2.7,0-3.54,0-5.04.18v-6.72c1.56.12,3.24.18,5.16.18h8.46c3.12,0,4.02,0,5.34-.12-.18.6-.18,1.08-.18,2.1l.06,1.2v6.42c0,1.74,0,2.7.12,3.48-1.44-.06-2.64-.12-4.02-.12h-6.48v1.32c0,.9.18,1.02,1.86,1.02,1.08,0,1.8-.12,2.1-.3.18-.18.36-.78.36-1.56v-.36c2.64.96,4.5,1.44,6.96,1.74-.42,3.6-.84,4.44-2.7,5.34v2.88h6.36v-2.58c-1.8-.6-2.58-1.8-2.58-3.72v-4.86q0-1.86-.18-3.9c1.5.12,1.98.12,4.56.12h5.46v-1.74h-5.1c-2.7,0-3.54,0-5.04.18v-6.72c1.56.12,3.24.18,5.16.18h8.22c3.12,0,4.02,0,5.34-.12-.12.72-.12,1.14-.12,2.04v7.68c0,1.8,0,2.7.12,3.48-1.44-.06-2.64-.12-4.02-.12h-6.36v1.38c0,.78.42,1.02,2.04,1.02,1.02,0,1.92-.12,2.16-.36q.18-.18.36-1.2v-.72c2.22.78,4.5,1.26,7.5,1.62-.3,3.12-.84,4.38-2.16,5.16-1.08.66-2.46.84-6.84.96v2.22h1.98c3.36,0,4.02,0,5.58-.18v6.78c-1.68-.18-2.34-.24-5.58-.24h-1.92v2.64h3.06c3.42,0,4.08,0,5.7-.18v6.84c-1.74-.18-2.4-.18-5.7-.18h-4.14c3.36,1.08,5.64,1.62,9.77,2.1-1.68,1.74-1.86,2.04-3.54,4.62,1.44-.12,2.34-.24,5.04-.6-1.2,3.24-1.74,5.7-2.22,9.42-5.28.18-13.79.3-22.85.3s-12.29-.3-15.17-1.32c-2.4-.84-4.14-2.04-6.24-4.38-2.58,2.34-3.66,3.18-7.98,6.3l-3.9-9.65c1.74-.6,4.14-2.1,7.26-4.56v-11.33h-2.46c-1.32,0-2.16.06-3.72.3v-9.05c1.68.24,2.64.3,4.92.3h5.76c2.46,0,3,0,4.5-.18-.12,1.74-.12,2.34-.12,6.72v14.03Zm19.79-.3c-3.36,2.1-6.24,3.48-9.95,4.74,1.92.06,4.62.12,7.32.12,3.24,0,9.96-.18,13.19-.36-2.94-.96-5.28-2.1-9-4.5l3.84-2.7h-9.54l4.14,2.7Zm-2.7-9.17h6.36v-2.64h-6.36v2.64Z"/></g></g><g><path class="cls-3" d="m351.9,72.88c-5.76-4.68-9.65-7.38-15.77-11.09-3.36,2.82-7.56,5.22-12.17,7.02-4.74,1.8-9.29,2.82-16.07,3.6-1.32-3.9-2.52-6.48-4.26-9.05,5.04-.3,7.98-.72,11.57-1.62,4.68-1.14,8.58-2.76,11.93-4.92-2.82-1.38-4.92-2.34-8.52-3.84-.6.84-1.02,1.5-1.92,2.82-3.54-1.74-5.64-2.58-9.53-3.96,4.14-5.16,6.6-9.06,9.59-15.29h-4.98c-3.36,0-5.82.12-7.92.36v-9.59c2.16.24,4.62.36,7.86.36h8.7c1.62-4.38,2.76-8.4,3.24-11.45l10.85,1.26c-.48,1.2-.9,2.52-1.44,4.08-.9,3-1.44,4.56-1.98,6.12h20.03c3.48,0,5.88-.12,7.92-.36v9.59c-2.16-.24-4.5-.36-7.62-.36h-1.8c-1.38,7.86-3.18,12.53-6.84,17.81,6.42,3.66,10.37,6.18,15.89,10.37l-6.78,8.16Zm-24.35-36.34c-1.5,3.48-2.34,5.28-4.2,8.58,3.78,1.44,6.72,2.7,10.97,4.74,2.52-3.54,4.08-7.5,5.34-13.31h-12.11Z"/><path class="cls-3" d="m367.97,43.5c.96-4.32,1.5-8.88,1.5-13.19,0-.3,0-1.38-.06-2.46l5.1.72c0,7.38-.42,12.17-1.38,17.03l-5.16-2.1Zm16.25,21.71c0,3.54.06,5.4.3,7.56h-9.42c.24-2.34.36-5.04.36-8.21V22.87c0-3.06-.06-4.56-.36-6.66h9.42c-.24,2.16-.3,3.54-.3,6.66v4.62l3.42-1.5c1.02,2.22,1.26,2.88,2.34,6.24.9-4.02,1.68-9.36,1.68-11.81,0-.12,0-.42-.06-.72l8.75,1.56c-.18.78-.3,1.5-.48,3.12-.18,1.02-.24,1.62-.48,3.36h3v-4.8c0-2.94-.06-4.5-.36-6.66h9.89c-.3,2.1-.36,3.6-.36,6.66v4.8h5.16c3.24,0,5.4-.12,6.96-.36v9.23c-2.04-.24-4.32-.36-6.9-.36h-5.22v8.4h4.14c3.48,0,5.16-.06,6.9-.3v8.88c-1.5-.18-3.84-.3-7.02-.3h-4.02v9.59h5.76c3.18,0,5.76-.12,7.5-.36v9.29c-1.92-.24-4.56-.36-7.5-.36h-23.63c-2.94,0-5.58.12-7.5.36v-9.29c1.68.24,4.44.36,7.5.36h8.7v-9.59h-4.5c-.9,0-2.46.06-4.8.12-.6,0-1.2.06-2.34.18v-8.88c1.26.18,1.98.24,3.66.3-2.76-1.8-3.84-2.4-7.68-4.14,1.02-1.74,1.56-2.88,2.22-4.68l-2.94,1.44c-.42-2.34-1.02-4.5-1.8-6.96v34.9Zm13.49-28.96c-.96,3.96-1.62,6.06-2.76,8.4h7.44v-8.4h-4.68Z"/><path class="cls-3" d="m449.06,27.57c-1.95,5.7-3.45,15.04-3.8,24.14l3.85,1.3c-1.3,4.5-1.95,9-1.95,13.99,0,.95,0,1.4.15,2.45l-8.6.4c-.05-.95-.05-1.35-.25-2.65-.95-6.7-1.3-11.04-1.3-15.79,0-5.75.6-12.04,1.9-19.24.6-3.5.65-3.85.75-5.35l9.25.75Zm13.79,21.84c-2.3,2.95-3.35,5.1-3.35,6.9,0,2.3,2.25,3.55,6.5,3.55s8.65-.7,12.44-2.05l.5,8.84q-1.3.15-4.25.6c-2.7.4-5.8.65-8.65.65-4.65,0-7.75-.65-10.34-2.1-2.8-1.6-4.6-4.7-4.6-7.95,0-2.45.85-5.2,2.4-7.8.7-1.15,1-1.65,2.35-3.6l7,2.95Zm-9.79-18.04c2.35.5,5,.75,8.89.75,6.65,0,11.54-.4,14.89-1.25l.35,8.54c-.45,0-.95.05-3.7.35-3.45.35-7.1.55-10.54.55-3.05,0-5.55-.1-8.6-.4-.4-.05-.75-.05-1.45-.1l.15-8.45Z"/><path class="cls-3" d="m524.07,34.15c-.9.12-1.08.12-2.28.36-2.34.42-6.12.9-9.05,1.2v5.28c3.48-.78,5.58-1.02,8.75-1.02,7.38,0,12.89,1.86,16.37,5.46,2.64,2.7,4.08,6.48,4.08,10.61,0,8.46-6.42,14.81-14.93,14.81-7.44,0-11.75-4.98-11.75-13.61v-1.5c4.38-1.26,5.82-1.86,9.11-3.66-.06,1.26-.12,1.92-.12,3.18,0,1.86.12,2.88.48,3.78.42,1.08,1.44,1.8,2.64,1.8,2.58,0,4.32-2.1,4.32-5.16,0-2.04-1.08-4.02-2.94-5.28-1.62-1.02-3.96-1.56-7.14-1.56-2.94,0-5.4.3-8.82,1.2l.06,10.61v1.56c0,3.66-.24,4.98-1.14,6.24-1.14,1.68-3.42,2.64-6.12,2.64-4.44,0-9.53-1.86-12.95-4.74-2.46-2.1-3.9-4.92-3.9-7.8,0-3.24,1.98-6.78,5.58-9.95,2.4-2.1,4.92-3.6,8.93-5.34v-7.08l-4.56.12-5.82-.12c-.18,0-.72,0-1.26.06l-.12-9.42c1.92.36,4.38.54,8.21.54h2.28q.84-.06,1.2-.06v-1.92c0-4.5-.06-5.88-.42-8.09h10.37c-.3,2.16-.36,3.54-.36,7.5v1.92c4.08-.42,7.8-1.14,10.97-2.04l.3,9.47Zm-20.81,19.01c-2.82,1.32-4.98,3.66-4.98,5.34,0,.72.42,1.32,1.32,1.92.84.54,1.98.96,2.7.96.78,0,.96-.42.96-2.4v-5.82Zm33.52-13.19c-3.06-5.34-6.48-9.42-11.81-14.09l7.92-5.34c5.1,4.14,8.82,8.33,11.81,13.25l-7.92,6.18Z"/><path class="cls-3" d="m553.58,23.89c1.5.12,2.16.18,3.66.18,1.62,0,17.75-.42,23.33-.6-.06-3.84-.12-4.62-.42-6.36h10.61c-.24,2.1-.3,2.76-.3,6.12,9.96-.06,14.39-.18,16.79-.42l.06,9.83c-2.7-.24-3.9-.3-10.79-.3-3.18,0-3.6,0-6,.06v8.88c1.74,3.18,2.4,6,2.4,10.01,0,6.72-3.48,12.59-9.89,16.61-2.94,1.8-6.36,3.18-12.05,4.86-1.68-4.26-3-6.48-5.7-9.47,6.06-.9,9.47-1.86,12.35-3.66,2.22-1.32,3.48-2.64,4.44-4.74-2.52,2.1-4.56,2.82-8.04,2.82-6.96,0-11.87-4.56-11.87-10.97,0-6.84,5.64-11.51,13.91-11.51,1.92,0,3.3.18,4.68.66v-1.86q0-.84-.06-1.44c-12.41.36-22.19.9-26.8,1.56l-.3-10.25Zm18.65,22.37c0,1.86,1.68,3.24,3.96,3.24,2.58,0,4.56-1.56,4.56-3.6,0-1.86-1.56-3.12-3.96-3.12-2.64,0-4.56,1.44-4.56,3.48Z"/><path class="cls-3" d="m616.48,23.89c1.5.12,2.16.18,3.66.18,1.62,0,17.75-.42,23.33-.6-.06-3.84-.12-4.62-.42-6.36h10.61c-.24,2.1-.3,2.76-.3,6.12,9.96-.06,14.39-.18,16.79-.42l.06,9.83c-2.7-.24-3.9-.3-10.79-.3-3.18,0-3.6,0-6,.06v8.88c1.74,3.18,2.4,6,2.4,10.01,0,6.72-3.48,12.59-9.89,16.61-2.94,1.8-6.36,3.18-12.05,4.86-1.68-4.26-3-6.48-5.7-9.47,6.06-.9,9.47-1.86,12.35-3.66,2.22-1.32,3.48-2.64,4.44-4.74-2.52,2.1-4.56,2.82-8.04,2.82-6.96,0-11.87-4.56-11.87-10.97,0-6.84,5.64-11.51,13.91-11.51,1.92,0,3.3.18,4.68.66v-1.86q0-.84-.06-1.44c-12.41.36-22.19.9-26.8,1.56l-.3-10.25Zm18.65,22.37c0,1.86,1.68,3.24,3.96,3.24,2.58,0,4.56-1.56,4.56-3.6,0-1.86-1.56-3.12-3.96-3.12-2.64,0-4.56,1.44-4.56,3.48Z"/><path class="cls-3" d="m695.34,19.57c.06,2.94.54,5.94,1.26,8.88,3.18-1.2,6.84-1.86,10.25-1.86h1.32c1.26-5.22,1.5-6.66,1.56-8.88l10.55,1.98c-.24.54-.6,1.68-1.08,3.36-.9,3.12-1.32,4.8-1.38,4.98,3.54,1.08,5.64,2.16,7.98,4.14,4.5,3.78,6.84,8.94,6.84,15.17,0,9.54-5.34,17.21-14.51,20.93-3.24,1.32-6.24,2.22-10.79,3.12-1.2-4.2-2.34-6.54-4.8-10.01,6.3-.54,11.09-1.92,14.09-3.96,3.72-2.58,5.52-6.18,5.52-10.91s-2.16-7.79-6.9-9.77c-3.24,9.42-6.3,15.77-10.13,20.93-4.98,6.72-9.54,9.77-14.63,9.77-7.26,0-12.17-6.24-12.17-15.41,0-7.62,3.36-14.33,9.65-19.13-.72-2.88-1.08-4.38-1.74-7.68-.42-2.04-.54-2.4-1.08-3.66l10.19-1.98Zm-7.74,31.78c0,3.66,1.32,5.94,3.36,5.94,1.2,0,2.46-.84,3.72-2.52-1.86-4.02-2.88-6.9-4.14-11.63-1.8,2.22-2.94,5.4-2.94,8.21Zm13.55-5.22c2.16-4.14,3.18-6.6,4.44-10.61-3.06.12-4.92.54-7.26,1.68.84,3.48,1.56,5.64,2.82,8.94Z"/><path class="cls-6" d="m765.32,57.25c-2.9,6.4-6.25,9.19-10.79,9.19-6.7,0-11.39-6.4-11.39-15.54,0-5.85,2-11.14,5.75-15.24,4.4-4.8,10.74-7.35,18.09-7.35,6.7,0,12.59,2.25,16.29,6.15,3.2,3.4,4.9,8.25,4.9,13.89,0,6.5-2.45,12.39-6.65,16.14-3.4,3.05-7.35,4.65-14.34,5.75-1.2-3.6-2.15-5.4-4.25-8.2,4.7-.35,7.79-1.15,10.49-2.55,3.85-2.05,6-6.25,6-11.59,0-4.25-1.5-7.65-4.4-9.84-1.3-1-2.4-1.45-4.2-1.75-1.1,8.59-2.8,15.04-5.5,20.94Zm-8.6-18.29c-3.3,2.8-5.45,7.45-5.45,11.89,0,3.55,1.35,6.35,3.1,6.35,1.25,0,2.55-1.75,4.05-5.55,1.75-4.5,3.2-10.29,3.75-15.24-2.1.3-3.7,1.05-5.45,2.55Z"/></g><path class="cls-4" d="m250.86,17c-10.55,0-20.1,4.3-26.98,11.25,0,0,0,0,0,0-5.99,5.25-13.03,0-13.03,0h0c-6.89-6.95-16.43-11.25-26.99-11.25s-20.1,4.3-26.98,11.25c0,0,0,0,0,0-5.99,5.25-13.03,0-13.03,0h0c-6.89-6.95-16.43-11.25-26.99-11.25-20.99,0-38,17.01-38,38s17.01,38,38,38c10.55,0,20.1-4.3,26.99-11.25h0s7.04-5.25,13.03,0c0,0,0,0,0,0,6.89,6.95,16.43,11.25,26.98,11.25s20.1-4.3,26.99-11.25h0s7.04-5.25,13.03,0c0,0,0,0,0,0,6.89,6.95,16.43,11.25,26.98,11.25,20.99,0,38-17.01,38-38s-17.01-38-38-38Z"/><path class="cls-7" d="m249.86,11c-10.55,0-20.1,4.3-26.98,11.25,0,0,0,0,0,0-5.99,5.25-13.03,0-13.03,0h0c-6.89-6.95-16.43-11.25-26.99-11.25s-20.1,4.3-26.98,11.25c0,0,0,0,0,0-5.99,5.25-13.03,0-13.03,0h0c-6.89-6.95-16.43-11.25-26.99-11.25-20.99,0-38,17.01-38,38s17.01,38,38,38c10.55,0,20.1-4.3,26.99-11.25h0s7.04-5.25,13.03,0c0,0,0,0,0,0,6.89,6.95,16.43,11.25,26.98,11.25s20.1-4.3,26.99-11.25h0s7.04-5.25,13.03,0c0,0,0,0,0,0,6.89,6.95,16.43,11.25,26.98,11.25,20.99,0,38-17.01,38-38s-17.01-38-38-38Z"/><g><path class="cls-3" d="m114.46,68.82c0,.7,0,2.19-2.23,2.19s-2.33-1.3-2.33-2.19v-2.33c-7.07,1.44-13.49,2.37-14.38,2.37-1.4,0-2-1.07-2-2.37,0-.84.28-1.35.84-1.72.37-.19.6-.23,2.98-.51v-16.42h-1.58c-.7,0-2.09-.09-2.09-1.86,0-1.63.98-2.05,2.14-2.05h39.31c1.58,0,2.09.79,2.09,1.91s-.33,2-2.09,2h-20.66v20.98Zm18.61-31.54c0,3.86-.98,4.79-4.84,4.79h-25.45c-3.86,0-4.79-.93-4.79-4.79v-4.28c0-3.77.84-4.84,4.79-4.84h25.45c3.86,0,4.84.98,4.84,4.84v4.28Zm-23.17,10.56h-8.1v3.03h8.1v-3.03Zm0,6.19h-8.1v2.98h8.1v-2.98Zm-8.1,9.77c2.61-.33,5.63-.7,8.1-1.12v-2.47h-8.1v3.58Zm26.43-30.05v-.88c0-.88-.42-1.3-1.3-1.3h-22.84c-.7,0-1.3.28-1.3,1.3v.88h25.45Zm0,2.79h-25.45v1.07c0,.93.46,1.3,1.3,1.3h22.84c.84,0,1.3-.37,1.3-1.3v-1.07Zm-10.79,17.49c-1.35,0-2.09-.6-2.09-1.95,0-1.21.6-1.91,2.09-1.91h13.21c1.81,0,4.19,0,4.19,2.88,0,2.47-2.19,6.61-5.35,10.14,1.54,1.02,3.77,2.19,5.77,2.84.84.28,1.77.61,1.77,1.95s-.98,2.7-2.42,2.7c-1.58,0-5.58-2.05-8.56-4.37-2.93,2.28-6.98,4.28-8.51,4.28-1.63,0-2.19-1.49-2.19-2.51,0-1.35.79-1.67,1.86-2,1.26-.42,3.21-1.21,5.44-2.7-1.35-1.3-2.56-2.84-4.19-5.4-.47-.74-.56-1.02-.56-1.49,0-1.07.93-1.91,2.23-1.91,1.12,0,1.63.61,2.14,1.3,2.28,3.3,2.56,3.68,3.77,4.75,2.09-2.09,3.77-5.03,3.77-5.91,0-.7-.51-.7-1.49-.7h-10.89Z"/><path class="cls-3" d="m181.08,41.81c.74,0,2.28.05,2.28,2.19s-1.54,2.14-2.37,2.14h-6v3.91h5.44c.79,0,2.42.09,2.42,2.09,0,1.72-1.12,2.14-2.42,2.14h-4.75c1.77,2.42,3.72,4.14,4.14,4.51,1.86,1.63,2.09,1.81,2.09,2.61,0,1.16-1.07,2.47-2.28,2.47-.79,0-1.16-.37-1.95-1.21-1.3-1.44-2.14-2.6-2.7-3.44v9.72c0,.65-.05,2.42-2.14,2.42-1.49,0-2.37-.56-2.37-2.42v-8.7c-1.63,2.14-3.63,4.28-4.7,5.3-1.07.98-1.58,1.3-2.33,1.3-1.4,0-2.47-1.3-2.47-2.7,0-.98.14-1.07,2.56-3.02,3.68-2.98,5.54-5.68,6.33-6.84h-5.72c-.56,0-2.42,0-2.42-2.05,0-1.54.79-2.19,2.42-2.19h6.33v-3.91h-6.89c-.88,0-2.42,0-2.42-2.14s1.54-2.19,2.37-2.19h3.02c-.19-1.54-.74-4.65-1.12-6.09h-1.54c-1.35,0-1.95-.79-1.95-2,0-1.86.88-2.28,2.28-2.28h6.23v-2c0-1.49,1.02-1.95,2.19-1.95,1.02,0,2.42.19,2.42,1.95v2h5.77c.7,0,2.28,0,2.28,2.19,0,1.07-.37,2.09-1.86,2.09h-1.4c-.28,2-.93,4.84-1.21,6.09h2.42Zm-6.56,0c.28-1.35.65-3.26,1.07-6.09h-5.86c.33,1.54.47,2.47,1.02,6.09h3.77Zm25.22,4.65v22.42c0,1.91-.88,2.42-2.56,2.42-2,0-2.14-1.49-2.14-2.42v-22.42h-5.96v2.98c0,.88-.05,3.44-.33,5.96-.42,4.05-1.77,8.98-3.67,12.38-1.44,2.51-2.09,2.88-3.21,2.88-1.4,0-2.7-1.02-2.7-2.37,0-.56.19-.98.84-1.91,3.81-5.54,4.47-12.38,4.47-17.12v-13.54c0-2.84,0-4.23,2.09-5.03.79-.28,7.07-.93,8.38-1.16,1.07-.19,6.23-1.35,6.61-1.35,1.3,0,2.28,1.16,2.28,2.65,0,.7-.19,1.81-1.81,2.23-3.16.88-7.68,1.3-9.49,1.49-3.4.33-3.44.42-3.44,2.84v4.33h13.45c1.91,0,2.42.88,2.42,2.47,0,2.14-1.54,2.28-2.42,2.28h-2.79Z"/><path class="cls-3" d="m248.08,34.32c0-4,1.67-5.16,5.16-5.16h15.91c.7,0,2.42.05,2.42,2.19,0,1.63-.65,2.37-2.42,2.37h-14.93c-1.26,0-1.81.65-1.81,1.86v5.21h12.33c2.05,0,4.98,0,4.98,3.86,0,2.28-1.4,10.42-5.4,16.7,1.72,2,2.19,2.33,5.82,4.93.65.47,1.3,1.02,1.3,2.14,0,1.3-1.16,2.65-2.56,2.65-1.81,0-5.72-3.81-7.49-5.91-.56.56-1.86,1.95-4.47,3.77-1.02.7-2.88,2-3.91,2-1.54,0-2.51-1.58-2.51-2.7,0-.98.74-1.49,1.49-1.91,3.54-2,4.98-3.12,6.7-5.02-2.84-4.88-5.02-12.24-5.02-13.26,0-1.54,1.72-2,2.47-2,1.21,0,1.54.93,1.77,1.63,1.26,4.28,1.81,6.14,3.63,9.63,2.75-5.07,3.58-10.14,3.58-10.93,0-1.21-.93-1.21-1.4-1.21h-11.31v2.05c0,6.89-.51,13.82-3.3,20.61-1.07,2.6-1.54,3.26-2.75,3.26s-2.65-.93-2.61-2.47c-.37.7-1.02,1.02-1.95,1.02-1.81,0-2.28-.79-2.28-2.14v-11.96c0-.93-.47-1.3-1.3-1.3h-3.26c-.23,5.68-.74,9.12-2.05,13.4-.56,1.86-.88,3.02-2.33,3.02-.37,0-2.65-.23-2.65-2.37,0-.88,1.35-4.65,1.54-5.44.42-1.77,1.12-4.93,1.12-9.96v-22.52c0-.65,0-2.19,2.14-2.19s2.23,1.44,2.23,2.19v9.72h4.56v-10.42c0-.65,0-2.14,2.14-2.14,1.86,0,2.19,1.07,2.19,2.14v10.42h1.26c1.44,0,1.72,1.16,1.72,2.09,0,2-1.12,2.23-2.19,2.23h-9.68v5.4h4.09c3.91,0,4.89.93,4.89,4.79v12.89c0,.19-.05.37-.05.51.19-.56,1.4-2.98,1.63-3.49,2.42-5.68,2.56-13.91,2.56-17.26v-12.93Z"/></g><g><g><polygon class="cls-8" points="733.96 164.8 733.03 164.05 800.06 110 800.99 110.75 733.96 164.8"/><polygon class="cls-8" points="763.12 164.29 762.65 163.3 813.03 147.66 813.5 148.65 763.12 164.29"/></g><g><polygon class="cls-8" points="151.04 164.8 151.97 164.05 84.94 110 84.01 110.75 151.04 164.8"/><polygon class="cls-8" points="121.88 164.29 122.35 163.3 71.97 147.66 71.5 148.65 121.88 164.29"/></g></g><g><path class="cls-2" d="m732.58,125.03c-6.84,3.08-9.34,5.58-12.42,12.42-3.08-6.84-5.58-9.34-12.42-12.42,6.84-3.08,9.34-5.58,12.42-12.42,3.08,6.84,5.58,9.34,12.42,12.42Z"/><path class="cls-5" d="m759.12,113.03c-3.83,1.73-5.23,3.13-6.96,6.96-1.73-3.83-3.13-5.23-6.96-6.96,3.83-1.73,5.23-3.13,6.96-6.96,1.73,3.83,3.13,5.23,6.96,6.96Z"/></g></g></g></svg>