<?xml version="1.0" encoding="UTF-8"?><svg id="Layer_2" xmlns="http://www.w3.org/2000/svg" viewBox="0 0 840 209"><defs><style>.cls-1{fill:none;}.cls-2{fill:#ee628a;}.cls-3{fill:#fde2ea;}.cls-4{fill:#333;}.cls-5{fill:#d7ebf6;}.cls-6{fill:#d6f1d8;}.cls-7{fill:#423f39;}</style></defs><g id="PC"><g><rect class="cls-1" width="840" height="209"/><g><path class="cls-2" d="m202.78,62.96c.83-.13,2.17-.35,4.17-.35.83,0,7.91,0,11.91,3.22,2.91,2.3,3.83,5.87,3.83,8.69,0,4.56-2.13,8.91-7.96,10.91-2.43.83-5,1.13-7.52,1.13-1.74,0-4,0-4-2.83,0-2.39,1.87-2.39,3.04-2.39,3.09,0,10.35,0,10.35-6.78,0-6.09-5.39-6.96-9.48-6.96-2.3,0-3.35.17-4.35.35v6.78c0,4.17,0,11.69-8.04,11.69-5.56,0-9.35-4.22-9.35-9.39,0-8.3,8.13-11.48,11.87-12.87v-4.91c-2.65.09-8.09.09-8.22.09-1.52,0-3.35,0-3.35-2.65s2.04-2.61,3.22-2.61c5.26,0,5.87,0,8.35-.09v-3.09c0-1.09.04-2.91,2.74-2.91s2.78,1.74,2.78,2.91v2.83c3.7-.17,4.13-.17,4.52-.17.78,0,2.83,0,2.83,2.61,0,1.87-1.13,2.35-1.48,2.43-.56.17-1.13.22-5.87.39v3.96Zm-5.43,6.48c-2.3.91-6.61,2.96-6.61,7.22,0,2.48,1.74,4.43,3.74,4.43s2.87-1.83,2.87-6.52v-5.13Zm15.61-19.65c2.78,0,10.69,6.83,10.69,9.82,0,1.61-1.56,2.87-3.09,2.87-1.17,0-1.52-.48-2.91-2.43-2.3-3.13-4-4.26-6.09-5.65-1-.65-1.35-1.7-1.35-2.13,0-.7.52-1.39.7-1.61.26-.22,1-.87,2.04-.87Z"/><path class="cls-2" d="m242.05,63.48c-2.3,0-2.7-1.22-2.65-2.7-1.52.78-4.13,2.13-5.35,2.13-1.39,0-2.56-1.65-2.56-3.3s1.13-2.17,2.39-2.65c2.26-.87,3.52-1.39,5-2.17,3.26-1.7,4.56-2.78,8-5.56,2.35-1.87,2.96-2.39,5.3-2.39,2.17,0,2.78.48,5.52,2.61,4,3.13,6.91,5.39,12.69,7.65,1.09.43,2.04.87,2.04,2.43,0,.96-.52,3.3-2.91,3.3-1.04,0-2-.39-5.17-2.13.09,1.3-.09,2.78-2.61,2.78h-7.22v3.78h13.69c1.91,0,2.65.83,2.65,2.65,0,2.39-2,2.39-2.65,2.39h-13.69v9.3h14.56c2,0,2.65.91,2.65,2.7,0,2.39-1.96,2.39-2.65,2.39h-34.47c-1.96,0-2.65-.91-2.65-2.7,0-2.39,2-2.39,2.65-2.39h14.56v-9.3h-13.69c-1.96,0-2.65-.87-2.65-2.65,0-2.39,1.96-2.39,2.65-2.39h13.69v-3.78h-7.13Zm1.39,11.52c.56,1.22,1.43,3.17,1.43,4.26,0,1.7-2.3,2.09-3.13,2.09-1.65,0-1.87-.61-2.96-3.3-.13-.26-.7-1.48-.78-1.7-.17-.35-.39-.83-.39-1.39,0-1.43,1.74-2.26,3.22-2.26s1.91.83,2.61,2.3Zm17.3-16.43c-3.91-2.52-6.74-5.22-7.65-6.09-.56-.57-.74-.74-1.04-.74-.35,0-.57.22-1.13.83-2.3,2.43-5.91,5-7.56,6h17.39Zm3.52,20.78c-.48.96-1.04,2-2.83,2-1.22,0-2.87-.7-2.87-2.13,0-.61.09-.83.91-2.61.22-.43,1-2.48,1.26-2.87.61-1,1.35-1.13,2.04-1.13.35,0,3,.13,3,2.22,0,1.22-1.09,3.74-1.52,4.52Z"/><path class="cls-2" d="m313.69,52.31c.74,0,2.78,0,2.78,2.56,0,2.22-1.61,2.48-2.13,2.56-.78.09-11.78.48-18.08.61-.83,1.3-1.17,1.83-2.74,4.3,2.74-1.74,5.22-1.91,6.13-1.91,3.13,0,5.39,1.48,6.52,4.3,2-.78,7.69-2.52,9.26-2.52,2.65,0,2.65,2.48,2.65,2.91,0,1.96-1.35,2.48-2.65,2.78-6.09,1.43-6.74,1.56-8.35,2.13.13,1.78.22,3.78.22,4.91,0,2.39,0,4.39-2.83,4.39s-2.74-1.96-2.74-3.39c0-.65.04-3.39.04-3.96-6.22,2.7-7.91,4.56-7.91,6.7,0,2.52,3.56,2.96,8.13,2.96,2.43,0,5.7-.22,8.61-.65.52-.09,1.52-.22,2.35-.22.65,0,2.61,0,2.61,2.57,0,2-1.17,2.39-2,2.56-3.7.83-9.04.91-10.52.91-6.35,0-8.91-.7-10.91-1.48-2.56-1.04-4.26-3.22-4.26-5.87,0-6.22,7.22-10.17,13.13-12.74-.91-1.65-2.35-1.83-3.17-1.83-1.3,0-5.22.39-9.17,5.09-.65.78-3.35,4.3-4,4.91-.35.35-1,.83-2,.83-1.65,0-2.74-1.56-2.74-2.83,0-1.09.52-1.7,3.17-4.61,3.74-4.13,6.91-9.48,7.35-10.17-1,0-5.43.04-6.3.09-.83,0-3.04-.04-3.04-2.65s2.13-2.56,2.91-2.56c3-.04,6-.04,9-.13.22-.48,1.04-2.7,1.22-3.13.3-.78.7-1.78,2.83-1.78,1.56,0,2.87.74,2.87,2.26,0,.7-.26,1.26-.83,2.56,8.13-.26,9-.48,14.39-.48h.22Z"/><path class="cls-2" d="m334.79,85.65c0,.65,0,2.7-2.56,2.7s-2.61-1.78-2.61-2.7v-17.35c-.39.39-.83.91-1.78.91-1.52,0-2.83-1.43-2.83-3.26,0-.83.13-1.3.74-2.22,1.96-3,3.43-5.17,5.04-9.87.3-.87,1.39-5.22,1.52-5.52.39-.78,1.09-1.17,2.13-1.17,1.83,0,2.83.96,2.83,2.22,0,1.13-.83,5.04-2.48,9.35v26.91Zm19.78-33.78v-2.26c0-1.13.43-2.48,2.56-2.48,1.87,0,2.78.74,2.78,2.48v2.26h3c.65,0,2.35,0,2.35,2.3s-1.57,2.39-2.35,2.39h-3v4.13h4.04c.7,0,2.39.04,2.39,2.39,0,1.7-.83,2.39-2.39,2.39h-25.6c-.61,0-2.39,0-2.39-2.35s1.74-2.43,2.39-2.43h4.04v-4.13h-2.91c-.52,0-2.39,0-2.39-2.35s1.87-2.35,2.39-2.35h2.91v-2.26c0-1.04.3-2.48,2.57-2.48,1.91,0,2.65.96,2.65,2.48v2.26h6.96Zm8.65,30.69c0,3.57-1.52,4.7-4.74,4.7h-14.65c-3.22,0-4.74-1.13-4.74-4.7v-10.04c0-3.43,1.39-4.74,4.74-4.74h14.65c3.3,0,4.74,1.26,4.74,4.74v10.04Zm-5.3-7.26v-2.3c0-.65-.3-1.04-1.04-1.04h-11.48c-.74,0-1.04.39-1.04,1.04v2.3h13.56Zm0,4h-13.56v2.43c0,.7.35,1.04,1.04,1.04h11.48c.74,0,1.04-.39,1.04-1.04v-2.43Zm-3.35-22.74h-6.96v4.13h6.96v-4.13Z"/><path class="cls-2" d="m386.7,51.78c2.35-1.91,5.13-2.74,7.78-2.74,4.35,0,7.35,2.35,8.78,4.52,2.35,3.61,3.17,8.43,3.17,13.82,0,10.04-3,19.48-21.74,19.48-2.3,0-4.65,0-4.65-2.87,0-2.65,2.48-2.65,3.22-2.65,3.96,0,4.39,0,5.91-.22,8.13-1.13,11.22-4.91,11.22-13.69,0-4.74-.52-13.08-6.56-13.08-4.26,0-7.35,3.61-8.61,5.3-2.74,3.65-3.7,7.22-3.7,10.56,0,.61.17,3.39.17,3.96,0,.87,0,2.83-2.78,2.83-1.17,0-2.39-.22-2.74-1.87-.3-1.43-.52-4.74-.52-6.48,0-6.61.83-15.78,1.52-18.43.22-.83.65-2.17,2.91-2.17s3.04,1.09,3.04,2.43c0,.61-.22,1.65-.35,2.3-.57,2.57-.7,3.7-.91,5.26.91-1.83,2-4,4.83-6.26Z"/><path class="cls-2" d="m420.92,54.04c.13,0,4-.04,4.39-.04.17-.87.65-3.78.83-4.35.52-1.43,1.91-1.52,2.48-1.52,2,0,3.04.83,3.04,2.48,0,.91-.26,2.35-.43,3.26,3.13-.09,7.26-.17,11.65-.35.57-.04,2.91-.17,3.39-.17.74,0,2.83.04,2.83,2.7s-1.87,2.65-2.91,2.7c-5.3.26-10.74.43-16.04.57-1.09,4.96-1.35,6.22-3.74,14.08-.91,3.09-3.26,10.17-4.22,11.87-.13.26-.74,1.39-2.3,1.39-.96,0-3.22-.52-3.22-2.61,0-.48.04-.96,1-3.04,1.04-2.26,4.48-10.78,6.69-21.61-1.17.04-5.04.09-5.96-.13-.7-.17-1.48-.91-1.48-2.52,0-1.83.78-2.83,2.87-2.74l1.13.04Zm31.95,31.82c-2.09.56-6.09.56-7.43.56-10.3,0-14.74-1.74-14.74-7.13,0-1.26.48-5.04,3.83-5.04,1.04,0,2.65.48,2.65,1.91,0,.52-.17.91-.26,1.13-.35.83-.39.96-.39,1.39,0,1.17.87,1.74,2.39,2.04,1.13.26,2.78.39,4.56.39,2.83,0,4.78-.22,7.48-.48.52-.04.78-.09,1.17-.09,1.83,0,2.61,1,2.61,2.56,0,1.39-.57,2.39-1.87,2.74Zm-.3-17.35c-.57.39-1.13.43-1.83.43-.3,0-2-.13-3-.17-.61-.04-1.13-.04-2.09-.04-2.87,0-5.09.17-5.74.22-3.39.3-3.91.35-4.3.35-2.39,0-2.39-2.26-2.39-2.65,0-1.35.65-2.26,2.52-2.65,2.83-.61,7.65-.78,10.65-.78,7.09,0,7.09,1.13,7.09,3.26,0,.56-.26,1.56-.91,2.04Z"/><path class="cls-2" d="m470.7,52.52c0,.57-.26,2.87-.3,3.35-.09,1.17-.43,4.96-.43,8.65s.43,10.22,2.17,13.22c.44.74,1.35,1.52,2.57,1.52,2.3,0,3.74-2.61,4.7-5.61.7-2.09.91-2.91,2.65-2.91s3.09.96,3.09,2.61c0,1.87-1.13,4.35-2.39,6.61-1.43,2.57-3.91,5.83-8.35,5.83-10.08,0-10.08-17.35-10.08-22,0-3.57.35-10.78.65-11.96.52-1.87,1.83-1.96,3.13-1.96,1.74,0,2.61,1,2.61,2.65Zm25.48,26.91c0-7.17,0-13.13-2.04-17.87-1.39-3.13-3.7-3.43-5.35-3.65-1.13-.13-2.65-.3-2.65-2.78,0-.83.3-2.87,3.04-2.87,1.74,0,6.78.74,9.69,5.52,2.61,4.3,3.43,12.74,3.43,20.74,0,1.83,0,4.17-3.04,4.17s-3.09-2.13-3.09-3.26Z"/><path class="cls-2" d="m545.09,61.35c-1.13,5.56-3.09,11-6.78,15.3,2.96,1.48,5.83,3.09,8.65,4.74,1.3.74,2.22,1.52,2.22,2.87,0,1.56-1.13,3.39-3.3,3.39-1.09,0-2.04-.65-3.39-1.57-3.56-2.39-5.09-3.39-8.61-5.43-7.65,5.43-18.43,7-19.87,7-2.83,0-2.83-2.61-2.83-3.13,0-1.91,1.22-2.22,2.83-2.48,2.91-.43,9.17-1.39,14.3-4.26-2.87-1.35-4.13-1.78-8.74-3.43-1.57-.57-3.65-1.39-3.65-3.56,0-1.17.39-1.96,1.52-4.04.96-1.74,1.78-3.57,2.57-5.39h-7.09c-1.39,0-2.61-.61-2.61-2.61,0-2.52,2.13-2.52,2.61-2.52h9.22c.78-2.13.91-2.61,2.17-6.74.57-1.78,1.26-2.52,2.91-2.52,1.04,0,3.22.26,3.22,2.22,0,1.26-1.52,5.43-2.09,7.04h20.48c1.48,0,2.65.61,2.65,2.56,0,2.57-2.04,2.57-2.65,2.57h-3.74Zm-18.78,0c-.65,1.56-1.35,3.04-3.04,6.35-.65,1.22-.7,1.39-.7,1.74,0,.43.39.61,1.35,1,4.39,1.74,5.78,2.26,9.17,3.78,3.39-3.48,5.17-8.08,6.04-12.87h-12.82Z"/><path class="cls-2" d="m562.31,57.35c0,4.22-.87,9.65-1.09,10.61-.17.87-.57,1.48-1.61,1.48-.56,0-1.83-.3-1.83-1.52,0-.7.56-3.61.65-4.22.3-2.13.39-3.13.52-5.96.09-1.35.13-2,1.78-2,1.56,0,1.56,1.26,1.56,1.61Zm6.52,28.52c0,.7,0,2.39-2.52,2.39s-2.74-1.26-2.74-2.39v-36.43c0-.74,0-2.35,2.61-2.35s2.65,1.43,2.65,2.35v36.43Zm14.35-29.69v-6.56c0-.7,0-2.43,2.61-2.43s2.91,1.09,2.91,2.43v6.56h7.3c.52,0,2.48,0,2.48,2.52s-1.91,2.52-2.48,2.52h-7.3v7.52h6.26c.52,0,2.52,0,2.52,2.43s-1.96,2.48-2.52,2.48h-6.26v8.09h8.04c.52,0,2.48,0,2.48,2.52s-1.96,2.56-2.48,2.56h-23.39c-.52,0-2.48-.04-2.48-2.52s1.91-2.56,2.48-2.56h9.83v-8.09h-7.3c-1.26,0-2.48-.57-2.48-2.43,0-2.17,1.56-2.48,2.48-2.48h7.3v-7.52h-5.04c-1.04,3.22-2,5.3-2.52,5.91-.43.52-1,.7-1.61.7-1.26,0-2.65-.96-2.65-2.26,0-.43.13-.74,1.39-3.48-.26.13-.52.26-.87.26-.96,0-1.17-.57-1.74-2.48-.17-.52-1.04-2.7-1.04-3.22,0-1.3,1.26-1.91,1.96-1.91.87,0,1.13.61,1.65,1.96.78,1.91.87,2.13,1.04,2.7.83-2.7.96-3.74,1.7-7.91.17-1.13.39-2.26,2.17-2.26.78,0,2.61.13,2.61,2.09,0,1.39-.39,3.26-.78,4.87h3.74Z"/><path class="cls-4" d="m623.18,77.48c-2.13,3.43-4.43,5.26-7.65,5.26-5.65,0-8.74-5.78-8.74-12.69,0-13.26,9.87-20.3,20.82-20.3,13.26,0,18.56,8.65,18.56,18.13,0,2.17,0,9.69-7.91,14.91-4.48,3-9.83,3.39-10.52,3.39-2.87,0-2.91-2.65-2.91-3,0-2.26,1.61-2.52,3.22-2.74,3.48-.52,12.13-1.87,12.13-12.96,0-7.13-3.87-11.87-10.65-12.3-1.43,11.3-4.22,18.78-6.35,22.3Zm-4.26-20.21c-5,3.09-6.56,8.61-6.56,12.87s1.7,6.52,3.43,6.52c1.83,0,3.13-2.43,4.3-5.56,2.39-6.35,3.13-11.04,3.78-15.78-1,.26-2.87.7-4.96,1.96Z"/></g><g><g><circle class="cls-3" cx="312.89" cy="18.5" r="3.85"/><circle class="cls-6" cx="332.15" cy="18.5" r="3.85"/><circle class="cls-5" cx="350.93" cy="18.5" r="3.85"/><circle class="cls-3" cx="369.23" cy="18.5" r="3.85"/><circle class="cls-6" cx="388.49" cy="18.5" r="3.85"/><circle class="cls-5" cx="407.27" cy="18.5" r="3.85"/></g><g><circle class="cls-3" cx="427.74" cy="18.5" r="3.85"/><circle class="cls-6" cx="447" cy="18.5" r="3.85"/><circle class="cls-5" cx="465.78" cy="18.5" r="3.85"/><circle class="cls-3" cx="484.08" cy="18.5" r="3.85"/><circle class="cls-6" cx="503.34" cy="18.5" r="3.85"/><circle class="cls-5" cx="522.12" cy="18.5" r="3.85"/></g></g><g><g><circle class="cls-3" cx="312.89" cy="189.5" r="3.85"/><circle class="cls-6" cx="332.15" cy="189.5" r="3.85"/><circle class="cls-5" cx="350.93" cy="189.5" r="3.85"/><circle class="cls-3" cx="369.23" cy="189.5" r="3.85"/><circle class="cls-6" cx="388.49" cy="189.5" r="3.85"/><circle class="cls-5" cx="407.27" cy="189.5" r="3.85"/></g><g><circle class="cls-3" cx="427.74" cy="189.5" r="3.85"/><circle class="cls-6" cx="447" cy="189.5" r="3.85"/><circle class="cls-5" cx="465.78" cy="189.5" r="3.85"/><circle class="cls-3" cx="484.08" cy="189.5" r="3.85"/><circle class="cls-6" cx="503.34" cy="189.5" r="3.85"/><circle class="cls-5" cx="522.12" cy="189.5" r="3.85"/></g></g><g><path class="cls-4" d="m274.56,144.37c.36,1.98.72,2.82,1.68,3.84,1.62,1.68,4.02,2.58,6.9,2.58,4.68,0,7.62-2.34,7.62-6,0-2.46-1.2-4.38-3.24-5.16-1.38-.48-3.24-.78-5.58-.78s-5.04.12-7.38.36v-10.31c2.04.24,4.02.36,6.36.36,5.7,0,8.52-1.92,8.52-5.76,0-3.24-2.28-5.1-6.24-5.1-4.26,0-6.42,1.68-7.32,5.52l-12.95-1.86c1.14-3.72,2.1-5.52,4.02-7.62,3.66-3.96,9.17-6,16.49-6,6.54,0,11.93,1.8,15.35,5.1,2.22,2.22,3.36,5.1,3.36,8.51,0,6.36-3.42,10.31-10.31,11.93,3.66.54,5.64,1.38,7.74,3.18,2.52,2.28,3.96,5.4,3.96,8.88,0,3.06-.84,5.88-2.4,7.98-1.32,1.8-3.42,3.48-5.64,4.5-3.12,1.44-7.98,2.34-12.47,2.34-5.4,0-10.79-1.26-13.97-3.36-2.76-1.8-4.86-4.44-6.18-7.74-.36-.84-.6-1.62-1.02-3.18l12.71-2.22Z"/><path class="cls-4" d="m313.55,119.19c2.4-.24,3.9-.48,7.92-1.38,12.23-2.52,16.85-3.18,22.91-3.18s11.27,1.26,14.87,3.78c4.68,3.3,7.38,8.7,7.38,14.87,0,8.82-5.16,16.43-14.03,20.69-6.06,2.88-11.93,4.26-22.49,5.22-1.44-5.4-1.92-6.54-4.26-10.85,7.38-.06,12.53-.72,17.09-2.1,4.74-1.38,8.09-3.6,10.31-6.72,1.32-1.8,1.92-3.72,1.92-6,0-2.4-.72-4.32-2.22-5.82-1.92-1.98-4.68-2.88-8.88-2.88-6.36,0-13.61,1.32-23.09,4.26-2.22.66-3.78,1.26-5.16,1.92l-2.28-11.81Z"/><path class="cls-4" d="m400.25,147.75c-2.9,6.4-6.25,9.19-10.79,9.19-6.7,0-11.39-6.4-11.39-15.54,0-5.85,2-11.14,5.75-15.24,4.4-4.8,10.74-7.35,18.09-7.35,6.7,0,12.59,2.25,16.29,6.15,3.2,3.4,4.9,8.25,4.9,13.89,0,6.5-2.45,12.39-6.65,16.14-3.4,3.05-7.35,4.65-14.34,5.75-1.2-3.6-2.15-5.4-4.25-8.2,4.7-.35,7.79-1.15,10.49-2.55,3.85-2.05,6-6.25,6-11.59,0-4.25-1.5-7.65-4.4-9.84-1.3-1-2.4-1.45-4.2-1.75-1.1,8.59-2.8,15.04-5.5,20.94Zm-8.6-18.29c-3.3,2.8-5.45,7.45-5.45,11.89,0,3.55,1.35,6.35,3.1,6.35,1.25,0,2.55-1.75,4.05-5.55,1.75-4.5,3.2-10.29,3.75-15.24-2.1.3-3.7,1.05-5.45,2.55Z"/><path class="cls-2" d="m442.39,117.87c-2.94,0-6.66.12-9.77.36v-9.53c2.94.3,6,.42,9.47.42h36.4c4.02,0,7.26-.12,9.41-.42v9.53c-3.12-.24-6.24-.36-9.11-.36h-9.59c-1.26,2.4-1.86,3.42-4.38,6.96v5.1l3.78-4.56c6,6.96,13.25,12.47,20.81,15.77-2.16,2.88-3.72,5.46-5.4,9.06-8.1-4.8-13.73-9.29-19.19-15.35v19.67c0,3.36.12,6.06.42,8.64h-10.37c.3-2.58.42-5.34.42-8.64v-18.95c-1.92,2.46-4.62,4.98-8.39,7.86-3,2.34-5.88,4.26-10.08,6.66-1.2-3.06-2.82-5.64-5.34-8.58,5.28-2.64,8.1-4.38,12.23-7.68,6.72-5.28,10.67-9.65,14.45-15.95h-15.77Z"/><path class="cls-2" d="m543.56,136.22c-2.1,5.46-3.66,8.16-6.78,11.75,6.48,2.7,9.89,4.38,16.49,7.98l-6.96,7.56c-6.18-4.02-10.19-6.24-16.73-9.29-3.06,2.04-5.82,3.48-9.54,4.86-5.16,1.98-9.35,3.06-17.15,4.38-1.02-3.54-1.86-5.22-4.2-8.82,9.35-.78,14.39-1.86,20.81-4.56-4.62-1.74-7.86-2.76-15.29-4.86,3.18-3.96,4.38-5.58,6.6-9h-5.04c-3.42,0-5.28.06-7.14.3v-8.88c1.86.18,3,.24,7.14.24h9.89c1.74-3.36,2.7-5.58,3.24-7.32l9.95,1.32c-1.5,3.06-1.86,3.72-2.94,6h20.87c4.26,0,5.46-.06,7.08-.24v8.88c-1.92-.24-3.72-.3-7.08-.3h-3.24Zm-22.55-25.25c0-1.68-.06-2.88-.24-4.14h10.01c-.12,1.14-.24,2.46-.24,4.08v.6h15.29c3.48,0,5.34-.06,7.32-.24-.18,1.62-.24,3.06-.24,4.68v5.46c0,1.8.12,3.18.3,4.62h-9.12v-6.18h-35.74v6.18h-9.17c.24-1.32.3-2.58.3-4.68v-5.4c0-1.44-.06-3.12-.24-4.68,2.04.18,3.78.24,7.32.24h14.45v-.54Zm.36,25.25c-1.14,1.92-1.62,2.64-3.3,5.04,4.26,1.2,5.58,1.62,10.01,3.24,2.64-2.64,4.02-4.68,5.58-8.28h-12.29Z"/></g><path class="cls-7" d="m561.85,123.01c-.25,0-.51-.09-.71-.27-1.86-1.64-2.82-5.97-1.29-8.31.17-.25.44-.6.86-.89-.05-.34-.07-.68-.07-1.01.02-2.01.98-3.6,2.7-4.49-.25-1.28-.11-2.56.59-3.75,0,0,.01-.02.02-.03,1.65-2.61,4.86-3.27,8.58-1.77,4.26,1.72,8.33,6.13,7.47,10.23-.12.58-.69.96-1.28.84-.58-.12-.96-.69-.84-1.28.61-2.92-2.69-6.39-6.16-7.79-1.28-.52-4.43-1.47-5.94.9-.36.61-.45,1.28-.36,1.97,1.52-.22,3.23.04,4.92.76,2.75,1.18,4.92,3.33,5.67,5.63.67,1.96.05,2.89-.58,3.33-1.95,1.34-6.09-1.11-7.05-1.9-1.7-1.36-3.35-3.16-4.31-5.08-.83.54-1.26,1.35-1.27,2.44,0,.14,0,.28.01.42.67.03,1.45.22,2.38.65.02.01.04.02.07.03l.13.07c2.48,1.37,5.29,3.23,4.99,5.46,0,.01,0,.02,0,.03-.14.87-.64,1.31-1.03,1.53-1.13.64-2.67.16-3.9-.33-.03-.01-.06-.02-.08-.04-1.64-.82-3.08-2.49-3.93-4.35-.56,1.5.11,4.21,1.11,5.1.45.39.49,1.08.1,1.52-.21.24-.51.37-.81.37Zm4.45-4.59c1.29.51,1.8.48,1.94.45.01-.22-.18-1.21-3.9-3.27l-.09-.05c-.28-.13-.54-.23-.79-.3.64,1.36,1.69,2.59,2.83,3.17Zm-.11-8.96c.92,1.63,2.44,3.15,3.55,4.04,0,0,.01,0,.02.01,1.12.94,3.68,1.98,4.39,1.81,0-.11,0-.38-.18-.88,0,0,0-.01,0-.02-.55-1.69-2.3-3.39-4.47-4.31-1.15-.49-2.29-.71-3.31-.65Z"/></g></g></svg>