<?xml version="1.0" encoding="UTF-8"?><svg id="Layer_2" xmlns="http://www.w3.org/2000/svg" viewBox="0 0 840 256"><defs><style>.cls-1,.cls-2,.cls-3,.cls-4,.cls-5,.cls-6{fill:none;}.cls-2{stroke-dasharray:0 0 5.94 11.88;}.cls-2,.cls-3,.cls-4,.cls-5,.cls-6{stroke:#ec6d95;stroke-linecap:round;stroke-linejoin:round;stroke-width:4.25px;}.cls-7{fill:#ec6d95;}.cls-8{fill:#e6e6e6;}.cls-9{fill:#fff;}.cls-10{fill:#ee628a;}.cls-11{fill:#f19cb6;}.cls-12{fill:#fbd747;}.cls-13{fill:#333;}.cls-3{stroke-dasharray:0 0 5.72 11.45;}.cls-4{stroke-dasharray:0 0 5.7 11.4;}.cls-5{stroke-dasharray:0 0 6.26 12.52;}</style></defs><g id="PC"><g><rect class="cls-12" x="143" y="161" width="461" height="13" rx="6.5" ry="6.5"/><g><polygon class="cls-11" points="248 11 218.2 40.8 218.2 93.15 588.06 93.15 588.06 11 248 11"/><g><line class="cls-6" x1="225" y1="45.28" x2="225" y2="46.85"/><line class="cls-5" x1="225" y1="53.75" x2="225" y2="81.34"/><polyline class="cls-6" points="225 84.79 225 86.36 226.56 86.36"/><line class="cls-4" x1="232.84" y1="86.36" x2="576.57" y2="86.36"/><polyline class="cls-6" points="579.71 86.36 581.27 86.36 581.27 84.79"/><line class="cls-2" x1="581.27" y1="78.25" x2="581.27" y2="22.62"/><polyline class="cls-6" points="581.27 19.35 581.27 17.79 579.71 17.79"/><line class="cls-3" x1="573.4" y1="17.79" x2="257.2" y2="17.79"/><line class="cls-6" x1="254.05" y1="17.79" x2="252.49" y2="17.79"/></g><polygon class="cls-7" points="248 40.8 218.2 40.8 248 11 248 40.8"/></g><rect class="cls-1" width="840" height="256"/><g><path class="cls-9" d="m265.52,60.54c-.87,0-2.28-.19-2.28-2.16,0-1.82,1.1-2.2,2.31-2.2h25.11v-3.19c0-.87-.42-1.33-1.29-1.33h-24.92c-.57,0-2.31,0-2.31-2.09,0-1.67.68-2.35,2.31-2.35h12.37v-9.94c0-.99.19-2.31,2.28-2.31,1.97,0,2.77.53,2.77,2.31v9.94h8.88c3,0,4.7.99,4.7,4.7v13.09c0,3.64-1.59,4.74-4.7,4.74h-26.78c-.64,0-2.35-.04-2.35-2.16,0-1.67.61-2.43,2.35-2.43h25.38c.76,0,1.29-.34,1.29-1.29v-3.34h-25.11Zm4.32-21.92c.87,1.29,2.84,4.17,2.84,5.23,0,1.56-1.75,2.5-2.96,2.5-1.33,0-1.82-.83-2.58-2.16-.95-1.67-1.21-2.05-2.66-4.21-.34-.49-.68-.99-.68-1.67,0-1.52,1.67-2.39,2.69-2.39,1.1,0,1.59.15,3.34,2.69Zm24.92-.27c0,1.14-1.97,3.91-2.88,5.16-1.93,2.62-2.47,2.84-3.3,2.84-1.48,0-2.88-.91-2.88-2.43,0-.72.11-.91,1.44-2.66,1.02-1.33,1.21-1.67,2.54-3.91.49-.83.91-1.44,2.09-1.44s3,.87,3,2.43Z"/><path class="cls-9" d="m326.74,38.81c0-1.1.34-2.39,2.5-2.39,1.63,0,2.54.64,2.54,2.39v4.7h3.98c.49,0,2.5,0,2.5,2.35,0,1.78-1.1,2.39-2.5,2.39h-3.98v4.44c0,5.39-1.1,11.08-8.42,14.49-3.79,1.78-7.55,2.35-8.72,2.35-2.47,0-2.62-2.35-2.62-2.77,0-1.75,1.06-1.93,3.91-2.35,4.29-.64,8.38-2.66,9.86-5.99.95-2.09.95-5.39.95-5.84v-4.32h-11.61v7.51c0,1.63-.8,2.35-2.47,2.35-1.29,0-2.5-.38-2.5-2.35v-7.51h-3.91c-.49,0-2.5,0-2.5-2.35,0-1.82,1.18-2.39,2.5-2.39h3.91v-4.63c0-.99.26-2.35,2.46-2.35,1.67,0,2.5.68,2.5,2.35v4.63h11.61v-4.7Z"/><path class="cls-9" d="m366.64,67.45c0,.99-.19,2.5-2.66,2.5-1.86,0-2.69-.8-2.69-2.5v-16.24c-5.08,2.5-11.65,4.82-13.5,4.82-2.09,0-2.5-2.01-2.5-2.84,0-1.59.99-1.9,2.16-2.2,10.01-2.66,18.4-7.66,21.66-10.47l3.91-3.38c1.02-.87,1.48-.99,1.97-.99,1.37,0,2.84,1.18,2.84,2.73,0,.8-.27,1.37-1.18,2.2-2.16,1.97-5.39,4.55-10.01,7.25v19.12Z"/><path class="cls-9" d="m394.06,67.37c0,.87-.08,2.62-2.66,2.62s-2.73-1.63-2.73-2.62v-28.71c0-.87.04-2.66,2.66-2.66s2.73,1.63,2.73,2.66v7.06c5.12,1.52,10.13,3.57,14.91,5.99,2.77,1.44,3.38,2.01,3.38,3.3s-.95,3.11-2.66,3.11c-.87,0-1.71-.49-3.26-1.4-2.16-1.29-5.31-2.84-7.47-3.83-2.43-1.1-3.79-1.52-4.89-1.9v16.39Z"/><path class="cls-9" d="m451.56,50.11c1.14,0,2.43.42,2.43,2.5s-1.1,2.58-2.43,2.58h-30.5c-.91,0-2.43-.23-2.43-2.5s1.25-2.58,2.43-2.58h30.5Z"/><path class="cls-9" d="m469.53,66.46c0,4.25-1.52,4.25-5.65,4.25-1.52,0-3.34,0-3.34-2.47,0-2.2,1.71-2.2,2.39-2.2,1.59,0,1.97,0,1.97-1.14v-6.45c-1.4.49-2.39.87-3.07.87-1.4,0-1.97-1.55-1.97-2.58,0-1.56,1.1-1.9,1.78-2.12.53-.15,2.81-.83,3.26-.99v-7.36h-2.62c-.65,0-2.2-.04-2.2-2.24,0-2.05,1.29-2.28,2.2-2.28h2.62v-4.36c0-.65,0-2.35,2.28-2.35,2.09,0,2.35,1.29,2.35,2.35v4.36h1.52c.61,0,2.24.04,2.24,2.24,0,2.05-1.29,2.28-2.24,2.28h-1.52v5.69c1.55-.61,1.75-.65,2.24-.65,1.33,0,1.86,1.18,1.86,2.05,0,1.48-.87,1.9-4.1,3.3v9.79Zm16.84,2.2c0,.64,0,2.35-2.28,2.35-2.12,0-2.35-1.33-2.35-2.35v-7.78h-3.6c-2.96,0-4.4-.99-4.4-4.4v-15.55c0-3.49,1.55-4.4,4.4-4.4h12.18c2.88,0,4.4.95,4.4,4.4v15.55c0,3.3-1.37,4.4-4.4,4.4h-3.95v7.78Zm-8.53-22h3.91v-5.84h-2.81c-.76,0-1.1.38-1.1,1.1v4.74Zm0,3.87v4.89c0,.68.3,1.14,1.1,1.14h2.81v-6.03h-3.91Zm12.52-3.87v-4.74c0-.83-.49-1.1-1.1-1.1h-2.88v5.84h3.98Zm0,3.87h-3.98v6.03h2.88c.61,0,1.1-.27,1.1-1.14v-4.89Z"/><path class="cls-9" d="m510.79,38.96c0,.99-.27,5.42-.3,6.33-.27,7.28-.27,8.54-.27,10.17,0,4.89,0,9.22,7.28,9.22,8.08,0,10.17-4.17,11.23-7.74.15-.57.64-3.15.8-3.68.46-1.55,1.9-1.55,2.31-1.55.61,0,2.88.11,2.88,2.31,0,1.44-.68,5.54-3.3,9.37-3.04,4.44-8,6.11-13.77,6.11-4.02,0-6.98-.8-8.99-2.39-2.85-2.28-3.64-4.97-3.64-10.2,0-6.07.3-18.09.3-18.25.15-1.48.65-2.5,2.85-2.5,2.62-.04,2.62,1.93,2.62,2.81Z"/><path class="cls-9" d="m549.86,65.1c0,1.74-1.44,3.19-3.19,3.19s-3.19-1.44-3.19-3.19,1.44-3.19,3.19-3.19,3.19,1.4,3.19,3.19Zm-1.52-8.04c-.11,1.06-.46,1.9-1.63,1.9s-1.59-.61-1.71-1.86l-1.06-10.51v-8c0-1.33.57-2.58,2.69-2.58,1.93,0,2.77.95,2.77,2.58v8l-1.06,10.47Z"/></g><g><path class="cls-10" d="m203.73,166.88c-5.76-4.68-9.65-7.38-15.77-11.09-3.36,2.82-7.56,5.22-12.17,7.02-4.74,1.8-9.29,2.82-16.07,3.6-1.32-3.9-2.52-6.48-4.26-9.05,5.04-.3,7.98-.72,11.57-1.62,4.68-1.14,8.58-2.76,11.93-4.92-2.82-1.38-4.92-2.34-8.52-3.84-.6.84-1.02,1.5-1.92,2.82-3.54-1.74-5.64-2.58-9.53-3.96,4.14-5.16,6.6-9.06,9.59-15.29h-4.98c-3.36,0-5.82.12-7.92.36v-9.59c2.16.24,4.62.36,7.86.36h8.7c1.62-4.38,2.76-8.4,3.24-11.45l10.85,1.26c-.48,1.2-.9,2.52-1.44,4.08-.9,3-1.44,4.56-1.98,6.12h20.03c3.48,0,5.88-.12,7.92-.36v9.59c-2.16-.24-4.5-.36-7.62-.36h-1.8c-1.38,7.86-3.18,12.53-6.84,17.81,6.42,3.66,10.37,6.18,15.89,10.37l-6.78,8.16Zm-24.35-36.34c-1.5,3.48-2.34,5.28-4.2,8.58,3.78,1.44,6.72,2.7,10.97,4.74,2.52-3.54,4.08-7.5,5.34-13.31h-12.11Z"/><path class="cls-10" d="m219.8,137.5c.96-4.32,1.5-8.88,1.5-13.19,0-.3,0-1.38-.06-2.46l5.1.72c0,7.38-.42,12.17-1.38,17.03l-5.16-2.1Zm16.25,21.71c0,3.54.06,5.4.3,7.56h-9.42c.24-2.34.36-5.04.36-8.21v-41.68c0-3.06-.06-4.56-.36-6.66h9.42c-.24,2.16-.3,3.54-.3,6.66v4.62l3.42-1.5c1.02,2.22,1.26,2.88,2.34,6.24.9-4.02,1.68-9.36,1.68-11.81,0-.12,0-.42-.06-.72l8.75,1.56c-.18.78-.3,1.5-.48,3.12-.18,1.02-.24,1.62-.48,3.36h3v-4.8c0-2.94-.06-4.5-.36-6.66h9.89c-.3,2.1-.36,3.6-.36,6.66v4.8h5.16c3.24,0,5.4-.12,6.96-.36v9.23c-2.04-.24-4.32-.36-6.9-.36h-5.22v8.4h4.14c3.48,0,5.16-.06,6.9-.3v8.88c-1.5-.18-3.84-.3-7.02-.3h-4.02v9.59h5.76c3.18,0,5.76-.12,7.5-.36v9.29c-1.92-.24-4.56-.36-7.5-.36h-23.63c-2.94,0-5.58.12-7.5.36v-9.29c1.68.24,4.44.36,7.5.36h8.7v-9.59h-4.5c-.9,0-2.46.06-4.8.12-.6,0-1.2.06-2.34.18v-8.88c1.26.18,1.98.24,3.66.3-2.76-1.8-3.84-2.4-7.68-4.14,1.02-1.74,1.56-2.88,2.22-4.68l-2.94,1.44c-.42-2.34-1.02-4.5-1.8-6.96v34.9Zm13.49-28.96c-.96,3.96-1.62,6.06-2.76,8.4h7.44v-8.4h-4.68Z"/><path class="cls-10" d="m304.12,113.63c-2.34,6.84-4.14,18.05-4.56,28.96l4.62,1.56c-1.56,5.4-2.34,10.79-2.34,16.79,0,1.14,0,1.68.18,2.94l-10.31.48c-.06-1.14-.06-1.62-.3-3.18-1.14-8.04-1.56-13.25-1.56-18.95,0-6.9.72-14.45,2.28-23.09.72-4.2.78-4.62.9-6.42l11.09.9Zm16.55,26.21c-2.76,3.54-4.02,6.12-4.02,8.28,0,2.76,2.7,4.26,7.8,4.26s10.37-.84,14.93-2.46l.6,10.61q-1.56.18-5.1.72c-3.24.48-6.96.78-10.37.78-5.58,0-9.29-.78-12.41-2.52-3.36-1.92-5.52-5.64-5.52-9.53,0-2.94,1.02-6.24,2.88-9.36.84-1.38,1.2-1.98,2.82-4.32l8.4,3.54Zm-11.75-21.65c2.82.6,6,.9,10.67.9,7.98,0,13.85-.48,17.87-1.5l.42,10.25c-.54,0-1.14.06-4.44.42-4.14.42-8.52.66-12.65.66-3.66,0-6.66-.12-10.31-.48-.48-.06-.9-.06-1.74-.12l.18-10.13Z"/><path class="cls-10" d="m386.64,128.15c-.9.12-1.08.12-2.28.36-2.34.42-6.12.9-9.05,1.2v5.28c3.48-.78,5.58-1.02,8.75-1.02,7.38,0,12.89,1.86,16.37,5.46,2.64,2.7,4.08,6.48,4.08,10.61,0,8.46-6.42,14.81-14.93,14.81-7.44,0-11.75-4.98-11.75-13.61v-1.5c4.38-1.26,5.82-1.86,9.11-3.66-.06,1.26-.12,1.92-.12,3.18,0,1.86.12,2.88.48,3.78.42,1.08,1.44,1.8,2.64,1.8,2.58,0,4.32-2.1,4.32-5.16,0-2.04-1.08-4.02-2.94-5.28-1.62-1.02-3.96-1.56-7.14-1.56-2.94,0-5.4.3-8.82,1.2l.06,10.61v1.56c0,3.66-.24,4.98-1.14,6.24-1.14,1.68-3.42,2.64-6.12,2.64-4.44,0-9.53-1.86-12.95-4.74-2.46-2.1-3.9-4.92-3.9-7.8,0-3.24,1.98-6.78,5.58-9.95,2.4-2.1,4.92-3.6,8.93-5.34v-7.08l-4.56.12-5.82-.12c-.18,0-.72,0-1.26.06l-.12-9.42c1.92.36,4.38.54,8.21.54h2.28q.84-.06,1.2-.06v-1.92c0-4.5-.06-5.88-.42-8.09h10.37c-.3,2.16-.36,3.54-.36,7.5v1.92c4.08-.42,7.8-1.14,10.97-2.04l.3,9.47Zm-20.81,19.01c-2.82,1.32-4.98,3.66-4.98,5.34,0,.72.42,1.32,1.32,1.92.84.54,1.98.96,2.7.96.78,0,.96-.42.96-2.4v-5.82Zm33.52-13.19c-3.06-5.34-6.48-9.42-11.81-14.09l7.92-5.34c5.1,4.14,8.82,8.33,11.81,13.25l-7.92,6.18Z"/><path class="cls-10" d="m416.15,117.89c1.5.12,2.16.18,3.66.18,1.62,0,17.75-.42,23.33-.6-.06-3.84-.12-4.62-.42-6.36h10.61c-.24,2.1-.3,2.76-.3,6.12,9.96-.06,14.39-.18,16.79-.42l.06,9.83c-2.7-.24-3.9-.3-10.79-.3-3.18,0-3.6,0-6,.06v8.88c1.74,3.18,2.4,6,2.4,10.01,0,6.72-3.48,12.59-9.89,16.61-2.94,1.8-6.36,3.18-12.05,4.86-1.68-4.26-3-6.48-5.7-9.47,6.06-.9,9.47-1.86,12.35-3.66,2.22-1.32,3.48-2.64,4.44-4.74-2.52,2.1-4.56,2.82-8.04,2.82-6.96,0-11.87-4.56-11.87-10.97,0-6.84,5.64-11.51,13.91-11.51,1.92,0,3.3.18,4.68.66v-1.86q0-.84-.06-1.44c-12.41.36-22.19.9-26.8,1.56l-.3-10.25Zm18.65,22.37c0,1.86,1.68,3.24,3.96,3.24,2.58,0,4.56-1.56,4.56-3.6,0-1.86-1.56-3.12-3.96-3.12-2.64,0-4.56,1.44-4.56,3.48Z"/><path class="cls-10" d="m479.05,117.89c1.5.12,2.16.18,3.66.18,1.62,0,17.75-.42,23.33-.6-.06-3.84-.12-4.62-.42-6.36h10.61c-.24,2.1-.3,2.76-.3,6.12,9.96-.06,14.39-.18,16.79-.42l.06,9.83c-2.7-.24-3.9-.3-10.79-.3-3.18,0-3.6,0-6,.06v8.88c1.74,3.18,2.4,6,2.4,10.01,0,6.72-3.48,12.59-9.89,16.61-2.94,1.8-6.36,3.18-12.05,4.86-1.68-4.26-3-6.48-5.7-9.47,6.06-.9,9.47-1.86,12.35-3.66,2.22-1.32,3.48-2.64,4.44-4.74-2.52,2.1-4.56,2.82-8.04,2.82-6.96,0-11.87-4.56-11.87-10.97,0-6.84,5.64-11.51,13.91-11.51,1.92,0,3.3.18,4.68.66v-1.86q0-.84-.06-1.44c-12.41.36-22.19.9-26.8,1.56l-.3-10.25Zm18.65,22.37c0,1.86,1.68,3.24,3.96,3.24,2.58,0,4.56-1.56,4.56-3.6,0-1.86-1.56-3.12-3.96-3.12-2.64,0-4.56,1.44-4.56,3.48Z"/><path class="cls-10" d="m557.91,113.57c.06,2.94.54,5.94,1.26,8.88,3.18-1.2,6.84-1.86,10.25-1.86h1.32c1.26-5.22,1.5-6.66,1.56-8.88l10.55,1.98c-.24.54-.6,1.68-1.08,3.36-.9,3.12-1.32,4.8-1.38,4.98,3.54,1.08,5.64,2.16,7.98,4.14,4.5,3.78,6.84,8.94,6.84,15.17,0,9.54-5.34,17.21-14.51,20.93-3.24,1.32-6.24,2.22-10.79,3.12-1.2-4.2-2.34-6.54-4.8-10.01,6.3-.54,11.09-1.92,14.09-3.96,3.72-2.58,5.52-6.18,5.52-10.91s-2.16-7.79-6.9-9.77c-3.24,9.42-6.3,15.77-10.13,20.93-4.98,6.72-9.54,9.77-14.63,9.77-7.26,0-12.17-6.24-12.17-15.41,0-7.62,3.36-14.33,9.65-19.13-.72-2.88-1.08-4.38-1.74-7.68-.42-2.04-.54-2.4-1.08-3.66l10.19-1.98Zm-7.74,31.78c0,3.66,1.32,5.94,3.36,5.94,1.2,0,2.46-.84,3.72-2.52-1.86-4.02-2.88-6.9-4.14-11.63-1.8,2.22-2.94,5.4-2.94,8.21Zm13.55-5.22c2.16-4.14,3.18-6.6,4.44-10.61-3.06.12-4.92.54-7.26,1.68.84,3.48,1.56,5.64,2.82,8.94Z"/><path class="cls-13" d="m632.76,149.25c-3.48,7.68-7.5,11.03-12.95,11.03-8.04,0-13.67-7.68-13.67-18.65,0-7.02,2.4-13.37,6.9-18.29,5.28-5.76,12.89-8.81,21.71-8.81,8.04,0,15.11,2.7,19.55,7.38,3.84,4.08,5.88,9.9,5.88,16.67,0,7.8-2.94,14.87-7.98,19.37-4.08,3.66-8.81,5.58-17.21,6.9-1.44-4.32-2.58-6.48-5.1-9.83,5.64-.42,9.36-1.38,12.59-3.06,4.62-2.46,7.2-7.5,7.2-13.91,0-5.1-1.8-9.17-5.28-11.81-1.56-1.2-2.88-1.74-5.04-2.1-1.32,10.31-3.36,18.05-6.6,25.13Zm-10.31-21.95c-3.96,3.36-6.54,8.94-6.54,14.27,0,4.26,1.62,7.62,3.72,7.62,1.5,0,3.06-2.1,4.86-6.66,2.1-5.4,3.84-12.35,4.5-18.29-2.52.36-4.44,1.26-6.54,3.06Z"/></g><g><path class="cls-13" d="m242.59,195.21c.18-2.34.3-5.82.3-7.68,0-1.26,0-1.74-.18-3l11.27.3c-.3,1.38-.3,1.56-.66,7.26q-.06,1.62-.18,3.06h13.07c1.98,0,2.7-.12,4.02-.66l4.68,4.08c-.66,1.2-.78,1.68-.84,4.44-.42,12.83-1.32,22.85-2.52,26.81-1.74,5.58-4.62,7.5-11.27,7.5-2.34,0-3.24-.06-7.86-.48-.24-4.8-.66-6.78-2.04-10.55,3,.78,5.94,1.2,7.8,1.2,2.88,0,3.6-.96,4.38-6.18.6-4.02,1.14-11.57,1.14-16.73h-11.45q-.48,3.96-.9,6c-2.64,12.11-8.33,19.91-20.51,27.94-2.7-4.26-4.5-6.3-7.8-9.12,7.98-4.2,12.59-8.46,15.59-14.51,1.5-3.06,2.16-5.22,3-10.25h-7.5c-4.02,0-5.28.06-8.1.36l-.06-10.25c3,.42,4.08.48,8.34.48h8.28Z"/><path class="cls-13" d="m288.29,205.58c2.82.42,6.06.54,12.29.54h28.66c6,0,8.28-.12,12.29-.54v11.57c-2.88-.3-5.52-.36-12.35-.36h-28.54c-6.72,0-8.69.06-12.35.36v-11.57Z"/><path class="cls-13" d="m359.89,237.79c.24-2.52.3-4.26.36-9.17v-34.9c-.06-5.16-.06-5.46-.42-8.7h11.57c-.24,1.56-.24,2.52-.3,8.76v8.21c9.47,3.06,18.89,7.32,27.29,12.47l-5.7,10.19c-4.98-3.54-11.93-7.38-18.89-10.43-1.8-.72-1.98-.78-2.16-.9-.18-.06-.3-.12-.54-.3v15.59c0,4.44.12,7.62.36,9.17h-11.57Zm27.11-49.41c2.34,2.64,4.26,5.4,5.94,8.58l-5.7,2.76c-1.98-3.78-3.54-6-5.94-8.75l5.7-2.58Zm7.98-3.6c2.22,2.4,3.9,4.68,6,8.33l-5.52,2.7c-2.1-3.78-3.78-6.18-5.88-8.58l5.4-2.46Z"/><path class="cls-13" d="m426.16,232.39v4.14h-10.91c.36-3.3.48-5.34.48-9.77v-30.82c0-2.58-.06-4.44-.24-6.9,2.1.18,3.3.24,7.26.24h32.32c3.72,0,4.62,0,7.44-.24-.12,2.1-.18,4.26-.18,7.08v30.4c0,4.62.12,7.5.42,9.89h-10.85v-4.02h-25.73Zm25.73-33.52h-25.73v23.93h25.73v-23.93Z"/><path class="cls-13" d="m477.56,205.58c2.82.42,6.06.54,12.29.54h28.66c6,0,8.28-.12,12.29-.54v11.57c-2.88-.3-5.52-.36-12.35-.36h-28.54c-6.72,0-8.69.06-12.35.36v-11.57Z"/><path class="cls-13" d="m548.68,187.83c7.56,4.44,11.45,7.2,16.49,11.75l-7.08,9.36c-5.22-5.46-10.31-9.42-16.31-12.65l6.9-8.46Zm-6.3,37.24c6.12-.48,12.41-1.98,18.05-4.32,7.56-3.12,12.95-7.62,17.57-14.81,2.52-3.84,4.14-7.14,5.88-11.75,2.94,3.54,4.32,4.74,8.82,8.04-5.46,11.81-11.15,18.89-19.55,24.29-6.48,4.2-12.17,6.42-23.33,9-2.34.54-2.7.6-4.32,1.08l-3.12-11.51Z"/></g><g><path class="cls-8" d="m130.72,98.96c-6.84,3.08-9.34,5.58-12.42,12.42-3.08-6.84-5.58-9.34-12.42-12.42,6.84-3.08,9.34-5.58,12.42-12.42,3.08,6.84,5.58,9.34,12.42,12.42Z"/><path class="cls-12" d="m157.26,86.96c-3.83,1.73-5.23,3.13-6.96,6.96-1.73-3.83-3.13-5.23-6.96-6.96,3.83-1.73,5.23-3.13,6.96-6.96,1.73,3.83,3.13,5.23,6.96,6.96Z"/></g><g><path class="cls-8" d="m655,202.96c-2.59,1.17-3.53,2.11-4.7,4.7-1.17-2.59-2.11-3.53-4.7-4.7,2.59-1.17,3.53-2.11,4.7-4.7,1.17,2.59,2.11,3.53,4.7,4.7Z"/><path class="cls-12" d="m689.26,190.96c-3.83,1.73-5.23,3.13-6.96,6.96-1.73-3.83-3.13-5.23-6.96-6.96,3.83-1.73,5.23-3.13,6.96-6.96,1.73,3.83,3.13,5.23,6.96,6.96Z"/></g></g></g></svg>