<svg id="Layer_2" xmlns="http://www.w3.org/2000/svg" viewBox="0 0 1071 207.4"><defs><clipPath id="clippath"><path class="cls-1" d="M967.5 207.4h-864C46.34 207.4 0 161.06 0 103.9S46.34.4 103.5.4h864c57.16 0 103.5 46.34 103.5 103.5s-46.34 103.5-103.5 103.5Z"/></clipPath><style>.cls-1{fill:none}.cls-4{fill:#e89707}.cls-6{fill:#f4900b}.cls-7,.cls-8{fill:#fff}.cls-8{opacity:.4}</style></defs><g id="Layer_1-2"><path d="M104 0h863.5c57.16 0 103.5 46.34 103.5 103.5S1024.66 207 967.5 207H269" style="fill:#fcf7f0"/><g style="clip-path:url(#clippath)"><path style="fill:#edae48" d="M279.85 221.4h-503.94v-248h503.94L363-4l-83.15 225.4z"/><path class="cls-6" d="M279.85 221.4h-503.94v-248h503.94L363-4l-83.15 225.4z"/></g><path class="cls-6" d="M401.12 91.29c-1.02.14-1.23.14-2.62.41-2.7.48-7.01 1.02-10.32 1.37l-1.44 5.94c4.05-.89 6.43-1.16 9.95-1.16 8.15-.01 13.75 2.08 16.61 6.13 2.19 3.04 2.75 7.29 1.62 11.96-2.31 9.53-11.14 16.69-20.54 16.69-8.21 0-11.62-5.6-9.27-15.32l.41-1.68c5.18-1.42 6.93-2.09 11.06-4.13-.41 1.42-.66 2.16-1 3.58-.51 2.09-.65 3.24-.5 4.26.17 1.22 1.1 2.03 2.43 2.03 2.85 0 5.35-2.37 6.18-5.81.56-2.3-.1-4.53-1.81-5.94-1.51-1.15-3.95-1.75-7.46-1.75-3.25 0-6.04.34-10.06 1.36l-2.82 11.95-.42 1.75c-.99 4.12-1.61 5.6-2.95 7.02-1.71 1.89-4.48 2.97-7.46 2.97-4.9 0-10-2.08-12.99-5.33-2.14-2.36-2.96-5.52-2.18-8.76.88-3.64 4.01-7.63 8.84-11.2 3.21-2.37 6.4-4.05 11.3-6.02l1.92-7.97-5.06.15-6.38-.13c-.2 0-.79 0-1.4.07l2.42-10.6c2.02.4 4.69.59 8.92.59h2.52c.63-.05 1.08-.08 1.34-.08l.52-2.16c1.22-5.06 1.53-6.62 1.74-9.13l11.46-.03c-.92 2.44-1.36 3.99-2.44 8.45l-.52 2.16c4.63-.49 8.92-1.3 12.68-2.33l-2.26 10.69Zm-28.15 21.46c-3.47 1.49-6.48 4.12-6.94 6.01-.2.81.11 1.48.93 2.16.78.6 1.92 1.08 2.71 1.08.86 0 1.17-.48 1.71-2.7l1.58-6.54Zm40.62-14.91c-1.92-6.01-4.6-10.61-9.23-15.87l10.22-6.04c4.51 4.66 7.48 9.39 9.46 14.93l-10.45 6.98Zm8.54 29.92c2.56-2.64 3.64-3.79 5.63-6.5 2.43-3.18 3.42-4.8 5.11-8.18l7.54 3.98c-4.31 8.19-6.69 11.71-11.56 17.25l-6.71-6.56Zm62.56-42.44c1.74 0 2.96-.08 4.13-.22-.28.89-.62 1.97-1.08 3.87l-4.91 20.14c-.41 1.7-.66 2.98-.81 3.87-.33 0-.58-.07-.72-.07-.92-.07-1.05-.07-1.52-.07 3.07 5.48 4.18 8 6.44 14.63l-10.55 6.37c-.91-4.47-1.53-6.56-2.8-10.36-3.63 9.68-5.73 10.7-21.78 10.7-12.03 0-14.02-1.15-12.53-7.3l1.91-7.85c.54-2.23.78-3.51.87-4.94h10.45c-.43.93-.77 2.09-1.46 4.93l-.97 3.99c-.43 1.76.06 1.96 4.25 1.96 5.86 0 7.57-.21 8.55-.96.67-.54 1.45-2.1 2.17-4.54l-6.53 4.4c-1.59-2.77-2.98-4.47-5.94-7.58l5.85-3.53-17.16.02c-2.53 0-4.41.07-6.63.21l2.02-8.33c1.74.2 3.13.26 6.51.26l31.3-.04.58-2.38-30.3.04c-2.46 0-4.08.07-6.63.22l1.84-7.58c2.19.26 2.73.26 6.52.26l30.31-.05.54-2.24-29.25.05c-1.46 0-2.81.07-4.56.15l.49-2.04c-3.03 2.04-4.83 3.19-7.9 4.89-.74-4.33-1.26-6.02-3.01-9.26 4.98-2.45 7.55-4.01 11.1-6.58 4.27-3.06 7.9-6.52 10.96-10.33l11.27 1.6c-1.1 1.23-1.18 1.3-2.09 2.31l10.34-.03c3.87 0 5.29-.08 6.75-.35l4.05 5.01c-.47.32-1.82 1.45-4.03 3.4-1.03.96-2.38 2.1-3.88 3.33l7.87-.02h-.04Zm-20.14.05c1.41-1.16 1.93-1.63 3.18-2.92l-13.06.03c-1.61 1.42-2.03 1.76-3.44 2.92l13.32-.03Zm-1.28 27.44c2.39 2.23 2.92 2.78 4.29 4.53l-2.62 1.76c2.22 1.01 4.32 1.7 7.05 2.23-.57-1.22-.86-1.97-1.72-3.86l9.07-4.69h-16.06l-.01.02Zm91.19-26.69-.7.14c-1.19.2-3.53.68-6.97 1.37l-5.23.83c.24 1.23.4 2.45.67 3.54 8.95-1.51 13.78-2.61 16.52-3.63l-1.45 10c-1.52.2-1.73.2-8.65 1.65-.63.14-.84.14-4.21.75 1.33 4.41 2.8 7.74 5.52 12.5l-11.12 5.17c-3.44-2.1-7.51-2.98-13.34-2.98-7.43 0-11.89 1.57-12.59 4.42-.38 1.56.69 2.65 3.3 3.19 1.4.27 4.15.55 6.29.54 6.83 0 17.23-1.98 22.4-4.22l-1.27 11.47c-1.66.21-2.15.27-4.97.89-7.06 1.49-13.12 2.17-18.95 2.17-3.48 0-7.21-.34-10.2-.94-7.47-1.42-11-6.37-9.4-12.95 1.16-4.74 5.29-9.09 10.69-11.2 4.36-1.7 9.11-2.52 14.93-2.52 3.55 0 6.18.19 9.05.81a22.88 22.88 0 0 1-1.24-2.85l-.42-1.28-.24-.68c-5.46.68-14.84 1.31-23.39 1.52-3.98.14-4.24.14-5.9.35l1.98-10.04c1.87.27 3.13.33 6.81.33 6.42-.01 12.94-.36 18.52-1.05-.1-.68-.36-1.83-.67-3.54-5.83.56-9.54.69-17.64.71-2.96.07-3.63.08-5.05.15l1.82-9.92c2.29.19 4.47.33 7.55.32 3.81 0 9.02-.22 12.12-.56l-.06-.54c-.05-.34-.17-.96-.29-1.83-.26-2.24-.39-2.79-.79-4.41l12.08-1.46c-.22 1.97-.11 3.47.35 7.07 3.74-.49 7.44-1.1 10.9-1.79-.39-1.97-.63-2.92-1.32-4.75l6.8-1.72c1.41 3.54 2.11 6.46 2.39 10.54l-4.12 1.24-.47 3.26-.04-.04Zm11.76-17.31c1.42 2.99 2.14 6.05 2.47 9.93L562 80.8c-.41-4.35-.94-6.59-2.18-10.27l6.4-1.71Zm28.55 46.1c-6.04 8.72-11.49 12.53-17.61 12.53-9 0-13.18-8.7-10.13-21.15 1.95-7.96 6.41-15.18 12.83-20.77 7.53-6.56 16.93-10.04 26.84-10.07 9.03-.02 16.24 3.03 19.92 8.35 3.17 4.63 3.84 11.24 1.93 18.96-2.19 8.86-7.48 16.91-14.41 22.03-5.61 4.16-11.46 6.33-21.26 7.83-.41-4.9-1.09-7.34-2.98-11.15 6.44-.48 10.89-1.57 15-3.48 5.88-2.8 10.19-8.52 11.99-15.82 1.43-5.8.55-10.43-2.63-13.42-1.42-1.36-2.75-1.97-5.08-2.38-4.37 11.73-8.83 20.52-14.43 28.56h.01Zm-5.45-24.92c-5.38 3.82-9.83 10.16-11.32 16.22-1.19 4.83-.31 8.64 2.05 8.64 1.68 0 4.01-2.39 7.3-7.56 3.86-6.13 7.76-14.04 10.15-20.79-2.93.42-5.34 1.44-8.2 3.49Zm81.14-14.01c.54-2.19.77-3.69.9-5.26l11.73-.03c-.64 1.51-1.19 3.15-1.71 5.27l-.8 3.22 16.7-.04c4.08 0 6.89-.16 9.5-.5l-2.72 10.95c-2.38-.27-4.65-.4-8.86-.4l-24.14.04c-1.09 3.55-1.12 3.69-1.83 5.74l19.8-.03c3.6 0 5.24-.08 7.12-.28-.9 2.53-1 2.94-2.99 9.85-3.54 12.37-6.28 19.62-9.14 23.71-3.01 4.51-6.44 6.01-13.41 6.01-1.69 0-4.63-.14-8.58-.34.66-4.02.65-6.48-.16-10.58 3.68.48 6.79.75 9.69.75 3.45 0 4.55-.89 6.27-5.06 1.32-3.15 2.98-8.2 4.6-14.21l-17.08.02c-1.88 4.03-4.69 8.53-7.88 12.7-5.17 6.69-11.33 11.94-20.6 17.47-1.2-3.89-2.57-6.27-5.32-9.06 11.72-6.14 17.67-11.67 22.51-20.82 2.47-4.78 4.22-9.43 5.88-15.85l-8.39.02c-3.51 0-6.73.15-9.5.43l2.7-10.93c2.83.33 5.49.47 9.22.46l15.71-.03.8-3.22Z"/><path d="M704.99 132.34c.06-.43.13-.69.21-1.69.44-5.08 1.14-9.25 2.27-13.81.97-3.91 2.18-7.73 3.68-11.51.36-.87 1.26-2.94 2.71-6.22.68-1.52 1.16-2.78 1.27-3.22l.04-.17 5.68.59c-2.71 3.79-6.95 14.27-8.88 21.83-.29 1.05-.49 1.8-.61 2.26l-.17.69c-.09.35-.11.43-.27.91h.04c.22-.32.5-.74.83-1.26.16-.31.5-.78.89-1.48.41-.61.84-1.26 1.31-1.96.12-.13.19-.26.85-1.34l3.19 1.6c-3.8 5.04-6.87 10.43-7.58 13.3-.08.31-.09.34-.2 1.17l-5.25.31h-.02Zm16.83-28.46c1.9.52 4.1.69 7.65.68 1.51 0 2.46 0 4-.1.64-2.57 1.14-4.74 1.58-6.53.24-.96.36-1.61.39-2.09l5.45-.14c-.52 1.22-1.13 3.31-1.9 6.4l-.5 2c2.32-.27 4.31-.61 6.11-1.06.19-.06.53-.18 1.04-.35l.37-.09-1.06 4.92c-.44.05-.49.05-1.31.22-1.55.31-3.89.7-6.25.97l-.24.96c-.61 2.44-.63 2.53-2.02 9.83 2.75 1.48 3.67 2.08 5.81 3.95.47.39.65.52 1.03.74l-3.39 5.26c-.52-.87-1.53-2-2.55-2.78-1.23-.96-2.06-1.61-2.28-1.78l-.15.61c-.24.96-.58 1.82-.96 2.44-1.63 2.56-5.04 4.09-9.22 4.09-5.66 0-8.44-2.69-7.34-7.12 1.1-4.43 5.45-7.17 10.68-7.18 1.6 0 2.63.17 3.7.6.15-1.09.63-3.22 1.96-9.27-1.74.05-2.79.09-3.92.1-1.6 0-3.32-.04-5.31-.21-.61 0-1.07-.04-1.29-.04-.37-.04-.63-.04-.72-.04-.2-.04-.34-.04-.42-.04-.04 0-.13 0-.27.05l1.33-5Zm4.24 18.22c-2.76 0-4.76 1.09-5.21 2.87-.4 1.61.89 2.69 3.3 2.69 1.6 0 2.97-.48 3.83-1.35.52-.52.86-1.17 1.15-2.35l.29-1.17c-1.29-.52-2.07-.69-3.37-.69Zm45.51-13.7c-4.43 3.05-6.68 5.51-7.3 8.02-.95 3.8 2.9 5.44 12.75 5.43 6.95 0 14.85-1.06 18.94-2.47l-1.37 8.02c-1.01.06-1.36.06-2.62.23-7.25 1-11.07 1.29-16.08 1.29-6.35 0-11.32-.64-14.09-1.93-4.52-1.93-6.15-5.2-5.01-9.77s4.34-8.31 10.69-12.71l4.11 3.86h-.01Zm-2.85-24.05c4.23 1.05 9.32 1.44 17.15 1.43 7.42-.01 11.64-.31 15.71-1.15l-1.42 6.57c-3.91 1.59-11.19 5.53-18.03 9.76l-4.06-4.04c3.52-1.94 6.82-3.71 9.89-5.23-2.65.36-5.19.47-8.87.48-2.97 0-7.74-.28-10.5-.69-1.14-.12-1.3-.17-2.12-.17l2.26-6.97Zm47.52 4.29c2.51.7 6.37.99 12.4.98 2.3-4.71 3.33-7.17 4.07-9.69l7.69.63c-.41.71-1.01 1.85-1.79 3.42-1.44 2.94-2.38 4.78-2.8 5.52 4.49-.13 11.24-.61 15.22-1.09 4.47-.53 5.65-.78 7.86-1.37l-1.44 7.11c-1.37.06-1.91.12-3.48.3-8.74.95-14.01 1.37-21.38 1.56-2.27 4.17-5.92 9.81-7.62 11.92l-.03.12c4.56-2.53 9.98-3.82 15.73-3.83 10.33-.01 15.37 4.44 13.49 11.9-2.19 8.69-12 14.33-24.83 14.33-5.21 0-10.19-.7-14.41-2.05.84-3.34 1.07-4.51 1.29-7.44 4.8 1.87 9.48 2.81 14.4 2.8 8.49 0 14.76-3 15.94-7.69.92-3.64-2.1-5.64-8.43-5.63-4.33 0-9.11 1.07-13.32 2.89-2.44 1.06-3.71 1.94-5.12 3.41l-6.46-2.45c1.23-1.41 2.69-3.23 4.08-5.28 3.05-4.46 6.65-10.16 8.19-13.04-3.09-.06-5.69-.16-8.74-.4-.81-.06-1.39-.06-1.86-.06h-.47l1.84-6.87h-.02Zm68.86 3.34c-1.69 3.24-4.08 8.71-6.3 14.48-.22.55-.46 1.12-.72 1.71l.09.12c4.24-3.3 12.12-5.6 19.24-5.61 10.02-.01 15.37 4.93 13.47 12.46-1.09 4.3-4.48 8.65-8.94 11.36-4.53 2.77-9.73 4-16.55 4.01-5.06 0-8.19-.41-14.47-2.06.86-3.64 1.04-4.82 1.03-7.58 5.25 2 10.08 2.93 15.08 2.93 8.3 0 14.95-3.47 16.21-8.48 1-3.94-2.12-6.3-8.36-6.29-5.24 0-11.11 1.6-15.73 4.31-1.25.77-1.7 1.12-3.28 2.53l-7.34-.23c.44-1.06.5-1.29 1.36-3.53 1.39-3.65 3.98-10.18 6.79-17.12.59-1.42.83-2.12 1.21-3.42l7.25.4h-.04Zm3.68-11.54c3.5 2.23 13.91 5.57 20.33 6.49l-4.13 6.78c-9.5-2.28-15.19-4.21-21.11-7.31l4.91-5.96Zm45.33 36.15c.37-1.24.58-1.82.76-2.53.11-.43.41-1.83.89-4.18l4.25-20.05c.54-2.59 1.11-5.54 1.29-7.2l9.7-.02c-.58 1.59-1.6 4.67-2.35 7.2l-5.92 20.06c-.66 2.28-1.06 3.7-1.2 4.24-.18.71-.33 1.3-.5 2.47h-6.91Zm-4.1 12.91 2.04-8.07h8.56l-2.05 8.06H930Z"/><path style="fill:#ea5f00" d="m1011.08 116.72 14.49-14.49-14.88-14.88"/><path class="cls-1" d="M109.18 152.86H97.91l-.45 2.83h11.26l.46-2.83zm1.03-6.28H98.9l-.43 2.73h11.29l.45-2.73zm57.62-84.55c-2.28 2.63-5.5 5.56-9.16 8.3h15.57c-2.66-2.75-5-5.67-6.41-8.3Zm54.47 2.93h-18.43l-1.82 9.25h18.36l1.89-9.25zm-119.12 71.17h5.65l.64-3.92h-5.67l-.62 3.92zm116.21-56.92h-18.32l-1.84 9.35h18.25l1.91-9.35zm-1.89 72.39c-1.36 0-2.74.67-2.98 1.81-.39 1.85 2.18 2 3.54 2 .7 0 2.01-.12 2.57-.24.15-2.08-1.27-3.58-3.13-3.58Z"/><path class="cls-7" d="M114.39 132.21h5.25l.69-4.13h-5.26l.54-3.3c.77-.12 1.15-.36 1.25-.77l-6.01-.32-.71 4.39h-5.68l.53-3.34c.72-.08 1.1-.32 1.2-.73l-5.93-.32-.69 4.39H94.6l-.64 4.13h4.96l-.62 3.92h-6.45l-.67 4.3h28.15l.72-4.3h-6.32l.64-3.92Zm-5.55 3.92h-5.66l.63-3.92h5.67l-.63 3.92Z"/><path class="cls-7" d="M94.72 125.74c.61.08 1.02-.12 1.24-.44l-5.24-1.82c-3.11 6.44-7.61 13.01-11.62 16.75.53 1.15 1.27 3.69 1.56 4.84 1.35-1.27 2.65-2.7 3.96-4.25l-3.05 20.07h4.81l4.11-26.69c.68-.08 1.05-.36 1.19-.68l-1.35-.44c1.58-2.4 3.05-4.89 4.39-7.35Zm-2.83 35.24h4.73l.23-1.45h11.24l-.2 1.25h4.98l2.98-18.04H94.74l-2.85 18.24Zm7.01-14.39h11.31l-.45 2.73H98.47l.43-2.73Zm-.99 6.28h11.27l-.46 2.83H97.46l.45-2.83Zm48.52-12.96c-.96 5.4-4.5 11.8-16.54 15.97.91.94 2.51 2.9 3.03 3.92 14.02-5.14 17.87-12.31 19.3-19.97.92-5.07 1.5-10.4 1.74-13.57.7-.2 1.09-.48 1.22-.97l-7.1-.28c-.21 3.74-.67 9.36-1.65 14.9Zm-13.65 5.48c.29-1.67 2.62-4.6 5.94-8.39-.51-.64-1.43-2.28-1.81-3.2-1.21 1.44-2.97 3.67-4.06 5.43.23-2.27 1.93-8.03 3.41-11.33.43-.08.96-.24 1.17-.72l-6.37-.85c-1.71 4.86-2.78 9.23-3.28 12.18-.36 2.35-.66 5.84-.35 8.62l5.31-.79c-.02-.36 0-.67.04-.95Zm58.27 7.66c-1.32 0-1.33-.98-.94-2.99.57-2.88.98-4.35 2.7-10.26.14-.48.27-.96.37-1.43.97-4.91-.9-7.68-5.11-7.68-3 0-7.58 1.88-12.69 5.76.89-1.6 2.21-3.72 3.29-5.04l-1.65-.72c.41-1.49.99-3.41 1.52-5.11.78-.12 1.17-.44 1.33-.85l-6.73-.44c-.03.16-1.44 6.52-1.6 7.16-1.45.2-4.58.44-7.54.44l-.83 4.92c2.63-.08 5.43-.36 7.24-.68-.22.96-.39 1.84-.59 2.71-2.37 3.54-7.57 8.1-10.88 10.35l1.53 4.69c2.97-2.2 6.14-5.2 7.81-7.3l-2.47 12.91h5.11c.35-2.04 1.77-9.51 3.24-17.23 4.64-4.06 9.16-6.37 11.61-6.37 1.54 0 2.24 1.12 1.76 3.55-.07.36-.2.8-.32 1.23-1.83 6.39-2.53 9.74-2.63 10.26-.98 5 .05 7.35 4.5 7.35 1.98 0 4.65-1.02 7.02-2.35.04-1.02.35-4.21.61-5.51-1.83 1.3-4.58 2.64-5.65 2.64Zm36.27-14.41c-2.41 0-5.76.52-8.25 1.47v-.04c4.03-2.91 11.95-8.67 14.45-10.19.47-.04 1-.2 1.3-.44l-2.5-4.1-.69.28c-2.85.44-14.72.89-20.07.89l-.7 5.66c.39-.08.94-.32 1.12-.6 3.38-.2 10.66-.56 12.76-.84-6.62 4.96-19.05 14.47-22.56 17.28l2.97 3.51a89.07 89.07 0 0 1 4.46-3.59c3.49-2.65 9.18-4.91 14.82-4.91 4.19 0 6.66 2.18 5.93 5.58-.53 2.45-2.33 4.3-4.55 5.24.03-3.43-2.68-6.23-7.07-6.23-3.89 0-7.82 2.61-8.48 5.8-.82 3.97 2.45 6.28 7.76 6.28 8.98 0 16.29-4.08 17.82-11.13 1.35-6.22-2.21-9.92-8.52-9.92Zm-9.26 16.77c-1.36 0-3.93-.16-3.54-2 .24-1.14 1.62-1.81 2.98-1.81 1.86 0 3.28 1.5 3.13 3.58-.56.12-1.87.24-2.57.24Zm36.07-5.15c-2.12.04-4.02 1.54-4.51 3.7s.68 3.61 2.82 3.61c2.39 0 4.08-1.65 4.53-3.61.49-2.16-.65-3.7-2.84-3.7Zm5.54-24.04c-3.63 0-7.02.97-9.42 1.97l.71 4.13c1.76-.8 4.37-1.48 6.75-1.48 3.7.04 5.07 1.36 4.66 3.16s-2.35 3.2-5 5.19c-3.09 2.31-4.65 4.45-5.15 6.67-.04.16-.25 1.66-.3 1.9h5.42c.12-.91.14-.99.19-1.23.46-2.02 1.77-3.77 4.38-5.59 3.02-2.15 6.17-4.42 6.93-7.74.82-3.57-1.48-6.99-9.17-6.99Z"/><path d="m183.07 87.29-3.24-1.13-1.09.13h-25.31l-.83 4.73h22.07c-2.33 3.67-5.32 8.15-7.88 11.75l5.15 1.45c3.6-5.3 7.93-11.87 10.48-15.96.23-.29.5-.63.65-.96Zm-31.4-2.93c3.06-1.64 6.13-3.57 8.97-5.6l-.61 3.45h18.27l.66-3.58a45.4 45.4 0 0 0 7.1 5.64c1.22-1.51 2.7-3.19 4.21-4.42-5.8-3.04-12.11-8.92-15.21-14.5.57-.08 1.02-.38 1.27-.85l-6.67-.43c-4.16 5.45-12.5 12.36-20.55 16.37.94 1.01 2.04 2.78 2.56 3.91Zm19.76-15.12c1.41 2.63 3.75 5.56 6.41 8.3h-15.57c3.66-2.75 6.88-5.67 9.16-8.3Zm30.42 31.54h18.21l-.55 2.69h5.46l7.53-36.45h-29.34l-7.09 36.49h5.25l.54-2.73Zm5.63-28.62h18.43l-1.89 9.25h-18.36l1.82-9.25Zm-2.8 14.25H223l-1.91 9.35h-18.25l1.84-9.35Zm-26.49-37.15c-.34 1.87-2.13 3.38-4 3.38s-3.11-1.51-2.77-3.38 2.13-3.39 4-3.39 3.11 1.52 2.77 3.39Zm45.73 0c-.38 1.87-2.2 3.38-4.06 3.38s-3.08-1.51-2.71-3.38 2.19-3.39 4.07-3.39 3.09 1.52 2.71 3.39Z" style="fill:#383838"/><circle class="cls-4" cx="106.21" cy="78.59" r="31.88"/><circle class="cls-7" cx="106.21" cy="78.59" r="27.89"/><path d="M116.96 56.12c4.44 4.5 7.18 10.67 7.18 17.49 0 13.75-11.15 24.9-24.9 24.9-3.85 0-7.5-.88-10.75-2.44 4.52 4.58 10.79 7.42 17.73 7.42 13.75 0 24.9-11.15 24.9-24.9 0-9.9-5.78-18.45-14.15-22.47Z" style="fill:#f4d5a8"/><path d="M89.6 80.36c0-9.92 8.04-17.97 17.97-17.97 3.47 0 6.7.98 9.44 2.68.4.16.8.33 1.19.51-3.26-3.3-7.78-5.35-12.79-5.35-9.92 0-17.97 8.04-17.97 17.97 0 5.5 2.48 10.42 6.37 13.71a17.87 17.87 0 0 1-4.22-11.56Z" style="opacity:.2;fill:#f2fcfc"/><rect class="cls-4" x="104.67" y="65.04" width="3.08" height="9.96" rx="1" ry="1"/><rect class="cls-4" x="112.14" y="78.09" width="3.08" height="16.93" rx="1" ry="1" transform="rotate(-45 113.672 86.555)"/><circle class="cls-4" cx="106.21" cy="78.59" r="4.48"/><circle cx="106.21" cy="76.59" r="1.99" style="fill:#e2dcdd;opacity:.2"/><path class="cls-4" d="M134.79 58.32c-.5.03-1-.2-1.26-.64-5.28-8.88-15.7-14.18-26.55-13.51-.75.05-1.39-.48-1.43-1.19s.53-1.31 1.28-1.35c11.88-.73 23.29 5.07 29.07 14.79.36.61.13 1.39-.53 1.73-.18.1-.38.15-.58.16Z"/><path class="cls-4" d="M136.27 51.22c-.5.03-1-.2-1.26-.64-4.39-7.38-13.06-11.79-22.08-11.24-.75.05-1.39-.48-1.43-1.19s.53-1.31 1.28-1.35c10.05-.62 19.71 4.29 24.61 12.52.36.61.13 1.39-.53 1.73-.18.1-.38.15-.58.16Z"/><rect class="cls-8" x="118" y="8" width="597" height="7" rx="3.5" ry="3.5"/><rect class="cls-8" x="98" y="8" width="15" height="7" rx="3.5" ry="3.5"/></g></svg>