<svg id="Layer_2" xmlns="http://www.w3.org/2000/svg" viewBox="0 0 1038.42 254.38"><defs><style>.cls-3{fill:#e89877}.cls-7{fill:#dd2f2f}</style></defs><g id="Layer_1-2"><rect x="14.42" y="76.38" width="1024" height="178" rx="28.46" ry="28.46" style="fill:#dddcd7"/><rect x="14.42" y="57.38" width="1024" height="178" rx="28.46" ry="28.46" style="fill:#f5f4ef"/><rect class="cls-3" x="20.67" y="140.88" width="38.67" height="12" rx="6" ry="6"/><rect class="cls-3" x="1.67" y="119.88" width="38.67" height="12" rx="6" ry="6"/><path class="cls-7" d="M251.95 137.06c-.99.13-1.19.13-2.51.4-2.57.46-6.73.99-9.97 1.32v5.8c3.83-.86 6.14-1.12 9.64-1.12 8.12 0 14.2 2.04 18.03 6 2.91 2.97 4.49 7.12 4.49 11.67 0 9.29-7.06 16.28-16.44 16.28-8.19 0-12.94-5.47-12.94-14.96v-1.65c4.82-1.38 6.4-2.04 10.04-4.02-.07 1.38-.13 2.11-.13 3.49 0 2.04.13 3.16.53 4.15a3.079 3.079 0 0 0 2.91 1.98c2.84 0 4.75-2.31 4.75-5.67 0-2.24-1.19-4.42-3.24-5.8-1.78-1.12-4.36-1.71-7.86-1.71-3.24 0-5.94.33-9.71 1.32l.07 11.67v1.71c0 4.02-.26 5.47-1.25 6.85-1.25 1.85-3.76 2.9-6.73 2.9-4.89 0-10.5-2.04-14.26-5.21-2.71-2.31-4.29-5.4-4.29-8.57 0-3.56 2.18-7.45 6.14-10.94 2.64-2.31 5.41-3.95 9.84-5.87v-7.78l-5.02.13-6.4-.13c-.2 0-.79 0-1.39.07l-.13-10.35c2.11.4 4.82.59 9.05.59h2.51q.92-.07 1.32-.07v-2.11c0-4.94-.07-6.46-.46-8.9h11.42c-.33 2.37-.4 3.89-.4 8.24v2.11c4.49-.46 8.58-1.25 12.08-2.24l.33 10.41Zm-22.91 20.89c-3.1 1.45-5.48 4.02-5.48 5.87 0 .79.46 1.45 1.45 2.11.92.59 2.18 1.05 2.97 1.05.86 0 1.06-.46 1.06-2.64v-6.39Zm36.91-14.5c-3.37-5.87-7.13-10.35-13.01-15.49l8.72-5.87c5.61 4.55 9.71 9.16 13.01 14.57l-8.72 6.79Zm15.71 29.2c1.91-2.57 2.71-3.69 4.03-6.33 1.65-3.1 2.24-4.68 3.1-7.97l8.45 3.89c-2.31 7.98-3.83 11.4-7.33 16.81l-8.25-6.39Zm51.83-41.26c1.72 0 2.91-.07 4.03-.2-.07.86-.13 1.91-.13 3.76v19.57c0 1.65.07 2.9.13 3.76-.33 0-.59-.07-.73-.07-.92-.07-1.06-.07-1.52-.07 4.36 5.34 6.07 7.78 9.9 14.24l-8.91 6.2c-1.98-4.35-3.1-6.39-5.28-10.08-1.25 9.43-3.1 10.41-19.02 10.41-11.95 0-14.2-1.12-14.2-7.12v-7.65c0-2.17-.07-3.43-.33-4.81h10.37c-.2.92-.26 2.04-.26 4.81v3.89c0 1.71.53 1.91 4.69 1.91 5.81 0 7.46-.2 8.25-.92.53-.53.92-2.04 1.06-4.42l-5.41 4.28c-2.24-2.7-4.03-4.35-7.73-7.38l4.95-3.43h-17.03c-2.51 0-4.36.07-6.54.2v-8.11c1.78.2 3.17.26 6.54.26h31.03v-2.31h-30.04c-2.44 0-4.03.07-6.54.2v-7.38c2.24.26 2.77.26 6.54.26h30.04v-2.17h-28.99c-1.45 0-2.77.07-4.49.13v-1.98c-2.51 1.98-4.03 3.1-6.67 4.74-1.78-4.22-2.71-5.87-5.22-9.03 4.36-2.37 6.54-3.89 9.44-6.39 3.5-2.97 6.27-6.33 8.39-10.02l11.55 1.58c-.79 1.19-.86 1.25-1.52 2.24h10.23c3.83 0 5.22-.07 6.6-.33l5.22 4.88q-.59.46-3.17 3.3c-.79.92-1.85 2.04-3.04 3.23h7.79Zm-19.94 0c1.12-1.12 1.52-1.58 2.44-2.83h-12.94a54.808 54.808 0 0 1-2.71 2.83h13.21Zm5.35 26.69c2.91 2.18 3.57 2.7 5.35 4.42l-2.18 1.71c2.44.99 4.69 1.65 7.53 2.18-.86-1.19-1.32-1.91-2.64-3.76l7.86-4.55h-15.91Zm83.66-25.76-.66.13c-1.12.2-3.3.66-6.54 1.32l-4.95.79c.53 1.19.99 2.37 1.52 3.43 8.45-1.45 12.94-2.51 15.38-3.49l.99 9.69c-1.45.2-1.65.2-8.12 1.58-.59.13-.79.13-3.96.73 2.38 4.28 4.62 7.51 8.45 12.13l-9.71 5.01c-3.9-2.04-8.12-2.9-13.87-2.9-7.33 0-11.36 1.52-11.36 4.28 0 1.52 1.32 2.57 4.03 3.1 1.45.26 4.23.53 6.34.53 6.73 0 16.51-1.91 21.06-4.09l1.52 11.14c-1.58.2-2.05.26-4.69.86-6.6 1.45-12.41 2.11-18.16 2.11-3.43 0-7.2-.33-10.3-.92-7.73-1.38-12.41-6.2-12.41-12.59 0-4.61 3.04-8.83 7.86-10.88 3.9-1.65 8.39-2.44 14.13-2.44 3.5 0 6.14.2 9.11.79a28.31 28.31 0 0 1-1.91-2.77l-.73-1.25-.4-.66c-5.22.66-14.33 1.25-22.71 1.45-3.9.13-4.16.13-5.74.33l-.46-9.75c1.91.26 3.17.33 6.8.33 6.34 0 12.68-.33 18.03-.99-.26-.66-.79-1.78-1.52-3.43-5.61.53-9.24.66-17.23.66-2.91.07-3.57.07-4.95.13l-.59-9.62c2.31.2 4.49.33 7.53.33 3.76 0 8.85-.2 11.82-.53l-.2-.53c-.13-.33-.4-.92-.73-1.78-.79-2.18-1.06-2.7-1.85-4.28l11.55-1.38c.26 1.91.73 3.36 2.05 6.85 3.57-.46 7.06-1.06 10.3-1.71-.86-1.91-1.32-2.83-2.44-4.61l6.27-1.65c2.24 3.43 3.63 6.26 4.89 10.22l-3.76 1.19.33 3.16Zm7.39-16.74c2.11 2.9 3.57 5.87 4.82 9.62l-6.07 1.98c-1.45-4.22-2.51-6.39-4.62-9.95l5.88-1.65Zm39.15 44.68c-3.83 8.44-8.25 12.13-14.26 12.13-8.85 0-15.05-8.44-15.05-20.5 0-7.71 2.64-14.7 7.59-20.1 5.81-6.33 14.2-9.69 23.9-9.69 8.85 0 16.64 2.97 21.52 8.11 4.23 4.48 6.47 10.88 6.47 18.32 0 8.57-3.24 16.35-8.78 21.29-4.49 4.02-9.71 6.13-18.95 7.58-1.58-4.75-2.84-7.12-5.61-10.81 6.21-.46 10.3-1.52 13.87-3.36 5.08-2.7 7.92-8.24 7.92-15.29 0-5.6-1.98-10.08-5.81-12.98-1.72-1.32-3.17-1.91-5.55-2.31-1.45 11.34-3.7 19.84-7.26 27.62Zm-11.36-24.12c-4.36 3.69-7.2 9.82-7.2 15.69 0 4.68 1.78 8.37 4.09 8.37 1.65 0 3.37-2.31 5.35-7.32 2.31-5.93 4.23-13.58 4.95-20.1-2.77.4-4.89 1.38-7.2 3.36Zm76-13.38c0-2.11-.13-3.56-.4-5.07h11.42c-.26 1.45-.4 3.03-.4 5.07v3.1h16.24c3.96 0 6.67-.13 9.11-.46v10.54c-2.38-.26-4.62-.4-8.72-.4h-23.51c-.2 3.43-.2 3.56-.4 5.54h19.28c3.5 0 5.08-.07 6.87-.26-.26 2.44-.26 2.83-.53 9.49-.46 11.93-1.39 18.92-3.17 22.87-1.85 4.35-4.82 5.8-11.62 5.8-1.65 0-4.56-.13-8.45-.33-.33-3.89-.92-6.26-2.71-10.22 3.7.46 6.8.72 9.64.72 3.37 0 4.23-.86 4.89-4.88.53-3.03.92-7.91 1.06-13.71H515.7c-.86 3.89-2.51 8.24-4.62 12.26-3.43 6.46-8.19 11.53-15.91 16.87-2.11-3.76-4.03-6.06-7.4-8.77 9.97-5.93 14.46-11.27 16.97-20.1 1.25-4.61 1.85-9.1 1.91-15.29h-8.19c-3.43 0-6.54.13-9.18.4v-10.54c2.84.33 5.48.46 9.11.46h15.32v-3.1Z"/><path d="M564.58 175.88c-.07-.66-.07-1.05-.33-2.57-1.25-7.71-1.78-14.04-1.78-20.96 0-5.93.4-11.73 1.25-17.47q.33-1.98 1.78-9.43c.46-2.31.73-4.22.73-4.88v-.26l8.91.92c-2.71 5.73-5.22 21.62-5.28 33.09q-.07 2.37-.07 3.43v1.05c0 .53 0 .66-.07 1.38h.07q.33-.72.79-1.91c.13-.46.46-1.19.79-2.24q.59-1.38 1.25-2.97c.13-.2.2-.4.79-2.04l5.48 2.44c-3.9 7.65-6.54 15.82-6.54 20.17 0 .46 0 .53.13 1.78l-7.92.46Zm14.92-43.17c3.1.79 6.54 1.06 11.95 1.06 2.31 0 3.76 0 6.07-.13 0-3.89-.07-7.18-.07-9.89 0-1.45-.07-2.44-.2-3.16l8.25-.2c-.33 1.85-.46 5.01-.46 9.69v3.03c3.43-.4 6.34-.92 8.91-1.58q.4-.13 1.45-.53l.53-.13.26 7.45c-.66.07-.73.07-1.91.33-2.24.46-5.68 1.05-9.18 1.45v1.45c0 3.69 0 3.82.66 14.9 4.75 2.24 6.4 3.16 10.37 6 .86.59 1.19.79 1.85 1.12l-3.17 7.97c-1.12-1.32-3.1-3.03-4.95-4.22-2.24-1.45-3.76-2.44-4.16-2.7v.92c0 1.45-.2 2.77-.53 3.69-1.52 3.89-6.14 6.2-12.54 6.2-8.65 0-13.93-4.09-13.93-10.81s5.61-10.87 13.6-10.87c2.44 0 4.09.26 5.88.92-.2-1.65-.26-4.88-.53-14.04-2.64.07-4.23.13-5.94.13-2.44 0-5.08-.07-8.19-.33-.92 0-1.65-.07-1.98-.07-.59-.07-.99-.07-1.12-.07-.33-.07-.53-.07-.66-.07-.07 0-.2 0-.4.07l.13-7.58Zm13.4 27.62c-4.23 0-6.87 1.65-6.87 4.35 0 2.44 2.38 4.09 6.07 4.09 2.44 0 4.36-.72 5.35-2.04.59-.79.86-1.78.86-3.56v-1.78c-2.18-.79-3.43-1.06-5.41-1.06Zm52.43-9.49c-4.16 3.43-6.01 6.2-6.01 9.03 0 4.28 4.82 6.13 15.98 6.13 7.86 0 16.51-1.19 20.73-2.77l.73 9.03c-1.12.07-1.52.07-2.91.26-7.92 1.12-12.15 1.45-17.83 1.45-7.2 0-13.01-.72-16.51-2.17-5.68-2.18-8.45-5.87-8.45-11.01s2.58-9.36 8.52-14.3l5.74 4.35Zm-10.04-27.09c5.08 1.19 10.96 1.65 19.81 1.65 8.39 0 13.07-.33 17.43-1.25l.26 7.38c-3.96 1.78-11.09 6.19-17.63 10.94l-5.74-4.55c3.43-2.17 6.67-4.15 9.71-5.87-2.91.4-5.74.53-9.9.53-3.37 0-8.85-.33-12.08-.79-1.32-.13-1.52-.2-2.44-.2l.59-7.84Zm54.94 4.94c3.04.79 7.46 1.12 14.26 1.12 1.25-5.27 1.72-8.04 1.85-10.88l8.85.73q-.4 1.19-1.06 3.82-1.19 4.94-1.58 6.19c5.02-.13 12.48-.66 16.84-1.19 4.89-.59 6.14-.86 8.45-1.52l.4 7.98c-1.52.07-2.11.13-3.83.33-9.57 1.05-15.38 1.52-23.64 1.71-1.39 4.68-3.9 11.01-5.22 13.38v.13c4.42-2.83 10.17-4.28 16.64-4.28 11.62 0 18.55 5.01 18.55 13.38 0 9.75-9.44 16.08-23.9 16.08-5.88 0-11.69-.79-16.84-2.31 0-3.76-.07-5.07-.66-8.37 5.94 2.11 11.49 3.16 17.03 3.16 9.57 0 15.78-3.36 15.78-8.63 0-4.09-3.96-6.33-11.09-6.33-4.89 0-9.97 1.19-14.2 3.23-2.44 1.19-3.63 2.17-4.82 3.82l-7.99-2.77c.99-1.58 2.11-3.63 3.1-5.93 2.18-5.01 4.62-11.4 5.55-14.63-3.5-.07-6.47-.2-9.97-.46-.92-.07-1.58-.07-2.11-.07h-.53l.13-7.71Zm78.44 3.89c-.99 3.62-2.11 9.75-2.97 16.21q-.13.92-.33 1.91l.13.13c3.83-3.69 12.02-6.26 20.01-6.26 11.23 0 18.62 5.54 18.62 13.97 0 4.81-2.57 9.69-6.8 12.72-4.29 3.1-9.77 4.48-17.43 4.48-5.68 0-9.31-.46-16.84-2.31-.07-4.09-.2-5.4-.99-8.5 6.47 2.24 12.15 3.3 17.76 3.3 9.31 0 15.78-3.89 15.78-9.49 0-4.42-4.16-7.05-11.16-7.05-5.88 0-12.02 1.78-16.44 4.81-1.19.86-1.58 1.25-2.97 2.83l-8.32-.26c.2-1.19.2-1.45.53-3.95.53-4.09 1.58-11.4 2.77-19.18.26-1.58.33-2.37.4-3.82l8.25.46Zm.86-12.92c4.56 2.5 17.17 6.26 24.63 7.31l-2.71 7.58c-11.29-2.57-18.22-4.75-25.75-8.24l3.83-6.66Zm61.01 40.54c.07-1.38.13-2.04.13-2.83q0-.72-.2-4.68l-.92-22.41c-.13-2.9-.33-6.2-.59-8.04h10.83c-.2 1.78-.46 5.21-.59 8.04l-.92 22.41q-.13 3.82-.13 4.75c0 .79 0 1.45.13 2.77h-7.73Zm-.92 14.43v-9.03h9.57v9.03h-9.57Z"/><path d="M964 170.43c-1.28 0-2.56-.49-3.54-1.46a5.003 5.003 0 0 1 0-7.07l14.49-14.49-14.88-14.88a5.003 5.003 0 0 1 0-7.07 5.003 5.003 0 0 1 7.07 0l18.42 18.42a5.003 5.003 0 0 1 0 7.07l-18.02 18.02a4.98 4.98 0 0 1-3.54 1.46Z" style="fill:#ef9595"/><path class="cls-3" d="M119.92 105.49c-25.79 0-46.69 20.9-46.69 46.69s20.9 46.69 46.69 46.69 46.69-20.9 46.69-46.69-20.9-46.69-46.69-46.69Zm0 85.93c-21.67 0-39.24-17.57-39.24-39.24s17.57-39.24 39.24-39.24 39.24 17.57 39.24 39.24-17.57 39.24-39.24 39.24Z"/><circle cx="119.92" cy="185.75" r="1.4"/><circle cx="103.13" cy="181.25" r="1.4"/><circle cx="90.84" cy="168.96" r="1.4"/><circle cx="86.34" cy="152.18" r="1.4"/><circle cx="90.84" cy="135.39" r="1.4"/><circle cx="103.13" cy="123.1" r="1.4"/><circle cx="119.92" cy="118.6" r="1.4"/><circle cx="136.71" cy="123.1" r="1.4"/><circle cx="148.99" cy="135.39" r="1.4"/><circle cx="153.49" cy="152.18" r="1.4"/><circle cx="148.99" cy="168.96" r="1.4"/><circle cx="136.71" cy="181.25" r="1.4"/><circle cx="119.92" cy="152.18" r="1.65"/><path style="fill:#893311" d="M119.24 125.05h1.36v27.13h-1.36z"/><rect x="116.61" y="96.31" width="6.61" height="12.84" rx="1.41" ry="1.41" style="fill:#f7cdbc"/><path d="M124.41 87.98h-8.95a6.23 6.23 0 0 0 0 12.46h8.95a6.23 6.23 0 0 0 0-12.46Zm4.09 6.23c0 2.57-2.08 4.65-4.65 4.65h-7.83c-2.57 0-4.65-2.08-4.65-4.65 0-2.57 2.08-4.65 4.65-4.65h7.83c2.57 0 4.65 2.08 4.65 4.65Z" style="fill:#f9c2ac"/><rect class="cls-7" y="161.88" width="52" height="12" rx="6" ry="6"/><path class="cls-7" d="m421.19 0 3.82 1.43-.48.72c3.5 3.15 5.52 4.93 6.05 5.31 2.23 1.53 4.03 2.68 5.41 3.44 1.48.77 3.45 1.53 5.89 2.29-1.27 1.34-2.18 2.39-2.71 3.16-1.7-.67-4.09-1.91-7.16-3.73v2.87h-20.06v-2.58c-2.76 1.91-4.88 3.16-6.37 3.73-.85-1.24-1.54-2.2-2.07-2.87 2.44-1.15 4.08-2.05 4.94-2.72 2.33-1.53 4.3-3.01 5.89-4.45 2.97-2.68 5.25-4.88 6.85-6.6Zm-13.21 18.79h24.83l.48-.43 3.02 1.43-3.18 7.6c-.64 1.34-1.59 3.44-2.87 6.31l-3.82-1.15 2.55-5.31 2.39-5.31h-23.4v-3.16ZM422.31 4.3l-5.41 4.88c-.85.77-2.23 1.86-4.14 3.3h18.94c-2.34-1.62-4.03-2.92-5.09-3.87-1.38-1.05-2.81-2.49-4.3-4.3Zm28.97 28.4V3.01h24.04v29.11h-4.14v-1.86h-15.92v2.44h-3.98Zm19.9-17.78V6.31h-15.92v8.61h15.92Zm0 12.19v-9.18h-15.92v9.18h15.92Zm22.45-18.07v24.38h-3.82V15.2c-1.27 2.1-2.28 3.59-3.02 4.45-.32-.67-.64-1.29-.96-1.86-.21-.29-.64-.72-1.27-1.29 1.91-2.49 3.45-4.88 4.62-7.17 1.17-2.2 2.39-5.21 3.66-9.04l3.82 1.43c-.32.96-.72 1.99-1.19 3.08-.48 1.1-1.09 2.51-1.83 4.23Zm8.6-3.3V.72h3.66v5.02h5.09V.72h3.5v5.02h6.37v3.01h-6.37v3.87h7.64v3.01H494.9v-3.01h7.32V8.75h-5.89V5.74h5.89Zm-3.66 27.82V18.07h19.9v15.35h-3.82v-1.43h-12.42v1.58h-3.66Zm16.08-10.18v-2.73h-12.42v2.73h12.42Zm0 5.88v-2.87h-12.42v2.87h12.42Zm-3.66-16.64V8.75h-5.09v3.87h5.09Zm21.8 3.44c.85.48 1.86.96 3.02 1.43-1.17 3.44-2.07 5.5-2.71 6.17-.64.67-1.43 1-2.39 1-.85 0-1.59-.43-2.23-1.29-.96-1.62-1.43-4.21-1.43-7.74 0-3.82.69-8.18 2.07-13.05l4.14 1c-1.17 3.83-1.91 6.93-2.23 9.32-.32 2.49-.37 4.35-.16 5.59 0 .19.05.34.16.43h.32c.1 0 .21-.05.32-.14.21-.38.58-1.29 1.11-2.73Zm.64 16.92c-.53-1.43-1.06-2.63-1.59-3.59 3.5-.57 6.21-1.38 8.12-2.44a9.465 9.465 0 0 0 3.98-4.45c.85-2.01 1.27-4.97 1.27-8.89 0-2.77-.27-6.45-.8-11.04l4.3-.29c.32 3.83.48 7.46.48 10.9 0 4.78-.53 8.42-1.59 10.9-.85 1.91-2.23 3.54-4.14 4.88-2.65 1.82-6 3.16-10.03 4.02Zm33.11-31.55-.48 6.17 1.43-.57 1.43 2.29c-1.27.96-2.34 1.86-3.18 2.73v2.01c4.35-3.16 7.48-5.21 9.39-6.17 1.7-.76 3.08-1.15 4.14-1.15 1.59 0 2.81.38 3.66 1.15.85.96 1.27 2.2 1.27 3.73 0 1.82-.05 3.83-.16 6.02-.32 4.69-.48 7.12-.48 7.31 0 1.05.16 1.82.48 2.29.1.38.42.57.96.57.42 0 .8-.19 1.11-.57.21-.29.58-1.62 1.11-4.02 1.27.86 2.49 1.34 3.66 1.43-.64 2.68-1.43 4.45-2.39 5.31-.96.86-2.12 1.29-3.5 1.29-1.59 0-2.87-.48-3.82-1.43-.96-1.05-1.43-2.58-1.43-4.59s.05-3.78.16-5.59c.32-4.21.48-6.4.48-6.6 0-1.24-.21-2.06-.64-2.44-.43-.38-.96-.57-1.59-.57-.74 0-1.59.29-2.55.86-2.02 1.15-5.36 3.49-10.03 7.03v5.74l.16 8.89h-3.82l.16-11.47-6.37 6.02-2.23-3.01 8.6-7.17.16-5.31c-2.55.57-4.67.96-6.37 1.15l-.32-3.3c1.59-.09 3.87-.38 6.85-.86V1.29l4.14.14Zm39.64 13.49c2.23-.67 3.66-1.05 4.3-1.15.64-.09 1.75-.14 3.34-.14 3.29 0 5.99.81 8.12 2.44 2.01 1.72 3.02 3.83 3.02 6.31 0 2.87-1.17 5.21-3.5 7.03-2.34 2.01-5.63 3.01-9.87 3.01-3.4 0-6.16-.67-8.28-2.01-1.38-.86-2.07-2.05-2.07-3.59 0-1.05.53-2.01 1.59-2.87 1.17-.86 2.55-1.29 4.14-1.29 1.91 0 3.71.53 5.41 1.58 1.49 1.15 2.6 2.77 3.34 4.88 2.02-.86 3.24-1.72 3.66-2.58.96-1.15 1.43-2.49 1.43-4.02 0-1.62-.74-3.11-2.23-4.45-1.38-1.15-3.5-1.72-6.37-1.72-1.7 0-3.34.24-4.94.72-1.49.57-3.18 1.39-5.09 2.44-1.27.86-3.24 2.39-5.89 4.59l-2.87-2.87c8.28-6.31 14.7-11.52 19.26-15.63-4.14.86-8.44 1.43-12.9 1.72l-.32-3.44c8.81-.48 14.54-1.1 17.19-1.86l2.39 3.01c-.85.48-2.02 1.29-3.5 2.44-.96.77-2.55 2.03-4.78 3.8-2.23 1.77-3.77 2.99-4.62 3.66Zm3.98 14.77h2.23c-.85-1.62-1.59-2.68-2.23-3.16-1.17-.76-2.18-1.15-3.02-1.15s-1.49.19-1.91.57c-.53.48-.8.91-.8 1.29 0 .57.37 1.05 1.11 1.43 1.38.67 2.92 1 4.62 1Zm30.88-11.33v4.73h-3.34v-5.74c0-.76.16-1.34.48-1.72.32-.48.96-.76 1.91-.86 2.12-.48 3.5-1.05 4.14-1.72.64-.57.96-1.39.96-2.44 0-1.24-.48-2.29-1.43-3.16-1.17-.76-2.76-1.15-4.78-1.15-1.91 0-3.45.53-4.62 1.58-.96.86-1.43 2.25-1.43 4.16h-4.14c.21-2.77.9-4.68 2.07-5.74 1.91-1.82 4.62-2.73 8.12-2.73s6.15.67 7.96 2.01c1.59 1.24 2.39 2.92 2.39 5.02 0 1.53-.48 2.82-1.43 3.87-1.17 1.24-2.76 2.06-4.78 2.44-.85.1-1.43.29-1.75.57-.21.19-.32.48-.32.86Zm-3.98 11.04v-2.72l.64-.57h3.18l.8.72v2.58l-.8.72h-3.18l-.64-.72Z"/></g></svg>