<svg width="634" height="269" fill="none" xmlns="http://www.w3.org/2000/svg"><path d="M69.808 115.405c6.425 0 11.634-5.206 11.634-11.629 0-6.422-5.209-11.629-11.634-11.629H11.635C5.209 92.147 0 97.354 0 103.776c0 6.423 5.209 11.629 11.635 11.629h58.173Z" fill="#0071BC"/><path d="M370.539 175.108H232.203a3.461 3.461 0 0 1-3.459-3.458 3.461 3.461 0 0 1 3.459-3.457h138.336a3.461 3.461 0 0 1 3.459 3.457 3.461 3.461 0 0 1-3.459 3.458Zm-163.614-44.19v-6.729c-4.297 4.76-10.215 7.892-18.809 7.892-11.728 0-21.369-6.729-21.369-19.032v-.233c0-13.583 10.332-19.847 25.084-19.847 6.267 0 10.797 1.047 15.21 2.55v-1.046c0-7.31-4.529-11.373-13.356-11.373-6.733 0-11.495 1.28-17.188 3.365l-4.414-13.466c6.849-3.016 13.59-4.993 24.154-4.993 19.274 0 27.752 9.985 27.752 26.808v36.097h-17.072l.008.007Zm.349-25.072c-3.017-1.395-6.965-2.318-11.262-2.318-7.547 0-12.193 3.016-12.193 8.59v.233c0 4.76 3.948 7.543 9.641 7.543 8.245 0 13.822-4.527 13.822-10.908v-3.132l-.008-.008Zm123.87 25.158v-8.815c-4.235 5.721-10.084 9.962-19.127 9.962-14.319 0-27.947-11.218-27.947-31.708v-.233c0-20.49 13.403-31.708 27.947-31.708 9.276 0 15 4.233 19.127 9.156V56.075h17.413v74.929h-17.413Zm.232-30.794c0-10.187-6.755-16.94-14.892-16.94-8.136 0-15.001 6.637-15.001 16.94v.233c0 10.187 6.872 16.947 15.001 16.947s14.892-6.753 14.892-16.947v-.233Zm132.635 32.166c-19.011 0-33.104-14.079-33.104-31.708v-.225c0-17.63 14.202-31.941 33.329-31.941 19.127 0 33.104 14.079 33.104 31.708v.233c0 17.629-14.202 31.941-33.329 31.941v-.008Zm16.149-31.941c0-9.047-6.531-16.947-16.149-16.947-9.618 0-15.924 7.667-15.924 16.714v.233c0 9.047 6.531 16.947 16.149 16.947 9.618 0 15.924-7.667 15.924-16.714v-.233Zm65.751 30.569v-6.637c-4.235 4.691-10.076 7.784-18.554 7.784-11.572 0-21.074-6.636-21.074-18.777v-.232c0-13.397 10.192-19.576 24.743-19.576 6.182 0 10.65 1.031 15.001 2.52v-1.031c0-7.21-4.468-11.218-13.17-11.218-6.64 0-11.34 1.256-16.948 3.318l-4.351-13.28c6.755-2.977 13.403-4.923 23.827-4.923 19.011 0 27.372 9.846 27.372 26.444v35.6h-16.839l-.007.008Zm.341-24.731c-2.979-1.372-6.872-2.287-11.107-2.287-7.446 0-12.03 2.977-12.03 8.473v.233c0 4.698 3.893 7.442 9.509 7.442 8.129 0 13.628-4.465 13.628-10.76v-3.101Zm70.335 24.731V96.776c0-8.241-3.894-12.482-10.533-12.482-6.64 0-10.883 4.233-10.883 12.482v34.228h-17.413V69.642h17.413v8.698c4.011-5.155 9.161-9.846 17.98-9.846 13.17 0 20.849 8.699 20.849 22.785v39.725h-17.413Zm-173.224 65.152-26.433-34.677v34.677h-11.852v-54.555h11.068l25.573 33.592v-33.592h11.852v54.555h-10.215.007Zm67.349-16.753h-29.086c1.171 5.38 4.909 8.187 10.215 8.187 3.979 0 6.864-1.248 10.137-4.287l6.787 6c-3.901 4.83-9.509 7.792-17.079 7.792-12.55 0-21.835-8.807-21.835-21.591v-.156c0-11.923 8.501-21.746 20.663-21.746 13.954 0 20.353 10.831 20.353 22.677v.155c0 1.171-.077 1.868-.155 2.961v.008Zm-20.198-16.288c-4.909 0-8.113 3.504-9.044 8.884h17.856c-.698-5.302-3.824-8.884-8.812-8.884Zm84.483 33.352h-10.68l-8.028-25.638-8.191 25.638h-10.603l-12.868-42.082h12.007l6.709 25.328 7.873-25.483h10.215l7.95 25.561 6.865-25.406h11.774l-13.023 42.082Zm42.715.465c-5.849 0-12.395-1.946-17.933-6.311l5.065-7.791c4.522 3.271 9.276 4.985 13.178 4.985 3.428 0 4.987-1.248 4.987-3.117v-.155c0-2.574-4.056-3.427-8.656-4.83-5.848-1.713-12.472-4.442-12.472-12.544v-.155c0-8.496 6.864-13.249 15.28-13.249 5.305 0 11.076 1.791 15.598 4.83l-4.522 8.187c-4.134-2.419-8.268-3.9-11.309-3.9-3.04 0-4.367 1.248-4.367 2.884v.155c0 2.342 3.979 3.427 8.501 4.985 5.849 1.946 12.636 4.753 12.636 12.389v.155c0 9.272-6.942 13.482-15.986 13.482ZM383.608 56.051H365.97v38.042h17.638V56.051Zm0 58.928V94.101H365.97v36.903h57.607v-16.025h-39.969Z" fill="#333"/><path d="M122.466 31.01c17.87 0 34.911 6.97 47.663 19.08a5.883 5.883 0 0 0 4.049 1.597h25.262c4.786 0 7.648-5.404 4.887-9.311a.562.562 0 0 1-.062-.093C185.471 15.808 154.895 0 122.466 0 67.504 0 22.757 44.461 22.284 99.288H53.31c.465-37.724 31.297-68.27 69.148-68.27l.008-.008Zm0 138.276c-38.138 0-69.172-31.01-69.172-69.138 0-.287.016-.573.024-.86H22.284c0 .287-.023.573-.023.86 0 55.222 44.948 100.148 100.197 100.148 27.465 0 54.031-11.45 72.887-31.421a99.628 99.628 0 0 0 9.408-11.59c2.544-3.659-.124-8.675-4.591-8.675h-28.397c-13.1 13.334-30.544 20.676-49.299 20.676Z" fill="#0071BC"/><path d="m69.226 99.016.015-1.566c.24-27.777 23.037-50.368 50.82-50.368 16.452 0 31.964 8.016 41.497 21.451a51.158 51.158 0 0 1 3.002 4.768l1.279 2.302h-22.175l-.458-.465c-6.081-6.17-14.512-9.706-23.137-9.706-17.677 0-32.236 14.373-32.46 32.05l-.016 1.534H69.226Z" fill="#333"/><path d="M120.061 151.664c-28.031 0-50.835-22.792-50.835-50.81 0-.093.008-.442.008-.442l.015-1.535h18.375l-.023 1.574v.403c-.008 17.893 14.551 32.452 32.46 32.452 8.773 0 16.995-3.45 23.145-9.706l.458-.465h22.16l-1.28 2.302a51.096 51.096 0 0 1-7.508 10.28c-9.564 10.133-23.044 15.94-36.975 15.94v.007Zm157.804-65.308c-11.572 0-18.67 6.985-18.67 21.638v22.668h-17.413V69.301h17.413v12.365c3.553-8.474 9.277-13.97 19.585-13.513v18.203h-.915Zm138.653 55.408h-13.961a3.877 3.877 0 1 0 0 7.753h13.961a3.878 3.878 0 0 0 3.879-3.877 3.878 3.878 0 0 0-3.879-3.876Zm120.225 8.528h-13.962a3.877 3.877 0 1 0 0 7.753h13.962a3.878 3.878 0 0 0 3.878-3.877 3.878 3.878 0 0 0-3.878-3.876Zm59.724-85.279h-27.923a3.877 3.877 0 1 0 0 7.753h27.923a3.877 3.877 0 1 0 0-7.753ZM351.365 51.834h-27.923a3.878 3.878 0 0 0-3.879 3.876 3.878 3.878 0 0 0 3.879 3.877h27.923a3.877 3.877 0 1 0 0-7.753Z" fill="#333"/><path d="M386.268 51.834h-27.923a3.878 3.878 0 0 0-3.878 3.876 3.878 3.878 0 0 0 3.878 3.877h27.923a3.878 3.878 0 0 0 3.879-3.877 3.878 3.878 0 0 0-3.879-3.876ZM257.512 68.89h-27.923a3.877 3.877 0 1 0 0 7.752h27.923a3.878 3.878 0 0 0 3.879-3.876 3.878 3.878 0 0 0-3.879-3.876Z" fill="#333"/><path d="M633.24 213.956H4.196V269H633.24v-55.044Z" fill="#0071BC"/><path d="M175.783 234.385c-.062.162-.163.364-.333.465-.497 9.822-1.459 15.807-2.715 17.986-1.094 1.822-2.746 2.543-4.6 2.543-1.388 0-3.606-.264-5.918-.729.031-.892-.07-2.38-.201-3.303 2.249.496 4.7.791 5.491.791 1.094 0 1.784-.295 2.35-1.457.892-1.721 1.683-6.978 1.986-13.792h-9.292c-1.59 7.31-4.6 13.792-10.619 18.552-.597-.597-1.822-1.52-2.683-2.016 5.592-4.264 8.4-9.954 9.827-16.567h-8.602v-3.078h9.199c.365-2.318.497-4.264.659-6.946l4.398.395c-.062.364-.364.558-.923.659-.201 2.248-.333 3.899-.659 5.884h9.595l.628-.232 2.412.829v.016Zm8.144 4.589h27.621v3.303h-26.302c-.202.333-.628.566-1.063.597l-.263-3.9h.007Zm54.745 5.853c-3.04-1.721-7.508-3.798-10.952-5.155v15.9h-3.475V226.64l4.429.263c-.031.365-.333.628-.962.76v9.52l.66-.93c3.769 1.388 8.795 3.605 12.138 5.388l-1.853 3.171.015.015Zm-3.04-16.133c1.388 1.124 3.273 3.171 4.335 4.66l-1.59 1.356c-.892-1.356-2.877-3.535-4.235-4.698l1.49-1.326v.008Zm4.498-2.907c1.458 1.256 3.374 3.171 4.336 4.628l-1.59 1.287c-.923-1.287-2.878-3.442-4.266-4.628l1.52-1.287Zm34.64 5.318v22.087h-3.343v-1.984H254.72v2.046h-3.273v-22.149h23.323Zm-3.374 17.025v-13.955h-16.707v13.955h16.707Zm12.434-9.156h27.62v3.303h-26.302c-.201.333-.628.566-1.062.597l-.264-3.9h.008Zm36.625-9.884c3.374 1.023 7.346 2.775 9.758 4.395l-1.722 2.977c-2.381-1.651-6.321-3.403-9.595-4.566l1.552-2.806h.007Zm-.628 22.614c11.41-3.504 19.151-10.047 23.06-19.18.962.76 2.086 1.388 3.04 1.915-4.103 9.024-12.107 16.102-23.191 19.901a1.044 1.044 0 0 1-.528.791l-2.381-3.443v.016Zm59.748-2.776v3.21h-27.427v-3.21h27.427Zm-3.273-17.652v3.209h-20.71v-3.209h20.71Zm32.716 19.211v2.643h-22.563v-2.643h13.131c.497-3.171 1.257-8.993 1.59-12.172h-12.208v-2.612h13.131l.466-.163 2.218 1.023a.863.863 0 0 1-.496.395 607.255 607.255 0 0 1-1.955 13.521h6.678l.008.008Zm7.477-11.513h27.621v3.303h-26.302c-.202.333-.629.566-1.063.597l-.264-3.9h.008Zm56.599-8.729c-.132.232-.295.364-.567.465-1.822 4.233-3.707 7.574-6.383 11.14 3.405 2.745 8.571 7.404 11.58 10.683l-2.909 2.512c-2.714-3.209-7.709-8.101-10.781-10.613-3.009 3.535-7.671 7.97-12.208 10.613-.528-.728-1.653-1.884-2.413-2.543 8.633-4.698 15.614-13.326 18.623-20.366h-15.543v-3.139h17.366l.597-.202 2.645 1.457-.007-.007Z" fill="#F2F2F2"/></svg>