<svg id="Layer_2" xmlns="http://www.w3.org/2000/svg" viewBox="0 0 287.29 201.5"><defs><style>.cls-1,.cls-2{fill:#fff}.cls-3{fill:#ffbe7d}.cls-4{fill:#0e95cc}.cls-2{stroke:#0e95cc;stroke-miterlimit:10;stroke-width:10px}</style></defs><g id="Layer_1-2"><path class="cls-1" d="M141.29 162V68c0-32.53 26.47-59 59-59s59 26.47 59 59v94h-118Zm92-26V68c0-18.2-14.8-33-33-33s-33 14.8-33 33v68h66Z"/><path class="cls-4" d="M200.29 14c29.78 0 54 24.22 54 54v89h-108V68c0-29.78 24.22-54 54-54m-38 127h76V68c0-20.95-17.05-38-38-38s-38 17.05-38 38v73m38-137c-35.29 0-64 28.71-64 64v99h128V68c0-35.29-28.71-64-64-64Zm-28 127V68c0-15.44 12.56-28 28-28s28 12.56 28 28v63h-56Z"/><rect class="cls-2" x="118.29" y="83.5" width="164" height="113" rx="21.78" ry="21.78"/><path class="cls-1" d="M194.29 163c-2.21 0-4-1.79-4-4v-11.15c-4.68-3.24-7.5-8.54-7.5-14.35 0-9.65 7.85-17.5 17.5-17.5s17.5 7.85 17.5 17.5c0 5.81-2.82 11.11-7.5 14.35V159c0 2.21-1.79 4-4 4h-12Z"/><path class="cls-4" d="M200.29 120c7.46 0 13.5 6.04 13.5 13.5 0 5.3-3.06 9.87-7.5 12.08V159h-12v-13.42c-4.44-2.21-7.5-6.78-7.5-12.08 0-7.46 6.04-13.5 13.5-13.5m0-8c-11.85 0-21.5 9.65-21.5 21.5 0 6.4 2.78 12.29 7.5 16.32V159c0 4.42 3.58 8 8 8h12c4.42 0 8-3.58 8-8v-9.18c4.72-4.02 7.5-9.92 7.5-16.32 0-11.85-9.65-21.5-21.5-21.5Z"/><path class="cls-1" d="M137.29 158V64c0-32.53 26.47-59 59-59s59 26.47 59 59v94h-118Zm92-26V64c0-18.2-14.8-33-33-33s-33 14.8-33 33v68h66Z"/><path class="cls-4" d="M196.29 10c29.78 0 54 24.22 54 54v89h-108V64c0-29.78 24.22-54 54-54m-38 127h76V64c0-20.95-17.05-38-38-38s-38 17.05-38 38v73m38-137c-35.29 0-64 28.71-64 64v99h128V64c0-35.29-28.71-64-64-64Zm-28 127V64c0-15.44 12.56-28 28-28s28 12.56 28 28v63h-56Z"/><rect class="cls-2" x="114.29" y="79.5" width="164" height="113" rx="21.78" ry="21.78"/><path class="cls-1" d="M190.29 158c-1.66 0-3-1.34-3-3v-11.68c-4.67-3.03-7.5-8.17-7.5-13.82 0-9.1 7.4-16.5 16.5-16.5s16.5 7.4 16.5 16.5c0 5.65-2.83 10.79-7.5 13.82V155c0 1.66-1.34 3-3 3h-12Z"/><path class="cls-4" d="M196.29 116c7.46 0 13.5 6.04 13.5 13.5 0 5.3-3.06 9.87-7.5 12.08V155h-12v-13.42c-4.44-2.21-7.5-6.78-7.5-12.08 0-7.46 6.04-13.5 13.5-13.5m0-6c-10.75 0-19.5 8.75-19.5 19.5 0 6.11 2.8 11.72 7.5 15.36V155c0 3.31 2.69 6 6 6h12c3.31 0 6-2.69 6-6v-10.14c4.7-3.65 7.5-9.25 7.5-15.36 0-10.75-8.75-19.5-19.5-19.5Z"/><path class="cls-1" d="M54.63 108.5c-2.02 0-3.72-1.5-3.97-3.5-.23-1.8-.63-3.86-1.24-6.3l-2.74-10.6-2.67 10.66c-.78 3-1.13 4.67-1.3 6.18a3.997 3.997 0 0 1-3.98 3.56h-12.6c-1.95 0-3.61-1.4-3.94-3.32-.28-1.64-.55-2.8-1.52-6.52L10.54 60.69c-.86-3.15-1.72-5.96-2.29-7.5-.46-1.23-.28-2.6.47-3.67s1.97-1.71 3.28-1.71h14.44c2.17 0 3.94 1.72 4 3.89.06 2 .34 3.83.82 6.33l1.94 9.22 2.54-9.85c.65-2.44 1.04-4.27 1.31-6.15a3.996 3.996 0 0 1 3.96-3.43h11.27a4 4 0 0 1 3.95 3.39c.25 1.65.65 3.38 1.36 5.94l2.6 9.89 1.92-9.08c.59-2.72.81-4.29.87-6.26a3.994 3.994 0 0 1 4-3.88h14.38c1.31 0 2.54.64 3.28 1.71s.92 2.45.47 3.67c-.58 1.57-1.43 4.43-2.22 7.47L72.75 98.63c-1.03 3.73-1.37 5.52-1.48 6.37-.25 2-1.95 3.5-3.97 3.5H54.63Z"/><path class="cls-4" d="M81.36 51.8c-.63 1.71-1.52 4.69-2.34 7.85L68.89 97.59c-.82 2.98-1.39 5.38-1.58 6.9H54.64c-.25-2.03-.7-4.24-1.33-6.78L48.5 79.09c-.63-2.47-1.14-5.38-1.77-9.56-.38 2.6-1.14 6.59-1.9 9.56l-4.69 18.69c-.82 3.17-1.21 5-1.39 6.71h-12.6c-.32-1.84-.63-3.17-1.58-6.84L14.41 59.66c-.89-3.23-1.77-6.14-2.41-7.85h14.44c.06 2.28.38 4.31.89 6.97l4.05 19.25c.19.95.63 3.93 1.39 8.93.95-5.32 1.39-7.6 1.77-8.93l5.07-19.63c.76-2.85 1.14-4.81 1.39-6.59h11.27c.25 1.65.63 3.42 1.46 6.4l5.13 19.51c.51 2.03.95 4.12 1.77 9.25q.13-1.2.51-3.86c.19-1.39.63-4.43.89-5.45l3.99-18.88c.63-2.91.89-4.75.95-6.97h14.38m0-8H66.97c-3.29 0-6.12 1.98-7.35 4.83a8.008 8.008 0 0 0-7.35-4.83H41c-3.2 0-6.01 1.9-7.28 4.69a7.998 7.998 0 0 0-7.28-4.69H12a8.007 8.007 0 0 0-7.51 10.78c.53 1.43 1.35 4.11 2.19 7.17L16.8 99.7c.92 3.57 1.18 4.67 1.44 6.18a7.995 7.995 0 0 0 7.88 6.63h12.6c4.07 0 7.49-3.06 7.95-7.1 0 .03 0 .06.01.09.5 4 3.9 7.01 7.94 7.01h12.67c4.04 0 7.44-3.01 7.94-7.01.06-.47.31-1.98 1.36-5.76l.02-.07 10.13-37.94s0-.03.01-.05c.75-2.88 1.57-5.66 2.1-7.09a8.007 8.007 0 0 0-7.51-10.78Zm0 16Z"/><path class="cls-1" d="M125.51 108.95c-.15 0-.31 0-.46-.03-2.43-.28-4.54-.42-9.99-.42H95.11c-4.85 0-6.55.07-9.13.19h-.18a3.992 3.992 0 0 1-3.95-4.59c.35-2.3.46-4.49.46-8.65V60.86c0-3.73-.11-5.78-.48-8.76a4.02 4.02 0 0 1 1.04-3.21 3.99 3.99 0 0 1 2.93-1.28h.2c2.6.13 4.34.19 9.12.19h20.21c4.32 0 6.27-.13 9.01-.42.14-.01.28-.02.42-.02.98 0 1.94.36 2.67 1.03.84.76 1.33 1.84 1.33 2.97V63.2c0 1.14-.48 2.22-1.33 2.98a4.01 4.01 0 0 1-2.67 1.02c-.14 0-.29 0-.43-.02-2.57-.28-4.66-.42-9.01-.42h-12.47v1.31h9.68c4.15 0 5.51-.06 9.1-.42a4.007 4.007 0 0 1 3.08 1.01c.84.76 1.32 1.84 1.32 2.97v11.72c0 1.13-.48 2.22-1.33 2.97a4.02 4.02 0 0 1-2.67 1.03c-.14 0-.28 0-.43-.02-2.72-.29-4.67-.42-9.07-.42h-9.68v2.64h12.34c4.57 0 7.25-.11 9.86-.42.15-.02.31-.03.46-.03.98 0 1.92.36 2.66 1.01.85.76 1.34 1.85 1.34 2.99v11.84c0 1.14-.49 2.23-1.34 2.99-.74.66-1.68 1.01-2.66 1.01Z"/><path class="cls-4" d="M124.75 51.36V63.2c-2.91-.32-5.2-.44-9.44-.44H98.84v9.31h13.68c4.18 0 5.7-.06 9.5-.44v11.72c-2.98-.32-5.13-.44-9.5-.44H98.84v10.64h16.34c4.81 0 7.6-.13 10.32-.44v11.84c-2.72-.32-5-.44-10.45-.44H95.1c-4.81 0-6.59.06-9.31.19.38-2.53.51-4.88.51-9.25V60.86c0-3.93-.13-6.14-.51-9.25 2.6.13 4.37.19 9.31.19h20.21c4.31 0 6.46-.13 9.44-.44m0-8c-.28 0-.56.01-.85.04-2.59.28-4.45.4-8.59.4H95.1c-4.71 0-6.41-.06-8.92-.18h-.39c-2.22 0-4.34.92-5.86 2.55a7.982 7.982 0 0 0-2.08 6.42c.34 2.8.45 4.73.45 8.27v34.58c0 3.94-.11 5.97-.42 8.06-.36 2.37.37 4.77 1.97 6.55a7.98 7.98 0 0 0 5.94 2.64h.37c2.5-.12 4.15-.18 8.94-.18h19.95c5.29 0 7.21.12 9.53.39.31.04.62.05.93.05 1.95 0 3.85-.71 5.32-2.02a7.984 7.984 0 0 0 2.68-5.98V93.11c0-2.28-.98-4.46-2.68-5.97-.41-.37-.85-.68-1.32-.95.34-.89.52-1.85.52-2.83V71.64c0-.74-.1-1.46-.3-2.16.12-.1.25-.2.37-.31a8.005 8.005 0 0 0 2.66-5.95V51.38a7.995 7.995 0 0 0-8-8Z"/><path class="cls-1" d="M131.97 108.69c-1.12 0-2.2-.47-2.96-1.31-.8-.88-1.17-2.07-1-3.25.36-2.57.47-4.62.47-8.76V60.73c0-3.42-.14-5.92-.48-8.62a4 4 0 0 1 1.05-3.23c.76-.81 1.82-1.27 2.92-1.27h.24c3.11.18 3.91.18 9.08.18h16.59c12.51 0 20.28 6.63 20.28 17.3 0 4.55-1.47 8.44-4.26 11.32.22.17.43.35.65.54 3.61 3.19 5.5 7.69 5.5 13.04 0 11.41-8.23 18.5-21.48 18.5h-17.23c-4.65 0-6.45.06-9.19.19h-.18Zm24.58-18.64c2.4 0 2.4-1.04 2.4-1.95 0-.86 0-1.83-2.46-1.83h-7.59v3.78h7.65Zm-.51-21.91c1.45 0 1.45-.47 1.45-1.07 0-.46-.09-.62-.09-.62-.07-.06-.51-.26-1.48-.26h-7.02v1.95h7.15Z"/><path class="cls-4" d="M131.97 51.61c3.23.19 4.12.19 9.31.19h16.59c10.26 0 16.28 4.94 16.28 13.3 0 3.86-1.27 6.9-3.67 9.06-1.39 1.2-2.54 1.84-5.13 2.79 3.1.7 4.75 1.46 6.59 3.04 2.72 2.41 4.12 5.83 4.12 10.01 0 9.12-6.46 14.5-17.48 14.5h-17.23c-4.81 0-6.65.06-9.38.19.38-2.72.51-4.88.51-9.31V60.73c0-3.36-.13-6.08-.51-9.12m12.92 20.52h11.15c3.36 0 5.45-1.96 5.45-5.07s-1.96-4.88-5.57-4.88H144.9v9.94m0 21.92h11.65c3.99 0 6.4-2.22 6.4-5.95s-2.41-5.83-6.46-5.83H144.9v11.78M131.98 43.6c-2.21 0-4.32.91-5.84 2.53a8.036 8.036 0 0 0-2.1 6.46c.32 2.53.45 4.88.45 8.13v34.65c0 4.38-.13 6.07-.43 8.2-.33 2.36.41 4.74 2.01 6.5a7.992 7.992 0 0 0 5.91 2.61h.37c2.66-.12 4.42-.18 9.01-.18h17.23c15.48 0 25.48-8.83 25.48-22.5 0-5.47-1.65-10.24-4.81-13.96 1.92-3.11 2.91-6.81 2.91-10.93 0-12.94-9.53-21.3-24.28-21.3H141.3c-5.18 0-5.85 0-8.84-.18-.16 0-.31-.01-.47-.01Z"/><path class="cls-3" d="M50.63 104.5c-2.02 0-3.72-1.5-3.97-3.5-.23-1.8-.63-3.86-1.24-6.3l-2.74-10.6-2.67 10.66c-.78 3-1.13 4.67-1.3 6.18a3.997 3.997 0 0 1-3.98 3.56h-12.6c-1.95 0-3.61-1.4-3.94-3.32-.28-1.64-.55-2.8-1.52-6.52L6.54 56.69c-.86-3.15-1.72-5.96-2.29-7.5-.46-1.23-.28-2.6.47-3.67S6.69 43.81 8 43.81h14.44c2.17 0 3.94 1.72 4 3.89.06 2 .34 3.83.82 6.33l1.94 9.22 2.54-9.85c.65-2.44 1.04-4.27 1.31-6.15a3.996 3.996 0 0 1 3.96-3.43h11.27a4 4 0 0 1 3.95 3.39c.25 1.65.65 3.38 1.36 5.94l2.6 9.89 1.92-9.08c.59-2.72.81-4.29.87-6.26a3.994 3.994 0 0 1 4-3.88h14.38c1.31 0 2.54.64 3.28 1.71s.92 2.45.47 3.67c-.58 1.57-1.43 4.43-2.22 7.47L68.75 94.63c-1.03 3.73-1.37 5.52-1.48 6.37-.25 2-1.95 3.5-3.97 3.5H50.63Z"/><path class="cls-4" d="M77.36 47.8c-.63 1.71-1.52 4.69-2.34 7.85L64.89 93.59c-.82 2.98-1.39 5.38-1.58 6.9H50.64c-.25-2.03-.7-4.24-1.33-6.78L44.5 75.09c-.63-2.47-1.14-5.38-1.77-9.56-.38 2.6-1.14 6.59-1.9 9.56l-4.69 18.69c-.82 3.17-1.21 5-1.39 6.71h-12.6c-.32-1.84-.63-3.17-1.58-6.84L10.41 55.66c-.89-3.23-1.77-6.14-2.41-7.85h14.44c.06 2.28.38 4.31.89 6.97l4.05 19.25c.19.95.63 3.93 1.39 8.93.95-5.32 1.39-7.6 1.77-8.93l5.07-19.63c.76-2.85 1.14-4.81 1.39-6.59h11.27c.25 1.65.63 3.42 1.46 6.4l5.13 19.51c.51 2.03.95 4.12 1.77 9.25q.13-1.2.51-3.86c.19-1.39.63-4.43.89-5.45l3.99-18.88c.63-2.91.89-4.75.95-6.97h14.38m0-8H62.97c-3.29 0-6.12 1.98-7.35 4.83a8.008 8.008 0 0 0-7.35-4.83H37c-3.2 0-6.01 1.9-7.28 4.69a7.998 7.998 0 0 0-7.28-4.69H8A8.007 8.007 0 0 0 .49 50.59c.53 1.43 1.35 4.11 2.19 7.17L12.8 95.7c.92 3.57 1.18 4.67 1.44 6.18a7.995 7.995 0 0 0 7.88 6.63h12.6c4.07 0 7.49-3.06 7.95-7.1 0 .03 0 .06.01.09.5 4 3.9 7.01 7.94 7.01h12.67c4.04 0 7.44-3.01 7.94-7.01.06-.47.31-1.98 1.36-5.76l.02-.07 10.13-37.94s0-.03.01-.05c.75-2.88 1.57-5.66 2.1-7.09a8.007 8.007 0 0 0-7.51-10.78Zm0 16Z"/><path class="cls-3" d="M121.51 104.95c-.15 0-.31 0-.46-.03-2.43-.28-4.54-.42-9.99-.42H91.11c-4.85 0-6.55.07-9.13.19h-.18a3.992 3.992 0 0 1-3.95-4.59c.35-2.3.46-4.49.46-8.65V56.86c0-3.73-.11-5.78-.48-8.76a4.02 4.02 0 0 1 1.04-3.21 3.99 3.99 0 0 1 2.93-1.28h.2c2.6.13 4.34.19 9.12.19h20.21c4.32 0 6.27-.13 9.01-.42.14-.01.28-.02.42-.02.98 0 1.94.36 2.67 1.03.84.76 1.33 1.84 1.33 2.97V59.2c0 1.14-.48 2.22-1.33 2.98a4.01 4.01 0 0 1-2.67 1.02c-.14 0-.29 0-.43-.02-2.57-.28-4.66-.42-9.01-.42H98.85v1.31h9.68c4.15 0 5.51-.06 9.1-.42a4.007 4.007 0 0 1 3.08 1.01c.84.76 1.32 1.84 1.32 2.97v11.72c0 1.13-.48 2.22-1.33 2.97a4.02 4.02 0 0 1-2.67 1.03c-.14 0-.28 0-.43-.02-2.72-.29-4.67-.42-9.07-.42h-9.68v2.64h12.34c4.57 0 7.25-.11 9.86-.42.15-.02.31-.03.46-.03.98 0 1.92.36 2.66 1.01.85.76 1.34 1.85 1.34 2.99v11.84c0 1.14-.49 2.23-1.34 2.99-.74.66-1.68 1.01-2.66 1.01Z"/><path class="cls-4" d="M120.75 47.36V59.2c-2.91-.32-5.2-.44-9.44-.44H94.84v9.31h13.68c4.18 0 5.7-.06 9.5-.44v11.72c-2.98-.32-5.13-.44-9.5-.44H94.84v10.64h16.34c4.81 0 7.6-.13 10.32-.44v11.84c-2.72-.32-5-.44-10.45-.44H91.1c-4.81 0-6.59.06-9.31.19.38-2.53.51-4.88.51-9.25V56.86c0-3.93-.13-6.14-.51-9.25 2.6.13 4.37.19 9.31.19h20.21c4.31 0 6.46-.13 9.44-.44m0-8c-.28 0-.56.01-.85.04-2.59.28-4.45.4-8.59.4H91.1c-4.71 0-6.41-.06-8.92-.18h-.39c-2.22 0-4.34.92-5.86 2.55a7.982 7.982 0 0 0-2.08 6.42c.34 2.8.45 4.73.45 8.27v34.58c0 3.94-.11 5.97-.42 8.06-.36 2.37.37 4.77 1.97 6.55a7.98 7.98 0 0 0 5.94 2.64h.37c2.5-.12 4.15-.18 8.94-.18h19.95c5.29 0 7.21.12 9.53.39.31.04.62.05.93.05 1.95 0 3.85-.71 5.32-2.02a7.984 7.984 0 0 0 2.68-5.98V89.11c0-2.28-.98-4.46-2.68-5.97-.41-.37-.85-.68-1.32-.95.34-.89.52-1.85.52-2.83V67.64c0-.74-.1-1.46-.3-2.16.12-.1.25-.2.37-.31a8.005 8.005 0 0 0 2.66-5.95V47.38a7.995 7.995 0 0 0-8-8Z"/><path class="cls-3" d="M127.97 104.69c-1.12 0-2.2-.47-2.96-1.31-.8-.88-1.17-2.07-1-3.25.36-2.57.47-4.62.47-8.76V56.73c0-3.42-.14-5.92-.48-8.62a4 4 0 0 1 1.05-3.23c.76-.81 1.82-1.27 2.92-1.27h.24c3.11.18 3.91.18 9.08.18h16.59c12.51 0 20.28 6.63 20.28 17.3 0 4.55-1.47 8.44-4.26 11.32.22.17.43.35.65.54 3.61 3.19 5.5 7.69 5.5 13.04 0 11.41-8.23 18.5-21.48 18.5h-17.23c-4.65 0-6.45.06-9.19.19h-.18Zm24.58-18.64c2.4 0 2.4-1.04 2.4-1.95 0-.86 0-1.83-2.46-1.83h-7.59v3.78h7.65Zm-.51-21.91c1.45 0 1.45-.47 1.45-1.07 0-.46-.09-.62-.09-.62-.07-.06-.51-.26-1.48-.26h-7.02v1.95h7.15Z"/><path class="cls-4" d="M127.97 47.61c3.23.19 4.12.19 9.31.19h16.59c10.26 0 16.28 4.94 16.28 13.3 0 3.86-1.27 6.9-3.67 9.06-1.39 1.2-2.54 1.84-5.13 2.79 3.1.7 4.75 1.46 6.59 3.04 2.72 2.41 4.12 5.83 4.12 10.01 0 9.12-6.46 14.5-17.48 14.5h-17.23c-4.81 0-6.65.06-9.38.19.38-2.72.51-4.88.51-9.31V56.73c0-3.36-.13-6.08-.51-9.12m12.92 20.52h11.15c3.36 0 5.45-1.96 5.45-5.07s-1.96-4.88-5.57-4.88H140.9v9.94m0 21.92h11.65c3.99 0 6.4-2.22 6.4-5.95s-2.41-5.83-6.46-5.83H140.9v11.78M127.98 39.6c-2.21 0-4.32.91-5.84 2.53a8.036 8.036 0 0 0-2.1 6.46c.32 2.53.45 4.88.45 8.13v34.65c0 4.38-.13 6.07-.43 8.2-.33 2.36.41 4.74 2.01 6.5a7.992 7.992 0 0 0 5.91 2.61h.37c2.66-.12 4.42-.18 9.01-.18h17.23c15.48 0 25.48-8.83 25.48-22.5 0-5.47-1.65-10.24-4.81-13.96 1.92-3.11 2.91-6.81 2.91-10.93 0-12.94-9.53-21.3-24.28-21.3H137.3c-5.18 0-5.85 0-8.84-.18-.16 0-.31-.01-.47-.01ZM255.9 179h-27c-1.66 0-3-1.34-3-3s1.34-3 3-3h27c1.66 0 3 1.34 3 3s-1.34 3-3 3Zm-42 0h-9c-1.66 0-3-1.34-3-3s1.34-3 3-3h9c1.66 0 3 1.34 3 3s-1.34 3-3 3Z"/></g></svg>