<svg id="Layer_2" xmlns="http://www.w3.org/2000/svg" viewBox="0 0 299 200.5"><defs><style>.cls-1{fill:#fff}.cls-3{fill:#ffbe7d}.cls-4{fill:#0e95cc}</style></defs><g id="Layer_1-2"><path class="cls-4" d="M265.89 200.5H37.11C18.86 200.5 4 185.65 4 167.39V37.11C4 18.85 18.85 4 37.11 4H265.9c18.25 0 33.11 14.85 33.11 33.11v130.28c0 18.25-14.85 33.11-33.11 33.11ZM37.11 14C24.37 14 14 24.37 14 37.11v130.28c0 12.74 10.37 23.11 23.11 23.11H265.9c12.74 0 23.11-10.37 23.11-23.11V37.11c0-12.74-10.37-23.11-23.11-23.11H37.11Z"/><rect class="cls-1" x="5" y="5" width="285" height="186.5" rx="28.11" ry="28.11"/><path class="cls-4" d="M261.89 196.5H33.11C14.86 196.5 0 181.65 0 163.39V33.11C0 14.85 14.85 0 33.11 0H261.9c18.25 0 33.11 14.85 33.11 33.11v130.28c0 18.25-14.85 33.11-33.11 33.11ZM33.11 10C20.37 10 10 20.37 10 33.11v130.28c0 12.74 10.37 23.11 23.11 23.11H261.9c12.74 0 23.11-10.37 23.11-23.11V33.11c0-12.74-10.37-23.11-23.11-23.11H33.11Z"/><circle class="cls-1" cx="82.98" cy="85.16" r="17.33"/><path class="cls-4" d="M82.98 105.49c-11.21 0-20.33-9.12-20.33-20.33s9.12-20.33 20.33-20.33 20.33 9.12 20.33 20.33-9.12 20.33-20.33 20.33Zm0-34.66c-7.9 0-14.33 6.43-14.33 14.33s6.43 14.33 14.33 14.33 14.33-6.43 14.33-14.33-6.43-14.33-14.33-14.33Z"/><path class="cls-1" d="M52.48 140.95c0-16.84 13.66-30.5 30.5-30.5s30.5 13.66 30.5 30.5h-61Z"/><path class="cls-4" d="M116.48 143.95h-67v-3c0-18.47 15.03-33.5 33.5-33.5s33.5 15.03 33.5 33.5v3Zm-60.84-6h54.68c-1.5-13.76-13.19-24.5-27.34-24.5s-25.84 10.74-27.34 24.5Z"/><circle cx="199.77" cy="102.55" r="48.04" style="stroke:#0e95cc;stroke-linecap:round;stroke-linejoin:round;stroke-width:6px;fill:#fff"/><path class="cls-1" d="M162.5 128.87c-7.15 0-13.19-2.55-17.93-7.57-4.62-4.87-6.96-10.95-6.96-18.06s2.34-13.22 6.96-18.12c4.74-5.04 10.78-7.6 17.93-7.6s13.14 2.56 17.9 7.6c4.64 4.94 6.99 11.04 6.99 18.12s-2.33 13.24-6.93 18.12c-4.73 4.99-10.77 7.51-17.97 7.51Zm0-33.9c-2.01 0-3.62.78-5.06 2.46-1.48 1.71-2.19 3.61-2.19 5.81 0 2.4.65 4.32 1.99 5.86 1.35 1.54 3.03 2.26 5.26 2.26 2.03 0 3.65-.78 5.11-2.45 1.44-1.66 2.14-3.53 2.14-5.73 0-2.35-.67-4.26-2.06-5.87-1.38-1.6-3.03-2.34-5.19-2.34Z"/><path class="cls-4" d="M162.5 80.51c6.28 0 11.52 2.22 15.72 6.66 4.11 4.38 6.17 9.73 6.17 16.06s-2.04 11.74-6.11 16.06c-4.16 4.38-9.42 6.57-15.78 6.57s-11.58-2.21-15.75-6.63c-4.09-4.32-6.14-9.65-6.14-16s2.05-11.72 6.14-16.06c4.18-4.44 9.43-6.66 15.75-6.66m0 33.84c2.89 0 5.34-1.16 7.37-3.47 1.92-2.21 2.89-4.78 2.89-7.71s-.93-5.68-2.79-7.83c-1.94-2.25-4.43-3.38-7.46-3.38s-5.33 1.17-7.34 3.5c-1.95 2.25-2.92 4.84-2.92 7.77 0 3.13.91 5.74 2.73 7.83 1.92 2.19 4.43 3.29 7.52 3.29m0-39.84c-8.02 0-14.79 2.88-20.12 8.55-5.15 5.46-7.77 12.25-7.77 20.17s2.62 14.68 7.79 20.12c5.33 5.64 12.09 8.5 20.11 8.5s14.82-2.84 20.13-8.44c5.15-5.46 7.76-12.25 7.76-20.19s-2.62-14.66-7.8-20.17c-5.37-5.68-12.12-8.56-20.09-8.56Zm0 33.84c-1.69 0-2.45-.6-3.01-1.25-.53-.6-1.24-1.68-1.24-3.87 0-1.49.45-2.68 1.46-3.85 1.08-1.25 1.98-1.42 2.8-1.42 1.29 0 2.11.36 2.92 1.3.91 1.05 1.33 2.29 1.33 3.91 0 1.48-.44 2.65-1.41 3.77-1.08 1.24-2.01 1.41-2.84 1.41Z"/><path class="cls-1" d="M220.78 128.04c-2.71 0-4.69-.12-6.04-.35-1.02-.19-1.67-.41-2.2-.76-.61-.39-1.12-.99-1.64-1.92a1185.3 1185.3 0 0 1-4.48-8.29c-.81-1.47-1.46-2.62-1.97-3.51.03.99.07 2.1.12 3.34.12 3.11.19 5.5.19 7.1 0 2.12-1.36 3.74-3.39 4.04-1.22.19-3.26.28-6.21.28-3.82 0-5.17-.17-5.84-.3-2.04-.42-3.33-1.95-3.33-3.9 0-2.25.11-5.66.33-10.15.21-4.41.32-7.74.32-9.9 0-2.3-.1-5.85-.3-10.57-.21-4.76-.31-8.41-.31-10.83 0-2.1 1.57-3.68 3.64-3.68.68 0 1.67.03 3.01.1 1.22.06 2.14.09 2.73.09s1.54-.03 2.77-.09c1.36-.06 2.35-.1 3.03-.1 2.01 0 3.52 1.53 3.52 3.55 0 1.57-.08 3.93-.23 7.01-.13 2.67-.21 4.75-.22 6.21.85-.17 1.51-.5 2.01-.99.39-.39 1.21-1.44 2.32-4.26.67-2.03 1.76-5 3.25-8.84.02-.04.04-.09.05-.13.71-1.6 2.25-2.56 4.13-2.56.59 0 1.43.03 2.58.1 1.25.07 1.91.09 2.24.09.53 0 1.31-.02 2.36-.06 1.15-.04 2-.06 2.56-.06 2.13 0 3.74 1.59 3.74 3.71 0 .78-.17 2.03-1.44 5.88-2.46 7.51-5.31 12.5-8.67 15.17.01.02 2.4 3.91 4.28 6.98 5.64 9.19 6.11 11.25 6.11 12.56 0 2.16-1.17 3.86-3.14 4.55-.77.25-1.97.48-5.84.48Z"/><path class="cls-4" d="M216.02 81.65c.53 0 1.33.03 2.41.09 1.07.06 1.88.09 2.41.09s1.38-.02 2.47-.06c1.09-.04 1.91-.06 2.44-.06.49 0 .74.24.74.71 0 .67-.43 2.32-1.29 4.94-2.54 7.74-5.46 12.57-8.75 14.49-.68.39-1.01.71-1.01.95s1.9 3.07 5.66 9.21c3.78 6.16 5.67 9.83 5.67 10.99 0 .88-.38 1.45-1.14 1.72-.61.2-2.23.31-4.85.31s-4.36-.1-5.53-.31c-.55-.1-.92-.21-1.09-.32-.17-.11-.39-.4-.66-.88-1.49-2.74-2.98-5.49-4.45-8.23-2.44-4.42-3.89-6.86-4.36-7.31-2.21.8-3.32 1.37-3.32 1.72 0 1.54.06 3.85.18 6.95s.18 5.43.18 6.99c0 .63-.28.99-.83 1.07-1.06.16-2.99.25-5.77.25s-4.42-.08-5.28-.25c-.59-.12-.89-.44-.89-.95 0-2.21.11-5.55.32-10.01.22-4.46.32-7.81.32-10.04 0-2.37-.1-5.94-.31-10.7-.21-4.76-.31-8.33-.31-10.7 0-.45.21-.68.65-.68.63 0 1.59.03 2.87.09s2.24.09 2.87.09 1.63-.03 2.92-.09 2.25-.09 2.89-.09c.35 0 .52.18.52.55 0 1.52-.08 3.8-.23 6.86-.15 3.06-.23 5.35-.23 6.86 0 1.76.48 2.64 1.44 2.64 2.44 0 4.33-.66 5.68-2 1-.98 2.02-2.77 3.04-5.37.65-1.99 1.73-4.91 3.22-8.78.22-.51.69-.77 1.38-.77m0-6c-3.06 0-5.7 1.67-6.88 4.36-.04.08-.07.17-.1.25-.5 1.29-.95 2.46-1.35 3.54.01-.59.02-1.12.02-1.59 0-3.67-2.86-6.55-6.52-6.55-.74 0-1.78.03-3.17.1-1.47.07-2.24.09-2.63.09s-1.13-.01-2.58-.09c-1.38-.07-2.42-.1-3.16-.1-3.73 0-6.65 2.93-6.65 6.68 0 2.46.1 6.14.31 10.96.2 4.67.3 8.18.3 10.44 0 2.13-.11 5.41-.32 9.75-.22 4.61-.33 7.98-.33 10.3 0 3.38 2.28 6.13 5.68 6.83.03 0 .06.01.1.02.91.17 2.39.35 6.4.35s5.8-.18 6.68-.31c2.96-.44 5.17-2.59 5.76-5.45.22.4.43.79.65 1.19.02.03.03.06.05.08.52.93 1.3 2.1 2.63 2.96 1.1.71 2.26 1 3.25 1.18.02 0 .04 0 .06.01 1.55.27 3.63.4 6.56.4 4.08 0 5.6-.23 6.74-.61l.1-.03c3.17-1.12 5.15-3.94 5.15-7.38 0-2.01-.47-4.21-6.55-14.13-1.19-1.93-2.19-3.56-3-4.89 2.98-3.2 5.47-8.02 7.68-14.76 1.32-4.03 1.59-5.6 1.59-6.81 0-3.76-2.96-6.71-6.74-6.71-.6 0-1.45.02-2.66.06-1.26.05-1.92.06-2.25.06-.24 0-.82-.01-2.07-.08-1.2-.07-2.1-.1-2.76-.1Zm-8.76 20.44Z"/><path class="cls-3" d="M160 124.37c-7.15 0-13.19-2.55-17.93-7.57-4.62-4.87-6.96-10.95-6.96-18.06s2.34-13.22 6.96-18.12c4.74-5.04 10.78-7.6 17.93-7.6s13.14 2.56 17.9 7.6c4.64 4.94 6.99 11.04 6.99 18.12s-2.33 13.24-6.93 18.12c-4.73 4.99-10.77 7.51-17.97 7.51Zm0-33.9c-2.01 0-3.62.78-5.06 2.46-1.48 1.71-2.19 3.61-2.19 5.81 0 2.4.65 4.32 1.99 5.86 1.35 1.54 3.03 2.26 5.26 2.26 2.03 0 3.65-.78 5.11-2.45 1.44-1.66 2.14-3.53 2.14-5.73 0-2.35-.67-4.26-2.06-5.87-1.38-1.6-3.03-2.34-5.19-2.34Z"/><path class="cls-4" d="M160 76.01c6.28 0 11.52 2.22 15.72 6.66 4.11 4.38 6.17 9.73 6.17 16.06s-2.04 11.74-6.11 16.06c-4.16 4.38-9.42 6.57-15.78 6.57s-11.58-2.21-15.75-6.63c-4.09-4.32-6.14-9.65-6.14-16s2.05-11.72 6.14-16.06c4.18-4.44 9.43-6.66 15.75-6.66m0 33.84c2.89 0 5.34-1.16 7.37-3.47 1.92-2.21 2.89-4.78 2.89-7.71s-.93-5.68-2.79-7.83c-1.94-2.25-4.43-3.38-7.46-3.38s-5.33 1.17-7.34 3.5c-1.95 2.25-2.92 4.84-2.92 7.77 0 3.13.91 5.74 2.73 7.83 1.92 2.19 4.43 3.29 7.52 3.29m0-39.84c-8.02 0-14.79 2.88-20.12 8.55-5.15 5.46-7.77 12.25-7.77 20.17s2.62 14.68 7.79 20.12c5.33 5.64 12.09 8.5 20.11 8.5s14.82-2.84 20.13-8.44c5.15-5.46 7.76-12.25 7.76-20.19s-2.62-14.66-7.8-20.17c-5.37-5.68-12.12-8.56-20.09-8.56Zm0 33.84c-1.69 0-2.45-.6-3.01-1.25-.53-.6-1.24-1.68-1.24-3.87 0-1.49.45-2.68 1.46-3.85 1.08-1.25 1.98-1.42 2.8-1.42 1.29 0 2.11.36 2.92 1.3.91 1.05 1.33 2.29 1.33 3.91 0 1.48-.44 2.65-1.41 3.77-1.08 1.24-2.01 1.41-2.84 1.41Z"/><path class="cls-3" d="M218.28 123.54c-2.71 0-4.69-.12-6.04-.35-1.02-.19-1.67-.41-2.2-.76-.61-.39-1.12-.99-1.64-1.92a1185.3 1185.3 0 0 1-4.48-8.29c-.81-1.47-1.46-2.62-1.97-3.51.03.99.07 2.1.12 3.34.12 3.11.19 5.5.19 7.1 0 2.12-1.36 3.74-3.39 4.04-1.22.19-3.26.28-6.21.28-3.82 0-5.17-.17-5.84-.3-2.04-.42-3.33-1.95-3.33-3.9 0-2.25.11-5.66.33-10.15.21-4.41.32-7.74.32-9.9 0-2.3-.1-5.85-.3-10.57-.21-4.76-.31-8.41-.31-10.83 0-2.1 1.57-3.68 3.64-3.68.68 0 1.67.03 3.01.1 1.22.06 2.14.09 2.73.09s1.54-.03 2.77-.09c1.36-.06 2.35-.1 3.03-.1 2.01 0 3.52 1.53 3.52 3.55 0 1.57-.08 3.93-.23 7.01-.13 2.67-.21 4.75-.22 6.21.85-.17 1.51-.5 2.01-.99.39-.39 1.21-1.44 2.32-4.26.67-2.03 1.76-5 3.25-8.84.02-.04.04-.09.05-.13.71-1.6 2.25-2.56 4.13-2.56.59 0 1.43.03 2.58.1 1.25.07 1.91.09 2.24.09.53 0 1.31-.02 2.36-.06 1.15-.04 2-.06 2.56-.06 2.13 0 3.74 1.59 3.74 3.71 0 .78-.17 2.03-1.44 5.88-2.46 7.51-5.31 12.5-8.67 15.17.01.02 2.4 3.91 4.28 6.98 5.64 9.19 6.11 11.25 6.11 12.56 0 2.16-1.17 3.86-3.14 4.55-.77.25-1.97.48-5.84.48Z"/><path class="cls-4" d="M213.52 77.15c.53 0 1.33.03 2.41.09 1.07.06 1.88.09 2.41.09s1.38-.02 2.47-.06c1.09-.04 1.91-.06 2.44-.06.49 0 .74.24.74.71 0 .67-.43 2.32-1.29 4.94-2.54 7.74-5.46 12.57-8.75 14.49-.68.39-1.01.71-1.01.95s1.9 3.07 5.66 9.21c3.78 6.16 5.67 9.83 5.67 10.99 0 .88-.38 1.45-1.14 1.72-.61.2-2.23.31-4.85.31s-4.36-.1-5.53-.31c-.55-.1-.92-.21-1.09-.32-.17-.11-.39-.4-.66-.88-1.49-2.74-2.98-5.49-4.45-8.23-2.44-4.42-3.89-6.86-4.36-7.31-2.21.8-3.32 1.37-3.32 1.72 0 1.54.06 3.85.18 6.95s.18 5.43.18 6.99c0 .63-.28.99-.83 1.07-1.06.16-2.99.25-5.77.25s-4.42-.08-5.28-.25c-.59-.12-.89-.44-.89-.95 0-2.21.11-5.55.32-10.01.22-4.46.32-7.81.32-10.04 0-2.37-.1-5.94-.31-10.7-.21-4.76-.31-8.33-.31-10.7 0-.45.21-.68.65-.68.63 0 1.59.03 2.87.09s2.24.09 2.87.09 1.63-.03 2.92-.09 2.25-.09 2.89-.09c.35 0 .52.18.52.55 0 1.52-.08 3.8-.23 6.86-.15 3.06-.23 5.35-.23 6.86 0 1.76.48 2.64 1.44 2.64 2.44 0 4.33-.66 5.68-2 1-.98 2.02-2.77 3.04-5.37.65-1.99 1.73-4.91 3.22-8.78.22-.51.69-.77 1.38-.77m0-6c-3.06 0-5.7 1.67-6.88 4.36-.04.08-.07.17-.1.25-.5 1.29-.95 2.46-1.35 3.54.01-.59.02-1.12.02-1.59 0-3.67-2.86-6.55-6.52-6.55-.74 0-1.78.03-3.17.1-1.47.07-2.24.09-2.63.09s-1.13-.01-2.58-.09c-1.38-.07-2.42-.1-3.16-.1-3.73 0-6.65 2.93-6.65 6.68 0 2.46.1 6.14.31 10.96.2 4.67.3 8.18.3 10.44 0 2.13-.11 5.41-.32 9.75-.22 4.61-.33 7.98-.33 10.3 0 3.38 2.28 6.13 5.68 6.83.03 0 .06.01.1.02.91.17 2.39.35 6.4.35s5.8-.18 6.68-.31c2.96-.44 5.17-2.59 5.76-5.45.22.4.43.79.65 1.19.02.03.03.06.05.08.52.93 1.3 2.1 2.63 2.96 1.1.71 2.26 1 3.25 1.18.02 0 .04 0 .06.01 1.55.27 3.63.4 6.56.4 4.08 0 5.6-.23 6.74-.61l.1-.03c3.17-1.12 5.15-3.94 5.15-7.38 0-2.01-.47-4.21-6.55-14.13-1.19-1.93-2.19-3.56-3-4.89 2.98-3.2 5.47-8.02 7.68-14.76 1.32-4.03 1.59-5.6 1.59-6.81 0-3.76-2.96-6.71-6.74-6.71-.6 0-1.45.02-2.66.06-1.26.05-1.92.06-2.25.06-.24 0-.82-.01-2.07-.08-1.2-.07-2.1-.1-2.76-.1Zm-8.76 20.44Zm16.74-65.17h-85c-1.66 0-3-1.34-3-3s1.34-3 3-3h85c1.66 0 3 1.34 3 3s-1.34 3-3 3Zm39 0h-21c-1.66 0-3-1.34-3-3s1.34-3 3-3h21c1.66 0 3 1.34 3 3s-1.34 3-3 3Z"/></g></svg>