<svg width="48" height="61" fill="none" xmlns="http://www.w3.org/2000/svg"><g filter="url(#a)"><path d="M26.725 8.758H21.28v6.174h5.446V8.758Z" fill="#E8944F"/><path opacity=".2" d="M22.676 14.932h-1.397V8.758h2.483c.775 1.83-.38 4.78-1.086 6.174Z" fill="#fff"/><path opacity=".1" d="M26.725 8.758v6.174h-3.24c-.186-.187.72-2.188 1.27-4.18a12.02 12.02 0 0 0 .355-1.697c.013-.1.022-.199.029-.297h1.586Z" fill="#000"/><path opacity=".1" d="M26.725 8.758v1.915c-.744.076-1.4.098-1.97.08a9.21 9.21 0 0 1-.762-.048c-1.463-.152-2.27-.595-2.714-1.032v-.855c.991.25 1.865.336 2.616.332.45-.003.855-.041 1.215-.095a7.006 7.006 0 0 0 1.204-.297h.411Z" fill="#000"/><path d="m42.778 16.794-.155.161-.795.824-3.119 3.23-1.643-1.587-2.102-2.033-.558-.535-.114-.11.041-.045 4.028-4.17 4.417 4.265Z" fill="#9FADAD"/><path opacity=".1" d="m42.778 16.794-.155.161c-4.392-3.413-6.97-.531-7.66.434-.123.177-.186.288-.186.288-.13-.297-.254-.57-.37-.823l-.073-.155 4.027-4.17 4.417 4.265Z" fill="#fff"/><path opacity=".1" d="m41.828 17.779-3.119 3.23-1.643-1.587c-.557-.884-1.06-1.64-1.06-1.64s3.682-1.41 5.822-.004Z" fill="#000"/><path d="m13.709 16.743-3.698 3.572-.72.693-.645-.668c-.003-.006-3.423-3.546-3.423-3.546l4.417-4.265.687.712.735.76 2.647 2.742Z" fill="#9FADAD"/><path opacity=".1" d="m8.643 20.334-3.42-3.54 4.417-4.265.687.712c-1.241 1.38-3.543 4.515-1.684 7.093Z" fill="#fff"/><path opacity=".1" d="m13.709 16.743-3.699 3.572c-.212-.216-.399-.551-.544-1.03-.735-2.406.51-4.226 1.596-5.284l2.647 2.742Z" fill="#000"/><path d="M44 32.084c0 11.043-8.953 19.998-20.002 19.998-1.568 0-3.093-.181-4.556-.523a19.844 19.844 0 0 1-6.614-2.887c-4.944-3.338-8.318-8.826-8.774-15.125A19.568 19.568 0 0 1 4 32.084c0-9.92 7.224-18.152 16.693-19.727a19.64 19.64 0 0 1 3.305-.274 19.912 19.912 0 0 1 13.204 4.98 19.934 19.934 0 0 1 6.797 15.02Z" fill="#FFEE53"/><path opacity=".1" d="M12.828 48.672c-5.325-3.594-8.827-9.683-8.827-16.588 0-9.92 7.222-18.153 16.693-19.726.95 11.747-4.51 27.771-7.865 36.314Z" fill="#fff"/><path opacity=".1" d="M44 32.084c0 11.043-8.954 19.998-20 19.998-1.568 0-3.094-.18-4.557-.523 5.705-6.275 17.785-21.16 17.68-34.569A19.95 19.95 0 0 1 44 32.084Z" fill="#000"/><path d="M39.355 32.511c0 6.276-3.764 11.671-9.16 14.052a15.274 15.274 0 0 1-7.326 1.263c-7.95-.579-14.226-7.215-14.226-15.315 0-.044 0-.092.003-.136.047-5.655 3.153-10.581 7.741-13.206l.238-.133a15.325 15.325 0 0 1 7.374-1.881c2.33 0 4.544.52 6.523 1.45.037.02.079.038.117.057 5.097 2.445 8.634 7.625 8.713 13.637.003.07.003.143.003.212Z" fill="#fff"/><path d="M39.352 32.299c-.082 6.184-3.825 11.484-9.157 13.837a15.274 15.274 0 0 1-7.326 1.263c-7.856-.573-14.074-7.058-14.223-15.024.048-5.655 3.154-10.582 7.741-13.207l.238-.133a15.324 15.324 0 0 1 7.374-1.88c2.33 0 4.544.519 6.523 1.45l.117.057c5.098 2.444 8.634 7.624 8.713 13.637Z" fill="#EDEDED"/><path opacity=".1" d="M39.355 32.084c0 .072 0 .142-.003.215-.08-6.013-3.616-11.193-8.713-13.637-.038-.02-.08-.038-.117-.057a15.292 15.292 0 0 0-6.523-1.45c-2.672 0-5.186.684-7.374 1.88l-.238.133C11.8 21.793 8.693 26.72 8.646 32.375c-.003-.098-.003-.193-.003-.292 0-5.712 3.118-10.695 7.744-13.342A15.325 15.325 0 0 1 24 16.727c2.33 0 4.544.52 6.523 1.45 5.22 2.451 8.833 7.758 8.833 13.906Z" fill="#000"/><path opacity=".2" d="M22.868 47.399c-7.855-.573-14.074-7.058-14.222-15.024.047-5.655 3.153-10.582 7.741-13.206l.237-.133c6.095 7.507 6.602 20.45 6.244 28.363Z" fill="#fff"/><path opacity=".1" d="M39.352 32.299c-.082 6.184-3.825 11.484-9.157 13.837 1.052-5.089 2.945-16.962.444-27.474 5.097 2.444 8.634 7.624 8.713 13.637Z" fill="#000"/><path d="M26.437.64A4.906 4.906 0 0 0 24.002 0a4.94 4.94 0 0 0-3.198 1.168 4.937 4.937 0 0 0-1.757 3.784 4.958 4.958 0 0 0 4.955 4.955 4.952 4.952 0 0 0 4.952-4.955A4.946 4.946 0 0 0 26.437.639Zm-.526 7.605a3.793 3.793 0 0 1-2.59.45 3.802 3.802 0 0 1 .681-7.543c1.055 0 1.922.39 2.6 1.026a3.796 3.796 0 0 1 1.203 2.774 3.812 3.812 0 0 1-1.893 3.293Z" fill="#E8944F"/><path opacity=".2" d="M23.486 9.882a4.958 4.958 0 0 1-4.44-4.93c0-1.516.682-2.875 1.758-3.784.177.38.345.748.5 1.105a3.768 3.768 0 0 0-1.108 2.68 3.802 3.802 0 0 0 3.125 3.742c.07.414.127.81.165 1.187Z" fill="#fff"/><path opacity=".1" d="M28.954 4.952c0 2.2-1.431 4.066-3.416 4.711.13-.452.253-.927.37-1.418a3.809 3.809 0 0 0 1.896-3.293 3.796 3.796 0 0 0-1.203-2.774A12.236 12.236 0 0 0 26.437.64a4.946 4.946 0 0 1 2.517 4.312Z" fill="#000"/><path d="M24.507 21.989a.509.509 0 0 1-1.017 0v-3.31a.509.509 0 0 1 1.017 0v3.31Zm-5.223 1.127a.508.508 0 1 1-.88.508l-1.656-2.866a.508.508 0 1 1 .881-.509l1.655 2.867Zm-3.96 3.588a.508.508 0 1 1-.508.88l-2.867-1.655a.508.508 0 1 1 .509-.88l2.866 1.655Zm-1.635 5.086a.508.508 0 0 1 0 1.017h-3.31a.509.509 0 0 1 0-1.017h3.31Zm1.127 5.224a.508.508 0 1 1 .508.88l-2.866 1.655a.508.508 0 1 1-.509-.88l2.867-1.655Zm3.588 3.96a.508.508 0 1 1 .88.508l-1.655 2.867a.508.508 0 0 1-.88-.509l1.655-2.866Zm5.086 1.635a.509.509 0 0 1 1.017 0v3.31a.509.509 0 0 1-1.017 0v-3.31Zm5.224-1.127a.508.508 0 1 1 .88-.508l1.655 2.866a.508.508 0 1 1-.88.509l-1.655-2.867Zm3.959-3.588a.508.508 0 1 1 .509-.88l2.866 1.655a.508.508 0 1 1-.508.88l-2.867-1.655Zm1.636-5.087a.509.509 0 0 1 0-1.017h3.31a.509.509 0 0 1 0 1.017h-3.31Zm-1.127-5.223a.508.508 0 0 1-.509-.88l2.867-1.656a.508.508 0 1 1 .508.88l-2.866 1.656Zm-3.588-3.96a.508.508 0 1 1-.88-.508l1.655-2.867a.508.508 0 1 1 .88.509l-1.655 2.866Zm2.055 3.65L30.1 28.537l-2.248 1.837-3.793 3.103c-.288.187-.728.038-1.039-.336a1.455 1.455 0 0 1-.098-.133c-.31-.472-.3-1.022.02-1.231l4.353-2.252 4.354-2.25v-.001Z" fill="#393D3D"/><path opacity=".2" d="M31.648 27.274 30.1 28.537c-2.299 1.08-5.747 3.604-7.08 4.604a1.455 1.455 0 0 1-.098-.133c-.31-.472-.3-1.022.02-1.231l4.353-2.252 4.354-2.25v-.001Z" fill="#fff"/></g><defs><filter id="a" x="0" y="0" width="48" height="60.082" filterUnits="userSpaceOnUse" color-interpolation-filters="sRGB"><feFlood flood-opacity="0" result="BackgroundImageFix"/><feColorMatrix in="SourceAlpha" values="0 0 0 0 0 0 0 0 0 0 0 0 0 0 0 0 0 0 127 0" result="hardAlpha"/><feOffset dy="4"/><feGaussianBlur stdDeviation="2"/><feComposite in2="hardAlpha" operator="out"/><feColorMatrix values="0 0 0 0 0 0 0 0 0 0 0 0 0 0 0 0 0 0 0.25 0"/><feBlend in2="BackgroundImageFix" result="effect1_dropShadow_243_10960"/><feBlend in="SourceGraphic" in2="effect1_dropShadow_243_10960" result="shape"/></filter></defs></svg>