<svg width="30" height="30" fill="none" xmlns="http://www.w3.org/2000/svg"><path d="M0 15C0 6.716 6.716 0 15 0c8.284 0 15 6.716 15 15 0 8.284-6.716 15-15 15-8.284 0-15-6.716-15-15Z" fill="#474D41"/><path fill-rule="evenodd" clip-rule="evenodd" d="M15 4.5a.75.75 0 0 1 .75-.75A11.25 11.25 0 1 1 4.5 15 .75.75 0 1 1 6 15a9.75 9.75 0 1 0 9.75-9.75.75.75 0 0 1-.75-.75Z" fill="#FFEE53"/><path d="M12 4.875a1.125 1.125 0 1 1-2.25 0 1.125 1.125 0 0 1 2.25 0Zm-3.75 2.25a1.125 1.125 0 1 1-2.25 0 1.125 1.125 0 0 1 2.25 0ZM6 10.875a1.125 1.125 0 1 1-2.25 0 1.125 1.125 0 0 1 2.25 0Z" fill="#FFEE53"/><path fill-rule="evenodd" clip-rule="evenodd" d="M8.92 16.836a.75.75 0 0 0-.334-1.006l-3-1.5a.75.75 0 0 0-.672 1.34l3 1.5a.75.75 0 0 0 1.007-.334Z" fill="#FFEE53"/><path fill-rule="evenodd" clip-rule="evenodd" d="M5.781 14.469a.75.75 0 0 1 0 1.062l-2.25 2.25a.75.75 0 0 1-1.062-1.06l2.25-2.25a.75.75 0 0 1 1.062 0v-.002ZM15.75 9.75a.75.75 0 0 1 .75.75V15a.75.75 0 1 1-1.5 0v-4.5a.75.75 0 0 1 .75-.75Z" fill="#FFEE53"/><path fill-rule="evenodd" clip-rule="evenodd" d="M21 15a.75.75 0 0 1-.75.75h-4.5a.75.75 0 1 1 0-1.5h4.5A.75.75 0 0 1 21 15Z" fill="#FFEE53"/></svg>