<svg width="33" height="33" fill="none" xmlns="http://www.w3.org/2000/svg"><g filter="url(#a)"><path d="M16.499 30.498c8.284 0 14.999-6.715 14.999-14.999S24.783.5 16.499.5 1.5 7.215 1.5 15.499s6.715 14.999 14.999 14.999Z" fill="#F9C63F"/></g><path opacity=".2" d="M16.499 29.271c7.606 0 13.772-6.166 13.772-13.772S24.105 1.727 16.5 1.727 2.727 7.893 2.727 15.499s6.166 13.772 13.772 13.772Z" fill="#fff"/><path d="M16.57 26.258c5.956 0 10.784-4.828 10.784-10.784 0-5.955-4.828-10.783-10.784-10.783-5.955 0-10.783 4.828-10.783 10.783 0 5.956 4.828 10.784 10.784 10.784Z" fill="#FFF3BD"/><path d="M16.624 16.139a.716.716 0 0 1-.395-1.313l5.873-3.884a.715.715 0 1 1 .79 1.194l-5.874 3.884a.713.713 0 0 1-.394.119Z" fill="#F15A24"/><path d="M18.155 15.321a1.635 1.635 0 1 0-3.27 0 1.635 1.635 0 0 0 3.27 0Z" fill="#FCE021"/><path d="M16.52 17.468a2.149 2.149 0 0 1-2.147-2.147c0-1.184.963-2.146 2.146-2.146 1.184 0 2.147.962 2.147 2.146a2.149 2.149 0 0 1-2.147 2.147Zm0-3.271c-.62 0-1.125.505-1.125 1.124a1.126 1.126 0 0 0 2.249 0c0-.62-.505-1.124-1.125-1.124Z" fill="#FBB03B"/><path d="M7.598 24.958a.307.307 0 0 1-.213-.086 12.964 12.964 0 0 1-4.006-9.418c0-3.586 1.357-6.775 3.827-9.242a.307.307 0 0 1 .433.433 12.375 12.375 0 0 0-3.65 8.809 12.51 12.51 0 0 0 3.82 8.976.307.307 0 0 1 .008.434.302.302 0 0 1-.221.094h.002Z" fill="#fff"/><path d="M16.014 28.383V30h-5.21v-1.354c1.544-2.523 2.46-4.084 2.749-4.681.293-.602.44-1.07.44-1.406 0-.258-.046-.45-.136-.575-.085-.129-.218-.193-.398-.193-.18 0-.314.07-.404.211-.086.14-.13.42-.13.838v.902h-2.12v-.346c0-.53.027-.949.082-1.253.054-.309.19-.612.404-.909a2.03 2.03 0 0 1 .838-.674c.344-.152.756-.228 1.236-.228.942 0 1.653.234 2.133.703.484.465.727 1.055.727 1.77 0 .543-.137 1.117-.41 1.722-.27.606-1.069 1.891-2.397 3.856h2.596Zm5.748-7.869v6.199h.674v1.617h-.674V30h-2.367v-1.67h-2.813v-1.617l2.045-6.2h3.135Zm-2.367 6.199v-4.037l-1.043 4.037h1.043Z" fill="#FC8B72"/><path fill-rule="evenodd" clip-rule="evenodd" d="M17.014 29.33V31h-7.21v-2.635l.148-.24c.896-1.467 1.57-2.59 2.03-3.383H9.805v-1.346c0-.554.027-1.04.097-1.429.086-.48.29-.92.579-1.319.321-.444.742-.78 1.243-1.002.501-.222 1.059-.314 1.641-.314 1.095 0 2.097.273 2.828.985.468.45.774.985.924 1.583l.787-2.386h4.858v6.199h.674v3.617h-.674V31h-4.367v-1.67h-1.381Zm-1-.947h-2.596c.24-.356.463-.69.669-1 .93-1.408 1.507-2.36 1.728-2.856.273-.605.41-1.18.41-1.722 0-.715-.243-1.305-.727-1.77-.48-.469-1.191-.703-2.133-.703-.48 0-.892.076-1.236.229a2.03 2.03 0 0 0-.838.673c-.215.297-.35.6-.404.909-.03.166-.052.366-.065.6a11.39 11.39 0 0 0-.017.654v.345h2.12v-.902c0-.418.044-.697.13-.838a.448.448 0 0 1 .404-.211c.18 0 .313.064.398.193.09.125.135.317.135.575 0 .13-.022.28-.066.452a4.685 4.685 0 0 1-.269.731 8.16 8.16 0 0 1-.104.223c-.085.176-.225.435-.418.777-.464.822-1.241 2.123-2.33 3.904V30h5.209v-1.617Zm-.432-1.464a59.93 59.93 0 0 1-.299.464h.299v-.464Zm1 1.411h2.813V30h2.367v-1.67h.674v-1.617h-.674v-6.2h-3.135l-2.045 6.2v1.617Zm2.813-1.617v-4.037l-1.043 4.037h1.043Z" fill="#FC8B72"/><defs><filter id="a" x=".5" y=".5" width="31.998" height="31.998" filterUnits="userSpaceOnUse" color-interpolation-filters="sRGB"><feFlood flood-opacity="0" result="BackgroundImageFix"/><feColorMatrix in="SourceAlpha" values="0 0 0 0 0 0 0 0 0 0 0 0 0 0 0 0 0 0 127 0" result="hardAlpha"/><feOffset dy="1"/><feGaussianBlur stdDeviation=".5"/><feComposite in2="hardAlpha" operator="out"/><feColorMatrix values="0 0 0 0 0 0 0 0 0 0 0 0 0 0 0 0 0 0 0.15 0"/><feBlend in2="BackgroundImageFix" result="effect1_dropShadow_301_7947"/><feBlend in="SourceGraphic" in2="effect1_dropShadow_301_7947" result="shape"/></filter></defs></svg>