<svg width="28" height="29" fill="none" xmlns="http://www.w3.org/2000/svg"><g clip-path="url(#a)"><path d="M21.082 27.433H6.158V5.698l17.064.18v19.398" fill="#FFE6A3"/><path d="M21.082 28.061H5.53V5.063l18.321.192v20.02a.63.63 0 0 1-1.257 0V6.5L6.787 6.333v20.469h14.295a.63.63 0 0 1 0 1.257v.002Z" fill="#F2F2F2"/><path d="M18.82.939H.5V23.75h18.32V.94Z" fill="#F9C63F"/><g filter="url(#b)"><path d="M18.82.939H.5V23.75h18.32V.94Z" fill="#F9C63F"/></g><path opacity=".1" d="M18.82.939H9.66V23.75h9.16V.94Z" fill="#F15A24"/><path d="M14.6 6.328H4.54a.63.63 0 0 1 0-1.258H14.6a.63.63 0 0 1 0 1.258Z" fill="#F7931E"/><path d="M14.6 9.56H4.54a.63.63 0 0 1 0-1.257H14.6a.63.63 0 0 1 0 1.258Z" fill="#FFF3BD"/><path d="M14.6 12.794H4.54a.63.63 0 0 1 0-1.258H14.6a.63.63 0 0 1 0 1.258Z" fill="#F7931E"/><path d="M14.6 16.027H4.54a.63.63 0 0 1 0-1.258H14.6a.63.63 0 0 1 0 1.258Z" fill="#FFF3BD"/><path d="M23.75 3.106c-8.75 0-9.917 8.166-10.5 11.666h1.165c.389-1.944 1.361-3.013 2.918-3.208C19.667 11.272 21.417 9.23 22 7.48l-.875-.584.583-.583c.584-.583 1.17-1.458 2.042-3.208Z" fill="#FC8B72"/></g><defs><clipPath id="a"><path fill="#fff" transform="translate(.5 .939)" d="M0 0h27v27.122H0z"/></clipPath><filter id="b" x="-.5" y=".939" width="20.321" height="24.811" filterUnits="userSpaceOnUse" color-interpolation-filters="sRGB"><feFlood flood-opacity="0" result="BackgroundImageFix"/><feColorMatrix in="SourceAlpha" values="0 0 0 0 0 0 0 0 0 0 0 0 0 0 0 0 0 0 127 0" result="hardAlpha"/><feOffset dy="1"/><feGaussianBlur stdDeviation=".5"/><feComposite in2="hardAlpha" operator="out"/><feColorMatrix values="0 0 0 0 0 0 0 0 0 0 0 0 0 0 0 0 0 0 0.11 0"/><feBlend in2="BackgroundImageFix" result="effect1_dropShadow_275_7864"/><feBlend in="SourceGraphic" in2="effect1_dropShadow_275_7864" result="shape"/></filter></defs></svg>