<svg id="Layer_2" xmlns="http://www.w3.org/2000/svg" viewBox="0 0 63 68.44"><defs><clipPath id="clippath"><path d="M36.5 40.44c0-2.76-2.24-5-5-5s-5 2.24-5 5c0 1.64.8 3.09 2.03 4h-.03v6.66c0 1.3 1.05 2.34 2.34 2.34h1.31c1.3 0 2.34-1.05 2.34-2.34v-6.66h-.03c1.22-.91 2.03-2.36 2.03-4Z" style="fill:none"/></clipPath><style>.cls-4{fill:#edd591}.cls-8{fill:#229ef2}</style></defs><g id="Layer_1-2"><path class="cls-8" d="M36.5 40.44c0-2.76-2.24-5-5-5s-5 2.24-5 5c0 1.64.8 3.09 2.03 4h-.03v6.66c0 1.3 1.05 2.34 2.34 2.34h1.31c1.3 0 2.34-1.05 2.34-2.34v-6.66h-.03c1.22-.91 2.03-2.36 2.03-4Z"/><path d="M56.17 23.44H54V11.83C54 5.31 48.7 0 42.17 0H20.83C14.31 0 9 5.3 9 11.83v11.62H6.83C3.06 23.45 0 26.51 0 30.28v31.35c0 3.77 3.06 6.83 6.83 6.83h49.34c3.77 0 6.83-3.06 6.83-6.83V30.27c0-3.77-3.06-6.83-6.83-6.83ZM19 11.83c0-1.01.82-1.83 1.83-1.83h21.35c1.01 0 1.83.82 1.83 1.83v4.53a7.08 7.08 0 0 1-7.08 7.08H26.1a7.08 7.08 0 0 1-7.08-7.08v-4.53Z" style="fill:#c9d2d6"/><path class="cls-8" d="M36.5 40.44c0-2.76-2.24-5-5-5s-5 2.24-5 5c0 1.64.8 3.09 2.03 4h-.03v6.66c0 1.3 1.05 2.34 2.34 2.34h1.31c1.3 0 2.34-1.05 2.34-2.34v-6.66h-.03c1.22-.91 2.03-2.36 2.03-4Z"/><path d="M59.25 45.19v15.15c0 2.27-1.83 4.1-4.1 4.1H22.08c10.39-1.57 21.09-3.73 28.2-5.5 5.21-1.3 7.79-7.05 8.97-13.75Z" style="fill:#b4bec1"/><path d="M3.25 46.69V31.54c0-2.27 1.83-4.1 4.1-4.1h33.07c-10.39 1.57-21.09 3.73-28.2 5.5-5.21 1.3-7.79 7.05-8.97 13.75Z" style="fill:#dce1e2"/><g style="clip-path:url(#clippath)"><path d="M38.25 40.44c0-2.76-2.24-5-5-5s-5 2.24-5 5c0 1.64.8 3.09 2.03 4h-.03v6.66c0 1.3 1.05 2.34 2.34 2.34h1.31c1.3 0 2.34-1.05 2.34-2.34v-6.66h-.03c1.22-.91 2.03-2.36 2.03-4Z" style="fill:#0679b7"/></g><circle class="cls-4" cx="2.75" cy="15.94" r="2.5"/><circle cx="31.75" cy="15.94" r="2.5" style="fill:#efb00c"/><circle class="cls-4" cx="59.75" cy="15.94" r="2.5"/></g></svg>