<svg xmlns="http://www.w3.org/2000/svg" viewBox="0 0 64.83 67"><defs><clipPath id="a"><path d="m38.05 48.9 8.09-3.04-6.11-6.11-3.04 8.09a.88.88 0 0 0 1.06 1.06Z" style="fill:none"/></clipPath></defs><g style="opacity:.1"><path d="M63.27 31.7a4.545 4.545 0 0 0-6.42 0L40.33 48.22l6.42 6.42 16.52-16.52a4.545 4.545 0 0 0 0-6.42ZM40.03 48.83l-2.26 6.01-.19-.2-2.29 2.3 3.67 3.67 2.29-2.3-1.11-1.11 6-2.25-6.11-6.12z" style="fill:#054663"/></g><path style="fill:#dce1e2" d="M0 0h49.97v67H0z"/><path d="M7.38 6.81h35.2v21.58H7.38zM7.1 36.34H23v21.58H7.1z" style="fill:#f4f4f4"/><path d="M52.87 18.53h1.08c2.21 0 4 1.79 4 4v23.9h-9.08v-23.9c0-2.21 1.79-4 4-4Z" transform="rotate(45 53.406 32.481)" style="fill:#229ef2"/><path d="m38.05 48.9 8.09-3.04-6.11-6.11-3.04 8.09a.88.88 0 0 0 1.06 1.06Z" style="fill:#efb00c"/><g style="clip-path:url(#a)"><path transform="rotate(45 38.264 48.54)" style="fill:#0679b7" d="M35.67 46.92h5.19v3.24h-5.19z"/></g></svg>