<svg id="Layer_2" xmlns="http://www.w3.org/2000/svg" viewBox="0 0 83.04 70.82"><defs><style>.cls-1{fill:#f9f4e8}.cls-3{fill:#229ef2}</style></defs><g id="Layer_1-2"><rect class="cls-3" x="60.91" y="24.35" width="18.81" height="5.53" rx="2.5" ry="2.5"/><rect class="cls-3" x="56.48" y="34.3" width="18.81" height="5.53" rx="2.5" ry="2.5"/><rect class="cls-3" x="77.51" y="34.3" width="5.53" height="5.53" rx="2.5" ry="2.5"/><circle class="cls-3" cx="35.41" cy="35.41" r="35.41"/><circle cx="35.41" cy="35.41" r="30.99" style="fill:#f9d793"/><path d="M47.36 10.45c4.93 5 7.97 11.85 7.97 19.43 0 15.28-12.39 27.67-27.67 27.67-4.28 0-8.33-.97-11.95-2.71 5.02 5.09 11.99 8.24 19.69 8.24 15.28 0 27.67-12.39 27.67-27.67 0-11-6.42-20.5-15.72-24.96Z" style="fill:#cc9e2b;opacity:.2"/><path d="M16.96 37.39c0-11.02 8.94-19.96 19.96-19.96 3.85 0 7.44 1.09 10.49 2.98.45.18.89.36 1.32.57a19.895 19.895 0 0 0-14.21-5.94c-11.02 0-19.96 8.94-19.96 19.96 0 6.11 2.75 11.57 7.08 15.23a19.875 19.875 0 0 1-4.68-12.84Z" style="fill:#fcf9f2;opacity:.2"/><rect class="cls-1" x="33.7" y="19.37" width="3.42" height="11.07" rx="1" ry="1"/><rect class="cls-1" x="42" y="34.86" width="3.42" height="18.81" rx="1" ry="1" transform="rotate(-45 43.706 44.266)"/><circle class="cls-3" cx="35.41" cy="35.41" r="4.98"/><circle cx="35.41" cy="33.2" r="2.21" style="opacity:.2;fill:#dce1e2"/></g></svg>