<svg id="Layer_2" xmlns="http://www.w3.org/2000/svg" viewBox="0 0 75.1 67.79"><defs><clipPath id="clippath-1"><path class="cls-1" d="M23.17 42.79c4.14 0 7.5 3.36 7.5 7.5v17.5h-15v-17.5c0-4.14 3.36-7.5 7.5-7.5Z"/></clipPath><clipPath id="clippath-2"><circle class="cls-1" cx="37.55" cy="17.79" r="5"/></clipPath><style>.cls-1{fill:none}.cls-2{fill:#efb00c}.cls-3{fill:#edd591}</style></defs><g id="Layer_1-2"><path class="cls-2" d="M8.02 4.79h6.3c1.85 0 3.35 1.5 3.35 3.35v21.65h-13V8.14c0-1.85 1.5-3.35 3.35-3.35Z"/><path class="cls-3" d="M4.92 29.79h65V60.6c0 3.97-3.22 7.19-7.19 7.19H12.11c-3.97 0-7.19-3.22-7.19-7.19V29.79Z"/><path d="M36.28.43.81 27.73c-1.57 1.21-.72 3.72 1.27 3.72h70.93c1.98 0 2.84-2.51 1.27-3.72L38.81.43c-.75-.57-1.79-.57-2.53 0Z" style="fill:#229ef2"/><path class="cls-2" d="M23.17 42.79c4.14 0 7.5 3.36 7.5 7.5v17.5h-15v-17.5c0-4.14 3.36-7.5 7.5-7.5Z"/><circle class="cls-3" cx="37.55" cy="17.79" r="5"/><g style="clip-path:url(#clippath-1)"><path d="M26.17 42.79c4.14 0 7.5 3.36 7.5 7.5v17.5h-15v-17.5c0-4.14 3.36-7.5 7.5-7.5Z" style="fill:#cc900a"/></g><circle class="cls-2" cx="39.67" cy="17.79" r="5" style="clip-path:url(#clippath-2)"/></g></svg>