<svg id="Layer_2" xmlns="http://www.w3.org/2000/svg" viewBox="0 0 70.82 81.89"><defs><style>.cls-2{fill:#1e1e1e}</style></defs><g id="Layer_1-2"><circle class="cls-2" cx="35.41" cy="46.48" r="35.41"/><circle cx="35.41" cy="46.48" r="30.99" style="fill:#fff"/><path d="M47.36 21.52c4.93 5 7.97 11.85 7.97 19.43 0 15.28-12.39 27.67-27.67 27.67-4.28 0-8.33-.97-11.95-2.71C20.73 71 27.7 74.15 35.4 74.15c15.28 0 27.67-12.39 27.67-27.67 0-11-6.42-20.5-15.72-24.96Z" style="fill:#2bc1cc;opacity:.2"/><path d="M16.96 48.45c0-11.02 8.94-19.96 19.96-19.96 3.85 0 7.44 1.09 10.49 2.98.45.18.89.36 1.32.57a19.895 19.895 0 0 0-14.21-5.94c-11.02 0-19.96 8.94-19.96 19.96 0 6.11 2.75 11.57 7.08 15.23a19.875 19.875 0 0 1-4.68-12.84Z" style="opacity:.2;fill:#f2fcfc"/><rect class="cls-2" x="33.7" y="31.43" width="3.42" height="11.07" rx="1" ry="1"/><rect class="cls-2" x="42" y="45.92" width="3.42" height="18.81" rx="1" ry="1" transform="rotate(-45 43.707 55.326)"/><circle class="cls-2" cx="35.41" cy="46.48" r="4.98"/><circle cx="35.41" cy="44.26" r="2.21" style="fill:#e2dcdd;opacity:.2"/><path class="cls-2" d="M67.17 23.96c-.56.03-1.11-.23-1.4-.71C59.91 13.39 48.33 7.5 36.28 8.24c-.83.05-1.54-.54-1.59-1.32s.59-1.45 1.42-1.5c13.2-.81 25.87 5.64 32.3 16.43.4.68.14 1.54-.58 1.93-.2.11-.42.17-.64.18Z"/><path class="cls-2" d="M68.81 16.07c-.56.03-1.11-.23-1.4-.71-4.88-8.2-14.51-13.1-24.53-12.48-.83.05-1.54-.54-1.59-1.32s.59-1.45 1.42-1.5c11.17-.69 21.9 4.77 27.34 13.91.4.68.14 1.54-.58 1.93-.2.11-.42.17-.64.18Z"/></g></svg>