<svg id="Layer_2" xmlns="http://www.w3.org/2000/svg" viewBox="0 0 136 205.14"><defs><clipPath id="clippath"><path d="M100.76 56.65v148.49H59.73v-97.3c-6.64 5.05-13.06 9.13-19.27 12.25-6.21 3.12-13.99 6.11-23.35 8.96V95.79C30.92 91.34 41.64 86 49.28 79.76c7.63-6.24 13.61-13.94 17.93-23.11h33.56Z" style="fill:none"/></clipPath><style>.cls-4{fill:#f0a63b}</style></defs><g id="Layer_1-2"><path class="cls-4" d="M100.76 56.65v148.49H59.73v-97.3c-6.64 5.05-13.06 9.13-19.27 12.25-6.21 3.12-13.99 6.11-23.35 8.96V95.79C30.92 91.34 41.64 86 49.28 79.76c7.63-6.24 13.61-13.94 17.93-23.11h33.56Z"/><g style="clip-path:url(#clippath)"><path style="fill:#dd912c" d="m132 121.98-137 63v-155h137v92z"/></g><path class="cls-4" d="M0 0h136v43.49H0z"/><path d="M26.99 21.62c-.11.44-.11.5-.19 1-.8 4.26-2.24 7.88-4.29 10.93-1.47-.97-3.1-1.8-4.56-2.27 2.21-2.88 3.96-7.22 4.29-10.76L27 21.63Zm16.24-2.38c-.91-.11-1.85-.14-4.26-.17H33.6v12.14c0 1.85.06 3.35.14 4.15h-5.23c.11-1.08.17-2.08.17-4.21V19.06h-5.12c-2.43 0-3.18.03-4.18.17V14.5c1 .17 1.91.22 4.23.22h5.06v-1.08c0-1.47-.06-2.27-.17-3.07h5.26c-.11.77-.17 1.6-.17 3.13v1.02h5.95c-.64-.61-1-1.41-1-2.3 0-1.74 1.38-3.13 3.13-3.13s3.1 1.38 3.1 3.13c0 1.13-.58 2.13-1.55 2.71v4.09Zm-3.38 1.22c.8 3.6 2.68 8.05 4.48 10.57-1.69.75-3.18 1.6-4.56 2.57-2.02-3.68-2.93-6.06-4.09-10.62-.22-.91-.25-.94-.42-1.36l4.59-1.16Zm.25-8.02c0 .83.72 1.55 1.55 1.55s1.58-.72 1.58-1.55-.72-1.58-1.55-1.58-1.58.72-1.58 1.58Zm29.68 1.05c-.61.53-.64.55-1.08 1.02-2.19 2.24-4.15 3.96-6.39 5.56v10.65c0 2.27.03 2.99.17 4.48h-5.37c.14-1.47.17-2.08.17-4.45v-7.63c-2.88 1.69-5.09 2.68-9.05 4.09-.75-1.85-1.3-2.77-2.66-4.45 6-1.69 10.24-3.76 14.69-7.19 2.38-1.8 4.23-3.68 5.04-5.06l4.48 2.99Zm6-1.47c3.49 2.05 5.28 3.32 7.61 5.42l-3.26 4.32c-2.41-2.52-4.76-4.34-7.52-5.84l3.18-3.9ZM72.87 29.2c2.82-.22 5.73-.91 8.33-1.99 3.49-1.44 5.98-3.51 8.11-6.83 1.16-1.77 1.91-3.29 2.71-5.42 1.36 1.63 1.99 2.19 4.07 3.71-2.52 5.45-5.15 8.71-9.02 11.2-2.99 1.94-5.62 2.96-10.76 4.15-1.08.25-1.25.28-1.99.5l-1.44-5.31Zm28.52 5.87c.11-1.24.17-2.05.17-4.23V14.73c0-2.24-.03-2.52-.19-4.01h5.34c-.11.8-.14 2.19-.14 4.04v3.79c4.7 1.55 8.27 3.18 12.59 5.75l-2.63 4.7c-2.68-1.85-5.95-3.65-8.71-4.81q-.97-.39-1.25-.55v7.19c0 1.85.06 3.24.17 4.23h-5.34Z" style="fill:#fff"/></g></svg>