<?xml version="1.0" encoding="UTF-8"?><svg id="Layer_2" xmlns="http://www.w3.org/2000/svg" viewBox="0 0 942.5 249"><defs><style>.cls-1,.cls-2{fill:none;}.cls-3{fill:#f2f2f2;}.cls-4,.cls-5{fill:#004227;}.cls-6,.cls-7,.cls-8{fill:#fff;}.cls-9{fill:#ffeb62;}.cls-10{fill:#bc4e01;}.cls-11{fill:#8bc2d9;}.cls-12{fill:#ccc;}.cls-13{fill:#dbdbdb;}.cls-14{fill:#afddf0;}.cls-15{fill:#29abe2;}.cls-7{stroke:#dbdbdb;stroke-width:1.97px;}.cls-7,.cls-2{stroke-miterlimit:10;}.cls-5{opacity:.2;}.cls-2{stroke:#004227;stroke-width:2px;}.cls-8{opacity:.4;}</style></defs><g id="PC"><g><rect class="cls-1" width="942.5" height="249"/><g><path class="cls-4" d="m81.63,216.59c3.3-.21,6.31-.35,11.78-1.05v-16.34h-10.8v-9.68h10.8v-3.16h-5.96v-3.09c-1.89,1.4-2.6,1.89-3.86,2.74l-2.67-11.92c3.79-2.25,8.84-6.17,12.77-12.77h10.31c1.54,2.59,4.07,6.87,10.1,10.8v-9.26h32.83v33.67h-10.45c.07,1.61.14,3.02,1.12,5.89,3.51-2.81,4.42-3.86,5.75-5.33l6.31,8.7c-1.12,1.05-3.23,3.02-7.37,5.61,3.23,4.28,5.61,5.89,7.65,7.37l-7.44,9.68c-2.17-1.68-7.37-5.68-10.73-12.91v8.28c-9.33,2.31-18.94,3.65-21.46,4l-.56-4.42c-9.54,1.75-17.26,3.09-26.73,4.07l-1.4-10.87Zm7.86-16.13c.84,2.67,2.17,7.44,2.74,12.13l-7.58,2.25c-.28-3.58-1.47-9.33-2.46-12.28l7.3-2.1Zm13.82-23.85c-1.54-1.89-2.74-3.58-4.35-6.17-.98,1.68-2.03,3.58-4.42,6.17h8.77Zm8.77,39.42c.98-.14,1.4-.14,2.03-.21v-42.3l-4.91,8.42c-.21-.14-.35-.28-.56-.42v4.84h-6.1v3.16h9.47v9.68h-9.47v15.15c1.54-.21,8.14-1.26,9.47-1.47l.07,3.16Zm.07-14.24c-.42,3.86-1.12,6.94-2.1,10.31l-6.1-1.33c1.4-4.77,1.75-7.44,1.82-10.03l6.38,1.05Zm12.28-29.18v3.3h11.64v-3.3h-11.64Zm0,11.15v3.58h11.64v-3.58h-11.64Zm0,12.77v17.75c2.03-.42,4.35-.84,6.31-1.26-1.68-4.63-2.88-9.61-3.51-16.48h-2.81Z"/><path class="cls-4" d="m182.85,183.06c-3.09,5.19-5.05,7.93-6.03,9.26v35.49h-11.64v-23.01c-1.75,1.33-2.6,1.96-3.93,2.95l-3.02-14.66c6.52-4.07,12.91-11.36,15.99-16.69l9.68,4.77-.7,1.19h43v11.08h-9.05v26.37c0,2.6,0,8-7.22,8h-15.57l-1.89-11.64h10.52c1.75,0,2.1-.7,2.1-2.24v-20.48h-22.24v-10.38Zm-2.03-19.15c-3.02,6.03-9.12,14.38-17.61,19.85l-4.84-11.71c5.19-3.16,9.26-7.79,11.71-11.57l10.73,3.44Zm43-.49v10.94h-38.3v-10.94h38.3Z"/><path class="cls-4" d="m296.7,175.35v11.29c0,7.58-.56,23.78-2.95,30.37-2.88,7.93-9.82,8.28-13.19,8.28-1.4,0-5.26-.07-13.26-1.05l-.77-12.35c2.67.49,6.52,1.19,10.59,1.19,4.35,0,5.33-.84,6.03-4.35.42-2.1,1.26-16.48,1.26-18.45v-3.37h-13.75c-4.21,25.53-20.48,35.77-25.18,38.79l-8.49-9.47c11.92-6.59,18.31-14.8,21.32-29.32h-17.96v-11.57h19.22c.35-5.61.35-9.05.35-11.78l12.77.14c-.21,3.44-.35,6.87-.7,11.64h24.69Z"/><path class="cls-4" d="m375.54,188.18v12.77h-61.87v-12.77h61.87Z"/><path class="cls-4" d="m408.72,163.63v16.34c9.68,3.16,23.08,8.49,33.32,14.52l-6.59,12.98c-6.94-4.7-17.54-10.52-26.73-13.96v31.85h-13.33v-61.73h13.33Zm17.19,15.99c-1.61-3.79-3.58-7.22-5.89-10.73l5.89-2.67c1.05,1.54,4.07,5.82,6.03,10.17l-6.03,3.23Zm9.4-4.56c-1.82-3.72-4.42-7.58-6.03-9.82l6.03-2.74c1.61,1.96,4.14,5.4,6.1,9.33l-6.1,3.23Z"/><path class="cls-4" d="m514.22,167.7v54.57h-56.54v-54.57h56.54Zm-12.84,11.57h-31.14v31.42h31.14v-31.42Z"/><path class="cls-4" d="m594.04,188.18v12.77h-61.87v-12.77h61.87Z"/><path class="cls-4" d="m631.93,188.04c-7.5-5.05-15.36-8.63-22.38-11.01l5.4-10.45c9.4,2.81,17.19,6.45,23.5,10.24l-6.52,11.22Zm-21.39,23.71c27.08-2.31,41.38-11.78,49.24-40.47l11.43,5.82c-11.08,39-35.49,44.54-56.54,47.84l-4.14-13.19Z"/></g><path class="cls-4" d="m860.39,216.45h5.54l-2.24,9.89h-32.9c-13.47,0-17.4-4.84-19.36-7.22-2.53,2.88-6.24,6.31-10.31,8.84l-3.79-10.94c2.81-1.33,5.47-3.23,7.08-4.56v-15.36h-6.1v-9.89h16.34v20.55c.63,2.25,1.68,5.89,8.14,7.79l-4.63-6.1c2.17-.42,5.82-1.19,11.01-3.44h-12.56v-7.43h9.19v-3.44h-8.07v-6.73h8.07v-1.82h9.61v1.82h9.68v-1.82h9.54v1.82h8.28v6.73h-8.28v3.44h10.03v7.43h-11.43c3.72,1.61,7.51,3.02,11.36,3.72l-4.21,6.73Zm-43.49-42.93l-7.01,6.94c-2.74-3.72-7.08-8.21-11.22-11.36l7.37-7.37c4.49,3.3,9.19,8.21,10.87,10.17v-.84h11.92v-2.31h-12.42v-5.89h21.32v13.4h-11.85v2.03c0,.77.07,1.33,1.19,1.33h2.74c1.4,0,1.54-.77,1.89-2.6l7.51.91c-.35,2.95-.91,7.51-4.91,7.51h-12.56c-2.95,0-4.84-1.12-4.84-4.84v-7.08Zm31.35,32.48h-15.08l4.98,3.86c-5.26,3.72-10.52,5.82-11.85,6.31,2.17.28,4.56.28,6.8.28h23.99c-.84-.28-7.15-2.53-13.33-6.59l4.49-3.86Zm-12.84-10.87v3.44h9.68v-3.44h-9.68Zm4.98-32.27h21.96v13.4h-12.91v1.96c0,.7,0,1.4,1.61,1.4h4.42c1.33,0,1.47-.91,1.68-2.67l7.86,1.05c-.28,2.31-.84,7.44-5.12,7.44h-14.31c-4.7,0-4.91-3.72-4.91-4.14v-10.24h12.77v-2.31h-13.05v-5.89Z"/><path class="cls-5" d="m203.46,62.62c0-26.54,21.51-48.05,48.05-48.05s48.05,21.51,48.05,48.05"/><path class="cls-4" d="m216.3,63.11c0-19.45,15.76-35.21,35.21-35.21s35.21,15.76,35.21,35.21"/><g><path class="cls-4" d="m195.19,104.46h2.2v-11.4h-2.06v-3.35h33.04v3.35h-17.01v16.76h-4.01v-2.58c-3.94.49-7.84.8-11.78.94l-.38-3.73Zm3.03-26.49h27.22v10.32h-27.22v-10.32Zm3.1,15.09v1.81h6.03v-1.81h-6.03Zm0,4.53v1.85h6.03v-1.85h-6.03Zm6.03,4.53h-6.03v2.23c1.46-.07,3.35-.14,6.03-.42v-1.81Zm-4.77-21.36v1.46h18.51v-1.46h-18.51Zm0,3.49v1.5h18.51v-1.5h-18.51Zm14.29,14.01c.49.94,1.25,2.27,2.96,3.83,1.67-1.53,2.47-3.17,3-4.22h-10.53v-3.17h14.78v3.24c-.45,1.22-1.32,3.52-4.01,6.24,2.09.98,3.83,1.46,5.47,1.88l-2.2,3.8c-1.18-.38-3.62-1.12-6.55-3.03-2.96,1.92-5.3,2.61-6.69,3l-1.64-3.66c1.32-.35,3.17-.87,5.12-1.92-2.16-2.3-2.93-4.01-3.35-5.02l3.62-.98Z"/><path class="cls-4" d="m234.82,103.76c2.37-1.57,4.77-3.42,6.55-5.65h-5.58v-3.8h6.73v-2.72h-6.9v-3.8h3.55c-.21-1.43-.45-3-.91-4.36h-1.99v-3.8h6.24v-2.61h4.01v2.61h5.79v3.8h-1.64c-.52,2.33-.63,2.79-1.08,4.36h3.07v3.8h-6.2v2.72h5.65v3.8h-4.6c1.99,2.3,2.96,3,4.11,3.76l-2.06,3.73c-1.6-1.57-2.2-2.26-3.1-3.66v8.05h-3.94v-7.91c-2.51,3.45-4.5,4.95-5.72,5.82l-1.99-4.15Zm7.18-20.32c.42,1.39.7,2.89.94,4.36h2.96c.38-1.22.77-3.24.91-4.36h-4.81Zm26.21-2.51c-3.1,1.39-6.9,2.23-10.35,2.37v4.57h10.35v4.11h-3.07v18.02h-4.25v-18.02h-3.03v1.15c0,10.53-2.89,14.64-4.46,16.87l-3.87-2.65c2.37-3.03,4.25-6.48,4.25-14.15v-13.8c1.6,0,6.73.07,12.41-2.47l2.02,4.01Z"/><path class="cls-4" d="m287.7,107.18v2.79h-3.94v-12.48h-2.58c-.14,2.16-.56,8.4-2.65,12.48l-3.45-2.96c1.85-3.83,2.2-9.24,2.2-13.84v-15.54h4.01v8.12h2.65v-8.68h3.9v8.68h1.36v4.04h-7.91v3.66h6.41v13.07c.8-1.5,2.68-4.95,2.68-12.51v-15.68h18.16v4.15h-14.15v4.5h13.45c-.38,6.97-2.13,11.57-4.18,14.95,1.95,2.09,3.59,3.14,5.23,4.08l-2.47,3.9c-.94-.63-3.24-2.16-5.3-4.57-2.51,2.72-4.43,3.87-5.65,4.63l-2.61-3.73c1.22-.63,3.56-1.74,5.79-4.18-2.68-4.18-3.45-8.4-3.73-9.83l3.73-.73c.49,2.54,1.05,4.43,2.54,7.04,1.81-3.31,2.09-6.52,2.2-7.7h-8.99v3.24c0,10.42-2.58,14.25-3.62,15.89l-3.07-2.79Z"/></g><g><polyline class="cls-2" points="262.22 124.46 317.62 124.46 328.55 113.53"/><polyline class="cls-2" points="173.62 112.85 185.23 124.46 240.75 124.46"/></g><g><polyline class="cls-2" points="262.22 62.82 317.62 62.82 328.55 73.75"/><polyline class="cls-2" points="173.62 74.43 185.23 62.82 240.75 62.82"/></g><g><g><rect class="cls-7" x="229.3" y="50.72" width="44.51" height="21.51"/><rect class="cls-13" x="229.14" y="50.72" width="44.81" height="1.57"/><rect class="cls-10" x="227.52" y="35.07" width="48.07" height="15.87" rx="3.44" ry="3.44"/><rect class="cls-14" x="231.65" y="57.33" width="7.49" height="9.47" rx="1.93" ry="1.93"/><rect class="cls-14" x="263.93" y="57.33" width="7.49" height="9.47" rx="1.93" ry="1.93"/><g><rect class="cls-14" x="241.22" y="56.96" width="10.01" height="15.26"/><rect class="cls-14" x="251.87" y="56.96" width="10.01" height="15.26"/><rect class="cls-11" x="251.23" y="56.96" width=".64" height="15.26"/></g><rect class="cls-3" x="248.59" y="63.5" width="1.61" height="2.18" rx=".81" ry=".81"/><rect class="cls-3" x="252.86" y="63.5" width="1.61" height="2.18" rx=".81" ry=".81"/><g><path class="cls-6" d="m240.3,39.44c.37,0,.7.03,1,.1.3.06.56.17.78.32.22.15.38.34.5.59.12.24.18.55.18.91,0,.39-.09.71-.26.97-.18.26-.44.47-.78.64.47.14.83.38,1.06.72.23.34.35.75.35,1.23,0,.39-.08.72-.23,1.01-.15.28-.35.52-.61.7-.26.18-.55.31-.87.4-.33.09-.66.13-1.01.13h-3.73v-7.7h3.62Zm-.22,3.11c.3,0,.55-.07.74-.22.19-.14.29-.38.29-.7,0-.18-.03-.33-.1-.44-.06-.11-.15-.2-.26-.27-.11-.06-.23-.11-.37-.13-.14-.03-.29-.04-.44-.04h-1.58v1.8h1.71Zm.1,3.27c.17,0,.32-.02.47-.05.15-.03.28-.09.4-.16.11-.08.21-.18.27-.31.07-.13.1-.29.1-.5,0-.4-.11-.68-.33-.85-.22-.17-.52-.25-.88-.25h-1.84v2.11h1.81Z"/><path class="cls-6" d="m248.11,39.44l2.88,7.7h-1.76l-.58-1.71h-2.88l-.6,1.71h-1.7l2.91-7.7h1.74Zm.1,4.72l-.97-2.82h-.02l-1,2.82h1.99Z"/><path class="cls-6" d="m253.34,39.44l3.21,5.16h.02v-5.16h1.58v7.7h-1.69l-3.2-5.15h-.02v5.15h-1.58v-7.7h1.68Z"/><path class="cls-6" d="m261.33,39.44v3.19l3.01-3.19h2.11l-3.01,3.04,3.3,4.66h-2.12l-2.32-3.46-.97.98v2.48h-1.69v-7.7h1.69Z"/></g><rect class="cls-15" x="240.44" y="54.64" width="22.21" height="3.16" rx="1.58" ry="1.58"/><rect class="cls-12" x="229.14" y="71.4" width="44.83" height="1.92"/></g><rect class="cls-8" x="236.63" y="59.16" width="1.24" height="5.67"/><rect class="cls-8" x="268.76" y="59.16" width="1.24" height="5.67"/><rect class="cls-8" x="259.02" y="59.16" width="1.24" height="9.12"/></g><polygon class="cls-4" points="678.37 118.44 678.37 50.99 372.03 50.99 358.27 65.94 358.27 131.83 665.42 131.83 678.37 118.44"/><g><path class="cls-9" d="m421.32,80.19c-3.77.24-7.79.36-11.21.36-1.32,0-2.1-1.02-2.1-2.34,0-1.44.72-2.34,2.04-2.34,3.36,0,7.31-.12,11.27-.42v-9.53c0-1.38.96-2.1,2.34-2.1s2.34.78,2.34,2.16v9.11c3.84-.3,7.55-.78,10.61-1.38.24-.06.42-.06.6-.06,1.08,0,1.86.6,2.1,1.8.06.24.06.48.06.66,0,1.2-.72,1.92-1.86,2.16-3.36.66-7.37,1.14-11.51,1.5v10.49c4.19-1.26,8.63-2.04,12.76-2.04,10.55,0,16.84,5.21,16.84,13.72,0,8.03-5.27,13.18-12.46,13.18-4.43,0-8.21-1.62-10.55-5.09-.36-.54-.54-1.14-.54-1.68,0-.78.36-1.5,1.02-1.98.54-.36,1.08-.54,1.68-.54.72,0,1.44.3,1.98,1.08,1.56,2.1,3.48,3.3,6.29,3.3,4.07,0,7.55-3,7.55-8.21,0-5.75-4.01-9.41-11.98-9.41-4.01,0-8.51.84-12.58,2.28v13.6c0,4.61-2.34,6.89-6.77,6.89-2.1,0-4.73-.84-7.13-2.52-2.76-1.8-4.79-4.38-4.79-7.49,0-1.74.66-3.42,1.8-5.03,2.34-3.18,6.77-6.41,12.22-8.57v-11.56Zm0,16.42c-3.77,1.74-6.71,3.96-8.09,5.81-.72.96-1.08,2.04-1.08,2.94,0,1.44,1.14,2.76,2.58,3.71,1.26.84,2.88,1.38,4.01,1.38,1.8,0,2.58-.78,2.58-3.06v-10.79Zm36.67-17.2c.42.54.66,1.2.66,1.8,0,.66-.24,1.32-.72,1.8-.54.48-1.14.72-1.8.72s-1.32-.24-1.86-.84c-3.06-3.54-7.49-7.37-11.26-9.71-.66-.42-1.02-1.02-1.02-1.68,0-.54.18-1.08.6-1.62.48-.6,1.14-.9,1.92-.9.42,0,.96.12,1.38.36,4.07,2.34,9.05,6.41,12.1,10.07Z"/><path class="cls-9" d="m497.18,96.13c-1.56,5.21-5.21,6.95-9.95,6.95-6.23,0-10.67-4.25-10.67-10.25,0-6.29,4.97-10.73,11.8-10.73,2.94,0,5.39.96,7.13,2.76-.06-2.16-.06-5.21-.06-8.03-8.81.18-17.98.54-26.67,1.08h-.24c-1.38,0-2.16-.96-2.22-2.34v-.12c0-1.26.78-2.22,2.16-2.28,8.45-.48,17.8-.78,26.91-.96,0-2.1-.06-4.19-.06-5.99,0-1.32.78-2.16,2.28-2.16,1.74,0,2.52.72,2.52,2.28v5.81c3.24-.06,6.41-.12,9.47-.12,2.16,0,4.31,0,6.35.06,1.62,0,2.46.78,2.46,2.4v.18c0,1.44-.84,2.1-2.22,2.1-3.54-.06-7.25-.12-11.14-.12-1.62,0-3.24,0-4.91.06v12.4c1.2,2.46,1.74,5.03,1.74,7.85,0,7.79-3.36,12.82-9.71,16.18-2.7,1.44-5.93,2.52-9.53,3.18-.18.06-.36.06-.6.06-1.2,0-2.16-.66-2.4-1.98-.06-.24-.06-.48-.06-.66,0-1.26.72-2.16,1.92-2.4,10.73-1.98,16-7.01,16-14.08v-1.14h-.3Zm-8.51-10.01c-4.07,0-7.19,2.7-7.19,6.47,0,4.01,2.76,6.11,6.53,6.11,4.2,0,7.07-2.94,7.07-7.19,0-3.24-2.58-5.39-6.41-5.39Z"/><path class="cls-9" d="m556.56,96.13c-1.56,5.21-5.21,6.95-9.95,6.95-6.23,0-10.67-4.25-10.67-10.25,0-6.29,4.97-10.73,11.8-10.73,2.94,0,5.39.96,7.13,2.76-.06-2.16-.06-5.21-.06-8.03-8.81.18-17.98.54-26.67,1.08h-.24c-1.38,0-2.16-.96-2.22-2.34v-.12c0-1.26.78-2.22,2.16-2.28,8.45-.48,17.8-.78,26.91-.96,0-2.1-.06-4.19-.06-5.99,0-1.32.78-2.16,2.28-2.16,1.74,0,2.52.72,2.52,2.28v5.81c3.24-.06,6.41-.12,9.47-.12,2.16,0,4.31,0,6.35.06,1.62,0,2.46.78,2.46,2.4v.18c0,1.44-.84,2.1-2.22,2.1-3.54-.06-7.25-.12-11.14-.12-1.62,0-3.24,0-4.91.06v12.4c1.2,2.46,1.74,5.03,1.74,7.85,0,7.79-3.36,12.82-9.71,16.18-2.7,1.44-5.93,2.52-9.53,3.18-.18.06-.36.06-.6.06-1.2,0-2.16-.66-2.4-1.98-.06-.24-.06-.48-.06-.66,0-1.26.72-2.16,1.92-2.4,10.73-1.98,16-7.01,16-14.08v-1.14h-.3Zm-8.51-10.01c-4.07,0-7.19,2.7-7.19,6.47,0,4.01,2.76,6.11,6.53,6.11,4.2,0,7.07-2.94,7.07-7.19,0-3.24-2.58-5.39-6.41-5.39Z"/><path class="cls-9" d="m593.65,111.05c-5.39,0-9.47-4.31-9.47-12.04s3.77-14.08,10.13-18.82c-.78-3.36-1.44-6.83-1.92-10.37v-.42c0-1.2.66-2.1,1.86-2.28.24-.06.42-.06.6-.06,1.14,0,1.92.66,2.04,1.98.36,2.88.84,5.81,1.38,8.69,4.01-2.16,8.87-3.42,14.62-3.42.48-2.46.9-4.91,1.2-7.19.18-1.44.96-2.1,2.16-2.1.18,0,.36,0,.54.06,1.32.12,2.1,1.02,2.1,2.22,0,.18,0,.36-.06.54-.3,2.16-.72,4.49-1.2,6.89,3.42.54,6.17,1.56,8.57,3.18,5.15,3.3,8.39,8.63,8.39,16,0,11.8-8.87,19.71-22.83,21.45-.24.06-.42.06-.6.06-1.38,0-2.28-.78-2.46-1.98-.06-.18-.06-.36-.06-.54,0-1.14.72-2.1,2.16-2.28,11.33-1.44,18.76-7.61,18.76-16.66,0-5.39-2.4-9.77-6.05-12.34-1.98-1.38-4.25-2.22-6.83-2.64-.72,2.94-1.5,5.75-2.4,8.27-1.8,5.03-4.19,10.13-6.71,13.96.48.84,1.08,1.62,1.62,2.46.36.48.54,1.08.54,1.68s-.24,1.26-.84,1.74c-.42.36-1.02.6-1.62.6s-1.14-.24-1.5-.66c-.48-.6-.84-1.14-1.26-1.74-3.6,4.43-7.43,5.75-10.85,5.75Zm1.86-26.13c-4.31,3.6-6.65,8.75-6.65,13.72,0,4.67,2.16,7.67,4.97,7.67,2.28,0,5.15-1.14,8.09-4.97-2.52-4.67-4.85-10.37-6.41-16.42Zm14.44.9c.78-2.28,1.44-4.67,2.04-7.25-4.37,0-8.93,1.26-12.64,3.36,1.32,5.57,3.24,10.91,5.45,15.4,1.92-3.24,3.72-7.37,5.15-11.5Z"/></g><path class="cls-10" d="m776.9,121.87v21.62h-63.41l-.66,18.98c4.61-3.56,10.02-6.59,29.79-6.59,23.99,0,38.36,4.61,38.36,35.99,0,24.12-7.91,34.93-45.48,34.93s-47.98-6.2-48.38-35.2h23.73c-.26,9.36.79,13.58,21.75,13.58s24.65-1.32,24.65-13.45c0-10.81-1.45-15.03-22.54-15.03s-22.01,3.56-22.67,6.46h-21.88l1.58-61.3h85.16Z"/></g></g></svg>