<?xml version="1.0" encoding="UTF-8"?><svg id="Layer_2" xmlns="http://www.w3.org/2000/svg" viewBox="0 0 942.5 334"><defs><style>.cls-1,.cls-2{fill:none;}.cls-3{fill:#f2f2f2;}.cls-4,.cls-5{fill:#004227;}.cls-6,.cls-7,.cls-8{fill:#fff;}.cls-9{fill:#bc4e01;}.cls-10{fill:#8bc2d9;}.cls-11{fill:#d6f1d8;}.cls-12{fill:#ccc;}.cls-13{fill:#dbdbdb;}.cls-14{fill:#afddf0;}.cls-15{fill:#29abe2;}.cls-7{stroke:#dbdbdb;stroke-width:1.97px;}.cls-7,.cls-2{stroke-miterlimit:10;}.cls-5{opacity:.2;}.cls-2{stroke:#004227;stroke-width:4px;}.cls-8{opacity:.4;}</style></defs><g id="PC"><g><path class="cls-5" d="m390.47,99.5c0-40.04,32.46-72.5,72.5-72.5s72.5,32.46,72.5,72.5"/><path class="cls-4" d="m408.47,99.5c0-30.1,24.4-54.5,54.5-54.5s54.5,24.4,54.5,54.5"/><rect class="cls-1" width="942.5" height="334"/><g><path d="m269.9,124.47v14.21h16.37v26.67h-3.74v-1.89h-34.77v-3.43h34.77v-7.3h-32.83v-3.52h32.83v-7.13h-34.19v-3.39h17.78v-14.21h3.78Zm-12.94,12.63c-1.63-3.21-4.31-7.17-6.56-9.81l2.95-2.03c2.6,2.9,4.71,5.94,6.82,9.86l-3.21,1.98Zm18.66-1.89c2.24-2.55,5.02-6.56,6.47-9.95l3.61,1.85c-1.58,3.12-4.58,7.44-7.04,10.16l-3.04-2.07Z"/><path d="m326.4,125.7h4.09v8.67h7.88v3.79h-7.88v4.93c0,3.56-.92,10.74-6.03,15.05-4.84,4.09-11.4,5.19-14.65,5.72l-1.63-3.74c9.2-1.19,18.22-4.22,18.22-16.99v-4.97h-15.53v12.1h-4.09v-12.1h-7.75v-3.79h7.75v-8.45h4.09v8.45h15.53v-8.67Z"/><path d="m372.48,164.12h-4.22v-21.74c-1.41.92-8.54,5.5-17.65,8.85l-2.42-3.39c6.34-2.24,22-8.62,32.7-21.96l3.87,2.6c-1.72,1.76-6.73,6.78-12.28,10.96v24.69Z"/><path d="m404.26,125.61v11.66c9.9,2.77,17.03,6.65,22.44,9.81l-2.11,3.92c-8.01-4.8-12.41-6.91-20.33-9.64v23.06h-4.22v-38.81h4.22Z"/><path class="cls-9" d="m437.03,139.4h59.02v8.45h-59.02v-8.45Z"/><path class="cls-9" d="m509.75,147.02c1.92-.45,4.29-.96,7.68-2.05v-12.48h-7.55v-7.55h7.55v-10.75h7.49v10.75h6.14v7.55h-6.14v9.86c2.05-.71,3.65-1.34,6.14-2.37l.38,7.62c-1.73.83-2.88,1.41-6.53,2.82v18.95c0,3.97-2.62,5.12-5.57,5.12h-8.07l-.77-8.06h5.19c1.66,0,1.73-.71,1.73-1.6v-11.59c-1.22.45-4.99,1.73-6.91,2.18l-.77-8.39Zm58.83-30.28v43.4h-7.3v-2.3h-7.04v16.64h-7.62v-16.64h-6.66v2.3h-7.17v-43.4h35.78Zm-28.61,7.36v9.6h6.85v-9.6h-6.85Zm0,16.32v10.05h6.85v-10.05h-6.85Zm14.21-16.32v9.6h7.11v-9.6h-7.11Zm0,16.32v10.05h7.11v-10.05h-7.11Z"/><path class="cls-9" d="m597.5,116.74c-.06,2.05-.7,23.69-.7,33.22,0,7.55,1.41,13.51,11.39,13.51,15.62,0,17.73-15.11,18.44-19.65l8.32,2.94c-2.82,15.75-11.33,24.9-26.95,24.9-7.04,0-12.74-1.73-16.58-6.98-3.2-4.42-3.2-10.31-3.2-19.52s.19-24.07.19-28.48l9.09.06Z"/><path d="m667.38,157.8c6.91-.62,10.56-1.71,13.03-4.18,3.39-3.39,3.83-8.41,3.83-11.09,0-5.15-2.55-13.03-13.38-13.33-.09,8.85-3.39,28.78-13.11,28.78-5.15,0-8.23-6.16-8.23-12.63,0-10.91,7.66-19.71,20.73-19.71,12.23,0,18.31,7.48,18.31,17.16,0,16.72-14.08,18.26-19.89,18.7l-1.28-3.7Zm-7.79-25.52c-6.29,4.62-6.29,12.28-6.29,13.42,0,3.3,1.1,8.32,4.53,8.32,2.33,0,3.79-2.33,4.67-4.01,1.32-2.6,4.14-10.25,4.44-20.59-1.58.26-4.44.7-7.35,2.86Z"/></g><g><path class="cls-4" d="m133.19,283.99c1.92-.08,11.33-1.12,13.41-1.28v-19.32h-12.53v-10.22h12.53v-4.39h-6.94v-3.91c-1.76,1.36-2.71,2.07-4.31,3.27l-3.03-12.21c8.06-5.27,11.89-10.7,14.53-15.4h11.02c3.19,5.35,5.99,8.62,12.13,12.93v-11.1h36.96v37.75h-12.77c.24,2,.56,4.23,1.76,7.5,4.23-3.11,6.23-5.35,7.34-6.62l6.62,9.02c-2.15,1.99-4.07,3.75-9.26,6.94,3.75,5.11,7.26,7.74,9.82,9.66l-7.5,10.06c-2.95-2.15-8.22-6.14-12.77-15.09v9.58c-7.02,2.08-17.08,3.67-24.5,4.71l-.72-5.19c-12.05,2.47-21.79,3.67-30.33,4.63l-1.44-11.34Zm8.78-18.44c2.08,6.95,2.55,10.38,2.79,13.73l-8.06,2.16c-.32-3.75-1.04-8.78-2.55-13.97l7.82-1.92Zm16.6-26.98c-2.63-2.87-4.39-5.51-6.15-8.38-1.36,2.39-2.31,4.07-6.23,8.38h12.37Zm8.06,45.18c.56,0,2.87-.32,3.35-.4v-48.53l-5.91,8.7c-.4-.32-.48-.4-.8-.64v5.91h-7.02v4.39h11.1v10.22h-11.1v18.2c7.1-.96,7.58-1.12,9.9-1.68l.48,3.83Zm.48-17.08c-.24,1.76-.72,6.47-2.39,11.97l-6.7-1.36c1.36-5.27,1.44-5.91,2.08-11.73l7.02,1.12Zm13.65-34.24v4.79h14.85v-4.79h-14.85Zm0,13.17v4.87h14.85v-4.87h-14.85Zm0,14.53v21.79c3.83-.72,7.82-1.6,8.7-1.84-3.35-7.18-4.55-13.49-5.11-19.96h-3.59Z"/><path class="cls-4" d="m249.1,242.24c-2.47,4.55-4.95,8.7-8.14,12.93v40.87h-12.13v-27.46c-2.47,2.08-3.51,2.95-5.11,4.15l-3.43-14.93c7.34-4.79,14.61-13.17,18.76-20.59l10.06,5.03Zm-3.19-19c-3.43,6.94-10.46,16.44-20.11,22.67l-5.43-11.97c8.06-4.79,12.69-11.33,14.61-14.37l10.94,3.67Zm51.56,21.63v11.49h-10.86v30.73c0,2.63,0,8.94-8.54,8.94h-16.6l-2-12.21h12.29c1.92,0,2.47-.64,2.47-2.47v-24.98h-26.02v-11.49h49.25Zm-2.87-21.71v11.33h-43.26v-11.33h43.26Z"/><path class="cls-4" d="m376.17,236.89v12.21c0,8.62-.56,27.06-3.19,34.64-3.19,9.02-11.02,9.1-15.4,9.1-7.82,0-12.05-.96-13.89-1.36l-.64-12.53c2.95.48,7.34,1.28,12.13,1.28,5.03,0,5.91-1.36,6.62-4.87.72-3.83,1.6-15.96,1.6-22.43v-4.07h-17.48c-4.87,29.69-22.59,40.79-28.34,44.38l-8.78-9.66c14.05-7.82,20.59-16.68,23.95-34.72h-20.19v-11.97h21.63c.48-6.23.48-10.46.48-13.65l13.49.08c-.16,3.75-.4,7.9-.8,13.57h28.81Z"/><path class="cls-4" d="m465.9,251.58v13.33h-70.4v-13.33h70.4Z"/><path class="cls-4" d="m501.58,223.09v19c11.97,3.99,26.82,10.14,38.39,16.76l-6.71,13.49c-9.26-6.54-26.1-14.77-31.69-16.76v37.83h-13.89v-70.32h13.89Zm20.43,18.2c-2.63-5.99-5.59-10.46-6.71-12.13l6.54-3.03c4.47,6.38,6.07,9.82,6.87,11.57l-6.71,3.59Zm10.78-5.03c-2.08-4.47-5.11-8.94-6.78-11.25l6.62-3.11c4.15,5.35,6.07,9.1,6.94,10.78l-6.78,3.59Z"/><path class="cls-4" d="m621.63,228.19v61.22h-63.06v-61.22h63.06Zm-13.41,12.05h-36.64v37.12h36.64v-37.12Z"/><path class="cls-4" d="m713.11,251.58v13.33h-70.4v-13.33h70.4Z"/><path class="cls-4" d="m756.22,250.14c-7.42-5.11-16.6-9.5-25.14-12.37l5.75-10.86c11.97,3.51,20.35,7.9,26.18,11.49l-6.78,11.73Zm-24.03,28.49c31.05-2.47,47.41-14.29,56.51-46.45l12.05,5.99c-12.37,41.66-37.04,50.29-64.33,54.2l-4.23-13.73Z"/></g><g><polyline class="cls-2" points="479.66 192.42 695.95 192.42 712.97 175.4"/><polyline class="cls-2" points="211.66 174.34 229.75 192.42 446.22 192.42"/></g><g><polyline class="cls-2" points="479.66 97.42 695.95 97.42 712.97 114.45"/><polyline class="cls-2" points="211.66 115.51 229.75 97.42 446.22 97.42"/></g><g><g><rect class="cls-7" x="428.38" y="80.58" width="69.33" height="33.5"/><rect class="cls-13" x="428.14" y="80.58" width="69.8" height="2.44"/><rect class="cls-9" x="425.61" y="56.2" width="74.86" height="24.72" rx="3.44" ry="3.44"/><rect class="cls-14" x="432.05" y="90.87" width="11.66" height="14.76" rx="1.93" ry="1.93"/><rect class="cls-14" x="482.32" y="90.87" width="11.66" height="14.76" rx="1.93" ry="1.93"/><g><rect class="cls-14" x="446.96" y="90.3" width="15.59" height="23.77"/><rect class="cls-14" x="463.54" y="90.3" width="15.59" height="23.77"/><rect class="cls-10" x="462.54" y="90.3" width="1" height="23.77"/></g><rect class="cls-3" x="458.42" y="100.49" width="2.51" height="3.39" rx="1.26" ry="1.26"/><rect class="cls-3" x="465.09" y="100.49" width="2.51" height="3.39" rx="1.26" ry="1.26"/><g><path class="cls-6" d="m445.52,63c.57,0,1.09.05,1.56.15.47.1.87.27,1.21.5.34.23.6.53.78.91.18.38.28.85.28,1.41,0,.6-.14,1.11-.41,1.51-.27.4-.68.73-1.22.99.74.21,1.29.58,1.65,1.12.36.53.55,1.17.55,1.92,0,.6-.12,1.13-.35,1.57-.24.44-.55.8-.95,1.08-.4.28-.85.49-1.36.62-.51.13-1.03.2-1.57.2h-5.81v-11.99h5.64Zm-.34,4.85c.47,0,.86-.11,1.16-.34.3-.22.45-.59.45-1.09,0-.28-.05-.51-.15-.69-.1-.18-.24-.32-.4-.42-.17-.1-.36-.17-.58-.21-.22-.04-.44-.06-.68-.06h-2.47v2.8h2.67Zm.15,5.09c.26,0,.5-.03.74-.08.23-.05.44-.13.62-.25.18-.12.32-.28.43-.48.11-.2.16-.46.16-.77,0-.62-.17-1.05-.52-1.32-.35-.26-.81-.39-1.38-.39h-2.87v3.29h2.82Z"/><path class="cls-6" d="m457.68,63l4.48,11.99h-2.74l-.91-2.67h-4.48l-.94,2.67h-2.65l4.53-11.99h2.7Zm.15,7.35l-1.51-4.4h-.03l-1.56,4.4h3.11Z"/><path class="cls-6" d="m465.82,63l5,8.04h.03v-8.04h2.47v11.99h-2.64l-4.99-8.02h-.03v8.02h-2.47v-11.99h2.62Z"/><path class="cls-6" d="m478.28,63v4.97l4.68-4.97h3.29l-4.68,4.73,5.14,7.25h-3.31l-3.61-5.39-1.51,1.53v3.86h-2.64v-11.99h2.64Z"/></g><rect class="cls-15" x="445.74" y="86.69" width="34.6" height="4.92" rx="1.6" ry="1.6"/><rect class="cls-12" x="428.13" y="112.79" width="69.82" height="2.99"/></g><rect class="cls-8" x="439.8" y="93.73" width="1.93" height="8.83"/><rect class="cls-8" x="489.84" y="93.73" width="1.93" height="8.83"/><rect class="cls-8" x="474.68" y="93.73" width="1.93" height="14.21"/></g><path class="cls-11" d="m763.08,173.38c-2.55,1.83-3.48,3.32-4.62,7.38-1.15-4.07-2.08-5.55-4.62-7.38,2.55-1.83,3.48-3.32,4.62-7.38,1.15,4.07,2.08,5.55,4.62,7.38Z"/><path class="cls-11" d="m743.99,129.66c-4.56,3.89-6.23,7.04-8.28,15.66-2.05-8.63-3.72-11.78-8.28-15.66,4.56-3.89,6.23-7.04,8.28-15.66,2.05,8.63,3.72,11.78,8.28,15.66Z"/><path class="cls-11" d="m373.47,65.05c-2.21,2.05-3.02,3.72-4.02,8.28-1-4.56-1.81-6.23-4.02-8.28,2.21-2.05,3.02-3.72,4.02-8.28,1,4.56,1.81,6.23,4.02,8.28Z"/><path class="cls-11" d="m167.78,181.05c-4.58,2.74-6.26,4.96-8.33,11.05-2.07-6.08-3.74-8.31-8.33-11.05,4.58-2.74,6.26-4.96,8.33-11.05,2.07,6.08,3.74,8.31,8.33,11.05Z"/></g></g></svg>