<?xml version="1.0" encoding="UTF-8"?><svg id="Layer_2" xmlns="http://www.w3.org/2000/svg" viewBox="0 0 656 115"><defs><style>.cls-1{fill:none;}.cls-2{fill:#fbd747;}.cls-3{fill:#333;}.cls-4{fill:#3fa9f5;}</style></defs><g id="PC"><rect class="cls-1" width="656" height="115"/><path class="cls-3" d="m178.17,61.55c.65.04,1.15.04,1.46.04,1,0,2.38-.07,6.57-.33,5.53-.33,9.26-.51,16.55-.77l3.96-.15,1.61-.07c1.31-.04,1.54-.07,1.73-.07.27,0,.42-.04.88-.15l.35,6.66c-.54-.07-.69-.07-1.08-.07-2.69,0-6.15.99-8.79,2.57-3.84,2.24-6.11,5.33-6.11,8.35,0,2.13,1.04,3.57,3.23,4.56,1.54.74,4.92,1.32,7.34,1.32.31,0,.58,0,1.15-.04l-.88,6.99c-.54-.11-.65-.11-1.42-.18-4.38-.37-7.26-.99-9.72-2.06-4.53-2.02-6.88-5.41-6.88-10.08,0-3.05,1.08-5.81,3.26-8.31,1-1.18,1.92-1.91,3.76-3.13l-1.8.18c-.85.07-2.19.18-9.37.74-3.57.37-3.76.37-5.42.7l-.38-6.69Zm27.23,8.38c1.54,1.69,2.69,3.31,3.73,5.33l-3.69,1.62c-1.19-2.32-2.19-3.75-3.73-5.44l3.69-1.51Zm5.15-2.13c1.38,1.47,2.46,2.9,3.76,5.18l-3.57,1.58c-1.38-2.46-2.34-3.86-3.65-5.29l3.46-1.47Z"/><path class="cls-3" d="m232.42,48.05c-.98,2.56-1.39,3.5-2.68,6.26v28.59c0,2.22.05,3.25.26,5.67h-8.19c.21-2.02.31-3.4.31-5.67v-14.54q.05-.94.05-3.4-.46.64-1.39,1.92c-.31.44-.67.84-1.29,1.53-.72-3.6-1.34-5.77-2.63-9.07,3.09-3.01,5.51-6.85,7.36-11.73.98-2.46,1.44-4.14,1.7-6.16l8.19,1.72c-.1.3-.67,1.92-1.03,3.01,1.18.1,2.11.15,3.86.15h1.18v-.64c0-1.48-.1-2.46-.31-3.55h8.13c-.15.84-.21,1.82-.21,3.6v.59h5.2v-.69c0-1.68-.05-2.56-.26-3.5h8.24c-.21.99-.26,2.02-.26,3.55v.64h1.96c2.01,0,3.35-.05,4.79-.25v7c-1.44-.15-2.52-.2-4.74-.2h-2.01v2.96h2.42c2.73,0,3.91-.05,5.15-.25v7.15c-1.29-.2-2.68-.25-5.3-.25h-24.45c-2.57,0-3.96.05-5.35.25v-7.15c1.18.2,2.57.25,5.25.25h1.75v-2.96h-1.18c-2.11,0-3.24.05-4.53.2v-5.03Zm1.34,20.6c0-2.12-.05-3.2-.21-4.49,1.29.15,2.42.2,4.79.2h19.77c2.73,0,3.96-.05,4.99-.2-.15,1.18-.21,2.32-.21,4.68v13.31c0,2.56.05,4.44.26,6.41h-7.93v-1.82h-13.9v1.82h-7.88c.21-1.97.31-3.75.31-5.91v-14Zm7.57,3.89h13.9v-2.22h-13.9v2.22Zm0,7.98h13.9v-2.32h-13.9v2.32Zm9.63-24.69v-2.96h-5.2v2.96h5.2Z"/><path class="cls-3" d="m286.78,43.62c-.72,2.07-1.34,5.27-2.11,10.55,3.35-5.77,7.52-8.53,13.03-8.53,3.5,0,6.95,1.68,9.32,4.48,2.88,3.45,4.27,7.94,4.27,13.7,0,8.08-2.63,14.1-7.88,18.04-2.93,2.22-7.05,4.04-11.74,5.13-1.75.44-3.09.69-6.08,1.13-1.24-3.7-1.9-5.08-4.12-8.43,14.78-.84,20.75-5.47,20.75-16.12,0-6.16-2.06-9.56-5.71-9.56-1.91,0-3.66.89-5.56,2.86-3.09,3.1-5.1,7.2-5.71,11.43-.15,1.13-.21,1.73-.21,4.04l-8.65.1c.05-.34.05-.64.05-.84v-.99c-.1-1.92-.15-4.88-.15-6.26,0-5.96.36-11.63,1.18-17.99.15-1.43.21-1.97.21-2.71v-.39l9.11.35Z"/><path class="cls-3" d="m326.52,44.9c2.16.25,4.07.34,7.41.34,4.58,0,10.3-.2,15.5-.59,2.27-.15,2.93-.29,3.91-.69l4.22,5.96q-1.34.74-8.29,6.46c-2.73,2.22-3.66,2.96-7.1,5.37,2.88-.69,4.38-.89,7.05-.89,4.84,0,8.29,1.08,11.02,3.35,2.47,2.12,3.76,4.98,3.76,8.53,0,4.98-2.42,8.92-7.11,11.58-3.55,1.97-8.49,3.1-13.64,3.1-8.7,0-14-3.3-14-8.77,0-4.58,4.27-7.89,10.25-7.89,3.71,0,7,1.38,9.22,3.79,1.03,1.08,1.6,2.07,2.37,3.89,2.78-1.18,4.07-2.86,4.07-5.37,0-3.45-3.5-5.57-9.22-5.57s-11.22,1.63-15.86,4.53c-1.6.99-3.24,2.22-4.94,3.7l-4.79-7.49c4.74-2.12,15.6-10.2,21.98-16.26-2.73.3-4.79.39-12.05.74-1.39.05-2.37.15-3.4.25l-.36-8.08Zm12.77,32.13c-1.18,0-2.01.64-2.01,1.63,0,1.33,1.65,2.17,4.43,2.17.62,0,.72,0,1.7-.15-.67-2.37-2.11-3.65-4.12-3.65Z"/><rect class="cls-2" x="366.89" y="18.52" width="258.66" height="71.98" rx="35.99" ry="35.99"/><path class="cls-4" d="m399.48,76.86v-17.43l1.07-.85c22.91-18.19,25.8-20.88,25.8-24.04,0-1.49-1.83-2.16-3.65-2.16-4,0-7.55,1.61-10.85,4.93l-2.06,2.07-13.58-14.57,1.71-1.92c6.15-6.91,15.12-10.71,25.24-10.71,15.69,0,26.23,8.88,26.23,22.09,0,7.7-3.7,13.88-14.1,22.56h14.55v20.02h-50.35Z"/><path class="cls-2" d="m423.15,15c14.12,0,23.41,7.76,23.41,19.27,0,7.94-4.55,14.22-19.4,25.38h19.86v14.39h-44.72v-13.26c24.5-19.45,26.87-21.72,26.87-26.25,0-2.79-2.46-4.97-6.47-4.97-4.92,0-9.11,2.01-12.84,5.76l-9.84-10.55c5.83-6.54,14.21-9.77,23.14-9.77m0-5.63c-10.93,0-20.64,4.14-27.34,11.65l-3.42,3.83,3.5,3.76,9.84,10.55,3.99,4.28,4.12-4.14c2.78-2.8,5.6-4.1,8.85-4.1.27,0,.5.02.68.05-.24.49-.84,1.28-2.39,2.79-3.39,3.3-9.85,8.55-22.19,18.34l-2.13,1.69v21.61h55.99v-25.65h-10.01c6.26-6.23,9.56-12.22,9.56-19.75s-3-13.79-8.45-18.29c-5.23-4.33-12.35-6.61-20.59-6.61h0Z"/><path class="cls-4" d="m470.83,77.61c-7.77,0-13.85-2.06-18.59-6.3l-1.79-1.6,8.32-13.04c-3.42-2.34-6.16-5.94-6.16-11.88,0-7.77,5.97-16.12,19.07-16.12,6.4,0,12.31,1.94,16.66,5.46l1.96,1.59-8.03,12.52c4.18,2.3,7.84,6.01,7.84,12.62,0,10.18-7.56,16.75-19.27,16.75Zm-8.47-18.98c2.18,1.93,5.29,3.11,8.28,3.11.16,0,.31,0,.45-.02-.53-.24-1.35-.56-2.59-.94l-.64-.2c-1.63-.5-3.56-1.1-5.5-1.96Zm10.35-14.04c.48.17,1.06.36,1.78.58.91.28,1.92.6,2.97.97-1.65-.93-3.35-1.4-4.74-1.55Z"/><path class="cls-2" d="m471.68,31.48c5.77,0,11.01,1.69,14.88,4.83l-5.64,8.79c-2.88-2.32-6.42-3.39-9.24-3.39s-3.61,1.13-3.61,2.39c0,1.76,1.9,2.64,5.57,3.77,5.64,1.76,13.64,4.27,13.64,12.99s-6.29,13.93-16.45,13.93c-7.54,0-12.78-2.07-16.72-5.59l5.77-9.04c2.62,2.64,6.62,4.39,10.75,4.39,2.36,0,4.13-1,4.13-2.57,0-1.82-1.97-2.82-5.44-3.89-5.64-1.76-13.9-3.95-13.9-13.31,0-6.84,5.51-13.31,16.26-13.31m0-5.63c-6.44,0-11.95,1.92-15.95,5.55-3.83,3.48-5.94,8.24-5.94,13.39s1.8,9.3,5.24,12.51l-5.67,8.88-2.58,4.04,3.57,3.19c5.29,4.72,11.98,7.02,20.47,7.02,13.21,0,22.09-7.86,22.09-19.57,0-5.53-2.34-10.18-6.76-13.47l5.15-8.03,2.72-4.24-3.91-3.17c-4.84-3.93-11.39-6.09-18.43-6.09h0Z"/><polygon class="cls-4" points="498.37 76.86 498.37 45.35 489.32 45.35 489.32 29.36 525.44 29.36 525.44 45.35 516.45 45.35 516.45 76.86 498.37 76.86"/><path class="cls-2" d="m522.62,32.17v10.36h-8.98v31.51h-12.46v-31.51h-9.05v-10.36h30.48m5.63-5.63h-41.75v21.62h9.05v31.51h23.72v-31.51h8.98v-21.62h0Z"/><polygon class="cls-4" points="527.41 76.86 527.41 29.36 560.64 29.36 560.64 45.09 560.18 45.09 560.18 60.72 545.43 60.72 545.43 61.12 560.64 61.12 560.64 76.86 527.41 76.86"/><path class="cls-2" d="m557.82,32.17v10.11h-15.21v5.52h14.75v10.11h-14.75v6.03h15.21v10.11h-27.6v-41.87h27.6m5.63-5.63h-38.86v53.13h38.86v-21.37h-.46v-10.39h.46v-21.37h0Z"/><path class="cls-4" d="m563.53,76.86V29.36h21.76c12.32,0,17.83,8.54,17.83,17s-5.51,16.81-17.83,16.81h-3.74v13.68h-18.02Zm20.25-29.42c.81,0,1.12-.33,1.12-1.2,0-.82-.31-1.14-1.12-1.14h-2.23v2.34h2.23Z"/><path class="cls-2" d="m585.29,32.17c10.03,0,15.01,6.59,15.01,14.19s-4.98,14-15.01,14h-6.56v13.68h-12.39v-41.87h18.95m-6.56,18.08h5.05c2.29,0,3.93-1.51,3.93-4.02s-1.64-3.95-3.93-3.95h-5.05v7.97m6.56-23.71h-24.58v53.13h23.65v-13.68h.92c7.9,0,12.68-3.19,15.3-5.87,3.45-3.53,5.35-8.42,5.35-13.76,0-11.67-8.49-19.82-20.65-19.82h0Z"/><polygon class="cls-2" points="504.61 108.26 528.72 90.5 480.51 90.5 504.61 108.26"/><polygon class="cls-2" points="30.45 91.15 43.6 65.64 171.21 55.14 163.55 91.15 30.45 91.15"/><path class="cls-4" d="m73.49,86.16h-9.73s.63-1.69.63-1.69c.31-.82.55-1.56.92-2.86-2.73.57-4.68.9-10.55,1.86-.61.1-1.07.2-1.87.44l-1.8.55,1.1-10.66,1.26.15c.21.03.35.03.49.03h.2c.36,0,.96-.05,2.36-.18l3.22-11.77c-.7.06-1.31.14-2.02.25l-1.92.3,2.48-8.91,1.05.11c.59.06,1.13.09,1.82.09.33,0,.69,0,1.13-.02l.17-.44c.46-1.23.8-2.34,1.37-4.4l1.55-5.69c.55-2.03.82-3.15,1.01-4.3l.18-1.07,1.09.03c.34,0,.65.01.97.01.93,0,1.85-.04,3.4-.16l23.91-1.74c2.16-.16,3.31-.28,4.91-.55l2.07-.34-.68,1.98c-.41,1.21-.71,2.31-1.23,4.54l-1.38,5.98c-.48,2.1-.71,3.27-.84,4.37,1.11-.09,1.9-.19,2.75-.35l1.86-.34-2.09,9.33-1.1-.1c-.85-.08-1.56-.11-2.45-.11-.34,0-.71,0-1.14.01l2.71,4.17-.59.71q-.37.44-1.66,2.34c-1.69,2.36-3.46,4.49-5.5,6.59,1.54.63,3.11,1.04,5.61,1.5l2.02.38-1.26,1.62c-1.93,2.48-3.16,4.27-4.92,7.7l-.52,1.02-1.06-.43c-4-1.62-6.36-2.89-8.48-4.62-2.41,1.61-4.37,2.7-7.78,4.32l-1.63.77-.04-.43Zm2.77-11.14c.38-.18.75-.36,1.13-.57-.23-.47-.43-.94-.62-1.46l-.51,2.03Zm8.94-6.05c.1-.09.2-.19.3-.28h-.42c.04.1.08.19.12.28Z"/><path class="cls-2" d="m101.02,36.79c-.43,1.24-.74,2.38-1.26,4.67l-1.38,5.98c-.51,2.23-.75,3.46-.89,4.68-.48.02-1.77.04-3.92.1l-25.59,1.29c-2.02.1-3.09.2-4.38.36.48-1.27.84-2.44,1.4-4.51l1.55-5.69c.56-2.04.83-3.21,1.04-4.42.35,0,.67.01,1,.01.97,0,1.93-.04,3.5-.16l23.91-1.74c2.26-.17,3.41-.3,5.02-.56m-8.25,5.04l-19.82,1.32-.38,1.44,19.84-1.27.35-1.48m-1.2,5.01l-19.9,1.17-.37,1.41,19.93-1.13.35-1.45m10.17,6.13l-1.44,6.42c-.85-.08-1.61-.12-2.57-.12-.82,0-1.79.03-3.1.08l-15.87.62-4.33,17.21c1.99-.82,2.94-1.26,4.65-2.24-.88-1.57-1.25-2.56-2.01-5.1l5.39-2.32-.85.02c-1.74.05-2.69.12-3.81.31l1.65-6.6c.65.07,1.23.1,2.02.1.51,0,1.1-.01,1.86-.04l8.24-.3c1.55-.06,2.77-.15,3.64-.34l2.56,3.94q-.4.49-1.73,2.43c-2.02,2.82-4.15,5.27-6.62,7.68,2.2,1.1,3.94,1.68,7.53,2.34-2.12,2.72-3.33,4.55-5.04,7.89-4.37-1.77-6.66-3.08-8.87-5.03-2.78,1.92-4.72,3.01-8.4,4.76-.18-2.11-.36-2.92-.89-4.74-.53,2.09-.79,3.49-1.01,4.95h-7.15c.46-1.23.78-2.3,1.52-4.95-4.02.87-5.26,1.09-12.52,2.28-.65.11-1.17.21-2.03.48l.78-7.52c.27.03.46.04.65.04.07,0,.14,0,.21,0,.48,0,1.24-.07,3.31-.26l3.92-14.33c-1.71.12-2.64.2-3.89.4l1.67-6.01c.61.06,1.2.1,1.95.1s1.71-.03,3.01-.1l31.98-1.54c2.81-.14,4.1-.25,5.61-.53m-29.52,7.26l-4.58.18-.43,1.6,4.59-.17.42-1.62m-1.49,5.73l-4.61.14-.47,1.78,4.61-.13.47-1.79m17.65,1.4l-5.07.14c.58,1.71.82,2.28,1.59,3.42,1.45-1.25,2.2-2,3.48-3.56m-19.21,4.57l-4.63.1-.59,2.22c.89-.12,2.48-.35,4.8-.71l.42-1.61m35.58-38.29l-4.13.67c-1.57.26-2.65.38-4.8.53l-23.91,1.74c-1.52.11-2.42.15-3.31.15-.3,0-.61,0-.93-.01l-2.17-.06-.36,2.14c-.19,1.1-.44,2.2-.99,4.18l-1.55,5.69c-.5,1.82-.82,2.88-1.2,3.94-.09,0-.17,0-.26,0-.64,0-1.15-.02-1.69-.08l-2.11-.22-.57,2.04-1.67,6.01-1.04,3.74,3.84-.6s.09-.01.13-.02l-2.5,9.14c-.71.06-1.15.09-1.4.1h-.17c-.09,0-.18,0-.35-.02l-2.53-.3-.26,2.53-.78,7.52-.39,3.75,3.61-1.1c.73-.22,1.14-.31,1.71-.4,4.36-.71,6.56-1.08,8.53-1.46-.09.27-.18.52-.28.78l-1.26,3.38h3.61s6.78,0,6.78,0l.1,1.08,2.29-1.09h.14v-.07s.83-.39.83-.39c3.11-1.48,5.05-2.52,7.18-3.91,2.04,1.53,4.39,2.74,8.07,4.24l2.12.86,1.04-2.04c1.56-3.04,2.63-4.72,4.79-7.5l2.53-3.25-4.05-.75c-1.51-.28-2.65-.54-3.6-.82,1.53-1.69,2.93-3.42,4.27-5.29l.02-.02.02-.02q1.26-1.85,1.59-2.24l1.18-1.42-1-1.55-.95-1.46c.38.02.76.04,1.17.08l2.19.2.48-2.15,1.44-6.42.83-3.69-3.72.68c-.35.06-.69.12-1.04.17.13-.71.32-1.56.57-2.68l1.38-5.98c.5-2.18.79-3.26,1.19-4.42l1.36-3.96h0Z"/><path class="cls-4" d="m100.23,74.94l.94-.36c1.34-.52,4.03-1.99,6.69-3.83l1.74-8.3-.55.02c-.9.03-1.72.1-3,.36l-1.87.37,2.37-10.93,1.11.11c.9.09,1.45.12,2.11.12.47,0,1.02-.02,1.84-.05l4.9-.23c1.57-.07,2.65-.18,3.88-.38l1.02-.17.29-1.48c.26-1.33.42-2.23.55-3.19l-5.49,4.93-.76-1.37c-2.01-3.63-3.8-6.07-6.84-9.3l-.89-.95,8.63-7.49.82.8c1.93,1.87,3.45,3.53,4.88,5.34l.67-3.37,1.1.08c.59.04,1.15.06,1.77.06,1.21,0,2.61-.08,4.47-.21l5.41-.38c.16-.99.21-1.9.22-2.27l.04-1.12,11.26-.84-.66,1.82c-.22.61-.36,1.09-.48,1.69l6.28-.44c3.53-.25,4.87-.4,6.87-.79l1.75-.34-1.62,10.59s-1.42-.03-1.57-.04l-.18.7c-.44,1.69-.64,2.72-.97,4.8l-.94,6.04c-.33,2.15-.46,3.26-.55,4.98l-.07,1.28-1.28-.1c-.86-.06-1.58-.09-2.47-.09-.78,0-1.73.02-3.06.07h-.16c2.13,1.49,4.65,2.52,8.28,3.47l1.85.49-1.19,1.5c-1.99,2.51-3.03,4.08-4.25,6.52.76-.09,1.48-.19,2.19-.3l2.34-.35-1.03,2.13c-1.87,3.87-2.44,5.4-3.62,9.62l-.25.88-.91.03c-5.36.19-13.08.32-19.68.33h-.54c-12.89,0-16.95-.47-20.28-4.82-1.89,1.51-3.59,2.68-6.64,4.6-.18.1-.3.18-.44.27-.17.1-.35.22-.6.37l-1.59.95-1.83-11.82Zm22.68-.75c.98.12,2.16.18,3.6.18.27,0,.55,0,.84,0,.42,0,.84-.01,1.25-.02l.12-.33c.31-.88.52-1.71.77-3.07l.25-1.38c-1.95,1.64-4.06,3.07-6.82,4.63Zm17.12-2.91c-.22,1.26-.31,2.03-.31,2.77,2.78-.11,5.28-.26,7.55-.43-2.61-1.4-4.72-2.97-6.76-5.04-.02.09-.47,2.7-.47,2.7Zm-20.73-6.42c2.06-.93,3.79-1.86,5.47-2.94-1.61.07-2.61.16-3.99.35l-.99.13-.49,2.47Zm11.83-11.83l1.63-.07.06-.35-1.63.08-.06.34Zm12.14-.54l2.24-.1.07-.4-2.24.11-.07.39Z"/><path class="cls-2" d="m145.71,32.28c-.31.85-.47,1.48-.62,2.37l-.19,1.1,7.88-.55c3.47-.24,4.89-.4,7.02-.81l-1.19,7.75c-.7-.02-1.25-.03-1.8-.03-.96,0-1.91.04-3.56.13l-9.57.58-.33,1.94,7.84-.45c2.54-.15,3.85-.28,5.53-.54-.43,1.66-.65,2.71-.99,4.92l-.94,6.04c-.35,2.26-.47,3.4-.56,5.1-.83-.06-1.59-.1-2.56-.1-.82,0-1.8.02-3.11.07l-3.41.12c2.83,2.78,5.89,4.4,11.26,5.81-2.4,3.03-3.48,4.75-5.16,8.36-5.23-2.2-8.29-4.45-11.63-8.36-.03.85-.16,1.59-.39,2.91l-.42,2.41c-.25,1.44-.34,2.31-.33,3.24l-8.57.13c.34-.98.57-1.9.82-3.26l.45-2.44c.24-1.3.26-1.41.55-2.71-3.22,3.28-6.23,5.43-11.39,8.17-.87-2.9-1.58-4.45-2.86-6.46l-.78,3.89c.89,1.38,1.36,1.93,2.2,2.53,1.5,1.03,3.61,1.47,7.64,1.47.28,0,.56,0,.85,0,13.01-.18,21.51-.65,28.14-1.63-1.91,3.96-2.51,5.59-3.7,9.83-5.31.19-13.02.32-19.64.33-.18,0-.37,0-.55,0-14.4,0-16.98-.73-20.03-5.38-2.41,2-4.13,3.2-7.56,5.36-.3.17-.54.34-1.02.63l-1.39-8.99c1.61-.63,4.64-2.33,7.36-4.25l2.17-10.35-2.15.08c-1.02.04-1.89.12-3.2.38l1.73-7.98c.86.08,1.48.12,2.23.12.52,0,1.11-.02,1.89-.06l4.9-.23c1.55-.07,2.7-.18,4.03-.4-.49,1.66-.79,2.9-1.42,6.08l-1.57,7.82c4.59-1.89,7.69-3.63,11.28-6.44l-2.9.1c-2.56.09-3.69.19-5.36.41.49-1.69.77-2.83,1.16-4.83l1.14-5.78c.41-2.07.56-3.12.73-4.74.56.02,1.08.04,1.63.04.95,0,2.02-.04,3.61-.13l6.55-.38.35-1.91-7.9.48c-1.99.12-3.19.24-4.41.42l-6.41,5.74c-2.05-3.7-3.87-6.19-7.02-9.55l6.78-5.88c2.72,2.64,4.58,4.82,6.43,7.45l1.01-5.05c.62.05,1.21.07,1.86.07,1.19,0,2.56-.07,4.55-.21l6.39-.45.12-.68c.18-.99.26-2.01.29-2.73l8.21-.62m1.37,18.38l-4.79.23-.5,2.91,4.81-.21.49-2.93m-12.73.62l-4.19.2-.54,2.86,4.21-.19.53-2.88m15.03-21.78l-3.86.29-8.21.62-2.23.17-.08,2.24c0,.22-.03.63-.08,1.14l-4.39.31c-1.83.13-3.21.21-4.38.21-.58,0-1.11-.02-1.67-.06l-2.21-.16-.38,1.89c-.99-1.12-2.06-2.23-3.29-3.43l-1.65-1.6-1.73,1.5-6.78,5.88-1.97,1.71,1.78,1.9c2.97,3.16,4.64,5.43,6.6,8.94l-3.29.15c-.79.04-1.32.05-1.78.05-.62,0-1.14-.03-2-.11l-2.21-.21-.47,2.17-1.73,7.98-.81,3.72,3.74-.74c.7-.14,1.25-.22,1.75-.27l-1.31,6.21c-2.42,1.64-4.84,2.95-6.02,3.41l-1.87.73.31,1.99,1.39,8.99.57,3.67,3.19-1.9c.26-.15.46-.28.63-.39.13-.08.24-.15.36-.22l.04-.02.04-.03c2.57-1.62,4.2-2.72,5.79-3.93,3.52,3.86,8.22,4.34,20.46,4.34h.55c6.61,0,14.35-.14,19.73-.33l1.83-.07.49-1.76c1.16-4.13,1.72-5.63,3.55-9.42l2.05-4.26-4.41.66c.79-1.32,1.66-2.53,2.96-4.17l2.38-3-3.71-.97c-1.23-.32-2.33-.65-3.32-1.01.1,0,.21.01.32.02l2.55.19.14-2.55c.09-1.68.21-2.73.54-4.85l.94-6.04c.33-2.1.54-3.09.88-4.42l1.68.04.33-2.18,1.19-7.75.54-3.51-3.49.68c-1.96.38-3.22.52-6.72.77l-4.49.32,1.28-3.53h0Zm-29.29,21.11l.31-.28-.05.23-.16.03s-.07.01-.1.02h0Zm20.99,22.13c.05-.36.11-.76.19-1.25l.07-.41c.63.55,1.28,1.06,1.95,1.54-.71.04-1.45.08-2.21.11h0Zm-14.01.38c.27-.18.53-.36.79-.54-.05.18-.1.36-.15.53-.12,0-.24,0-.37,0-.09,0-.18,0-.27,0h0Z"/><circle class="cls-4" cx="88.61" cy="19.18" r="5.63"/><path class="cls-2" d="m88.61,14.8c2.42,0,4.38,1.96,4.38,4.38s-1.96,4.38-4.38,4.38-4.38-1.96-4.38-4.38,1.96-4.38,4.38-4.38m0-2.5c-3.8,0-6.88,3.09-6.88,6.88s3.09,6.88,6.88,6.88,6.88-3.09,6.88-6.88-3.09-6.88-6.88-6.88h0Z"/><circle class="cls-4" cx="134.29" cy="14.8" r="5.63"/><path class="cls-2" d="m134.29,10.42c2.42,0,4.38,1.96,4.38,4.38s-1.96,4.38-4.38,4.38-4.38-1.96-4.38-4.38,1.96-4.38,4.38-4.38m0-2.5c-3.8,0-6.88,3.09-6.88,6.88s3.09,6.88,6.88,6.88,6.88-3.09,6.88-6.88-3.09-6.88-6.88-6.88h0Z"/></g></svg>