<?xml version="1.0" encoding="UTF-8"?><svg id="Layer_2" xmlns="http://www.w3.org/2000/svg" viewBox="0 0 403.56 69.85"><defs><style>.cls-1{fill:#eaf9ff;}.cls-2{fill:#ffae22;}.cls-3{fill:#fff;}.cls-4{fill:#ffe198;}.cls-5{fill:#fff1d9;}.cls-6{fill:#ffd86e;}.cls-7{fill:#ffc73e;}.cls-8{fill:#fbe7b5;}.cls-9{fill:#fbf1f2;}.cls-10{fill:#f19114;}.cls-11{fill:#cef;}.cls-12{fill:#b1dfff;}.cls-13{fill:#d95d44;}</style></defs><g id="Layer_1-2"><g><rect class="cls-13" x="18.56" y="12.77" width="385" height="52" rx="26" ry="26"/><g><g><path class="cls-2" d="M36.85,64.7c-1.67-3.1-8.34-6.64-16.77-8.62-8.43-1.98-15.98-1.78-18.85,.25l-.76-.18-.41,1.76c-.8,3.42,6.86,8.14,17.12,10.55,10.26,2.41,19.22,1.59,20.02-1.83l.41-1.76-.76-.18Z"/><ellipse class="cls-6" cx="19.04" cy="60.52" rx="6.36" ry="19.08" transform="translate(-44.23 65.22) rotate(-76.78)"/></g><g><path class="cls-2" d="M36.33,62.3c-1.57-2.92-7.86-6.25-15.8-8.12-7.94-1.86-15.05-1.68-17.76,.24l-.72-.17-.39,1.65c-.76,3.22,6.46,7.67,16.12,9.94,9.66,2.27,18.11,1.5,18.86-1.72l.39-1.65-.72-.17Z"/><ellipse class="cls-6" cx="19.55" cy="58.36" rx="5.99" ry="17.97" transform="translate(-41.74 64.05) rotate(-76.78)"/></g><g><path class="cls-11" d="M33.04,47.52c-.56-5.21-3.27-9.26-4.99-11.36-.36-.21-.7-.4-1.01-.58-.36-.2-.53-.62-.44-1.02s.44-.69,.85-.71c.06,0,.13,0,.19-.01,1.83-1.35,5.76-4.6,9.26-9.7,2.68-3.91,3.52-10.89,3.74-16.23l-8.25-4.23-18.21,.22c-4.43,18.86,4.98,26.56,9.21,28.99,.36,.2,.53,.62,.44,1.02s-.44,.69-.85,.71c-4.83,.29-15.87,.16-20.38,18.6-.05,.11-.09,.23-.12,.35-.75,3.17,6.37,7.56,15.89,9.79,2.34,.55,4.6,.92,6.7,1.11,2.1-2.38,8.67-10.42,7.97-16.96Z"/><path class="cls-1" d="M36.89,24.14c-3.5,5.1-7.43,8.35-9.26,9.7,4.98-.35,16.59-3.23,20.96-21.85l-7.96-4.08c-.22,5.33-1.06,12.31-3.74,16.23Z"/><path class="cls-1" d="M36.96,61.67c.03-.12,.04-.24,.05-.36,3.86-17.15-4.39-22.54-8.96-25.15,1.72,2.1,4.44,6.15,4.99,11.36,.7,6.54-5.87,14.58-7.97,16.96,6.45,.6,11.32-.42,11.88-2.81Z"/><path class="cls-12" d="M19.27,20c.86,6.13,2.94,10.78,3.98,12.81-4.3-2.53-13.42-10.28-9.04-28.9l8.94-.11c-2.18,4.87-4.53,11.5-3.87,16.2Z"/><path class="cls-12" d="M2.51,53.58c.03-.12,.07-.23,.12-.35,4.18-17.08,13.97-18.22,19.22-18.53-2.48,1.11-6.71,3.53-9.53,7.95-3.54,5.55-1.23,15.67-.42,18.74-6.04-2.33-9.95-5.41-9.39-7.81Z"/></g><g><path class="cls-9" d="M28.42,33.23c2.61-.04,5.15-1.05,7.78-2.55,4.55-2.6,5.44-4.55,5.44-4.55,0,0-1.82-1.29-4.48-2.41-.09,.14-.18,.28-.27,.42-3.06,4.46-6.44,7.49-8.47,9.09Z"/><path class="cls-9" d="M36.21,62.22l.19,.04,.13-.46c.11-.18,.18-.37,.23-.57,.03-.14,.05-.29,.05-.44l.29-1.03s.69-3.2-4.64-4.45c-.37-.09-.71-.19-1.03-.29-1.76,3.84-4.5,7.3-5.97,9.02,5.18,.43,9.27-.22,10.75-1.81Z"/><g><path class="cls-6" d="M31.52,30.5c1.68-1.63,3.58-3.76,5.37-6.37,.09-.14,.18-.28,.27-.42-2.01-.85-4.49-1.6-7.03-1.64-5.91-.09-7.82-1.84-11.03-2.21-3.2-.37-4.14,2.48-4.14,2.48,0,0,.13,.32,.39,.84,1,.97,2.31,2.07,4,3.28,3.02,2.15,8.01,3.36,12.17,4.04Z"/><path class="cls-7" d="M22.55,31.62c.32,.18,.63,.34,.94,.49,.48,.6,.91,1.27,.81,1.63-.2,.74-1.23,1.09-1.13,1.31,.11,.21,.62,1.25,1.75,1.26,1.13,.01,1.11-.31,1.25-1.15,.14-.85,.71-1.81,1.27-1.81,.27,0,.43-.06,.51-.12,.15,0,.31,0,.46,0,.84-.66,1.91-1.57,3.1-2.73-4.16-.68-9.15-1.9-12.17-4.04-1.69-1.2-2.99-2.31-4-3.28,.92,1.85,3.41,6.29,7.19,8.44Z"/><path class="cls-7" d="M3.89,50.33l-.54,1.79,.09,.1c-.3,.31-.5,.66-.59,1.04-.73,3.12,6.26,7.44,15.63,9.64,2.45,.57,4.81,.95,6.99,1.13,.29-.34,.63-.75,1-1.21-3.27-1-7.15-2.52-10.18-4.73-3.85-2.81-6.25-6.28-7.56-8.61-3.41-.13-4.84,.85-4.84,.85Z"/></g></g><path class="cls-1" d="M32.2,4.5l15.46,7.92c-1.9,7.65-5.25,13.31-9.96,16.81-1.76,1.31-3.7,2.3-5.77,2.96-1.5,.47-3.02,.76-4.54,.85-.77,.05-1.41,.58-1.59,1.34s.16,1.52,.83,1.9c.16,.09,.34,.19,.52,.29,2.15,1.22,5.4,3.06,7.6,6.7,1.21,2,1.98,4.35,2.29,7,.37,3.15,.09,6.81-.82,10.86l-.02,.07v.07c0,.08-.02,.15-.03,.22-.15,.65-.86,1.1-1.43,1.37-.93,.43-2.26,.74-3.85,.89-3.43,.31-7.8-.1-12.32-1.16-4.52-1.06-8.62-2.64-11.55-4.45-1.36-.84-2.42-1.71-3.06-2.51-.71-.89-.76-1.51-.67-1.86,.02-.07,.04-.13,.07-.21l.03-.06,.02-.07c.99-4.04,2.37-7.43,4.1-10.09,1.45-2.23,3.19-3.99,5.17-5.24,3.59-2.28,7.32-2.48,9.79-2.62,.21-.01,.4-.02,.59-.03,.77-.05,1.41-.58,1.59-1.34s-.16-1.52-.83-1.9c-1.32-.76-2.56-1.69-3.69-2.78-1.56-1.51-2.85-3.26-3.85-5.22-2.66-5.24-3.14-11.79-1.43-19.49l17.37-.21m.19-.81l-18.21,.22c-4.43,18.86,4.98,26.56,9.21,28.99,.36,.2,.53,.62,.44,1.02h0c-.09,.4-.44,.69-.85,.71-4.83,.29-15.87,.16-20.38,18.6-.05,.11-.09,.23-.12,.35-.75,3.17,6.37,7.56,15.89,9.79,9.52,2.24,17.84,1.48,18.58-1.7,.03-.12,.04-.24,.05-.36,4.16-18.52-5.78-23.32-9.97-25.73-.36-.2-.53-.62-.44-1.02h0c.09-.4,.44-.69,.85-.71,4.87-.29,16.72-3,21.15-21.86L32.39,3.69h0Z"/><g><path class="cls-10" d="M29.64,15.4c-9.64-2.26-16.83-6.7-16.08-9.91l-.39,1.65c-.75,3.21,6.44,7.65,16.08,9.91s18.06,1.49,18.81-1.72l.39-1.65c-.75,3.21-9.18,3.98-18.81,1.72Z"/><g><path class="cls-8" d="M36.68,10.23c1.85-1.69,2.26-3.28,2.18-4.49-1.97-.75-4.16-1.43-6.49-1.98-9.64-2.26-18.06-1.49-18.81,1.72-.54,2.28,2.95,5.19,8.47,7.49,2.54,.13,11.28,.33,14.65-2.75Z"/><path class="cls-5" d="M48.45,13.68c.57-2.43-3.43-5.57-9.59-7.94,.09,1.21-.32,2.8-2.18,4.49-3.37,3.07-12.11,2.87-14.65,2.75,2.24,.94,4.82,1.77,7.61,2.42,9.64,2.26,18.06,1.49,18.81-1.72Z"/></g></g><g><path class="cls-2" d="M30.02,13.77C19.77,11.36,12.1,6.63,12.91,3.21l-.41,1.76c-.8,3.42,6.86,8.14,17.12,10.55s19.22,1.59,20.02-1.83l.41-1.76c-.8,3.42-9.77,4.24-20.02,1.83Z"/><g><path class="cls-4" d="M50.05,11.94c.61-2.59-3.65-5.93-10.21-8.45,.09,1.29-.35,2.98-2.32,4.77-3.58,3.27-12.89,3.06-15.59,2.92,2.39,1,5.13,1.88,8.1,2.58,10.26,2.41,19.22,1.59,20.02-1.83Z"/><g><path class="cls-6" d="M39.84,3.49c-1.93-.74-4.07-1.41-6.34-1.97-4.33-.34-12.1-.57-14.22,1.98-2.99,3.59,2.65,7.68,2.65,7.68,2.71,.14,12.01,.35,15.59-2.92,1.97-1.8,2.41-3.49,2.32-4.77Z"/><path class="cls-7" d="M19.28,3.5c2.12-2.55,9.89-2.32,14.22-1.98-.19-.05-.38-.09-.57-.14C22.68-1.03,13.71-.21,12.91,3.21c-.57,2.43,3.14,5.52,9.02,7.97,0,0-5.64-4.1-2.65-7.68Z"/></g></g></g><path class="cls-6" d="M24.65,49.65c-.67-.52-1.06-1.31-1.1-2.15-.07-1.7-.09-4.17,.23-5.93,.54-2.95,2.23-5.79,2.23-5.79l-1.41-.33-1.06,.13s.69,.96,.28,2.84c-.4,1.88-1.58,6.59-2.05,7.43-.32,.59-1.19,2.23-2.66,1.87-.4-.1-.82-.16-1.24-.12-2.71,.23-3.73,2.54-7.3,2.04-.68-.09-1.31-.15-1.88-.17,1.31,2.34,3.71,5.81,7.56,8.61,3.02,2.2,6.9,3.73,10.18,4.73,1.51-1.89,3.55-4.73,4.97-7.81-3.35-1.13-4.2-3.34-6.78-5.36Z"/></g><g><path class="cls-3" d="M74.85,35.41c0,.97-.28,1.69-.84,2.1-.41,.31-1.02,.41-2.38,.41-.49,0-1.18-.03-2.15-.08-.08-.69-.15-1.2-.38-2.04-1.2,.56-1.35,.61-2.61,1.12-.51,.18-.74,.31-1.07,.46-.08,.51-.08,.69-.08,1.15v.74h5.83c1.33,0,2.07-.03,2.79-.15v2.73c-.82-.1-1.61-.13-2.74-.13h-3.09l2.4,.77c-.56,1.28-1.07,2.35-1.74,3.58h3.53c1.3,0,2.27-.05,2.99-.15v2.91c-.74-.1-1.79-.15-3.09-.15h-16.41c-1.33,0-2.3,.05-3.09,.15v-2.91c.79,.1,1.76,.15,2.99,.15h3.42c-.54-1.76-.69-2.1-1.46-3.55l2.27-.79h-3.07c-1.2,0-1.94,.03-2.79,.13v-2.73c.79,.1,1.56,.15,2.71,.15h5.9v-.74c0-.41-.03-.74-.08-1.18-.56,.33-1.12,.41-2.53,.41-.59,0-.92-.03-1.69-.08-.05-.72-.08-.87-.36-1.97-1.87,.92-1.99,1-3.63,1.66-.25,.1-.43,.21-.74,.36l-.97-2.71c2.73-.61,4.04-1.15,7.36-2.96l.1,2.56c-.72,.41-.89,.51-1.33,.71,.31,.05,1.05,.08,1.48,.08,.51,0,.69-.15,.69-.61v-5.55h-5.5c1.3,.69,2.07,1.18,3.5,2.3l-1.79,1.89c-1.53-1.33-2.12-1.74-3.65-2.61l1.56-1.58c-1.15,0-1.56,.03-2.22,.15v-2.79c.72,.1,1.43,.15,2.61,.15h5.52c1.38,0,1.92-.03,2.58-.1-.08,.59-.1,1.15-.1,2.58v5.98c0,.97-.13,1.41-.59,1.89h2.25l-.77-2.38c.82-.1,1.43-.28,2.99-.84,1.35-.51,1.94-.77,3.94-1.79l.1,2.53c-.82,.41-1.1,.56-1.56,.79,.74,.08,1.15,.1,1.51,.1,.74,0,.87-.1,.87-.61v-5.65h-5.72c1.38,.74,2.02,1.15,3.53,2.27l-1.69,1.79c-1.38-1.15-2.27-1.76-3.68-2.56l1.46-1.51c-.74,0-1.23,.05-1.87,.13v-2.79c.66,.13,1.41,.18,2.71,.18h5.5c1.28,0,1.94-.03,2.45-.13-.08,.64-.1,1.41-.1,2.63v6.11Zm-14.65,6.31c.64,1.25,.74,1.51,1.48,3.55l-2.02,.79h6.26c.84-1.58,1.46-3.07,1.84-4.35h-7.57Z"/><path class="cls-3" d="M84.27,29.17c-.43-.89-.87-1.58-1.64-2.58l2.81-.59c.77,1.07,1.41,2.15,1.92,3.17h2.35c-.31-.82-.89-1.99-1.43-2.94l2.86-.46c.51,.97,1.18,2.38,1.56,3.4h1.84c.69-1,1.35-2.25,1.81-3.42l2.96,.66c-.43,.79-1.2,2.04-1.69,2.76h1.53c1.28,0,1.94-.03,2.73-.1-.08,.67-.08,1.25-.08,2.28v2.04c0,.84,.03,1.33,.1,2.02h-2.81v-3.86h-16.46v3.86h-2.81c.08-.67,.13-1.28,.13-1.99v-2.02c0-.89-.03-1.48-.1-2.33,.84,.08,1.56,.1,2.71,.1h1.69Zm1.94,10.25c-1.41,0-1.87,.03-2.68,.1,.08-.67,.1-1.18,.1-2.3v-2.43c0-.84-.03-1.46-.1-1.94,.56,.08,1.15,.1,1.94,.1h10.89c.74,0,1.33-.03,1.87-.1-.08,.41-.08,1-.08,2.02v2.35c0,1.35,0,1.71,.08,2.3-.84-.08-1.48-.1-2.68-.1h-3.63c-.28,.69-.51,1.15-.87,1.81h6.8c1.2,0,1.79-.03,2.43-.1-.08,.64-.1,1.23-.1,2.45v3.32c0,1.18,.03,1.76,.13,2.5h-2.89v-1h-13.11v1h-2.84c.08-.87,.13-1.66,.13-2.53v-3.32c0-1.15-.05-1.71-.13-2.43,.66,.08,1.28,.1,2.38,.1h4.22c.41-.64,.69-1.18,.95-1.81h-2.79Zm-1.92,6.54h13.14v-2.48h-13.14v2.48Zm1.99-8.69h9.18v-2.17h-9.18v2.17Z"/><path class="cls-3" d="M109.77,36.07c-1.18,0-1.84,.03-2.63,.13v-2.43c.72,.08,1.38,.1,2.63,.1h3.09c-.38-.82-.66-1.41-.95-1.89h-2.76c-1.25,0-2.22,.05-3.04,.13v-2.56c.79,.1,1.61,.15,2.91,.15h.82c-.49-.89-.79-1.3-1.74-2.38l2.56-.97c.87,1.2,1.23,1.81,1.97,3.35h1.46v-1.82c0-.77-.05-1.48-.13-1.99h2.79c-.05,.46-.08,1.02-.08,1.89v1.92h1.81v-1.92c0-.82-.03-1.41-.08-1.89h2.79c-.08,.49-.13,1.18-.13,1.99v1.82h1.61c.89-1.28,1.38-2.17,1.84-3.42l2.63,.97c-.61,1.02-1.02,1.66-1.58,2.45h.72c1.33,0,2.12-.05,2.89-.15v2.56c-.79-.08-1.79-.13-3.04-.13h-2.56c-.49,1.02-.59,1.25-.95,1.89h2.96c1.25,0,1.89-.03,2.63-.1v2.43c-.79-.1-1.43-.13-2.63-.13h-6.67v1.23h5.34c1.15,0,1.92-.03,2.63-.13v2.3c-.72-.1-1.51-.13-2.63-.13h-5.34v1.28h7.13c1.46,0,2.35-.05,3.09-.15v2.56c-.95-.1-1.89-.15-3.07-.15h-5.14c.87,.74,2.02,1.43,3.48,2.04,1.64,.69,2.96,1.05,5.32,1.46-.72,.97-1.02,1.53-1.46,2.61-4.29-1.18-7.18-2.73-9.48-5.06,.08,.97,.08,1.2,.08,1.81v1.25c0,1.07,.05,1.87,.18,2.58h-3.02c.1-.74,.15-1.58,.15-2.61v-1.23c0-.59,0-.69,.08-1.74-1.2,1.23-2.15,1.97-3.68,2.81-1.64,.89-3.2,1.56-5.21,2.15-.41-.89-.9-1.66-1.56-2.45,3.73-.79,6.31-1.92,8.36-3.63h-4.75c-1.2,0-2.12,.05-3.09,.15v-2.56c.82,.1,1.69,.15,3.07,.15h6.77v-1.28h-5.06c-1.12,0-1.89,.03-2.61,.13v-2.3c.72,.1,1.46,.13,2.61,.13h5.06v-1.23h-6.39Zm10.02-2.2c.38-.74,.59-1.2,.84-1.89h-5.83c.36,.77,.51,1.15,.77,1.89h4.22Z"/><path class="cls-3" d="M134.71,29.68c0-1-.05-1.89-.13-2.73,.82,.1,1.66,.13,2.84,.13h12.37c1.2,0,1.99-.03,2.76-.13-.1,.97-.13,1.71-.13,2.61v16.51c0,1.33,.05,2.17,.15,3.09h-3.09v-1.53h-11.88v1.53h-3.04c.1-.87,.15-1.89,.15-3.09V29.68Zm2.89,6.03h11.88v-5.93h-11.88v5.93Zm0,9.23h11.88v-6.54h-11.88v6.54Z"/><path class="cls-3" d="M167.67,28.58c0-1.33-.03-1.94-.15-2.79h3.22c-.1,.79-.15,1.46-.15,2.68v1.66h7c1.12,0,1.66-.03,2.33-.1-.08,.72-.1,1.25-.1,2.25v7.79c0,1.15,.03,1.82,.13,2.56h-3.02v-1.53h-6.34v5.19c0,1.53,.05,2.27,.18,3.17h-3.27c.13-.95,.18-1.74,.18-3.17v-5.19h-6.03v1.53h-3.02c.1-.84,.13-1.48,.13-2.56v-7.82c0-.95-.03-1.41-.1-2.22,.74,.08,1.28,.1,2.3,.1h6.72v-1.56Zm-6.03,4.27v5.55h6.03v-5.55h-6.03Zm15.28,5.55v-5.55h-6.34v5.55h6.34Z"/><path class="cls-3" d="M185.66,47.96c-.02-.37-.04-.49-.1-.97-.39-2.49-.53-4.07-.53-6.15,0-2.65,.25-4.99,.84-8.04,.23-1.15,.27-1.36,.31-1.91l2.71,.29c-.49,1.21-.97,3.51-1.29,6.15-.21,1.54-.29,2.75-.31,4.54,0,.45-.02,.62-.04,1.13,.23-.72,.27-.86,1.07-2.71l1.64,.74c-1.13,2.38-1.83,4.77-1.83,6.23,0,.12,0,.29,.02,.55l-2.49,.14Zm8.76-8.12c-1.03,1.19-1.46,2.08-1.46,2.96,0,1.17,1.13,1.79,3.27,1.79,1.81,0,3.6-.29,4.89-.78l.21,2.61c-.29,.02-.37,.04-.84,.12-1.64,.27-2.9,.39-4.25,.39-2.55,0-4.19-.58-5.1-1.79-.39-.51-.62-1.27-.62-2.01,0-1.34,.62-2.71,1.89-4.23l2.01,.95Zm-3.39-6.8c.92,.25,2.01,.33,3.8,.33,2.28,0,4.23-.18,5.59-.55l.12,2.49c-.17,.02-.47,.06-1.46,.18-1.32,.16-2.88,.25-4.4,.25s-1.52,0-3.7-.23l.04-2.47Z"/><path class="cls-3" d="M207.11,38.88c0-.61,0-.69,.08-2.89-1.18,1.92-1.23,2.02-1.94,2.86-.36-1.25-.61-1.97-1.18-3.04,1.69-1.82,3.07-4.14,4.09-6.95,.54-1.43,.74-2.2,.89-3.37l2.94,.69q-.1,.31-.64,1.89c-.46,1.48-.87,2.5-1.56,4.01v14.41c0,1.15,.03,1.99,.13,2.96h-2.96c.1-.95,.15-1.76,.15-2.99v-7.59Zm14.08-10.3v-.66c0-.89-.05-1.51-.13-2.07h2.89c-.08,.59-.13,1.2-.13,2.1v.64h1.25c1.02,0,1.74-.03,2.45-.13v2.63c-.61-.08-1.25-.1-2.43-.1h-1.28v2.5h1.79c1.25,0,1.99-.05,2.58-.13v2.74c-.64-.1-1.41-.15-2.63-.15h-12.06c-1.18,0-1.89,.03-2.63,.13v-2.71c.56,.1,1.25,.13,2.58,.13h1.43v-2.5h-.87c-1.12,0-1.76,.03-2.35,.1v-2.63c.61,.1,1.33,.13,2.38,.13h.84v-.64c0-.89-.05-1.48-.15-2.1h2.91c-.1,.54-.13,1.15-.13,2.12v.61h3.68Zm-8.56,10.99c0-.95-.03-1.51-.1-2.12,.64,.08,1.2,.1,2.33,.1h8.95c1.23,0,1.81-.03,2.38-.1-.08,.56-.1,1.18-.1,2.22v6.75c0,1.25,.05,2.12,.13,3.04h-2.84v-1.17h-8.08v1.17h-2.81c.1-.87,.15-1.76,.15-2.89v-7Zm2.66,2.2h8.08v-1.92h-8.08v1.92Zm0,4.19h8.08v-1.97h-8.08v1.97Zm5.9-12.47v-2.5h-3.68v2.5h3.68Z"/><path class="cls-3" d="M237.77,26.44c-.31,.87-.43,1.53-.92,4.93-.18,1.07-.28,1.94-.33,2.56h.08q.05-.15,.15-.56c.26-.89,.92-2.15,1.61-3.04,1.41-1.74,2.99-2.61,4.86-2.61,1.74,0,3.27,.82,4.37,2.3,1.28,1.71,1.84,3.78,1.84,6.8,0,4.93-2.3,8.61-6.59,10.5-1.3,.59-3.09,1.1-5.01,1.43-.51-1.46-.79-2.02-1.51-3.02,2.56-.28,4.04-.66,5.6-1.46,2.96-1.51,4.32-3.94,4.32-7.82,0-3.68-1.23-5.73-3.42-5.73-.97,0-1.87,.43-2.76,1.36-1.99,2.07-3.22,5.21-3.22,8.25v.54l-3.07,.05c.03-.15,.03-.28,.03-.33v-.49c-.03-.74-.08-2.63-.08-3.14,0-2.07,.15-4.91,.36-6.67l.38-3.17c.05-.43,.08-.54,.08-.87l3.25,.18Z"/><path class="cls-3" d="M261.72,29.81c-.69,0-1.46,.05-2.45,.13v-3.07c.74,.1,1.28,.13,2.4,.13h4.06c1.05,0,1.74-.03,2.33-.13-.08,.74-.08,.97-.08,1.61,0,3.63,.92,7,2.74,10.12,1.07,1.79,2.33,3.32,4.09,4.91,1.3,1.2,2.04,1.74,3.78,2.76-.97,.95-1.46,1.61-2.17,2.89-2.56-1.79-4.47-3.65-6.21-6.01-.95-1.25-1.51-2.22-2.25-3.78-.66-1.41-.89-2.04-1.3-3.63-.92,3.27-1.94,5.44-3.65,7.72-1.64,2.12-3.55,3.91-6.34,5.78-.54-1.12-1.12-1.89-2.1-2.68,2.17-1.25,3.42-2.22,5.14-4.01,1.99-2.07,3.55-4.8,4.37-7.57,.51-1.76,.74-3.09,.84-5.16h-3.2Z"/><path class="cls-3" d="M288.88,35.28c.74-.82,1.28-1.28,3.12-2.66,2.22-1.69,3.83-2.4,5.39-2.4,2.15,0,3.58,1.35,3.58,3.4,0,.84-.18,1.94-.64,3.91-.87,3.86-1.07,4.93-1.07,5.75s.38,1.28,1.05,1.28c.56,0,1.25-.51,1.79-1.3,.61-.89,1.18-1.99,1.48-2.91,.56,1.35,.87,1.89,1.71,3.07-.77,1.33-1.12,1.81-1.79,2.53-1.12,1.25-2.38,1.84-3.78,1.84-.84,0-1.64-.26-2.2-.66-.92-.72-1.33-1.66-1.33-3.22s.1-2.17,1.05-6.42c.38-1.64,.54-2.63,.54-3.22s-.36-.95-1.05-.95c-.82,0-1.92,.49-3.17,1.38-1.87,1.38-3.68,2.99-4.65,4.17-.05,1.15-.05,1.87-.05,2.58q0,.21,.03,3.04c.03,3.19,.03,3.27,.13,4.22h-3.3q.15-1.05,.18-4.06,0-2.73,.05-3.42l-.05,.03c-.23,.36-.51,.69-1.81,2.15-.56,.64-.92,1.07-1.18,1.46l-1.48-3.04c.59-.41,1-.79,1.66-1.46q2.4-2.38,2.89-2.91c.03-1.23,.03-1.51,.08-2.5,0-.59,.03-.64,.03-1.33-2.71,.18-3.22,.23-3.91,.36l-.15-2.89c.46,.05,.69,.05,1.05,.05,.49,0,1.89-.08,3.09-.15q.03-.38,.05-.97c0-.71,.03-1.51,.03-2.1,0-.66,0-.84-.08-1.43l3.25,.05c-.08,.31-.08,.36-.1,.95,0,.13-.03,.46-.08,.97-.03,.51-.05,.72-.1,2.27,.03,0,.13-.05,.31-.1l.95,1.07c-.26,.2-.36,.31-.74,.77q-.13,.13-.36,.46c-.1,.15-.15,.2-.31,.41l-.05,1.51s-.03,.15-.05,.46h.03Z"/><path class="cls-3" d="M315.88,36.76c2.33-.92,3.45-1.18,5.37-1.18,4.37,0,7.18,2.25,7.18,5.75,0,2.43-1.2,4.37-3.48,5.65-1.66,.95-3.83,1.46-6.19,1.46-2.15,0-3.94-.41-4.96-1.18-.97-.72-1.53-1.79-1.53-2.94,0-2.12,1.84-3.66,4.4-3.66,1.79,0,3.35,.74,4.42,2.1,.51,.64,.79,1.2,1.18,2.3,2.12-.79,3.04-1.89,3.04-3.71,0-1.99-1.97-3.3-5.06-3.3-3.73,0-7.46,1.51-10.53,4.29l-1.74-2.76c.89-.43,1.92-1.12,3.6-2.4,2.38-1.81,5.7-4.68,7.64-6.65l.46-.46-.03-.03c-.97,.13-2.61,.23-7.23,.43-.56,.03-.74,.05-1.23,.13l-.13-3.07c.87,.1,1.61,.15,3.02,.15,2.17,0,5.29-.13,7.77-.31,.89-.08,1.18-.13,1.58-.33l1.58,2.25c-.43,.23-.61,.38-1.33,1.05-1.28,1.18-3.14,2.84-4.01,3.58-.46,.38-2.3,1.76-2.81,2.1q-.64,.43-1.05,.67l.05,.05Zm.77,6.36c-.92,0-1.51,.46-1.51,1.18,0,1.02,1.15,1.61,3.04,1.61,.49,0,.61,0,1.33-.1-.46-1.76-1.43-2.68-2.86-2.68Z"/><path class="cls-3" d="M342.07,26.46q-.15,.49-.41,1.71c-.13,.61-.26,1.12-.54,2.25,1.76-.18,3.09-.41,4.09-.71l.08,2.94c-.28,.03-.33,.03-.82,.13-.92,.15-2.48,.33-4.06,.46-.74,2.56-1.66,4.98-2.81,7.41-.59,1.25-.82,1.71-1.79,3.5q-.33,.61-.49,.92l-2.94-1.64c.89-1.18,1.61-2.33,2.48-4.09,1-2.04,1.43-3.09,2.4-6.03-1.15,.03-1.3,.03-1.61,.03-.33,0-.49,0-1.02-.03l-1.35-.03v-2.91c.92,.18,1.89,.23,3.45,.23,.31,0,.74,0,1.3-.03,.43-1.81,.72-3.35,.77-4.45l3.27,.33Zm11.58,20.7c-.92-1.1-2.4-2.3-3.91-3.17,.03,.23,.05,.41,.05,.51,0,.95-.43,2.04-1.1,2.71-.89,.92-2.43,1.43-4.24,1.43-3.37,0-5.57-1.69-5.57-4.29s2.27-4.4,5.52-4.4c.77,0,1.3,.05,2.38,.23-.08-1.18-.13-2.17-.13-2.94,0-1,.05-1.74,.21-2.58l2.96,.15c-.25,.95-.31,1.53-.31,2.58s.05,2.04,.23,3.5c1.84,.82,2.1,.95,4.04,2.35,.38,.25,.49,.36,.89,.69q.21,.21,.38,.36l-1.41,2.86Zm-9.07-4.68c-1.66,0-2.73,.69-2.73,1.76s.92,1.66,2.5,1.66c1.74,0,2.58-.72,2.58-2.15,0-.26-.05-.87-.05-.87-.89-.31-1.51-.41-2.3-.41Zm9.2-7.08c-2.22-1.48-4.5-2.58-7.36-3.58l1.53-2.48c3.02,1.15,4.93,2.04,7.21,3.42l-1.38,2.63Z"/><path class="cls-3" d="M364.46,31.47c-.38,1.41-.82,3.78-1.15,6.29q-.05,.36-.13,.74l.05,.05c1.48-1.43,4.65-2.43,7.74-2.43,4.34,0,7.21,2.15,7.21,5.42,0,1.87-1,3.76-2.63,4.93-1.66,1.2-3.78,1.74-6.75,1.74-2.2,0-3.6-.18-6.52-.89-.03-1.58-.08-2.1-.38-3.3,2.5,.87,4.7,1.28,6.88,1.28,3.6,0,6.11-1.51,6.11-3.68,0-1.71-1.61-2.74-4.32-2.74-2.27,0-4.65,.69-6.36,1.87-.46,.33-.61,.49-1.15,1.1l-3.22-.1c.08-.46,.08-.56,.2-1.53,.21-1.58,.61-4.42,1.07-7.44,.1-.61,.13-.92,.15-1.48l3.19,.18Zm.33-5.01c1.76,.97,6.65,2.43,9.53,2.84l-1.05,2.94c-4.37-1-7.05-1.84-9.97-3.2l1.48-2.58Z"/></g></g></g></svg>