<?xml version="1.0" encoding="UTF-8"?>
<svg id="Layer_2" data-name="Layer 2" xmlns="http://www.w3.org/2000/svg" viewBox="0 0 403.56 69.85">
  <defs>
    <style>
      .cls-1 {
        fill: #d95d44;
      }

      .cls-1, .cls-2, .cls-3, .cls-4, .cls-5, .cls-6, .cls-7, .cls-8, .cls-9, .cls-10, .cls-11, .cls-12, .cls-13 {
        stroke-width: 0px;
      }

      .cls-2 {
        fill: #b1dfff;
      }

      .cls-3 {
        fill: #cef;
      }

      .cls-4 {
        fill: #ffae22;
      }

      .cls-5 {
        fill: #fff;
      }

      .cls-6 {
        fill: #ffe198;
      }

      .cls-7 {
        fill: #fff1d9;
      }

      .cls-8 {
        fill: #f19114;
      }

      .cls-9 {
        fill: #fbf1f2;
      }

      .cls-10 {
        fill: #fbe7b5;
      }

      .cls-11 {
        fill: #ffd86e;
      }

      .cls-12 {
        fill: #ffc73e;
      }

      .cls-13 {
        fill: #eaf9ff;
      }
    </style>
  </defs>
  <g id="Layer_2-2" data-name="Layer 2">
    <g>
      <rect class="cls-1" x="18.56" y="12.77" width="385" height="52" rx="26" ry="26"/>
      <g>
        <g>
          <path class="cls-4" d="m36.85,64.7c-1.67-3.1-8.34-6.64-16.77-8.62s-15.98-1.78-18.85.25l-.76-.18-.41,1.76c-.8,3.42,6.86,8.14,17.12,10.55,10.26,2.41,19.22,1.59,20.02-1.83l.41-1.76-.76-.18h0Z"/>
          <ellipse class="cls-11" cx="19.04" cy="60.53" rx="6.36" ry="19.08" transform="translate(-44.24 65.22) rotate(-76.78)"/>
        </g>
        <g>
          <path class="cls-4" d="m36.33,62.3c-1.57-2.92-7.86-6.25-15.8-8.12-7.94-1.86-15.05-1.68-17.76.24l-.72-.17-.39,1.65c-.76,3.22,6.46,7.67,16.12,9.94s18.11,1.5,18.86-1.72l.39-1.65-.72-.17h.02Z"/>
          <ellipse class="cls-11" cx="19.54" cy="58.37" rx="5.99" ry="17.97" transform="translate(-41.75 64.04) rotate(-76.78)"/>
        </g>
        <g>
          <path class="cls-3" d="m33.04,47.52c-.56-5.21-3.27-9.26-4.99-11.36-.36-.21-.7-.4-1.01-.58-.36-.2-.53-.62-.44-1.02s.44-.69.85-.71c.06,0,.13,0,.19,0,1.83-1.35,5.76-4.6,9.26-9.7,2.68-3.91,3.52-10.89,3.74-16.23l-8.25-4.23-18.21.22c-4.43,18.86,4.98,26.56,9.21,28.99.36.2.53.62.44,1.02s-.44.69-.85.71c-4.83.29-15.87.16-20.38,18.6-.05.11-.09.23-.12.35-.75,3.17,6.37,7.56,15.89,9.79,2.34.55,4.6.92,6.7,1.11,2.1-2.38,8.67-10.42,7.97-16.96h0Z"/>
          <path class="cls-13" d="m36.89,24.14c-3.5,5.1-7.43,8.35-9.26,9.7,4.98-.35,16.59-3.23,20.96-21.85l-7.96-4.08c-.22,5.33-1.06,12.31-3.74,16.23Z"/>
          <path class="cls-13" d="m36.96,61.67c.03-.12.04-.24.05-.36,3.86-17.15-4.39-22.54-8.96-25.15,1.72,2.1,4.44,6.15,4.99,11.36.7,6.54-5.87,14.58-7.97,16.96,6.45.6,11.32-.42,11.88-2.81h0Z"/>
          <path class="cls-2" d="m19.27,20c.86,6.13,2.94,10.78,3.98,12.81-4.3-2.53-13.42-10.28-9.04-28.9l8.94-.11c-2.18,4.87-4.53,11.5-3.87,16.2h0Z"/>
          <path class="cls-2" d="m2.51,53.58c.03-.12.07-.23.12-.35,4.18-17.08,13.97-18.22,19.22-18.53-2.48,1.11-6.71,3.53-9.53,7.95-3.54,5.55-1.23,15.67-.42,18.74-6.04-2.33-9.95-5.41-9.39-7.81Z"/>
        </g>
        <g>
          <path class="cls-9" d="m28.42,33.23c2.61-.04,5.15-1.05,7.78-2.55,4.55-2.6,5.44-4.55,5.44-4.55,0,0-1.82-1.29-4.48-2.41-.09.14-.18.28-.27.42-3.06,4.46-6.44,7.49-8.47,9.09Z"/>
          <path class="cls-9" d="m36.21,62.22l.19.04.13-.46c.11-.18.18-.37.23-.57.03-.14.05-.29.05-.44l.29-1.03s.69-3.2-4.64-4.45c-.37-.09-.71-.19-1.03-.29-1.76,3.84-4.5,7.3-5.97,9.02,5.18.43,9.27-.22,10.75-1.81h0Z"/>
          <g>
            <path class="cls-11" d="m31.52,30.5c1.68-1.63,3.58-3.76,5.37-6.37.09-.14.18-.28.27-.42-2.01-.85-4.49-1.6-7.03-1.64-5.91-.09-7.82-1.84-11.03-2.21-3.2-.37-4.14,2.48-4.14,2.48,0,0,.13.32.39.84,1,.97,2.31,2.07,4,3.28,3.02,2.15,8.01,3.36,12.17,4.04Z"/>
            <path class="cls-12" d="m22.55,31.62c.32.18.63.34.94.49.48.6.91,1.27.81,1.63-.2.74-1.23,1.09-1.13,1.31.11.21.62,1.25,1.75,1.26s1.11-.31,1.25-1.15c.14-.85.71-1.81,1.27-1.81.27,0,.43-.06.51-.12h.46c.84-.66,1.91-1.57,3.1-2.73-4.16-.68-9.15-1.9-12.17-4.04-1.69-1.2-2.99-2.31-4-3.28.92,1.85,3.41,6.29,7.19,8.44h.02Z"/>
            <path class="cls-12" d="m3.89,50.33l-.54,1.79.09.1c-.3.31-.5.66-.59,1.04-.73,3.12,6.26,7.44,15.63,9.64,2.45.57,4.81.95,6.99,1.13.29-.34.63-.75,1-1.21-3.27-1-7.15-2.52-10.18-4.73-3.85-2.81-6.25-6.28-7.56-8.61-3.41-.13-4.84.85-4.84.85Z"/>
          </g>
        </g>
        <path class="cls-13" d="m32.2,4.5l15.46,7.92c-1.9,7.65-5.25,13.31-9.96,16.81-1.76,1.31-3.7,2.3-5.77,2.96-1.5.47-3.02.76-4.54.85-.77.05-1.41.58-1.59,1.34s.16,1.52.83,1.9c.16.09.34.19.52.29,2.15,1.22,5.4,3.06,7.6,6.7,1.21,2,1.98,4.35,2.29,7,.37,3.15.09,6.81-.82,10.86l-.02.07v.07c0,.08-.02.15-.03.22-.15.65-.86,1.1-1.43,1.37-.93.43-2.26.74-3.85.89-3.43.31-7.8-.1-12.32-1.16-4.52-1.06-8.62-2.64-11.55-4.45-1.36-.84-2.42-1.71-3.06-2.51-.71-.89-.76-1.51-.67-1.86.02-.07.04-.13.07-.21l.03-.06.02-.07c.99-4.04,2.37-7.43,4.1-10.09,1.45-2.23,3.19-3.99,5.17-5.24,3.59-2.28,7.32-2.48,9.79-2.62.21,0,.4-.02.59-.03.77-.05,1.41-.58,1.59-1.34s-.16-1.52-.83-1.9c-1.32-.76-2.56-1.69-3.69-2.78-1.56-1.51-2.85-3.26-3.85-5.22-2.66-5.24-3.14-11.79-1.43-19.49l17.37-.21m.19-.81l-18.21.22c-4.43,18.86,4.98,26.56,9.21,28.99.36.2.53.62.44,1.02h0c-.09.4-.44.69-.85.71-4.83.29-15.87.16-20.38,18.6-.05.11-.09.23-.12.35-.75,3.17,6.37,7.56,15.89,9.79,9.52,2.24,17.84,1.48,18.58-1.7.03-.12.04-.24.05-.36,4.16-18.52-5.78-23.32-9.97-25.73-.36-.2-.53-.62-.44-1.02h0c.09-.4.44-.69.85-.71,4.87-.29,16.72-3,21.15-21.86L32.39,3.69h.02Z"/>
        <g>
          <path class="cls-8" d="m29.64,15.4c-9.64-2.26-16.83-6.7-16.08-9.91l-.39,1.65c-.75,3.21,6.44,7.65,16.08,9.91,9.64,2.26,18.06,1.49,18.81-1.72l.39-1.65c-.75,3.21-9.18,3.98-18.81,1.72Z"/>
          <g>
            <path class="cls-10" d="m36.68,10.23c1.85-1.69,2.26-3.28,2.18-4.49-1.97-.75-4.16-1.43-6.49-1.98-9.64-2.26-18.06-1.49-18.81,1.72-.54,2.28,2.95,5.19,8.47,7.49,2.54.13,11.28.33,14.65-2.75h0Z"/>
            <path class="cls-7" d="m48.45,13.68c.57-2.43-3.43-5.57-9.59-7.94.09,1.21-.32,2.8-2.18,4.49-3.37,3.07-12.11,2.87-14.65,2.75,2.24.94,4.82,1.77,7.61,2.42,9.64,2.26,18.06,1.49,18.81-1.72Z"/>
          </g>
        </g>
        <g>
          <path class="cls-4" d="m30.02,13.77C19.77,11.36,12.1,6.63,12.91,3.21l-.41,1.76c-.8,3.42,6.86,8.14,17.12,10.55s19.22,1.59,20.02-1.83l.41-1.76c-.8,3.42-9.77,4.24-20.02,1.83h0Z"/>
          <g>
            <path class="cls-6" d="m50.05,11.94c.61-2.59-3.65-5.93-10.21-8.45.09,1.29-.35,2.98-2.32,4.77-3.58,3.27-12.89,3.06-15.59,2.92,2.39,1,5.13,1.88,8.1,2.58,10.26,2.41,19.22,1.59,20.02-1.83h0Z"/>
            <g>
              <path class="cls-11" d="m39.84,3.49c-1.93-.74-4.07-1.41-6.34-1.97-4.33-.34-12.1-.57-14.22,1.98-2.99,3.59,2.65,7.68,2.65,7.68,2.71.14,12.01.35,15.59-2.92,1.97-1.8,2.41-3.49,2.32-4.77Z"/>
              <path class="cls-12" d="m19.28,3.5c2.12-2.55,9.89-2.32,14.22-1.98-.19-.05-.38-.09-.57-.14C22.68-1.03,13.71-.21,12.91,3.21c-.57,2.43,3.14,5.52,9.02,7.97,0,0-5.64-4.1-2.65-7.68Z"/>
            </g>
          </g>
        </g>
        <path class="cls-11" d="m24.65,49.65c-.67-.52-1.06-1.31-1.1-2.15-.07-1.7-.09-4.17.23-5.93.54-2.95,2.23-5.79,2.23-5.79l-1.41-.33-1.06.13s.69.96.28,2.84c-.4,1.88-1.58,6.59-2.05,7.43-.32.59-1.19,2.23-2.66,1.87-.4-.1-.82-.16-1.24-.12-2.71.23-3.73,2.54-7.3,2.04-.68-.09-1.31-.15-1.88-.17,1.31,2.34,3.71,5.81,7.56,8.61,3.02,2.2,6.9,3.73,10.18,4.73,1.51-1.89,3.55-4.73,4.97-7.81-3.35-1.13-4.2-3.34-6.78-5.36h.03Z"/>
      </g>
      <g>
        <path class="cls-5" d="m51.29,35.28c-1.22,1.04-4.33,2.67-5.95,3.27l-.93-2.16c2.16-.62,4.64-1.84,6.33-3.13l.56,2.02Zm-6.84,12.95v-2.13h5.78c-.31-1.11-.84-2.53-1.42-3.82h-3.18v-2.09h7.73v-1.69c-.6.51-1.62.71-3.44.71l-.93-2.2h.33c2.42,0,2.51-.24,2.51-1.4v-4.62h-6.98v-2.09h9.26v6.33c0,1.33-.04,2.29-.47,2.91h1.84l-.76-1.75c2.44-.73,4.49-1.8,6.35-3.16l.47,2.02c-1.31,1.13-3.82,2.49-5.71,3.2v1.73h7.82v2.09h-3.22c-.33,1.38-.78,2.71-1.27,3.82h5.67v2.13h-20.39Zm4.02-13.8c-.93-.51-2.27-1.13-3.27-1.51l1.09-1.76c1.09.38,2.38.93,3.38,1.44l-1.2,1.82Zm2.78,7.84c.56,1.27,1.02,2.64,1.36,3.82h4.18c.53-1.27.98-2.58,1.27-3.82h-6.8Zm8.11-5.27h.53c2.2,0,2.22-.29,2.22-1.4v-4.6h-7.15v-2.11h9.44v6c0,3.35-.11,4.33-4.13,4.33l-.91-2.22Zm-.69-2.62c-1.02-.51-2.38-1.09-3.49-1.51l1.09-1.71c1.11.36,2.42.93,3.58,1.47l-1.18,1.75Z"/>
        <path class="cls-5" d="m85.72,36.5v-3.27h-15.09v3.29h-2.29v-5.35h3.71c-.44-.73-1.09-1.67-1.71-2.31l2.2-.89c.69.87,1.53,2.22,2.11,3.2h2.73c-.38-.76-.91-1.67-1.53-2.42l2.27-.84c.62.89,1.31,2.24,1.78,3.27h1.91c.87-.98,1.73-2.15,2.38-3.27l2.29,1c-.51.8-1.2,1.6-1.82,2.27h3.35v5.33h-2.29Zm-1.36,12.51v-.91h-12.4v.91h-2.29v-7.2h5.55c.22-.44.49-.98.69-1.44h-4.35v-5.73h13.2v5.73h-6.4c-.2.49-.42,1-.64,1.44h8.93v7.2h-2.29Zm.02-5.2h-12.42v2.29h12.4l.02-2.29Zm-1.91-7.31h-8.62v2.04h8.62v-2.04Z"/>
        <path class="cls-5" d="m111.25,48.48c-3.24-.78-6.09-2-8.38-4.13v4.64h-2.27v-4.6c-2.2,2.09-5.24,3.44-8.35,4.15l-1.13-2.13c2.82-.44,5.58-1.38,7.55-2.62h-6.62v-2.02h8.55v-1.4h-7.04v-1.87h7.04v-1.31h-7.8v-1.96h4.64c-.24-.62-.58-1.29-.91-1.91h-4.78v-2.07h2.67c-.38-.73-.91-1.56-1.44-2.18l2.09-.84c.53.73,1.27,2.04,1.71,3.02h1.33v-3.27h2.29v3.27h2.58v-3.27h2.29v3.27h1.53c.62-.93,1.22-2.13,1.56-3.07l2.15.71c-.33.73-.84,1.69-1.29,2.35h2.44v2.07h-4.75c-.22.62-.51,1.33-.8,1.91h4.53v1.96h-7.78v1.31h7v1.87h-7v1.4h8.55v2.02h-6.64c2.07,1.33,4.73,2.09,7.6,2.51l-1.13,2.18Zm-12.26-15.15c.29.6.6,1.33.82,1.91h3.91c.33-.64.6-1.31.8-1.91h-5.53Z"/>
        <path class="cls-5" d="m131.18,48.81v-1.51h-11.77v1.51h-2.4v-20.02h16.6v20.02h-2.42Zm0-17.64h-11.77v5.53h11.77v-5.53Zm0,7.89h-11.77v5.89h11.77v-5.89Z"/>
        <path class="cls-5" d="m155.95,43.72v-1.98h-5.93v7.26h-2.51v-7.26h-5.75v1.98h-2.33v-12.22h8.09v-3.51h2.51v3.51h8.26v12.22h-2.33Zm-8.44-9.89l-5.75-.02v5.62h5.75v-5.6Zm8.44,0h-5.93v5.6h5.93v-5.6Z"/>
        <path class="cls-5" d="m163.61,48.12c-.31-2.07-.42-4.22-.42-6.35,0-4.38.51-8.73,1.07-12.46l2.69.33c-.71,3.71-1.18,8.06-1.18,12.02,0,2.31.16,4.44.51,6.24l-2.67.22Zm17.84-1.53c-1.4.27-3.18.42-4.91.42-1.33,0-2.67-.09-3.75-.31-2-.4-4.04-1.8-4.04-3.91,0-.64.22-1.38.69-2.13l2.33.56c-.36.44-.58.91-.58,1.35,0,1.53,2.22,1.96,4.64,1.96,1.98,0,4.18-.29,5.64-.6l-.02,2.67Zm-1-12.53c-1.58-.33-3.64-.47-5.64-.47s-3.98.16-5.29.38v-2.47c1.62-.18,3.67-.31,5.8-.31,1.76,0,3.55.11,5.2.36l-.07,2.51Z"/>
        <path class="cls-5" d="m192.85,43.81c-2.38.82-5.07,1.62-7.55,2.22l-.51-2.35c.84-.13,1.91-.36,3.02-.62v-5.35h-2.42v-2.18h2.42v-4.24h-2.6v-2.2h7.49v2.2h-2.6v4.24h2.4v2.18h-2.4v4.75c1.04-.31,2-.64,2.75-.96v2.31Zm8.49,4.55c-1.35,0-1.87-.69-1.89-1.91v-5.04h-1.51c-.18,4-2.84,6.29-5.73,7.53l-1.69-1.89c3.02-.91,5-2.87,5.15-5.64h-2.18v-12.77h10.98v12.77h-2.73v4.11c0,.56.04.62.49.62h.53c.76,0,.87-.11.96-3.13l2.07,1.13c-.22,3.75-.82,4.22-2.71,4.22h-1.73Zm.84-17.66h-6.4v1.62h6.4v-1.62Zm0,3.4h-6.4v1.69h6.4v-1.69Zm0,3.47h-6.4v1.8h6.4v-1.8Z"/>
        <path class="cls-5" d="m208.87,48.34v-2.18h4.64c-.44-1.33-1.18-2.98-1.8-4.18l2.22-.98c.67,1.42,1.4,3.55,1.82,5.15h1.87v-5.24h-7.62v-2.16h7.62v-2.71h-4.98v-1.33c-1.16.6-2.38,1.11-3.55,1.49l-1.04-2.49c3.8-.96,7.04-3,9.58-5.64h2.31c2.44,2.42,5.78,4.47,9.75,5.55l-1.04,2.47c-1.11-.38-2.29-.89-3.44-1.47v1.42h-5.22v2.71h7.67v2.16h-7.67v5.24h1.91c.78-1.71,1.38-3.73,1.73-5.18l2.29,1c-.44,1.31-1.07,2.91-1.67,4.18h4.53v2.18h-19.91Zm14.88-14.49c-1.93-1.11-3.73-2.4-4.98-3.62-1.22,1.31-2.82,2.55-4.6,3.62h9.58Z"/>
        <path class="cls-5" d="m249.66,48.05c-1.96.31-4.07.42-6.11.42-3.67,0-6.95-1.09-6.95-4.09s4.13-4.89,6.29-5.82c-.16-1.11-.55-1.78-1.58-1.78-2.69,0-5.91,3.78-7.07,5.24l-2.07-1.53c2.31-2.09,4.4-4.96,5.84-7.49h-5.38v-2.16h6.33c.4-.87.71-1.67.93-2.33l2.71.42c-.27.64-.58,1.29-.89,1.89h7.11v2.16h-8.13c-.71,1.18-1.53,2.31-2.27,3.22,1.04-.71,2.09-1.31,3.4-1.31,1.73,0,2.84.87,3.27,2.8,2.29-.8,4.16-1.31,6.11-1.87l.96,2.36c-2.11.42-4.58,1.04-6.78,1.8.02.42.02.84.02,1.29,0,.8-.02,1.67-.07,2.58l-2.51.16c.07-.96.16-2.07.16-3.13-1.07.49-4.04,1.8-4.04,3.49s3.42,1.82,4.6,1.82c1.96,0,4.11-.25,6.22-.64l-.11,2.51Z"/>
        <path class="cls-5" d="m265.03,41.28h-9.42c.33-2.11.76-5.75.89-7.46h7.98v-2.82h-8.42v-2.29h10.71v7.4h-8.09c-.09.71-.24,2.07-.4,2.91h9.09v1.62c0,7.26-.8,8.29-9.66,8.31l-.75-2.42h1.44c5.93,0,6.62-.49,6.64-4.62v-.62Zm6.51,7.71v-21h2.36v21h-2.36Z"/>
        <path class="cls-5" d="m294.49,47.74c-1.78.31-3.91.56-5.87.56-3.87,0-8.73-.93-8.73-4.44s4.93-4.11,7.53-4.13c1.75,0,3.49.02,5.2.31-.73-.82-1.49-1.71-2.18-2.62-2.96.33-5.91.51-8.89.51-.67,0-1.33,0-2-.02l-.29-2.22c.89.04,1.78.07,2.67.07,2.42,0,4.82-.16,7.22-.38-.49-.69-.96-1.4-1.44-2.11-2,.16-4,.24-6,.24-.62,0-1.27,0-1.89-.02l-.38-2.18c.8.04,1.6.04,2.42.04,1.53,0,3.09-.04,4.64-.16-.42-.73-.84-1.49-1.24-2.24l2.36-.58c.38.8.84,1.69,1.38,2.6,2.2-.22,4.33-.53,6.29-.91l.29,2.22c-1.82.31-3.67.56-5.44.76.45.67.91,1.35,1.4,2.04,1.75-.22,3.51-.51,5.2-.84l.38,2.2c-1.44.27-2.89.49-4.31.69,1.18,1.49,1.82,2.31,3.62,4.07l-1.6,1.8c-1.02-.62-2.75-1.29-6.89-1.29-1.31,0-5.51,0-5.51,2.02,0,1.8,3.49,2.24,5.09,2.24,2.47,0,4.87-.31,7.24-.82l-.27,2.6Z"/>
        <path class="cls-5" d="m318.13,48.99v-1.4h-14.24v1.4h-2.27v-9.62h2.27v5.95h5.98v-7.46h-7.51v-8.06h2.29v5.78h5.22v-7.58h2.29v7.58h5.18v-5.78h2.29v8.06h-7.46v7.46h5.98v-5.95h2.27v9.64l-2.27-.02Z"/>
        <path class="cls-5" d="m327.77,46.45c5.55-.67,7.29-2.51,7.86-4.11-.75.75-1.73,1.09-2.78,1.09-2.53,0-4.4-1.49-4.4-3.87,0-2.62,2.31-4.24,4.78-4.27.64,0,1.24.04,1.84.29,0-.33-.02-1.67-.04-2l-10.42.02v-2.24l10.38-.02c-.02-1.02-.04-1.96-.09-2.78h2.53c0,.84.02,1.78.02,2.75h7.15v2.24l-7.11.02c0,1.16,0,2.8-.02,3.82.58.98.73,2.13.73,3.33,0,4.13-2.8,7.02-8.64,8l-1.8-2.29Zm7.46-8.26c-.51-.62-1.29-.96-2.22-.96-1.24,0-2.24.93-2.24,2.18,0,1,.69,1.91,2.04,1.91,1.93,0,2.42-1.38,2.42-2.84v-.29Z"/>
        <path class="cls-5" d="m347.19,43.77c2.29-3.2,4.11-6.87,5.44-10.15h-4.53l.02-2.24h5.18c.4-1.07.69-2.09.96-2.98l2.58.36c-.27.82-.56,1.71-.89,2.62h3.18v2.24h-3.87c-1.49,3.62-3.42,7.62-5.73,11.11l-2.33-.96Zm18.86,3.84c-1.2-1.18-2.38-2.22-3.6-3-.36,2.78-2.38,3.75-4.96,3.75-2.93,0-4.91-1.53-4.91-3.67,0-2.71,3-3.73,5.13-3.73.8,0,1.55.09,2.33.27-.04-1.69-.18-3.64-.25-5.35h2.53c.07,2,.13,4.13.16,6.2,1.62.75,3.2,1.82,4.67,3.09l-1.11,2.44Zm-8.2-4.53c-.73,0-3,.13-3,1.51,0,.96,1.22,1.55,2.64,1.55,1.96,0,2.53-.89,2.6-2.69-.73-.24-1.47-.38-2.24-.38Zm9.22-8.22c-1.47-.44-3.31-.73-4.91-.73-.67,0-1.29.07-1.82.18l-.2-2.29c.71-.11,1.64-.18,2.62-.18,1.6,0,3.38.16,4.73.56l-.42,2.47Z"/>
        <path class="cls-5" d="m371.98,45.19c1.98.4,4.35.58,6.26.58,3,0,7.51-.89,7.51-4.04,0-2-2.27-2.69-4.35-2.69-4.07,0-7.02,2.2-8.33,3.31l-2.09-.53c.22-2.69.67-6.07,1-8.69l2.53.29c-.33,1.89-.73,4.22-.91,5.78,1.2-.73,4.2-2.44,7.95-2.44,3.27,0,6.84,1.33,6.84,5.18,0,4.38-4.78,6.26-10.02,6.26-1.73,0-3.8-.07-5.64-.36l-.75-2.64Zm11.51-12.6c-3.22-.87-7.13-1.07-10.35-1.07l.76-2.33c3.44,0,6.91.13,10.26.93l-.67,2.47Z"/>
      </g>
    </g>
  </g>
</svg>