<?xml version="1.0" encoding="UTF-8"?><svg id="Layer_2" xmlns="http://www.w3.org/2000/svg" viewBox="0 0 886 886"><defs><style>.cls-1{fill:#f6c23d;}.cls-2{fill:#f0a63b;}.cls-2,.cls-3,.cls-4{opacity:.2;}.cls-3{fill:#f7931e;}</style></defs><g id="Layer_1-2"><g><g class="cls-4"><path class="cls-1" d="M443,741c-79.6,0-154.43-31-210.72-87.28-56.28-56.28-87.28-131.12-87.28-210.72s31-154.43,87.28-210.72c56.28-56.29,131.12-87.28,210.72-87.28s154.43,31,210.72,87.28c56.28,56.28,87.28,131.12,87.28,210.72s-31,154.43-87.28,210.72c-56.28,56.29-131.12,87.28-210.72,87.28Zm0-566c-71.59,0-138.89,27.88-189.5,78.5-50.62,50.62-78.5,117.92-78.5,189.5s27.88,138.89,78.5,189.5c50.62,50.62,117.92,78.5,189.5,78.5s138.89-27.88,189.5-78.5c50.62-50.62,78.5-117.92,78.5-189.5s-27.88-138.89-78.5-189.5c-50.62-50.62-117.92-78.5-189.5-78.5Z"/></g><path class="cls-3" d="M460.41,412.07v-93.94c0-7.73-6.27-14-14-14s-14,6.27-14,14v90.98c-14.44,4.5-24.91,17.98-24.91,33.89,0,4.28,.76,8.39,2.15,12.19l-84.55,48.81c-6.7,3.87-8.99,12.43-5.12,19.12,3.87,6.7,12.43,8.99,19.12,5.12l90.63-52.32c4.1,1.66,8.58,2.57,13.27,2.57,19.61,0,35.5-15.89,35.5-35.5,0-13.28-7.29-24.84-18.09-30.93Z"/><path class="cls-2" d="M802.45,184l-22.52,20.04c17.3,24.33,31.89,50.47,43.62,78.21,21.53,50.91,32.45,104.99,32.45,160.75s-10.92,109.85-32.45,160.75c-20.8,49.18-50.58,93.35-88.52,131.28s-82.1,67.71-131.28,88.52c-50.91,21.53-104.99,32.45-160.75,32.45s-109.85-10.92-160.75-32.45c-49.18-20.8-93.35-50.58-131.28-88.52s-67.71-82.1-88.52-131.28c-21.53-50.91-32.45-104.99-32.45-160.75s10.92-109.85,32.45-160.75c20.8-49.18,50.58-93.35,88.52-131.28s82.1-67.71,131.28-88.52c50.91-21.53,104.99-32.45,160.75-32.45s109.85,10.92,160.75,32.45c35.72,15.11,68.77,34.97,98.74,59.24l22.71-20.2c-33.14-27.46-69.91-49.81-109.76-66.66C560.82,11.71,502.8,0,443,0s-117.82,11.71-172.44,34.82c-52.75,22.31-100.13,54.25-140.81,94.93-40.68,40.68-72.62,88.05-94.93,140.81C11.71,325.18,0,383.2,0,443s11.71,117.82,34.82,172.44c22.31,52.75,54.25,100.13,94.93,140.81,40.68,40.68,88.05,72.62,140.81,94.93,54.62,23.1,112.64,34.82,172.44,34.82s117.82-11.71,172.44-34.82c52.75-22.31,100.13-54.25,140.81-94.93,40.68-40.68,72.62-88.05,94.93-140.81,23.1-54.62,34.82-112.64,34.82-172.44s-11.71-117.82-34.82-172.44c-13.02-30.78-29.33-59.7-48.73-86.56Z"/></g></g></svg>