<?xml version="1.0" encoding="UTF-8"?><svg id="Layer_2" xmlns="http://www.w3.org/2000/svg" viewBox="0 0 1283.64 349.31"><defs><style>.cls-1{fill:#fff;}.cls-2{fill:#232323;}.cls-3{fill:#0e95cc;}</style></defs><g id="Layer_1-2"><g><path d="M1127.16,77.49c.61-2.3,.79-3.33,1.1-5.16q.37-2.17,1.07-8.86l3.85-35.08c.55-4.43,.85-9.26,1.22-14.49h24.79c-.71,2.45-2.54,9.96-3.58,14.49l-7.76,35.08c-.98,4.76-1.46,7.04-1.73,8.75-.18,1.14-.38,2.4-.73,5.27h-18.25Zm-7.17,30.07l3.82-22.22h22.33l-3.53,22.22h-22.63Z"/><g><path d="M163.64,39.34c1.37,.21,1.91,.21,3.49,.21,8.55,0,17.5-.89,20.85-2.12l5.81,10.39c-3.08,1.78-5.74,4.1-8.68,7.45-5.4,6.22-8.14,12.51-8.14,18.53,0,6.63,3.76,10.8,9.78,10.8,4.72,0,8.89-2.94,10.87-7.66,1.78-4.31,2.53-9.03,2.53-15.86,0-7.32-1.16-14.36-3.21-19.21l11.56-3.21c2.6,9.85,9.98,20.65,17.71,25.85l-5.74,11.35-1.57-1.57c-3.49-3.49-6.22-7.04-8.62-11.35,.34,2.94,.41,4.31,.41,6.36,0,7.45-1.71,13.4-5.13,18.19-4.17,5.81-10.94,9.09-18.53,9.09-4.99,0-9.85-1.3-13.26-3.62-5.47-3.69-8.89-10.87-8.89-18.67,0-7.04,2.67-14.29,7.52-20.65,1.16-1.44,2.05-2.46,4.1-4.58-3.15,.62-4.51,.82-8.89,1.23-2.6,.21-2.67,.21-3.69,.41l-.27-11.35Z"/><path d="M260.32,35.17c.27,4.51,1.85,12.72,3.9,20.24,3.08-1.09,5.06-1.78,7.86-2.53q6.5-1.91,8.96-2.67c1.57-.48,1.85-.55,2.8-1.03l3.9,12.17c-6.77,1.03-16.34,3.56-24.48,6.36-8.75,3.08-13.26,6.7-13.26,10.74s4.1,6.02,13.61,6.02c6.22,0,13.81-.82,20.03-2.19,1.03-.21,1.71-.41,3.62-1.03l.89,12.99c-1.71,.07-2.46,.14-5.95,.55-7.59,.82-12.24,1.16-17.23,1.16-9.85,0-16.75-1.44-21.26-4.31-3.9-2.53-6.29-7.45-6.29-12.85s2.6-10.53,7.04-14.08c2.39-1.92,4.38-3.08,8.55-5.2-1.64-5.95-1.98-7.59-4.03-17.98-.68-3.14-.75-3.55-1.09-4.51l12.44-1.85Z"/><path d="M322.34,37.97c.07,3.35,.62,6.77,1.44,10.12,3.62-1.37,7.79-2.12,11.69-2.12h1.5c1.44-5.95,1.71-7.59,1.78-10.12l12.03,2.26c-.27,.62-.68,1.91-1.23,3.83-1.03,3.56-1.5,5.47-1.57,5.68,4.03,1.23,6.43,2.46,9.09,4.72,5.13,4.31,7.79,10.19,7.79,17.3,0,10.87-6.09,19.62-16.55,23.86-3.69,1.5-7.11,2.53-12.31,3.56-1.37-4.79-2.67-7.45-5.47-11.42,7.18-.62,12.65-2.19,16.07-4.51,4.24-2.94,6.29-7.04,6.29-12.44s-2.46-8.89-7.86-11.15c-3.69,10.73-7.18,17.98-11.56,23.86-5.67,7.66-10.87,11.14-16.68,11.14-8.27,0-13.88-7.11-13.88-17.57,0-8.68,3.83-16.34,11.01-21.81-.82-3.28-1.23-4.99-1.98-8.75-.48-2.32-.62-2.74-1.23-4.17l11.62-2.26Zm-8.82,36.24c0,4.17,1.5,6.77,3.83,6.77,1.37,0,2.8-.96,4.24-2.87-2.12-4.58-3.28-7.86-4.72-13.26-2.05,2.53-3.35,6.15-3.35,9.37Zm15.45-5.95c2.46-4.72,3.62-7.52,5.06-12.1-3.49,.14-5.61,.62-8.27,1.91,.96,3.97,1.78,6.43,3.21,10.19Z"/><path d="M375.14,57.02c.82,.05,1.45,.05,1.84,.05,1.26,0,3-.1,8.27-.44,6.97-.44,11.66-.68,20.85-1.02l4.98-.19,2.03-.1c1.64-.05,1.93-.1,2.18-.1,.34,0,.53-.05,1.11-.19l.44,8.76c-.68-.1-.87-.1-1.35-.1-3.39,0-7.74,1.31-11.08,3.39-4.84,2.95-7.69,7.01-7.69,10.98,0,2.81,1.31,4.69,4.06,6,1.93,.97,6.19,1.74,9.24,1.74,.39,0,.73,0,1.45-.05l-1.11,9.19c-.68-.15-.82-.15-1.79-.24-5.51-.48-9.14-1.31-12.24-2.71-5.71-2.66-8.66-7.11-8.66-13.25,0-4.01,1.35-7.64,4.11-10.93,1.26-1.55,2.42-2.52,4.74-4.11l-2.27,.24c-1.06,.1-2.76,.24-11.8,.97-4.5,.48-4.74,.48-6.82,.92l-.48-8.8Zm34.29,11.03c1.93,2.23,3.39,4.35,4.69,7.01l-4.64,2.13c-1.5-3.05-2.76-4.93-4.69-7.16l4.64-1.98Zm6.48-2.81c1.74,1.94,3.1,3.82,4.74,6.82l-4.5,2.08c-1.74-3.24-2.95-5.08-4.6-6.96l4.35-1.94Z"/></g><polygon class="cls-3" points="623.29 158 475.29 133 475.22 0 623.29 0 623.29 158"/><polygon class="cls-3" points="778.29 158 630.29 133 630.22 0 778.29 0 778.29 158"/><polygon class="cls-3" points="932.29 158 784.29 133 784.22 0 932.29 0 932.29 158"/><polygon class="cls-3" points="1086.29 158 938.29 133 938.22 0 1086.29 0 1086.29 158"/><path class="cls-1" d="M532.82,44.13c4.95,0,8.22-.11,10.58-.34-.34,2.7-.34,4.95-.34,9.23v13.06c0,4.28,0,6.64,.34,9.34-3.15-.22-6.64-.34-11.59-.34h-18.12v34.56c0,6.98,.11,10.24,.56,13.06h-12.94c.45-3.26,.68-6.87,.68-13.85V56.52c0-3.26-.11-5.07-.23-8.33-2.25-3.49-4.39-5.85-7.2-8.22,5.63-4.17,7.77-6.3,10.92-10.58,3.15-4.17,4.84-7.2,6.42-11.93l11.71,2.93c-1.13,2.25-1.46,2.81-2.59,4.95h14.52c5.4,0,8.22-.11,11.03-.56v9.23c4.05-5.18,6.53-10.24,8.1-16.43l11.93,2.36q-.9,1.91-2.7,5.52h21.27c5.85,0,9-.23,12.38-.68v11.14c-3.49-.45-6.75-.56-11.82-.56h-7.77c1.46,2.03,2.36,3.26,3.94,5.97l-7.2,2.81h7.65c5.4,0,8.78-.11,11.59-.45-.34,3.6-.45,7.43-.45,12.83v54.26c0,4.95-1.46,8.1-4.28,9.57-2.25,1.13-5.63,1.58-12.72,1.58-2.14,0-3.71,0-6.98-.11-.45-3.83-.79-5.97-1.8-8.67-2.48-.11-5.07-.22-8.89-.22h-22.62v4.5h-11.48c.23-3.04,.45-5.63,.45-9.91v-19.02c0-4.28-.11-6.98-.45-10.02,2.81,.22,5.74,.34,10.47,.34h23.64c5.07,0,7.77-.11,10.69-.34-.23,2.81-.34,5.74-.34,10.02v14.97c0,2.93,0,3.94,.11,7.09,2.93,.23,6.64,.45,8.44,.45,3.26,0,4.05-.45,4.05-2.81v-33.09h-19.47c-4.95,0-8.56,.11-11.71,.34,.34-2.81,.45-5.4,.45-9.34v-13.06c0-3.83-.11-6.42-.45-9.23l.79,.11c-2.25-2.25-4.95-4.17-8.44-6.08,1.13-1.13,1.58-1.58,2.25-2.25-1.91-.22-4.62-.34-7.32-.34h-6.53c.9,1.46,2.14,3.49,3.71,6.08l-7.2,2.81h4.95Zm-8.1,0c-1.01-2.36-2.59-5.74-4.39-8.89h-5.52c-2.48,3.38-4.5,5.63-7.65,8.78,2.14,.11,3.38,.11,5.52,.11h12.04Zm-11.03,12.16h18.46v-4.28h-18.46v4.28Zm0,10.92h18.46v-4.28h-18.46v4.28Zm22.51,24.65h21.95v-4.73h-21.95v4.73Zm0,12.38h21.95v-4.61h-21.95v4.61Zm35.23-60.11c-2.03-3.83-3.04-5.52-5.18-8.78h-7.77c-2.7,4.05-3.83,5.63-6.42,8.55,3.04,.23,5.07,.23,9.12,.23h10.24Zm-9.23,12.16h19.59v-4.28h-19.59v4.28Zm0,10.92h19.59v-4.28h-19.59v4.28Z"/><path class="cls-1" d="M675.13,85.31c-5.07,0-8.11,.11-11.93,.34,.34-3.6,.45-6.42,.45-11.26v-23.75c0-5.63-.11-8.67-.45-11.93,2.81,.34,5.18,.45,10.36,.45-2.93-5.74-5.18-9.23-10.02-14.75l11.14-4.73c5.18,6.08,7.43,9.34,11.14,15.87l-8.55,3.6h42.66c5.29-7.54,8.55-13.28,11.03-20.04l13.17,4.17c-4.84,7.77-7.54,11.82-10.69,15.87,6.08,0,8.89-.11,11.93-.45-.34,3.04-.45,6.08-.45,11.93v23.41c0,5.4,.11,8.55,.45,11.59-3.94-.22-7.32-.34-11.93-.34h-23.64v7.32h32.87c5.74,0,8.89-.11,12.27-.56v12.49c-3.26-.45-7.88-.68-13.51-.68h-31.63v7.32c0,5.63,.11,7.88,.79,11.37h-13.84c.56-3.26,.67-5.74,.67-11.37v-7.32h-30.5c-5.74,0-9.91,.23-13.39,.68v-12.49c3.49,.45,6.87,.56,12.38,.56h31.52v-7.32h-22.29Zm22.29-36.02h-21.72v7.65h21.72v-7.65Zm0,17.11h-21.72v8.67h21.72v-8.67Zm3.6-27.92c-2.36-6.75-4.05-10.02-8.78-17.45l11.59-3.26c4.39,6.53,5.74,9.01,9.12,16.66l-11.93,4.05Zm31.86,18.46v-7.65h-23.08v7.65h23.08Zm0,18.12v-8.67h-23.08v8.67h23.08Z"/><path class="cls-1" d="M827.51,102.95c10.58-3.04,16.1-4.84,26.11-8.33l.11,11.93c-8.78,3.38-14.52,5.4-28.14,9.68q-3.71,1.13-11.93,3.38-1.46,.45-2.36,.67c-2.7,.79-4.73,1.46-6.19,2.14l-2.7-13.96c4.05-.34,6.75-.79,12.38-2.14V33.95c0-5.85-.23-8.89-.68-12.61h14.07c-.56,3.6-.68,6.53-.68,12.61v18.8h15.53c5.4,0,7.77-.11,10.81-.68v13.28c-2.93-.56-5.52-.68-10.81-.68h-15.53v38.27Zm43,3.38c0,2.48,1.46,2.93,9.57,2.93s10.58-.45,11.71-2.03c1.58-2.14,2.25-8.67,2.36-22.63,4.5,2.48,7.09,3.6,11.93,4.95-.79,16.77-2.03,23.19-5.29,26.79-3.15,3.49-7.99,4.5-21.39,4.5-10.58,0-14.3-.45-17.22-2.03-3.04-1.58-4.17-4.28-4.17-9.34V34.18c0-6.3-.23-9.34-.68-12.72h13.85c-.56,3.71-.68,6.64-.68,12.72v24.54c13.06-7.54,21.73-14.3,26.45-20.6l8.78,10.36q-1.69,1.24-4.05,3.15c-9.12,7.32-18.8,13.62-31.18,20.26v34.44Z"/><path class="cls-1" d="M1043.59,45.08c5.52,10.24,9.68,15.31,18.46,22.51q-4.95,5.63-7.65,9.79c-2.93-2.7-3.94-3.83-5.97-5.85-2.36,8.67-6.42,18.24-10.81,25.55,6.87,7.77,13.28,12.16,24.43,17-3.15,4.5-4.28,6.53-6.53,11.82-12.61-7.32-18.12-11.59-24.88-19.47-7.77,8.78-14.75,14.07-25.21,19.47-2.81-5.18-3.94-6.75-7.54-10.36,11.26-4.84,18.46-9.91,25.78-18.24-3.94-6.19-6.75-11.93-11.14-23.19-1.35,1.46-1.91,2.03-3.71,3.83-2.14-2.7-3.04-3.6-5.63-6.08v7.88c0,5.52,.11,9,.34,12.16-2.48-.22-4.39-.34-9.91-.34h-5.85v7.2h8.44c4.28,0,6.08-.11,9.23-.56v11.71c-3.26-.45-5.06-.56-9.23-.56h-8.44v6.53c0,3.6,.23,6.53,.68,9.91h-12.38c.56-3.6,.79-6.42,.79-10.36v-6.08h-9.23c-5.07,0-7.09,.11-10.36,.56v-11.71c2.93,.45,5.07,.56,10.36,.56h9.23v-7.2h-5.06c-5.07,0-7.32,.11-11.37,.34,.34-3.49,.45-7.43,.45-12.61v-19.36c0-5.18-.11-8.44-.45-11.71,3.71,.23,5.97,.34,11.14,.34h5.29v-5.97h-8.67c-4.73,0-7.32,.11-10.36,.45v-11.37c3.15,.45,5.18,.56,10.36,.56h8.67v-1.35c0-3.49-.23-6.08-.79-9.23h12.38c-.45,2.81-.68,5.63-.68,9.23v1.35h6.08c5.18,0,7.09-.11,10.24-.56v11.37c-3.04-.34-4.84-.45-10.24-.45h-6.08v5.97h6.3c5.4,0,7.09-.11,9.46-.34-.23,2.36-.34,4.95-.34,10.92v8.1c7.09-6.87,11.14-12.83,14.86-22.06l10.13,4.73c-4.17,8.78-7.2,13.85-12.83,20.82l7.32-3.04c1.13,6.08,3.94,13.28,7.99,19.7,3.26-6.19,5.63-13.06,6.87-20.49l10.36,4.05c-5.63-6.3-9.23-11.59-13.85-21.05l9.57-4.84Zm-73.28,12.61v7.88h6.87v-7.88h-6.87Zm0,16.77v7.99h6.87v-7.99h-6.87Zm23.86-8.89v-7.88h-6.87v7.88h6.87Zm0,16.88v-7.99h-6.87v7.99h6.87Zm30.84-52.46c0-3.6-.11-5.85-.56-8.44h13.28c-.45,2.25-.56,4.62-.56,8.22v3.83h11.48c4.95,0,7.99-.11,11.37-.56v12.16c-3.49-.34-7.32-.56-11.48-.56h-30.96c-4.62,0-7.88,.11-11.14,.56v-12.27c3.15,.56,6.08,.68,11.14,.68h7.43v-3.6Z"/><rect class="cls-2" x="-1.21" y="184.53" width="309" height="5" transform="translate(28.1 -19.86) rotate(8.16)"/><rect class="cls-2" x="-1.21" y="319.53" width="309" height="5" transform="translate(-49.73 28.8) rotate(-9.24)"/><g><g><path class="cls-3" d="M369.6,304.63c-4.92-7.77-8.19-11.59-14.56-17.04l-2.24-1.92,2.61-1.37c15.08-7.94,23.5-15.75,29.05-26.96,2.59-5.28,3.81-9.16,5.17-16.78h-12.01c-7.51,0-9.95,.11-15.32,.68l-2.2,.23-.14-24.19,2.29,.32c5.65,.79,7.56,.9,15.71,.9h14.01c.27-4.28,.44-9.71,.44-12.72,0-2.39,0-3.19-.33-5.47l-.33-2.35,26.41,.7-.51,2.36c-.51,2.37-.54,2.73-1.12,12.04l-.1,1.58c-.07,1.99-.1,2.72-.17,3.74h22.91c3.7,0,4.8-.24,6.95-1.12l1.14-.47,11.12,9.69-.78,1.41c-1.05,1.91-1.25,2.43-1.36,7.59-.83,25.46-2.62,44.39-4.92,51.96-3.59,11.52-9.97,15.8-23.54,15.8-4.66,0-6.58-.14-15.25-.93l-1.73-.16-.09-1.73c-.46-9.26-1.31-12.86-3.79-19.66l-1.31-3.58,3.69,.96c5.31,1.38,10.84,2.24,14.45,2.24s4.9,0,6.42-10.14c1.09-7.32,2.03-20.45,2.15-29.8h-18.19c-.72,5.94-.79,6.25-1.54,9.91-5.19,23.82-16.46,39.2-40.2,54.87l-1.7,1.12-1.09-1.72Z"/><path class="cls-1" d="M394.07,200.03l21.63,.58c-.58,2.65-.58,2.99-1.27,13.92q-.11,3.11-.34,5.87h25.08c3.8,0,5.18-.23,7.71-1.26l8.97,7.82c-1.27,2.3-1.5,3.22-1.61,8.51-.81,24.62-2.53,43.83-4.83,51.42-3.34,10.7-8.86,14.38-21.63,14.38-4.49,0-6.21-.12-15.07-.92-.46-9.2-1.27-13-3.91-20.25,5.75,1.5,11.39,2.3,14.95,2.3,5.52,0,6.9-1.84,8.4-11.85,1.15-7.71,2.19-22.2,2.19-32.09h-21.97q-.92,7.59-1.73,11.5c-5.06,23.24-15.99,38.19-39.34,53.61-5.18-8.17-8.63-12.08-14.95-17.49,15.3-8.05,24.16-16.22,29.91-27.84,2.88-5.87,4.14-10.01,5.75-19.67h-14.38c-7.71,0-10.12,.12-15.53,.69l-.11-19.67c5.75,.8,7.82,.92,15.99,.92h15.88c.35-4.49,.58-11.16,.58-14.72,0-2.42,0-3.34-.35-5.75m-4.63-4.12l.67,4.69c.3,2.13,.3,2.84,.3,5.19,0,2.55-.13,6.88-.33,10.72h-12.12c-8.03,0-9.9-.11-15.44-.88l-4.58-.64,.03,4.63,.11,19.67,.03,4.42,4.4-.47c5.34-.57,7.6-.67,15.11-.67h9.6c-1.26,6.4-2.45,9.59-4.56,13.91-5.34,10.78-13.5,18.33-28.18,26.06l-5.22,2.75,4.48,3.83c6.2,5.3,9.38,9.02,14.17,16.59l2.18,3.44,3.4-2.24c13.85-9.14,23.54-18.2,30.3-28.83l1.24,3.4c2.44,6.69,3.22,10,3.67,19.07l.17,3.47,3.46,.31c8.75,.8,10.69,.94,15.43,.94,14.45,0,21.59-4.82,25.45-17.19,3.21-10.61,4.52-37.43,5.01-52.48,.11-4.88,.26-5.16,1.12-6.72l1.55-2.82-2.43-2.12-8.97-7.82-1.86-1.62-2.28,.93c-1.92,.78-2.72,.97-6.19,.97h-20.8c.02-.45,.04-.99,.06-1.67l.1-1.53c.59-9.35,.61-9.57,1.08-11.74l1.03-4.72-4.83-.13-21.63-.58-4.74-.13h0Zm26.46,46.55h14.38c-.22,9.06-1.09,20.77-2.09,27.5-.27,1.78-.98,6.52-1.99,7.94-.13,.19-.35,.5-2.45,.5-3.4,0-8.87-.85-13.95-2.17l-4.23-1.1c4.1-7.2,6.98-15.15,8.97-24.32,.69-3.36,.83-4.07,1.36-8.35h0Z"/></g><g><path class="cls-3" d="M579.99,264.6c-5.58-.58-10.76-.68-23.49-.68h-54.76c-12.78,0-16.52,.11-23.53,.68l-2.16,.18v-26.69l2.29,.34c5.08,.76,10.96,1.01,23.29,1.01h54.99c11.7,0,15.9-.24,23.37-1.02l2.21-.23v26.64l-2.21-.23Z"/><path class="cls-1" d="M580.2,240.41v22.2c-5.52-.58-10.58-.69-23.7-.69h-54.76c-12.88,0-16.68,.12-23.7,.69v-22.2c5.41,.81,11.62,1.04,23.58,1.04h54.99c11.5,0,15.88-.23,23.58-1.04m-106.15-4.64v31.18l4.33-.35c6.95-.57,10.66-.68,23.37-.68h54.76c13.55,0,18.12,.13,23.28,.67l4.41,.46v-31.08l-4.42,.46c-7.39,.77-11.55,1.01-23.17,1.01h-54.99c-12.22,0-18.02-.25-22.99-.99l-4.59-.68h0Z"/></g><g><path class="cls-3" d="M609.76,304.18l.21-2.19c.44-4.64,.56-7.74,.68-17.44v-67.22c-.11-9.55-.12-10.12-.79-16.17l-.25-2.22h26.77l-.35,2.3c-.42,2.73-.44,4.63-.54,15.15v1.36s-.01,14.29-.01,14.29c18.13,5.97,35.87,14.14,51.39,23.67l1.64,1-12.95,23.18-1.82-1.29c-9.47-6.73-22.54-13.95-35.88-19.82,0,0-2.15-.86-2.37-.95v26.72c0,10.71,.36,15.32,.67,17.3l.35,2.3h-26.73Zm52.88-74.12c-3.56-6.8-6.37-10.94-11.13-16.41l-1.76-2.03,14.72-6.66,.98,1.1c4.6,5.19,8.42,10.7,11.66,16.84l.97,1.83-14.54,7.04-.9-1.72Zm15.78-7.43c-3.83-6.9-6.92-11.41-11.03-16.1l-1.77-2.02,14.11-6.43,.98,1.06c4.52,4.89,7.82,9.47,11.77,16.35l1.06,1.85-14.21,6.95-.92-1.66Z"/><path class="cls-1" d="M679.25,200.49c4.26,4.6,7.48,8.97,11.5,15.99l-10.58,5.18c-4.03-7.25-7.25-11.85-11.27-16.45l10.35-4.72m-45.21,.46h0m0,0c-.46,2.99-.46,4.83-.58,16.79v15.76c18.18,5.87,36.24,14.04,52.34,23.93l-10.93,19.56c-9.55-6.79-22.89-14.15-36.24-20.02-3.45-1.38-3.8-1.5-4.14-1.73-.34-.12-.58-.23-1.04-.58v29.91c0,8.51,.23,14.61,.69,17.6h-22.2c.46-4.83,.58-8.17,.69-17.6v-66.95c-.12-9.89-.12-10.47-.81-16.68h22.2m29.91,6.44c4.49,5.06,8.17,10.35,11.39,16.45l-10.93,5.29c-3.8-7.25-6.79-11.5-11.39-16.79l10.93-4.95m16.27-11.74l-2.63,1.2-10.35,4.72-2.21,1.01-.04-.04-2.69,1.22-10.93,4.95-4.89,2.22,3.53,4.05c4.64,5.34,7.38,9.38,10.86,16.03l1.8,3.43,3.49-1.69,10.93-5.29,1.36-.66,.07,.13,3.41-1.67,10.58-5.18,3.84-1.88-2.13-3.71c-4.03-7.02-7.4-11.71-12.04-16.71l-1.96-2.12h0Zm-41.52,1.3h-31.33l.49,4.44c.66,5.95,.67,6.51,.78,15.97v.31s0,66.9,0,66.9c-.12,9.58-.24,12.65-.67,17.22l-.42,4.38h31.26l-.71-4.61c-.29-1.91-.64-6.4-.64-16.99v-23.76c13.07,5.78,25.84,12.84,35.1,19.42l3.63,2.58,2.18-3.89,10.93-19.56,1.87-3.35-3.27-2.01c-15.26-9.37-32.64-17.44-50.43-23.41v-14.19c.11-10.64,.13-12.27,.53-14.86l.71-4.61h0Zm-4.66,0h0Zm0,8h0Z"/></g><g><path class="cls-3" d="M712.46,301.76l.24-2.22c.64-5.87,.91-9.75,.91-18.53v-59.13c0-5-.12-8.55-.45-13.08l-.17-2.34,2.34,.2c3.83,.33,6,.45,13.75,.45h62c7.09,0,8.77,0,14.09-.45l2.3-.2-.13,2.3c-.24,4.14-.34,8.29-.34,13.46v58.32c0,8.82,.23,14.24,.79,18.73l.28,2.25h-25.09v-7.71h-45.35v7.94h-25.17Zm70.52-30.34v-41.9h-45.35v41.9h45.35Z"/><path class="cls-1" d="M805.34,208.66h0m0,0c-.23,4.03-.35,8.17-.35,13.57v58.32c0,8.86,.23,14.38,.81,18.98h-20.82v-7.71h-49.35v7.94h-20.94c.69-6.33,.92-10.24,.92-18.75v-59.13c0-4.95-.12-8.51-.46-13.23,4.03,.35,6.33,.46,13.92,.46h62c7.13,0,8.86,0,14.26-.46m-69.71,64.77h49.35v-45.9h-49.35v45.9m-24.81-69.15l.34,4.68c.33,4.48,.45,7.99,.45,12.94v59.13c0,8.57-.23,12.25-.9,18.32l-.48,4.43h29.4v-7.94h41.35v7.71h29.35l-.56-4.5c-.55-4.4-.77-9.76-.77-18.49v-58.32c0-5.13,.1-9.24,.34-13.35l.26-4.6-4.6,.39c-5.24,.45-6.91,.45-13.93,.45h-62c-7.67,0-9.81-.12-13.58-.45l-4.67-.4h0Zm94.52,.39h0Zm0,8h0Zm-65.71,18.87h41.35v37.9h-41.35v-37.9h0Z"/></g><g><path class="cls-3" d="M932.71,264.6c-5.58-.58-10.76-.68-23.49-.68h-54.76c-12.78,0-16.52,.11-23.53,.68l-2.16,.18v-26.69l2.29,.34c5.08,.76,10.96,1.01,23.29,1.01h54.99c11.7,0,15.9-.24,23.37-1.02l2.21-.23v26.64l-2.21-.23Z"/><path class="cls-1" d="M932.92,240.41v22.2c-5.52-.58-10.58-.69-23.7-.69h-54.76c-12.88,0-16.68,.12-23.7,.69v-22.2c5.41,.81,11.62,1.04,23.58,1.04h54.99c11.5,0,15.88-.23,23.58-1.04m-106.15-4.64v31.18l4.33-.35c6.95-.57,10.66-.68,23.37-.68h54.76c13.55,0,18.12,.13,23.28,.67l4.41,.46v-31.08l-4.42,.46c-7.39,.77-11.55,1.01-23.17,1.01h-54.99c-12.22,0-18.02-.25-22.99-.99l-4.59-.68h0Z"/></g><g><path class="cls-3" d="M949.11,275.99l2.4-.19c11.62-.91,23.38-3.72,34.02-8.14,14.16-5.84,24.27-14.37,32.79-27.65,4.62-7.04,7.73-13.25,11.08-22.17l1.21-3.22,2.2,2.65c5.63,6.78,8.33,9.05,16.55,15.08l1.32,.97-.69,1.48c-10.67,23.09-21.74,36.83-38.24,47.43-12.76,8.27-23.79,12.53-45.38,17.52l-1.99,.46c-2.81,.64-3.66,.84-6.18,1.58l-1.96,.58-7.15-26.39Zm31.25-27.76c-9.93-10.39-19.43-17.76-30.79-23.89l-2.13-1.15,15.84-19.42,1.48,.87c14.8,8.69,22.27,14.02,31.96,22.79l1.36,1.23-16.1,21.28-1.62-1.7Z"/><path class="cls-1" d="M963.75,206.36c14.49,8.51,21.97,13.8,31.64,22.55l-13.57,17.95c-10.01-10.47-19.79-18.06-31.29-24.27l13.23-16.22m67.53,12.19c5.64,6.79,8.28,9.09,16.91,15.41-10.47,22.66-21.4,36.24-37.5,46.59-12.42,8.05-23.35,12.31-44.75,17.26-4.49,1.04-5.18,1.15-8.28,2.07l-5.98-22.09c11.73-.92,23.81-3.8,34.63-8.28,14.49-5.98,24.85-14.61,33.71-28.41,4.83-7.36,7.94-13.69,11.27-22.55m-68.46-17.38l-2.17,2.66-13.23,16.22-3.06,3.75,4.26,2.3c11.18,6.03,20.52,13.29,30.3,23.52l3.25,3.4,2.83-3.75,13.57-17.95,2.21-2.92-2.72-2.46c-9.81-8.88-17.36-14.26-32.29-23.03l-2.96-1.74h0Zm67.14,9.53l-2.42,6.44c-3.3,8.77-6.35,14.87-10.87,21.76-8.42,13.12-17.95,21.16-31.89,26.91-10.45,4.33-22,7.1-33.41,7.99l-4.81,.38,1.26,4.66,5.98,22.09,1.07,3.95,3.93-1.16c2.46-.73,3.29-.92,6.06-1.55l1.99-.46c21.85-5.05,33.03-9.38,46.03-17.8,16.83-10.82,28.12-24.81,38.96-48.27l1.37-2.97-2.64-1.93c-8.69-6.37-10.96-8.44-16.2-14.74l-4.4-5.29h0Z"/></g></g><g><path d="M1173.52,257.39c-6.27-.65-12-.86-18.59-.86h-61.28c-6.59,0-12.21,.22-18.7,.86v-18.81c5.73,.65,10.81,.87,18.7,.87h61.28c8.32,0,13.73-.22,18.59-.87v18.81Z"/><path d="M1222.47,234.58h4.21c4.86,0,6.81-.11,8.32-.32v6.16h24.97c5.4,0,7.02-.11,9.94-.32-.22,1.41-.22,2.38-.22,5.08v30.91c4.65,2.16,7.46,3.03,13.94,4.21-.76,10.48-2.16,14.7-5.51,17.18-3.03,2.16-7.78,2.81-21.51,2.81-19.45,0-22.59-1.3-22.59-9.4v-9.73h-5.94c-3.03,7.03-9.4,12.86-17.83,16.32-5.73,2.27-11.67,3.46-20.97,4.21-2.05-5.62-3.78-8.86-7.24-13.94,.54,.11,.86,.11,1.19,.11,13.08,0,21.72-2.16,27.02-6.7h-4.11c-5.3,0-8,.11-10.92,.22,.32-2.49,.43-5.73,.43-10.7v-25.4c0-.97,0-1.73-.11-3.13h-2.59c-3.13,0-4.32,0-7.13,.22,.11-3.03,.22-5.3,.22-11.78v-17.51c0-6.7-.11-8.97-.32-11.89,2.92,.22,5.19,.32,11.35,.32h27.02c4.97,0,7.89-.11,10.92-.54v10.7c-1.84-.22-4.11-.32-7.89-.32h-4.54v3.03h4.86c2.81,0,3.78,0,5.62-.11-.11,.32-.11,.43-.11,.76,4.97-4.43,8.54-10.16,10.27-16.32l16,2.49q-.97,2.05-2.16,4.65h14.27c3.78,0,7.02-.22,9.94-.54v14.27c-2.92-.32-6.38-.43-9.84-.43h-22.48c-1.51,1.95-2.16,2.7-3.89,4.65h23.35c4.65,0,7.35-.11,9.73-.32v12.97c-2.38-.32-5.19-.43-9.4-.43h-18.27c-3.67,0-7.13,.11-9.19,.32v-8.54c-1.3,1.19-1.73,1.62-3.24,2.92-2.05-3.57-2.92-4.97-5.19-7.78v3.46c0,2.92,0,3.67,.22,5.08-2.38-.11-3.03-.11-5.84-.11h-4.76v3.24Zm-13.73-20.21v-3.03h-8v3.03h8Zm9.51,10.16v-3.35h-17.51v3.35h17.51Zm-17.51,6.81v3.24h7.89v-3.24h-7.89Zm10.7,20.54h42.15v-2.81h-42.15v2.81Zm0,9.73h42.15v-2.59h-42.15v2.59Zm0,9.83h42.15v-2.7h-42.15v2.7Zm38.69,13.08c0,2.49,.97,2.81,8,2.81,5.94,0,8.21-.22,9.29-1.08,.97-.65,1.08-1.19,1.4-4.86-2.7-.22-4.65-.22-9.62-.22h-9.08v3.35Z"/></g><g><path d="M60.24,245.37c-.85,.11-1.02,.11-2.15,.34-2.21,.4-5.78,.85-8.56,1.13v4.99c3.29-.74,5.27-.96,8.27-.96,6.97,0,12.18,1.76,15.47,5.16,2.49,2.55,3.85,6.12,3.85,10.03,0,7.99-6.06,13.99-14.11,13.99-7.03,0-11.1-4.7-11.1-12.86v-1.42c4.14-1.19,5.5-1.76,8.61-3.46-.06,1.19-.11,1.81-.11,3,0,1.76,.11,2.72,.45,3.57,.4,1.02,1.36,1.7,2.49,1.7,2.44,0,4.08-1.98,4.08-4.87,0-1.93-1.02-3.8-2.78-4.99-1.53-.96-3.74-1.47-6.74-1.47-2.78,0-5.1,.28-8.33,1.13l.06,10.03v1.47c0,3.46-.23,4.7-1.08,5.89-1.08,1.59-3.23,2.49-5.78,2.49-4.19,0-9.01-1.76-12.24-4.48-2.32-1.98-3.68-4.65-3.68-7.37,0-3.06,1.87-6.4,5.27-9.4,2.27-1.98,4.65-3.4,8.44-5.04v-6.69l-4.31,.11-5.5-.11c-.17,0-.68,0-1.19,.06l-.11-8.9c1.81,.34,4.14,.51,7.76,.51h2.15q.79-.06,1.13-.06v-1.81c0-4.25-.06-5.55-.4-7.65h9.8c-.28,2.04-.34,3.34-.34,7.08v1.81c3.85-.4,7.37-1.08,10.37-1.93l.28,8.95Zm-19.66,17.96c-2.66,1.25-4.7,3.46-4.7,5.04,0,.68,.4,1.25,1.25,1.81,.79,.51,1.87,.91,2.55,.91,.74,0,.91-.4,.91-2.27v-5.5Zm31.67-12.46c-2.89-5.04-6.12-8.9-11.16-13.31l7.48-5.04c4.82,3.91,8.33,7.88,11.16,12.52l-7.48,5.84Z"/><path d="M92.45,235.68c1.42,.11,2.04,.17,3.46,.17,1.53,0,16.77-.4,22.04-.57-.06-3.63-.11-4.36-.4-6.01h10.03c-.23,1.98-.28,2.61-.28,5.78,9.4-.06,13.6-.17,15.86-.4l.06,9.29c-2.55-.23-3.68-.28-10.2-.28-3,0-3.4,0-5.67,.06v8.39c1.64,3,2.27,5.67,2.27,9.46,0,6.35-3.29,11.9-9.35,15.69-2.78,1.7-6.01,3-11.39,4.59-1.59-4.02-2.83-6.12-5.38-8.95,5.72-.85,8.95-1.76,11.67-3.46,2.1-1.25,3.29-2.49,4.19-4.48-2.38,1.98-4.31,2.66-7.59,2.66-6.57,0-11.22-4.31-11.22-10.37,0-6.46,5.33-10.88,13.14-10.88,1.81,0,3.12,.17,4.42,.62v-1.76q0-.79-.06-1.36c-11.73,.34-20.96,.85-25.33,1.47l-.28-9.69Zm17.62,21.13c0,1.76,1.59,3.06,3.74,3.06,2.44,0,4.31-1.47,4.31-3.4,0-1.76-1.47-2.95-3.74-2.95-2.49,0-4.31,1.36-4.31,3.29Z"/><path d="M156.22,235.68c1.42,.11,2.04,.17,3.46,.17,1.53,0,16.77-.4,22.04-.57-.06-3.63-.11-4.36-.4-6.01h10.03c-.23,1.98-.28,2.61-.28,5.78,9.4-.06,13.6-.17,15.86-.4l.06,9.29c-2.55-.23-3.68-.28-10.2-.28-3,0-3.4,0-5.67,.06v8.39c1.64,3,2.27,5.67,2.27,9.46,0,6.35-3.29,11.9-9.35,15.69-2.78,1.7-6.01,3-11.39,4.59-1.59-4.02-2.83-6.12-5.38-8.95,5.72-.85,8.95-1.76,11.67-3.46,2.1-1.25,3.29-2.49,4.19-4.48-2.38,1.98-4.31,2.66-7.59,2.66-6.57,0-11.22-4.31-11.22-10.37,0-6.46,5.33-10.88,13.14-10.88,1.81,0,3.12,.17,4.42,.62v-1.76q0-.79-.06-1.36c-11.73,.34-20.96,.85-25.33,1.47l-.28-9.69Zm17.62,21.13c0,1.76,1.59,3.06,3.74,3.06,2.44,0,4.31-1.47,4.31-3.4,0-1.76-1.47-2.95-3.74-2.95-2.49,0-4.31,1.36-4.31,3.29Z"/><path d="M235.05,231.6c.06,2.78,.51,5.61,1.19,8.39,3-1.13,6.46-1.76,9.69-1.76h1.25c1.19-4.93,1.42-6.29,1.47-8.39l9.97,1.87c-.23,.51-.57,1.59-1.02,3.17-.85,2.95-1.25,4.53-1.3,4.7,3.34,1.02,5.33,2.04,7.54,3.91,4.25,3.57,6.46,8.44,6.46,14.33,0,9.01-5.04,16.26-13.71,19.77-3.06,1.25-5.89,2.1-10.2,2.95-1.13-3.97-2.21-6.18-4.53-9.46,5.95-.51,10.48-1.81,13.31-3.74,3.51-2.44,5.21-5.84,5.21-10.31s-2.04-7.37-6.52-9.24c-3.06,8.9-5.95,14.9-9.57,19.77-4.7,6.35-9.01,9.24-13.82,9.24-6.86,0-11.5-5.89-11.5-14.56,0-7.2,3.17-13.54,9.12-18.07-.68-2.72-1.02-4.14-1.64-7.25-.4-1.93-.51-2.27-1.02-3.46l9.63-1.87Zm-7.31,30.03c0,3.46,1.25,5.61,3.17,5.61,1.13,0,2.32-.79,3.51-2.38-1.76-3.8-2.72-6.52-3.91-10.99-1.7,2.1-2.78,5.1-2.78,7.76Zm12.8-4.93c2.04-3.91,3-6.23,4.19-10.03-2.89,.11-4.65,.51-6.86,1.59,.79,3.29,1.47,5.33,2.66,8.44Z"/></g></g></g></svg>