<svg width="47" height="23" viewBox="0 0 47 23" fill="none" xmlns="http://www.w3.org/2000/svg">
<path d="M3.0625 15C2.00977 15 1.31152 15.0215 0.967773 15.0645V0.648438C1.13965 0.691406 1.49414 0.712891 2.03125 0.712891C2.57552 0.712891 3.20573 0.698568 3.92188 0.669922V12.4219H6.14551C6.79004 12.4219 7.30566 12.4004 7.69238 12.3574C7.64225 14.0332 7.61719 14.9033 7.61719 14.9678V15.0752C6.91536 15.0251 5.7373 15 4.08301 15H3.0625ZM9.07812 9.44629C9.07812 8.65853 9.21061 7.90658 9.47559 7.19043C9.74772 6.46712 10.1344 5.83691 10.6357 5.2998C11.7314 4.13965 13.153 3.55957 14.9004 3.55957C16.6406 3.55957 18.0228 4.10742 19.0469 5.20312C20.028 6.2487 20.5186 7.60579 20.5186 9.27441C20.5186 10.943 20.0137 12.3252 19.0039 13.4209C17.9368 14.5811 16.5225 15.1611 14.7607 15.1611C12.9417 15.1611 11.5166 14.5918 10.4854 13.4531C9.5472 12.4147 9.07812 11.0791 9.07812 9.44629ZM11.6885 9.38184C11.6885 9.83301 11.7637 10.2699 11.9141 10.6924C12.0645 11.1149 12.2793 11.4766 12.5586 11.7773C13.153 12.429 13.9336 12.7549 14.9004 12.7549C15.7956 12.7549 16.501 12.4362 17.0166 11.7988C17.5179 11.1829 17.7686 10.3809 17.7686 9.39258C17.7686 8.38997 17.5107 7.58073 16.9951 6.96484C16.4437 6.30599 15.6882 5.97656 14.7285 5.97656C13.7546 5.97656 12.9919 6.32747 12.4404 7.0293C11.9391 7.67383 11.6885 8.45801 11.6885 9.38184ZM25.7178 12.0137C25.4528 12.3646 25.3203 12.6439 25.3203 12.8516C25.3203 13.0521 25.3525 13.2096 25.417 13.3242C25.4814 13.4316 25.6211 13.5355 25.8359 13.6357C26.3086 13.8577 27.0856 14.0547 28.167 14.2266C29.2484 14.3913 30.0934 14.599 30.7021 14.8496C31.318 15.1003 31.8158 15.4082 32.1953 15.7734C32.9043 16.4681 33.2588 17.4528 33.2588 18.7275C33.2588 20.0023 32.8112 20.9798 31.916 21.6602C31.0208 22.3477 29.6924 22.6914 27.9307 22.6914C26.1546 22.6914 24.7223 22.3047 23.6338 21.5312C22.5452 20.7578 21.9867 19.7301 21.958 18.4482C21.915 16.9587 22.4987 15.8809 23.709 15.2148C23.3796 14.9427 23.1576 14.624 23.043 14.2588C22.9355 13.8864 22.8818 13.4639 22.8818 12.9912C22.8818 12.1963 23.2292 11.5231 23.9238 10.9717C23.1146 10.2054 22.71 9.25293 22.71 8.11426C22.71 6.83952 23.1683 5.77246 24.085 4.91309C25.0518 4.01074 26.305 3.55957 27.8447 3.55957C28.654 3.55957 29.4131 3.70996 30.1221 4.01074C31.0531 3.61686 31.737 3.27311 32.1738 2.97949C32.6107 2.67871 32.89 2.46029 33.0117 2.32422L33.0762 2.33496C33.1406 2.50684 33.2158 2.75033 33.3018 3.06543L33.4951 3.83887C33.667 4.47624 33.7708 4.91309 33.8066 5.14941C33.4915 5.49316 32.9365 5.73665 32.1416 5.87988C32.4495 6.47428 32.6035 7.10449 32.6035 7.77051C32.6035 8.43652 32.4889 9.04167 32.2598 9.58594C32.0306 10.123 31.7048 10.5957 31.2822 11.0039C30.3441 11.8848 29.1481 12.3252 27.6943 12.3252C26.9854 12.3252 26.3265 12.2214 25.7178 12.0137ZM25.4385 7.17969C25.3382 7.4375 25.2881 7.69889 25.2881 7.96387C25.2881 8.22884 25.3418 8.48307 25.4492 8.72656C25.5638 8.97005 25.7285 9.18848 25.9434 9.38184C26.4232 9.81152 27.0498 10.0264 27.8232 10.0264C28.4105 10.0264 28.9189 9.82943 29.3486 9.43555C29.7998 9.00586 30.0254 8.49023 30.0254 7.88867C30.0254 7.27995 29.8213 6.78939 29.4131 6.41699C29.0049 6.0446 28.4427 5.8584 27.7266 5.8584C26.5449 5.8584 25.7822 6.29883 25.4385 7.17969ZM28.0703 20.4141C29.832 20.4141 30.7129 19.7982 30.7129 18.5664C30.7129 17.9792 30.4264 17.5065 29.8535 17.1484C29.209 16.7402 28.1025 16.4215 26.5342 16.1924L25.9756 16.0957C25.5029 16.3464 25.1556 16.6686 24.9336 17.0625C24.7116 17.4564 24.6006 17.8288 24.6006 18.1797C24.6077 18.5378 24.6937 18.8457 24.8584 19.1035C25.0231 19.3613 25.2523 19.5869 25.5459 19.7803C26.1976 20.2028 27.0391 20.4141 28.0703 20.4141ZM34.7734 9.44629C34.7734 8.65853 34.9059 7.90658 35.1709 7.19043C35.443 6.46712 35.8298 5.83691 36.3311 5.2998C37.4268 4.13965 38.8483 3.55957 40.5957 3.55957C42.3359 3.55957 43.7181 4.10742 44.7422 5.20312C45.7233 6.2487 46.2139 7.60579 46.2139 9.27441C46.2139 10.943 45.709 12.3252 44.6992 13.4209C43.6322 14.5811 42.2178 15.1611 40.4561 15.1611C38.637 15.1611 37.2119 14.5918 36.1807 13.4531C35.2425 12.4147 34.7734 11.0791 34.7734 9.44629ZM37.3838 9.38184C37.3838 9.83301 37.459 10.2699 37.6094 10.6924C37.7598 11.1149 37.9746 11.4766 38.2539 11.7773C38.8483 12.429 39.6289 12.7549 40.5957 12.7549C41.4909 12.7549 42.1963 12.4362 42.7119 11.7988C43.2132 11.1829 43.4639 10.3809 43.4639 9.39258C43.4639 8.38997 43.2061 7.58073 42.6904 6.96484C42.139 6.30599 41.3835 5.97656 40.4238 5.97656C39.4499 5.97656 38.6872 6.32747 38.1357 7.0293C37.6344 7.67383 37.3838 8.45801 37.3838 9.38184Z" fill="#474D41"/>
</svg>
