<svg width="130" height="75" viewBox="0 0 130 75" fill="none" xmlns="http://www.w3.org/2000/svg">
<path d="M39.625 45C38.2852 45 37.3965 45.0273 36.959 45.082V26.7344C37.1777 26.7891 37.6289 26.8164 38.3125 26.8164C39.0052 26.8164 39.8073 26.7982 40.7188 26.7617V41.7188H43.5488C44.3691 41.7188 45.0254 41.6914 45.5176 41.6367C45.4538 43.7695 45.4219 44.877 45.4219 44.959V45.0957C44.5286 45.0319 43.0293 45 40.9238 45H39.625ZM47.2812 37.9316C47.2812 36.929 47.4499 35.972 47.7871 35.0605C48.1335 34.14 48.6257 33.3379 49.2637 32.6543C50.6582 31.1777 52.4674 30.4395 54.6914 30.4395C56.9062 30.4395 58.6654 31.1367 59.9688 32.5312C61.2174 33.862 61.8418 35.5892 61.8418 37.7129C61.8418 39.8366 61.1992 41.5957 59.9141 42.9902C58.556 44.4668 56.7559 45.2051 54.5137 45.2051C52.1986 45.2051 50.3848 44.4805 49.0723 43.0312C47.8783 41.7096 47.2812 40.0098 47.2812 37.9316ZM50.6035 37.8496C50.6035 38.4238 50.6992 38.9798 50.8906 39.5176C51.082 40.0553 51.3555 40.5156 51.7109 40.8984C52.4674 41.7279 53.4609 42.1426 54.6914 42.1426C55.8307 42.1426 56.7285 41.737 57.3848 40.9258C58.0228 40.1419 58.3418 39.1211 58.3418 37.8633C58.3418 36.5872 58.0137 35.5573 57.3574 34.7734C56.6556 33.9349 55.694 33.5156 54.4727 33.5156C53.2331 33.5156 52.2624 33.9622 51.5605 34.8555C50.9225 35.6758 50.6035 36.6738 50.6035 37.8496ZM68.459 41.1992C68.1217 41.6458 67.9531 42.0013 67.9531 42.2656C67.9531 42.5208 67.9941 42.7214 68.0762 42.8672C68.1582 43.0039 68.3359 43.1361 68.6094 43.2637C69.2109 43.5462 70.1999 43.7969 71.5762 44.0156C72.9525 44.2253 74.028 44.4896 74.8027 44.8086C75.5866 45.1276 76.2201 45.5195 76.7031 45.9844C77.6055 46.8685 78.0566 48.1217 78.0566 49.7441C78.0566 51.3665 77.487 52.6107 76.3477 53.4766C75.2083 54.3516 73.5176 54.7891 71.2754 54.7891C69.015 54.7891 67.1921 54.2969 65.8066 53.3125C64.4212 52.3281 63.7103 51.0202 63.6738 49.3887C63.6191 47.4928 64.362 46.1211 65.9023 45.2734C65.4831 44.9271 65.2005 44.5215 65.0547 44.0566C64.918 43.5827 64.8496 43.0449 64.8496 42.4434C64.8496 41.4316 65.2917 40.5749 66.1758 39.873C65.1458 38.8978 64.6309 37.6855 64.6309 36.2363C64.6309 34.6139 65.2142 33.2559 66.3809 32.1621C67.6113 31.0137 69.2064 30.4395 71.166 30.4395C72.196 30.4395 73.1621 30.6309 74.0645 31.0137C75.2493 30.5124 76.1198 30.0749 76.6758 29.7012C77.2318 29.3184 77.5872 29.0404 77.7422 28.8672L77.8242 28.8809C77.9062 29.0996 78.002 29.4095 78.1113 29.8105L78.3574 30.7949C78.5762 31.6061 78.7083 32.1621 78.7539 32.4629C78.3529 32.9004 77.6465 33.2103 76.6348 33.3926C77.0267 34.1491 77.2227 34.9512 77.2227 35.7988C77.2227 36.6465 77.0768 37.4167 76.7852 38.1094C76.4935 38.793 76.0788 39.3945 75.541 39.9141C74.347 41.0352 72.8249 41.5957 70.9746 41.5957C70.0723 41.5957 69.2337 41.4635 68.459 41.1992ZM68.1035 35.0469C67.9759 35.375 67.9121 35.7077 67.9121 36.0449C67.9121 36.3822 67.9805 36.7057 68.1172 37.0156C68.263 37.3255 68.4727 37.6035 68.7461 37.8496C69.3568 38.3965 70.1543 38.6699 71.1387 38.6699C71.8861 38.6699 72.5332 38.4193 73.0801 37.918C73.6543 37.3711 73.9414 36.7148 73.9414 35.9492C73.9414 35.1745 73.6816 34.5501 73.1621 34.0762C72.6426 33.6022 71.9271 33.3652 71.0156 33.3652C69.5117 33.3652 68.541 33.9258 68.1035 35.0469ZM71.4531 51.8906C73.6953 51.8906 74.8164 51.1068 74.8164 49.5391C74.8164 48.7917 74.4518 48.1901 73.7227 47.7344C72.9023 47.2148 71.4941 46.8092 69.498 46.5176L68.7871 46.3945C68.1855 46.7135 67.7435 47.1237 67.4609 47.625C67.1784 48.1263 67.0371 48.6003 67.0371 49.0469C67.0462 49.5026 67.1556 49.8945 67.3652 50.2227C67.5749 50.5508 67.8665 50.8379 68.2402 51.084C69.0697 51.6217 70.1406 51.8906 71.4531 51.8906ZM79.9844 37.9316C79.9844 36.929 80.153 35.972 80.4902 35.0605C80.8366 34.14 81.3288 33.3379 81.9668 32.6543C83.3613 31.1777 85.1706 30.4395 87.3945 30.4395C89.6094 30.4395 91.3685 31.1367 92.6719 32.5312C93.9206 33.862 94.5449 35.5892 94.5449 37.7129C94.5449 39.8366 93.9023 41.5957 92.6172 42.9902C91.2591 44.4668 89.459 45.2051 87.2168 45.2051C84.9017 45.2051 83.0879 44.4805 81.7754 43.0312C80.5814 41.7096 79.9844 40.0098 79.9844 37.9316ZM83.3066 37.8496C83.3066 38.4238 83.4023 38.9798 83.5938 39.5176C83.7852 40.0553 84.0586 40.5156 84.4141 40.8984C85.1706 41.7279 86.1641 42.1426 87.3945 42.1426C88.5339 42.1426 89.4316 41.737 90.0879 40.9258C90.7259 40.1419 91.0449 39.1211 91.0449 37.8633C91.0449 36.5872 90.7168 35.5573 90.0605 34.7734C89.3587 33.9349 88.3971 33.5156 87.1758 33.5156C85.9362 33.5156 84.9655 33.9622 84.2637 34.8555C83.6257 35.6758 83.3066 36.6738 83.3066 37.8496Z" fill="#474D41"/>
</svg>
