<?xml version="1.0" encoding="utf-8"?>
<!-- Generator: Adobe Illustrator 28.2.0, SVG Export Plug-In . SVG Version: 6.00 Build 0)  -->
<svg version="1.1" id="Layer_2_00000142897347122481963330000003534659392316913314_"
	 xmlns="http://www.w3.org/2000/svg" xmlns:xlink="http://www.w3.org/1999/xlink" x="0px" y="0px" viewBox="0 0 646.7 194.4"
	 style="enable-background:new 0 0 646.7 194.4;" xml:space="preserve">
<style type="text/css">
	.st0{fill:#1A1A1A;}
	.st1{fill:#3E3A39;}
	.st2{fill:#188BBE;}
	.st3{fill:#FFFFFF;}
	.st4{fill:#E4A31C;}
</style>
<g id="Layer_1-2">
	<path class="st0" d="M260,98.1H159.4v15.6h80.5c0,0,0,0,0,0.1h18.2C259.4,108.2,260,103,260,98.1L260,98.1z"/>
	<path class="st1" d="M380.3,119.3c-9.9,10.1-21.8,19.4-35.9,28v45h-16.2v-36.1c-13.1,6.3-27,11.1-41.7,14.6V155
		c15.4-4,29.6-9.4,42.4-16.3c10.9-5.9,20.1-12.2,27.7-19h-63.1v-15.4h34V90.1h16.7v14.1h36.1L380.3,119.3L380.3,119.3z M388.3,172.2
		c-10.3-4-22.8-7.9-37.3-11.6v-15.8c14.3,3.2,26.8,6.8,37.3,10.8V172.2L388.3,172.2z"/>
	<path class="st1" d="M517,187.9c-9.2-1.9-17.6-7.2-25.2-15.9c-6.2-7.1-13-18.1-20.6-32.9c-5.2-10.4-9-16.8-11.3-19.2
		c-2.3-2.3-5.7-3.5-10.2-3.5H446l-12.3,28.8c-4.5,10.7-12.2,17-22.9,18.7v-17.5c3.6-1.4,6.5-4.9,8.8-10.5l14.7-36h13.5
		c9.7,0,16.7,1.5,20.9,4.5c4.7,3.4,10.2,11.3,16.5,23.8c6,12.1,11,20.9,15,26.6c5.6,8.1,11.2,13.4,16.8,15.6L517,187.9L517,187.9z
		 M508.2,103.8c0,3.6-1.2,6.7-3.8,9.2s-5.6,3.8-9.2,3.8s-6.7-1.2-9.2-3.8c-2.5-2.5-3.8-5.6-3.8-9.2s1.3-6.7,3.8-9.2
		c2.5-2.6,5.6-3.8,9.2-3.8s6.7,1.3,9.2,3.8S508.2,100.2,508.2,103.8z M501,103.8c0-1.6-0.6-2.9-1.7-4.1c-1.1-1.2-2.5-1.8-4.1-1.8
		s-2.9,0.6-4.1,1.8c-1.1,1.2-1.7,2.6-1.7,4.1s0.6,2.9,1.7,4.1c1.1,1.1,2.5,1.7,4.1,1.7s2.9-0.6,4.1-1.7
		C500.5,106.7,501,105.4,501,103.8z"/>
	<path class="st1" d="M635.7,92.2c-5.3,15.5-15.4,28.3-30.1,38.3v61.8H588v-52.1c-13.4,6-29.1,10.3-47,12.9v-16.1
		c39.9-7.2,65.2-22.2,75.9-44.9L635.7,92.2L635.7,92.2z"/>
	<path class="st0" d="M239.9,112.9c-4.3,17.5-15.2,30.1-32.6,37.8c-5.2-6.9-10.1-13-14.5-18.2h-20.8c17.2,20.6,31,39.5,41.4,56.8
		h20.8c-4.2-7-10-15.6-17.4-25.8c14.3-6.1,25.1-15.4,32.4-27.7c3.2-5.3,5.8-11.5,7.8-18.6c0.4-1.4,0.7-2.8,1-4.2L239.9,112.9
		L239.9,112.9z"/>
	<rect y="10.9" class="st2" width="646.7" height="45.6"/>
	<path class="st3" d="M233.7,39.4c0,2.8-0.6,4.8-1.8,6c-1.2,1.3-3.2,1.9-5.9,1.9h-6.4v-4.7h5.3c1.3,0,2.2-0.3,2.8-0.8
		c0.5-0.6,0.8-1.5,0.8-2.8V27.7h-9.2c-0.3,5.2-1.8,9.6-4.5,13.1c-2.4,3.2-5.5,5.5-9.3,6.8v-5.1c5.6-3.1,8.5-8.1,8.7-14.8h-8.7v-4.6
		h8.7v-5.4h5.2v5.4h14.4L233.7,39.4L233.7,39.4z"/>
	<path class="st3" d="M276,33.7h-29.2v-4.9H276V33.7z"/>
	<path class="st3" d="M316.7,37.1c-6.1-1.7-12.7-3.2-19.6-4.6V48h-5.3V17.7h5.3v9.7c8.3,1.6,14.8,3.1,19.6,4.4V37.1L316.7,37.1z
		 M309.6,24h-3.3v-5.3h3.3V24z M314.3,24H311v-5.3h3.2V24z"/>
	<path class="st3" d="M358,46.5h-27.8v-27H358V46.5z M352.9,41.8V24.2h-17.7v17.6C335.2,41.8,352.9,41.8,352.9,41.8z"/>
	<path class="st3" d="M400,33.7h-29.2v-4.9H400V33.7z"/>
	<path class="st3" d="M428.1,26.3c-4.7-1-9.6-1.7-14.6-2.1v-5.1c4.8,0.3,9.7,1,14.6,2V26.3z M441,23.9c-0.7,8-3.4,13.8-8.1,17.6
		c-4.4,3.5-10.7,5.4-19.1,5.7v-5c6.7-0.5,11.7-1.9,14.9-4.3c3.9-2.8,6.1-7.5,6.8-14L441,23.9L441,23.9z"/>
	<path class="st4" d="M77.4,74.4H52.3v61.2h18v-8.6h7.1c14.7,0,26.4-11.7,26.4-26.4S92.1,74.4,77.4,74.4L77.4,74.4z M77.4,110.2
		h-7.1V91h7.1c4.8,0,8.5,4,8.5,9.7C86,106.7,82.2,110.2,77.4,110.2z"/>
	<polygon class="st4" points="105.9,135.7 105.9,186.2 88,194.4 88,152.5 76,152.5 76,135.7 	"/>
	<polygon class="st4" points="70.3,135.7 70.3,152.5 70.3,152.5 70.3,194.4 52.3,194.4 52.3,152.5 33,152.5 33,194.4 15.1,186.2 
		15.1,135.7 	"/>
</g>
</svg>
