<?xml version="1.0" encoding="UTF-8"?>
<svg id="_レイヤー_2" data-name="レイヤー 2" xmlns="http://www.w3.org/2000/svg" viewBox="0 0 816.33 135.72">
  <defs>
    <style>
      .cls-1 {
        fill: #3e3a39;
      }

      .cls-1, .cls-2, .cls-3, .cls-4 {
        stroke-width: 0px;
      }

      .cls-2, .cls-5 {
        fill: none;
      }

      .cls-3 {
        fill: #188bbe;
      }

      .cls-5 {
        opacity: .2;
        stroke: #3e3a39;
        stroke-miterlimit: 10;
      }

      .cls-4 {
        fill: #e4a31c;
      }
    </style>
  </defs>
  <g id="Layer_1" data-name="Layer 1">
    <path class="cls-1" d="M172.12,114.78c0,6.55-1.47,11.34-4.41,14.36-2.94,3.02-7.62,4.53-14.06,4.53h-15.25v-11.27h12.54c3.11,0,5.31-.66,6.61-1.99,1.3-1.33,1.95-3.52,1.95-6.57v-26.68h-21.77c-.73,12.37-4.29,22.79-10.67,31.26-5.76,7.62-13.16,12.99-22.19,16.09v-12.11c13.27-7.45,20.13-19.2,20.58-35.24h-20.58v-11.01h20.58v-12.88h12.37v12.88h34.31v38.63Z"/>
    <path class="cls-1" d="M257.11,101.4h-69.29v-11.61h69.29v11.61Z"/>
    <path class="cls-1" d="M335,109.36c-14.63-3.95-30.16-7.59-46.59-10.93v36.76h-12.54V63.36h12.54v23.04c19.71,3.84,35.24,7.34,46.59,10.5v12.45ZM318.14,78.27h-7.79v-12.71h7.79v12.71ZM329.32,78.27h-7.71v-12.71h7.71v12.71Z"/>
    <path class="cls-1" d="M422.44,131.81h-66.07v-64.29h66.07v64.29ZM410.41,120.63v-41.93h-42.02v41.93h42.02Z"/>
    <path class="cls-1" d="M507.02,101.4h-69.29v-11.61h69.29v11.61Z"/>
    <path class="cls-1" d="M562.42,83.69c-11.18-2.43-22.79-4.07-34.82-4.91v-12.11c11.46.73,23.07,2.29,34.82,4.66v12.37ZM593.08,78.1c-1.64,18.92-8.02,32.87-19.14,41.85-10.39,8.36-25.53,12.88-45.4,13.55v-11.86c15.98-1.19,27.81-4.63,35.49-10.33,9.21-6.78,14.63-17.84,16.26-33.21h12.79Z"/>
    <path class="cls-1" d="M596.14,118.71c0-11.48,9.63-21.82,24.16-21.82,12.46,0,19.97,7.78,19.97,18.07,0,9.52-5.93,16.65-14.53,19.32-.33.11-.65.16-.92.16-1.42,0-2.23-1.09-2.23-2.23,0-.98.54-1.9,1.9-2.34,7.46-2.34,11.37-7.24,11.37-14.91s-5.33-14.2-15.24-14.37c-.6,10.01-3.16,18.34-6.64,23.83-2.99,4.73-5.71,6.04-8.82,6.04-4.62,0-9.03-4.08-9.03-11.75ZM610.02,103.04c-2.34,1.31-4.35,3.05-5.93,5.17-1.03,1.36-1.85,2.83-2.5,4.41-.76,2.01-1.03,3.97-1.14,6.09,0,4.52,2.23,7.4,4.73,7.4,1.74,0,3.32-.71,5.12-3.59,3.1-5.01,5.39-12.41,5.99-21.6-2.23.38-4.3,1.03-6.26,2.12Z"/>
    <g>
      <path class="cls-3" d="M787.1,81.97l-4.66,4.66c3.88.96,6.91,4.08,7.74,8l4.71-4.71c-1.6-3.46-4.36-6.28-7.79-7.95ZM795.97,93.08l-5.77,5.77c-.95,4.81-5.2,8.44-10.29,8.44-2.89,0-5.51-1.17-7.41-3.07-1.9-1.9-3.07-4.52-3.07-7.42,0-5.28,3.89-9.64,8.97-10.37l5.6-5.6c-1.31-.33-2.68-.51-4.09-.51-9.09,0-16.48,7.39-16.48,16.48s7.39,16.49,16.48,16.49,16.49-7.4,16.49-16.49c0-1.28-.15-2.52-.43-3.72Z"/>
      <path class="cls-4" d="M718.05,111.09l-10,3.73c4.29,5.36,7.91,11.55,10.84,18.55l10.25-4.49c-3.16-6.5-6.86-12.42-11.09-17.79ZM718.05,90.08c1.35-1.18,2.31-3.81,2.88-7.88h4.4v-16.18h-30.66v-6.09h-11.61v6.09h-29.9v17.12h11.09v-7.71h11.19c-.91,3.44-3.48,6.21-7.71,8.3-3,1.41-7.51,2.77-13.56,4.07l6.87,8.3c6.26-1.81,11.23-3.87,14.91-6.19,5.02-3.22,8.35-7.34,9.99-12.36l-8.39-2.12h12.88v10.16c0,2.83.59,4.55,1.78,5.17.68.4,2.54.59,5.59.59h3.73l-7.71,2.2c2.26,1.53,4.6,3.28,7.03,5.26-7.4.62-13.86,1.07-19.4,1.35,3.78-3.84,6.89-7.31,9.32-10.42l-11.86-1.78c-2.82,4.01-6.58,8.22-11.27,12.63-5.25.11-9.96.17-14.14.17l3.3,9.23c14.12-.45,25.24-.99,33.38-1.61l-8.47,2.96c3.16,3.05,6.07,6.56,8.72,10.51l9.83-3.73c-.06,3.11-.37,5.04-.93,5.8-.57.77-1.95,1.15-4.16,1.15h-10.16c-1.24,0-2.08-.14-2.5-.43-.42-.28-.63-.98-.63-2.11v-9.07h-10.68v14.57c0,2.99.59,4.91,1.78,5.76,1.19.85,3.84,1.27,7.96,1.27h16.69c5.48,0,9.04-.9,10.67-2.71,1.64-1.81,2.52-5.79,2.63-11.94l-10.67-3.39v1.02c-3.11-4.07-5.96-7.32-8.56-9.75,6.21-.5,12.14-1.12,17.79-1.86,2.99,2.71,4.69,4.27,5.08,4.66l10.42-5.17c-6.83-5.76-13.24-10.61-19.23-14.57h6.1c3.11,0,5.17-.42,6.19-1.27ZM710.59,81.87c-.39.84-1.27,1.27-2.63,1.27h-4.74c-1.07,0-1.72-.09-1.95-.26-.22-.17-.34-.73-.34-1.69v-5.76h13.3v4.15l-3.22-.85c-.16,1.75-.31,2.8-.42,3.14ZM659.17,111.01c-2.09,7.11-5.28,13.35-9.57,18.72l9.91,4.74c3.9-5.36,6.98-11.94,9.23-19.74l-9.57-3.72Z"/>
      <g>
        <path class="cls-2" d="M801.48,87.57v29.45h-41.76v-40.24h28.33l-4.05,4.05-9.81,9.81c-3.34,3.34-3.34,8.77,0,12.11,1.62,1.62,3.77,2.51,6.05,2.51s4.44-.89,6.06-2.51l3.9-3.9,5.77-5.77,5.51-5.51Z"/>
        <polygon class="cls-4" points="813.51 75.54 813.51 134.05 801.48 134.05 801.48 128.37 759.72 128.37 759.72 134.05 747.61 134.05 747.61 65.43 799.4 65.43 788.05 76.78 759.72 76.78 759.72 117.02 801.48 117.02 801.48 87.57 813.51 75.54"/>
        <path class="cls-4" d="M814.7,70.11l-1.19,1.19v-5.87h-9.87l3.19-3.19c1.09-1.09,2.51-1.63,3.94-1.63s2.84.54,3.93,1.63c2.17,2.17,2.17,5.7,0,7.87Z"/>
        <path class="cls-4" d="M801.48,76.78v6.54l-6.59,6.6-10.71,10.71c-1.09,1.09-2.51,1.63-3.94,1.63s-2.84-.54-3.93-1.63c-2.17-2.17-2.17-5.69,0-7.87l15.98-15.98h9.19Z"/>
        <polygon class="cls-4" points="813.51 65.43 813.51 71.3 801.48 83.32 801.48 76.78 792.29 76.78 803.64 65.43 813.51 65.43"/>
      </g>
    </g>
    <g>
      <g>
        <path class="cls-1" d="M21.04,10.25c-.09.33-.18.66-.24.99,4.33,1.19,6.24,4.21,6.24,7.56,0,4.78-3.58,8.01-11.26,8.96-.24-.78-.99-2.21-1.55-3.02,5.38-.6,8.9-2.39,8.9-5.85,0-.99-.33-3.32-3.55-4.36-1.31,2.99-3.32,5.77-5.65,7.77.12.39.27.72.42,1.02l-3.08,1.97c-.15-.3-.3-.63-.42-.99-1.49.84-3.14,1.37-4.81,1.37-2.63,0-4.36-1.67-4.36-4.45,0-4.12,3.17-7.38,7.41-9.11-.06-1.28-.06-2.6-.06-3.97-2.24.06-4.66.12-5.86.09l-.18-3.5c1.37.03,3.88.03,6.09.03.06-1.28.09-2.78.15-4.03l4.69.36c-.06.3-.3.54-.81.6-.09.87-.15,2-.24,2.96,3.26-.15,7.35-.54,10.67-1.25l.33,3.62c-3.29.6-7.59.9-11.17,1.02-.03,1.05-.06,2.06-.06,3.05,1.25-.3,3.08-.48,4.48-.39.12-.45.21-.9.24-1.34l3.67.93ZM9.95,21c-.33-1.58-.54-3.44-.69-5.47-2.36,1.17-3.97,2.99-3.97,4.99,0,1.7,1.28,1.64,1.67,1.61.93-.03,1.94-.45,2.99-1.13ZM15.99,13.92c-.42-.06-1.97.06-3.32.42.09,1.49.18,2.87.39,4.06,1.17-1.23,2.18-2.78,2.93-4.48Z"/>
        <path class="cls-1" d="M45.62,1.08c-.09.3-.42.57-.93.63-.15,1.08-.45,2.54-.63,3.41,2.12-.15,5.17-.66,7.35-1.37l.45,3.56c-2.57.6-5.56,1.05-8.48,1.28-1.37,5.47-3.17,10.04-5.77,14.28l-3.7-1.31c2.48-3.76,4.45-8.22,5.47-12.88h-5.17v-3.38h3.32c.9,0,1.79-.03,2.45-.03.27-1.43.51-3.05.63-4.6l5.02.42ZM53.24,14.1c.03,1.79.12,3.5.27,5.23,1.61.66,4.21,1.91,5.8,3.05l-1.76,3.5c-1.11-.93-2.9-1.97-4.03-2.6-.03.57-.12.93-.21,1.23-.63,1.94-2.21,3.35-5.8,3.35-2.72,0-6.03-1.31-6.03-4.84.06-3.08,3.08-4.84,6.03-4.84.75,0,1.52.09,2.33.24-.09-1.43-.12-2.93-.12-3.88l3.53-.42ZM50.04,21.69c-.81-.33-1.91-.48-2.63-.48-1.46,0-2.72.66-2.75,1.79,0,1.11,1.11,1.79,2.81,1.79,1.43,0,2.57-.72,2.57-2.18v-.93ZM58.97,11.95c-3.26.03-7.11.45-10.43,1.23l-.51-3.26c3.41-.87,7.44-1.49,10.7-1.49l.24,3.53Z"/>
        <path class="cls-1" d="M83.58,8.04c-2.27.75-5.26,1.23-8.19,1.46-1.17,6.27-3.02,13.06-5.14,18.01l-3.88-1.37c2.36-4.72,4.09-10.4,5.11-16.43-.48.03-2.6.03-3.17.03-.63,0-1.22,0-1.73-.03l-.06-3.56c.96.06,2.51.06,3.94.06.48,0,1.02-.03,1.52-.03.24-1.73.45-3.79.6-5.53l4.87.42c-.03.36-.39.63-.84.72-.15,1.08-.39,2.69-.6,4.03,2.36-.3,4.81-.75,6.84-1.52l.72,3.73ZM91.5,26.98c-.93.06-1.97.09-3.05.09-2.3,0-4.72-.15-6.33-.54-2.66-.63-3.97-2.45-3.94-4.54.03-1.43.66-3.02,1.91-4.42l3.2,1.17c-.93.99-1.37,1.88-1.37,2.63,0,1.64,1.52,2.06,6.09,2.06,1.2,0,2.45-.06,3.55-.15l-.06,3.7ZM80.21,11.92c2.99-.96,7.17-1.49,10.67-1.46v3.58c-3.23-.09-6.87.27-9.86,1.11l-.81-3.23Z"/>
        <path class="cls-1" d="M105.54,2.51c-.06.33-.33.54-.93.57-1.14,5.29-1.58,10.64-1.58,13.14,0,1.7.03,3.2.21,4.21.36-.87,1.52-3.41,1.91-4.36l1.76,2.75c-.99,2.09-2.03,3.73-2.48,5.17-.15.51-.24.99-.24,1.43,0,.36.06.72.15,1.05l-3.76.57c-.96-2.87-1.37-6.69-1.37-10.67s.63-9.62,1.4-14.55l4.93.69ZM123.46,24.83c-1.11.06-2.3.09-3.44.09-1.91,0-3.73-.09-5.08-.27-4.15-.57-5.83-2.78-5.83-5.32,0-2.15.99-4,2.57-5.95l3.58,1.23c-1.34,1.32-2.21,2.69-2.21,4.18,0,2.24,2.69,2.48,6.24,2.48,1.43,0,2.99-.06,4.27-.21l-.12,3.76ZM109.81,5.5c3.41-.09,9.02-.48,12.64-1.1l.33,3.7c-3.58.57-9.35.96-12.85,1.02l-.12-3.62Z"/>
        <path class="cls-1" d="M136,10.84c-1.49,1.08-3.08,2.09-4.69,2.96-.48-.84-1.46-2.15-2.21-2.87,5.17-2.54,10.13-7.11,12.34-10.82l4.81.27c-.09.33-.36.54-.81.6,2.9,3.88,8.04,7.65,12.55,9.5-.87.9-1.7,2.12-2.33,3.23-1.52-.81-3.08-1.76-4.6-2.84v2.12h-15.06v-2.15ZM134.03,28.35v-12.37h19.12v12.37h-3.67v-1.11h-11.92v1.11h-3.53ZM149.63,9.83c-2.51-1.94-4.78-4.12-6.24-6.13-1.37,2-3.53,4.15-6.03,6.13h12.28ZM149.48,19.18h-11.92v4.9h11.92v-4.9Z"/>
        <path class="cls-1" d="M164.71,11.68c.72-.12,1.7-.33,2.99-.72,4.96-1.4,8.99-1.94,10.58-1.94,4.15,0,8.04,2.15,8.04,7.2,0,6.84-6.15,9.23-14.88,9.89-.21-.81-.72-2.57-1.08-3.26,7.23-.45,12.19-2.27,12.19-6.36,0-2.99-2.09-4.27-4.66-4.27h-.18c-2.39.06-5.68.84-9.23,2.09-.6.21-1.31.51-1.88.69-.12.27-.39.51-.66.6l-1.23-3.91Z"/>
        <path class="cls-1" d="M212.62,8.04c-2.27.75-5.26,1.23-8.19,1.46-1.17,6.27-3.02,13.06-5.14,18.01l-3.88-1.37c2.36-4.72,4.09-10.4,5.11-16.43-.48.03-2.6.03-3.17.03-.63,0-1.23,0-1.73-.03l-.06-3.56c.96.06,2.51.06,3.94.06.48,0,1.02-.03,1.52-.03.24-1.73.45-3.79.6-5.53l4.87.42c-.03.36-.39.63-.84.72-.15,1.08-.39,2.69-.6,4.03,2.36-.3,4.81-.75,6.84-1.52l.72,3.73ZM220.54,26.98c-.93.06-1.97.09-3.05.09-2.3,0-4.72-.15-6.33-.54-2.66-.63-3.97-2.45-3.94-4.54.03-1.43.66-3.02,1.91-4.42l3.2,1.17c-.93.99-1.37,1.88-1.37,2.63,0,1.64,1.52,2.06,6.09,2.06,1.2,0,2.45-.06,3.55-.15l-.06,3.7ZM209.25,11.92c2.99-.96,7.17-1.49,10.67-1.46v3.58c-3.23-.09-6.87.27-9.86,1.11l-.81-3.23Z"/>
        <path class="cls-1" d="M251.75,7.95c-.06.18-.18.36-.36.48-.42,9.08-1.31,14.49-2.48,16.34-1.05,1.64-2.63,2.39-4.51,2.39-1.4,0-3.2-.18-5.2-.6.03-1.02-.12-2.72-.27-3.76,1.82.42,3.97.69,4.72.69.9,0,1.52-.24,2-1.19.69-1.38,1.4-5.83,1.64-11.5h-7.35c-1.4,6.13-3.85,11.95-9.35,16.43-.69-.66-2.12-1.73-3.08-2.3,4.96-3.82,7.32-8.96,8.42-14.13h-7.26v-3.53h7.98c.3-2.06.36-3.73.48-6.03l4.9.42c-.06.33-.36.57-.9.66-.18,1.88-.24,3.23-.51,4.99h7.65l.72-.3,2.75.96Z"/>
        <path class="cls-1" d="M259.85,11.89h24.95v3.76h-23.69c-.18.3-.6.51-1.02.57l-.24-4.33Z"/>
        <path class="cls-1" d="M313.17,17.9c-2.48-1.43-6.39-3.29-9.35-4.48v13.89h-4V1.05l4.9.24c-.03.36-.27.66-.9.75v8.51l.75-1.02c3.29,1.17,7.77,3.14,10.73,4.69l-2.12,3.68ZM310.78,2.87c1.13.96,2.78,2.72,3.73,4.06l-1.73,1.46c-.78-1.13-2.48-3.11-3.64-4.12l1.64-1.4ZM314.87.21c1.25,1.08,2.9,2.72,3.73,3.97l-1.73,1.43c-.75-1.1-2.45-3.02-3.64-4.03l1.64-1.37Z"/>
        <path class="cls-1" d="M347.7,5.02v20.14h-3.82v-1.7h-13.83v1.76h-3.73V5.02h21.39ZM343.84,19.96v-11.44h-13.8v11.44h13.8Z"/>
        <path class="cls-1" d="M356.63,11.89h24.95v3.76h-23.69c-.18.3-.6.51-1.02.57l-.24-4.33Z"/>
        <path class="cls-1" d="M391.69,3.02c2.99.93,6.57,2.51,8.75,3.94l-1.97,3.41c-2.15-1.43-5.68-3.08-8.54-4.09l1.76-3.26ZM390.68,23.24c10.07-3.11,17-8.96,20.46-17.18,1.11.9,2.39,1.61,3.49,2.21-3.7,8.16-10.84,14.52-20.73,18.01-.06.33-.24.66-.51.78l-2.72-3.82Z"/>
        <path class="cls-1" d="M446.63,14.31c-.09.03-.15.06-.24.06-.15,0-.3-.06-.42-.15-2.24.66-5.2,1.61-7.41,2.45.06.6.06,1.28.06,2s0,1.49-.06,2.36l-3.76.27c.09-1.11.15-2.33.12-3.2-2.33,1.17-4.03,2.69-4.03,3.82,0,1.31,1.64,1.85,5.02,1.85,2.63,0,5.53-.09,7.41-.33l.06,3.47c-1.55.18-4.12.21-7.5.21-5.77,0-8.63-1.28-8.63-4.99,0-2.39,3.11-5.11,7.32-7.26-.09-.87-.54-1.67-1.43-1.67-1.97,0-4.06,1.02-6.51,3.79-.72.84-1.82,2-3.11,3.26l-2.66-2.57c1.25-1.08,2.72-2.36,3.64-3.47,1.31-1.52,2.78-4.15,3.35-6.24l-1.13.03c-.66,0-3.88.03-4.63,0v-3.38c1.67.09,3.82.09,5.14.09l1.58-.03c.27-1.22.45-2.42.63-3.94l4.57.45c-.06.3-.33.51-.75.57-.15.96-.39,1.85-.63,2.78,2.36-.06,5.88-.57,9.08-1.64l.6,3.53c-2.87.93-6.99,1.28-10.67,1.46-.54,1.58-1.05,2.87-1.46,3.5h.03c1.08-.84,2.63-1.46,4.09-1.46,1.73,0,3.26,1.23,3.7,3.5,2.3-.99,5.11-2,7.26-2.87l1.37,3.76Z"/>
        <path class="cls-1" d="M460.55,13.2c-.36-.81-.78-1.58-1.2-2.3l2.6-1.17c1.26,2,2.51,4.57,2.93,6.3l-2.78,1.28c-.09-.42-.24-.9-.42-1.4l-1.94.12v12.28h-3.17v-9.68c-.09.18-.3.3-.66.27-.3,2.45-.87,5.32-1.73,7.14-.63-.42-1.79-.93-2.51-1.26.75-1.64,1.23-4.48,1.46-7.02l3.44.81v-2.33c-1.34.09-2.57.15-3.55.18-.09.3-.33.42-.54.45l-.72-3.58h2.27c.48-.6.96-1.23,1.43-1.88-.9-1.31-2.33-2.93-3.61-4.09l1.7-2.45.66.57c.9-1.67,1.79-3.71,2.3-5.29l3.58,1.46c-.12.21-.42.33-.81.3-.78,1.67-2.03,3.88-3.08,5.53.42.45.78.87,1.08,1.28,1.08-1.73,2.09-3.5,2.84-5.02l3.44,1.55c-.15.21-.45.33-.87.33-1.37,2.27-3.47,5.26-5.44,7.65l3.29-.03ZM462.58,17.63c.78,1.88,1.58,4.21,1.94,5.8-.87.3-1.76.63-2.84,1.02-.27-1.58-1.08-4.06-1.79-5.92l2.69-.9ZM477.51,1.49l1.82.12c0,.27,0,.69-.03,1.04-.15,6.66-.39,9.26-1.14,10.19-.75.99-1.64,1.25-4.15,1.25-.54,0-1.13,0-1.73-.03-.09-.96-.48-2.27-1.02-3.14,1.28.12,2.45.15,3.02.15.45,0,.72-.06.99-.33.36-.45.54-2.06.66-5.95h-4.39c-.54,3.88-1.58,7.77-5.89,10.25-.42-.87-1.37-2.06-2.15-2.69,3.23-1.7,4.15-4.45,4.57-7.56h-3.94V1.52h12.67l.72-.03ZM465.09,28.35v-12.43h13.53v12.31h-3.47v-1.13h-6.78v1.25h-3.29ZM475.15,19.06h-6.78v4.87h6.78v-4.87Z"/>
        <path class="cls-1" d="M501.56,11.11l4.18.24c-3.11-2.24-5.88-4.99-7.53-7.62-2.3,3.79-6.93,7.95-11.98,10.64-.45-.87-1.46-2.21-2.21-2.93,5.32-2.57,10.13-7.44,12.22-11.44.12,0,.24,0,4.9.27-.09.33-.36.57-.78.6,2.75,4.36,7.71,8.19,12.4,10.07-.9.96-1.7,2.18-2.36,3.32-1.46-.75-2.96-1.67-4.36-2.69-.09.18-.33.33-.75.39v16.37h-3.73V11.11ZM494.9,15c0,4.27-.63,9.62-6.51,13.32-.63-.78-2.06-2-2.99-2.57,5.26-3.14,5.8-7.38,5.8-10.84v-3.64c1.73.12,3.14.18,4.54.27-.03.3-.27.48-.84.6v2.87Z"/>
      </g>
      <line class="cls-5" x1="527.76" y1="27.14" x2="813.76" y2="27.14"/>
    </g>
    <g>
      <g>
        <polygon class="cls-3" points="67.4 81.41 67.42 81.34 36.72 81.34 36.69 81.41 46.68 113.53 77.38 113.53 67.4 81.41"/>
        <polygon class="cls-3" points="46.68 113.53 46.69 113.57 36.69 135.72 67.4 135.72 77.4 113.57 77.38 113.53 46.68 113.53"/>
      </g>
      <g>
        <polygon class="cls-4" points="40.7 59.26 10 59.26 .02 81.34 30.73 81.34 40.7 59.26"/>
        <polygon class="cls-4" points="30.7 81.41 30.73 81.34 .02 81.34 0 81.41 9.99 113.53 40.69 113.53 30.7 81.41"/>
      </g>
    </g>
  </g>
</svg>