<?xml version="1.0" encoding="UTF-8"?><svg id="Layer_2" xmlns="http://www.w3.org/2000/svg" xmlns:xlink="http://www.w3.org/1999/xlink" viewBox="0 0 1168 332.35"><defs><style>.cls-1,.cls-2{fill:none;}.cls-3{clip-path:url(#clippath);}.cls-4{fill:#f4690b;}.cls-5{fill:#f2f2f2;}.cls-6,.cls-7,.cls-8{fill:#fff;}.cls-9{fill:#ffeedc;}.cls-10{fill:#ffe876;}.cls-11{fill:#ff8939;}.cls-12{fill:#333;}.cls-13{fill:#e2b647;}.cls-14,.cls-15{fill:#3fa9f5;}.cls-16{fill:#893f3f;}.cls-17{fill:#565050;}.cls-7{isolation:isolate;opacity:.2;}.cls-8{stroke:#e5e5e5;}.cls-8,.cls-15,.cls-2{stroke-miterlimit:10;}.cls-15{stroke:#464b60;}.cls-2{stroke:#e5d0b5;}</style><clipPath id="clippath"><path class="cls-1" d="m155.58,149.61l-5.05-14.28c2.97-5.96,4.64-12.68,4.64-19.79,0-24.58-19.92-44.5-44.5-44.5s-44.5,19.92-44.5,44.5,19.92,44.5,44.5,44.5c12.75,0,24.24-5.37,32.35-13.96l12.57,3.53h-.01Z"/></clipPath></defs><g id="Layer_2-2"><g><g><g><rect class="cls-1" width="1168" height="331"/><path class="cls-7" d="m101.67,38.04h588c41.7,0,75.5,33.8,75.5,75.5h0c0,41.7-33.8,75.5-75.5,75.5H101.67c-41.7,0-75.5-33.8-75.5-75.5h0c0-41.7,33.8-75.5,75.5-75.5Z"/><g><path class="cls-6" d="m97.63,58.04h575.38c29.67,0,53.72,24.85,53.72,55.5h0c0,30.65-24.05,55.5-53.72,55.5H97.63c-29.67,0-53.72-24.85-53.72-55.5h0c0-30.65,24.05-55.5,53.72-55.5Z"/><path class="cls-17" d="m673.01,169.54H97.63c-29.89,0-54.2-25.12-54.2-56s24.31-56,54.2-56h575.38c29.89,0,54.2,25.12,54.2,56s-24.31,56-54.2,56ZM97.63,58.54c-29.36,0-53.24,24.67-53.24,55s23.88,55,53.24,55h575.38c29.36,0,53.24-24.67,53.24-55s-23.88-55-53.24-55H97.63Z"/></g><g><g><path class="cls-4" d="m200.68,126.35c.47,2.61.95,3.72,2.21,5.06,2.13,2.21,5.3,3.4,9.09,3.4,6.17,0,10.04-3.08,10.04-7.91,0-3.24-1.58-5.77-4.27-6.8-1.82-.63-4.27-1.03-7.36-1.03s-6.64.16-9.73.47v-13.6c2.69.32,5.3.47,8.38.47,7.51,0,11.23-2.53,11.23-7.59,0-4.27-3-6.72-8.22-6.72-5.62,0-8.46,2.21-9.65,7.28l-17.08-2.45c1.5-4.9,2.77-7.28,5.3-10.04,4.82-5.22,12.1-7.91,21.75-7.91,8.62,0,15.74,2.37,20.25,6.72,2.93,2.93,4.43,6.72,4.43,11.23,0,8.38-4.51,13.6-13.6,15.74,4.82.71,7.43,1.82,10.2,4.19,3.32,3.01,5.22,7.12,5.22,11.71,0,4.03-1.11,7.75-3.16,10.52-1.74,2.37-4.51,4.59-7.43,5.93-4.11,1.9-10.52,3.08-16.45,3.08-7.12,0-14.24-1.66-18.43-4.43-3.64-2.37-6.41-5.85-8.15-10.2-.47-1.11-.79-2.14-1.34-4.19,0,0,16.77-2.93,16.77-2.93Z"/><path class="cls-16" d="m211.83,148.6c-7.32,0-14.49-1.73-18.7-4.51-3.73-2.43-6.54-5.95-8.33-10.43-.5-1.18-.83-2.26-1.36-4.25l-.14-.53,17.79-3.11.09.49c.46,2.52.91,3.56,2.09,4.81,2.04,2.12,5.06,3.24,8.73,3.24,5.89,0,9.54-2.84,9.54-7.41,0-3.02-1.48-5.39-3.95-6.33-1.87-.65-4.35-1-7.18-1-3.22,0-6.75.17-9.68.47l-.55.06v-14.72l.56.07c2.77.33,5.34.47,8.32.47,7.22,0,10.73-2.32,10.73-7.09,0-4.01-2.74-6.22-7.72-6.22-5.36,0-8.01,2-9.16,6.89l-.1.45-18.11-2.6.17-.56c1.51-4.92,2.82-7.41,5.41-10.23,4.95-5.36,12.39-8.07,22.12-8.07,8.69,0,16.01,2.44,20.59,6.86,3.04,3.04,4.58,6.94,4.58,11.59,0,7.89-3.97,13.14-11.82,15.63,3.53.73,5.84,1.86,8.24,3.92,3.48,3.15,5.39,7.44,5.39,12.08,0,4.14-1.16,7.99-3.26,10.82-1.79,2.44-4.64,4.72-7.63,6.09-4.12,1.9-10.66,3.13-16.66,3.13h0Zm-27.29-18.93c.49,1.8.78,2.66,1.18,3.6,1.72,4.3,4.4,7.66,7.96,9.98,4.06,2.68,11.02,4.35,18.15,4.35,5.87,0,12.24-1.19,16.24-3.04,2.84-1.31,5.55-3.46,7.24-5.77,1.98-2.66,3.07-6.29,3.07-10.22,0-4.36-1.79-8.38-5.06-11.33-2.74-2.35-5.25-3.38-9.94-4.07l-2.59-.38,2.55-.6c8.89-2.09,13.22-7.08,13.22-15.25,0-4.38-1.44-8.03-4.28-10.88-4.39-4.24-11.46-6.58-19.89-6.58-9.44,0-16.63,2.61-21.38,7.75-2.4,2.63-3.62,4.85-5.01,9.29l16.06,2.3c1.31-4.99,4.42-7.22,10.02-7.22s8.72,2.7,8.72,7.22c0,5.37-3.95,8.09-11.73,8.09-2.82,0-5.28-.13-7.88-.41v12.49c2.84-.27,6.17-.42,9.23-.42s5.5.36,7.52,1.06c2.89,1.11,4.61,3.82,4.61,7.27,0,5.11-4.14,8.41-10.54,8.41-3.94,0-7.21-1.23-9.46-3.55-1.24-1.32-1.78-2.45-2.25-4.83l-15.74,2.75h-.02Z"/></g><g><path class="cls-4" d="m257.62,140.51c-2.61-2.61-4.59-5.62-5.77-8.78-2.06-5.61-3.08-11.7-3.08-18.11,0-8.3,1.98-16.92,4.98-21.91,4.82-8.07,13.05-12.5,23.01-12.5,7.67,0,14.39,2.61,19.22,7.35,2.61,2.61,4.59,5.62,5.77,8.78,2.06,5.61,3.08,11.7,3.08,18.19,0,8.3-1.98,17-4.98,21.99-4.75,7.91-13.05,12.34-23.09,12.34-7.75,0-14.31-2.53-19.14-7.35h0Zm7.35-27.52c0,14.16,4.03,21.43,11.86,21.43s11.71-7.12,11.71-21.2-4.11-20.64-11.78-20.64-11.78,7.51-11.78,20.4h0Z"/><path class="cls-16" d="m276.76,148.36c-7.84,0-14.58-2.59-19.49-7.5-2.65-2.65-4.68-5.74-5.89-8.96-2.07-5.65-3.12-11.8-3.12-18.29,0-8.38,1.98-17.08,5.05-22.17,4.91-8.21,13.24-12.74,23.44-12.74,7.7,0,14.65,2.66,19.57,7.5,2.65,2.65,4.69,5.75,5.89,8.96,2.07,5.65,3.12,11.82,3.12,18.37,0,8.42-1.98,17.16-5.05,22.24-4.87,8.11-13.22,12.58-23.52,12.58h0Zm0-68.64c-9.84,0-17.86,4.35-22.58,12.25-2.98,4.95-4.91,13.44-4.91,21.65,0,6.37,1.03,12.41,3.05,17.94,1.15,3.08,3.11,6.05,5.66,8.6,4.72,4.72,11.21,7.21,18.79,7.21,9.94,0,17.98-4.29,22.66-12.09,2.98-4.95,4.91-13.47,4.91-21.73,0-6.42-1.03-12.49-3.05-18.02-1.15-3.08-3.11-6.05-5.66-8.6-4.72-4.65-11.42-7.21-18.86-7.21h-.01Zm.08,55.2c-8.2,0-12.36-7.38-12.36-21.93,0-13.29,4.48-20.9,12.28-20.9,5.6,0,12.28,3.67,12.28,21.14,0,14.4-4.11,21.7-12.21,21.7h0Zm-.08-41.85c-7.17,0-11.28,7.25-11.28,19.9,0,13.89,3.82,20.93,11.36,20.93s11.21-6.96,11.21-20.7c0-9.19-1.96-20.14-11.28-20.14h0Z"/></g><g><path class="cls-4" d="m332.93,117.46c-1.87,0-3.11.07-4.7.28v-3.87c-3.32,3.45-4.97,4.9-8.57,7.67-2.21-3.94-3.94-6.42-7.05-9.74,7.94-5.53,13.33-11.67,17.41-19.69,1.38-2.69,2.07-4.42,2.42-6.42l11.33,4.14c-.69,1.17-1.04,1.8-1.8,3.52-1.93,4.21-5.39,9.95-8.77,14.51h26.04c-3.66-4.7-6.42-9.46-8.91-15.2-.41-1.04-.9-2-1.31-2.97l10.29-3.94c.55,1.87,1.11,3.18,2.83,6.35,4.14,7.6,9.95,13.61,17.82,18.44-3.32,4.14-4.14,5.39-6.98,10.57-2.97-2.21-4.14-3.18-5.87-4.77-.07,13.88-1.04,23.28-2.76,27.01-1.87,4.01-5.18,5.32-13.75,5.32-.46,0-2.09-.02-4.9-.07-.48-4.08-1.11-6.35-2.97-11.05,2.9.41,5.66.62,7.32.62,3.59,0,4.42-.48,5.11-3.38.69-2.69,1.17-9.53,1.17-17.34h-10.5c-.76,7.46-2.28,12.23-5.53,17.61-2.69,4.42-6.35,8.29-10.91,11.47-2.14,1.45-3.59,2.28-6.91,3.8-2.21-3.94-3.59-5.87-6.84-9.39,8.08-3.25,13.06-7.18,16.09-12.71,1.93-3.45,2.69-6.29,2.97-10.78h-1.8.03Z"/><path class="cls-16" d="m322.29,150.99l-.23-.4c-2.23-3.97-3.62-5.89-6.77-9.3l-.49-.53.67-.27c7.97-3.2,12.85-7.05,15.84-12.49,1.8-3.21,2.57-5.89,2.88-10.04h-1.26c-1.88,0-3.09.07-4.63.27l-.56.07v-3.2c-2.86,2.93-4.59,4.39-7.76,6.83l-.46.35-.28-.5c-2.31-4.11-4.07-6.54-6.98-9.64l-.4-.42.48-.33c7.84-5.46,13.16-11.47,17.25-19.5,1.43-2.79,2.05-4.43,2.37-6.28l.1-.59,12.45,4.56-.3.52c-.7,1.19-1.03,1.8-1.77,3.47-1.87,4.07-5.05,9.39-8.24,13.8h24.04c-3.34-4.42-5.94-8.93-8.36-14.5-.25-.62-.51-1.2-.78-1.77-.18-.4-.37-.8-.54-1.2l-.2-.48,11.28-4.32.15.52c.51,1.74,1.02,2.99,2.79,6.26,4.1,7.51,9.87,13.48,17.64,18.26l.48.3-.35.44c-3.34,4.17-4.12,5.35-6.93,10.5l-.28.5-.46-.34c-2.43-1.81-3.67-2.79-5.08-4.05-.11,13.37-1.08,22.38-2.8,26.1-1.98,4.25-5.43,5.61-14.2,5.61-.46,0-2.1-.02-4.91-.07h-.44l-.05-.44c-.47-3.99-1.08-6.24-2.94-10.93l-.32-.8.85.12c3.18.45,5.83.62,7.25.62,3.44,0,4-.36,4.62-3,.68-2.65,1.14-9.32,1.16-16.72h-9.55c-.78,7.23-2.3,11.98-5.55,17.37-2.75,4.51-6.47,8.42-11.06,11.62-2.29,1.56-3.79,2.38-6.99,3.84l-.42.19h.04Zm-5.78-9.86c2.77,3.05,4.16,4.97,6.19,8.56,3.13-1.45,4.49-2.26,6.42-3.57,4.47-3.11,8.09-6.92,10.77-11.31,3.23-5.36,4.71-10.08,5.46-17.41l.04-.45h11.45v.5c0,7.67-.48,14.69-1.19,17.46-.78,3.27-1.95,3.76-5.6,3.76-1.66,0-4.11-.19-6.54-.51,1.59,4.09,2.19,6.34,2.64,9.95,3.77.06,3.8.06,4.46.06,8.29,0,11.52-1.22,13.29-5.03,1.68-3.64,2.65-13.16,2.72-26.8v-1.13l.84.77c1.57,1.44,2.66,2.36,5.37,4.39,2.51-4.57,3.44-5.98,6.4-9.7-7.69-4.82-13.42-10.82-17.52-18.33-1.51-2.78-2.16-4.18-2.72-5.94l-9.3,3.56c.1.23.21.47.32.7.27.59.54,1.18.79,1.8,2.52,5.81,5.25,10.47,8.84,15.08l.63.81h-28.06l.59-.8c3.34-4.5,6.77-10.16,8.72-14.42.64-1.46.99-2.13,1.52-3.05l-10.21-3.74c-.37,1.73-1.02,3.38-2.35,5.98-4.08,8.02-9.37,14.07-17.1,19.54,2.62,2.85,4.33,5.21,6.44,8.91,3.18-2.46,4.82-3.89,8.05-7.27l.86-.9v4.55c1.34-.15,2.5-.21,4.2-.21h2.33l-.03.53c-.28,4.62-1.08,7.5-3.03,10.99-3.02,5.49-7.87,9.42-15.68,12.66h-.01Z"/></g><path d="m385.92,93.56c1.17.07,2.07.07,2.62.07,1.8,0,4.28-.14,11.81-.62,9.95-.62,16.65-.97,29.77-1.45l7.11-.28,2.9-.14c2.35-.07,2.76-.14,3.11-.14.48,0,.76-.07,1.59-.28l.62,12.5c-.97-.14-1.24-.14-1.93-.14-4.83,0-11.05,1.87-15.82,4.84-6.91,4.21-10.98,10.02-10.98,15.68,0,4.01,1.87,6.7,5.8,8.57,2.76,1.38,8.84,2.49,13.19,2.49.55,0,1.04,0,2.07-.07l-1.59,13.12c-.97-.21-1.17-.21-2.56-.35-7.88-.69-13.06-1.87-17.48-3.87-8.15-3.8-12.36-10.15-12.36-18.93,0-5.73,1.93-10.91,5.87-15.61,1.8-2.21,3.45-3.59,6.77-5.87l-3.25.35c-1.52.14-3.94.35-16.86,1.38-6.42.69-6.77.69-9.74,1.31l-.69-12.57h.03Zm48.97,15.76c2.76,3.18,4.84,6.22,6.7,10.02l-6.63,3.04c-2.14-4.35-3.94-7.05-6.7-10.22l6.63-2.83h0Zm9.26-4.02c2.49,2.76,4.42,5.46,6.77,9.74l-6.42,2.97c-2.49-4.63-4.21-7.25-6.56-9.95l6.22-2.76h0Z"/></g><g><path class="cls-15" d="m560.06,98.54c-3.59,0-7.32.14-10.43.41v-11.19c3.04.28,6.36.42,10.36.42h42.48c3.87,0,7.05-.14,10.29-.42v11.19c-3.11-.28-6.7-.41-10.15-.41h-23.83c-.14,4.01-.21,5.73-.41,8.15h18.86c4.42,0,7.12-.07,9.67-.34-.19,1.25-.37,4.61-.55,10.08-.34,11.4-1.66,21.34-3.25,25.56-2.14,5.59-5.39,7.18-14.51,7.18-2.21,0-4.63-.14-8.29-.41-.41-4.35-1.1-7.18-2.56-10.57,3.73.69,8.08,1.17,10.57,1.17,2.62,0,3.94-.55,4.7-1.93,1.24-2.49,2.28-10.64,2.56-21h-18.38c-1.24,7.12-3.18,12.64-6.29,18.1-4.01,6.91-7.94,11.05-15.06,15.82-2.42-4.01-4.35-6.49-7.53-9.39,5.6-3.45,8.36-5.94,11.26-10.02,4.01-5.53,6.42-12.36,7.46-20.93.48-3.59.62-5.87.69-11.47h-7.67.01Z"/><path class="cls-15" d="m634.74,141.02c0,4.56.07,6.91.35,8.7h-11.54c.35-2.69.48-5.32.48-9.05v-45.94c0-3.18-.07-5.04-.28-7.11,2.56.21,4.56.28,9.05.28h41.86c4.63,0,6.84-.07,8.7-.28-.28,2.07-.35,4.21-.35,8.7v44.62c0,4.01-1.66,6.63-4.77,7.53-1.52.48-4.14.69-7.74.69-1.87,0-4.7-.07-7.94-.14-.62-3.87-1.38-6.36-3.18-10.22,4.56.41,7.67.62,9.74.62,2.69,0,3.25-.28,3.25-1.52v-12.78h-37.65v15.89h.02Zm13.26-43.09h-13.26v17.41h13.26s0-17.41,0-17.41Zm24.38,17.41v-17.41h-13.95v17.41h13.95Z"/><path class="cls-15" d="m491.03,103.2c0,.43-.09,1.28-.27,2.73,4.02-2.82,8.66-4.1,14.46-4.1,7.94,0,14.46,2.39,19.19,7.01,4.46,4.36,6.69,9.91,6.69,17.09,0,16.41-11.25,26.15-30.17,26.15-11.25,0-20.08-3.67-25.26-10.51-2.05-2.65-3.12-5.13-4.46-9.57l17.94-2.65c1.52,5.64,5.27,8.29,11.69,8.29,7.5,0,12.5-4.53,12.5-11.37s-4.82-11.28-12.32-11.28c-5.62,0-9.28,2.14-11.25,6.32l-16.6-1.54c.36-2.56.62-4.62.89-7.01l2.41-26.66c.18-1.79.27-3.85.36-7.09,3.75.17,4.64.17,8.93.17h26.69c7.85,0,11.16-.17,14.73-.6v14.96c-4.73-.43-8.84-.6-14.55-.6h-20.71s-.89,10.26-.89,10.26Z"/></g><path class="cls-5" d="m155.58,149.61l-5.05-14.28c2.97-5.96,4.64-12.68,4.64-19.79,0-24.58-19.92-44.5-44.5-44.5s-44.5,19.92-44.5,44.5,19.92,44.5,44.5,44.5c12.75,0,24.24-5.37,32.35-13.96l12.57,3.53h-.01Z"/><g><g><path class="cls-12" d="m818.96,156.85v-2.88h-17.05v2.88h-16.14l.22-2.2c.32-3.2.46-5.94.46-9.16v-22.14c0-3.24-.07-4.9-.3-6.87l-.08-.67c-.45.04-.88.1-1.31.16l-.4.06v29.85c0,3.39.07,4.95.38,8.8l.18,2.16h-16.77l.21-2.19c.31-3.19.46-5.31.46-8.77v-22.15c-.08.1-3.16,3.68-3.16,3.68l-.78-4.07c-1.09-5.69-2-8.96-3.89-14.02l-.45-1.19.89-.91c4.49-4.57,7.99-10.4,10.69-17.83,1.43-3.77,2.1-6.28,2.47-9.3l.27-2.18,16.72,3.68-.71,2.11c-.09.27-.41,1.22-.76,2.3.82.04,1.75.05,2.94.06-.04-1.81-.2-3.04-.42-4.27l-.43-2.36h17.1l-.41,2.35c-.18,1-.26,2.22-.28,4.28h3.87c-.02-2.04-.11-3.1-.34-4.21l-.51-2.41h17.38l-.48,2.39c-.25,1.23-.33,2.57-.35,4.23h.96c2.78,0,4.81-.06,6.97-.37l2.28-.33v15.2l1.25-.21v16.01l-2.32-.37c-.71-.11-1.45-.2-2.36-.25l-.1.79c-.22,1.8-.3,3.54-.3,7.16v21.05c0,3.79.06,6.77.38,9.93l.22,2.2h-16.21v-.02Zm10.9-55.76c3.78,0,5.5-.07,7.06-.3l-.73-.08c-2.17-.23-3.73-.3-6.96-.3h-1.04v.68h1.67Zm-17.36,0v-.68h-3.87v.68h3.87Zm-26.92-.25c1.44.18,3.31.25,6.86.25h.65v-.68c-2.97,0-4.61.08-6.41.3l-1.1.13h0Z"/><path class="cls-6" d="m776.6,80.32l12.4,2.73c-.16.47-1.01,3.04-1.56,4.76,1.79.16,3.2.23,5.85.23h1.79v-1.01c0-2.34-.16-3.9-.47-5.61h12.32c-.23,1.33-.31,2.88-.31,5.69v.93h7.87v-1.09c0-2.65-.08-4.05-.39-5.54h12.47c-.31,1.56-.39,3.2-.39,5.61v1.01h2.96c3.04,0,5.07-.08,7.25-.39v11.07c-2.18-.23-3.82-.31-7.17-.31h-3.04v4.68h3.66c4.13,0,5.92-.08,7.8-.39v11.3c-1.95-.31-4.05-.39-8.03-.39h-37.03c-3.9,0-6,.08-8.11.39v-11.3c1.79.31,3.9.39,7.95.39h2.65v-4.68h-1.79c-3.2,0-4.91.08-6.86.31v-7.95c-1.48,4.05-2.11,5.54-4.05,9.9v45.21c0,3.51.08,5.15.39,8.96h-12.4c.31-3.2.47-5.38.47-8.96v-23c.05-.99.08-2.78.08-5.38-.47.67-1.17,1.69-2.1,3.04-.47.7-1.01,1.33-1.95,2.42-1.09-5.69-2.03-9.12-3.98-14.34,4.68-4.75,8.34-10.84,11.15-18.55,1.48-3.9,2.18-6.55,2.57-9.75m30.01,22.76h7.87v-4.68h-7.87v4.68m26.27,13.17c-.23,1.87-.31,3.66-.31,7.41v21.05c0,4.05.08,7.02.39,10.13h-12v-2.88h-21.05v2.88h-11.93c.31-3.12.47-5.92.47-9.35v-22.14c0-3.35-.08-5.07-.31-7.09,1.95.23,3.66.31,7.25.31h29.94c4.13,0,6-.08,7.56-.31m-32.98,13.25h21.05v-3.51h-21.05v3.51m0,12.63h21.05v-3.66h-21.05v3.66m-26.75-66.67l-.53,4.37c-.35,2.84-.98,5.23-2.34,8.81v.03l-.02.03c-2.6,7.16-5.95,12.76-10.24,17.12l-1.79,1.82.89,2.39c1.84,4.94,2.73,8.14,3.8,13.7l1.56,8.15,2.34-2.73v16.75c0,3.38-.14,5.46-.45,8.58l-.43,4.39h37.95v-2.88h13.05v2.88h20.42l-.44-4.4c-.31-3.08-.37-6.01-.37-9.74v-21.05c0-2.74.04-4.37.16-5.76.09.01.19.03.28.04l4.63.74v-20.71l-1.25.21v-15.15l-4.57.65c-1.58.23-3.11.32-5.57.34.05-.72.13-1.3.23-1.84l.96-4.78h-41.63l.33,1.79-.29-.06-12.4-2.73-4.3-.95h.02Z"/></g><g><path class="cls-12" d="m865.04,154.76c-1.82-5.7-2.78-7.75-6.02-12.87l-1.81-2.87,3.38-.2c24.51-1.45,29.54-10.44,29.54-23.5,0-4.9-.86-13.12-6.65-13.12-2.33,0-4.47,1.2-6.95,3.88-4.37,4.58-7.25,10.61-8.14,17-.22,1.69-.29,2.54-.29,6.12v1.98l-17.41.21.33-2.31c.06-.4.06-.76.06-1.04v-1.51c-.15-3.02-.23-7.71-.23-9.95,0-9.63.57-18.75,1.81-28.7.22-2.16.3-2.96.3-4.04v-2.71l18.54.73-.84,2.53c-.62,1.86-1.2,4.35-1.83,7.97,4.56-4.97,10-7.41,16.46-7.41,5.85,0,11.71,2.93,15.67,7.84,4.65,5.82,6.91,13.31,6.91,22.93,0,13.37-4.27,23.5-12.69,30.11-4.7,3.71-11.29,6.72-18.54,8.48-2.66.7-4.68,1.1-9.36,1.83l-1.69.26-.52-1.63h-.03Z"/><path class="cls-6" d="m854.94,83.21l13.8.55c-1.09,3.27-2.03,8.34-3.2,16.68,5.07-9.12,11.38-13.49,19.72-13.49,5.3,0,10.52,2.65,14.11,7.09,4.37,5.46,6.47,12.55,6.47,21.67,0,12.79-3.98,22.3-11.93,28.53-4.44,3.51-10.68,6.39-17.77,8.11-2.65.7-4.68,1.09-9.2,1.79-1.87-5.85-2.88-8.03-6.24-13.33,22.37-1.33,31.42-8.65,31.42-25.49,0-9.74-3.12-15.12-8.65-15.12-2.88,0-5.54,1.4-8.42,4.52-4.68,4.91-7.72,11.38-8.65,18.09-.23,1.79-.31,2.73-.31,6.39l-13.1.16c.08-.54.08-1.01.08-1.33v-1.56c-.16-3.04-.23-7.72-.23-9.9,0-9.43.55-18.4,1.79-28.46.23-2.26.31-3.12.31-4.29v-.62m-4-4.16v4.79c0,.93-.06,1.62-.29,3.84-1.24,10.02-1.82,19.2-1.82,28.91,0,2.17.07,6.82.23,10v1.46c0,.24,0,.5-.04.76l-.66,4.62,4.67-.06,13.1-.16,3.95-.05v-3.95c0-3.57.07-4.3.28-5.87.83-5.94,3.52-11.58,7.58-15.85l.02-.02.02-.02c2.65-2.87,4.32-3.24,5.48-3.24,1.4,0,4.65,1.08,4.65,11.12,0,7.31-1.86,12.23-5.84,15.46-4.25,3.45-11.39,5.42-21.82,6.04l-6.77.4,3.62,5.73c3.16,5,4.03,6.85,5.81,12.41l1.04,3.26,3.38-.52c4.68-.73,6.84-1.15,9.57-1.87,7.51-1.82,14.35-4.96,19.27-8.85,8.92-7,13.45-17.66,13.45-31.67,0-10.09-2.4-17.99-7.35-24.17-4.35-5.39-10.79-8.59-17.23-8.59-4.98,0-9.39,1.31-13.29,3.97.18-.71.37-1.34.55-1.9l1.68-5.05-5.32-.21-13.8-.55-4.16-.16h.04Z"/></g><g><path class="cls-12" d="m952.54,154.43c-6.74,0-12.35-.67-20-2.39l-1.51-.34-.06-1.54c-.23-6.36-.54-8.75-1.73-13.46l-.69-2.73-7.32-.31.52-2.33c.12-.53.12-.56.18-1.14l.02-.18c.39-3.76,2.01-16.12,3.6-27.06.23-1.68.38-2.84.45-4.78l.08-2.05,11.32.71c-1.45-.59-2.86-1.2-4.23-1.84l-1.96-.9,8.22-14.8,1.72.88c3.69,1.88,8.33,3.49,15.5,5.38,4.95,1.31,11.6,2.73,15.46,3.31l2.35.35-5.43,16.5-1.74-.36c-9.27-1.89-16.91-3.88-23.59-6.17l-.11.42c-.91,3.49-1.93,8.98-2.76,14.68,5.83-2.97,12.09-4.32,19.77-4.32,15,0,25.08,8.17,25.08,20.32,0,7.37-3.53,13.99-9.68,18.18-5.98,4.07-13.42,5.96-23.42,5.96h-.04Zm-20.76-20.11c7.46,2.34,14.45,3.57,20.22,3.57,8.92,0,15.15-2.96,15.15-7.2s-6.34-4.55-9.07-4.55c-5.61,0-11.16,1.52-16.06,4.4-1.83.99-2.44,1.52-3.9,3.13l-.63.69-6.42-.27.71.22h0Z"/><path class="cls-6" d="m940.22,81.96c3.82,1.95,8.5,3.59,15.9,5.54,5.3,1.4,12.01,2.81,15.67,3.35l-4.13,12.55c-14.11-2.88-24.56-6-33.68-10.21l6.24-11.23m-12.24,16.29l13.64.86c-1.09,4.21-2.42,11.54-3.35,18.94,6.55-4.21,13.41-6.08,22.3-6.08,13.88,0,23.08,7.25,23.08,18.32,0,6.71-3.2,12.71-8.81,16.53-5.61,3.82-12.71,5.61-22.3,5.61-6.39,0-11.93-.62-19.57-2.34-.23-6.47-.54-8.97-1.79-13.88,7.72,2.42,14.97,3.66,20.81,3.66,10.29,0,17.15-3.66,17.15-9.2,0-4.13-4.05-6.55-11.07-6.55-5.85,0-11.77,1.56-17.07,4.68-2.03,1.09-2.81,1.79-4.37,3.51l-12.94-.55c.16-.7.16-.78.23-1.56.39-3.74,2.03-16.21,3.59-26.97.23-1.71.39-2.96.47-4.99m10.62-21.61l-1.88,3.38-6.24,11.23-1.7,3.05-.56-.04-4.09-.26-.16,4.1c-.07,1.84-.21,2.97-.43,4.6-1.58,10.93-3.21,23.33-3.6,27.1l-.02.2c-.03.33-.08.63-.14.9l-1.04,4.67,4.78.2,3.45.15.33,1.29c1.17,4.59,1.45,6.78,1.67,13.04l.11,3.08,3.01.68c7.71,1.73,13.63,2.44,20.44,2.44,10.42,0,18.22-2,24.55-6.31,6.71-4.57,10.56-11.8,10.56-19.83,0-13.35-10.88-22.32-27.08-22.32-6.53,0-12.09.94-17.23,2.98.56-3.45,1.17-6.66,1.75-9.18,6.27,2.03,13.36,3.83,21.77,5.55l3.49.71,1.11-3.38,4.13-12.55,1.48-4.51-4.69-.7c-3.27-.49-9.87-1.84-15.24-3.26-7.03-1.85-11.55-3.42-15.11-5.23l-3.44-1.75h0l.02-.03Zm1.51,57.81c.95-1.01,1.45-1.4,2.79-2.12l.07-.04.07-.04c4.59-2.7,9.79-4.12,15.04-4.12,3.52,0,7.07.79,7.07,2.55,0,3.25-6.69,5.2-13.15,5.2-3.47,0-7.54-.5-11.88-1.43h0Z"/></g><g><path class="cls-12" d="m1004.74,152.8c.43-2.61.67-6.73.67-11.6v-2.65c-2.6,3.16-3.38,4.2-4,5.24l-1.95,3.25-8.25-17.9,1.25-.97c2.03-1.58,3.22-2.62,5.3-4.62,2.58-2.62,4.61-4.65,6.03-6.07.79-.79,1.47-1.47,1.89-1.9.06-1.22.11-3.05.16-5.6-6.49.41-6.73.45-9.26.86l-2.21.36-.85-16.84,2.29.2c1.81.16,2.66.23,3.88.23,1.51,0,3.93-.1,6.58-.26v-.62c.07-1.48.16-3.54.16-5.38,0-2.31-.07-3.02-.3-4.91l-.27-2.29,18.41.42-.38,2.28c-.25,1.53-.69,5.77-.88,10.38l4.58,4.33c6.4-4.53,12.1-6.74,17.25-6.74,8.7,0,14.55,5.69,14.55,14.16,0,2.96-.54,5.78-2.08,12.23-2.19,8.9-3.3,14.35-3.3,16.22v.2c.39-.19,1.34-.86,2.49-2.57,1.88-2.71,3.59-5.75,4.48-7.96l1.94-4.86,1.79,4.91c1.77,4.84,3.01,7.21,6.33,12.12l.72,1.07-.67,1.1c-6.39,10.45-12.07,14.52-20.26,14.52s-14.24-5.85-14.24-14.55c0-4.52.78-9.27,3.48-21.18,1.12-4.94,1.35-6.85,1.35-7.59,0-.07,0-.12-.01-.16-.05-.01-.14-.02-.25-.02-1.13,0-3.36.74-6.24,2.82-4.88,3.43-9.46,7.45-12.67,11.14-.06,3.23-.06,5.36-.06,7.43,0,10.69.23,18.84.61,21.81l.29,2.24-18.75.1.39-2.34v-.04Z"/><path class="cls-6" d="m1008.11,83.36l13.8.31c-.31,1.87-.78,6.78-.94,11.54l4.29,4.05c-1.4,1.01-2.96,2.81-4.91,5.3l-.08,1.09c0,.86,0,1.01-.08,1.71,9.75-9.04,17.77-13.41,24.63-13.41,7.56,0,12.55,4.83,12.55,12.16,0,2.65-.47,5.22-2.03,11.77-2.42,9.82-3.35,14.73-3.35,16.68,0,1.4.7,2.26,1.87,2.26s2.81-1.33,4.29-3.51c1.95-2.81,3.74-6,4.68-8.34,1.79,4.91,3.12,7.48,6.55,12.55-6,9.82-11.07,13.56-18.55,13.56s-12.24-4.91-12.24-12.55c0-4.37.78-9.04,3.43-20.74.94-4.13,1.4-6.78,1.4-8.03,0-1.4-.86-2.18-2.26-2.18-1.87,0-4.6,1.17-7.41,3.2-5.22,3.66-10.13,8.03-13.49,12.01-.08,3.66-.08,5.92-.08,8.19,0,11.07.23,19.02.62,22.06l-14.11.08c.47-2.81.7-7.02.7-11.93v-8.19c-5.53,6.63-6.78,8.19-7.72,9.75l-6-13.02c2.1-1.64,3.35-2.73,5.46-4.76,5.22-5.3,8.11-8.11,8.5-8.58.08-1.25.16-3.51.23-8.58-5.82.37-9.69.7-11.62,1.01l-.62-12.32c1.79.16,2.73.23,4.05.23,1.95,0,5.22-.16,8.5-.39.05-.63.08-1.46.08-2.49.08-1.64.16-3.59.16-5.38,0-2.42-.08-3.2-.31-5.14m-4.52-4.1l.55,4.58c.22,1.84.28,2.46.28,4.67,0,1.37-.05,2.87-.1,4.11-1.87.1-3.51.16-4.63.16s-1.91-.06-3.71-.22l-4.57-.4.23,4.58.62,12.32.23,4.46,4.41-.72c2.13-.35,2.57-.42,6.89-.7-.02,1.04-.05,1.9-.08,2.61-.38.38-.84.85-1.34,1.34-1.42,1.42-3.44,3.44-6.04,6.08-2,1.92-3.15,2.92-5.1,4.44l-2.5,1.95,1.33,2.88,6,13.02,3.17,6.87,3.89-6.49c.08-.13.16-.26.25-.4-.08,3.34-.29,6.14-.61,8.05l-.78,4.68,4.75-.03,14.11-.08,4.52-.02-.57-4.48c-.37-2.89-.59-10.95-.59-21.55,0-1.89,0-3.84.05-6.65,3.08-3.42,7.31-7.11,11.81-10.26l.02-.02.02-.02c1.18-.85,2.19-1.42,3-1.79-.19,1.07-.5,2.58-.98,4.68-2.74,12.08-3.53,16.92-3.53,21.62,0,9.9,6.53,16.55,16.24,16.55,10.38,0,16.29-6.19,21.97-15.48l1.34-2.2-1.44-2.13c-3.21-4.74-4.41-7.03-6.1-11.68l-3.59-9.83-3.88,9.71c-.43,1.06-1.08,2.37-1.86,3.74.47-2.16,1.11-4.91,1.97-8.4,1.58-6.65,2.14-9.56,2.14-12.73,0-9.52-6.81-16.16-16.55-16.16-5.28,0-10.84,1.99-17.06,6.16l-2.72-2.57c.19-4.02.57-7.8.81-9.23l.76-4.55-4.61-.1-13.8-.31-4.61-.1h0v.04Z"/></g><g><path class="cls-12" d="m1110.7,155.05c-14.31,0-23.2-6.08-23.2-15.88,0-2.7.76-5.15,2.13-7.25-1.64,1.2-3.32,2.58-5.02,4.13l-1.79,1.63-9.68-15.82,2.03-.95c5.96-2.78,18.96-12.61,28.6-21.42-2.82.19-6.53.37-12.61.67-1.95.07-3.32.21-4.78.36l-2.38.24-.74-17.25,2.34.28c3.29.39,6.17.53,10.99.53,7.36,0,15.86-.34,23.31-.93,3.35-.23,4.12-.44,5.31-.94l1.51-.64,8.52,12.57-1.86,1.07c-1.24.72-5.32,4.05-12.25,10-1.79,1.52-3.08,2.61-4.37,3.65.92-.05,1.89-.07,2.99-.07,7.73,0,13.44,1.84,17.99,5.79,4.24,3.8,6.38,8.84,6.38,15,0,8.55-4.06,15.48-11.74,20.04-5.7,3.3-13.59,5.19-21.68,5.19h0Zm-6-16.45c-.39,0-1.04.07-1.04.57,0,.56,1.4,1.38,4.41,1.43-.82-1.33-1.94-2-3.37-2Zm.52-13.9c6.1.05,11.51,2.42,15.25,6.68,1.36,1.49,2.24,2.92,3.07,4.71,2.23-1.41,3.17-3.16,3.17-5.73,0-4.26-4.47-6.81-11.95-6.81-3.16,0-6.38.4-9.53,1.15h-.01Z"/><path class="cls-6" d="m1125.98,84.3l6.39,9.43c-1.35.78-5.54,4.18-12.55,10.21-4.13,3.51-5.54,4.68-10.76,8.5,4.37-1.09,6.63-1.4,10.68-1.4,7.33,0,12.55,1.71,16.68,5.3,3.74,3.35,5.69,7.87,5.69,13.49,0,7.87-3.66,14.11-10.76,18.32-5.38,3.12-12.86,4.91-20.66,4.91-13.17,0-21.2-5.22-21.2-13.88,0-7.25,6.47-12.47,15.51-12.47,5.61,0,10.6,2.18,13.95,6,1.56,1.71,2.42,3.27,3.59,6.16,4.21-1.87,6.16-4.52,6.16-8.5,0-5.46-5.3-8.81-13.95-8.81s-16.99,2.57-24.01,7.17c-2.42,1.56-4.91,3.51-7.48,5.85l-7.25-11.85c7.17-3.35,23.62-16.14,33.29-25.73-4.13.47-7.25.62-18.24,1.17-2.11.08-3.59.23-5.15.39l-.55-12.79c3.27.39,6.16.55,11.23.55,6.94,0,15.59-.31,23.47-.94,3.43-.23,4.44-.47,5.92-1.09m-17.62,58.31c.94,0,1.09,0,2.57-.23-1.01-3.74-3.2-5.77-6.24-5.77-1.79,0-3.04,1.01-3.04,2.57,0,2.1,2.5,3.43,6.7,3.43m19.09-63.27l-3.02,1.27c-.93.39-1.47.57-4.65.79-7.45.59-15.88.93-23.19.93-4.73,0-7.55-.14-10.75-.52l-4.67-.56.2,4.7.55,12.79.18,4.23,4.21-.42.27-.03c1.42-.14,2.77-.28,4.63-.35h.05c2.71-.13,4.95-.25,6.85-.34-8.75,7.51-18.92,15-23.79,17.28l-4.05,1.89,2.33,3.82,7.25,11.85,2.52,4.13,3.17-2.89c-.03.42-.05.84-.05,1.27,0,8.64,6.62,17.88,25.2,17.88,8.43,0,16.69-1.99,22.67-5.45,8.35-4.96,12.75-12.48,12.75-21.78,0-6.66-2.43-12.35-7.02-16.47l-.02-.02-.02-.02c-4.42-3.83-9.79-5.83-16.77-6.21.04-.04.09-.08.13-.11,6.84-5.87,10.83-9.14,11.96-9.8l3.72-2.15-2.41-3.56-6.39-9.43-1.84-2.71h0Zm-5.51,50.69c-1.57-1.79-3.41-3.27-5.45-4.43,4.23.28,8.21,1.63,8.21,4.75,0,.95-.14,1.76-.62,2.51-.6-.97-1.28-1.89-2.14-2.84h0Z"/></g></g><g><g class="cls-3"><g><g><rect class="cls-13" x="106.76" y="141.76" width="7.37" height="29.46"/><circle class="cls-8" cx="110.44" cy="115.98" r="28.73"/></g><path class="cls-11" d="m109.71,135.29c-10.25,0-18.58-8.34-18.58-18.58s8.34-18.58,18.58-18.58,18.58,8.34,18.58,18.58-8.34,18.58-18.58,18.58Zm0-30.7c-6.68,0-12.12,5.44-12.12,12.12s5.44,12.12,12.12,12.12,12.12-5.44,12.12-12.12-5.44-12.12-12.12-12.12Z"/></g></g><path class="cls-2" d="m155.58,149.61l-5.05-14.28c2.97-5.96,4.64-12.68,4.64-19.79,0-24.58-19.92-44.5-44.5-44.5s-44.5,19.92-44.5,44.5,19.92,44.5,44.5,44.5c12.75,0,24.24-5.37,32.35-13.96l12.57,3.53h-.01Z"/></g></g><g><g><path class="cls-12" d="m290.77,227.79c.24-3.12.4-7.76.4-10.23,0-1.68,0-2.32-.24-4l15.03.4c-.4,1.84-.4,2.08-.88,9.67-.05,1.44-.13,2.8-.24,4.08h17.43c2.64,0,3.6-.16,5.36-.88l6.24,5.44c-.88,1.6-1.04,2.24-1.12,5.92-.56,17.11-1.76,30.46-3.36,35.74-2.32,7.44-6.16,10-15.03,10-3.12,0-4.32-.08-10.47-.64-.32-6.4-.88-9.04-2.72-14.07,4,1.04,7.92,1.6,10.39,1.6,3.84,0,4.8-1.28,5.84-8.24.8-5.36,1.52-15.43,1.52-22.31h-15.27c-.43,3.52-.83,6.19-1.2,8-3.52,16.15-11.11,26.55-27.34,37.26-3.6-5.68-6-8.4-10.39-12.15,10.63-5.6,16.79-11.27,20.79-19.35,2-4.08,2.88-6.96,4-13.67h-9.99c-5.36,0-7.04.08-10.79.48l-.08-13.67c4,.56,5.44.64,11.11.64h11.03l-.02-.02Z"/><path class="cls-12" d="m347.7,241.63c3.76.56,8.08.72,16.39.72h38.22c8,0,11.03-.16,16.39-.72v15.43c-3.84-.4-7.36-.48-16.47-.48h-38.06c-8.96,0-11.59.08-16.47.48v-15.43Z"/><path class="cls-12" d="m439.18,284.56c.32-3.36.4-5.68.48-12.23v-46.53c-.08-6.88-.08-7.28-.56-11.59h15.43c-.32,2.08-.32,3.36-.4,11.67v10.95c12.63,4.08,25.19,9.75,36.38,16.63l-7.6,13.59c-6.64-4.72-15.91-9.83-25.19-13.91-2.4-.96-2.64-1.04-2.88-1.2-.24-.08-.4-.16-.72-.4v20.79c0,5.92.16,10.15.48,12.23h-15.43,0Zm36.14-65.88c3.12,3.52,5.68,7.2,7.92,11.43l-7.6,3.68c-2.64-5.04-4.72-8-7.92-11.67l7.6-3.44h0Zm10.63-4.8c2.96,3.2,5.2,6.24,8,11.11l-7.36,3.6c-2.8-5.04-5.04-8.24-7.84-11.43l7.2-3.28h0Z"/><path class="cls-12" d="m523.53,277.37v5.52h-14.55c.48-4.4.64-7.12.64-13.03v-41.1c0-3.44-.08-5.92-.32-9.2,2.8.24,4.4.32,9.67.32h43.1c4.96,0,6.16,0,9.91-.32-.16,2.8-.24,5.68-.24,9.43v40.54c0,6.16.16,10,.56,13.19h-14.47v-5.36h-34.3Zm34.3-44.69h-34.3v31.9h34.3v-31.9h0Z"/><path class="cls-12" d="m588.06,241.63c3.76.56,8.08.72,16.39.72h38.22c8,0,11.03-.16,16.39-.72v15.43c-3.84-.4-7.36-.48-16.47-.48h-38.06c-8.96,0-11.59.08-16.47.48v-15.43h0Z"/><path class="cls-12" d="m678.89,217.96c10.08,5.92,15.27,9.59,21.99,15.67l-9.43,12.47c-6.96-7.28-13.75-12.55-21.75-16.87l9.19-11.27Zm-8.4,49.65c8.16-.64,16.55-2.64,24.07-5.76,10.07-4.16,17.27-10.15,23.43-19.75,3.36-5.12,5.52-9.51,7.84-15.67,3.92,4.72,5.76,6.32,11.75,10.71-7.28,15.75-14.87,25.19-26.07,32.38-8.63,5.6-16.23,8.56-31.1,11.99-3.12.72-3.6.8-5.76,1.44l-4.16-15.35h0Z"/><g><path class="cls-14" d="m773.75,286.45c-1.01,0-1.97-.43-2.63-1.19-.67-.76-.97-1.76-.84-2.76.54-4.14.77-8.52.77-14.64v-47.48h-.5c-3.99,0-7.74.21-11.8.68-.13,0-.26.02-.4.02-.86,0-1.69-.31-2.33-.89-.74-.66-1.17-1.61-1.17-2.61v-18.49c0-1.03.45-2.01,1.24-2.67.64-.54,1.44-.83,2.26-.83.19,0,.38.02.58.05,3.35.56,5.79.65,11.42.65h12.69c7.13,0,8.22,0,12.05-.38.12,0,.23-.02.35-.02.92,0,1.81.36,2.47,1.02.74.74,1.12,1.77,1.02,2.81-.51,5.36-.68,9.48-.68,15.76v52.38c0,6.08.21,10.06.77,14.67.12,1-.19,2-.85,2.75s-1.62,1.18-2.62,1.18h-21.8Z"/><path class="cls-6" d="m758.35,199.08c3.6.6,6.2.7,12,.7h12.69c7.1,0,8.4,0,12.4-.4-.5,5.3-.7,9.5-.7,16.09v52.38c0,6,.2,10.2.8,15.09h-21.79c.6-4.6.8-9.3.8-15.09v-50.98h-4c-3.9,0-7.8.2-12.2.7v-18.49m0-7c-1.64,0-3.25.58-4.52,1.66-1.57,1.33-2.48,3.28-2.48,5.34v18.49c0,1.99.85,3.89,2.34,5.22,1.29,1.15,2.95,1.78,4.66,1.78.26,0,.53,0,.79-.04,2.9-.33,5.63-.53,8.4-.61v43.94c0,5.96-.22,10.21-.74,14.19-.26,2,.35,4.01,1.68,5.52,1.33,1.51,3.25,2.38,5.26,2.38h21.79c2,0,3.91-.86,5.24-2.36s1.95-3.5,1.71-5.49c-.55-4.45-.75-8.31-.75-14.24v-52.38c0-6.08.17-10.09.65-15.23.03-.28.05-.57.05-.86,0-3.85-3.11-6.98-6.96-7h-.16c-.22,0-.45.02-.67.04-3.58.36-4.69.36-11.61.36h-12.69c-5.51,0-7.72-.08-10.85-.6-.38-.06-.77-.1-1.15-.1h0Z"/></g><g><path class="cls-14" d="m832.64,290.46c-.33,0-.65-.04-.97-.14-1.03-.3-1.87-1.06-2.28-2.05l-5.2-12.87c-.36-.89-.34-1.89.06-2.76s1.14-1.54,2.04-1.86c1.21-.42,3.43-1.54,7.32-4.49v-9.89c-1.51,0-2.45.09-4.2.36-.18.03-.35.04-.53.04-.83,0-1.64-.3-2.28-.84-.77-.67-1.22-1.63-1.22-2.66v-12.07c0-1.01.44-1.98,1.21-2.64.64-.56,1.46-.86,2.29-.86.17,0,.33,0,.5.04,2.08.3,3.21.37,6.06.37h4.6c-.19-.17-.37-.35-.53-.56-4.46-5.97-7.19-8.86-13.3-14.06-.75-.64-1.2-1.56-1.23-2.55-.03-.99.35-1.94,1.06-2.62l8.96-8.71c.68-.66,1.56-.99,2.44-.99.79,0,1.58.26,2.22.8,2.16,1.78,4.08,3.45,5.87,5.11v-1.05c0-.97.41-1.91,1.12-2.57.65-.6,1.5-.93,2.38-.93h.27c2.01.15,4.17.23,6.61.23h11.27c4.1,0,5.2,0,6.8-.14.11,0,.21,0,.32,0,.31,0,.62.04.91.12.37-.13.77-.2,1.17-.2h.27c2.01.15,4.17.23,6.61.23h10.95c4.1,0,5.2,0,6.8-.14.11,0,.21,0,.32,0,.97,0,1.9.4,2.57,1.12.74.79,1.06,1.89.89,2.96-.11.67-.11,1.01-.11,2.14v10.23c0,1.7,0,2.75.05,3.49,1.49.52,2.49,2,2.33,3.64-.34,3.53-.98,6.25-2.82,8.17.59.64.92,1.49.92,2.37v9c.18.11.35.24.51.38.74.66,1.17,1.61,1.17,2.61v9.12c0,.48-.1.95-.28,1.38.38,1.07.22,2.24-.4,3.15.72.19,1.36.6,1.84,1.2.77.96.98,2.25.55,3.4-1.43,3.87-2.13,6.84-2.77,11.79-.22,1.7-1.64,2.99-3.35,3.05-7.39.25-18.83.4-30.58.4s-17.11-.44-21.4-1.96c-2.78-.97-5.04-2.3-7.3-4.33-2.23,1.91-4.19,3.36-8.43,6.42-.6.44-1.32.66-2.05.66l-.03-.02Zm12.15-52.52c-.06.06-.13.12-.2.18.97,0,1.62,0,2.21-.04-.1-.62-.15-1.28-.15-1.98v-.03l-1.86,1.86h0Z"/><path class="cls-6" d="m837.44,212.12c5.44,4.48,9.11,8.08,12.71,12.23,2,.16,2.48.16,5.84.16h7.36v-2.32h-7.6c-3.6,0-4.72,0-6.72.24v-8.96c2.08.16,4.32.24,6.88.24h11.27c4.16,0,5.36,0,7.12-.16-.24.8-.24,1.44-.24,2.8l.08,1.6v8.55c0,2.32,0,3.6.16,4.64-1.92-.08-3.52-.16-5.36-.16h-8.63v1.76c0,1.2.24,1.36,2.48,1.36,1.44,0,2.4-.16,2.8-.4.24-.24.48-1.04.48-2.08v-.48c3.52,1.28,6,1.92,9.27,2.32-.56,4.8-1.12,5.92-3.6,7.12v3.84h8.48v-3.44c-2.4-.8-3.44-2.4-3.44-4.96v-6.48c0-1.65-.08-3.39-.24-5.2,2,.16,2.64.16,6.08.16h7.28v-2.32h-6.8c-3.6,0-4.72,0-6.72.24v-8.96c2.08.16,4.32.24,6.88.24h10.95c4.16,0,5.36,0,7.12-.16-.16.96-.16,1.52-.16,2.72v10.23c0,2.4,0,3.6.16,4.64-1.92-.08-3.52-.16-5.36-.16h-8.48v1.84c0,1.04.56,1.36,2.72,1.36,1.36,0,2.56-.16,2.88-.48.16-.16.32-.69.48-1.6v-.96c2.96,1.04,6,1.68,9.99,2.16-.4,4.16-1.12,5.84-2.88,6.88-1.44.88-3.28,1.12-9.12,1.28v2.96h2.64c4.48,0,5.36,0,7.44-.24v9.04c-2.24-.24-3.12-.32-7.44-.32h-2.56v3.52h4.08c4.56,0,5.44,0,7.6-.24v9.12c-2.32-.24-3.2-.24-7.6-.24h-5.52c4.48,1.44,7.52,2.16,13.03,2.8-2.24,2.32-2.48,2.72-4.72,6.16,1.92-.16,3.12-.32,6.72-.8-1.6,4.32-2.32,7.6-2.96,12.55-7.04.24-18.39.4-30.46.4s-16.39-.4-20.23-1.76c-3.2-1.12-5.52-2.72-8.32-5.84-3.44,3.12-4.88,4.24-10.63,8.4l-5.2-12.87c2.32-.8,5.52-2.8,9.67-6.08v-15.11h-3.28c-1.76,0-2.88.08-4.96.4v-12.07c2.24.32,3.52.4,6.56.4h7.68c3.28,0,4,0,6-.24-.16,2.32-.16,3.12-.16,8.96v18.71c2.48,3.6,4.56,4.88,8.55,5.44-2.24-2.72-2.64-3.2-6.24-6.48,4.8-.88,7.44-1.6,11.27-2.96h-6.16c-2.88,0-4.08.08-5.68.32v-9.28c1.76.24,2.56.32,5.52.32h4.08v-3.52h-.72c-4.4,0-5.36.08-7.52.32v-9.04c2.08.24,2.96.24,7.52.24h.72v-2.88c-4.56,0-6.24-.16-7.44-.64-1.92-.8-2.72-2.24-2.72-4.8v-8.47l-7.84,7.83c-4.48-6-7.36-9.11-13.83-14.63l8.96-8.71m34.3,44.3h8.48v-3.52h-8.48v3.52m10.79,8.63h-12.71l5.52,3.6c-4.48,2.8-8.32,4.64-13.27,6.32,2.56.08,6.16.16,9.75.16,4.32,0,13.27-.24,17.59-.48-3.92-1.28-7.04-2.8-11.99-6l5.12-3.6m-45.11-59.93c-1.77,0-3.53.67-4.88,1.98l-8.96,8.71c-1.41,1.37-2.18,3.28-2.11,5.25s.96,3.82,2.46,5.1c3.84,3.28,6.3,5.6,8.73,8.41-1.01-.05-1.76-.13-2.8-.28-.33-.05-.66-.07-.99-.07-1.67,0-3.3.6-4.59,1.71-1.53,1.33-2.41,3.26-2.41,5.29v12.07c0,2.04.89,3.98,2.44,5.31,1.28,1.1,2.9,1.69,4.56,1.69.35,0,.71-.03,1.06-.08.06,0,.12-.02.17-.03v4.34c-2.92,2.1-4.39,2.75-4.96,2.94-1.81.63-3.29,1.97-4.09,3.72-.8,1.75-.84,3.74-.12,5.52l5.2,12.87c.81,2,2.48,3.51,4.55,4.11.64.18,1.29.27,1.94.27,1.46,0,2.89-.45,4.1-1.33,2.9-2.09,4.77-3.46,6.4-4.75,1.87,1.33,3.85,2.32,6.14,3.12,4.71,1.67,9.77,2.15,22.54,2.15,11.79,0,23.27-.15,30.7-.4,3.43-.12,6.27-2.7,6.7-6.1.6-4.62,1.21-7.28,2.5-10.81.33-.81.51-1.71.51-2.64,0-1.92-.77-3.65-2.02-4.92.03-.5,0-1-.07-1.5.11-.49.16-.99.16-1.49v-9.12c0-1.68-.6-3.29-1.68-4.55v-7.44c0-.71-.11-1.4-.31-2.06,1.69-2.87,2-6.09,2.2-8.14.22-2.33-.72-4.51-2.36-5.94v-11.75c0-.94,0-1.16.04-1.4.08-.43.12-.87.12-1.32,0-3.85-3.11-6.98-6.95-7h-.17c-.2,0-.39.02-.58.03-1.35.12-2.33.12-6.41.12h-10.95c-2.34,0-4.42-.07-6.34-.22-.18,0-.36-.02-.53-.02-.44,0-.88.04-1.3.12-.23-.03-.47-.04-.71-.04h-.23c-.19,0-.37.02-.55.03-1.35.12-2.32.12-6.41.12h-11.27c-2.34,0-4.42-.07-6.34-.22-.18,0-.36-.02-.53-.02-1.76,0-3.46.66-4.76,1.86-.07.07-.14.13-.21.2-.7-.6-1.43-1.21-2.18-1.83-1.3-1.07-2.88-1.6-4.45-1.6h0v.03Z"/></g></g><rect class="cls-6" x="205.82" y="226" width="4" height="71" transform="translate(-124.04 223.54) rotate(-45)"/><rect class="cls-6" x="924.32" y="259.51" width="71" height="4" transform="translate(96.21 755.29) rotate(-45)"/></g></g><g><g><g><rect class="cls-11" x="1033.23" y="223.13" width="66.19" height="41.11" rx="3.91" ry="3.91" transform="translate(-27.06 274.37) rotate(-14.48)"/><polygon class="cls-6" points="1035.26 237.93 1039.69 238.72 1038.75 235.08 1035.26 237.93"/><path class="cls-9" d="m1085.38,332.29c-.28-10.84-2.41-14.73-6.47-25.11-4.48-1.61-8.25-5.12-10.18-9.48-1.75-3.94-2-8.37-3.37-12.46-1.1-3.3-2.95-6.42-3.2-9.89-.12-1.63.1-3.35-.61-4.81-.55-1.14-1.67-2.17-1.46-3.43.17-.99,1.2-1.67,2.2-1.72s1.97.4,2.82.96c4.31,2.81,6.26,8.03,7.94,12.89,2.18-5.81,4.36-11.62,6.37-17.44,4.18-1.11,8.35-2.23,12.53-3.34-.91-1.58-1.84-3.28-1.7-5.09.15-1.81,1.92-3.59,3.64-3.03.77.25,1.34.89,1.87,1.5,1.98,2.27,3.95,4.54,5.93,6.8.88,1.02,1.78,2.06,2.28,3.31.49,1.25.51,2.78-.3,3.85,2.12.51,3.52,2.66,3.8,4.82s-.35,4.32-1.03,6.39c-.69,2.07-1.45,4.16-1.46,6.33-.01,2.31.81,4.54,1.04,6.84.47,4.72-1.57,9.29-3.59,13.49,3.06,10.03,7.33,19.69,12.74,28.68l-.11-.17"/></g><polygon class="cls-6" points="1098.16 233.47 1033.87 250.54 1032.58 245.02 1096.87 227.95 1098.16 233.47"/></g><path class="cls-10" d="m1139.18,257.46c-9.41,1.59-10.33,2.88-11.46,16.12-1.13-13.24-2.05-14.53-11.46-16.12,9.41-1.59,10.33-2.88,11.46-16.12,1.13,13.24,2.05,14.53,11.46,16.12Z"/><path class="cls-6" d="m1102.18,207.96c-6.54,1.08-7.17,1.96-7.96,10.96-.78-9-1.42-9.88-7.96-10.96,6.54-1.08,7.17-1.96,7.96-10.96.78,9,1.42,9.88,7.96,10.96Z"/></g></g></g></svg>