<?xml version="1.0" encoding="UTF-8"?>
<svg id="Layer_2" data-name="Layer 2" xmlns="http://www.w3.org/2000/svg" viewBox="0 0 1298 309.35">
  <defs>
    <style>
      .cls-1 {
        fill: #4c4342;
      }

      .cls-1, .cls-2, .cls-3, .cls-4, .cls-5, .cls-6, .cls-7, .cls-8, .cls-9 {
        stroke-width: 0px;
      }

      .cls-2 {
        fill: #4d4d4d;
      }

      .cls-3 {
        fill: #0e95cc;
      }

      .cls-4 {
        fill: #aadde3;
      }

      .cls-5 {
        fill: #666;
      }

      .cls-6 {
        fill: #fdeae1;
      }

      .cls-7 {
        fill: #fff;
      }

      .cls-8 {
        fill: #ffce76;
      }

      .cls-9 {
        fill: #007599;
      }
    </style>
  </defs>
  <g id="Layer_1-2" data-name="Layer 1">
    <g>
      <rect class="cls-3" y="20" width="1298" height="287"/>
      <polygon class="cls-8" points="984 307 305 307 0 20 1298 20 984 307"/>
      <polygon class="cls-3" points="953.42 307 338.4 307 185 20 1093 20 953.42 307"/>
      <g>
        <g>
          <path class="cls-4" d="M1099.79,147.63s-1.22,5.35-2.97,13.59c-1.91-3.15-4.38-5.89-7.57-8.05-6.19-4.19-32.81-20.37-32.81-20.37,0,0-.46.24-1.3.64-5.84,2.82-30.05,13.87-44.26,10.47-6.05-1.58-6.51-6.9-6.42-9.2.03-.66.1-1.08.1-1.08,0,0-34.62,13.29-41.19,23.69-6.84,10.84-17.56,52.18-17.56,52.18l-18.3-30.22c-16.34-.12-30.82,6.71-33.59,14.7,0,0,16.79,46.96,29.37,70.44,9.2,17.18,21.37,19.75,30.54,17,4.59-1.38,13.93-9.98,13.93-9.98l3.11,36.91h116.46c-1.1-9.47-1.78-17.81-1.57-22.74.34-8.15,1.26-14.93,2.72-22.45,3.81,1.98,7.6,3.47,10.94,3.92,12.18,1.66,22.11-8.14,25.78-15.47,9.42-18.82,9.79-100.35,9.79-100.35l-35.2-3.63Z"/>
          <path class="cls-6" d="M1151.73,84.74c-1.03-.71-2.26-.67-3.44-.38-4.86,1.18-19.27,26.8-19.44,28.01,0-.04,4.41-32.49,4.41-32.49.12-4.84-2.21-6.56-4.82-5.74-2.85.9-4.06,4.25-4.45,7.12,0,.06-5,27.65-5,27.65,0,0-6.92-8.79-10.03-9.82-3.23-1.06-10.05,3.74-12.14,5.78-.93,1.08-4.9,7.48-5.32,9.77-3.82-2.93-7.13,2.34-4,5.82,0,0,6.77,7.07,8.57,9.77,1.35,2.03,2.91,5.97,4.32,8.72,1.38,2.71,5.34,6.97,6.42,9.75l21.43,1.9.81-2.39s7.26-16.05,11.53-21.14c4.39-5.23,21.98-15.37,18.21-20.37-1.62-2.15-5.01-.91-7.29.7l-15.45,10.59,16.89-27.73c1.1-1.87.58-4.27-1.21-5.5ZM1106.01,124.57l-3.86-3.59-4.67-3.84s3.29-4.08,4.65-5.15c1.01-.8,3.5-1.91,4.81-1.85,1.82,1.8,4.11,4.52,4.11,4.52l-5.05,9.92Z"/>
        </g>
        <g>
          <path class="cls-7" d="M946.37,165.94l-20.55-61.09c-.59-1.76-2.58-3.63-6.65-3.63l-33,2.33c-1.89.13-2.93,1.74-2.31,3.57l9.74,28.94,3.69,10.96,7.13,21.19c.59,1.76,2.61,3.63,6.65,3.63l33-2.33c1.89-.13,2.93-1.74,2.31-3.57Z"/>
          <path class="cls-6" d="M926.07,153.4l-7.6,6.88-4.16,4.8c1.78-2.91,5-8.06,6.6-10.02,2-2.44,6.8-6.76,8.3-9.78,1.83-3.7-.69-7.88-5.55-4.18,0,0-7.73,6.21-9.97,8.64-1.38,1.5-3.83,4.87-5.85,7.76,2.29-3.85,5.69-9.49,7.37-11.87,1.52-2.15,4.87-6.02,5.67-8.87.12-.42.19-.8.23-1.15.33-3-3.02-4.38-5.45-2.29-2.63,2.25-7.35,7.36-9.48,10.08-.83,1.05-2.09,2.92-3.39,4.92,2.25-4.37,5.29-10.41,7.01-14.39,2.04-4.72-2.24-7.73-5.31-4.6-2.51,2.56-5.55,8.33-7.55,10.99-.35.47-.8,1.11-1.3,1.84l-2.05-6.1c-.31-.11-.63-.22-.97-.33-2.68-.86-5.26,1.58-4.55,4.31l2.41,10.67c-.46.9-.82,1.7-1.02,2.32-.49,1.47-.34,4.66.06,6.19.28,1.05,2.11,9.22,2.69,10.15.63,1.01,8.86,13.85,8.86,13.85l5.21,8.58s6.4-1.92,9.28-3.73c2.72-1.71,7.91-4.56,8.57-6.42,1.52-4.3-.67-8.12-2.98-10.46l3.49-5.01s4.64-5.6,6.01-8.07c2.37-4.27-.82-8.07-4.56-4.69Z"/>
        </g>
        <g>
          <path class="cls-5" d="M1049.64,13.91c-3.3-3.79-8.12-7.97-12.62-9.74-9.4-3.7-20.75-1.76-20.8-1.16-.05.5,5.29.03,10.93,3.54-4.65-.67-9.41-.81-13.43-.04-14.45,2.77-27.05,14.02-26.67,14.81.21.43,3.06-1.52,7.77-2.91-2.91,1.87-5.57,3.96-7.61,6.21-10,11.01-13.84,20.93-14.46,26.92-.04.42,2.78-2.33,4.65-4.07-2.89,14.97,1.73,21.27,4.54,23.58,0-2.47.03-4.78.06-6.81,8.59-5.78,19.81-17.33,24.28-23.07-.19,5.13-1.8,11.79-6.95,17.04,9.04-.46,22.51-8.53,29.72-13.92-2.23,5.88-5.13,11.92-8.12,15.42,3.75-.68,12.28-2.77,19.65-10.03,2.2-2.16,3.87-4.38,5.16-6.43,11.71,12.77,11.8,32.73,15.62,31.8-.29,1.42-.62,2.94-1,4.59.67-.63,1.3-1.13,1.86-1.45,4.51-2.6,8.42-.36,9.78,3.73.58,1.75.76,3.54.6,5.3,3.68-8.71,6.2-14.97,6.37-21.68,1.26,4.53,1.12,7.97,1.57,7.95.63-.02,3.49-19.09-2.88-31.85l4.12,3.41c.54-.24-6.94-31.96-32.12-31.14Z"/>
          <path class="cls-6" d="M1071.98,81.91c-1.36-4.08-5.27-6.33-9.78-3.73-.55.32-1.19.82-1.86,1.45.39-1.65.71-3.17,1-4.59-3.82.94-3.91-19.02-15.62-31.8-1.29,2.05-2.97,4.26-5.16,6.43-7.37,7.25-15.9,9.35-19.65,10.03,2.99-3.5,5.89-9.54,8.12-15.42-7.21,5.4-20.68,13.46-29.72,13.92,5.15-5.25,6.76-11.91,6.95-17.04-4.47,5.74-15.69,17.28-24.28,23.07-.04,2.03-.06,4.34-.06,6.81,0,10.59.44,24.14,2.47,31.55,3.04,11.09,15.15,21.33,24.69,23.04.06,1.53.05,2.93-.1,3.97-.2,1.44-2.21,3.35-4.54,5.12-.1,2.3.36,7.62,6.42,9.2,14.21,3.4,38.42-7.65,44.26-10.47-.56-.6-.95-1.09-1.05-1.43-2.28-7.46-2.4-19.07-2.16-26.76.82-1.24,1.62-2.54,2.4-3.91,4,2.37,10.5-1.84,13.23-4.36,2.9-2.69,4.7-6.15,5.03-9.76.16-1.76-.02-3.55-.6-5.3Z"/>
          <path class="cls-7" d="M1005.75,102.89c2.14,6.04,5.01,9.69,7.93,9.96,2.87.27,6.29-2.74,9.41-8.16l-17.34-1.8Z"/>
        </g>
        <g>
          <path class="cls-1" d="M1074.21,167.75c3.71-3.35,7.25-4.88,10.58-4.54,1.08.11,2.05-.68,2.16-1.77.11-1.08-.68-2.05-1.77-2.16-4.45-.45-9.05,1.41-13.62,5.54-10.66,9.64-19.25,30.51-19.25,41.36,0,1.09.88,1.97,1.97,1.97s1.97-.88,1.97-1.97c0-9.99,8.28-29.69,17.95-38.43Z"/>
          <path class="cls-1" d="M921.78,109.78l19.25,57.21c.16.48.61.78,1.09.78.12,0,.24-.02.37-.06.6-.2.92-.85.72-1.45l-19.24-57.19c-1.41-4.43-3.27-4.44-7.83-4.42l-26.32,1.86c-.63.04-1.11.59-1.06,1.23.04.63.58,1.11,1.23,1.06l26.24-1.85c4.4,0,4.66,0,5.57,2.84Z"/>
          <path class="cls-1" d="M897.89,119.32c.56-.04,1.06-.33,1.37-.8.31-.46.39-1.04.21-1.57l-1.36-4.03c-.26-.78-1.01-1.28-1.83-1.22l-2.89.2c-.55.04-1.06.33-1.37.8-.31.46-.39,1.04-.21,1.57l1.36,4.03c.25.74.94,1.23,1.7,1.23.04,0,.09,0,.13,0l2.89-.2Z"/>
          <path class="cls-2" d="M1160.35,105.49c-2-2.66-6.02-2.54-9.98.26l-7.86,5.39,12.12-19.9c1.62-2.74.84-6.31-1.78-8.13h0c-1.35-.93-3.04-1.16-5.03-.68-3.69.9-10.69,11.33-15.57,19.59.65-4.8,1.6-11.77,2.97-21.89,0-.07.02-.15.02-.22.1-4.09-1.34-6.05-2.57-6.97-1.35-1.01-3.06-1.26-4.82-.71-3.11.98-5.17,4.08-5.8,8.67-.06.32-2.86,15.81-4.24,23.46-2.5-2.88-5.92-6.41-8.23-7.16-4.78-1.57-12.76,4.9-14.13,6.24-.04.04-.08.08-.12.13-.76.89-3.52,5.16-4.95,8.35-1.84-.42-3.52.28-4.59,1.43-1.8,1.94-2.32,5.55.29,8.45,1.85,1.93,6.95,7.4,8.35,9.5.76,1.15,1.68,3.14,2.56,5.07.54,1.18,1.1,2.4,1.64,3.46.66,1.29,1.95,3.15,3.31,5.12.22.32.45.66.68.99l-2.61-.27c-.99-.1-1.91.55-2.13,1.52-.03.11-.82,3.62-2.04,9.27-1.56-1.83-3.37-3.49-5.47-4.92-6.16-4.17-31.81-19.76-32.9-20.42-.49-.3-1.08-.35-1.62-.18-2-7.03-2.15-17.7-1.95-25.08.44-.67.87-1.35,1.29-2.06,4.89,1.2,10.93-2.79,13.72-5.37,3.24-3,5.17-6.8,5.62-10.7,1.93-4.58,3.63-8.68,4.79-12.62.32.23.75.37,1.28.35.7-.02,1.34-.4,1.71-1.03,1.1-1.84,2.76-15.61-.52-27.41.27,0,.54-.06.8-.17,1.61-.72,1.21-2.47.92-3.74-2.51-10.9-12.58-31.19-32.89-31.19h-.08c-2.11-2.32-7.15-7.38-12.77-9.59-8.97-3.53-20.49-2.32-22.46-1.11-.59.36-.96.94-1.03,1.6-.06.68.13,1.17.46,1.52-.47.07-.92.14-1.37.23-14.19,2.72-26.8,13.23-28.02,15.66-.44.87-.22,1.59-.05,1.94.2.4.44.68.71.87-.08.08-.16.17-.23.25-8.53,9.39-14.12,19.87-14.96,28.04-.08.82.36,1.65,1.1,2.01.91.45,1.47.38,2.77-.68-.97,11.02,2.45,16.56,5.29,19.22.02,10.57.51,23.77,2.55,31.22,3.16,11.53,14.99,21.54,24.65,24.1,0,.82-.03,1.55-.11,2.12-.09.51-.85,1.37-2.03,2.4-.38-.09-.78-.08-1.16.06-1.44.55-35.31,13.65-42.15,24.48-5.64,8.94-13.6,37.14-16.6,48.24l-15.89-26.25c-.36-.59-.99-.95-1.67-.95-.35,0-.69,0-1.03.01-.25-1.78-.92-3.34-1.69-4.62l19.38-1.37c1.46-.1,2.73-.81,3.48-1.94.76-1.15.93-2.62.45-4.04l-20.55-61.09c-.39-1.15-2.13-4.88-8.37-4.88-.05,0-.11,0-.16,0l-33,2.33c-1.46.1-2.73.81-3.48,1.94-.76,1.15-.93,2.62-.45,4.05l8.72,25.92c-1.14.14-2.22.63-3.11,1.47-1.47,1.39-2.07,3.47-1.58,5.37l2.26,9.98c-.35.73-.64,1.39-.82,1.95-.66,1.99-.43,5.6.03,7.32.06.23.19.79.37,1.55,1.48,6.24,2.07,8.37,2.55,9.13.63,1.01,8.54,13.35,8.85,13.84l.25.42c-3.75,2.48-6.45,5.45-7.57,8.69-.15.43-.15.89,0,1.31.17.47,16.98,47.37,29.49,70.71,11.59,21.63,26.83,19.77,32.85,17.96,3.32-1,8.46-5.03,11.73-7.8l2.41,32.01c.08,1.03.94,1.83,1.97,1.83,1.15,0,2.06-.98,1.97-2.12l-2.74-35.9c-.23-5.54-.68-11.94-1.15-18.72-1.55-22.38-3.48-50.23.47-70.92.21-1.07-.5-2.1-1.57-2.31-1.07-.21-2.1.5-2.31,1.57-4.05,21.19-2.1,49.32-.53,71.93.44,6.39.86,12.44,1.1,17.72-2.95,2.64-9.34,7.99-12.48,8.93-5.09,1.53-18.02,3.01-28.23-16.05-10.47-19.54-24.05-55.93-28.08-66.94,3.65-.43,11.79-2.18,19.05-6.67,2.27-1.41,9.25-5.54,9.97-7.59.12-.35.22-.69.31-1.03.04,0,.08,0,.12,0l17.7,29.23c.31.57,8.35,15.17,10.97,24.06.25.86,1.04,1.42,1.89,1.42.18,0,.37-.03.56-.08,1.05-.31,1.64-1.41,1.34-2.45-2.48-8.41-9.24-21.08-10.94-24.19,1.49-5.63,11.02-41.19,17.12-50.87,4.66-7.39,26.53-17.38,37.47-21.81.36,3.53,2.27,7.8,7.9,9.27,15.25,3.64,40.53-8.14,45.93-10.78,4.76,2.9,26.38,16.08,31.8,19.75,2.72,1.84,4.87,4.16,6.59,6.8-2.88,13.59-7.07,34.47-9.68,52.25-.16,1.08.59,2.08,1.67,2.24,1.08.16,2.08-.59,2.24-1.67,3.72-25.32,10.68-57.02,12.38-64.65l31.67,3.27c-.13,12.03-1.22,81.01-9.56,97.68-3.19,6.38-12.46,15.94-23.75,14.4-12.64-1.73-32.8-19.6-33-19.78-.81-.73-2.06-.65-2.79.16-.73.81-.65,2.06.16,2.79.62.55,11.18,9.92,22.22,15.93-1.32,7.04-2.16,13.57-2.49,21.31-.16,3.87.2,13.27,1.07,22.03.1,1.01.95,1.79,1.97,1.79,1.17,0,2.08-1,1.96-2.16-.86-8.66-1.22-17.79-1.06-21.49.3-7.1,1.05-13.17,2.22-19.62,3.19,1.48,6.34,2.57,9.21,2.97,1.03.14,2.04.21,3.03.21,11.96,0,21.24-9.68,24.78-16.75,9.52-19.02,9.98-97.87,10-101.22,0-1.02-.76-1.87-1.77-1.97l-4.17-.43v-.27c1.14-2.5,7.37-15.89,11.06-20.28,1.27-1.52,3.98-3.66,6.85-5.92,7.45-5.88,15.15-11.96,11.42-16.9ZM885.59,106.53c-.11-.34-.11-.65.02-.84.16-.24.5-.3.68-.31l32.93-2.32c3.76.01,4.66,1.82,4.85,2.37l20.55,61.09c.11.34.11.65-.02.84-.16.24-.5.3-.68.31l-18.88,1.33,1.15-1.65c.55-.67,4.78-5.83,6.16-8.31,1.67-3.01,1.36-6.3-.77-7.99-.84-.67-2.08-1.09-3.52-.85,1.21-1.39,2.29-2.79,2.92-4.06,1.37-2.78.97-5.84-.98-7.46-.72-.6-3.41-2.31-7.57.86-.07.06-.48.39-1.09.88.64-1.07,1.16-2.14,1.44-3.16.14-.51.24-1,.29-1.47.23-2.09-.73-3.97-2.5-4.9-1.94-1.02-4.37-.67-6.2.9-.74.63-1.63,1.48-2.59,2.43,1.26-3.37.03-6.1-1.82-7.35-2.12-1.42-4.89-1-6.89,1.04-1.71,1.75-3.55,4.71-5.18,7.32-.61.98-1.2,1.91-1.73,2.71l-10.58-31.43ZM889.98,139.53c-.22-.83.24-1.37.45-1.57.16-.15.54-.44,1.08-.44.15,0,.32.02.5.08.06.02.11.04.17.06l1.36,4.05c-.71,1.07-1.5,2.3-2.27,3.56l-1.3-5.74ZM896.85,192.58c1.06-1.58,2.7-3.14,4.82-4.58l1.96,3.23c-2.7.74-5.15,1.14-6.77,1.35ZM922.99,165.03l-5.41,7.79c-.62.9-.4,2.13.49,2.75.34.24.74.35,1.13.35.62,0,1.24-.3,1.62-.85l.43-.62c1.09,1.67,1.91,3.94,1.01,6.5-.84,1.76-10.81,8.26-14.92,9.06-.98-1.72-4.62-7.87-4.62-7.87-.08-.13-7.98-12.45-8.81-13.77-.42-.95-1.68-6.26-2.09-8.02-.19-.8-.33-1.41-.4-1.65-.36-1.36-.41-4.11-.1-5.07.87-2.64,5.24-9.55,7.18-12.14.81-1.07,1.74-2.57,2.72-4.15,1.52-2.44,3.25-5.2,4.65-6.64.66-.67,1.35-.87,1.87-.53.58.39.87,1.46.22,2.96-1.68,3.89-4.68,9.85-6.92,14.19-2.44,3.75-4.97,7.89-5.13,8.16-.57.93-.27,2.14.66,2.71.93.57,2.14.27,2.71-.66.06-.1,6.1-9.98,8.42-12.93,2.07-2.63,6.73-7.67,9.22-9.8.72-.62,1.41-.6,1.79-.4.33.17.47.5.41.98-.03.25-.08.53-.17.84-.51,1.84-2.57,4.54-4.07,6.51-.5.65-.95,1.25-1.31,1.75-1.72,2.43-5.11,8.06-7.42,11.94-1.78,2.53-3.21,4.66-3.34,4.85-.61.9-.37,2.13.53,2.74.91.61,2.13.37,2.74-.53.07-.1,6.51-9.66,9.03-12.4,2.11-2.29,9.67-8.38,9.71-8.41,1.28-.97,2.29-1.21,2.62-.93.38.31.58,1.41-.04,2.66-.87,1.76-3.33,4.33-5.3,6.4-1.06,1.1-2.05,2.15-2.75,3.01-1.66,2.03-4.85,7.13-6.68,10.1l-2.78,3.21c-.71.82-.63,2.07.2,2.78.82.71,2.07.63,2.78-.2l6.98-8.05,7.51-6.8c.81-.73,1.48-.91,1.73-.71.35.28.64,1.43-.22,2.98-1.05,1.89-4.55,6.25-5.81,7.77-.03.04-.07.09-.1.13ZM980.35,65.34c.19.28.44.48.71.63-.15.08-.32.14-.47.21-1.75-3.28-3.08-8.91-1.26-18.34.16-.84-.23-1.69-.98-2.1-.74-.41-1.67-.3-2.29.27,1.62-4.75,5.1-11.8,12.61-20.06,1.8-1.98,4.23-3.96,7.22-5.88.83-.53,1.14-1.59.73-2.48-.22-.48-.61-.84-1.08-1.02,4.68-3.16,11.35-6.74,18.56-8.12,3.47-.66,7.88-.64,12.78.06.92.13,1.82-.4,2.13-1.28.32-.88-.02-1.86-.81-2.35-.51-.32-1.01-.6-1.51-.86,3.04.18,6.44.74,9.62,2,4.32,1.7,8.96,5.87,11.86,9.2.39.45.96.69,1.55.68,16.98-.58,25.59,15.3,28.71,23.94-.65-.28-1.43-.19-2.01.27-.73.58-.95,1.59-.54,2.43,3.27,6.55,3.98,14.92,3.86,21.2-.31-.13-.67-.19-1.02-.15-.97.12-1.71.93-1.73,1.91-.12,4.7-1.5,9.26-3.61,14.62-1.01-2.13-2.65-3.75-4.64-4.51-1.43-.54-2.98-.63-4.54-.28.4-.54.53-1.27.25-1.94-.42-1.01-1.58-1.48-2.58-1.06-.25.1-.32.07-.39.04-1.51-.69-3.29-6.14-4.73-10.52-2.16-6.58-4.84-14.77-9.56-19.91-.42-.45-1.01-.69-1.63-.63-.61.06-1.16.39-1.49.91-1.4,2.23-3.05,4.27-4.88,6.08-4.44,4.37-9.37,6.84-13.66,8.24,2.36-4.01,4.26-8.63,5.36-11.53.31-.82.04-1.75-.66-2.28-.7-.53-1.67-.53-2.37,0-6.77,5.07-16.3,10.57-23.8,12.67,3.31-5.29,4.07-10.87,4.19-14.13.03-.86-.49-1.64-1.3-1.93-.8-.29-1.71-.03-2.23.64-4.43,5.68-15.45,17.02-23.82,22.65-.9.61-1.14,1.84-.53,2.74ZM1011.36,142.01c-4.07-1.06-4.88-4.25-4.96-6.29,2.37-1.92,4.29-4,4.54-5.85.08-.58.12-1.26.13-2,1.36.13,2.84.21,4.41.21,9.74,0,23.12-3.07,34.36-16.71.03,7.06.53,15.32,2.34,21.23,0,.01.01.03.02.05-8,3.68-28.63,12.3-40.85,9.37ZM1052.6,100.36c-13.22,23.29-32.21,24.69-42.36,23.44-8.6-1.06-20.93-10.78-23.94-21.74-2.35-8.59-2.51-26-2.35-36.78,6.34-4.45,13.91-11.71,19.23-17.5-.9,2.96-2.49,6.21-5.27,9.04-.57.58-.73,1.45-.39,2.19.33.74,1.09,1.19,1.9,1.16,7.64-.39,17.82-5.7,25.19-10.43-1.75,3.74-3.53,6.73-5.19,8.68-.54.63-.63,1.54-.21,2.26.42.72,1.24,1.11,2.06.96,5.56-1.01,13.67-3.66,20.68-10.56,1.41-1.39,2.72-2.9,3.91-4.52,3.21,4.53,5.27,10.84,7.13,16.5,2.03,6.21,3.54,10.8,6.23,12.54-.24,1.12-.5,2.31-.8,3.59-.2.85.18,1.72.94,2.16.76.43,1.7.32,2.34-.27.72-.68,1.21-1.01,1.49-1.18,1.5-.86,2.93-1.07,4.14-.61,1.24.47,2.25,1.66,2.78,3.25,1.47,4.42-.03,9.4-3.9,12.99-2.92,2.7-8.32,5.63-10.88,4.12-.46-.27-1-.35-1.51-.21-.51.14-.95.47-1.21.93ZM1146.48,119.3c-3.16,2.5-5.89,4.66-7.43,6.49-4.39,5.24-11.52,20.93-11.82,21.59-.12.27-.18.56-.17.85v.23s-19.35-2-19.35-2c-.77-1.2-1.65-2.48-2.54-3.76-1.23-1.77-2.5-3.61-3.04-4.66-.5-.98-1.04-2.16-1.57-3.31-.95-2.07-1.93-4.2-2.86-5.61-1.87-2.82-8.5-9.75-8.74-10-1.07-1.19-.81-2.52-.28-3.09.09-.1.27-.29.6-.29.13,0,.28.03.45.1.42,1.23,1.48,2.35,2.97,3.09.99.49,2.02.74,2.99.74.53,0,1.04-.08,1.52-.22l3.65,3.01,3.81,3.55c.37.34.85.53,1.34.53.11,0,.23,0,.34-.03.61-.11,1.13-.5,1.41-1.05l5.05-9.92c.36-.71.26-1.56-.25-2.17-.1-.11-2.37-2.81-4.24-4.65-.35-.34-.81-.55-1.3-.57-1.91-.08-4.85,1.27-6.12,2.28-1.33,1.05-3.87,4.12-4.75,5.2-.26.13-.7.13-1.18-.01-.77-.23-1.3-.69-1.47-.96.61-2.01,3.79-7.29,4.74-8.46,2.54-2.43,8.3-5.84,10.08-5.25,1.57.52,5.95,5.16,9.1,9.16.48.61,1.27.88,2.03.69.75-.19,1.33-.8,1.46-1.56,5-27.63,5.01-27.67,5.02-27.73.2-1.42.89-4.81,3.09-5.51.53-.17.95-.14,1.26.1.25.18,1.04.99.99,3.61-.28,2.07-4.35,32.06-4.39,32.34h0s0,.02,0,.03c-.15,1.07.6,2.07,1.67,2.22,1,.15,1.95-.5,2.2-1.46,1.18-3.11,14.51-25.54,17.99-26.58,1.14-.28,1.6-.08,1.85.09.93.64,1.2,1.9.64,2.85l-16.89,27.73c-.48.79-.35,1.82.33,2.46.67.64,1.7.72,2.47.2l15.47-10.61c1.7-1.2,3.92-1.98,4.57-1.12,1.4,1.86-7.09,8.57-10.72,11.43ZM1100.27,116.87c1.15-1.36,2.47-2.85,3.09-3.34.62-.49,1.97-1.09,2.86-1.33.89.93,1.83,1.98,2.48,2.73l-3.26,6.41-1.94-1.81s-.06-.05-.09-.08l-3.14-2.59Z"/>
          <path class="cls-1" d="M1116.72,141.66c-.41,0-.82-.12-1.17-.38-.88-.65-1.07-1.88-.42-2.76,4.45-6.04,8.98-10.27,14.69-13.7.93-.56,2.15-.26,2.71.68.56.93.26,2.15-.68,2.71-5.31,3.19-9.36,6.98-13.55,12.66-.39.53-.99.8-1.59.8Z"/>
          <g>
            <path class="cls-1" d="M1003.08,78.2c-.8,0-1.55-.49-1.85-1.27-.42-1.1-1.31-1.81-2.4-1.91-1.08-.1-2.1.45-2.7,1.46-.56.94-1.77,1.24-2.71.69-.94-.56-1.24-1.77-.69-2.71,1.37-2.31,3.82-3.6,6.43-3.37,2.59.23,4.8,1.93,5.75,4.44.39,1.02-.13,2.16-1.15,2.55-.23.09-.47.13-.7.13Z"/>
            <path class="cls-1" d="M1039.25,81.37c-.8,0-1.55-.49-1.85-1.27-.42-1.1-1.31-1.81-2.4-1.91-1.1-.09-2.1.45-2.7,1.46-.56.94-1.77,1.24-2.71.69-.94-.56-1.24-1.77-.69-2.71,1.37-2.31,3.85-3.6,6.43-3.37,2.59.23,4.8,1.93,5.75,4.44.39,1.02-.13,2.16-1.15,2.54-.23.09-.47.13-.7.13Z"/>
            <path class="cls-1" d="M1010.98,91.36h-.02c-1.51-.1-2.9,1.05-2.97,1.81-.1.96,1.37,1.49,2.68,1.66,1.31.07,2.86-.2,2.93-1.17.07-.77-1.1-2.13-2.61-2.3Z"/>
            <path class="cls-1" d="M1040.58,68.84c-.29,0-.58-.06-.86-.2-2.41-1.17-5.2-1.5-7.85-.94-1.07.23-2.11-.45-2.34-1.52-.23-1.07.45-2.11,1.52-2.34,3.51-.75,7.2-.31,10.4,1.25.98.48,1.39,1.66.91,2.64-.34.7-1.04,1.11-1.78,1.11Z"/>
            <path class="cls-1" d="M1001.28,65.11c-.25,0-.5-.05-.74-.14-2.48-1-5.36-1.16-7.9-.44-1.04.3-2.14-.31-2.44-1.36-.3-1.05.31-2.14,1.36-2.44,3.41-.97,7.13-.77,10.45.58,1.01.41,1.5,1.56,1.09,2.57-.31.77-1.05,1.23-1.83,1.23Z"/>
            <path class="cls-1" d="M1014.14,115.5c-.22,0-.43-.01-.63-.03-3.13-.28-7.45-2.8-10.29-13.16-.16-.58-.02-1.21.37-1.67.39-.46.98-.7,1.59-.64l19.18,1.99c.59.06,1.12.41,1.41.93.29.52.31,1.15.05,1.69-4.27,8.86-8.6,10.88-11.68,10.88ZM1007.57,103.93c1.69,4.78,3.96,7.67,6.27,7.88,2.27.22,4.97-2.16,7.44-6.45l-13.71-1.43Z"/>
          </g>
        </g>
      </g>
      <path class="cls-8" d="M130.32,220.58c-20.19,3.41-22.16,6.18-24.58,34.58-2.42-28.4-4.39-31.17-24.58-34.58,20.19-3.41,22.16-6.18,24.58-34.58,2.42,28.4,4.39,31.17,24.58,34.58Z"/>
      <path class="cls-7" d="M367.08,242.58c-12.6,2.13-13.83,3.85-15.34,21.58-1.51-17.72-2.74-19.45-15.34-21.58,12.6-2.13,13.83-3.85,15.34-21.58,1.51,17.72,2.74,19.45,15.34,21.58Z"/>
      <path class="cls-8" d="M1208.08,178.58c-12.6,2.13-13.83,3.85-15.34,21.58-1.51-17.72-2.74-19.45-15.34-21.58,12.6-2.13,13.83-3.85,15.34-21.58,1.51,17.72,2.74,19.45,15.34,21.58Z"/>
      <g>
        <g>
          <g>
            <rect class="cls-9" x="581.18" y="93.07" width="162.08" height="13.3" rx="5.5" ry="5.5"/>
            <g>
              <path class="cls-7" d="M474.44,77.72c-1.97.05-3.03.1-4.44.25v-6.2c1.51.2,2.88.25,5.85.25h35.11c2.93,0,4.24-.05,5.75-.25v6.2c-1.67-.2-2.98-.25-5.9-.25h-16.9v16.7c1.92-.76,2.82-1.16,4.39-2.07-1.36-1.51-2.02-2.47-3.53-4.94l5.19-2.12h-.91c-1.87,0-2.88.05-4.03.2v-6.46c1.21.15,2.17.2,4.24.2h8.73c1.61,0,2.88-.05,3.73-.2l3.58,3.88q-.3.45-1.21,2.27c-1.41,2.62-3.03,4.89-4.99,7.11,2.52,1.06,4.44,1.61,8.22,2.27-1.51,2.47-2.32,4.14-3.28,7.16-4.84-1.61-7.52-2.83-10.29-4.64-2.42,1.77-4.19,2.77-7.62,4.39-.76-1.97-1.16-2.72-2.22-4.44,0,1.97.1,3.28.25,4.64h-7.72c.15-1.16.2-2.17.25-4.69-4.19.81-5.5,1.01-13.32,2.12-.71.1-1.26.2-2.17.45l-1.51-7.36c.45.05.71.05,1.01.05.56,0,1.41-.05,3.73-.2v-14.33ZM511.87,66.07c0,2.22.05,3.43.2,4.64-.5,0-1.87-.05-4.14-.1h-28.09c-2.32,0-3.53.05-4.99.15.15-1.31.2-2.52.2-4.69v-6c0-2.17-.05-3.43-.2-4.74,1.66.15,2.88.2,5.3.2h26.63c2.42,0,3.63-.05,5.3-.2-.15,1.26-.2,2.42-.2,4.74v6ZM481.55,79.33h5.15v-1.61h-5.15v1.61ZM481.55,85.18h5.15v-1.77h-5.15v1.77ZM481.55,91.44c.96-.1,2.67-.3,5.15-.6v-1.56h-5.15v2.17ZM482.41,61.48h21.99v-1.51h-21.99v1.51ZM482.41,66.52h21.99v-1.46h-21.99v1.46ZM500.87,85.28c1.06,1.67,1.46,2.22,2.57,3.33,1.21-1.16,1.82-1.87,2.77-3.33h-5.35Z"/>
              <path class="cls-7" d="M533.11,66.77c-1.01,2.32-1.56,3.33-3.18,5.85-1.87-2.37-3.43-3.68-5.65-5.04,2.27-3.23,3.58-6.05,4.79-10.19.5-1.61.61-2.32.71-3.63l7.31,1.11c-.2.61-.5,1.56-.81,2.72-.15.76-.25,1.06-.61,2.22h4.64c2.22,0,3.48-.05,4.79-.25v7.41c-1.26-.15-2.17-.15-4.19-.2q-.05,4.19-.2,6.56h.5c2.12,0,3.08-.05,4.44-.25v7.47c-1.31-.15-2.47-.2-4.74-.2h-.66c1.67,3.68,3.33,5.8,6.76,8.83-2.12,2.67-2.93,3.93-4.34,7.16-2.37-2.57-3.63-4.24-5.09-6.91-2.02,4.74-4.34,8.12-8.22,11.8-1.41-2.83-2.62-4.49-4.84-6.66,4.59-3.78,7.21-8.27,8.32-14.22h-2.02c-2.67,0-3.88.05-5.5.3v-7.62c1.61.25,2.67.3,5.65.3h2.62q.1-2.17.1-6.56h-.6ZM551.98,82.51c-2.12,0-3.53.05-5.25.15.15-1.66.2-2.98.2-5.35v-6.76c0-2.47-.05-3.83-.2-5.5,1.51.1,3.23.15,5.8.15h12.01c2.52,0,4.29-.05,5.8-.15-.15,1.76-.2,2.92-.2,5.5v6.76c0,2.52.05,3.58.2,5.35-1.82-.1-3.13-.15-5.3-.15h-1.46l6.05,2.22c-1.61,4.84-1.82,5.45-3.23,8.37h.45c2.67,0,3.78-.05,5.65-.2v7.57c-1.77-.2-3.03-.25-5.65-.25h-16.65c-2.62,0-3.83.05-5.65.25v-7.57c1.87.15,2.98.2,5.65.2h1.01c-1.11-3.13-2.22-5.45-3.78-7.97l5.75-2.62h-1.21ZM546.12,55.62c1.82.2,2.88.25,5.65.25h14.32c2.77,0,3.88-.05,5.65-.25v7.47c-1.82-.15-3.18-.2-5.65-.2h-14.32c-2.42,0-3.83.05-5.65.2v-7.47ZM554.35,82.51c1.76,3.08,1.87,3.33,3.98,8.07l-5.65,2.52h6.15c1.41-3.38,2.42-6.66,3.28-10.59h-7.77ZM554.2,75.7h8.42v-3.73h-8.42v3.73Z"/>
              <path class="cls-8" d="M642.63,94.33c-2.06-2.06-3.63-4.44-4.57-6.94-1.63-4.44-2.44-9.26-2.44-14.32,0-6.57,1.56-13.39,3.94-17.33,3.82-6.38,10.32-9.88,18.2-9.88,6.07,0,11.38,2.06,15.2,5.82,2.06,2.06,3.63,4.44,4.57,6.94,1.63,4.44,2.44,9.26,2.44,14.39,0,6.57-1.56,13.45-3.94,17.39-3.75,6.25-10.32,9.76-18.26,9.76-6.13,0-11.32-2-15.14-5.82ZM648.45,72.57c0,11.2,3.19,16.95,9.38,16.95s9.26-5.63,9.26-16.76-3.25-16.33-9.32-16.33-9.32,5.94-9.32,16.14Z"/>
              <path class="cls-8" d="M707.8,73.07c-1.69,0-2.81.06-4.25.25v-3.5c-3,3.13-4.5,4.44-7.76,6.94-2-3.56-3.56-5.82-6.38-8.82,7.19-5,12.07-10.57,15.76-17.83,1.25-2.44,1.88-4,2.19-5.82l10.26,3.75c-.63,1.06-.94,1.63-1.63,3.19-1.75,3.82-4.88,9.01-7.94,13.14h23.58c-3.31-4.25-5.82-8.57-8.07-13.76-.38-.94-.81-1.81-1.19-2.69l9.32-3.56c.5,1.69,1,2.88,2.56,5.75,3.75,6.88,9.01,12.32,16.14,16.7-3,3.75-3.75,4.88-6.32,9.57-2.69-2-3.75-2.88-5.32-4.32-.06,12.57-.94,21.08-2.5,24.46-1.69,3.63-4.69,4.82-12.45,4.82q-.62,0-4.44-.06c-.44-3.69-1-5.75-2.69-10.01,2.63.38,5.13.56,6.63.56,3.25,0,4-.44,4.63-3.07.63-2.44,1.06-8.63,1.06-15.7h-9.51c-.69,6.76-2.06,11.07-5,15.95-2.44,4-5.75,7.51-9.88,10.38-1.94,1.31-3.25,2.06-6.26,3.44-2-3.57-3.25-5.32-6.19-8.51,7.32-2.94,11.82-6.5,14.57-11.51,1.75-3.13,2.44-5.69,2.69-9.76h-1.63Z"/>
              <path class="cls-7" d="M758.54,60.26c.86.05,1.51.05,1.92.05,1.31,0,3.13-.1,8.63-.45,7.26-.45,12.16-.71,21.74-1.06l5.19-.2,2.12-.1c1.72-.05,2.02-.1,2.27-.1.35,0,.56-.05,1.16-.2l.45,9.13c-.71-.1-.91-.1-1.41-.1-3.53,0-8.07,1.36-11.55,3.53-5.04,3.08-8.02,7.31-8.02,11.45,0,2.92,1.36,4.89,4.24,6.25,2.02,1.01,6.46,1.82,9.63,1.82.4,0,.76,0,1.51-.05l-1.16,9.58c-.71-.15-.86-.15-1.87-.25-5.75-.5-9.53-1.36-12.76-2.82-5.95-2.77-9.03-7.41-9.03-13.82,0-4.19,1.41-7.97,4.29-11.4,1.31-1.61,2.52-2.62,4.94-4.29l-2.37.25c-1.11.1-2.88.25-12.31,1.01-4.69.5-4.94.5-7.11.96l-.5-9.18ZM794.3,71.77c2.02,2.32,3.53,4.54,4.89,7.31l-4.84,2.22c-1.56-3.18-2.88-5.15-4.89-7.47l4.84-2.07ZM801.06,68.84c1.82,2.02,3.23,3.99,4.94,7.11l-4.69,2.17c-1.82-3.38-3.08-5.3-4.79-7.26l4.54-2.02Z"/>
            </g>
          </g>
          <g>
            <path class="cls-8" d="M420,152.67c-2.32,6.34-3.29,8.66-6.34,15.48v70.72c0,5.49.12,8.05.61,14.02h-19.39c.49-5,.73-8.41.73-14.02v-35.97q.12-2.32.12-8.41-1.1,1.58-3.29,4.75c-.73,1.1-1.58,2.07-3.05,3.78-1.71-8.9-3.17-14.27-6.22-22.43,7.32-7.44,13.05-16.95,17.44-29.02,2.32-6.1,3.41-10.24,4.02-15.24l19.39,4.27c-.24.73-1.58,4.76-2.44,7.44,2.8.24,5,.37,9.14.37h2.8v-1.58c0-3.66-.24-6.1-.73-8.78h19.26c-.37,2.07-.49,4.51-.49,8.9v1.46h12.31v-1.71c0-4.15-.12-6.34-.61-8.66h19.51c-.49,2.44-.61,5-.61,8.78v1.58h4.63c4.75,0,7.92-.12,11.34-.61v17.31c-3.41-.37-5.97-.49-11.22-.49h-4.75v7.32h5.73c6.46,0,9.27-.12,12.19-.61v17.68c-3.05-.49-6.34-.61-12.56-.61h-57.92c-6.1,0-9.39.12-12.68.61v-17.68c2.8.49,6.1.61,12.44.61h4.15v-7.32h-2.8c-5,0-7.68.12-10.73.49v-12.44ZM423.17,203.63c0-5.24-.12-7.93-.49-11.1,3.05.37,5.73.49,11.34.49h46.82c6.46,0,9.39-.12,11.83-.49-.37,2.93-.49,5.73-.49,11.58v32.92c0,6.34.12,10.97.61,15.85h-18.78v-4.51h-32.92v4.51h-18.65c.49-4.88.73-9.27.73-14.63v-34.63ZM441.09,213.27h32.92v-5.49h-32.92v5.49ZM441.09,233.02h32.92v-5.73h-32.92v5.73ZM463.89,171.93v-7.32h-12.31v7.32h12.31Z"/>
            <path class="cls-8" d="M553.4,159.74c-4.27,0-8.66.24-14.02.73v-19.39c4.39.61,7.07.73,13.78.73h22.56c4.39,0,7.56-.12,10.85-.49-.12,3.41-.24,5.49-.24,7.8,0,19.02,5.49,37.92,15.61,53.4,8.05,12.44,19.51,22.92,33.77,30.85-6.22,6.22-9.27,10.61-13.41,19.26-10.49-7.07-17.07-13.05-24.87-22.31-10.12-12.07-15.36-21.7-19.75-36.21-4.88,14.87-9.51,23.78-17.8,34.14-7.44,9.27-15.61,16.34-28.53,24.51-3.78-7.44-7.19-11.95-13.05-17.56,9.51-5.24,14.63-8.9,20.73-14.75,10.49-10.12,18.41-23.05,22.56-36.94,2.19-7.56,3.17-13.53,4.02-23.78h-12.19Z"/>
            <path class="cls-8" d="M670.58,209.24c-6.83,0-10,.12-13.9.61v-17.92c3.78.49,6.83.61,13.9.61h80.84c6.83,0,9.75-.12,13.53-.61v17.92c-3.78-.49-7.07-.61-13.78-.61h-20.12v21.58c0,2.8,1.34,3.29,8.53,3.29,6.71,0,8.9-.61,9.75-2.56.49-1.46,1.1-6.58,1.1-10,0-.49,0-1.34-.12-2.32,6.83,2.68,10.85,3.78,17.56,4.63-.49,14.27-2.44,20.61-7.56,24.26-3.78,2.56-9.14,3.29-24.99,3.29-19.27,0-23.05-1.83-23.05-11.46v-30.73h-9.14c-1.1,11.58-2.93,17.8-7.44,24.51-4.39,6.34-11.46,11.95-20.36,15.85-3.66,1.71-6.46,2.56-13.05,4.39-2.68-6.95-4.88-10.97-9.75-17.44,10.24-1.83,16.34-4.27,22.43-8.66,5.49-4.02,8.29-9.51,9.14-18.65h-13.53ZM700.09,146.57c0-3.41-.12-5.85-.49-8.29h20.49c-.37,1.95-.61,4.76-.61,8.17v1.46h31.46c6.83,0,10.85-.12,14.75-.49-.37,2.68-.49,5.37-.49,10.12v12.07c0,4.02.12,7.19.61,10.24h-18.53v-15.24h-72.91v15.24h-18.65c.49-2.93.73-6.22.73-10.36v-11.95c0-4.39-.12-7.32-.49-10.12,3.78.37,7.8.49,14.51.49h29.63v-1.34ZM677.29,169.86c3.66.37,6.58.49,12.44.49h42.19c5.97,0,8.9-.12,12.56-.49v17.19c-3.41-.37-6.71-.49-12.56-.49h-42.19c-5.73,0-9.02.12-12.44.49v-17.19Z"/>
            <path class="cls-8" d="M807.4,161.2c-7.93,0-12.56.24-18.41.73v-20c4.76.49,10,.73,18.29.73h60.84c6.83,0,11.58-.24,14.87-.73l11.83,13.17q-2.68,2.32-12.56,11.95c-8.05,7.8-19.14,16.58-31.95,25.12v44.14c0,5.24-1.59,9.14-4.76,11.34-3.41,2.32-8.53,3.29-18.17,3.29-3.78,0-7.8-.12-16.22-.49-1.22-7.8-2.44-12.92-5.24-20.24,8.41,1.1,13.66,1.59,18.53,1.59,4.51,0,5.97-.73,5.97-3.05v-41.7c0-5.12-.12-8.66-.61-12.31h14.27c6.58-4.02,11.1-7.56,17.44-13.53h-54.14Z"/>
          </g>
        </g>
        <path class="cls-8" d="M597.29,99.16c-5.64,0-7.08.06-9.4.26.25-3.15.56-5.07,1.32-7.58,1.63-5.33,4.64-10.21,9.02-14.39,2.38-2.25,4.76-4.11,11.16-8.54,5.39-3.73,6.71-5.39,6.71-8.35s-2.69-5.14-6.71-5.14c-3.01,0-5.14,1.03-6.52,3.21-.88,1.41-1.25,2.7-1.57,5.39l-13.16-1.41c.94-5.59,2.07-8.41,4.57-11.43,3.57-4.3,9.28-6.62,16.61-6.62,8.46,0,14.92,2.89,18.05,8.09,1.38,2.25,2.07,4.75,2.07,7.51,0,4.69-1.88,8.67-5.77,11.95-2.07,1.86-2.69,2.31-9.09,6.87-5.45,3.85-7.77,6.1-9.21,8.93h14.6c4.7,0,7.58-.13,10.03-.45v12.14c-3.63-.32-6.27-.45-10.72-.45h-22Z"/>
      </g>
    </g>
  </g>
</svg>