<?xml version="1.0" encoding="UTF-8"?><svg id="Layer_2" xmlns="http://www.w3.org/2000/svg" viewBox="0 0 659 184.48"><defs><style>.cls-1{fill:none;}.cls-2{fill:#efa90c;}.cls-3{fill:#ebebeb;}.cls-4,.cls-5{fill:#fff;}.cls-6{fill:#fdecd4;}.cls-7{fill:#0e95cc;}.cls-8{fill:#4d4d4d;}.cls-5{opacity:.7;}</style></defs><g id="Layer_1-2"><g><rect class="cls-1" x="0" width="659" height="184"/><polygon class="cls-7" points="552 159 0 159 0 72 552 72 578 116.34 552 159"/><g><g><path class="cls-8" d="M37.02,51.22c1.9,1.23,3.82,1.68,4.66,1.68,.59,0,.72-.24,.72-.47,0-.27-.18-.39-.43-.45-.69-.18-2.66-.39-4.11-1.66-.74-.67-1.25-1.59-1.25-2.96,0-2.84,2.19-4.78,5.78-4.78,1.72,0,3.76,.45,5.05,1.12v4.64c-1.84-.92-3.56-1.25-4.29-1.25-.57,0-.72,.22-.72,.43,0,.29,.22,.41,.45,.49,.59,.18,2.55,.41,3.94,1.51,.96,.78,1.43,1.78,1.43,3.06,0,2.72-2.19,4.62-5.91,4.62-1.78,0-3.92-.43-5.31-1.16v-4.82Z"/><path class="cls-8" d="M52.59,47.61h-3.96v-4.82h13.75v4.82h-3.96v9.36h-5.84v-9.36Z"/><path class="cls-8" d="M63.91,42.8h10.2v4.74h-4.37v.76h3.53v3.37h-3.53v.8h4.64v4.5h-10.48v-14.18Z"/><path class="cls-8" d="M75.84,42.8h5.37c3.41,0,7.23,.98,7.23,5.03,0,3.64-3.06,5.11-6.56,5.11h-.2v4.03h-5.84v-14.18Zm5.99,6.54c1,0,1.47-.53,1.47-1.19s-.49-1.19-1.47-1.19h-.16v2.39h.16Z"/><path class="cls-8" d="M90.33,51.16c1.72,0,3.02,1.35,3.02,3.02s-1.29,3.02-3.02,3.02-3.02-1.35-3.02-3.02,1.29-3.02,3.02-3.02Z"/></g><path class="cls-2" d="M104.18,58.38c-1.33,0-1.92-.59-1.92-1.92v-6.45c0-1.33,.59-1.92,1.92-1.92h5.97V30.29h-4.9c-1.33,0-1.92-.59-1.92-1.92v-6.45c0-1.33,.59-1.92,1.92-1.92h15.46c1.33,0,1.92,.59,1.92,1.92v26.17h5.12c1.33,0,1.92,.59,1.92,1.92v6.45c0,1.33-.59,1.92-1.92,1.92h-23.56Z"/></g><g><path class="cls-4" d="M70.21,133.98c-3.91-4.94-7.86-8.84-12.88-12.75-4.22,4.98-9.56,8.93-16.52,12.3-1.57-3.14-2.51-4.49-5.03-7.09,5.84-2.24,10.46-5.16,14.54-9.07,4.17-3.99,6.91-7.99,9.02-13.2l-11.67,.18c-3.86,.09-5.3,.18-7.14,.45l-.22-7.99c1.75,.22,2.96,.31,4.71,.31,.36,0,1.21,0,2.51-.04l15.35-.22c2.11-.04,2.38-.04,3.59-.49l3.95,4.04c-.67,.67-.94,1.12-1.62,2.65-2.38,5.61-4.08,8.75-6.6,12.12,5.43,3.91,7.27,5.48,14.27,12.16l-6.28,6.64Z"/><path class="cls-4" d="M91,104.85c-3.73,0-5.3,.04-7.27,.22v-7.9c2.47,.27,3.86,.36,7.41,.36l24.6-.04c1.44,0,2.15-.13,3.1-.45l4.31,4.85c-.72,.67-.94,.99-2.06,2.87-4.62,7.77-8.3,12.21-14.23,17.19,1.93,2.29,3.19,3.9,5.34,6.82l-6.73,5.25c-2.69-4.4-4.94-7.5-8.66-11.72-3.64-4.17-5.75-6.24-9.02-8.93l6.15-4.31c3.68,3.01,5.16,4.4,7.76,7.14,2.56-2.11,5.39-4.98,7-7.09,1.12-1.39,2.33-3.32,2.87-4.35l-20.56,.09Z"/><path class="cls-4" d="M144,111.94c-.13,.54-.36,1.71-.72,3.55-.45,2.24-1.62,6.01-2.69,8.57-1.12,2.69-2.02,4.4-3.86,7.23-3.14-1.93-4.58-2.65-7.41-3.68,2.96-4.08,4.62-7.59,6.01-12.61,.54-1.93,.81-3.19,.94-4.85l7.72,1.8Zm2.74-12.93c0-2.24-.04-3.1-.27-4.98h8.48c-.13,1.35-.22,3.05-.22,5.07v1.66h8.53c3.59,0,5.03-.09,7.05-.36v7.63c-1.8-.18-3.41-.22-6.91-.22h-8.66v19.79c0,3.68,.04,4.98,.27,6.64h-8.57c.27-2.06,.31-3.1,.31-6.73v-19.7h-8.35c-4.17,0-4.89,.04-6.78,.22v-7.63c2.02,.27,3.46,.36,6.82,.36h8.3v-1.75Zm18.13,11.04c.36,1.75,.9,3.64,1.66,5.84,1.48,4.35,2.96,7.36,5.61,11.31-4.13,2.06-4.22,2.11-7.41,4.13-3.23-5.84-4.67-9.56-6.64-17.19-.36-1.35-.4-1.53-.67-2.2l7.45-1.88Z"/><path class="cls-4" d="M178.44,109.01c.52,.03,.91,.03,1.15,.03,.79,0,1.88-.06,5.19-.27,4.37-.27,7.31-.42,13.08-.64l3.12-.12,1.27-.06c1.03-.03,1.21-.06,1.37-.06,.21,0,.33-.03,.7-.12l.27,5.49c-.42-.06-.55-.06-.85-.06-2.12,0-4.85,.82-6.95,2.12-3.03,1.85-4.82,4.4-4.82,6.89,0,1.76,.82,2.94,2.55,3.76,1.21,.61,3.88,1.09,5.79,1.09,.24,0,.46,0,.91-.03l-.7,5.76c-.42-.09-.52-.09-1.12-.15-3.46-.3-5.73-.82-7.68-1.7-3.58-1.67-5.43-4.46-5.43-8.31,0-2.52,.85-4.79,2.58-6.86,.79-.97,1.52-1.58,2.97-2.58l-1.43,.15c-.67,.06-1.73,.15-7.4,.61-2.82,.3-2.97,.3-4.28,.58l-.3-5.52Zm21.51,6.92c1.21,1.4,2.12,2.73,2.94,4.4l-2.91,1.33c-.94-1.91-1.73-3.09-2.94-4.49l2.91-1.24Zm4.07-1.76c1.09,1.21,1.94,2.4,2.97,4.28l-2.82,1.3c-1.09-2.03-1.85-3.19-2.88-4.37l2.73-1.21Z"/><path class="cls-4" d="M237.71,106.38c-.67,.09-.81,.09-1.71,.27-1.75,.31-4.58,.67-6.78,.9v3.95c2.6-.58,4.17-.76,6.55-.76,5.52,0,9.65,1.39,12.25,4.08,1.98,2.02,3.05,4.85,3.05,7.94,0,6.33-4.8,11.09-11.18,11.09-5.57,0-8.8-3.73-8.8-10.19v-1.12c3.28-.94,4.35-1.39,6.82-2.74-.04,.94-.09,1.44-.09,2.38,0,1.39,.09,2.15,.36,2.83,.31,.81,1.08,1.35,1.98,1.35,1.93,0,3.23-1.57,3.23-3.86,0-1.53-.81-3.01-2.2-3.95-1.21-.76-2.96-1.17-5.34-1.17-2.2,0-4.04,.22-6.6,.9l.04,7.94v1.17c0,2.74-.18,3.73-.85,4.67-.85,1.26-2.56,1.98-4.58,1.98-3.32,0-7.14-1.39-9.7-3.55-1.84-1.57-2.92-3.68-2.92-5.84,0-2.42,1.48-5.07,4.17-7.45,1.8-1.57,3.68-2.69,6.69-3.99v-5.3l-3.41,.09-4.35-.09c-.13,0-.54,0-.94,.04l-.09-7.05c1.44,.27,3.28,.4,6.15,.4h1.71q.63-.04,.9-.04v-1.44c0-3.37-.04-4.4-.31-6.06h7.77c-.22,1.62-.27,2.65-.27,5.61v1.44c3.05-.31,5.84-.85,8.21-1.53l.22,7.09Zm-15.58,14.23c-2.11,.99-3.73,2.74-3.73,4,0,.54,.31,.99,.99,1.44,.63,.4,1.48,.72,2.02,.72,.58,0,.72-.31,.72-1.8v-4.35Zm25.09-9.87c-2.29-4-4.85-7.05-8.84-10.55l5.92-3.99c3.82,3.1,6.6,6.24,8.84,9.92l-5.92,4.62Z"/><path class="cls-4" d="M269.22,123.75v2.33h-7.18c.18-1.39,.22-2.74,.22-5.07v-18.09c0-1.93-.04-3.05-.18-4.4,1.66,.13,2.56,.18,4.98,.18h10.37v-.58c0-2.51-.04-3.64-.27-5.12h7.45c-.22,1.39-.27,2.51-.27,4.8v.9h10.5c2.6,0,3.73-.04,5.12-.18-.13,1.3-.18,2.47-.18,4.4v18.09c0,2.56,.04,3.82,.22,5.07h-7.27v-2.33h-8.39v5.43c0,2.83,.09,4.44,.31,6.06h-7.54c.22-1.8,.31-3.37,.31-6.06v-5.43h-8.21Zm0-18.94v3.46h8.21v-3.46h-8.21Zm0,9.38v3.46h8.21v-3.46h-8.21Zm15.13-5.92h8.39v-3.46h-8.39v3.46Zm0,9.38h8.39v-3.46h-8.39v3.46Z"/><path class="cls-4" d="M321.2,120.92c3.37-2.47,5.92-5.3,7.81-8.62,1.17-2.11,2.2-4.85,2.78-7.45,.27-1.12,.36-1.66,.72-4.22h-4.22c-1.57,0-2.6,.04-3.82,.18v-6.73c.94,.18,1.88,.22,3.82,.22h8.26c1.48,0,2.33-.04,3.23-.18-.04,.85-.09,1.8-.09,2.51,0,3.99,.9,8.17,2.56,12.03,1.17,2.6,2.42,4.67,4.13,6.64,1.66,1.93,2.87,2.96,5.52,4.8-1.84,2.24-2.78,3.82-3.99,6.87-2.92-2.11-4.71-3.86-6.73-6.46-1.98-2.6-3.14-4.8-4.71-8.93-1.39,4.17-2.47,6.37-4.53,9.11-1.75,2.24-3.14,3.68-6.06,6.01-1.48-2.42-2.47-3.59-4.67-5.43v3.23c.36,.85,.54,1.08,1.35,1.71,1.98,1.53,4.13,1.89,11.04,1.89,7.5,0,13.74-.31,18.72-.99-.94,2.78-1.26,4.31-1.66,7.32-3.14,.13-12.16,.27-16.34,.27-10.37,0-13.29-.81-16.7-4.62-1.3,1.3-2.42,2.29-4.62,3.95-.22,.13-.27,.22-.9,.67-.22,.18-.31,.27-.58,.4l-2.92-7.23c1.17-.4,3.32-1.66,5.97-3.41v-8.48h-2.2c-.99,0-1.62,.04-2.78,.22v-6.82c1.26,.18,1.97,.22,3.73,.22h4.62c1.39,0,2.42-.05,3.46-.18-.13,1.39-.18,2.42-.18,5.07v6.42Zm-6.78-27.65c3.73,3.05,6.1,5.43,8.39,8.3l-5.21,5.25c-2.87-3.68-4.62-5.57-8.3-8.66l5.12-4.89Z"/><path class="cls-4" d="M363.93,95.2c.94,.18,2.06,.22,4.62,.22,3.1,0,7.18-.18,9.29-.45,.9-.09,1.26-.22,1.84-.54l4.85,4.13c-.45,.63-.58,.9-1.08,2.15-.4,.99-2.24,6.69-2.96,9.11,3.32,.67,5.16,1.17,7.68,2.2,.31-2.2,.36-3.37,.36-7.36,0-1.03-.04-1.62-.18-2.56l7.81,.27c-.22,1.08-.27,1.53-.31,3.28-.18,4.22-.36,6.24-.81,9.29q3.1,1.57,4.67,2.42c.81,.45,.99,.54,1.53,.72l-2.6,8.39c-1.26-1.12-3.01-2.33-5.57-3.77-2.24,5.34-5.97,9.25-11.63,12.34-1.89-2.51-3.32-4.04-5.61-5.84,3.32-1.57,4.85-2.56,6.6-4.22,1.71-1.66,2.83-3.28,3.9-5.7-2.87-1.3-4.71-1.89-7.9-2.56-1.84,5.48-3.32,8.98-4.62,11.09-1.75,2.83-4.13,4.31-6.87,4.31-2.11,0-4.26-.94-5.84-2.56-1.8-1.84-2.74-4.4-2.74-7.36,0-4.4,2.11-8.21,5.79-10.59,2.38-1.53,4.89-2.2,8.89-2.42,.81-2.65,1.48-4.94,2.11-7.5-1.97,.18-4.44,.31-7.45,.45-1.62,.04-2.15,.09-3.46,.27l-.31-7.23Zm2.65,23.34c-.85,.99-1.26,2.15-1.26,3.41,0,1.39,.67,2.42,1.53,2.42,1.03,0,2.2-2.33,4.22-8.3-2.11,.36-3.37,1.03-4.49,2.47Z"/></g><g><g><path class="cls-6" d="M489.39,153.23s1.83-9.89,6.15-14.72c6.54-7.32,22.59-11.3,32.64-29.45l-53.72-27.48s-.1-11.27-.1-25.76c0-12.36-4.47-15.96-7.58-16-2.05-.02-3.12,1.09-3.66,2.15-.41,.8-.57,1.7-.52,2.59,.18,3.17,.29,5.61,.57,9.49,.69,9.59-4.07,26.56-4.87,34.64-.58,5.84-2.06,14.55-.54,29.19,1.04,10.04-3.58,19.63-3.58,19.63l35.21,15.71Z"/><path class="cls-8" d="M489.39,154.72c-.09,0-.18,0-.27-.03-.81-.15-1.35-.93-1.2-1.74,.08-.42,1.96-10.36,6.51-15.45,2.38-2.66,5.8-4.82,9.75-7.31,6.96-4.39,15.57-9.81,21.93-20.52l-52.32-26.77c-.49-.25-.81-.76-.81-1.32,0-.11-.1-11.44-.1-25.77,0-6.56-1.31-10.06-2.4-11.84-1.03-1.68-2.38-2.65-3.7-2.66-1.11,0-1.84,.41-2.32,1.34-.27,.52-.4,1.16-.36,1.82,.04,.64,.07,1.26,.1,1.86,.13,2.33,.25,4.53,.47,7.61,.46,6.37-1.35,15.59-2.95,23.74-.84,4.29-1.64,8.35-1.92,11.16-.08,.81-.18,1.68-.28,2.6-.65,5.83-1.55,13.82-.26,26.29,1.07,10.34-3.52,20.03-3.72,20.43-.36,.74-1.25,1.06-1.99,.7-.74-.36-1.06-1.25-.7-1.99,.04-.09,4.42-9.35,3.44-18.83-1.33-12.79-.41-20.96,.26-26.93,.1-.91,.2-1.76,.28-2.56,.29-2.95,1.1-7.08,1.96-11.44,1.56-7.96,3.33-16.98,2.9-22.94-.22-3.11-.34-5.32-.47-7.66-.03-.6-.07-1.21-.1-1.85-.07-1.2,.17-2.36,.69-3.36,1-1.93,2.78-2.97,5.01-2.96,2.37,.03,4.63,1.52,6.22,4.09,1.89,3.07,2.84,7.58,2.84,13.4,0,12,.07,21.88,.1,24.84l52.91,27.07c.36,.18,.63,.51,.75,.89,.12,.39,.07,.81-.12,1.16-6.8,12.28-16.18,18.19-23.72,22.94-3.77,2.37-7.02,4.43-9.12,6.77-3.99,4.46-5.78,13.91-5.8,14-.13,.72-.76,1.22-1.47,1.22Z"/></g><g><g><rect class="cls-8" x="472.97" y="8.86" width="64.13" height="117.23" rx="4.81" ry="4.81"/><path class="cls-4" d="M507.24,123.67c-3.88,2.1-7.82-1.84-5.72-5.72,.3-.55,.75-1.01,1.3-1.3,3.88-2.1,7.82,1.84,5.72,5.72-.3,.55-.76,1.01-1.3,1.3Zm-1.28-6.81c-2.6-.69-4.92,1.63-4.23,4.23,.3,1.14,1.23,2.07,2.37,2.37,2.6,.69,4.92-1.63,4.23-4.23-.3-1.14-1.23-2.07-2.37-2.37Z"/><rect class="cls-4" x="496.01" y="14.41" width="18.04" height="2" rx="1" ry="1"/></g><rect class="cls-3" x="476.98" y="20.88" width="56.11" height="93.19" rx="1.43" ry="1.43"/><path class="cls-5" d="M533.09,22.55V112.98c0,.6-.49,1.08-1.08,1.08h-53.36s-.01,0-.02,0c-.8,0-1.25-.94-.84-1.63l54.78-91.11c.32,.3,.53,.73,.53,1.21Z"/></g><g><g><path class="cls-6" d="M542.72,101.67c2.45-1.73,3.69-5.78,2.25-8.73-.53-1.09-1.23-1.91-2.1-2.43,2.67-2,3.38-6.31,1.74-9.55-.78-1.54-1.78-2.46-3.12-2.91,2.42-2.09,2.56-5.94,.97-9.04-1.66-3.24-5.18-4.23-7.86-2.23l-7.97,6.85c-2.71,2.64-3.42,5.79-1.73,9.02,.83,1.59,2.08,1.93,3.47,2.35-1.73,2.21-3.54,4.81-2.12,8.04,.93,2.11,3.28,3,4.53,3.49-1.01,1.9-1.82,3.43-.95,5.77,.67,1.8,1.91,2.57,3.44,2.75,.44,.05,.88,.03,1.32-.06,1.36-.27,4.91-1.13,8.13-3.31Z"/><path class="cls-8" d="M533.73,106.57c-.21,0-.42-.01-.63-.04-2.25-.26-3.86-1.55-4.67-3.71-.84-2.26-.42-3.98,.29-5.54-1.37-.66-3.02-1.75-3.85-3.64-1.42-3.23-.24-5.93,1.1-7.92-.89-.45-1.75-1.13-2.4-2.38-1.97-3.76-1.26-7.59,2.01-10.78,.02-.02,.05-.04,.07-.06l7.97-6.85s.05-.04,.08-.06c1.58-1.18,3.46-1.6,5.31-1.17,1.99,.46,3.73,1.89,4.77,3.91,1.65,3.22,1.6,6.77,.02,9.29,.85,.65,1.56,1.54,2.14,2.68,1.71,3.37,1.28,7.49-.86,10.14,.47,.52,.88,1.14,1.22,1.85,1.7,3.5,.45,8.36-2.73,10.61,0,0-.02,.01-.02,.02-3.44,2.34-7.22,3.26-8.68,3.54-.39,.08-.77,.11-1.15,.11Zm-6.09-31.83c-2.28,2.24-2.76,4.67-1.42,7.22,.5,.96,1.13,1.18,2.49,1.59l.09,.03c.47,.14,.85,.51,.99,.98,.15,.47,.06,.98-.25,1.37-1.68,2.15-2.99,4.12-1.93,6.52,.67,1.52,2.54,2.24,3.66,2.67l.05,.02c.4,.15,.71,.47,.86,.87,.15,.4,.12,.85-.08,1.22-1.04,1.96-1.48,2.9-.86,4.55,.42,1.12,1.08,1.65,2.21,1.79,.27,.03,.56,.02,.86-.04,1.28-.25,4.58-1.05,7.56-3.07,1.79-1.28,2.92-4.47,1.76-6.86-.41-.84-.92-1.44-1.51-1.79-.43-.25-.7-.71-.73-1.21-.03-.5,.2-.98,.6-1.28,2.04-1.52,2.63-5.04,1.3-7.68-.59-1.17-1.29-1.84-2.27-2.17-.51-.17-.88-.6-.99-1.13-.1-.53,.08-1.07,.49-1.42,1.97-1.7,1.8-4.92,.61-7.23-.64-1.24-1.65-2.1-2.78-2.36-.97-.23-1.94,0-2.81,.62l-7.89,6.78Zm15.08,26.94h0Z"/></g><g><line class="cls-4" x1="528.37" y1="85" x2="541.49" y2="78.05"/><path class="cls-8" d="M528.37,86.33c-.48,0-.94-.26-1.18-.71-.34-.65-.1-1.45,.55-1.8l13.12-6.94c.65-.34,1.45-.1,1.8,.55,.34,.65,.1,1.45-.55,1.8l-13.12,6.94c-.2,.1-.41,.15-.62,.15Z"/></g><g><line class="cls-4" x1="530.78" y1="96.52" x2="542.88" y2="90.51"/><path class="cls-8" d="M530.78,97.85c-.49,0-.96-.27-1.19-.74-.33-.66-.06-1.45,.6-1.78l12.09-6.01c.66-.33,1.45-.06,1.78,.6,.33,.66,.06,1.45-.6,1.78l-12.09,6.01c-.19,.09-.39,.14-.59,.14Z"/></g></g><g><g><path class="cls-6" d="M580.39,172.49c-1.05-3.1-.75-6.19-.65-8.68,.13-3.12,.53-5.14,.68-8.26,.5-10.53-1.21-21.48-5.68-31.03-2.19-4.67-6.57-6.55-8.58-7.25-4.18-1.45-8.63,1.32-8.63,1.32-3.56-3.57-9.56-4.85-14.98-1.95-2-1.69-4.67-2.83-6.67-2.82-3.55,.02-6.8,1.46-9.39,4.16l-8.5-26.1c-1.88-5.47-4.28-11.51-10.47-9.38-5.81,2-4.03,9.04-2.38,13.81l9.57,26.78s-.13,16.74,.6,23.1c.48,4.17,1.73,8.21,3.7,11.8,1.97,3.59,4.67,6.74,8.05,9.14,4.19,2.97,5.29,3.62,16.77,8.45,4.66,1.96,6.25,7.41,6.25,7.41l30.3-10.49Z"/><path class="cls-8" d="M550.08,184.48c-.65,0-1.24-.42-1.43-1.07h0s-1.47-4.81-5.39-6.46c-11.4-4.8-12.64-5.48-17.06-8.61-3.48-2.46-6.34-5.71-8.5-9.64-2.03-3.7-3.37-7.97-3.87-12.35-.69-6.01-.63-20.77-.61-23.02l-9.48-26.53c-.77-2.23-1.78-5.53-1.69-8.49,.13-4.6,2.79-6.48,5-7.24,3.39-1.17,6.24-.4,8.49,2.29,1.77,2.12,2.89,5.12,3.89,8.01,0,0,0,.02,0,.02l7.78,23.92c2.53-1.96,5.49-2.99,8.67-3.01,.01,0,.03,0,.04,0,2.08,0,4.67,.98,6.82,2.55,2.62-1.2,5.45-1.6,8.23-1.17,2.52,.39,4.9,1.47,6.8,3.07,1.72-.82,5.33-2.15,8.89-.92,3.09,1.07,7.24,3.34,9.44,8.03,4.35,9.3,6.36,20.27,5.82,31.74-.07,1.56-.21,2.85-.34,4.1-.14,1.33-.28,2.59-.34,4.15-.01,.28-.03,.58-.04,.88-.11,2.24-.23,4.79,.61,7.27,.27,.78-.15,1.63-.93,1.89-.78,.27-1.63-.15-1.89-.93-1.02-3.02-.88-5.99-.77-8.37,.01-.29,.03-.58,.04-.85,.07-1.66,.21-3.02,.35-4.34,.13-1.21,.26-2.46,.33-3.93,.52-10.98-1.39-21.47-5.54-30.33-1.75-3.75-5.16-5.59-7.71-6.47-3.44-1.19-7.32,1.15-7.36,1.18-.59,.36-1.35,.27-1.84-.22-2.84-2.84-8.02-4.47-13.21-1.69-.54,.29-1.2,.22-1.67-.18-1.72-1.45-4.05-2.46-5.68-2.46h-.02c-3.14,.02-6.02,1.3-8.32,3.7-.36,.38-.9,.54-1.41,.42-.51-.12-.93-.49-1.09-.99l-8.49-26.09c-2.33-6.76-4.3-9.91-8.57-8.44-1.97,.68-2.91,2.11-2.98,4.5-.07,2.48,.84,5.42,1.52,7.41l9.56,26.77c.06,.17,.09,.34,.09,.51,0,.17-.12,16.72,.59,22.92,.46,4,1.68,7.89,3.52,11.25,1.94,3.53,4.5,6.44,7.61,8.64,4.05,2.86,5.04,3.47,16.49,8.29,5.25,2.21,7.03,8.12,7.1,8.37,.23,.79-.22,1.62-1.02,1.85-.14,.04-.28,.06-.42,.06Z"/></g><path class="cls-8" d="M521.22,143.75c-.62,0-1.2-.39-1.41-1.01l-6.55-19.29c-.27-.78,.15-1.63,.93-1.89,.78-.27,1.63,.15,1.89,.93l6.55,19.29c.27,.78-.15,1.63-.93,1.89-.16,.05-.32,.08-.48,.08Z"/></g></g></g></g></svg>