<?xml version="1.0" encoding="UTF-8"?><svg id="Layer_2" xmlns="http://www.w3.org/2000/svg" viewBox="0 0 491 603.19"><defs><style>.cls-1{fill:none;}.cls-2{fill:#007599;}.cls-3{fill:#fff;}.cls-4{fill:#ffce76;}.cls-5{fill:#fdeae1;}.cls-6{fill:#666;}.cls-7{fill:#aadde3;}.cls-8{fill:#4c4342;}.cls-9{fill:#4d4d4d;}</style></defs><g id="Layer_1-2"><g><rect class="cls-1" width="491" height="603"/><g><g><rect class="cls-2" x="212.28" y="134.57" width="128.17" height="10.52" rx="5.26" ry="5.26"/><g><path class="cls-3" d="M127.87,122.43c-1.56,.04-2.39,.08-3.51,.2v-4.91c1.2,.16,2.27,.2,4.63,.2h27.76c2.31,0,3.35-.04,4.55-.2v4.91c-1.32-.16-2.35-.2-4.67-.2h-13.36v13.2c1.52-.6,2.23-.92,3.47-1.64-1.08-1.2-1.6-1.95-2.79-3.91l4.11-1.68h-.72c-1.48,0-2.27,.04-3.19,.16v-5.11c.96,.12,1.71,.16,3.35,.16h6.9c1.28,0,2.27-.04,2.95-.16l2.83,3.07q-.24,.36-.96,1.8c-1.12,2.07-2.39,3.87-3.95,5.62,2,.84,3.51,1.28,6.5,1.8-1.2,1.95-1.83,3.27-2.59,5.66-3.83-1.28-5.94-2.23-8.14-3.67-1.91,1.4-3.31,2.19-6.02,3.47-.6-1.56-.92-2.15-1.76-3.51,0,1.56,.08,2.59,.2,3.67h-6.1c.12-.92,.16-1.71,.2-3.71-3.31,.64-4.35,.8-10.53,1.67-.56,.08-1,.16-1.72,.36l-1.2-5.82c.36,.04,.56,.04,.8,.04,.44,0,1.12-.04,2.95-.16v-11.33Zm29.6-9.21c0,1.76,.04,2.71,.16,3.67-.4,0-1.48-.04-3.27-.08h-22.22c-1.84,0-2.79,.04-3.95,.12,.12-1.04,.16-1.99,.16-3.71v-4.75c0-1.71-.04-2.71-.16-3.75,1.32,.12,2.27,.16,4.19,.16h21.06c1.91,0,2.87-.04,4.19-.16-.12,1-.16,1.91-.16,3.75v4.75Zm-23.97,10.49h4.07v-1.28h-4.07v1.28Zm0,4.63h4.07v-1.4h-4.07v1.4Zm0,4.95c.76-.08,2.11-.24,4.07-.48v-1.24h-4.07v1.71Zm.68-23.69h17.39v-1.2h-17.39v1.2Zm0,3.99h17.39v-1.16h-17.39v1.16Zm14.6,14.84c.84,1.32,1.16,1.76,2.03,2.63,.96-.92,1.44-1.48,2.19-2.63h-4.23Z"/><path class="cls-3" d="M174.27,113.77c-.8,1.84-1.24,2.63-2.51,4.63-1.48-1.87-2.71-2.91-4.47-3.99,1.79-2.55,2.83-4.79,3.79-8.06,.4-1.28,.48-1.84,.56-2.87l5.78,.88c-.16,.48-.4,1.24-.64,2.15-.12,.6-.2,.84-.48,1.76h3.67c1.76,0,2.75-.04,3.79-.2v5.86c-1-.12-1.71-.12-3.31-.16q-.04,3.31-.16,5.19h.4c1.67,0,2.43-.04,3.51-.2v5.9c-1.04-.12-1.95-.16-3.75-.16h-.52c1.32,2.91,2.63,4.59,5.35,6.98-1.68,2.11-2.31,3.11-3.43,5.66-1.87-2.03-2.87-3.35-4.03-5.46-1.6,3.75-3.43,6.42-6.5,9.33-1.12-2.23-2.07-3.55-3.83-5.27,3.63-2.99,5.7-6.54,6.58-11.25h-1.6c-2.11,0-3.07,.04-4.35,.24v-6.02c1.28,.2,2.11,.24,4.47,.24h2.07q.08-1.71,.08-5.19h-.48Zm14.92,12.45c-1.68,0-2.79,.04-4.15,.12,.12-1.32,.16-2.35,.16-4.23v-5.34c0-1.95-.04-3.03-.16-4.35,1.2,.08,2.55,.12,4.59,.12h9.49c1.99,0,3.39-.04,4.59-.12-.12,1.4-.16,2.31-.16,4.35v5.34c0,2,.04,2.83,.16,4.23-1.44-.08-2.47-.12-4.19-.12h-1.16l4.79,1.76c-1.28,3.83-1.44,4.31-2.55,6.62h.36c2.11,0,2.99-.04,4.47-.16v5.98c-1.4-.16-2.39-.2-4.47-.2h-13.16c-2.07,0-3.03,.04-4.47,.2v-5.98c1.48,.12,2.35,.16,4.47,.16h.8c-.88-2.47-1.76-4.31-2.99-6.3l4.55-2.07h-.96Zm-4.63-21.26c1.44,.16,2.27,.2,4.47,.2h11.33c2.19,0,3.07-.04,4.47-.2v5.9c-1.44-.12-2.51-.16-4.47-.16h-11.33c-1.91,0-3.03,.04-4.47,.16v-5.9Zm6.5,21.26c1.4,2.43,1.48,2.63,3.15,6.38l-4.47,1.99h4.87c1.12-2.67,1.91-5.26,2.59-8.38h-6.14Zm-.12-5.38h6.66v-2.95h-6.66v2.95Z"/><path class="cls-4" d="M222.79,126.71c.3,1.63,.59,2.32,1.39,3.17,1.34,1.39,3.31,2.13,5.69,2.13,3.86,0,6.28-1.93,6.28-4.95,0-2.03-.99-3.61-2.67-4.25-1.14-.4-2.67-.64-4.6-.64s-4.15,.1-6.08,.3v-8.51c1.68,.2,3.31,.3,5.24,.3,4.7,0,7.02-1.58,7.02-4.75,0-2.67-1.88-4.2-5.14-4.2-3.51,0-5.29,1.38-6.03,4.55l-10.68-1.53c.94-3.07,1.73-4.55,3.31-6.28,3.02-3.26,7.57-4.95,13.6-4.95,5.39,0,9.84,1.48,12.66,4.2,1.83,1.83,2.77,4.2,2.77,7.02,0,5.24-2.82,8.51-8.51,9.84,3.02,.44,4.65,1.14,6.38,2.62,2.08,1.88,3.26,4.45,3.26,7.32,0,2.52-.69,4.85-1.98,6.58-1.09,1.48-2.82,2.87-4.65,3.71-2.57,1.19-6.58,1.93-10.29,1.93-4.45,0-8.9-1.04-11.52-2.77-2.28-1.48-4.01-3.66-5.09-6.38-.3-.69-.5-1.33-.84-2.62l10.49-1.83Z"/><path class="cls-4" d="M260.87,135.57c-1.63-1.63-2.87-3.51-3.61-5.49-1.29-3.51-1.93-7.32-1.93-11.33,0-5.19,1.24-10.58,3.12-13.7,3.02-5.04,8.16-7.82,14.39-7.82,4.8,0,9,1.63,12.02,4.6,1.63,1.63,2.87,3.51,3.61,5.49,1.29,3.51,1.93,7.32,1.93,11.38,0,5.19-1.24,10.63-3.12,13.75-2.97,4.95-8.16,7.72-14.44,7.72-4.85,0-8.95-1.58-11.97-4.6Zm4.6-17.21c0,8.85,2.52,13.4,7.42,13.4s7.32-4.45,7.32-13.26-2.57-12.91-7.37-12.91-7.37,4.7-7.37,12.76Z"/><path class="cls-4" d="M312.41,118.75c-1.33,0-2.23,.05-3.36,.2v-2.77c-2.37,2.47-3.56,3.51-6.13,5.49-1.58-2.82-2.82-4.6-5.04-6.97,5.69-3.96,9.55-8.36,12.46-14.1,.99-1.93,1.48-3.17,1.73-4.6l8.11,2.97c-.5,.84-.74,1.29-1.29,2.52-1.38,3.02-3.86,7.12-6.28,10.39h18.65c-2.62-3.36-4.6-6.78-6.38-10.88-.3-.74-.64-1.43-.94-2.13l7.37-2.82c.4,1.33,.79,2.27,2.03,4.55,2.97,5.44,7.12,9.74,12.76,13.21-2.37,2.97-2.97,3.86-5,7.57-2.13-1.58-2.97-2.28-4.2-3.41-.05,9.94-.74,16.67-1.98,19.34-1.34,2.87-3.71,3.81-9.84,3.81q-.49,0-3.51-.05c-.35-2.92-.79-4.55-2.13-7.91,2.08,.3,4.06,.45,5.24,.45,2.57,0,3.17-.35,3.66-2.42,.5-1.93,.84-6.83,.84-12.41h-7.52c-.54,5.34-1.63,8.75-3.96,12.61-1.93,3.17-4.55,5.94-7.81,8.21-1.53,1.04-2.57,1.63-4.95,2.72-1.58-2.82-2.57-4.2-4.9-6.73,5.79-2.32,9.35-5.14,11.52-9.1,1.39-2.47,1.93-4.5,2.13-7.72h-1.29Z"/><path class="cls-3" d="M352.53,108.63c.68,.04,1.2,.04,1.52,.04,1.04,0,2.47-.08,6.82-.36,5.74-.36,9.61-.56,17.19-.84l4.11-.16,1.68-.08c1.36-.04,1.6-.08,1.79-.08,.28,0,.44-.04,.92-.16l.36,7.22c-.56-.08-.72-.08-1.12-.08-2.79,0-6.38,1.08-9.13,2.79-3.99,2.43-6.34,5.78-6.34,9.05,0,2.31,1.08,3.87,3.35,4.95,1.6,.8,5.11,1.44,7.62,1.44,.32,0,.6,0,1.2-.04l-.92,7.58c-.56-.12-.68-.12-1.48-.2-4.55-.4-7.54-1.08-10.09-2.23-4.71-2.19-7.14-5.86-7.14-10.93,0-3.31,1.12-6.3,3.39-9.01,1.04-1.28,1.99-2.07,3.91-3.39l-1.87,.2c-.88,.08-2.27,.2-9.73,.8-3.71,.4-3.91,.4-5.62,.76l-.4-7.26Zm28.28,9.09c1.6,1.83,2.79,3.59,3.87,5.78l-3.83,1.76c-1.24-2.51-2.27-4.07-3.87-5.9l3.83-1.64Zm5.35-2.31c1.44,1.6,2.55,3.15,3.91,5.62l-3.71,1.72c-1.44-2.67-2.43-4.19-3.79-5.74l3.59-1.6Z"/></g></g><g><path class="cls-4" d="M84.82,181.7c-1.83,5.01-2.6,6.85-5.01,12.25v55.92c0,4.34,.1,6.36,.48,11.09h-15.33c.39-3.95,.58-6.65,.58-11.09v-28.44q.1-1.83,.1-6.65-.87,1.25-2.6,3.76c-.58,.87-1.25,1.64-2.41,2.99-1.35-7.04-2.51-11.28-4.92-17.74,5.79-5.88,10.32-13.4,13.79-22.95,1.83-4.82,2.7-8.1,3.18-12.05l15.33,3.38c-.19,.58-1.25,3.76-1.93,5.88,2.22,.19,3.95,.29,7.23,.29h2.22v-1.25c0-2.89-.19-4.82-.58-6.94h15.23c-.29,1.64-.39,3.57-.39,7.04v1.16h9.74v-1.35c0-3.28-.1-5.01-.48-6.85h15.43c-.39,1.93-.48,3.95-.48,6.94v1.25h3.66c3.76,0,6.27-.1,8.97-.48v13.69c-2.7-.29-4.72-.39-8.87-.39h-3.76v5.79h4.53c5.11,0,7.33-.1,9.64-.48v13.98c-2.41-.39-5.01-.48-9.93-.48h-45.8c-4.82,0-7.42,.1-10.03,.48v-13.98c2.22,.39,4.82,.48,9.83,.48h3.28v-5.79h-2.22c-3.95,0-6.08,.1-8.49,.39v-9.83Zm2.51,40.3c0-4.15-.1-6.27-.39-8.77,2.41,.29,4.53,.39,8.97,.39h37.03c5.11,0,7.42-.1,9.35-.39-.29,2.31-.39,4.53-.39,9.16v26.03c0,5.01,.1,8.68,.48,12.54h-14.85v-3.57h-26.03v3.57h-14.75c.39-3.86,.58-7.33,.58-11.57v-27.38Zm14.17,7.62h26.03v-4.34h-26.03v4.34Zm0,15.62h26.03v-4.53h-26.03v4.53Zm18.03-48.31v-5.79h-9.74v5.79h9.74Z"/><path class="cls-4" d="M190.31,187.29c-3.38,0-6.85,.19-11.09,.58v-15.33c3.47,.48,5.59,.58,10.9,.58h17.84c3.47,0,5.98-.1,8.58-.39-.1,2.7-.19,4.34-.19,6.17,0,15.04,4.34,29.99,12.34,42.23,6.36,9.83,15.43,18.13,26.71,24.39-4.92,4.92-7.33,8.39-10.61,15.23-8.29-5.59-13.5-10.32-19.67-17.64-8-9.55-12.15-17.16-15.62-28.64-3.86,11.76-7.52,18.8-14.08,27-5.88,7.33-12.34,12.92-22.56,19.38-2.99-5.88-5.69-9.45-10.32-13.88,7.52-4.15,11.57-7.04,16.39-11.67,8.29-8,14.56-18.22,17.84-29.21,1.74-5.98,2.51-10.7,3.18-18.8h-9.64Z"/><path class="cls-4" d="M282.98,226.44c-5.4,0-7.91,.1-10.99,.48v-14.17c2.99,.39,5.4,.48,10.99,.48h63.93c5.4,0,7.71-.1,10.7-.48v14.17c-2.99-.39-5.59-.48-10.9-.48h-15.91v17.07c0,2.22,1.06,2.6,6.75,2.6,5.3,0,7.04-.48,7.71-2.02,.39-1.16,.87-5.21,.87-7.91,0-.39,0-1.06-.1-1.83,5.4,2.12,8.58,2.99,13.88,3.66-.39,11.28-1.93,16.29-5.98,19.19-2.99,2.02-7.23,2.6-19.77,2.6-15.24,0-18.22-1.45-18.22-9.06v-24.3h-7.23c-.87,9.16-2.31,14.08-5.88,19.38-3.47,5.01-9.06,9.45-16.1,12.54-2.89,1.35-5.11,2.02-10.32,3.47-2.12-5.5-3.86-8.68-7.71-13.79,8.1-1.45,12.92-3.38,17.74-6.85,4.34-3.18,6.56-7.52,7.23-14.75h-10.7Zm23.33-49.56c0-2.7-.1-4.63-.39-6.56h16.2c-.29,1.54-.48,3.76-.48,6.46v1.16h24.88c5.4,0,8.58-.1,11.67-.39-.29,2.12-.39,4.24-.39,8v9.55c0,3.18,.1,5.69,.48,8.1h-14.66v-12.05h-57.66v12.05h-14.75c.39-2.31,.58-4.92,.58-8.2v-9.45c0-3.47-.1-5.79-.39-8,2.99,.29,6.17,.39,11.47,.39h23.43v-1.06Zm-18.03,18.42c2.89,.29,5.21,.39,9.83,.39h33.36c4.72,0,7.04-.1,9.93-.39v13.6c-2.7-.29-5.3-.39-9.93-.39h-33.36c-4.53,0-7.13,.1-9.83,.39v-13.6Z"/><path class="cls-4" d="M391.17,188.45c-6.27,0-9.93,.19-14.56,.58v-15.81c3.76,.39,7.91,.58,14.46,.58h48.11c5.4,0,9.16-.19,11.76-.58l9.35,10.41q-2.12,1.83-9.93,9.45c-6.36,6.17-15.14,13.11-25.26,19.86v34.9c0,4.15-1.25,7.23-3.76,8.97-2.7,1.83-6.75,2.6-14.37,2.6-2.99,0-6.17-.1-12.82-.39-.96-6.17-1.93-10.22-4.15-16.01,6.65,.87,10.8,1.25,14.66,1.25,3.57,0,4.72-.58,4.72-2.41v-32.98c0-4.05-.1-6.85-.48-9.74h11.28c5.21-3.18,8.77-5.98,13.79-10.7h-42.81Z"/></g></g><g><g><path class="cls-7" d="M321.3,441.47s-1.22,5.35-2.97,13.59c-1.91-3.15-4.38-5.89-7.57-8.05-6.19-4.19-32.81-20.37-32.81-20.37,0,0-.46,.24-1.3,.64-5.84,2.82-30.05,13.87-44.26,10.47-6.05-1.58-6.51-6.9-6.42-9.2,.03-.66,.1-1.08,.1-1.08,0,0-34.62,13.29-41.19,23.69-6.84,10.84-17.56,52.18-17.56,52.18l-18.3-30.22c-16.34-.12-30.82,6.71-33.59,14.7,0,0,16.79,46.96,29.37,70.44,9.2,17.18,21.37,19.75,30.54,17,4.59-1.38,13.93-9.98,13.93-9.98l3.11,36.91h116.46c-1.1-9.47-1.78-17.81-1.57-22.74,.34-8.15,1.26-14.93,2.72-22.45,3.81,1.98,7.6,3.47,10.94,3.92,12.18,1.66,22.11-8.14,25.78-15.47,9.42-18.82,9.79-100.35,9.79-100.35l-35.2-3.63Z"/><path class="cls-5" d="M373.23,378.57c-1.03-.71-2.26-.67-3.44-.38-4.86,1.18-19.27,26.8-19.44,28.01,0-.04,4.41-32.49,4.41-32.49,.12-4.84-2.21-6.56-4.82-5.74-2.85,.9-4.06,4.25-4.45,7.12,0,.06-5,27.65-5,27.65,0,0-6.92-8.79-10.03-9.82-3.23-1.06-10.05,3.74-12.14,5.78-.93,1.08-4.9,7.48-5.32,9.77-3.82-2.93-7.13,2.34-4,5.82,0,0,6.77,7.07,8.57,9.77,1.35,2.03,2.91,5.97,4.32,8.72,1.38,2.71,5.34,6.97,6.42,9.75l21.43,1.9,.81-2.39s7.26-16.05,11.53-21.14c4.39-5.23,21.98-15.37,18.21-20.37-1.62-2.15-5.01-.91-7.29,.7l-15.45,10.59,16.89-27.73c1.1-1.87,.58-4.27-1.21-5.5Zm-45.71,39.83l-3.86-3.59-4.67-3.84s3.29-4.08,4.65-5.15c1.01-.8,3.5-1.91,4.81-1.85,1.82,1.8,4.11,4.52,4.11,4.52l-5.05,9.92Z"/></g><g><path class="cls-3" d="M167.87,459.77l-20.55-61.09c-.59-1.76-2.58-3.63-6.65-3.63l-33,2.33c-1.89,.13-2.93,1.74-2.31,3.57l9.74,28.94,3.69,10.96,7.13,21.19c.59,1.76,2.61,3.63,6.65,3.63l33-2.33c1.89-.13,2.93-1.74,2.31-3.57Z"/><path class="cls-5" d="M147.57,447.23l-7.6,6.88-4.16,4.8c1.78-2.91,5-8.06,6.6-10.02,2-2.44,6.8-6.76,8.3-9.78,1.83-3.7-.69-7.88-5.55-4.18,0,0-7.73,6.21-9.97,8.64-1.38,1.5-3.83,4.87-5.85,7.76,2.29-3.85,5.69-9.49,7.37-11.87,1.52-2.15,4.87-6.02,5.67-8.87,.12-.42,.19-.8,.23-1.15,.33-3-3.02-4.38-5.45-2.29-2.63,2.25-7.35,7.36-9.48,10.08-.83,1.05-2.09,2.92-3.39,4.92,2.25-4.37,5.29-10.41,7.01-14.39,2.04-4.72-2.24-7.73-5.31-4.6-2.51,2.56-5.55,8.33-7.55,10.99-.35,.47-.8,1.11-1.3,1.84l-2.05-6.1c-.31-.11-.63-.22-.97-.33-2.68-.86-5.26,1.58-4.55,4.31l2.41,10.67c-.46,.9-.82,1.7-1.02,2.32-.49,1.47-.34,4.66,.06,6.19,.28,1.05,2.11,9.22,2.69,10.15,.63,1.01,8.86,13.85,8.86,13.85l5.21,8.58s6.4-1.92,9.28-3.73c2.72-1.71,7.91-4.56,8.57-6.42,1.52-4.3-.67-8.12-2.98-10.46l3.49-5.01s4.64-5.6,6.01-8.07c2.37-4.27-.82-8.07-4.56-4.69Z"/></g><g><path class="cls-6" d="M271.15,307.75c-3.3-3.79-8.12-7.97-12.62-9.74-9.4-3.7-20.75-1.76-20.8-1.16-.05,.5,5.29,.03,10.93,3.54-4.65-.67-9.41-.81-13.43-.04-14.45,2.77-27.05,14.02-26.67,14.81,.21,.43,3.06-1.52,7.77-2.91-2.91,1.87-5.57,3.96-7.61,6.21-10,11.01-13.84,20.93-14.46,26.92-.04,.42,2.78-2.33,4.65-4.07-2.89,14.97,1.73,21.27,4.54,23.58,0-2.47,.03-4.78,.06-6.81,8.59-5.78,19.81-17.33,24.28-23.07-.19,5.13-1.8,11.79-6.95,17.04,9.04-.46,22.51-8.53,29.72-13.92-2.23,5.88-5.13,11.92-8.12,15.42,3.75-.68,12.28-2.77,19.65-10.03,2.2-2.16,3.87-4.38,5.16-6.43,11.71,12.77,11.8,32.73,15.62,31.8-.29,1.42-.62,2.94-1,4.59,.67-.63,1.3-1.13,1.86-1.45,4.51-2.6,8.42-.36,9.78,3.73,.58,1.75,.76,3.54,.6,5.3,3.68-8.71,6.2-14.97,6.37-21.68,1.26,4.53,1.12,7.97,1.57,7.95,.63-.02,3.49-19.09-2.88-31.85l4.12,3.41c.54-.24-6.94-31.96-32.12-31.14Z"/><path class="cls-5" d="M293.48,375.74c-1.36-4.08-5.27-6.33-9.78-3.73-.55,.32-1.19,.82-1.86,1.45,.39-1.65,.71-3.17,1-4.59-3.82,.94-3.91-19.02-15.62-31.8-1.29,2.05-2.97,4.26-5.16,6.43-7.37,7.25-15.9,9.35-19.65,10.03,2.99-3.5,5.89-9.54,8.12-15.42-7.21,5.4-20.68,13.46-29.72,13.92,5.15-5.25,6.76-11.91,6.95-17.04-4.47,5.74-15.69,17.28-24.28,23.07-.04,2.03-.06,4.34-.06,6.81,0,10.59,.44,24.14,2.47,31.55,3.04,11.09,15.15,21.33,24.69,23.04,.06,1.53,.05,2.93-.1,3.97-.2,1.44-2.21,3.35-4.54,5.12-.1,2.3,.36,7.62,6.42,9.2,14.21,3.4,38.42-7.65,44.26-10.47-.56-.6-.95-1.09-1.05-1.43-2.28-7.46-2.4-19.07-2.16-26.76,.82-1.24,1.62-2.54,2.4-3.91,4,2.37,10.5-1.84,13.23-4.36,2.9-2.69,4.7-6.15,5.03-9.76,.16-1.76-.02-3.55-.6-5.3Z"/><path class="cls-3" d="M227.26,396.73c2.14,6.04,5.01,9.69,7.93,9.96,2.87,.27,6.29-2.74,9.41-8.16l-17.34-1.8Z"/></g><g><path class="cls-8" d="M295.71,461.58c3.71-3.35,7.25-4.88,10.58-4.54,1.08,.11,2.05-.68,2.16-1.77,.11-1.08-.68-2.05-1.77-2.16-4.45-.45-9.05,1.41-13.62,5.54-10.66,9.64-19.25,30.51-19.25,41.36,0,1.09,.88,1.97,1.97,1.97s1.97-.88,1.97-1.97c0-9.99,8.28-29.69,17.95-38.43Z"/><path class="cls-8" d="M143.29,403.62l19.25,57.21c.16,.48,.61,.78,1.09,.78,.12,0,.24-.02,.37-.06,.6-.2,.92-.85,.72-1.45l-19.24-57.19c-1.41-4.43-3.27-4.44-7.83-4.42l-26.32,1.86c-.63,.04-1.11,.59-1.06,1.23,.04,.63,.58,1.11,1.23,1.06l26.24-1.85c4.4,0,4.66,0,5.57,2.84Z"/><path class="cls-8" d="M119.39,413.16c.56-.04,1.06-.33,1.37-.8,.31-.46,.39-1.04,.21-1.57l-1.36-4.03c-.26-.78-1.01-1.28-1.83-1.22l-2.89,.2c-.55,.04-1.06,.33-1.37,.8-.31,.46-.39,1.04-.21,1.57l1.36,4.03c.25,.74,.94,1.23,1.7,1.23,.04,0,.09,0,.13,0l2.89-.2Z"/><path class="cls-9" d="M381.86,399.33c-2-2.66-6.02-2.54-9.98,.26l-7.86,5.39,12.12-19.9c1.62-2.74,.84-6.31-1.78-8.13h0c-1.35-.93-3.04-1.16-5.03-.68-3.69,.9-10.69,11.33-15.57,19.59,.65-4.8,1.6-11.77,2.97-21.89,0-.07,.02-.15,.02-.22,.1-4.09-1.34-6.05-2.57-6.97-1.35-1.01-3.06-1.26-4.82-.71-3.11,.98-5.17,4.08-5.8,8.67-.06,.32-2.86,15.81-4.24,23.46-2.5-2.88-5.92-6.41-8.23-7.16-4.78-1.57-12.76,4.9-14.13,6.24-.04,.04-.08,.08-.12,.13-.76,.89-3.52,5.16-4.95,8.35-1.84-.42-3.52,.28-4.59,1.43-1.8,1.94-2.32,5.55,.29,8.45,1.85,1.93,6.95,7.4,8.35,9.5,.76,1.15,1.68,3.14,2.56,5.07,.54,1.18,1.1,2.4,1.64,3.46,.66,1.29,1.95,3.15,3.31,5.12,.22,.32,.45,.66,.68,.99l-2.61-.27c-.99-.1-1.91,.55-2.13,1.52-.03,.11-.82,3.62-2.04,9.27-1.56-1.83-3.37-3.49-5.47-4.92-6.16-4.17-31.81-19.76-32.9-20.42-.49-.3-1.08-.35-1.62-.18-2-7.03-2.15-17.7-1.95-25.08,.44-.67,.87-1.35,1.29-2.06,4.89,1.2,10.93-2.79,13.72-5.37,3.24-3,5.17-6.8,5.62-10.7,1.93-4.58,3.63-8.68,4.79-12.62,.32,.23,.75,.37,1.28,.35,.7-.02,1.34-.4,1.71-1.03,1.1-1.84,2.76-15.61-.52-27.41,.27,0,.54-.06,.8-.17,1.61-.72,1.21-2.47,.92-3.74-2.51-10.9-12.58-31.19-32.89-31.19h-.08c-2.11-2.32-7.15-7.38-12.77-9.59-8.97-3.53-20.49-2.32-22.46-1.11-.59,.36-.96,.94-1.03,1.6-.06,.68,.13,1.17,.46,1.52-.47,.07-.92,.14-1.37,.23-14.19,2.72-26.8,13.23-28.02,15.66-.44,.87-.22,1.59-.05,1.94,.2,.4,.44,.68,.71,.87-.08,.08-.16,.17-.23,.25-8.53,9.39-14.12,19.87-14.96,28.04-.08,.82,.36,1.65,1.1,2.01,.91,.45,1.47,.38,2.77-.68-.97,11.02,2.45,16.56,5.29,19.22,.02,10.57,.51,23.77,2.55,31.22,3.16,11.53,14.99,21.54,24.65,24.1,0,.82-.03,1.55-.11,2.12-.09,.51-.85,1.37-2.03,2.4-.38-.09-.78-.08-1.16,.06-1.44,.55-35.31,13.65-42.15,24.48-5.64,8.94-13.6,37.14-16.6,48.24l-15.89-26.25c-.36-.59-.99-.95-1.67-.95-.35,0-.69,0-1.03,.01-.25-1.78-.92-3.34-1.69-4.62l19.38-1.37c1.46-.1,2.73-.81,3.48-1.94,.76-1.15,.93-2.62,.45-4.04l-20.55-61.09c-.39-1.15-2.13-4.88-8.37-4.88-.05,0-.11,0-.16,0l-33,2.33c-1.46,.1-2.73,.81-3.48,1.94-.76,1.15-.93,2.62-.45,4.05l8.72,25.92c-1.14,.14-2.22,.63-3.11,1.47-1.47,1.39-2.07,3.47-1.58,5.37l2.26,9.98c-.35,.73-.64,1.39-.82,1.95-.66,1.99-.43,5.6,.03,7.32,.06,.23,.19,.79,.37,1.55,1.48,6.24,2.07,8.37,2.55,9.13,.63,1.01,8.54,13.35,8.85,13.84l.25,.42c-3.75,2.48-6.45,5.45-7.57,8.69-.15,.43-.15,.89,0,1.31,.17,.47,16.98,47.37,29.49,70.71,11.59,21.63,26.83,19.77,32.85,17.96,3.32-1,8.46-5.03,11.73-7.8l2.41,32.01c.08,1.03,.94,1.83,1.97,1.83,1.15,0,2.06-.98,1.97-2.12l-2.74-35.9c-.23-5.54-.68-11.94-1.15-18.72-1.55-22.38-3.48-50.23,.47-70.92,.21-1.07-.5-2.1-1.57-2.31-1.07-.21-2.1,.5-2.31,1.57-4.05,21.19-2.1,49.32-.53,71.93,.44,6.39,.86,12.44,1.1,17.72-2.95,2.64-9.34,7.99-12.48,8.93-5.09,1.53-18.02,3.01-28.23-16.05-10.47-19.54-24.05-55.93-28.08-66.94,3.65-.43,11.79-2.18,19.05-6.67,2.27-1.41,9.25-5.54,9.97-7.59,.12-.35,.22-.69,.31-1.03,.04,0,.08,0,.12,0l17.7,29.23c.31,.57,8.35,15.17,10.97,24.06,.25,.86,1.04,1.42,1.89,1.42,.18,0,.37-.03,.56-.08,1.05-.31,1.64-1.41,1.34-2.45-2.48-8.41-9.24-21.08-10.94-24.19,1.49-5.63,11.02-41.19,17.12-50.87,4.66-7.39,26.53-17.38,37.47-21.81,.36,3.53,2.27,7.8,7.9,9.27,15.25,3.64,40.53-8.14,45.93-10.78,4.76,2.9,26.38,16.08,31.8,19.75,2.72,1.84,4.87,4.16,6.59,6.8-2.88,13.59-7.07,34.47-9.68,52.25-.16,1.08,.59,2.08,1.67,2.24,1.08,.16,2.08-.59,2.24-1.67,3.72-25.32,10.68-57.02,12.38-64.65l31.67,3.27c-.13,12.03-1.22,81.01-9.56,97.68-3.19,6.38-12.46,15.94-23.75,14.4-12.64-1.73-32.8-19.6-33-19.78-.81-.73-2.06-.65-2.79,.16-.73,.81-.65,2.06,.16,2.79,.62,.55,11.18,9.92,22.22,15.93-1.32,7.04-2.16,13.57-2.49,21.31-.16,3.87,.2,13.27,1.07,22.03,.1,1.01,.95,1.79,1.97,1.79,1.17,0,2.08-1,1.96-2.16-.86-8.66-1.22-17.79-1.06-21.49,.3-7.1,1.05-13.17,2.22-19.62,3.19,1.48,6.34,2.57,9.21,2.97,1.03,.14,2.04,.21,3.03,.21,11.96,0,21.24-9.68,24.78-16.75,9.52-19.02,9.98-97.87,10-101.22,0-1.02-.76-1.87-1.77-1.97l-4.17-.43v-.27c1.14-2.5,7.37-15.89,11.06-20.28,1.27-1.52,3.98-3.66,6.85-5.92,7.45-5.88,15.15-11.96,11.42-16.9Zm-274.76,1.04c-.11-.34-.11-.65,.02-.84,.16-.24,.5-.3,.68-.31l32.93-2.32c3.76,.01,4.66,1.82,4.85,2.37l20.55,61.09c.11,.34,.11,.65-.02,.84-.16,.24-.5,.3-.68,.31l-18.88,1.33,1.15-1.65c.55-.67,4.78-5.83,6.16-8.31,1.67-3.01,1.36-6.3-.77-7.99-.84-.67-2.08-1.09-3.52-.85,1.21-1.39,2.29-2.79,2.92-4.06,1.37-2.78,.97-5.84-.98-7.46-.72-.6-3.41-2.31-7.57,.86-.07,.06-.48,.39-1.09,.88,.64-1.07,1.16-2.14,1.44-3.16,.14-.51,.24-1,.29-1.47,.23-2.09-.73-3.97-2.5-4.9-1.94-1.02-4.37-.67-6.2,.9-.74,.63-1.63,1.48-2.59,2.43,1.26-3.37,.03-6.1-1.82-7.35-2.12-1.42-4.89-1-6.89,1.04-1.71,1.75-3.55,4.71-5.18,7.32-.61,.98-1.2,1.91-1.73,2.71l-10.58-31.43Zm4.39,33c-.22-.83,.24-1.37,.45-1.57,.16-.15,.54-.44,1.08-.44,.15,0,.32,.02,.5,.08,.06,.02,.11,.04,.17,.06l1.36,4.05c-.71,1.07-1.5,2.3-2.27,3.56l-1.3-5.74Zm6.87,53.05c1.06-1.58,2.7-3.14,4.82-4.58l1.96,3.23c-2.7,.74-5.15,1.14-6.77,1.35Zm26.14-27.54l-5.41,7.79c-.62,.9-.4,2.13,.49,2.75,.34,.24,.74,.35,1.13,.35,.62,0,1.24-.3,1.62-.85l.43-.62c1.09,1.67,1.91,3.94,1.01,6.5-.84,1.76-10.81,8.26-14.92,9.06-.98-1.72-4.62-7.87-4.62-7.87-.08-.13-7.98-12.45-8.81-13.77-.42-.95-1.68-6.26-2.09-8.02-.19-.8-.33-1.41-.4-1.65-.36-1.36-.41-4.11-.1-5.07,.87-2.64,5.24-9.55,7.18-12.14,.81-1.07,1.74-2.57,2.72-4.15,1.52-2.44,3.25-5.2,4.65-6.64,.66-.67,1.35-.87,1.87-.53,.58,.39,.87,1.46,.22,2.96-1.68,3.89-4.68,9.85-6.92,14.19-2.44,3.75-4.97,7.89-5.13,8.16-.57,.93-.27,2.14,.66,2.71,.93,.57,2.14,.27,2.71-.66,.06-.1,6.1-9.98,8.42-12.93,2.07-2.63,6.73-7.67,9.22-9.8,.72-.62,1.41-.6,1.79-.4,.33,.17,.47,.5,.41,.98-.03,.25-.08,.53-.17,.84-.51,1.84-2.57,4.54-4.07,6.51-.5,.65-.95,1.25-1.31,1.75-1.72,2.43-5.11,8.06-7.42,11.94-1.78,2.53-3.21,4.66-3.34,4.85-.61,.9-.37,2.13,.53,2.74,.91,.61,2.13,.37,2.74-.53,.07-.1,6.51-9.66,9.03-12.4,2.11-2.29,9.67-8.38,9.71-8.41,1.28-.97,2.29-1.21,2.62-.93,.38,.31,.58,1.41-.04,2.66-.87,1.76-3.33,4.33-5.3,6.4-1.06,1.1-2.05,2.15-2.75,3.01-1.66,2.03-4.85,7.13-6.68,10.1l-2.78,3.21c-.71,.82-.63,2.07,.2,2.78,.82,.71,2.07,.63,2.78-.2l6.98-8.05,7.51-6.8c.81-.73,1.48-.91,1.73-.71,.35,.28,.64,1.43-.22,2.98-1.05,1.89-4.55,6.25-5.81,7.77-.03,.04-.07,.09-.1,.13Zm57.36-99.69c.19,.28,.44,.48,.71,.63-.15,.08-.32,.14-.47,.21-1.75-3.28-3.08-8.91-1.26-18.34,.16-.84-.23-1.69-.98-2.1-.74-.41-1.67-.3-2.29,.27,1.62-4.75,5.1-11.8,12.61-20.06,1.8-1.98,4.23-3.96,7.22-5.88,.83-.53,1.14-1.59,.73-2.48-.22-.48-.61-.84-1.08-1.02,4.68-3.16,11.35-6.74,18.56-8.12,3.47-.66,7.88-.64,12.78,.06,.92,.13,1.82-.4,2.13-1.28,.32-.88-.02-1.86-.81-2.35-.51-.32-1.01-.6-1.51-.86,3.04,.18,6.44,.74,9.62,2,4.32,1.7,8.96,5.87,11.86,9.2,.39,.45,.96,.69,1.55,.68,16.98-.58,25.59,15.3,28.71,23.94-.65-.28-1.43-.19-2.01,.27-.73,.58-.95,1.59-.54,2.43,3.27,6.55,3.98,14.92,3.86,21.2-.31-.13-.67-.19-1.02-.15-.97,.12-1.71,.93-1.73,1.91-.12,4.7-1.5,9.26-3.61,14.62-1.01-2.13-2.65-3.75-4.64-4.51-1.43-.54-2.98-.63-4.54-.28,.4-.54,.53-1.27,.25-1.94-.42-1.01-1.58-1.48-2.58-1.06-.25,.1-.32,.07-.39,.04-1.51-.69-3.29-6.14-4.73-10.52-2.16-6.58-4.84-14.77-9.56-19.91-.42-.45-1.01-.69-1.63-.63-.61,.06-1.16,.39-1.49,.91-1.4,2.23-3.05,4.27-4.88,6.08-4.44,4.37-9.37,6.84-13.66,8.24,2.36-4.01,4.26-8.63,5.36-11.53,.31-.82,.04-1.75-.66-2.28-.7-.53-1.67-.53-2.37,0-6.77,5.07-16.3,10.57-23.8,12.67,3.31-5.29,4.07-10.87,4.19-14.13,.03-.86-.49-1.64-1.3-1.93-.8-.29-1.71-.03-2.23,.64-4.43,5.68-15.45,17.02-23.82,22.65-.9,.61-1.14,1.84-.53,2.74Zm31.01,76.66c-4.07-1.06-4.88-4.25-4.96-6.29,2.37-1.92,4.29-4,4.54-5.85,.08-.58,.12-1.26,.13-2,1.36,.13,2.84,.21,4.41,.21,9.74,0,23.12-3.07,34.36-16.71,.03,7.06,.53,15.32,2.34,21.23,0,.01,.01,.03,.02,.05-8,3.68-28.63,12.3-40.85,9.37Zm41.24-41.64c-13.22,23.29-32.21,24.69-42.36,23.44-8.6-1.06-20.93-10.78-23.94-21.74-2.35-8.59-2.51-26-2.35-36.78,6.34-4.45,13.91-11.71,19.23-17.5-.9,2.96-2.49,6.21-5.27,9.04-.57,.58-.73,1.45-.39,2.19,.33,.74,1.09,1.19,1.9,1.16,7.64-.39,17.82-5.7,25.19-10.43-1.75,3.74-3.53,6.73-5.19,8.68-.54,.63-.63,1.54-.21,2.26,.42,.72,1.24,1.11,2.06,.96,5.56-1.01,13.67-3.66,20.68-10.56,1.41-1.39,2.72-2.9,3.91-4.52,3.21,4.53,5.27,10.84,7.13,16.5,2.03,6.21,3.54,10.8,6.23,12.54-.24,1.12-.5,2.31-.8,3.59-.2,.85,.18,1.72,.94,2.16,.76,.43,1.7,.32,2.34-.27,.72-.68,1.21-1.01,1.49-1.18,1.5-.86,2.93-1.07,4.14-.61,1.24,.47,2.25,1.66,2.78,3.25,1.47,4.42-.03,9.4-3.9,12.99-2.92,2.7-8.32,5.63-10.88,4.12-.46-.27-1-.35-1.51-.21-.51,.14-.95,.47-1.21,.93Zm93.88,18.93c-3.16,2.5-5.89,4.66-7.43,6.49-4.39,5.24-11.52,20.93-11.82,21.59-.12,.27-.18,.56-.17,.85v.23s-19.35-2-19.35-2c-.77-1.2-1.65-2.48-2.54-3.76-1.23-1.77-2.5-3.61-3.04-4.66-.5-.98-1.04-2.16-1.57-3.31-.95-2.07-1.93-4.2-2.86-5.61-1.87-2.82-8.5-9.75-8.74-10-1.07-1.19-.81-2.52-.28-3.09,.09-.1,.27-.29,.6-.29,.13,0,.28,.03,.45,.1,.42,1.23,1.48,2.35,2.97,3.09,.99,.49,2.02,.74,2.99,.74,.53,0,1.04-.08,1.52-.22l3.65,3.01,3.81,3.55c.37,.34,.85,.53,1.34,.53,.11,0,.23,0,.34-.03,.61-.11,1.13-.5,1.41-1.05l5.05-9.92c.36-.71,.26-1.56-.25-2.17-.1-.11-2.37-2.81-4.24-4.65-.35-.34-.81-.55-1.3-.57-1.91-.08-4.85,1.27-6.12,2.28-1.33,1.05-3.87,4.12-4.75,5.2-.26,.13-.7,.13-1.18-.01-.77-.23-1.3-.69-1.47-.96,.61-2.01,3.79-7.29,4.74-8.46,2.54-2.43,8.3-5.84,10.08-5.25,1.57,.52,5.95,5.16,9.1,9.16,.48,.61,1.27,.88,2.03,.69,.75-.19,1.33-.8,1.46-1.56,5-27.63,5.01-27.67,5.02-27.73,.2-1.42,.89-4.81,3.09-5.51,.53-.17,.95-.14,1.26,.1,.25,.18,1.04,.99,.99,3.61-.28,2.07-4.35,32.06-4.39,32.34h0s0,.02,0,.03c-.15,1.07,.6,2.07,1.67,2.22,1,.15,1.95-.5,2.2-1.46,1.18-3.11,14.51-25.54,17.99-26.58,1.14-.28,1.6-.08,1.85,.09,.93,.64,1.2,1.9,.64,2.85l-16.89,27.73c-.48,.79-.35,1.82,.33,2.46,.67,.64,1.7,.72,2.47,.2l15.47-10.61c1.7-1.2,3.92-1.98,4.57-1.12,1.4,1.86-7.09,8.57-10.72,11.43Zm-46.21-2.42c1.15-1.36,2.47-2.85,3.09-3.34,.62-.49,1.97-1.09,2.86-1.33,.89,.93,1.83,1.98,2.48,2.73l-3.26,6.41-1.94-1.81s-.06-.05-.09-.08l-3.14-2.59Z"/><path class="cls-8" d="M338.23,435.49c-.41,0-.82-.12-1.17-.38-.88-.65-1.07-1.88-.42-2.76,4.45-6.04,8.98-10.27,14.69-13.7,.93-.56,2.15-.26,2.71,.68,.56,.93,.26,2.15-.68,2.71-5.31,3.19-9.36,6.98-13.55,12.66-.39,.53-.99,.8-1.59,.8Z"/><g><path class="cls-8" d="M224.59,372.04c-.8,0-1.55-.49-1.85-1.27-.42-1.1-1.31-1.81-2.4-1.91-1.08-.1-2.1,.45-2.7,1.46-.56,.94-1.77,1.24-2.71,.69-.94-.56-1.24-1.77-.69-2.71,1.37-2.31,3.82-3.6,6.43-3.37,2.59,.23,4.8,1.93,5.75,4.44,.39,1.02-.13,2.16-1.15,2.55-.23,.09-.47,.13-.7,.13Z"/><path class="cls-8" d="M260.76,375.2c-.8,0-1.55-.49-1.85-1.27-.42-1.1-1.31-1.81-2.4-1.91-1.1-.09-2.1,.45-2.7,1.46-.56,.94-1.77,1.24-2.71,.69-.94-.56-1.24-1.77-.69-2.71,1.37-2.31,3.85-3.6,6.43-3.37,2.59,.23,4.8,1.93,5.75,4.44,.39,1.02-.13,2.16-1.15,2.54-.23,.09-.47,.13-.7,.13Z"/><path class="cls-8" d="M232.49,385.2h-.02c-1.51-.1-2.9,1.05-2.97,1.81-.1,.96,1.37,1.49,2.68,1.66,1.31,.07,2.86-.2,2.93-1.17,.07-.77-1.1-2.13-2.61-2.3Z"/><path class="cls-8" d="M262.09,362.67c-.29,0-.58-.06-.86-.2-2.41-1.17-5.2-1.5-7.85-.94-1.07,.23-2.11-.45-2.34-1.52-.23-1.07,.45-2.11,1.52-2.34,3.51-.75,7.2-.31,10.4,1.25,.98,.48,1.39,1.66,.91,2.64-.34,.7-1.04,1.11-1.78,1.11Z"/><path class="cls-8" d="M222.79,358.94c-.25,0-.5-.05-.74-.14-2.48-1-5.36-1.16-7.9-.44-1.04,.3-2.14-.31-2.44-1.36-.3-1.05,.31-2.14,1.36-2.44,3.41-.97,7.13-.77,10.45,.58,1.01,.41,1.5,1.56,1.09,2.57-.31,.77-1.05,1.23-1.83,1.23Z"/><path class="cls-8" d="M235.65,409.33c-.22,0-.43-.01-.63-.03-3.13-.28-7.45-2.8-10.29-13.16-.16-.58-.02-1.21,.37-1.67,.39-.46,.98-.7,1.59-.64l19.18,1.99c.59,.06,1.12,.41,1.41,.93,.29,.52,.31,1.15,.05,1.69-4.27,8.86-8.6,10.88-11.68,10.88Zm-6.57-11.56c1.69,4.78,3.96,7.67,6.27,7.88,2.27,.22,4.97-2.16,7.44-6.45l-13.71-1.43Z"/></g></g></g><path class="cls-4" d="M105.17,110.01c-12.6,2.13-13.83,3.85-15.34,21.58-1.51-17.72-2.74-19.45-15.34-21.58,12.6-2.13,13.83-3.85,15.34-21.58,1.51,17.72,2.74,19.45,15.34,21.58Z"/><path class="cls-4" d="M414.17,352.01c-12.6,2.13-13.83,3.85-15.34,21.58-1.51-17.72-2.74-19.45-15.34-21.58,12.6-2.13,13.83-3.85,15.34-21.58,1.51,17.72,2.74,19.45,15.34,21.58Z"/></g></g></svg>