<?xml version="1.0" encoding="UTF-8"?><svg id="Layer_2" xmlns="http://www.w3.org/2000/svg" viewBox="0 0 659 184"><defs><style>.cls-1{fill:none;}.cls-2{fill:#00648d;}.cls-3{fill:#efa90c;}.cls-4{fill:#ebebeb;}.cls-5,.cls-6{fill:#fff;}.cls-7{fill:#ffedd8;}.cls-8{fill:#666;}.cls-9{fill:#dd4a3a;}.cls-10{fill:#0e95cc;}.cls-11{fill:#4d4d4d;}.cls-6{opacity:.7;}</style></defs><g id="Layer_1-2"><g><rect class="cls-1" x="0" width="659" height="184"/><polygon class="cls-10" points="552 159 0 159 0 72 552 72 578 116.34 552 159"/><g><g><path class="cls-11" d="M36.69,52.48c1.9,1.23,3.82,1.68,4.66,1.68,.59,0,.72-.24,.72-.47,0-.27-.18-.39-.43-.45-.69-.18-2.66-.39-4.11-1.66-.74-.67-1.25-1.59-1.25-2.96,0-2.84,2.19-4.78,5.78-4.78,1.72,0,3.76,.45,5.05,1.12v4.64c-1.84-.92-3.56-1.25-4.29-1.25-.57,0-.72,.22-.72,.43,0,.29,.22,.41,.45,.49,.59,.18,2.55,.41,3.94,1.51,.96,.78,1.43,1.78,1.43,3.06,0,2.72-2.19,4.62-5.91,4.62-1.78,0-3.92-.43-5.31-1.16v-4.82Z"/><path class="cls-11" d="M52.26,48.87h-3.96v-4.82h13.75v4.82h-3.96v9.36h-5.84v-9.36Z"/><path class="cls-11" d="M63.58,44.05h10.2v4.74h-4.37v.76h3.53v3.37h-3.53v.8h4.64v4.5h-10.48v-14.18Z"/><path class="cls-11" d="M75.51,44.05h5.37c3.41,0,7.23,.98,7.23,5.03,0,3.64-3.06,5.11-6.56,5.11h-.2v4.03h-5.84v-14.18Zm5.99,6.54c1,0,1.47-.53,1.47-1.19s-.49-1.19-1.47-1.19h-.16v2.39h.16Z"/><path class="cls-11" d="M90,52.42c1.72,0,3.02,1.35,3.02,3.02s-1.29,3.02-3.02,3.02-3.02-1.35-3.02-3.02,1.29-3.02,3.02-3.02Z"/></g><path class="cls-3" d="M104.16,59.65c-1.35,0-1.94-.59-1.94-1.94v-9.28c0-8.36,3.51-10.31,8.47-11.82l7.23-2.27c1.13-.32,1.46-.75,1.46-1.94,0-1.08-.38-1.4-1.46-1.4h-11.71c-1.35,0-1.94-.59-1.94-1.94v-6.31c0-1.35,.59-1.94,1.94-1.94h15.92c6.15,0,9.5,3.13,9.5,8.96v5.07c0,5.45-3.18,7.93-8.42,9.55l-7.34,2.32c-1.08,.32-1.4,.43-1.4,1.62v1.13h15.38c1.35,0,1.94,.59,1.94,1.94v6.31c0,1.35-.59,1.94-1.94,1.94h-25.68Z"/></g><g><path class="cls-5" d="M46.36,103.87c.13-1.67,.21-4.16,.21-5.48,0-.9,0-1.24-.13-2.14l8.06,.21c-.21,.99-.21,1.11-.47,5.18q-.04,1.16-.13,2.19h9.34c1.41,0,1.93-.09,2.87-.47l3.34,2.91c-.47,.86-.56,1.2-.6,3.17-.3,9.17-.94,16.33-1.8,19.15-1.24,3.99-3.3,5.36-8.06,5.36-1.67,0-2.31-.04-5.61-.34-.17-3.43-.47-4.84-1.46-7.54,2.14,.56,4.24,.86,5.57,.86,2.06,0,2.57-.69,3.13-4.41,.43-2.87,.81-8.27,.81-11.96h-8.18q-.34,2.83-.64,4.29c-1.89,8.66-5.96,14.23-14.66,19.97-1.93-3.04-3.21-4.5-5.57-6.51,5.7-3,9-6.04,11.14-10.37,1.07-2.18,1.54-3.73,2.14-7.33h-5.36c-2.87,0-3.77,.04-5.78,.26l-.04-7.33c2.14,.3,2.91,.34,5.96,.34h5.91Z"/><path class="cls-5" d="M79.01,111.28c2.01,.3,4.33,.39,8.78,.39h20.48c4.29,0,5.91-.09,8.78-.39v8.27c-2.06-.21-3.94-.26-8.83-.26h-20.4c-4.8,0-6.21,.04-8.83,.26v-8.27Z"/><path class="cls-5" d="M130.18,134.29c.17-1.8,.21-3.04,.26-6.56v-24.94c-.04-3.69-.04-3.9-.3-6.21h8.27c-.17,1.11-.17,1.8-.21,6.26v5.87c6.77,2.18,13.5,5.23,19.5,8.91l-4.07,7.29c-3.56-2.53-8.53-5.27-13.5-7.46-1.29-.51-1.41-.56-1.54-.64-.13-.04-.21-.09-.39-.21v11.14c0,3.17,.09,5.44,.26,6.56h-8.27Zm19.37-35.31c1.67,1.89,3.04,3.86,4.24,6.13l-4.07,1.97c-1.41-2.7-2.53-4.29-4.24-6.26l4.07-1.84Zm5.7-2.57c1.59,1.71,2.79,3.34,4.29,5.96l-3.94,1.93c-1.5-2.7-2.7-4.41-4.2-6.13l3.86-1.76Z"/><path class="cls-5" d="M179.59,97.49c-.21,1.63-.26,2.74-.3,5.27l-.26,22.71c8.66-1.93,15.08-6.81,18.98-14.57,1.97,2.83,3.3,4.29,5.78,6.17-6.21,9.6-14.14,14.57-26.78,16.75-1.59,.3-1.84,.34-2.57,.77l-3.81-4.46c.43-.9,.47-1.37,.51-3.51l.17-23.83v-.69c0-2.01-.09-3.39-.26-4.67l8.53,.04Z"/><path class="cls-5" d="M241.25,134.47c-3.73-4.71-7.5-8.44-12.3-12.17-4.03,4.76-9.13,8.53-15.77,11.74-1.5-3-2.4-4.29-4.8-6.77,5.57-2.14,9.98-4.93,13.88-8.66,3.98-3.81,6.6-7.63,8.61-12.6l-11.14,.17c-3.69,.09-5.06,.17-6.81,.43l-.21-7.63c1.67,.21,2.83,.3,4.5,.3,.34,0,1.16,0,2.4-.04l14.66-.21c2.01-.04,2.27-.04,3.43-.47l3.77,3.86c-.64,.64-.9,1.07-1.54,2.53-2.27,5.36-3.9,8.36-6.3,11.57,5.18,3.73,6.94,5.23,13.63,11.61l-6,6.34Z"/><path class="cls-5" d="M253.3,111.68c.47,.03,.83,.03,1.05,.03,.72,0,1.71-.05,4.71-.25,3.96-.25,6.63-.39,11.86-.58l2.83-.11,1.16-.05c.94-.03,1.1-.05,1.24-.05,.19,0,.3-.03,.63-.11l.25,4.98c-.39-.05-.5-.05-.77-.05-1.93,0-4.4,.74-6.3,1.93-2.75,1.68-4.38,3.99-4.38,6.25,0,1.6,.74,2.67,2.31,3.41,1.1,.55,3.52,.99,5.26,.99,.22,0,.41,0,.83-.03l-.63,5.23c-.39-.08-.47-.08-1.02-.14-3.14-.27-5.2-.74-6.96-1.54-3.25-1.51-4.93-4.05-4.93-7.54,0-2.28,.77-4.35,2.34-6.22,.72-.88,1.38-1.43,2.7-2.34l-1.29,.14c-.61,.05-1.57,.14-6.71,.55-2.56,.27-2.7,.27-3.88,.52l-.28-5.01Zm19.51,6.27c1.1,1.27,1.93,2.48,2.67,3.99l-2.64,1.21c-.85-1.73-1.57-2.81-2.67-4.07l2.64-1.13Zm3.69-1.6c.99,1.1,1.76,2.17,2.7,3.88l-2.56,1.18c-.99-1.84-1.68-2.89-2.61-3.96l2.48-1.1Z"/><path class="cls-5" d="M299.19,119.04c.21-1.11,.3-1.54,.3-2.23,0-.04,0-.13-.04-.21-3.94,.39-6.56,.6-11.06,.9-2.87,.17-3.39,.21-3.9,.26l-.69-5.53c.73,.09,1.5,.13,1.93,.13,.04,0,1.89-.04,5.57-.17l-.09-2.06h-2.36c-1.71,0-2.44,.04-3.51,.13v-5.1c.94,.09,1.71,.13,3.77,.13h1.93l-.04-1.67h-3.17c-1.8,0-2.4,.04-3.56,.13v-5.44c1.2,.13,2.01,.17,3.6,.17h2.91l-.04-.81c0-.6-.09-1.41-.21-1.97l6.56-.09c-.04,.43-.09,.99-.09,1.63v.34l.04,.9h2.4c1.37,0,2.31-.04,3.3-.17v5.44c-.94-.09-1.63-.13-3.3-.13h-2.23l.09,1.67h1.54c1.54,0,1.97,0,2.83-.09v5.01c-.94-.09-1.41-.09-2.96-.09h-1.24l.09,1.76c.86-.04,2.36-.13,4.46-.34,2.96-1.8,4.24-4.41,4.41-8.87-1.33,0-1.97,.04-2.83,.13v-6.17c1.33,.17,3.51,.26,5.44,.26h8.61c1.89,0,3.39-.04,4.59-.21-.13,.99-.13,1.37-.21,3.51-.17,6.98-.56,11.27-1.2,13.2-.94,2.91-2.36,3.64-7.2,3.64-.73,0-1.24,0-2.7-.09-.04-1.8-.3-2.91-.99-4.84-1.11,1.71-2.06,2.83-3.51,4.11q-.13,.69-.21,1.2c-.09,.51-.17,.99-.3,1.63h10.37c2.83,0,4.89-.09,6.13-.26v6.21c-1.46-.17-3.43-.26-5.91-.26h-7.89c2.61,2.61,7.63,4.07,15.04,4.37-1.37,2.31-2.1,4.03-2.74,6.43-4.5-.51-6.94-1.07-9.81-2.36-3.69-1.63-5.87-3.39-8.23-6.47-1.67,2.36-3.6,4.07-6.04,5.44-3.17,1.76-6.13,2.66-11.23,3.39-.73-2.31-1.41-3.86-2.91-6.3,3.6-.21,5.66-.51,7.67-1.16,2.44-.73,4.29-1.76,5.91-3.34h-6.3c-2.61,0-4.76,.09-6.17,.26v-6.17c1.41,.13,3.34,.21,6.17,.21h9.21Zm5.91-2.91c-1.07-1.5-1.76-2.31-2.91-3.47l-.04,3.47h2.96Zm7.5-13.46c-.26,3.51-.86,5.91-2.1,8.44,1.29,.17,2.23,.26,2.91,.26,1.03,0,1.5-.43,1.76-1.63s.39-3.34,.47-7.07h-3.04Z"/><path class="cls-5" d="M336.08,120.5c-.13,6.34-.43,9-1.5,13.2l-4.63-2.23c.99-3.3,1.46-6.77,1.5-11.53l4.63,.56Zm-5.61-7.5c.77,.13,1.37,.17,2.7,.17,.39,0,.64,0,1.16-.04q.77-.94,1.41-1.8c-2.14-3-2.79-3.73-5.48-6.47l2.91-5.31,1.2,1.37c1.11-1.76,2.44-4.59,2.78-5.91l5.53,2.06c-.26,.39-.39,.64-.81,1.5-.94,1.84-2.66,4.76-3.86,6.47,.43,.56,.47,.56,1.11,1.37,2.1-3.26,3.6-5.78,4.16-7.07l5.1,2.79c-.34,.47-.64,.86-1.54,2.23-1.63,2.44-4.76,6.64-6.47,8.66,1.76-.09,2.4-.13,3.69-.21-.34-1.03-.51-1.41-1.03-2.74l3.51-1.37c2.96-3.86,5.36-9.21,6.04-13.5l6.51,.94q-.26,.64-.94,2.83c-.13,.56-.21,.73-.6,1.89h8.74c1.8,0,2.57-.04,3.51-.17q-.21,1.63-.26,8.36c0,5.4-.39,12.81-.81,16.33-.6,5.14-1.5,7.63-3.21,8.83-1.2,.81-3.34,1.2-6.81,1.2-.94,0-1.67,0-3.21-.09-.26-2.48-.6-3.77-1.63-6.68,1.93,.26,4.29,.47,5.44,.47,1.89,0,2.36-.51,2.83-3.09,.6-3.17,.9-9.6,.9-18.81h-8.14c-1.37,2.66-2.27,4.03-4.07,6.17-.9-1.37-1.71-2.18-3.39-3.64,.86,2.01,1.76,4.63,2.74,8.19l-4.46,1.76c-.13-.86-.13-.94-.3-1.67-1.11,.09-1.89,.17-2.31,.17v12.94c0,2.44,.04,3.34,.26,4.76h-6.38c.21-1.37,.26-2.27,.26-4.76v-12.47c-1.46,.09-2.61,.13-3.43,.17-2.06,.13-2.14,.13-2.87,.3l-.47-6.08Zm17.91,6.9c.81,4.07,1.29,7.63,1.59,11.66l-5.01,.69c-.21-4.5-.51-7.97-.94-11.48l4.37-.86Zm6.43,4.84c-1.63-5.78-2.31-7.63-3.9-10.8l5.66-2.31c2.06,4.2,3.04,6.64,4.24,10.67l-6,2.44Z"/></g><g><g><g><g><path class="cls-7" d="M502.58,162.09s1.98-10.7,6.66-15.93c7.08-7.92,24.44-12.22,35.32-31.86l-58.12-29.73s-.11-12.19-.11-27.87c0-13.37-4.83-17.27-8.2-17.31-2.22-.03-3.37,1.18-3.97,2.32-.45,.86-.62,1.84-.57,2.81,.19,3.43,.32,6.07,.62,10.27,.75,10.37-4.4,28.74-5.27,37.48-.62,6.32-2.22,15.74-.58,31.58,1.13,10.86-3.87,21.24-3.87,21.24l38.09,17Z"/><path class="cls-11" d="M502.58,163.7c-.22,0-.45-.05-.66-.14l-38.09-17c-.4-.18-.71-.51-.86-.92-.15-.41-.13-.86,.06-1.26,.05-.1,4.79-10.11,3.72-20.37-1.44-13.84-.45-22.68,.28-29.14,.11-.98,.21-1.91,.3-2.77,.31-3.2,1.19-7.66,2.12-12.38,1.69-8.61,3.61-18.37,3.14-24.82-.24-3.37-.37-5.76-.51-8.3-.04-.65-.07-1.3-.11-1.99-.07-1.3,.18-2.56,.74-3.64,1.08-2.09,3.01-3.23,5.42-3.2,2.56,.03,5.01,1.64,6.72,4.42,2.04,3.32,3.08,8.2,3.08,14.5,0,12.98,.08,23.68,.1,26.88l57.25,29.29c.39,.2,.68,.55,.81,.97,.13,.42,.08,.87-.13,1.25-7.35,13.28-17.5,19.68-25.66,24.82-4.07,2.57-7.59,4.79-9.86,7.33-4.32,4.84-6.26,15.05-6.27,15.15-.09,.49-.4,.91-.84,1.14-.23,.12-.49,.19-.75,.19Zm-35.97-19.44l34.82,15.54c.83-3.46,2.9-10.58,6.61-14.72,2.57-2.88,6.27-5.21,10.55-7.91,7.54-4.75,16.84-10.62,23.72-22.21l-56.61-28.96c-.54-.27-.87-.82-.88-1.42,0-.12-.11-12.38-.11-27.89,0-12.33-4.15-15.66-6.61-15.69-1.2,0-1.99,.45-2.51,1.45-.29,.57-.43,1.25-.39,1.97,.04,.69,.07,1.35,.11,2,.14,2.52,.27,4.91,.51,8.25,.5,6.89-1.47,16.87-3.2,25.68-.91,4.65-1.77,9.03-2.07,12.08-.09,.88-.19,1.82-.3,2.81-.71,6.31-1.68,14.95-.28,28.44,.92,8.83-1.99,17.22-3.36,20.58Z"/></g><g><rect class="cls-2" x="471.54" y="134" width="18.21" height="49.55" rx="2.52" ry="2.52" transform="translate(153.4 544.96) rotate(-68)"/><path class="cls-11" d="M498.81,177.35c-.52,0-1.05-.1-1.55-.3l-41.27-16.67c-1.02-.41-1.83-1.2-2.26-2.22-.43-1.02-.44-2.14-.03-3.16l4.93-12.21c.41-1.02,1.2-1.83,2.22-2.26,1.02-.43,2.14-.44,3.16-.03l41.27,16.67c2.11,.85,3.14,3.27,2.29,5.38l-4.93,12.21c-.41,1.02-1.2,1.83-2.22,2.26-.52,.22-1.07,.33-1.62,.33Zm-36.34-33.92c-.12,0-.24,.02-.35,.07-.22,.09-.39,.27-.48,.49l-4.93,12.21c-.09,.22-.09,.47,0,.69,.09,.22,.27,.39,.49,.48l41.27,16.67s0,0,0,0c.22,.09,.47,.09,.69,0,.22-.09,.39-.27,.48-.49l4.93-12.21c.19-.46-.04-.99-.5-1.17l-41.27-16.67c-.11-.04-.22-.07-.34-.07Z"/></g></g><g><rect class="cls-4" x="487.05" y="5.56" width="64.8" height="124.88" rx="8.5" ry="8.5"/><path class="cls-6" d="M551.86,14.06V121.95c0,4.68-3.81,8.5-8.5,8.5h-47.81c-2.19,0-4.19-.83-5.7-2.2L549.2,7.89c1.64,1.55,2.66,3.74,2.66,6.17Z"/><path class="cls-8" d="M543.36,3.27h-47.81c-5.93,0-10.79,4.85-10.79,10.79V121.95c0,5.93,4.85,10.79,10.79,10.79h47.81c5.93,0,10.79-4.85,10.79-10.79V14.06c0-5.93-4.85-10.79-10.79-10.79Zm7.12,118.67c0,3.93-3.19,7.12-7.12,7.12h-47.81c-3.93,0-7.12-3.19-7.12-7.12V14.06c0-3.93,3.19-7.12,7.12-7.12h5.9c.57,0,1.04,.47,1.04,1.04h0c0,2.31,1.89,4.2,4.2,4.2h25.54c2.31,0,4.2-1.89,4.2-4.2h0c0-.57,.47-1.04,1.04-1.04h5.9c3.93,0,7.12,3.19,7.12,7.12V121.95Z"/></g><g><g><path class="cls-7" d="M560.29,106.31c2.65-1.88,3.99-6.25,2.44-9.45-.57-1.18-1.33-2.07-2.27-2.63,2.89-2.16,3.66-6.82,1.88-10.33-.85-1.67-1.93-2.66-3.38-3.15,2.62-2.27,2.77-6.42,1.05-9.79-1.79-3.5-5.6-4.58-8.5-2.41l-8.62,7.41c-2.93,2.86-3.7,6.27-1.87,9.75,.9,1.72,2.25,2.09,3.75,2.54-1.87,2.39-3.83,5.2-2.3,8.7,1.01,2.29,3.55,3.24,4.91,3.77-1.1,2.06-1.97,3.71-1.02,6.25,.72,1.95,2.07,2.78,3.72,2.98,.48,.06,.95,.03,1.43-.06,1.47-.29,5.31-1.22,8.79-3.58Z"/><path class="cls-11" d="M550.57,111.6c-.23,0-.46-.01-.68-.04-2.43-.28-4.18-1.67-5.05-4.02-.91-2.45-.45-4.31,.32-5.99-1.48-.72-3.27-1.9-4.16-3.93-1.54-3.49-.26-6.42,1.19-8.57-.97-.48-1.89-1.22-2.6-2.57-2.13-4.07-1.36-8.21,2.18-11.66,.02-.02,.05-.05,.07-.07l8.62-7.41s.06-.05,.09-.07c1.71-1.28,3.75-1.73,5.74-1.27,2.16,.5,4.04,2.04,5.16,4.23,1.78,3.48,1.73,7.32,.03,10.05,.92,.71,1.69,1.67,2.31,2.9,1.85,3.65,1.39,8.1-.93,10.97,.51,.57,.95,1.24,1.32,2.01,1.84,3.79,.48,9.04-2.95,11.48,0,0-.02,.01-.03,.02-3.72,2.53-7.81,3.52-9.39,3.83-.42,.08-.83,.12-1.24,.12Zm-6.59-34.44c-2.47,2.42-2.98,5.05-1.54,7.81,.54,1.04,1.22,1.28,2.69,1.72l.09,.03c.51,.15,.91,.55,1.08,1.06,.16,.51,.06,1.07-.27,1.49-1.82,2.32-3.23,4.45-2.09,7.05,.72,1.64,2.75,2.43,3.96,2.89l.05,.02c.43,.17,.77,.51,.93,.94,.16,.43,.13,.92-.09,1.32-1.13,2.12-1.6,3.13-.94,4.92,.45,1.21,1.16,1.79,2.39,1.93,.29,.03,.6,.02,.93-.05,1.39-.27,4.96-1.14,8.18-3.33,1.93-1.38,3.16-4.84,1.9-7.42-.44-.9-.99-1.56-1.64-1.94-.47-.28-.76-.76-.79-1.3-.03-.54,.21-1.06,.65-1.38,2.21-1.65,2.85-5.45,1.41-8.3-.64-1.27-1.4-1.99-2.45-2.35-.55-.19-.96-.65-1.07-1.22-.11-.57,.09-1.15,.53-1.53,2.13-1.84,1.94-5.33,.66-7.83-.69-1.34-1.79-2.27-3.01-2.56-1.05-.24-2.1-.01-3.04,.67l-8.54,7.34Zm16.31,29.15h0Z"/></g><g><line class="cls-11" x1="544.76" y1="88.27" x2="558.96" y2="80.75"/><path class="cls-11" d="M544.77,89.89c-.58,0-1.14-.31-1.43-.86-.42-.79-.12-1.77,.67-2.18l14.2-7.51c.79-.42,1.77-.12,2.18,.67,.42,.79,.12,1.77-.67,2.18l-14.2,7.51c-.24,.13-.5,.19-.75,.19Z"/></g><g><line class="cls-11" x1="547.37" y1="100.74" x2="560.46" y2="94.23"/><path class="cls-11" d="M547.37,102.35c-.59,0-1.17-.33-1.45-.9-.4-.8-.07-1.77,.73-2.17l13.08-6.5c.8-.4,1.77-.07,2.17,.73,.4,.8,.07,1.77-.73,2.17l-13.08,6.5c-.23,.11-.48,.17-.72,.17Z"/></g></g></g><g><path class="cls-9" d="M516.63,66.85c0,6.85-4.18,11.39-10.48,11.39s-10.46-4.44-10.46-11.31,4.1-11.24,10.48-11.24,10.46,4.36,10.46,11.16Zm-5.4,.05c0-4.2-1.92-6.75-5.06-6.75s-5.11,2.57-5.11,6.75,1.95,6.85,5.11,6.85,5.06-2.59,5.06-6.85Z"/><path class="cls-9" d="M539.54,73.9c1.53,2.28,1.87,2.75,2.75,3.84h-6.75c-.36-.83-1.12-2.21-1.79-3.3l-4.02-6.44-2.62,2.62v3.27c0,1.61,.05,2.47,.21,3.84h-5.5c.16-1.32,.21-2.28,.21-3.84v-13.91c0-1.58-.05-2.6-.21-3.84h5.5c-.16,1.35-.21,2.21-.21,3.84v4.59l5.16-5.53c1.01-1.06,1.69-1.95,2.26-2.91h7.01c-.47,.47-.65,.67-1.01,1.04q-1.35,1.35-1.82,1.82l-5.42,5.68,6.25,9.21Z"/></g></g></g></g></svg>