<?xml version="1.0" encoding="UTF-8"?><svg id="Layer_2" xmlns="http://www.w3.org/2000/svg" xmlns:xlink="http://www.w3.org/1999/xlink" viewBox="0 0 762.79 301.6"><defs><style>.cls-1,.cls-2{fill:none;}.cls-3{fill:#999;opacity:.1;}.cls-4{clip-path:url(#clippath);}.cls-5{fill:#f4690b;}.cls-6{fill:#fff;}.cls-7{fill:#fcee21;}.cls-8{fill:#ff8939;}.cls-9{fill:#b4bec1;}.cls-10{fill:#333;}.cls-11{fill:#c9d2d6;}.cls-12{fill:#dce1e2;}.cls-13{fill:#229ef2;}.cls-14{fill:#0679b7;}.cls-15{fill:#3fa9f5;}.cls-2{stroke:#4f4f4f;stroke-dasharray:0 0 11.93 19.88;stroke-miterlimit:10;stroke-width:3px;}</style><clipPath id="clippath"><path class="cls-1" d="m236.76,49.86c-.34-1.16-1.56-1.83-2.73-1.48s-1.83,1.56-1.48,2.73c.2.69.72,1.2,1.35,1.43h-.01s.83,2.8.83,2.8c.16.55.73.86,1.28.7l.55-.16c.55-.16.86-.73.7-1.28l-.83-2.8h-.01c.4-.53.56-1.24.36-1.93Z"/></clipPath></defs><g id="PC"><rect class="cls-1" width="762.79" height="301.6"/><path class="cls-10" d="m127.05,236.21c.2-2.62.34-6.52.34-8.6,0-1.41,0-1.95-.2-3.36l12.64.34c-.34,1.55-.34,1.75-.74,8.13q-.07,1.82-.2,3.43h14.65c2.22,0,3.02-.13,4.5-.74l5.24,4.57c-.74,1.34-.87,1.88-.94,4.98-.47,14.39-1.48,25.61-2.82,30.05-1.95,6.25-5.18,8.4-12.64,8.4-2.62,0-3.63-.07-8.81-.54-.27-5.38-.74-7.6-2.29-11.83,3.36.87,6.65,1.34,8.74,1.34,3.23,0,4.03-1.08,4.91-6.92.67-4.5,1.28-12.97,1.28-18.76h-12.84q-.54,4.44-1.01,6.72c-2.96,13.58-9.34,22.32-22.99,31.33-3.02-4.77-5.04-7.06-8.74-10.22,8.94-4.71,14.12-9.48,17.48-16.27,1.68-3.43,2.42-5.85,3.36-11.49h-8.4c-4.5,0-5.92.07-9.08.4l-.07-11.5c3.36.47,4.57.54,9.34.54h9.28Z"/><path class="cls-10" d="m174.91,247.84c3.16.47,6.79.61,13.78.61h32.13c6.72,0,9.28-.13,13.78-.61v12.97c-3.23-.34-6.18-.4-13.85-.4h-32c-7.53,0-9.75.07-13.85.4v-12.97Z"/><path class="cls-10" d="m251.81,283.94c.27-2.82.34-4.77.4-10.29v-39.12c-.07-5.78-.07-6.12-.47-9.75h12.97c-.27,1.75-.27,2.82-.34,9.81v9.21c10.62,3.43,21.18,8.2,30.59,13.98l-6.39,11.43c-5.58-3.97-13.38-8.27-21.18-11.7-2.02-.81-2.22-.87-2.42-1.01-.2-.07-.34-.13-.61-.34v17.48c0,4.98.13,8.54.4,10.29h-12.97Zm30.39-55.39c2.62,2.96,4.77,6.05,6.65,9.61l-6.39,3.09c-2.22-4.24-3.97-6.72-6.65-9.81l6.39-2.89Zm8.94-4.03c2.49,2.69,4.37,5.24,6.72,9.34l-6.18,3.02c-2.35-4.24-4.24-6.92-6.59-9.61l6.05-2.76Z"/><path class="cls-10" d="m322.72,277.89v4.64h-12.23c.4-3.7.54-5.98.54-10.96v-34.55c0-2.89-.07-4.97-.27-7.73,2.35.2,3.7.27,8.13.27h36.23c4.17,0,5.18,0,8.34-.27-.13,2.35-.2,4.77-.2,7.93v34.08c0,5.18.13,8.4.47,11.09h-12.17v-4.5h-28.84Zm28.84-37.58h-28.84v26.82h28.84v-26.82Z"/><path class="cls-10" d="m376.97,247.84c3.16.47,6.79.61,13.78.61h32.13c6.72,0,9.28-.13,13.78-.61v12.97c-3.23-.34-6.18-.4-13.85-.4h-32c-7.53,0-9.75.07-13.85.4v-12.97Z"/><path class="cls-10" d="m453.33,227.94c8.47,4.98,12.84,8.07,18.49,13.18l-7.93,10.49c-5.85-6.12-11.56-10.55-18.29-14.18l7.73-9.48Zm-7.06,41.75c6.86-.54,13.92-2.22,20.23-4.84,8.47-3.5,14.52-8.54,19.7-16.6,2.82-4.3,4.64-8,6.59-13.18,3.29,3.97,4.84,5.31,9.88,9.01-6.12,13.24-12.5,21.18-21.92,27.23-7.26,4.71-13.65,7.19-26.15,10.08-2.62.61-3.02.67-4.84,1.21l-3.5-12.91Z"/><path class="cls-15" d="m609.29,272.65l2.99-1.03c.74-.25,2.09-.94,4.47-2.72v-5.65c-.6.02-1.16.08-2.07.22l-3.46.53v-15.05l3.42.49c1.36.19,2.1.24,3.98.24h1.71c-2.67-3.52-4.5-5.41-8.32-8.66l-2.51-2.14,10.29-10.02,2.07,1.71c1.03.85,1.98,1.66,2.87,2.46v-2.47l3.23.25c1.33.1,2.76.15,4.38.15h7.56c1.57,0,2.48,0,3.17-.02v-.38l2.54.2,3.21-.29-.14.47c.64.02,1.3.03,2,.03h7.35c2.73,0,3.46,0,4.5-.09l3.87-.35-.64,3.83c-.06.38-.07.56-.07,1.33v6.87c0,.72,0,1.27,0,1.71l1.87.22-.28,2.92c-.16,1.69-.41,3.4-1.27,4.83v7l1.13-.13v8.52l3.32.39-2.41,2.5,1.87-.25-1.68,4.67c-.94,2.55-1.4,4.5-1.82,7.76l-.33,2.53-2.55.09c-4.97.17-12.65.27-20.54.27-8.34,0-11.61-.3-14.57-1.35-1.77-.62-3.25-1.45-4.69-2.66-1.36,1.14-2.71,2.13-5.27,3.98l-3.1,2.24-6.1-15.12Z"/><path class="cls-6" d="m619.96,232.88c3.65,3,6.12,5.42,8.53,8.21,1.34.11,1.66.11,3.92.11h4.94v-1.56h-5.1c-2.41,0-3.16,0-4.51.16v-6.01c1.39.11,2.9.16,4.61.16h7.56c2.79,0,3.59,0,4.77-.11-.16.54-.16.97-.16,1.88l.05,1.07v5.74c0,1.56,0,2.41.11,3.11-1.29-.05-2.36-.11-3.59-.11h-5.79v1.18c0,.81.16.91,1.66.91.97,0,1.61-.11,1.88-.27.16-.16.32-.7.32-1.4v-.32c2.36.86,4.02,1.29,6.22,1.56-.38,3.22-.75,3.97-2.41,4.77v2.58h5.69v-2.31c-1.61-.54-2.31-1.61-2.31-3.33v-4.35q0-1.66-.16-3.49c1.34.11,1.77.11,4.08.11h4.88v-1.56h-4.56c-2.41,0-3.17,0-4.51.16v-6.01c1.39.11,2.9.16,4.61.16h7.35c2.79,0,3.59,0,4.77-.11-.11.64-.11,1.02-.11,1.82v6.87c0,1.61,0,2.41.11,3.11-1.29-.05-2.36-.11-3.59-.11h-5.69v1.23c0,.7.38.91,1.82.91.91,0,1.72-.11,1.93-.32q.16-.16.32-1.07v-.64c1.98.7,4.02,1.13,6.71,1.45-.27,2.79-.75,3.92-1.93,4.61-.97.59-2.2.75-6.12.86v1.98h1.77c3,0,3.59,0,4.99-.16v6.06c-1.5-.16-2.09-.21-4.99-.21h-1.72v2.36h2.74c3.06,0,3.65,0,5.1-.16v6.12c-1.56-.16-2.15-.16-5.1-.16h-3.7c3,.97,5.04,1.45,8.74,1.88-1.5,1.56-1.66,1.82-3.17,4.13,1.29-.11,2.09-.21,4.51-.54-1.07,2.9-1.56,5.1-1.98,8.42-4.72.16-12.34.27-20.44.27s-11-.27-13.57-1.18c-2.15-.75-3.7-1.82-5.58-3.92-2.31,2.09-3.27,2.84-7.13,5.63l-3.49-8.64c1.56-.54,3.7-1.88,6.49-4.08v-10.14h-2.2c-1.18,0-1.93.05-3.33.27v-8.1c1.5.21,2.36.27,4.4.27h5.15c2.2,0,2.68,0,4.02-.16-.11,1.56-.11,2.09-.11,6.01v12.55c1.66,2.41,3.06,3.27,5.74,3.65-1.5-1.82-1.77-2.15-4.18-4.34,3.22-.59,4.99-1.07,7.56-1.99h-4.13c-1.93,0-2.74.05-3.81.21v-6.22c1.18.16,1.72.21,3.7.21h2.74v-2.36h-.48c-2.95,0-3.59.05-5.04.21v-6.06c1.4.16,1.98.16,5.04.16h.48v-1.93c-3.06,0-4.18-.11-4.99-.43-1.29-.54-1.82-1.5-1.82-3.22v-5.69l-5.26,5.26c-3-4.02-4.93-6.11-9.28-9.82l6.01-5.85m23.01,29.72h5.69v-2.36h-5.69v2.36m7.24,5.79h-8.53l3.7,2.41c-3,1.88-5.58,3.11-8.9,4.24,1.72.05,4.13.11,6.54.11,2.9,0,8.9-.16,11.8-.32-2.63-.86-4.72-1.88-8.05-4.02l3.43-2.41m-30.59-43.56l-3.85,3.75-6.01,5.85-4.72,4.59,5.02,4.27c1.31,1.11,2.36,2.05,3.27,2.92l-5.11-.73v22.01l5.53-.85v.71c-1.56,1.08-2.28,1.36-2.45,1.42l-5.97,2.06,2.36,5.86,3.49,8.64,2.87,7.1,6.21-4.48c1.54-1.11,2.65-1.92,3.59-2.64,1.12.7,2.31,1.27,3.62,1.72,3.66,1.3,7.76,1.52,15.55,1.52s15.65-.1,20.64-.27l5.09-.17.65-5.05c.39-3.05.8-4.77,1.66-7.11l2.56-6.9,3.23-3.34-6.69-.78v-9.2l-1.13.13v-2.93c.16-.33.3-.67.42-1l.41.02-.13-.88c.37-1.32.49-2.54.57-3.4l.56-5.83-2.14-.26v-5.91c0-.68,0-.7.03-.84l1.28-7.67-7.74.7c-.88.08-1.49.08-4.23.08h-5.32l.27-.89-7.38.67-5.52-.43v.64h-7.73c-1.54,0-2.9-.05-4.15-.14l-5.47-.42-3.1-2.56h0Z"/><path class="cls-6" d="m223.68,37.89l7.11,29.57c2.19,9.13,10.35,15.56,19.74,15.56h324.84c10.15,0,18.75-7.5,20.12-17.57l2.72-19.98c1.63-11.96-7.47-22.68-19.53-23.03L244,12.86c-13.37-.38-23.45,12.04-20.32,25.04Z"/><path class="cls-6" d="m227.96,39.96l6.94,25.11c2.14,7.75,10.12,13.21,19.29,13.21h317.41c9.92,0,18.32-6.37,19.66-14.91l2.66-16.96c1.59-10.15-7.3-19.26-19.09-19.55l-327.01-8.14c-13.06-.33-22.91,10.22-19.86,21.26Z"/><path class="cls-2" d="m227.96,39.96l6.94,25.11c2.14,7.75,10.12,13.21,19.29,13.21h317.41c9.92,0,18.32-6.37,19.66-14.91l2.66-16.96c1.59-10.15-7.3-19.26-19.09-19.55l-327.01-8.14c-13.06-.33-22.91,10.22-19.86,21.26Z"/><path class="cls-3" d="m274.46,62.12l-7.92-28.88h0l-.85-3.11-1.48-5.41c-.54-1.97-2.58-3.14-4.55-2.59l-57.12,15.66c-1.97.54-3.14,2.58-2.59,4.55l10.25,37.39c.54,1.97,2.58,3.14,4.55,2.59l57.12-15.66c1.97-.54,3.14-2.58,2.59-4.55Z"/><rect class="cls-13" x="198.93" y="25.29" width="66.64" height="46.18" rx="6.74" ry="6.74" transform="translate(-4.53 63.12) rotate(-15.33)"/><rect class="cls-10" x="195.09" y="30.43" width="66.64" height="7.92" transform="translate(-.96 61.61) rotate(-15.33)"/><path class="cls-13" d="m236.76,49.86c-.34-1.16-1.56-1.83-2.73-1.48s-1.83,1.56-1.48,2.73c.2.69.72,1.2,1.35,1.43h-.01s.83,2.8.83,2.8c.16.55.73.86,1.28.7l.55-.16c.55-.16.86-.73.7-1.28l-.83-2.8h-.01c.4-.53.56-1.24.36-1.93Z"/><path class="cls-11" d="m242.93,40.26l-.92.27-1.44-4.89c-.81-2.74-3.7-4.32-6.45-3.51l-8.99,2.65c-2.74.81-4.32,3.7-3.51,6.45l1.44,4.89-.92.27c-1.59.47-2.49,2.13-2.02,3.72l3.9,13.2c.47,1.59,2.13,2.49,3.72,2.02l20.77-6.13c1.59-.47,2.49-2.13,2.02-3.72l-3.9-13.2c-.47-1.59-2.13-2.49-3.72-2.02Zm-17.09-.27c-.13-.42.12-.87.54-1l8.99-2.65c.42-.13.87.12,1,.54l.56,1.91c.49,1.65-.45,3.38-2.1,3.86l-4.56,1.35c-1.65.49-3.38-.45-3.86-2.1l-.56-1.91Z"/><path class="cls-13" d="m236.76,49.86c-.34-1.16-1.56-1.83-2.73-1.48s-1.83,1.56-1.48,2.73c.2.69.72,1.2,1.35,1.43h-.01s.83,2.8.83,2.8c.16.55.73.86,1.28.7l.55-.16c.55-.16.86-.73.7-1.28l-.83-2.8h-.01c.4-.53.56-1.24.36-1.93Z"/><path class="cls-9" d="m246.92,49.04l1.88,6.38c.28.96-.26,1.95-1.22,2.24l-13.92,4.11c4.18-1.95,8.41-4.19,11.19-5.82,2.03-1.19,2.4-3.94,2.07-6.9Z"/><path class="cls-12" d="m223.54,56.63l-1.88-6.38c-.28-.96.26-1.95,1.22-2.24l13.92-4.11c-4.18,1.95-8.41,4.19-11.19,5.82-2.03,1.19-2.4,3.94-2.07,6.9Z"/><g class="cls-4"><path class="cls-14" d="m237.49,49.65c-.34-1.16-1.56-1.83-2.73-1.48-1.16.34-1.83,1.56-1.48,2.73.2.69.72,1.2,1.35,1.43h-.01s.83,2.8.83,2.8c.16.55.73.86,1.28.7l.55-.16c.55-.16.86-.73.7-1.28l-.83-2.8h-.01c.4-.53.56-1.24.36-1.93Z"/></g><path class="cls-7" d="m617.37,65.59c-4.06.69-4.46,1.24-4.95,6.96-.49-5.72-.88-6.28-4.95-6.96,4.06-.69,4.46-1.24,4.95-6.96.49,5.72.88,6.28,4.95,6.96Z"/><path class="cls-7" d="m177.65,64.92c-10.04,2.07-11.01,3.74-12.22,20.96-1.21-17.22-2.18-18.89-12.22-20.96,10.04-2.07,11.01-3.74,12.22-20.96,1.21,17.22,2.18,18.89,12.22,20.96Z"/><path d="m304.33,46.21h-15.26v-2.65c-2.04,1.47-4.11,2.73-6.22,3.78l-2.99-3.51c5.71-2.66,10.42-6.15,14.13-10.49h4.95c3.8,4.24,8.65,7.66,14.54,10.25l-2.92,3.64c-2.04-.94-4.11-2.12-6.22-3.54v2.51Zm5.5,6.22c-3.32,5.82-9.13,9.88-17.43,12.17l-2.99-4.02c6.6-1.65,11.43-4.27,14.47-7.87h-20.56v-4.26h26.51v3.99Zm-18.81-10.31h11.07c-2.11-1.58-3.99-3.22-5.64-4.92-1.7,1.77-3.51,3.4-5.43,4.92Z"/><path d="m346.58,63.61h-4.74v-2.34h-14.65v2.34h-4.78v-28.77h24.17v28.77Zm-4.74-17.74v-6.64h-14.65v6.64h14.65Zm0,11v-6.81h-14.65v6.81h14.65Z"/><path d="m382.44,53.81h-7.91v10.11h-4.71v-10.11h-7.53v2.17h-4.5v-17.4h12.03v-5.26h4.71v5.26h12.41v17.4h-4.5v-2.17Zm-20.15-4.26h7.53v-6.67h-7.53v6.67Zm12.24,0h7.91v-6.67h-7.91v6.67Z"/><path d="m403,34.42c-.67,6.67-1,12.72-1,18.15,0,3.62.08,7.04.24,10.25h-4.74c-.14-3.16-.21-6.55-.21-10.18,0-5.82.3-11.9.89-18.22h4.81Zm20.87,26.75c-2.68.53-5.33.79-7.94.79-7.86,0-11.79-2.54-11.79-7.63,0-2.52,1.01-5.04,3.03-7.56h5.5c-2.54,2.68-3.82,5.02-3.82,7.01,0,2.34,2.36,3.51,7.08,3.51,2.41,0,5.05-.32,7.94-.96v4.85Zm-.69-19.77h-17.64v-4.64h17.64v4.64Z"/><path class="cls-8" d="m462.16,58.24c0,2.25-.34,3.7-1.01,4.37-.68.66-2.13,1-4.35,1h-4.95l-1.34-4.4h5.19c.6,0,1.04-.09,1.32-.28.29-.18.43-.68.43-1.48v-14.68h-7.36c-.05.37-.09.73-.14,1.1,1.37,2.68,3.69,5.32,6.94,7.91l-2.85,3.61c-2.36-1.97-4.23-4.04-5.6-6.22-1.37,3.19-3.45,5.92-6.22,8.22l-3.54-3.37c4.1-2.7,6.37-6.45,6.81-11.24h-7.12v21.01h-4.71v-25.34h11.93v-5.12h4.61v5.12h11.96v19.8Z"/><path class="cls-8" d="m475.09,53.05c-.39,3.35-1,6.42-1.82,9.21l-3.37-1.99c.85-2.27,1.47-4.92,1.86-7.94l3.33.72Zm25.1,11.04h-4.23v-1.55h-5.23v1.55h-4.19v-10.86l-1.51.96-1.89-2.82-1.27.48c-.14-.37-.29-.77-.45-1.2-.34.07-.92.16-1.72.28v13.3h-4.09v-12.79c-1.56.16-3.24.29-5.05.38l-.58-3.89c.48,0,1.19-.01,2.13-.03.92-1.08,1.67-1.98,2.27-2.72-1.37-1.58-2.84-3.13-4.4-4.64l2.23-3.92,1.27,1.37c1.03-1.6,2.04-3.35,3.03-5.23l3.68,1.68c-1.26,2.04-2.68,4.14-4.26,6.29l1,1.17c1.26-1.7,2.52-3.54,3.78-5.53l3.61,1.82c-1.42,1.97-3.07,4.11-4.95,6.43l2.65-1.07c.83,1.58,1.73,3.6,2.72,6.05.8-.41,1.41-.74,1.82-1v-.34h.58c1.03-.64,2-1.32,2.92-2.03h-6.6v-3.99h5.67v-2.37h-4.61v-3.89h4.61v-2.61h4.33v2.61h3.3v2.61c.69-1.15,1.33-2.41,1.93-3.78l3.09,2.61c-.87,1.74-1.83,3.35-2.89,4.81h2.92v3.99h-6.33c-.69.69-1.41,1.36-2.17,2.03h6.88v15.81Zm-23.27-16.47c.87-.07,1.91-.19,3.13-.38-.32-.71-.67-1.44-1.03-2.2l-2.1,2.58Zm7.94,12.17l-3.23,1.27c-.6-2.52-1.07-5.27-1.41-8.25l3.09-.86c.39,2.91.91,5.52,1.55,7.84Zm11.1-6.12v-1.93h-5.23v1.93h5.23Zm0,5.23v-1.99h-5.23v1.99h5.23Zm-1.79-16.64c.55-.67,1.13-1.46,1.75-2.37h-2.58v2.37h.82Z"/><path d="m537.52,40.43l-2.99.1c-3.25.11-6.23,1.18-8.94,3.2-2.77,2.11-4.16,4.44-4.16,6.98,0,2.7,1.29,4.63,3.89,5.78,2.13.96,5.24,1.44,9.32,1.44v4.85c-5.84.16-10.36-.81-13.55-2.92-3.05-2.04-4.57-4.9-4.57-8.59,0-4.29,2.13-7.86,6.39-10.73l-13.24.45v-4.64l27.85-.55v4.64Zm-3.47,7.32h-2.99v-4.92h2.99v4.92Zm4.33,0h-2.99v-4.92h2.99v4.92Z"/><rect class="cls-5" x="100.9" y="131.1" width="241.9" height="59.53"/><path class="cls-6" d="m204.72,185.34c-2.07-3.29-3.62-5.14-6.12-7.33l-2.91-2.55,3.33-1.97c4.56-2.69,6.77-4.57,9.12-7.73,3.23-4.26,5.2-9.61,6.06-16.38.32-2.26.46-3.86.53-6.55h-3.92c-3.21,0-6.4.12-8.97.34l-3.04.26v-15.56l3.04.26c2.67.23,5.5.34,8.91.34h37.51c3.23,0,5.96-.11,8.86-.34l3.02-.25v15.54l-3.04-.26c-2.58-.22-5.68-.34-8.73-.34h-18.35c-.02.47-.04.89-.06,1.3h13.65c3.53,0,6.01-.05,8.25-.28l3.61-.37-.55,3.59q-.22,1.41-.46,8.2c-.31,9.9-1.49,18.54-3.06,22.53-2.64,6.6-7.45,7.85-15.41,7.85-2.14,0-4.46-.14-7.52-.36l-2.35-.17-.23-2.34c-.33-3.36-.86-5.47-2.03-8.07l-1.18-2.64c-3.72,6.1-7.56,9.94-14.09,14.13l-2.37,1.52-1.5-2.38Zm22.19-14.52c3.1.55,6.82.95,8.84.95,1.38,0,1.71-.2,1.72-.21.5-.97,1.4-5.52,1.78-13.58h-11.03c-1.01,4.58-2.44,8.49-4.5,12.28l3.18.56Z"/><path class="cls-5" d="m257.34,130.95v9.46c-2.74-.23-5.92-.35-8.97-.35h-21.04c-.12,3.39-.18,4.85-.37,6.89h16.65c3.9,0,6.28-.06,8.54-.29q-.24,1.58-.49,8.53c-.3,9.64-1.46,18.04-2.87,21.61-1.89,4.73-4.76,6.07-12.81,6.07-1.95,0-4.09-.12-7.32-.35-.37-3.68-.98-6.07-2.26-8.93,3.29.58,7.14.99,9.33.99,2.32,0,3.48-.47,4.15-1.63,1.1-2.1,2.01-8.99,2.26-17.75h-16.23c-1.1,6.01-2.81,10.69-5.55,15.3-3.54,5.84-7.01,9.34-13.3,13.37-2.14-3.39-3.84-5.49-6.65-7.94,4.94-2.92,7.38-5.02,9.94-8.47,3.54-4.67,5.67-10.45,6.59-17.69.43-3.04.55-4.96.61-9.69h-6.77c-3.17,0-6.47.12-9.21.35v-9.46c2.68.23,5.61.35,9.15.35h37.51c3.42,0,6.22-.12,9.09-.35m-61.35-6.1v21.65l6.07-.52c2.51-.21,5.61-.33,8.74-.33h.99c-.08,1.11-.2,2.11-.37,3.32v.04s-.01.04-.01.04c-.79,6.26-2.59,11.18-5.5,15.02l-.02.02v.02c-1.89,2.52-3.61,4.21-8.31,6.99l-6.66,3.94,5.83,5.09c2.3,2.01,3.66,3.64,5.6,6.71l3.01,4.77,4.75-3.04c5.24-3.36,8.85-6.52,12.01-10.66.5,1.51.78,3.04.99,5.16l.47,4.69,4.7.34c3.12.23,5.5.36,7.72.36,7.17,0,14.47-.74,18-9.59,2.02-5.14,3.01-15.51,3.26-23.51q.23-6.6.43-7.85l.22-1.44,5.03.43v-21.62l-6.05.49c-2.81.23-5.48.33-8.63.33h-37.51c-3.33,0-6.08-.1-8.67-.33l-6.08-.53h0Zm34.43,35.93h5.86c-.27,3.89-.67,6.61-.99,8.19-1.65-.05-4.52-.32-7.42-.82,1.03-2.34,1.87-4.76,2.55-7.37h0Z"/><path class="cls-6" d="m263.66,186.13l.42-3.17c.29-2.13.4-4.24.4-7.28v-38.83c0-2.61-.06-4.11-.23-5.72l-.35-3.34,3.35.26c2.25.17,3.99.22,7.78.22h36.97c3.99,0,5.86-.05,7.39-.22l3.56-.38-.49,3.55c-.21,1.53-.28,3.16-.28,6.97v37.72c0,4.66-2.28,7.96-6.26,9.06-1.51.46-3.94.68-7.58.68-1.4,0-3.41-.04-5.75-.09l-3.64-.07-.38-2.29c-.51-3.05-1.11-4.89-2.56-7.88l-2.15-4.43,4.91.43c4.1.36,6.68.51,8.36.51h.07v-6.49h-27.65v10.63c0,3.91.07,5.66.27,6.92l.52,3.24h-16.66Zm43.53-34.68v-9.12h-6.73v9.12h6.73Zm-21.53,0v-9.12h-6.12v9.12h6.12Z"/><path class="cls-5" d="m319.68,130.83c-.24,1.75-.31,3.56-.31,7.36v37.72c0,3.39-1.46,5.61-4.21,6.37-1.34.41-3.66.58-6.83.58-1.65,0-4.15-.06-7.01-.12-.55-3.27-1.22-5.37-2.81-8.64,4.03.35,6.77.53,8.6.53,2.38,0,2.87-.23,2.87-1.28v-10.8h-33.24v13.43c0,3.85.06,5.84.3,7.36h-10.19c.31-2.28.43-4.5.43-7.65v-38.83c0-2.69-.06-4.26-.24-6.01,2.26.17,4.03.23,7.99.23h36.97c4.09,0,6.04-.06,7.69-.23m-22.02,23.42h12.32v-14.72h-12.32v14.72m-20.92,0h11.71v-14.72h-11.71v14.72m49.47-29.74l-7.12.76c-1.41.15-3.26.2-7.1.2h-36.97c-3.69,0-5.39-.05-7.56-.22l-6.69-.52.7,6.68c.16,1.53.21,2.9.21,5.43v38.83c0,2.91-.11,4.91-.38,6.91l-.85,6.34h23.15l-1.04-6.48c-.17-1.08-.23-2.77-.23-6.47v-7.84h7.07l4.08,8.41c1.34,2.76,1.86,4.35,2.32,7.13l.77,4.57,4.64.09,1.44.03c2.29.05,4.27.09,5.69.09,3.93,0,6.52-.25,8.39-.8,5.16-1.46,8.24-5.84,8.24-11.74v-37.72c0-3.66.06-5.2.25-6.58l.99-7.09h0Zm-22.96,20.61h1.13v3.53h-1.13v-3.53h0Zm-20.92,0h.52v3.53h-.52v-3.53h0Zm12.15,23.01h9.91v.8c-1.41-.08-3.19-.22-5.39-.41l-4.52-.39h0Z"/><path class="cls-10" d="m365.67,138.11c-.98,2.56-1.39,3.49-2.67,6.25v28.54c0,2.21.05,3.25.26,5.66h-8.17c.21-2.02.31-3.39.31-5.66v-14.51q.05-.93.05-3.4-.46.64-1.39,1.92c-.31.44-.67.84-1.28,1.53-.72-3.59-1.34-5.76-2.62-9.05,3.08-3,5.5-6.84,7.35-11.71.98-2.46,1.44-4.13,1.7-6.15l8.17,1.72c-.1.29-.67,1.92-1.03,3,1.18.1,2.11.15,3.85.15h1.18v-.64c0-1.48-.1-2.46-.31-3.54h8.12c-.15.84-.21,1.82-.21,3.59v.59h5.19v-.69c0-1.67-.05-2.56-.26-3.49h8.22c-.21.98-.26,2.02-.26,3.54v.64h1.95c2,0,3.34-.05,4.78-.25v6.99c-1.44-.15-2.52-.2-4.73-.2h-2v2.95h2.42c2.72,0,3.91-.05,5.14-.25v7.13c-1.29-.2-2.67-.25-5.29-.25h-24.41c-2.57,0-3.96.05-5.34.25v-7.13c1.18.2,2.57.25,5.24.25h1.75v-2.95h-1.18c-2.11,0-3.24.05-4.52.2v-5.02Zm1.34,20.56c0-2.12-.05-3.2-.21-4.48,1.28.15,2.42.2,4.78.2h19.73c2.72,0,3.96-.05,4.98-.2-.15,1.18-.21,2.31-.21,4.67v13.28c0,2.56.05,4.43.26,6.4h-7.91v-1.82h-13.87v1.82h-7.86c.21-1.97.31-3.74.31-5.9v-13.97Zm7.55,3.89h13.87v-2.21h-13.87v2.21Zm0,7.97h13.87v-2.31h-13.87v2.31Zm9.61-24.65v-2.95h-5.19v2.95h5.19Z"/><path class="cls-10" d="m419.93,133.68c-.72,2.07-1.34,5.26-2.11,10.53,3.34-5.76,7.5-8.51,13-8.51,3.49,0,6.94,1.67,9.3,4.48,2.88,3.44,4.27,7.92,4.27,13.68,0,8.07-2.62,14.07-7.86,18.01-2.93,2.21-7.04,4.03-11.72,5.12-1.75.44-3.08.69-6.06,1.13-1.23-3.69-1.9-5.07-4.11-8.41,14.75-.84,20.71-5.46,20.71-16.09,0-6.15-2.06-9.54-5.7-9.54-1.9,0-3.65.88-5.55,2.85-3.08,3.1-5.09,7.18-5.7,11.41-.15,1.13-.21,1.72-.21,4.03l-8.63.1c.05-.34.05-.64.05-.84v-.98c-.1-1.92-.15-4.87-.15-6.25,0-5.95.36-11.61,1.18-17.96.15-1.43.21-1.97.21-2.71v-.39l9.1.34Z"/><path class="cls-10" d="m467.97,143.37c-.72,2.66-1.59,7.28-2.21,11.96,4.32-2.66,8.84-3.84,14.7-3.84,9.15,0,15.21,4.58,15.21,11.56,0,4.23-2.11,8.02-5.81,10.43-3.7,2.41-8.38,3.54-14.7,3.54-4.21,0-7.86-.39-12.9-1.48-.15-4.08-.36-5.66-1.18-8.76,5.09,1.53,9.87,2.31,13.72,2.31,6.78,0,11.31-2.31,11.31-5.81,0-2.61-2.67-4.13-7.3-4.13-3.85,0-7.76.98-11.25,2.95-1.34.69-1.85,1.13-2.88,2.21l-8.53-.34c.1-.44.1-.49.15-.98.26-2.36,1.34-10.23,2.36-17.02.15-1.08.26-1.87.31-3.15l8.99.54Zm-.93-10.82c2.52,1.23,5.6,2.26,10.48,3.49,3.49.89,7.91,1.77,10.33,2.12l-2.72,7.92c-9.3-1.82-16.19-3.79-22.2-6.45l4.11-7.08Z"/><path class="cls-10" d="m502.3,162.71c1.39-1.03,2.21-1.72,3.6-3,3.44-3.35,5.34-5.12,5.6-5.41.05-.79.1-2.21.15-5.41q-5.76.34-7.66.64l-.41-7.77c1.18.1,1.8.15,2.67.15,1.28,0,3.44-.1,5.6-.25q.05-.59.05-1.57c.05-1.03.1-2.26.1-3.4,0-1.52-.05-2.02-.21-3.25l9.09.2c-.21,1.18-.51,4.28-.62,7.28l2.83,2.56c-.92.64-1.95,1.77-3.24,3.35l-.05.69c0,.54,0,.64-.05,1.08,6.42-5.71,11.72-8.46,16.24-8.46,4.98,0,8.27,3.05,8.27,7.67,0,1.67-.31,3.3-1.34,7.43-1.59,6.2-2.21,9.3-2.21,10.53,0,.89.46,1.43,1.23,1.43s1.85-.84,2.83-2.21c1.28-1.77,2.47-3.79,3.08-5.26,1.18,3.1,2.06,4.72,4.32,7.92-3.96,6.2-7.3,8.56-12.23,8.56s-8.07-3.1-8.07-7.92c0-2.76.51-5.71,2.26-13.09.62-2.61.93-4.28.93-5.07,0-.89-.57-1.38-1.49-1.38-1.23,0-3.03.74-4.88,2.02-3.44,2.31-6.68,5.07-8.89,7.58-.05,2.31-.05,3.74-.05,5.17,0,6.99.15,12,.41,13.92l-9.3.05c.31-1.77.46-4.43.46-7.53v-5.17c-3.65,4.18-4.47,5.17-5.09,6.15l-3.96-8.22Z"/><path class="cls-10" d="m562.73,134.96c2.16.25,4.06.34,7.4.34,4.57,0,10.28-.2,15.47-.59,2.26-.15,2.93-.29,3.91-.69l4.21,5.95q-1.34.74-8.27,6.45c-2.72,2.21-3.65,2.95-7.09,5.36,2.88-.69,4.37-.89,7.04-.89,4.83,0,8.27,1.08,11,3.35,2.47,2.12,3.75,4.97,3.75,8.51,0,4.97-2.42,8.9-7.09,11.56-3.55,1.97-8.48,3.1-13.62,3.1-8.68,0-13.98-3.3-13.98-8.76,0-4.58,4.27-7.87,10.23-7.87,3.7,0,6.99,1.38,9.2,3.79,1.03,1.08,1.59,2.07,2.36,3.89,2.77-1.18,4.06-2.85,4.06-5.36,0-3.44-3.49-5.56-9.2-5.56s-11.2,1.62-15.83,4.53c-1.59.98-3.24,2.21-4.93,3.69l-4.78-7.48c4.73-2.12,15.57-10.18,21.94-16.24-2.72.3-4.78.39-12.02.74-1.39.05-2.36.15-3.39.25l-.36-8.07Zm12.74,32.08c-1.18,0-2,.64-2,1.62,0,1.33,1.64,2.16,4.42,2.16.62,0,.72,0,1.7-.15-.67-2.36-2.11-3.64-4.11-3.64Z"/><path class="cls-7" d="m118.45,181.9c-10.04,2.07-11.01,3.74-12.22,20.96-1.21-17.22-2.18-18.89-12.22-20.96,10.04-2.07,11.01-3.74,12.22-20.96,1.21,17.22,2.18,18.89,12.22,20.96Z"/><path class="cls-8" d="m668.92,173.75c-10.19,10.19-47.1,10.22-47.1,10.22,0,0,.03-36.92,10.22-47.1,10.19-10.19,26.7-10.19,36.89,0,10.19,10.19,10.19,26.7,0,36.89Z"/><path class="cls-7" d="m648.8,154.69c-1.96,1.96-4.23,2.98-6.8,3.05-2.62.07-4.9-.87-6.85-2.82s-2.87-4.23-2.8-6.86c.07-2.58,1.08-4.84,3.02-6.79,1.95-1.95,4.22-2.97,6.81-3.04,2.64-.08,4.93.85,6.87,2.79,1.93,1.93,2.85,4.22,2.78,6.86-.08,2.61-1.09,4.88-3.03,6.82Zm-3.55-3.59c.94-.94,1.46-2.03,1.54-3.26.09-1.29-.32-2.39-1.25-3.32s-1.99-1.28-3.32-1.18c-1.29.09-2.38.59-3.28,1.49-.96.96-1.48,2.04-1.56,3.24-.08,1.26.35,2.37,1.3,3.31.88.88,1.99,1.28,3.32,1.2,1.27-.09,2.35-.58,3.25-1.48Z"/><path class="cls-7" d="m657.47,175.48c-.27.27-.56.33-.88.18-.25-.13-.78-.59-1.58-1.39s-1.31-1.37-1.6-1.79c-.14-.2-.22-.35-.24-.43-.02-.09,0-.24.07-.47.38-1.3.77-2.6,1.16-3.89.61-2.1.91-3.3.9-3.58-.92-.43-1.44-.6-1.54-.49-.47.47-1.16,1.2-2.08,2.19-.91.99-1.61,1.72-2.09,2.2-.19.19-.39.22-.58.08-.38-.28-.99-.84-1.85-1.69-.82-.82-1.33-1.38-1.54-1.69-.14-.22-.14-.41.02-.57.68-.68,1.73-1.67,3.17-2.97s2.49-2.3,3.18-2.98c.73-.73,1.79-1.85,3.19-3.38s2.46-2.65,3.19-3.38c.14-.14.27-.14.4,0,.19.19.48.5.85.91.37.41.66.71.85.91s.51.49.92.87c.41.38.72.66.91.86.11.11.1.22,0,.33-.46.46-1.19,1.14-2.17,2.03-.99.89-1.71,1.57-2.18,2.03-.54.54-.66.96-.37,1.25.75.75,1.53,1.12,2.35,1.13.61,0,1.47-.23,2.58-.72.81-.41,2.04-.98,3.68-1.7.23-.09.45-.03.66.19.16.16.4.42.71.77.31.35.55.6.71.77s.43.42.78.74c.35.32.6.57.77.73.15.15.15.3,0,.44-.21.21-.84.58-1.91,1.12-3.15,1.59-5.53,2.18-7.13,1.76-.33-.09-.53-.09-.6-.02,0,0-.36,1.51-1.09,4.56-.73,3.05-1.28,4.75-1.63,5.11Z"/><path class="cls-6" d="m161.51,192.71c-12.09,0-21.91-4.17-27.64-11.74-2.45-3.16-3.64-6.14-4.96-10.52l-1.23-4.08,24.35-3.59-21.85-2.02.53-3.82c.32-2.32.59-4.35.86-6.76l2.35-26c.18-1.77.26-3.79.34-6.71l.1-3.75,3.75.17c3.58.16,4.34.16,8.56.16h26.1c7.9,0,10.8-.18,13.97-.56l4.12-.49v22.81l-4.02-.36c-4.54-.41-8.44-.57-13.9-.57h-16.88l-.24,2.79c2.97-.99,6.24-1.47,9.87-1.47,8.66,0,16.04,2.73,21.34,7.9,5.15,5.03,7.66,11.36,7.66,19.35,0,18.05-12.72,29.26-33.19,29.26Zm-7.96-26.87c.87,3.23,2.54,5.38,7.88,5.38s8.54-2.78,8.54-7.43-3.05-7.35-8.36-7.35-6.78,2.17-7.66,4.06l-1.1,2.34h-.1s.81,2.99.81,2.99Z"/><path class="cls-5" d="m187.18,117.14v14.63c-4.63-.42-8.64-.59-14.23-.59h-20.25l-.87,10.03c0,.42-.09,1.25-.26,2.68,3.93-2.76,8.47-4.01,14.14-4.01,7.77,0,14.14,2.34,18.77,6.85,4.36,4.26,6.55,9.7,6.55,16.72,0,16.05-11,25.58-29.51,25.58-11,0-19.64-3.59-24.71-10.28-2.01-2.59-3.06-5.02-4.37-9.36l17.55-2.59c1.48,5.52,5.15,8.11,11.44,8.11,7.33,0,12.22-4.43,12.22-11.12s-4.71-11.03-12.05-11.03c-5.5,0-9.08,2.09-11,6.19l-16.24-1.5c.35-2.51.61-4.51.87-6.85l2.36-26.08c.18-1.76.26-3.76.35-6.94,3.67.17,4.54.17,8.73.17h26.1c7.68,0,10.91-.17,14.4-.59m7.37-8.3l-8.24.99c-3.02.36-5.82.53-13.53.53h-26.1c-4.15,0-4.89,0-8.39-.16l-7.5-.34-.21,7.5c-.09,3.31-.17,4.99-.32,6.41v.03s0,.03,0,.03l-2.35,26c-.26,2.35-.53,4.33-.84,6.58l-.9,6.45-3.24.48,2.46,8.17c1.41,4.68,2.77,8.1,5.57,11.72,6.45,8.49,17.3,13.17,30.56,13.17,10.88,0,20.05-2.96,26.52-8.57,6.77-5.87,10.36-14.3,10.36-24.38,0-8.91-2.95-16.31-8.77-21.99-.85-.83-1.74-1.6-2.67-2.31l7.6.69v-31h0Zm-37.86,54.48l.59-1.25c.41-.87.91-1.95,4.33-1.95,4.68,0,4.68,2.57,4.68,3.67,0,3.75-3.65,3.75-4.85,3.75-3.61,0-3.86-.94-4.32-2.65l-.42-1.56h0Z"/><path class="cls-15" d="m557.69,296.54l.53-3.46c.57-3.73.86-8.1.86-13v-2.27h-28.82c-6.95,0-10.17.09-14.38.42l-3.23.25v-23.7l.81-.87q5.03-5.35,10.74-11.78l24.4-27.35c5.51-6.04,7.53-8.64,10.23-12.53l.9-1.29h27.95l-.35,3.32c-.67,6.29-.88,10.55-.88,17.55v31.98h.26c3.11,0,6.62-.27,10.72-.83l3.41-.47v26.44l-3.38-.43c-3.05-.39-7.03-.62-10.64-.62h-.37v2.38c0,5.78.2,8.76.86,12.75l.58,3.49h-30.19Zm1.51-42.49v-9.49c0-1.98.04-4.04.1-6.08-.34.42-.71.86-1.09,1.32l-12.2,14.25h13.19Z"/><path class="cls-6" d="m584.35,203.98c-.67,6.35-.9,10.66-.9,17.87v34.98h3.26c3.48,0,7.19-.32,11.13-.86v19.59c-3.37-.43-7.53-.65-11.02-.65h-3.37v5.38c0,6.03.23,9.15.9,13.24h-23.16c.56-3.66.9-8.18.9-13.46v-5.27h-31.82c-7.31,0-10.46.11-14.62.43v-19.27q5.06-5.38,10.79-11.84l24.4-27.34c5.4-5.92,7.53-8.61,10.46-12.81h23.05m-21.47,25.08c-2.25,3.01-3.93,5.17-6.97,8.83l-16.41,19.16h22.71v-12.49c0-4.84.23-10.76.67-15.5m28.14-31.08h-32.85l-1.79,2.57c-2.75,3.95-4.67,6.38-9.96,12.2l-.02.02-.02.02-24.4,27.34q-5.69,6.41-10.69,11.73l-1.63,1.73v28.13l6.46-.5c4.17-.32,7.21-.41,14.15-.41h25.81c-.03,4.4-.31,8.47-.83,11.82l-1.06,6.91h37.22l-1.15-6.98c-.6-3.66-.8-6.44-.82-11.61,2.7.08,5.42.28,7.63.56l6.76.86v-33.28l-6.81.93c-2.8.38-5.3.63-7.58.74v-28.91c0-6.96.2-10.99.87-17.24l.71-6.63h0Zm-38.49,53.07l3.67-4.28v4.28h-3.67Z"/></g></svg>