<?xml version="1.0" encoding="utf-8"?>
<!-- Generator: Adobe Illustrator 27.1.1, SVG Export Plug-In . SVG Version: 6.00 Build 0)  -->
<svg version="1.1" id="Layer_2_00000167366219839769305990000010578465882463122574_"
	 xmlns="http://www.w3.org/2000/svg" xmlns:xlink="http://www.w3.org/1999/xlink" x="0px" y="0px" viewBox="0 0 822.1 338.2"
	 style="enable-background:new 0 0 822.1 338.2;" xml:space="preserve">
<style type="text/css">
	.st0{fill:#3FA9F5;}
	.st1{fill:#FFFFFF;}
	.st2{fill:none;}
	.st3{fill:#333333;}
	.st4{fill:#F4690B;}
	.st5{fill:#FFE876;}
	.st6{fill:#FFCE76;}
	.st7{fill:#7C7C7C;}
	.st8{enable-background:new    ;}
	.st9{opacity:0.2;fill:#F4690B;enable-background:new    ;}
</style>
<g id="PC">
	<path class="st0" d="M556,323.8V312v-0.3c1.6-8.8,6.7-17.3,15-25l0.1-0.1l0.1-0.1c6.9-5.4,13.9-10.9,20.9-16.3
		c6.1-4.8,9.4-9.1,9.4-12.6c0-1.5,0-4.5-7.5-4.5c-6.9,0-11.8,3.5-15,10.7l-1.1,2.4l-25.2-7.9l1.1-2.9c3.1-8.5,8.3-15.1,15.6-19.6
		c7.2-4.5,16-6.7,26.1-6.7c10.7,0,19.2,2.5,25.4,7.5s9.3,11.8,9.3,20.3c0,7.9-2.8,14.9-8.2,21c-3.1,3.5-8.7,7.9-17,13.6
		c-4.5,3-8.2,5.8-11.1,8.3h38.2V324L556,323.8L556,323.8z"/>
	<path class="st1" d="M595.5,232.1c10,0,17.9,2.3,23.5,6.8c5.4,4.4,8.1,10.4,8.1,18c0,7.1-2.5,13.5-7.5,18.9
		c-2.9,3.2-8.4,7.6-16.5,13.1s-13.7,10.1-17,13.7h42.7v18.2h-70v-8.5c1.5-8.2,6.2-16,14.1-23.4c6.9-5.4,13.9-10.9,20.9-16.3
		c7-5.5,10.5-10.5,10.5-14.9c0-5-3.5-7.5-10.5-7.5c-8.1,0-14,4.1-17.8,12.4l-19.7-6.2c2.9-7.9,7.7-13.9,14.3-18.1
		C577.7,234.2,585.8,232.1,595.5,232.1 M595.5,226.1c-10.7,0-20.1,2.4-27.7,7.2c-7.8,4.9-13.5,12-16.8,21.1l-2.2,5.9l6,1.9l19.7,6.2
		l5.1,1.6l2.2-4.9c2.7-6.1,6.5-8.9,12.3-8.9c3.3,0,4.3,0.7,4.4,0.8c0,0.1,0.1,0.3,0.1,0.7c0,0.9-0.6,4.2-8.2,10.2
		c-7,5.5-14,10.9-20.9,16.3l-0.2,0.2l-0.2,0.2c-8.8,8.2-14.2,17.2-15.9,26.7l-0.1,0.5v15.1h82v-30.2h-32.4c1.2-0.9,2.6-1.8,4-2.8
		c8.5-5.8,14.3-10.4,17.6-14c6-6.6,9-14.3,9-23c0-9.4-3.5-17.1-10.4-22.6C616,228.8,606.8,226.1,595.5,226.1L595.5,226.1
		L595.5,226.1z"/>
	<rect class="st2" width="822.1" height="338.2"/>
	<path class="st3" d="M158.2,276c0.2-2.7,0.3-6.6,0.3-8.8c0-1.4,0-2-0.2-3.4l12.9,0.3c-0.3,1.6-0.3,1.8-0.8,8.3
		c0,1.2-0.1,2.4-0.2,3.5h14.9c2.3,0,3.1-0.1,4.6-0.8l5.4,4.7c-0.8,1.4-0.9,1.9-1,5.1c-0.5,14.7-1.5,26.1-2.9,30.7
		c-2,6.4-5.3,8.6-12.9,8.6c-2.7,0-3.7-0.1-9-0.5c-0.3-5.5-0.8-7.8-2.3-12.1c3.4,0.9,6.8,1.4,8.9,1.4c3.3,0,4.1-1.1,5-7.1
		c0.7-4.6,1.3-13.2,1.3-19.1h-13.1c-0.4,3-0.7,5.3-1,6.9c-3,13.9-9.5,22.8-23.5,32c-3.1-4.9-5.1-7.2-8.9-10.4
		c9.1-4.8,14.4-9.7,17.8-16.6c1.7-3.5,2.5-6,3.4-11.7h-8.6c-4.6,0-6,0.1-9.3,0.4l-0.1-11.7c3.4,0.5,4.7,0.5,9.5,0.5L158.2,276
		L158.2,276z"/>
	<path class="st3" d="M207,287.9c3.2,0.5,6.9,0.6,14.1,0.6h32.8c6.9,0,9.5-0.1,14.1-0.6v13.2c-3.3-0.3-6.3-0.4-14.1-0.4h-32.6
		c-7.7,0-9.9,0.1-14.1,0.4v-13.2H207z"/>
	<path class="st3" d="M285.5,324.7c0.3-2.9,0.3-4.9,0.4-10.5v-39.9c-0.1-5.9-0.1-6.2-0.5-10h13.2c-0.3,1.8-0.3,2.9-0.3,10v9.4
		c10.8,3.5,21.6,8.4,31.2,14.3l-6.5,11.7c-5.7-4-13.6-8.4-21.6-11.9c-2.1-0.8-2.3-0.9-2.5-1s-0.3-0.1-0.6-0.3v17.8
		c0,5.1,0.1,8.7,0.4,10.5L285.5,324.7L285.5,324.7z M316.5,268.2c2.7,3,4.9,6.2,6.8,9.8l-6.5,3.2c-2.3-4.3-4-6.9-6.8-10L316.5,268.2
		z M325.6,264.1c2.5,2.7,4.5,5.4,6.9,9.5l-6.3,3.1c-2.4-4.3-4.3-7.1-6.7-9.8L325.6,264.1L325.6,264.1z"/>
	<path class="st3" d="M357.8,318.6v4.7h-12.5c0.4-3.8,0.5-6.1,0.5-11.2v-35.3c0-3-0.1-5.1-0.3-7.9c2.4,0.2,3.8,0.3,8.3,0.3h37
		c4.2,0,5.3,0,8.5-0.3c-0.1,2.4-0.2,4.9-0.2,8.1v34.8c0,5.3,0.1,8.6,0.5,11.3h-12.4v-4.6L357.8,318.6L357.8,318.6z M387.3,280.2
		h-29.4v27.4h29.4V280.2z"/>
	<path class="st3" d="M413.2,287.9c3.2,0.5,6.9,0.6,14.1,0.6H460c6.9,0,9.5-0.1,14.1-0.6v13.2c-3.3-0.3-6.3-0.4-14.1-0.4h-32.6
		c-7.7,0-10,0.1-14.1,0.4L413.2,287.9L413.2,287.9z"/>
	<path class="st3" d="M491.1,267.6c8.6,5.1,13.1,8.2,18.9,13.5l-8.1,10.7c-6-6.2-11.8-10.8-18.7-14.5L491.1,267.6L491.1,267.6z
		 M483.9,310.2c7-0.5,14.2-2.3,20.6-4.9c8.6-3.6,14.8-8.7,20.1-16.9c2.9-4.4,4.7-8.2,6.7-13.5c3.4,4,4.9,5.4,10.1,9.2
		c-6.2,13.5-12.8,21.6-22.4,27.8c-7.4,4.8-13.9,7.3-26.7,10.3c-2.7,0.6-3.1,0.7-4.9,1.2L483.9,310.2L483.9,310.2z"/>
	<path class="st0" d="M649.9,308.7l3-1c0.7-0.2,2-0.9,4.2-2.6v-5.3c-0.5,0-1,0.1-1.9,0.2l-3.5,0.5v-14.8l3.4,0.5
		c1.3,0.2,2,0.2,3.8,0.2h1.4c-2.5-3.3-4.2-5.1-7.9-8.1l-2.5-2.1l10.1-9.8l2.1,1.7c0.9,0.8,1.8,1.5,2.6,2.2v-2.2l3.2,0.2
		c1.3,0.1,2.7,0.1,4.2,0.1h7.3c1.4,0,2.3,0,2.9,0V268l2.5,0.2l3.3-0.3l-0.1,0.5c0.6,0,1.2,0,1.8,0h7.1c2.6,0,3.3,0,4.3-0.1l3.9-0.4
		l-0.6,3.8c-0.1,0.4-0.1,0.5-0.1,1.3v6.6c0,0.6,0,1.1,0,1.5l1.8,0.2l-0.3,2.9c-0.2,1.6-0.4,3.3-1.2,4.7v6.6l1.1-0.1v8.2l3.3,0.4
		l-2.3,2.3l1.7-0.2l-1.7,4.7c-0.9,2.4-1.3,4.3-1.8,7.5l-0.3,2.5l-2.5,0.1c-4.8,0.2-12.2,0.3-19.8,0.3c-8,0-11.2-0.3-14.1-1.3
		c-1.7-0.6-3.1-1.4-4.5-2.5c-1.3,1.1-2.6,2-5,3.8l-3.1,2.2L649.9,308.7L649.9,308.7z"/>
	<path class="st1" d="M660.3,270.5c3.5,2.9,5.9,5.2,8.2,7.9c1.3,0.1,1.6,0.1,3.8,0.1h4.8V277h-4.9c-2.3,0-3,0-4.3,0.1v-5.8
		c1.3,0.1,2.8,0.2,4.4,0.2h7.3c2.7,0,3.5,0,4.6-0.1c-0.2,0.5-0.2,0.9-0.2,1.8v1v5.5c0,1.5,0,2.3,0.1,3c-1.2,0-2.3-0.1-3.5-0.1H675
		v1.1c0,0.8,0.2,0.9,1.6,0.9c0.9,0,1.5-0.1,1.8-0.3c0.2-0.2,0.3-0.7,0.3-1.3v-0.3c2.3,0.8,3.9,1.2,6,1.5c-0.4,3.1-0.7,3.8-2.3,4.6
		v2.5h5.5v-2.2c-1.5-0.5-2.2-1.5-2.2-3.2v-4.2c0-1.1-0.1-2.2-0.2-3.4c1.3,0.1,1.7,0.1,3.9,0.1h4.7v-1.5h-4.4c-2.3,0-3,0-4.3,0.1
		v-5.8c1.3,0.1,2.8,0.2,4.4,0.2h7.1c2.7,0,3.5,0,4.6-0.1c-0.1,0.6-0.1,1-0.1,1.8v6.6c0,1.5,0,2.3,0.1,3c-1.2,0-2.3-0.1-3.5-0.1h-5.5
		v1.2c0,0.7,0.4,0.9,1.8,0.9c0.9,0,1.7-0.1,1.9-0.3c0.1-0.1,0.2-0.4,0.3-1v-0.6c1.9,0.7,3.9,1.1,6.5,1.4c-0.3,2.7-0.7,3.8-1.9,4.4
		c-0.9,0.6-2.1,0.7-5.9,0.8v1.9h1.7c2.9,0,3.5,0,4.8-0.2v5.8c-1.5-0.1-2-0.2-4.8-0.2h-1.7v2.3h2.6c2.9,0,3.5,0,4.9-0.1v5.9
		c-1.5-0.2-2.1-0.2-4.9-0.2h-3.6c2.9,0.9,4.8,1.4,8.4,1.8c-1.5,1.5-1.6,1.8-3,4c1.2-0.1,2-0.2,4.3-0.5c-1,2.8-1.5,4.9-1.9,8.1
		c-4.5,0.2-11.9,0.3-19.7,0.3s-10.6-0.3-13.1-1.1c-2.1-0.7-3.6-1.8-5.4-3.8c-2.2,2-3.2,2.7-6.9,5.4l-3.4-8.3
		c1.5-0.5,3.6-1.8,6.2-3.9v-9.8H658c-1.1,0-1.9,0-3.2,0.3v-7.8c1.5,0.2,2.3,0.3,4.2,0.3h5c2.1,0,2.6,0,3.9-0.1
		c-0.1,1.5-0.1,2-0.1,5.8v12.1c1.6,2.3,2.9,3.1,5.5,3.5c-1.5-1.8-1.7-2.1-4-4.2c3.1-0.6,4.8-1,7.3-1.9h-4c-1.9,0-2.6,0-3.7,0.2v-6
		c1.1,0.2,1.7,0.2,3.6,0.2h2.6v-2.3h-0.5c-2.8,0-3.5,0-4.8,0.2v-5.8c1.3,0.2,1.9,0.2,4.8,0.2h0.5v-1.9c-2.9,0-4-0.1-4.8-0.4
		c-1.2-0.5-1.8-1.5-1.8-3.1v-5.5l-5.1,5.1c-2.9-3.9-4.8-5.9-8.9-9.5L660.3,270.5 M682.4,299.2h5.5v-2.3h-5.5V299.2 M689.4,304.8
		h-8.2l3.6,2.3c-2.9,1.8-5.4,3-8.6,4.1c1.7,0,4,0.1,6.3,0.1c2.8,0,8.6-0.1,11.4-0.3c-2.5-0.8-4.5-1.8-7.8-3.9L689.4,304.8
		 M659.9,262.6l-3.8,3.8l-5.8,5.6l-4.7,4.6l5,4.3c1,0.9,1.9,1.6,2.6,2.3l-4.5-0.6v21.7l5.3-0.8v0.3c-1.4,1-2.1,1.2-2.2,1.3l-6,2.1
		l2.4,5.9l3.4,8.3l2.9,7.1l6.2-4.5c1.4-1,2.5-1.8,3.3-2.5c1.1,0.6,2.2,1.2,3.4,1.6c3.6,1.3,7.5,1.5,15,1.5s15.1-0.1,19.9-0.3
		l5.1-0.2l0.7-5.1c0.4-2.9,0.8-4.6,1.6-6.8l2.4-6.6l3.4-3.5l-6.7-0.8v-8.9l-1.1,0.1V290c0.1-0.3,0.2-0.5,0.3-0.8h0.5l-0.2-1.1
		c0.3-1.3,0.5-2.4,0.5-3.3l0.6-5.8l-2.1-0.2v-5.5c0-0.6,0-0.6,0-0.8l1.3-7.7l-7.7,0.7c-0.8,0.1-1.4,0.1-4,0.1h-4.8l0.3-0.9l-7.4,0.7
		l-5.5-0.4v0.6h-7.2c-1.5,0-2.8,0-4-0.1l-5.2-0.4L659.9,262.6L659.9,262.6L659.9,262.6z"/>
	<polygon class="st4" points="175.1,213.7 61.5,213.7 61.5,155 202,165.3 	"/>
	<polygon class="st4" points="455.5,216.6 293.2,216.6 284.2,157.9 424.7,168.2 	"/>
	<polygon class="st1" points="477.2,231.4 475.7,231.4 46.7,221.7 46.4,136 233.8,143.6 233.7,146.8 49.6,139.4 49.9,218.6 
		474.3,228.1 482.3,142.8 264.5,146.3 264.5,143.1 485.9,139.6 	"/>
	<path class="st1" d="M94.4,210.2c-6.1,0-11.9-1.4-15.5-3.8c-3.2-2.1-5.7-5.2-7.3-9.1c-0.4-1-0.7-1.9-1.1-3.5l-0.9-3.2l13.4-2.3
		v-15.4l-12.4-1.8l1-3.4c1.2-4.1,2.4-6.3,4.6-8.7c4.2-4.6,10.5-6.9,18.6-6.9c7.2,0,13.4,2.1,17.3,5.9c2.8,2.8,4.2,6.4,4.2,10.6
		c0,3.8-1.1,8.3-5.2,11.5c0.6,0.4,1.1,0.8,1.6,1.2c3.2,2.9,5,6.8,5,11.1c0,3.7-1.1,7.1-3,9.7c-1.6,2.2-4.1,4.2-6.8,5.4
		C104.5,209.2,99.3,210.2,94.4,210.2L94.4,210.2z M89,190.3c0.3,1.6,0.5,1.9,0.9,2.3c1.3,1.3,3.2,1.6,4.7,1.6s4.6-0.3,4.6-2.9
		c0-0.8-0.2-1.9-1.3-2.3c-0.7-0.2-2.2-0.6-4.5-0.6c-1.5,0-3.2,0.1-4.7,0.1L89,190.3L89,190.3z M89.9,172.8c0.8,0,1.6,0.1,2.4,0.1
		c5.4,0,5.4-1.8,5.4-2.7c0-0.7,0-2.1-3.2-2.1s-3.8,0.9-4.3,3.2L89.9,172.8L89.9,172.8z"/>
	<path class="st4" d="M94.8,155.2c6.5,0,11.8,1.8,15.2,5.1c2.2,2.2,3.3,5.1,3.3,8.4c0,6.3-3.4,10.2-10.2,11.8
		c3.6,0.5,5.6,1.4,7.7,3.1c2.5,2.3,3.9,5.4,3.9,8.8c0,3-0.8,5.8-2.4,7.9c-1.3,1.8-3.4,3.4-5.6,4.5c-3.1,1.4-7.9,2.3-12.4,2.3
		c-5.3,0-10.7-1.2-13.9-3.3c-2.7-1.8-4.8-4.4-6.1-7.7c-0.4-0.8-0.6-1.6-1-3.1l12.6-2.2c0.4,2,0.7,2.8,1.7,3.8c1.6,1.7,4,2.6,6.8,2.6
		c4.6,0,7.6-2.3,7.6-5.9c0-2.4-1.2-4.3-3.2-5.1c-1.4-0.5-3.2-0.8-5.5-0.8s-5,0.1-7.3,0.4v-10.2c2,0.2,4,0.4,6.3,0.4
		c5.7,0,8.4-1.9,8.4-5.7c0-3.2-2.3-5.1-6.2-5.1c-4.2,0-6.4,1.7-7.3,5.5l-12.8-1.8c1.1-3.7,2.1-5.5,4-7.6
		C82.1,157.2,87.6,155.2,94.8,155.2 M94.8,149.2c-8.9,0-15.9,2.6-20.8,7.9c-2.6,2.8-3.9,5.4-5.3,9.9l-2.1,6.7l6.9,1l6.4,0.9v10.2
		l-7.6,1.3l-6.5,1.1l1.7,6.3c0.5,1.7,0.8,2.7,1.3,3.9c1.8,4.4,4.7,8,8.4,10.4c4.1,2.7,10.5,4.3,17.1,4.3c5.4,0,11-1.1,14.9-2.9
		c3.1-1.4,6-3.8,7.9-6.4c2.3-3.1,3.5-7.1,3.5-11.5c0-4.7-1.8-9.1-5.1-12.5c2.4-3,3.7-6.8,3.7-11.3c0-5-1.8-9.4-5.1-12.7l0,0l0,0
		C109.7,151.5,103,149.2,94.8,149.2L94.8,149.2L94.8,149.2z"/>
	<path class="st1" d="M143.2,210c-6.6,0-12.3-2.2-16.5-6.4c-2.2-2.2-4-4.9-5-7.7c-1.7-4.6-2.5-9.5-2.5-14.7c0-6.7,1.6-13.8,4.2-18
		c4.2-7,11.2-10.9,19.9-10.9c6.5,0,12.4,2.3,16.6,6.4c2.3,2.3,4,4.9,5.1,7.7c1.7,4.6,2.5,9.5,2.5,14.7c0,6.8-1.6,13.9-4.2,18.1
		C159.1,206.1,151.8,210,143.2,210L143.2,210z M143.2,168.4c-5.4,0-5.9,9.4-5.9,12.4c0,8.7,2,13.1,5.9,13.1s5.8-4.4,5.8-12.9
		C149.1,175.2,148.1,168.4,143.2,168.4z"/>
	<path class="st4" d="M143.2,155.4c5.8,0,10.8,2,14.5,5.5c2,2,3.4,4.2,4.3,6.6c1.6,4.2,2.3,8.8,2.3,13.7c0,6.2-1.5,12.8-3.8,16.5
		c-3.6,5.9-9.8,9.3-17.4,9.3c-5.8,0-10.8-1.9-14.4-5.5c-2-2-3.4-4.2-4.3-6.6c-1.6-4.2-2.3-8.8-2.3-13.6c0-6.2,1.5-12.7,3.8-16.5
		C129.6,158.7,135.8,155.4,143.2,155.4 M143.3,196.9c5.8,0,8.8-5.4,8.8-15.9s-3.1-15.5-8.9-15.5s-8.9,5.6-8.9,15.4
		C134.4,191.4,137.4,196.9,143.3,196.9 M143.3,149.4c-9.6,0-17.8,4.5-22.5,12.3c-2.8,4.7-4.6,12.2-4.6,19.6c0,5.5,0.9,10.8,2.7,15.7
		c1.2,3.2,3.2,6.2,5.7,8.8c4.8,4.8,11.2,7.3,18.6,7.3c9.7,0,17.9-4.4,22.5-12.2c2.8-4.7,4.6-12.2,4.6-19.6c0-5.6-0.9-10.9-2.7-15.8
		c-1.2-3.2-3.2-6.2-5.7-8.8C157.2,152,150.5,149.4,143.3,149.4L143.3,149.4L143.3,149.4z M143.3,190.9c-0.6,0-0.9,0-1.4-1
		c-0.6-1-1.5-3.6-1.5-9.1c0-5.2,1.3-9.4,2.9-9.4c0.5,0,0.9,0,1.4,0.9c0.6,1,1.5,3.4,1.5,8.6c0,5.6-0.9,8.1-1.5,9
		C144.1,190.9,143.9,190.9,143.3,190.9L143.3,190.9L143.3,190.9z"/>
	<path class="st1" d="M174,211.2c-1.4-2.6-2.3-3.7-4.3-5.9l-2.9-3.2l4-1.6c4.9-2,7.8-4.2,9.6-7.4c0.6-1,0.9-1.9,1.2-2.9
		c-0.2,0-0.4,0-0.6,0.1l-2.3,0.3c-0.6,0.5-1.3,1.1-2.2,1.7l-2.8,2.1l-1.7-3c-1.5-2.6-2.6-4.1-4.4-6.1l-2.4-2.5l2.9-2
		c5-3.5,8.4-7.3,11-12.4c0.9-1.7,1.2-2.6,1.4-3.6l0.6-3.5l11.8,4.3l11-4.2l0.9,3.1c0.3,1,0.6,1.7,1.7,3.8c2.6,4.8,6.2,8.5,11.2,11.6
		l2.9,1.8l-2.1,2.6c-2.2,2.7-2.7,3.4-4.5,6.8l-1.7,3l-2.1-1.6c-0.4,10.1-1.6,12.8-2.1,13.7c-2.1,4.5-6.2,5.4-12.2,5.4
		c-0.3,0-1.5,0-3.4-0.1h-2.6l-0.3-2.6c-0.2-1.7-0.4-2.9-0.9-4.3c-1.6,1.9-3.5,3.6-5.6,5c-1.7,1.2-2.9,1.8-5.2,2.9l-2.5,1.1
		L174,211.2L174,211.2z M192.8,198.2c1.2,0.1,2.2,0.2,2.7,0.2c0.2,0,0.4,0,0.6,0l0,0c0.3-1.2,0.6-4.2,0.7-8.2h-1.6
		C194.8,193.2,194,195.7,192.8,198.2L192.8,198.2z M196.2,177.5c-1.2-1.9-2.2-4-3.2-6.3l0,0c-0.1,0.2-0.1,0.3-0.2,0.5
		c-0.8,1.7-1.9,3.8-3.1,5.8H196.2L196.2,177.5z"/>
	<path class="st4" d="M183.4,165.2l7.8,2.9c-0.5,0.8-0.7,1.2-1.2,2.4c-1.3,2.9-3.7,6.9-6,10h17.9c-2.5-3.2-4.4-6.5-6.1-10.5
		c-0.3-0.7-0.6-1.4-0.9-2.1l7.1-2.7c0.4,1.3,0.8,2.2,1.9,4.4c2.9,5.2,6.9,9.4,12.3,12.7c-2.3,2.9-2.9,3.7-4.8,7.3
		c-2-1.5-2.9-2.2-4-3.3c-0.1,9.6-0.7,16-1.9,18.6c-1.3,2.8-3.6,3.7-9.5,3.7c-0.3,0-1.4,0-3.4-0.1c-0.3-2.8-0.8-4.4-2-7.6
		c2,0.3,3.9,0.4,5,0.4c2.5,0,3-0.3,3.5-2.3c0.5-1.9,0.8-6.6,0.8-11.9h-7.2c-0.5,5.1-1.6,8.4-3.8,12.1c-1.9,3-4.4,5.7-7.5,7.9
		c-1.5,1-2.5,1.6-4.8,2.6c-1.5-2.7-2.5-4-4.7-6.5c5.6-2.2,9-4.9,11.1-8.8c1.3-2.4,1.9-4.3,2.1-7.4h-1.2c-1.3,0-2.1,0.1-3.2,0.2v-2.7
		c-2.3,2.4-3.4,3.4-5.9,5.3c-1.5-2.7-2.7-4.4-4.9-6.7c5.5-3.8,9.2-8,12-13.6C182.7,167.8,183.2,166.6,183.4,165.2 M178.8,157.1
		l-1.2,7.1c-0.1,0.6-0.3,1.2-1.1,2.7c-2.4,4.7-5.5,8.2-10.1,11.4l-5.7,4l4.8,5.1c1.7,1.8,2.6,3.1,4,5.5l2.2,4
		c-0.6,0.3-1.3,0.6-2,0.9l-8.1,3.2l5.9,6.4c1.9,2,2.6,3,3.9,5.3l2.7,4.8l5-2.3c2.5-1.1,3.8-1.9,5.6-3.1l0,0l0,0c0.7-0.5,1.4-1,2-1.5
		l0.5,3.9l5.2,0.1c2.9,0.1,3,0.1,3.4,0.1l0,0c4.1,0,11.6,0,14.9-7.1c0.7-1.4,1.5-3.9,2-9.3l0.5,0.4l3.3-6.1c1.8-3.2,2.2-3.8,4.2-6.4
		l4.2-5.3l-5.8-3.6c-4.6-2.8-7.8-6.1-10.1-10.5c-1.1-2-1.2-2.5-1.5-3.2l-1.8-6.2l-6.1,2.3l-6.9,2.6l-7.4-2.7L178.8,157.1
		L178.8,157.1L178.8,157.1z"/>
	<path class="st1" d="M228.2,168.6c0.9,0.1,1.6,0.1,2,0.1c1.4,0,3.3-0.1,9.1-0.5c7.6-0.5,12.8-0.7,22.9-1.1l5.5-0.2l2.2-0.1
		c1.8-0.1,2.1-0.1,2.4-0.1c0.4,0,0.6-0.1,1.2-0.2l0.5,9.6c-0.7-0.1-1-0.1-1.5-0.1c-3.7,0-8.5,1.4-12.1,3.7
		c-5.3,3.2-8.4,7.7-8.4,12.1c0,3.1,1.4,5.1,4.5,6.6c2.1,1.1,6.8,1.9,10.1,1.9c0.4,0,0.8,0,1.6-0.1l-1.2,10.1c-0.7-0.2-0.9-0.2-2-0.3
		c-6-0.5-10-1.4-13.4-3c-6.3-2.9-9.5-7.8-9.5-14.5c0-4.4,1.5-8.4,4.5-12c1.4-1.7,2.6-2.8,5.2-4.5l-2.5,0.3c-1.2,0.1-3,0.3-12.9,1.1
		c-4.9,0.5-5.2,0.5-7.5,1L228.2,168.6L228.2,168.6z M265.8,180.7c2.1,2.4,3.7,4.8,5.1,7.7l-5.1,2.3c-1.6-3.3-3-5.4-5.1-7.9
		L265.8,180.7z M272.9,177.6c1.9,2.1,3.4,4.2,5.2,7.5l-4.9,2.3c-1.9-3.6-3.2-5.6-5-7.6L272.9,177.6L272.9,177.6z"/>
	<path class="st1" d="M365.8,208.4c-1.5-2.4-2.6-3.8-4.4-5.4l-2.9-2.7l3.4-2.1c3.3-2,4.8-3.4,6.5-5.7c2.3-3.2,3.7-7.2,4.3-12.2
		c0.2-1.5,0.3-2.6,0.4-4.1h-1.9c-2.3,0-4.6,0.1-6.5,0.3l-3.3,0.3V163l3.3,0.3c1.9,0.2,4,0.3,6.5,0.3h27.6c2.4,0,4.3-0.1,6.4-0.3
		l3.2-0.3v13.8c0,0-3.4-0.3-3.5-0.3l-0.3,2.3c-0.1,0.7-0.2,2.8-0.3,6.2c-0.2,7.7-1.1,14.4-2.3,17.6c-2.1,5.5-6.1,6.6-12.2,6.6
		c-1.6,0-3.3-0.1-5.6-0.3l-2.5-0.2l-0.2-2.5c-0.2-2.5-0.6-4.1-1.4-6l-0.1-0.3c-2.5,3.9-5.3,6.6-9.7,9.6l-2.6,1.8L365.8,208.4
		L365.8,208.4z M383.1,195.9c2.2,0.4,4.9,0.7,6.3,0.7c0.2,0,0.4,0,0.5,0c0.3-1.1,0.8-4,1.1-8.9h-6.4c-0.7,2.9-1.5,5.5-2.8,8
		L383.1,195.9L383.1,195.9z"/>
	<path class="st4" d="M405.4,166.1v7.3c-2-0.2-4.4-0.3-6.6-0.3h-15.5c-0.1,2.6-0.1,3.7-0.3,5.3h12.3c2.9,0,4.6-0.1,6.3-0.2
		c-0.1,0.8-0.2,3-0.4,6.6c-0.2,7.4-1.1,13.9-2.1,16.6c-1.4,3.6-3.5,4.7-9.4,4.7c-1.4,0-3-0.1-5.4-0.3c-0.3-2.8-0.7-4.7-1.7-6.9
		c2.4,0.4,5.3,0.8,6.9,0.8c1.7,0,2.6-0.4,3.1-1.3c0.8-1.6,1.5-6.9,1.7-13.7h-12c-0.8,4.6-2.1,8.2-4.1,11.8
		c-2.6,4.5-5.2,7.2-9.8,10.3c-1.6-2.6-2.8-4.2-4.9-6.1c3.6-2.2,5.4-3.9,7.3-6.5c2.6-3.6,4.2-8,4.9-13.6c0.3-2.3,0.4-3.8,0.5-7.5h-5
		c-2.3,0-4.8,0.1-6.8,0.3v-7.3c2,0.2,4.1,0.3,6.7,0.3h27.6C401.2,166.3,403.3,166.2,405.4,166.1 M358.3,159.5v20.4l6.5-0.6
		c1.4-0.1,3.1-0.2,4.9-0.2c0,0.2,0,0.4-0.1,0.6l0,0l0,0c-0.5,4.6-1.8,8.1-3.8,10.8l0,0l0,0c-1.3,1.8-2.4,2.9-5.6,4.9l-6.8,4.2
		l5.9,5.4c1.5,1.4,2.5,2.6,3.8,4.8l3.2,5.4l5.2-3.5c2.7-1.8,4.8-3.5,6.6-5.4l0.5,5l5,0.4c2.4,0.2,4.1,0.3,5.8,0.3
		c2.9,0,6.2-0.2,9.1-1.6c2.7-1.4,4.7-3.6,6-6.9c2-5.2,2.4-15.5,2.5-18.6c0.1-3.9,0.2-4.7,0.2-5.4l4,0.4v-20.4l-6.5,0.6
		c-2,0.2-3.9,0.2-6.2,0.2h-27.6c-2.4,0-4.4-0.1-6.2-0.2L358.3,159.5L358.3,159.5L358.3,159.5z M387,190.7h0.8
		c-0.1,1.1-0.2,2.1-0.3,2.8c-0.4,0-0.9-0.1-1.4-0.1C386.5,192.5,386.8,191.6,387,190.7L387,190.7L387,190.7z"/>
	<path class="st1" d="M410.3,213.2l0.4-3.4c0.2-1.6,0.3-3.2,0.3-5.5v-29.9c0-2,0-3.1-0.2-4.3l-0.4-3.6l3.6,0.3
		c1.6,0.1,2.9,0.2,5.6,0.2h27.2c2.9,0,4.2,0,5.3-0.2l3.8-0.4l-0.5,3.8c-0.1,1.1-0.2,2.4-0.2,5.3v29c0,4-1.9,6.8-5.3,7.8
		c-1.2,0.4-3,0.6-5.9,0.6c-1,0-2.5,0-4.3-0.1l-3.5-0.1l-0.4-2.5c-0.4-2.3-0.8-3.6-1.8-5.9l-2.2-4.7l5.2,0.5c2.3,0.2,4,0.3,5.2,0.4
		v-3.3h-18.5v7.3c0,3,0,4.3,0.2,5.2l0.5,3.5L410.3,213.2L410.3,213.2z M442.4,184.9v-5.3h-3.1v5.3H442.4z M426.6,184.9v-5.3H424v5.3
		H426.6z"/>
	<path class="st4" d="M452.6,169.9c-0.2,1.4-0.2,2.7-0.2,5.7v29c0,2.6-1.1,4.3-3.1,4.9c-1,0.3-2.7,0.4-5,0.4c-1.2,0-3.1-0.1-5.2-0.1
		c-0.4-2.5-0.9-4.1-2.1-6.6c3,0.3,5,0.4,6.3,0.4c1.8,0,2.1-0.2,2.1-1v-8.3h-24.5v10.3c0,3,0,4.5,0.2,5.7h-7.5
		c0.2-1.8,0.3-3.5,0.3-5.9v-29.9c0-2.1,0-3.3-0.2-4.6c1.7,0.1,3,0.2,5.9,0.2h27.2C449.9,170,451.4,170,452.6,169.9 M436.3,187.9h9.1
		v-11.3h-9.1V187.9 M420.9,187.9h8.6v-11.3h-8.6V187.9 M459.5,163l-7.6,0.9c-1,0.1-2.2,0.1-5,0.1h-27.2c-2.9,0-4-0.1-5.4-0.2
		l-7.2-0.6l0.7,7.2c0.1,1.1,0.1,2.1,0.1,4v29.9c0,2.2-0.1,3.6-0.3,5.1l-0.9,6.8H428l-1.1-6.9c-0.1-0.8-0.1-2.4-0.1-4.8v-4.3h2.1
		l2.5,5.4c0.9,2,1.3,3.1,1.6,5.1l0.8,4.9l5,0.1h1c1.7,0,3.2,0.1,4.3,0.1c3.1,0,5.2-0.2,6.8-0.7c4.5-1.4,7.4-5.4,7.4-10.6v-29
		c0-2.7,0-3.9,0.2-4.9L459.5,163L459.5,163L459.5,163z"/>
	<path class="st3" d="M522,163.2c-1.1,3.1-1.6,4.2-3.1,7.6v34.5c0,2.7,0.1,3.9,0.3,6.8h-9.5c0.2-2.4,0.4-4.1,0.4-6.8v-17.6
		c0-0.8,0.1-2.1,0.1-4.1c-0.4,0.5-0.9,1.3-1.6,2.3c-0.4,0.5-0.8,1-1.5,1.8c-0.8-4.3-1.5-7-3-10.9c3.6-3.6,6.4-8.3,8.5-14.2
		c1.1-3,1.7-5,2-7.4l9.5,2.1c-0.1,0.4-0.8,2.3-1.2,3.6c1.4,0.1,2.4,0.2,4.5,0.2h1.4v-0.8c0-1.8-0.1-3-0.4-4.3h9.4
		c-0.2,1-0.2,2.2-0.2,4.3v0.7h6v-0.8c0-2-0.1-3.1-0.3-4.2h9.5c-0.2,1.2-0.3,2.4-0.3,4.3v0.8h2.3c2.3,0,3.9-0.1,5.5-0.3v8.4
		c-1.7-0.2-2.9-0.2-5.5-0.2h-2.3v3.6h2.8c3.2,0,4.5-0.1,6-0.3v8.6c-1.5-0.2-3.1-0.3-6.1-0.3h-28.3c-3,0-4.6,0.1-6.2,0.3v-8.6
		c1.4,0.2,3,0.3,6.1,0.3h2V169h-1.4c-2.4,0-3.8,0.1-5.2,0.2L522,163.2L522,163.2z M523.6,188.1c0-2.6-0.1-3.9-0.2-5.4
		c1.5,0.2,2.8,0.2,5.5,0.2h22.8c3.2,0,4.6-0.1,5.8-0.2c-0.2,1.4-0.2,2.8-0.2,5.6v16.1c0,3.1,0.1,5.4,0.3,7.7h-9.2v-2.2h-16.1v2.2
		h-9.1c0.2-2.4,0.4-4.5,0.4-7.1V188.1L523.6,188.1z M532.3,192.8h16.1v-2.7h-16.1V192.8z M532.3,202.4h16.1v-2.8h-16.1V202.4z
		 M543.5,172.6V169h-6v3.6H543.5z"/>
	<path class="st3" d="M584.9,157.9c-0.8,2.5-1.5,6.4-2.4,12.7c3.9-7,8.7-10.3,15-10.3c4,0,8,2,10.8,5.4c3.3,4.2,4.9,9.6,4.9,16.5
		c0,9.8-3,17-9.1,21.8c-3.4,2.7-8.2,4.9-13.6,6.2c-2,0.5-3.6,0.8-7,1.4c-1.4-4.5-2.2-6.1-4.8-10.2c17.1-1,24-6.6,24-19.4
		c0-7.4-2.4-11.5-6.6-11.5c-2.2,0-4.2,1.1-6.4,3.4c-3.6,3.8-5.9,8.7-6.6,13.8c-0.2,1.4-0.2,2.1-0.2,4.9l-10,0.1
		c0.1-0.4,0.1-0.8,0.1-1v-1.2c-0.1-2.3-0.2-5.9-0.2-7.6c0-7.2,0.4-14,1.4-21.7c0.2-1.7,0.2-2.4,0.2-3.3v-0.5L584.9,157.9
		L584.9,157.9z"/>
	<path class="st3" d="M640.5,169.6c-0.8,3.2-1.8,8.8-2.6,14.5c5-3.2,10.2-4.6,17-4.6c10.6,0,17.6,5.5,17.6,14
		c0,5.1-2.4,9.7-6.7,12.6c-4.3,2.9-9.7,4.3-17,4.3c-4.9,0-9.1-0.5-14.9-1.8c-0.2-4.9-0.4-6.8-1.4-10.6c5.9,1.8,11.4,2.8,15.9,2.8
		c7.8,0,13.1-2.8,13.1-7c0-3.1-3.1-5-8.5-5c-4.5,0-9,1.2-13,3.6c-1.5,0.8-2.1,1.4-3.3,2.7l-9.9-0.4c0.1-0.5,0.1-0.6,0.2-1.2
		c0.3-2.9,1.5-12.4,2.7-20.6c0.2-1.3,0.3-2.3,0.4-3.8L640.5,169.6L640.5,169.6z M639.4,156.5c2.9,1.5,6.5,2.7,12.1,4.2
		c4,1.1,9.2,2.1,12,2.6l-3.2,9.6c-10.8-2.2-18.7-4.6-25.7-7.8L639.4,156.5L639.4,156.5z"/>
	<path class="st3" d="M680.2,193c1.6-1.2,2.6-2.1,4.2-3.6c4-4.1,6.2-6.2,6.5-6.5c0.1-0.9,0.1-2.7,0.2-6.5c-4.4,0.3-7.4,0.5-8.9,0.8
		l-0.5-9.4c1.4,0.1,2.1,0.2,3.1,0.2c1.5,0,4-0.1,6.5-0.3c0-0.5,0.1-1.1,0.1-1.9c0.1-1.2,0.1-2.7,0.1-4.1c0-1.8-0.1-2.4-0.2-3.9
		l10.5,0.2c-0.2,1.4-0.6,5.2-0.7,8.8l3.3,3.1c-1.1,0.8-2.3,2.1-3.8,4l-0.1,0.8c0,0.6,0,0.8-0.1,1.3c7.4-6.9,13.6-10.2,18.8-10.2
		c5.8,0,9.6,3.7,9.6,9.3c0,2-0.4,4-1.5,9c-1.8,7.5-2.6,11.2-2.6,12.7c0,1.1,0.5,1.7,1.4,1.7s2.1-1,3.3-2.7c1.5-2.1,2.9-4.6,3.6-6.4
		c1.4,3.8,2.4,5.7,5,9.6c-4.6,7.5-8.5,10.4-14.2,10.4s-9.3-3.8-9.3-9.6c0-3.3,0.6-6.9,2.6-15.8c0.7-3.1,1.1-5.2,1.1-6.1
		c0-1.1-0.7-1.7-1.7-1.7c-1.4,0-3.5,0.9-5.7,2.4c-4,2.8-7.7,6.1-10.3,9.2c-0.1,2.8-0.1,4.5-0.1,6.2c0,8.4,0.2,14.5,0.5,16.8
		l-10.8,0.1c0.4-2.1,0.5-5.4,0.5-9.1v-6.2c-4.2,5.1-5.2,6.2-5.9,7.4L680.2,193L680.2,193z"/>
	<path class="st3" d="M750.2,159.4c2.5,0.3,4.7,0.4,8.6,0.4c5.3,0,11.9-0.2,17.9-0.7c2.6-0.2,3.4-0.4,4.5-0.8l4.9,7.2
		c-1,0.6-4.2,3.2-9.6,7.8c-3.2,2.7-4.2,3.6-8.2,6.5c3.3-0.8,5.1-1.1,8.2-1.1c5.6,0,9.6,1.3,12.7,4c2.9,2.6,4.3,6,4.3,10.3
		c0,6-2.8,10.8-8.2,14c-4.1,2.4-9.8,3.8-15.8,3.8c-10,0-16.2-4-16.2-10.6c0-5.5,4.9-9.5,11.8-9.5c4.3,0,8.1,1.7,10.7,4.6
		c1.2,1.3,1.8,2.5,2.7,4.7c3.2-1.4,4.7-3.4,4.7-6.5c0-4.2-4-6.7-10.7-6.7s-13,2-18.3,5.5c-1.8,1.2-3.8,2.7-5.7,4.5l-5.5-9
		c5.5-2.6,18-12.3,25.4-19.6c-3.2,0.4-5.5,0.5-13.9,0.9c-1.6,0.1-2.7,0.2-3.9,0.3L750.2,159.4L750.2,159.4z M764.9,198.2
		c-1.4,0-2.3,0.8-2.3,2c0,1.6,1.9,2.6,5.1,2.6c0.7,0,0.8,0,2-0.2C768.9,199.8,767.2,198.2,764.9,198.2L764.9,198.2z"/>
	<path class="st5" d="M78.2,220.1c-12.4,2.1-13.6,3.8-15.1,21.2c-1.5-17.4-2.7-19.1-15.1-21.2c12.4-2.1,13.6-3.8,15.1-21.2
		C64.6,216.3,65.8,218,78.2,220.1z"/>
	<path class="st6" d="M96.1,128.4c-5.5,0.9-6.1,1.7-6.7,9.5c-0.7-7.8-1.2-8.5-6.7-9.5c5.5-0.9,6.1-1.7,6.7-9.5
		C90.1,126.7,90.6,127.4,96.1,128.4z"/>
	<path class="st1" d="M411.9,98.1h-141c-16.7,0-30.4-13.6-30.4-30.4s13.6-30.3,30.4-30.3h312.2c16.7,0,30.3,13.6,30.3,30.3
		s-13.6,30.4-30.3,30.4h-135l-18.8,15.8L411.9,98.1z"/>
	<path class="st7" d="M583.1,37.9c16.5,0,29.8,13.4,29.8,29.8s-13.4,29.8-29.8,29.8H448l-18.6,15.6l-17.2-15.6H270.9
		c-16.5,0-29.9-13.4-29.9-29.8s13.4-29.8,29.9-29.8L583.1,37.9 M583.1,36.9H270.9c-17,0-30.9,13.8-30.9,30.8s13.8,30.8,30.9,30.8
		h140.8l16.9,15.3l0.6,0.6l0.7-0.6l18.4-15.3h134.8c17,0,30.8-13.8,30.8-30.8S600.1,36.9,583.1,36.9L583.1,36.9z"/>
	<g class="st8">
		<path class="st4" d="M372.9,67.7c0,2.9-1.2,5.2-3.6,6.9c-2.2,1.6-5.2,2.4-8.9,2.5V73c2.1-0.1,3.8-0.5,5.3-1.3
			c1.7-1,2.5-2.3,2.5-3.9c0-1.5-0.6-2.7-1.8-3.5c-1.2-0.8-2.9-1.3-5.1-1.3c-1,0-1.9,0-2.7,0.1v9.4c0,1.6-0.4,2.7-1.2,3.3
			c-0.8,0.7-2,1-3.6,1c-2.3,0-4.2-0.6-5.9-1.7c-2-1.3-3-3.2-3-5.6c0-2,0.8-3.9,2.3-5.6c1.7-1.9,4-3.2,6.9-4.1v-3h-7.7v-4.2h7.7v-3.5
			h4.4v3.5h5.4v4.2h-5.4v2.3c1-0.1,1.8-0.1,2.5-0.1c4,0,7.1,0.9,9.1,2.7C372,63.2,372.9,65.3,372.9,67.7z M354.3,71.1v-6.9
			c-3.4,1.2-5.1,3-5.1,5.4c0,0.9,0.4,1.7,1.3,2.3c0.8,0.5,1.7,0.8,2.6,0.8C353.9,72.6,354.3,72.1,354.3,71.1z M372.7,57.7
			c-2.6-0.9-5.1-1.6-7.5-2v-4.2c2.6,0.4,5.1,1,7.5,1.7V57.7z"/>
		<path class="st4" d="M411.3,57.9l-2.6,3.4c-2.4-1.1-4.6-2.2-6.7-3.6v2.6h-4.4v2.4h10.3v3.8h-10.3V73h5.3l-3.4-1.5
			c1.4-1.7,2.5-3.3,3.3-4.9l3.9,1.5c-0.9,1.7-2,3.3-3.3,4.9h6.4v4H381v-4h6.5c-1-1.6-2-3.1-3.2-4.4l3.5-1.9c1.2,1.2,2.4,2.7,3.5,4.6
			l-3,1.7h4.9v-6.5H383v-3.8h10.1v-2.4h-4.4v-2.6c-2.1,1.4-4.4,2.7-6.7,3.9l-2.6-3.3c5.6-2.5,10-5.7,13.5-9.7h4.5
			c1.8,2,3.8,3.7,6,5.1C405.4,55.1,408.1,56.5,411.3,57.9z M400.5,56.7c-2-1.4-3.8-2.9-5.3-4.4c-1.5,1.6-3.2,3-5.1,4.4H400.5z"/>
	</g>
	<g class="st8">
		<path d="M433.6,67.1c0,3.8-0.5,6.5-1.4,8c-0.9,1.6-2.5,2.4-4.6,2.4c-1.3,0-2.6-0.2-3.8-0.7v-3.5c1.3,0.5,2.4,0.7,3.3,0.7
			c1,0,1.8-0.6,2.2-1.7c0.4-1.1,0.6-2.8,0.6-5.2c0-1.5-0.2-2.6-0.5-3c-0.3-0.5-1.1-0.7-2.2-0.7h-2.6c-0.9,4.8-2.2,9.5-3.8,14.1h-4
			c1.9-4.4,3.3-9,4.3-14.1H417v-3.2h4.7c0.2-1.4,0.4-2.7,0.5-3.9h3.7c-0.2,1.2-0.3,2.4-0.6,3.9h2.3c2.2,0,3.7,0.4,4.5,1.2
			C433.1,62.3,433.6,64.2,433.6,67.1z M434.8,58.8h-2.2v-3.6h2.2V58.8z M439.9,69.6h-3.6c-0.4-3.9-1.4-7.2-3-10h3.9
			C438.6,62.5,439.5,65.9,439.9,69.6z M438,58.8h-2.2v-3.6h2.2V58.8z"/>
		<path d="M449.6,63.1c-0.4,3.7-1.2,7.1-2.4,10.1l-3.4-1.2c1.3-2.8,2.1-6.1,2.6-9.9L449.6,63.1z M464.9,57.2c-0.7,2.5-1.6,4.9-2.7,7
			l2.2-0.8c1.8,2.7,3.1,5.6,4,8.8l-3.4,1.3c-0.7-2.9-1.8-5.7-3.3-8.2c-1.8,3.1-4.2,5.8-7.1,8.2v0.6c0,0.4,0,0.6,0.1,0.7
			s0.3,0.1,0.7,0.1h3.2c0.9,0,1.5-0.2,1.7-0.6s0.3-1.7,0.4-3.9l3.3,1.1c-0.1,2.1-0.3,3.6-0.5,4.4c-0.3,0.9-0.7,1.6-1.4,1.9
			c-0.6,0.3-1.6,0.4-3,0.4h-4.3c-1.4,0-2.3-0.1-2.8-0.4c-0.6-0.3-0.9-0.9-1-1.9c-1.3,0.9-2.8,1.7-4.4,2.5l-2.7-2.8
			c2.7-1.1,5.1-2.4,7.1-3.9v-9.9h3.4v7.1c3.5-3.4,5.8-7.8,6.8-13.1L464.9,57.2z M459.2,58.4l-1.5,3c-2.5-1.3-5.3-2.2-8.5-2.8
			l1.6-2.9C453.5,56.1,456.3,57,459.2,58.4z"/>
		<path d="M490.4,70.8c-0.7,1.2-1.5,2.2-2.5,3.1c2.1,0.6,4.4,1.3,7,2.2l-2.3,2.5c-2.7-1.1-5.2-2-7.6-2.8c-2.6,1.4-6.1,2.2-10.5,2.6
			l-1.8-2.7c3.4-0.2,6.1-0.5,8.1-1.1c-1.9-0.5-3.5-0.9-5.1-1.2c0.9-1,1.7-1.9,2.3-2.6h-5.2v-2.7h7.3c0.4-0.5,0.6-0.9,0.9-1.3h-6.7
			v-6.4h5.4V59h-6.5v-2.7h21.6V59h-6.7v1.4h5.6v6.4h-9c-0.2,0.3-0.5,0.7-0.8,1.3h11.3v2.7H490.4z M479.8,64.5v-1.7h-2.1v1.7H479.8z
			 M484.5,73c0.9-0.6,1.7-1.3,2.2-2.2h-4.8c-0.4,0.5-0.8,1-1.1,1.4C481.9,72.4,483.1,72.6,484.5,73z M485,60.4V59h-2.2v1.4H485z
			 M485,64.5v-1.7h-2.2v1.7H485z M490.3,64.5v-1.7H488v1.7H490.3z"/>
		<path d="M513.2,62.4h-4.6c-1,4-2.5,8.3-4.3,12.9h-3.9c1.9-4.1,3.5-8.4,4.6-12.9h-3.3v-3.2h4.1c0.2-1,0.4-2,0.6-3.1h3.6
			c-0.2,1-0.4,2-0.6,3.1h3.9v3.2H513.2z M523.2,75.7c-1.3-1.1-2.5-1.9-3.5-2.6c-0.2,1.6-0.8,2.8-1.9,3.6c-1.1,0.8-2.5,1.2-4.3,1.2
			c-2,0-3.5-0.4-4.6-1.3c-1.2-0.9-1.8-2.1-1.8-3.7c0-1.5,0.6-2.7,1.7-3.6s2.6-1.4,4.5-1.4c1,0,2,0.1,3,0.3v-5.9h-1.8v-3.2h8.3v3.2
			h-3.1v7c1,0.5,2.2,1.2,3.5,2.1L523.2,75.7L523.2,75.7z M516.3,71.7v-0.3c-1-0.4-2-0.5-3-0.5c-2.1,0-3.1,0.7-3.1,2s1,2,3.1,2
			C515.3,74.9,516.3,73.8,516.3,71.7z"/>
		<path d="M538.5,62.2c0,1,0,1.8-0.1,2.3h10.5v6.7c0,3-0.4,4.9-1.3,5.7c-0.7,0.7-2.4,1.1-4.9,1.1h-2.6l-1.1-3.3h3.2
			c1.4,0,2.3-0.2,2.6-0.6s0.5-1.5,0.5-3.1v-3.3h-7.1c-0.3,2.5-1,4.5-1.9,6.2c-1,1.8-2.5,3.3-4.4,4.5l-3-2.4c2.6-1.5,4.3-3.4,5.1-5.6
			c0.6-1.6,0.9-4.4,0.9-8.2h-6v-3.3h9.4v-3.2h3.6v3.2h9.6v3.3L538.5,62.2L538.5,62.2z"/>
		<path d="M579.9,76.4c-4.1-3.5-8.4-8-13-13.5c-0.4-0.4-0.7-0.6-1-0.6s-0.6,0.2-0.9,0.6c-0.8,1.4-2.3,4-4.4,8.1h-4.1
			c1.2-2.2,3.1-5.5,5.6-10c1-1.8,2.3-2.7,3.8-2.7c1.3,0,2.6,0.9,4.1,2.6c3.7,4.5,7.1,8.1,10,10.8L579.9,76.4L579.9,76.4z"/>
	</g>
	<path class="st9" d="M336,60.7c0,5.6-5.6,10.3-7.3,15.4c-1.7,5.3,0.1,12.3-3.1,16.7s-10.5,4.9-14.9,8.1s-7.1,10-12.3,11.7
		c-5.1,1.7-11.2-2.2-16.9-2.2s-11.8,3.9-16.9,2.2s-8-8.5-12.3-11.7c-4.4-3.2-11.7-3.7-14.9-8.1s-1.4-11.5-3.1-16.7
		c-1.6-5.1-7.3-9.7-7.3-15.4s5.6-10.3,7.3-15.4s-0.1-12.3,3.1-16.7s10.5-4.9,14.9-8.1c4.4-3.2,7.1-10,12.3-11.7s11.2,2.2,16.9,2.2
		s11.8-3.9,16.9-2.2s8,8.5,12.3,11.7c4.4,3.2,11.7,3.7,14.9,8.1c3.2,4.4,1.4,11.5,3.1,16.7C330.4,50.4,336,55,336,60.7z"/>
	<path class="st4" d="M330,60.7c0,5-5,9.1-6.5,13.7c-1.5,4.7,0.1,11-2.8,14.9s-9.4,4.4-13.3,7.2c-3.9,2.8-6.3,8.9-11,10.4
		c-4.5,1.5-10-2-15-2s-10.5,3.4-15,2s-7.1-7.6-11-10.4c-3.9-2.9-10.4-3.3-13.3-7.2s-1.3-10.2-2.8-14.9c-1.5-4.5-6.5-8.7-6.5-13.7
		s5-9.1,6.5-13.7s-0.1-11,2.8-14.9c2.9-3.9,9.4-4.4,13.3-7.2c3.9-2.8,6.3-8.9,11-10.4c4.5-1.5,10,2,15,2s10.5-3.4,15-2
		c4.7,1.5,7.1,7.6,11,10.4c3.9,2.9,10.4,3.3,13.3,7.2s1.3,10.2,2.8,14.9S330,55.7,330,60.7z"/>
	<g class="st8">
		<path class="st1" d="M297,39.5c0.4,0.2,0.7,0.7,0.7,1.2c0,0.2,0,0.4-0.1,0.6c-0.3,0.5-0.7,0.8-1.2,0.8c-0.2,0-0.4-0.1-0.6-0.2
			c-4.7-2.4-9.6-6.3-12.6-10c-0.1-0.2-0.3-0.3-0.4-0.3c-0.2,0-0.3,0.1-0.4,0.3c-3,3.9-7.6,7.5-12.4,9.9c-0.2,0.1-0.4,0.2-0.7,0.2
			c-0.5,0-1-0.3-1.2-0.7c-0.1-0.2-0.1-0.3-0.1-0.5c0-0.5,0.3-0.9,0.8-1.2c4.5-2.2,9.1-5.7,12.2-9.8c0.4-0.5,1.1-0.8,1.8-0.8
			c0.7,0,1.4,0.3,1.8,0.8C287.9,33.7,292.2,37.2,297,39.5z M291.5,44.3c1.5,0,2.4,0.7,2.4,1.8c0,0.5-0.2,1.1-0.6,1.7
			c-1.8,3.1-5.1,7.3-8.1,10.1c-0.3,0.3-0.7,0.4-1,0.4c-0.3,0-0.7-0.1-1-0.4c-0.3-0.3-0.4-0.6-0.4-0.8c0-0.3,0.2-0.6,0.4-0.8
			c2.9-2.4,5.8-6.1,7.4-8.7c0.1-0.3,0.2-0.4,0.2-0.5c0-0.2-0.2-0.3-0.4-0.3h-18.1c-0.6,0-1-0.6-1-1.3c0-0.6,0.3-1.2,1-1.2H291.5z
			 M288.3,38.4c0.6,0,0.9,0.5,0.9,1.2c0,0.6-0.3,1.2-0.9,1.2h-11c-0.6,0-0.9-0.5-0.9-1.2c0-0.7,0.3-1.2,0.9-1.2H288.3z"/>
	</g>
	<g class="st8">
		<path class="st1" d="M270.6,76.7c-0.8,2.7-2.7,3.6-5.2,3.6c-3.3,0-5.6-2.2-5.6-5.4c0-3.3,2.6-5.6,6.2-5.6c1.5,0,2.8,0.5,3.7,1.4
			c0-1.1,0-2.7,0-4.2c-4.6,0.1-9.4,0.3-14,0.6c0,0-0.1,0-0.1,0c-0.7,0-1.1-0.5-1.2-1.2c0,0,0-0.1,0-0.1c0-0.7,0.4-1.2,1.1-1.2
			c4.4-0.3,9.3-0.4,14.1-0.5c0-1.1,0-2.2,0-3.1c0-0.7,0.4-1.1,1.2-1.1c0.9,0,1.3,0.4,1.3,1.2c0,0.9,0,1.9,0,3.1c1.7,0,3.4-0.1,5-0.1
			c1.1,0,2.3,0,3.3,0c0.8,0,1.3,0.4,1.3,1.3c0,0,0,0.1,0,0.1c0,0.8-0.4,1.1-1.2,1.1c-1.9,0-3.8-0.1-5.8-0.1c-0.8,0-1.7,0-2.6,0
			c0,2.1,0,4.3,0,6.5c0.6,1.3,0.9,2.6,0.9,4.1c0,4.1-1.8,6.7-5.1,8.5c-1.4,0.8-3.1,1.3-5,1.7c-0.1,0-0.2,0-0.3,0
			c-0.6,0-1.1-0.3-1.3-1c0-0.1,0-0.3,0-0.3c0-0.7,0.4-1.1,1-1.3c5.6-1,8.4-3.7,8.4-7.4v-0.6H270.6z M266.1,71.5
			c-2.1,0-3.8,1.4-3.8,3.4c0,2.1,1.4,3.2,3.4,3.2c2.2,0,3.7-1.5,3.7-3.8C269.5,72.6,268.1,71.5,266.1,71.5z"/>
	</g>
	<g class="st8">
		<path class="st1" d="M301.3,61.7c0,0.4-0.2,0.8-0.5,1.1c-3.5,3.3-8.2,6.8-12.1,9.3c-0.7,0.5-0.9,0.8-0.9,1.2s0.3,0.7,1.1,1.3
			c3.9,2.5,9.3,6.6,13,10c0.4,0.4,0.6,0.8,0.6,1.2c0,0.4-0.2,0.8-0.4,1c-0.3,0.3-0.7,0.5-1.1,0.5c-0.4,0-0.8-0.2-1.1-0.5
			c-3.7-3.6-8.6-7.5-13.2-10.6c-1.4-1-1.9-1.8-1.9-3c0-1.3,0.6-2.2,2-3.1c3.9-2.5,8.6-6.2,11.9-9.4c0.3-0.3,0.7-0.4,1-0.4
			c0.3,0,0.7,0.1,1,0.4C301.1,61,301.3,61.3,301.3,61.7z M300.6,67.1c0.3,0,0.6,0.1,0.8,0.3c1,1,2.1,2.5,2.7,3.5
			c0.1,0.2,0.2,0.4,0.2,0.8c0,0.5-0.4,0.9-1,0.9c-0.4,0-0.6-0.2-0.8-0.5c-0.7-1.2-1.6-2.5-2.5-3.4c-0.2-0.2-0.3-0.5-0.3-0.8
			C299.7,67.5,300.1,67.1,300.6,67.1z M304.1,65c0.3,0,0.6,0.1,0.8,0.4c0.8,0.8,2,2.4,2.6,3.4c0.1,0.2,0.2,0.4,0.2,0.8
			c0,0.4-0.4,0.9-1,0.9c-0.4,0-0.6-0.2-0.8-0.5c-0.7-1.2-1.5-2.4-2.4-3.3c-0.3-0.3-0.4-0.4-0.4-0.8C303.1,65.4,303.6,65,304.1,65z"
			/>
	</g>
	<path class="st1" d="M336,212.6c-8.8,0-16-3.1-20.2-8.6c-1.8-2.3-2.7-4.5-3.6-7.7l-0.9-3l17.8-2.6l-16-1.5l0.4-2.8
		c0.2-1.7,0.4-3.2,0.6-4.9l1.7-19c0.1-1.3,0.2-2.8,0.2-4.9l0.1-2.7l2.7,0.1c2.6,0.1,3.2,0.1,6.3,0.1h19.1c5.8,0,7.9-0.1,10.2-0.4
		l3-0.4V171l-2.9-0.3c-3.3-0.3-6.2-0.4-10.2-0.4H332l-0.2,2c2.2-0.7,4.6-1.1,7.2-1.1c6.3,0,11.7,2,15.6,5.8
		c3.8,3.7,5.6,8.3,5.6,14.1C360.3,204.4,351,212.6,336,212.6L336,212.6z M330.2,192.9c0.6,2.4,1.9,3.9,5.8,3.9s6.2-2,6.2-5.4
		s-2.2-5.4-6.1-5.4s-5,1.6-5.6,3l-0.8,1.7h-0.1L330.2,192.9L330.2,192.9z"/>
	<path class="st4" d="M354.8,157.3V168c-3.4-0.3-6.3-0.4-10.4-0.4h-14.8l-0.6,7.3c0,0.3-0.1,0.9-0.2,2c2.9-2,6.2-2.9,10.3-2.9
		c5.7,0,10.3,1.7,13.7,5c3.2,3.1,4.8,7.1,4.8,12.2c0,11.7-8,18.7-21.6,18.7c-8,0-14.4-2.6-18.1-7.5c-1.5-1.9-2.2-3.7-3.2-6.8
		l12.8-1.9c1.1,4,3.8,5.9,8.4,5.9c5.4,0,8.9-3.2,8.9-8.1s-3.5-8.1-8.8-8.1c-4,0-6.6,1.5-8,4.5l-11.9-1.1c0.3-1.8,0.5-3.3,0.6-5
		l1.7-19.1c0.1-1.3,0.2-2.8,0.3-5.1c2.7,0.1,3.3,0.1,6.4,0.1h19.1C349.9,157.7,352.3,157.6,354.8,157.3 M360.2,151.2l-6,0.7
		c-2.2,0.3-4.2,0.4-9.9,0.4h-19.1c-3,0-3.6,0-6.1-0.1l-5.5-0.2l-0.1,5.5c-0.1,2.4-0.1,3.6-0.2,4.7l0,0l0,0l-1.7,19
		c-0.2,1.7-0.4,3.2-0.6,4.8l-0.7,4.7l-2.4,0.4l1.8,6c1,3.4,2,5.9,4.1,8.6c4.7,6.2,12.6,9.6,22.3,9.6c8,0,14.7-2.2,19.4-6.3
		c5-4.3,7.6-10.5,7.6-17.8c0-6.5-2.2-11.9-6.4-16.1c-0.6-0.6-1.3-1.2-2-1.7l5.6,0.5L360.2,151.2L360.2,151.2L360.2,151.2z
		 M332.5,191.1l0.4-0.9c0.3-0.6,0.7-1.4,3.2-1.4c3.4,0,3.4,1.9,3.4,2.7c0,2.7-2.7,2.7-3.5,2.7c-2.6,0-2.8-0.7-3.2-1.9L332.5,191.1
		L332.5,191.1L332.5,191.1z"/>
</g>
</svg>
