<?xml version="1.0" encoding="UTF-8"?><svg id="Layer_2" xmlns="http://www.w3.org/2000/svg" xmlns:xlink="http://www.w3.org/1999/xlink" viewBox="0 0 1128 446"><defs><style>.cls-1,.cls-2{fill:none;}.cls-3{fill:#999;opacity:.1;}.cls-4{clip-path:url(#clippath);}.cls-5{fill:#f4690b;}.cls-6{fill:#fff;}.cls-7{fill:#fcee21;}.cls-8{fill:#ff8939;}.cls-9{fill:#b4bec1;}.cls-10{fill:#333;}.cls-11{fill:#c9d2d6;}.cls-12{fill:#dce1e2;}.cls-13{fill:#229ef2;}.cls-14{fill:#0679b7;}.cls-15{fill:#3fa9f5;}.cls-2{stroke:#4f4f4f;stroke-dasharray:0 0 11.93 19.88;stroke-miterlimit:10;stroke-width:3px;}</style><clipPath id="clippath"><path class="cls-1" d="m350.11,73.74c-.51-1.72-2.31-2.7-4.03-2.19s-2.7,2.31-2.19,4.03c.3,1.02,1.07,1.77,2,2.12h-.02s1.22,4.15,1.22,4.15c.24.81,1.08,1.27,1.89,1.03l.82-.24c.81-.24,1.27-1.08,1.03-1.89l-1.22-4.14h-.02c.59-.79.83-1.83.53-2.86Z"/></clipPath></defs><g id="PC"><rect class="cls-1" width="1128" height="446"/><path class="cls-10" d="m187.87,349.31c.3-3.88.5-9.64.5-12.72,0-2.09,0-2.88-.3-4.97l18.69.5c-.5,2.29-.5,2.58-1.09,12.03q-.1,2.68-.3,5.07h21.67c3.28,0,4.47-.2,6.66-1.09l7.75,6.76c-1.09,1.99-1.29,2.78-1.39,7.36-.7,21.27-2.19,37.87-4.18,44.44-2.88,9.25-7.65,12.43-18.69,12.43-3.88,0-5.37-.1-13.02-.79-.4-7.95-1.09-11.23-3.38-17.5,4.97,1.29,9.84,1.99,12.92,1.99,4.77,0,5.97-1.59,7.26-10.24.99-6.66,1.89-19.19,1.89-27.74h-18.99q-.79,6.56-1.49,9.94c-4.37,20.08-13.82,33-34,46.32-4.47-7.06-7.46-10.44-12.92-15.11,13.22-6.96,20.88-14.02,25.85-24.06,2.49-5.07,3.58-8.65,4.97-17h-12.43c-6.66,0-8.75.1-13.42.6l-.1-17c4.97.7,6.76.8,13.82.8h13.72Z"/><path class="cls-10" d="m258.65,366.51c4.67.7,10.04.9,20.38.9h47.52c9.94,0,13.72-.2,20.38-.9v19.19c-4.77-.5-9.15-.6-20.48-.6h-47.32c-11.13,0-14.41.1-20.48.6v-19.19Z"/><path class="cls-10" d="m372.37,419.89c.4-4.17.5-7.06.6-15.21v-57.86c-.1-8.55-.1-9.05-.7-14.41h19.19c-.4,2.58-.4,4.18-.5,14.51v13.62c15.71,5.07,31.31,12.13,45.23,20.68l-9.44,16.9c-8.25-5.86-19.78-12.23-31.31-17.3-2.98-1.19-3.28-1.29-3.58-1.49-.3-.1-.5-.2-.9-.5v25.85c0,7.36.2,12.62.6,15.21h-19.19Zm44.93-81.91c3.88,4.37,7.06,8.95,9.84,14.22l-9.44,4.57c-3.28-6.26-5.86-9.94-9.84-14.51l9.44-4.27Zm13.22-5.97c3.68,3.98,6.46,7.75,9.94,13.82l-9.14,4.47c-3.48-6.26-6.26-10.24-9.74-14.22l8.95-4.08Z"/><path class="cls-10" d="m477.24,410.94v6.86h-18.09c.6-5.47.79-8.85.79-16.2v-51.1c0-4.27-.1-7.36-.4-11.43,3.48.3,5.47.4,12.03.4h53.58c6.16,0,7.65,0,12.33-.4-.2,3.48-.3,7.06-.3,11.73v50.4c0,7.65.2,12.43.7,16.4h-17.99v-6.66h-42.65Zm42.65-55.57h-42.65v39.66h42.65v-39.66Z"/><path class="cls-10" d="m557.46,366.51c4.67.7,10.04.9,20.38.9h47.52c9.94,0,13.72-.2,20.38-.9v19.19c-4.77-.5-9.15-.6-20.48-.6h-47.32c-11.13,0-14.41.1-20.48.6v-19.19Z"/><path class="cls-10" d="m670.38,337.08c12.53,7.36,18.99,11.93,27.34,19.48l-11.73,15.51c-8.65-9.05-17.1-15.61-27.04-20.98l11.43-14.02Zm-10.44,61.73c10.14-.79,20.58-3.28,29.92-7.16,12.53-5.17,21.47-12.62,29.13-24.55,4.17-6.36,6.86-11.83,9.74-19.48,4.87,5.87,7.16,7.85,14.61,13.32-9.05,19.58-18.49,31.31-32.41,40.26-10.74,6.96-20.18,10.64-38.67,14.91-3.88.9-4.47.99-7.16,1.79l-5.17-19.09Z"/><path class="cls-15" d="m902.91,404.05l2.99-1.03c1.25-.43,3.56-1.6,7.58-4.66v-10.52h-.25c-1.65,0-2.61.08-4.46.36l-3.46.53v-18.93l3.42.49c2.09.3,3.22.37,6.08.37h5.4l-.98-1.31c-4.45-5.96-7.17-8.84-13.26-14.03l-2.51-2.14,13.17-12.82,2.07,1.71c2.46,2.02,4.61,3.91,6.59,5.8v-5.37l3.23.25c2.01.15,4.17.23,6.59.23h11.18c3.5,0,4.81,0,6.12-.09v-.38l2.33.18,2.76-.25-.13.43c1.51.08,3.12.12,4.86.12h10.87c4.08,0,5.18,0,6.79-.15l3.87-.35-.64,3.84c-.12.71-.12,1.08-.12,2.2v10.15c0,1.93,0,3.02.08,3.8l2.57.31-.28,2.92c-.29,3-.8,5.39-2.12,7.16l.22-.03v12.1l1.67-.19v12.27l3.29.38s-4.35,4.51-4.42,4.57l4.57-.61-1.73,4.67c-1.44,3.88-2.14,6.85-2.77,11.8l-.33,2.53-2.55.09c-7.3.25-18.64.4-30.33.4s-16.87-.43-21.07-1.92c-2.82-.99-5.1-2.35-7.39-4.48-2.34,2.03-4.25,3.45-8.65,6.62l-3.1,2.24-7.77-19.25Zm51.69-.2c.5,0,1.02-.02,1.54-.03-.24-.15-.48-.3-.73-.46-.27.17-.54.33-.81.49Zm-31.84-33.2c2.03,0,2.93,0,3.88-.08-.16-.73-.24-1.53-.24-2.4v-1.17l-3.64,3.64Z"/><path class="cls-6" d="m916.79,344.38c5.39,4.44,9.04,8.01,12.61,12.14,1.98.16,2.46.16,5.79.16h7.3v-2.3h-7.54c-3.57,0-4.68,0-6.66.24v-8.88c2.06.16,4.28.24,6.82.24h11.18c4.12,0,5.31,0,7.06-.16-.24.79-.24,1.43-.24,2.78l.08,1.59v8.49c0,2.3,0,3.57.16,4.6-1.9-.08-3.49-.16-5.31-.16h-8.57v1.75c0,1.19.24,1.35,2.46,1.35,1.43,0,2.38-.16,2.78-.4.24-.24.48-1.03.48-2.06v-.48c3.49,1.27,5.95,1.9,9.2,2.3-.55,4.76-1.11,5.87-3.57,7.06v3.81h8.41v-3.41c-2.38-.79-3.41-2.38-3.41-4.92v-6.43q0-2.46-.24-5.16c1.98.16,2.62.16,6.03.16h7.22v-2.3h-6.74c-3.57,0-4.68,0-6.66.24v-8.88c2.06.16,4.28.24,6.82.24h10.87c4.12,0,5.31,0,7.06-.16-.16.95-.16,1.51-.16,2.7v10.15c0,2.38,0,3.57.16,4.6-1.9-.08-3.49-.16-5.31-.16h-8.41v1.82c0,1.03.56,1.35,2.7,1.35,1.35,0,2.54-.16,2.86-.48q.24-.24.48-1.59v-.95c2.94,1.03,5.95,1.67,9.92,2.14-.4,4.12-1.11,5.79-2.86,6.82-1.43.87-3.25,1.11-9.04,1.27v2.94h2.62c4.44,0,5.31,0,7.38-.24v8.96c-2.22-.24-3.09-.32-7.38-.32h-2.54v3.49h4.05c4.52,0,5.39,0,7.54-.24v9.04c-2.3-.24-3.17-.24-7.54-.24h-5.47c4.44,1.43,7.46,2.14,12.93,2.78-2.22,2.3-2.46,2.7-4.68,6.11,1.9-.16,3.09-.32,6.66-.79-1.59,4.28-2.3,7.54-2.93,12.45-6.98.24-18.24.4-30.22.4s-16.26-.4-20.07-1.74c-3.17-1.11-5.47-2.7-8.25-5.79-3.41,3.09-4.84,4.2-10.55,8.33l-5.16-12.77c2.3-.79,5.47-2.78,9.6-6.03v-14.99h-3.25c-1.75,0-2.86.08-4.92.4v-11.98c2.22.32,3.49.4,6.5.4h7.62c3.25,0,3.97,0,5.95-.24-.16,2.3-.16,3.09-.16,8.88v18.56c2.46,3.57,4.52,4.84,8.49,5.39-2.22-2.7-2.62-3.17-6.19-6.42,4.76-.87,7.38-1.59,11.18-2.94h-6.11c-2.86,0-4.05.08-5.63.32v-9.2c1.74.24,2.54.32,5.47.32h4.05v-3.49h-.71c-4.36,0-5.31.08-7.46.32v-8.96c2.06.24,2.93.24,7.46.24h.71v-2.86c-4.52,0-6.19-.16-7.38-.63-1.9-.79-2.7-2.22-2.7-4.76v-8.41l-7.77,7.77c-4.44-5.95-7.3-9.04-13.72-14.52l8.88-8.65m34.03,43.95h8.41v-3.49h-8.41v3.49m10.71,8.57h-12.61l5.47,3.57c-4.44,2.78-8.25,4.6-13.17,6.27,2.54.08,6.11.16,9.68.16,4.28,0,13.17-.24,17.45-.48-3.89-1.27-6.98-2.78-11.9-5.95l5.08-3.57m-45.07-60.56l-3.85,3.75-8.88,8.65-4.72,4.6,5.02,4.27c4.56,3.89,7.17,6.43,10.11,10.05-2.35-.01-3.3-.1-4.97-.33l-6.85-.98v25.89l6.91-1.07c.48-.07.89-.13,1.26-.18v5.87c-3.13,2.29-4.79,3.06-5.55,3.33l-5.97,2.06,2.36,5.86,5.16,12.77,2.87,7.1,6.21-4.48c3.2-2.31,5.13-3.73,6.88-5.14,1.96,1.48,4.01,2.55,6.42,3.4,4.56,1.61,9.51,2.08,22.05,2.08,11.71,0,23.08-.15,30.43-.4l5.09-.17.65-5.06c.61-4.69,1.26-7.5,2.61-11.14l3.46-9.35-.97.13,2.65-2.74-6.67-.77v-12.95l-1.67.19v-8.19c1.26-2.3,1.64-4.94,1.88-7.4l.56-5.83-2.91-.35c0-.34,0-.72,0-1.13v-10.15c0-1.11,0-1.27.08-1.71l1.28-7.67-7.74.71c-1.42.13-2.35.13-6.51.13h-10.87c-.29,0-.58,0-.87,0l.28-.94-6.93.63-5.31-.41v.71c-.79,0-1.79,0-3.12,0h-11.18c-2.35,0-4.43-.07-6.36-.22l-6.46-.5v1.91c-.55-.46-1.11-.93-1.69-1.41l-4.15-3.42h0Z"/><path class="cls-15" d="m824.96,437.28c-14.76,0-27.06-2.24-36.54-6.67-11.58-5.54-20.84-14.98-27.55-28.06l-1.43-2.78,36.25-16.76,1.35,2.43c6.98,12.53,15.42,18.62,25.81,18.62,22.62,0,22.62-10.01,22.62-13.3s0-12.62-23.32-12.62h-28.97v-31.37h27.39c7.14,0,12.67-1.44,16.45-4.27,2.86-2.12,4.24-4.57,4.24-7.51s0-10.61-16.83-10.61c-12.36,0-21.87,5.43-29.07,16.6l-1.37,2.13-33.19-14.19,1.47-2.86c11.62-22.6,33-34.05,63.56-34.05,16.46,0,29.56,3.32,38.92,9.87,9.7,6.78,14.62,16.06,14.62,27.58,0,8.05-1.93,15.15-5.74,21.11-2.46,3.85-5.51,7-9.1,9.41,4.46,1.99,8.33,4.76,11.58,8.27,5.87,6.11,8.87,13.93,8.87,23.2,0,30.42-20.2,45.84-60.03,45.84Z"/><path class="cls-6" d="m825.84,295c15.91,0,28.31,3.11,37.2,9.32,8.89,6.22,13.34,14.59,13.34,25.12,0,7.51-1.75,14-5.26,19.49-3.51,5.49-8.25,9.35-14.21,11.59,6.9,1.68,12.57,4.93,17.02,9.74,5.38,5.6,8.07,12.66,8.07,21.17,0,28.56-19.01,42.84-57.03,42.84-14.39,0-26.15-2.13-35.27-6.38-11-5.26-19.71-14.17-26.15-26.71l30.88-14.28c7.49,13.44,16.96,20.16,28.43,20.16,17.08,0,25.62-5.43,25.62-16.3s-8.77-15.62-26.32-15.62h-25.97v-25.37h24.39c7.84,0,13.92-1.62,18.25-4.87,3.62-2.69,5.44-5.99,5.44-9.91,0-9.07-6.61-13.61-19.83-13.61s-23.86,5.99-31.59,17.98l-27.9-11.93c11.11-21.62,31.41-32.43,60.89-32.43m0-6c-31.77,0-54.05,12.01-66.23,35.68l-2.94,5.73,5.92,2.53,27.59,11.8v36.4h2.41l-.68.31-30.88,14.28-5.67,2.62,2.85,5.56c7.01,13.68,16.74,23.57,28.9,29.39h.03s.03.03.03.03c9.88,4.61,22.6,6.95,37.81,6.95,20.25,0,35.85-4.01,46.38-11.91,11.05-8.3,16.65-20.73,16.65-36.93,0-10.05-3.27-18.56-9.7-25.28-2.43-2.63-5.19-4.86-8.24-6.7,2.31-2.09,4.35-4.52,6.12-7.29,4.12-6.44,6.21-14.09,6.21-22.72,0-12.55-5.35-22.66-15.9-30.03-9.88-6.91-23.55-10.41-40.64-10.41h0Zm-28.7,54.77l.75-1.17c6.6-10.25,15.28-15.23,26.54-15.23,13.83,0,13.83,5.14,13.83,7.61,0,1.33-.34,3.11-3.01,5.09-3.27,2.46-8.2,3.69-14.68,3.69h-23.43Zm.95,37.37h24.07c20.32,0,20.32,6.99,20.32,9.62,0,3.08,0,10.3-19.62,10.3-9.2,0-16.79-5.59-23.19-17.08l-1.58-2.84h0Z"/><path class="cls-6" d="m330.77,56.04l10.51,43.73c3.24,13.49,15.31,23.01,29.19,23.01h480.37c15.02,0,27.72-11.1,29.75-25.98l4.02-29.55c2.4-17.68-11.05-33.54-28.89-34.05l-494.89-14.18c-19.77-.57-34.67,17.8-30.05,37.02Z"/><path class="cls-6" d="m337.1,59.09l10.27,37.13c3.17,11.46,14.96,19.53,28.52,19.53h469.38c14.67,0,27.09-9.42,29.07-22.05l3.93-25.09c2.35-15.01-10.8-28.48-28.23-28.91l-483.57-12.04c-19.31-.48-33.88,15.11-29.36,31.43Z"/><path class="cls-2" d="m337.1,59.09l10.27,37.13c3.17,11.46,14.96,19.53,28.52,19.53h469.38c14.67,0,27.09-9.42,29.07-22.05l3.93-25.09c2.35-15.01-10.8-28.48-28.23-28.91l-483.57-12.04c-19.31-.48-33.88,15.11-29.36,31.43Z"/><path class="cls-3" d="m405.86,91.86l-11.71-42.7h0l-1.26-4.6-2.19-7.99c-.8-2.92-3.82-4.64-6.74-3.84l-84.46,23.15c-2.92.8-4.64,3.82-3.84,6.74l15.16,55.29c.8,2.92,3.82,4.64,6.74,3.84l84.46-23.15c2.92-.8,4.64-3.82,3.84-6.74Z"/><rect class="cls-13" x="294.18" y="37.4" width="98.54" height="68.3" rx="6.74" ry="6.74" transform="translate(-6.7 93.34) rotate(-15.33)"/><rect class="cls-10" x="288.5" y="45" width="98.54" height="11.71" transform="translate(-1.43 91.11) rotate(-15.33)"/><path class="cls-13" d="m350.11,73.74c-.51-1.72-2.31-2.7-4.03-2.19s-2.7,2.31-2.19,4.03c.3,1.02,1.07,1.77,2,2.12h-.02s1.22,4.15,1.22,4.15c.24.81,1.08,1.27,1.89,1.03l.82-.24c.81-.24,1.27-1.08,1.03-1.89l-1.22-4.14h-.02c.59-.79.83-1.83.53-2.86Z"/><path class="cls-11" d="m359.24,59.54l-1.35.4-2.14-7.23c-1.2-4.06-5.48-6.39-9.53-5.19l-13.29,3.92c-4.06,1.2-6.39,5.48-5.19,9.53l2.14,7.23-1.35.4c-2.35.69-3.69,3.16-2.99,5.5l5.76,19.51c.69,2.35,3.16,3.69,5.5,2.99l30.72-9.07c2.35-.69,3.69-3.16,2.99-5.5l-5.76-19.51c-.69-2.35-3.16-3.69-5.5-2.99Zm-25.28-.4c-.19-.63.17-1.29.8-1.47l13.29-3.92c.63-.19,1.29.17,1.47.8l.83,2.82c.72,2.44-.67,4.99-3.11,5.71l-6.74,1.99c-2.44.72-4.99-.67-5.71-3.11l-.83-2.82Z"/><path class="cls-13" d="m350.11,73.74c-.51-1.72-2.31-2.7-4.03-2.19s-2.7,2.31-2.19,4.03c.3,1.02,1.07,1.77,2,2.12h-.02s1.22,4.15,1.22,4.15c.24.81,1.08,1.27,1.89,1.03l.82-.24c.81-.24,1.27-1.08,1.03-1.89l-1.22-4.14h-.02c.59-.79.83-1.83.53-2.86Z"/><path class="cls-9" d="m365.15,72.51l2.78,9.43c.42,1.41-.39,2.89-1.8,3.31l-20.59,6.08c6.18-2.89,12.44-6.2,16.54-8.61,3-1.77,3.55-5.82,3.06-10.21Z"/><path class="cls-12" d="m330.57,83.74l-2.78-9.43c-.42-1.41.39-2.89,1.8-3.31l20.59-6.08c-6.18,2.89-12.44,6.2-16.54,8.61-3,1.77-3.55,5.82-3.06,10.21Z"/><g class="cls-4"><path class="cls-14" d="m351.2,73.42c-.51-1.72-2.31-2.7-4.03-2.19-1.72.51-2.7,2.31-2.19,4.03.3,1.02,1.07,1.77,2,2.12h-.02s1.22,4.15,1.22,4.15c.24.81,1.08,1.27,1.89,1.03l.82-.24c.81-.24,1.27-1.08,1.03-1.89l-1.22-4.14h-.02c.59-.79.83-1.83.53-2.86Z"/></g><path class="cls-7" d="m912.95,97c-6.01,1.02-6.6,1.84-7.32,10.3-.72-8.46-1.31-9.28-7.32-10.3,6.01-1.02,6.6-1.84,7.32-10.3.72,8.46,1.31,9.28,7.32,10.3Z"/><path class="cls-7" d="m262.71,96c-14.84,3.06-16.29,5.54-18.07,31-1.78-25.46-3.23-27.94-18.07-31,14.84-3.06,16.29-5.54,18.07-31,1.78,25.46,3.23,27.94,18.07,31Z"/><path d="m450.04,68.33h-22.57v-3.91c-3.02,2.17-6.08,4.03-9.2,5.59l-4.42-5.19c8.44-3.93,15.4-9.1,20.89-15.51h7.32c5.62,6.27,12.79,11.32,21.5,15.15l-4.32,5.39c-3.02-1.39-6.08-3.13-9.2-5.24v3.71Zm8.13,9.2c-4.91,8.61-13.51,14.61-25.78,18l-4.42-5.95c9.76-2.44,16.9-6.32,21.4-11.64h-30.4v-6.3h39.2v5.9Zm-27.81-15.25h16.37c-3.12-2.34-5.9-4.76-8.34-7.27-2.51,2.61-5.19,5.03-8.03,7.27Z"/><path d="m512.52,94.06h-7.02v-3.46h-21.66v3.46h-7.07v-42.55h35.74v42.55Zm-7.02-26.23v-9.81h-21.66v9.81h21.66Zm0,16.27v-10.07h-21.66v10.07h21.66Z"/><path d="m565.54,79.57h-11.69v14.95h-6.96v-14.95h-11.13v3.2h-6.66v-25.72h17.79v-7.78h6.96v7.78h18.35v25.72h-6.66v-3.2Zm-29.79-6.3h11.13v-9.86h-11.13v9.86Zm18.1,0h11.69v-9.86h-11.69v9.86Z"/><path d="m595.94,50.9c-.98,9.86-1.47,18.81-1.47,26.84,0,5.36.12,10.41.36,15.15h-7.02c-.2-4.68-.3-9.69-.3-15.05,0-8.61.44-17.59,1.32-26.95h7.12Zm30.86,39.55c-3.96.78-7.88,1.17-11.74,1.17-11.63,0-17.44-3.76-17.44-11.29,0-3.73,1.49-7.46,4.47-11.18h8.13c-3.76,3.97-5.64,7.42-5.64,10.37,0,3.46,3.49,5.19,10.47,5.19,3.56,0,7.47-.47,11.74-1.42v7.17Zm-1.02-29.23h-26.08v-6.86h26.08v6.86Z"/><path class="cls-8" d="m683.44,86.13c0,3.32-.5,5.47-1.5,6.46-1,.98-3.14,1.47-6.43,1.47h-7.32l-1.98-6.51h7.68c.88,0,1.53-.13,1.96-.41.42-.27.64-1,.64-2.19v-21.71h-10.88c-.07.54-.14,1.08-.2,1.63,2.03,3.97,5.46,7.86,10.27,11.69l-4.22,5.34c-3.49-2.91-6.25-5.98-8.29-9.2-2.03,4.71-5.1,8.76-9.2,12.15l-5.24-4.98c6.07-4,9.42-9.54,10.07-16.62h-10.52v31.06h-6.96v-37.47h17.64v-7.58h6.81v7.58h17.69v29.28Z"/><path class="cls-8" d="m702.55,78.45c-.58,4.95-1.47,9.49-2.69,13.62l-4.98-2.95c1.25-3.36,2.17-7.27,2.75-11.74l4.93,1.07Zm37.11,16.32h-6.25v-2.29h-7.73v2.29h-6.2v-16.06l-2.24,1.42-2.8-4.17-1.88.71c-.2-.54-.42-1.13-.66-1.78-.51.1-1.36.24-2.54.41v19.67h-6.05v-18.91c-2.3.24-4.8.42-7.47.56l-.86-5.75c.71,0,1.76-.02,3.15-.05,1.36-1.59,2.47-2.93,3.36-4.02-2.03-2.34-4.2-4.63-6.51-6.86l3.3-5.8,1.88,2.03c1.52-2.37,3.02-4.95,4.47-7.73l5.44,2.49c-1.86,3.02-3.97,6.12-6.3,9.3l1.47,1.73c1.86-2.51,3.73-5.24,5.59-8.18l5.34,2.69c-2.1,2.92-4.54,6.08-7.32,9.51l3.91-1.58c1.22,2.34,2.56,5.32,4.02,8.95,1.19-.61,2.08-1.1,2.69-1.47v-.51h.86c1.53-.95,2.96-1.95,4.32-3h-9.76v-5.9h8.39v-3.51h-6.81v-5.75h6.81v-3.86h6.41v3.86h4.88v3.86c1.02-1.69,1.96-3.56,2.85-5.59l4.58,3.86c-1.29,2.58-2.71,4.95-4.27,7.12h4.32v5.9h-9.35c-1.02,1.02-2.08,2.02-3.2,3h10.17v23.39Zm-34.42-24.35c1.29-.1,2.83-.29,4.63-.56-.48-1.05-.98-2.13-1.53-3.25l-3.1,3.81Zm11.74,18l-4.78,1.88c-.88-3.73-1.58-7.79-2.08-12.2l4.58-1.27c.58,4.3,1.34,8.17,2.29,11.59Zm16.42-9.05v-2.85h-7.73v2.85h7.73Zm0,7.73v-2.95h-7.73v2.95h7.73Zm-2.64-24.61c.81-.98,1.68-2.15,2.59-3.51h-3.81v3.51h1.22Z"/><path d="m794.88,59.79l-4.42.15c-4.81.17-9.22,1.75-13.22,4.73-4.1,3.12-6.15,6.56-6.15,10.32,0,4,1.91,6.85,5.75,8.54,3.15,1.42,7.74,2.14,13.78,2.14v7.17c-8.64.24-15.32-1.2-20.03-4.32-4.51-3.02-6.76-7.25-6.76-12.71,0-6.34,3.15-11.62,9.46-15.86l-19.57.66v-6.86l41.18-.81v6.86Zm-5.13,10.83h-4.42v-7.27h4.42v7.27Zm6.41,0h-4.42v-7.27h4.42v7.27Z"/><rect class="cls-5" x="149.21" y="193.87" width="357.72" height="88.02"/><path class="cls-6" d="m180.99,274.52l.77-5.67c.6-4.44.86-9.14.86-15.72v-50.38c-4.32.02-8.41.25-12.83.73l-5.54.6v-31.53l5.79.92c3.74.6,6.49.7,12.82.7h14.41c8.05,0,9.29,0,13.59-.41l6.05-.58-.6,6.05c-.57,5.78-.77,10.22-.77,16.99v56.9c0,6.54.24,10.82.87,15.76l.72,5.63h-36.13Z"/><path class="cls-5" d="m169.25,178.42c4.08.65,7.03.76,13.61.76h14.41c8.05,0,9.53,0,14.06-.43-.57,5.75-.79,10.32-.79,17.48v56.9c0,6.52.23,11.08.91,16.4h-24.73c.68-4.99.91-10.1.91-16.4v-55.38h-4.54c-4.42,0-8.85.22-13.84.76v-20.09m-10-11.72v42.96l11.08-1.21c2.51-.27,4.9-.46,7.29-.58v45.25c0,6.35-.24,10.85-.82,15.05l-1.55,11.35h47.54l-1.44-11.27c-.6-4.71-.83-8.81-.83-15.13v-56.9c0-6.6.2-10.91.75-16.5l1.19-12.09-12.09,1.16c-4.06.39-5.09.39-13.11.39h-14.41c-6.55,0-8.8-.12-12.04-.63l-11.57-1.85h0Z"/><path class="cls-6" d="m269.04,274.26c-12.37,0-23.06-3.97-30.91-11.49-4.24-4.06-7.52-8.85-9.48-13.84-3.17-8.29-4.77-17.25-4.77-26.69,0-12.26,3.11-25.11,7.92-32.75,7.85-12.56,21.08-19.49,37.24-19.49,12.14,0,23.14,4.07,30.99,11.46,4.28,4.09,7.55,8.88,9.51,13.87,3.17,8.28,4.77,17.29,4.77,26.8,0,12.33-3.11,25.22-7.92,32.85-7.67,12.25-21.29,19.27-37.35,19.27Zm0-75.9c-10.74,0-11.9,16.1-11.9,23.02,0,16.21,4.04,24.43,12.01,24.43,2.92,0,11.79,0,11.79-24.1,0-15.49-4-23.34-11.9-23.34Z"/><path class="cls-5" d="m269.04,175c11,0,20.64,3.58,27.56,10.1,3.74,3.58,6.58,7.71,8.28,12.05,2.95,7.71,4.42,16.07,4.42,24.98,0,11.4-2.84,23.35-7.15,30.19-6.81,10.86-18.72,16.94-33.12,16.94-11.12,0-20.53-3.48-27.45-10.1-3.74-3.58-6.58-7.71-8.28-12.05-2.95-7.71-4.42-16.07-4.42-24.87,0-11.4,2.84-23.24,7.15-30.08,6.92-11.08,18.72-17.16,33.01-17.16m.11,75.8c11.12,0,16.79-9.77,16.79-29.1s-5.9-28.34-16.9-28.34-16.9,10.32-16.9,28.02c0,19.44,5.78,29.43,17.01,29.43m-.11-85.8c-17.69,0-32.81,7.97-41.49,21.86-5.34,8.47-8.66,22.04-8.66,35.38,0,10.05,1.71,19.62,5.08,28.44v.04s.03.04.03.04c2.22,5.66,5.91,11.07,10.68,15.63,8.8,8.42,20.68,12.88,34.36,12.88,17.82,0,32.98-7.88,41.59-21.63,5.34-8.48,8.67-22.09,8.67-35.5,0-10.13-1.71-19.73-5.08-28.55v-.04s-.03-.04-.03-.04c-2.22-5.66-5.91-11.07-10.68-15.63l-.03-.03-.03-.03c-8.78-8.27-21-12.82-34.42-12.82h0Zm.11,75.8c-2.03,0-2.98-.57-4.06-2.43-1.1-1.91-2.95-6.65-2.95-17,0-8.31,1.81-18.02,6.9-18.02,1.96,0,2.93.57,3.99,2.34,1.09,1.81,2.91,6.31,2.91,16,0,10.27-1.81,14.93-2.88,16.8-1.02,1.77-1.93,2.31-3.9,2.31h0Z"/><path class="cls-6" d="m326.82,274.55c-3.02-4.79-5.26-7.47-8.89-10.65l-5.21-4.55,5.95-3.52c6.62-3.92,9.84-6.64,13.24-11.2,4.68-6.18,7.55-13.96,8.79-23.81.43-3.05.64-5.29.76-8.71h-4.91c-4.72,0-9.4.18-13.2.5l-5.42.46v-24.88l5.43.47c3.92.34,8.08.5,13.1.5h55.47c4.75,0,8.77-.15,13.04-.5l5.41-.44v24.85l-5.42-.46c-.49-.04-1-.08-1.51-.12l-.79,5.14q-.32,2.04-.67,12.02c-.47,14.73-2.22,27.61-4.58,33.61-4.08,10.22-11.44,12.15-23.59,12.15-3.19,0-6.65-.2-11.18-.53l-4.2-.3-.42-4.19c-.48-4.87-1.25-7.92-2.92-11.66l-1.09-2.43c-5.32,8.36-10.97,13.84-20.25,19.79l-4.24,2.72-2.69-4.26Zm33.7-22.79c4.54.81,9.98,1.39,12.93,1.39,1.01,0,1.58-.08,1.87-.14.68-1.86,1.85-7.87,2.4-18.53h-14.71c-1.41,6.14-3.34,11.49-6.02,16.65l3.54.63Zm24.56-39.45c3.71,0,6.62-.03,9.19-.18-.72,0-1.43-.01-2.15-.01h-26.31c0,.06,0,.13,0,.19h19.28Z"/><path class="cls-5" d="m405.38,193.64v13.99c-4.06-.35-8.75-.52-13.26-.52h-31.12c-.18,5.01-.27,7.17-.54,10.19h24.62c5.77,0,9.29-.09,12.63-.43q-.36,2.33-.72,12.61c-.45,14.25-2.16,26.68-4.24,31.95-2.8,6.99-7.04,8.98-18.94,8.98-2.89,0-6.04-.17-10.82-.52-.54-5.44-1.44-8.98-3.34-13.21,4.87.86,10.55,1.47,13.8,1.47,3.43,0,5.14-.69,6.13-2.42,1.62-3.11,2.98-13.3,3.34-26.25h-23.99c-1.62,8.89-4.15,15.8-8.21,22.62-5.23,8.64-10.37,13.82-19.66,19.77-3.16-5.01-5.68-8.12-9.83-11.74,7.31-4.32,10.91-7.43,14.7-12.52,5.23-6.91,8.39-15.46,9.74-26.17.63-4.49.81-7.34.9-14.33h-10.01c-4.69,0-9.56.17-13.62.52v-13.99c3.97.35,8.3.52,13.53.52h55.47c5.05,0,9.2-.17,13.44-.52m-92.45-10.91v35.78l10.85-.92c3.54-.3,7.91-.47,12.35-.48-.1.94-.22,1.89-.37,2.94v.07s-.02.07-.02.07c-1.13,8.96-3.68,15.95-7.79,21.38l-.03.03-.03.03c-2.69,3.61-5.02,5.89-11.77,9.88l-11.91,7.04,10.41,9.1c3.26,2.85,5.2,5.17,7.95,9.55l5.37,8.52,8.48-5.44c6.77-4.34,11.73-8.45,16.02-13.47.23,1.2.41,2.51.56,4.05l.83,8.38,8.4.61c4.65.34,8.2.54,11.54.54,7.84,0,12.97-.85,17.16-2.83,5.05-2.39,8.67-6.46,11.06-12.44v-.02s.02-.02.02-.02c3.85-9.77,4.75-29.49,4.93-35.3q.34-9.65.61-11.4l.08-.54,7.7.66v-35.72l-10.81.88c-4.11.33-8.01.48-12.63.48h-55.47c-4.88,0-8.9-.15-12.66-.48l-10.87-.94h0Zm53.96,56.74h5.48c-.31,3.71-.68,6.57-1.02,8.59-1.91-.12-4.44-.38-7.1-.77,1.01-2.51,1.89-5.09,2.64-7.81h0Z"/><path class="cls-6" d="m413.73,276.1l.76-5.67c.42-3.11.59-6.19.59-10.65v-57.42c0-3.83-.09-6.02-.33-8.38l-.62-5.97,5.98.46c3.31.26,5.87.33,11.43.33h54.66c5.87,0,8.6-.08,10.84-.32l6.37-.68-.88,6.34c-.31,2.22-.4,4.6-.4,10.19v55.78c0,7.28-3.58,12.46-9.83,14.21-2.42.72-6.08,1.06-11.5,1.06-2.08,0-5.01-.06-8.39-.13l-6.22-.13-.69-4.09c-.74-4.41-1.61-7.08-3.72-11.43l-3.84-7.93,8.78.76c5.45.47,9.06.71,11.53.75v-7.87h-39.16v14.86c0,5.74.1,8.29.39,10.09l.93,5.79h-26.65Zm64.49-53v-11.76h-8.22v11.76h8.22Zm-31.84,0v-11.76h-7.32v11.76h7.32Z"/><path class="cls-5" d="m497.56,193.47c-.36,2.59-.45,5.27-.45,10.88v55.78c0,5.01-2.16,8.29-6.22,9.41-1.98.6-5.41.86-10.1.86-2.43,0-6.13-.09-10.37-.17-.81-4.84-1.8-7.94-4.15-12.78,5.95.52,10.01.78,12.72.78,3.52,0,4.24-.35,4.24-1.9v-15.98h-49.16v19.86c0,5.7.09,8.64.45,10.88h-15.06c.45-3.37.63-6.65.63-11.31v-57.42c0-3.97-.09-6.3-.36-8.89,3.34.26,5.95.35,11.82.35h54.66c6.04,0,8.93-.09,11.37-.35m-32.56,34.63h18.22v-21.76h-18.22v21.76m-30.94,0h17.32v-21.76h-17.32v21.76m75.18-45.92l-12.73,1.35c-2.02.21-4.71.29-10.31.29h-54.66c-5.96,0-8.23-.1-11.04-.32l-11.96-.93,1.25,11.93c.23,2.19.31,4.18.31,7.86v57.42c0,4.21-.16,7.1-.54,9.98l-1.52,11.33h38.23l-1.86-11.58c-.27-1.68-.32-4.8-.32-9.3v-9.86h7.65l5.56,11.46c1.91,3.95,2.62,6.11,3.28,10.07l1.37,8.18,8.29.17,2.13.04c3.39.07,6.32.13,8.44.13,5.97,0,9.96-.39,12.89-1.26,8.42-2.38,13.44-9.48,13.44-19.02v-55.78c0-5.33.08-7.55.36-9.5l1.77-12.68h0Z"/><path class="cls-10" d="m540.74,204.23c-1.44,3.78-2.05,5.17-3.95,9.24v42.2c0,3.27.08,4.8.38,8.37h-12.08c.3-2.98.46-5.02.46-8.37v-21.46q.08-1.38.08-5.02-.68.95-2.05,2.84c-.46.65-.99,1.24-1.9,2.26-1.06-5.31-1.98-8.51-3.88-13.39,4.56-4.44,8.13-10.11,10.87-17.32,1.44-3.64,2.13-6.11,2.51-9.09l12.08,2.55c-.15.44-.99,2.84-1.52,4.44,1.75.15,3.12.22,5.7.22h1.75v-.95c0-2.18-.15-3.64-.46-5.24h12.01c-.23,1.24-.3,2.69-.3,5.31v.87h7.67v-1.02c0-2.47-.08-3.78-.38-5.17h12.16c-.3,1.46-.38,2.98-.38,5.24v.95h2.89c2.96,0,4.94-.07,7.07-.36v10.33c-2.13-.22-3.72-.29-6.99-.29h-2.96v4.37h3.57c4.03,0,5.78-.07,7.6-.36v10.55c-1.9-.29-3.95-.36-7.83-.36h-36.09c-3.8,0-5.85.07-7.9.36v-10.55c1.75.29,3.8.36,7.75.36h2.58v-4.37h-1.75c-3.12,0-4.79.07-6.69.29v-7.42Zm1.98,30.41c0-3.13-.08-4.73-.3-6.62,1.9.22,3.57.29,7.07.29h29.18c4.03,0,5.85-.07,7.37-.29-.23,1.75-.3,3.42-.3,6.91v19.64c0,3.78.08,6.55.38,9.46h-11.7v-2.69h-20.52v2.69h-11.63c.3-2.91.46-5.53.46-8.73v-20.66Zm11.17,5.75h20.52v-3.27h-20.52v3.27Zm0,11.79h20.52v-3.42h-20.52v3.42Zm14.21-36.45v-4.37h-7.67v4.37h7.67Z"/><path class="cls-10" d="m620.98,197.68c-1.06,3.06-1.98,7.79-3.12,15.57,4.94-8.51,11.09-12.59,19.22-12.59,5.17,0,10.26,2.47,13.75,6.62,4.26,5.09,6.31,11.71,6.31,20.23,0,11.93-3.88,20.81-11.63,26.63-4.33,3.27-10.41,5.97-17.33,7.57-2.58.65-4.56,1.02-8.97,1.67-1.82-5.46-2.81-7.49-6.08-12.44,21.81-1.24,30.62-8.08,30.62-23.79,0-9.09-3.04-14.11-8.44-14.11-2.81,0-5.39,1.31-8.21,4.22-4.56,4.58-7.52,10.62-8.44,16.88-.23,1.67-.3,2.55-.3,5.97l-12.77.14c.08-.51.08-.95.08-1.24v-1.46c-.15-2.84-.23-7.2-.23-9.24,0-8.8.53-17.17,1.75-26.55.23-2.11.3-2.91.3-4v-.58l13.45.51Z"/><path class="cls-10" d="m692.03,212.01c-1.06,3.93-2.36,10.77-3.27,17.68,6.38-3.93,13.07-5.67,21.73-5.67,13.53,0,22.49,6.77,22.49,17.1,0,6.26-3.12,11.86-8.59,15.42-5.47,3.57-12.39,5.24-21.73,5.24-6.23,0-11.63-.58-19.07-2.18-.23-6.04-.53-8.37-1.75-12.95,7.52,2.26,14.59,3.42,20.29,3.42,10.03,0,16.72-3.42,16.72-8.58,0-3.86-3.95-6.11-10.79-6.11-5.7,0-11.47,1.46-16.64,4.37-1.98,1.02-2.74,1.67-4.25,3.27l-12.61-.51c.15-.65.15-.73.23-1.46.38-3.49,1.98-15.13,3.5-25.17.23-1.6.38-2.76.46-4.66l13.3.8Zm-1.37-16.01c3.72,1.82,8.28,3.35,15.5,5.17,5.17,1.31,11.7,2.62,15.27,3.13l-4.03,11.71c-13.75-2.69-23.94-5.6-32.83-9.53l6.08-10.48Z"/><path class="cls-10" d="m742.79,240.61c2.05-1.53,3.27-2.55,5.32-4.44,5.09-4.95,7.9-7.57,8.28-8,.08-1.16.15-3.27.23-8q-8.51.51-11.32.95l-.61-11.5c1.75.15,2.66.22,3.95.22,1.9,0,5.09-.15,8.28-.36q.08-.87.08-2.33c.08-1.53.15-3.35.15-5.02,0-2.25-.08-2.98-.3-4.8l13.45.29c-.3,1.75-.76,6.33-.91,10.77l4.18,3.78c-1.37.95-2.89,2.62-4.79,4.95l-.08,1.02c0,.8,0,.95-.08,1.6,9.5-8.44,17.33-12.51,24.01-12.51,7.37,0,12.23,4.51,12.23,11.35,0,2.47-.46,4.87-1.98,10.99-2.36,9.17-3.27,13.75-3.27,15.57,0,1.31.68,2.11,1.82,2.11s2.74-1.24,4.18-3.27c1.9-2.62,3.65-5.6,4.56-7.79,1.75,4.58,3.04,6.98,6.38,11.71-5.85,9.17-10.79,12.66-18.08,12.66s-11.93-4.58-11.93-11.71c0-4.07.76-8.44,3.34-19.35.91-3.86,1.37-6.33,1.37-7.49,0-1.31-.84-2.04-2.2-2.04-1.82,0-4.48,1.09-7.22,2.98-5.09,3.42-9.88,7.49-13.15,11.2-.08,3.42-.08,5.53-.08,7.64,0,10.33.23,17.75.61,20.59l-13.75.07c.46-2.62.68-6.55.68-11.13v-7.64c-5.39,6.18-6.61,7.64-7.52,9.09l-5.85-12.15Z"/><path class="cls-10" d="m832.15,199.57c3.19.36,6,.51,10.94.51,6.76,0,15.2-.29,22.87-.87,3.34-.22,4.33-.44,5.78-1.02l6.23,8.8q-1.98,1.09-12.23,9.53c-4.03,3.27-5.39,4.37-10.49,7.93,4.26-1.02,6.46-1.31,10.41-1.31,7.14,0,12.23,1.6,16.26,4.95,3.65,3.13,5.55,7.35,5.55,12.59,0,7.35-3.57,13.17-10.49,17.1-5.24,2.91-12.54,4.58-20.14,4.58-12.84,0-20.67-4.87-20.67-12.95,0-6.77,6.31-11.64,15.12-11.64,5.47,0,10.33,2.04,13.6,5.6,1.52,1.6,2.36,3.06,3.5,5.75,4.1-1.75,6-4.22,6-7.93,0-5.09-5.17-8.22-13.6-8.22s-16.57,2.4-23.41,6.69c-2.36,1.46-4.79,3.27-7.29,5.46l-7.07-11.06c6.99-3.13,23.02-15.06,32.45-24.01-4.03.44-7.07.58-17.78,1.09-2.05.07-3.5.22-5.02.36l-.53-11.93Zm18.85,47.44c-1.75,0-2.96.95-2.96,2.4,0,1.96,2.43,3.2,6.54,3.2.91,0,1.06,0,2.51-.22-.99-3.49-3.12-5.38-6.08-5.38Z"/><path class="cls-7" d="m175.17,269c-14.84,3.06-16.29,5.54-18.07,31-1.78-25.46-3.23-27.94-18.07-31,14.84-3.06,16.29-5.54,18.07-31,1.78,25.46,3.23,27.94,18.07,31Z"/><path class="cls-8" d="m989.19,256.94c-15.06,15.06-69.65,15.11-69.65,15.11,0,0,.04-54.59,15.11-69.65,15.06-15.06,39.49-15.06,54.55,0,15.06,15.06,15.06,39.49,0,54.55Z"/><path class="cls-7" d="m959.44,228.75c-2.9,2.9-6.25,4.4-10.05,4.51-3.87.1-7.25-1.29-10.14-4.18s-4.25-6.25-4.14-10.15c.1-3.82,1.59-7.16,4.47-10.04,2.89-2.89,6.24-4.39,10.07-4.5,3.91-.12,7.3,1.25,10.16,4.12,2.85,2.85,4.22,6.23,4.11,10.15-.12,3.85-1.62,7.21-4.48,10.08Zm-5.25-5.31c1.39-1.39,2.15-3,2.28-4.82.14-1.9-.48-3.54-1.85-4.92s-2.95-1.89-4.92-1.74c-1.9.14-3.52.87-4.85,2.2-1.42,1.42-2.19,3.02-2.31,4.79-.12,1.87.52,3.5,1.92,4.9,1.31,1.31,2.95,1.9,4.92,1.77,1.88-.13,3.48-.86,4.8-2.19Z"/><path class="cls-7" d="m972.26,259.5c-.4.4-.83.49-1.3.26-.37-.19-1.15-.87-2.34-2.06-1.14-1.14-1.93-2.02-2.37-2.65-.2-.3-.32-.51-.35-.64-.03-.13,0-.36.1-.7.57-1.92,1.14-3.84,1.71-5.75.9-3.11,1.35-4.87,1.34-5.29-1.36-.64-2.13-.88-2.28-.72-.7.7-1.72,1.78-3.07,3.24-1.35,1.46-2.38,2.55-3.08,3.25-.29.29-.58.33-.86.11-.56-.41-1.47-1.24-2.73-2.51-1.21-1.21-1.97-2.04-2.28-2.51-.21-.33-.2-.6.03-.84,1-1,2.56-2.47,4.69-4.39s3.69-3.4,4.7-4.41c1.08-1.08,2.65-2.74,4.71-4.99,2.07-2.25,3.64-3.91,4.71-4.99.2-.2.4-.21.6-.01.29.29.71.74,1.26,1.34.55.61.97,1.06,1.26,1.34s.75.72,1.36,1.28c.61.56,1.06.98,1.35,1.27.16.16.15.32-.01.49-.69.69-1.76,1.69-3.22,3.01-1.46,1.32-2.53,2.32-3.22,3.01-.8.8-.98,1.42-.54,1.85,1.1,1.1,2.26,1.66,3.48,1.67.9,0,2.17-.34,3.82-1.06,1.2-.6,3.01-1.44,5.44-2.52.33-.13.66-.04.98.28.24.24.59.62,1.05,1.13.46.52.81.89,1.05,1.13s.63.62,1.15,1.09c.52.48.89.84,1.13,1.08.22.22.23.44.01.65-.31.31-1.25.86-2.83,1.66-4.66,2.36-8.17,3.23-10.54,2.6-.48-.13-.78-.14-.89-.03,0,0-.53,2.24-1.61,6.75-1.08,4.51-1.89,7.03-2.42,7.55Z"/></g></svg>