<?xml version="1.0" encoding="UTF-8"?><svg id="Layer_2" xmlns="http://www.w3.org/2000/svg" xmlns:xlink="http://www.w3.org/1999/xlink" viewBox="0 0 762.79 301.6"><defs><style>.cls-1,.cls-2{fill:none;}.cls-3{fill:#999;opacity:.1;}.cls-4{clip-path:url(#clippath);}.cls-5{fill:#f4690b;}.cls-6{fill:#fff;}.cls-7{fill:#fcee21;}.cls-8{fill:#ff8939;}.cls-9{fill:#b4bec1;}.cls-10{fill:#333;}.cls-11{fill:#c9d2d6;}.cls-12{fill:#dce1e2;}.cls-13{fill:#229ef2;}.cls-14{fill:#0679b7;}.cls-15{fill:#3fa9f5;}.cls-2{stroke:#4f4f4f;stroke-dasharray:0 0 11.93 19.88;stroke-miterlimit:10;stroke-width:3px;}</style><clipPath id="clippath"><path class="cls-1" d="m236.76,49.86c-.34-1.16-1.56-1.83-2.73-1.48s-1.83,1.56-1.48,2.73c.2.69.72,1.2,1.35,1.43h-.01s.83,2.8.83,2.8c.16.55.73.86,1.28.7l.55-.16c.55-.16.86-.73.7-1.28l-.83-2.8h-.01c.4-.53.56-1.24.36-1.93Z"/></clipPath></defs><g id="PC"><rect class="cls-1" width="762.79" height="301.6"/><path class="cls-10" d="m127.05,236.21c.2-2.62.34-6.52.34-8.6,0-1.41,0-1.95-.2-3.36l12.64.34c-.34,1.55-.34,1.75-.74,8.13q-.07,1.82-.2,3.43h14.65c2.22,0,3.02-.13,4.5-.74l5.24,4.57c-.74,1.34-.87,1.88-.94,4.98-.47,14.39-1.48,25.61-2.82,30.05-1.95,6.25-5.18,8.4-12.64,8.4-2.62,0-3.63-.07-8.81-.54-.27-5.38-.74-7.6-2.29-11.83,3.36.87,6.65,1.34,8.74,1.34,3.23,0,4.03-1.08,4.91-6.92.67-4.5,1.28-12.97,1.28-18.76h-12.84q-.54,4.44-1.01,6.72c-2.96,13.58-9.34,22.32-22.99,31.33-3.02-4.77-5.04-7.06-8.74-10.22,8.94-4.71,14.12-9.48,17.48-16.27,1.68-3.43,2.42-5.85,3.36-11.49h-8.4c-4.5,0-5.92.07-9.08.4l-.07-11.5c3.36.47,4.57.54,9.34.54h9.28Z"/><path class="cls-10" d="m174.91,247.84c3.16.47,6.79.61,13.78.61h32.13c6.72,0,9.28-.13,13.78-.61v12.97c-3.23-.34-6.18-.4-13.85-.4h-32c-7.53,0-9.75.07-13.85.4v-12.97Z"/><path class="cls-10" d="m251.81,283.94c.27-2.82.34-4.77.4-10.29v-39.12c-.07-5.78-.07-6.12-.47-9.75h12.97c-.27,1.75-.27,2.82-.34,9.81v9.21c10.62,3.43,21.18,8.2,30.59,13.98l-6.39,11.43c-5.58-3.97-13.38-8.27-21.18-11.7-2.02-.81-2.22-.87-2.42-1.01-.2-.07-.34-.13-.61-.34v17.48c0,4.98.13,8.54.4,10.29h-12.97Zm30.39-55.39c2.62,2.96,4.77,6.05,6.65,9.61l-6.39,3.09c-2.22-4.24-3.97-6.72-6.65-9.81l6.39-2.89Zm8.94-4.03c2.49,2.69,4.37,5.24,6.72,9.34l-6.18,3.02c-2.35-4.24-4.24-6.92-6.59-9.61l6.05-2.76Z"/><path class="cls-10" d="m322.72,277.89v4.64h-12.23c.4-3.7.54-5.98.54-10.96v-34.55c0-2.89-.07-4.97-.27-7.73,2.35.2,3.7.27,8.13.27h36.23c4.17,0,5.18,0,8.34-.27-.13,2.35-.2,4.77-.2,7.93v34.08c0,5.18.13,8.4.47,11.09h-12.17v-4.5h-28.84Zm28.84-37.58h-28.84v26.82h28.84v-26.82Z"/><path class="cls-10" d="m376.97,247.84c3.16.47,6.79.61,13.78.61h32.13c6.72,0,9.28-.13,13.78-.61v12.97c-3.23-.34-6.18-.4-13.85-.4h-32c-7.53,0-9.75.07-13.85.4v-12.97Z"/><path class="cls-10" d="m453.33,227.94c8.47,4.98,12.84,8.07,18.49,13.18l-7.93,10.49c-5.85-6.12-11.56-10.55-18.29-14.18l7.73-9.48Zm-7.06,41.75c6.86-.54,13.92-2.22,20.23-4.84,8.47-3.5,14.52-8.54,19.7-16.6,2.82-4.3,4.64-8,6.59-13.18,3.29,3.97,4.84,5.31,9.88,9.01-6.12,13.24-12.5,21.18-21.92,27.23-7.26,4.71-13.65,7.19-26.15,10.08-2.62.61-3.02.67-4.84,1.21l-3.5-12.91Z"/><path class="cls-15" d="m609.29,272.65l2.99-1.03c.74-.25,2.09-.94,4.47-2.72v-5.65c-.6.02-1.16.08-2.07.22l-3.46.53v-15.05l3.42.49c1.36.19,2.1.24,3.98.24h1.71c-2.67-3.52-4.5-5.41-8.32-8.66l-2.51-2.14,10.29-10.02,2.07,1.71c1.03.85,1.98,1.66,2.87,2.46v-2.47l3.23.25c1.33.1,2.76.15,4.38.15h7.56c1.57,0,2.48,0,3.17-.02v-.38l2.54.2,3.21-.29-.14.47c.63.02,1.3.03,2,.03h7.35c2.73,0,3.46,0,4.5-.09l3.87-.35-.64,3.83c-.06.38-.07.56-.07,1.33v6.87c0,.72,0,1.27,0,1.71l1.87.22-.28,2.92c-.16,1.69-.41,3.4-1.27,4.83v7l1.13-.13v8.52l3.32.39-2.41,2.5,1.87-.25-1.68,4.67c-.94,2.54-1.4,4.5-1.82,7.76l-.33,2.53-2.55.09c-4.96.17-12.64.27-20.54.27-8.34,0-11.61-.3-14.57-1.35-1.78-.62-3.25-1.45-4.69-2.66-1.36,1.14-2.71,2.13-5.27,3.98l-3.11,2.24-6.1-15.12Z"/><path class="cls-6" d="m619.96,232.88c3.65,3,6.11,5.42,8.53,8.21,1.34.11,1.66.11,3.92.11h4.94v-1.56h-5.1c-2.41,0-3.17,0-4.51.16v-6.01c1.39.11,2.9.16,4.61.16h7.56c2.79,0,3.59,0,4.77-.11-.16.54-.16.97-.16,1.88l.05,1.07v5.74c0,1.56,0,2.41.11,3.11-1.29-.05-2.36-.11-3.59-.11h-5.79v1.18c0,.8.16.91,1.66.91.97,0,1.61-.11,1.88-.27.16-.16.32-.7.32-1.4v-.32c2.36.86,4.02,1.29,6.22,1.56-.38,3.22-.75,3.97-2.41,4.77v2.58h5.69v-2.31c-1.61-.54-2.31-1.61-2.31-3.33v-4.35q0-1.66-.16-3.49c1.34.11,1.77.11,4.08.11h4.88v-1.56h-4.56c-2.41,0-3.17,0-4.51.16v-6.01c1.39.11,2.9.16,4.61.16h7.35c2.79,0,3.59,0,4.77-.11-.11.64-.11,1.02-.11,1.82v6.87c0,1.61,0,2.41.11,3.11-1.29-.05-2.36-.11-3.59-.11h-5.69v1.23c0,.7.38.91,1.82.91.91,0,1.72-.11,1.93-.32q.16-.16.32-1.07v-.64c1.98.7,4.02,1.13,6.71,1.45-.27,2.79-.75,3.92-1.93,4.61-.97.59-2.2.75-6.12.86v1.98h1.77c3,0,3.59,0,4.99-.16v6.06c-1.5-.16-2.09-.21-4.99-.21h-1.72v2.36h2.74c3.06,0,3.65,0,5.1-.16v6.12c-1.56-.16-2.15-.16-5.1-.16h-3.7c3,.97,5.04,1.45,8.74,1.88-1.5,1.56-1.66,1.82-3.17,4.13,1.29-.11,2.09-.21,4.51-.54-1.07,2.9-1.56,5.1-1.98,8.42-4.72.16-12.34.27-20.44.27s-11-.27-13.57-1.18c-2.15-.75-3.7-1.82-5.58-3.92-2.31,2.09-3.27,2.84-7.13,5.63l-3.49-8.64c1.56-.54,3.7-1.88,6.49-4.08v-10.14h-2.2c-1.18,0-1.93.05-3.33.27v-8.1c1.5.21,2.36.27,4.4.27h5.15c2.2,0,2.68,0,4.02-.16-.11,1.56-.11,2.09-.11,6.01v12.55c1.66,2.41,3.06,3.27,5.74,3.65-1.5-1.82-1.77-2.15-4.18-4.34,3.22-.59,4.99-1.07,7.56-1.99h-4.13c-1.93,0-2.74.05-3.81.21v-6.22c1.18.16,1.72.21,3.7.21h2.74v-2.36h-.48c-2.95,0-3.59.05-5.04.21v-6.06c1.39.16,1.98.16,5.04.16h.48v-1.93c-3.06,0-4.18-.11-4.99-.43-1.29-.54-1.82-1.5-1.82-3.22v-5.69l-5.26,5.26c-3-4.02-4.93-6.11-9.28-9.82l6.01-5.85m23.01,29.72h5.69v-2.36h-5.69v2.36m7.24,5.79h-8.53l3.7,2.41c-3,1.88-5.58,3.11-8.9,4.24,1.72.05,4.13.11,6.54.11,2.9,0,8.9-.16,11.8-.32-2.63-.86-4.72-1.88-8.05-4.02l3.43-2.41m-30.59-43.56l-3.85,3.75-6.01,5.85-4.72,4.6,5.02,4.27c1.31,1.11,2.36,2.05,3.27,2.92l-5.11-.73v22.01l5.53-.85v.71c-1.56,1.08-2.28,1.36-2.45,1.42l-5.97,2.06,2.36,5.86,3.49,8.64,2.87,7.1,6.21-4.49c1.54-1.11,2.65-1.92,3.59-2.64,1.12.7,2.31,1.26,3.62,1.72,3.66,1.3,7.76,1.52,15.55,1.52s15.65-.1,20.64-.27l5.09-.17.65-5.05c.39-3.05.8-4.77,1.66-7.11l2.56-6.9,3.23-3.34-6.69-.78v-9.2l-1.13.13v-2.93c.16-.33.3-.67.42-1l.41.02-.13-.88c.37-1.32.49-2.54.57-3.4l.56-5.83-2.14-.26v-5.91c0-.68,0-.7.03-.84l1.28-7.67-7.74.71c-.88.08-1.49.08-4.23.08h-5.33l.27-.89-7.38.67-5.52-.43v.64h-7.73c-1.54,0-2.9-.05-4.15-.14l-5.47-.42-3.1-2.56h0Z"/><path class="cls-6" d="m223.68,37.89l7.11,29.57c2.19,9.13,10.35,15.56,19.74,15.56h324.84c10.15,0,18.75-7.5,20.12-17.57l2.72-19.98c1.63-11.96-7.47-22.68-19.53-23.03L244,12.86c-13.37-.38-23.45,12.04-20.32,25.04Z"/><path class="cls-6" d="m227.96,39.96l6.94,25.11c2.14,7.75,10.12,13.21,19.29,13.21h317.41c9.92,0,18.32-6.37,19.66-14.91l2.66-16.96c1.59-10.15-7.3-19.26-19.09-19.55l-327.01-8.14c-13.06-.33-22.91,10.22-19.86,21.26Z"/><path class="cls-2" d="m227.96,39.96l6.94,25.11c2.14,7.75,10.12,13.21,19.29,13.21h317.41c9.92,0,18.32-6.37,19.66-14.91l2.66-16.96c1.59-10.15-7.3-19.26-19.09-19.55l-327.01-8.14c-13.06-.33-22.91,10.22-19.86,21.26Z"/><path class="cls-3" d="m274.46,62.12l-7.92-28.88h0l-.85-3.11-1.48-5.41c-.54-1.97-2.58-3.14-4.55-2.59l-57.12,15.66c-1.97.54-3.14,2.58-2.59,4.55l10.25,37.39c.54,1.97,2.58,3.14,4.55,2.59l57.12-15.66c1.97-.54,3.14-2.58,2.59-4.55Z"/><rect class="cls-13" x="198.93" y="25.29" width="66.64" height="46.18" rx="6.74" ry="6.74" transform="translate(-4.53 63.12) rotate(-15.33)"/><rect class="cls-10" x="195.09" y="30.43" width="66.64" height="7.92" transform="translate(-.96 61.61) rotate(-15.33)"/><path class="cls-13" d="m236.76,49.86c-.34-1.16-1.56-1.83-2.73-1.48s-1.83,1.56-1.48,2.73c.2.69.72,1.2,1.35,1.43h-.01s.83,2.8.83,2.8c.16.55.73.86,1.28.7l.55-.16c.55-.16.86-.73.7-1.28l-.83-2.8h-.01c.4-.53.56-1.24.36-1.93Z"/><path class="cls-11" d="m242.93,40.26l-.92.27-1.44-4.89c-.81-2.74-3.7-4.32-6.45-3.51l-8.99,2.65c-2.74.81-4.32,3.7-3.51,6.45l1.44,4.89-.92.27c-1.59.47-2.49,2.13-2.02,3.72l3.9,13.2c.47,1.59,2.13,2.49,3.72,2.02l20.77-6.13c1.59-.47,2.49-2.13,2.02-3.72l-3.9-13.2c-.47-1.59-2.13-2.49-3.72-2.02Zm-17.09-.27c-.13-.42.12-.87.54-1l8.99-2.65c.42-.13.87.12,1,.54l.56,1.91c.49,1.65-.45,3.38-2.1,3.86l-4.56,1.35c-1.65.49-3.38-.45-3.86-2.1l-.56-1.91Z"/><path class="cls-13" d="m236.76,49.86c-.34-1.16-1.56-1.83-2.73-1.48s-1.83,1.56-1.48,2.73c.2.69.72,1.2,1.35,1.43h-.01s.83,2.8.83,2.8c.16.55.73.86,1.28.7l.55-.16c.55-.16.86-.73.7-1.28l-.83-2.8h-.01c.4-.53.56-1.24.36-1.93Z"/><path class="cls-9" d="m246.92,49.04l1.88,6.38c.28.96-.26,1.95-1.22,2.24l-13.92,4.11c4.18-1.95,8.41-4.19,11.19-5.82,2.03-1.19,2.4-3.94,2.07-6.9Z"/><path class="cls-12" d="m223.54,56.63l-1.88-6.38c-.28-.96.26-1.95,1.22-2.24l13.92-4.11c-4.18,1.95-8.41,4.19-11.19,5.82-2.03,1.19-2.4,3.94-2.07,6.9Z"/><g class="cls-4"><path class="cls-14" d="m237.49,49.65c-.34-1.16-1.56-1.83-2.73-1.48s-1.83,1.56-1.48,2.73c.2.69.72,1.2,1.35,1.43h-.01s.83,2.8.83,2.8c.16.55.73.86,1.28.7l.55-.16c.55-.16.86-.73.7-1.28l-.83-2.8h-.01c.4-.53.56-1.24.36-1.93Z"/></g><path class="cls-7" d="m617.37,65.59c-4.06.69-4.46,1.24-4.95,6.96-.49-5.72-.88-6.28-4.95-6.96,4.06-.69,4.46-1.24,4.95-6.96.49,5.72.88,6.28,4.95,6.96Z"/><path class="cls-7" d="m177.65,64.92c-10.04,2.07-11.01,3.74-12.22,20.96-1.21-17.22-2.18-18.89-12.22-20.96,10.04-2.07,11.01-3.74,12.22-20.96,1.21,17.22,2.18,18.89,12.22,20.96Z"/><path d="m304.33,46.21h-15.26v-2.65c-2.04,1.47-4.11,2.73-6.22,3.78l-2.99-3.51c5.71-2.66,10.42-6.15,14.13-10.49h4.95c3.8,4.24,8.65,7.66,14.54,10.25l-2.92,3.64c-2.04-.94-4.11-2.12-6.22-3.54v2.51Zm5.5,6.22c-3.32,5.82-9.13,9.88-17.43,12.17l-2.99-4.02c6.6-1.65,11.43-4.27,14.47-7.87h-20.56v-4.26h26.51v3.99Zm-18.81-10.31h11.07c-2.11-1.58-3.99-3.22-5.64-4.92-1.7,1.77-3.51,3.4-5.43,4.92Z"/><path d="m346.58,63.61h-4.74v-2.34h-14.65v2.34h-4.78v-28.77h24.17v28.77Zm-4.74-17.74v-6.64h-14.65v6.64h14.65Zm0,11v-6.81h-14.65v6.81h14.65Z"/><path d="m382.44,53.81h-7.91v10.11h-4.71v-10.11h-7.53v2.17h-4.5v-17.4h12.03v-5.26h4.71v5.26h12.41v17.4h-4.5v-2.17Zm-20.15-4.26h7.53v-6.67h-7.53v6.67Zm12.24,0h7.91v-6.67h-7.91v6.67Z"/><path d="m403,34.42c-.67,6.67-1,12.72-1,18.15,0,3.62.08,7.04.24,10.25h-4.74c-.14-3.16-.21-6.55-.21-10.18,0-5.82.3-11.9.89-18.22h4.81Zm20.87,26.75c-2.68.53-5.33.79-7.94.79-7.86,0-11.79-2.54-11.79-7.63,0-2.52,1.01-5.04,3.03-7.56h5.5c-2.54,2.68-3.82,5.02-3.82,7.01,0,2.34,2.36,3.51,7.08,3.51,2.41,0,5.05-.32,7.94-.96v4.85Zm-.69-19.77h-17.64v-4.64h17.64v4.64Z"/><path class="cls-8" d="m462.16,58.24c0,2.25-.34,3.7-1.01,4.37-.68.66-2.13,1-4.35,1h-4.95l-1.34-4.4h5.19c.6,0,1.04-.09,1.32-.28.29-.18.43-.68.43-1.48v-14.68h-7.36c-.05.37-.09.73-.14,1.1,1.37,2.68,3.69,5.32,6.94,7.91l-2.85,3.61c-2.36-1.97-4.23-4.04-5.6-6.22-1.37,3.19-3.45,5.92-6.22,8.22l-3.54-3.37c4.1-2.7,6.37-6.45,6.81-11.24h-7.12v21.01h-4.71v-25.34h11.93v-5.12h4.61v5.12h11.96v19.8Z"/><path class="cls-8" d="m475.09,53.05c-.39,3.35-1,6.42-1.82,9.21l-3.37-1.99c.85-2.27,1.47-4.92,1.86-7.94l3.33.72Zm25.1,11.04h-4.23v-1.55h-5.23v1.55h-4.19v-10.86l-1.51.96-1.89-2.82-1.27.48c-.14-.37-.29-.77-.45-1.2-.34.07-.92.16-1.72.28v13.3h-4.09v-12.79c-1.56.16-3.24.29-5.05.38l-.58-3.89c.48,0,1.19-.01,2.13-.03.92-1.08,1.67-1.98,2.27-2.72-1.37-1.58-2.84-3.13-4.4-4.64l2.23-3.92,1.27,1.37c1.03-1.6,2.04-3.35,3.03-5.23l3.68,1.68c-1.26,2.04-2.68,4.14-4.26,6.29l1,1.17c1.26-1.7,2.52-3.54,3.78-5.53l3.61,1.82c-1.42,1.97-3.07,4.11-4.95,6.43l2.65-1.07c.83,1.58,1.73,3.6,2.72,6.05.8-.41,1.41-.74,1.82-1v-.34h.58c1.03-.64,2-1.32,2.92-2.03h-6.6v-3.99h5.67v-2.37h-4.61v-3.89h4.61v-2.61h4.33v2.61h3.3v2.61c.69-1.15,1.33-2.41,1.93-3.78l3.09,2.61c-.87,1.74-1.83,3.35-2.89,4.81h2.92v3.99h-6.33c-.69.69-1.41,1.36-2.17,2.03h6.88v15.81Zm-23.27-16.47c.87-.07,1.91-.19,3.13-.38-.32-.71-.67-1.44-1.03-2.2l-2.1,2.58Zm7.94,12.17l-3.23,1.27c-.6-2.52-1.07-5.27-1.41-8.25l3.09-.86c.39,2.91.91,5.52,1.55,7.84Zm11.1-6.12v-1.93h-5.23v1.93h5.23Zm0,5.23v-1.99h-5.23v1.99h5.23Zm-1.79-16.64c.55-.67,1.13-1.46,1.75-2.37h-2.58v2.37h.82Z"/><path d="m537.52,40.43l-2.99.1c-3.25.11-6.23,1.18-8.94,3.2-2.77,2.11-4.16,4.44-4.16,6.98,0,2.7,1.29,4.63,3.89,5.78,2.13.96,5.24,1.44,9.32,1.44v4.85c-5.84.16-10.36-.81-13.55-2.92-3.05-2.04-4.57-4.9-4.57-8.59,0-4.29,2.13-7.86,6.39-10.73l-13.24.45v-4.64l27.85-.55v4.64Zm-3.47,7.32h-2.99v-4.92h2.99v4.92Zm4.33,0h-2.99v-4.92h2.99v4.92Z"/><rect class="cls-5" x="100.9" y="131.1" width="241.9" height="59.53"/><path class="cls-6" d="m122.83,185.26l.46-3.4c.41-3.02.59-6.21.59-10.68v-34.45h-.07c-3.05,0-5.92.16-9.03.5l-3.32.36v-20.45l3.47.55c2.55.41,4.42.48,8.73.48h9.74c5.46,0,6.3,0,9.23-.28l3.63-.35-.36,3.63c-.38,3.92-.52,6.93-.52,11.53v38.48c0,4.45.16,7.35.59,10.71l.43,3.38h-23.56Z"/><path class="cls-5" d="m114.45,120.65c2.76.44,4.76.51,9.2.51h9.74c5.45,0,6.44,0,9.51-.29-.38,3.89-.54,6.98-.54,11.82v38.48c0,4.41.15,7.49.61,11.09h-16.72c.46-3.38.61-6.83.61-11.09v-37.45h-3.07c-2.99,0-5.98.15-9.36.51v-13.58m-6-7.03v27.31l6.65-.72c1.99-.22,3.88-.36,5.78-.43v31.4c0,4.33-.17,7.4-.56,10.28l-.93,6.81h30.41l-.86-6.76c-.41-3.22-.56-6.02-.56-10.33v-38.48c0-4.49.13-7.43.51-11.23l.71-7.25-7.26.69c-2.78.27-3.6.27-8.94.27h-9.74c-4.48,0-6.02-.08-8.26-.44l-6.94-1.11h0Z"/><path class="cls-6" d="m181.93,185.08c-8.26,0-15.4-2.65-20.64-7.66-2.83-2.71-5.01-5.9-6.32-9.22-2.12-5.56-3.2-11.58-3.2-17.91,0-8.22,2.08-16.83,5.29-21.94,5.24-8.38,14.07-13,24.86-13,8.11,0,15.46,2.71,20.7,7.64,2.85,2.73,5.03,5.92,6.33,9.24,2.12,5.55,3.2,11.6,3.2,17.98,0,8.27-2.08,16.91-5.29,22.01-5.12,8.17-14.21,12.86-24.93,12.86Zm0-51.33c-7.61,0-8.43,11.15-8.43,15.95,0,16.9,6.4,16.9,8.5,16.9s8.35,0,8.35-16.68c0-10.73-2.84-16.17-8.43-16.17Z"/><path class="cls-5" d="m181.93,118.34c7.44,0,13.96,2.42,18.64,6.83,2.53,2.42,4.45,5.21,5.6,8.15,1.99,5.21,2.99,10.87,2.99,16.89,0,7.71-1.92,15.79-4.83,20.41-4.6,7.34-12.66,11.46-22.4,11.46-7.52,0-13.88-2.35-18.56-6.83-2.53-2.42-4.45-5.21-5.6-8.15-1.99-5.21-2.99-10.87-2.99-16.82,0-7.71,1.92-15.71,4.83-20.34,4.68-7.49,12.66-11.6,22.32-11.6m.08,51.26c7.52,0,11.35-6.61,11.35-19.68s-3.99-19.17-11.43-19.17-11.43,6.98-11.43,18.95c0,13.14,3.91,19.9,11.5,19.9m-.08-57.26c-11.69,0-21.68,5.26-27.41,14.42-3.54,5.62-5.74,14.64-5.74,23.52,0,6.7,1.14,13.08,3.39,18.96v.02s.02.02.02.02c1.46,3.73,3.89,7.29,7.04,10.29,5.81,5.56,13.66,8.5,22.71,8.5,11.78,0,21.8-5.2,27.48-14.27,3.54-5.62,5.75-14.67,5.75-23.6,0-6.75-1.14-13.16-3.39-19.03-1.48-3.77-3.91-7.33-7.05-10.34l-.02-.02-.02-.02c-5.79-5.46-13.88-8.46-22.75-8.46h0Zm.08,51.26c-1.65,0-2.54-.53-3.41-2.02-.96-1.66-2.1-5.06-2.1-11.87,0-2.16.26-12.95,5.43-12.95,1.59,0,2.5.53,3.35,1.95.95,1.58,2.07,4.81,2.07,11.21,0,6.77-1.12,10.12-2.05,11.74-.83,1.43-1.69,1.94-3.3,1.94h0Z"/><path class="cls-6" d="m221.33,185.45c-2.06-3.27-3.6-5.11-6.08-7.28l-3.12-2.73,3.57-2.11c4.53-2.68,6.73-4.54,9.06-7.67,3.21-4.23,5.17-9.55,6.02-16.28.31-2.19.45-3.76.53-6.32h-3.71c-3.2,0-6.38.12-8.96.34l-3.25.28v-16l3.26.29c2.65.23,5.48.34,8.89.34h37.51c3.24,0,5.96-.11,8.84-.34l3.24-.26v15.98l-3.25-.28c-.45-.04-.91-.07-1.38-.1l-.59,3.82q-.22,1.4-.45,8.17c-.31,9.92-1.49,18.58-3.07,22.6-2.68,6.71-7.55,7.97-15.6,7.97-2.14,0-4.47-.14-7.54-.36l-2.52-.18-.25-2.51c-.33-3.34-.86-5.43-2.01-8.01l-1.03-2.29c-3.68,5.94-7.51,9.74-13.95,13.87l-2.54,1.63-1.61-2.56Zm22.4-14.83c3.09.55,6.79.95,8.81.95,1,0,1.42-.11,1.56-.16.5-1.04,1.36-5.46,1.73-13.23h-10.66c-.99,4.43-2.38,8.24-4.35,11.92l2.91.52Zm16.68-26.67c3.52,0,6-.04,8.23-.28l3.73-.39c-2.23-.15-4.74-.23-7.21-.23h-18.16c-.01.31-.03.61-.04.89h13.44Z"/><path class="cls-5" d="m274.13,130.95v9.46c-2.74-.23-5.92-.35-8.97-.35h-21.04c-.12,3.39-.18,4.85-.37,6.89h16.65c3.9,0,6.28-.06,8.54-.29q-.24,1.58-.49,8.53c-.3,9.63-1.46,18.04-2.87,21.61-1.89,4.73-4.76,6.07-12.81,6.07-1.95,0-4.09-.12-7.32-.35-.37-3.68-.98-6.07-2.26-8.93,3.29.58,7.14.99,9.33.99,2.32,0,3.48-.47,4.15-1.63,1.1-2.1,2.01-8.99,2.26-17.75h-16.23c-1.1,6.01-2.81,10.69-5.55,15.3-3.54,5.84-7.01,9.34-13.3,13.37-2.13-3.39-3.84-5.49-6.65-7.94,4.94-2.92,7.38-5.02,9.94-8.47,3.54-4.67,5.67-10.45,6.59-17.69.43-3.04.55-4.96.61-9.69h-6.77c-3.17,0-6.47.12-9.21.35v-9.46c2.68.23,5.61.35,9.15.35h37.51c3.42,0,6.22-.12,9.09-.35m-61.75-6.54v22.54l6.51-.55c2.49-.21,5.58-.33,8.7-.33h.55c-.08.93-.18,1.82-.33,2.86v.04s-.01.04-.01.04c-.78,6.19-2.55,11.04-5.42,14.82l-.02.02-.02.02c-1.84,2.48-3.53,4.14-8.18,6.88l-7.14,4.22,6.25,5.46c2.27,1.99,3.61,3.59,5.52,6.62l3.22,5.12,5.09-3.26c5.02-3.22,8.56-6.26,11.63-10.14.35,1.26.58,2.59.75,4.34l.5,5.03,5.04.36c3.13.23,5.51.37,7.75.37,7.31,0,14.75-.76,18.38-9.85,2.04-5.19,3.04-15.61,3.29-23.64q.23-6.57.42-7.8l.16-1.07,5.09.43v-22.5l-6.49.53c-2.81.23-5.46.33-8.6.33h-37.51c-3.32,0-6.06-.1-8.63-.33l-6.52-.57h0Zm35.15,36.78h5.11c-.25,3.38-.59,5.84-.89,7.37-1.55-.07-4.01-.31-6.51-.71.91-2.12,1.66-4.31,2.29-6.65h0Z"/><path class="cls-6" d="m280.21,186.33l.46-3.4c.28-2.12.4-4.22.4-7.25v-38.83c0-2.6-.06-4.1-.23-5.7l-.37-3.58,3.59.28c2.25.17,3.99.22,7.76.22h36.96c3.98,0,5.84-.05,7.37-.22l3.82-.41-.53,3.8c-.21,1.52-.28,3.14-.28,6.94v37.72c0,4.76-2.34,8.13-6.41,9.26-1.53.47-3.98.69-7.63.69-1.4,0-3.42-.04-5.75-.09l-3.81-.08-.41-2.45c-.51-3.02-1.1-4.85-2.55-7.83l-2.31-4.76,5.27.46c3.98.35,6.53.51,8.21.51v-6.09h-27.24v10.43c0,3.9.07,5.64.27,6.88l.56,3.47h-17.13Zm43.56-35.08v-8.72h-6.32v8.72h6.32Zm-21.53,0v-8.72h-5.71v8.72h5.71Z"/><path class="cls-5" d="m336.47,130.83c-.24,1.75-.31,3.56-.31,7.36v37.72c0,3.39-1.46,5.61-4.21,6.37-1.34.41-3.66.58-6.83.58-1.65,0-4.15-.06-7.01-.12-.55-3.27-1.22-5.37-2.81-8.64,4.03.35,6.77.53,8.6.53,2.38,0,2.87-.23,2.87-1.28v-10.8h-33.24v13.43c0,3.85.06,5.84.3,7.36h-10.19c.31-2.28.43-4.5.43-7.65v-38.83c0-2.69-.06-4.26-.24-6.01,2.26.17,4.03.23,7.99.23h36.96c4.09,0,6.04-.06,7.69-.23m-22.02,23.42h12.32v-14.72h-12.32v14.72m-20.92,0h11.71v-14.72h-11.71v14.72m49.95-30.19l-7.64.81c-1.39.15-3.24.2-7.05.2h-36.96c-4.06,0-5.6-.07-7.53-.22l-7.18-.56.75,7.16c.16,1.52.21,2.88.21,5.39v38.83c0,2.88-.11,4.87-.37,6.85l-.91,6.8h24.09l-1.12-6.95c-.19-1.19-.23-3.25-.23-6.41v-7.43h6.41l3.97,8.18c1.32,2.71,1.83,4.29,2.29,7.02l.82,4.91,4.97.1,1.5.03c2.27.05,4.22.09,5.64.09,3.96,0,6.59-.25,8.5-.82,5.35-1.51,8.54-6.04,8.54-12.13v-37.72c0-3.64.06-5.17.25-6.53l1.06-7.61h0Zm-23.03,21.48h.32v2.72h-.32v-2.72h0Z"/><path class="cls-10" d="m365.67,138.11c-.98,2.56-1.39,3.49-2.67,6.25v28.54c0,2.21.05,3.25.26,5.66h-8.17c.21-2.02.31-3.39.31-5.66v-14.51q.05-.93.05-3.4-.46.64-1.39,1.92c-.31.44-.67.84-1.28,1.53-.72-3.59-1.34-5.76-2.62-9.05,3.08-3,5.5-6.84,7.35-11.71.98-2.46,1.44-4.13,1.7-6.15l8.17,1.72c-.1.29-.67,1.92-1.03,3,1.18.1,2.11.15,3.85.15h1.18v-.64c0-1.48-.1-2.46-.31-3.54h8.12c-.15.84-.21,1.82-.21,3.59v.59h5.19v-.69c0-1.67-.05-2.56-.26-3.49h8.22c-.21.98-.26,2.02-.26,3.54v.64h1.95c2,0,3.34-.05,4.78-.25v6.99c-1.44-.15-2.52-.2-4.73-.2h-2v2.95h2.42c2.72,0,3.91-.05,5.14-.25v7.13c-1.29-.2-2.67-.25-5.29-.25h-24.41c-2.57,0-3.96.05-5.34.25v-7.13c1.18.2,2.57.25,5.24.25h1.75v-2.95h-1.18c-2.11,0-3.24.05-4.52.2v-5.02Zm1.34,20.56c0-2.12-.05-3.2-.21-4.48,1.28.15,2.42.2,4.78.2h19.73c2.72,0,3.96-.05,4.98-.2-.15,1.18-.21,2.31-.21,4.67v13.28c0,2.56.05,4.43.26,6.4h-7.91v-1.82h-13.87v1.82h-7.86c.21-1.97.31-3.74.31-5.9v-13.97Zm7.55,3.89h13.87v-2.21h-13.87v2.21Zm0,7.97h13.87v-2.31h-13.87v2.31Zm9.61-24.65v-2.95h-5.19v2.95h5.19Z"/><path class="cls-10" d="m419.93,133.68c-.72,2.07-1.34,5.26-2.11,10.53,3.34-5.76,7.5-8.51,13-8.51,3.49,0,6.94,1.67,9.3,4.48,2.88,3.44,4.27,7.92,4.27,13.68,0,8.07-2.62,14.07-7.86,18.01-2.93,2.21-7.04,4.03-11.72,5.12-1.75.44-3.08.69-6.06,1.13-1.23-3.69-1.9-5.07-4.11-8.41,14.75-.84,20.71-5.46,20.71-16.09,0-6.15-2.06-9.54-5.7-9.54-1.9,0-3.65.88-5.55,2.85-3.08,3.1-5.09,7.18-5.7,11.41-.15,1.13-.21,1.72-.21,4.03l-8.63.1c.05-.34.05-.64.05-.84v-.98c-.1-1.92-.15-4.87-.15-6.25,0-5.95.36-11.61,1.18-17.96.15-1.43.21-1.97.21-2.71v-.39l9.1.34Z"/><path class="cls-10" d="m467.97,143.37c-.72,2.66-1.59,7.28-2.21,11.96,4.32-2.66,8.84-3.84,14.7-3.84,9.15,0,15.21,4.58,15.21,11.56,0,4.23-2.11,8.02-5.81,10.43-3.7,2.41-8.38,3.54-14.7,3.54-4.21,0-7.86-.39-12.9-1.48-.15-4.08-.36-5.66-1.18-8.76,5.09,1.53,9.87,2.31,13.72,2.31,6.78,0,11.31-2.31,11.31-5.81,0-2.61-2.67-4.13-7.3-4.13-3.85,0-7.76.98-11.25,2.95-1.34.69-1.85,1.13-2.88,2.21l-8.53-.34c.1-.44.1-.49.15-.98.26-2.36,1.34-10.23,2.36-17.02.15-1.08.26-1.87.31-3.15l8.99.54Zm-.93-10.82c2.52,1.23,5.6,2.26,10.48,3.49,3.49.89,7.91,1.77,10.33,2.12l-2.72,7.92c-9.3-1.82-16.19-3.79-22.2-6.45l4.11-7.08Z"/><path class="cls-10" d="m502.3,162.71c1.39-1.03,2.21-1.72,3.6-3,3.44-3.35,5.34-5.12,5.6-5.41.05-.79.1-2.21.15-5.41q-5.76.34-7.66.64l-.41-7.77c1.18.1,1.8.15,2.67.15,1.28,0,3.44-.1,5.6-.25q.05-.59.05-1.57c.05-1.03.1-2.26.1-3.4,0-1.52-.05-2.02-.21-3.25l9.09.2c-.21,1.18-.51,4.28-.62,7.28l2.83,2.56c-.92.64-1.95,1.77-3.24,3.35l-.05.69c0,.54,0,.64-.05,1.08,6.42-5.71,11.72-8.46,16.24-8.46,4.98,0,8.27,3.05,8.27,7.67,0,1.67-.31,3.3-1.34,7.43-1.59,6.2-2.21,9.3-2.21,10.53,0,.89.46,1.43,1.23,1.43s1.85-.84,2.83-2.21c1.28-1.77,2.47-3.79,3.08-5.26,1.18,3.1,2.06,4.72,4.32,7.92-3.96,6.2-7.3,8.56-12.23,8.56s-8.07-3.1-8.07-7.92c0-2.76.51-5.71,2.26-13.09.62-2.61.93-4.28.93-5.07,0-.89-.57-1.38-1.49-1.38-1.23,0-3.03.74-4.88,2.02-3.44,2.31-6.68,5.07-8.89,7.58-.05,2.31-.05,3.74-.05,5.17,0,6.99.15,12,.41,13.92l-9.3.05c.31-1.77.46-4.43.46-7.53v-5.17c-3.65,4.18-4.47,5.17-5.09,6.15l-3.96-8.22Z"/><path class="cls-10" d="m562.73,134.96c2.16.25,4.06.34,7.4.34,4.57,0,10.28-.2,15.47-.59,2.26-.15,2.93-.29,3.91-.69l4.21,5.95q-1.34.74-8.27,6.45c-2.72,2.21-3.65,2.95-7.09,5.36,2.88-.69,4.37-.89,7.04-.89,4.83,0,8.27,1.08,11,3.35,2.47,2.12,3.75,4.97,3.75,8.51,0,4.97-2.42,8.9-7.09,11.56-3.55,1.97-8.48,3.1-13.62,3.1-8.68,0-13.98-3.3-13.98-8.76,0-4.58,4.27-7.87,10.23-7.87,3.7,0,6.99,1.38,9.2,3.79,1.03,1.08,1.59,2.07,2.36,3.89,2.77-1.18,4.06-2.85,4.06-5.36,0-3.44-3.49-5.56-9.2-5.56s-11.2,1.62-15.83,4.53c-1.59.98-3.24,2.21-4.93,3.69l-4.78-7.48c4.73-2.12,15.57-10.18,21.94-16.24-2.72.3-4.78.39-12.02.74-1.39.05-2.36.15-3.39.25l-.36-8.07Zm12.74,32.08c-1.18,0-2,.64-2,1.62,0,1.33,1.64,2.16,4.42,2.16.62,0,.72,0,1.7-.15-.67-2.36-2.11-3.64-4.11-3.64Z"/><path class="cls-7" d="m118.45,181.9c-10.04,2.07-11.01,3.74-12.22,20.96-1.21-17.22-2.18-18.89-12.22-20.96,10.04-2.07,11.01-3.74,12.22-20.96,1.21,17.22,2.18,18.89,12.22,20.96Z"/><path class="cls-8" d="m668.92,173.75c-10.19,10.19-47.1,10.22-47.1,10.22,0,0,.03-36.92,10.22-47.1,10.19-10.19,26.7-10.19,36.89,0,10.19,10.19,10.19,26.7,0,36.89Z"/><path class="cls-7" d="m648.8,154.69c-1.96,1.96-4.23,2.98-6.8,3.05-2.62.07-4.9-.87-6.85-2.82s-2.87-4.23-2.8-6.86c.07-2.58,1.08-4.84,3.02-6.79,1.95-1.95,4.22-2.97,6.81-3.04,2.64-.08,4.93.85,6.87,2.79,1.93,1.93,2.85,4.22,2.78,6.86-.08,2.61-1.09,4.88-3.03,6.82Zm-3.55-3.59c.94-.94,1.46-2.03,1.54-3.26.09-1.29-.32-2.39-1.25-3.32s-1.99-1.28-3.32-1.18c-1.29.09-2.38.59-3.28,1.49-.96.96-1.48,2.04-1.56,3.24-.08,1.26.35,2.37,1.3,3.31.88.88,1.99,1.28,3.32,1.2,1.27-.09,2.35-.58,3.25-1.48Z"/><path class="cls-7" d="m657.47,175.48c-.27.27-.56.33-.88.18-.25-.13-.78-.59-1.58-1.39s-1.31-1.37-1.6-1.79c-.14-.2-.22-.35-.24-.43-.02-.09,0-.24.07-.47.38-1.3.77-2.6,1.16-3.89.61-2.1.91-3.3.9-3.58-.92-.43-1.44-.6-1.54-.49-.47.47-1.16,1.2-2.08,2.19-.91.99-1.61,1.72-2.09,2.2-.19.19-.39.22-.58.08-.38-.28-.99-.84-1.85-1.69-.82-.82-1.33-1.38-1.54-1.69-.14-.22-.14-.41.02-.57.68-.68,1.73-1.67,3.17-2.97s2.49-2.3,3.18-2.98c.73-.73,1.79-1.85,3.19-3.38,1.4-1.52,2.46-2.65,3.19-3.38.14-.14.27-.14.4,0,.19.19.48.5.85.91.37.41.66.71.85.91s.51.49.92.87c.41.38.72.66.91.86.11.11.1.22,0,.33-.46.46-1.19,1.14-2.17,2.03-.99.89-1.71,1.57-2.18,2.03-.54.54-.66.96-.37,1.25.75.75,1.53,1.12,2.35,1.13.61,0,1.47-.23,2.58-.72.81-.41,2.04-.98,3.68-1.7.23-.09.45-.03.66.19.16.16.4.42.71.77.31.35.55.6.71.77s.43.42.78.74c.35.32.6.57.77.73.15.15.15.3,0,.44-.21.21-.84.58-1.91,1.12-3.15,1.59-5.53,2.18-7.13,1.76-.33-.09-.53-.09-.6-.02,0,0-.36,1.51-1.09,4.56-.73,3.05-1.28,4.75-1.63,5.11Z"/><path class="cls-15" d="m513.32,297.89v-12.31l.05-.27c1.7-9.3,7.03-18.17,15.84-26.36l.09-.09.1-.08c7.33-5.72,14.69-11.47,22.1-17.27,6.52-5.1,9.96-9.74,9.96-13.42,0-1.59,0-4.89-8.11-4.89-7.37,0-12.61,3.72-16.02,11.38l-1.09,2.44-26.34-8.26,1.08-2.95c3.25-8.92,8.77-15.86,16.4-20.62,7.54-4.71,16.8-7.09,27.51-7.09,11.25,0,20.24,2.65,26.73,7.87,6.46,5.24,9.72,12.41,9.72,21.33,0,8.28-2.92,15.7-8.66,22.03-3.29,3.64-9.18,8.32-17.98,14.31-4.92,3.35-8.98,6.37-12.14,9.05h40.7v25.22h-79.96Z"/><path class="cls-6" d="m554.91,201.09c10.59,0,18.88,2.4,24.85,7.21,5.74,4.65,8.6,10.98,8.6,18.99,0,7.55-2.63,14.22-7.89,20.02-3.11,3.43-8.92,8.05-17.44,13.84-8.52,5.8-14.5,10.64-17.92,14.53h45.16v19.22h-73.96v-9.04c1.59-8.69,6.57-16.93,14.93-24.71,7.33-5.72,14.7-11.48,22.1-17.27,7.41-5.79,11.11-11.06,11.11-15.79,0-5.26-3.7-7.89-11.11-7.89-8.6,0-14.86,4.39-18.76,13.15l-20.79-6.52c3.03-8.31,8.08-14.68,15.17-19.1,7.09-4.42,15.73-6.63,25.93-6.63m0-6c-11.29,0-21.08,2.54-29.1,7.54-8.22,5.13-14.15,12.58-17.64,22.14l-2.15,5.9,5.99,1.88,20.79,6.52,5.1,1.6,2.17-4.89c2.95-6.63,7.05-9.59,13.28-9.59,3.47,0,4.66.72,4.86.86.08.06.25.18.25,1.03,0,1.25-.86,4.84-8.81,11.06-7.41,5.8-14.77,11.55-22.1,17.27l-.2.16-.19.18c-9.29,8.64-14.93,18.07-16.75,28.02l-.1.54v15.58h85.96v-31.22h-34.95c1.57-1.14,3.27-2.33,5.09-3.57,9-6.12,15.06-10.95,18.52-14.78,6.26-6.9,9.44-14.99,9.44-24.04,0-9.87-3.64-17.82-10.82-23.65-7.06-5.68-16.69-8.55-28.63-8.55h0Z"/></g></svg>