<?xml version="1.0" encoding="UTF-8"?><svg id="Layer_2" xmlns="http://www.w3.org/2000/svg" viewBox="0 0 1281 527"><defs><style>.cls-1{fill:none;}.cls-2{font-family:NitalagoRuika-06, NitalagoRuika;}.cls-3{letter-spacing:.05em;}.cls-4{letter-spacing:0em;}.cls-5,.cls-6,.cls-7{fill:#f4690b;}.cls-8,.cls-9{fill:#fff;}.cls-10{fill:#ffe876;}.cls-11{fill:#ffce76;}.cls-12{fill:#7c7c7c;}.cls-13{fill:#333;}.cls-14{fill:#3fa9f5;}.cls-15{letter-spacing:-.1em;}.cls-16{font-size:39.77px;letter-spacing:.1em;}.cls-6{opacity:.2;}.cls-7{font-size:51.28px;letter-spacing:.1em;}.cls-9{font-family:HiraMaruProN-W4-83pv-RKSJ-H, 'Hiragino Maru Gothic ProN';font-size:49px;}</style></defs><g id="PC"><rect class="cls-1" width="1281" height="527"/><path class="cls-13" d="m246.44,430.1c.32-4.17.53-10.37.53-13.68,0-2.25,0-3.1-.32-5.34l20.09.53c-.53,2.46-.53,2.78-1.18,12.93q-.11,2.89-.32,5.45h23.3c3.53,0,4.81-.21,7.16-1.18l8.34,7.27c-1.18,2.14-1.39,2.99-1.5,7.91-.75,22.87-2.35,40.72-4.49,47.78-3.1,9.94-8.23,13.36-20.09,13.36-4.17,0-5.77-.11-14-.85-.43-8.55-1.18-12.08-3.63-18.81,5.34,1.39,10.58,2.14,13.89,2.14,5.13,0,6.41-1.71,7.8-11.01,1.07-7.16,2.03-20.63,2.03-29.82h-20.42q-.85,7.05-1.6,10.69c-4.7,21.59-14.86,35.49-36.56,49.81-4.81-7.59-8.02-11.22-13.9-16.25,14.22-7.48,22.45-15.07,27.79-25.87,2.67-5.45,3.85-9.3,5.34-18.28h-13.36c-7.16,0-9.41.11-14.43.64l-.11-18.28c5.35.75,7.27.86,14.86.86h14.75Z"/><path class="cls-13" d="m322.54,448.59c5.02.75,10.8.96,21.91.96h51.09c10.69,0,14.75-.21,21.91-.96v20.63c-5.13-.53-9.83-.64-22.02-.64h-50.88c-11.97,0-15.5.11-22.02.64v-20.63Z"/><path class="cls-13" d="m444.82,505.99c.43-4.49.53-7.59.64-16.35v-62.21c-.11-9.19-.11-9.73-.75-15.5h20.63c-.43,2.78-.43,4.49-.53,15.61v14.64c16.89,5.45,33.67,13.04,48.64,22.23l-10.16,18.17c-8.87-6.31-21.27-13.15-33.67-18.6-3.21-1.28-3.53-1.39-3.85-1.6-.32-.11-.53-.21-.96-.53v27.79c0,7.91.21,13.57.64,16.35h-20.63Zm48.31-88.08c4.17,4.7,7.59,9.62,10.58,15.29l-10.16,4.92c-3.53-6.73-6.31-10.69-10.58-15.61l10.16-4.6Zm14.22-6.41c3.95,4.28,6.95,8.34,10.69,14.86l-9.83,4.81c-3.74-6.73-6.74-11.01-10.48-15.29l9.62-4.38Z"/><path class="cls-13" d="m557.58,496.37v7.38h-19.45c.64-5.88.85-9.51.85-17.42v-54.94c0-4.6-.11-7.91-.43-12.29,3.74.32,5.88.43,12.93.43h57.61c6.63,0,8.23,0,13.25-.43-.21,3.74-.32,7.59-.32,12.61v54.19c0,8.23.21,13.36.75,17.64h-19.35v-7.16h-45.86Zm45.86-59.75h-45.86v42.65h45.86v-42.65Z"/><path class="cls-13" d="m643.84,448.59c5.02.75,10.8.96,21.91.96h51.09c10.69,0,14.75-.21,21.91-.96v20.63c-5.13-.53-9.83-.64-22.02-.64h-50.88c-11.97,0-15.5.11-22.02.64v-20.63Z"/><path class="cls-13" d="m765.26,416.95c13.47,7.91,20.42,12.83,29.39,20.95l-12.61,16.68c-9.3-9.73-18.39-16.78-29.07-22.55l12.29-15.07Zm-11.22,66.38c10.9-.85,22.13-3.53,32.17-7.7,13.47-5.56,23.09-13.57,31.32-26.4,4.49-6.84,7.37-12.72,10.47-20.95,5.24,6.31,7.7,8.44,15.71,14.32-9.73,21.06-19.88,33.67-34.85,43.29-11.54,7.48-21.7,11.44-41.58,16.03-4.17.96-4.81,1.07-7.7,1.92l-5.56-20.52Z"/><path class="cls-14" d="m1014.84,482.07l2.99-1.03c1.27-.44,3.62-1.63,7.71-4.75v-10.74h-.3c-1.68,0-2.66.08-4.53.37l-3.46.53v-19.11l3.42.49c2.12.3,3.28.37,6.17.37h5.56l-1.05-1.4c-4.51-6.04-7.28-8.97-13.46-14.24l-2.51-2.14,13.3-12.94,2.07,1.71c2.52,2.08,4.73,4.01,6.76,5.95v-5.51l3.23.25c2.03.16,4.22.23,6.69.23h11.35c3.59,0,4.9,0,6.25-.1v-.38l2.32.18,2.74-.25-.13.43c1.54.08,3.19.12,4.99.12h11.02c4.14,0,5.25,0,6.89-.15l3.87-.35-.64,3.83c-.12.72-.12,1.1-.12,2.24v10.3c0,1.99,0,3.1.09,3.9l2.59.31-.28,2.92c-.3,3.15-.82,5.55-2.18,7.32l.26-.03v12.27l1.69-.19v12.44l3.29.38s-4.41,4.57-4.5,4.66l4.67-.62-1.71,4.67c-1.46,3.94-2.17,6.96-2.81,11.97l-.33,2.53-2.55.09c-7.4.25-18.9.4-30.76.4s-17.1-.44-21.36-1.94c-2.87-1-5.18-2.39-7.51-4.56-2.39,2.07-4.33,3.51-8.8,6.74l-3.1,2.24-7.85-19.43Zm52.22-.18c.6,0,1.23-.02,1.87-.04-.29-.18-.59-.37-.89-.56-.33.2-.66.4-.98.6Zm-32.24-33.68c2.17,0,3.1,0,4.1-.08-.17-.75-.26-1.58-.26-2.47v-1.29l-3.84,3.84Z"/><path class="cls-8" d="m1028.86,421.52c5.47,4.51,9.17,8.13,12.79,12.31,2.01.16,2.49.16,5.87.16h7.4v-2.33h-7.64c-3.62,0-4.75,0-6.76.24v-9.01c2.09.16,4.35.24,6.92.24h11.35c4.18,0,5.39,0,7.16-.16-.24.8-.24,1.45-.24,2.82l.08,1.61v8.61c0,2.33,0,3.62.16,4.67-1.93-.08-3.54-.16-5.39-.16h-8.69v1.77c0,1.21.24,1.37,2.49,1.37,1.45,0,2.41-.16,2.82-.4.24-.24.48-1.05.48-2.09v-.48c3.54,1.29,6.03,1.93,9.33,2.33-.56,4.83-1.13,5.95-3.62,7.16v3.86h8.53v-3.46c-2.41-.8-3.46-2.41-3.46-4.99v-6.52q0-2.49-.24-5.23c2.01.16,2.65.16,6.11.16h7.32v-2.33h-6.84c-3.62,0-4.75,0-6.76.24v-9.01c2.09.16,4.35.24,6.92.24h11.02c4.18,0,5.39,0,7.16-.16-.16.97-.16,1.53-.16,2.74v10.3c0,2.41,0,3.62.16,4.67-1.93-.08-3.54-.16-5.39-.16h-8.53v1.85c0,1.05.56,1.37,2.74,1.37,1.37,0,2.57-.16,2.9-.48q.24-.24.48-1.61v-.97c2.98,1.05,6.03,1.69,10.06,2.17-.4,4.18-1.13,5.87-2.9,6.92-1.45.88-3.3,1.13-9.17,1.29v2.98h2.66c4.51,0,5.39,0,7.48-.24v9.09c-2.25-.24-3.14-.32-7.48-.32h-2.58v3.54h4.1c4.59,0,5.47,0,7.64-.24v9.17c-2.33-.24-3.22-.24-7.64-.24h-5.55c4.51,1.45,7.56,2.17,13.12,2.82-2.25,2.33-2.49,2.74-4.75,6.2,1.93-.16,3.14-.32,6.76-.81-1.61,4.35-2.33,7.64-2.98,12.63-7.08.24-18.51.4-30.66.4s-16.49-.4-20.36-1.77c-3.22-1.13-5.55-2.74-8.37-5.87-3.46,3.14-4.91,4.26-10.7,8.45l-5.23-12.95c2.33-.81,5.55-2.82,9.74-6.11v-15.21h-3.3c-1.77,0-2.9.08-4.99.4v-12.15c2.25.32,3.54.4,6.6.4h7.72c3.3,0,4.02,0,6.03-.24-.16,2.33-.16,3.14-.16,9.01v18.83c2.49,3.62,4.59,4.91,8.61,5.47-2.25-2.74-2.66-3.22-6.28-6.52,4.83-.89,7.48-1.61,11.35-2.98h-6.2c-2.9,0-4.1.08-5.71.32v-9.33c1.77.24,2.58.32,5.55.32h4.1v-3.54h-.72c-4.42,0-5.39.08-7.56.32v-9.09c2.09.24,2.98.24,7.56.24h.72v-2.9c-4.59,0-6.28-.16-7.48-.64-1.93-.8-2.74-2.25-2.74-4.83v-8.53l-7.89,7.88c-4.51-6.03-7.4-9.17-13.92-14.72l9.01-8.77m34.52,44.58h8.53v-3.54h-8.53v3.54m10.86,8.69h-12.79l5.55,3.62c-4.51,2.82-8.37,4.67-13.36,6.36,2.58.08,6.2.16,9.82.16,4.34,0,13.36-.24,17.7-.48-3.94-1.29-7.08-2.82-12.07-6.03l5.15-3.62m-45.71-61.31l-3.85,3.75-9.01,8.77-4.72,4.6,5.02,4.27c4.69,4,7.35,6.6,10.38,10.35-2.53,0-3.5-.09-5.24-.34l-6.85-.98v26.06l6.91-1.06c.53-.08.98-.14,1.38-.19v6.1c-3.2,2.34-4.91,3.14-5.69,3.41l-5.97,2.06,2.36,5.86,5.23,12.95,2.87,7.1,6.21-4.48c3.28-2.37,5.24-3.81,7.03-5.25,2,1.52,4.09,2.62,6.54,3.48,4.61,1.63,9.63,2.11,22.34,2.11,11.87,0,23.41-.15,30.86-.41l5.09-.17.65-5.06c.61-4.77,1.28-7.62,2.65-11.32l3.46-9.35-1.09.15,2.73-2.83-6.67-.77v-13.12l-1.69.19v-8.43c1.28-2.33,1.66-5,1.9-7.5l.56-5.83-2.95-.35c0-.37,0-.78,0-1.23v-10.3c0-1.13,0-1.29.08-1.75l1.28-7.66-7.74.7c-1.45.13-2.39.14-6.62.14h-11.02c-.34,0-.67,0-.99,0l.28-.93-6.9.63-5.31-.41v.72c-.82,0-1.86,0-3.25,0h-11.35c-2.39,0-4.51-.07-6.46-.22l-6.46-.5v2.03c-.6-.51-1.22-1.02-1.85-1.55l-4.15-3.42h0Z"/><path class="cls-14" d="m934.64,507.28c-14.97,0-27.43-2.27-37.05-6.76-11.97-5.61-21.42-15.18-28.11-28.46l-1.4-2.78,36.85-16.95,1.35,2.43c7.09,12.73,15.6,18.91,26.04,18.91,23.17,0,23.17-10.18,23.17-13.53s0-12.85-23.7-12.85h-29.34v-31.73h27.74c7.25,0,12.88-1.46,16.71-4.34,2.91-2.16,4.32-4.66,4.32-7.66s0-10.8-17.29-10.8c-12.43,0-22.03,5.51-29.34,16.86l-1.37,2.12-33.78-14.35,1.48-2.87c11.78-22.91,33.51-34.52,64.61-34.52,16.69,0,29.96,3.36,39.46,10,9.83,6.87,14.81,16.27,14.81,27.94,0,8.16-1.96,15.36-5.81,21.39-2.52,3.93-5.63,7.14-9.31,9.6,4.49,2.01,8.44,4.81,11.81,8.37,5.86,6.24,8.83,14.16,8.83,23.54,0,30.83-20.41,46.46-60.67,46.46Z"/><path class="cls-8" d="m935.53,363c16.14,0,28.72,3.15,37.74,9.46,9.02,6.31,13.53,14.8,13.53,25.48,0,7.61-1.78,14.2-5.34,19.77-3.56,5.57-8.37,9.49-14.42,11.76,6.88,1.7,12.64,5,17.27,9.88,5.34,5.68,8.01,12.84,8.01,21.47,0,28.97-19.22,43.46-57.67,43.46-14.6,0-26.52-2.16-35.78-6.48-11.39-5.34-20.29-14.37-26.7-27.1l31.51-14.49c7.59,13.63,17.15,20.45,28.66,20.45,17.44,0,26.17-5.51,26.17-16.53s-8.9-15.85-26.7-15.85h-26.34v-25.73h24.74c7.95,0,14.12-1.65,18.51-4.94,3.68-2.73,5.52-6.08,5.52-10.06,0-9.2-6.76-13.8-20.29-13.8s-24.03,6.08-31.86,18.23l-28.48-12.1c11.27-21.93,31.92-32.89,61.94-32.89m0-6c-32.31,0-54.95,12.16-67.28,36.15l-2.95,5.74,5.94,2.52,28.21,11.98v36.89h2.75l-1.04.48-31.51,14.49-5.65,2.6,2.8,5.55c7,13.9,16.93,23.93,29.51,29.83,10.03,4.67,22.92,7.04,38.32,7.04,10.06,0,19.04-.97,26.69-2.9,7.96-2,14.74-5.09,20.17-9.18,11.15-8.4,16.81-20.98,16.81-37.38,0-10.17-3.24-18.78-9.64-25.58-2.53-2.67-5.37-4.95-8.48-6.82,2.39-2.14,4.49-4.64,6.31-7.48,4.17-6.52,6.28-14.26,6.28-23,0-12.7-5.41-22.93-16.09-30.39-10.01-7-23.86-10.54-41.18-10.54h0Zm-29.27,55.56l.85-1.32c6.71-10.42,15.49-15.48,26.82-15.48,14.29,0,14.29,5.27,14.29,7.8,0,1.37-.35,3.2-3.09,5.24-3.33,2.5-8.35,3.76-14.94,3.76h-23.93Zm.97,37.73h24.56c20.7,0,20.7,7.16,20.7,9.85,0,3.48-1.12,5.67-3.75,7.33-2.31,1.46-7.04,3.21-16.42,3.21s-16.91-5.68-23.42-17.37l-1.68-3.01h0Z"/><polygon class="cls-5" points="272.79 333.02 95.85 333.02 95.85 241.52 314.8 257.52 272.79 333.02"/><polygon class="cls-5" points="709.8 337.52 456.8 337.52 442.8 246.02 661.74 262.02 709.8 337.52"/><polygon class="cls-8" points="743.57 360.58 741.24 360.52 72.81 345.47 72.29 211.92 364.35 223.74 364.15 228.74 77.31 217.13 77.79 340.58 739.03 355.47 751.55 222.57 412.21 228.03 412.13 223.03 757.05 217.48 743.57 360.58"/><path class="cls-8" d="m147.12,327.82c-9.54,0-18.65-2.25-24.35-6.02-5.04-3.29-9-8.21-11.41-14.22-.68-1.6-1.12-3.06-1.78-5.52l-1.42-5.29,20.9-3.65v-23.37l-19.47-2.8,1.71-5.58c1.96-6.4,3.8-9.86,7.3-13.68,6.69-7.24,16.5-10.9,29.18-10.9,11.34,0,21,3.3,27.2,9.28,4.42,4.42,6.72,10.19,6.72,16.76,0,5.84-1.61,12.82-7.9,17.88.73.51,1.45,1.07,2.17,1.69l.1.09c5.01,4.53,7.76,10.72,7.76,17.43,0,5.8-1.67,11.24-4.69,15.31-2.54,3.47-6.43,6.58-10.64,8.51-5.44,2.51-13.63,4.07-21.37,4.07Zm-8.15-31.39c.45,2.48.72,2.77,1.32,3.4,1.92,1.99,4.88,2.41,7.02,2.41,2.53,0,6.77-.55,6.77-4.27,0-1.18-.3-2.69-1.73-3.28-1.23-.42-3.41-.9-6.89-.9-2.26,0-4.65.07-6.92.21l.44,2.42Zm1.51-27.53c1.09.04,2.22.06,3.4.06,8.16,0,8.16-2.54,8.16-3.9,0-1.01,0-2.88-4.64-2.88s-5.63,1.22-6.44,4.67l-.48,2.05Z"/><path class="cls-5" d="m147.77,241.8c10.1,0,18.45,2.78,23.73,7.88,3.43,3.43,5.19,7.88,5.19,13.16,0,9.83-5.28,15.94-15.94,18.45,5.65.83,8.71,2.13,11.96,4.91,3.89,3.52,6.12,8.34,6.12,13.72,0,4.73-1.3,9.08-3.71,12.33-2.04,2.78-5.28,5.38-8.71,6.95-4.82,2.22-12.33,3.62-19.28,3.62-8.34,0-16.69-1.95-21.6-5.19-4.26-2.78-7.51-6.86-9.55-11.96-.56-1.3-.93-2.5-1.58-4.91l19.65-3.43c.56,3.06,1.11,4.36,2.6,5.93,2.5,2.6,6.21,3.99,10.66,3.99,7.23,0,11.77-3.62,11.77-9.27,0-3.8-1.85-6.77-5.01-7.97-2.13-.74-5.01-1.21-8.62-1.21s-7.79.18-11.4.56v-15.94c3.15.37,6.21.56,9.83.56,8.81,0,13.16-2.97,13.16-8.9,0-5.01-3.52-7.88-9.64-7.88-6.58,0-9.92,2.6-11.31,8.53l-20.02-2.87c1.76-5.75,3.24-8.53,6.21-11.77,5.65-6.12,14.18-9.27,25.49-9.27m0-10c-14.13,0-25.18,4.2-32.83,12.48l-.02.02-.02.02c-4.01,4.39-6.21,8.47-8.39,15.59l-3.42,11.17,11.56,1.66,9.4,1.35v14.83l-11.37,1.99-10.79,1.88,2.85,10.57c.7,2.61,1.21,4.29,1.99,6.14,2.8,6.93,7.39,12.63,13.3,16.49,6.49,4.28,16.62,6.83,27.09,6.83,8.54,0,17.32-1.7,23.47-4.54,4.94-2.27,9.52-5.95,12.57-10.1,3.65-4.93,5.66-11.41,5.66-18.27,0-7.35-2.73-14.19-7.73-19.49,3.67-4.68,5.6-10.61,5.6-17.59,0-7.92-2.81-14.92-8.12-20.23l-.06-.06-.06-.06c-7.24-6.99-17.85-10.68-30.67-10.68h0Z"/><path class="cls-8" d="m223.22,327.54c-10.39,0-19.37-3.49-25.97-10.09-3.54-3.54-6.28-7.72-7.91-12.07-2.61-7.14-3.93-14.86-3.93-22.98,0-10.72,2.51-21.55,6.56-28.26,6.58-11,17.68-17.06,31.26-17.06,10.19,0,19.44,3.57,26.03,10.06,3.57,3.57,6.31,7.75,7.94,12.1,2.61,7.14,3.93,14.89,3.93,23.08,0,10.62-2.57,21.75-6.56,28.35-6.43,10.72-17.86,16.88-31.35,16.88Zm0-64.79c-8.18,0-8.81,14.48-8.81,18.92,0,13.35,3,20.12,8.91,20.12s8.72-6.68,8.72-19.84c0-8.76-1.53-19.19-8.81-19.19Z"/><path class="cls-5" d="m223.22,242.08c8.99,0,16.87,3.06,22.53,8.62,3.06,3.06,5.38,6.58,6.77,10.29,2.41,6.58,3.62,13.72,3.62,21.32,0,9.73-2.32,19.93-5.84,25.77-5.56,9.27-15.29,14.46-27.07,14.46-9.08,0-16.78-2.97-22.43-8.62-3.06-3.06-5.38-6.58-6.77-10.29-2.41-6.58-3.62-13.72-3.62-21.23,0-9.73,2.32-19.84,5.84-25.68,5.65-9.46,15.29-14.65,26.97-14.65m.09,64.7c9.08,0,13.72-8.34,13.72-24.84s-4.82-24.19-13.81-24.19-13.81,8.81-13.81,23.92c0,16.59,4.73,25.12,13.91,25.12m-.09-74.7c-15.18,0-28.14,7.11-35.56,19.51-4.47,7.41-7.26,19.23-7.26,30.81,0,8.71,1.42,17.01,4.23,24.67v.04s.03.04.03.04c1.88,5.01,5.01,9.8,9.06,13.85,7.55,7.55,17.76,11.55,29.5,11.55,15.29,0,28.28-7.04,35.64-19.32,4.48-7.42,7.26-19.27,7.26-30.91,0-8.77-1.42-17.1-4.23-24.76v-.04s-.03-.04-.03-.04c-1.88-5.01-5.01-9.8-9.06-13.85l-.03-.03-.03-.03c-7.53-7.41-18.02-11.49-29.54-11.49h0Zm.09,64.7c-.76,0-.99,0-1.65-1.18-.84-1.52-2.26-5.36-2.26-13.94,0-7.8,1.61-11.43,2.3-12.62.75-1.3,1.12-1.3,1.52-1.3.72,0,.96,0,1.6,1.12.83,1.44,2.21,5.06,2.21,13.07,0,8.51-1.38,12.28-2.2,13.77-.59,1.07-.79,1.07-1.52,1.07h0Z"/><path class="cls-8" d="m270.78,329.28c-2.24-3.99-3.48-5.7-6.65-9.14l-4.91-5.33,6.72-2.7c7.52-3.02,12.07-6.54,14.75-11.41.78-1.39,1.33-2.63,1.73-3.96-.16.02-3.95.51-3.95.51-.99.82-2.05,1.65-3.31,2.63l-4.58,3.52-2.83-5.04c-2.3-4.1-3.97-6.4-6.85-9.48l-3.96-4.22,4.75-3.3c7.77-5.41,13.04-11.35,17.07-19.28,1.33-2.59,1.86-3.97,2.12-5.47l1.02-5.91,18.71,6.84,17.29-6.62,1.53,5.18c.44,1.49.84,2.55,2.64,5.85,4.01,7.35,9.68,13.21,17.34,17.91l4.83,2.96-3.54,4.42c-3.4,4.25-4.12,5.34-7,10.61l-2.76,5.05-3.15-2.35c-.65,15.36-2.51,19.38-3.2,20.86-3.7,7.94-11.55,8.61-19.28,8.61q-.75,0-5.34-.08l-4.37-.07-.51-4.34c-.29-2.43-.6-4.11-1.25-6.16-2.45,2.76-5.26,5.25-8.42,7.45-2.73,1.85-4.56,2.86-8.19,4.52l-4.19,1.92-2.25-4.02Zm30.16-20.71c1.64.15,2.96.22,3.76.22.26,0,.48,0,.67,0,.43-1.9.85-6.35,1.01-12.22h-1.81c-.74,4.52-1.88,8.3-3.63,12.02Zm4.18-32.32c-1.6-2.72-3.07-5.59-4.44-8.71-.02.05-.04.1-.07.16-1.18,2.58-2.8,5.56-4.62,8.55h9.13Z"/><path class="cls-5" d="m285.81,257.47l12.15,4.45c-.74,1.26-1.11,1.93-1.93,3.78-2.07,4.52-5.78,10.67-9.41,15.56h27.94c-3.93-5.04-6.89-10.15-9.56-16.3-.44-1.11-.96-2.15-1.41-3.19l11.04-4.22c.59,2,1.19,3.41,3.04,6.82,4.45,8.15,10.67,14.6,19.12,19.79-3.56,4.45-4.45,5.78-7.48,11.34-3.19-2.37-4.45-3.41-6.3-5.11-.07,14.9-1.11,24.97-2.96,28.98-2,4.3-5.56,5.71-14.75,5.71q-.74,0-5.26-.07c-.52-4.37-1.19-6.82-3.19-11.86,3.11.44,6.08.67,7.86.67,3.85,0,4.74-.52,5.48-3.63.74-2.89,1.26-10.23,1.26-18.6h-11.26c-.82,8-2.45,13.12-5.93,18.9-2.89,4.74-6.82,8.89-11.71,12.3-2.3,1.56-3.85,2.45-7.41,4.08-2.37-4.22-3.85-6.3-7.34-10.08,8.67-3.48,14.01-7.71,17.27-13.63,2.08-3.71,2.89-6.74,3.19-11.56h-1.93c-2,0-3.33.07-5.04.3v-4.15c-3.56,3.71-5.34,5.26-9.19,8.23-2.37-4.22-4.22-6.89-7.56-10.45,8.52-5.93,14.3-12.52,18.67-21.12,1.48-2.89,2.22-4.74,2.59-6.89m-7.82-13.51l-2.04,11.81c-.11.66-.33,1.47-1.64,4.03-3.65,7.18-8.42,12.56-15.49,17.47l-9.5,6.61,7.91,8.44c2.6,2.77,4.03,4.76,6.14,8.51l3.14,5.59c-.75.35-1.57.7-2.45,1.06l-13.44,5.4,9.82,10.65c2.88,3.13,3.94,4.58,5.97,8.2l4.51,8.04,8.38-3.84c3.88-1.78,5.95-2.92,8.85-4.89l.06-.04.05-.04c.76-.53,1.5-1.07,2.22-1.63l.65,5.5,8.74.14q4.6.08,5.42.08c6.45,0,18.46,0,23.81-11.48,1.01-2.17,2.22-5.77,3.02-13.51l.43.32,5.52-10.1c2.75-5.03,3.3-5.86,6.52-9.89l7.07-8.84-9.65-5.93c-6.99-4.29-11.94-9.4-15.57-16.05-1.65-3.04-1.9-3.76-2.23-4.87l-3.07-10.36-10.09,3.86-10.5,4.02-11.32-4.14-11.25-4.12h0Z"/><path class="cls-8" d="m415.62,327.96c-.96-.21-1.25-.23-2.34-.34l-.66-.07c-9.36-.82-15.66-2.22-21.08-4.67-10.02-4.67-15.09-12.44-15.09-23.11,0-6.96,2.4-13.35,7.15-19.01,1.8-2.22,3.48-3.76,6.61-6l-1.96.21c-1.83.17-4.6.4-20.19,1.65l-2.24.24c-5.5.59-6.21.66-9.36,1.32l-.57.12-.89-16.19.56.03c1.39.08,2.47.08,3.11.08,2.19,0,5.29-.18,14.11-.74,11.41-.71,19.26-1.13,35.65-1.74l8.52-.33,3.47-.16c1.84-.05,2.69-.11,3.17-.14.27-.02.43-.03.58-.03.52,0,.81-.07,1.78-.31l.59-.15.04.61.77,15.57-.6-.09c-1.12-.16-1.43-.16-2.24-.16-5.77,0-13.1,2.24-18.67,5.71-8.09,4.93-12.91,11.79-12.91,18.35,0,4.53,2.12,7.65,6.66,9.8,3.18,1.59,10.31,2.93,15.58,2.93.66,0,1.22,0,2.45-.08l.6-.04-2.04,16.85-.54-.11Zm-1.83-30.61c-2.5-5.08-4.58-8.26-7.95-12.13l-.45-.52,8.9-3.8.24.27c3.42,3.93,5.92,7.66,8.09,12.1l.23.46-8.85,4.06-.21-.44Zm11.42-5.19c-2.97-5.54-5.01-8.63-7.79-11.81l-.45-.51,8.39-3.73.24.27c3.18,3.53,5.47,6.82,8.17,11.75l.26.47-8.6,3.98-.22-.42Z"/><path class="cls-12" d="m426.06,259.25l.74,14.97c-1.16-.17-1.49-.17-2.32-.17-5.79,0-13.23,2.23-18.94,5.79-8.27,5.04-13.15,11.99-13.15,18.77,0,4.8,2.23,8.02,6.95,10.25,3.31,1.65,10.58,2.98,15.79,2.98.66,0,1.24,0,2.48-.08l-1.9,15.71c-1.16-.25-1.41-.25-3.06-.41-9.43-.83-15.63-2.23-20.92-4.63-9.76-4.55-14.8-12.15-14.8-22.66,0-6.86,2.32-13.06,7.03-18.69,2.15-2.65,4.13-4.3,8.1-7.03l-3.89.41c-1.82.17-4.71.41-20.18,1.65-7.69.83-8.1.83-11.66,1.57l-.83-15.05c1.41.08,2.48.08,3.14.08,2.15,0,5.13-.17,14.14-.74,11.91-.74,19.93-1.16,35.64-1.74l8.52-.33,3.47-.17c2.81-.08,3.31-.17,3.72-.17.58,0,.91-.08,1.9-.33m-.83,17.45c2.98,3.31,5.29,6.53,8.1,11.66l-7.69,3.56c-2.98-5.54-5.04-8.68-7.86-11.91l7.44-3.31m-11.08,4.8c3.31,3.8,5.79,7.44,8.02,11.99l-7.94,3.64c-2.56-5.21-4.71-8.43-8.02-12.24l7.94-3.39m12.85-23.51l-1.18.29h0c-.99.25-1.22.3-1.65.3-.16,0-.33,0-.61.03-.49.03-1.31.08-3.14.14l-3.49.17-8.51.33c-16.39.6-24.25,1.02-35.66,1.74-8.81.57-11.9.74-14.08.74-.64,0-1.71,0-3.08-.08l-1.12-.06.06,1.12.83,15.05.06,1.16,1.14-.24c3.12-.65,3.71-.72,9.31-1.31l2.25-.24c15.56-1.25,18.34-1.49,20.16-1.65h.14c-2.26,1.71-3.69,3.11-5.22,4.99-4.81,5.74-7.25,12.24-7.25,19.32,0,10.88,5.17,18.81,15.38,23.56,5.48,2.48,11.83,3.89,21.25,4.72l.65.06c1.07.1,1.36.13,2.29.33l1.07.23.13-1.09,1.9-15.71.15-1.2-1.2.08c-1.21.08-1.77.08-2.42.08-5.21,0-12.23-1.31-15.35-2.87-4.43-2.1-6.39-4.98-6.39-9.36,0-6.38,4.74-13.08,12.67-17.92,5.5-3.43,12.73-5.64,18.41-5.64.81,0,1.09,0,2.17.16l1.2.17-.06-1.21-.74-14.97-.06-1.22h0Zm-1.51,17.5l-.66.3-7.44,3.31-1.24.55.89,1.02c2.75,3.16,4.77,6.22,7.73,11.72l.45.83.85-.4,7.69-3.56.97-.45-.52-.94c-2.72-4.97-5.03-8.29-8.24-11.85l-.49-.54h0Zm-11.06,4.8l-.67.29-7.94,3.39-1.26.54.9,1.04c3.34,3.84,5.4,6.98,7.88,12.02l.43.87.88-.41,7.94-3.64.93-.43-.45-.92c-2.2-4.47-4.72-8.24-8.16-12.2l-.48-.55h0Z"/><path class="cls-8" d="m465.32,325.88l.74-5.65c.49-3.76.7-7.75.7-13.35v-42.27c-3.15.04-6.19.24-9.45.61l-5.57.63v-28.65l5.82.97c2.98.5,5.19.58,10.3.58h11.77c6.53,0,7.54,0,11-.35l6.05-.6-.57,6.05c-.46,4.91-.63,8.69-.63,14.45v48.57c0,5.57.19,9.2.71,13.39l.69,5.61h-31.55Z"/><path class="cls-5" d="m456.74,243.1c3.34.56,5.75.65,11.12.65h11.77c6.58,0,7.79,0,11.49-.37-.46,4.91-.65,8.81-.65,14.92v48.57c0,5.56.19,9.46.74,14h-20.21c.56-4.26.74-8.62.74-14v-47.28h-3.71c-3.62,0-7.23.19-11.31.65v-17.15m-10-11.81v40.16l11.13-1.27c1.33-.15,2.61-.27,3.89-.36v37.05c0,5.37-.2,9.17-.66,12.71l-1.47,11.29h42.9l-1.37-11.22c-.49-3.97-.67-7.44-.67-12.78v-48.57c0-5.59.16-9.25.61-13.98l1.14-12.1-12.09,1.21c-3.21.32-4.04.32-10.5.32h-11.77c-5.21,0-6.98-.1-9.48-.51l-11.65-1.94h0Z"/><path class="cls-8" d="m538.55,327.54c-10.39,0-19.37-3.49-25.97-10.09-3.54-3.54-6.28-7.72-7.91-12.07-2.61-7.14-3.93-14.86-3.93-22.98,0-10.72,2.51-21.55,6.56-28.26,6.58-11,17.68-17.06,31.26-17.06,10.19,0,19.44,3.57,26.03,10.06,3.57,3.57,6.31,7.75,7.94,12.1,2.61,7.14,3.93,14.89,3.93,23.08,0,10.62-2.57,21.75-6.56,28.35-6.43,10.72-17.86,16.88-31.35,16.88Zm0-64.79c-8.18,0-8.81,14.48-8.81,18.92,0,13.35,3,20.12,8.91,20.12s8.72-6.68,8.72-19.84c0-8.76-1.53-19.19-8.81-19.19Z"/><path class="cls-5" d="m538.55,242.08c8.99,0,16.87,3.06,22.53,8.62,3.06,3.06,5.38,6.58,6.77,10.29,2.41,6.58,3.62,13.72,3.62,21.32,0,9.73-2.32,19.93-5.84,25.77-5.56,9.27-15.29,14.46-27.07,14.46-9.08,0-16.78-2.97-22.43-8.62-3.06-3.06-5.38-6.58-6.77-10.29-2.41-6.58-3.61-13.72-3.61-21.23,0-9.73,2.32-19.84,5.84-25.68,5.65-9.46,15.29-14.65,26.97-14.65m.09,64.7c9.08,0,13.72-8.34,13.72-24.84s-4.82-24.19-13.81-24.19-13.81,8.81-13.81,23.92c0,16.59,4.73,25.12,13.91,25.12m-.09-74.7c-15.18,0-28.14,7.11-35.56,19.51-4.47,7.41-7.26,19.23-7.26,30.81,0,8.71,1.42,17.01,4.22,24.67v.04s.03.04.03.04c1.88,5.02,5.01,9.8,9.06,13.85,7.55,7.55,17.76,11.55,29.5,11.55,15.29,0,28.28-7.04,35.64-19.32,4.48-7.42,7.26-19.27,7.26-30.91,0-8.77-1.42-17.1-4.23-24.76v-.04s-.03-.04-.03-.04c-1.88-5.01-5.01-9.8-9.06-13.85l-.03-.03-.03-.03c-7.53-7.41-18.02-11.49-29.54-11.49h0Zm.09,64.7c-.76,0-.99,0-1.65-1.18-.84-1.52-2.26-5.36-2.26-13.94,0-7.8,1.61-11.43,2.3-12.62.75-1.3,1.12-1.3,1.52-1.3.72,0,.96,0,1.6,1.12.83,1.44,2.21,5.06,2.21,13.07,0,8.51-1.38,12.28-2.2,13.77-.59,1.07-.79,1.07-1.52,1.07h0Z"/><path class="cls-8" d="m585.25,324.82c-2.29-3.79-3.98-5.91-6.72-8.41l-4.89-4.47,5.64-3.48c5.06-3.13,7.39-5.18,9.97-8.8,3.55-4.9,5.72-11.07,6.67-18.92.29-2.15.45-3.8.54-6.02h-2.65c-3.63,0-7.23.14-10.13.4l-5.44.48v-22.28l5.45.49c3.01.27,6.2.4,10.05.4h43.06c3.65,0,6.73-.12,10.01-.4l5.42-.46v22.25s-5.5-.49-5.52-.49l-.48,3.25q-.24,1.61-.51,9.66c-.36,12.02-1.75,22.57-3.61,27.51-3.37,8.8-9.66,10.52-19.38,10.52-2.52,0-5.23-.17-8.78-.43l-4.2-.32-.4-4.19c-.37-3.85-.94-6.26-2.2-9.19-3.88,5.88-8.17,10.02-14.83,14.48l-4.36,2.92-2.71-4.49Zm27.39-19.82c3.46.64,7.58,1.11,9.8,1.11.22,0,.41,0,.56-.01.49-1.83,1.2-6.18,1.59-13.23h-9.33c-1,4.32-2.31,8.17-4.06,11.88l1.44.27Z"/><path class="cls-5" d="m647.24,258.79v11.34c-3.15-.28-6.79-.42-10.29-.42h-24.16c-.14,4.06-.21,5.81-.42,8.26h19.12c4.48,0,7.21-.07,9.8-.35q-.28,1.89-.56,10.22c-.35,11.55-1.68,21.64-3.29,25.91-2.17,5.67-5.46,7.28-14.71,7.28-2.24,0-4.69-.14-8.4-.42-.42-4.41-1.12-7.28-2.59-10.71,3.78.7,8.19,1.19,10.71,1.19,2.66,0,3.99-.56,4.76-1.96,1.26-2.52,2.31-10.78,2.59-21.29h-18.63c-1.26,7.21-3.22,12.81-6.37,18.35-4.06,7-8.05,11.2-15.27,16.04-2.45-4.06-4.41-6.58-7.63-9.52,5.67-3.5,8.47-6.02,11.41-10.15,4.06-5.6,6.51-12.53,7.56-21.22.49-3.64.63-5.95.7-11.62h-7.77c-3.64,0-7.42.14-10.57.42v-11.34c3.08.28,6.44.42,10.5.42h43.06c3.92,0,7.14-.14,10.43-.42m-74-10.95v33.22l10.89-.97c2.02-.18,4.39-.3,6.88-.35-.01.09-.02.17-.04.26v.07s-.02.07-.02.07c-.84,6.98-2.72,12.39-5.73,16.55l-.03.03-.02.03c-1.92,2.69-3.6,4.41-8.52,7.44l-11.27,6.96,9.78,8.93c2.4,2.19,3.76,3.9,5.81,7.31l5.42,8.98,8.71-5.84c3.72-2.49,6.76-4.89,9.41-7.5l.66,6.92,8.4.63c3.68.28,6.49.45,9.15.45,9.76,0,19.43-1.66,24.04-13.71v-.02s.02-.02.02-.02c3.07-8.16,3.78-24.36,3.93-29.13.16-4.82.22-6.64.29-7.64l6.22.55v-33.16l-10.85.92c-3.12.27-6.08.38-9.59.38h-43.06c-3.7,0-6.75-.12-9.6-.38l-10.9-.99h0Zm45.9,50.01h.08c-.11,1.14-.22,2.14-.34,3-.22-.02-.44-.05-.67-.08.33-.96.64-1.93.93-2.92h0Z"/><path class="cls-8" d="m654.48,332.61l.72-5.63c.32-2.49.45-4.96.45-8.54v-46.57c0-3.07-.07-4.83-.26-6.71l-.6-5.96,5.97.48c2.52.2,4.49.26,8.77.26h42.43c4.51,0,6.6-.06,8.27-.25l6.35-.71-.85,6.34c-.24,1.76-.31,3.67-.31,8.16v45.24c0,6.24-3.13,10.87-8.38,12.42-2.03.63-4.9.92-9.29.92-1.67,0-4.03-.05-6.76-.11l-5.57-.12-.66-4.12c-.56-3.49-1.22-5.61-2.82-9.05l-3.65-7.87,8.64.79c3.37.31,5.88.49,7.71.57v-4.45h-28.16v11.11c0,4.61.07,6.65.29,8.06l.89,5.76h-23.2Zm50.19-44.87v-7.65h-4.14v7.65h4.14Zm-24.72,0v-7.65h-3.44v7.65h3.44Z"/><path class="cls-5" d="m720.8,264.65c-.28,2.1-.35,4.27-.35,8.82v45.23c0,4.06-1.68,6.72-4.83,7.63-1.54.49-4.2.7-7.84.7-1.89,0-4.76-.07-8.05-.14-.63-3.92-1.4-6.44-3.22-10.36,4.62.42,7.77.63,9.87.63,2.73,0,3.29-.28,3.29-1.54v-12.95h-38.16v16.11c0,4.62.07,7,.35,8.82h-11.69c.35-2.73.49-5.39.49-9.17v-46.57c0-3.22-.07-5.11-.28-7.21,2.59.21,4.62.28,9.17.28h42.43c4.69,0,6.93-.07,8.82-.28m-25.28,28.08h14.14v-17.65h-14.14v17.65m-24.02,0h13.44v-17.65h-13.44v17.65m60.9-39.43l-12.71,1.41c-1.45.16-3.47.22-7.72.22h-42.43c-4.55,0-6.26-.08-8.36-.25l-11.95-.97,1.19,11.93c.17,1.72.23,3.29.23,6.22v46.57c0,3.35-.12,5.64-.41,7.9l-1.44,11.27h34.71l-1.77-11.52c-.19-1.27-.23-3.73-.23-7.3v-6.11h2.18l3.75,8.08c1.41,3.03,1.93,4.7,2.42,7.74l1.32,8.23,8.33.18,1.52.03c2.71.06,5.04.11,6.75.11,4.96,0,8.18-.34,10.74-1.13,7.36-2.19,11.93-8.77,11.93-17.2v-45.23c0-4.24.06-5.99.26-7.5l1.69-12.68h0Z"/><path class="cls-13" d="m813.44,254.33c-1.76,4.82-2.5,6.58-4.82,11.77v53.76c0,4.17.09,6.12.46,10.66h-14.74c.37-3.8.56-6.4.56-10.66v-27.35q.09-1.76.09-6.4-.83,1.21-2.5,3.62c-.56.83-1.21,1.58-2.32,2.87-1.3-6.77-2.41-10.85-4.73-17.06,5.56-5.65,9.92-12.88,13.26-22.06,1.76-4.63,2.6-7.79,3.06-11.59l14.74,3.24c-.19.56-1.21,3.62-1.85,5.65,2.13.19,3.8.28,6.95.28h2.13v-1.21c0-2.78-.19-4.63-.56-6.67h14.65c-.28,1.58-.37,3.43-.37,6.77v1.11h9.36v-1.3c0-3.15-.09-4.82-.46-6.58h14.83c-.37,1.85-.46,3.8-.46,6.67v1.21h3.52c3.61,0,6.02-.09,8.62-.46v13.16c-2.6-.28-4.54-.37-8.53-.37h-3.62v5.56h4.36c4.91,0,7.04-.09,9.27-.46v13.44c-2.32-.37-4.82-.46-9.55-.46h-44.03c-4.63,0-7.14.09-9.64.46v-13.44c2.13.37,4.63.46,9.46.46h3.15v-5.56h-2.13c-3.8,0-5.84.09-8.16.37v-9.46Zm2.41,38.75c0-3.99-.09-6.03-.37-8.44,2.32.28,4.36.37,8.62.37h35.6c4.91,0,7.14-.09,8.99-.37-.28,2.23-.37,4.36-.37,8.81v25.03c0,4.82.09,8.34.46,12.05h-14.28v-3.43h-25.03v3.43h-14.18c.37-3.71.56-7.04.56-11.12v-26.33Zm13.63,7.32h25.03v-4.17h-25.03v4.17Zm0,15.02h25.03v-4.36h-25.03v4.36Zm17.33-46.44v-5.56h-9.36v5.56h9.36Z"/><path class="cls-13" d="m911.33,245.99c-1.3,3.89-2.41,9.92-3.8,19.84,6.03-10.85,13.53-16.04,23.45-16.04,6.3,0,12.51,3.15,16.78,8.44,5.19,6.49,7.69,14.92,7.69,25.77,0,15.2-4.73,26.51-14.18,33.93-5.28,4.17-12.7,7.6-21.14,9.64-3.15.83-5.56,1.3-10.94,2.13-2.23-6.95-3.43-9.55-7.42-15.85,26.6-1.58,37.36-10.29,37.36-30.31,0-11.59-3.71-17.98-10.29-17.98-3.43,0-6.58,1.67-10.01,5.38-5.56,5.84-9.18,13.53-10.29,21.51-.28,2.13-.37,3.24-.37,7.6l-15.57.18c.09-.65.09-1.21.09-1.58v-1.85c-.18-3.62-.28-9.18-.28-11.77,0-11.22.65-21.88,2.13-33.83.28-2.69.37-3.71.37-5.1v-.74l16.41.65Z"/><path class="cls-13" d="m997.99,264.25c-1.3,5-2.87,13.72-3.99,22.53,7.79-5.01,15.94-7.23,26.51-7.23,16.5,0,27.44,8.62,27.44,21.78,0,7.97-3.8,15.11-10.47,19.65-6.67,4.54-15.11,6.67-26.51,6.67-7.6,0-14.18-.74-23.27-2.78-.28-7.69-.65-10.66-2.13-16.5,9.18,2.87,17.8,4.36,24.75,4.36,12.24,0,20.39-4.36,20.39-10.94,0-4.91-4.82-7.79-13.16-7.79-6.95,0-14,1.85-20.3,5.56-2.41,1.3-3.34,2.13-5.19,4.17l-15.39-.65c.19-.83.19-.93.28-1.85.46-4.45,2.41-19.28,4.26-32.07.28-2.04.46-3.52.56-5.93l16.22,1.02Zm-1.67-20.39c4.54,2.32,10.1,4.26,18.91,6.58,6.3,1.67,14.28,3.34,18.63,3.99l-4.91,14.92c-16.78-3.43-29.2-7.14-40.04-12.14l7.42-13.35Z"/><path class="cls-13" d="m1059.91,300.68c2.5-1.95,3.99-3.24,6.49-5.65,6.21-6.3,9.64-9.64,10.1-10.2.09-1.48.19-4.17.28-10.2q-10.38.65-13.81,1.21l-.74-14.65c2.13.19,3.25.28,4.82.28,2.32,0,6.21-.19,10.1-.46q.09-1.11.09-2.97c.09-1.95.19-4.26.19-6.4,0-2.87-.09-3.8-.37-6.12l16.41.37c-.37,2.22-.93,8.06-1.11,13.72l5.1,4.82c-1.67,1.21-3.52,3.34-5.84,6.3l-.09,1.3c0,1.02,0,1.21-.09,2.04,11.59-10.75,21.13-15.94,29.29-15.94,8.99,0,14.92,5.75,14.92,14.46,0,3.15-.56,6.21-2.41,14-2.87,11.68-3.99,17.52-3.99,19.84,0,1.67.83,2.69,2.22,2.69s3.34-1.58,5.1-4.17c2.32-3.34,4.45-7.14,5.56-9.92,2.13,5.84,3.71,8.9,7.79,14.92-7.14,11.68-13.16,16.13-22.06,16.13s-14.55-5.84-14.55-14.92c0-5.19.93-10.75,4.08-24.66,1.11-4.91,1.67-8.06,1.67-9.55,0-1.67-1.02-2.6-2.69-2.6-2.22,0-5.47,1.39-8.81,3.8-6.21,4.36-12.05,9.55-16.04,14.28-.09,4.36-.09,7.04-.09,9.73,0,13.16.28,22.62.74,26.23l-16.78.09c.56-3.34.83-8.34.83-14.18v-9.73c-6.58,7.88-8.07,9.73-9.18,11.59l-7.14-15.48Z"/><path class="cls-13" d="m1168.92,248.4c3.89.46,7.32.65,13.35.65,8.25,0,18.54-.37,27.9-1.11,4.08-.28,5.28-.56,7.04-1.3l7.6,11.22q-2.41,1.39-14.92,12.14c-4.91,4.17-6.58,5.56-12.79,10.1,5.19-1.3,7.88-1.67,12.7-1.67,8.71,0,14.92,2.04,19.84,6.3,4.45,3.99,6.77,9.36,6.77,16.04,0,9.36-4.36,16.78-12.79,21.78-6.4,3.71-15.29,5.84-24.56,5.84-15.67,0-25.21-6.21-25.21-16.5,0-8.62,7.69-14.83,18.45-14.83,6.67,0,12.61,2.6,16.59,7.14,1.85,2.04,2.87,3.89,4.26,7.32,5-2.22,7.32-5.38,7.32-10.1,0-6.49-6.3-10.47-16.59-10.47s-20.21,3.06-28.55,8.53c-2.87,1.85-5.84,4.17-8.9,6.95l-8.62-14.09c8.53-3.99,28.09-19.19,39.58-30.59-4.91.56-8.62.74-21.69,1.39-2.5.09-4.26.28-6.12.46l-.65-15.2Zm22.99,60.44c-2.13,0-3.62,1.21-3.62,3.06,0,2.5,2.97,4.08,7.97,4.08,1.11,0,1.3,0,3.06-.28-1.21-4.45-3.8-6.86-7.42-6.86Z"/><path class="cls-10" d="m121.8,343.01c-19.29,3.26-21.16,5.9-23.48,33.03-2.31-27.13-4.2-29.77-23.48-33.03,19.29-3.26,21.16-5.9,23.48-33.03,2.31,27.13,4.2,29.77,23.48,33.03Z"/><path class="cls-11" d="m149.8,200.01c-8.61,1.45-9.45,2.63-10.48,14.75-1.03-12.11-1.87-13.29-10.48-14.75,8.61-1.45,9.45-2.63,10.48-14.75,1.03,12.11,1.87,13.29,10.48,14.75Z"/><path class="cls-8" d="m641.99,152.53h-219.85c-25.93,0-47.02-21.09-47.02-47.02s21.09-47.02,47.02-47.02h486.5c25.93,0,47.02,21.09,47.02,47.02s-21.09,47.02-47.02,47.02h-210.46l-29.24,24.45-26.95-24.45Z"/><path class="cls-12" d="m908.64,58.99c25.69,0,46.52,20.83,46.52,46.52s-20.83,46.52-46.52,46.52h-210.64l-29.05,24.28-26.77-24.28h-220.04c-25.69,0-46.52-20.83-46.52-46.52s20.83-46.52,46.52-46.52h486.5m0-1h-486.5c-26.2,0-47.52,21.32-47.52,47.52s21.32,47.52,47.52,47.52h219.66l26.48,24.03.65.58.67-.56,28.77-24.05h210.28c26.2,0,47.52-21.32,47.52-47.52s-21.32-47.52-47.52-47.52h0Z"/><text class="cls-2" transform="translate(533.93 121.87)"><tspan class="cls-7" x="0" y="0">お金</tspan><tspan class="cls-16" x="112.82" y="0">が必要な方へ</tspan></text><path class="cls-6" d="m523.59,94.52c0,8.76-8.8,16.03-11.37,23.93-2.66,8.19.1,19.23-4.87,26.05-5.01,6.89-16.39,7.65-23.28,12.66-6.82,4.96-11.03,15.58-19.23,18.24-7.91,2.57-17.52-3.46-26.28-3.46s-18.37,6.03-26.28,3.46c-8.19-2.66-12.41-13.28-19.23-18.24-6.89-5.01-18.27-5.78-23.28-12.66-4.96-6.82-2.2-17.85-4.87-26.05-2.57-7.91-11.37-15.17-11.37-23.93s8.8-16.03,11.37-23.93-.1-19.23,4.87-26.05c5.01-6.89,16.39-7.65,23.28-12.66,6.82-4.96,11.03-15.58,19.23-18.24,7.91-2.57,17.52,3.46,26.28,3.46s18.37-6.03,26.28-3.46c8.19,2.66,12.41,13.28,19.23,18.24,6.89,5.01,18.27,5.78,23.28,12.66,4.96,6.82,2.2,17.85,4.87,26.05,2.57,7.91,11.37,15.17,11.37,23.93Z"/><path class="cls-5" d="m514.17,94.52c0,7.79-7.83,14.25-10.11,21.28-2.37,7.29.09,17.1-4.33,23.16-4.46,6.13-14.58,6.8-20.7,11.26-6.07,4.41-9.81,13.85-17.1,16.22-7.03,2.28-15.58-3.08-23.37-3.08s-16.34,5.36-23.37,3.08c-7.29-2.37-11.03-11.81-17.1-16.22-6.13-4.46-16.24-5.14-20.7-11.26-4.41-6.07-1.96-15.88-4.33-23.16-2.28-7.03-10.11-13.49-10.11-21.28s7.83-14.25,10.11-21.28c2.37-7.29-.09-17.1,4.33-23.16,4.46-6.13,14.58-6.8,20.7-11.26,6.07-4.41,9.81-13.85,17.1-16.22,7.03-2.28,15.58,3.08,23.37,3.08s16.34-5.36,23.37-3.08c7.29,2.37,11.03,11.81,17.1,16.22,6.13,4.46,16.24,5.14,20.7,11.26,4.41,6.07,1.96,15.88,4.33,23.16s10.11,13.49,10.11,21.28Z"/><text class="cls-9" transform="translate(416.2 86.53)"><tspan class="cls-3"><tspan x="0" y="0">今</tspan></tspan><tspan class="cls-15" x="-21.61" y="47.31">す</tspan><tspan class="cls-4" x="22.59" y="47.31">ぐ</tspan></text></g></svg>