<?xml version="1.0" encoding="UTF-8"?><svg id="Layer_2" xmlns="http://www.w3.org/2000/svg" xmlns:xlink="http://www.w3.org/1999/xlink" viewBox="0 0 1350.74 382.22"><defs><style>.cls-1,.cls-2{fill:none;}.cls-3{fill:#999;opacity:.1;}.cls-4{clip-path:url(#clippath);}.cls-5{fill:#f15a24;}.cls-6{fill:#fff;}.cls-7{fill:#fcee21;}.cls-8{fill:#b4bec1;}.cls-9{fill:#333;}.cls-10{fill:#c9d2d6;}.cls-11{fill:#dce1e2;}.cls-12{fill:#229ef2;}.cls-13{fill:#0679b7;}.cls-2{stroke:#4f4f4f;stroke-dasharray:0 0 11.93 19.88;stroke-miterlimit:10;stroke-width:3px;}</style><clipPath id="clippath"><path class="cls-1" d="M363.01,67.33c-.62-2.11-2.84-3.32-4.96-2.7s-3.32,2.84-2.7,4.96c.37,1.26,1.31,2.18,2.46,2.6h-.02s1.5,5.1,1.5,5.1c.29,.99,1.33,1.56,2.33,1.27l1-.3c.99-.29,1.56-1.33,1.27-2.33l-1.5-5.1h-.02c.73-.97,1.02-2.26,.65-3.51Z"/></clipPath></defs><g id="Layer_1-2"><g><g><g><path class="cls-6" d="M62.82,313.53c-1.6,.21-1.92,.21-4.05,.64-4.16,.75-10.88,1.6-16.11,2.13v9.39c6.19-1.39,9.92-1.81,15.57-1.81,13.12,0,22.93,3.31,29.12,9.71,4.69,4.8,7.25,11.52,7.25,18.88,0,15.04-11.41,26.34-26.56,26.34-13.23,0-20.91-8.85-20.91-24.21v-2.67c7.79-2.24,10.35-3.31,16.21-6.51-.11,2.24-.21,3.41-.21,5.65,0,3.31,.21,5.12,.85,6.72,.75,1.92,2.56,3.2,4.69,3.2,4.59,0,7.68-3.73,7.68-9.17,0-3.63-1.92-7.15-5.23-9.39-2.88-1.81-7.04-2.77-12.69-2.77-5.23,0-9.6,.53-15.68,2.13l.11,18.88v2.77c0,6.51-.43,8.85-2.03,11.09-2.03,2.99-6.08,4.69-10.88,4.69-7.89,0-16.96-3.31-23.04-8.43-4.37-3.73-6.93-8.75-6.93-13.87,0-5.76,3.52-12.05,9.92-17.71,4.27-3.73,8.75-6.4,15.89-9.49v-12.59l-8.11,.21-10.35-.21c-.32,0-1.28,0-2.24,.11l-.21-16.75c3.41,.64,7.79,.96,14.61,.96h4.05q1.49-.11,2.13-.11v-3.41c0-8-.11-10.45-.75-14.4h18.45c-.53,3.84-.64,6.29-.64,13.33v3.41c7.25-.75,13.87-2.03,19.52-3.63l.53,16.85Zm-37.01,33.81c-5.01,2.35-8.85,6.51-8.85,9.49,0,1.28,.75,2.35,2.35,3.41,1.49,.96,3.52,1.71,4.8,1.71,1.39,0,1.71-.75,1.71-4.27v-10.35Zm59.62-23.46c-5.44-9.49-11.52-16.75-21.01-25.07l14.08-9.49c9.07,7.36,15.68,14.83,21.01,23.57l-14.08,10.99Z"/><path class="cls-6" d="M115.3,295.29c2.67,.21,3.84,.32,6.51,.32,2.88,0,31.57-.75,41.49-1.07-.11-6.83-.21-8.21-.75-11.31h18.88c-.43,3.73-.53,4.91-.53,10.88,17.71-.11,25.6-.32,29.86-.75l.11,17.49c-4.8-.43-6.93-.53-19.2-.53-5.65,0-6.4,0-10.67,.11v15.79c3.09,5.65,4.27,10.67,4.27,17.81,0,11.95-6.19,22.4-17.6,29.54-5.23,3.2-11.31,5.65-21.44,8.64-2.99-7.57-5.33-11.52-10.13-16.85,10.77-1.6,16.85-3.31,21.97-6.51,3.95-2.35,6.19-4.69,7.89-8.43-4.48,3.73-8.11,5.01-14.29,5.01-12.37,0-21.12-8.11-21.12-19.52,0-12.16,10.03-20.48,24.74-20.48,3.41,0,5.87,.32,8.32,1.17v-3.31q0-1.49-.11-2.56c-22.08,.64-39.46,1.6-47.68,2.77l-.53-18.24Zm33.17,39.78c0,3.31,2.99,5.76,7.04,5.76,4.59,0,8.11-2.77,8.11-6.4,0-3.31-2.77-5.55-7.04-5.55-4.69,0-8.11,2.56-8.11,6.19Z"/><path class="cls-6" d="M227.18,295.29c2.67,.21,3.84,.32,6.51,.32,2.88,0,31.57-.75,41.49-1.07-.11-6.83-.21-8.21-.75-11.31h18.88c-.43,3.73-.53,4.91-.53,10.88,17.71-.11,25.6-.32,29.86-.75l.11,17.49c-4.8-.43-6.93-.53-19.2-.53-5.65,0-6.4,0-10.67,.11v15.79c3.09,5.65,4.27,10.67,4.27,17.81,0,11.95-6.19,22.4-17.6,29.54-5.23,3.2-11.31,5.65-21.44,8.64-2.99-7.57-5.33-11.52-10.13-16.85,10.77-1.6,16.85-3.31,21.97-6.51,3.95-2.35,6.19-4.69,7.89-8.43-4.48,3.73-8.11,5.01-14.29,5.01-12.37,0-21.12-8.11-21.12-19.52,0-12.16,10.03-20.48,24.74-20.48,3.41,0,5.87,.32,8.32,1.17v-3.31q0-1.49-.11-2.56c-22.08,.64-39.46,1.6-47.68,2.77l-.53-18.24Zm33.17,39.78c0,3.31,2.99,5.76,7.04,5.76,4.59,0,8.11-2.77,8.11-6.4,0-3.31-2.77-5.55-7.04-5.55-4.69,0-8.11,2.56-8.11,6.19Z"/><path class="cls-6" d="M367.43,287.61c.11,5.23,.96,10.56,2.24,15.79,5.65-2.13,12.16-3.31,18.24-3.31h2.35c2.24-9.28,2.67-11.84,2.77-15.79l18.77,3.52c-.43,.96-1.07,2.99-1.92,5.97-1.6,5.55-2.35,8.53-2.45,8.85,6.29,1.92,10.03,3.84,14.19,7.36,8,6.72,12.16,15.89,12.16,26.99,0,16.96-9.49,30.61-25.81,37.22-5.76,2.35-11.09,3.95-19.2,5.55-2.13-7.47-4.16-11.63-8.53-17.81,11.2-.96,19.73-3.41,25.06-7.04,6.61-4.59,9.81-10.99,9.81-19.41s-3.84-13.87-12.27-17.38c-5.76,16.75-11.2,28.05-18.03,37.22-8.85,11.95-16.96,17.39-26.02,17.39-12.91,0-21.65-11.09-21.65-27.41,0-13.54,5.97-25.49,17.17-34.02-1.28-5.12-1.92-7.79-3.09-13.65-.75-3.63-.96-4.27-1.92-6.51l18.13-3.52Zm-13.76,56.53c0,6.51,2.35,10.56,5.97,10.56,2.13,0,4.37-1.49,6.61-4.48-3.31-7.15-5.12-12.27-7.36-20.69-3.2,3.95-5.23,9.6-5.23,14.61Zm24.1-9.28c3.84-7.36,5.65-11.73,7.89-18.88-5.44,.21-8.75,.96-12.91,2.99,1.49,6.19,2.77,10.03,5.01,15.89Z"/></g><g><path class="cls-12" d="M498.26,302.81c.32-4.16,.53-10.35,.53-13.65,0-2.24,0-3.09-.32-5.33l20.05,.53c-.53,2.45-.53,2.77-1.17,12.91q-.11,2.88-.32,5.44h23.25c3.52,0,4.8-.21,7.15-1.17l8.32,7.25c-1.17,2.13-1.39,2.99-1.49,7.89-.75,22.83-2.35,40.64-4.48,47.68-3.09,9.92-8.21,13.33-20.05,13.33-4.16,0-5.76-.11-13.97-.85-.43-8.53-1.17-12.05-3.63-18.77,5.33,1.39,10.56,2.13,13.87,2.13,5.12,0,6.4-1.71,7.79-10.99,1.07-7.15,2.03-20.59,2.03-29.76h-20.37q-.85,7.04-1.6,10.67c-4.69,21.54-14.83,35.41-36.48,49.7-4.8-7.57-8-11.2-13.87-16.21,14.19-7.47,22.4-15.04,27.73-25.81,2.67-5.44,3.84-9.28,5.33-18.24h-13.33c-7.15,0-9.39,.11-14.4,.64l-.11-18.24c5.33,.75,7.25,.85,14.83,.85h14.72Z"/><path class="cls-12" d="M579.53,321.26c5.01,.75,10.77,.96,21.87,.96h50.98c10.67,0,14.72-.21,21.87-.96v20.59c-5.12-.53-9.81-.64-21.97-.64h-50.77c-11.95,0-15.47,.11-21.97,.64v-20.59Z"/><path class="cls-12" d="M706.88,378.54c.43-4.48,.53-7.57,.64-16.32v-62.08c-.11-9.17-.11-9.71-.75-15.47h20.59c-.43,2.77-.43,4.48-.53,15.57v14.61c16.85,5.44,33.6,13.01,48.53,22.18l-10.13,18.13c-8.85-6.29-21.23-13.12-33.6-18.56-3.2-1.28-3.52-1.39-3.84-1.6-.32-.11-.53-.21-.96-.53v27.73c0,7.89,.21,13.55,.64,16.32h-20.58Zm48.21-87.89c4.16,4.69,7.57,9.6,10.56,15.25l-10.13,4.91c-3.52-6.72-6.29-10.67-10.56-15.57l10.13-4.59Zm14.19-6.4c3.95,4.27,6.93,8.32,10.67,14.83l-9.81,4.8c-3.73-6.72-6.72-10.99-10.45-15.25l9.6-4.37Z"/><path class="cls-12" d="M824.74,368.94v7.36h-19.41c.64-5.87,.85-9.49,.85-17.39v-54.82c0-4.59-.11-7.89-.43-12.27,3.73,.32,5.87,.43,12.91,.43h57.49c6.61,0,8.21,0,13.23-.43-.21,3.73-.32,7.57-.32,12.59v54.08c0,8.21,.21,13.33,.75,17.6h-19.31v-7.15h-45.76Zm45.76-59.62h-45.76v42.56h45.76v-42.56Z"/><path class="cls-12" d="M916.14,321.26c5.01,.75,10.77,.96,21.87,.96h50.98c10.67,0,14.72-.21,21.87-.96v20.59c-5.12-.53-9.81-.64-21.97-.64h-50.77c-11.95,0-15.47,.11-21.97,.64v-20.59Z"/><path class="cls-12" d="M1042.64,289.69c13.44,7.89,20.37,12.8,29.33,20.9l-12.59,16.64c-9.28-9.71-18.35-16.74-29.01-22.5l12.27-15.04Zm-11.2,66.23c10.88-.85,22.08-3.52,32.1-7.68,13.44-5.55,23.04-13.55,31.25-26.34,4.48-6.83,7.36-12.69,10.45-20.91,5.23,6.29,7.68,8.43,15.68,14.29-9.71,21.01-19.84,33.6-34.77,43.2-11.52,7.47-21.65,11.41-41.49,16-4.16,.96-4.8,1.07-7.68,1.92l-5.55-20.48Z"/><path class="cls-12" d="M1159.85,376.17c-11.4,0-14.31,.13-19,.51,.51-6.21,1.14-10.01,2.66-14.95,3.29-10.51,9.37-20.14,18.24-28.37,4.81-4.43,9.63-8.11,22.55-16.85,10.89-7.35,13.55-10.64,13.55-16.47s-5.45-10.13-13.55-10.13c-6.08,0-10.39,2.03-13.17,6.33-1.77,2.79-2.53,5.32-3.17,10.64l-26.6-2.79c1.9-11.02,4.18-16.59,9.25-22.55,7.22-8.49,18.75-13.05,33.57-13.05,17.1,0,30.15,5.7,36.48,15.96,2.79,4.43,4.18,9.37,4.18,14.82,0,9.25-3.8,17.1-11.65,23.56-4.18,3.67-5.45,4.56-18.37,13.55-11.02,7.6-15.71,12.03-18.62,17.61h29.51c9.5,0,15.33-.25,20.27-.89v23.94c-7.35-.63-12.67-.89-21.66-.89h-44.46Z"/><path class="cls-12" d="M1275.65,357.85c3.31,4.8,6.08,6.51,11.41,7.25-2.99-3.63-3.52-4.27-8.32-8.64,6.4-1.17,9.92-2.13,15.04-3.95h-8.21c-3.84,0-5.44,.11-7.57,.43v-12.37c2.35,.32,3.41,.43,7.36,.43h5.44v-4.69h-.96c-5.87,0-7.15,.11-10.03,.43v-12.05c2.77,.32,3.95,.32,10.03,.32h.96v-3.84c-6.08,0-8.32-.21-9.92-.85-2.56-1.07-3.63-2.99-3.63-6.4v-11.31l-10.45,10.45c-5.97-8-9.81-12.16-18.45-19.52l11.95-11.63c7.25,5.97,12.16,10.77,16.96,16.32,2.67,.21,3.31,.21,7.79,.21h9.81v-3.09h-10.13c-4.8,0-6.29,0-8.96,.32v-11.95c2.77,.21,5.76,.32,9.17,.32h15.04c5.55,0,7.15,0,9.49-.21-.32,1.07-.32,1.92-.32,3.73l.11,2.13v11.41c0,3.09,0,4.8,.21,6.19-2.56-.11-4.69-.21-7.15-.21h-11.52v2.35c0,1.6,.32,1.81,3.31,1.81,1.92,0,3.2-.21,3.73-.53,.32-.32,.64-1.39,.64-2.77v-.64c4.69,1.71,8,2.56,12.37,3.09-.75,6.4-1.49,7.89-4.8,9.49v5.12h11.31v-4.59c-3.2-1.07-4.59-3.2-4.59-6.61v-8.64q0-3.31-.32-6.93c2.67,.21,3.52,.21,8.11,.21h9.71v-3.09h-9.07c-4.8,0-6.29,0-8.96,.32v-11.95c2.77,.21,5.76,.32,9.17,.32h14.61c5.55,0,7.15,0,9.49-.21-.21,1.28-.21,2.03-.21,3.63v13.65c0,3.2,0,4.8,.21,6.19-2.56-.11-4.69-.21-7.15-.21h-11.31v2.45c0,1.39,.75,1.81,3.63,1.81,1.81,0,3.41-.21,3.84-.64q.32-.32,.64-2.13v-1.28c3.95,1.39,8,2.24,13.33,2.88-.53,5.55-1.49,7.79-3.84,9.17-1.92,1.17-4.37,1.49-12.16,1.71v3.95h3.52c5.97,0,7.15,0,9.92-.32v12.05c-2.99-.32-4.16-.43-9.92-.43h-3.41v4.69h5.44c6.08,0,7.25,0,10.13-.32v12.16c-3.09-.32-4.27-.32-10.13-.32h-7.36c5.97,1.92,10.03,2.88,17.39,3.73-2.99,3.09-3.31,3.63-6.29,8.21,2.56-.21,4.16-.43,8.96-1.07-2.13,5.76-3.09,10.13-3.95,16.75-9.39,.32-24.53,.53-40.64,.53s-21.87-.53-26.98-2.35c-4.27-1.49-7.36-3.63-11.09-7.79-4.59,4.16-6.51,5.65-14.19,11.2l-6.93-17.17c3.09-1.07,7.36-3.73,12.91-8.11v-20.16h-4.37c-2.35,0-3.84,.11-6.61,.53v-16.11c2.99,.43,4.69,.53,8.75,.53h10.24c4.37,0,5.33,0,8-.32-.21,3.09-.21,4.16-.21,11.95v24.96Zm35.2-.53c-5.97,3.73-11.09,6.19-17.71,8.43,3.41,.11,8.21,.21,13.01,.21,5.76,0,17.71-.32,23.46-.64-5.23-1.71-9.39-3.73-16-8l6.83-4.8h-16.96l7.36,4.8Zm-4.8-16.32h11.31v-4.69h-11.31v4.69Z"/></g></g><g><g><path class="cls-12" d="M316.27,179.97c0-3.64-.17-6.5-.52-9.36h14.47c-.35,2.43-.52,5.37-.52,9.36v20.97h15.34l-9.97-5.81c5.29-7.19,7.97-12.04,11.87-21.4l12.74,5.81c-4.68,9.19-7.8,14.56-12.56,21.4h4.51c3.21,0,4.51-.09,7.02-.35-.26,2.25-.35,4.42-.35,7.8v33.28c0,5.03,.17,8.23,.52,10.92h-13.86v-3.9h-47.66c-4.68,0-8.23,.17-10.75,.52v-13c2.6,.35,5.29,.43,10.14,.43h48.44v-6.15h-46.45c-4.42,0-6.67,.09-8.93,.26v-12.13c1.91,.26,4.42,.35,8.75,.35h46.62v-5.72h-48.09c-4.16,0-6.85,.09-9.79,.35v-13.17c3.29,.35,5.81,.52,9.79,.52h2.17c-4.07-8.41-7.8-14.38-12.91-20.8l11.53-6.41c6.41,8.49,9.97,13.95,13.6,21.32l-11.18,5.89h16.03v-20.97Z"/><path class="cls-12" d="M425.11,189.33v-5.72c0-4.94-.09-7.54-.43-9.71h15.6q-.35,2.6-.43,15.42h3.38c6.5,0,8.93-.09,12.48-.61v14.82c-4.16-.35-6.59-.43-12.22-.43h-3.81c-.17,6.85-.26,8.75-.61,12.05-1.3,11.7-5.2,19.58-12.83,26.17-4.68,4.07-9.19,6.5-17.94,9.79-2.77-5.72-4.77-8.49-9.45-13.26,8.41-2.51,12.82-4.51,16.72-7.63,5.89-4.68,8.41-10.31,9.1-20.02,.09-1.56,.09-2.17,.17-7.11h-18.28v9.71c0,4.25,.09,6.59,.35,8.93h-15.86c.35-2.43,.52-5.29,.52-9.1v-9.53h-3.21c-6.24,0-7.37,0-12.22,.43v-14.82c3.9,.52,5.63,.61,12.48,.61h2.95v-6.33c0-4.07-.09-5.98-.52-9.19h15.86c-.35,3.47-.35,3.73-.35,8.84v6.67h18.54Z"/><path class="cls-12" d="M543.48,181.79c-1.91,1.65-1.99,1.73-3.38,3.21-6.85,7.02-13,12.39-20.02,17.42v33.36c0,7.11,.09,9.36,.52,14.04h-16.81c.43-4.59,.52-6.5,.52-13.95v-23.92c-9.01,5.29-15.94,8.41-28.34,12.83-2.34-5.81-4.07-8.67-8.32-13.95,18.8-5.29,32.06-11.79,46.01-22.53,7.45-5.63,13.26-11.52,15.77-15.86l14.04,9.36Z"/><path class="cls-12" d="M570,249.38c.35-3.9,.52-6.41,.52-13.26v-50.43c0-7.02-.09-7.89-.61-12.56h16.72c-.35,2.51-.43,6.85-.43,12.65v11.87c14.73,4.85,25.91,9.97,39.43,18.02l-8.23,14.73c-8.41-5.81-18.63-11.44-27.3-15.08q-3.03-1.21-3.9-1.73v22.53c0,5.81,.17,10.14,.52,13.26h-16.72Z"/></g><g><path class="cls-6" d="M756.92,209.17c-6.19-.64-11.84-.85-18.35-.85h-60.48c-6.51,0-12.05,.21-18.45,.85v-18.56c5.65,.64,10.67,.85,18.45,.85h60.48c8.21,0,13.55-.21,18.35-.85v18.56Z"/><path class="cls-6" d="M784.01,184.75c-2.45,0-4.8,.11-7.57,.43v-15.68c2.56,.43,4.69,.53,7.79,.53h2.56v-7.36c0-5.76-.11-8-.53-10.99h16.85c-.43,2.99-.53,5.23-.53,10.88v7.47h1.92c1.81,0,2.45,0,4.69-.32v15.36c-.32-.11-.64-.11-.85-.11-1.39-.11-2.45-.21-3.84-.21h-1.92v11.31c2.03-.64,3.41-1.07,6.61-2.13v15.36c-3.41,1.28-3.95,1.49-6.61,2.35v26.77c0,10.56-3.31,13.44-15.79,13.44-2.45,0-4.16-.11-7.79-.32-.53-6.4-1.07-9.49-2.77-15.25,3.52,.43,5.44,.53,7.36,.53,2.56,0,3.2-.64,3.2-3.41v-16.75q-.75,.21-5.97,1.6c-.85,.21-2.13,.64-3.95,1.28l-1.49-16.43c2.45-.11,6.08-.96,11.41-2.35v-16h-2.77Zm42.98,35.41v5.12h-15.79c.32-2.88,.43-5.87,.43-10.35v-48.64c0-5.44-.11-8.21-.43-11.63,3.09,.32,6.29,.43,11.63,.43h38.29c5.44,0,9.07-.11,11.95-.43-.32,3.31-.43,5.87-.43,11.84v46.5c0,4.48,.11,7.79,.43,11.73h-16.32v-4.59h-7.04v18.24c0,5.76,.21,9.39,.64,13.76h-17.17c.43-4.59,.64-8.43,.64-13.76v-18.24h-6.83Zm-.21-50.56v10.99h7.04v-10.99h-7.04Zm0,24.64v11.2h7.04v-11.2h-7.04Zm22.93-13.65h7.25v-10.99h-7.25v10.99Zm0,24.85h7.25v-11.2h-7.25v11.2Z"/><path class="cls-6" d="M924.26,156.27c-1.17,6.72-2.45,35.2-2.45,53.01,0,10.67,.43,13.87,2.24,16.75,2.03,3.2,6.61,5.12,12.48,5.12,10.99,0,19.52-6.51,23.68-18.03,2.13-5.76,3.31-11.41,4.27-19.31,7.89,6.19,11.41,8.43,18.24,11.2-4.05,16-7.57,23.79-13.44,30.29-8.43,9.17-19.52,13.76-33.49,13.76-10.88,0-18.99-2.67-24.75-8.11-6.08-5.87-8.11-12.69-8.11-27.62q0-2.77,.53-24.21c.21-10.77,.43-20.9,.43-25.06,0-3.31-.11-5.01-.53-8.11l20.91,.32Z"/><path class="cls-6" d="M1025.16,218.88c.21-2.13,.21-3.09,.21-4.8q0-2.03-.43-8.32l-2.13-33.81c-.21-4.37-.75-9.17-1.28-14.4h24.85c-.32,2.45-.96,9.92-1.28,14.4l-2.13,33.81c-.21,4.48-.32,6.61-.32,8.21,0,1.07,0,2.24,.11,4.91h-17.6Zm-1.92,27.41v-20.16h21.44v20.16h-21.44Z"/></g></g><path class="cls-6" d="M339.23,45.55l12.92,53.78c3.99,16.6,18.83,28.3,35.9,28.3H978.89c18.47,0,34.1-13.65,36.59-31.95l4.94-36.34c2.96-21.75-13.59-41.26-35.53-41.89L376.19,.02c-24.31-.7-42.64,21.89-36.96,45.54Z"/><g><path class="cls-6" d="M347.01,49.31l12.63,45.66c3.9,14.09,18.4,24.03,35.08,24.03H972.04c18.05,0,33.32-11.59,35.75-27.13l4.83-30.86c2.89-18.46-13.28-35.03-34.72-35.56L383.12,10.65c-23.75-.59-41.67,18.59-36.11,38.66Z"/><path class="cls-2" d="M347.01,49.31l12.63,45.66c3.9,14.09,18.4,24.03,35.08,24.03H972.04c18.05,0,33.32-11.59,35.75-27.13l4.83-30.86c2.89-18.46-13.28-35.03-34.72-35.56L383.12,10.65c-23.75-.59-41.67,18.59-36.11,38.66Z"/></g><path class="cls-3" d="M431.58,89.62l-14.4-52.52h0l-1.55-5.65-2.7-9.83c-.98-3.59-4.69-5.7-8.28-4.72l-103.88,28.48c-3.59,.98-5.7,4.69-4.72,8.28l18.64,68.01c.98,3.59,4.69,5.7,8.28,4.72l103.88-28.48c3.59-.98,5.7-4.69,4.72-8.28Z"/><g><rect class="cls-12" x="294.21" y="22.63" width="121.2" height="84" rx="6.74" ry="6.74" transform="translate(-4.46 96.1) rotate(-15.33)"/><rect class="cls-9" x="287.24" y="31.97" width="121.2" height="14.4" transform="translate(2.02 93.35) rotate(-15.33)"/></g><g><path class="cls-5" d="M470.22,49.07l10.12,2.12c-.51,1.83-1.32,5.26-1.54,6.58-.8,4.29-2.92,11.78-4.69,16.81-2,5.72-5.55,12.58-8.41,16.7l-9.78-4.12c3.55-4.63,6.98-10.87,8.98-16.07,2.57-6.63,4.63-14.35,5.32-22.02Zm14.64,2.17l9.26-2.97c2.46,4.58,6.52,13.9,8.52,19.1,1.89,4.92,4.92,14.24,6.52,20.19l-10.35,3.37c-1.66-7.32-3.43-14.24-5.66-20.47-2.12-6.06-5.89-14.81-8.29-19.22Zm19.39-.4l-5.43,2.29c-1.2-2.34-2.86-5.72-4.4-7.95l5.38-2.17c1.43,2.12,3.43,5.83,4.46,7.83Zm7.09-2.8l-5.38,2.29c-1.14-2.34-2.97-5.72-4.52-7.89l5.38-2.17c1.49,2.17,3.55,5.83,4.52,7.78Z"/><path class="cls-5" d="M526.6,82.47v-30.08c0-2.52-.34-5.32-.74-7.21h10.87c-.4,2.63-.63,4.69-.63,7.21v28.19c8.41-2.57,20.87-9.78,28.31-18.59l4.92,7.89c-8.06,9.44-20.02,16.13-33.06,20.7-.86,.29-2.35,.74-3.95,1.83l-6.58-5.72c.8-1.72,.86-2.8,.86-4.23Z"/><path class="cls-5" d="M622.68,48.21l-3.95,1.6c3.49,0,6.75-.06,8.52,0l-.11,8.24c-3.43-.17-8.81-.34-16.01-.4,.06,2.69,.06,5.55,.06,7.95,1.49,2.29,2.29,5.15,2.29,8.29,0,7.38-4.75,17.27-19.1,21.16l-7.32-7.38c4.98-1.03,9.72-2.4,13.1-5.03-.34,.06-.69,.06-1.03,.06-4.23,0-10.18-3.6-10.18-10.98,0-6.92,5.55-11.15,12.24-11.15,.51,0,.97,0,1.43,.06,0-.97,0-1.94-.06-2.92-8.58,.11-17.04,.51-24.02,.86l-.23-8.35c6.58,.06,16.76-.17,24.13-.29-.06-.23-.06-.46-.06-.63-.23-2.75-.46-4.86-.63-5.72h9.95c-.17,1.09-.4,4.63-.46,5.66v.63c1.6,0,3.49,0,5.38-.06-1.03-2-2.06-3.95-3.37-5.95l5.6-2.29c1.43,2.12,2.86,4.63,3.83,6.63Zm-21.79,26.88c1.89,0,3.77-1.32,3.15-5.72-.69-1.03-1.83-1.54-3.15-1.54-1.72,0-3.6,1.09-3.6,3.72,0,2.06,1.83,3.55,3.6,3.55Zm29.91-28.65l-5.66,2.35c-1.14-2.29-2.34-4.52-3.89-6.63l5.66-2.29c1.43,2.17,2.92,4.58,3.89,6.58Z"/><path class="cls-5" d="M650.99,50.78c-.63,2.97-2.75,15.1-2.75,20.42,0,.17,0,1.09,.06,1.32,.8-1.6,1.49-2.75,2.23-4.4l4.17,3.32c-1.72,5.2-3.49,11.5-4.12,14.7-.17,.86-.34,2.23-.34,2.75,0,.63,0,1.66,.06,2.57l-8.01,.51c-1.14-3.83-2.29-11.04-2.29-18.82,0-8.75,1.66-18.3,2.23-22.53,.23-1.72,.63-4.29,.69-6.46l9.67,.8c-.51,1.32-1.37,4.8-1.6,5.83Zm14.53,27.28c0,2.52,2.4,3.49,7.09,3.49,5.09,0,9.21-.46,14.41-1.54l.17,9.38c-3.77,.69-8.29,1.09-15.04,1.09-10.01,0-14.98-3.72-14.98-9.84,0-2.46,.34-4.86,1.03-7.83l7.89,.69c-.4,1.83-.57,3.09-.57,4.58Zm19.9-29.68v8.92c-7.49,.63-17.5,.69-25.16,0l-.06-8.86c7.49,.92,18.82,.63,25.22-.06Z"/><path d="M713.06,51.08c-1.18,3.11-2.64,6.37-4.29,9.49v33.08h-6.51v-22.94c-.75,.94-1.56,1.84-2.31,2.69-.61-1.7-2.45-5.52-3.59-7.22,4.06-4.11,7.98-10.62,10.24-17.13l6.47,2.03Zm29.21,12.46v6.14h-31.67v-6.14h6.75v-3.59h-5.19v-5.81h5.19v-4.91h6.65v4.91h5v-4.91h6.8v4.91h5.47v5.81h-5.47v3.59h6.47Zm-27.56,8.21h24.35v21.95h-6.89v-1.32h-10.9v1.56h-6.56v-22.18Zm6.56,5.52v2.22h10.9v-2.22h-10.9Zm10.9,9.58v-2.31h-10.9v2.31h10.9Zm-8.16-23.31h5v-3.59h-5v3.59Z"/><path d="M759.44,58.87c2.45-2.97,6.14-5.9,11.04-5.9,6.75,0,12.18,6.51,12.18,17.18,0,13.5-8.12,20.15-21.1,22.56l-4.34-6.65c10.62-1.65,17.65-4.72,17.65-15.9,0-7.17-2.41-10.48-5.76-10.48-5.38,0-9.96,8.26-9.96,14.49,0,.99,.05,2.45,.28,4.53l-7.03,.47c-.28-1.84-.61-4.86-.61-8.07,0-4.39,.47-9.58,1.23-15.06,.24-1.98,.38-4.15,.38-5.43l7.79,.33c-.47,1.65-1.46,5.66-1.75,7.93Z"/><path d="M801.96,70.48c4.11-2.64,8.54-3.82,13.07-3.82,8.87,0,13.69,5.52,13.69,11.33,0,8.73-6.47,15.86-27.23,14.06l-2.22-7.5c13.78,2.03,21.38-.94,21.38-6.7,0-2.69-2.55-4.67-6.32-4.67-4.81,0-9.44,1.79-12.22,5.14-.94,1.13-1.46,1.89-1.94,2.93l-6.56-1.6c.94-4.81,2.03-13.69,2.36-20.06l7.69,1.04c-.66,2.31-1.46,7.32-1.7,9.86Zm19.87-16.14l-1.7,7.03c-4.96-.66-15.62-2.93-19.35-3.87l1.79-6.84c4.72,1.46,15.15,3.21,19.26,3.68Z"/><path d="M848.58,50.52l8.26,.24c-.33,1.46-.71,3.87-1.09,6.7l1.79,2.41c-.61,.8-1.7,2.5-2.55,3.73v.09c3.68-3.07,8.83-6.51,13.26-6.51,5.47,0,7.88,3.3,7.88,7.36,0,4.96-1.46,11.23-1.46,16.19,0,1.04,.57,1.65,1.46,1.65,1.46,0,3.54-1.13,5.52-3.07l.9,8.07c-2.03,1.75-4.81,3.3-9.01,3.3-3.78,0-6.28-2.83-6.28-7.79s1.65-11.52,1.65-15.67c0-2.08-1.09-3.21-2.88-3.21-3.26,0-8.02,4.15-11.66,8.16-.05,.99-.05,2.03-.05,2.97,0,3.59,0,8.21,.33,12.74,.05,.85,.24,2.88,.38,4.06h-7.83c.09-1.23,.14-3.16,.14-3.92,.05-2.83,.09-5.33,.19-8.31-1.79,2.64-3.68,5.47-5,7.22l-4.44-6.28c2.64-3.3,7.08-8.97,9.91-13.03,.05-.85,.14-1.7,.19-2.55-2.45,.28-5.81,.71-8.26,1.04l-.71-7.27c1.51,.05,2.69,.05,4.67-.05,1.27-.09,2.97-.28,4.77-.52,.09-1.51,.14-2.69,.14-3.16,0-1.51,.05-3.02-.24-4.62Z"/><path d="M901.34,52.88c2.55,0,11.99-.14,14.77-.38,2.27-.19,3.59-.38,4.2-.57l3.54,5.05c-1.23,.75-2.45,1.46-3.63,2.31-2.64,1.79-6.8,5.19-9.39,7.17,1.23-.24,2.17-.28,3.3-.28,8.12,0,14.49,5.19,14.49,12.32s-5.33,13.83-17.56,13.83c-6.65,0-12.18-3.11-12.18-8.31,0-4.15,3.78-8.02,9.16-8.02,5.76,0,9.44,3.35,10.24,7.83,1.89-1.27,2.78-3.11,2.78-5.43,0-4.06-4.15-6.61-9.34-6.61-6.89,0-11.85,4.15-16.38,9.67l-5.19-5.38c3.02-2.36,8.54-7.03,11.33-9.34,2.64-2.17,7.03-5.57,9.3-7.6-2.36,.05-7.22,.24-9.77,.42-1.42,.09-3.11,.24-4.25,.42l-.24-7.41c1.46,.19,3.26,.28,4.81,.28Zm8.26,32.94c.75,0,1.46-.05,2.12-.09-.24-2.6-1.65-4.29-3.63-4.29-1.56,0-2.45,.94-2.45,1.89,0,1.46,1.56,2.5,3.96,2.5Z"/></g><g><path class="cls-12" d="M363.01,67.33c-.62-2.11-2.84-3.32-4.96-2.7s-3.32,2.84-2.7,4.96c.37,1.26,1.31,2.18,2.46,2.6h-.02s1.5,5.1,1.5,5.1c.29,.99,1.33,1.56,2.33,1.27l1-.3c.99-.29,1.56-1.33,1.27-2.33l-1.5-5.1h-.02c.73-.97,1.02-2.26,.65-3.51Z"/><path class="cls-10" d="M374.23,49.86l-1.66,.49-2.63-8.9c-1.47-4.99-6.73-7.85-11.73-6.38l-16.35,4.83c-4.99,1.47-7.85,6.73-6.38,11.73l2.63,8.9-1.66,.49c-2.89,.85-4.54,3.88-3.68,6.77l7.09,24c.85,2.89,3.88,4.54,6.77,3.68l37.78-11.16c2.89-.85,4.54-3.88,3.68-6.77l-7.09-24c-.85-2.89-3.88-4.54-6.77-3.68Zm-31.09-.49c-.23-.77,.21-1.58,.98-1.81l16.35-4.83c.77-.23,1.58,.21,1.81,.98l1.03,3.47c.88,3-.83,6.14-3.82,7.03l-8.29,2.45c-3,.88-6.14-.83-7.03-3.82l-1.03-3.47Z"/><path class="cls-12" d="M363.01,67.33c-.62-2.11-2.84-3.32-4.96-2.7s-3.32,2.84-2.7,4.96c.37,1.26,1.31,2.18,2.46,2.6h-.02s1.5,5.1,1.5,5.1c.29,.99,1.33,1.56,2.33,1.27l1-.3c.99-.29,1.56-1.33,1.27-2.33l-1.5-5.1h-.02c.73-.97,1.02-2.26,.65-3.51Z"/><path class="cls-8" d="M381.51,65.82l3.42,11.6c.51,1.74-.47,3.55-2.21,4.07l-25.32,7.48c7.6-3.55,15.3-7.62,20.35-10.59,3.69-2.17,4.37-7.16,3.76-12.55Z"/><path class="cls-11" d="M338.97,79.63l-3.42-11.6c-.51-1.74,.47-3.55,2.21-4.07l25.32-7.48c-7.6,3.55-15.3,7.62-20.35,10.59-3.69,2.17-4.37,7.16-3.76,12.55Z"/><g class="cls-4"><path class="cls-13" d="M364.35,66.93c-.62-2.11-2.84-3.32-4.96-2.7s-3.32,2.84-2.7,4.96c.37,1.26,1.31,2.18,2.46,2.6h-.02s1.5,5.1,1.5,5.1c.29,.99,1.33,1.56,2.33,1.27l1-.3c.99-.29,1.56-1.33,1.27-2.33l-1.5-5.1h-.02c.73-.97,1.02-2.26,.65-3.51Z"/></g></g><path class="cls-7" d="M1069.22,88.93c-6.01,1.02-6.6,1.84-7.32,10.3-.72-8.46-1.31-9.28-7.32-10.3,6.01-1.02,6.6-1.84,7.32-10.3,.72,8.46,1.31,9.28,7.32,10.3Z"/><path class="cls-7" d="M1054.31,111.93c-2.8,.47-3.08,.86-3.41,4.8-.34-3.94-.61-4.33-3.41-4.8,2.8-.47,3.08-.86,3.41-4.8,.34,3.94,.61,4.33,3.41,4.8Z"/><path class="cls-7" d="M1134.31,173.93c-15.12,2.55-16.6,4.63-18.41,25.9-1.82-21.28-3.29-23.35-18.41-25.9,15.12-2.55,16.6-4.63,18.41-25.9,1.82,21.28,3.29,23.35,18.41,25.9Z"/><g><path class="cls-7" d="M168.22,119.93c-6.01,1.02-6.6,1.84-7.32,10.3-.72-8.46-1.31-9.28-7.32-10.3,6.01-1.02,6.6-1.84,7.32-10.3,.72,8.46,1.31,9.28,7.32,10.3Z"/><path class="cls-7" d="M153.31,142.93c-2.8,.47-3.08,.86-3.41,4.8-.34-3.94-.61-4.33-3.41-4.8,2.8-.47,3.08-.86,3.41-4.8,.34,3.94,.61,4.33,3.41,4.8Z"/><path class="cls-7" d="M153.31,204.93c-15.12,2.55-16.6,4.63-18.41,25.9-1.82-21.28-3.29-23.35-18.41-25.9,15.12-2.55,16.6-4.63,18.41-25.9,1.82,21.28,3.29,23.35,18.41,25.9Z"/></g></g></g></svg>