<?xml version="1.0" encoding="UTF-8"?><svg id="Layer_2" xmlns="http://www.w3.org/2000/svg" viewBox="0 0 379.57 358.48"><defs><style>.cls-1{fill:#f4dd9d;}.cls-2{fill:#fff;}.cls-3{fill:#eace88;}.cls-4{fill:#edd18c;}.cls-5{fill:#e5c273;}.cls-6{fill:#cecbc4;}.cls-7{fill:#dd350e;}.cls-8{fill:#dbd9d7;}.cls-9{fill:#f15a24;opacity:.7;}</style></defs><g id="Layer_1-2"><g><g><g><rect class="cls-4" x="13" y="48.18" width="223" height="274" transform="translate(-17.7 13.22) rotate(-5.67)"/><rect class="cls-2" x="30.39" y="81.7" width="49" height="60" transform="translate(-10.78 5.98) rotate(-5.67)"/><rect class="cls-8" x="34.94" y="87.3" width="40" height="49.8" transform="translate(-10.82 5.98) rotate(-5.67)"/><g><g><rect class="cls-2" x="107.01" y="75.86" width="11" height="11" transform="translate(-7.49 11.52) rotate(-5.67)"/><path class="cls-7" d="M119.07,86.73l-11.94,1.19-1.19-11.94,11.94-1.19,1.19,11.94Zm-11.04,.09l9.95-.99-.99-9.95-9.95,.99,.99,9.95Z"/></g><g><rect class="cls-2" x="120.14" y="74.55" width="11" height="11" transform="translate(-7.3 12.82) rotate(-5.67)"/><path class="cls-7" d="M132.21,85.43l-11.94,1.19-1.19-11.94,11.94-1.19,1.19,11.94Zm-11.04,.09l9.95-.99-.99-9.95-9.95,.99,.99,9.95Z"/></g><g><rect class="cls-2" x="133.28" y="73.25" width="11" height="11" transform="translate(-7.11 14.11) rotate(-5.67)"/><path class="cls-7" d="M145.34,84.12l-11.94,1.19-1.19-11.94,11.94-1.19,1.19,11.94Zm-11.04,.09l9.95-.99-.99-9.95-9.95,.99,.99,9.95Z"/></g><g><rect class="cls-2" x="151.52" y="71.43" width="11" height="11" transform="translate(-6.84 15.9) rotate(-5.67)"/><path class="cls-7" d="M163.59,82.31l-11.94,1.19-1.19-11.94,11.94-1.19,1.19,11.94Zm-11.04,.09l9.95-.99-.99-9.95-9.95,.99,.99,9.95Z"/></g><g><rect class="cls-2" x="164.66" y="70.13" width="11" height="11" transform="translate(-6.64 17.2) rotate(-5.67)"/><path class="cls-7" d="M176.72,81.01l-11.94,1.19-1.19-11.94,11.94-1.19,1.19,11.94Zm-11.04,.09l9.95-.99-.99-9.95-9.95,.99,.99,9.95Z"/></g><g><rect class="cls-2" x="177.79" y="68.82" width="11" height="11" transform="translate(-6.45 18.49) rotate(-5.67)"/><path class="cls-7" d="M189.86,79.7l-11.94,1.19-1.19-11.94,11.94-1.19,1.19,11.94Zm-11.04,.09l9.95-.99-.99-9.95-9.95,.99,.99,9.95Z"/></g><g><rect class="cls-2" x="190.93" y="67.52" width="11" height="11" transform="translate(-6.26 19.78) rotate(-5.67)"/><path class="cls-7" d="M202.99,78.4l-11.94,1.19-1.19-11.94,11.94-1.19,1.19,11.94Zm-11.04,.09l9.95-.99-.99-9.95-9.95,.99,.99,9.95Z"/></g></g><polygon class="cls-5" points="221.91 37.83 0 59.88 15.95 18.09 198.05 0 221.91 37.83"/></g><g><rect class="cls-1" x="64.56" y="99.68" width="274" height="223" transform="translate(-28.41 391) rotate(-84.36)"/><rect class="cls-2" x="123.22" y="95.47" width="49" height="60" transform="translate(13.05 -13.91) rotate(5.64)"/><rect class="cls-6" x="127.67" y="101.07" width="40" height="49.8" transform="translate(13.1 -13.91) rotate(5.64)"/><g><g><rect class="cls-2" x="204.67" y="101.52" width="11" height="11" transform="translate(83.01 305.66) rotate(-84.36)"/><path class="cls-7" d="M215.55,113.58l-11.94-1.18,1.18-11.94,11.94,1.18-1.18,11.94Zm-10.85-2.08l9.95,.98,.98-9.95-9.95-.98-.98,9.95Z"/></g><g><rect class="cls-2" x="217.81" y="102.82" width="11" height="11" transform="translate(93.56 319.9) rotate(-84.36)"/><path class="cls-7" d="M228.69,114.88l-11.94-1.18,1.18-11.94,11.94,1.18-1.18,11.94Zm-10.85-2.08l9.95,.98,.98-9.95-9.95-.98-.98,9.95Z"/></g><g><rect class="cls-2" x="230.94" y="104.12" width="11" height="11" transform="translate(104.11 334.14) rotate(-84.36)"/><path class="cls-7" d="M241.82,116.18l-11.94-1.18,1.18-11.94,11.94,1.18-1.18,11.94Zm-10.85-2.08l9.95,.98,.98-9.95-9.95-.98-.98,9.95Z"/></g><g><rect class="cls-2" x="249.19" y="105.92" width="11" height="11" transform="translate(118.77 353.92) rotate(-84.36)"/><path class="cls-7" d="M260.07,117.98l-11.94-1.18,1.18-11.94,11.94,1.18-1.18,11.94Zm-10.85-2.08l9.95,.98,.98-9.95-9.95-.98-.98,9.95Z"/></g><g><rect class="cls-2" x="262.32" y="107.22" width="11" height="11" transform="translate(129.32 368.16) rotate(-84.36)"/><path class="cls-7" d="M273.2,119.28l-11.94-1.18,1.18-11.94,11.94,1.18-1.18,11.94Zm-10.85-2.08l9.95,.98,.98-9.95-9.95-.98-.98,9.95Z"/></g><g><rect class="cls-2" x="275.46" y="108.52" width="11" height="11" transform="translate(139.88 382.41) rotate(-84.36)"/><path class="cls-7" d="M286.34,120.58l-11.94-1.18,1.18-11.94,11.94,1.18-1.18,11.94Zm-10.85-2.08l9.95,.98,.98-9.95-9.95-.98-.98,9.95Z"/></g><g><rect class="cls-2" x="288.59" y="109.81" width="11" height="11" transform="translate(150.43 396.65) rotate(-84.36)"/><path class="cls-7" d="M299.48,121.87l-11.94-1.18,1.18-11.94,11.94,1.18-1.18,11.94Zm-10.85-2.08l9.95,.98,.98-9.95-9.95-.98-.98,9.95Z"/></g></g><polygon class="cls-3" points="325.98 85.8 104.06 63.88 127.9 26.04 310.01 44.03 325.98 85.8"/></g></g><polygon class="cls-9" points="379.57 88.05 347.75 56.23 250.52 153.46 153.3 56.23 121.48 88.05 218.7 185.28 121.48 282.51 153.3 314.32 250.52 217.1 347.75 314.32 379.57 282.51 282.34 185.28 379.57 88.05"/></g></g></svg>