<?xml version="1.0" encoding="UTF-8"?><svg id="Layer_2" xmlns="http://www.w3.org/2000/svg" viewBox="0 0 497.28 447.07"><defs><style>.cls-1{fill:#f4d553;}.cls-2{fill:#e6e6e6;}.cls-3{fill:#fff;}.cls-4{fill:#fdeee0;}.cls-5{fill:#666;}.cls-6{fill:#2c2321;}</style></defs><g id="_レイヤー_1"><g><g><g><polygon class="cls-2" points="289.47 403.91 109.89 403.91 109.89 395.58 147.67 380.33 327.25 380.33 327.25 387.52 289.47 403.91"/><path class="cls-6" d="m289.47,406.49H109.89c-1.43,0-2.58-1.16-2.58-2.58v-8.33c0-1.05.64-2,1.61-2.39l37.78-15.24c.31-.12.63-.19.96-.19h179.58c1.42,0,2.58,1.16,2.58,2.58v7.19c0,1.03-.61,1.96-1.55,2.37l-37.78,16.38c-.32.14-.67.21-1.03.21Zm-177-5.16h176.46l35.74-15.49v-2.92h-176.5l-35.7,14.4v4.01Z"/></g><g><path class="cls-5" d="m390.57,43.89c-5.69-17.64-23.04-36.99-40.44-34.13-32.51-19.64-88.95,1.6-92,60.23-1,19.28-2.19,71.26,13.96,83.83,12.7,11.38,43.5,7.29,60.05,8.16,16.19.85,33.15,5.42,43.87-1.94,12.79-8.78,14.67-27.85,16.63-42.47,3.11-23.22,5.23-51.09-2.07-73.68Zm-10.51,68.22c-3.38,3.48-11.59,9.43-16.97,6.61-15.12,30.25-37.73,36.18-54.97,34.98-12.7-.88-31.33-13.81-36.22-28.53-3.91-11.78-5.3-35.98-5.79-50.02,4.79-.25,13.92-2.89,14.58-3.07,10.56-2.88,21.24-5.7,31.31-10.32,8.56-3.93,16.44-10.29,23.6-17.46,1.76,4.26,5.65,11.24,14.04,22.52,10.38,13.96,17.27,17.54,20.68,18.38-.28,1.6-.57,3.19-.85,4.77.83-.87,1.62-1.56,2.32-2.02,5.71-3.71,10.97-1.05,13.03,4.19,2.69,6.85.61,14.46-4.75,19.97Z"/><path class="cls-4" d="m384.81,92.14c-2.05-5.24-7.31-7.9-13.03-4.19-.7.46-1.49,1.15-2.32,2.02.28-1.58.57-3.17.85-4.77-3.41-.84-10.3-4.42-20.68-18.38-8.39-11.28-12.28-18.26-14.04-22.52-7.16,7.17-15.04,13.53-23.6,17.46-10.07,4.62-20.75,7.44-31.31,10.32-.66.18-9.79,2.82-14.58,3.07.49,14.04,1.89,38.24,5.79,50.02,4.86,14.64,23.32,27.5,36.01,28.51.24,1.73.4,3.08.41,3.73,0,.66-.05,1.31-.14,1.95,1.82,10.56,3.38,17.89,6.89,27.97,14.97-12.47,31.56-27.73,42.2-36.94-.52-4.7-1.36-12.3-2.08-18.79,2.8-3.7,5.45-7.97,7.91-12.88,5.38,2.82,13.58-3.13,16.97-6.61,5.35-5.51,7.44-13.12,4.75-19.97Z"/><path class="cls-3" d="m322.19,124.74c-7.65,17.23-18.14,16.68-23.97-1.25l23.97,1.25Z"/><path class="cls-2" d="m378.81,83.02c.16-7.67-.86-15.3-3.08-22.7-9.53-31.82-39.99-52.89-72.47-50.82-26.52,1.69-36.66,26.97-36.66,26.97,6.91-10.83,20.41-18.82,37.16-20.05,29.24-2.14,56.71,17.16,65.32,45.89,1.86,6.22,2.81,12.62,2.82,19.05-7.33.43-13.66,7.41-14.59,16.56-1.01,9.95,4.76,18.68,12.87,19.51,8.12.82,15.52-6.58,16.53-16.53.79-7.76-2.55-14.78-7.9-17.88Z"/></g><g><path class="cls-1" d="m411.15,183.15c.34-.14.67-.29,1.02-.42-12.65-7.22-37.23-18.07-37.23-18.07l-10.31-3.86-14.92,20.72-46.9,65.12c-2.06-25.93-2.78-51.27-3.03-65.8-.13-7.78-.13-12.47-.13-12.47l-9.83,2.36-23.47,12.39s-.1.69-.28,1.95c-1.47,10.28-8.14,58.59-6.58,80.74.36,5.08,2.12,12.27,4.38,20.29,4.77,16.89,11.77,37.45,12.69,49.61.28,3.78-.48,10.55-1.51,17.31h133.39s-.03-.09-.05-.13c-4.2-11.98-8.27-26.38-7.23-35.04l-8.27-6.48c-4.45-26.99-8.86-54.4-9.81-62.91-3.79-33.93,1.67-54.51,28.07-65.32Z"/><path class="cls-3" d="m435.79,224.21h0c-.43-2.13-.79-3.83-1.05-5-2.16-9.65-5.07-22.39-13.77-30.47-2.13-1.98-5.81-3.54-9.82-5.59-26.4,10.81-31.86,31.4-28.07,65.32.95,8.51,5.35,35.92,9.81,62.91l.16.12-74.39,27.43c1.29,1.54,2.56,4.03,3.74,7.02,1.78,4.52,3.36,10.2,4.49,15.62,1,4.8,1.65,9.38,1.77,12.76,11.84-.38,77.03-12.92,100.3-19.2,19.71-5.32,23.08-17.8,23.03-26.6-.17-27.4-16.18-104.33-16.18-104.33Z"/><path class="cls-3" d="m259.48,265.81c-1.56-22.16,5.1-70.47,6.58-80.74-8.6,5.41-13.98,10.62-17.68,16.34-4.2,6.49-11.1,20.9-18.24,36.8-8.49-30.78-17.99-60.44-17.99-60.44-.78.11-1.57.23-2.35.34-8.01,1.16-16.44,2.46-24.69,3.9-3.86.68-7.69,1.38-11.41,2.12,0,0,6.15,107.76,20.59,128.93,5.62,8.25,20.24,9.9,30.03,7.97,8.48-1.68,34.94-27.72,40.66-35.72l-1.63-1.08c-2-7.25-3.53-13.73-3.86-18.4Z"/><path class="cls-3" d="m358.71,149.15c-.46.4-.95.82-1.44,1.24-10.64,9.21-27.22,24.46-42.2,36.94-3.51-10.08-5.07-17.41-6.89-27.97,0,0,0,0,0,0l-18.38,10.48-1.75,36.67,12.14-8.62c.43,13.86,1.21,31.16,2.61,48.74l29.03-40.31,5.18,5.87c16.29-14.07,41.26-47.27,41.26-47.27l-19.57-15.78Z"/><path class="cls-4" d="m319.58,344.3c-3.66-1.91-8.29-1.76-11.5-2.16-8.79-1.1-24.74-1.78-29.51-1.51-4.78.27-11.96,1.13-16.61,2.75-2.5.87-10.96,8.18-14,11.52-2.02,2.22-3.66,7.31-4.69,10.43-.73,2.21-3.53,9.47,4.31,7.87-.91,5.56,2.53,7.69,7.23,7.61.86,5.1,7.79,5.32,11.69,2.07,3.07,4.82,6.49,1.79,8.42.41,2.86-2.05,8.49-6.38,11.43-8.32,2.12-1.4,7.37-3.67,9.93-3.72,4.71-.1,8.9,3.87,19.79,1.09,3.29-.84,5.24-4.07,6.43-6.13,1.89-1.05,3.41-2.65,4.37-4.63-1.13-5.42-2.71-11.1-4.49-15.62-1-.69-1.99-1.24-2.8-1.66Z"/><path class="cls-4" d="m208.08,172.52c-.37-5.01.69-13.34-1.92-20.02-3.44-8.8-12-17.31-29.28-31.9-2.06-1.74-6.23-3.22-7.19.18-1.73,6.14,8.74,13.79,8.74,13.79l-25.2-9.69-12.07-4.18c-5.56-2.01-9.69-3.21-12.02-1.91-1.5.84-3.34,2.09-3.27,5.26-3.22.15-4.74,1.73-5.18,3.04-1.46,4.34,1.73,6.21,1.73,6.21-.96,1.18-.61,3.9.61,5.56,1.65,2.25,6.9,3.78,6.9,3.78l-.66,1.38c-1.07,2.22-.29,4.89,1.81,6.18,0,0,18.88,11.81,25.29,15.54,5.93,3.44,13.14,8.6,28.74,16.25,8.25-1.44,16.68-2.74,24.69-3.9-1.05-3.16-1.68-5.15-1.71-5.58Z"/></g><g><path class="cls-6" d="m302.76,274.39c3.14,0,5.7-2.56,5.7-5.7s-2.56-5.7-5.7-5.7-5.7,2.56-5.7,5.7,2.56,5.7,5.7,5.7Zm0-7.2c.83,0,1.5.67,1.5,1.5s-.67,1.5-1.5,1.5-1.5-.67-1.5-1.5.67-1.5,1.5-1.5Z"/><path class="cls-6" d="m299.46,311.38c0,3.14,2.56,5.7,5.7,5.7s5.7-2.56,5.7-5.7-2.56-5.7-5.7-5.7-5.7,2.56-5.7,5.7Zm7.2,0c0,.83-.67,1.5-1.5,1.5s-1.5-.67-1.5-1.5.67-1.5,1.5-1.5,1.5.67,1.5,1.5Z"/><g><path class="cls-6" d="m290.87,83.36c-2.81-.15-5.21,2.02-5.36,4.83-.15,2.81,2.02,5.21,4.83,5.36,2.81.15,5.21-2.02,5.36-4.83.15-2.81-2.02-5.21-4.83-5.36Z"/><path class="cls-6" d="m336.77,85.75c-2.81-.15-5.21,2.02-5.36,4.83-.15,2.81,2.02,5.21,4.83,5.36,2.81.15,5.21-2.02,5.36-4.83.15-2.81-2.02-5.21-4.83-5.36Z"/><path class="cls-6" d="m305.14,114.54c1.71.03,3.73-.39,3.77-1.66.05-1.01-1.53-2.73-3.52-2.89h-.03c-1.98-.05-3.75,1.5-3.8,2.51-.08,1.27,1.86,1.89,3.58,2.04Z"/><path class="cls-6" d="m331.43,68.5c-1.38.34-2.23,1.74-1.89,3.12.34,1.39,1.74,2.23,3.12,1.89,3.24-.8,6.74-.1,9.85,1.97.44.29.93.43,1.42.43.84,0,1.66-.41,2.15-1.15.79-1.19.46-2.79-.72-3.58-4.33-2.87-9.28-3.83-13.94-2.68Z"/><path class="cls-6" d="m322.32,122.34l-23.97-1.25c-.78-.04-1.55.31-2.03.94-.48.63-.62,1.45-.38,2.2,4.03,12.41,9.54,15.26,13.46,15.46.15,0,.31.01.47.01,3.9,0,9.43-2.54,14.52-13.99.32-.72.26-1.56-.15-2.23-.41-.67-1.13-1.1-1.92-1.14Zm-12.67,12.56c-2.78-.14-5.64-3.38-7.91-8.82l16.7.87c-2.83,5.18-6.03,8.1-8.79,7.95Z"/></g><path class="cls-6" d="m494.7,350.44h-50.1c7.98-6.44,9.99-14.92,9.95-21.92-.16-26.24-14.37-95.79-16.09-104.12-.49-2.47-.91-4.44-1.21-5.76-2.19-9.75-5.19-23.11-14.53-31.79-1.96-1.82-4.73-3.19-7.94-4.77-.05-.02-.1-.05-.16-.08-.19-.63-.59-1.18-1.18-1.52-9.35-5.34-24.83-12.49-32.65-16.03-.11-.59-.41-1.14-.91-1.54l-1.67-1.34c12.39-9.17,14.77-26.98,16.66-41.38l.3-2.29c3-22.4,5.47-51.15-2.17-74.81-6.25-19.37-24.63-38.17-42.36-36.02-16.72-9.68-38.83-9.43-57.97.72-2.42,1.28-4.72,2.7-6.93,4.23-14.89,7.95-21.01,22.74-21.34,23.56-.13.33-.18.67-.16,1.01-5.07,9.76-8.08,21.02-8.72,33.26-1.39,26.65-1.29,73.22,14.88,85.94,5.78,5.13,14.71,7.32,24.37,8.21l-6.28,3.58c-.59.34-1.01.89-1.2,1.53l-22.18,11.71c-.73.38-1.23,1.09-1.35,1.9-.02.12-.06.4-.12.8-8,5.16-13.5,10.34-17.46,16.46-3.71,5.72-9.4,17.33-15.51,30.67-7.89-27.99-15.99-53.34-16.11-53.7-.38-1.2-1.57-1.95-2.82-1.77-.07.01-.14.02-.22.03-.49-1.51-.83-2.6-.92-3.01-.09-1.28-.08-2.87-.07-4.55.02-4.83.05-10.84-2.02-16.12-3.75-9.58-13.05-18.61-30.02-32.93-2.01-1.7-5.23-3.04-7.89-2.23-1.7.52-2.93,1.83-3.45,3.68-.77,2.74.1,5.53,1.59,8.03l-14.73-5.66-12.03-4.17c-5.94-2.15-10.75-3.64-14.16-1.74-1.06.59-3.58,2-4.36,5.26-3,.76-4.68,2.69-5.28,4.47-1.17,3.48-.16,6.11,1.14,7.72-.4,2.17.31,4.71,1.56,6.4,1.24,1.69,3.61,2.95,5.52,3.75-.87,3.12.39,6.5,3.23,8.25.77.48,18.99,11.88,25.37,15.59,1.48.86,3.03,1.82,4.82,2.93,4.11,2.55,9.4,5.83,17.2,9.92-1.33.25-2.63.5-3.9.76-1.26.25-2.15,1.39-2.07,2.68.25,4.43,6.36,108.72,21.04,130.24,4.66,6.83,14.78,9.83,24.36,9.83,2.87,0,5.69-.27,8.3-.79,8.22-1.63,28.46-20.93,38.03-31.65.74,2.52,1.51,5.1,2.29,7.71,4.02,13.46,8.17,27.37,8.84,36.3.05.72.06,1.57.04,2.51-4.43.47-9.34,1.29-12.9,2.52-3.33,1.15-12.29,9.17-15.06,12.22-2.33,2.57-4.03,7.69-5.14,11.09l-.2.59c-.72,2.12-2.21,6.55.26,9.34.95,1.08,2.27,1.68,3.94,1.8.22,2.09,1.05,3.51,1.84,4.42,1.41,1.63,3.53,2.62,6.17,2.9.82,1.71,2.27,3.02,4.17,3.72,2.7,1,6.08.67,8.89-.74.97.91,2.06,1.47,3.24,1.69.38.07.74.1,1.1.1,2.45,0,4.46-1.49,5.74-2.42l.38-.28c1.02-.73,2.38-1.75,3.86-2.85,2.65-1.97,5.65-4.2,7.49-5.42,2.02-1.33,6.79-3.26,8.57-3.3,1.16-.03,2.43.32,4.01.75,3.54.97,8.4,2.29,16.37.26,4.05-1.03,6.42-4.6,7.69-6.75.32-.2.63-.43.93-.66.4,2.58.67,4.99.74,7.01.05,1.39,1.2,2.48,2.58,2.48.03,0,.06,0,.08,0,11.85-.38,76.91-12.81,100.89-19.28,2.19-.59,4.19-1.27,6.02-2.02h59.07c1.42,0,2.58-1.16,2.58-2.58s-1.16-2.58-2.58-2.58Zm-183.86-194.05c.49.01.97.03,1.47.03,12.13,0,26.67-3.61,39.4-16.73.59-.09,1.18-.19,1.75-.3.4,3.63.79,7.16,1.1,9.94-3.6,3.14-7.81,6.89-12.24,10.83-8.14,7.25-17.25,15.36-26.01,22.76-2.56-7.94-3.95-14.53-5.52-23.64.07-.63.12-1.26.12-1.89,0-.25-.02-.59-.06-.99Zm58.66-72.23c-.01.34-.03.69-.05,1.03-.05.86-.12,1.72-.21,2.59-3.95,1.43-7.04,5.51-7.56,10.58-.68,6.69,3.4,12.61,9.1,13.18,5.7.58,10.88-4.4,11.56-11.09.32-3.16-.43-6.13-1.9-8.46.19-1.37.35-2.75.46-4.12,2.58,3.16,3.98,7.8,3.47,12.79-.88,8.65-7.14,15.12-13.96,14.43-6.82-.69-11.65-8.29-10.78-16.94.7-6.87,4.78-12.36,9.85-13.99ZM303.41,11.84c31.47-2.01,60.94,18.66,70.08,49.15,2.25,7.52,3.25,15.29,2.97,23.08-.02.51-.04,1.03-.07,1.54-.05.83-.11,1.66-.19,2.5-.69-.33-1.43-.56-2.2-.71.06-.64.11-1.28.15-1.92.03-.5.05-.99.07-1.49.28-7.55-.69-15.07-2.87-22.35-8.92-29.77-37.41-49.77-67.74-47.55-7.43.54-14.43,2.4-20.59,5.35,5.18-3.91,11.91-7.05,20.4-7.59Zm69.37,80.1c3.12.32,5.33,3.93,4.91,8.04-.42,4.12-3.3,7.21-6.42,6.9-3.12-.32-5.33-3.93-4.91-8.04.42-4.12,3.3-7.21,6.42-6.9Zm-4.93,29.97c-.53,2.56-1.67,5.26-3.98,7.57-1.56,1.56-3.53,2.81-5.9,3.77-.03-.3-.07-.6-.1-.9,2.27-3.11,4.45-6.58,6.52-10.49,1.13.21,2.3.2,3.47.04Zm-53.17,68.87l13.87,15.71-23.69,32.9c-1.02-14.47-1.64-28.47-2.02-40.2l11.85-8.41Zm4.09-3.17c9.08-7.64,18.56-16.08,26.99-23.6,4.75-4.23,9.27-8.26,13.01-11.51l15.94,12.85c-5.37,7-23.94,30.8-37.46,43.19l-18.48-20.94Zm30.04-175.65c.53.32,1.15.44,1.75.34,15.41-2.52,31.87,14.7,37.57,32.38,7.32,22.68,4.89,50.68,1.96,72.54l-.3,2.3c-1.8,13.68-4.04,30.7-15.23,38.38-.16.11-.33.19-.5.3l-13.72-11.06c-.27-.21-.56-.36-.87-.46-.29-2.59-.62-5.59-.96-8.64,3.51-1.24,6.41-2.98,8.68-5.25,3.89-3.88,5.23-8.51,5.62-12.39.64-.3,1.27-.62,1.89-.96,7.38-1.7,13.42-9.01,14.36-18.31.82-8.1-2.46-15.49-7.87-19.35.03-7.48-1.04-14.92-3.2-22.15-9.16-30.57-37.48-51.9-68.75-52.61,13.92-3.42,28.4-1.81,39.56,4.93Zm-74.98,139.93s-.09-.08-.14-.11c-10.36-8.06-15.2-38.59-12.96-81.66.76-14.54,5.1-27.53,12.39-38.07,7.39-7.55,18.44-12.4,30.83-13.3,28.16-2.06,54.61,16.54,62.9,44.22,1.6,5.35,2.49,10.83,2.68,16.35-1.49.33-2.93.89-4.28,1.65-7.38-4.81-15.95-19-21.36-27.94-.81-1.33-1.56-2.59-2.27-3.73-.75-1.21-2.34-1.59-3.55-.85-1.21.75-1.59,2.34-.85,3.55.7,1.14,1.45,2.38,2.25,3.7,5.94,9.82,13.62,22.51,21.55,28.55-3.23,3.35-5.48,8.06-6.03,13.43-.78,7.67,2.12,14.71,7.03,18.71-.53.24-.96.65-1.23,1.17-3.68,7.36-7.79,13.19-12.13,17.79-2.74.26-5.76.31-9.06.15-1.05-1.43-3.1-2.53-5.77-2.8-4.15-.42-7.23,1.39-7.49,3.98s2.39,4.98,6.54,5.4c2.91.29,5.28-.51,6.54-1.9,1.37.07,2.69.09,3.98.09-11.87,9.7-24.8,11.56-35.09,10.85-11.62-.81-29.36-12.93-33.95-26.77-3.59-10.83-5.02-32.85-5.57-46.98,18.32-2.12,54.48-12.52,73.22-36.12.89-1.12.7-2.74-.42-3.62-1.12-.89-2.74-.7-3.62.42-12.77,16.08-33.36,25.15-49.85,29.93,9.81-6.2,17.77-13.83,23.75-22.83.79-1.19.47-2.79-.72-3.58-1.19-.79-2.79-.46-3.58.72-8.74,13.16-22.07,23.24-39.62,29.95-.01,0-.02.01-.04.02-1.37.17-2.54.27-3.44.32-1.42.08-2.51,1.29-2.44,2.72.06,1.02.69,1.86,1.57,2.23.56,14.38,2.02,36.92,5.85,48.45,4.98,15.03,22.85,27.84,36.16,30.01.08.64.12,1.15.12,1.44,0,.12-.01.23-.01.35l-2.73,1.56c-11.66-.35-23.01-1.9-29.19-7.44Zm18.5,19.48l13.97-7.97c1.52,8.4,3.02,14.88,5.73,22.93l-21.13,14.99,1.43-29.96Zm-129.69-4.85c-1.83-1.13-3.41-2.11-4.95-3.01-6.31-3.66-25.03-15.38-25.24-15.51-.98-.6-1.34-1.83-.84-2.86l.31-.64c1.61-.18,3.24.14,4.68.93l11.28,6.23c.1.06.2.1.31.15l12.04,4.69c.31.12.62.18.94.18,1.03,0,2.01-.62,2.4-1.64.52-1.33-.14-2.82-1.47-3.34l-11.88-4.63-11.13-6.15c-2.86-1.58-6.19-2.03-9.45-1.24h-.01c-.07.02-.12.05-.19.08-1.73-.64-3.72-1.62-4.31-2.42-.6-.81-.75-2.06-.62-2.49.2-.33.95-.77,2.69-.55,3.22.41,13.06,4.31,16.64,5.8l18.36,7.16c.31.12.63.18.94.18,1.03,0,2.01-.62,2.4-1.64.52-1.33-.14-2.82-1.47-3.34l-18.31-7.14c-1.36-.57-13.42-5.55-17.91-6.13-2.05-.26-3.66.01-4.9.55-.08-.47-.05-1.07.21-1.83.15-.43.91-1.19,2.85-1.28.02,0,.04,0,.05,0,.02,0,.03,0,.05,0,2.46-.22,12.96,3.02,19.66,5.4l18.42,6.24c.27.09.55.14.83.14,1.08,0,2.08-.68,2.44-1.75.46-1.35-.27-2.81-1.62-3.27l-18.38-6.22c-2.3-.82-12.1-4.23-18.18-5.34.29-.26.66-.51,1.13-.77,1.62-.91,7.21,1.11,9.92,2.09l11.99,4.15,25.2,9.69c1.2.46,2.57-.04,3.19-1.17.62-1.13.3-2.55-.74-3.32-2.94-2.16-8.71-7.69-7.78-11.01.02-.08.04-.13.05-.16.46-.09,1.9.33,2.99,1.25,16.3,13.76,25.19,22.31,28.54,30.86,1.71,4.36,1.68,9.82,1.66,14.22,0,1.83-.02,3.56.09,5.05.03.48.24,1.3.88,3.28-7.66,1.13-14.59,2.23-20.91,3.32-11.08-5.48-17.86-9.68-22.87-12.79Zm61.2,151.96c-9.83,1.95-22.76-.1-27.39-6.89-12.75-18.69-19.03-109.85-20.01-125.38,9.51-1.84,20.66-3.68,33.94-5.59,3.16,10.02,16.95,54.14,24.77,87.08.33,1.39,1.72,2.25,3.11,1.91,1.39-.33,2.24-1.72,1.91-3.11-2.1-8.86-4.63-18.51-7.27-28.1,6.96-15.47,13.62-29.36,17.68-35.61,2.91-4.49,6.8-8.46,12.16-12.36-2.28,16.66-7.18,55.85-5.79,75.54.36,5.13,2.04,12.14,4.24,20.01-8.14,9.87-30.7,31.17-37.34,32.49Zm46.27-20.36c-3.86-12.92-7.5-25.12-8.02-32.5-1.57-22.26,5.4-72.17,6.65-80.84l18.25-9.63-1.49,31.23c-.05.99.47,1.91,1.34,2.39.39.21.81.32,1.24.32.52,0,1.05-.16,1.49-.48l8.24-5.85c.46,13.03,1.21,28.47,2.45,44.07.09,1.08.84,1.99,1.88,2.28,1.04.29,2.16-.1,2.79-.98l27.14-37.69,3.05,3.45c.51.58,1.22.87,1.94.87.6,0,1.2-.21,1.69-.63,13.86-11.97,33.47-37.01,39.69-45.12,6.5,2.94,18.76,8.59,27.92,13.43-26,12.55-29.22,35.69-25.8,66.3.79,7.07,3.99,27.63,9.51,61.1l-72.27,26.65c-.79.29-1.38.94-1.6,1.75-.21.8-.03,1.64.49,2.28-2.05-.46-4.09-.62-5.87-.76-.84-.06-1.64-.12-2.36-.21-8.44-1.05-23.47-1.75-29.23-1.55.01-.92,0-1.77-.06-2.5-.71-9.49-4.95-23.68-9.04-37.39Zm51.17,65.81c-.41.23-.75.56-.98.97-.87,1.51-2.5,4.32-4.84,4.92-6.64,1.69-10.41.67-13.73-.24-1.82-.5-3.56-.95-5.47-.93-3.4.07-9.17,2.74-11.3,4.15-1.96,1.29-5.02,3.57-7.73,5.59-1.45,1.08-2.79,2.08-3.79,2.79l-.43.32c-.83.61-2.1,1.54-2.83,1.4-.16-.03-.34-.14-.53-.29,4.03-6.68,10.71-12.88,18.18-16.81,1.26-.66,1.74-2.22,1.08-3.49-.66-1.26-2.23-1.74-3.49-1.08-8.83,4.65-16.4,11.88-20.87,19.9-1.66,1.2-4.01,1.66-5.64,1.06-.68-.25-1.05-.64-1.26-1.03,2.72-4.47,5.57-9.04,9.07-13.06,3.7-4.24,8.64-7.46,13.43-10.3,1.23-.73,1.63-2.31.9-3.54-.73-1.23-2.31-1.63-3.54-.9-5.16,3.06-10.51,6.55-14.69,11.35-3.69,4.23-6.72,9.05-9.4,13.46-1.27-.14-2.22-.54-2.75-1.14-.55-.63-.73-1.66-.56-3.02,2.61-4.66,5.47-9.5,9.13-13.53,3.36-3.7,7.29-6.32,13.16-8.75,1.32-.54,1.94-2.05,1.4-3.37-.54-1.32-2.05-1.94-3.37-1.4-6.53,2.7-11.16,5.8-15.01,10.05-3.84,4.23-6.78,9.11-9.44,13.82-.15.01-.3.02-.41.02-.49,0-.69-.09-.69-.07-.13-.24-.32-1.12.75-4.29l.21-.62c.86-2.61,2.47-7.48,4.06-9.23,3.22-3.54,11.2-10.21,12.94-10.82,4.32-1.5,11.27-2.34,15.91-2.61,4.41-.25,20.11.38,29.05,1.49.8.1,1.68.17,2.61.24,2.67.2,5.69.43,8.01,1.65.52.27,1.18.62,1.87,1.05,1.47,3.92,2.84,8.76,3.88,13.52-.7,1.14-1.66,2.1-2.89,2.78Zm1.33-23.71l72.99-26.92c.12-.04.23-.1.34-.16,2.98-1.63,7.78-4.06,9.13-4.38,1.41-.33,5.41.31,7.66.84,1.38.33,2.78-.53,3.11-1.91.33-1.39-.53-2.78-1.91-3.11-1.13-.27-6.92-1.57-10.03-.84-1.97.46-6.48,2.77-8.95,4.08-5.31-32.25-8.51-52.85-9.28-59.65-3.96-35.45,2.94-52.59,25.39-62.2.49.25.98.49,1.47.73,2.85,1.4,5.31,2.61,6.71,3.92,8.17,7.59,10.97,20.05,13.01,29.14.69,3.06,2.1,10.07,3.7,19.11.07.05.14.12.21.18,4.6,23.56,13.14,69.82,13.26,89.5.08,12.18-7.03,20.29-21.12,24.09-21.81,5.89-80.99,17.32-97.23,18.93-.85-9.19-4.27-23.71-8.46-31.34Z"/><path class="cls-6" d="m199.33,160.13c-4.64-3.02-9.75-5.06-15.19-6.04-5.12-.93-10.3-.89-15.42.12-1.4.28-2.31,1.63-2.03,3.03.28,1.4,1.64,2.31,3.03,2.03,4.47-.88,9.01-.92,13.49-.1,4.76.86,9.23,2.64,13.29,5.29.43.28.92.42,1.41.42.84,0,1.67-.41,2.16-1.17.78-1.19.44-2.79-.75-3.57Z"/></g><g><path class="cls-2" d="m250.56,240.19c-.13-3.73-3.26-6.75-6.99-6.75H9.89c-1.71,0-3.33.68-4.5,1.89l-1.07,1.11c-1.17,1.21-1.79,2.85-1.73,4.57l5.73,164.08c.13,3.73,3.26,6.75,6.99,6.75h69.21l-2.01,18.4h-2.49l-18.32,2.59v11.67h93.12l14.34-4.31v-9.95h-35.58l2.01-18.4h113.42c1.71,0,3.33-.68,4.5-1.89l1.07-1.11c1.17-1.21,1.79-2.85,1.73-4.57l-5.73-164.08Z"/><path class="cls-6" d="m253.14,240.1c-.18-5.1-4.47-9.24-9.57-9.24H9.89c-2.4,0-4.72.98-6.36,2.68l-1.07,1.11c-1.64,1.7-2.54,4.05-2.46,6.45l5.73,164.08c.18,5.1,4.47,9.24,9.57,9.24h66.34l-1.45,13.24h-.18c-.12,0-.24,0-.36.03l-18.32,2.59c-1.27.18-2.22,1.27-2.22,2.55v11.67c0,1.43,1.15,2.58,2.58,2.58h93.12c.25,0,.5-.04.74-.11l14.34-4.31c1.09-.33,1.84-1.33,1.84-2.47v-9.95c0-1.43-1.15-2.58-2.58-2.58h-32.71l1.45-13.24h111.1c2.4,0,4.72-.98,6.36-2.68l1.07-1.11c1.64-1.7,2.54-4.05,2.46-6.45l-5.73-164.08Zm-159.9,115.67c.01-.09.02-.19.02-.28v-14.27c0-1.23,1-2.23,2.23-2.23h41.43c1.23,0,2.23,1,2.23,2.23v14.13l-8.35,76.42h-45.86l8.3-76Zm73.33,77.04v5.46l-12.14,3.65h-90.16v-6.85l15.35-2.17-.13,1.17c-.08.73.15,1.46.64,2,.49.55,1.19.86,1.92.86h51.05c1.32,0,2.42-.99,2.56-2.3l.2-1.82h30.69Zm86.14-25.77l-1.07,1.11c-.69.71-1.63,1.1-2.64,1.1h-110.54l5.84-53.48c.01-.09.02-.19.02-.28v-14.27c0-4.07-3.32-7.39-7.39-7.39h-41.43c-4.08,0-7.39,3.32-7.39,7.39v14.13l-5.89,53.91H15.3c-2.35,0-4.33-1.91-4.41-4.26l-5.73-164.08c-.04-1.02.32-1.97,1.01-2.69l1.07-1.11c.69-.71,1.63-1.1,2.65-1.1h233.68c2.35,0,4.33,1.91,4.41,4.26l5.73,164.08c.04,1.02-.32,1.97-1.01,2.69Z"/><path class="cls-6" d="m239.18,239.4H11.77c-1.16,0-2.1.94-2.1,2.1s.94,2.1,2.1,2.1h227.41c.06,0,.13.07.13.13l5.6,160.3c.04,1.13.97,2.03,2.1,2.03.02,0,.05,0,.07,0,1.16-.04,2.07-1.01,2.03-2.17l-5.6-160.3c-.08-2.31-2.02-4.18-4.33-4.18Z"/></g></g><g><path class="cls-6" d="m216.37,83.65c-.73,0-1.46-.31-1.97-.91l-41.9-49.52c-.92-1.09-.79-2.72.3-3.64,1.09-.92,2.72-.79,3.64.3l41.9,49.52c.92,1.09.79,2.72-.3,3.64-.48.41-1.08.61-1.67.61Z"/><path class="cls-6" d="m201.39,91.19c-.44,0-.89-.11-1.3-.35l-36.36-21.18c-1.23-.72-1.65-2.3-.93-3.53.72-1.23,2.3-1.65,3.53-.93l36.36,21.18c1.23.72,1.65,2.3.93,3.53-.48.82-1.34,1.28-2.23,1.28Z"/></g></g></g></svg>