<?xml version="1.0" encoding="UTF-8"?><svg id="Layer_2" xmlns="http://www.w3.org/2000/svg" viewBox="0 0 52.04 53.88"><defs><style>.cls-1{fill:#fff;}.cls-2{fill:#fbb03b;}</style></defs><g id="PC"><g><path class="cls-2" d="m28.5,37.07c3.29.76,6.04,3.5,6.04,7.64,0,5.06-3.96,9.17-10.86,9.17-3.14,0-5.96-.84-7.45-1.85l1.29-4.5c1.1.72,3.49,1.65,5.76,1.65,3.57,0,5.33-2.25,5.33-4.74,0-3.42-2.9-5.03-6.08-5.03h-2v-4.18h1.88c2.31,0,5.29-1.33,5.29-4.26,0-2.13-1.37-3.7-4.12-3.7-2.04,0-4.04.93-5.18,1.65l-1.22-4.26c1.53-1.04,4.55-2.09,7.73-2.09,5.69,0,8.67,3.42,8.67,7.44,0,3.14-1.84,5.75-5.1,7v.08Z"/><g><path class="cls-1" d="m0,2.1h4.75c2.77,0,4.99,2.16,4.99,4.89s-2.21,4.91-4.99,4.91h-1.34v4.22H0V2.1Zm4.75,6.65c.9,0,1.62-.65,1.62-1.77,0-1.06-.72-1.8-1.62-1.8h-1.34v3.57h1.34Z"/><path class="cls-1" d="m11.29,10.66c0-3.22,2.65-5.75,5.9-5.75s5.9,2.53,5.9,5.75-2.65,5.75-5.9,5.75-5.9-2.59-5.9-5.75Zm8.4,0c0-1.75-1.12-2.59-2.49-2.59s-2.47.84-2.47,2.59,1.1,2.59,2.47,2.59,2.49-.9,2.49-2.59Z"/><path class="cls-1" d="m25.56,1.86c0-1.02.86-1.86,1.91-1.86s1.89.84,1.89,1.86-.86,1.88-1.89,1.88-1.91-.84-1.91-1.88Zm.2,3.32h3.43v10.89h-3.43V5.18Z"/><path class="cls-1" d="m32.74,5.18h10.27v10.93h-3.39v-7.79h-3.49v7.79h-3.39V5.18Z"/><path class="cls-1" d="m47.16,8.32h-1.52v-3.14h1.52v-3.08h3.41v3.08h1.48v3.14h-1.48v4.65h1.48v3.14h-4.89v-7.79Z"/></g></g></g></svg>