<?xml version="1.0" encoding="UTF-8"?><svg id="Layer_2" xmlns="http://www.w3.org/2000/svg" viewBox="0 0 52.04 53.44"><defs><style>.cls-1{fill:#fff;}.cls-2{fill:#fbb03b;}</style></defs><g id="PC"><g><path class="cls-2" d="m34.97,53.44h-18.55v-3.66l3.29-3.62c5.61-5.95,8.9-9.85,8.9-13.95,0-2.65-1.37-4.87-4.63-4.87-2.16,0-4.16,1.17-5.53,2.21l-1.61-4.26c1.84-1.45,4.9-2.73,8.31-2.73,6.35,0,9.25,4.14,9.25,9.09,0,5.39-3.57,9.81-7.88,14.27l-2.47,2.49v.08h10.9v4.95Z"/><g><path class="cls-1" d="m0,2.1h4.75c2.77,0,4.99,2.16,4.99,4.89s-2.21,4.91-4.99,4.91h-1.34v4.22H0V2.1Zm4.75,6.65c.9,0,1.62-.65,1.62-1.77,0-1.06-.72-1.8-1.62-1.8h-1.34v3.57h1.34Z"/><path class="cls-1" d="m11.29,10.66c0-3.22,2.65-5.75,5.9-5.75s5.9,2.53,5.9,5.75-2.65,5.75-5.9,5.75-5.9-2.59-5.9-5.75Zm8.4,0c0-1.75-1.12-2.59-2.49-2.59s-2.47.84-2.47,2.59,1.1,2.59,2.47,2.59,2.49-.9,2.49-2.59Z"/><path class="cls-1" d="m25.56,1.86c0-1.02.86-1.86,1.91-1.86s1.89.84,1.89,1.86-.86,1.88-1.89,1.88-1.91-.84-1.91-1.88Zm.2,3.32h3.43v10.89h-3.43V5.18Z"/><path class="cls-1" d="m32.74,5.18h10.27v10.93h-3.39v-7.79h-3.49v7.79h-3.39V5.18Z"/><path class="cls-1" d="m47.16,8.32h-1.52v-3.14h1.52v-3.08h3.41v3.08h1.48v3.14h-1.48v4.65h1.48v3.14h-4.89v-7.79Z"/></g></g></g></svg>