<?xml version="1.0" encoding="UTF-8"?><svg id="Layer_2" xmlns="http://www.w3.org/2000/svg" viewBox="0 0 52.04 53.44"><defs><style>.cls-1{fill:#fff;}.cls-2{fill:#fbb03b;}</style></defs><g id="PC"><g><path class="cls-2" d="m24.46,53.44v-25.09h-.08l-5.1,2.73-1.25-4.26,7.22-3.78h4.86v30.4h-5.65Z"/><g><path class="cls-1" d="m0,2.1h4.75c2.77,0,4.99,2.16,4.99,4.89s-2.21,4.91-4.99,4.91h-1.34v4.22H0V2.1Zm4.75,6.65c.9,0,1.62-.65,1.62-1.77,0-1.06-.72-1.8-1.62-1.8h-1.34v3.57h1.34Z"/><path class="cls-1" d="m11.29,10.66c0-3.22,2.65-5.75,5.9-5.75s5.9,2.53,5.9,5.75-2.65,5.75-5.9,5.75-5.9-2.59-5.9-5.75Zm8.4,0c0-1.75-1.12-2.59-2.49-2.59s-2.47.84-2.47,2.59,1.1,2.59,2.47,2.59,2.49-.9,2.49-2.59Z"/><path class="cls-1" d="m25.56,1.86c0-1.02.86-1.86,1.91-1.86s1.89.84,1.89,1.86-.86,1.88-1.89,1.88-1.91-.84-1.91-1.88Zm.2,3.32h3.43v10.89h-3.43V5.18Z"/><path class="cls-1" d="m32.74,5.18h10.27v10.93h-3.39v-7.79h-3.49v7.79h-3.39V5.18Z"/><path class="cls-1" d="m47.16,8.32h-1.52v-3.14h1.52v-3.08h3.41v3.08h1.48v3.14h-1.48v4.65h1.48v3.14h-4.89v-7.79Z"/></g></g></g></svg>