<?xml version="1.0" encoding="UTF-8"?><svg id="Layer_2" xmlns="http://www.w3.org/2000/svg" viewBox="0 0 968 196.86"><defs><style>.cls-1{fill:#fff;}.cls-2{fill:#333;}.cls-3{fill:#0e95cc;}.cls-4{fill:none;stroke:#333;stroke-miterlimit:10;stroke-width:2px;}</style></defs><g id="Layer_1-2"><g><g><path class="cls-2" d="M504.64,152.5c.24,.06,.43,.06,.55,.06,1.96,0,7.77-.49,11.8-1.04,.98-6.36,1.41-9.97,1.41-12.05v-1.04l11.07,1.04c-.24,.73-.31,.98-.37,1.47-.06,.18-.12,.73-.18,1.1l-.43,2.2c-.55,3.12-.98,5.63-1.16,6.6,1.04-.12,1.77-.12,2.63-.12,3.79,0,6.6,.79,8.68,2.45,3.12,2.51,4.34,6.24,4.34,13.15,0,9.54-1.41,17.43-3.85,21.71-.86,1.47-2.38,2.81-3.91,3.61-1.22,.55-2.81,.86-4.77,.86-2.81,0-5.56-.43-9.72-1.59,.18-1.77,.18-2.45,.18-3.55,0-2.69-.25-4.34-.92-7.34,3.48,1.41,6.6,2.2,8.38,2.2,1.28,0,2.08-.79,2.75-2.75,.92-2.69,1.65-8.87,1.65-13.57,0-2.57-.37-4.04-1.16-4.89-.67-.79-1.53-1.04-3.67-1.04-.55,0-1.16,0-2.45,.12-2.2,10.03-5.87,20.55-10.82,30.94-.49,1.16-.61,1.35-.98,2.26l-10.09-5.32c3.85-5.14,8.99-17.24,11.5-27.09-3.85,.55-7.77,1.22-9.54,1.77l-.92-10.15Zm40.36-12.78c2.45,2.69,4.4,5.5,6.05,8.74l-5.81,2.81c-2.02-3.85-3.55-6.11-6.05-8.93l5.81-2.63Zm8.13,10.58c3.91,5.38,7.34,13.33,9.36,21.71l-10.03,4.77c-1.28-7.77-4.89-17.49-8.32-22.26l8.99-4.22Zm0-14.25c2.26,2.45,3.97,4.77,6.11,8.5l-5.63,2.75c-2.08-3.85-3.79-6.3-5.99-8.74l5.5-2.51Z"/><path class="cls-2" d="M622.52,142.25c-1.27,.17-1.53,.17-3.22,.51-3.31,.59-8.65,1.27-12.8,1.7v7.46c4.92-1.1,7.89-1.44,12.38-1.44,10.43,0,18.23,2.63,23.15,7.72,3.73,3.82,5.77,9.16,5.77,15.01,0,11.96-9.07,20.95-21.11,20.95-10.51,0-16.62-7.04-16.62-19.25v-2.12c6.19-1.78,8.22-2.63,12.89-5.17-.08,1.78-.17,2.71-.17,4.49,0,2.63,.17,4.07,.68,5.34,.59,1.53,2.03,2.54,3.73,2.54,3.65,0,6.1-2.97,6.1-7.29,0-2.88-1.53-5.68-4.16-7.46-2.29-1.44-5.6-2.2-10.09-2.2-4.16,0-7.63,.42-12.47,1.7l.08,15.01v2.21c0,5.17-.34,7.04-1.61,8.82-1.61,2.38-4.83,3.73-8.65,3.73-6.27,0-13.48-2.63-18.32-6.7-3.48-2.97-5.51-6.95-5.51-11.02,0-4.58,2.8-9.58,7.89-14.08,3.39-2.97,6.95-5.09,12.63-7.55v-10.01l-6.44,.17-8.22-.17c-.25,0-1.02,0-1.78,.09l-.17-13.31c2.71,.51,6.19,.76,11.62,.76h3.22q1.19-.08,1.7-.08v-2.71c0-6.36-.09-8.31-.59-11.45h14.67c-.42,3.05-.51,5-.51,10.6v2.71c5.77-.59,11.02-1.61,15.52-2.88l.42,13.4Zm-29.43,26.88c-3.99,1.87-7.04,5.17-7.04,7.55,0,1.02,.59,1.87,1.87,2.71,1.19,.76,2.8,1.36,3.82,1.36,1.1,0,1.36-.59,1.36-3.39v-8.22Zm47.4-18.66c-4.32-7.55-9.16-13.31-16.7-19.93l11.19-7.55c7.21,5.85,12.47,11.79,16.7,18.74l-11.19,8.73Z"/><path class="cls-2" d="M664.24,127.75c2.12,.17,3.05,.25,5.17,.25,2.29,0,25.1-.59,32.99-.85-.09-5.43-.17-6.53-.59-8.99h15.01c-.34,2.97-.42,3.9-.42,8.65,14.08-.09,20.35-.25,23.74-.59l.09,13.91c-3.82-.34-5.51-.42-15.26-.42-4.49,0-5.09,0-8.48,.09v12.55c2.46,4.49,3.39,8.48,3.39,14.16,0,9.5-4.92,17.81-13.99,23.49-4.16,2.54-8.99,4.49-17.04,6.87-2.37-6.02-4.24-9.16-8.06-13.4,8.57-1.27,13.4-2.63,17.47-5.17,3.14-1.87,4.92-3.73,6.27-6.7-3.56,2.97-6.44,3.99-11.36,3.99-9.84,0-16.79-6.44-16.79-15.52,0-9.67,7.97-16.28,19.67-16.28,2.71,0,4.66,.25,6.61,.93v-2.63q0-1.19-.08-2.03c-17.55,.51-31.38,1.27-37.9,2.2l-.42-14.5Zm26.37,31.63c0,2.63,2.37,4.58,5.6,4.58,3.65,0,6.44-2.2,6.44-5.09,0-2.63-2.2-4.41-5.6-4.41-3.73,0-6.44,2.03-6.44,4.92Z"/><path class="cls-2" d="M753.2,127.75c2.12,.17,3.05,.25,5.17,.25,2.29,0,25.1-.59,32.99-.85-.09-5.43-.17-6.53-.59-8.99h15.01c-.34,2.97-.42,3.9-.42,8.65,14.08-.09,20.35-.25,23.74-.59l.09,13.91c-3.82-.34-5.51-.42-15.26-.42-4.49,0-5.09,0-8.48,.09v12.55c2.46,4.49,3.39,8.48,3.39,14.16,0,9.5-4.92,17.81-13.99,23.49-4.16,2.54-8.99,4.49-17.04,6.87-2.37-6.02-4.24-9.16-8.06-13.4,8.57-1.27,13.4-2.63,17.47-5.17,3.14-1.87,4.92-3.73,6.28-6.7-3.56,2.97-6.44,3.99-11.36,3.99-9.84,0-16.79-6.44-16.79-15.52,0-9.67,7.97-16.28,19.67-16.28,2.71,0,4.66,.25,6.61,.93v-2.63q0-1.19-.08-2.03c-17.55,.51-31.38,1.27-37.9,2.2l-.42-14.5Zm26.37,31.63c0,2.63,2.37,4.58,5.6,4.58,3.65,0,6.44-2.2,6.44-5.09,0-2.63-2.2-4.41-5.6-4.41-3.73,0-6.44,2.03-6.44,4.92Z"/><path class="cls-2" d="M864.71,121.65c.09,4.16,.76,8.4,1.78,12.55,4.49-1.7,9.67-2.63,14.5-2.63h1.87c1.78-7.38,2.12-9.41,2.21-12.55l14.92,2.8c-.34,.76-.85,2.37-1.53,4.75-1.27,4.41-1.87,6.78-1.95,7.04,5,1.53,7.97,3.05,11.28,5.85,6.36,5.34,9.67,12.63,9.67,21.45,0,13.48-7.55,24.34-20.52,29.59-4.58,1.87-8.82,3.14-15.26,4.41-1.7-5.94-3.31-9.24-6.78-14.16,8.9-.76,15.69-2.71,19.93-5.6,5.26-3.65,7.8-8.73,7.8-15.43s-3.05-11.02-9.75-13.82c-4.58,13.31-8.9,22.3-14.33,29.59-7.04,9.5-13.48,13.82-20.69,13.82-10.26,0-17.21-8.82-17.21-21.79,0-10.77,4.75-20.27,13.65-27.05-1.02-4.07-1.53-6.19-2.46-10.85-.59-2.88-.76-3.39-1.53-5.17l14.42-2.8Zm-10.94,44.94c0,5.17,1.87,8.39,4.75,8.39,1.7,0,3.48-1.19,5.26-3.56-2.63-5.68-4.07-9.75-5.85-16.45-2.54,3.14-4.16,7.63-4.16,11.62Zm19.16-7.38c3.05-5.85,4.49-9.33,6.27-15.01-4.32,.17-6.95,.76-10.26,2.37,1.19,4.92,2.2,7.97,3.99,12.63Z"/><path class="cls-2" d="M951.13,170.32c.17-1.7,.17-2.46,.17-3.82q0-1.61-.34-6.61l-1.7-26.88c-.17-3.48-.59-7.29-1.02-11.45h19.76c-.25,1.95-.76,7.89-1.02,11.45l-1.7,26.88c-.17,3.56-.25,5.26-.25,6.53,0,.85,0,1.78,.09,3.9h-13.99Zm-1.53,21.79v-16.03h17.04v16.03h-17.04Z"/></g><g><rect class="cls-3" x="0" y="0" width="321.42" height="80.56" rx="40.28" ry="40.28"/><g><path class="cls-1" d="M67.09,28.84c-.76,.1-.91,.1-1.92,.3-1.98,.35-5.17,.76-7.65,1.01v4.46c2.94-.66,4.71-.86,7.39-.86,6.23,0,10.89,1.57,13.83,4.61,2.23,2.28,3.44,5.47,3.44,8.96,0,7.14-5.42,12.51-12.61,12.51-6.28,0-9.93-4.2-9.93-11.5v-1.27c3.7-1.06,4.91-1.57,7.7-3.09-.05,1.06-.1,1.62-.1,2.68,0,1.57,.1,2.43,.41,3.19,.35,.91,1.22,1.52,2.23,1.52,2.18,0,3.65-1.77,3.65-4.36,0-1.72-.91-3.39-2.48-4.46-1.37-.86-3.34-1.32-6.03-1.32-2.48,0-4.56,.25-7.44,1.01l.05,8.96v1.32c0,3.09-.2,4.2-.96,5.27-.96,1.42-2.89,2.23-5.17,2.23-3.75,0-8.05-1.57-10.94-4-2.08-1.77-3.29-4.15-3.29-6.58,0-2.74,1.67-5.72,4.71-8.41,2.03-1.77,4.15-3.04,7.55-4.51v-5.98l-3.85,.1-4.91-.1c-.15,0-.61,0-1.06,.05l-.1-7.95c1.62,.3,3.7,.46,6.94,.46h1.92q.71-.05,1.01-.05v-1.62c0-3.8-.05-4.96-.35-6.84h8.76c-.25,1.82-.3,2.99-.3,6.33v1.62c3.44-.35,6.58-.96,9.27-1.72l.25,8Zm-17.57,16.05c-2.38,1.11-4.2,3.09-4.2,4.51,0,.61,.35,1.11,1.11,1.62,.71,.46,1.67,.81,2.28,.81,.66,0,.81-.35,.81-2.03v-4.91Zm28.31-11.14c-2.58-4.51-5.47-7.95-9.98-11.9l6.69-4.51c4.3,3.49,7.45,7.04,9.98,11.19l-6.69,5.22Z"/><path class="cls-1" d="M87.14,56.19c1.47-1.97,2.08-2.84,3.09-4.86,1.27-2.38,1.72-3.6,2.38-6.13l6.48,2.99c-1.77,6.13-2.94,8.76-5.62,12.91l-6.33-4.91Zm39.76-31.7c1.32,0,2.23-.05,3.09-.15-.05,.66-.1,1.47-.1,2.89v15.04c0,1.27,.05,2.23,.1,2.89-.25,0-.46-.05-.56-.05-.71-.05-.81-.05-1.16-.05,3.34,4.1,4.66,5.98,7.6,10.94l-6.84,4.76c-1.52-3.34-2.38-4.91-4.05-7.75-.96,7.24-2.38,8-14.59,8-9.17,0-10.89-.86-10.89-5.47v-5.87c0-1.67-.05-2.63-.25-3.7h7.95c-.15,.71-.2,1.57-.2,3.7v2.99c0,1.32,.4,1.47,3.6,1.47,4.46,0,5.72-.15,6.33-.71,.41-.4,.71-1.57,.81-3.39l-4.15,3.29c-1.72-2.08-3.09-3.34-5.93-5.67l3.8-2.63h-13.07c-1.92,0-3.34,.05-5.01,.15v-6.23c1.37,.15,2.43,.2,5.01,.2h23.8v-1.77h-23.04c-1.87,0-3.09,.05-5.01,.15v-5.67c1.72,.2,2.13,.2,5.01,.2h23.04v-1.67h-22.23c-1.11,0-2.13,.05-3.44,.1v-1.52c-1.92,1.52-3.09,2.38-5.12,3.65-1.37-3.24-2.08-4.51-4-6.94,3.34-1.82,5.01-2.99,7.24-4.91,2.68-2.28,4.81-4.86,6.43-7.7l8.86,1.22c-.61,.91-.66,.96-1.16,1.72h7.85c2.94,0,4-.05,5.06-.25l4,3.75q-.46,.35-2.43,2.53c-.61,.71-1.42,1.57-2.33,2.48h5.98Zm-15.3,0c.86-.86,1.16-1.22,1.87-2.18h-9.93c-.96,1.06-1.22,1.32-2.08,2.18h10.13Zm4.1,20.51c2.23,1.67,2.73,2.08,4.1,3.39l-1.67,1.32c1.87,.76,3.6,1.27,5.77,1.67-.66-.91-1.01-1.47-2.03-2.89l6.03-3.49h-12.21Z"/><path class="cls-1" d="M177.14,25.19l-.51,.1c-.86,.15-2.53,.51-5.01,1.01l-3.8,.61c.41,.91,.76,1.82,1.16,2.63,6.48-1.11,9.93-1.92,11.8-2.68l.76,7.44c-1.11,.15-1.27,.15-6.23,1.22-.46,.1-.61,.1-3.04,.56,1.82,3.29,3.55,5.77,6.48,9.32l-7.45,3.85c-2.99-1.57-6.23-2.23-10.64-2.23-5.62,0-8.71,1.17-8.71,3.29,0,1.17,1.01,1.97,3.09,2.38,1.11,.2,3.24,.4,4.86,.4,5.17,0,12.66-1.47,16.16-3.14l1.16,8.56c-1.22,.15-1.57,.2-3.6,.66-5.06,1.11-9.52,1.62-13.93,1.62-2.63,0-5.52-.25-7.9-.71-5.93-1.06-9.52-4.76-9.52-9.67,0-3.55,2.33-6.79,6.03-8.36,2.99-1.27,6.43-1.87,10.84-1.87,2.68,0,4.71,.15,6.99,.61-.66-.86-1.06-1.47-1.47-2.13l-.56-.96-.3-.51c-4,.51-10.99,.96-17.42,1.11-2.99,.1-3.19,.1-4.41,.25l-.35-7.5c1.47,.2,2.43,.25,5.22,.25,4.86,0,9.72-.25,13.83-.76-.2-.51-.61-1.37-1.17-2.63-4.3,.41-7.09,.51-13.22,.51-2.23,.05-2.73,.05-3.8,.1l-.46-7.39c1.77,.15,3.44,.25,5.77,.25,2.89,0,6.79-.15,9.07-.41l-.15-.4c-.1-.25-.3-.71-.56-1.37-.61-1.67-.81-2.08-1.42-3.29l8.86-1.06c.2,1.47,.56,2.58,1.57,5.27,2.73-.35,5.42-.81,7.9-1.32-.66-1.47-1.01-2.18-1.87-3.55l4.81-1.27c1.72,2.63,2.79,4.81,3.75,7.85l-2.89,.91,.25,2.43Zm5.67-12.86c1.62,2.23,2.73,4.51,3.7,7.39l-4.66,1.52c-1.11-3.24-1.92-4.91-3.55-7.65l4.51-1.27Z"/><path class="cls-1" d="M210.11,46.67c-2.94,6.48-6.33,9.32-10.94,9.32-6.79,0-11.55-6.48-11.55-15.75,0-5.93,2.03-11.29,5.82-15.45,4.46-4.86,10.89-7.44,18.33-7.44,6.79,0,12.76,2.28,16.51,6.23,3.24,3.44,4.96,8.36,4.96,14.08,0,6.58-2.48,12.56-6.74,16.36-3.44,3.09-7.45,4.71-14.54,5.82-1.22-3.65-2.18-5.47-4.3-8.31,4.76-.35,7.9-1.16,10.64-2.58,3.9-2.08,6.08-6.33,6.08-11.75,0-4.3-1.52-7.75-4.46-9.98-1.32-1.01-2.43-1.47-4.25-1.77-1.11,8.71-2.84,15.24-5.57,21.22Zm-8.71-18.54c-3.34,2.84-5.52,7.55-5.52,12.05,0,3.6,1.37,6.43,3.14,6.43,1.27,0,2.58-1.77,4.1-5.62,1.77-4.56,3.24-10.43,3.8-15.45-2.13,.3-3.75,1.06-5.52,2.58Z"/><path class="cls-1" d="M256.96,17.85c0-1.62-.1-2.73-.3-3.9h8.76c-.2,1.11-.3,2.33-.3,3.9v2.38h12.46c3.04,0,5.12-.1,6.99-.35v8.1c-1.82-.2-3.55-.3-6.69-.3h-18.03c-.15,2.63-.15,2.73-.3,4.25h14.79c2.68,0,3.9-.05,5.27-.2-.2,1.87-.2,2.18-.41,7.29-.35,9.17-1.06,14.54-2.43,17.57-1.42,3.34-3.7,4.46-8.91,4.46-1.27,0-3.49-.1-6.48-.25-.25-2.99-.71-4.81-2.08-7.85,2.84,.35,5.22,.56,7.39,.56,2.58,0,3.24-.66,3.75-3.75,.41-2.33,.71-6.08,.81-10.53h-12.76c-.66,2.99-1.92,6.33-3.55,9.42-2.63,4.96-6.28,8.86-12.21,12.97-1.62-2.89-3.09-4.66-5.67-6.74,7.65-4.56,11.09-8.66,13.02-15.45,.96-3.55,1.42-6.99,1.47-11.75h-6.28c-2.63,0-5.01,.1-7.04,.3v-8.1c2.18,.25,4.2,.35,6.99,.35h11.75v-2.38Z"/></g><g><path class="cls-3" d="M16.08,127.36c6.67,3.82,9.96,5.96,16.45,11.02l-7.56,11.2c-7.02-5.96-10.4-8.36-16.62-12.09l7.73-10.13Zm15.29,31.91c-2.93,10.67-3.91,13.51-7.82,22.76-.27,.71-1.33,2.93-3.11,6.76l-11.91-10.13c1.24-1.42,2.04-2.58,3.2-4.71,3.56-6.76,5.69-12.45,8.36-22.49l11.29,7.82Zm-12.53-54.14c6.67,4.18,9.51,6.31,15.82,11.82l-8.8,10.58c-5.69-5.6-9.25-8.53-15.65-12.8l8.62-9.6Zm22.22,23.29h13.25v-14.22c0-3.91-.18-6.58-.53-9.16h14.31c-.36,2.58-.53,5.24-.53,9.16v14.22h13.42l-11.02-4.8c3.91-6.58,5.87-10.93,7.91-17.96l12.89,5.07c-3.56,8.44-4.89,11.2-8.8,17.69,4-.09,4.18-.09,5.96-.27-.27,2.4-.36,4.71-.36,10.05v39.56c0,5.07-1.33,8-4.44,9.33-1.87,.89-4.8,1.24-9.87,1.24-1.87,0-2.13,0-9.07-.36-.53-4.98-1.16-7.64-2.93-12.71,3.82,.36,7.2,.62,9.78,.62s3.02-.27,3.02-2.04v-3.73h-25.6v7.82c0,4.09,.18,7.64,.44,10.76h-14.4c.36-2.67,.53-5.96,.53-10.76v-40.71c0-4.89-.09-6.76-.27-9.07,1.87,.18,2.84,.27,5.69,.27-3.29-7.73-4.71-10.58-9.07-17.07l12.18-5.33c3.91,6.13,6.04,10.31,9.07,17.87l-11.56,4.53Zm32.98,12.09h-25.6v4h25.6v-4Zm-25.6,18.85h25.6v-4.09h-25.6v4.09Z"/><path class="cls-3" d="M179.99,165.77c0,5.42,.09,7.64,.36,9.69-2.31-.09-4.53-.18-8.98-.18h-3.2c6.22,2.49,12.45,3.64,22.31,4.09-3.2,3.47-4.89,5.78-7.65,10.49-7.38-1.24-10.93-2.13-16.45-4.09-5.25-1.87-8.18-3.29-14.22-6.76l6.84-3.73h-22.67l7.29,3.73c-10.4,6.31-16.53,8.53-29.87,10.85-2.58-4.27-4.18-6.4-7.47-9.96,9.25-.8,15.56-2.22,21.51-4.62h-2.93c-4.53,0-6.67,.09-8.98,.18,.27-2.13,.36-4.62,.36-8.8v-13.42c-1.6,.53-2.4,.8-4.89,1.51-2.04-5.07-2.84-6.67-5.51-10.76,9.42-1.78,14.76-3.73,18.58-6.67h-9.42c-2.84,0-4.44,.09-6.67,.18,2.67-6.04,4.71-12.62,5.33-17.42,1.69,.18,3.82,.27,6.93,.27h11.38c.18-1.24,.18-1.6,.27-2.84h-13.16c-4.62,0-6.49,.09-8.27,.27v-8.8c2.58,.27,4.09,.36,8.27,.36h13.33c0-1.78-.09-2.84-.27-4.36h13.25q-.18,1.42-.27,4.36h6.22c-.09-2.22-.18-3.11-.36-4.36h13.33c-.27,1.42-.36,2.49-.44,4.36h11.29c2.13,0,6.93-.18,8.98-.36-.27,2.31-.36,3.73-.36,7.73v3.11c0,4.09,.09,5.87,.36,7.91-3.29-.18-5.6-.27-9.07-.27h-11.2v2.93h18.05c2.93,0,4.53-.09,6.76-.18-.36,1.69-.36,2.31-.62,5.6-.62,9.24-2.31,12-8.09,12.98v16.98Zm-55.56-38.31l-1.07,2.93h6.49c.44-1.33,.62-1.69,.89-2.93h-6.31Zm4.8,22.31h37.43v-2.31h-37.43v2.31Zm0,8.71h37.43v-2.4h-37.43v2.4Zm0,8.62h37.43v-2.31h-37.43v2.31Zm22.13-29.78h-11.11c-.89,1.42-1.16,1.87-2.13,3.02h13.25v-3.02Zm-7.56-9.87c-.27,1.33-.36,1.69-.71,2.93h8.27v-2.93h-7.56Zm1.16-9.96c-.09,1.24-.09,1.6-.18,2.84h6.58v-2.84h-6.4Zm18.93,2.84h6.76v-2.84h-6.76v2.84Zm10.13,20c.36-.71,.44-1.51,.53-3.02h-10.67v3.02h10.13Z"/><path class="cls-3" d="M217.24,140.52c-4.71,0-8.09,.18-11.29,.53v-13.07c2.76,.36,6.4,.53,11.56,.53h18.13v-4.53h-12.36c-4.71,0-7.82,.09-10.31,.36v-12.53c2.58,.36,6.31,.53,10.93,.53h11.73c0-3.56-.18-5.07-.62-7.29h14.76c-.44,2.31-.53,3.64-.53,7.29h4.09c4.27,0,7.47-.18,10.13-.53v7.73c3.47-3.82,7.65-9.42,9.33-12.53l12.18,7.91c-1.16,1.16-1.51,1.51-3.91,4.36-3.38,3.91-5.24,5.87-8.89,9.24h4.27c4.62,0,7.65-.18,10.58-.53v13.07c-2.84-.35-6.93-.53-12-.53h-19.38c-1.78,1.33-2.4,1.78-5.69,4h18.49c4.36,0,6.84-.09,9.24-.27-.27,2.67-.36,5.07-.36,9.69v23.74c0,4.62,.18,8.27,.53,10.76h-14.13v-3.47h-28.45v3.47h-14.13c.36-3.38,.53-6.84,.53-10.76v-16.09q-7.38,3.38-10.76,4.71c-2.22-5.33-3.64-7.91-7.02-12.45,11.65-3.29,22.31-7.73,32.18-13.33h-18.85Zm18.05,18.4h28.45v-3.73h-28.45v3.73Zm0,14.67h28.45v-3.91h-28.45v3.91Zm18.58-45.07c1.96-1.6,3.11-2.58,5.16-4.44-1.78-.09-2.4-.09-4.27-.09h-5.51v4.53h4.62Z"/><path class="cls-3" d="M331.11,139.54c-3.47,0-6.13,.09-9.16,.36v-4.27c-5.51,3.2-8.62,4.71-14.49,7.11-2.49-6.04-3.56-8.18-6.67-13.07,9.16-2.84,16.8-6.67,23.91-12.09,5.16-3.91,9.07-7.91,11.29-11.65h15.2c3.29,4.62,6.13,7.38,11.47,11.38,7.29,5.51,14.49,9.07,23.82,11.73-2.84,5.07-4.36,8.53-6.13,13.96-6.22-2.49-9.69-4.27-15.38-7.65v4.53c-2.49-.27-5.42-.36-9.24-.36h-5.51v5.78h20.27c5.33,0,8.36-.18,10.49-.44v13.16c-2.4-.36-5.96-.53-10.67-.53h-7.02l11.47,4c-2.67,5.69-4.8,9.51-6.84,12.62h4.62c4.98,0,7.91-.18,11.11-.53v13.33c-3.38-.36-7.47-.53-11.47-.53h-56.36c-4.71,0-8.53,.18-12.09,.53v-13.33c3.47,.36,7.02,.53,12,.53h2.76c-1.87-5.33-3.02-7.73-6.22-12.8l11.47-3.82h-6.58c-4.27,0-7.64,.18-10.67,.53v-13.16c2.58,.35,5.6,.44,10.76,.44h19.2v-5.78h-5.33Zm5.33,17.96h-11.2c2.58,4.18,3.82,6.84,6.4,13.16l-11.11,3.47h15.91v-16.62Zm17.6-29.6c-4.71-3.64-7.02-5.96-10.4-10.05-3.29,4.09-5.42,6.22-10.22,10.05h20.62Zm11.82,46.23l-10.85-3.64c3.73-5.78,4.8-7.82,6.58-12.98h-11.38v16.62h15.65Z"/><path class="cls-3" d="M444.71,118.74c-3.2-.27-3.82-.27-9.51-.27h-24.98c-5.6,0-6.4,0-9.51,.27v-11.47c2.49,.36,5.16,.45,10.31,.45h23.38c5.24,0,7.82-.09,10.31-.45v11.47Zm-30.4,45.87c1.16,.09,1.51,.09,2.49,.18-1.24-1.69-2.58-2.93-4.09-4.18v19.56c0,4.8,.09,6.31,.27,8.27h-11.91c.36-3.11,.44-5.96,.44-12.18v-26.05c0-3.47-.09-6.04-.36-8.53,1.69,.18,3.65,.27,6.67,.27h29.96c3.11,0,4.8-.09,6.49-.27-.18,2.31-.27,4.44-.27,7.91v28c0,5.96-1.24,8.53-4.62,9.69-1.87,.53-4,.71-8.98,.71-.62-5.69-.89-7.11-2.22-10.76,1.6,.27,2.84,.45,3.47,.45,1.33,0,1.87-.45,1.87-1.78v-13.07h-2.49c-5.87,0-7.02-.71-7.02-4.27v-7.2h-1.78c-.18,6.58-1.24,9.69-4.18,13.42h9.51c2.4,0,2.84,0,4.36-.18v8.36c-1.33-.18-2.04-.18-4.36-.18v8c0,2.04,.09,3.2,.27,4.89h-9.78c.18-1.51,.27-3.2,.27-4.8v-8.09c-2.04,0-2.58,0-4,.18v-8.36Zm27.38-28.54c0,1.07,.09,2.76,.18,3.73-1.69-.18-2.67-.18-5.16-.18h-25.87c-3.91,0-4.71,0-6.67,.18,.09-.8,.09-3.2,.18-7.11v-5.07c-.09-3.82-.09-6.04-.18-6.93,1.69,.18,2.58,.18,6.67,.18h24.36c4.09,0,4.89,0,6.67-.18-.09,1.07-.18,2.67-.18,4v11.38Zm-28.98,23.73c2.4-2.13,3.11-4,3.29-8.44h-3.29v8.44Zm17.16-31.02h-13.42v3.02h13.42v-3.02Zm.36,26.05c0,1.16,.36,1.42,1.6,1.42h1.69v-4.89h-3.29v3.47Zm26.58-39.74c0-5.07-.09-7.2-.44-9.87h13.87c-.36,2.67-.45,4.71-.45,9.87v3.38h4c3.91,0,5.78-.09,8.18-.27-.27,3.02-.36,5.07-.36,9.87v20.71c0,5.07,.09,7.47,.36,10.13-2.22-.18-4.62-.27-8.18-.27h-4.71v11.73c1.42-.27,1.87-.36,3.2-.62-.45-2.04-.62-2.76-1.24-5.6l8.8-2.49c2.31,8,3.2,12.09,5.16,23.02l-9.6,3.82c-.53-4.18-.71-5.25-1.07-7.65-4.8,1.33-13.78,3.56-20.53,4.98-.27,.09-2.58,.62-7.02,1.6l-2.58-14.05c4.45-.09,5.78-.18,12.62-1.07v-13.69h-3.56c-4.44,0-5.07,0-7.38,.18,.18-2.4,.18-3.64,.18-9.07v-22.49c0-5.16,0-6.84-.18-9.07,2.22,.18,3.82,.27,8.8,.27h2.13v-3.38Zm-1.6,15.56v15.91h2.93v-15.91h-2.93Zm16.62,15.91v-15.91h-3.11v15.91h3.11Z"/></g><g><path class="cls-2" d="M347.13,26.98c-1.83,5.35-3.24,14.14-3.57,22.69l3.62,1.22c-1.22,4.23-1.83,8.45-1.83,13.15,0,.89,0,1.32,.14,2.3l-8.08,.38c-.05-.89-.05-1.27-.23-2.49-.89-6.29-1.22-10.38-1.22-14.84,0-5.4,.56-11.32,1.78-18.08,.56-3.29,.61-3.62,.7-5.03l8.69,.7Zm12.96,20.53c-2.16,2.77-3.15,4.79-3.15,6.48,0,2.16,2.11,3.33,6.11,3.33s8.13-.66,11.7-1.93l.47,8.31q-1.22,.14-3.99,.56c-2.54,.38-5.45,.61-8.13,.61-4.37,0-7.28-.61-9.72-1.97-2.63-1.5-4.32-4.41-4.32-7.47,0-2.3,.8-4.88,2.25-7.33,.66-1.08,.94-1.55,2.21-3.38l6.58,2.77Zm-9.21-16.96c2.21,.47,4.7,.7,8.36,.7,6.25,0,10.85-.38,14-1.17l.33,8.03c-.42,0-.89,.05-3.48,.33-3.24,.33-6.67,.52-9.91,.52-2.87,0-5.21-.09-8.08-.38-.38-.05-.7-.05-1.36-.09l.14-7.94Z"/><path class="cls-2" d="M397.33,26.51c-.42,.94-.89,2.54-1.36,4.65-1.46,6.39-2.11,11.74-2.25,18.22l3.62,1.22c-1.46,4.56-1.97,8.36-1.97,14.33,0,.24,.05,.85,.14,1.88l-7.94,.33q-.05-.85-.38-3.71c-.84-6.58-1.03-9.16-1.03-14.23,0-6.62,.42-10.76,1.88-18.98,.38-2.11,.56-3.38,.56-4.09v-.23l8.74,.61Zm1.69,7.66c1.93,.47,5.21,.75,8.78,.75,.99,0,1.78,0,3.38-.05v-6.11c0-1.13-.09-1.93-.23-2.63l8.13-.05c-.24,1.5-.38,3.57-.38,8.22,2.87-.33,5.68-.89,7.47-1.46l.28,7.47c-.61,.05-.75,.09-1.74,.28-1.46,.33-3.57,.61-5.92,.89,.05,3.66,.09,4.6,.42,10.01,3.24,1.46,4.93,2.4,7.56,4.27,.23,.19,.47,.33,.89,.56l-2.96,7.98c-1.08-1.31-2.91-2.77-5.59-4.46v.38c0,3.99-4.09,6.67-10.1,6.67-6.9,0-10.99-3.29-10.99-8.74,0-2.82,1.27-5.26,3.57-6.9,1.78-1.27,4.27-1.93,7.23-1.93,.99,0,1.69,.09,2.72,.28-.05-1.31-.05-1.55-.14-3.76-.05-1.6-.05-2.26-.09-3.9-1.08,.05-1.74,.05-2.68,.05-1.41,0-4.13-.09-8.08-.24-.56-.05-.94-.05-1.08-.05h-.56l.09-7.56Zm12.68,22.36c-1.17-.42-1.88-.56-2.87-.56-2.16,0-3.48,.84-3.48,2.16,0,1.22,1.22,2.02,3.1,2.02,2.25,0,3.29-.84,3.29-2.72l-.05-.89Z"/></g><line class="cls-4" x1="444.79" y1="46.16" x2="963.79" y2="46.16"/></g></g></g></svg>