<?xml version="1.0" encoding="UTF-8"?>
<svg id="Layer_2" xmlns="http://www.w3.org/2000/svg" version="1.1" viewBox="0 0 1276.3 116.3">
  <!-- Generator: Adobe Illustrator 29.1.0, SVG Export Plug-In . SVG Version: 2.1.0 Build 142)  -->
  <defs>
    <style>
      .st0 {
        fill: #e86900;
      }

      .st1 {
        fill: #fff;
      }

      .st2 {
        fill: #0e95cc;
      }

      .st3 {
        fill: none;
        stroke: #282723;
        stroke-linecap: round;
        stroke-linejoin: round;
        stroke-width: 3px;
      }
    </style>
  </defs>
  <path d="M355.7,58.3c.3-1.2.4-1.7.6-2.7.1-.8.3-2.3.6-4.6l2-18.4c.3-2.3.4-4.8.6-7.6h13c-.4,1.3-1.3,5.2-1.9,7.6l-4.1,18.4c-.5,2.5-.8,3.7-.9,4.6,0,.6-.2,1.3-.4,2.8h-9.6,0ZM352,74l2-11.6h11.7l-1.8,11.6h-11.9Z"/>
  <polygon class="st2" points="91.8 100.4 14.3 87.3 14.3 17.7 91.8 17.7 91.8 100.4"/>
  <polygon class="st2" points="173 100.4 95.5 87.3 95.5 17.7 173 17.7 173 100.4"/>
  <polygon class="st2" points="253.7 100.4 176.2 87.3 176.1 17.7 253.7 17.7 253.7 100.4"/>
  <polygon class="st2" points="334.3 100.4 256.8 87.3 256.8 17.7 334.3 17.7 334.3 100.4"/>
  <path class="st1" d="M44.5,40.8c2.6,0,4.3,0,5.5-.2-.2,1.4-.2,2.6-.2,4.8v6.8c0,2.2,0,3.5.2,4.9-1.6,0-3.5-.2-6.1-.2h-9.5v18.1c0,3.7,0,5.4.3,6.8h-6.8c.2-1.7.4-3.6.4-7.3v-27.4c0-1.7,0-2.7-.1-4.4-1.2-1.8-2.3-3.1-3.8-4.3,2.9-2.2,4.1-3.3,5.7-5.5s2.5-3.8,3.4-6.2l6.1,1.5c-.6,1.2-.8,1.5-1.4,2.6h7.6c2.8,0,4.3,0,5.8-.3v4.8c2.1-2.7,3.4-5.4,4.2-8.6l6.2,1.2c-.3.7-.8,1.6-1.4,2.9h11.1c3.1,0,4.7-.1,6.5-.4v5.8c-1.8-.2-3.5-.3-6.2-.3h-4.1c.8,1.1,1.2,1.7,2.1,3.1l-3.8,1.5h4c2.8,0,4.6,0,6.1-.2-.2,1.9-.2,3.9-.2,6.7v28.4c0,2.6-.8,4.2-2.2,5-1.2.6-2.9.8-6.7.8s-1.9,0-3.7,0c-.2-2-.4-3.1-.9-4.5-1.3,0-2.7,0-4.7,0h-11.8v2.4h-6c0-1.6.2-2.9.2-5.2v-10c0-2.2,0-3.7-.2-5.2,1.5,0,3,.2,5.5.2h12.4c2.7,0,4.1,0,5.6-.2,0,1.5-.2,3-.2,5.2v11.5c1.5,0,3.5.2,4.4.2,1.7,0,2.1-.2,2.1-1.5v-17.3h-10.2c-2.6,0-4.5,0-6.1.2.2-1.5.2-2.8.2-4.9v-6.8c0-2,0-3.4-.2-4.8h.4c-1.2-1.1-2.6-2.1-4.4-3.1l1.2-1.2c-1,0-2.4-.2-3.8-.2h-3.4c.5.8,1.1,1.8,1.9,3.2l-3.8,1.5h2.6l.2.2ZM40.2,40.8c-.5-1.2-1.4-3-2.3-4.7h-2.9c-1.3,1.8-2.4,2.9-4,4.6h9.2ZM34.5,47.2h9.7v-2.2h-9.7v2.2ZM34.5,52.9h9.7v-2.2h-9.7v2.2ZM46.2,65.8h11.5v-2.5h-11.5v2.5ZM46.2,72.3h11.5v-2.4h-11.5v2.4ZM64.7,40.8c-1.1-2-1.6-2.9-2.7-4.6h-4.1c-1.4,2.1-2,2.9-3.4,4.5,1.6,0,2.7,0,4.8,0h5.4ZM59.9,47.2h10.3v-2.2h-10.3s0,2.2,0,2.2ZM59.9,52.9h10.3v-2.2h-10.3s0,2.2,0,2.2Z"/>
  <path class="st1" d="M119,62.4c-2.7,0-4.2,0-6.2.2.2-1.9.2-3.4.2-5.9v-12.4c0-2.9,0-4.5-.2-6.2,1.5.2,2.7.2,5.4.2-1.5-3-2.7-4.8-5.2-7.7l5.8-2.5c2.7,3.2,3.9,4.9,5.8,8.3l-4.5,1.9h22.3c2.8-3.9,4.5-7,5.8-10.5l6.9,2.2c-2.5,4.1-3.9,6.2-5.6,8.3,3.2,0,4.7,0,6.2-.2-.2,1.6-.2,3.2-.2,6.2v12.3c0,2.8,0,4.5.2,6.1-2.1,0-3.8-.2-6.2-.2h-12.4v3.8h17.2c3,0,4.7,0,6.4-.3v6.5c-1.7-.2-4.1-.4-7.1-.4h-16.6v3.8c0,2.9,0,4.1.4,6h-7.2c.3-1.7.4-3,.4-6v-3.8h-16c-3,0-5.2,0-7,.4v-6.5c1.8.2,3.6.3,6.5.3h16.5v-3.8h-11.7.1ZM130.7,43.5h-11.4v4h11.4v-4ZM130.7,52.5h-11.4v4.5h11.4v-4.5ZM132.6,37.8c-1.2-3.5-2.1-5.2-4.6-9.1l6.1-1.7c2.3,3.4,3,4.7,4.8,8.7l-6.2,2.1h-.1ZM149.2,47.5v-4h-12.1v4h12.1ZM149.2,57v-4.5h-12.1v4.5h12.1Z"/>
  <path class="st1" d="M198.8,71.6c5.5-1.6,8.4-2.5,13.7-4.4v6.2c-4.5,1.8-7.5,2.8-14.7,5.1-1.3.4-3.4,1-6.2,1.8-.5.2-.9.3-1.2.4-1.4.4-2.5.8-3.2,1.1l-1.4-7.3c2.1-.2,3.5-.4,6.5-1.1v-37.9c0-3.1-.1-4.7-.4-6.6h7.4c-.3,1.9-.4,3.4-.4,6.6v9.8h8.1c2.8,0,4.1,0,5.7-.4v7c-1.5-.3-2.9-.4-5.7-.4h-8.1v20h-.1ZM221.3,73.4c0,1.3.8,1.5,5,1.5s5.5-.2,6.1-1.1c.8-1.1,1.2-4.5,1.2-11.9,2.4,1.3,3.7,1.9,6.2,2.6-.4,8.8-1.1,12.1-2.8,14-1.6,1.8-4.2,2.4-11.2,2.4s-7.5-.2-9-1.1c-1.6-.8-2.2-2.2-2.2-4.9v-39.4c0-3.3-.1-4.9-.4-6.7h7.3c-.3,1.9-.4,3.5-.4,6.7v12.9c6.8-3.9,11.4-7.5,13.9-10.8l4.6,5.4c-.6.4-1.3,1-2.1,1.6-4.8,3.8-9.8,7.1-16.3,10.6v18h0v.2Z"/>
  <path class="st1" d="M312,41.3c2.9,5.4,5.1,8,9.7,11.8-1.7,2-3.1,3.7-4,5.1-1.5-1.4-2.1-2-3.1-3.1-1.2,4.5-3.4,9.6-5.7,13.4,3.6,4.1,7,6.4,12.8,8.9-1.6,2.4-2.2,3.4-3.4,6.2-6.6-3.8-9.5-6.1-13-10.2-4.1,4.6-7.7,7.4-13.2,10.2-1.5-2.7-2.1-3.5-3.9-5.4,5.9-2.5,9.7-5.2,13.5-9.6-2.1-3.2-3.5-6.2-5.8-12.1-.7.8-1,1.1-1.9,2-1.1-1.4-1.6-1.9-2.9-3.2v4.1c0,2.9,0,4.7.2,6.4-1.3,0-2.3-.2-5.2-.2h-3.1v3.8h4.4c2.2,0,3.2,0,4.8-.3v6.1c-1.7-.2-2.6-.3-4.8-.3h-4.4v3.4c0,1.9.1,3.4.4,5.2h-6.5c.3-1.9.4-3.4.4-5.4v-3.2h-4.8c-2.7,0-3.7,0-5.4.3v-6.1c1.5.2,2.7.3,5.4.3h4.8v-3.8h-2.6c-2.7,0-3.8,0-6,.2.2-1.8.2-3.9.2-6.6v-10.1c0-2.7,0-4.4-.2-6.1,1.9,0,3.1.2,5.8.2h2.8v-3.1h-4.5c-2.5,0-3.8,0-5.4.2v-6c1.6.2,2.7.3,5.4.3h4.5v-.7c0-1.8-.1-3.2-.4-4.8h6.5c-.2,1.5-.4,2.9-.4,4.8v.7h3.2c2.7,0,3.7,0,5.4-.3v6c-1.6-.2-2.5-.2-5.4-.2h-3.2v3.1h3.3c2.8,0,3.7,0,5-.2-.1,1.2-.2,2.6-.2,5.7v4.2c3.7-3.6,5.8-6.7,7.8-11.6l5.3,2.5c-2.2,4.6-3.8,7.3-6.7,10.9l3.8-1.6c.6,3.2,2.1,7,4.2,10.3,1.7-3.2,2.9-6.8,3.6-10.7l5.4,2.1c-2.9-3.3-4.8-6.1-7.3-11l5-2.5h-.2ZM273.6,47.9v4.1h3.6v-4.1h-3.6ZM273.6,56.7v4.2h3.6v-4.2h-3.6ZM286.1,52v-4.1h-3.6v4.1h3.6ZM286.1,60.9v-4.2h-3.6v4.2h3.6ZM302.2,33.4c0-1.9,0-3.1-.3-4.4h7c-.2,1.2-.3,2.4-.3,4.3v2h6c2.6,0,4.2,0,6-.3v6.4c-1.8-.2-3.8-.3-6-.3h-16.2c-2.4,0-4.1,0-5.8.3v-6.4c1.6.3,3.2.4,5.8.4h3.9v-1.9h-.1Z"/>
  <g>
    <g>
      <g>
        <path class="st2" d="M641,91.5c-3.3-5.2-5.5-7.7-9.7-11.3l-1.5-1.3,1.7-.9c10-5.3,15.6-10.5,19.3-17.9,1.7-3.5,2.5-6.1,3.4-11.2h-8c-5,0-6.6,0-10.2.5l-1.5.2v-16.1l1.4.2c3.8.5,5,.6,10.5.6h9.3c.2-2.8.3-6.5.3-8.5s0-2.1-.2-3.6l-.2-1.6,17.6.5-.3,1.6c-.3,1.6-.4,1.8-.7,8v1.1c0,1.3,0,1.8-.2,2.5h15.2c2.5,0,3.2-.2,4.6-.7l.8-.3,7.4,6.4-.5.9c-.7,1.3-.8,1.6-.9,5.1-.6,16.9-1.7,29.5-3.3,34.6-2.4,7.7-6.6,10.5-15.7,10.5s-4.4,0-10.1-.6h-1.2v-1.3c-.3-6.2-.9-8.6-2.5-13.1l-.9-2.4,2.5.6c3.5.9,7.2,1.5,9.6,1.5s3.3,0,4.3-6.7c.7-4.9,1.4-13.6,1.4-19.8h-12.1c-.5,4-.5,4.2-1,6.6-3.5,15.9-11,26.1-26.8,36.5l-1.1.7-.7-1.1h0v-.2Z"/>
        <path class="st1" d="M657.2,21.9l14.4.4c-.4,1.8-.4,2-.8,9.3,0,1.4,0,2.7-.2,3.9h16.7c2.5,0,3.4-.2,5.1-.8l6,5.2c-.8,1.5-1,2.1-1.1,5.7-.5,16.4-1.7,29.2-3.2,34.2-2.2,7.1-5.9,9.6-14.4,9.6s-4.1,0-10-.6c-.3-6.1-.8-8.7-2.6-13.5,3.8,1,7.6,1.5,10,1.5,3.7,0,4.6-1.2,5.6-7.9.8-5.1,1.5-14.8,1.5-21.4h-14.6c-.4,3.4-.8,5.9-1.2,7.7-3.4,15.5-10.6,25.4-26.2,35.7-3.4-5.4-5.7-8-10-11.6,10.2-5.4,16.1-10.8,19.9-18.5,1.9-3.9,2.8-6.7,3.8-13.1h-9.6c-5.1,0-6.7,0-10.3.5v-13.1c3.8.5,5.1.6,10.6.6h10.6c.2-3,.4-7.4.4-9.8s0-2.2-.2-3.8M654.2,19.2l.4,3.1c.2,1.4.2,1.9.2,3.5s0,4.6-.2,7.1h-8.1c-5.3,0-6.6,0-10.3-.6l-3-.4v19.1l2.9-.3c3.6-.4,5.1-.4,10.1-.4h6.4c-.8,4.3-1.6,6.4-3,9.3-3.6,7.2-9,12.2-18.8,17.3l-3.5,1.8,3,2.5c4.1,3.5,6.2,6,9.4,11l1.5,2.3,2.3-1.5c9.2-6.1,15.7-12.1,20.2-19.2l.8,2.3c1.6,4.5,2.1,6.7,2.4,12.7v2.3c0,0,2.4.2,2.4.2,5.8.5,7.1.6,10.3.6,9.6,0,14.4-3.2,16.9-11.4,2.1-7.1,3-24.9,3.3-34.9,0-3.2.2-3.4.7-4.5l1-1.9-1.6-1.4-6-5.2-1.2-1.1-1.5.6c-1.3.5-1.8.6-4.1.6h-13.8v-2.1c.5-6.2.5-6.4.8-7.8l.7-3.1h-3.2l-14.4-.5h-3.2.2ZM671.8,50.2h9.6c0,6-.7,13.8-1.4,18.3-.2,1.2-.7,4.3-1.3,5.3,0,0-.2.3-1.6.3-2.3,0-5.9-.6-9.3-1.4l-2.8-.7c2.7-4.8,4.6-10.1,6-16.2.5-2.2.6-2.7.9-5.6h-.1Z"/>
      </g>
      <g>
        <path class="st2" d="M781,64.9c-3.7-.4-7.2-.5-15.6-.5h-36.4c-8.5,0-11,0-15.7.5h-1.4c0,0,0-17.6,0-17.6l1.5.2c3.4.5,7.3.7,15.5.7h36.6c7.8,0,10.6-.2,15.6-.7l1.5-.2v17.7l-1.5-.2h0Z"/>
        <path class="st1" d="M781.1,48.8v14.8c-3.7-.4-7-.5-15.8-.5h-36.4c-8.6,0-11.1,0-15.8.5v-14.8c3.6.5,7.7.7,15.7.7h36.6c7.7,0,10.6-.2,15.7-.7M710.5,45.7v20.8l2.9-.2c4.6-.4,7.1-.5,15.6-.5h36.4c9,0,12.1,0,15.5.4l2.9.3v-20.7l-2.9.3c-4.9.5-7.7.7-15.4.7h-36.6c-8.1,0-12-.2-15.3-.7l-3.1-.5h0Z"/>
      </g>
      <g>
        <path class="st2" d="M800.8,91.2v-1.5c.4-3.1.5-5.2.6-11.6v-44.7c0-6.4,0-6.7-.5-10.8l-.2-1.5h17.8l-.2,1.5c-.3,1.8-.3,3.1-.4,10.1v10.4c12.1,4,23.9,9.4,34.2,15.8l1.1.7-8.6,15.4-1.2-.9c-6.3-4.5-15-9.3-23.9-13.2,0,0-1.4-.6-1.6-.6v17.8c0,7.1.2,10.2.4,11.5l.2,1.5h-17.8.1ZM836,41.9c-2.4-4.5-4.2-7.3-7.4-10.9l-1.2-1.4,9.8-4.4.7.7c3.1,3.5,5.6,7.1,7.8,11.2l.6,1.2-9.7,4.7-.6-1.1h0ZM846.5,36.9c-2.5-4.6-4.6-7.6-7.3-10.7l-1.2-1.3,9.4-4.3.7.7c3,3.3,5.2,6.3,7.8,10.9l.7,1.2-9.5,4.6-.6-1.1h0Z"/>
        <path class="st1" d="M847,22.2c2.8,3.1,5,6,7.7,10.6l-7,3.4c-2.7-4.8-4.8-7.9-7.5-10.9l6.9-3.1M817,22.5h0M817,22.5c-.3,2-.3,3.2-.4,11.2v10.5c12.1,3.9,24.1,9.3,34.8,15.9l-7.3,13c-6.4-4.5-15.2-9.4-24.1-13.3-2.3-.9-2.5-1-2.8-1.2-.2,0-.4-.2-.7-.4v19.9c0,5.7.2,9.7.5,11.7h-14.8c.3-3.2.4-5.4.5-11.7v-44.6c0-6.6,0-7-.5-11.1h14.8M836.8,26.8c3,3.4,5.4,6.9,7.6,10.9l-7.3,3.5c-2.5-4.8-4.5-7.7-7.6-11.2l7.3-3.3M847.7,19l-1.8.8-6.9,3.1-1.5.7h0l-1.8.8-7.3,3.3-3.3,1.5,2.3,2.7c3.1,3.6,4.9,6.2,7.2,10.7l1.2,2.3,2.3-1.1,7.3-3.5.9-.4h0l2.3-1,7-3.4,2.6-1.3-1.4-2.5c-2.7-4.7-4.9-7.8-8-11.1l-1.3-1.4h0l.2-.2ZM820,19.8h-20.9l.3,3c.4,4,.4,4.3.5,10.6v44.7c0,6.4-.2,8.4-.4,11.5l-.3,2.9h20.8l-.5-3.1c-.2-1.3-.4-4.3-.4-11.3v-15.8c8.7,3.8,17.2,8.5,23.4,12.9l2.4,1.7,1.5-2.6,7.3-13,1.2-2.2-2.2-1.3c-10.2-6.2-21.7-11.6-33.6-15.6v-9.4c0-7.1,0-8.2.4-9.9l.5-3.1h0ZM816.9,19.8h0ZM816.9,25.2h0Z"/>
      </g>
      <g>
        <path class="st2" d="M869.1,89.6l.2-1.5c.4-3.9.6-6.5.6-12.3v-39.4c0-3.3,0-5.7-.3-8.7v-1.6c0,0,1.4.1,1.4.1,2.5.2,4,.3,9.2.3h41.3c4.7,0,5.8,0,9.4-.3h1.5c0-.1,0,1.4,0,1.4-.2,2.8-.2,5.5-.2,9v38.8c0,5.9.2,9.5.5,12.5l.2,1.5h-16.7v-5.1h-30.2v5.3h-16.9ZM916.1,69.4v-27.9h-30.2v27.9h30.2Z"/>
        <path class="st1" d="M931,27.6h0M931,27.6c-.2,2.7-.2,5.4-.2,9v38.8c0,5.9.2,9.6.5,12.6h-13.9v-5.1h-32.8v5.3h-13.9c.5-4.2.6-6.8.6-12.5v-39.4c0-3.3,0-5.7-.3-8.8,2.7.2,4.2.3,9.3.3h41.3c4.7,0,5.9,0,9.5-.3M884.6,70.8h32.8v-30.5h-32.8v30.5M868.1,24.7l.2,3.1c.2,3,.3,5.3.3,8.6v39.4c0,5.7-.2,8.2-.6,12.2l-.3,2.9h19.6v-5.3h27.5v5.1h19.5l-.4-3c-.4-2.9-.5-6.5-.5-12.3v-38.8c0-3.4,0-6.1.2-8.9l.2-3.1-3.1.3c-3.5.3-4.6.3-9.3.3h-41.3c-5.1,0-6.5,0-9-.3l-3.1-.3h0ZM931,25h0ZM931,30.3h0ZM887.2,42.9h27.5v25.2h-27.5v-25.2h0Z"/>
      </g>
      <g>
        <path class="st2" d="M1015.7,64.9c-3.7-.4-7.2-.5-15.6-.5h-36.4c-8.5,0-11,0-15.7.5h-1.4c0,0,0-17.6,0-17.6l1.5.2c3.4.5,7.3.7,15.5.7h36.6c7.8,0,10.6-.2,15.6-.7l1.5-.2v17.7l-1.5-.2h0Z"/>
        <path class="st1" d="M1015.9,48.8v14.8c-3.7-.4-7-.5-15.8-.5h-36.4c-8.6,0-11.1,0-15.8.5v-14.8c3.6.5,7.7.7,15.7.7h36.6c7.7,0,10.6-.2,15.7-.7M945.2,45.7v20.8l2.9-.2c4.6-.4,7.1-.5,15.6-.5h36.4c9,0,12.1,0,15.5.4l2.9.3v-20.7l-2.9.3c-4.9.5-7.7.7-15.4.7h-36.6c-8.1,0-12-.2-15.3-.7l-3.1-.5h0Z"/>
      </g>
      <g>
        <path class="st2" d="M1026.7,72.5h1.6c7.7-.7,15.6-2.6,22.6-5.5,9.4-3.9,16.2-9.6,21.8-18.4,3.1-4.7,5.1-8.8,7.4-14.8l.8-2.1,1.5,1.8c3.7,4.5,5.5,6,11,10l.9.6-.5,1c-7.1,15.4-14.5,24.5-25.5,31.6-8.5,5.5-15.8,8.3-30.2,11.7l-1.3.3c-1.9.4-2.4.6-4.1,1.1l-1.3.4-4.8-17.6h0ZM1047.5,54c-6.6-6.9-12.9-11.8-20.5-15.9l-1.4-.8,10.5-12.9,1,.6c9.9,5.8,14.8,9.3,21.3,15.2l.9.8-10.7,14.2-1.1-1.1h0Z"/>
        <path class="st1" d="M1036.4,26.1c9.6,5.7,14.6,9.2,21.1,15l-9,11.9c-6.7-7-13.2-12-20.8-16.2l8.8-10.8M1081.4,34.2c3.8,4.5,5.5,6,11.3,10.3-7,15.1-14.2,24.1-25,31-8.3,5.4-15.5,8.2-29.8,11.5-3,.7-3.4.8-5.5,1.4l-4-14.7c7.8-.6,15.8-2.5,23-5.5,9.6-4,16.5-9.7,22.4-18.9,3.2-4.9,5.3-9.1,7.5-15M1035.8,22.7l-1.4,1.8-8.8,10.8-2,2.5,2.8,1.5c7.4,4,13.7,8.8,20.2,15.7l2.2,2.3,1.9-2.5,9-11.9,1.5-1.9-1.8-1.6c-6.5-5.9-11.6-9.5-21.5-15.3l-2-1.2h0v-.2ZM1080.5,29l-1.6,4.3c-2.2,5.8-4.2,9.9-7.2,14.5-5.6,8.7-11.9,14.1-21.2,17.9-7,2.9-14.6,4.7-22.2,5.3l-3.2.3.8,3.1,4,14.7.7,2.6,2.6-.8c1.6-.5,2.2-.6,4-1l1.3-.3c14.5-3.4,22-6.2,30.6-11.8,11.2-7.2,18.7-16.5,25.9-32.1l.9-2-1.8-1.3c-5.8-4.2-7.3-5.6-10.8-9.8l-2.9-3.5h0Z"/>
      </g>
    </g>
    <g>
      <path d="M1176,60.1c-4.2-.4-8-.6-12.4-.6h-40.8c-4.4,0-8.1,0-12.4.6v-12.5c3.8.4,7.2.6,12.4.6h40.8c5.5,0,9.1,0,12.4-.6v12.5Z"/>
      <path d="M1208.6,44.9h2.8c3.2,0,4.5,0,5.5-.2v4.1h16.6c3.6,0,4.7,0,6.6-.2,0,.9,0,1.6,0,3.4v20.6c3.1,1.4,5,2,9.3,2.8-.5,7-1.4,9.8-3.7,11.4-2,1.4-5.2,1.9-14.3,1.9-12.9,0-15-.9-15-6.3v-6.5h-4c-2,4.7-6.3,8.6-11.9,10.9-3.8,1.5-7.8,2.3-14,2.8-1.4-3.7-2.5-5.9-4.8-9.3h.8c8.7,0,14.5-1.4,18-4.5h-2.7c-3.5,0-5.3,0-7.3,0,.2-1.7.3-3.8.3-7.1v-19h-1.7c-2.1,0-2.9,0-4.7,0,0-2,0-3.5,0-7.8v-11.7c0-4.5,0-6-.2-7.9,1.9.1,3.5.2,7.6.2h18c3.3,0,5.3,0,7.3-.4v7.1c-1.2-.1-2.7-.2-5.3-.2h-3v2h6.9v.5c3.3-2.9,5.7-6.8,6.8-10.9l10.6,1.7c-.4.9-.9,1.9-1.4,3.1h9.5c2.5,0,4.7-.1,6.6-.4v9.5c-1.9-.2-4.2-.3-6.5-.3h-15c-1,1.3-1.4,1.8-2.6,3.1h15.5c3.1,0,4.9,0,6.5-.2v8.6c-1.6-.2-3.5-.3-6.3-.3h-12.2c-2.4,0-4.7,0-6.1.2v-5.7c-.9.8-1.2,1.1-2.2,1.9-1.4-2.4-1.9-3.3-3.5-5.2v2.3c0,1.9,0,2.4,0,3.4h-7.1v2.2h0l.2.2ZM1199.5,31.4v-2h-5.3v2h5.3ZM1205.8,38.2v-2.2h-11.7v2.2h11.7ZM1194.1,42.7v2.2h5.3v-2.2h-5.3ZM1201.3,56.4h28.1v-1.9h-28.1v1.9ZM1201.3,62.9h28.1v-1.7h-28.1v1.7ZM1201.3,69.4h28.1v-1.8h-28.1v1.8ZM1227,78.1c0,1.7.6,1.9,5.3,1.9s5.5,0,6.2-.7c.6-.4.7-.8.9-3.2-1.8,0-3.1,0-6.4,0h-6v2.2h0Z"/>
    </g>
  </g>
  <g>
    <path class="st0" d="M392,32.6h14.9v-10.5h10.7v10.5h10.7v10.7h-10.7v5c6.8-.9,13.5-.4,19.9,1.6,3.5,1.1,6.2,3.1,8.3,6,2.1,2.9,3.1,6.3,3.1,9.8s-1,6.9-3.1,9.8c-2.1,2.9-4.8,5-8.3,6.2-4.4,1.3-8.8,2.1-13.5,2.3l-3.9-10.7c4.8.1,9.4-.4,13.7-1.7,1.2-.4,2.3-1.2,3.1-2.3.8-1.1,1.2-2.3,1.2-3.6s-.3-2.5-1.1-3.6-1.8-1.9-3-2.3c-5.4-1.5-10.7-1.8-16.2-.7v13.2c0,3.6-1.3,6.5-3.9,8.8-2.7,2.2-5.8,3.2-9.3,2.8-4.1-.4-7.7-2.1-10.6-4.9-2.9-2.9-4.3-6.3-4.1-10.3,0-4,1.6-7.4,4.5-10.1,3.9-3.4,8.2-5.8,12.6-7.7v-7.9h-14.9v-10.7.2ZM406.9,63.1c-1.7.9-3.4,2-5.1,3.5-.8.7-1.2,1.6-1.2,2.7s.3,1.8,1.1,2.7c1.2.9,2.5,1.5,3.9,1.7.4,0,.7,0,.9-.3s.3-.6.3-.9v-9.2h.1ZM429.2,39.2l4.9-10.9c5.6,1.6,10.7,4,15.4,7.4l-5.4,10.6c-4.6-3.1-9.6-5.5-15.1-7.2h.1Z"/>
    <path class="st0" d="M457.3,30.6h28.1v-7.6h10.2v7.6h19.6v10.4h-19.6v10.4c2.2,5,2.8,10.4,1.7,15.9-1.1,5.9-4.3,10.5-9.4,13.5-4.8,2.8-10.1,4.1-15.8,4.1l-5.8-10.5c4.5,0,9.1-.3,13.7-1.5,2.7-.7,4.7-2.2,6-4.7-4,1.7-7.9,1.6-11.7-.6-2.1-1.2-3.8-2.8-4.9-4.8s-1.8-4.3-1.8-6.6.6-4.6,1.7-6.6c1.1-2,2.8-3.6,4.8-4.8,3.7-1.8,7.5-2.1,11.5-1.1v-2.9h-28.1v-10.4h-.1ZM479.2,52.8c-.8.7-1.2,1.7-1.2,2.7s.4,2,1.2,2.7c1.8,1.2,3.6,1.2,5.3,0,.8-.7,1.2-1.6,1.2-2.7s-.4-1.9-1.2-2.7c-1.8-1.2-3.5-1.2-5.3-.2v.2Z"/>
    <path class="st0" d="M522.3,37.2h24.2v-6.6h8.7v6.6h16.9v9h-16.9v9c1.9,4.4,2.3,9,1.5,13.8-1,5.1-3.7,9.1-8.1,11.7-4.1,2.5-8.7,3.6-13.7,3.6l-5-9.1c3.9,0,7.8-.3,11.7-1.2,2.2-.6,4-1.9,5.1-4-3.5,1.5-6.8,1.3-10.1-.4-1.8-1-3.2-2.5-4.3-4.1-1-1.7-1.6-3.6-1.6-5.7s.4-4,1.5-5.7,2.3-3.1,4.1-4.1c3.1-1.6,6.5-1.9,10-.9v-2.5h-24.2v-9.2ZM541.1,56.4c-.7.7-1,1.5-1,2.3s.3,1.7,1,2.3c1.6,1.1,3,1.1,4.6,0,.7-.7,1-1.3,1-2.2s-.3-1.7-1-2.2c-1.5-1-3-1.1-4.6-.1h0Z"/>
    <path class="st0" d="M581.6,42l7.7-3c.6,2.6,1.3,5.4,2.2,8.4,3-1.6,6-2.3,9.3-2.5.6-2.6,1-5.3,1.2-8.1l8.3,1.6c-.2,2.3-.7,4.8-1.2,7.4,4.7,1.3,8.4,4,11,8.3,2.6,4.3,3.5,8.7,2.6,13.5-.9,4.8-3.4,8.6-7.3,11.6-4,3-8.4,4.3-13.2,3.8l-2.3-8.6c2.8,1.1,5.7.9,8.5-.4,2.8-1.3,4.8-3.5,5.7-6.4s.8-5.7-.7-8.5-3.6-4.7-6.5-5.6c-2.7,8.7-6.7,16.6-12.1,23.7-1.2,1.5-2.8,2.5-4.7,3s-3.8.6-5.6,0c-1.9-.6-3.5-1.7-4.7-3.1-1.2-1.6-2-3.2-2.1-5.1-.3-3.6.1-7.2,1.3-10.5,1.2-3.4,3-6.4,5.6-9.1-1-3.1-2.1-6.6-3.1-10.3h.1ZM588.2,61.3c-1.6,3.1-2.2,6.4-1.8,9.7.2.6.6.9,1.1,1.1.6.1,1,0,1.5-.3,1-1.5,1.8-2.6,2.3-3.5l-3.2-6.9h.1ZM594.2,55.1c.7,1.8,1.3,3.2,1.9,4.4.9-1.8,1.7-3.9,2.5-6.2-1.6.3-2.9,1-4.3,1.8h-.1Z"/>
  </g>
  <line class="st3" x1="396.3" y1="1.8" x2="617.7" y2="26.6"/>
  <line class="st3" x1="389.8" y1="112.6" x2="623" y2="92.8"/>
</svg>