<?xml version="1.0" encoding="UTF-8"?>
<svg id="Layer_2" xmlns="http://www.w3.org/2000/svg" version="1.1" viewBox="0 0 517.2 209">
  <!-- Generator: Adobe Illustrator 29.4.0, SVG Export Plug-In . SVG Version: 2.1.0 Build 152)  -->
  <defs>
    <style>
      .st0 {
        fill: #ffd86e;
      }

      .st1 {
        fill: #e51e03;
      }

      .st2 {
        fill: #ffc73e;
      }

      .st3 {
        fill: #f19114;
      }

      .st4 {
        fill: #fbf1f2;
      }

      .st5 {
        fill: #ffe198;
      }

      .st6 {
        fill: #eaf9ff;
      }

      .st7 {
        fill: #fff;
      }

      .st8 {
        fill: #fbe7b5;
      }

      .st9 {
        fill: #fff1d9;
      }

      .st10 {
        fill: #cef;
      }

      .st11 {
        fill: #b1dfff;
      }

      .st12 {
        fill: #751d0e;
      }

      .st13 {
        fill: #ffae22;
      }
    </style>
  </defs>
  <path class="st1" d="M49.3,0h241.7c11,0,20,9.7,20,21.8v51.2H29.2V21.8C29.2,9.7,38.2,0,49.3,0Z"/>
  <g>
    <polygon class="st12" points="26.6 174 61.6 209 61.6 164 26.6 174"/>
    <polygon class="st1" points="518.2 175 28.2 175 29.2 28 518.2 28 518.2 175"/>
  </g>
  <g>
    <g>
      <path class="st13" d="M68,128.7c-3-5.6-15.1-12-30.3-15.6-15.2-3.6-28.9-3.2-34.1.4l-1.4-.3-.8,3.2c-1.5,6.2,12.4,14.7,31,19.1,18.5,4.4,34.8,2.9,36.2-3.3l.8-3.2-1.4-.3h0Z"/>
      <ellipse class="st0" cx="35.8" cy="121.1" rx="11.5" ry="34.5" transform="translate(-90.3 128.3) rotate(-76.8)"/>
    </g>
    <g>
      <path class="st13" d="M67.1,124.3c-2.8-5.3-14.2-11.3-28.6-14.7-14.4-3.4-27.2-3-32.1.4l-1.3-.3-.7,3c-1.4,5.8,11.7,13.9,29.2,18,17.5,4.1,32.7,2.7,34.1-3.1l.7-3-1.3-.3h0Z"/>
      <ellipse class="st0" cx="36.7" cy="117.2" rx="10.8" ry="32.5" transform="translate(-85.8 126.1) rotate(-76.8)"/>
    </g>
    <g>
      <path class="st10" d="M61.1,97.6c-1-9.4-5.9-16.8-9-20.6-.7-.4-1.3-.7-1.8-1-.6-.4-1-1.1-.8-1.8s.8-1.2,1.5-1.3c.1,0,.2,0,.3,0,3.3-2.4,10.4-8.3,16.8-17.5,4.9-7.1,6.4-19.7,6.8-29.3l-14.9-7.6-32.9.4c-8,34.1,9,48.1,16.7,52.4.6.4,1,1.1.8,1.8s-.8,1.2-1.5,1.3c-8.7.5-28.7.3-36.9,33.6,0,.2-.2.4-.2.6-1.3,5.7,11.5,13.7,28.7,17.7,4.2,1,8.3,1.7,12.1,2,3.8-4.3,15.7-18.8,14.4-30.7h0Z"/>
      <path class="st6" d="M68.1,55.3c-6.3,9.2-13.5,15.1-16.8,17.6,9-.6,30-5.8,37.9-39.5l-14.4-7.4c-.4,9.6-1.9,22.3-6.8,29.3h0Z"/>
      <path class="st6" d="M68.2,123.2c0-.2,0-.4,0-.7,7-31-7.9-40.8-16.2-45.5,3.1,3.8,8,11.1,9,20.6,1.3,11.8-10.6,26.4-14.4,30.7,11.7,1.1,20.5-.8,21.5-5.1Z"/>
      <path class="st11" d="M36.2,47.8c1.6,11.1,5.3,19.5,7.2,23.2-7.8-4.6-24.3-18.6-16.4-52.3l16.2-.2c-3.9,8.8-8.2,20.8-7,29.3Z"/>
      <path class="st11" d="M5.9,108.6c0-.2.1-.4.2-.6,7.6-30.9,25.3-33,34.8-33.5-4.5,2-12.1,6.4-17.2,14.4-6.4,10-2.2,28.3-.8,33.9-10.9-4.2-18-9.8-17-14.1h0Z"/>
    </g>
    <g>
      <path class="st4" d="M52.8,71.8c4.7,0,9.3-1.9,14.1-4.6,8.2-4.7,9.8-8.2,9.8-8.2,0,0-3.3-2.3-8.1-4.4-.2.3-.3.5-.5.8-5.5,8.1-11.7,13.6-15.3,16.5Z"/>
      <path class="st4" d="M66.9,124.2h.3c0,0,.2-.8.2-.8.2-.3.3-.7.4-1,0-.3,0-.5,0-.8l.5-1.9s1.2-5.8-8.4-8.1c-.7-.2-1.3-.3-1.9-.5-3.2,6.9-8.1,13.2-10.8,16.3,9.4.8,16.8-.4,19.4-3.3h0Z"/>
      <g>
        <path class="st0" d="M58.4,66.8c3-2.9,6.5-6.8,9.7-11.5.2-.2.3-.5.5-.8-3.6-1.5-8.1-2.9-12.7-3-10.7-.2-14.2-3.3-19.9-4s-7.5,4.5-7.5,4.5c0,0,.2.6.7,1.5,1.8,1.8,4.2,3.8,7.2,5.9,5.5,3.9,14.5,6.1,22,7.3Z"/>
        <path class="st2" d="M42.1,68.9c.6.3,1.1.6,1.7.9.9,1.1,1.7,2.3,1.5,2.9-.4,1.3-2.2,2-2,2.4s1.1,2.2,3.2,2.3c2,0,2-.6,2.2-2.1.2-1.5,1.3-3.3,2.3-3.3.5,0,.8,0,.9-.2h.8c1.5-1.2,3.5-2.8,5.6-4.9-7.5-1.2-16.6-3.4-22-7.3-3.1-2.2-5.4-4.2-7.2-5.9,1.7,3.3,6.2,11.4,13,15.3h0Z"/>
        <path class="st2" d="M8.4,102.7l-1,3.2.2.2c-.6.6-.9,1.2-1.1,1.9-1.3,5.7,11.3,13.5,28.3,17.4,4.4,1,8.7,1.7,12.6,2.1.5-.6,1.1-1.4,1.8-2.2-5.9-1.8-12.9-4.6-18.4-8.6-7-5.1-11.3-11.3-13.7-15.6-6.2-.2-8.8,1.5-8.7,1.5Z"/>
      </g>
    </g>
    <path class="st6" d="M59.6,19.8l28,14.3c-3.4,13.8-9.5,24.1-18,30.4-3.2,2.4-6.7,4.2-10.4,5.3-2.7.9-5.5,1.4-8.2,1.5-1.4,0-2.5,1.1-2.9,2.4s.3,2.7,1.5,3.4c.3.2.6.3.9.5,3.9,2.2,9.8,5.5,13.8,12.1,2.2,3.6,3.6,7.9,4.1,12.7.7,5.7.2,12.3-1.5,19.6h0v.2c0,.1,0,.3,0,.4-.3,1.2-1.6,2-2.6,2.5-1.7.8-4.1,1.3-7,1.6-6.2.6-14.1-.2-22.3-2.1-8.2-1.9-15.6-4.8-20.9-8-2.5-1.5-4.4-3.1-5.5-4.5-1.3-1.6-1.4-2.7-1.2-3.4,0-.1,0-.2.1-.4h0c0-.1,0-.2,0-.2,1.8-7.3,4.3-13.4,7.4-18.2,2.6-4,5.8-7.2,9.3-9.5,6.5-4.1,13.2-4.5,17.7-4.7.4,0,.7,0,1.1,0,1.4,0,2.5-1.1,2.9-2.4s-.3-2.7-1.5-3.4c-2.4-1.4-4.6-3.1-6.7-5-2.8-2.7-5.2-5.9-7-9.4-4.8-9.5-5.7-21.3-2.6-35.2l31.4-.4M59.9,18.3l-32.9.4c-8,34.1,9,48,16.7,52.4.6.4,1,1.1.8,1.8h0c-.2.7-.8,1.2-1.5,1.3-8.7.5-28.7.3-36.9,33.6,0,.2-.2.4-.2.6-1.3,5.7,11.5,13.7,28.7,17.7,17.2,4,32.3,2.7,33.6-3.1,0-.2,0-.4,0-.7,7.5-33.5-10.5-42.2-18-46.5-.6-.4-1-1.1-.8-1.8h0c.2-.7.8-1.2,1.5-1.3,8.8-.5,30.3-5.4,38.3-39.5l-29.3-15h0Z"/>
    <g>
      <path class="st3" d="M55,39.5c-17.4-4.1-30.5-12.1-29.1-17.9l-.7,3c-1.4,5.8,11.7,13.8,29.1,17.9,17.4,4.1,32.7,2.7,34-3.1l.7-3c-1.4,5.8-16.6,7.2-34,3.1Z"/>
      <g>
        <path class="st8" d="M67.7,30.2c3.3-3.1,4.1-5.9,3.9-8.1-3.6-1.4-7.5-2.6-11.7-3.6-17.4-4.1-32.7-2.7-34,3.1-1,4.1,5.3,9.4,15.3,13.5,4.6.2,20.4.6,26.5-5Z"/>
        <path class="st9" d="M89,36.4c1-4.4-6.2-10.1-17.3-14.4.2,2.2-.6,5.1-3.9,8.1-6.1,5.5-21.9,5.2-26.5,5,4.1,1.7,8.7,3.2,13.8,4.4,17.4,4.1,32.7,2.7,34-3.1Z"/>
      </g>
    </g>
    <g>
      <path class="st13" d="M55.7,36.6c-18.5-4.4-32.4-12.9-31-19.1l-.8,3.2c-1.5,6.2,12.4,14.7,31,19.1s34.8,2.9,36.2-3.3l.8-3.2c-1.4,6.2-17.7,7.7-36.2,3.3Z"/>
      <g>
        <path class="st5" d="M91.9,33.2c1.1-4.7-6.6-10.7-18.5-15.3.2,2.3-.6,5.4-4.2,8.6-6.5,5.9-23.3,5.5-28.2,5.3,4.3,1.8,9.3,3.4,14.7,4.7,18.5,4.4,34.8,2.9,36.2-3.3h0Z"/>
        <g>
          <path class="st0" d="M73.4,18c-3.5-1.3-7.4-2.5-11.5-3.6-7.8-.6-21.9-1-25.7,3.6-5.4,6.5,4.8,13.9,4.8,13.9,4.9.2,21.7.6,28.2-5.3,3.6-3.2,4.4-6.3,4.2-8.6h0Z"/>
          <path class="st2" d="M36.2,18c3.8-4.6,17.9-4.2,25.7-3.6-.3,0-.7-.2-1-.2-18.5-4.4-34.8-2.9-36.2,3.3-1,4.4,5.7,10,16.3,14.4,0,0-10.2-7.4-4.8-13.9Z"/>
        </g>
      </g>
    </g>
    <path class="st0" d="M45.9,101.5c-1.2-.9-1.9-2.4-2-3.9-.1-3.1-.2-7.5.4-10.7,1-5.3,4-10.5,4-10.5l-2.5-.6-1.9.2s1.2,1.7.5,5.1c-.7,3.4-2.9,11.9-3.7,13.4-.6,1.1-2.2,4-4.8,3.4-.7-.2-1.5-.3-2.2-.2-4.9.4-6.8,4.6-13.2,3.7-1.2-.2-2.4-.3-3.4-.3,2.4,4.2,6.7,10.5,13.7,15.6,5.5,4,12.5,6.7,18.4,8.6,2.7-3.4,6.4-8.6,9-14.1-6.1-2-7.6-6-12.3-9.7h0Z"/>
  </g>
  <g>
    <path class="st7" d="M113.8,22c-1.6-.1-1.9-.1-4.7-.1h-12.2c-2.7,0-3.1,0-4.7.1v-5.6c1.2.2,2.5.2,5.1.2h11.5c2.6,0,3.8,0,5.1-.2,0,0,0,5.6,0,5.6ZM98.9,44.5c.6,0,.7,0,1.2,0-.6-.8-1.3-1.4-2-2v9.6c0,2.3,0,3.1.1,4h-5.8c.2-1.5.2-2.9.2-6v-12.8c0-1.7,0-3-.2-4.2.8,0,1.8.1,3.3.1h14.7c1.5,0,2.3,0,3.2-.1,0,1.1-.1,2.2-.1,3.9v13.7c0,2.9-.6,4.2-2.3,4.8-.9.3-2,.3-4.4.3-.3-2.8-.4-3.5-1.1-5.3.8.1,1.4.2,1.7.2.7,0,.9-.2.9-.9v-6.4h-1.2c-2.9,0-3.4-.3-3.4-2.1v-3.5h-.9c0,3.2-.6,4.8-2.1,6.6h4.7c1.2,0,1.4,0,2.1,0v4.1c-.7,0-1,0-2.1,0v3.9c0,1,0,1.6.1,2.4h-4.8c0-.7.1-1.6.1-2.3v-4c-1,0-1.3,0-2,0v-4.1h0ZM112.4,30.5c0,.5,0,1.4,0,1.8-.8,0-1.3,0-2.5,0h-12.7c-1.9,0-2.3,0-3.3,0,0-.4,0-1.6,0-3.5v-2.5c0-1.9,0-3,0-3.4.8,0,1.3,0,3.3,0h11.9c2,0,2.4,0,3.3,0,0,.5,0,1.3,0,2v5.6h0ZM98.2,42.1c1.2-1,1.5-2,1.6-4.1h-1.6v4.1ZM106.6,26.9h-6.6v1.5h6.6v-1.5ZM106.7,39.7c0,.6.2.7.8.7h.8v-2.4h-1.6v1.7ZM119.8,20.2c0-2.5,0-3.5-.2-4.8h6.8c-.2,1.3-.2,2.3-.2,4.8v1.7h2c1.9,0,2.8,0,4-.1-.1,1.5-.2,2.5-.2,4.8v10.2c0,2.5,0,3.7.2,5-1.1,0-2.3-.1-4-.1h-2.3v5.8c.7-.1.9-.2,1.6-.3-.2-1-.3-1.3-.6-2.8l4.3-1.2c1.1,3.9,1.6,5.9,2.5,11.3l-4.7,1.9c-.3-2-.4-2.6-.5-3.8-2.3.7-6.8,1.7-10.1,2.4-.1,0-1.3.3-3.4.8l-1.3-6.9c2.2,0,2.8,0,6.2-.5v-6.7h-1.7c-2.2,0-2.5,0-3.6,0,0-1.2,0-1.8,0-4.4v-11c0-2.5,0-3.4,0-4.4,1.1,0,1.9.1,4.3.1h1.1v-1.7h0ZM119,27.8v7.8h1.4v-7.8h-1.4ZM127.1,35.6v-7.8h-1.5v7.8h1.5Z"/>
    <path class="st7" d="M158.3,22.7c-1.5,1.5-2.5,2.4-4.8,3.8-1.6-2-2.5-2.9-4-4,3.3-2,6.3-5.1,7.1-7.5l6.7.8c-.3.5-.4.6-.7,1.1-.2.4-.2.4-.5.9h11.5c1.5,0,2.4,0,3.1-.1l3.5,2.7c-.2.3-.8,1.2-1.7,2.7-.8,1.4-1.6,2.3-3,4-2-1-3.5-1.5-5.7-2.2,1.1-.9,1.6-1.3,2.2-2h-4.5c1.3,3.8,5.8,5.8,13.2,5.8-1,2.1-1.6,3.5-2.2,5.7-1.5-.2-2-.2-3-.4v10.8c0,2.7,0,3.8.2,4.8-1.1,0-2.3,0-4.4,0h-1.7c3.1,1.3,6,1.8,11.1,2.1-1.5,1.7-2.4,2.8-3.8,5.2-6.6-1.1-9.8-2.3-15-5.3l3.6-2h-11.7l3.9,2c-5.1,3.1-7.8,4.1-14.6,5.3-1.3-2.1-2.1-3.2-3.7-4.9,5.1-.5,8.1-1.1,10.8-2.3h-1.6c-2.2,0-3.2,0-4.4,0,0-1,.2-2.3.2-4.3v-9.1c0-1.7,0-3.1-.1-3.9-1.2.6-2.1.9-2.6,1.2l-2.3-6.1c2.7-.5,7-2.1,10.3-3.8l1.7,4.8c5.5-1,8.4-2.7,9.2-5.5h-2.7,0ZM147.3,24.1c-2.8-2.1-4.2-3-6.9-4.3l3.9-4.5c2.8,1.3,4.4,2.1,7.1,3.9l-4.1,4.9h0ZM151.9,31.7c-.5-.9-.8-1.4-1.5-2.4-1.8.9-2.7,1.4-4.8,2.3,1.6,0,1.7,0,3.3,0h3.1ZM151,36.5h18.1v-1.1h-18.1v1.1ZM151,40.8h18.1v-1.2h-18.1v1.2ZM151,45.2h18.1v-1.2h-18.1v1.2ZM169.4,31.7c-2.2-1.2-3.4-2.2-5-4.4-1.3,2-2.8,3.2-5.6,4.4h10.6,0Z"/>
    <path class="st7" d="M189,22.1c0-2.2,0-3-.2-4.7,1.2.1,1.9.2,3.7.2h7.4c1.7,0,2.5,0,3.6-.1,0,1,0,1.8,0,4.3v26c0,2.6,0,3.3,0,4.6h-6.1v-2.2h-2.4v3.8h-6.3c.2-1.5.3-2.9.3-5.8v-26h0ZM195.1,30.8h2.4v-7.4h-2.4v7.4ZM195.1,44.2h2.4v-7.6h-2.4v7.6ZM209.1,42.2c-2.1,0-3.2,0-4.8.2v-6.4c1.1.1,2.6.2,5.1.2h8.4v-2.4h-8.4c-1.8,0-3.8,0-5.1.2v-6.3c1,.1,3,.2,5.2.2h3.2v-2.6h-2.5c-.9,0-2.1,0-3.4,0-.4,0-.9,0-1.7,0v-6.4c1.4.2,2.8.3,4.9.3h2.7v-.8c0-1.3,0-2.1-.2-3.1h6.8c-.1.9-.2,1.7-.2,3v.9h3.3c2,0,3.5,0,4.8-.3v6.4c-1.3-.1-2.4-.2-4.8-.2h-3.4v2.6h4.3c2.1,0,4.1,0,5.1-.2v6.3c-1.3-.2-2.2-.2-4.3-.2v2.4c2.3,0,3.2,0,4.1-.2v6.4c-1.3-.2-2-.2-4.1-.2v8.6c0,4-2,5.3-7.9,5.3s-1.7,0-3.4,0c-.3-2.5-.6-3.9-1.2-5.5l-1.7,1.3c-1.7-3.1-3-4.8-5.2-7.1l4.3-2.6h0ZM210.8,42.2c1.8,1.7,3.1,3.3,4.5,5.6l-2.8,2.2c1.7.2,2.7.2,3.8.2s1.6-.3,1.6-1.1v-6.9h-7.1Z"/>
    <path class="st7" d="M243.5,50.3c0,2.8,0,4.6.3,5.8h-7c.2-1.4.3-2.9.3-5.9v-28.8c0-2.4,0-3.6-.2-5,1.3.1,2.3.2,4.4.2h9.1c2.4,0,3.3,0,4.4-.2,0,1.3-.1,2.3-.1,4v7.9c0,2.4,0,2.8,0,3.8-1,0-2.3,0-3.6,0h-7.7v18.2h0ZM243.5,22.7h5.2v-1.5h-5.2v1.5ZM243.5,27.9h5.2v-1.6h-5.2v1.6ZM265.3,48.5v1.1c.4,0,.6,0,.7,0,2.4,0,2.4,0,2.4-1v-16.5h-8.1c-1.2,0-2.7,0-3.6,0,0-1.2,0-1.6,0-3.8v-7.9c0-1.6,0-2.7-.1-4,1.3.1,2.2.2,4.4.2h9.5c2.1,0,3.1,0,4.4-.2-.1,1.5-.2,2.6-.2,4.9v28.4c0,5.2-1.3,6.2-7.9,6.2s-.7,0-3.3,0c-.3-1.8-.4-2.5-.6-3.8h-10.5v1.8h-6.2c.1-1.3.2-2.9.2-4.6v-11.6c0-1.5,0-2.7-.1-3.7,1.2,0,2.2.1,3.8.1h11.4c1.7,0,2.6,0,3.8-.1,0,1-.1,2-.1,3.7v10.9h0ZM252.6,40.8h6.7v-1.7h-6.7v1.7h0ZM252.6,47h6.7v-1.8h-6.7v1.8h0ZM263,22.7h5.5v-1.5h-5.5v1.5ZM263,27.9h5.5v-1.6h-5.5v1.6Z"/>
  </g>
</svg>