<svg id="_レイヤー_2" data-name="レイヤー 2" xmlns="http://www.w3.org/2000/svg" viewBox="0 0 1432.17 372.69"><defs><style>.cls-3{fill:#de5637}.cls-4{fill:#fff}</style></defs><g id="PC"><circle class="cls-3" cx="1082.2" cy="126.21" r="75.28"/><circle class="cls-4" cx="1082.2" cy="126.21" r="60.42"/><circle class="cls-3" cx="1082.2" cy="126.21" r="45.55"/><circle class="cls-4" cx="1082.2" cy="126.21" r="30.68"/><circle class="cls-3" cx="1082.2" cy="126.21" r="15.81"/><rect x="1060.88" y="62.63" width="148.5" height="21.91" rx="10.96" ry="10.96" transform="rotate(-44.83 1135.177 73.57)" style="fill:#bba28c"/><path d="m1165.56 0-35.2 35.24 5.42 22.62 35.2-35.23L1165.56 0zm21.72 36.92-35.2 35.23 22.63 5.4 35.2-35.23-22.63-5.4z" style="fill:#ad7b4e"/><path class="cls-4" d="M42.25 279.12c.39-5.05.65-12.57.65-16.59 0-2.72 0-3.76-.39-6.48l24.37.65c-.65 2.98-.65 3.37-1.43 15.68q-.13 3.5-.39 6.61h28.25c4.28 0 5.83-.26 8.68-1.43l10.11 8.81c-1.43 2.59-1.68 3.63-1.81 9.59-.91 27.74-2.85 49.38-5.44 57.93-3.76 12.05-9.98 16.2-24.37 16.2-5.05 0-7-.13-16.98-1.04-.52-10.37-1.43-14.65-4.41-22.81 6.48 1.69 12.83 2.59 16.85 2.59 6.22 0 7.78-2.07 9.46-13.35 1.3-8.68 2.46-25.01 2.46-36.16H63.1q-1.04 8.55-1.94 12.96c-5.7 26.18-18.02 43.03-44.33 60.4-5.83-9.2-9.72-13.61-16.85-19.7 17.24-9.07 27.22-18.28 33.7-31.37 3.24-6.61 4.67-11.28 6.48-22.16h-16.2c-8.68 0-11.41.13-17.5.78l-.13-22.16c6.48.91 8.81 1.04 18.02 1.04h17.89Zm98.77 22.42c6.09.91 13.09 1.17 26.57 1.17h61.95c12.96 0 17.89-.26 26.57-1.17v25.01c-6.22-.65-11.92-.78-26.7-.78h-61.69c-14.52 0-18.79.13-26.7.78v-25.01Zm154.76 69.6c.52-5.44.65-9.2.78-19.83v-75.43c-.13-11.15-.13-11.79-.91-18.79h25.01c-.52 3.37-.52 5.44-.65 18.92v17.76c20.48 6.61 40.83 15.81 58.97 26.96l-12.31 22.03c-10.76-7.65-25.79-15.94-40.83-22.55-3.89-1.56-4.28-1.68-4.67-1.94-.39-.13-.65-.26-1.17-.65v33.7c0 9.59.26 16.46.78 19.83h-25.01Zm58.58-106.8c5.05 5.7 9.2 11.67 12.83 18.53l-12.31 5.96c-4.28-8.17-7.65-12.96-12.83-18.92l12.31-5.57Zm17.24-7.78c4.8 5.18 8.42 10.11 12.96 18.02l-11.92 5.83c-4.54-8.17-8.17-13.35-12.7-18.53l11.67-5.31ZM439 359.47v8.94h-23.59c.78-7.13 1.04-11.54 1.04-21.13v-66.62c0-5.57-.13-9.59-.52-14.91 4.54.39 7.13.52 15.68.52h69.86c8.04 0 9.98 0 16.07-.52-.26 4.54-.39 9.2-.39 15.29v65.71c0 9.98.26 16.2.91 21.39H494.6v-8.68H439Zm55.6-72.45H439v51.71h55.6v-51.71Zm55.48 14.52c6.09.91 13.09 1.17 26.57 1.17h61.95c12.96 0 17.89-.26 26.57-1.17v25.01c-6.22-.65-11.92-.78-26.7-.78h-61.69c-14.52 0-18.79.13-26.7.78v-25.01Zm153.73-38.37c16.33 9.59 24.76 15.55 35.64 25.4l-15.29 20.22c-11.28-11.79-22.29-20.35-35.25-27.35l14.9-18.27Zm-13.61 80.49c13.22-1.04 26.83-4.28 39.01-9.33 16.33-6.74 28-16.46 37.98-32.01 5.44-8.29 8.94-15.42 12.7-25.4 6.35 7.65 9.33 10.24 19.05 17.37-11.79 25.53-24.11 40.83-42.25 52.49-14 9.07-26.31 13.87-50.42 19.44-5.05 1.17-5.83 1.3-9.33 2.33l-6.74-24.88Zm176.22-.91c-6.01 13.27-12.96 19.08-22.4 19.08-13.89 0-23.64-13.27-23.64-32.25 0-12.13 4.15-23.12 11.92-31.62 9.12-9.95 22.29-15.24 37.53-15.24 13.89 0 26.13 4.67 33.8 12.75 6.64 7.05 10.16 17.11 10.16 28.82 0 13.48-5.08 25.71-13.79 33.49-7.05 6.32-15.24 9.64-29.76 11.92-2.49-7.46-4.46-11.2-8.81-17 9.75-.73 16.17-2.38 21.77-5.29 7.98-4.25 12.44-12.96 12.44-24.05 0-8.81-3.11-15.86-9.12-20.42-2.7-2.07-4.98-3.01-8.71-3.63-2.28 17.83-5.81 31.21-11.41 43.44Zm-17.84-37.94c-6.84 5.81-11.3 15.45-11.3 24.68 0 7.36 2.8 13.17 6.43 13.17 2.59 0 5.29-3.63 8.4-11.51 3.63-9.33 6.64-21.36 7.78-31.62-4.35.62-7.67 2.18-11.3 5.29Zm134.35 37.55c4.02 5.83 7.39 7.91 13.87 8.81-3.63-4.41-4.28-5.18-10.11-10.5 7.78-1.43 12.05-2.59 18.27-4.8h-9.98c-4.67 0-6.61.13-9.2.52v-15.03c2.85.39 4.15.52 8.94.52h6.61v-5.7h-1.17c-7.13 0-8.68.13-12.18.52v-14.65c3.37.39 4.8.39 12.18.39h1.17v-4.67c-7.39 0-10.11-.26-12.05-1.04-3.11-1.3-4.41-3.63-4.41-7.78v-13.74l-12.7 12.7c-7.26-9.72-11.92-14.78-22.42-23.72l14.52-14.13c8.81 7.26 14.78 13.09 20.61 19.83 3.24.26 4.02.26 9.46.26h11.92v-3.76h-12.31c-5.83 0-7.65 0-10.89.39v-14.52c3.37.26 7 .39 11.15.39h18.27c6.74 0 8.68 0 11.53-.26-.39 1.3-.39 2.33-.39 4.54l.13 2.59v13.87c0 3.76 0 5.83.26 7.52-3.11-.13-5.7-.26-8.68-.26h-14v2.85c0 1.94.39 2.2 4.02 2.2 2.33 0 3.89-.26 4.54-.65.39-.39.78-1.68.78-3.37v-.78c5.7 2.07 9.72 3.11 15.03 3.76-.91 7.78-1.81 9.59-5.83 11.54v6.22h13.74v-5.57c-3.89-1.3-5.57-3.89-5.57-8.04v-10.5q0-4.02-.39-8.42c3.24.26 4.28.26 9.85.26h11.79v-3.76h-11.02c-5.83 0-7.65 0-10.89.39v-14.52c3.37.26 7 .39 11.15.39h17.76c6.74 0 8.68 0 11.54-.26-.26 1.56-.26 2.46-.26 4.41v16.59c0 3.89 0 5.83.26 7.52-3.11-.13-5.7-.26-8.68-.26h-13.74v2.98c0 1.69.91 2.2 4.41 2.2 2.2 0 4.15-.26 4.67-.78q.39-.39.78-2.59v-1.56c4.8 1.69 9.72 2.72 16.2 3.5-.65 6.74-1.81 9.46-4.67 11.15-2.33 1.42-5.31 1.81-14.78 2.07v4.8h4.28c7.26 0 8.68 0 12.05-.39v14.65c-3.63-.39-5.05-.52-12.05-.52h-4.15v5.7h6.61c7.39 0 8.81 0 12.31-.39v14.78c-3.76-.39-5.18-.39-12.31-.39h-8.94c7.26 2.33 12.18 3.5 21.13 4.54-3.63 3.76-4.02 4.41-7.65 9.98 3.11-.26 5.05-.52 10.89-1.3-2.59 7-3.76 12.31-4.8 20.35-11.41.39-29.81.65-49.38.65s-26.57-.65-32.79-2.85c-5.18-1.81-8.94-4.41-13.48-9.46-5.57 5.06-7.91 6.87-17.24 13.61l-8.42-20.87c3.76-1.3 8.94-4.54 15.68-9.85v-24.5h-5.31c-2.85 0-4.67.13-8.04.65v-19.57c3.63.52 5.7.65 10.63.65h12.44c5.31 0 6.48 0 9.72-.39-.26 3.76-.26 5.05-.26 14.52v30.33Zm42.77-.65c-7.26 4.54-13.48 7.52-21.51 10.24 4.15.13 9.98.26 15.81.26 7 0 21.52-.39 28.51-.78-6.35-2.07-11.41-4.54-19.44-9.72l8.29-5.83h-20.61l8.94 5.83Zm-5.83-19.83h13.74v-5.7h-13.74v5.7Zm75.31-62.21c2.59.39 3.63.39 6.61.39 16.2 0 33.18-1.82 39.53-4.15l11.02 19.83c-5.83 3.37-10.89 7.78-16.46 14.13-10.24 11.79-15.42 23.59-15.42 34.99 0 12.57 7.13 20.48 18.53 20.48 8.94 0 16.85-5.57 20.61-14.52 3.37-8.17 4.8-17.11 4.8-30.07 0-13.74-2.2-27.22-6.09-36.29l21.9-6.09c5.05 18.79 18.66 38.75 33.57 48.99l-10.89 21.51-1.17-1.17-1.81-1.81c-5.96-5.7-12.57-14.39-16.33-21.52.65 5.57.78 8.04.78 12.05 0 14.13-3.24 25.27-9.72 34.35-7.91 11.02-20.74 17.24-35.12 17.24-9.46 0-18.66-2.46-25.14-6.87-10.37-7-16.85-20.61-16.85-35.38 0-13.35 5.05-26.96 14.26-39.01 2.2-2.72 3.89-4.67 7.78-8.68-5.57 1.17-8.94 1.56-16.85 2.2-4.93.52-5.05.52-7 .91l-.52-21.52Zm98.11-9.46c3.5 5.96 6.22 12.44 8.68 20.74l-10.24 3.24c-2.2-7.78-4.92-14.39-8.55-21l10.11-2.98Zm13.87 18.79c-2.33-8.04-4.67-13.74-8.29-20.09l9.98-2.72c3.11 4.79 6.48 12.44 8.42 19.57l-10.11 3.24Zm76.86-8.81c0-4.15-.26-7-.78-9.98h22.42c-.52 2.85-.78 5.96-.78 9.98v6.09h31.88c7.78 0 13.09-.26 17.89-.91v20.74c-4.67-.52-9.07-.78-17.11-.78h-46.14c-.39 6.74-.39 7-.78 10.89h37.85c6.87 0 9.98-.13 13.48-.52-.52 4.8-.52 5.57-1.04 18.66-.91 23.46-2.72 37.2-6.22 44.97-3.63 8.55-9.46 11.41-22.81 11.41-3.24 0-8.94-.26-16.59-.65-.65-7.65-1.81-12.31-5.31-20.09 7.26.91 13.35 1.43 18.92 1.43 6.61 0 8.29-1.68 9.59-9.59 1.04-5.96 1.81-15.55 2.07-26.96h-32.66c-1.68 7.65-4.92 16.2-9.07 24.11-6.74 12.7-16.07 22.68-31.24 33.18-4.15-7.39-7.91-11.92-14.52-17.24 19.57-11.67 28.38-22.16 33.31-39.53 2.46-9.07 3.63-17.89 3.76-30.07h-16.07c-6.74 0-12.83.26-18.02.78v-20.74c5.57.65 10.76.91 17.89.91h30.07v-6.09Zm122.36 71.03c.26-2.59.26-3.76.26-5.83q0-2.46-.52-10.11l-2.59-41.09c-.26-5.31-.91-11.15-1.56-17.5h30.2c-.39 2.98-1.17 12.05-1.56 17.5l-2.59 41.09c-.26 5.44-.39 8.04-.39 9.98 0 1.3 0 2.72.13 5.96h-21.39Zm-2.34 33.31v-24.5h26.05v24.5h-26.05Z"/><path d="M527.81 175.95c-1.27 0-2.62-.05-4.06-.16-1.44-.11-3.08-.41-4.91-.9l2.32-15.3c1.05.28 2.02.49 2.9.63.88.14 1.74.21 2.59.21 2.53 0 4.7-.49 6.49-1.48 1.79-.98 3.2-2.37 4.22-4.17 1.02-1.79 1.53-3.89 1.53-6.28 0-4.36-1.34-7.54-4.01-9.55-2.67-2-6.4-3.01-11.19-3.01-5.42 0-10.48.46-15.19 1.37-4.71.92-8.86 2.22-12.45 3.9-3.59 1.69-6.4 3.64-8.44 5.86-2.04 2.22-3.06 4.63-3.06 7.23 0 2.04.58 3.61 1.74 4.7 1.16 1.09 2.48 1.64 3.96 1.64 1.9 0 3.31-.58 4.22-1.74.91-1.16 1.37-2.87 1.37-5.12V83.82h16.25v68.59c0 7.18-1.92 12.86-5.75 17.04s-9.2 6.28-16.09 6.28c-4.15 0-7.84-.84-11.08-2.53s-5.77-4.1-7.6-7.23c-1.83-3.13-2.74-6.81-2.74-11.03 0-4.99 1.35-9.58 4.06-13.77 2.71-4.18 6.49-7.81 11.34-10.87 4.85-3.06 10.55-5.45 17.09-7.18 6.54-1.72 13.61-2.59 21.21-2.59 6.47 0 12.17 1.13 17.09 3.38s8.76 5.52 11.5 9.81c2.74 4.29 4.12 9.43 4.12 15.41 0 5.14-1.18 9.73-3.54 13.77-2.36 4.05-5.61 7.23-9.76 9.55-4.15 2.32-8.86 3.48-14.14 3.48Zm-54.55-64.68V95.34c3.66.21 7.93.35 12.82.42 4.89.07 9.88.05 14.98-.05 5.1-.11 9.97-.26 14.61-.48 4.64-.21 8.58-.49 11.82-.84l-.11 15.83c-2.25.28-5.07.53-8.44.74-3.38.21-7.07.37-11.08.47s-8.07.18-12.19.21c-4.12.04-8.11.02-11.98-.05-3.87-.07-7.35-.17-10.45-.32Zm80.09 12.13c-1.69-2.11-3.8-4.47-6.33-7.07-2.53-2.6-5.12-5.19-7.76-7.76-2.64-2.57-4.98-4.73-7.02-6.49l9.18-9.39c2.11 1.41 4.31 3.1 6.59 5.06 2.29 1.97 4.5 4.01 6.65 6.12 2.15 2.11 4.13 4.12 5.96 6.01 1.83 1.9 3.38 3.48 4.64 4.75l-11.92 8.76Zm21.1-16.56V93.65h46.11c15.41 0 30.78-.07 46.11-.21v13.19c-15.34.07-30.71.12-46.11.16-15.41.04-30.78.05-46.11.05Zm23.22 69.43-.21-14.88c4.99-.07 9.35-.49 13.08-1.27 3.73-.77 6.82-1.93 9.29-3.48 2.46-1.55 4.25-3.52 5.38-5.91.28-.63.54-1.27.79-1.9.25-.63.44-1.3.58-2a24.527 24.527 0 0 1-4.22 3.01c-1.55.88-3.25 1.57-5.12 2.06-1.86.49-3.89.74-6.07.74-4.85 0-8.92-.95-12.19-2.85-3.27-1.9-5.72-4.38-7.33-7.44-1.62-3.06-2.43-6.31-2.43-9.76s.84-6.88 2.53-10.08 4.27-5.82 7.76-7.86c3.48-2.04 7.79-3.06 12.93-3.06 2.04 0 3.94.25 5.7.74 1.76.49 3.34 1.23 4.75 2.22V82.79h15.83v42.31c1.33 1.97 2.37 4.29 3.11 6.96.74 2.67 1.11 5.66 1.11 8.97 0 7.46-1.76 13.79-5.28 18.99-3.52 5.21-8.64 9.2-15.35 11.98-6.72 2.78-14.93 4.2-24.64 4.27Zm16.99-35.98c1.97 0 3.67-.42 5.12-1.27 1.44-.84 2.6-1.92 3.48-3.22.88-1.3 1.35-2.65 1.42-4.06-.35-2.46-1.46-4.47-3.32-6.01-1.86-1.55-4.1-2.32-6.7-2.32-1.9 0-3.55.39-4.96 1.16-1.41.77-2.5 1.79-3.27 3.06-.78 1.27-1.16 2.67-1.16 4.22 0 2.32.84 4.31 2.53 5.96 1.69 1.65 3.97 2.48 6.86 2.48Zm65.31-33.45V93.65h46.11c15.41 0 30.78-.07 46.11-.21v13.19c-15.34.07-30.71.12-46.11.16-15.41.04-30.78.05-46.11.05Zm23.22 69.43-.21-14.88c4.99-.07 9.35-.49 13.08-1.27 3.73-.77 6.82-1.93 9.29-3.48 2.46-1.55 4.25-3.52 5.38-5.91.28-.63.54-1.27.79-1.9.25-.63.44-1.3.58-2a24.527 24.527 0 0 1-4.22 3.01c-1.55.88-3.25 1.57-5.12 2.06-1.86.49-3.89.74-6.07.74-4.85 0-8.92-.95-12.19-2.85-3.27-1.9-5.72-4.38-7.33-7.44-1.62-3.06-2.43-6.31-2.43-9.76s.84-6.88 2.53-10.08 4.27-5.82 7.76-7.86c3.48-2.04 7.79-3.06 12.93-3.06 2.04 0 3.94.25 5.7.74 1.76.49 3.34 1.23 4.75 2.22V82.79h15.83v42.31c1.33 1.97 2.37 4.29 3.11 6.96.74 2.67 1.11 5.66 1.11 8.97 0 7.46-1.76 13.79-5.28 18.99-3.52 5.21-8.64 9.2-15.35 11.98-6.72 2.78-14.93 4.2-24.64 4.27Zm16.99-35.98c1.97 0 3.67-.42 5.12-1.27 1.44-.84 2.6-1.92 3.48-3.22.88-1.3 1.35-2.65 1.42-4.06-.35-2.46-1.46-4.47-3.32-6.01-1.86-1.55-4.1-2.32-6.7-2.32-1.9 0-3.55.39-4.96 1.16-1.41.77-2.5 1.79-3.27 3.06-.78 1.27-1.16 2.67-1.16 4.22 0 2.32.84 4.31 2.53 5.96 1.69 1.65 3.97 2.48 6.86 2.48Zm123.45 36.19-4.33-14.67c5.28-1.27 9.58-2.97 12.93-5.12 3.34-2.15 5.82-4.75 7.44-7.81 1.62-3.06 2.43-6.63 2.43-10.71 0-3.8-.63-7.24-1.9-10.34a22.144 22.144 0 0 0-5.59-8.02c-2.46-2.25-5.54-3.99-9.23-5.22-3.69-1.23-7.97-1.85-12.82-1.85s-9.53.76-13.61 2.27-7.58 3.64-10.5 6.38a28.188 28.188 0 0 0-6.7 9.55c-1.55 3.62-2.32 7.51-2.32 11.66 0 2.67.26 5 .79 6.96.53 1.97 1.34 3.5 2.43 4.59 1.09 1.09 2.51 1.64 4.27 1.64 1.41 0 2.94-.53 4.59-1.58 1.65-1.06 3.39-2.62 5.22-4.7 1.83-2.07 3.69-4.64 5.59-7.7s3.85-6.59 5.86-10.6 3.97-8.48 5.91-13.4c1.93-4.92 3.83-10.27 5.7-16.04 1.86-5.77 3.67-11.96 5.43-18.57l15.41 4.75c-1.9 6.26-3.9 12.38-6.01 18.36-2.11 5.98-4.34 11.75-6.7 17.31-2.36 5.56-4.8 10.76-7.33 15.62-2.53 4.85-5.21 9.25-8.02 13.19-2.81 3.94-5.7 7.33-8.65 10.18-2.95 2.85-6.03 5.06-9.23 6.65-3.2 1.58-6.53 2.37-9.97 2.37-4.64 0-8.46-1.28-11.45-3.85-2.99-2.57-5.21-6.03-6.65-10.39-1.44-4.36-2.16-9.29-2.16-14.77 0-6.33 1.16-12.27 3.48-17.83 2.32-5.56 5.59-10.43 9.81-14.61 4.22-4.18 9.29-7.44 15.2-9.76 5.91-2.32 12.45-3.48 19.63-3.48s13.37 1.02 18.99 3.06c5.63 2.04 10.39 4.89 14.3 8.55 3.9 3.66 6.89 7.98 8.97 12.98 2.07 5 3.11 10.41 3.11 16.25 0 6.75-1.32 12.72-3.96 17.89-2.64 5.17-6.51 9.5-11.61 12.98-5.1 3.48-11.34 6.1-18.73 7.86Zm-26.69-23.43c-4.29-8.79-8.3-18.38-12.03-28.75-3.73-10.38-7.25-21.54-10.55-33.5l15.3-4.22c3.17 11.68 6.52 22.44 10.08 32.29 3.55 9.85 7.37 18.99 11.45 27.44l-14.25 6.75Z" style="fill:#f1c063"/><path class="cls-4" d="m937.47 173.99-3.85-11.54c3.99-1.25 7.38-3.02 10.18-5.3 2.79-2.28 4.93-4.99 6.41-8.12 1.48-3.13 2.22-6.61 2.22-10.43 0-4.33-.88-8.07-2.65-11.2-1.77-3.13-4.39-5.57-7.87-7.31-3.48-1.74-7.81-2.61-13-2.61-4.28 0-8.1.67-11.46 2.01-3.36 1.34-6.23 3.21-8.59 5.6-2.37 2.39-4.16 5.19-5.39 8.38-1.23 3.19-1.84 6.67-1.84 10.43 0 2.74.37 5.2 1.11 7.4.74 2.2 1.71 3.92 2.91 5.17 1.2 1.25 2.48 1.88 3.85 1.88s2.55-.67 3.72-2.01c1.17-1.34 2.25-3.18 3.25-5.52 1-2.34 1.89-5.02 2.69-8.04.8-3.02 1.42-6.26 1.88-9.71.46-3.45.74-6.94.86-10.48.11-3.53.03-6.93-.26-10.18l12.83-1.2c.46 4.68.57 9.38.34 14.11-.23 4.73-.76 9.34-1.58 13.81-.83 4.48-1.97 8.65-3.42 12.53-1.45 3.88-3.16 7.27-5.13 10.18s-4.23 5.19-6.8 6.84-5.36 2.48-8.38 2.48c-3.88 0-7.38-1.08-10.52-3.25-3.14-2.17-5.62-5.3-7.44-9.41-1.83-4.1-2.74-8.98-2.74-14.62 0-4.45.61-8.64 1.84-12.57a37.45 37.45 0 0 1 5.34-10.78c2.34-3.25 5.14-6.07 8.42-8.47 3.28-2.39 6.98-4.23 11.12-5.52 4.13-1.28 8.59-1.92 13.38-1.92 7.53 0 14 1.44 19.41 4.32 5.42 2.88 9.59 6.87 12.53 11.97 2.94 5.1 4.4 10.99 4.4 17.66 0 4.28-.64 8.3-1.92 12.06a35.638 35.638 0 0 1-5.47 10.26c-2.37 3.08-5.27 5.74-8.72 8-3.45 2.25-7.34 3.95-11.67 5.09Z"/></g></svg>