<svg width="20" height="21" viewBox="0 0 20 21" fill="none" xmlns="http://www.w3.org/2000/svg">
<path d="M2.49999 11.728H4.16665V17.5614C4.16665 17.7824 4.25445 17.9943 4.41073 18.1506C4.56701 18.3069 4.77897 18.3947 4.99999 18.3947H15C15.221 18.3947 15.433 18.3069 15.5892 18.1506C15.7455 17.9943 15.8333 17.7824 15.8333 17.5614V11.728H17.5C17.661 11.7282 17.8187 11.6815 17.9537 11.5938C18.0888 11.5061 18.1955 11.3811 18.2608 11.2339C18.3266 11.0867 18.3483 10.9237 18.3231 10.7645C18.298 10.6053 18.2271 10.4569 18.1192 10.3372L10.6192 2.00386C10.3033 1.6522 9.69665 1.6522 9.38082 2.00386L1.88082 10.3372C1.77306 10.4569 1.70231 10.6053 1.67712 10.7644C1.65193 10.9235 1.67339 11.0865 1.7389 11.2336C1.80441 11.3808 1.91116 11.5058 2.04623 11.5935C2.1813 11.6813 2.33891 11.728 2.49999 11.728ZM7.45749 11.4647C7.48332 11.5439 8.13498 13.3947 9.99998 13.3947C11.8908 13.3947 12.535 11.4889 12.5417 11.4689L14.125 11.9864C14.0842 12.1122 13.0858 15.0614 9.99998 15.0614C6.91415 15.0614 5.91582 12.1122 5.87499 11.9872L7.45749 11.4647Z" fill="url(#paint0_linear_47_1226)"/>
<defs>
<linearGradient id="paint0_linear_47_1226" x1="1" y1="8.0614" x2="10.0001" y2="18.3947" gradientUnits="userSpaceOnUse">
<stop offset="0.473958" stop-color="#68B9DC"/>
<stop offset="0.494792" stop-color="#42B0DC"/>
</linearGradient>
</defs>
</svg>
