<svg width="20" height="17" viewBox="0 0 20 17" fill="none" xmlns="http://www.w3.org/2000/svg">
<g clip-path="url(#clip0_47_1227)">
<path d="M12.6906 1.98797C12.9812 2.03297 13.1062 2.39234 12.8938 2.60547L11.7063 3.75204L11.9875 5.37704C12.0031 5.67079 11.7281 5.89579 11.4594 5.76142L10.0063 4.99579L8.54062 5.77079C8.27187 5.90517 7.96875 5.68017 8.0125 5.38954L8.29375 3.76141L7.10625 2.60547C6.89375 2.39234 7.01875 2.03297 7.30937 1.98797L8.94375 1.75234L9.68125 0.259272C9.81562 -0.0101352 10.1969 0.00108363 10.3188 0.259272L11.0562 1.75234L12.6906 1.98797ZM12 8.06143C12.5531 8.06143 13 8.50831 13 9.06143V15.0615C13 15.6146 12.5531 16.0615 12 16.0615H8C7.44688 16.0615 7 15.6146 7 15.0615V9.06143C7 8.50831 7.44688 8.06143 8 8.06143H12ZM5 10.0614C5.55312 10.0614 6 10.5083 6 11.0614V15.0615C6 15.6146 5.55312 16.0615 5 16.0615H1C0.447812 16.0615 0 15.6146 0 15.0615V11.0614C0 10.5083 0.447812 10.0614 1 10.0614H5ZM14 13.0614C14 12.5083 14.4469 12.0614 15 12.0614H19C19.5531 12.0614 20 12.5083 20 13.0614V15.0615C20 15.6146 19.5531 16.0615 19 16.0615H15C14.4469 16.0615 14 15.6146 14 15.0615V13.0614Z" fill="url(#paint0_linear_47_1227)"/>
</g>
<defs>
<linearGradient id="paint0_linear_47_1227" x1="-0.800255" y1="6.13426" x2="7.39053" y2="17.881" gradientUnits="userSpaceOnUse">
<stop offset="0.473958" stop-color="#68B9DC"/>
<stop offset="0.494792" stop-color="#42B0DC"/>
</linearGradient>
<clipPath id="clip0_47_1227">
<rect width="20" height="16" fill="white" transform="translate(0 0.0614014)"/>
</clipPath>
</defs>
</svg>
