<svg width="20" height="21" viewBox="0 0 20 21" fill="none" xmlns="http://www.w3.org/2000/svg">
<path d="M18.457 8.10828H13.457C13.3711 8.10828 13.3008 8.17859 13.3008 8.26453V9.20203C13.3008 9.28796 13.3711 9.35828 13.457 9.35828H18.457C18.543 9.35828 18.6133 9.28796 18.6133 9.20203V8.26453C18.6133 8.17859 18.543 8.10828 18.457 8.10828ZM15.8398 10.7645H13.457C13.3711 10.7645 13.3008 10.8348 13.3008 10.9208V11.8583C13.3008 11.9442 13.3711 12.0145 13.457 12.0145H15.8398C15.9258 12.0145 15.9961 11.9442 15.9961 11.8583V10.9208C15.9961 10.8348 15.9258 10.7645 15.8398 10.7645ZM9.32227 6.36023H8.47656C8.35547 6.36023 8.25781 6.45789 8.25781 6.57898V11.4227C8.25781 11.493 8.29102 11.5575 8.34766 11.5985L11.2559 13.7196C11.3535 13.7899 11.4902 13.7704 11.5605 13.6727L12.0625 12.9872V12.9852C12.1328 12.8876 12.1113 12.7509 12.0137 12.6805L9.53906 10.8915V6.57898C9.54102 6.45789 9.44141 6.36023 9.32227 6.36023Z" fill="url(#paint0_linear_47_1228)"/>
<path d="M15.7187 13.2235H14.5898C14.4805 13.2235 14.377 13.2801 14.3184 13.3739C14.0703 13.7664 13.7812 14.1297 13.4492 14.4618C12.877 15.034 12.2109 15.4832 11.4707 15.7957C10.7031 16.12 9.88868 16.284 9.04883 16.284C8.20704 16.284 7.39258 16.12 6.62696 15.7957C5.88673 15.4832 5.22071 15.034 4.64845 14.4618C4.07618 13.8895 3.62696 13.2235 3.31446 12.4832C2.99025 11.7176 2.82618 10.9032 2.82618 10.0614C2.82618 9.21958 2.99025 8.40708 3.31446 7.6395C3.62696 6.89927 4.07618 6.23326 4.64845 5.66099C5.22071 5.08873 5.88673 4.63951 6.62696 4.32701C7.39258 4.00279 8.20899 3.83873 9.04883 3.83873C9.89063 3.83873 10.7051 4.00279 11.4707 4.32701C12.2109 4.63951 12.877 5.08873 13.4492 5.66099C13.7812 5.99302 14.0703 6.3563 14.3184 6.74888C14.377 6.84263 14.4805 6.89927 14.5898 6.89927H15.7187C15.8535 6.89927 15.9395 6.75865 15.8789 6.63951C14.6055 4.10631 12.0234 2.45982 9.14063 2.42662C4.91993 2.37389 1.41408 5.82896 1.40626 10.0458C1.39845 14.2704 4.82228 17.6981 9.04688 17.6981C11.9668 17.6981 14.5918 16.0457 15.8789 13.4832C15.9395 13.3641 15.8516 13.2235 15.7187 13.2235Z" fill="url(#paint1_linear_47_1228)"/>
<defs>
<linearGradient id="paint0_linear_47_1228" x1="7.84346" y1="9.16944" x2="11.4678" y2="14.9874" gradientUnits="userSpaceOnUse">
<stop offset="0.473958" stop-color="#68B9DC"/>
<stop offset="0.494792" stop-color="#42B0DC"/>
</linearGradient>
<linearGradient id="paint1_linear_47_1228" x1="0.82637" y1="8.22257" x2="9.12819" y2="17.2611" gradientUnits="userSpaceOnUse">
<stop offset="0.473958" stop-color="#68B9DC"/>
<stop offset="0.494792" stop-color="#42B0DC"/>
</linearGradient>
</defs>
</svg>
