<?xml version="1.0" encoding="UTF-8"?><svg id="Layer_2" xmlns="http://www.w3.org/2000/svg" viewBox="0 0 903 73.5"><defs><style>.cls-1,.cls-2{fill:none;}.cls-3{fill:#fff;}.cls-4{fill:#efc73c;}.cls-5{fill:#2f7c6a;}.cls-6{fill:#0ea17b;}.cls-7{fill:#057f3f;opacity:.2;}.cls-2{stroke:#06ce60;stroke-linecap:round;stroke-miterlimit:10;stroke-width:4px;}</style></defs><g id="PC"><g><rect class="cls-1" y=".5" width="903" height="73"/><g><g><path class="cls-7" d="m161.67,70.66L.17,62.83,13.23.31l151.5,7.35c17.4.84,30.82,15.63,29.97,33.03h0c-.84,17.4-15.63,30.82-33.03,29.97Z"/><path class="cls-6" d="m161.5,63H0s0-62.5,0-62.5l161.5-.5c17.4,0,31.5,14.1,31.5,31.5h0c0,17.4-14.1,31.5-31.5,31.5Z"/><g><path class="cls-3" d="m42.48,32.73c0,1.5-1.44,1.91-2.47,1.91-1.33,0-2.18-.44-2.53-1.33-.62-1.56-1.03-2.62-4.15-2.62-.65,0-4.06.03-4.06,2.21,0,1.71,1.06,2.09,6.12,3.86,4.83,1.71,7.71,3.03,7.71,7,0,3.42-2.62,7.71-9.33,7.71-8.21,0-10.24-5.12-10.24-6.95,0-1.97,2.12-2.09,2.71-2.09,2,0,2.21.71,2.56,1.94.65,2.18,3.09,2.56,4.77,2.56.71,0,4.27,0,4.27-2.65,0-1.21-.68-1.83-5.15-3.33-5.27-1.8-8.68-2.91-8.68-7.54,0-3.65,2.71-7.24,9.15-7.24,7.06,0,9.33,4.39,9.33,6.54Z"/><path class="cls-3" d="m50.72,31.29c-1.38,0-2.3-.62-2.3-2.21s.82-2.24,2.3-2.24h14.72c1.21,0,2.27.44,2.27,2.21,0,1.12-.38,2.24-2.27,2.24h-4.8v17.78c0,.74-.09,2.41-2.5,2.41-1.59,0-2.62-.56-2.62-2.38v-17.81h-4.8Z"/><path class="cls-3" d="m88.14,36.44c2.03,0,2.24,1.33,2.24,2.12,0,.97-.29,2.12-2.24,2.12h-8.98v4.74c0,.62.35.97.97.97h9.62c1.38,0,2.27.65,2.27,2.21s-.79,2.24-2.27,2.24h-11.57c-2.85,0-4.18-1.06-4.18-4.18v-15.63c0-3.15,1.35-4.18,4.18-4.18h10.92c1.15,0,2.27.44,2.27,2.21,0,1.18-.44,2.24-2.27,2.24h-8.98c-.65,0-.97.35-.97.97v4.18h8.98Z"/><path class="cls-3" d="m103.92,49.07c0,.85-.15,2.41-2.53,2.41-1.83,0-2.62-.77-2.62-2.38v-18.07c0-3.12,1.35-4.18,4.18-4.18h5.62c3.56,0,4.68.68,5.21,1,1.77,1.06,3.59,3.18,3.59,6.68,0,3.24-1.59,5.62-3.41,6.8-1.41.88-3.65,1.15-5.39,1.15h-4.65v6.59Zm0-11.04h4.42c2.8,0,3.8-1.41,3.8-3.38,0-2.47-1.62-3.36-3.8-3.36h-3.44c-.62,0-.97.32-.97.97v5.77Z"/><path class="cls-3" d="m129.74,48.62c0,1.59-1.27,2.86-2.83,2.86s-2.85-1.27-2.85-2.86,1.29-2.83,2.85-2.83,2.83,1.24,2.83,2.83Z"/><path class="cls-3" d="m141.42,50.83c-4.2,0-4.45-3.56-4.45-4.25,0-5.29,6.87-10.63,10.23-13.05,6.72-4.89,8.9-6.48,8.9-11.12,0-3.66-1.88-5.98-5.19-5.98-4.94,0-5.29,4.65-5.39,5.64-.1,1.43-.35,3.71-3.96,3.71-.89,0-4.25-.25-4.25-3.91,0-3.36,2.57-12.41,13.5-12.41,8.21,0,13.6,5.44,13.6,13.45,0,7.37-4.05,10.28-10.68,15.03-.69.49-5.59,4-5.59,5.29,0,.59.84.64,1.19.64h11.32c.79,0,3.86,0,3.86,3.46s-2.92,3.51-3.86,3.51h-19.23Z"/></g></g><line class="cls-2" x1="8" y1="7.5" x2="34" y2="7.5"/><line class="cls-2" x1="46" y1="7.5" x2="59" y2="7.5"/><g><path class="cls-5" d="m227.65,36.35c-.79,0-3.09-.08-3.09-2.8,0-2.17.83-3.25,3.09-3.25h8.01c.54-1.08,1.21-2.88,1.79-3.92.54-.92,1.46-1.25,2.54-1.25,1.92,0,3.96,1,3.96,2.67,0,.63-.21,1.25-.79,2.5h17.99c.71,0,3.13,0,3.13,2.88,0,2.17-.92,3.17-3.13,3.17h-3.26c-.58,1.79-1.71,5.13-4.67,8.6,3.17,1.25,6.68,3,7.22,3.3.75.46,1.75,1.08,1.75,2.67,0,2.42-1.96,3.8-3.38,3.8-1,0-1.29-.12-4.92-2.13-2.38-1.29-4.84-2.46-6.01-2.96-2.29,1.5-4.67,2.46-6.55,3.13-5.47,1.88-11.27,2.29-12.35,2.29-.67,0-3.21,0-3.21-3.42,0-2.84,2-3.05,3.51-3.17,3.21-.21,6.63-.42,10.72-1.92-2.96-1-4.01-1.29-7.47-2.29-.79-.25-2.63-.75-2.63-2.63,0-1,.46-1.79,1.08-2.8.54-.83,1.04-1.63,1.5-2.46h-4.84Zm30.67-17.53c3.25,0,5.05,1.08,5.05,5.05v2.63c0,1.96-.71,3.13-2.88,3.13-.46,0-2.34,0-2.92-.88-.38-.58-.63-1.04-.63-2.25v-1.25c0-.54-.25-.83-.83-.83h-23.41c-.54,0-.83.29-.83.83v1.29c0,1.17-.17,3.09-3,3.09-2.59,0-3.5-.83-3.5-3.09v-2.67c0-4.01,1.88-5.05,5.09-5.05h10.68v-.88c0-1.88,1.29-2.46,2.96-2.46,2.17,0,3.59.46,3.59,2.46v.88h10.64Zm-18.24,17.53c-.46.75-.75,1.29-1.21,2.09-.5.79-.58.88-.58,1.13,0,.58.58.75,1.04.88,3.55,1,3.96,1.08,7.26,2.17,2.38-2.34,3.67-5.01,4.26-6.26h-10.77Z"/><path class="cls-5" d="m279.57,29c.42.54.5,1.04.5,1.88,0,1.08-.5,8.85-2.5,15.57-.75,2.55-1.25,3.88-3.25,3.88-1.59,0-3.96-1.17-3.96-3.46,0-.42.04-.88.63-2.63,2.04-6.05,2.38-10.1,2.63-13.1.21-2.59.88-3.21,3.5-3.21.54,0,1.84.33,2.46,1.08Zm17.94-2.21c-.79,0-1.42-.25-4.92-1.71-4.3-1.79-7.76-2.5-10.6-3.05-1.13-.21-2.75-.58-2.75-2.8,0-.58.21-3.46,3-3.46,1.5,0,7.09,1.21,11.94,2.84,5.8,1.92,6.22,2.67,6.22,4.3,0,1.5-1,3.88-2.88,3.88Zm-9.01,20.32c0,1.17.79,1.17,2.46,1.17,3.21,0,3.38,0,3.59-3,.25-3.09.25-3.46.46-3.96.46-1.04,1.75-1.38,2.67-1.38,3.3,0,3.3,2.5,3.3,3.71,0,2.42-.29,6.13-1.33,8.22-1.46,2.84-3.46,2.84-8.81,2.84-5.05,0-5.88-.21-6.51-.5-2.25-1-2.34-3.34-2.34-4.67v-21.37c0-1.29.25-3.09,3.13-3.09,3.21,0,3.38,1.79,3.38,3.09v18.95Zm18.45-14.06c2.17,6.55,3.26,12.85,3.26,14.36,0,2.84-2.88,3.05-3.96,3.05-2.34,0-2.84-1.5-3.09-3.09-.83-5.3-1.25-7.89-2.88-12.77-1.29-3.88-1.34-4.01-1.34-4.67,0-1.54,1.42-2.8,3.67-2.8,2.09,0,2.63.71,4.34,5.93Z"/><path class="cls-5" d="m324.42,27.68c0,.32-.19,4.51-.22,5.14-.22,4.35-.29,5.65-.29,9.3,0,3.17.22,6.19,5.59,6.19s8.22-2.38,9.11-7.27c.35-1.9.6-3.24,2.7-3.24.48,0,2.86.03,2.86,2.32,0,1.4-.57,4.98-2.98,8.22-2.54,3.4-6.51,4.82-11.52,4.82-4.73,0-7.58-1.17-9.36-3.59-.86-1.14-1.56-2.63-1.56-8.54,0-2.19.22-13.43.25-13.68.13-1.33.57-2.38,2.83-2.38,2.6,0,2.6,1.97,2.6,2.7Z"/><path class="cls-5" d="m353.11,32.47c-1.65,0-2.41-1.14-2.41-2.63,0-1.36.48-2.48,2.29-2.67,1.33-.13,16.41-.7,22.57-.7,1.75,0,3.55,0,3.55,2.41,0,2.57-1.71,2.63-3.52,2.63-1.9.03-3.84.38-6.7,2-3.27,1.87-6.51,5.4-6.51,9.11,0,3.97,3.27,4.86,8.6,4.86h2.73c1.17,0,2.44.48,2.44,2.38,0,2.98-2.32,2.98-4.6,2.98-.92,0-3.84-.03-7.04-.86-1.71-.44-7.4-1.9-7.4-8.76,0-3.59,1.62-6.19,3.43-8.19,1.62-1.81,2.95-2.63,4.16-3.4-1.68.13-10.76.82-11.58.82Z"/><path class="cls-5" d="m394.74,52.29c0,.75,0,3.13-2.96,3.13s-3.05-2-3.05-3.13v-15.07c-.21.08-.46.17-.96.17-1.79,0-3.34-1.58-3.34-3.88,0-1.04.21-1.38,2.04-4.26,1.5-2.42,3.13-6.38,3.76-9.22.58-2.8.71-3.38,1.54-3.92.54-.38,1.29-.46,1.75-.46,1.13,0,3.3.38,3.3,2.55,0,1.33-.92,5.42-2.09,8.64v25.46Zm17.95-32.59v-1.33c0-2.17,1.42-2.75,2.96-2.75,2.09,0,3.25.75,3.25,2.75v1.33h2c.75,0,2.63.04,2.63,2.71s-1.67,2.75-2.63,2.75h-2v2.96h2.96c.75,0,2.67,0,2.67,2.71,0,1.88-.79,2.8-2.67,2.8h-23.83c-.67,0-2.67,0-2.67-2.75s1.92-2.75,2.67-2.75h3v-2.96h-1.88c-.58,0-2.71,0-2.71-2.71s2.13-2.75,2.71-2.75h1.88v-1.33c0-1.92,1.13-2.75,3-2.75,2.04,0,3.09.92,3.09,2.75v1.33h5.55Zm9.01,29.71c0,3.76-1.67,4.97-4.97,4.97h-13.61c-3.3,0-4.97-1.21-4.97-4.97v-9.06c0-3.63,1.5-4.97,4.97-4.97h13.61c3.46,0,4.97,1.34,4.97,4.97v9.06Zm-6.13-6.97v-1.71c0-.5-.29-.79-.79-.79h-9.77c-.46,0-.75.29-.75.79v1.71h11.31Zm0,4.34h-11.31v1.79c0,.46.25.75.79.75h9.72c.5,0,.79-.25.79-.75v-1.79Zm-2.88-21.62h-5.55v2.96h5.55v-2.96Z"/><path class="cls-5" d="m446.2,19.16c2.17-1.42,4.38-1.84,6.18-1.84,3.88,0,6.84,1.96,8.39,4.13,2.67,3.71,3.3,8.93,3.3,13.44,0,10.22-3.34,15.11-10.14,17.53-3.55,1.25-7.22,1.63-10.6,1.63-2.46,0-5.22,0-5.22-3.34,0-3.09,2.59-3.09,3.46-3.09.54,0,2.92.04,3.38,0,9.77-.5,12.1-5.01,12.1-12.73,0-5.05-.75-11.43-5.59-11.43-5.34,0-10.81,7.34-10.81,13.77,0,.63.17,3.25.17,3.8,0,1,0,3.26-3.3,3.26-.71,0-2.54-.08-3.05-1.84-.29-1.04-.54-3.84-.54-6.09,0-8.51.75-15.82,1.29-17.65.33-1.17,1-2.29,3.34-2.29,1.04,0,3.55.12,3.55,2.75,0,.33-.08.88-.17,1.29-.54,2.38-.54,2.63-.71,3.96,1.08-1.71,2.21-3.46,4.97-5.26Z"/><path class="cls-5" d="m495.03,29.88c7.8,0,13.23,3.63,13.23,10.52,0,5.63-2.42,8.64-5.47,10.35-3.17,1.79-7.18,2.63-12.9,2.63-3.17,0-8.55-.46-10.43-1.25-1.54-.67-1.71-2.38-1.71-2.92,0-.83.46-3,2.84-3,.5,0,1.46.21,1.84.29,1.13.21,4.05.79,7.3.79,1.21,0,5.55-.04,8.51-1.63,2.38-1.25,3.05-3.09,3.05-4.97,0-4.8-5.63-4.97-7.05-4.97-2.71,0-7.01.46-11.1,3.51-.42.29-2,1.88-2.38,2.09-.71.38-1.5.46-2.04.46-3.38,0-3.38-2.59-3.38-4.17,0-1.17.29-9.22.75-11.35.38-1.79,1.71-2.17,3.05-2.17,2.38,0,3.42.96,3.42,2.75,0,.5-.33,3.42-.38,4.05-.12,1.29-.12,1.92-.17,2.63,3.88-2.5,8.43-3.63,13.02-3.63Zm7.01-5.47c-.67.54-1.34.58-2.55.58-1.33,0-6.97-.29-14.61-1.42-4.55-.67-5.8-1.17-5.8-3.42,0-.33.04-3.17,2.8-3.17.88,0,4.55.79,5.3.88,3.63.5,7.26.75,10.93.88,2.92.12,4.92.29,4.92,3.34,0,.54-.25,1.75-1,2.34Z"/><path class="cls-5" d="m525.54,29.38l-4.72.29c-.67.04-3.71.21-3.71-3.13,0-2.8,2.21-3.09,3.38-3.13l5.17-.25c.04-.83.12-3.67.25-4.21.25-1.38,1.21-2.34,3.25-2.34s3.38.79,3.38,3.09c0,.54-.12,2.5-.21,3.46-.04.63-.08,1.21-.08,1.42,2.88-2.46,6.22-4.55,10.02-4.55,1.67,0,4.42.38,6.22,2.55,1,1.25,1.5,2.71,1.5,5.05,0,2.04-.08,2.54-1.88,10.22-.25,1.17-.88,3.92-.88,5.51s.88,2.46,2.04,2.46c.29,0,.83-.04,1.13-.17,1.13-.42,1.67-.58,2.25-.58,1.75,0,2.59,1.54,2.59,3.09,0,4.09-5.34,4.38-6.76,4.38-1.63,0-5.01-.38-6.72-3.05-.75-1.21-1.17-2.67-1.17-5.05,0-2.21.38-4.72.88-7.43.25-1.29,1.5-7.18,1.5-8.22,0-1.79-1-2.13-2-2.13-2.71,0-6.38,2.92-9.1,6.22-.08,2.09-.08,8.93-.08,11.52,0,.88.08,4.92.08,5.72,0,1.46,0,4.05-3.21,4.05-3.38,0-3.38-2.21-3.38-4.38,0-3.05.04-6.05.08-9.06-2.38,3.67-2.92,4.55-3.59,5.17-.33.33-.96.83-1.92.83-1.88,0-3.51-1.63-3.51-3.3,0-1.34.5-1.84,2.25-3.71,2.54-2.75,5.01-5.63,6.93-8.89v-1.46Z"/><path class="cls-5" d="m586.09,29.25c2.13,0,4.46.42,6.68,1.42,4.05,1.79,5.97,5.97,5.97,10.14,0,3.25-1.17,8.68-7.43,11.52-3.05,1.38-6.39,1.75-9.68,1.75-5.13,0-7.59-1.04-9.35-2.13-1.84-1.17-2.92-3.17-2.92-5.34,0-5.13,4.42-7.47,9.18-7.47,2.63,0,8.47.71,8.47,7.05,0,.54-.08.96-.21,1.54,4.51-1.21,4.97-5.05,4.97-6.34,0-1.71-.67-4.47-3.67-5.72-1.63-.71-3.59-.75-4.67-.75-3.34,0-8.01.75-13.27,5.51-2.75,2.55-3,2.71-4.09,2.71-1.63,0-3.46-1.46-3.46-3.55,0-1.42.5-1.79,3.46-3.96,5.47-3.96,9.52-7.01,13.98-10.56.5-.38.83-.67,1.42-1.21-1.88.04-10.89.71-11.81.71-1,0-3.34-.08-3.34-3.21,0-2.96,2.21-3.13,3.55-3.17,10.81-.17,11.77-.17,16.99-.38.42,0,1.34-.04,2.21-.04,1.25,0,3.88.04,3.88,2.92,0,2.17-.54,2.5-5.3,5.38-2.55,1.54-4.38,2.96-5.47,3.76,1-.33,2.21-.58,3.92-.58Zm-4.21,17.9c0-2.25-1.59-2.88-3.3-2.88-1.88,0-3.38.83-3.38,2.17s1.79,2.34,4.72,2.34c.63,0,1.04-.08,1.75-.21.21-.88.21-1.21.21-1.42Z"/><path class="cls-5" d="m616.39,48.16c0,2.25-1.79,4.05-4.01,4.05s-4.01-1.79-4.01-4.05,1.79-4.01,4.01-4.01,4.01,1.75,4.01,4.01Zm-1.84-9.22c-.17,1.29-.42,2.5-2.13,2.5s-2-.92-2.21-2.5l-1.46-11.18v-8.01c0-1.17.21-3.38,3.59-3.38,2.59,0,3.67,1.13,3.67,3.38v8.01l-1.46,11.18Z"/></g><path class="cls-4" d="m308,64.5h-80c-1.1,0-2-.9-2-2s.9-2,2-2h80c1.1,0,2,.9,2,2s-.9,2-2,2Z"/></g></g></g></svg>