<?xml version="1.0" encoding="UTF-8"?><svg id="Layer_2" xmlns="http://www.w3.org/2000/svg" viewBox="0 0 718.24 158.98"><defs><style>.cls-1{fill:#fff;}.cls-2{fill:#fbd747;}.cls-3{fill:#d2d8d5;}.cls-4{fill:#0ea17b;}.cls-5{fill:#057f3f;}.cls-6{fill:#58af85;}</style></defs><g id="PC"><g><g><g><circle class="cls-1" cx="125.87" cy="27.5" r="27.5"/><g><polygon class="cls-2" points="125.87 46.04 116 37.58 116 12.77 125.87 21.23 125.87 46.04"/><polygon class="cls-6" points="125.87 46.04 135.73 37.58 135.73 12.77 125.87 21.23 125.87 46.04"/></g></g><g><g><path class="cls-4" d="m179.07,8.38c2.88,0,5.6,0,5.6,4.5,0,2.04-.42,5.18-4.82,11.36,1.62,1.52,3.4,2.83,4.19,3.4,2.3,1.67,2.98,2.25,2.98,3.82,0,1.83-1.2,4.03-3.4,4.03-1.73,0-3.3-1.94-4.55-3.51v15.08c0,2.77-1.2,3.82-4.24,3.82-3.61,0-3.72-2.62-3.72-3.82v-13.35c-1.47,1.2-2.25,1.73-3.56,1.73-2.41,0-3.93-2.67-3.93-4.66,0-1.83.42-2.2,4.66-5.6,4.5-3.61,7.49-8.01,7.49-8.69s-.68-.68-.84-.68h-6.81c-2.51,0-3.87-.99-3.87-3.87,0-3.56,2.98-3.56,3.87-3.56h2.98v-3.61c0-2.78,1.15-3.87,4.24-3.87,3.61,0,3.72,2.67,3.72,3.87v3.61Zm9.32,2.57c-1.1,0-3.82-.11-3.82-3.67,0-3.04,1.15-4.14,3.82-4.14h17.43c1.88,0,3.98,0,5.45,1.47,1.52,1.52,1.57,3.19,1.57,8.22,0,13.77-.68,25.86-1.57,31.36-1,5.86-4.08,6.54-9.37,6.54-1.15,0-4.03-.11-4.87-.31-.84-.16-2.62-1.1-2.62-3.93,0-3.87,3.09-3.87,3.93-3.87.37,0,2.2.1,2.57.1,1.41,0,2.46-.58,2.93-4.4.94-7.54,1.15-18.64,1.15-25.55,0-1.52-.37-1.83-1.68-1.83h-3.4c-.26,17.54-2.3,28.9-10.31,37.59-1.2,1.26-2.36,2.15-3.93,2.15-2.3,0-4.45-1.88-4.45-4.08,0-1.57.31-1.94,4.14-6.6,5.76-6.96,6.65-17.22,6.75-29.06h-3.72Zm-.16,13.93c-1,1.52-1.52,2.09-2.57,2.09s-3.3-.84-3.3-2.67c0-.79.16-1.05,1.41-3.25,1.36-2.41,1.67-2.93,2.98-2.93.63,0,3.25.52,3.3,2.72,0,1.26-1.47,3.46-1.83,4.03Z"/><path class="cls-4" d="m233.26,17.91c.52.68.63,1.31.63,2.36,0,1.36-.63,11.1-3.14,19.53-.94,3.19-1.57,4.87-4.08,4.87-1.99,0-4.97-1.47-4.97-4.35,0-.52.05-1.1.79-3.3,2.57-7.59,2.98-12.67,3.3-16.44.26-3.25,1.1-4.03,4.4-4.03.68,0,2.3.42,3.09,1.36Zm22.51-2.78c-.99,0-1.78-.31-6.18-2.15-5.39-2.25-9.74-3.14-13.3-3.82-1.41-.26-3.46-.73-3.46-3.51,0-.73.26-4.35,3.77-4.35,1.88,0,8.9,1.52,14.97,3.56,7.28,2.41,7.8,3.35,7.8,5.39,0,1.88-1.26,4.87-3.61,4.87Zm-11.31,25.5c0,1.47.99,1.47,3.09,1.47,4.03,0,4.24,0,4.5-3.77.31-3.87.31-4.34.58-4.97.58-1.31,2.2-1.73,3.35-1.73,4.14,0,4.14,3.14,4.14,4.66,0,3.04-.37,7.7-1.67,10.31-1.83,3.56-4.35,3.56-11.05,3.56-6.33,0-7.38-.26-8.17-.63-2.83-1.26-2.93-4.19-2.93-5.86v-26.8c0-1.62.31-3.87,3.93-3.87,4.03,0,4.24,2.25,4.24,3.87v23.77Zm23.14-17.64c2.72,8.22,4.08,16.12,4.08,18.01,0,3.56-3.61,3.82-4.97,3.82-2.93,0-3.56-1.88-3.87-3.87-1.05-6.65-1.57-9.89-3.61-16.02-1.62-4.87-1.68-5.03-1.68-5.86,0-1.94,1.78-3.51,4.61-3.51,2.62,0,3.3.89,5.44,7.43Z"/><path class="cls-4" d="m325.4,15.86c.79,0,3.87,0,3.87,3.46s-2.98,3.46-3.87,3.46h-14.29c-1.31,1-2.67,1.88-4.03,2.78h9.95c4.29,0,6.96,1.36,6.96,6.96v10.42c0,5.55-2.62,6.96-6.96,6.96h-21.99c-4.19,0-7.01-1.26-7.01-6.96v-7.54c-.68.31-3.04,1.31-4.29,1.31-1.99,0-3.93-2.15-3.93-4.61,0-2.62,2.41-3.51,4.24-4.08,5.18-1.67,8.69-3.04,13.19-5.24h-13.93c-.79,0-3.87,0-3.87-3.4s2.88-3.51,3.87-3.51h14.61v-3.67h-10.79c-.73,0-3.87,0-3.87-3.35s3.14-3.4,3.87-3.4h10.79v-1.15c0-2.67,2.09-3.3,3.77-3.3,2.09,0,4.24.52,4.24,3.3v1.15h5.86c.68,0,3.98,0,3.87,3.51.79-.89,3.98-4.97,4.71-5.76.68-.79,1.47-1.36,2.72-1.36,2.2,0,4.5,1.73,4.5,3.77,0,2.78-5.08,7.54-8.01,10.26h5.81Zm-9.21,18.69v-1.94c0-.79-.52-1.1-1.1-1.1h-18.11c-.63,0-1.1.37-1.1,1.1v1.94h20.31Zm-20.31,5.76v2.09c0,.79.52,1.1,1.1,1.1h18.11c.68,0,1.1-.37,1.1-1.1v-2.09h-20.31Zm12.46-24.45c1.36-1.05,2.36-1.83,4.35-3.72-.26,0-.52.05-.89.05h-5.86v3.67h2.41Z"/></g><path d="m342.88,25.54c-1.06,3.1-1.87,8.17-2.06,13.12l2.09.71c-.71,2.45-1.06,4.89-1.06,7.61,0,.52,0,.76.08,1.33l-4.67.22c-.03-.52-.03-.73-.14-1.44-.52-3.64-.71-6-.71-8.58,0-3.12.33-6.54,1.03-10.46.33-1.9.35-2.09.41-2.91l5.03.41Zm7.5,11.87c-1.25,1.6-1.82,2.77-1.82,3.75,0,1.25,1.22,1.93,3.53,1.93s4.7-.38,6.76-1.11l.27,4.81q-.71.08-2.31.33c-1.47.22-3.15.35-4.7.35-2.53,0-4.21-.35-5.62-1.14-1.52-.87-2.5-2.55-2.5-4.32,0-1.33.46-2.82,1.3-4.24.38-.62.54-.9,1.28-1.96l3.8,1.6Zm-5.32-9.8c1.28.27,2.72.41,4.83.41,3.61,0,6.27-.22,8.09-.68l.19,4.64c-.24,0-.52.03-2.01.19-1.87.19-3.86.3-5.73.3-1.66,0-3.02-.05-4.67-.22-.22-.03-.41-.03-.79-.05l.08-4.59Z"/><path d="m583.34,41.68c-1.58,3.48-3.39,5-5.87,5-3.64,0-6.19-3.48-6.19-8.45,0-3.18,1.09-6.06,3.12-8.28,2.39-2.61,5.84-3.99,9.83-3.99,3.64,0,6.84,1.22,8.85,3.34,1.74,1.85,2.66,4.48,2.66,7.55,0,3.53-1.33,6.74-3.61,8.77-1.85,1.66-3.99,2.53-7.8,3.12-.65-1.96-1.17-2.93-2.31-4.46,2.55-.19,4.24-.62,5.7-1.38,2.09-1.11,3.26-3.39,3.26-6.3,0-2.31-.82-4.16-2.39-5.35-.71-.54-1.3-.79-2.28-.95-.6,4.67-1.52,8.18-2.99,11.38Zm-4.67-9.94c-1.79,1.52-2.96,4.05-2.96,6.46,0,1.93.73,3.45,1.68,3.45.68,0,1.39-.95,2.2-3.01.95-2.45,1.74-5.6,2.04-8.28-1.14.16-2.01.57-2.96,1.38Z"/><g><path d="m383.16,6.32c2.04,0,4.82,0,4.82,3.66,0,2.25-1,3.25-3.82,6.02-4.4,4.4-7.38,10.16-7.38,16.39,0,7.59,5.39,9.69,10.21,9.69,5.86,0,10.99-2.15,10.99-12.15,0-8.85-3.98-15.34-6.44-19.42-.52-.84-1.2-2.25-1.2-3.19,0-3.4,4.5-3.56,4.82-3.56,1.99,0,2.67,1.2,3.82,3.14,2.67,4.45,7.02,7.64,11.73,9.89,2.62,1.26,3.82,1.83,3.82,4.03,0,1.83-1.26,4.29-3.82,4.29-2.83,0-6.39-3.51-7.59-4.71.84,1.88,2.3,5.13,2.3,11.05,0,12.98-6.81,18.58-18.27,18.58-4.55,0-9.11-.84-12.67-3.66-3.87-3.09-5.5-8.43-5.5-12.93,0-3.72.89-8.74,3.72-13.77,1.26-2.15,2.3-3.3,4.45-5.65-.52.05-3.25.31-3.35.31-.84.05-1.73.05-2.25.05-1.05,0-4.24,0-4.24-4.03s3.04-4.03,4.08-4.03h11.78Zm26.44,6.7c-3.25,0-5.86-2.62-5.86-5.86s2.62-5.86,5.86-5.86,5.86,2.67,5.86,5.86-2.62,5.86-5.86,5.86Zm0-8.38c-1.36,0-2.51,1.15-2.51,2.51s1.15,2.51,2.51,2.51,2.51-1.1,2.51-2.51-1.15-2.51-2.51-2.51Z"/><path d="m431.43,40.56c.47,0,1.94.1,2.51.16,1.05.1,2.04.1,3.04.1,5.76,0,15.29-.68,15.29-10.26,0-6.13-4.14-8.27-8.74-8.27s-9.95,1.41-12.56,2.25c-4.76,1.57-5.34,1.73-6.23,1.73-2.93,0-3.72-2.72-3.72-4.29,0-2.83,1.73-3.51,4.14-4.24,9-2.62,15.92-2.88,18.43-2.88,2.3,0,8.53,0,12.93,4.55,3.35,3.51,3.93,8.22,3.93,11.05,0,4.92-1.57,10.63-7.28,14.4-5.24,3.46-14.19,3.67-17.38,3.67-4.71,0-8.27-.16-8.27-4.03,0-1.94.73-3.93,3.93-3.93Z"/><path d="m480.23,4.18c.79-1.05,1.99-1.31,3.14-1.31,2.04,0,4.45.63,4.45,3.51,0,.73-.16,1.57-.42,3.14,4.19-.1,9.27-.21,12.56-.37.63,0,3.46-.21,4.03-.21,1.05,0,4.14.05,4.14,3.93,0,3.56-2.62,3.77-4.24,3.87-5.39.26-12.04.47-18.01.63-1.36,6.65-7.75,29.06-9.89,31.31-.37.42-1.2,1.05-2.62,1.05s-4.82-.79-4.82-3.77c0-1.15.84-3.04,1.36-4.14,2.09-4.71,4.66-12.56,6.07-17.96.58-2.25,1.2-5.03,1.52-6.33-2.98.1-6.02.1-7.02-.47-1.36-.79-1.57-2.36-1.57-3.35,0-3.25,1.67-3.98,4.29-3.98h5.65c.73-4.34.79-4.82,1.36-5.55Zm23.25,45.13c-12.41,0-17.85-1.99-17.85-8.85,0-.68.05-6.39,5.18-6.39,1.88,0,3.93.79,3.93,2.67,0,.52-.16.94-.26,1.2-.31.84-.37,1.05-.37,1.52,0,.94.58,1.57,2.46,1.88,1.41.26,3.19.31,4.4.31,1.47,0,4.24-.1,7.7-.52.63-.05,1.78-.21,2.36-.21,2.36,0,3.66,1.31,3.66,3.77,0,3.72-1.83,4.61-11.2,4.61Zm8.43-20.89c-.68.58-1.41.68-2.62.68-.89,0-4.82-.21-5.6-.21-3.3,0-4.71.1-9.69.47-.31.05-1.15.1-1.88.1-3.46,0-3.46-3.4-3.46-3.93,0-1.62.68-3.14,3.14-3.72,3.3-.73,9.42-.89,12.93-.89,7.91,0,8.48,1.31,8.48,4.55,0,.79-.37,2.2-1.31,2.93Z"/><path d="m540.38,6.17c2.72-1.78,5.5-2.3,7.75-2.3,4.87,0,8.59,2.46,10.52,5.18,3.35,4.66,4.14,11.2,4.14,16.86,0,12.83-4.19,18.95-12.72,21.99-4.45,1.57-9.06,2.04-13.3,2.04-3.09,0-6.54,0-6.54-4.19,0-3.87,3.25-3.87,4.35-3.87.68,0,3.67.05,4.24,0,12.25-.63,15.18-6.28,15.18-15.97,0-6.33-.94-14.34-7.02-14.34-6.7,0-13.56,9.21-13.56,17.28,0,.79.21,4.08.21,4.76,0,1.26,0,4.08-4.14,4.08-.89,0-3.19-.11-3.82-2.3-.37-1.31-.68-4.82-.68-7.64,0-10.68.94-19.84,1.62-22.15.42-1.47,1.26-2.88,4.19-2.88,1.31,0,4.45.16,4.45,3.46,0,.42-.1,1.1-.21,1.62-.68,2.98-.68,3.3-.89,4.97,1.36-2.15,2.77-4.35,6.23-6.6Z"/></g></g></g><polygon class="cls-4" points="430.95 105 266.47 105 253.62 96 442.51 96 430.95 105"/><g><g><path class="cls-2" d="m287.82,99.71c-1.47,0-4.51,0-4.61-3.38-1.17,1.88-3.18,3.27-6.66,3.27-5.38,0-9.44-4.08-9.44-9.48,0-7.8,7.25-10.99,10.72-12.32v-2.72c-2.53.05-6.24.05-6.42.05-1.31,0-4.02,0-4.02-3.39s2.94-3.36,3.91-3.36c4.01,0,5.01,0,6.54-.05v-1.82c0-2.41,1.17-3.63,3.47-3.63s3.51,1.22,3.51,3.63v1.5c2.4-.11,2.75-.11,3.08-.11.68,0,1.23.1,1.68.27-.04-.17-.05-.32-.05-.45,0-.89.53-1.68.85-2.08l.06-.08.08-.06c.32-.27,1.21-1.02,2.49-1.02,3.01,0,10.66,6.58,10.66,9.87,0,1.91-1.77,3.59-3.79,3.59-1.58,0-2.17-.82-3.45-2.62-1.89-2.57-3.3-3.56-5.02-4.71.03.22.04.44.04.63,0,1.95-1.13,2.93-2.09,3.17-.54.17-1.03.21-4.55.35v1.46c.72-.09,1.63-.16,2.77-.16,1.76,0,7.78.23,11.39,3.13,3.46,2.73,3.83,6.95,3.83,8.63,0,5.22-2.79,9.06-7.86,10.8-2.1.71-4.5,1.08-7.12,1.08Zm-3-11.68c0,1.48,0,3.6-.51,5.62.9-.65,2.1-.65,2.65-.65,4.33,0,8.34-.62,8.34-5.12,0-3.6-2.4-5.28-7.56-5.28-1.4,0-2.25.07-2.93.17v5.27Zm-6.91-3.26c-2.67,1.33-3.97,2.96-3.97,4.98,0,1.63,1.09,3,2.38,3,.44,0,1.59,0,1.59-4.89v-3.1Z"/><path class="cls-5" d="m281.3,63.88c2.4,0,2.51,1.57,2.51,2.63v2.55c3.34-.16,3.73-.16,4.08-.16.71,0,2.55,0,2.55,2.35,0,1.69-1.02,2.12-1.33,2.2-.51.16-1.02.2-5.3.35v3.57c.74-.12,1.96-.31,3.77-.31.74,0,7.15,0,10.76,2.91,2.63,2.08,3.46,5.3,3.46,7.85,0,4.12-1.93,8.05-7.19,9.86-2.2.75-4.51,1.02-6.79,1.02-1.57,0-3.61,0-3.61-2.55,0-2.16,1.69-2.16,2.75-2.16,2.79,0,9.35,0,9.35-6.12,0-5.5-4.87-6.28-8.56-6.28-2.08,0-3.02.16-3.93.31v6.13c0,3.77,0,10.56-7.26,10.56-5.03,0-8.44-3.81-8.44-8.48,0-7.5,7.34-10.37,10.72-11.62v-4.44c-2.4.08-7.3.08-7.42.08-1.37,0-3.02,0-3.02-2.4s1.84-2.36,2.91-2.36c4.75,0,5.3,0,7.54-.08v-2.79c0-.98.04-2.63,2.47-2.63m-4.99,29.88c1.77,0,2.59-1.65,2.59-5.89v-4.63c-2.08.82-5.97,2.67-5.97,6.52,0,2.24,1.57,4,3.38,4m16.69-28.27c2.51,0,9.66,6.17,9.66,8.87,0,1.45-1.42,2.59-2.79,2.59-1.06,0-1.37-.43-2.63-2.2-2.08-2.83-3.61-3.85-5.5-5.1-.9-.59-1.22-1.53-1.22-1.93,0-.63.47-1.26.63-1.45.24-.2.9-.78,1.85-.78m-11.7-3.61c-1.67,0-4.47.6-4.47,4.63v.84c-1.14.02-2.43.02-5.54.02-4.27,0-4.91,2.73-4.91,4.36,0,2.92,1.69,4.4,5.02,4.4.16,0,3.01,0,5.42-.03v1.02c-3.85,1.53-10.72,4.99-10.72,13,0,5.98,4.49,10.48,10.44,10.48,2.82,0,4.79-.85,6.15-2.12,1.16,2.24,4.02,2.24,5.12,2.24,2.73,0,5.23-.38,7.44-1.13,5.43-1.87,8.54-6.15,8.54-11.75,0-3.56-1.3-6.75-3.59-8.89,2.45-.17,4.46-2.2,4.46-4.58s-2.85-5.42-4.55-6.94c-1.32-1.18-4.66-3.93-7.11-3.93-1.64,0-2.74.93-3.11,1.23l-.15.13-.15.18c-.37.46-.79,1.13-.97,1.92-.23-.02-.47-.04-.72-.04-.29,0-.58,0-2.08.06v-.46c0-1.39-.44-4.63-4.51-4.63h0Zm8.87,13.32c.91-.41,1.81-1.29,2.15-2.72,1.06.8,2.06,1.76,3.32,3.46.13.18.25.35.36.51-2.02-.75-4.15-1.09-5.82-1.25h0Zm-4.36,8.45c.5-.04,1.12-.06,1.93-.06,5.78,0,6.56,2.17,6.56,4.28,0,2.97-2.06,4.12-7.35,4.12-.41,0-.88.03-1.37.12.23-1.6.23-3.08.23-4.09v-4.38h0Zm-9.5,8.11c-.65,0-1.38-.86-1.38-2,0-1.22.65-2.29,1.97-3.24v1.35c0,2.93-.43,3.73-.55,3.89-.01,0-.02,0-.04,0h0Z"/></g><g><path class="cls-2" d="m320.07,99.98c-3.57,0-4.1-2.23-4.1-3.55,0-3.05,2.44-3.08,4.8-3.12,4.34-.04,6.86-.88,8.35-1.93-.89.25-1.97.4-3.31.4-7.36,0-10.66-4.39-10.66-8.74s3.34-8.81,10.66-8.81c1.71,0,3.32.22,4.66.65l-.02-.86c-5.17.12-9.44.17-13.71.17s-4.56-.04-5.16-.18c-1.38-.41-2.16-1.61-2.16-3.21,0-3.32,2.82-3.32,4.02-3.32h4.36c5.7,0,10.32-.08,12.53-.13l-.02-.81c0-.42,0-1.3.45-2.11.41-.72,1.28-1.59,3.14-1.59,1.1,0,3.67.35,3.67,3.59v.77c1.74-.06,4.9-.16,5.17-.16,3.12,0,3.59,2.1,3.59,3.36,0,3.24-2.48,3.32-4.87,3.39-.61,0-2.63.04-3.88.08v7.11c.4,1.12.94,2.78.94,5.44,0,7.25-4.42,11.9-12.44,13.08-3.11.47-5.71.48-6,.48Zm6.48-19.83c-1.52,0-4.38.6-4.38,2.89,0,2.7,3.9,2.73,4.07,2.73,3.85,0,4.26-2.02,4.26-2.89,0-2.53-3.02-2.73-3.95-2.73Z"/><path class="cls-5" d="m333.89,63.84c2.67,0,2.67,1.96,2.67,2.59v1.81c.75-.04,5.89-.2,6.17-.2.98,0,2.59.16,2.59,2.36s-1.41,2.32-3.93,2.4c-.79,0-4.16.08-4.83.12v8.25c.39,1.1.94,2.67.94,5.26,0,7.81-5.22,11.15-11.58,12.09-2.87.43-5.34.47-5.85.47-.78,0-3.1,0-3.1-2.55,0-2.08,1.37-2.08,3.89-2.12,8.99-.08,10.84-3.5,11.51-6.24-1.1,1.22-2.47,2.71-6.56,2.71-6.24,0-9.66-3.5-9.66-7.74s3.38-7.81,9.66-7.81c.59,0,3.49,0,5.69,1.14l-.08-3.38c-4.87.12-9.62.2-14.69.2-4.28,0-4.44-.04-4.95-.16-.39-.12-1.37-.55-1.37-2.24,0-2.32,1.77-2.32,3.02-2.32h4.36c5.38,0,10.41-.08,13.55-.16l-.04-1.81c0-.63-.04-2.67,2.59-2.67m-7.66,22.93c4.04,0,5.26-2.12,5.26-3.89,0-3.3-3.61-3.73-4.95-3.73-2.2,0-5.38.98-5.38,3.89s3.14,3.73,5.06,3.73m7.66-24.93c-2.47,0-3.58,1.32-4.01,2.1-.53.95-.57,1.92-.58,2.42-2.44.05-6.57.11-11.51.11h-4.36c-2.29,0-5.02.75-5.02,4.32,0,2.07,1.05,3.63,2.8,4.15l.06.02.07.02c.75.17,1.06.21,5.39.21.57,0,1.14,0,1.71,0-2.92,1.91-4.3,4.95-4.3,7.86,0,4.55,3.02,8.01,7.7,9.25-.32.01-.66.02-1.01.02h-.09c-2.3.04-5.78.09-5.78,4.12,0,1.07.37,4.55,5.1,4.55.29,0,2.97-.01,6.15-.49,8.56-1.27,13.29-6.27,13.29-14.07,0-2.69-.55-4.47-.94-5.61v-5.97c1.12-.03,2.39-.05,2.83-.05h.06c2.35-.07,5.86-.19,5.86-4.4,0-1.02-.33-4.36-4.59-4.36-.22,0-2.42.07-4.17.12-.12-3.18-2.47-4.33-4.66-4.33h0Zm-7.66,22.93s-3.06-.02-3.06-1.73c0-1.84,3.35-1.89,3.38-1.89.69,0,2.95.12,2.95,1.73s-2.04,1.89-3.26,1.89h0Z"/></g><g><path class="cls-2" d="m362.52,99.98c-3.57,0-4.1-2.23-4.1-3.55,0-3.05,2.44-3.08,4.8-3.12,4.34-.04,6.86-.88,8.35-1.93-.89.25-1.97.4-3.31.4-7.36,0-10.66-4.39-10.66-8.74s3.34-8.81,10.66-8.81c1.71,0,3.32.22,4.66.65l-.02-.86c-5.17.12-9.44.17-13.71.17s-4.56-.04-5.16-.18c-1.38-.41-2.16-1.61-2.16-3.21,0-3.32,2.82-3.32,4.02-3.32h4.36c5.7,0,10.32-.08,12.53-.13l-.02-.81c0-.42,0-1.3.45-2.11.41-.72,1.28-1.59,3.14-1.59,1.1,0,3.67.35,3.67,3.59v.77c1.74-.06,4.9-.16,5.17-.16,3.13,0,3.59,2.1,3.59,3.36,0,3.24-2.48,3.32-4.87,3.39-.61,0-2.63.04-3.88.08v7.11c.4,1.12.94,2.78.94,5.44,0,7.25-4.42,11.9-12.44,13.08-3.11.47-5.71.48-6,.48Zm6.48-19.83c-1.51,0-4.38.6-4.38,2.89,0,2.7,3.9,2.73,4.06,2.73,3.85,0,4.26-2.02,4.26-2.89,0-2.53-3.02-2.73-3.95-2.73Z"/><path class="cls-5" d="m376.35,63.84c2.67,0,2.67,1.96,2.67,2.59v1.81c.75-.04,5.89-.2,6.17-.2.98,0,2.59.16,2.59,2.36s-1.41,2.32-3.93,2.4c-.79,0-4.16.08-4.83.12v8.25c.39,1.1.94,2.67.94,5.26,0,7.81-5.22,11.15-11.58,12.09-2.87.43-5.34.47-5.85.47-.79,0-3.1,0-3.1-2.55,0-2.08,1.37-2.08,3.89-2.12,8.99-.08,10.84-3.5,11.51-6.24-1.1,1.22-2.47,2.71-6.56,2.71-6.24,0-9.66-3.5-9.66-7.74s3.38-7.81,9.66-7.81c.59,0,3.49,0,5.69,1.14l-.08-3.38c-4.87.12-9.62.2-14.69.2-4.28,0-4.44-.04-4.95-.16-.39-.12-1.37-.55-1.37-2.24,0-2.32,1.77-2.32,3.02-2.32h4.36c5.38,0,10.41-.08,13.55-.16l-.04-1.81c0-.63-.04-2.67,2.59-2.67m-7.66,22.93c4.04,0,5.26-2.12,5.26-3.89,0-3.3-3.61-3.73-4.95-3.73-2.2,0-5.38.98-5.38,3.89s3.14,3.73,5.06,3.73m7.66-24.93c-2.47,0-3.58,1.32-4.01,2.1-.53.95-.57,1.92-.58,2.42-2.44.05-6.57.11-11.51.11h-4.36c-2.29,0-5.02.75-5.02,4.32,0,2.07,1.05,3.63,2.8,4.15l.06.02.07.02c.75.17,1.06.21,5.39.21.57,0,1.14,0,1.71,0-2.92,1.91-4.3,4.95-4.3,7.86,0,4.55,3.02,8.01,7.7,9.25-.32.01-.66.02-1.01.02h-.09c-2.3.04-5.78.09-5.78,4.12,0,1.07.37,4.55,5.1,4.55.29,0,2.97-.01,6.15-.49,8.56-1.27,13.28-6.27,13.28-14.07,0-2.69-.55-4.47-.94-5.61v-5.97c1.12-.03,2.39-.05,2.83-.05h.06c2.35-.07,5.86-.19,5.86-4.4,0-1.02-.33-4.36-4.59-4.36-.22,0-2.42.07-4.17.12-.12-3.18-2.47-4.33-4.66-4.33h0Zm-7.66,22.93s-3.06-.02-3.06-1.73c0-1.84,3.35-1.89,3.38-1.89.69,0,2.95.12,2.95,1.73s-2.04,1.89-3.26,1.89h0Z"/></g><g><path class="cls-2" d="m414.56,99.67c-.63,0-1.95,0-2.84-1.19-.72-.9-.83-1.92-.83-2.45,0-1.11.3-1.81.78-2.26-.04,0-.09,0-.13,0-.61,0-1.24-.2-1.87-.58-2.54,2.94-4.94,4.31-7.51,4.31-3.76,0-7.56-3.03-7.56-9.8,0-4.7,1.68-8.84,4.99-12.3-.7-2.58-1.45-5.69-1.45-7.13,0-2.02,1.44-3.32,3.67-3.32,2.39,0,2.86,1.77,3.01,2.36.06.19.24,1.1.76,3.96,2.18-.98,4.34-1.56,7.05-1.91.8-4.1,1.03-4.61,1.11-4.78.38-.79,1.2-1.71,3.03-1.71,2.64,0,3.83,1.62,3.83,3.24,0,.67-.41,2.43-.73,3.64,1.15.23,2.87.69,4.7,1.64,4.55,2.31,7.06,6.77,7.06,12.55,0,2-.43,8.8-5.9,12.46-4.87,3.23-10.9,3.27-11.16,3.27Zm-1-12.24c.95.91,1.45,1.55,1.45,2.64s-.61,2.18-1.46,2.89c.33-.06.66-.1,1-.15,2.97-.37,5.02-.71,6.85-2.03,2.68-1.93,3.24-4.89,3.24-7.04,0-5.96-4.1-7.25-6.55-7.71-.66,2.04-2.44,7.36-4.52,11.39Zm-11.38-4.57c-.73,1.74-1,3.62-1,4.78,0,1.26.35,3.12,1.32,3.12.74,0,1.58-.69,2.78-2.28-.91-1.37-2.05-3.28-3.1-5.62Zm4.99-5.26c.53,1.5,1.17,2.94,1.9,4.29.6-1.44,1.35-3.45,2-5.71-1.43.3-2.59.69-3.9,1.42Z"/><path class="cls-5" d="m416.76,63.88c1.81,0,2.83.94,2.83,2.24,0,.71-.71,3.54-.98,4.44,1.02.16,3.14.51,5.5,1.73,4.95,2.51,6.52,7.26,6.52,11.66,0,3.69-1.22,8.8-5.46,11.62-4.32,2.87-9.66,3.1-10.6,3.1-.55,0-1.45,0-2.04-.79-.47-.59-.63-1.3-.63-1.84,0-1.88,1.02-2,2.83-2.24,3.14-.39,5.3-.78,7.26-2.2,3.1-2.24,3.65-5.65,3.65-7.85,0-7.58-6.01-8.48-8.25-8.84-.55,1.81-2.71,8.4-5.06,12.72,1.22,1.14,1.69,1.57,1.69,2.43,0,1.3-1.34,2.71-2.47,2.71-.9,0-1.73-.67-2.04-.94-2.43,3.02-4.75,4.67-7.34,4.67-3.46,0-6.56-2.87-6.56-8.8,0-7.03,4-10.91,5.1-12.01-.2-.71-1.57-5.65-1.57-7.42,0-2.32,2.32-2.32,2.67-2.32,1.49,0,1.85.86,2.04,1.61.12.35.83,4.36.98,5.18,2.59-1.33,5.03-2.08,8.64-2.47.2-1.02.9-4.67,1.18-5.26.43-.9,1.26-1.14,2.12-1.14m-4.32,11.03c-2.44.39-4.2.83-6.48,2.24.86,2.63,2,4.99,3.22,6.91.78-1.57,2.28-5.22,3.26-9.15m-9.94,16.85c1.22,0,2.35-.94,4-3.26-.9-1.3-2.71-4.08-4.2-7.93-.16.27-.55.78-.83,1.41-1.06,2.2-1.29,4.55-1.29,5.65,0,1.69.51,4.12,2.32,4.12m14.25-29.88c-2.47,0-3.52,1.42-3.92,2.27-.12.26-.35.74-1.06,4.33-2.02.3-3.75.74-5.44,1.4-.36-1.95-.48-2.56-.56-2.85-.68-2.54-2.53-3.07-3.97-3.07-2.79,0-4.67,1.74-4.67,4.32,0,1.45.68,4.35,1.34,6.86-3.24,3.57-4.88,7.8-4.88,12.58,0,7.46,4.3,10.8,8.56,10.8,3.31,0,5.89-2.05,7.75-4.07.07.03.13.05.2.08-.13.43-.21.93-.21,1.52,0,.65.14,1.92,1.05,3.07,1.19,1.56,2.96,1.56,3.62,1.56s6.68-.1,11.71-3.44c5.89-3.93,6.35-11.17,6.35-13.29,0-6.18-2.7-10.95-7.61-13.44-1.45-.75-2.82-1.2-3.93-1.49.26-1.08.51-2.28.51-2.89,0-2.49-1.99-4.24-4.83-4.24h0Zm-1.98,25.36c1.72-3.49,3.2-7.7,3.97-10.01,2.71.71,4.89,2.25,4.89,6.52,0,1.91-.49,4.55-2.82,6.23-1.3.93-2.72,1.33-5.12,1.67.2-.51.32-1.04.32-1.58,0-1.22-.48-2.03-1.23-2.83h0Zm-6.36-9.16c.39-.18.77-.34,1.16-.47-.2.62-.41,1.22-.62,1.78-.19-.43-.37-.87-.55-1.31h0Zm-5.81,11.66c-.17-.27-.42-1.02-.42-2.11,0-.15.01-.96.22-2.05.57,1.08,1.14,2.03,1.65,2.84-.82,1-1.25,1.25-1.45,1.32h0Z"/></g></g><g><g><path d="m172.03,118.46c0-1.02,0-3.4,3.64-3.4s3.71,2.07,3.71,3.4v3.43c0,1.09.28,4.97,1.37,8.27,1.82,5.5,5.12,8.27,7.74,9.95,2.73,1.72,3.08,1.93,3.43,2.38.25.32.53.84.53,1.72,0,1.72-1.37,4.1-3.89,4.1-2.84,0-7.36-5.01-7.95-5.68-3.01-3.33-4.17-6.1-4.91-8.06-1.72,4.62-4.55,8.02-7.36,10.51-3.47,3.12-4.66,3.22-5.5,3.22-2.31,0-3.89-2.17-3.89-4.1,0-1.61,1.02-2.28,2.1-2.91,2.63-1.51,8.13-4.66,10.2-13.17.25-.98.77-5.01.77-6.24v-3.43Z"/><path d="m227.95,116.85c.7,0,3.12.04,3.12,2.66,0,1.96-1.05,2.8-3.12,2.8h-20.39c-.46.7-.49.77-.56.91.32-.07.42-.07.81-.07h18.36c1.72,0,2.42.91,2.42,2.21,0,1.54-.91,2.28-2.42,2.28h-18.36c-1.54,0-2.28-.7-2.42-1.93-1.26,1.89-1.79,2.42-2.14,2.77h19.3c.91,0,3.68,0,3.68,3.15,0,.67-.17,2.1-.21,2.59-.14,1.3-.21,2.28-.21,4.31,0,.77,0,1.75.49,1.75.35,0,.49-.35.63-.59.21-.42.63-1.12,1.65-1.12,1.09,0,2.8.84,2.8,2.87,0,2.7-2.56,7.36-6.76,7.36-4.94,0-5.36-5.36-5.36-9.04,0-.77.14-4.31.14-5.01,0-.95-.32-1.02-.67-1.02h-16.96c-1.3,0-3.08-.32-3.08-2.59,0-.56.1-1.23.42-1.65-1.19-.63-2.07-1.89-2.07-3.19,0-1.02.38-1.54,1.3-2.56,2.1-2.28,3.29-4.45,4.41-6.48,1.02-1.82,1.72-2.66,3.5-2.66,1.58,0,3.57.74,3.75,2.24h17.94Zm-26.8,22.46c-.39-.25-1.54-1.12-1.54-2.24,0-1.51,1.26-3.26,3.05-3.26,1.47,0,3.01.95,7.36,3.54.28-.21,1.72-1.23,2.98-2.49.7-.67,1.16-1.09,2.21-1.09,1.68,0,3.47,1.37,3.47,3.01,0,1.09-.74,2.17-3.08,4.03,2.24,1.54,3.36,2.31,3.36,3.78,0,1.65-1.61,3.57-3.64,3.57-1.05,0-1.09-.04-4.66-2.98-.35-.28-.49-.39-.67-.53-5.11,2.98-8.27,3.78-9.21,3.78-2.28,0-3.08-2.42-3.08-3.64,0-1.51.88-1.96,1.4-2.21.42-.17,4.1-1.54,4.83-1.82-.42-.25-2.38-1.23-2.77-1.47Z"/><path d="m260.95,121.93c5.12,0,5.15,3.29,5.15,5.96,0,3.12-.31,10.47-.98,13.63-1.12,5.25-4.03,5.85-8.2,5.85-3.5,0-6.62,0-6.62-3.75,0-2,.98-3.22,3.05-3.22.49,0,2.63.21,3.05.21,1.93,0,2.14-.53,2.42-2.84.39-2.98.53-7.64.53-8.02,0-1.02,0-1.4-.7-1.4h-5.15c-.95,6.76-4.06,13.07-9.39,17.27-1.33,1.05-2.59,1.75-3.75,1.75-1.61,0-3.4-1.68-3.4-3.57,0-1.47,1.02-2.24,2.1-3.01,2.84-2.03,6.38-4.8,7.64-12.44h-6.06c-.88,0-3.5,0-3.5-3.19s2.42-3.22,3.5-3.22h6.52c.07-3.36.07-3.54.32-4.24.42-1.09,1.4-1.72,3.05-1.72,3.57,0,3.57,2.21,3.57,3.5,0,.21,0,1.16-.07,2.45h6.94Z"/><path d="m278.61,135.38c-.98,0-3.71,0-3.71-3.47,0-3.08,2-3.54,3.68-3.54h24.03c.91,0,3.68,0,3.68,3.47,0,3.26-2.24,3.54-3.71,3.54h-23.96Z"/><path d="m323.66,144.21c0,1.12-.07,3.5-3.57,3.5s-3.61-2.21-3.61-3.5v-24.73c0-1.09.04-3.54,3.57-3.54s3.61,2.17,3.61,3.54v4.94c5.78,1.79,11,4.27,12.68,5.15,2.14,1.09,3.01,1.96,3.01,3.64s-1.23,4.13-3.57,4.13c-1.05,0-1.19-.11-4.73-2.17-1.02-.6-4.24-2.38-7.39-3.57v12.61Zm7.01-25.12c-.07-.25-.1-.46-.1-.6,0-1.09,1.23-1.23,1.54-1.23.67,0,1.05.32,1.51,1.61.11.25.77,2.14.77,3.12,0,1.33-1.37,1.33-1.51,1.33-.81,0-1.02-.49-1.19-1.02-.07-.25-.39-1.4-.46-1.65-.1-.25-.49-1.33-.56-1.58Zm3.92-.6c-.1-.25-.07-.46-.07-.63,0-1.05,1.23-1.23,1.51-1.23.67,0,1.05.35,1.54,1.65.07.25.74,2.1.74,3.08,0,1.33-1.37,1.33-1.51,1.33-.81,0-1.05-.49-1.19-.98-.07-.28-.39-1.44-.46-1.68-.07-.25-.49-1.33-.56-1.54Z"/><path d="m370.92,118.08c4.06,0,5.15,2.1,5.15,5.15v17.31c0,4.66-2.84,5.11-5.15,5.11h-18.25c-3.92,0-5.12-1.93-5.12-5.11v-17.31c0-4.48,2.63-5.15,5.12-5.15h18.25Zm-1.79,7.15c0-.49-.28-.81-.81-.81h-13.03c-.49,0-.81.28-.81.81v13.31c0,.49.28.81.81.81h13.03c.49,0,.81-.28.81-.81v-13.31Z"/><path d="m388.37,135.38c-.98,0-3.71,0-3.71-3.47,0-3.08,2-3.54,3.68-3.54h24.03c.91,0,3.68,0,3.68,3.47,0,3.26-2.24,3.54-3.71,3.54h-23.96Z"/><path d="m434.54,120.95c2.31,1.4,3.36,2.21,3.36,3.85s-1.51,4.03-3.64,4.03c-.53,0-1.02-.1-2.1-.81-3.15-2.03-3.78-2.49-6.45-3.89-1.3-.7-2.49-1.37-2.49-3.01,0-2.07,1.72-3.68,3.71-3.68,1.44,0,6.2,2.66,7.6,3.5Zm7.53,20.74c-5.85,3.96-13.42,4.97-14.43,4.97-2.63,0-3.36-2.42-3.36-3.96,0-2.7,1.86-3.08,3.68-3.33,9.14-1.26,14.61-4.76,18.32-14.01.18-.42.77-2.21.91-2.56.35-.84.81-1.93,2.63-1.93,2.03,0,3.96.98,3.96,3.22,0,1.19-2.8,11.6-11.7,17.59Z"/></g><path d="m537.01,143.14c1.93,0,2.07,1.47,2.07,2,0,.25,0,2.14-2.1,2.14h-15.94c-3.12,0-6.52-.88-8.51-3.43-.95,1.23-1.61,2.03-2.77,3.15-.49.49-.84.74-1.51.74-1.23,0-2.42-1.26-2.42-2.59,0-.95.56-1.37,1.37-2.03,1.37-1.09,2.35-1.86,2.94-2.42v-7.71c0-.46-.11-.81-.7-.81h-1.4c-.63,0-2.07-.04-2.07-2.07,0-1.86,1.05-2.14,2.07-2.14h2.17c3.22,0,3.92.74,3.92,3.92v6.83c0,3.57,3.29,4.41,7.25,4.41h15.62Zm-24.73-25.05c2.56,2.59,2.56,2.98,2.56,3.54,0,1.16-1.05,2.24-2.28,2.24-.81,0-1.19-.35-2.21-1.54-.53-.6-2.14-2.14-3.12-3.08-.46-.46-.67-.84-.67-1.44,0-.95.91-2.24,2.24-2.24.46,0,.95,0,3.47,2.52Zm12.19,11h4.7v-.77c0-.53.1-.67.25-.84-2.14-.07-2.42-.98-2.42-2.98v-1.61c0-2.45.53-2.98,3.01-2.98h3.05c.7,0,.7-.39.7-.63,0-.49-.42-.56-.7-.56h-5.08c-.39,0-1.54,0-1.54-1.4,0-1.16.53-1.51,1.54-1.51h6.41c2.17,0,3.01.31,3.01,2.77v1.33c0,2.45-.84,2.8-3.01,2.8h-3.08c-.53,0-.7.32-.7.7v.6c0,.81.25.81,2.49.81q1.93,0,2.17-.7c.28-.77.49-1.16,1.37-1.16.28,0,2.07.04,2.07,1.58,0,.11,0,2.28-1.86,2.8-.63.18-2.1.18-3.92.18.07.07.25.28.25.77v.81h3.26c.46,0,1.72,0,1.72,1.54s-1.19,1.58-1.72,1.58h-3.26v1.86h3.99c.63,0,1.79.07,1.79,1.58,0,1.26-.74,1.61-1.79,1.61h-20.35c-.63,0-1.75-.07-1.75-1.58,0-1.23.67-1.61,1.75-1.61h3.64v-1.86h-3.01c-.46,0-1.72,0-1.72-1.54s1.09-1.58,1.72-1.58h3.01v-.77c0-.49.07-.6.17-.81-4.66,0-5.25,0-5.25-3.01v-1.61c0-2.45.53-2.98,2.98-2.98h3.05c.7,0,.7-.42.7-.67,0-.07-.04-.53-.7-.53h-5.01c-.56,0-1.54-.07-1.54-1.44,0-1.3.74-1.47,1.54-1.47h6.34c2.17,0,2.98.31,2.98,2.77v1.33c0,2.45-.81,2.8-2.98,2.8h-3.01c-.6,0-.7.39-.7.7v.6c0,.81.35.81,1.19.81,2.52,0,2.56,0,2.91-.67.28-.56.56-1.09,1.51-1.09.42,0,1.72.1,1.72,1.47,0,.98-.42,1.96-.81,2.38-.46.46-.88.49-1.33.53.1.14.28.28.28.88v.77Zm-1.54,11.81c-1.16.56-3.64,1.51-4.62,1.51-2,0-2-1.72-2-1.89,0-1.02.38-1.12,2.49-1.65,1.19-.32,1.96-.67,3.15-1.19.21-.11.56-.28.98-.28,1.05,0,1.82.95,1.82,1.72s-.18.98-1.82,1.79Zm6.24-8.69h-4.7v1.86h4.7v-1.86Zm1.65,5.25c.46,0,.6.04,1.89.63,1.23.56,3.08,1.02,4.17,1.26.42.07,1.16.35,1.16,1.44,0,.98-.7,1.86-1.75,1.86-.91,0-2.84-.6-4.48-1.3-2.59-1.05-2.7-1.3-2.8-1.79-.21-.98.6-2.1,1.82-2.1Z"/><path class="cls-4" d="m493.02,154.65c-4.06,2.85-8.95,4.32-14.58,4.32-4.98,0-9.41-1.3-13.1-3.83-4.43-3.02-6.74-7.34-6.74-12.96,0-4.24,1.94-6.36,5.81-6.36,2.21,0,3.88,1.79,4.8,5.38,1.01,4.89,4.15,7.26,9.23,7.26,2.68,0,5.08-.73,7.11-2.04,2.31-1.63,3.41-3.67,3.41-6.2,0-3.18-1.11-5.63-3.23-7.34-1.85-1.63-5.44-2.45-10.61-2.45-4.34,0-6.46-1.71-6.46-5.3,0-3.34,2.12-5.22,6.37-5.54,4.25-.08,7.29-.65,9.13-1.63,2.68-1.06,4.06-3.02,4.06-5.95,0-2.04-1.02-3.51-2.86-4.73-1.85-.98-4.06-1.39-6.74-1.39-2.03,0-3.78.49-5.07,1.71-1.29,1.06-2.12,2.45-2.58,4.32-.92,3.26-2.49,4.89-4.89,4.89-3.78,0-5.72-1.96-5.72-5.95,0-4.97,2.12-8.97,6.37-11.9,3.41-2.77,7.38-4.08,11.9-4.08,5.44,0,10.06,1.22,13.75,3.91,4.71,3.18,7.11,7.66,7.11,13.53,0,7.01-1.85,11.17-5.54,12.64,4.06,1.39,6.18,6.52,6.18,15.25,0,6.11-2.4,10.84-7.1,14.43Z"/></g><g><rect class="cls-3" x="69.62" y="17" width="2" height="144" transform="translate(-42.25 76) rotate(-45)"/><rect class="cls-3" x="37.62" y="83" width="2" height="82" transform="translate(-90.97 115.5) rotate(-68.95)"/></g><g><rect class="cls-3" x="575.62" y="88" width="144" height="2" transform="translate(126.75 484.01) rotate(-45)"/><rect class="cls-3" x="638.62" y="123" width="82" height="2" transform="translate(.82 252.43) rotate(-21.05)"/></g><path class="cls-3" d="m155.7,112.8c-6.84,3.08-9.34,5.58-12.42,12.42-3.08-6.84-5.58-9.34-12.42-12.42,6.84-3.08,9.34-5.58,12.42-12.42,3.08,6.84,5.58,9.34,12.42,12.42Z"/><path class="cls-3" d="m186.56,75.8c-4.56,2.05-6.23,3.72-8.28,8.28-2.05-4.56-3.72-6.23-8.28-8.28,4.56-2.05,6.23-3.72,8.28-8.28,2.05,4.56,3.72,6.23,8.28,8.28Z"/></g></g></svg>