<?xml version="1.0" encoding="UTF-8"?><svg id="Layer_2" xmlns="http://www.w3.org/2000/svg" viewBox="0 0 1197.35 1264.08"><defs><style>.cls-1{fill:#ebd875;}.cls-2{fill:#fff;}.cls-3{fill:#ffea6e;}.cls-4{fill:#373737;}.cls-5{fill:#06ad85;}</style></defs><g id="_レイヤー_1"><g><g><path class="cls-5" d="m319.75,615.73c10.94,0,19.77-8.83,19.77-19.77,0-1.4-.1-2.71-.4-4.01l5.72-1.4c10.94,42.64,40.94,129.53,111.97,175.98l-.7,1.1c0,27.99-3.61,96.32-3.61,96.32l-26.89,1.71c-5.32-.2-9.23,0-11.64,1-11.44,4.82-7.32,48.46-20.67,53.18-47.56,16.76-111.67,33.01-170.76,55.28,64.81-39.43,29.7-273.9,25.99-483.8l7.73-.2c0,33.71,19.66,75.75,46.65,91.4l1.61.9c-2.81,3.41-4.51,7.83-4.51,12.54,0,10.94,8.83,19.77,19.77,19.77Z"/><polygon class="cls-3" points="827.33 1163.54 869.27 1251.53 633.29 1251.53 639.21 1177.39 663.19 1175.58 800.84 1165.45 827.33 1163.54"/><path class="cls-3" d="m222.23,975.22c.1,0,.2-.1.3-.1,59.09-22.27,123.21-38.53,170.76-55.28,13.34-4.72,9.23-48.36,20.67-53.18,2.41-1,6.32-1.2,11.64-1,42.74,2.61,168.26,43.34,168.26,43.34v.1s42.74-14.95,87.79-29.7c1.3,5.22,2.51,10.33,4.01,14.85l-10.74,5.72c-7.12,0-15.05,4.82-20.97,7.73-24.18,12.04-43.04,30.5-35.42,61,6.32,24.98,37.72-18.86,41.54-20.77,11.94-5.92,19.26,12.04,17.06,20.77-4.01,16.05-26.09,24.18-35.32,36.62-24.48,32.61-23.98,84.68,6.02,114.68l9.53,2.81c0,34.11,5.32,45.55,5.32,45.55l.5,7.22-23.98,1.81-5.92,74.14H12.54c19.16-72.24,46.15-149.89,69.73-185.11,27.29-40.63,81.07-68.93,139.96-91.2Z"/><path class="cls-2" d="m652.05,807.67c-18.36,5.82-34.61,16.25-31,30.5,5.02,20.07,33.81,2.51,45.15,10.94,9.03,6.72,12.54,18.76,15.45,30.3-45.05,14.75-87.79,29.7-87.79,29.7v-.1s-125.51-40.73-168.26-43.34l26.89-1.71s3.61-68.33,3.61-96.32l.7-1.1c30.4,19.87,68.23,32.31,115.18,30.7,37.62-1.3,69.03-9.43,95.21-22.17-8.13,8.73-10.43,17.16-15.65,27.69l.5,4.92Z"/><polygon class="cls-1" points="1168.66 428.21 1136.55 444.67 1120.1 476.77 1103.64 444.67 1071.54 428.21 1103.64 411.86 1120.1 379.65 1136.55 411.86 1168.66 428.21"/><path class="cls-2" d="m302.9,582.52c-26.99-15.65-46.65-57.69-46.65-91.4,0-26.09,11.74-47.16,40.83-47.16l28.69-5.82c28.29-56.59,22.17-128.42,59.09-183.91,4.82-7.22,34.92-41.34,45.55-47.66l5.72.4c0,64.01,68.02,103.04,123.41,116.89,7.52,1.81,58.89,9.53,61.7,3.91l5.72-14.35c2.61,1.71,5.12,3.41,7.42,5.22,32.21,24.08,99.53,49.76,139.26,56.39,6.42,1.1,12.14,3.41,17.96,5.42l-2.41,13.54c4.51,22.27,17.66,42.64,27.09,40.43l.6,1.61c28.59-8.93,57.29,20.17,61.1,49.26,5.62,43.24-14.25,71.84-45.45,93.21l-7.22-.8c-2.41-1-5.02-1.5-7.73-1.5-9.53,0-17.56,6.72-19.36,15.75l-4.11-.8c-4.62,23.08-13.54,55.78-30.8,88.29l-18.46.5c-1.5,0-2.91.4-4.11,1.4-14.45,11.64-9.83,22.37-1.2,36.72l-2.61,1.4c-14.45,17.76-32.31,34.21-54.18,47.36-5.62,1.5-11.04,3.51-14.15,6.62-.5.5-1,1.1-1.4,1.61-26.19,12.74-57.59,20.87-95.21,22.17-46.95,1.61-84.78-10.84-115.18-30.7-71.03-46.45-101.03-133.34-111.97-175.98l-5.72,1.4c-1.81-9.03-9.83-15.75-19.36-15.75-6.12,0-11.64,2.81-15.25,7.22l-1.61-.9Zm333.7,49.66l-1.61-1.71s-35.12-2.81-67.92-2.91c-32.81-.1-65.62,4.62-65.62,4.62v1.61c2.41,32.41,31.5,49.16,70.13,48.36,34.31-.8,60-20.17,65.01-49.96Z"/><path class="cls-3" d="m800.04,1154.91s-10.53-29.4-17.56-46.25l2.11-.8c-6.32-12.64,36.02-126.42,54.18-183.41h5.42c29,9.73,59.6,18.96,89.6,28.8,77.96,25.48,151.5,54.88,181.6,106.05,21.67,36.72,50.37,119.19,69.43,192.23h-315.54l-41.94-87.99-26.49,1.91-.8-10.53Z"/><polygon class="cls-1" points="119.59 712.85 87.39 729.21 71.03 761.31 54.58 729.21 22.47 712.85 54.58 696.4 71.03 664.29 87.39 696.4 119.59 712.85"/><path class="cls-5" d="m297.08,443.97c-29.1,0-40.83,21.07-40.83,47.16l-7.73.2c-.9-52.47.1-103.34,5.12-149.29C275.41,142.37,406.44,25.69,528.74,34.72v-.8c205.18-98.53,369.72,164.34,382.16,331.29,13.04,174.58-51.07,511.79,24.08,584.33l-1.2,3.71c-30-9.83-60.6-19.06-89.6-28.8h-5.42c4.72-14.85,7.83-25.79,8.03-30.2,1.5-39.83-48.86-144.98-48.86-144.98,0,0-34.81-69.33-53.08-69.33l18.46-.5c17.26-32.51,26.19-65.22,30.8-88.29l4.11.8c-.3,1.3-.4,2.61-.4,4.01,0,10.94,8.83,19.77,19.77,19.77s19.77-8.83,19.77-19.77c0-8.23-5.02-15.25-12.04-18.26l7.22.8c31.2-21.37,51.07-49.96,45.45-93.21-3.81-29.1-32.51-58.19-61.1-49.26l-.6-1.61c-9.43,2.21-22.57-18.16-27.09-40.43l2.41-13.54c-5.82-2.01-11.54-4.31-17.96-5.42-39.73-6.62-107.05-32.31-139.26-56.39-2.31-1.81-4.82-3.51-7.42-5.22l-5.72,14.35c-2.81,5.62-54.18-2.11-61.7-3.91-55.38-13.85-123.41-52.87-123.41-116.89l-5.72-.4c-10.64,6.32-40.73,40.43-45.55,47.66-36.92,55.48-30.8,127.32-59.09,183.91l-28.69,5.82Z"/><path class="cls-2" d="m660.08,947.93c-3.81,1.91-35.22,45.75-41.54,20.77-7.63-30.5,11.24-48.96,35.42-61,5.92-2.91,13.85-7.73,20.97-7.73l10.74-5.72c-1.5-4.51-2.71-9.63-4.01-14.85-2.91-11.54-6.42-23.58-15.45-30.3-11.34-8.43-40.13,9.13-45.15-10.94-3.61-14.25,12.64-24.68,31-30.5l-.5-4.92c5.22-10.53,7.52-18.96,15.65-27.69,5.32-2.51,10.53-5.32,15.55-8.23,4.62-1.3,9.33-2.21,12.74-3.11,12.24-3.11,24.88-5.72,37.82-2.51,13.75,3.51,28.69,24.58,40.03,47.86-1-4.31-5.52-22.88-15.45-54.78-4.62-14.75-12.44-26.29-18.36-36.22-8.63-14.35-13.24-25.08,1.2-36.72,1.2-1,2.61-1.4,4.11-1.4,18.26,0,53.08,69.33,53.08,69.33,0,0,50.37,105.15,48.86,144.98-.2,4.41-3.31,15.35-8.03,30.2-18.16,56.99-60.5,170.76-54.18,183.41l-2.11.8c7.02,16.86,17.56,46.25,17.56,46.25l.8,10.53-137.65,10.13-.5-7.22s-5.32-11.44-5.32-45.55l-9.53-2.81c-30-30-30.5-82.07-6.02-114.68,9.23-12.44,31.3-20.57,35.32-36.62,2.21-8.73-5.12-26.69-17.06-20.77Z"/><path class="cls-2" d="m634.99,630.48l1.61,1.71c-5.02,29.8-30.7,49.16-65.01,49.96-38.63.8-67.72-15.95-70.13-48.36v-1.61s32.81-4.72,65.62-4.62c32.81.1,67.92,2.91,67.92,2.91Z"/></g><g><path class="cls-4" d="m564.01,809.91c-42.32,0-80.65-11.04-114.06-32.89-73.41-48-104.98-135.49-117.26-183.36-4.03-15.71-5.51-25.65-5.58-26.06-1.01-6.85,3.72-13.22,10.57-14.24,6.81-.97,13.22,3.71,14.24,10.56.01.09,1.39,9.2,5.06,23.51,11.38,44.36,40.37,125.24,106.69,168.6,31.2,20.4,67.59,29.88,107.89,28.67,33.7-1.18,64.04-8.22,90.16-20.92,4.72-2.23,9.5-4.76,14.74-7.8,18.91-11.37,36.04-26.35,50.74-44.42,4.37-5.37,12.27-6.17,17.65-1.81,5.37,4.37,6.18,12.28,1.81,17.65-16.55,20.33-35.88,37.22-57.45,50.19-6.03,3.5-11.42,6.35-16.66,8.83-29.16,14.18-62.9,22.06-100.14,23.36-2.82.1-5.63.15-8.42.15Z"/><path class="cls-4" d="m763.31,691.99c-1.98,0-4-.47-5.87-1.46-6.12-3.25-8.45-10.85-5.2-16.96,16.72-31.5,25.32-63.54,29.58-84.87,3.56-18.28,4.28-30.43,4.29-30.55.39-6.91,6.27-12.4,13.22-11.82,6.91.38,12.2,6.29,11.82,13.2-.03.56-.79,13.84-4.72,34.03-4.61,23.03-13.89,57.59-32.04,91.77-2.25,4.24-6.59,6.66-11.09,6.66Z"/><path class="cls-4" d="m302.89,595.06c-2.14,0-4.3-.54-6.28-1.7-33.12-19.19-52.91-67.07-52.91-102.25s20.45-59.69,53.38-59.69c9.38,0,19.81,1.82,31.02,5.41,6.6,2.12,10.23,9.17,8.12,15.77-2.11,6.59-9.16,10.25-15.77,8.11-8.73-2.79-16.59-4.21-23.36-4.21-18.78,0-28.3,11.64-28.3,34.61,0,30.97,18.5,67.86,40.41,80.56,5.99,3.47,8.03,11.14,4.56,17.14-2.33,4.01-6.54,6.25-10.86,6.25Z"/><path class="cls-4" d="m832.56,591.05c-4,0-7.93-1.91-10.36-5.46-3.91-5.71-2.45-13.52,3.26-17.43,31.74-21.73,44.48-47.55,40.1-81.24-1.77-13.52-10.69-27.56-22.19-34.91-5.31-3.39-13.58-6.84-22.73-3.99-4.32,1.31-8.49,3.92-12.5,7.78-4.99,4.81-12.92,4.67-17.73-.32-4.81-4.98-4.66-12.92.32-17.72,6.88-6.64,14.46-11.25,22.52-13.71,14.24-4.44,29.77-2.03,43.64,6.83,17.66,11.29,30.82,32.01,33.55,52.8,5.65,43.5-10.96,77.9-50.79,105.18-2.17,1.48-4.63,2.19-7.08,2.19Z"/><path class="cls-4" d="m562.01,581.33c-6.81,0-13.37-1.32-18.95-4.01-5-2.4-7.1-8.4-4.7-13.39,2.41-4.99,8.41-7.08,13.39-4.69,6.55,3.15,16.85,2.62,25.03-1.3,4.99-2.41,10.99-.28,13.38,4.7,2.4,5,.28,10.99-4.71,13.38-7.36,3.53-15.56,5.31-23.44,5.31Z"/><path class="cls-4" d="m566.81,739.52c-6.79,0-13.34-1.31-18.91-3.96-5-2.38-7.13-8.37-4.75-13.37,2.38-5.01,8.36-7.11,13.37-4.75,6.56,3.13,16.89,2.6,25.1-1.3,5-2.36,10.98-.24,13.37,4.75,2.38,5.01.25,10.99-4.76,13.37-7.35,3.5-15.55,5.26-23.43,5.26Z"/><path class="cls-4" d="m814.84,447.14c-3.35,0-7.47-.88-11.94-3.75-13.09-8.4-22.48-29.6-25.99-46.9-1.38-6.78,3.01-13.4,9.8-14.78,6.77-1.42,13.41,3.01,14.79,9.8,3.17,15.65,10.68,27.52,14.37,30.39,5.82-.53,11.25,3.74,12.64,9.68,1.58,6.74-2.62,13.48-9.36,15.06-1.22.29-2.68.5-4.31.5Zm-1.39-24.93s0,0-.01,0c0,0,0,0,.01,0Z"/><path class="cls-4" d="m452.5,876.49c-.22,0-.45,0-.67-.02-6.92-.36-12.23-6.27-11.86-13.19.03-.68,3.6-68.31,3.6-95.65,0-6.93,5.61-12.54,12.54-12.54s12.54,5.61,12.54,12.54c0,28-3.48,94.18-3.64,96.98-.35,6.69-5.89,11.88-12.51,11.88Z"/><path class="cls-4" d="m817.6,625.76c-16.43,0-29.8-13.36-29.8-29.8,0-2.31.21-4.3.66-6.25,2.7-13.53,14.99-23.54,29.14-23.54,4.05,0,7.95.76,11.57,2.26.04.02.08.03.12.05,11.01,4.73,18.12,15.52,18.12,27.48,0,16.43-13.37,29.8-29.8,29.8Zm0-39.52c-4.63,0-8.64,3.23-9.53,7.69-.16.72-.21,1.27-.21,2.04,0,5.37,4.36,9.73,9.73,9.73s9.73-4.36,9.73-9.73c0-3.92-2.32-7.45-5.91-9.01-1.16-.48-2.44-.72-3.83-.72Z"/><path class="cls-4" d="m319.75,625.76c-16.43,0-29.8-13.36-29.8-29.8,0-6.88,2.42-13.59,6.8-18.92,5.66-6.91,14.05-10.88,23-10.88,14.11,0,26.36,9.95,29.18,23.68.42,1.91.62,3.85.62,6.11,0,16.43-13.37,29.8-29.8,29.8Zm0-39.52c-2.91,0-5.64,1.29-7.49,3.55-1.45,1.76-2.24,3.95-2.24,6.18,0,5.37,4.36,9.73,9.73,9.73s9.73-4.36,9.73-9.73c0-.76-.05-1.32-.15-1.76-.02-.09-.04-.19-.06-.27-.89-4.46-4.9-7.69-9.53-7.69Z"/><path class="cls-4" d="m688.86,401.22c-1.91,0-3.84-.54-5.55-1.68h0c-.17-.12-16.91-10.74-28.86-4.41-4.89,2.62-10.97.75-13.57-4.15-2.6-4.89-.74-10.96,4.15-13.56,22.8-12.15,48.36,4.7,49.43,5.44,4.61,3.09,5.83,9.32,2.74,13.92-1.94,2.88-5.1,4.44-8.34,4.44Z"/><path class="cls-4" d="m685.25,489.81c-1.91,0-3.84-.54-5.55-1.69-.24-.16-16.95-10.71-28.86-4.41-4.9,2.61-10.96.74-13.57-4.15-2.6-4.89-.73-10.96,4.16-13.56,22.81-12.1,48.35,4.71,49.42,5.45,4.61,3.09,5.83,9.32,2.74,13.92-1.94,2.88-5.1,4.44-8.34,4.44Z"/><path class="cls-4" d="m449.81,401.2c-3.26,0-6.45-1.58-8.38-4.49-3.05-4.61-1.82-10.8,2.77-13.86,1.08-.73,26.73-17.55,49.44-5.42,4.89,2.61,6.73,8.69,4.12,13.58-2.61,4.88-8.69,6.72-13.58,4.12-11.87-6.34-28.7,4.32-28.86,4.43-1.7,1.12-3.62,1.65-5.51,1.65Z"/><path class="cls-4" d="m452.12,489.79c-3.25,0-6.44-1.57-8.37-4.47-3.06-4.61-1.84-10.8,2.75-13.87,1.08-.73,26.62-17.54,49.43-5.45,4.89,2.6,6.76,8.67,4.16,13.56-2.6,4.9-8.66,6.77-13.57,4.15-11.95-6.32-28.71,4.3-28.87,4.42-1.7,1.12-3.63,1.66-5.53,1.66Z"/><path class="cls-4" d="m1184.8,1264.07c-5.57,0-10.66-3.73-12.12-9.38-20.29-77.73-48.29-155.46-68.1-189.03-29.16-49.57-105.46-77.85-174.69-100.49-13.23-4.34-26.56-8.55-39.81-12.75-16.87-5.33-33.63-10.63-49.88-16.08-6.57-2.2-10.11-9.32-7.9-15.88,2.2-6.56,9.33-10.08,15.88-7.91,16.12,5.41,32.73,10.66,49.46,15.95,13.34,4.22,26.75,8.47,40.05,12.83,73.58,24.05,154.91,54.5,188.5,111.6,24.32,41.23,53.73,130.21,70.75,195.43,1.75,6.7-2.26,13.55-8.97,15.3-1.06.27-2.13.4-3.17.4Z"/><path class="cls-4" d="m593.86,921.64c-5.18,0-10.03-3.23-11.84-8.4-2.29-6.55,1.16-13.7,7.7-15.98.43-.16,43.37-15.17,88.03-29.78.73-.27,1.44-.5,2.13-.68,6.74-1.57,13.52,2.49,15.16,9.22,1.64,6.72-2.48,13.51-9.21,15.16.2,0-.51.23-1.2.4-43.48,14.27-86.2,29.2-86.62,29.34-1.37.48-2.77.71-4.14.71Z"/><path class="cls-4" d="m12.55,1264.07c-1.07,0-2.15-.14-3.22-.42-6.7-1.77-10.68-8.64-8.91-15.33,17.45-65.8,45.38-149.97,71.43-188.87,25.03-37.27,71.4-67.76,145.95-95.96,6.48-2.47,13.72.81,16.17,7.29,2.45,6.48-.81,13.72-7.29,16.17-69.44,26.27-112.02,53.75-133.99,86.48-20.34,30.37-46.41,99.86-68.02,181.32-1.49,5.62-6.56,9.33-12.11,9.33Z"/><path class="cls-4" d="m222.53,987.66c-5.07,0-9.84-3.1-11.74-8.12-2.44-6.48.83-13.71,7.31-16.16,34.5-13,69.82-23.71,103.98-34.07,23.71-7.19,46.13-13.99,65.65-20.82,1.86-3.32,3.49-12.91,4.5-18.81,2.59-15.23,5.04-29.6,16.87-34.58,4.07-1.7,8.99-2.26,16.96-1.98,44.13,2.69,166.48,42.27,171.67,43.94,6.59,2.15,10.19,9.22,8.06,15.8-2.14,6.59-9.23,10.17-15.8,8.06-1.24-.41-124.49-40.27-165.15-42.76-2.06-.08-3.5-.07-4.49,0-1.32,3.6-2.58,10.99-3.39,15.72-2.75,16.16-5.59,32.87-19.5,37.78-20.37,7.18-43.56,14.21-68.1,21.65-33.77,10.24-68.69,20.83-102.41,33.54-1.45.55-2.95.8-4.42.8Z"/><path class="cls-4" d="m605.06,342.53c-21.2,0-46.75-6.06-48.45-6.48-61.41-15.35-133.01-58.35-133.01-129.07,0-6.93,5.61-12.54,12.54-12.54s12.54,5.61,12.54,12.54c0,56.27,61.36,91.57,113.91,104.71,8.11,1.95,42.58,6.48,51.99,5.47,3.59-2.25,8.23-2.64,12.29-.59,6.2,3.1,8.7,10.63,5.6,16.82-3.47,6.94-14.66,9.13-27.41,9.13Zm4.99-20.38v.02s0-.02,0-.02Z"/><path class="cls-4" d="m810.37,396.81c-9,0-16.5-2.32-22.83-4.49l-3.41-1.21c-4.34-1.55-8.44-3.01-12.58-3.71-40.23-6.71-109.56-32.47-144.66-58.71-2.27-1.77-4.48-3.26-6.78-4.76-3.3-2.21-6.57-4.29-9.89-6.4-15.9-10.09-33.93-21.53-43.52-40.6-3.11-6.19-.62-13.73,5.57-16.84,6.19-3.09,13.73-.61,16.84,5.58,6.48,12.88,20.12,21.54,34.55,30.7,3.5,2.21,6.96,4.42,10.3,6.66,2.79,1.81,5.59,3.73,8.18,5.76,31.05,23.21,96.22,47.66,133.58,53.88,6.33,1.09,11.9,3.07,16.82,4.82l3.16,1.12c4.79,1.65,9.53,3.13,14.67,3.13,6.93,0,12.54,5.61,12.54,12.54s-5.61,12.54-12.54,12.54Z"/><path class="cls-4" d="m325.76,450.69c-1.89,0-3.8-.42-5.6-1.32-6.19-3.1-8.71-10.63-5.61-16.82,11.91-23.83,17.38-50.69,23.17-79.14,7.34-36.09,14.94-73.41,36.71-106.11,4.61-6.93,35.95-43.4,49.58-51.49,6.74-4.36,12.41-2.72,15.16-1.32,6.19,3.12,8.67,10.66,5.56,16.84-1.82,3.61-5.14,5.96-8.82,6.67-9.7,7.03-35.9,36.14-40.6,43.2-19.05,28.62-25.83,61.93-33.01,97.21-5.86,28.8-11.91,58.56-25.31,85.35-2.2,4.4-6.63,6.94-11.23,6.94Zm111.44-233.56s-.09.06-.14.09c.05-.03.09-.06.14-.09Z"/><path class="cls-4" d="m216.62,990.57c-4.89,0-9.54-2.88-11.56-7.67-2.69-6.38.3-13.74,6.68-16.42,1.34-.57,2.68-1.18,3.94-1.96.35-.22.72-.41,1.09-.59,41.24-26.9,33.45-171.96,25.9-312.29-2.83-52.62-5.76-107.04-6.7-160.09-1.03-60.08.67-109.42,5.19-150.88,10.43-95.64,47.1-180.6,103.27-239.23,52.82-55.15,120.34-84.04,185.24-79.24,6.91.52,12.09,6.53,11.58,13.43s-6.52,11.97-13.43,11.59c-142.5-10.86-244.94,142.32-261.71,296.16-4.41,40.4-6.06,88.71-5.05,147.71.93,52.6,3.84,106.78,6.66,159.19,9.08,168.8,16.25,302.13-38.67,335.54-.42.24-.84.48-1.28.68-2.04,1.18-4.15,2.18-6.28,3.07-1.59.68-3.24.99-4.86.99Z"/><path class="cls-4" d="m934.99,962.08c-3.14,0-6.28-1.17-8.71-3.52-52.77-50.94-43.37-204.5-33.41-367.09,5.18-84.61,10.08-164.52,5.53-225.33-7.94-106.55-79.03-253.14-184.26-314-58.51-33.84-119.05-36.16-179.97-6.91-6.24,3.02-13.74.37-16.73-5.88-3-6.24-.37-13.74,5.88-16.73,67.87-32.6,138.2-29.9,203.38,7.81,112.41,65.01,188.29,220.8,196.71,333.86,4.67,62.51-.27,143.25-5.51,228.72-8.74,142.78-18.65,304.61,25.79,347.51,4.98,4.81,5.12,12.75.31,17.73-2.46,2.55-5.74,3.83-9.02,3.83Z"/><path class="cls-4" d="m554.73,983.25c-1.2,0-2.42-.17-3.63-.53l-109.16-32.91c-6.63-2.01-10.39-9-8.39-15.63,2-6.63,9.03-10.39,15.63-8.4l109.16,32.91c6.63,2.01,10.39,9,8.39,15.63-1.64,5.43-6.61,8.93-12,8.93Z"/><path class="cls-4" d="m569,694.72c-46.04,0-77.33-23.34-80.05-59.99-.51-6.91,4.67-12.92,11.58-13.43,6.97-.66,12.92,4.66,13.44,11.57,2.61,35.16,44.55,37.11,57.36,36.74,28.63-.67,48.92-15.8,52.91-39.51,1.15-6.83,7.64-11.4,14.45-10.28,6.83,1.15,11.43,7.61,10.28,14.45-6.02,35.74-36.28,59.45-77.09,60.41-.97.02-1.93.03-2.88.03Z"/><path class="cls-4" d="m501.44,644.73c-6.14,0-11.5-4.51-12.4-10.76-.98-6.86,3.78-13.21,10.63-14.2,1.36-.2,33.41-4.74,66.37-4.74h1.06c32.91.1,67.43,2.83,68.88,2.95,6.91.56,12.06,6.59,11.5,13.5-.55,6.91-6.71,12.14-13.5,11.5-.35-.03-35.04-2.77-66.96-2.87-31.59-.03-63.47,4.43-63.79,4.49-.6.09-1.21.13-1.8.13Z"/><path class="cls-4" d="m1120.09,489.31h0c-4.71,0-9.01-2.64-11.16-6.82l-14.61-28.51-28.51-14.61c-4.19-2.15-6.83-6.47-6.82-11.18,0-4.7,2.65-9.01,6.85-11.16l28.48-14.5,14.6-28.58c2.15-4.19,6.46-6.84,11.17-6.84s9.02,2.64,11.17,6.84l14.6,28.58,28.48,14.5c4.2,2.15,6.84,6.46,6.85,11.16,0,4.71-2.63,9.03-6.82,11.18l-28.51,14.61-14.61,28.51c-2.15,4.18-6.46,6.82-11.16,6.82Zm-20.99-61.07l10.26,5.26c2.34,1.2,4.25,3.11,5.44,5.44l5.29,10.33,5.3-10.33c1.2-2.34,3.1-4.24,5.44-5.44l10.26-5.26-10.23-5.2c-2.36-1.21-4.27-3.12-5.48-5.48l-5.29-10.34-5.28,10.34c-1.21,2.36-3.12,4.27-5.48,5.48l-10.23,5.2Z"/><path class="cls-4" d="m71.03,773.86c-4.71,0-9.01-2.64-11.16-6.82l-14.6-28.49-28.49-14.51c-4.2-2.15-6.84-6.46-6.85-11.16,0-4.71,2.63-9.03,6.82-11.18l28.51-14.62,14.61-28.5c2.15-4.18,6.46-6.82,11.16-6.82h.01c4.71,0,9.02,2.65,11.16,6.85l14.51,28.47,28.59,14.61c4.2,2.15,6.84,6.47,6.83,11.19,0,4.71-2.66,9.02-6.86,11.16l-28.56,14.51-14.51,28.46c-2.14,4.2-6.49,6.94-11.17,6.85Zm-21-61.04l10.24,5.21c2.35,1.21,4.27,3.12,5.47,5.46l5.26,10.27,5.21-10.24c1.21-2.36,3.13-4.29,5.5-5.49l10.25-5.21-10.28-5.25c-2.35-1.21-4.27-3.12-5.47-5.48l-5.21-10.23-5.26,10.26c-1.2,2.33-3.1,4.24-5.44,5.44l-10.27,5.26Z"/><path class="cls-4" d="m647.84,1132.54c-3.21,0-6.42-1.22-8.87-3.67-33.26-33.25-36.48-92.06-7.18-131.08,4.67-6.3,11.18-11.2,17.48-15.93,7.05-5.3,14.34-10.78,15.7-16.2.16-.95-.17-2.62-.7-4.11-.17.2-.35.39-.53.6-14.15,15.83-28.04,29.72-42.46,26.22-4.26-1.05-11.85-4.6-14.89-16.6-5.52-22.08-2.71-53.05,41.98-75.31l2.93-1.49c6.52-3.36,14.64-7.55,23.63-7.55,2.39,0,4.57.27,6.65.82,15.13,3.75,26.5,15.31,35.64,24.59l3.01,3.05c4.89,4.9,4.89,12.85,0,17.73-4.9,4.9-12.84,4.9-17.74,0l-3.15-3.18c-7.64-7.77-15.54-15.79-24.01-17.9h-.05c-3.3,0-8.81,2.85-12.46,4.73l-3.31,1.69c-28.26,14.07-31.67,29.34-29.75,41.97,5.4-4.42,12.47-12.35,15.28-15.49,4.58-5.12,6.47-7.24,9.43-8.72,8.14-4.02,17.09-3.1,24,2.48,8.74,7.06,13.6,21.67,10.84,32.58-3.5,14.01-14.9,22.57-24.95,30.13-5.09,3.83-9.91,7.45-12.45,10.89-21.76,28.98-19.53,73.99,4.82,98.34,4.9,4.9,4.9,12.84,0,17.73-2.45,2.45-5.66,3.67-8.87,3.67Z"/><path class="cls-4" d="m749.17,911.7c-6.93,0-12.54-5.61-12.54-12.54,0-23.17-30.16-80.73-47.28-84.11-4.8-.94-18.79-.15-33.47,4.56-15.43,4.88-23.63,11.7-22.67,15.47,1.47,1.09,7.92.34,11.78-.1,9.42-1.09,20.08-2.36,28.69,4.06,12.18,9.06,16.62,23.39,20.13,37.29l.55,2.2c1.02,4.13,2,8.15,3.2,11.76,2.19,6.56-1.37,13.67-7.94,15.85-6.59,2.2-13.68-1.36-15.86-7.94-1.39-4.18-2.56-8.85-3.75-13.65l-.53-2.13c-2.4-9.48-5.2-19.13-10.77-23.27-1.29-.39-7.25.31-10.81.73-10.83,1.25-33.37,3.89-39.02-18.69-4.85-19.13,9.87-36.15,39.39-45.49,16.49-5.29,34.96-7.44,45.92-5.27,35.43,7,67.53,82,67.53,108.72,0,6.93-5.61,12.54-12.54,12.54Z"/><path class="cls-4" d="m773.36,821.61c-4.65,0-9.11-2.59-11.29-7.05-12.63-25.94-25.37-39.53-31.86-41.2-10.16-2.51-20.76-.24-31.63,2.52-1.41.37-3.23.79-5.18,1.24-2.28.52-4.77,1.09-7.24,1.78-6.9,1.84-8.52,3.26-8.69,3.42-.23.29-.85,1.02-1.1,1.29-4.61,4.95-6.78,9.8-9.78,16.5-1.17,2.62-2.39,5.34-3.81,8.2-3.08,6.2-10.62,8.71-16.8,5.67-6.21-3.08-8.75-10.6-5.67-16.8,1.26-2.56,2.35-4.98,3.39-7.31,3.33-7.44,6.76-15.12,13.98-22.99.62-.76,1.34-1.59,2.06-2.3,4.32-4.33,10.43-7.38,19.78-9.88,2.7-.76,5.62-1.43,8.28-2.05,1.63-.37,3.15-.72,4.46-1.07,13.09-3.32,28.21-6.51,44.08-2.56,20.53,5.25,37.58,32.56,48.29,54.55,3.03,6.22.44,13.73-5.79,16.76-1.77.86-3.64,1.26-5.48,1.26Z"/><path class="cls-4" d="m791.91,881.2c-6.93,0-12.54-5.61-12.54-12.54,0-9.02-6.06-31.01-17.29-53.99-3.04-6.22-.46-13.73,5.76-16.77s13.73-.46,16.77,5.76c9.87,20.19,19.84,48.13,19.84,65,0,6.93-5.61,12.54-12.54,12.54Z"/><path class="cls-4" d="m784.6,1120.4c-4.6,0-9.03-2.54-11.23-6.94-5.81-11.61.62-36.69,36.2-141.22,6.51-19.14,12.65-37.19,17.25-51.61,6.49-20.44,7.37-25.67,7.45-26.96,1.13-30.01-34.01-110.51-47.65-138.98-14.04-27.93-32.12-54.86-40.79-61.17-3.07,3.17-2.63,6.31,4.45,18.08l2.78,4.59c5.54,9.08,12.43,20.39,16.8,34.36,10.39,33.34,14.9,52.24,15.7,55.69.22.93.32,1.88.32,2.83l-9.57.08-14.67,4.89c-.2-.61-.55-2.1-.66-2.74-1.07-4.55-5.46-22.43-15.06-53.27-3.45-11.02-9.2-20.46-14.28-28.78l-2.88-4.76c-7.01-11.64-20.11-33.4,4.11-52.91,3.24-2.69,7.44-4.17,11.98-4.17,21.49,0,46.81,41.46,64.28,76.25,5.39,11.26,51.76,109.35,50.19,151.07-.21,4.54-1.74,11.91-8.61,33.52-4.64,14.56-10.84,32.78-17.41,52.09-14.05,41.28-37.45,110.03-36.84,123.51,1.98,5.85-.61,12.4-6.28,15.24-1.8.9-3.71,1.32-5.59,1.32Zm.85-314.3l-6.2,2.07,6.46-1.1c-.11-.66-.26-.97-.26-.97Zm-36.7-115.11s-.09.08-.14.12c.04-.04.09-.08.14-.12Z"/><path class="cls-4" d="m800.04,1167.45c-5.14,0-9.97-3.18-11.81-8.31-.1-.29-10.51-29.3-17.33-45.65-.81-2.25-1.44-3.65-1.98-4.81-2.95-6.27-.26-13.74,6.01-16.69,6.26-2.95,13.74-.26,16.69,6.01.87,1.84,1.85,4.07,2.7,6.53,6.8,16.26,17.09,44.93,17.52,46.15,2.34,6.53-1.05,13.7-7.57,16.04-1.4.5-2.83.73-4.23.73Z"/><path class="cls-4" d="m662.54,1180.79c-4.68,0-9.12-2.62-11.22-7.14-1.08-2.33-6.49-15.73-6.49-50.84,0-6.93,5.61-12.54,12.54-12.54s12.54,5.61,12.54,12.54c0,29.68,4.24,40.45,4.28,40.55,2.56,6.3-.31,13.64-6.55,16.35-1.67.73-3.39,1.08-5.09,1.08Z"/><path class="cls-4" d="m869.28,1264.07c-4.69,0-9.18-2.64-11.33-7.14l-38.25-80.26-168.84,12.42-5.07,63.44c-.55,6.91-6.58,12.15-13.5,11.5-6.9-.55-12.05-6.59-11.5-13.5l5.92-74.14c.49-6.16,5.4-11.04,11.56-11.5l188.16-13.85c5.03-.42,9.99,2.46,12.22,7.11l41.94,87.99c2.98,6.25.33,13.74-5.93,16.72-1.74.83-3.58,1.22-5.38,1.22Z"/></g></g></g></svg>