<?xml version="1.0" encoding="UTF-8"?><svg id="Layer_2" xmlns="http://www.w3.org/2000/svg" viewBox="0 0 1349.86 1535.78"><defs><style>.cls-1{fill:#e8e09d;}.cls-2{fill:#fff;}.cls-3{fill:#ffea6e;}.cls-4{fill:#373737;}.cls-5{fill:#06ad85;}.cls-6{fill:#898b8f;}</style></defs><g id="_レイヤー_1"><g><g><path class="cls-1" d="m539.36,1021.66l-1.35,106.38-.73,9.04c-21.19-1.87-11.32,22.13-.73,39.99l-4.78.52c-13.4,4.47-34.7,12.57-47.79,6.03l-12.67-3.32c7.79-29.92,5.51-61.91-19.95-77.19l7.58-1.14c20.36-40.51,39.06-68.46,77.39-80.3h3.01Z"/><path class="cls-2" d="m800.94,1206.26l12.36-1.14.31-77.08h2.91c35.11,35.11,103.78,94.12,116.14,143.88,8.41,33.35,16,106.06,6.86,165.49v1.14l37.81,83.52v3.74l-212.86-1.35v-5.92c-7.06-14.02-40.1-30.33-52.77-40.83-40.72-33.97-85.91-69.91-119.15-111.57-11.01-13.82-54.43-57.45-27.22-75.63l4.57-4.26c-8.1-8.73-16.21-17.45-24.2-26.39-2.91-3.22-6.54-9.97-9.25-17.66-5.4-15.69-6.54-35.11,11.84-35.11l6.34-5.61c-2.18-2.29-4.26-4.67-6.34-7.17-2.29-2.7-7.06-9.45-11.74-17.24-10.6-17.87-20.46-41.86.73-39.99,1.97,0,4.26.42,6.75,1.04,35.01,8.83,117.08,83.83,147.2,110.64,10.18,9.04,39.06,39.48,55.37,27.22,25.04-18.7-93.91-137.85-107.21-155.72-6.86-8.93-40.51-32.62-26.39-46.75,19.95-20.05,50.59,11.84,65.45,23.79,36.05,28.78,86.33,67.94,122.48,108.97Z"/><path class="cls-2" d="m483.99,1183.61c13.09,6.54,34.39-1.56,47.79-6.03l4.78-.52c4.67,7.79,9.45,14.54,11.74,17.24,2.08,2.49,4.16,4.88,6.34,7.17l-6.34,5.61c-18.39,0-17.24,19.43-11.84,35.11l-1.25.73c0,13.92-21.71,39.79-29.4,51.42-38.64,58.07-58.49,95.99-122.89,102.64l.42,3.22-22.96,121.65-214.93-1.35c29.19-75.63,69.08-184.08,69.08-184.08,0-24.31,9.87-135.05,22.23-171.93,22.02-66.28,50.38-57.45,50.38-57.45h1.04c18.6-26.28,46.85-14.96,55.47-23.58,23.79-23.69,25.24-28.26,60.98-28.26l3.32-1.97c45.19-22.65,77.91-83.63,126.63-81.65l5.4.1-.62,49.97h-3.01c-38.33,11.84-57.03,39.79-77.39,80.3l-7.58,1.14c25.45,15.27,27.74,47.27,19.95,77.19l12.67,3.32Z"/><path class="cls-2" d="m832.42,267.05c-6.03,19.43,21.61,206.83,87.88,299.6l-6.34,3.22s-6.75,120.71-89.86,193.33c-33.87,29.81-80.61,51.42-144.81,53.6-59.63,1.97-104.92-17.76-139.31-46.75-53.5-45.09-80.2-112.61-92.46-154.58l-1.66.52c-2.39-7.48-8.83-13.3-16.83-15.17h-.1c-1.77-.42-3.53-.62-5.4-.62h-.31c-51.84-7.69-82.07-71.58-73.34-113.23,5.71-27.01,27.74-44.57,70.95-31.48,21.61-.21,35.11-35.11,38.75-49.03,14.02-53.71,9.35-106.69,51.42-146.89,52.15-49.97,184.7-84.15,316.84,0l4.57,7.48Zm-32.31,239.14c1.04-11.12-8-21.09-20.15-22.13-12.15-1.14-22.75,6.96-23.79,18.08-1.04,11.12,8,20.98,20.15,22.13,12.05,1.04,22.75-7.06,23.79-18.08Zm-221.06,18.08c12.15-1.14,21.09-11.01,20.15-22.13-1.04-11.12-11.74-19.22-23.89-18.08-12.15,1.04-21.09,11.01-20.05,22.13.93,11.01,11.63,19.11,23.79,18.08Z"/><path class="cls-2" d="m445.87,616c.62,2.08,1.04,4.36,1.04,6.65,0,12.36-10.49,22.33-23.37,22.33s-23.48-9.97-23.48-22.33,10.28-22.23,23.17-22.44c1.87.31,3.74.52,5.71.62h.1c8,1.87,14.44,7.69,16.83,15.17Z"/><path class="cls-2" d="m811.43,903.54c-1.97-1.87-4.67-3.12-7.69-3.12h-252.33c-2.18,0-4.26.62-6.03,1.77l-.73-1.14c-7.38-8.73-10.7-14.86-15.79-26.18h-.1l.1-.93,10.91-103.68.21-.21c34.39,28.98,79.68,48.72,139.31,46.75,64.2-2.18,110.95-23.79,144.81-53.6l7.48,102.43-.21,6.44c-2.29,11.22-16.73,28.98-19.74,31.79,0-.1-.1-.21-.21-.31Z"/><path class="cls-5" d="m1062.83,684.87c0,123.52,104.61,223.76,98.07,289.31l-8.1,1.25c-96.82-54.43-245.99-76.67-320.06-109.8h-1.14l-7.48-102.43c83.11-72.61,89.86-193.33,89.86-193.33l6.34-3.22c-66.28-92.77-93.91-280.17-87.88-299.6l-4.57-7.48c-132.14-84.15-264.69-49.97-316.84,0-42.07,40.2-37.4,93.18-51.42,146.89-3.64,13.92-17.14,48.82-38.75,49.03-43.22-13.09-65.24,4.47-70.95,31.48l-9.14-2.29c11.12-45.09,19.63-84.46,16.1-114.69C324.64,92.43,782.76-107.44,859.53,97.1v9.66c54.43,0,147.31,108.45,147.31,264.59,0,226.46,55.99,190.11,55.99,313.52Z"/><path class="cls-3" d="m831.38,872.07l.21-6.44h1.14c74.07,33.14,223.24,55.37,320.06,109.8,32.2,18.18,58.59,39.89,74.48,66.8,20.67,34.9,80.51,318.09,109.6,474.64l-.1,11.22-359.44-2.29v-3.74l-37.81-83.52v-1.14c9.14-59.42,1.56-132.14-6.86-165.49-12.36-49.76-81.03-108.77-116.14-143.88h-2.91l.93-217.22c0-2.7-1.04-5.09-2.91-6.96,3.01-2.8,17.45-20.57,19.74-31.79Z"/><path class="cls-6" d="m570.11,959.54c0,8.31,6.75,15.17,15.06,15.17s15.17-6.86,15.17-15.17-6.75-15.17-15.17-15.17-15.06,6.86-15.06,15.17Zm-30.13,12.15l.73-60.88c0-3.53,1.87-6.75,4.67-8.62,1.77-1.14,3.84-1.77,6.03-1.77h252.33c3.01,0,5.71,1.25,7.69,3.12-.62.83-.42.93.21.31,1.87,1.87,2.91,4.26,2.91,6.96l-.93,217.22-.31,77.08-12.36,1.14c-36.15-41.03-86.43-80.2-122.48-108.97-14.86-11.95-45.5-43.84-65.45-23.79-14.13,14.13,19.53,37.81,26.39,46.75,13.3,17.87,132.24,137.02,107.21,155.72-16.31,12.26-45.19-18.18-55.37-27.22-30.13-26.8-112.19-101.81-147.2-110.64-2.49-.62-4.78-1.04-6.75-1.04l.73-9.04,1.35-106.38.62-49.97Z"/><path class="cls-4" d="m779.96,484.07c12.15,1.04,21.19,11.01,20.15,22.13-1.04,11.01-11.74,19.11-23.79,18.08-12.15-1.14-21.19-11.01-20.15-22.13,1.04-11.12,11.63-19.22,23.79-18.08Z"/><path class="cls-4" d="m599.2,502.14c.93,11.12-8,20.98-20.15,22.13-12.15,1.04-22.85-7.06-23.79-18.08-1.04-11.12,7.9-21.09,20.05-22.13,12.15-1.14,22.85,6.96,23.89,18.08Z"/><path class="cls-4" d="m585.18,944.37c8.41,0,15.17,6.86,15.17,15.17s-6.75,15.17-15.17,15.17-15.06-6.86-15.06-15.17,6.75-15.17,15.06-15.17Z"/><path class="cls-3" d="m711.71,1477.71c12.67,10.49,45.71,26.8,52.77,40.83v5.92l-404.1-2.6,22.96-121.65-.42-3.22c64.41-6.65,84.25-44.57,122.89-102.64,7.69-11.63,29.4-37.5,29.4-51.42l1.25-.73c2.7,7.69,6.34,14.44,9.25,17.66,8,8.93,16.1,17.66,24.2,26.39l-4.57,4.26c-27.22,18.18,16.21,61.81,27.22,75.63,33.24,41.66,78.43,77.6,119.15,111.57Z"/><path class="cls-3" d="m528.77,874.87h.1c5.09,11.32,8.41,17.45,15.79,26.18l.73,1.14c-2.8,1.87-4.67,5.09-4.67,8.62l-.73,60.88-5.4-.1c-48.72-1.97-81.44,59.01-126.63,81.65l-3.32,1.97c-35.74,0-37.19,4.57-60.98,28.26-8.62,8.62-36.88-2.7-55.47,23.58h-1.04s-28.36-8.83-50.38,57.45c-12.36,36.88-22.23,147.62-22.23,171.93,0,0-39.89,108.45-69.08,184.08l-132.45-.83v-1.35c34.28-158.53,121.75-434.85,143.98-468.2,14.23-21.3,32.31-39.16,53.08-54.43,94.33-69.71,242.57-85.6,318.82-121.75l-.1.93Z"/><path class="cls-5" d="m446.91,622.65c0-2.29-.42-4.57-1.04-6.65l1.66-.52c12.26,41.97,38.96,109.49,92.46,154.58l-.21.21-10.91,103.68c-76.25,36.15-224.49,52.05-318.82,121.75l-.52-.62s113.96-149.49,99.62-239.76c-15.27-95.57,12.05-191.87,31.58-270.62l9.14,2.29c-8.73,41.66,21.5,105.55,73.34,113.23-12.88.21-23.17,10.18-23.17,22.44s10.49,22.33,23.48,22.33,23.37-9.97,23.37-22.33Z"/></g><g><path class="cls-4" d="m671.17,829.93c-53.31,0-100.22-16.78-139.56-49.94-54.34-45.79-82.5-112.75-96.55-160.86-6.82-23.56-9.22-39.4-9.31-40.07-1.06-7.09,3.84-13.69,10.93-14.75,7.1-1.01,13.7,3.83,14.76,10.92.02.15,2.27,14.93,8.56,36.64,13.04,44.65,38.97,106.64,88.35,148.26,36.37,30.66,80.32,45.41,130.51,43.7,54.83-1.86,100.81-18.81,136.66-50.37,77.89-68.06,85.41-183.16,85.48-184.32.42-7.15,6.64-12.44,13.7-12.22,7.16.41,12.63,6.53,12.23,13.69-.29,5.15-8.05,127.04-94.28,202.38-40.44,35.61-91.9,54.73-152.91,56.81-2.87.09-5.73.14-8.56.14Z"/><path class="cls-4" d="m433.82,614.02c-1.89,0-3.66-.11-5.42-.22-7.16-.47-12.68-6.66-12.21-13.81.47-7.16,6.63-12.48,13.7-12.12,0,0,.2.02.2.02,1.22.08,2.43.17,3.73.17,7.17,0,12.99,5.81,12.99,12.99s-5.81,12.99-12.99,12.99Z"/><path class="cls-4" d="m428.95,613.82c-.23,0-.47,0-.71-.02-2.48-.13-4.82-.39-7.17-.79-24.35-3.61-46.86-18.47-63.12-41.81-18.2-26.12-26.36-60.23-20.78-86.89,3.65-17.26,12.59-30.52,25.86-38.37,15.85-9.37,36.38-10.4,61.01-3.04.62.14,1.26.31,1.94.51,6.85,2.03,11.04,9.29,9.04,16.15s-8.88,10.93-15.77,8.94c-.04-.01-.6-.17-.64-.19-.53-.09-1.02-.24-1.54-.4-17.39-5.27-31.5-5.15-40.82.38-6.94,4.1-11.54,11.29-13.67,21.36-4.12,19.66,2.58,46.47,16.67,66.69,12.13,17.41,28.42,28.42,45.87,31.01,1.64.27,3.04.42,4.51.5,7.16.39,12.65,6.5,12.27,13.67-.37,6.92-6.1,12.29-12.95,12.29Z"/><path class="cls-4" d="m673.94,623.45c-7.03,0-13.81-1.36-19.57-4.09-5.18-2.47-7.39-8.66-4.93-13.84,2.46-5.19,8.65-7.41,13.84-4.93,6.81,3.24,17.5,2.67,26-1.35,5.16-2.47,11.38-.26,13.84,4.93,2.46,5.18.25,11.38-4.93,13.84-7.61,3.62-16.1,5.44-24.25,5.44Z"/><path class="cls-4" d="m831.57,878.61c-6.74,0-12.44-5.21-12.93-12.04l-7.48-102.42c-.03-.32-.04-.74-.04-1.05,0-7.17,5.81-12.99,12.99-12.99s12.99,5.81,12.99,12.99v.1l7.45,101.48c.52,7.16-4.85,13.38-12,13.9-.32.03-.64.04-.96.04Z"/><path class="cls-4" d="m528.47,890.66c-.48,0-.95-.03-1.44-.08-7.13-.79-12.27-7.2-11.48-14.33l.31-2.81,11.01-104.54c.75-7.13,7.14-12.32,14.27-11.55,7.13.75,12.31,7.14,11.55,14.27l-10.91,103.68s-.12,1.01-.12,1.04l-.3,2.76c-.74,6.64-6.36,11.56-12.89,11.56Z"/><path class="cls-4" d="m800.31,406.77c-1.98,0-3.98-.56-5.75-1.74-.38-.25-17.6-11.09-29.88-4.56-5.09,2.67-11.36.76-14.05-4.3-2.69-5.07-.76-11.36,4.3-14.05,23.61-12.55,50.06,4.88,51.18,5.64,4.77,3.2,6.04,9.65,2.84,14.41-2,2.99-5.29,4.6-8.63,4.6Z"/><path class="cls-4" d="m547.81,406.75c-3.36,0-6.67-1.62-8.66-4.63-3.17-4.76-1.91-11.18,2.85-14.37,1.11-.75,27.56-18.18,51.18-5.64,5.06,2.69,6.99,8.98,4.3,14.05-2.69,5.06-8.96,6.98-14.05,4.3-12.36-6.56-29.71,4.45-29.88,4.56-1.77,1.16-3.76,1.72-5.73,1.72Z"/><path class="cls-4" d="m676.41,763.05c-6.83,0-13.88-1.28-20.5-4.45-6.47-3.1-9.19-10.86-6.09-17.33,3.1-6.46,10.85-9.19,17.33-6.09,6.09,2.92,15.84,2.36,23.71-1.37,6.49-3.07,14.22-.31,17.3,6.16,3.07,6.48.31,14.23-6.16,17.3-6.92,3.28-16.04,5.78-25.59,5.78Z"/><path class="cls-4" d="m813.3,1218.1h-.05c-7.17-.03-12.97-5.86-12.93-13.04l1.24-291.65h-247.88l-2.67,214.79c-.09,7.18-6.13,12.71-13.15,12.82-7.17-.09-12.91-5.98-12.82-13.15l2.7-217.22c0-7.64,3.91-14.9,10.45-19.27,4.05-2.62,8.57-3.95,13.23-3.95h252.33c6.17,0,12.08,2.37,16.62,6.69.48.45.92.94,1.33,1.47,3.77,4.21,5.84,9.56,5.84,15.22l-1.25,294.35c-.03,7.15-5.84,12.93-12.99,12.93Zm-259.6-307.29v.06-.06Z"/><path class="cls-4" d="m676.75,714.01h-.04c-12.43,0-54.15-1.71-69.03-23.61-4.03-5.93-2.5-14,3.44-18.04,5.92-4.03,14-2.49,18.04,3.44,3.45,5.07,20.49,12.23,47.56,12.23h.05c24.81,0,42.5-6.31,46.54-12.24,4.03-5.92,12.12-7.46,18.04-3.42,5.92,4.04,7.46,12.11,3.42,18.04-14.9,21.89-55.77,23.6-68.02,23.6Z"/><path class="cls-4" d="m939.53,1450.39c-.65,0-1.32-.05-1.99-.15-7.09-1.09-11.95-7.72-10.86-14.81,8.85-57.47,1.46-128.36-6.61-160.34-9.53-38.34-58.25-85.22-93.82-119.46-6.91-6.64-13.33-12.83-18.92-18.41-5.07-5.07-5.07-13.29,0-18.36,5.07-5.07,13.29-5.07,18.36,0,5.48,5.48,11.78,11.54,18.56,18.07,37.85,36.42,89.69,86.3,101,131.85,8,31.7,17.01,106.1,7.09,170.61-.99,6.41-6.52,11.01-12.82,11.01Z"/><path class="cls-4" d="m701.42,1356.16c-3.32,0-6.64-1.27-9.18-3.8-29.11-29.11-53.23-51.88-75.92-71.7-15.65-13.73-35.1-30.79-50.68-49.03-3.78-4.38-7.91-8.51-12.06-12.66-2.81-2.82-5.63-5.64-8.39-8.57-2.34-2.46-4.61-5.05-6.88-7.78-3.12-3.68-8.46-11.48-12.89-18.86-13.79-23.24-17.03-39.07-10.24-49.86,2.59-4.13,8.97-10.81,22.71-9.79,2.68.06,5.65.51,9.27,1.41,31.43,7.93,88.66,56.3,145.83,107.4l6.88,6.14c1.21,1.08,2.68,2.44,4.36,4.01,20.83,19.42,29.41,22.75,32.75,22.92-2.1-14.26-31.48-52.75-87.47-114.57-10.47-11.57-17.39-19.19-20.53-23.41-.83-1.09-3.88-3.97-6.57-6.51-11.41-10.8-25.6-24.25-25.81-39.71-.09-6.6,2.41-12.64,7.23-17.46,25.84-26,60.11,3.47,76.58,17.63,2.28,1.96,4.36,3.75,6.19,5.22l7.3,5.82c34.72,27.64,82.27,65.52,116.78,104.68,15.79,17.88,27.91,35.12,36.03,51.25,3.22,6.41.64,14.21-5.76,17.44-6.4,3.23-14.22.64-17.44-5.75-7.12-14.15-17.99-29.54-32.31-45.76-33.01-37.46-77.62-72.99-113.47-101.55l-7.37-5.87c-2.06-1.65-4.36-3.63-6.88-5.79-15.37-13.22-32.4-26.63-40.76-19.45,1.5,5.22,13.06,16.17,17.56,20.43,4.04,3.82,7.23,6.85,9.43,9.72,2.51,3.36,10.18,11.83,19.06,21.63,61.46,67.85,96.56,111.99,94.16,136.8-.63,6.5-3.59,11.9-8.54,15.6-23.11,17.33-52.22-9.74-67.85-24.32-1.5-1.4-2.82-2.63-3.91-3.6l-6.93-6.19c-28.8-25.74-105.31-94.12-134.82-101.57-1.15-.28-1.97-.45-2.53-.53,1.02,3.88,3.6,10.5,9.39,20.27,4.4,7.33,8.79,13.47,10.48,15.47,1.96,2.36,3.86,4.53,5.84,6.62,2.63,2.78,5.28,5.44,7.92,8.09,4.45,4.45,9.05,9.06,13.39,14.09,14.41,16.87,33.07,33.24,48.07,46.4,23.12,20.19,47.65,43.35,77.18,72.88,5.07,5.07,5.07,13.29,0,18.36-2.54,2.54-5.86,3.8-9.18,3.8Z"/><path class="cls-4" d="m668.28,1400.41c-3.32,0-6.63-1.26-9.17-3.78-40.38-40.24-70.82-71.56-98.72-101.54-8.16-8.8-16.31-17.57-24.37-26.56-4.18-4.63-8.61-12.87-11.82-22.02-3.47-10.08-7.89-28.77,1.24-41.56,3.53-4.94,10.35-10.83,22.86-10.83,7.17,0,12.99,5.81,12.99,12.99s-5.81,12.99-12.99,12.99c-1.52,0-2.07.25-2.07.26-.46.95-1.07,7.24,2.51,17.63,2.45,6.98,5.36,11.81,6.6,13.19,7.98,8.91,16.03,17.58,24.08,26.24,27.66,29.71,57.9,60.82,98.03,100.82,5.08,5.07,5.09,13.29.03,18.37-2.54,2.55-5.87,3.81-9.2,3.81Z"/><path class="cls-4" d="m764.49,1531.52c-4.75,0-9.32-2.61-11.61-7.14-3.1-6.15-20.16-17.04-30.35-23.55-7.33-4.68-14.25-9.1-19.11-13.12l-12.38-10.3c-38.3-31.78-77.9-64.66-108.65-103.18-1.28-1.6-3.02-3.62-5.04-5.98-13.74-16.03-36.75-42.85-33.52-66.38,1.25-9.1,6.19-16.76,14.28-22.17,5.96-3.98,14.03-2.38,18.01,3.58,3.98,5.97,2.38,14.03-3.59,18.01-2.45,1.64-2.82,2.98-2.98,4.11-1.64,11.95,19.53,36.64,27.51,45.94,2.26,2.64,4.2,4.9,5.63,6.7,29.08,36.43,67.64,68.44,104.93,99.4l12.39,10.3c3.58,2.96,9.85,6.97,16.48,11.2,16.35,10.44,33.26,21.23,39.57,33.75,3.23,6.4.65,14.21-5.75,17.44-1.87.94-3.87,1.39-5.83,1.39Z"/><path class="cls-4" d="m977.34,1535.05c-4.95,0-9.67-2.83-11.84-7.63l-37.81-83.52c-2.96-6.53-.06-14.22,6.47-17.19,6.53-2.99,14.23-.07,17.19,6.47l37.81,83.52c2.96,6.53.06,14.22-6.47,17.19-1.74.79-3.56,1.16-5.35,1.16Z"/><path class="cls-4" d="m458.95,1114.95c-1.96,0-3.95-.45-5.82-1.38-6.41-3.23-8.99-11.03-5.77-17.44,18.99-37.78,39.79-72.86,85.16-86.88,6.87-2.13,14.12,1.72,16.24,8.57,2.12,6.85-1.72,14.13-8.57,16.24-32.6,10.07-49.02,32.73-69.62,73.73-2.28,4.53-6.86,7.15-11.61,7.15Z"/><path class="cls-4" d="m424.96,1258.88c-9.34,0-17.32-5.36-22.17-15.01-3.22-6.4-.63-14.21,5.78-17.43,6.42-3.2,14.22-.63,17.43,5.78.05.1.1.19.15.28,7.15-3.28,24.47-24.62,32.62-55.52,3.67-14.09,9.66-48.5-14.08-62.76-3.6-2.15-6.78-4.85-9.85-7.47-3.47-2.94-8.22-6.98-10.68-6.98-7.17,0-12.99-5.81-12.99-12.99s5.81-12.99,12.99-12.99c12.01,0,20.96,7.61,27.5,13.16,2.38,2.02,4.62,3.93,6.4,4.99,27.31,16.39,36.72,49.78,25.83,91.61-9.24,35.05-32.82,72.74-56.31,75.18-.88.09-1.76.13-2.61.13Z"/><path class="cls-4" d="m380.4,1285.37c-7.04,0-13.16-3.2-17.67-7.71-5.07-5.07-5.07-13.29,0-18.36,4.99-5,13.04-5.07,18.14-.21,4.87-2.26,15.93-16.19,23.71-39.64,7.69-23.19,5.5-35.66,3.83-37.59-3.97-3.97-8.75-7.77-13.82-11.81-5.51-4.37-11.2-8.91-16.55-14.19-.9-.9-2-1.91-3.02-2.79-7.08-.11-12.78-5.88-12.78-12.99,0-6.01,3.31-11.1,8.64-13.3,7.46-3.09,14.84,0,25.49,10.67,4.28,4.24,9.19,8.14,14.39,12.28,5.41,4.3,11.01,8.75,16.04,13.79,22.95,22.95-2.09,89.19-23.65,110.74-8.01,8.01-15.82,11.11-22.74,11.11Z"/><path class="cls-4" d="m333.42,1298.06c-7.45,0-14.16-2.54-19.15-7.54-8.43-8.43-14.63-26.14,3.65-62.65,3.21-6.41,10.99-9.02,17.42-5.8,6.41,3.22,9.01,11.02,5.8,17.43-10.92,21.82-9.44,31.37-8.45,32.73.78.28,5.85-.17,12.39-5.22,9.74-7.5,19.1-22.85,16.16-43.43-1.32-9.38-7.57-14.77-17.65-22.76-7.96-6.31-16.98-13.47-22.47-24.5-3.2-6.42-.58-14.21,5.84-17.41,6.41-3.2,14.22-.58,17.41,5.84,2.91,5.84,8.68,10.42,15.35,15.71,10.87,8.62,24.39,19.36,27.22,39.47,5.12,35.8-14.7,63.2-35.29,73.5-6.21,3.09-12.44,4.64-18.24,4.64Z"/><path class="cls-4" d="m318.61,1256.44c-17.21,0-33.11-14.06-39.91-27.95-3.16-6.44-.49-14.21,5.95-17.37,6.43-3.17,14.21-.5,17.37,5.94,3.44,7.01,11.35,13.4,16.59,13.4,7.17,0,12.99,5.81,12.99,12.99s-5.81,12.99-12.99,12.99Z"/><path class="cls-4" d="m407.96,1066.23c-4.76,0-9.34-2.63-11.62-7.17-3.21-6.41-.62-14.21,5.79-17.43,15.99-8.01,31.21-22.22,45.93-35.95,25.53-23.84,51.87-48.59,87.05-47.06,7.16.29,12.74,6.34,12.45,13.5-.29,7.16-6.27,12.65-13.5,12.45-24.1-1.07-45.64,18.97-68.27,40.1-16.07,14.99-32.68,30.5-52.02,40.19-1.87.93-3.86,1.38-5.81,1.38Z"/><path class="cls-4" d="m145.23,1533.91c-3.23,0-6.45-1.19-8.97-3.59-4.19-4.01-5.12-10.14-2.7-15.1,26.57-68.85,62.31-165.74,68-181.19.54-29.2,10.11-135.59,22.88-173.67,25.3-76.14,62.42-67,66.56-65.72l-7.72,24.79s.29.14.84.22c-4.97-.67-21,6.68-35.05,48.93-11.63,34.67-21.57,143.22-21.57,167.83,0,1.53-.27,3.04-.8,4.48-.4,1.09-40.26,109.42-69.16,184.28-.17.44-.36.87-.58,1.29-.61,1.25-1.43,2.46-2.35,3.42-2.55,2.67-5.97,4.02-9.39,4.02Z"/><path class="cls-4" d="m288.17,1120.03c-2.6,0-5.21-.77-7.49-2.38-5.85-4.15-7.24-12.24-3.1-18.1,15.35-21.68,36.58-23.61,49.27-24.76,2.84-.26,6.63-.6,8.21-1.09l4.67-4.68c21.1-21.24,28.13-26.8,64.91-26.8,7.17,0,12.99,5.81,12.99,12.99s-5.81,12.99-12.99,12.99c-27.49,0-28.56,1.08-46.48,19.13l-5.34,5.35c-6.42,6.42-15.16,7.21-23.62,7.97-11.31,1.03-21.99,2-30.41,13.9-2.53,3.58-6.54,5.49-10.61,5.49Z"/><path class="cls-4" d="m496.04,1199.08c-6.22,0-12.3-1.08-17.85-3.86-6.41-3.21-9.01-11.01-5.81-17.42,3.21-6.42,11-9.04,17.42-5.81,7.28,3.62,25.13-2.41,34.71-5.66l3.15-1.07c6.81-2.29,14.16,1.41,16.43,8.21,2.27,6.8-1.4,14.15-8.2,16.42l-3.04,1.02c-10.69,3.63-24.05,8.16-36.81,8.16Z"/><path class="cls-4" d="m360.89,1411.12c-7.17,0-12.99-5.81-12.99-12.99s5.81-12.99,12.99-12.99c7.93,0,14.62-.34,20.46-1.06,53.46-5.52,71.71-33.24,104.84-83.59l8.81-13.34c1.74-2.65,4.22-6.05,7.01-9.87,5.53-7.58,20.21-27.72,20.21-34.36,0-7.17,5.81-12.99,12.99-12.99s12.99,5.81,12.99,12.99c0,13.98-11.41,30.76-25.2,49.67-2.51,3.44-4.75,6.5-6.35,8.92l-8.76,13.26c-33.76,51.3-58.15,88.37-123.63,95.13-6.65.81-14.37,1.22-23.35,1.22Z"/><path class="cls-4" d="m360.17,1535.78c-.93,0-1.88-.1-2.84-.31-7-1.55-11.41-8.49-9.85-15.49l23.08-122.16c1.33-7.06,8.13-11.65,15.17-10.36,7.05,1.33,11.68,8.13,10.35,15.17l-22.96,121.65c-.03.14-.26,1.22-.29,1.35-1.35,6.06-6.72,10.17-12.67,10.17Z"/><path class="cls-4" d="m972.76,625.66c-1.63,0-3.29-.31-4.89-.96-20.74-8.45-40.3-25.45-58.14-50.52-68.29-95.58-97.09-287.16-89.71-310.97,2.12-6.85,9.39-10.69,16.25-8.56,6.79,2.11,10.62,9.27,8.61,16.06-4.28,20.36,22.15,199.02,86,288.39,14.95,21.01,30.69,34.98,46.79,41.54,6.64,2.71,9.83,10.28,7.13,16.93-2.05,5.04-6.91,8.09-12.03,8.09Z"/><path class="cls-4" d="m420.96,468.48l-.33-25.97c9.56-.09,21.55-20.8,26.39-39.33,3.71-14.22,6.13-28.76,8.46-42.81,6.37-38.38,12.94-78.07,46.55-110.19,30.86-29.57,81.86-49.7,136.41-53.85,46.57-3.5,118.44,2.66,196.38,52.29,6.05,3.85,7.83,11.88,3.98,17.93-3.86,6.05-11.89,7.83-17.93,3.98-125.35-79.82-251.41-48.98-300.89-1.58-27.36,26.15-32.7,58.37-38.89,95.67-2.42,14.63-4.94,29.76-8.95,45.13-1.56,5.98-16.27,58.4-51.19,58.73Z"/><path class="cls-4" d="m1160.91,987.17c-.43,0-.87-.02-1.3-.07-7.14-.71-12.35-7.07-11.63-14.21,2.51-25.13-15.58-59.42-36.51-99.13-27.45-52.06-61.62-116.85-61.62-188.9,0-49.75-9.12-71.06-20.67-98.04-15.74-36.77-35.32-82.52-35.32-215.47,0-147.85-87.14-251.61-134.32-251.61-7.17,0-12.99-5.81-12.99-12.99s5.81-12.99,12.99-12.99c64.55,0,160.29,116.56,160.29,277.58,0,127.62,17.65,168.87,33.22,205.25,11.71,27.36,22.77,53.19,22.77,108.27,0,65.62,31.14,124.68,58.62,176.78,22.89,43.41,42.66,80.91,39.38,113.82-.66,6.7-6.32,11.7-12.9,11.7Z"/><path class="cls-4" d="m209.52,1008.05c-2.74,0-5.51-.87-7.86-2.66-5.7-4.35-6.8-12.49-2.46-18.2,1.11-1.45,110.43-146.13,97.13-229.86-14.57-91.14,8.69-183.73,27.38-258.12l4.42-17.66c10.25-41.56,19.17-81.27,15.81-110.06-9.45-81.45,21.63-164.89,87.52-234.97,56.96-60.58,137.94-108.11,216.64-127.15,110.43-26.71,194.01,4.38,223.59,83.15,2.52,6.72-.88,14.2-7.59,16.72-6.72,2.52-14.2-.88-16.72-7.59-24.5-65.3-96.72-90.33-193.16-67.04-194.19,46.97-298.86,209.87-284.47,333.88,3.87,33.09-5.55,75.31-16.39,119.29l-4.44,17.75c-19.06,75.85-40.65,161.81-26.92,247.71,15.03,94.69-97.33,243.4-102.12,249.68-2.56,3.35-6.42,5.11-10.34,5.11Z"/><path class="cls-4" d="m544.67,914.04c-3.69,0-7.35-1.56-9.92-4.6-8.37-9.9-12.23-17.02-17.72-29.24-2.94-6.54-.02-14.23,6.52-17.17,6.55-2.93,14.23-.02,17.17,6.52,4.83,10.76,7.51,15.6,13.86,23.11,4.63,5.48,3.94,13.67-1.53,18.3-2.44,2.06-5.42,3.07-8.38,3.07Z"/><path class="cls-4" d="m810.91,917.05c-3.01,0-5.98-.96-8.31-2.96-4.66-4.01-5.52-11.23-2.66-16.61.69-1.42,1.59-2.71,2.62-3.74.75-.75,1.57-1.39,2.43-1.92,4.74-5.73,12.52-16.76,13.67-22.35,1.43-7.04,8.33-11.6,15.31-10.13,7.03,1.43,11.57,8.29,10.13,15.31-3.32,16.27-21.31,36.56-23.62,38.7-2.59,2.41-6.1,3.69-9.57,3.69Z"/><path class="cls-4" d="m1336.86,1529.85c-6.13,0-11.59-4.36-12.75-10.61-31.79-171.12-89.67-439.44-108-470.4-13.58-22.98-36.37-43.29-69.69-62.1-56.31-31.66-132.13-52.52-199.02-70.94-45.84-12.62-89.15-24.53-119.97-38.32-6.54-2.93-9.48-10.61-6.55-17.16,2.94-6.55,10.62-9.48,17.16-6.55,29.01,12.99,71.38,24.65,116.24,36.99,68.33,18.8,145.78,40.12,204.88,73.35,37.41,21.12,63.34,44.51,79.3,71.51,24.69,41.7,90.14,365.6,111.18,478.87,1.31,7.05-3.34,13.83-10.39,15.14-.8.15-1.6.22-2.39.22Z"/><path class="cls-4" d="m13,1531.31c-.91,0-1.83-.09-2.75-.29-7.01-1.51-11.46-8.43-9.95-15.44,34.28-158.51,122.47-437.56,145.87-472.66,14.29-21.38,33.19-40.78,56.2-57.7,61.38-45.36,143.2-68.17,215.39-88.29,40.31-11.24,78.39-21.85,105.55-34.73,6.49-3.07,14.23-.3,17.3,6.17,3.07,6.48.31,14.22-6.17,17.3-29.17,13.83-68.29,24.73-109.7,36.28-70.03,19.52-149.4,41.65-206.96,84.18-20.88,15.35-37.23,32.1-50.01,51.21-19.92,29.89-106.81,300.62-142.08,463.74-1.31,6.08-6.7,10.24-12.68,10.24Z"/><path class="cls-4" d="m423.53,657.97c-20.1,0-36.46-15.85-36.46-35.32s16.13-35.11,35.94-35.43h.03c3.07,0,5.62.26,8.13.8.28.05.56.1.83.16,12.41,2.91,22.47,12.05,26.24,23.86.02.08.05.15.07.22,1.06,3.52,1.59,7,1.59,10.38,0,19.47-16.31,35.32-36.36,35.32Zm0-44.77c-5.83.09-10.49,4.33-10.49,9.45s4.71,9.35,10.49,9.35,10.39-4.19,10.39-9.35c0-.79-.16-1.79-.46-2.8-.98-2.93-3.66-5.34-6.93-6.26-.19-.04-.39-.08-.57-.12-.81-.19-1.58-.28-2.42-.28Z"/></g></g></g></svg>