<?xml version="1.0" encoding="UTF-8"?><svg id="Layer_2" xmlns="http://www.w3.org/2000/svg" viewBox="0 0 903 73"><defs><style>.cls-1,.cls-2{fill:none;}.cls-3{fill:#fff;}.cls-4{fill:#efc73c;}.cls-5{fill:#2f7c6a;}.cls-6{fill:#0ea17b;}.cls-7{fill:#057f3f;opacity:.2;}.cls-2{stroke:#06ce60;stroke-linecap:round;stroke-miterlimit:10;stroke-width:4px;}</style></defs><g id="PC"><g><rect class="cls-1" width="903" height="73"/><g><g><path class="cls-7" d="m161.67,71.16L.17,63.33,13.23.81l151.5,7.35c17.4.84,30.82,15.63,29.97,33.03h0c-.84,17.4-15.63,30.82-33.03,29.97Z"/><path class="cls-6" d="m161.5,63.5H0s0-62.5,0-62.5l161.5-.5c17.4,0,31.5,14.1,31.5,31.5h0c0,17.4-14.1,31.5-31.5,31.5Z"/><g><path class="cls-3" d="m44.48,34.23c0,1.5-1.44,1.91-2.47,1.91-1.33,0-2.18-.44-2.53-1.33-.62-1.56-1.03-2.62-4.15-2.62-.65,0-4.06.03-4.06,2.21,0,1.71,1.06,2.09,6.12,3.86,4.83,1.71,7.71,3.03,7.71,7,0,3.42-2.62,7.71-9.33,7.71-8.21,0-10.24-5.12-10.24-6.95,0-1.97,2.12-2.09,2.71-2.09,2,0,2.21.71,2.56,1.94.65,2.18,3.09,2.56,4.77,2.56.71,0,4.27,0,4.27-2.65,0-1.21-.68-1.83-5.15-3.33-5.27-1.8-8.68-2.91-8.68-7.54,0-3.65,2.71-7.24,9.15-7.24,7.06,0,9.33,4.39,9.33,6.54Z"/><path class="cls-3" d="m52.72,32.79c-1.38,0-2.3-.62-2.3-2.21s.82-2.24,2.3-2.24h14.72c1.21,0,2.27.44,2.27,2.21,0,1.12-.38,2.24-2.27,2.24h-4.8v17.78c0,.74-.09,2.41-2.5,2.41-1.59,0-2.62-.56-2.62-2.38v-17.81h-4.8Z"/><path class="cls-3" d="m90.14,37.94c2.03,0,2.24,1.33,2.24,2.12,0,.97-.29,2.12-2.24,2.12h-8.98v4.74c0,.62.35.97.97.97h9.62c1.38,0,2.27.65,2.27,2.21s-.79,2.24-2.27,2.24h-11.57c-2.85,0-4.18-1.06-4.18-4.18v-15.63c0-3.15,1.35-4.18,4.18-4.18h10.92c1.15,0,2.27.44,2.27,2.21,0,1.18-.44,2.24-2.27,2.24h-8.98c-.65,0-.97.35-.97.97v4.18h8.98Z"/><path class="cls-3" d="m105.92,50.57c0,.85-.15,2.41-2.53,2.41-1.83,0-2.62-.77-2.62-2.38v-18.07c0-3.12,1.35-4.18,4.18-4.18h5.62c3.56,0,4.68.68,5.21,1,1.77,1.06,3.59,3.18,3.59,6.68,0,3.24-1.59,5.62-3.41,6.8-1.41.88-3.65,1.15-5.39,1.15h-4.65v6.59Zm0-11.04h4.42c2.8,0,3.8-1.41,3.8-3.38,0-2.47-1.62-3.36-3.8-3.36h-3.44c-.62,0-.97.32-.97.97v5.77Z"/><path class="cls-3" d="m131.74,50.12c0,1.59-1.27,2.86-2.83,2.86s-2.85-1.27-2.85-2.86,1.29-2.83,2.85-2.83,2.83,1.24,2.83,2.83Z"/><path class="cls-3" d="m144.11,25.39c-1.38,0-2.87-.99-2.87-3.21,0-2.57,1.68-2.82,3.76-3.16.99-.15,4.45-.74,6.13-5.14.64-1.68,1.09-2.92,3.61-2.92,2.37,0,3.46,1.48,3.46,2.62v35.94c0,1.68-.44,3.91-4,3.91-2.42,0-4.35-.59-4.35-3.91v-24.13h-5.74Z"/></g></g><line class="cls-2" x1="8" y1="8" x2="34" y2="8"/><line class="cls-2" x1="46" y1="8" x2="59" y2="8"/><g><path class="cls-5" d="m230.28,25.37c-.92,0-3.3-.17-3.3-3.17,0-2.17,1.25-3.21,3.3-3.21h20.28c1.79,0,4.92.21,4.92,3.88,0,2.71-2.59,8.89-6.51,14.44,3.34,2.42,6.13,4.63,10.02,8.18,1.84,1.67,2.54,2.5,2.54,3.96,0,2.13-1.92,3.8-3.88,3.8-1.54,0-2.29-.92-3.42-2.17-2.88-3.34-7.43-7.47-9.18-8.97-7.09,7.55-13.98,11.48-16.19,11.48-1.71,0-3.21-1.79-3.21-3.67,0-1.54.63-1.88,3.38-3.38,13.35-7.26,18.36-19.57,18.36-20.62,0-.54-.63-.54-1-.54h-16.11Z"/><path class="cls-5" d="m302.56,20.32c2.09,0,4.21.71,4.21,3.38,0,4.21-4.84,12.23-14.73,18.95,2.88,2.88,3.55,3.55,4.3,4.42.75.92,1.34,1.67,1.34,2.75,0,2-2.04,3.84-4.05,3.84-1.42,0-2.04-.71-3.25-2.09-4.8-5.51-6.13-7.05-10.81-10.93-2.88-2.38-3.34-2.75-3.34-4.17,0-1.79,1.92-3.42,3.63-3.42,1,0,1.67.38,2.46.96.71.5,3.09,2.38,5.01,4.09,8.43-5.09,10.73-10.52,10.73-10.98,0-.42-.46-.42-1-.42h-23.54c-2.09,0-3.3-1.08-3.3-3.21,0-2.88,2.21-3.17,3.3-3.17h29.05Z"/><path class="cls-5" d="m328.27,35.72c0,.92-1.46,6.72-3.46,10.64-2.29,4.51-3.59,5.05-4.76,5.05-1.75,0-4.09-1.29-4.09-3.42,0-.88.17-1.08,1.5-3,2.04-2.84,3.26-6.18,4.17-9.6.29-1.13.75-2.8,3.5-2.42,1.08.12,3.13.63,3.13,2.75Zm2.55-15.27c0-1.33.29-3.13,3.38-3.13,2.29,0,3.46.88,3.46,3.13v3.26h11.02c.75,0,3.3,0,3.3,3.13s-2.5,3.17-3.3,3.17h-11.02v21.41c0,1.29-.29,3.13-3.38,3.13-2.46,0-3.46-1-3.46-3.13v-21.41h-10.98c-.79,0-3.34,0-3.34-3.13s2.5-3.17,3.34-3.17h10.98v-3.26Zm16.11,14.98c1.38,5.13,3,7.93,4.13,9.52,1.38,1.92,1.54,2.17,1.54,3,0,2.3-2.46,3.46-4.09,3.46-1.17,0-2.5-.54-4.8-5.05-2-3.96-3.42-9.72-3.42-10.68,0-2.3,2.55-2.63,3.13-2.71,2.75-.33,3.17,1.29,3.51,2.46Z"/><path class="cls-5" d="m368.4,26.97c.25-.89.86-1.55,2.16-1.55.19,0,1.08.03,1.87.41.83.41.95,1.14.95,1.65,0,.44-.03.92-.63,3.46,1.97-.06,3.49.03,4.63.54,3.24,1.43,3.78,5.9,3.78,9.14,0,9.08-1.78,13.14-7.14,13.14-1.68,0-3.33-.38-4.82-1.14-.51-.25-1.33-.73-1.33-2.03,0-.32.13-2.51,2.06-2.51.51,0,.63.03,1.68.41.32.13,1.17.41,1.97.41,1.33,0,1.75-.67,2.16-2.6.32-1.46.54-3.55.54-6.32,0-3.24-.48-4.51-3.49-4.51-.38,0-.76.03-1.21.06-1.43,5.11-3.02,10.22-5.21,15.04-1.14,2.51-2.03,2.76-2.86,2.76-1.43,0-2.95-1.14-2.95-2.41,0-.79.29-1.3,1.14-2.89.73-1.3,2.95-5.84,4.63-12.06-1.17.13-3.36.38-3.46.38-2.09,0-2.32-1.55-2.32-2.41,0-2.03,1.3-2.25,1.9-2.38.89-.16,1.78-.22,5.08-.41.13-.67.73-3.81.86-4.19Zm11.55,4.22c-.38-.38-.48-.95-.48-1.27,0-.92.67-1.49.89-1.65.25-.19.79-.48,1.52-.48.57,0,1.4.06,2.95,1.59,1.94,1.9,3.14,4.38,3.81,7.01.57,2.32.67,4.79.67,5.36,0,.67,0,2.67-2.83,2.67-1.97,0-2.25-1.27-2.32-2.22-.19-2.79-.48-7.21-2.82-9.58l-1.4-1.43Z"/><path class="cls-5" d="m411.37,35.51c5.93,0,10.06,2.76,10.06,8,0,4.29-1.84,6.57-4.16,7.87-2.41,1.37-5.46,2-9.81,2-2.41,0-6.51-.35-7.93-.95-1.17-.51-1.3-1.81-1.3-2.22,0-.63.35-2.29,2.16-2.29.38,0,1.11.16,1.4.22.86.16,3.08.6,5.55.6.92,0,4.22-.03,6.47-1.24,1.81-.95,2.32-2.35,2.32-3.78,0-3.65-4.28-3.78-5.36-3.78-2.06,0-5.33.35-8.44,2.67-.32.22-1.52,1.43-1.81,1.59-.54.29-1.14.35-1.55.35-2.57,0-2.57-1.97-2.57-3.17,0-.89.22-7.01.57-8.63.29-1.36,1.3-1.65,2.32-1.65,1.81,0,2.6.73,2.6,2.09,0,.38-.25,2.6-.29,3.08-.1.98-.1,1.46-.13,2,2.95-1.9,6.41-2.76,9.9-2.76Zm5.33-4.16c-.51.41-1.02.44-1.94.44-1.02,0-5.3-.22-11.11-1.08-3.46-.51-4.41-.89-4.41-2.6,0-.25.03-2.41,2.13-2.41.67,0,3.46.6,4.03.67,2.76.38,5.52.57,8.31.67,2.22.09,3.75.22,3.75,2.54,0,.41-.19,1.33-.76,1.78Z"/><path class="cls-5" d="m443.98,19.11c0-.79,0-3.09,3.05-3.09,2.67,0,3.42,1.13,3.42,3.09v2.5h8.97c3.5,0,5.55,1.21,5.55,5.59v13.86c0,4.47-2.13,5.55-5.55,5.55h-8.97v6.26c0,.79,0,3.09-3.05,3.09-2.63,0-3.42-1.04-3.42-3.09v-6.26h-8.89c-3.46,0-5.59-1.08-5.59-5.55v-13.86c0-4.38,2.04-5.59,5.59-5.59h8.89v-2.5Zm-8.18,12.27h8.18v-4.09h-7.01c-.92,0-1.17.58-1.17,1.17v2.92Zm8.18,9.51v-4.26h-8.18v3.09c0,.75.33,1.17,1.17,1.17h7.01Zm6.47-13.6v4.09h8.18v-2.92c0-.71-.38-1.17-1.17-1.17h-7.01Zm8.18,9.35h-8.18v4.26h7.01c.83,0,1.17-.46,1.17-1.17v-3.09Z"/><path class="cls-5" d="m484.17,20.74c0,.42-.25,5.93-.29,6.76-.29,5.72-.38,7.43-.38,12.23,0,4.17.29,8.14,7.34,8.14s10.81-3.13,11.98-9.56c.46-2.5.79-4.26,3.55-4.26.63,0,3.76.04,3.76,3.05,0,1.84-.75,6.55-3.92,10.81-3.34,4.46-8.56,6.34-15.15,6.34-6.22,0-9.97-1.54-12.31-4.72-1.13-1.5-2.04-3.46-2.04-11.23,0-2.88.29-17.65.33-17.99.17-1.75.75-3.13,3.71-3.13,3.42,0,3.42,2.59,3.42,3.55Z"/><path class="cls-5" d="m554.5,48.74c2.96,0,3,2.46,3,2.96,0,.38,0,3.09-3.05,3.09h-17.94c-6.72,0-8.97-2.84-9.97-4.21-.75,1.21-1.33,1.92-2.42,3.05-1.21,1.25-1.84,1.75-3,1.75-2,0-3.51-1.88-3.51-3.8,0-1.33.67-2,1.63-2.75,1.58-1.21,1.84-1.42,3.34-2.67v-7.72c0-.29,0-1.08-.75-1.08h-1.13c-2.09,0-2.88-1.25-2.88-2.88,0-2.25.88-3.21,3.09-3.21h2.59c4.34,0,5.17.79,5.17,5.13v7.6c.38,3.5,3.8,4.76,7.55,4.76h18.28Zm-32.8-32.26c.71,0,1.63.17,4.92,2.96,1.67,1.42,3.55,3.05,3.55,4.67,0,1.54-1.5,3.46-3.42,3.46-1.08,0-1.34-.25-3.63-2.42-.58-.58-3.3-2.88-3.84-3.42-.63-.58-.88-1.33-.88-1.75,0-2.17,1.75-3.5,3.3-3.5Zm13.52,6.93c-.71,0-3.13,0-3.13-3.05s2.17-3.13,3.13-3.13h7.47c4.67,0,4.84,2.13,5.17,5.88.25,3.21,1.04,6.34,2.3,9.31,1.29,3,2.8,5.17,4.84,7.39,1.88,2.09,2.29,2.67,2.29,3.8,0,1.67-1.59,3.59-3.55,3.59-1.25,0-2.71-.5-5.34-4.46-1.84-2.75-3.17-5.8-3.96-9.06-1.54,4.13-3.42,6.84-4.84,8.6-1.75,2.21-4.26,4.92-6.38,4.92s-3.42-2.09-3.42-3.5c0-1,.63-1.79.88-1.96,2.8-2.42,4.38-3.8,6.64-7.3,2.84-4.38,3.92-9.06,3.92-10.27,0-.58-.42-.75-.92-.75h-5.09Z"/><path class="cls-5" d="m590.85,26.21c.21-.92.75-2.25,3.3-2.25,3.21,0,3.63,1.96,3.63,4.3,0,2.21-.25,5.26-.42,7.39,3.09,1.42,5.13,2.38,5.13,4.55,0,1.42-1.21,3.71-3.17,3.71-1,0-1.54-.33-3.13-1.21-1.75,6.59-7.05,11.89-10.93,11.89-1.67,0-3.34-1.63-3.34-3.42,0-1.63.58-2,4.38-4.47.96-.63,3.13-2.5,3.84-6.93-2.96-1.29-4.72-1.84-7.39-2.3-.42,1.63-1.38,5.47-3.5,9.89-1.21,2.46-2.92,5.01-6.26,5.01-3.84,0-8.39-3.38-8.39-9.47,0-3.84,1.88-8.47,7.72-10.56,2.55-.92,4.72-1.04,5.68-1.08.12-.54.75-2.88.79-3.26.08-.58.42-2.29.42-2.63,0-.88-.54-1-1.21-1-1.17,0-6.22.38-7.26.38-.88,0-3.34,0-3.34-3.17s2.42-3.21,3.92-3.21h2.34c1.21,0,7.55-.21,7.72-.21,1.17,0,4.72,0,4.72,3.63,0,1.46-.58,4.26-.71,4.88-.12.79-1,4.17-1.17,4.88,3,.58,4.47,1,6.51,1.59.04-1.08-.08-5.97.12-6.93Zm-16.94,11.48c-2.09.88-3.71,2.59-3.71,5.34,0,2.42,1.54,3,2.04,3,.88,0,1.54-1.04,2.3-2.88,1.38-3.42,1.79-5.13,2-6.13-1.04.21-1.75.33-2.63.67Z"/><path class="cls-5" d="m643.97,34.76c0,12.19-7.6,17.95-16.57,17.95s-16.61-5.72-16.61-17.95,7.22-17.9,16.61-17.9,16.57,6.13,16.57,17.9Zm-25.71,0c0,8.64,4.55,11.52,9.14,11.52,4.22,0,9.1-2.5,9.1-11.52s-4.51-11.52-9.1-11.52-9.14,2.67-9.14,11.52Z"/><path class="cls-5" d="m675.4,18.07c.46-.46,1.29-1.21,2.46-1.21,1.92,0,3.88,2.09,3.88,3.71,0,.96-.58,2.04-1.17,2.59l-9.89,9.43,11.23,14.23c.33.46.83,1.25.83,2.17,0,1.96-2.17,3.67-3.96,3.67-.96,0-1.79-.38-2.42-1.13l-11.02-13.94-3.84,3.59v8.1c0,1.21-.21,3.42-3.59,3.42-2.63,0-3.71-1.13-3.71-3.38v-29.09c0-1.17.21-3.38,3.59-3.38,2.63,0,3.71,1.13,3.71,3.38v10.93l13.9-13.1Z"/><path class="cls-5" d="m699.23,48.66c0,2.25-1.79,4.05-4.01,4.05s-4.01-1.79-4.01-4.05,1.79-4.01,4.01-4.01,4.01,1.75,4.01,4.01Zm-1.84-9.22c-.17,1.29-.42,2.5-2.13,2.5s-2-.92-2.21-2.5l-1.46-11.18v-8.01c0-1.17.21-3.38,3.59-3.38,2.59,0,3.67,1.13,3.67,3.38v8.01l-1.46,11.18Z"/></g><path class="cls-4" d="m696,64h-80c-1.1,0-2-.9-2-2s.9-2,2-2h80c1.1,0,2,.9,2,2s-.9,2-2,2Z"/></g></g></g></svg>