<?xml version="1.0" encoding="UTF-8"?><svg id="Layer_2" xmlns="http://www.w3.org/2000/svg" viewBox="0 0 579.24 166.24"><defs><style>.cls-1{fill:#e8b207;}.cls-2{fill:#fbd747;}.cls-3{fill:#333;}.cls-4{fill:#d2d8d5;}.cls-5{fill:#0ea17b;}.cls-6{fill:#58af85;}.cls-7{fill:#fff;stroke:#0bad6b;stroke-miterlimit:10;}</style></defs><g id="PC"><g><g><path class="cls-5" d="m160.04,72.7c2.88,0,5.6,0,5.6,4.5,0,2.04-.42,5.18-4.82,11.36,1.62,1.52,3.4,2.83,4.19,3.4,2.3,1.67,2.98,2.25,2.98,3.82,0,1.83-1.2,4.03-3.4,4.03-1.73,0-3.3-1.94-4.55-3.51v15.08c0,2.77-1.2,3.82-4.24,3.82-3.61,0-3.72-2.62-3.72-3.82v-13.35c-1.47,1.2-2.25,1.73-3.56,1.73-2.41,0-3.93-2.67-3.93-4.66,0-1.83.42-2.2,4.66-5.6,4.5-3.61,7.49-8.01,7.49-8.69s-.68-.68-.84-.68h-6.81c-2.51,0-3.87-.99-3.87-3.87,0-3.56,2.98-3.56,3.87-3.56h2.98v-3.61c0-2.78,1.15-3.87,4.24-3.87,3.61,0,3.72,2.67,3.72,3.87v3.61Zm9.32,2.57c-1.1,0-3.82-.11-3.82-3.67,0-3.04,1.15-4.14,3.82-4.14h17.43c1.88,0,3.98,0,5.45,1.47,1.52,1.52,1.57,3.19,1.57,8.22,0,13.77-.68,25.86-1.57,31.36-1,5.86-4.08,6.54-9.37,6.54-1.15,0-4.03-.11-4.87-.31-.84-.16-2.62-1.1-2.62-3.93,0-3.87,3.09-3.87,3.93-3.87.37,0,2.2.1,2.57.1,1.41,0,2.46-.58,2.93-4.4.94-7.54,1.15-18.64,1.15-25.55,0-1.52-.37-1.83-1.68-1.83h-3.4c-.26,17.54-2.3,28.9-10.31,37.59-1.2,1.26-2.36,2.15-3.93,2.15-2.3,0-4.45-1.88-4.45-4.08,0-1.57.31-1.94,4.14-6.6,5.76-6.96,6.65-17.22,6.75-29.06h-3.72Zm-.16,13.93c-1,1.52-1.52,2.09-2.57,2.09s-3.3-.84-3.3-2.67c0-.79.16-1.05,1.41-3.25,1.36-2.41,1.67-2.93,2.98-2.93.63,0,3.25.52,3.3,2.72,0,1.26-1.47,3.46-1.83,4.03Z"/><path class="cls-5" d="m214.23,82.23c.52.68.63,1.31.63,2.36,0,1.36-.63,11.1-3.14,19.53-.94,3.19-1.57,4.87-4.08,4.87-1.99,0-4.97-1.47-4.97-4.35,0-.52.05-1.1.79-3.3,2.57-7.59,2.98-12.67,3.3-16.44.26-3.25,1.1-4.03,4.4-4.03.68,0,2.3.42,3.09,1.36Zm22.51-2.78c-1,0-1.78-.31-6.18-2.15-5.39-2.25-9.74-3.14-13.3-3.82-1.41-.26-3.46-.73-3.46-3.51,0-.73.26-4.35,3.77-4.35,1.88,0,8.9,1.52,14.97,3.56,7.28,2.41,7.8,3.35,7.8,5.39,0,1.88-1.26,4.87-3.61,4.87Zm-11.31,25.5c0,1.47.99,1.47,3.09,1.47,4.03,0,4.24,0,4.5-3.77.31-3.87.31-4.34.58-4.97.58-1.31,2.2-1.73,3.35-1.73,4.14,0,4.14,3.14,4.14,4.66,0,3.04-.37,7.7-1.67,10.31-1.83,3.56-4.35,3.56-11.05,3.56-6.33,0-7.38-.26-8.17-.63-2.83-1.26-2.93-4.19-2.93-5.86v-26.8c0-1.62.31-3.87,3.93-3.87,4.03,0,4.24,2.25,4.24,3.87v23.77Zm23.14-17.64c2.72,8.22,4.08,16.12,4.08,18.01,0,3.56-3.61,3.82-4.97,3.82-2.93,0-3.56-1.88-3.87-3.87-1.05-6.65-1.57-9.89-3.61-16.02-1.62-4.87-1.68-5.03-1.68-5.86,0-1.94,1.78-3.51,4.61-3.51,2.62,0,3.3.89,5.44,7.43Z"/><path class="cls-5" d="m306.38,80.19c.79,0,3.87,0,3.87,3.46s-2.98,3.46-3.87,3.46h-14.29c-1.31,1-2.67,1.88-4.03,2.78h9.95c4.29,0,6.96,1.36,6.96,6.96v10.42c0,5.55-2.62,6.96-6.96,6.96h-21.99c-4.19,0-7.01-1.26-7.01-6.96v-7.54c-.68.31-3.04,1.31-4.29,1.31-1.99,0-3.93-2.15-3.93-4.61,0-2.62,2.41-3.51,4.24-4.08,5.18-1.67,8.69-3.04,13.19-5.24h-13.93c-.79,0-3.87,0-3.87-3.4s2.88-3.51,3.87-3.51h14.61v-3.67h-10.79c-.73,0-3.87,0-3.87-3.35s3.14-3.4,3.87-3.4h10.79v-1.15c0-2.67,2.09-3.3,3.77-3.3,2.09,0,4.24.52,4.24,3.3v1.15h5.86c.68,0,3.98,0,3.87,3.51.79-.89,3.98-4.97,4.71-5.76.68-.79,1.47-1.36,2.72-1.36,2.2,0,4.5,1.73,4.5,3.77,0,2.78-5.08,7.54-8.01,10.26h5.81Zm-9.21,18.69v-1.94c0-.79-.52-1.1-1.1-1.1h-18.11c-.63,0-1.1.37-1.1,1.1v1.94h20.31Zm-20.31,5.76v2.09c0,.79.52,1.1,1.1,1.1h18.11c.68,0,1.1-.37,1.1-1.1v-2.09h-20.31Zm12.46-24.45c1.36-1.05,2.36-1.83,4.35-3.72-.26,0-.52.05-.89.05h-5.86v3.67h2.41Z"/><path class="cls-5" d="m358.62,71.5c4.45,0,7.17,1.47,7.17,7.12v29.26c0,7.28-4.19,7.28-10.05,7.28-1.62,0-4.35,0-5.44-.73-1.41-.99-1.47-3.19-1.47-3.61,0-3.77,2.72-3.77,3.93-3.77.58,0,3.25.11,3.77,0,.73-.1,1.36-.52,1.36-1.73v-24.87c0-1-.47-1.78-1.73-1.78h-26.39c-1.15,0-1.73.63-1.73,1.78v30.99c0,1.31-.21,3.87-3.72,3.87-3.04,0-4.24-1-4.24-3.87v-32.83c0-5.71,2.72-7.12,7.17-7.12h8.85c.63-1.88.68-2.09,1.31-4.08.26-.94.89-2.46,3.87-2.46.52,0,4.5.05,4.5,2.93,0,.63-.1.94-1.1,3.61h13.93Zm-4.5,27.43c0,4.97-2.3,6.33-6.33,6.33h-9.68c-4.19,0-6.39-1.47-6.39-6.33v-10.89c0-4.76,2.04-6.39,6.39-6.39h9.68c4.14,0,6.33,1.47,6.33,6.39v10.89Zm-6.86-8.9c0-.94-.47-1.47-1.47-1.47h-5.76c-.99,0-1.47.58-1.47,1.47v6.81c0,.94.47,1.47,1.47,1.47h5.76c1,0,1.47-.52,1.47-1.47v-6.81Z"/><path class="cls-5" d="m388.2,70.76c0,.94-.63,5.18-.73,6.07-.31,2.88-.94,9.21-.94,15.39,0,4.92.37,9.58.89,13.72.21,1.52.26,2.62.26,2.98,0,3.3-3.14,3.46-4.24,3.46-2.62,0-3.46-1.26-3.98-3.51-.58-2.36-1.05-8.8-1.05-15.76,0-11.26,1.26-21.36,1.78-23.24.73-2.57,2.25-2.57,4.61-2.57,2.2,0,3.4,1.31,3.4,3.46Zm27.49,22.35c0,6.86-.16,15.5-11.15,19.21-3.25,1.1-6.75,1.47-7.96,1.47-2.93,0-4.08-2.36-4.08-4.4,0-2.25,1.05-3.14,3.14-3.46,4.19-.58,6.39-.89,8.79-2.93,2.3-1.88,2.72-5.24,2.72-10.84,0-2.09-.1-4.14-.1-6.12-2.51.05-8.74.21-10.99.21-3.19,0-5.86,0-5.86-3.88s2.46-3.98,5.6-3.98c6.23-.05,6.91-.05,11.05-.16-.05-.89-.21-6.6-.21-6.96,0-2.04.31-4.29,4.19-4.29,2.98,0,4.24,1.1,4.34,3.93.05,1.1.11,6.02.16,7.02.79,0,4.29-.21,4.97-.21,1.41,0,4.03.26,4.03,3.87,0,.52,0,3.09-2.2,3.72-.89.26-2.51.31-6.54.47.1,4.71.1,5.5.1,7.33Z"/></g><g><path class="cls-3" d="m153.82,140.16c-1,0-3.58,0-3.58-3.27s2.53-3.31,3.58-3.31h9.29c.09-4.62.09-4.8.22-5.32.17-.83.61-2.27,3.27-2.27,3.66,0,3.66,2.09,3.66,3.79,0,.22,0,1.88-.09,3.79h9.68c5.71,0,5.84,3.58,5.84,7.15,0,2.96-.39,13.39-1.44,17.49-1.4,5.36-4.45,6.32-9.42,6.32s-7.76-.17-7.76-3.97c0-2.14,1.05-3.23,3.14-3.23.65,0,3.53.3,4.14.3,2.44,0,3.23-.78,3.58-3.23.7-4.58.83-12.04.83-12.21,0-1.31-.13-2.05-1.44-2.05h-7.67c-.39,3.27-1.74,13.13-10.12,20.85-.79.7-2.09,1.83-3.53,2.7-.35.22-1.44.87-2.49.87-1.66,0-3.45-1.75-3.45-3.66,0-1.53,1.18-2.4,2.31-3.23,3.58-2.62,9.03-6.63,10.29-17.53h-8.85Z"/><path class="cls-3" d="m199.77,149.19c-1.09,0-3.84,0-3.84-3.58s2.31-3.66,3.84-3.66h31.14c1.09,0,3.84,0,3.84,3.58s-2.44,3.66-3.84,3.66h-31.14Z"/><path class="cls-3" d="m254.89,161.49c0,1.26-.09,3.62-3.71,3.62s-3.75-2.22-3.75-3.62v-31.92c0-1.22.09-3.62,3.71-3.62s3.75,2.22,3.75,3.62v7.15c7.89,2.4,14.57,5.71,16.57,6.72,2.83,1.44,3.66,2.27,3.66,4.01,0,1.88-1.31,4.32-3.66,4.32-1.09,0-2.01-.44-3.49-1.35-4.19-2.49-8.5-4.75-13.08-6.37v17.44Zm9.77-31.88c-.13-.39-.13-.74-.13-.83,0-1.26,1.4-1.4,1.7-1.4.83,0,1.26.61,1.74,1.83.61,1.61,1.05,3.31,1.05,4.01,0,1.48-1.48,1.53-1.66,1.53-.48,0-1.05-.13-1.4-1.13-.17-.57-.48-1.53-.65-2.09-.09-.35-.57-1.66-.65-1.92Zm5.01-.78c-.09-.26-.09-.57-.09-.79,0-1.18,1.31-1.4,1.7-1.4.83,0,1.22.57,1.75,1.83.65,1.7,1.09,3.23,1.09,3.97,0,1.53-1.57,1.53-1.7,1.53-1.05,0-1.13-.31-2.01-3.18-.09-.35-.65-1.7-.74-1.96Z"/><path class="cls-3" d="m314.28,128.82c4.14,0,5.97,1.61,5.97,5.97v21.54c0,4.54-2.01,5.97-5.97,5.97h-23.03c-4.1,0-5.97-1.57-5.97-5.97v-21.54c0-4.84,2.35-5.97,5.97-5.97h23.03Zm-20.37,6.41c-1,0-1.48.57-1.48,1.48v17.71c0,.96.48,1.48,1.48,1.48h17.75c.92,0,1.44-.48,1.44-1.48v-17.71c0-1.05-.61-1.48-1.44-1.48h-17.75Z"/><path class="cls-3" d="m334.73,149.19c-1.09,0-3.84,0-3.84-3.58s2.31-3.66,3.84-3.66h31.14c1.09,0,3.84,0,3.84,3.58s-2.44,3.66-3.84,3.66h-31.14Z"/><path class="cls-3" d="m382.39,127.99c1.18,0,4.14,1.57,5.62,2.36,7.81,4.06,8.42,5.15,8.42,6.8,0,1.44-1.53,4.06-3.62,4.06-.83,0-1.44-.17-3.31-1.48-2.66-1.83-6.28-3.84-7.98-4.75-1.18-.61-2.62-1.35-2.62-3.18,0-1.66,1.26-3.18,2.66-3.66.26-.09.52-.13.83-.13Zm33.75,7.5c0,2.05-2.97,10.42-8.33,16.57-5.8,6.63-12.52,8.94-16.7,10.12-2.44.65-5.93,1.44-7.5,1.44-2.83,0-3.53-2.53-3.53-4.06,0-2.62,1.57-3.14,3.88-3.45,11.16-1.44,19.89-5.71,24.95-20.19.96-2.79,1.26-3.66,3.23-3.66.26,0,.7,0,1.18.13,1.26.35,2.83,1.09,2.83,3.1Z"/></g><g><path class="cls-7" d="m420.39,4.09H163.53c-4.17-2.26-9.04-3.59-14.26-3.59-15.35,0-27.79,11.25-27.79,25.12s12.44,25.12,27.79,25.12c6.08,0,11.69-1.79,16.27-4.79h254.85c7.31,0,13.23-5.36,13.23-11.96v-17.94c0-6.61-5.93-11.96-13.23-11.96Z"/><g><path class="cls-1" d="m169.99,25.26c-.31,0-1.6,0-1.6-1.42,0-1.11.54-1.58,1.6-1.58h5.51c.34-.7.8-1.84,1.14-2.53.18-.39.47-.98,1.45-.98s2.04.54,2.04,1.4c0,.49-.16.83-.78,2.12h11.82c.41,0,1.6.03,1.6,1.5,0,1.24-.8,1.5-1.6,1.5h-2.51c-.31.98-1.19,3.62-3.36,6.08,2.4,1.03,2.64,1.16,4.84,2.3.72.39,1.24.72,1.24,1.58,0,1.19-.96,1.94-1.73,1.94-.6,0-.78-.1-3.03-1.42-1.66-.98-3.21-1.68-4.01-2.04-1.32.96-2.82,1.66-4.37,2.2-3.13,1.09-6.7,1.42-7.4,1.42-.34,0-1.66,0-1.66-1.78,0-1.45,1.01-1.55,1.76-1.6,1.73-.13,4.86-.39,7.86-1.78-1.45-.52-1.78-.62-4.94-1.6-.78-.23-1.78-.54-1.78-1.66,0-.57.26-1.06.6-1.6.59-.93.65-1.03,1.24-2.02h-3.93Zm19.19-10.11c1.94,0,3,.62,3,3v1.73c0,.8-.18,1.66-1.53,1.66-1.16,0-1.78-.31-1.78-1.6v-1.16c0-.47-.21-.75-.75-.75h-15.08c-.52,0-.75.26-.75.75v1.16c0,.52-.05,1.6-1.55,1.6-1.34,0-1.78-.49-1.78-1.6v-1.78c0-2.3.98-3,3-3h6.93v-.83c0-.88.52-1.29,1.53-1.29,1.16,0,1.81.26,1.81,1.29v.83h6.96Zm-11.41,10.11c-.49.85-.75,1.29-1.16,1.94-.23.39-.34.52-.34.7,0,.41.39.52.62.59,1.68.49,3.85,1.11,5.04,1.55,1.81-1.81,2.72-3.88,3.13-4.79h-7.29Z"/><path class="cls-1" d="m202.32,22.37c0,.7-.36,5.59-1.73,9.72-.52,1.6-.83,2.22-1.84,2.22-.85,0-1.99-.65-1.99-1.78,0-.36.08-.59.78-2.61,1.06-3.08,1.32-6.03,1.42-7.4.1-1.29.41-1.68,1.81-1.68.08,0,1.55,0,1.55,1.53Zm11.15-2.9c-.31,0-.7-.13-1.32-.39-2.95-1.24-4.29-1.81-8.2-2.61-.57-.1-1.45-.28-1.45-1.45,0-.36.18-1.76,1.55-1.76.93,0,5.04.93,8.54,2.28,1.89.72,2.35,1.01,2.35,1.94,0,.75-.49,1.99-1.47,1.99Zm-6.18,13.4c0,.9.49.9,1.63.9,2.95,0,2.95-.03,3.21-.65.18-.39.21-.62.41-2.92.05-.49.16-1.5,1.53-1.5,1.71,0,1.71,1.34,1.71,1.71,0,1.45-.31,4.16-1.16,5.3-.96,1.27-1.99,1.32-5.33,1.32-2.17,0-2.92,0-3.62-.16-1.73-.39-1.73-2.28-1.73-2.87v-13.27c0-.62.1-1.58,1.63-1.58,1.63,0,1.73.93,1.73,1.58v12.13Zm11.77-9.18c1.42,3.93,2.22,8.04,2.22,9.08,0,1.55-1.55,1.6-1.97,1.6-1.29,0-1.5-.88-1.63-1.6-.83-4.91-1.16-5.82-2.66-9.85-.08-.21-.28-.78-.28-1.19,0-.8.75-1.42,1.89-1.42.98,0,1.24.16,2.43,3.39Z"/><path class="cls-1" d="m231.4,15.69c0,.67-.18,3.7-.21,4.32-.18,4.97-.18,5.82-.18,6.93,0,3.34,0,6.28,4.97,6.28,5.51,0,6.93-2.84,7.66-5.28.1-.39.44-2.15.54-2.51.31-1.06,1.29-1.06,1.58-1.06.41,0,1.97.08,1.97,1.58,0,.98-.46,3.78-2.25,6.39-2.07,3.03-5.46,4.16-9.39,4.16-2.74,0-4.76-.54-6.13-1.63-1.94-1.55-2.48-3.39-2.48-6.96,0-4.14.21-12.34.21-12.44.1-1.01.44-1.71,1.94-1.71,1.78-.03,1.78,1.32,1.78,1.91Z"/><path class="cls-1" d="m256.64,19.08c-.31.03-1.68.16-1.97.16-1.5,0-1.71-1.06-1.71-1.78,0-1.11.44-1.66,1.68-1.78,1.34-.13,15.8-.62,18.57-.62,1.47,0,2.66,0,2.66,1.66s-1.19,1.73-2.61,1.73c-2.07.03-3.65.44-6.26,2.04-1.78,1.09-5.2,3.88-5.2,7.68,0,3.54,3,4.53,7.79,4.53,2.07,0,2.3-.03,2.69.08.85.21,1.11.83,1.11,1.53,0,1.99-1.55,1.99-3.13,1.99-3.67,0-6.54-.75-8.3-1.55-2.59-1.19-3.7-3.78-3.7-6.26,0-1.89.47-4.35,3.31-7.22,1.47-1.47,2.51-2.1,3.62-2.74-2.84.18-5.72.36-8.56.57Z"/><path class="cls-1" d="m286.26,35.97c0,.39,0,1.6-1.53,1.6s-1.55-1.06-1.55-1.6v-10.32c-.23.23-.49.54-1.06.54-.9,0-1.68-.85-1.68-1.94,0-.49.08-.78.44-1.32,1.16-1.78,2.04-3.08,3-5.87.18-.52.83-3.1.9-3.28.23-.46.65-.7,1.27-.7,1.09,0,1.68.57,1.68,1.32,0,.67-.49,3-1.47,5.56v16.01Zm11.77-20.1v-1.34c0-.67.26-1.47,1.53-1.47,1.11,0,1.66.44,1.66,1.47v1.34h1.78c.39,0,1.4,0,1.4,1.37s-.93,1.42-1.4,1.42h-1.78v2.46h2.41c.41,0,1.42.03,1.42,1.42,0,1.01-.49,1.42-1.42,1.42h-15.23c-.36,0-1.42,0-1.42-1.4s1.03-1.45,1.42-1.45h2.41v-2.46h-1.73c-.31,0-1.42,0-1.42-1.4s1.11-1.4,1.42-1.4h1.73v-1.34c0-.62.18-1.47,1.53-1.47,1.14,0,1.58.57,1.58,1.47v1.34h4.14Zm5.15,18.26c0,2.12-.9,2.79-2.82,2.79h-8.72c-1.91,0-2.82-.67-2.82-2.79v-5.98c0-2.04.83-2.82,2.82-2.82h8.72c1.97,0,2.82.75,2.82,2.82v5.98Zm-3.15-4.32v-1.37c0-.39-.18-.62-.62-.62h-6.83c-.44,0-.62.23-.62.62v1.37h8.07Zm0,2.38h-8.07v1.45c0,.41.21.62.62.62h6.83c.44,0,.62-.23.62-.62v-1.45Zm-1.99-13.53h-4.14v2.46h4.14v-2.46Z"/><path class="cls-1" d="m317.14,15.82c1.4-1.14,3.05-1.63,4.63-1.63,2.59,0,4.37,1.4,5.22,2.69,1.4,2.15,1.89,5.02,1.89,8.23,0,5.97-1.78,11.59-12.93,11.59-1.37,0-2.77,0-2.77-1.71,0-1.58,1.47-1.58,1.91-1.58,2.35,0,2.61,0,3.52-.13,4.84-.67,6.67-2.92,6.67-8.15,0-2.82-.31-7.78-3.91-7.78-2.53,0-4.37,2.15-5.12,3.15-1.63,2.17-2.2,4.29-2.2,6.28,0,.36.1,2.02.1,2.35,0,.52,0,1.68-1.66,1.68-.7,0-1.42-.13-1.63-1.11-.18-.85-.31-2.82-.31-3.85,0-3.93.49-9.39.9-10.97.13-.49.39-1.29,1.73-1.29s1.81.65,1.81,1.45c0,.36-.13.98-.21,1.37-.34,1.53-.41,2.2-.54,3.13.54-1.09,1.19-2.38,2.87-3.72Z"/><path class="cls-1" d="m348.07,21.98c2.95,0,7.91,1.09,7.91,6.49,0,6.88-6.72,7.81-11.33,7.81-2.2,0-5.38-.31-6.41-.72-.88-.34-.93-1.27-.93-1.5,0-.18,0-1.55,1.5-1.55.13,0,.29,0,1.06.16,1.47.28,3.16.46,4.63.46,1.32,0,3.8-.1,5.69-1.06,1.71-.85,2.2-2.17,2.2-3.62,0-.96-.39-1.81-1.22-2.51-1.16-.96-3.29-.96-3.62-.96-4.68,0-7.37,2.35-7.92,2.87-.72.72-1.09,1.06-2.02,1.06-1.22,0-1.76-.72-1.76-2.17s.23-5.69.39-6.93c.13-.9.31-1.71,1.68-1.71s1.76.6,1.76,1.42c0,.13-.16,1.53-.18,1.81-.13,1.14-.23,1.91-.26,3.34,2.95-2.1,6.47-2.69,8.82-2.69Zm4.06-3.93c-.39.28-.73.31-1.29.31-.62,0-3.83-.1-9.6-.96-2.33-.36-3.08-.62-3.08-1.78,0-.15,0-1.66,1.47-1.66.31,0,1.34.21,2.02.34,2.41.49,6.16.75,8.09.8,2.1.08,2.92.18,2.92,1.78,0,.18-.1.85-.54,1.16Z"/><path class="cls-1" d="m366.9,21.12l-3.41.18c-.36.02-1.89.1-1.89-1.6,0-1.55,1.29-1.6,1.76-1.63l3.65-.16c.05-1.06.13-2.9.21-3.21.18-.78.91-1.03,1.63-1.03,1.58,0,1.71.96,1.71,1.63,0,.13,0,.54-.03.93-.05.49-.18,2.64-.21,3.08,3.05-2.87,5.07-3.44,6.78-3.44,1.22,0,4.6.34,4.6,4.53,0,1.27-.08,1.66-1.19,6.65-.08.31-.54,2.46-.54,3.62,0,1.47.93,1.71,1.5,1.71.47,0,.6-.05,1.55-.41.31-.13.57-.18.75-.18.8,0,1.32.78,1.32,1.6,0,1.71-2.02,2.41-3.98,2.41-4.47,0-4.47-3.57-4.47-4.47,0-1.37.21-3.31.88-6.83.52-2.74.59-3.03.59-3.57,0-.36,0-1.68-1.63-1.68-2.51,0-5.33,3.26-6.34,4.42-.05,1.91-.08,3.85-.08,5.77,0,.83.05,4.42.05,5.17,0,.98,0,2.25-1.66,2.25s-1.73-1.03-1.73-2.66c0-1.76.03-4.86.05-6.47-.96,1.45-1.71,2.61-2.25,3.36-.46.65-.8.98-1.5.98-.9,0-1.78-.75-1.78-1.68,0-.67.23-.91,1.32-2.12,1.47-1.6,3.57-4.42,4.32-5.97l.02-1.16Z"/><path class="cls-1" d="m403.84,21.56c5.41,0,7.79,3.34,7.79,7.11,0,2.04-.78,5.41-4.73,7.06-1.81.75-3.78.98-5.72.98-3.08,0-4.55-.62-5.56-1.24-1.14-.7-1.81-1.91-1.81-3.21,0-3.13,2.82-4.42,5.48-4.42,1.22,0,5.12.21,5.12,4.37,0,.52-.05.78-.21,1.22,3.05-.65,3.85-2.84,3.85-4.47,0-1.32-.52-2.72-1.63-3.49-1.19-.83-2.77-.98-3.96-.98-3.7,0-6.47,1.68-8.69,3.7-1.66,1.5-1.76,1.58-2.33,1.58-.96,0-1.81-.8-1.81-1.78,0-.72.18-.88,2.22-2.43,3.13-2.33,8.69-6.49,10.35-8.07-.62.05-7.4.44-8.43.44-.52,0-1.76-.03-1.76-1.66s1.22-1.6,1.84-1.63c1.42-.03,7.76-.13,9.05-.18.28-.03,1.84-.08,2.74-.08s2.2.18,2.2,1.66c0,1.19-.29,1.37-3.21,3.26-2.1,1.34-3.16,2.25-3.88,2.85.7-.26,1.45-.57,3.08-.57Zm-2.15,11.07c0-1.94-1.6-2.12-2.46-2.12-1.34,0-2.41.67-2.41,1.68,0,1.19,1.66,1.76,3.44,1.76.41,0,.7-.02,1.16-.1.15-.44.26-.72.26-1.22Z"/></g><g><polygon class="cls-2" points="145.83 37.6 139.08 31.81 139.08 14.84 145.83 20.63 145.83 37.6"/><polygon class="cls-6" points="145.83 37.6 152.58 31.81 152.58 14.84 145.83 20.63 145.83 37.6"/></g></g><g><rect class="cls-4" x="69.62" y="42.62" width="2" height="144" transform="translate(-60.36 83.51) rotate(-45)"/><rect class="cls-4" x="37.62" y="108.62" width="2" height="82" transform="translate(-114.89 131.91) rotate(-68.95)"/></g><g><rect class="cls-4" x="436.62" y="113.62" width="144" height="2" transform="translate(67.92 393.22) rotate(-45)"/><rect class="cls-4" x="499.62" y="148.62" width="82" height="2" transform="translate(-17.66 204.2) rotate(-21.05)"/></g><path class="cls-4" d="m86.04,68.62c-6.84,3.08-9.34,5.58-12.42,12.42-3.08-6.84-5.58-9.34-12.42-12.42,6.84-3.08,9.34-5.58,12.42-12.42,3.08,6.84,5.58,9.34,12.42,12.42Z"/><path class="cls-4" d="m118.9,94.62c-4.56,2.05-6.23,3.72-8.28,8.28-2.05-4.56-3.72-6.23-8.28-8.28,4.56-2.05,6.23-3.72,8.28-8.28,2.05,4.56,3.72,6.23,8.28,8.28Z"/></g></g></svg>