<?xml version="1.0" encoding="UTF-8"?><svg id="Layer_2" xmlns="http://www.w3.org/2000/svg" viewBox="0 0 695.11 201"><defs><style>.cls-1{fill:none;}.cls-2{fill:#fff;}.cls-3{fill:#fbd747;}.cls-4{fill:#333;}.cls-5{fill:#0ea17b;}.cls-6{fill:#58af85;}</style></defs><g id="PC"><g><rect class="cls-1" width="695.11" height="201"/><g><g><path class="cls-5" d="m136.76,65.24c0,6.39.37,10.42.84,13.82.21,1.57.31,2.88.31,3.4,0,3.3-2.2,4.4-4.92,4.4-.94,0-3.77,0-4.71-2.98-.79-2.57-1.36-11.05-1.36-18.85,0-9.74,1.05-17.28,1.57-20.21.31-1.94,1.15-4.4,4.82-4.4,4.4,0,5.6,2.3,5.13,5.44-1,6.54-1.68,10.47-1.68,19.37Zm16.86-19.58c-.05-1.41-.05-5.29,5.08-5.29s5.13,3.56,5.18,5.29l.05,3.3c.63-.05,3.4-.21,3.98-.21,1.2,0,4.97,0,4.97,4.87,0,1.68-.58,4.24-3.51,4.61-.79.1-1.73.16-5.34.37l.11,8.85c8.48,4.55,9.32,7.12,9.32,9.16,0,2.72-2.3,5.5-5.08,5.5-1.41,0-2.36-.52-3.46-1.78-.73-.89-.84-.94-1.47-1.47-.89,6.91-7.02,8.12-11.36,8.12-7.02,0-13.25-3.51-13.25-11.31,0-6.33,4.71-11.1,12.77-11.1.52,0,1.05,0,2.46.16l-.16-5.76c-4.5.1-9.16.16-10.05.16-1.52,0-5.24,0-5.24-4.87s3.72-4.76,5.13-4.76c1.57-.05,8.53-.1,9.95-.1l-.1-3.72Zm-2.09,27.38c-1.68,0-3.87.42-3.87,2.77,0,2.67,2.93,2.72,3.4,2.72.26,0,2.57-.05,3.04-1.52.16-.52.16-.84.16-3.46-.79-.31-1.41-.52-2.72-.52Z"/><path class="cls-5" d="m194.61,45.08c0,.05,0,.79-.05,1.68-.68,12.41-.84,16.18-.84,21.88,0,5.24.68,8.59,8.22,8.59,9.42,0,12.36-4.66,13.56-10.94.58-3.04,1.1-5.81,5.29-5.81.58,0,5.65,0,5.65,4.66,0,2.77-1.1,8.85-5.24,14.08-4.35,5.6-10.94,7.8-19.21,7.8s-12.72-1.88-15.76-5.86c-1.41-1.88-2.83-4.35-2.83-14.82,0-3.19.42-21.2.47-21.83.31-2.46,1.1-4.71,5.55-4.71,5.18,0,5.18,4.03,5.18,5.29Zm14.24,3.87c-.26-.47-.31-.94-.31-1.26,0-1,1.36-1.78,2.36-1.78.84,0,1.47.52,2.62,2.77.37.73,1.52,2.93,1.52,4.14,0,1.36-1.47,1.88-2.36,1.88-.47,0-1.1-.1-1.62-1.2-.16-.37-.89-2.04-1.05-2.36-.16-.37-.99-1.88-1.15-2.2Zm5.29-2.3c-.21-.52-.31-.99-.31-1.31,0-1.05,1.41-1.78,2.36-1.78s1.57.68,2.62,2.78c.79,1.52,1.52,3.14,1.52,4.19,0,1.36-1.52,1.88-2.3,1.88-.89,0-1.26-.47-1.62-1.26-.21-.37-.84-1.99-1.05-2.36-.16-.31-1.05-1.83-1.2-2.15Z"/><path class="cls-5" d="m261.63,73.62c0,2.3-2.62,5.24-5.29,5.24-.94,0-1.52-.26-1.88-.42-4.08,4.5-6.86,5.65-10.05,5.65-5.86,0-10-4.82-10-12.77,0-5.81,2.2-11.46,6.28-15.65-.26-.99-1.73-6.12-1.73-8.64,0-4.55,4.61-4.61,5.24-4.61,1.68,0,3.51.47,4.08,3.35.16.68.58,3.72.68,4.29,2.41-1,4.92-1.83,8.53-2.25.89-4.45,1.1-5.45,1.62-6.33.89-1.57,2.51-1.88,3.93-1.88s5.6.47,5.6,3.87c0,1.31-.68,3.93-1,4.97,9.84,2.25,14.61,8.74,14.61,18.06,0,4.76-1.15,9.58-4.24,13.3-5.24,6.33-14.08,7.22-16.28,7.22-4.61,0-4.82-4.29-4.82-5.08,0-3.72,2.15-4.08,4.66-4.5,4.03-.68,10.99-2.15,10.99-11.36,0-5.97-3.14-8.22-7.38-9-.89,2.57-3.14,9-5.45,13.51.94.68,1.88,1.41,1.88,3.04Zm-17.33-8.01c-.79,1.67-1.2,3.51-1.2,5.39,0,.63,0,3.66,1.88,3.66,1.36,0,2.67-1.62,3.3-2.41-1.57-2.04-2.72-4.08-3.98-6.65Zm11.26-8.53c-1.94.37-3.09.84-4.5,1.52.42,1.2,1.05,2.83,2.2,5.08,1.2-2.98,1.73-4.4,2.3-6.6Z"/><path class="cls-5" d="m294.66,53.88c-4.29,0-5.03-3.35-5.03-5.29s.58-4.87,4.4-5.29c1.88-.21,23.56-1.1,36.44-1.1,2.88,0,6.6,0,6.6,4.92,0,3.35-1.88,4.71-3.61,4.97-.68.1-3.66.21-4.29.26-10.16,1.05-18.74,9.69-18.74,16.75,0,5.29,4.03,6.65,12.88,6.65h4.5c2.88,0,4.61,1.73,4.61,4.82,0,5.92-4.92,5.92-8.48,5.92-10.79,0-23.98-2.72-23.98-16.23,0-8.79,6.02-14.76,9.95-17.54-3.09.26-14.76,1.15-15.23,1.15Z"/></g><path d="m365.74,72.83c0,3-.92,5.54-2.77,7.65-1.65,1.89-3.99,3.34-7,4.35-.19.06-.4.09-.61.09-.49,0-.91-.17-1.25-.51-.35-.34-.53-.77-.53-1.3,0-.88.41-1.45,1.23-1.72,4.84-1.67,7.27-4.56,7.27-8.67,0-2.06-.69-3.72-2.07-4.96-1.34-1.19-3.06-1.78-5.17-1.78-2.55,0-4.75.85-6.6,2.54-1.89,1.75-2.83,3.91-2.83,6.48,0,.99.24,1.82.73,2.48.39.56.78.85,1.17.85.95,0,1.96-1.19,3.01-3.56.93-2.12,1.78-4.3,2.54-6.54.27-.8.84-1.2,1.69-1.2.51,0,.93.18,1.27.54.34.36.51.77.51,1.24,0,.19-.03.39-.09.58-.95,2.84-1.94,5.29-2.95,7.35-.84,1.69-1.59,2.91-2.25,3.65-1.07,1.15-2.33,1.72-3.76,1.72-1.27,0-2.42-.59-3.47-1.78-1.19-1.34-1.78-3.05-1.78-5.14,0-3.74,1.34-6.77,4.03-9.11,2.51-2.18,5.56-3.27,9.16-3.27,3.07,0,5.57.88,7.5,2.63,2.02,1.85,3.04,4.31,3.04,7.38Z"/><g><path class="cls-4" d="m398.89,58.07c5.34,0,5.38,3.44,5.38,6.22,0,3.25-.33,10.93-1.02,14.22-1.17,5.48-4.21,6.11-8.56,6.11-3.66,0-6.91,0-6.91-3.91,0-2.08,1.02-3.36,3.18-3.36.51,0,2.74.22,3.18.22,2.01,0,2.23-.55,2.52-2.96.4-3.11.55-7.97.55-8.37,0-1.06,0-1.46-.73-1.46h-5.38c-.99,7.06-4.24,13.64-9.8,18.02-1.39,1.1-2.71,1.83-3.91,1.83-1.68,0-3.55-1.75-3.55-3.73,0-1.54,1.06-2.34,2.19-3.14,2.96-2.12,6.65-5.01,7.97-12.98h-6.32c-.91,0-3.66,0-3.66-3.33s2.52-3.36,3.66-3.36h6.8c.07-3.51.07-3.69.33-4.42.44-1.13,1.46-1.79,3.18-1.79,3.73,0,3.73,2.3,3.73,3.66,0,.22,0,1.21-.07,2.56h7.24Z"/><path class="cls-4" d="m415.49,72.11c-1.02,0-3.88,0-3.88-3.62,0-3.22,2.08-3.69,3.84-3.69h25.08c.95,0,3.84,0,3.84,3.62,0,3.4-2.34,3.69-3.88,3.69h-25.01Z"/><path class="cls-4" d="m460.68,81.33c0,1.17-.07,3.66-3.73,3.66s-3.77-2.3-3.77-3.66v-25.81c0-1.13.04-3.69,3.73-3.69s3.77,2.27,3.77,3.69v5.16c6.03,1.86,11.48,4.46,13.23,5.37,2.23,1.13,3.14,2.05,3.14,3.8s-1.28,4.31-3.73,4.31c-1.1,0-1.24-.11-4.94-2.27-1.06-.62-4.42-2.49-7.71-3.73v13.16Zm7.31-26.21c-.07-.26-.11-.48-.11-.62,0-1.13,1.28-1.28,1.61-1.28.7,0,1.1.33,1.57,1.68.11.26.8,2.23.8,3.25,0,1.39-1.43,1.39-1.57,1.39-.84,0-1.06-.51-1.24-1.06-.07-.26-.4-1.46-.48-1.72-.11-.26-.51-1.39-.58-1.65Zm4.09-.62c-.11-.26-.07-.48-.07-.66,0-1.1,1.28-1.28,1.57-1.28.69,0,1.1.37,1.61,1.72.07.26.77,2.19.77,3.22,0,1.39-1.43,1.39-1.57,1.39-.84,0-1.1-.51-1.24-1.02-.07-.29-.4-1.5-.48-1.75s-.51-1.39-.58-1.61Z"/><path class="cls-4" d="m508.17,54.05c4.24,0,5.37,2.19,5.37,5.38v18.06c0,4.86-2.96,5.34-5.37,5.34h-19.05c-4.09,0-5.34-2.01-5.34-5.34v-18.06c0-4.68,2.74-5.38,5.34-5.38h19.05Zm-1.87,7.46c0-.51-.29-.84-.84-.84h-13.6c-.51,0-.84.29-.84.84v13.89c0,.51.29.84.84.84h13.6c.51,0,.84-.29.84-.84v-13.89Z"/><path class="cls-4" d="m524.55,72.11c-1.02,0-3.88,0-3.88-3.62,0-3.22,2.08-3.69,3.84-3.69h25.08c.95,0,3.84,0,3.84,3.62,0,3.4-2.34,3.69-3.88,3.69h-25.01Z"/><path class="cls-4" d="m570.91,57.05c2.41,1.46,3.51,2.3,3.51,4.02s-1.57,4.21-3.8,4.21c-.55,0-1.06-.11-2.19-.84-3.29-2.12-3.95-2.6-6.73-4.06-1.35-.73-2.6-1.43-2.6-3.14,0-2.16,1.79-3.84,3.88-3.84,1.5,0,6.47,2.78,7.93,3.66Zm7.86,21.64c-6.11,4.13-14,5.19-15.06,5.19-2.74,0-3.51-2.52-3.51-4.13,0-2.82,1.94-3.22,3.84-3.47,9.54-1.32,15.25-4.97,19.12-14.62.18-.44.8-2.3.95-2.67.37-.88.84-2.01,2.74-2.01,2.12,0,4.13,1.02,4.13,3.36,0,1.24-2.92,12.1-12.21,18.35Z"/><path class="cls-4" d="m621.17,74.64c0,.77,0,3.03-3.22,3.03-2.3,0-3.22-.66-3.58-2.19,0,1.75-1.54,3.73-2.85,3.73-1.17,0-2.12-.91-3.36-2.96v6.91c0,.8,0,2.81-3.07,2.81-2.89,0-3.44-1.13-3.44-2.81v-4.86c-1.54,2.56-2.6,2.85-3.44,2.85-1.94,0-3.58-1.97-3.58-3.88,0-1.17.58-1.79,2.34-3.66,1.79-1.86,3.51-4.61,4.64-7.24h-3.33c-1.65,0-3.36-.44-3.36-3,0-2.27.88-3.33,3.36-3.33h3.36v-1.68c-.88.07-2.41.18-3.25.18-2.08,0-3.03-1.24-3.03-3.29,0-2.49,1.65-2.78,2.96-2.85,2.12-.11,7.57-.44,10.49-.95,1.35-.26,1.72-.29,2.19-.29,1.5,0,2.85,1.24,2.85,3.36,0,2.3-1.46,2.85-5.7,3.25v2.27h2.63c1.06,0,3.4.11,3.4,3.07,0,2.27-1.02,3.25-3.4,3.25h-2.63v.18c.51.88,1.94,3.25,4.24,5.63,1.17,1.17,1.79,1.83,1.97,3,0-.18-.04-.4-.04-.55v-18.1c0-.77,0-3.03,3.22-3.03,2.96,0,3.62,1.28,3.62,3.03v18.1Zm7.79,5.96c0,1.54-.18,4.06-2.71,5.01-1.13.4-4.13.4-6.18.4-1.1,0-2.78,0-3.77-.29-1.79-.51-2.08-2.56-2.08-3.58,0-3,1.54-3.58,3.33-3.58.37,0,2.01.07,2.34.07.47,0,1.13.04,1.57.04.62,0,.62-.29.62-.8v-23.98c0-1.13.22-3,3.14-3,2.67,0,3.73.8,3.73,3v26.73Z"/><path class="cls-4" d="m654.88,75.95v6.58c0,1.61-.48,3.29-3,3.29s-3.58-.77-3.58-3.29v-6.58h-5.16c-.07,1.54-.22,3.91-1.35,6.98-.95,2.6-1.97,3.25-3.73,3.25-2.38,0-4.35-1.61-4.35-3.77,0-.69.04-.77,1.5-4.2,1.02-2.41,1.24-5.19,1.24-8.67v-12.14c0-4.35,2.23-5.34,5.34-5.34h19.82c3.18,0,5.34,1.06,5.34,5.34v23.91c0,4.79-2.85,4.79-6.84,4.79-2.05,0-5.04,0-5.04-3.66,0-.47,0-3,2.34-3.4.33-.04,1.02-.04,1.5-.04q1.02,0,1.02-.95v-2.12h-5.04Zm-6.58-14.81v-2.49h-4.17c-.4,0-.62.26-.62.62v1.86h4.79Zm0,6.11h-4.79v2.45h4.79v-2.45Zm6.58-6.11h5.04v-1.86c0-.37-.26-.62-.62-.62h-4.42v2.49Zm5.04,6.11h-5.04v2.45h5.04v-2.45Z"/></g><g><polygon class="cls-6" points="109.16 63.5 88.16 51.38 88.16 75.62 109.16 63.5"/><g><circle class="cls-2" cx="65.16" cy="63.5" r="35.5"/><path class="cls-6" d="m65.16,100.5c-20.4,0-37-16.6-37-37s16.6-37,37-37,37,16.6,37,37-16.6,37-37,37Zm0-71c-18.75,0-34,15.25-34,34s15.25,34,34,34,34-15.25,34-34-15.25-34-34-34Z"/></g><g><circle class="cls-2" cx="65.16" cy="63.5" r="21"/><path class="cls-6" d="m65.16,86c-12.41,0-22.5-10.09-22.5-22.5s10.09-22.5,22.5-22.5,22.5,10.09,22.5,22.5-10.09,22.5-22.5,22.5Zm0-42c-10.75,0-19.5,8.75-19.5,19.5s8.75,19.5,19.5,19.5,19.5-8.75,19.5-19.5-8.75-19.5-19.5-19.5Z"/></g><g><g><polygon class="cls-3" points="65.16 92.68 49.63 79.37 49.63 40.32 65.16 53.63 65.16 92.68"/><path class="cls-2" d="m66.66,95.94l-18.53-15.88v-43l18.53,15.88v43Zm-15.53-17.26l12.53,10.74v-35.1l-12.53-10.74v35.1Z"/></g><g><polygon class="cls-6" points="65.16 92.68 80.69 79.37 80.69 40.32 65.16 53.63 65.16 92.68"/><path class="cls-2" d="m63.66,95.94v-43l18.53-15.88v43l-18.53,15.88Zm3-41.62v35.1l12.53-10.74v-35.1l-12.53,10.74Z"/></g></g></g></g><g><path class="cls-5" d="m342.99,111.52l13.22,11.56h104.16c10.93,0,19.79,8.86,19.79,19.79h0c0,10.93-8.86,19.79-19.79,19.79h-176.99l59.6-51.13Z"/><g><path class="cls-3" d="m331.31,147.66c4.73,0,10.48,1.23,10.48,7.66s-5.63,7.66-10.48,7.66h-41.79c-10.59,0-11.6-6.83-11.6-8.56,0-8.48,8.9-15.56,21.51-22.39,13.63-7.41,17.8-9.63,17.8-16.3,0-1.56-.11-7.25-6.65-7.25-7.32,0-8,5.27-8.45,8.73-.34,2.3-3.94,5.1-11.38,5.1-6.2,0-12.28-2.06-12.28-7.66,0-6.26,6.42-21.49,31.76-21.49,18.81,0,31.31,9.3,31.31,22.72,0,12.43-9.12,17.62-22.75,25.19-2.48,1.4-9.24,5.43-9.24,6.26,0,.33.56.33,1.58.33h20.16Z"/><path class="cls-5" d="m331.31,164.47h-41.79c-10.34,0-13.1-6.32-13.1-10.06,0-10.31,11.92-18.09,22.3-23.71l.26-.14c13.83-7.52,16.75-9.3,16.75-14.84,0-3.92-1.64-5.75-5.15-5.75-5.55,0-6.41,3.21-6.96,7.41-.47,3.22-4.63,6.42-12.87,6.42s-13.78-3.51-13.78-9.16c0-8.89,9.03-22.99,33.26-22.99,19.63,0,32.81,9.73,32.81,24.22,0,13.43-9.87,18.91-23.52,26.5-2.08,1.17-4.46,2.62-6.2,3.77h17.98c10.42,0,11.98,5.74,11.98,9.16,0,4.18-2.08,9.16-11.98,9.16Zm-20.73-57.5c5.18,0,8.15,3.19,8.15,8.75,0,7.52-4.62,10.03-18.32,17.48l-.26.14c-14.34,7.77-20.73,14.26-20.73,21.07,0,.72.28,7.06,10.1,7.06h41.79c7.96,0,8.98-3.29,8.98-6.16,0-1.52,0-6.16-8.98-6.16h-20.16c-1.15,0-3.08,0-3.08-1.83,0-.76,0-1.92,10-7.56,13.25-7.36,21.99-12.22,21.99-23.88,0-12.69-11.98-21.22-29.81-21.22-24.7,0-30.26,14.8-30.26,19.99,0,5.71,8.25,6.16,10.78,6.16,7.05,0,9.71-2.57,9.89-3.82.46-3.49,1.3-10.01,9.93-10.01Z"/></g><g><path class="cls-2" d="m373.24,135.97c0,1.75-1.68,2.22-2.88,2.22-1.54,0-2.53-.51-2.94-1.54-.72-1.81-1.2-3.05-4.83-3.05-.75,0-4.72.03-4.72,2.57,0,1.99,1.23,2.43,7.12,4.48,5.61,1.98,8.97,3.52,8.97,8.15,0,3.97-3.05,8.97-10.85,8.97-9.55,0-11.91-5.96-11.91-8.08,0-2.29,2.46-2.43,3.15-2.43,2.33,0,2.57.82,2.98,2.26.75,2.53,3.59,2.98,5.54,2.98.82,0,4.96,0,4.96-3.08,0-1.4-.79-2.12-5.99-3.87-6.13-2.09-10.1-3.39-10.1-8.76,0-4.24,3.15-8.42,10.64-8.42,8.21,0,10.85,5.1,10.85,7.6Z"/><path class="cls-2" d="m382.83,134.29c-1.61,0-2.67-.72-2.67-2.57s.96-2.6,2.67-2.6h17.11c1.4,0,2.64.51,2.64,2.57,0,1.3-.45,2.6-2.64,2.6h-5.58v20.67c0,.86-.1,2.81-2.91,2.81-1.85,0-3.05-.65-3.05-2.77v-20.71h-5.58Z"/><path class="cls-2" d="m426.33,140.28c2.36,0,2.6,1.54,2.6,2.46,0,1.13-.34,2.46-2.6,2.46h-10.44v5.51c0,.72.41,1.13,1.13,1.13h11.19c1.61,0,2.64.75,2.64,2.57s-.92,2.6-2.64,2.6h-13.45c-3.32,0-4.86-1.23-4.86-4.86v-18.17c0-3.66,1.57-4.86,4.86-4.86h12.7c1.33,0,2.64.51,2.64,2.57,0,1.37-.51,2.6-2.64,2.6h-10.44c-.75,0-1.13.41-1.13,1.13v4.86h10.44Z"/><path class="cls-2" d="m444.68,154.97c0,.99-.17,2.81-2.94,2.81-2.12,0-3.05-.89-3.05-2.77v-21.01c0-3.63,1.57-4.86,4.86-4.86h6.54c4.14,0,5.44.79,6.06,1.16,2.05,1.23,4.18,3.7,4.18,7.77,0,3.76-1.85,6.54-3.97,7.91-1.64,1.03-4.24,1.33-6.26,1.33h-5.41v7.67Zm0-12.83h5.13c3.25,0,4.42-1.64,4.42-3.94,0-2.88-1.88-3.9-4.42-3.9h-4c-.72,0-1.13.38-1.13,1.13v6.71Z"/></g><polygon class="cls-5" points="403.16 173.5 417.88 161 388.44 161 403.16 173.5"/></g></g></g></svg>