<?xml version="1.0" encoding="UTF-8"?><svg id="Layer_2" xmlns="http://www.w3.org/2000/svg" viewBox="0 0 1308 328"><defs><style>.cls-1{fill:none;}.cls-2{fill:#f46a40;}.cls-3{fill:#f15a24;}.cls-4{fill:#f28670;}.cls-5{fill:#e6e6e6;}.cls-6{fill:#f77759;}.cls-7{fill:#fff;}.cls-8{fill:#ff0;}.cls-9{fill:#ed1c24;}.cls-10{fill:#fadf6a;}.cls-11{fill:#1a1a1a;}.cls-12{fill:#4d4d4d;}.cls-13{fill:#9b8b48;opacity:.2;}</style></defs><g id="Layer_1-2"><g><polygon class="cls-11" points="846.84 25 871.21 44.4 829.97 44.4 846.84 25"/><path class="cls-5" d="M1270.53,328H37.47c-20.69,0-37.47-16.77-37.47-37.47V100.42c0-21.22,17.2-38.42,38.42-38.42H1278.58c16.25,0,29.42,13.17,29.42,29.42v199.12c0,20.69-16.77,37.47-37.47,37.47Z"/><path class="cls-7" d="M1270.53,308H37.47c-20.69,0-37.47-16.77-37.47-37.47V79.16c0-20.52,16.64-37.16,37.16-37.16H1277.58c16.8,0,30.42,13.62,30.42,30.42v198.11c0,20.69-16.77,37.47-37.47,37.47Z"/><polygon class="cls-10" points="1284 86.81 1200.5 0 1117 86.81 1167.6 86.81 1167.6 327.91 1233.4 327.91 1233.4 86.81 1284 86.81"/><path class="cls-13" d="M802.87,97H493.13c-10.34,0-19.64-6.26-23.53-15.84l-20.44-50.3h397.67l-20.44,50.3c-3.89,9.58-13.2,15.84-23.53,15.84Z"/><g><path class="cls-12" d="M802.87,91.14H493.13c-10.34,0-19.64-6.26-23.53-15.84l-20.44-50.3h397.67l-20.44,50.3c-3.89,9.58-13.2,15.84-23.53,15.84Z"/><g><path class="cls-8" d="M508.96,42.95c1.83,2.42,3.56,5.63,4.32,7.84l-4,1.69c-.66-2.21-2.38-5.59-4.08-8.04l3.76-1.49Zm12.88-1.07c-.04,.35-.28,.55-.9,.66v11.53h11.08v20.2h-4.18v-1.35h-22.62v-4.07h22.62v-3.52h-20.58v-3.9h20.58v-3.31h-21.82v-4.04h10.64v-12.5l5.18,.31Zm2.59,9.36c1.35-2.35,2.93-5.9,3.8-8.63l5.18,1.83c-.17,.28-.52,.41-1.04,.41-1.04,2.52-2.87,5.77-4.28,7.87l-3.66-1.49Z"/><path class="cls-8" d="M571.19,54.14h-6.39v1.52c0,7.22-2.42,13.5-10.84,17.51-.79-.9-2.11-2.21-3.18-3,7.91-3.56,9.63-8.8,9.63-14.47v-1.55h-8.91v7.8h-4.35v-7.8h-5.97v-4.14h5.97v-6.91l5.39,.34c-.03,.35-.38,.76-1.04,.86v5.7h8.91v-7.35l5.42,.31c-.03,.38-.38,.69-1.04,.79v6.25h6.39v4.14Z"/><path class="cls-8" d="M605.32,45.85c-.21,.28-.55,.42-1.11,.38-2.69,2.62-6.04,5.42-9.32,7.84,.38,.1,.76,.28,1.1,.38-.1,.31-.41,.59-1,.66v18.02h-4.59v-16.23c-3.07,2.07-7.67,4.63-11.46,6.46-.55-.97-1.73-2.56-2.62-3.35,9.01-4.01,19.37-11.19,24.65-17.33l4.35,3.18Z"/><path class="cls-8" d="M631.15,62.01c-2.87-1.66-7.39-3.8-10.81-5.18v16.16h-4.63v-30.35l5.66,.28c-.03,.41-.31,.76-1.04,.86v9.74l.86-1.17c3.8,1.35,8.98,3.63,12.4,5.42l-2.45,4.25Z"/><path class="cls-8" d="M659.43,50.89c-1.73,.52-3.69,.9-5.97,1.17,0,1.62-.03,3.28-.03,4.73,2.35-.69,4.8-1.14,6.59-1.14,5.66,0,10.01,2.87,10.01,8.43,0,5.01-2.83,8.67-8.74,8.67-2.38,0-4.59-.9-6.46-3.07,.73-.9,1.55-2.24,2.14-3.31,1.28,1.55,2.76,2.35,4.35,2.35,2.8,0,4.28-1.97,4.28-4.63s-2-4.73-5.7-4.73c-1.86,.03-4.25,.45-6.49,1.17v6.84c0,3.18-2.04,5.97-6.29,5.97-3,0-6.42-1.69-6.42-5.9,0-2.35,1.59-4.77,4.18-6.66,1.24-.9,2.76-1.76,4.39-2.45v-5.9c-2.28,.14-4.83,.17-7.63,.17l-.07-4.14c2.87,0,5.42-.03,7.7-.14v-5.87l5.46,.14c0,.42-.34,.73-.9,.79-.1,1.35-.17,2.93-.24,4.52,1.93-.28,3.73-.69,5.28-1.28l.55,4.28Zm-10.15,11.36c-2,1.21-4.63,2.76-4.63,5.08,0,1.42,.83,2.31,2.35,2.31,1.42,0,2.31-.79,2.31-2.45,0-.86,0-2.9-.03-4.94Zm19.44-8.01c-1.87-1.73-5.01-3.52-7.77-4.59l2.11-3.59c3,1.04,6.18,2.8,8.11,4.49l-2.45,3.7Z"/><path class="cls-8" d="M677.91,47.17c2.18-.07,5.21-.1,7.91-.17,1.62-.07,4.07-.14,6.56-.21,0-.52-.07-3.31-.21-4.87l5.7,.28c-.03,.28-.38,.66-.93,.76-.03,.83,0,2.31,.04,3.73,4.52-.14,9.05-.24,10.91-.28v4.08c-1-.04-2.31-.04-3.8-.04-2.07,0-4.52,.04-7.08,.1l.21,6.15c.48,1.38,.52,3,.52,3.94,0,1.62-.21,3.42-.73,4.56-1.42,3.59-4.56,6.91-9.77,8.84-.72-1.04-2.21-2.59-3.21-3.42,3.73-1.28,6.56-3.07,7.77-5.21h-.04c-.41,.38-1.21,.66-1.9,.66-3.07,0-6.15-2.45-6.15-6.29-.04-3.94,3.21-6.7,6.66-6.7,.79,0,1.59,.21,2.24,.52,0-.35-.07-2.24-.1-2.94-2.55,.04-13.95,.45-14.5,.48l-.1-3.97Zm15.3,12.5c0-.76,0-3.18-2.62-3.18-1.62,.03-2.93,1.21-2.97,3.25,0,1.76,1.38,2.97,2.83,2.97,1.73,0,2.76-1.31,2.76-3.04Z"/><path class="cls-8" d="M714.17,47.17c2.18-.07,5.21-.1,7.91-.17,1.62-.07,4.07-.14,6.56-.21,0-.52-.07-3.31-.21-4.87l5.7,.28c-.03,.28-.38,.66-.93,.76-.03,.83,0,2.31,.04,3.73,4.52-.14,9.05-.24,10.91-.28v4.08c-1-.04-2.31-.04-3.8-.04-2.07,0-4.52,.04-7.08,.1l.21,6.15c.48,1.38,.52,3,.52,3.94,0,1.62-.21,3.42-.73,4.56-1.42,3.59-4.56,6.91-9.77,8.84-.72-1.04-2.21-2.59-3.21-3.42,3.73-1.28,6.56-3.07,7.77-5.21h-.04c-.41,.38-1.21,.66-1.9,.66-3.07,0-6.15-2.45-6.15-6.29-.04-3.94,3.21-6.7,6.66-6.7,.79,0,1.59,.21,2.24,.52,0-.35-.07-2.24-.1-2.94-2.55,.04-13.95,.45-14.5,.48l-.1-3.97Zm15.3,12.5c0-.76,0-3.18-2.62-3.18-1.62,.03-2.93,1.21-2.97,3.25,0,1.76,1.38,2.97,2.83,2.97,1.73,0,2.76-1.31,2.76-3.04Z"/><path class="cls-8" d="M774.82,43.68c-.1,.38-.45,.52-.83,.55-.41,2.21-.97,4.42-1.48,6.35,5.01,1.45,8.25,5.35,8.25,11.01,0,6.18-4.18,10.08-12.78,11.5-.55-1.24-1.35-2.73-2.04-3.73,6.49-1,10.32-3.21,10.32-7.67,0-3.42-1.9-6.01-5.04-7.11-1.52,4.32-3.35,7.77-5.39,10.33,.38,.45,.83,.83,1.24,1.21l-3,3.04c-.38-.38-.79-.79-1.17-1.24-2.21,1.83-4.56,2.76-6.84,2.76-3.59,0-5.8-2.9-5.8-6.87,0-4.76,2.42-8.49,5.9-10.88-.66-2.56-1.17-5.32-1.62-8.18l5.15-.14c-.04,.31-.24,.66-.73,.79,.24,1.93,.55,3.87,.9,5.73,.55-.24,3.11-1.42,7.36-1.42,.28,0,.59,0,.83,.03,.48-2.21,.9-4.7,1.21-7.32l5.56,1.24Zm-14.26,21.03c-1.28-2.14-2.31-4.73-3.21-7.67-2.76,2.31-3.07,5.35-3.07,6.39,0,1.87,.83,3.21,2.21,3.21,1.52,0,2.9-.9,4.08-1.93Zm2.8-3.35c1.35-1.93,2.55-4.46,3.59-7.67-.28-.03-.59-.03-.86-.03-1.86,0-3.83,.45-5.32,1.28,.69,2.38,1.48,4.56,2.59,6.42Z"/><path class="cls-8" d="M789.7,68.06c0-1.83,1.49-3.35,3.32-3.35s3.28,1.52,3.28,3.35-1.45,3.35-3.28,3.35-3.32-1.55-3.32-3.35Zm1.38-5.87l-.86-17.78h5.73l-.83,17.78h-4.04Z"/></g></g><rect class="cls-1" x="60.5" y="117" width="444.5" height="121" rx="15.32" ry="15.32"/><path class="cls-3" d="M88.66,203.53c4.38-.88,8.87-1.86,13.47-2.85-2.19-3.5-4.6-6.9-7.01-9.96l10.29-5.37c7.12,8.65,14.89,20.37,17.96,28.47l-11.17,6.13c-.88-2.63-2.3-5.58-3.94-8.76-12.15,3.5-24.31,6.79-32.52,8.98-.22,1.09-.99,1.86-1.75,2.08l-5.15-14.89c2.19-.33,4.6-.88,7.34-1.31v-75.88h41.17v54.2h-28.69v19.16Zm16.53-61.21h-16.53v8.98h16.53v-8.98Zm-16.53,29.89h16.53v-9.2h-16.53v9.2Zm79.39-42.27v66.79c0,12.7-5.04,15.55-21.46,15.55-.44-3.94-2.52-10.51-4.49-14.24,2.63,.22,5.26,.22,7.34,.22,4.49,0,4.93,0,4.93-1.86v-53.21h-15.66v84.75h-13.47v-98h42.81Z"/><path class="cls-2" d="M185.38,131.31h74.79v95.15h-14.12v-7.12h-47.08v7.23h-13.58v-95.26Zm60.66,13.25h-47.08v23.98h47.08v-23.98Zm-47.08,61.54h47.08v-24.53h-47.08v24.53Z"/><path class="cls-6" d="M329.75,131.37v11.06h-56.72v-11.06h56.72Zm-3.07,42.92v45.11c0,9.2-3.07,11.06-16.21,11.06-.33-2.85-1.53-7.12-2.74-9.85,8.43,.33,8.43,0,8.43-1.31v-22.78c-.44,.11-.88,.11-1.42,.11h-4.38c-6.02,0-7.45-1.86-7.45-8.32v-4.38h-3.83c-.66,6.9-2.74,12.81-10.07,16.1-.44-1.1-1.42-2.63-2.52-3.94v34.38h-10.07v-56.17h50.26Zm-4.71-3.94h-40.95v-23.98h40.95v23.98Zm-35.48,13.58v9.53c3.39-2.08,4.6-5.15,5.15-9.53h-5.15Zm27.16,25.18h-7.77v17.19h-9.64v-17.19h-7.45v-8.65h24.86v8.65Zm-21.46-53.98v6.35h17.85v-6.35h-17.85Zm18.18,33.18c0,1.75,.22,1.86,1.1,1.86,3.07,0,3.39,0,3.61-1.86,.33,.22,.66,.44,1.09,.66v-5.04h-5.8v4.38Zm58.8,9.2c3.94,9.85,7.23,22.23,7.88,30.22l-10.73,2.85c-.11-2.3-.44-4.93-.99-7.88-11.61,1.97-23.1,3.83-30.99,4.93-.11,.99-1.1,1.64-1.86,1.75l-4.38-13.58c4.82-.44,10.84-.99,17.52-1.75v-19.82h-15v-45.55h14.89v-21.35l14.12,.77c-.11,.99-.77,1.64-2.63,1.86v18.72h15.77v45.55h-15.77v18.61l5.91-.66c-1.09-4.16-2.41-8.43-3.83-12.26l10.07-2.41Zm-28.25-37.78v23.32h5.58v-23.32h-5.58Zm20.91,23.32v-23.32h-5.8v23.32h5.8Z"/><path class="cls-4" d="M471.3,212.01h-18.72c11.17,4.05,21.98,6.37,29.42,9.99l-14,11c-6.24-3.61-17.07-11.13-28.23-15.29l9.85-5.69h-32.19l11.28,5.48c-.44,.55-1.09,.88-1.97,.88-.33,0-.77,0-1.1-.11-8.65,4.49-22.01,9.42-33.07,12.37-2.19-2.41-6.35-6.9-8.98-9.09,10.4-2.08,22.12-5.69,29.89-9.53h-16.1v-45h23.1c-1.31-2.63-3.39-5.8-5.15-7.56v.33c-9.42,2.85-19.27,5.69-25.84,7.34-.11,.99-.77,1.64-1.64,1.97l-5.47-12.7c8.21-1.53,20.04-4.27,31.75-7.01l1.21,9.96c17.52-2.96,23.43-7.67,25.84-15.55h-7.88c-2.52,3.07-5.47,6.13-8.98,8.87-2.3-2.3-6.79-5.04-9.85-6.24,7.99-5.47,13.36-12.81,16.31-19.27l13.36,2.08c-.22,.99-.99,1.53-2.41,1.53l-2.08,3.72h33.83l2.19-.11,7.23,.77c-1.53,6.24-8.43,15.55-10.51,17.96l-10.18-3.18c1.31-1.64,2.85-3.83,4.27-6.13h-12.26c2.41,7.12,8.65,13.14,30.99,15.77-2.52,2.52-5.37,7.55-6.57,10.73-2.63-.44-5.04-.88-7.34-1.42v43.14Zm-78.29-83.11c7.34,1.75,17.85,5.26,23.21,7.88l-5.8,9.96c-5.15-2.74-15.55-6.68-23.1-8.98l5.69-8.87Zm17.08,45.99v4.71h47.85v-4.71h-47.85Zm0,12.15v4.71h47.85v-4.71h-47.85Zm0,12.15v4.93h47.85v-4.93h-47.85Zm55.08-32.19c-8.54-3.07-13.69-7.23-16.97-11.94-3.72,5.04-9.75,8.98-20.26,11.94h37.23Z"/><g><path class="cls-3" d="M596.96,137.16v5.59h-5.36v27.85c0,6.24-2.77,6.93-13.49,6.93-.32-1.62-1.43-4.34-2.31-5.87,1.99,.14,4.2,.18,5.91,.18,3.79,0,4.06,0,4.06-1.34v-27.76h-30.85v-5.59h42.03Zm-17.97,28.87h-14.5v3.56h-5.4v-21.62h19.91v18.06Zm-5.5-12.79h-9.01v7.48h9.01v-7.48Z"/><path class="cls-3" d="M613.77,135.49c-.18,.37-.6,.6-1.29,.65-.83,2.31-2.03,5.13-3.23,7.62,2.17-.09,4.43-.14,6.74-.23-.74-1.39-1.57-2.72-2.36-3.93l4.71-1.94c2.36,3.28,4.85,7.67,5.77,10.71l-5.08,2.12c-.18-.69-.46-1.52-.83-2.36-5.91,.46-11.87,.83-15.8,1.11-.09,.42-.46,.65-.83,.74l-1.62-6.05c1.06,0,2.31-.05,3.65-.05,1.43-3.09,2.91-7.02,3.74-10.07l6.42,1.66Zm6.97,16.07v20.55c0,4.57-1.94,5.5-8.41,5.5-.28-1.48-1.06-3.6-1.75-4.94,.97,.05,1.94,.09,2.72,.09,1.75,0,1.94,0,1.94-.74v-2.49h-6.93v8.13h-5.13v-26.1h17.55Zm-5.5,4.57h-6.93v2.45h6.93v-2.45Zm-6.93,9.28h6.93v-2.73h-6.93v2.73Zm28.64-15.43c1.52,0,1.85-.69,2.03-4.76,1.11,.83,3.37,1.71,4.9,2.03-.6,6-2.08,7.71-6.37,7.71h-6.42c-5.45,0-6.79-1.62-6.79-6.74v-14.04l6.79,.37c-.05,.46-.42,.74-1.25,.88v5.4c3.14-1.2,6.19-2.63,8.36-3.88l3.74,4.2c-.18,.18-.51,.18-1.06,.18-2.86,1.34-7.02,2.82-11.04,4.02v2.77c0,1.66,.28,1.85,2.03,1.85h5.08Zm-7.16,20.55c0,1.66,.32,1.89,2.12,1.89h5.31c1.62,0,1.94-.88,2.17-5.59,1.15,.83,3.37,1.66,4.85,2.03-.6,6.56-2.03,8.41-6.51,8.41h-6.6c-5.45,0-6.84-1.62-6.84-6.74v-14.64l6.74,.37c-.05,.46-.37,.74-1.25,.88v5.03c3.33-1.29,6.51-2.86,8.78-4.34l3.88,4.3c-.23,.18-.65,.18-1.15,.18-2.91,1.57-7.3,3.19-11.5,4.53v3.7Z"/><path class="cls-3" d="M665.68,135.49c-.14,.46-.65,.88-1.43,.97-.23,1.66-.69,3.93-.97,5.27,3.28-.23,7.99-1.02,11.36-2.12l.69,5.5c-3.97,.92-8.59,1.62-13.12,1.99-2.12,8.45-4.9,15.52-8.91,22.08l-5.73-2.03c3.83-5.82,6.88-12.7,8.45-19.91h-7.99v-5.22h5.13c1.39,0,2.77-.05,3.79-.05,.42-2.22,.79-4.71,.97-7.11l7.76,.65Zm11.78,20.14c.05,2.77,.19,5.4,.42,8.08,2.49,1.02,6.51,2.96,8.96,4.71l-2.73,5.4c-1.71-1.43-4.48-3.05-6.24-4.02-.05,.88-.18,1.43-.32,1.89-.97,3-3.42,5.17-8.96,5.17-4.2,0-9.33-2.03-9.33-7.48,.09-4.76,4.76-7.48,9.33-7.48,1.16,0,2.36,.14,3.6,.37-.14-2.22-.19-4.53-.19-6l5.45-.65Zm-4.94,11.73c-1.25-.51-2.96-.74-4.06-.74-2.26,0-4.2,1.02-4.25,2.77,0,1.71,1.71,2.77,4.34,2.77,2.22,0,3.97-1.11,3.97-3.37v-1.43Zm13.81-15.06c-5.03,.05-10.99,.69-16.12,1.89l-.79-5.04c5.27-1.34,11.5-2.31,16.54-2.31l.37,5.45Z"/></g><g><path d="M578.08,192.82c0,.46-.51,.79-1.25,.88-.05,.65-.14,1.48-.18,2.4,.65,7.48,3.65,25.82,20.18,33.44-1.75,1.29-3.37,3.19-4.25,4.71-10.58-5.17-15.89-14.73-18.57-23.33-2.45,8.17-7.3,17.23-17.14,23.33-.97-1.43-2.77-3.09-4.67-4.39,18.66-10.35,18.01-31.55,18.34-37.69l7.53,.65Z"/><path d="M609.44,202.8c-1.48,2.4-3.14,4.57-4.9,6.37h30.07c-.09,11.22,.51,20.05,3.23,20.05,.69-.05,.88-2.49,.97-6.28,1.06,1.29,2.45,2.68,3.6,3.46-.42,5.82-1.43,8.31-4.99,8.31-6.79,0-8.17-8.92-8.45-20.88h-25.03v-4.11l-.6,.55c-1.06-.97-3.28-2.54-4.67-3.33,4.39-3.42,7.94-9.65,9.75-16.07l6.65,1.75c-.18,.37-.6,.6-1.29,.6-.23,.79-.51,1.52-.83,2.31h27.67v4.62h-29.7l-1.25,2.22h26.7v4.48h-26.93v-4.07Zm-1.43,12.79c2.4,1.29,5.13,2.82,7.81,4.53,1.62-1.89,3-3.93,4.11-6.05l6.1,2.31c-.18,.37-.65,.6-1.34,.51-1.25,2.17-2.73,4.25-4.39,6.14,2.96,2.08,5.64,4.16,7.44,6l-4.43,4.2c-1.66-1.8-4.16-3.93-6.97-6.05-3.65,3.33-7.81,6.1-12.24,8.13-.83-1.11-2.63-3.14-3.79-4.11,4.16-1.71,8.17-4.16,11.59-7.16-2.63-1.75-5.36-3.42-7.85-4.8l3.97-3.65Z"/><path d="M682.27,203.17c-.09,.28-.28,.55-.55,.74-.65,14.04-2.03,22.4-3.83,25.26-1.62,2.54-4.07,3.7-6.97,3.7-2.17,0-4.94-.28-8.04-.92,.05-1.57-.18-4.2-.42-5.82,2.82,.65,6.14,1.06,7.3,1.06,1.39,0,2.36-.37,3.09-1.85,1.06-2.12,2.17-9.01,2.54-17.78h-11.36c-2.17,9.47-5.96,18.48-14.46,25.4-1.06-1.02-3.28-2.68-4.76-3.56,7.67-5.91,11.32-13.86,13.03-21.85h-11.22v-5.45h12.33c.46-3.19,.55-5.77,.74-9.33l7.57,.65c-.09,.51-.55,.88-1.39,1.02-.28,2.91-.37,4.99-.79,7.71h11.82l1.11-.46,4.25,1.48Z"/><path d="M688.78,209.27h38.57v5.82h-36.63c-.28,.46-.92,.79-1.57,.88l-.37-6.7Z"/><path d="M760.6,218.55c-3.83-2.22-9.88-5.08-14.46-6.93v21.48h-6.19v-40.6l7.58,.37c-.05,.55-.42,1.02-1.39,1.15v13.16l1.15-1.57c5.08,1.8,12.01,4.85,16.58,7.25l-3.28,5.68Zm-3.7-23.23c1.75,1.48,4.3,4.2,5.77,6.28l-2.68,2.26c-1.2-1.75-3.83-4.8-5.63-6.37l2.54-2.17Zm6.33-4.11c1.94,1.66,4.48,4.2,5.77,6.14l-2.68,2.22c-1.16-1.71-3.79-4.67-5.64-6.24l2.54-2.12Z"/><path d="M806.6,198.64v31.13h-5.91v-2.63h-21.38v2.72h-5.77v-31.22h33.07Zm-5.96,23.09v-17.69h-21.34v17.69h21.34Z"/><path d="M814.4,209.27h38.57v5.82h-36.63c-.28,.46-.92,.79-1.57,.88l-.37-6.7Z"/><path d="M861.24,195.55c4.62,1.43,10.16,3.88,13.53,6.1l-3.05,5.27c-3.33-2.22-8.78-4.76-13.21-6.33l2.72-5.03Zm-1.57,31.27c15.57-4.8,26.28-13.86,31.64-26.56,1.71,1.39,3.69,2.49,5.4,3.42-5.73,12.61-16.77,22.45-32.05,27.85-.09,.51-.37,1.02-.79,1.2l-4.2-5.91Z"/><path d="M911.12,194.76c-.09,.51-.51,.83-1.43,.88-1.75,8.18-2.45,16.44-2.45,20.32,0,2.63,.05,4.94,.32,6.51,.55-1.34,2.36-5.27,2.96-6.74l2.73,4.25c-1.52,3.23-3.14,5.77-3.83,7.99-.23,.79-.37,1.52-.37,2.22,0,.55,.09,1.11,.23,1.62l-5.82,.88c-1.48-4.43-2.12-10.35-2.12-16.49s.97-14.87,2.17-22.49l7.62,1.06Zm27.71,34.5c-1.71,.09-3.56,.14-5.31,.14-2.96,0-5.77-.14-7.85-.42-6.42-.88-9.01-4.3-9.01-8.22,0-3.33,1.52-6.19,3.97-9.19l5.54,1.89c-2.08,2.03-3.42,4.16-3.42,6.47,0,3.46,4.16,3.83,9.65,3.83,2.22,0,4.62-.09,6.6-.32l-.18,5.82Zm-21.11-29.88c5.27-.14,13.95-.74,19.54-1.71l.51,5.73c-5.54,.88-14.46,1.48-19.86,1.57l-.19-5.59Z"/><path d="M984.74,221.6h-13.49c2.54,4.67,7.3,7.16,15.1,8.04-1.2,1.15-2.63,3.46-3.33,4.99-7.85-1.34-12.52-4.3-15.61-9.56-1.99,4.39-5.91,7.62-13.9,9.65-.46-1.39-1.89-3.51-2.96-4.57,7.48-1.71,10.76-4.43,12.24-8.54h-10.07c-.88,4.53-2.49,9.05-5.22,12.56-1.02-.92-3.51-2.45-4.9-3,5.13-6.24,5.59-15.33,5.59-21.66v-8.78h33.67v11.96h-11.04c-.18,.23-.55,.42-1.06,.46-.09,1.25-.18,2.49-.32,3.65h15.29v4.8Zm.46-28.08v4.99h-41.01v-4.99h41.01Zm-31.45,19.17c-.05,1.29-.14,2.68-.32,4.11h10.39c.14-1.29,.23-2.63,.32-4.11h-10.39Zm22.68-7.76h-22.63v3.6h22.63v-3.6Z"/><path d="M1004.69,210.42c2.54-1.11,6.14-1.71,8.82-1.71,7.02,0,11.87,4.3,11.87,11.55,0,8.27-7.21,13.07-17.27,13.07-5.96,0-10.16-2.73-10.16-7.39,0-3.74,3.79-6.79,8.13-6.79,4.9,0,8.59,3.28,9.38,7.3,2.26-1.11,3.83-3.28,3.83-6.14,0-3.97-3.28-6.51-7.94-6.51-6.28,0-12.1,2.63-15.38,5.73-1.11,1.02-2.96,2.86-4.16,4.2l-4.11-4.11c3.28-3.28,14.92-14.32,21.11-20.05-2.26,.32-10.25,.74-13.95,.97-.14,.32-.69,.6-1.11,.69l-.51-6.51c5.91,0,18.94-.51,21.99-1.02l.69-.32,3.74,4.71c-.28,.28-.83,.46-1.34,.51-2.4,1.76-9.84,8.41-13.63,11.78v.05Zm2.45,17.88c.79,0,2.22-.14,2.82-.28-.32-2.45-2.26-4.2-4.34-4.2-1.52,0-2.91,.79-2.91,2.12,0,2.17,2.91,2.36,4.43,2.36Z"/></g><rect class="cls-9" x="37.89" y="127.9" width="77.48" height="2" transform="translate(-64.48 78.16) rotate(-39.49)"/><rect class="cls-9" x="440.89" y="222.9" width="77.48" height="2" transform="translate(-32.9 356.13) rotate(-39.49)"/></g></g></svg>