<?xml version="1.0" encoding="UTF-8"?><svg id="Layer_2" xmlns="http://www.w3.org/2000/svg" viewBox="0 0 1210.23 283.99"><defs><style>.cls-1{fill:#ea982d;}.cls-2{fill:#fff;}.cls-3{fill:#ffce76;}.cls-4{fill:#333;}</style></defs><g id="Layer_1-2"><g><path class="cls-2" d="M1172.76,283.99H37.47c-20.69,0-37.47-16.77-37.47-37.47V95.04c0-20.52,16.64-37.16,37.16-37.16H1179.8c16.8,0,30.42,13.62,30.42,30.42V246.53c0,20.69-16.77,37.47-37.47,37.47Z"/><g><path class="cls-1" d="M64.67,213.27c4.09-.82,8.28-1.74,12.57-2.66-2.04-3.27-4.29-6.44-6.54-9.3l9.61-5.01c6.64,8.07,13.9,19.01,16.76,26.57l-10.42,5.72c-.82-2.45-2.15-5.21-3.68-8.17-11.34,3.27-22.68,6.34-30.35,8.38-.2,1.02-.92,1.74-1.63,1.94l-4.8-13.9c2.04-.31,4.29-.82,6.85-1.23v-70.81h38.42v50.58h-26.77v17.88Zm15.43-57.12h-15.43v8.38h15.43v-8.38Zm-15.43,27.89h15.43v-8.58h-15.43v8.58Zm74.08-39.44v62.33c0,11.85-4.7,14.51-20.03,14.51-.41-3.68-2.35-9.81-4.19-13.28,2.45,.21,4.9,.21,6.85,.21,4.19,0,4.6,0,4.6-1.74v-49.66h-14.61v79.09h-12.57v-91.45h39.95Z"/><path class="cls-1" d="M154.93,145.88h69.79v88.79h-13.18v-6.64h-43.94v6.74h-12.67v-88.9Zm56.61,12.36h-43.94v22.38h43.94v-22.38Zm-43.94,57.42h43.94v-22.89h-43.94v22.89Z"/><path class="cls-1" d="M289.65,145.93v10.32h-52.93v-10.32h52.93Zm-2.86,40.05v42.1c0,8.58-2.86,10.32-15.12,10.32-.31-2.66-1.43-6.64-2.55-9.2,7.87,.31,7.87,0,7.87-1.23v-21.25c-.41,.1-.82,.1-1.33,.1h-4.09c-5.62,0-6.95-1.74-6.95-7.77v-4.09h-3.58c-.61,6.44-2.55,11.96-9.4,15.02-.41-1.02-1.33-2.45-2.35-3.68v32.08h-9.4v-52.42h46.9Zm-4.39-3.68h-38.22v-22.38h38.22v22.38Zm-33.11,12.67v8.89c3.17-1.94,4.29-4.8,4.8-8.89h-4.8Zm25.34,23.5h-7.25v16.04h-8.99v-16.04h-6.95v-8.07h23.19v8.07Zm-20.03-50.37v5.93h16.65v-5.93h-16.65Zm16.96,30.96c0,1.63,.2,1.74,1.02,1.74,2.86,0,3.17,0,3.37-1.74,.31,.21,.61,.41,1.02,.61v-4.7h-5.42v4.09Zm54.87,8.58c3.68,9.2,6.74,20.74,7.36,28.2l-10.01,2.66c-.1-2.15-.41-4.6-.92-7.36-10.83,1.84-21.56,3.58-28.92,4.6-.1,.92-1.02,1.53-1.74,1.63l-4.09-12.67c4.5-.41,10.12-.92,16.35-1.63v-18.49h-14v-42.51h13.9v-19.92l13.18,.72c-.1,.92-.71,1.53-2.45,1.74v17.47h14.71v42.51h-14.71v17.37l5.52-.61c-1.02-3.88-2.25-7.87-3.58-11.44l9.4-2.25Zm-26.36-35.25v21.76h5.21v-21.76h-5.21Zm19.52,21.76v-21.76h-5.42v21.76h5.42Z"/><path class="cls-1" d="M421.74,221.19h-17.47c10.42,3.78,20.51,5.95,27.46,9.32l-13.06,10.26c-5.82-3.37-15.92-10.39-26.35-14.27l9.2-5.31h-30.04l10.52,5.11c-.41,.51-1.02,.82-1.84,.82-.31,0-.72,0-1.02-.1-8.07,4.19-20.54,8.79-30.86,11.55-2.04-2.25-5.93-6.44-8.38-8.48,9.71-1.94,20.64-5.31,27.9-8.89h-15.02v-42h21.56c-1.23-2.45-3.17-5.42-4.8-7.05v.31c-8.79,2.66-17.98,5.31-24.11,6.85-.1,.92-.72,1.53-1.53,1.84l-5.11-11.85c7.66-1.43,18.7-3.99,29.63-6.54l1.12,9.3c16.35-2.76,21.87-7.15,24.11-14.51h-7.36c-2.35,2.86-5.11,5.72-8.38,8.28-2.15-2.15-6.34-4.7-9.2-5.82,7.46-5.11,12.47-11.95,15.22-17.98l12.47,1.94c-.21,.92-.92,1.43-2.25,1.43l-1.94,3.47h31.57l2.04-.1,6.74,.72c-1.43,5.82-7.87,14.51-9.81,16.76l-9.5-2.96c1.23-1.53,2.66-3.58,3.99-5.72h-11.44c2.25,6.64,8.07,12.26,28.92,14.71-2.35,2.35-5.01,7.05-6.13,10.01-2.45-.41-4.7-.82-6.85-1.33v40.26Zm-73.06-77.55c6.85,1.63,16.66,4.9,21.66,7.36l-5.42,9.3c-4.8-2.55-14.51-6.23-21.56-8.38l5.31-8.28Zm15.94,42.92v4.39h44.65v-4.39h-44.65Zm0,11.34v4.39h44.65v-4.39h-44.65Zm0,11.34v4.6h44.65v-4.6h-44.65Zm51.4-30.04c-7.97-2.86-12.77-6.74-15.84-11.14-3.47,4.7-9.09,8.38-18.9,11.14h34.74Z"/></g><g><path class="cls-4" d="M499.39,146.42v6.4h-6.14v31.89c0,7.14-3.17,7.93-15.44,7.93-.37-1.85-1.64-4.97-2.64-6.72,2.27,.16,4.81,.21,6.77,.21,4.34,0,4.65,0,4.65-1.53v-31.78h-35.33v-6.4h48.12Zm-20.57,33.05h-16.61v4.07h-6.19v-24.75h22.79v20.68Zm-6.29-14.65h-10.31v8.57h10.31v-8.57Z"/><path class="cls-4" d="M518.64,144.52c-.21,.42-.69,.69-1.48,.74-.95,2.64-2.33,5.87-3.7,8.73,2.49-.11,5.08-.16,7.72-.26-.85-1.59-1.8-3.12-2.7-4.49l5.39-2.22c2.7,3.75,5.55,8.78,6.61,12.27l-5.82,2.43c-.21-.79-.53-1.75-.95-2.7-6.77,.53-13.59,.95-18.09,1.27-.11,.48-.53,.74-.95,.85l-1.85-6.93c1.22,0,2.64-.05,4.18-.05,1.64-3.54,3.33-8.04,4.28-11.53l7.35,1.9Zm7.99,18.4v23.53c0,5.23-2.22,6.29-9.62,6.29-.32-1.69-1.22-4.12-2.01-5.66,1.11,.05,2.22,.11,3.12,.11,2.01,0,2.22,0,2.22-.85v-2.86h-7.93v9.31h-5.87v-29.88h20.1Zm-6.29,5.23h-7.93v2.8h7.93v-2.8Zm-7.93,10.63h7.93v-3.12h-7.93v3.12Zm32.79-17.66c1.75,0,2.12-.79,2.33-5.45,1.27,.95,3.86,1.96,5.61,2.33-.69,6.88-2.38,8.83-7.3,8.83h-7.35c-6.24,0-7.77-1.85-7.77-7.72v-16.08l7.77,.42c-.05,.53-.48,.85-1.43,1v6.19c3.6-1.38,7.09-3.01,9.57-4.44l4.28,4.81c-.21,.21-.58,.21-1.22,.21-3.28,1.53-8.04,3.23-12.64,4.6v3.17c0,1.9,.32,2.12,2.33,2.12h5.82Zm-8.2,23.53c0,1.9,.37,2.17,2.43,2.17h6.08c1.85,0,2.22-1.01,2.49-6.4,1.32,.95,3.86,1.9,5.55,2.33-.69,7.51-2.33,9.62-7.46,9.62h-7.56c-6.24,0-7.83-1.85-7.83-7.72v-16.76l7.72,.42c-.05,.53-.42,.85-1.43,1.01v5.76c3.81-1.48,7.46-3.28,10.05-4.97l4.44,4.92c-.26,.21-.74,.21-1.32,.21-3.33,1.8-8.36,3.65-13.17,5.18v4.23Z"/><path class="cls-4" d="M578.07,144.52c-.16,.53-.74,1-1.64,1.11-.26,1.9-.79,4.49-1.11,6.03,3.75-.26,9.15-1.16,13.01-2.43l.79,6.29c-4.55,1.06-9.84,1.85-15.02,2.27-2.43,9.68-5.61,17.77-10.21,25.28l-6.56-2.33c4.39-6.66,7.88-14.54,9.68-22.79h-9.15v-5.98h5.87c1.59,0,3.17-.05,4.34-.05,.48-2.54,.9-5.39,1.11-8.14l8.88,.74Zm13.48,23.06c.05,3.17,.21,6.19,.48,9.25,2.86,1.16,7.46,3.38,10.26,5.39l-3.12,6.19c-1.96-1.64-5.13-3.49-7.14-4.6-.05,1.01-.21,1.64-.37,2.17-1.11,3.44-3.91,5.92-10.26,5.92-4.81,0-10.68-2.33-10.68-8.57,.11-5.45,5.45-8.57,10.68-8.57,1.32,0,2.7,.16,4.13,.42-.16-2.54-.21-5.18-.21-6.88l6.24-.74Zm-5.66,13.43c-1.43-.58-3.38-.85-4.65-.85-2.59,0-4.81,1.16-4.87,3.17,0,1.96,1.96,3.17,4.97,3.17,2.54,0,4.55-1.27,4.55-3.86v-1.64Zm15.81-17.24c-5.76,.05-12.59,.79-18.46,2.17l-.9-5.76c6.03-1.53,13.17-2.64,18.93-2.64l.42,6.24Z"/></g><g><path class="cls-4" d="M469.32,208.53c0,.31-.34,.53-.84,.59-.03,.44-.09,.99-.12,1.62,.44,5.04,2.46,17.38,13.58,22.5-1.18,.87-2.27,2.15-2.86,3.17-7.12-3.48-10.69-9.92-12.5-15.7-1.65,5.5-4.91,11.59-11.53,15.7-.65-.96-1.87-2.08-3.14-2.95,12.56-6.96,12.12-21.23,12.34-25.36l5.07,.44Z"/><path class="cls-4" d="M490.42,215.25c-.99,1.62-2.11,3.08-3.3,4.29h20.23c-.06,7.55,.34,13.49,2.18,13.49,.47-.03,.59-1.68,.65-4.23,.72,.87,1.65,1.8,2.43,2.33-.28,3.92-.96,5.6-3.36,5.6-4.57,0-5.5-6-5.69-14.05h-16.85v-2.77l-.4,.37c-.71-.65-2.21-1.71-3.14-2.24,2.95-2.3,5.35-6.5,6.56-10.82l4.48,1.18c-.12,.25-.4,.4-.87,.4-.16,.53-.34,1.03-.56,1.55h18.62v3.11h-19.99l-.84,1.49h17.97v3.02h-18.12v-2.74Zm-.96,8.61c1.62,.87,3.45,1.9,5.25,3.05,1.09-1.27,2.02-2.64,2.77-4.07l4.1,1.55c-.12,.25-.44,.4-.9,.34-.84,1.46-1.83,2.86-2.95,4.13,1.99,1.4,3.79,2.8,5,4.04l-2.98,2.83c-1.12-1.21-2.8-2.64-4.69-4.07-2.46,2.24-5.25,4.1-8.24,5.47-.56-.75-1.77-2.11-2.55-2.77,2.8-1.15,5.5-2.8,7.8-4.82-1.77-1.18-3.61-2.3-5.28-3.23l2.67-2.46Z"/><path class="cls-4" d="M539.44,215.5c-.06,.19-.19,.37-.37,.5-.44,9.45-1.37,15.08-2.58,17-1.09,1.71-2.74,2.49-4.69,2.49-1.46,0-3.33-.19-5.41-.62,.03-1.06-.12-2.83-.28-3.92,1.9,.44,4.13,.72,4.91,.72,.93,0,1.59-.25,2.08-1.24,.72-1.43,1.46-6.06,1.71-11.97h-7.65c-1.46,6.37-4.01,12.43-9.73,17.1-.72-.68-2.21-1.8-3.2-2.39,5.16-3.98,7.62-9.32,8.77-14.7h-7.55v-3.67h8.3c.31-2.14,.37-3.89,.5-6.28l5.1,.44c-.06,.34-.37,.59-.93,.68-.19,1.96-.25,3.36-.53,5.19h7.96l.75-.31,2.86,.99Z"/><path class="cls-4" d="M543.82,219.6h25.95v3.92h-24.65c-.19,.31-.62,.53-1.06,.59l-.25-4.51Z"/><path class="cls-4" d="M592.15,225.85c-2.58-1.49-6.65-3.42-9.73-4.66v14.45h-4.17v-27.32l5.1,.25c-.03,.37-.28,.68-.93,.78v8.86l.78-1.06c3.42,1.21,8.08,3.26,11.16,4.88l-2.21,3.82Zm-2.49-15.64c1.18,.99,2.89,2.83,3.89,4.23l-1.8,1.52c-.81-1.18-2.58-3.23-3.79-4.29l1.71-1.46Zm4.26-2.77c1.31,1.12,3.02,2.83,3.89,4.13l-1.8,1.49c-.78-1.15-2.55-3.14-3.79-4.2l1.71-1.43Z"/><path class="cls-4" d="M623.1,212.45v20.95h-3.98v-1.77h-14.39v1.83h-3.89v-21.01h22.25Zm-4.01,15.54v-11.9h-14.36v11.9h14.36Z"/><path class="cls-4" d="M628.36,219.6h25.95v3.92h-24.65c-.19,.31-.62,.53-1.06,.59l-.25-4.51Z"/><path class="cls-4" d="M659.87,210.37c3.11,.96,6.84,2.61,9.11,4.1l-2.05,3.54c-2.24-1.49-5.91-3.2-8.89-4.26l1.83-3.39Zm-1.06,21.04c10.47-3.23,17.69-9.32,21.29-17.87,1.15,.93,2.49,1.68,3.64,2.3-3.85,8.49-11.28,15.11-21.57,18.74-.06,.34-.25,.68-.53,.81l-2.83-3.98Z"/><path class="cls-4" d="M693.44,209.84c-.06,.34-.34,.56-.96,.59-1.18,5.5-1.65,11.07-1.65,13.68,0,1.77,.03,3.33,.22,4.38,.37-.9,1.59-3.54,1.99-4.54l1.83,2.86c-1.03,2.18-2.11,3.89-2.58,5.38-.16,.53-.25,1.03-.25,1.49,0,.37,.06,.75,.16,1.09l-3.92,.59c-.99-2.98-1.43-6.96-1.43-11.1s.65-10.01,1.46-15.14l5.13,.72Zm18.65,23.22c-1.15,.06-2.39,.09-3.57,.09-1.99,0-3.89-.09-5.28-.28-4.32-.59-6.06-2.89-6.06-5.53,0-2.24,1.03-4.17,2.67-6.19l3.73,1.27c-1.4,1.37-2.3,2.8-2.3,4.35,0,2.33,2.8,2.58,6.5,2.58,1.49,0,3.11-.06,4.44-.22l-.12,3.92Zm-14.21-20.11c3.54-.09,9.39-.5,13.15-1.15l.34,3.85c-3.73,.59-9.73,.99-13.37,1.06l-.12-3.76Z"/><path class="cls-4" d="M742.98,227.9h-9.08c1.71,3.14,4.91,4.82,10.16,5.41-.81,.78-1.77,2.33-2.24,3.36-5.28-.9-8.42-2.89-10.51-6.43-1.34,2.95-3.98,5.13-9.36,6.5-.31-.93-1.27-2.36-1.99-3.08,5.04-1.15,7.24-2.98,8.24-5.75h-6.78c-.59,3.05-1.68,6.09-3.51,8.45-.68-.62-2.36-1.65-3.29-2.02,3.45-4.2,3.76-10.32,3.76-14.58v-5.91h22.66v8.05h-7.43c-.12,.16-.37,.28-.72,.31-.06,.84-.12,1.68-.22,2.46h10.29v3.23Zm.31-18.9v3.36h-27.6v-3.36h27.6Zm-21.17,12.9c-.03,.87-.09,1.8-.22,2.77h6.99c.09-.87,.16-1.77,.22-2.77h-6.99Zm15.26-5.22h-15.23v2.42h15.23v-2.42Z"/><path class="cls-4" d="M756.41,220.38c1.71-.75,4.13-1.15,5.94-1.15,4.72,0,7.99,2.89,7.99,7.77,0,5.56-4.85,8.8-11.62,8.8-4.01,0-6.84-1.83-6.84-4.97,0-2.52,2.55-4.57,5.47-4.57,3.3,0,5.78,2.21,6.31,4.91,1.52-.75,2.58-2.21,2.58-4.13,0-2.67-2.21-4.38-5.35-4.38-4.23,0-8.14,1.77-10.35,3.85-.75,.68-1.99,1.93-2.8,2.83l-2.77-2.77c2.21-2.21,10.04-9.64,14.21-13.49-1.52,.22-6.9,.5-9.39,.65-.09,.22-.47,.4-.75,.47l-.34-4.38c3.98,0,12.74-.34,14.8-.68l.47-.22,2.52,3.17c-.19,.19-.56,.31-.9,.34-1.62,1.18-6.62,5.66-9.17,7.93v.03Zm1.65,12.03c.53,0,1.49-.09,1.9-.19-.22-1.65-1.52-2.83-2.92-2.83-1.03,0-1.96,.53-1.96,1.43,0,1.46,1.96,1.59,2.98,1.59Z"/></g><g><path class="cls-1" d="M31.73,25H1180.85c16.15,0,29.26,13.11,29.26,29.26v58.13H.36V56.37C.36,39.06,14.41,25,31.73,25Z"/><g><path class="cls-2" d="M478.29,51.22c1.64,2.17,3.18,5.05,3.86,7.04l-3.59,1.52c-.59-1.98-2.13-5.02-3.65-7.22l3.37-1.33Zm11.53-.96c-.03,.31-.25,.5-.8,.59v10.35h9.93v18.13h-3.74v-1.21h-20.25v-3.66h20.25v-3.16h-18.43v-3.5h18.43v-2.98h-19.54v-3.63h9.52v-11.22l4.64,.28Zm2.32,8.4c1.21-2.11,2.63-5.3,3.4-7.75l4.64,1.64c-.15,.25-.46,.37-.93,.37-.93,2.26-2.57,5.18-3.83,7.07l-3.28-1.33Z"/><path class="cls-2" d="M534,61.26h-5.72v1.36c0,6.48-2.16,12.12-9.71,15.72-.71-.81-1.89-1.98-2.84-2.7,7.08-3.19,8.63-7.9,8.63-12.99v-1.39h-7.98v7.01h-3.9v-7.01h-5.35v-3.72h5.35v-6.2l4.82,.31c-.03,.31-.34,.68-.93,.77v5.11h7.98v-6.6l4.85,.28c-.03,.34-.34,.62-.93,.71v5.61h5.72v3.72Z"/><path class="cls-2" d="M564.56,53.82c-.19,.25-.49,.37-.99,.34-2.41,2.36-5.41,4.87-8.35,7.04,.34,.09,.68,.25,.99,.34-.09,.28-.37,.53-.9,.59v16.18h-4.11v-14.57c-2.75,1.86-6.86,4.15-10.26,5.8-.49-.87-1.55-2.29-2.35-3.01,8.07-3.6,17.34-10.04,22.07-15.56l3.9,2.85Z"/><path class="cls-2" d="M587.69,68.33c-2.57-1.49-6.62-3.41-9.68-4.65v14.51h-4.14v-27.25l5.07,.25c-.03,.37-.28,.68-.93,.77v8.74l.77-1.05c3.4,1.21,8.04,3.26,11.1,4.87l-2.19,3.81Z"/><path class="cls-2" d="M613.01,58.35c-1.55,.46-3.31,.81-5.35,1.05,0,1.46-.03,2.94-.03,4.25,2.1-.62,4.3-1.02,5.9-1.02,5.07,0,8.97,2.57,8.97,7.56,0,4.49-2.54,7.78-7.82,7.78-2.13,0-4.11-.81-5.78-2.76,.65-.81,1.39-2.01,1.92-2.98,1.14,1.39,2.47,2.11,3.9,2.11,2.5,0,3.83-1.77,3.83-4.15s-1.79-4.25-5.1-4.25c-1.67,.03-3.8,.4-5.81,1.05v6.14c0,2.85-1.82,5.36-5.63,5.36-2.69,0-5.75-1.52-5.75-5.3,0-2.11,1.42-4.28,3.74-5.98,1.11-.81,2.47-1.58,3.93-2.2v-5.3c-2.04,.12-4.33,.15-6.83,.15l-.06-3.72c2.57,0,4.85-.03,6.9-.12v-5.27l4.88,.12c0,.37-.31,.65-.8,.71-.09,1.21-.15,2.63-.22,4.06,1.73-.25,3.34-.62,4.73-1.15l.49,3.84Zm-9.09,10.2c-1.79,1.09-4.14,2.48-4.14,4.56,0,1.27,.74,2.08,2.1,2.08,1.27,0,2.07-.71,2.07-2.2,0-.77,0-2.6-.03-4.43Zm17.41-7.19c-1.67-1.55-4.48-3.16-6.96-4.12l1.89-3.22c2.69,.93,5.53,2.51,7.27,4.03l-2.19,3.32Z"/><path class="cls-2" d="M629.56,55c1.95-.06,4.67-.09,7.08-.16,1.45-.06,3.65-.12,5.87-.19,0-.46-.06-2.98-.19-4.37l5.1,.25c-.03,.25-.34,.59-.84,.68-.03,.74,0,2.08,.03,3.35,4.05-.12,8.1-.22,9.77-.25v3.66c-.9-.03-2.07-.03-3.4-.03-1.86,0-4.05,.03-6.34,.09l.19,5.52c.43,1.24,.46,2.7,.46,3.53,0,1.46-.19,3.07-.65,4.09-1.27,3.22-4.08,6.2-8.75,7.94-.65-.93-1.98-2.32-2.88-3.07,3.34-1.15,5.87-2.76,6.96-4.68h-.03c-.37,.34-1.08,.59-1.7,.59-2.75,0-5.5-2.2-5.5-5.64-.03-3.53,2.88-6.01,5.97-6.01,.71,0,1.42,.19,2.01,.47,0-.31-.06-2.01-.09-2.64-2.29,.03-12.49,.4-12.99,.43l-.09-3.56Zm13.7,11.22c0-.68,0-2.85-2.35-2.85-1.45,.03-2.63,1.09-2.66,2.91,0,1.58,1.24,2.67,2.54,2.67,1.55,0,2.47-1.18,2.47-2.73Z"/><path class="cls-2" d="M662.03,55c1.95-.06,4.67-.09,7.08-.16,1.45-.06,3.65-.12,5.87-.19,0-.46-.06-2.98-.19-4.37l5.1,.25c-.03,.25-.34,.59-.84,.68-.03,.74,0,2.08,.03,3.35,4.05-.12,8.1-.22,9.77-.25v3.66c-.9-.03-2.07-.03-3.4-.03-1.86,0-4.05,.03-6.34,.09l.19,5.52c.43,1.24,.46,2.7,.46,3.53,0,1.46-.19,3.07-.65,4.09-1.27,3.22-4.08,6.2-8.75,7.94-.65-.93-1.98-2.32-2.88-3.07,3.34-1.15,5.87-2.76,6.96-4.68h-.03c-.37,.34-1.08,.59-1.7,.59-2.75,0-5.5-2.2-5.5-5.64-.03-3.53,2.88-6.01,5.97-6.01,.71,0,1.42,.19,2.01,.47,0-.31-.06-2.01-.09-2.64-2.29,.03-12.49,.4-12.99,.43l-.09-3.56Zm13.7,11.22c0-.68,0-2.85-2.35-2.85-1.45,.03-2.63,1.09-2.66,2.91,0,1.58,1.24,2.67,2.54,2.67,1.55,0,2.47-1.18,2.47-2.73Z"/><path class="cls-2" d="M716.32,51.87c-.09,.34-.4,.46-.74,.5-.37,1.98-.87,3.97-1.33,5.7,4.48,1.3,7.39,4.8,7.39,9.89,0,5.55-3.74,9.05-11.44,10.32-.49-1.12-1.21-2.45-1.82-3.35,5.81-.9,9.24-2.88,9.24-6.88,0-3.07-1.7-5.39-4.51-6.39-1.36,3.87-3,6.97-4.82,9.27,.34,.4,.74,.74,1.11,1.08l-2.69,2.73c-.34-.34-.71-.71-1.05-1.12-1.98,1.64-4.08,2.48-6.12,2.48-3.22,0-5.19-2.6-5.19-6.17,0-4.28,2.16-7.63,5.29-9.76-.59-2.29-1.05-4.77-1.45-7.35l4.61-.12c-.03,.28-.22,.59-.65,.71,.22,1.74,.49,3.47,.8,5.15,.49-.22,2.78-1.27,6.59-1.27,.25,0,.53,0,.74,.03,.43-1.98,.8-4.22,1.08-6.57l4.98,1.12Zm-12.77,18.88c-1.14-1.92-2.07-4.25-2.88-6.88-2.47,2.08-2.75,4.81-2.75,5.73,0,1.67,.74,2.88,1.98,2.88,1.36,0,2.6-.81,3.65-1.74Zm2.5-3.01c1.21-1.74,2.29-4,3.22-6.88-.25-.03-.53-.03-.77-.03-1.67,0-3.43,.4-4.76,1.15,.62,2.14,1.33,4.09,2.32,5.77Z"/><path class="cls-2" d="M729.65,73.75c0-1.64,1.33-3.01,2.97-3.01s2.94,1.36,2.94,3.01-1.3,3.01-2.94,3.01-2.97-1.39-2.97-3.01Zm1.24-5.27l-.77-15.96h5.13l-.74,15.96h-3.62Z"/></g></g><polygon class="cls-3" points="1159.31 58.42 1103.12 0 1046.93 58.42 1080.98 58.42 1080.98 113 1125.26 113 1125.26 58.42 1159.31 58.42"/><polygon class="cls-3" points="984.31 227.42 928.12 169 871.93 227.42 905.98 227.42 905.98 282 950.26 282 950.26 227.42 984.31 227.42"/></g></g></svg>