<?xml version="1.0" encoding="UTF-8"?><svg id="Layer_2" xmlns="http://www.w3.org/2000/svg" viewBox="0 0 1029 281.19"><defs><style>.cls-1{fill:#fff;}.cls-2,.cls-3{fill:#229ef2;}.cls-4{fill:#434648;}.cls-5{fill:#35a6f3;}.cls-3{opacity:.5;}</style></defs><g id="Layer_1-2"><g><path class="cls-5" d="M696.53,33.5s2.13,33.69,30.3,33.69-75.15,0-75.15,0l44.85-33.69Z"/><rect class="cls-5" x="351.53" y="0" width="345" height="67" rx="33.5" ry="33.5"/><path class="cls-5" d="M921,65.19H108C48.35,65.19,0,113.54,0,173.19H0c0,59.65,48.35,108,108,108H921c59.65,0,108-48.35,108-108h0c0-59.65-48.35-108-108-108Zm0,212H108c-57.35,0-104-46.65-104-104S50.65,69.19,108,69.19H921c57.35,0,104,46.65,104,104s-46.65,104-104,104Z"/><path class="cls-4" d="M919,281.19h-406.5v-4h406.5c58.45,0,106-46.65,106-104s-47.55-104-106-104h-406.5v-4h406.5c60.65,0,110,48.45,110,108s-49.35,108-110,108Z"/><g><path class="cls-2" d="M283.66,160.16c-1.02,.14-1.23,.14-2.6,.41-2.66,.48-6.97,1.02-10.31,1.36v6c3.96-.89,6.35-1.16,9.97-1.16,8.4,0,14.69,2.12,18.65,6.21,3.01,3.07,4.65,7.36,4.65,12.07,0,9.62-7.31,16.84-17.01,16.84-8.47,0-13.39-5.66-13.39-15.48v-1.7c4.99-1.43,6.63-2.11,10.38-4.16-.07,1.43-.14,2.18-.14,3.61,0,2.11,.14,3.27,.55,4.3,.48,1.23,1.64,2.05,3.01,2.05,2.94,0,4.92-2.39,4.92-5.86,0-2.32-1.23-4.57-3.35-6-1.84-1.16-4.51-1.77-8.13-1.77-3.35,0-6.15,.34-10.04,1.36l.07,12.07v1.77c0,4.16-.27,5.66-1.3,7.09-1.3,1.91-3.89,3-6.97,3-5.06,0-10.86-2.11-14.76-5.39-2.8-2.39-4.44-5.59-4.44-8.86,0-3.68,2.25-7.71,6.35-11.32,2.73-2.39,5.6-4.09,10.18-6.07v-8.05l-5.19,.14-6.63-.14c-.21,0-.82,0-1.43,.07l-.14-10.71c2.19,.41,4.99,.61,9.36,.61h2.6q.96-.07,1.37-.07v-2.18c0-5.11-.07-6.68-.48-9.21h11.82c-.34,2.46-.41,4.02-.41,8.52v2.18c4.65-.48,8.88-1.29,12.5-2.32l.34,10.78Zm-23.71,21.62c-3.21,1.5-5.67,4.16-5.67,6.07,0,.82,.48,1.5,1.5,2.18,.96,.61,2.25,1.09,3.07,1.09,.89,0,1.09-.48,1.09-2.73v-6.61Zm38.19-15c-3.48-6.07-7.38-10.71-13.46-16.02l9.02-6.07c5.81,4.71,10.04,9.48,13.46,15.07l-9.02,7.02Z"/><path class="cls-2" d="M314.4,196.98c1.98-2.66,2.8-3.82,4.17-6.55,1.71-3.21,2.32-4.84,3.21-8.25l8.74,4.02c-2.39,8.25-3.96,11.8-7.58,17.39l-8.54-6.62Zm53.63-42.69c1.78,0,3.01-.07,4.17-.21-.07,.89-.14,1.98-.14,3.89v20.25c0,1.71,.07,3,.14,3.89-.34,0-.61-.07-.75-.07-.96-.07-1.09-.07-1.57-.07,4.51,5.52,6.28,8.05,10.25,14.73l-9.22,6.41c-2.05-4.5-3.21-6.61-5.46-10.43-1.3,9.75-3.21,10.77-19.67,10.77-12.36,0-14.69-1.16-14.69-7.36v-7.91c0-2.25-.07-3.54-.34-4.98h10.73c-.21,.95-.27,2.11-.27,4.98v4.02c0,1.77,.55,1.98,4.85,1.98,6.01,0,7.72-.21,8.54-.96,.55-.54,.96-2.11,1.09-4.57l-5.6,4.43c-2.32-2.79-4.17-4.5-7.99-7.64l5.12-3.55h-17.62c-2.6,0-4.51,.07-6.76,.21v-8.39c1.84,.2,3.28,.27,6.76,.27h32.11v-2.39h-31.08c-2.53,0-4.17,.07-6.76,.21v-7.64c2.32,.27,2.87,.27,6.76,.27h31.08v-2.25h-29.99c-1.5,0-2.87,.07-4.65,.14v-2.05c-2.6,2.05-4.17,3.21-6.9,4.91-1.84-4.36-2.8-6.07-5.4-9.34,4.51-2.46,6.76-4.02,9.77-6.61,3.62-3.07,6.49-6.55,8.68-10.37l11.96,1.64c-.82,1.23-.89,1.3-1.57,2.32h10.59c3.96,0,5.4-.07,6.83-.34l5.4,5.05q-.61,.48-3.28,3.41c-.82,.96-1.91,2.11-3.14,3.34h8.06Zm-20.63,0c1.16-1.16,1.57-1.64,2.53-2.93h-13.39c-1.3,1.43-1.64,1.77-2.8,2.93h13.66Zm5.53,27.62c3.01,2.25,3.69,2.8,5.53,4.57l-2.25,1.77c2.53,1.02,4.85,1.71,7.79,2.25-.89-1.23-1.37-1.98-2.73-3.89l8.13-4.71h-16.46Z"/><path class="cls-2" d="M439.48,155.25l-.68,.14c-1.16,.2-3.42,.68-6.76,1.36l-5.12,.82c.55,1.23,1.02,2.46,1.57,3.55,8.74-1.5,13.39-2.59,15.92-3.61l1.02,10.02c-1.5,.2-1.71,.2-8.4,1.64-.61,.14-.82,.14-4.1,.75,2.46,4.43,4.78,7.77,8.74,12.55l-10.04,5.18c-4.03-2.11-8.4-3-14.35-3-7.58,0-11.75,1.57-11.75,4.43,0,1.57,1.37,2.66,4.17,3.21,1.5,.27,4.37,.55,6.56,.55,6.97,0,17.08-1.98,21.79-4.23l1.57,11.52c-1.64,.21-2.12,.27-4.85,.89-6.83,1.5-12.84,2.18-18.79,2.18-3.55,0-7.45-.34-10.66-.95-7.99-1.43-12.84-6.41-12.84-13.03,0-4.77,3.14-9.14,8.13-11.25,4.03-1.7,8.68-2.52,14.62-2.52,3.62,0,6.35,.2,9.43,.82-.89-1.16-1.43-1.98-1.98-2.86l-.75-1.29-.41-.68c-5.4,.68-14.82,1.3-23.5,1.5-4.03,.14-4.3,.14-5.94,.34l-.48-10.09c1.98,.27,3.28,.34,7.04,.34,6.56,0,13.12-.34,18.65-1.02-.27-.68-.82-1.84-1.57-3.55-5.81,.55-9.56,.68-17.83,.68-3.01,.07-3.69,.07-5.12,.14l-.61-9.96c2.39,.2,4.65,.34,7.79,.34,3.89,0,9.15-.2,12.23-.54l-.2-.54c-.14-.34-.41-.96-.75-1.84-.82-2.25-1.09-2.8-1.91-4.43l11.96-1.43c.27,1.98,.75,3.48,2.12,7.09,3.69-.48,7.31-1.09,10.66-1.77-.89-1.98-1.37-2.93-2.53-4.77l6.49-1.71c2.32,3.55,3.76,6.48,5.06,10.57l-3.89,1.23,.34,3.27Zm7.65-17.32c2.19,3,3.69,6.07,4.99,9.96l-6.29,2.05c-1.5-4.36-2.6-6.61-4.78-10.3l6.08-1.7Z"/><path class="cls-2" d="M487.65,184.16c-3.96,8.73-8.54,12.55-14.76,12.55-9.15,0-15.58-8.73-15.58-21.21,0-7.98,2.73-15.21,7.86-20.8,6.01-6.55,14.69-10.02,24.73-10.02,9.15,0,17.21,3.07,22.27,8.39,4.37,4.64,6.69,11.25,6.69,18.96,0,8.86-3.35,16.91-9.09,22.03-4.65,4.16-10.04,6.34-19.61,7.84-1.64-4.91-2.94-7.36-5.81-11.18,6.42-.48,10.66-1.57,14.35-3.48,5.26-2.8,8.2-8.52,8.2-15.82,0-5.8-2.05-10.43-6.01-13.43-1.78-1.36-3.28-1.98-5.74-2.39-1.5,11.73-3.83,20.53-7.51,28.57Zm-11.75-24.96c-4.51,3.82-7.45,10.16-7.45,16.23,0,4.84,1.84,8.66,4.24,8.66,1.71,0,3.48-2.39,5.53-7.57,2.39-6.14,4.37-14.05,5.12-20.8-2.87,.41-5.06,1.43-7.45,3.48Z"/><path class="cls-2" d="M554.52,145.36c0-2.18-.14-3.68-.41-5.25h11.82c-.27,1.5-.41,3.14-.41,5.25v3.21h16.81c4.1,0,6.9-.14,9.43-.48v10.91c-2.46-.27-4.78-.41-9.02-.41h-24.32c-.21,3.54-.21,3.68-.41,5.73h19.95c3.62,0,5.26-.07,7.1-.27-.27,2.52-.27,2.93-.55,9.82-.48,12.34-1.43,19.57-3.28,23.66-1.91,4.5-4.99,6-12.02,6-1.71,0-4.71-.14-8.74-.34-.34-4.02-.96-6.48-2.8-10.57,3.83,.48,7.04,.75,9.97,.75,3.48,0,4.37-.89,5.06-5.05,.55-3.14,.96-8.18,1.09-14.18h-17.22c-.89,4.02-2.6,8.52-4.78,12.68-3.55,6.68-8.47,11.93-16.46,17.46-2.19-3.89-4.17-6.27-7.65-9.07,10.32-6.14,14.96-11.66,17.56-20.8,1.3-4.77,1.91-9.41,1.98-15.82h-8.47c-3.55,0-6.76,.14-9.5,.41v-10.91c2.94,.34,5.67,.48,9.43,.48h15.85v-3.21Z"/><path d="M605.92,199.95c-.06-.58-.06-.93-.29-2.27-1.11-6.81-1.57-12.4-1.57-18.51,0-5.24,.35-10.36,1.11-15.42q.29-1.75,1.57-8.32c.41-2.04,.64-3.72,.64-4.31v-.23l7.87,.81c-2.39,5.06-4.6,19.09-4.66,29.21q-.06,2.1-.06,3.03v.93c0,.47,0,.58-.06,1.22h.06q.29-.64,.7-1.69c.12-.41,.41-1.05,.7-1.98q.52-1.22,1.11-2.62c.12-.17,.17-.35,.7-1.8l4.84,2.15c-3.44,6.75-5.77,13.97-5.77,17.81,0,.41,0,.46,.12,1.57l-6.99,.41Zm13.17-38.12c2.74,.7,5.77,.93,10.55,.93,2.04,0,3.32,0,5.36-.12,0-3.43-.06-6.34-.06-8.73,0-1.28-.06-2.15-.17-2.79l7.29-.17c-.29,1.63-.41,4.42-.41,8.55v2.68c3.03-.35,5.6-.81,7.87-1.4q.35-.12,1.28-.47l.47-.12,.23,6.58c-.58,.06-.64,.06-1.69,.29-1.98,.41-5.01,.93-8.1,1.28v1.28c0,3.26,0,3.38,.58,13.15,4.2,1.98,5.65,2.79,9.15,5.29,.76,.52,1.05,.7,1.63,.99l-2.8,7.04c-.99-1.16-2.74-2.68-4.37-3.72-1.98-1.28-3.32-2.15-3.67-2.39v.81c0,1.28-.17,2.44-.47,3.26-1.34,3.43-5.42,5.47-11.07,5.47-7.64,0-12.3-3.61-12.3-9.54s4.95-9.6,12.01-9.6c2.16,0,3.61,.23,5.19,.81-.17-1.46-.23-4.31-.47-12.4-2.33,.06-3.73,.12-5.25,.12-2.16,0-4.49-.06-7.23-.29-.82,0-1.46-.06-1.75-.06-.52-.06-.87-.06-.99-.06-.29-.06-.47-.06-.58-.06-.06,0-.18,0-.35,.06l.12-6.69Zm11.83,24.38c-3.73,0-6.06,1.45-6.06,3.84,0,2.15,2.1,3.61,5.36,3.61,2.16,0,3.85-.64,4.72-1.8,.52-.7,.76-1.57,.76-3.14v-1.57c-1.92-.7-3.03-.93-4.78-.93Z"/><path d="M677.22,177.84c-3.67,3.03-5.3,5.47-5.3,7.97,0,3.78,4.26,5.41,14.11,5.41,6.94,0,14.57-1.05,18.3-2.44l.64,7.97c-.99,.06-1.34,.06-2.56,.23-6.99,.99-10.73,1.28-15.74,1.28-6.35,0-11.48-.64-14.57-1.92-5.01-1.92-7.46-5.18-7.46-9.72s2.27-8.26,7.52-12.63l5.07,3.84Zm-8.86-23.92c4.49,1.05,9.68,1.45,17.49,1.45,7.4,0,11.54-.29,15.39-1.11l.23,6.52c-3.5,1.57-9.79,5.47-15.56,9.66l-5.07-4.02c3.03-1.92,5.89-3.67,8.57-5.18-2.56,.35-5.07,.46-8.74,.46-2.97,0-7.81-.29-10.67-.7-1.17-.12-1.34-.17-2.16-.17l.52-6.92Z"/><path d="M716.86,158.28c2.68,.7,6.59,.99,12.59,.99,1.11-4.66,1.52-7.1,1.63-9.6l7.81,.64q-.35,1.05-.93,3.38-1.05,4.37-1.4,5.47c4.43-.12,11.02-.58,14.86-1.05,4.31-.52,5.42-.76,7.46-1.34l.35,7.04c-1.34,.06-1.87,.12-3.38,.29-8.45,.93-13.58,1.34-20.87,1.51-1.22,4.13-3.44,9.72-4.6,11.81v.12c3.91-2.5,8.98-3.78,14.69-3.78,10.26,0,16.38,4.42,16.38,11.81,0,8.61-8.34,14.2-21.1,14.2-5.19,0-10.32-.7-14.86-2.04,0-3.32-.06-4.48-.58-7.39,5.25,1.86,10.14,2.79,15.04,2.79,8.45,0,13.93-2.97,13.93-7.62,0-3.61-3.5-5.59-9.79-5.59-4.31,0-8.8,1.05-12.53,2.85-2.16,1.05-3.21,1.92-4.25,3.38l-7.05-2.44c.87-1.4,1.87-3.2,2.74-5.24,1.92-4.42,4.08-10.07,4.9-12.92-3.09-.06-5.71-.17-8.8-.41-.82-.06-1.4-.06-1.87-.06h-.47l.12-6.81Z"/><path d="M786.11,161.71c-.87,3.2-1.87,8.61-2.62,14.32q-.12,.82-.29,1.69l.12,.12c3.38-3.26,10.61-5.53,17.66-5.53,9.91,0,16.44,4.89,16.44,12.34,0,4.25-2.27,8.55-6,11.23-3.79,2.74-8.63,3.96-15.39,3.96-5.01,0-8.22-.41-14.86-2.04-.06-3.61-.17-4.77-.87-7.51,5.71,1.98,10.73,2.91,15.68,2.91,8.22,0,13.93-3.43,13.93-8.38,0-3.9-3.67-6.23-9.85-6.23-5.19,0-10.61,1.57-14.51,4.25-1.05,.76-1.4,1.11-2.62,2.5l-7.34-.23c.17-1.05,.17-1.28,.47-3.49,.47-3.61,1.4-10.07,2.45-16.94,.23-1.4,.29-2.1,.35-3.38l7.29,.41Zm.76-11.41c4.02,2.21,15.16,5.53,21.74,6.46l-2.39,6.69c-9.97-2.27-16.09-4.19-22.73-7.27l3.38-5.88Z"/><path d="M840.74,186.1c.06-1.22,.12-1.8,.12-2.5q0-.64-.17-4.13l-.82-19.79c-.12-2.56-.29-5.47-.53-7.1h9.56c-.17,1.57-.41,4.6-.52,7.1l-.82,19.79q-.12,3.38-.12,4.19c0,.7,0,1.28,.12,2.44h-6.82Zm-.82,12.75v-7.97h8.45v7.97h-8.45Z"/></g><g><path class="cls-1" d="M418.64,15l3.82,1.43-.48,.72c3.5,3.15,5.52,4.93,6.05,5.31,2.23,1.53,4.03,2.68,5.41,3.44,1.48,.77,3.45,1.53,5.89,2.29-1.27,1.34-2.18,2.39-2.71,3.16-1.7-.67-4.09-1.91-7.16-3.73v2.87h-20.06v-2.58c-2.76,1.91-4.88,3.16-6.37,3.73-.85-1.24-1.54-2.2-2.07-2.87,2.44-1.15,4.08-2.05,4.94-2.72,2.33-1.53,4.3-3.01,5.89-4.45,2.97-2.68,5.25-4.88,6.85-6.6Zm-13.21,18.79h24.83l.48-.43,3.02,1.43-3.18,7.6c-.64,1.34-1.59,3.44-2.87,6.31l-3.82-1.15,2.55-5.31,2.39-5.31h-23.4v-3.16Zm14.33-14.49l-5.41,4.88c-.85,.77-2.23,1.86-4.14,3.3h18.94c-2.34-1.62-4.03-2.92-5.09-3.87-1.38-1.05-2.81-2.49-4.3-4.3Z"/><path class="cls-1" d="M448.73,47.7V18.01h24.04v29.11h-4.14v-1.86h-15.92v2.44h-3.98Zm19.9-17.78v-8.6h-15.92v8.6h15.92Zm0,12.19v-9.18h-15.92v9.18h15.92Z"/><path class="cls-1" d="M491.08,24.03v24.38h-3.82V30.2c-1.27,2.1-2.28,3.59-3.02,4.45-.32-.67-.64-1.29-.96-1.86-.21-.29-.64-.72-1.27-1.29,1.91-2.49,3.45-4.88,4.62-7.17,1.17-2.2,2.39-5.21,3.66-9.04l3.82,1.43c-.32,.96-.72,1.99-1.19,3.08-.48,1.1-1.09,2.51-1.83,4.23Zm8.6-3.3v-5.02h3.66v5.02h5.09v-5.02h3.5v5.02h6.37v3.01h-6.37v3.87h7.64v3.01h-27.22v-3.01h7.32v-3.87h-5.89v-3.01h5.89Zm-3.66,27.82v-15.49h19.9v15.35h-3.82v-1.43h-12.42v1.58h-3.66Zm16.08-10.18v-2.73h-12.42v2.73h12.42Zm0,5.88v-2.87h-12.42v2.87h12.42Zm-3.66-16.64v-3.87h-5.09v3.87h5.09Z"/><path class="cls-1" d="M530.24,31.06c.85,.48,1.86,.96,3.02,1.43-1.17,3.44-2.07,5.5-2.71,6.17-.64,.67-1.43,1-2.39,1-.85,0-1.59-.43-2.23-1.29-.96-1.62-1.43-4.21-1.43-7.74,0-3.82,.69-8.18,2.07-13.05l4.14,1c-1.17,3.83-1.91,6.93-2.23,9.32-.32,2.49-.37,4.35-.16,5.59,0,.19,.05,.34,.16,.43h.32c.1,0,.21-.05,.32-.14,.21-.38,.58-1.29,1.11-2.73Zm.64,16.92c-.53-1.44-1.06-2.63-1.59-3.59,3.5-.57,6.21-1.38,8.12-2.44,1.8-1.05,3.13-2.53,3.98-4.45,.85-2.01,1.27-4.97,1.27-8.89,0-2.77-.27-6.45-.8-11.04l4.3-.29c.32,3.83,.48,7.46,.48,10.9,0,4.78-.53,8.42-1.59,10.9-.85,1.91-2.23,3.54-4.14,4.88-2.65,1.82-6,3.16-10.03,4.02Z"/><path class="cls-1" d="M563.99,16.43l-.48,6.17,1.43-.57,1.43,2.29c-1.27,.96-2.34,1.86-3.18,2.73v2.01c4.35-3.16,7.48-5.21,9.39-6.17,1.7-.76,3.08-1.15,4.14-1.15,1.59,0,2.81,.38,3.66,1.15,.85,.96,1.27,2.2,1.27,3.73,0,1.82-.05,3.83-.16,6.02-.32,4.69-.48,7.12-.48,7.31,0,1.05,.16,1.82,.48,2.29,.1,.38,.42,.57,.96,.57,.42,0,.8-.19,1.11-.57,.21-.29,.58-1.62,1.11-4.02,1.27,.86,2.49,1.34,3.66,1.43-.64,2.68-1.43,4.45-2.39,5.31-.96,.86-2.12,1.29-3.5,1.29-1.59,0-2.87-.48-3.82-1.43-.96-1.05-1.43-2.58-1.43-4.59s.05-3.78,.16-5.59c.32-4.21,.48-6.4,.48-6.6,0-1.24-.21-2.06-.64-2.44-.43-.38-.96-.57-1.59-.57-.74,0-1.59,.29-2.55,.86-2.02,1.15-5.36,3.49-10.03,7.03v5.74l.16,8.89h-3.82l.16-11.47-6.37,6.02-2.23-3.01,8.6-7.17,.16-5.31c-2.55,.57-4.67,.96-6.37,1.15l-.32-3.3c1.59-.09,3.87-.38,6.85-.86v-7.31l4.14,.14Z"/><path class="cls-1" d="M603.63,29.91c2.23-.67,3.66-1.05,4.3-1.15,.64-.09,1.75-.14,3.34-.14,3.29,0,5.99,.81,8.12,2.44,2.01,1.72,3.02,3.83,3.02,6.31,0,2.87-1.17,5.21-3.5,7.03-2.34,2.01-5.63,3.01-9.87,3.01-3.4,0-6.16-.67-8.28-2.01-1.38-.86-2.07-2.05-2.07-3.59,0-1.05,.53-2.01,1.59-2.87,1.17-.86,2.55-1.29,4.14-1.29,1.91,0,3.71,.53,5.41,1.58,1.49,1.15,2.6,2.77,3.34,4.88,2.02-.86,3.24-1.72,3.66-2.58,.96-1.15,1.43-2.49,1.43-4.02,0-1.62-.74-3.11-2.23-4.45-1.38-1.15-3.5-1.72-6.37-1.72-1.7,0-3.34,.24-4.94,.72-1.49,.57-3.18,1.39-5.09,2.44-1.27,.86-3.24,2.39-5.89,4.59l-2.87-2.87c8.28-6.31,14.7-11.52,19.26-15.63-4.14,.86-8.44,1.43-12.9,1.72l-.32-3.44c8.81-.48,14.54-1.1,17.19-1.86l2.39,3.01c-.85,.48-2.02,1.29-3.5,2.44-.96,.77-2.55,2.03-4.78,3.8-2.23,1.77-3.77,2.99-4.62,3.66Zm3.98,14.77h2.23c-.85-1.62-1.59-2.68-2.23-3.16-1.17-.76-2.18-1.15-3.02-1.15s-1.49,.19-1.91,.57c-.53,.48-.8,.91-.8,1.29,0,.57,.37,1.05,1.11,1.43,1.38,.67,2.92,1,4.62,1Z"/><path class="cls-1" d="M638.49,33.36v4.73h-3.34v-5.74c0-.76,.16-1.34,.48-1.72,.32-.48,.96-.76,1.91-.86,2.12-.48,3.5-1.05,4.14-1.72,.64-.57,.96-1.39,.96-2.44,0-1.24-.48-2.29-1.43-3.16-1.17-.76-2.76-1.15-4.78-1.15-1.91,0-3.45,.53-4.62,1.58-.96,.86-1.43,2.25-1.43,4.16h-4.14c.21-2.77,.9-4.68,2.07-5.74,1.91-1.82,4.62-2.73,8.12-2.73s6.15,.67,7.96,2.01c1.59,1.24,2.39,2.92,2.39,5.02,0,1.53-.48,2.82-1.43,3.87-1.17,1.24-2.76,2.06-4.78,2.44-.85,.1-1.43,.29-1.75,.57-.21,.19-.32,.48-.32,.86Zm-3.98,11.04v-2.72l.64-.57h3.18l.8,.72v2.58l-.8,.72h-3.18l-.64-.72Z"/></g><path class="cls-5" d="M352,33.19s1.61,34-24.19,34,52.23-.19,52.23-.19l-28.03-33.81Z"/><path class="cls-5" d="M934.59,209.86c-1.28,0-2.56-.49-3.54-1.46-1.95-1.95-1.95-5.12,0-7.07l23.5-23.51-24.09-24.1c-1.95-1.95-1.95-5.12,0-7.07,1.95-1.95,5.12-1.95,7.07,0l27.63,27.63c1.95,1.95,1.95,5.12,0,7.07l-27.04,27.04c-.98,.98-2.26,1.46-3.54,1.46Z"/><g><path class="cls-3" d="M57.58,173.41H121.92v-63.55c35.27,0,63.9,28.38,64.34,63.55,0,.27,.02,.54,.02,.81,0,35.55-28.81,64.36-64.36,64.36s-64.36-28.82-64.36-64.36c0-.27,.02-.54,.02-.81Z"/><path d="M121.92,113.41c-33.14,0-60,26.86-60,60s26.86,60,60,60,60-26.86,60-60-26.86-60-60-60Zm0,110.43c-27.85,0-50.43-22.58-50.43-50.43s22.58-50.43,50.43-50.43,50.43,22.58,50.43,50.43-22.58,50.43-50.43,50.43Z"/><g><circle cx="121.92" cy="216.56" r="1.8"/><circle cx="100.35" cy="210.78" r="1.8"/><circle cx="84.55" cy="194.99" r="1.8"/><circle cx="78.77" cy="173.41" r="1.8"/><circle cx="84.55" cy="151.84" r="1.8"/><circle cx="100.35" cy="136.05" r="1.8"/><circle cx="121.92" cy="130.27" r="1.8"/><circle cx="143.49" cy="136.05" r="1.8"/><circle cx="159.28" cy="151.84" r="1.8"/><circle cx="165.06" cy="173.41" r="1.8"/><circle cx="159.28" cy="194.99" r="1.8"/><circle cx="143.49" cy="210.78" r="1.8"/></g><circle cx="121.92" cy="173.41" r="2.13"/><rect x="121.04" y="138.55" width="1.75" height="34.87"/><rect x="117.67" y="101.61" width="8.5" height="16.5" rx="1.41" ry="1.41"/><path d="M127.7,90.92h-11.5c-4.42,0-8,3.58-8,8h0c0,4.42,3.58,8,8,8h11.5c4.42,0,8-3.58,8-8h0c0-4.42-3.58-8-8-8Zm5.25,8.01c0,3.3-2.67,5.97-5.97,5.97h-10.06c-3.3,0-5.97-2.67-5.97-5.97h0c0-3.31,2.67-5.98,5.97-5.98h10.06c3.3,0,5.97,2.67,5.97,5.97h0Z"/></g></g></g></svg>