<?xml version="1.0" encoding="UTF-8"?><svg id="Layer_2" xmlns="http://www.w3.org/2000/svg" viewBox="0 0 1043.5 233.5"><defs><style>.cls-1{fill:#f9c2ac;}.cls-2{fill:#f7cdbc;}.cls-3{fill:#e89877;}.cls-4{fill:#fff;}.cls-5{fill:#dd472f;}.cls-6{fill:#dd2f2f;}.cls-7{fill:#e04141;}.cls-8{fill:#893311;}.cls-9{fill:#4c4b4b;}.cls-10{fill:#280909;}</style></defs><g id="Layer_1-2"><g><rect class="cls-6" x="19.5" y="55.5" width="1024" height="178" rx="28.46" ry="28.46"/><g><rect class="cls-4" x="9.5" y="45.5" width="1024" height="178" rx="28.46" ry="28.46"/><path class="cls-6" d="M1005.04,224.5H37.96c-16.25,0-29.46-13.22-29.46-29.46V73.96c0-16.25,13.22-29.46,29.46-29.46H1005.04c16.25,0,29.46,13.22,29.46,29.46v121.07c0,16.25-13.22,29.46-29.46,29.46ZM37.96,46.5c-15.14,0-27.46,12.32-27.46,27.46v121.07c0,15.14,12.32,27.46,27.46,27.46H1005.04c15.14,0,27.46-12.32,27.46-27.46V73.96c0-15.14-12.32-27.46-27.46-27.46H37.96Z"/></g><rect class="cls-6" x="38" y="173" width="58" height="12" rx="6" ry="6"/><g><path class="cls-6" d="M260.66,124.82c-1.02,.14-1.23,.14-2.6,.41-2.66,.48-6.97,1.02-10.31,1.36v6c3.96-.89,6.35-1.16,9.97-1.16,8.4,0,14.69,2.11,18.65,6.21,3.01,3.07,4.65,7.36,4.65,12.07,0,9.62-7.31,16.84-17.01,16.84-8.47,0-13.39-5.66-13.39-15.48v-1.71c4.99-1.43,6.63-2.11,10.38-4.16-.07,1.43-.14,2.18-.14,3.61,0,2.11,.14,3.27,.55,4.3,.48,1.23,1.64,2.05,3.01,2.05,2.94,0,4.92-2.39,4.92-5.87,0-2.32-1.23-4.57-3.35-6-1.84-1.16-4.51-1.77-8.13-1.77-3.35,0-6.15,.34-10.04,1.36l.07,12.07v1.77c0,4.16-.27,5.66-1.3,7.09-1.3,1.91-3.89,3-6.97,3-5.06,0-10.86-2.11-14.76-5.39-2.8-2.39-4.44-5.59-4.44-8.87,0-3.68,2.25-7.71,6.35-11.32,2.73-2.39,5.6-4.09,10.18-6.07v-8.05l-5.19,.14-6.63-.14c-.21,0-.82,0-1.43,.07l-.14-10.71c2.19,.41,4.99,.61,9.36,.61h2.6q.96-.07,1.37-.07v-2.18c0-5.11-.07-6.68-.48-9.21h11.82c-.34,2.46-.41,4.02-.41,8.52v2.18c4.65-.48,8.88-1.29,12.5-2.32l.34,10.77Zm-23.71,21.62c-3.21,1.5-5.67,4.16-5.67,6.07,0,.82,.48,1.5,1.5,2.18,.96,.61,2.25,1.09,3.07,1.09,.89,0,1.09-.48,1.09-2.73v-6.61Zm38.19-15c-3.48-6.07-7.38-10.71-13.46-16.02l9.02-6.07c5.81,4.71,10.04,9.48,13.46,15.07l-9.02,7.02Z"/><path class="cls-6" d="M291.4,161.64c1.98-2.66,2.8-3.82,4.17-6.55,1.71-3.21,2.32-4.84,3.21-8.25l8.74,4.02c-2.39,8.25-3.96,11.8-7.58,17.39l-8.54-6.62Zm53.63-42.69c1.78,0,3.01-.07,4.17-.21-.07,.89-.14,1.98-.14,3.89v20.25c0,1.7,.07,3,.14,3.89-.34,0-.61-.07-.75-.07-.96-.07-1.09-.07-1.57-.07,4.51,5.52,6.28,8.05,10.25,14.73l-9.22,6.41c-2.05-4.5-3.21-6.61-5.47-10.43-1.3,9.75-3.21,10.77-19.67,10.77-12.36,0-14.69-1.16-14.69-7.36v-7.91c0-2.25-.07-3.55-.34-4.98h10.73c-.21,.96-.27,2.11-.27,4.98v4.02c0,1.77,.55,1.98,4.85,1.98,6.01,0,7.72-.2,8.54-.95,.55-.55,.96-2.11,1.09-4.57l-5.6,4.43c-2.32-2.8-4.17-4.5-7.99-7.64l5.12-3.55h-17.62c-2.6,0-4.51,.07-6.76,.21v-8.39c1.84,.2,3.28,.27,6.76,.27h32.11v-2.39h-31.08c-2.53,0-4.17,.07-6.76,.21v-7.64c2.32,.27,2.87,.27,6.76,.27h31.08v-2.25h-29.99c-1.5,0-2.87,.07-4.65,.14v-2.05c-2.6,2.05-4.17,3.21-6.9,4.91-1.84-4.36-2.8-6.07-5.4-9.34,4.51-2.46,6.76-4.02,9.77-6.61,3.62-3.07,6.49-6.55,8.68-10.37l11.96,1.64c-.82,1.23-.89,1.29-1.57,2.32h10.59c3.96,0,5.4-.07,6.83-.34l5.4,5.05q-.61,.48-3.28,3.41c-.82,.96-1.91,2.11-3.14,3.34h8.06Zm-20.63,0c1.16-1.16,1.57-1.64,2.53-2.93h-13.39c-1.3,1.43-1.64,1.77-2.8,2.93h13.66Zm5.53,27.62c3.01,2.25,3.69,2.8,5.53,4.57l-2.25,1.77c2.53,1.02,4.85,1.71,7.79,2.25-.89-1.23-1.37-1.98-2.73-3.89l8.13-4.71h-16.46Z"/><path class="cls-6" d="M416.48,119.91l-.68,.14c-1.16,.21-3.42,.68-6.76,1.36l-5.12,.82c.55,1.23,1.02,2.45,1.57,3.55,8.74-1.5,13.39-2.59,15.92-3.61l1.02,10.02c-1.5,.2-1.71,.2-8.4,1.64-.61,.14-.82,.14-4.1,.75,2.46,4.43,4.78,7.77,8.74,12.55l-10.04,5.18c-4.03-2.11-8.4-3-14.35-3-7.58,0-11.75,1.57-11.75,4.43,0,1.57,1.37,2.66,4.17,3.21,1.5,.27,4.37,.55,6.56,.55,6.97,0,17.08-1.98,21.79-4.23l1.57,11.52c-1.64,.21-2.12,.27-4.85,.89-6.83,1.5-12.84,2.18-18.79,2.18-3.55,0-7.45-.34-10.66-.96-7.99-1.43-12.84-6.41-12.84-13.02,0-4.77,3.14-9.14,8.13-11.25,4.03-1.7,8.68-2.52,14.62-2.52,3.62,0,6.35,.2,9.43,.82-.89-1.16-1.43-1.98-1.98-2.86l-.75-1.3-.41-.68c-5.4,.68-14.82,1.3-23.5,1.5-4.03,.14-4.3,.14-5.94,.34l-.48-10.09c1.98,.27,3.28,.34,7.04,.34,6.56,0,13.12-.34,18.65-1.02-.27-.68-.82-1.84-1.57-3.55-5.81,.55-9.56,.68-17.83,.68-3.01,.07-3.69,.07-5.12,.14l-.61-9.96c2.39,.21,4.65,.34,7.79,.34,3.89,0,9.15-.2,12.23-.54l-.2-.55c-.14-.34-.41-.95-.75-1.84-.82-2.25-1.09-2.8-1.91-4.43l11.96-1.43c.27,1.98,.75,3.48,2.12,7.09,3.69-.48,7.31-1.09,10.66-1.77-.89-1.98-1.37-2.93-2.53-4.77l6.49-1.71c2.32,3.55,3.76,6.48,5.06,10.57l-3.89,1.23,.34,3.27Zm7.65-17.32c2.19,3,3.69,6.07,4.99,9.96l-6.29,2.05c-1.5-4.36-2.6-6.61-4.78-10.3l6.08-1.71Z"/><path class="cls-6" d="M464.64,148.83c-3.96,8.73-8.54,12.55-14.76,12.55-9.15,0-15.58-8.73-15.58-21.21,0-7.98,2.73-15.21,7.86-20.8,6.01-6.55,14.69-10.02,24.73-10.02,9.15,0,17.21,3.07,22.27,8.39,4.37,4.64,6.69,11.25,6.69,18.96,0,8.87-3.35,16.91-9.09,22.03-4.65,4.16-10.04,6.34-19.61,7.84-1.64-4.91-2.94-7.36-5.81-11.18,6.42-.48,10.66-1.57,14.35-3.48,5.26-2.8,8.2-8.52,8.2-15.82,0-5.8-2.05-10.43-6.01-13.43-1.78-1.36-3.28-1.98-5.74-2.39-1.5,11.73-3.83,20.53-7.51,28.57Zm-11.75-24.96c-4.51,3.82-7.45,10.16-7.45,16.23,0,4.84,1.84,8.66,4.24,8.66,1.71,0,3.48-2.39,5.53-7.57,2.39-6.14,4.37-14.05,5.12-20.8-2.87,.41-5.06,1.43-7.45,3.48Z"/><path class="cls-6" d="M531.52,110.02c0-2.18-.14-3.68-.41-5.25h11.82c-.27,1.5-.41,3.14-.41,5.25v3.21h16.81c4.1,0,6.9-.14,9.43-.48v10.91c-2.46-.27-4.78-.41-9.02-.41h-24.32c-.21,3.55-.21,3.68-.41,5.73h19.95c3.62,0,5.26-.07,7.1-.27-.27,2.52-.27,2.93-.55,9.82-.48,12.34-1.43,19.57-3.28,23.66-1.91,4.5-4.99,6-12.02,6-1.71,0-4.71-.14-8.74-.34-.34-4.02-.96-6.48-2.8-10.57,3.83,.48,7.04,.75,9.97,.75,3.48,0,4.37-.89,5.06-5.05,.55-3.14,.96-8.18,1.09-14.18h-17.22c-.89,4.02-2.6,8.52-4.78,12.68-3.55,6.68-8.47,11.93-16.46,17.46-2.19-3.89-4.17-6.27-7.65-9.07,10.32-6.14,14.96-11.66,17.56-20.8,1.3-4.77,1.91-9.41,1.98-15.82h-8.47c-3.55,0-6.76,.14-9.5,.41v-10.91c2.94,.34,5.67,.48,9.43,.48h15.85v-3.21Z"/><path d="M584.12,164.99c-.07-.68-.07-1.09-.34-2.66-1.3-7.98-1.84-14.53-1.84-21.69,0-6.14,.41-12.14,1.3-18.07q.34-2.05,1.84-9.75c.48-2.39,.75-4.36,.75-5.05v-.27l9.22,.95c-2.8,5.93-5.4,22.37-5.46,34.23q-.07,2.46-.07,3.55v1.09c0,.55,0,.68-.07,1.43h.07q.34-.75,.82-1.98c.14-.48,.48-1.23,.82-2.32q.61-1.43,1.3-3.07c.14-.2,.21-.41,.82-2.11l5.67,2.52c-4.03,7.91-6.76,16.37-6.76,20.87,0,.48,0,.54,.14,1.84l-8.2,.48Zm15.44-44.67c3.21,.82,6.76,1.09,12.36,1.09,2.39,0,3.89,0,6.29-.14,0-4.02-.07-7.43-.07-10.23,0-1.5-.07-2.52-.21-3.27l8.54-.2c-.34,1.91-.48,5.18-.48,10.02v3.14c3.55-.41,6.56-.95,9.22-1.64q.41-.14,1.5-.55l.55-.14,.27,7.71c-.68,.07-.75,.07-1.98,.34-2.32,.48-5.88,1.09-9.5,1.5v1.5c0,3.82,0,3.96,.68,15.41,4.92,2.32,6.63,3.27,10.73,6.21,.89,.61,1.23,.82,1.91,1.16l-3.28,8.25c-1.16-1.36-3.21-3.14-5.12-4.36-2.32-1.5-3.89-2.52-4.3-2.8v.96c0,1.5-.21,2.86-.55,3.82-1.57,4.02-6.35,6.41-12.98,6.41-8.95,0-14.41-4.23-14.41-11.18s5.81-11.25,14.07-11.25c2.53,0,4.24,.27,6.08,.95-.21-1.7-.27-5.05-.55-14.52-2.73,.07-4.37,.14-6.15,.14-2.53,0-5.26-.07-8.47-.34-.96,0-1.71-.07-2.05-.07-.61-.07-1.02-.07-1.16-.07-.34-.07-.55-.07-.68-.07-.07,0-.21,0-.41,.07l.14-7.84Zm13.87,28.57c-4.37,0-7.1,1.71-7.1,4.5,0,2.52,2.46,4.23,6.28,4.23,2.53,0,4.51-.75,5.53-2.11,.61-.82,.89-1.84,.89-3.68v-1.84c-2.25-.82-3.55-1.09-5.6-1.09Z"/><path d="M667.67,139.07c-4.3,3.55-6.22,6.41-6.22,9.34,0,4.43,4.99,6.34,16.53,6.34,8.13,0,17.08-1.23,21.45-2.86l.75,9.34c-1.16,.07-1.57,.07-3.01,.27-8.2,1.16-12.57,1.5-18.44,1.5-7.45,0-13.46-.75-17.08-2.25-5.88-2.25-8.74-6.07-8.74-11.39s2.66-9.68,8.81-14.8l5.94,4.5Zm-10.38-28.03c5.26,1.23,11.34,1.71,20.49,1.71,8.68,0,13.53-.34,18.03-1.3l.27,7.64c-4.1,1.84-11.48,6.41-18.24,11.32l-5.94-4.71c3.55-2.25,6.9-4.3,10.04-6.07-3.01,.41-5.94,.55-10.25,.55-3.48,0-9.15-.34-12.5-.82-1.37-.14-1.57-.21-2.53-.21l.61-8.11Z"/><path d="M714.12,116.16c3.14,.82,7.72,1.16,14.76,1.16,1.3-5.46,1.78-8.32,1.91-11.25l9.15,.75q-.41,1.23-1.09,3.96-1.23,5.11-1.64,6.41c5.19-.14,12.91-.68,17.42-1.23,5.06-.61,6.35-.89,8.74-1.57l.41,8.25c-1.57,.07-2.19,.14-3.96,.34-9.91,1.09-15.92,1.57-24.46,1.77-1.43,4.84-4.03,11.39-5.4,13.84v.14c4.58-2.93,10.52-4.43,17.22-4.43,12.02,0,19.2,5.18,19.2,13.84,0,10.09-9.77,16.64-24.73,16.64-6.08,0-12.09-.82-17.42-2.39,0-3.89-.07-5.25-.68-8.66,6.15,2.18,11.89,3.27,17.62,3.27,9.91,0,16.33-3.48,16.33-8.93,0-4.23-4.1-6.55-11.48-6.55-5.06,0-10.31,1.23-14.69,3.34-2.53,1.23-3.76,2.25-4.99,3.96l-8.27-2.86c1.02-1.64,2.19-3.75,3.21-6.14,2.25-5.18,4.78-11.8,5.74-15.14-3.62-.07-6.69-.2-10.32-.48-.96-.07-1.64-.07-2.19-.07h-.55l.14-7.98Z"/><path d="M795.28,120.18c-1.02,3.75-2.19,10.09-3.07,16.78q-.14,.95-.34,1.98l.14,.14c3.96-3.82,12.43-6.48,20.7-6.48,11.61,0,19.26,5.73,19.26,14.46,0,4.98-2.66,10.02-7.04,13.16-4.44,3.21-10.11,4.64-18.04,4.64-5.87,0-9.63-.48-17.42-2.39-.07-4.23-.2-5.59-1.02-8.8,6.7,2.32,12.57,3.41,18.38,3.41,9.63,0,16.33-4.02,16.33-9.82,0-4.57-4.3-7.3-11.54-7.3-6.08,0-12.43,1.84-17.01,4.98-1.23,.89-1.64,1.3-3.07,2.93l-8.61-.27c.21-1.23,.21-1.5,.55-4.09,.55-4.23,1.64-11.8,2.87-19.84,.27-1.64,.34-2.46,.41-3.96l8.54,.48Zm.89-13.37c4.71,2.59,17.76,6.48,25.48,7.57l-2.8,7.84c-11.68-2.66-18.85-4.91-26.64-8.52l3.96-6.89Z"/><path d="M859.29,148.76c.07-1.43,.14-2.11,.14-2.93q0-.75-.21-4.84l-.96-23.18c-.14-3-.34-6.41-.62-8.32h11.2c-.21,1.84-.48,5.39-.62,8.32l-.96,23.18q-.14,3.96-.14,4.91c0,.82,0,1.5,.14,2.86h-7.99Zm-.96,14.93v-9.34h9.91v9.34h-9.91Z"/></g><path class="cls-7" d="M964,158.56c-1.28,0-2.56-.49-3.54-1.46-1.95-1.95-1.95-5.12,0-7.07l14.49-14.49-14.88-14.88c-1.95-1.95-1.95-5.12,0-7.07,1.95-1.95,5.12-1.95,7.07,0l18.42,18.42c1.95,1.95,1.95,5.12,0,7.07l-18.02,18.02c-.98,.98-2.26,1.46-3.54,1.46Z"/><g><path class="cls-5" d="M69.85,140.3h50.07v-49.45c27.45,0,49.73,22.08,50.07,49.45,0,.21,.02,.42,.02,.63,0,27.66-22.42,50.08-50.08,50.08s-50.08-22.42-50.08-50.08c0-.21,.01-.42,.02-.63Z"/><path class="cls-3" d="M119.92,93.61c-25.79,0-46.69,20.9-46.69,46.69s20.9,46.69,46.69,46.69,46.69-20.9,46.69-46.69-20.9-46.69-46.69-46.69Zm0,85.93c-21.67,0-39.24-17.57-39.24-39.24s17.57-39.24,39.24-39.24,39.24,17.57,39.24,39.24-17.57,39.24-39.24,39.24Z"/><g><circle cx="119.92" cy="173.87" r="1.4"/><circle cx="103.13" cy="169.38" r="1.4"/><circle cx="90.84" cy="157.09" r="1.4"/><circle cx="86.34" cy="140.3" r="1.4"/><circle cx="90.84" cy="123.51" r="1.4"/><circle cx="103.13" cy="111.22" r="1.4"/><circle cx="119.92" cy="106.73" r="1.4"/><circle cx="136.71" cy="111.22" r="1.4"/><circle cx="148.99" cy="123.51" r="1.4"/><circle cx="153.49" cy="140.3" r="1.4"/><circle cx="148.99" cy="157.09" r="1.4"/><circle cx="136.71" cy="169.38" r="1.4"/></g><circle cx="119.92" cy="140.3" r="1.65"/><rect class="cls-8" x="119.24" y="113.17" width="1.36" height="27.13"/><rect class="cls-2" x="116.61" y="84.43" width="6.61" height="12.84" rx="1.41" ry="1.41"/><path class="cls-1" d="M124.41,76.11h-8.95c-3.44,0-6.23,2.79-6.23,6.23h0c0,3.44,2.79,6.23,6.23,6.23h8.95c3.44,0,6.23-2.79,6.23-6.23h0c0-3.44-2.79-6.23-6.23-6.23Zm4.09,6.23c0,2.57-2.08,4.65-4.65,4.65h-7.83c-2.57,0-4.65-2.08-4.65-4.65h0c0-2.57,2.08-4.65,4.65-4.65h7.83c2.57,0,4.65,2.08,4.65,4.65h0Z"/></g><rect class="cls-6" x="0" y="150" width="52" height="12" rx="6" ry="6"/><g><polygon class="cls-10" points="689.53 0 725.55 45.12 679.53 46 689.53 0"/><polygon class="cls-9" points="679.53 78 334.53 78 344.53 0 689.53 0 679.53 78"/><g><path class="cls-4" d="M407.64,20l3.82,1.43-.48,.72c3.5,3.15,5.52,4.93,6.05,5.31,2.23,1.53,4.03,2.68,5.41,3.44,1.48,.77,3.45,1.53,5.89,2.29-1.27,1.34-2.18,2.39-2.71,3.16-1.7-.67-4.09-1.91-7.16-3.73v2.87h-20.06v-2.58c-2.76,1.91-4.88,3.16-6.37,3.73-.85-1.24-1.54-2.2-2.07-2.87,2.44-1.15,4.08-2.05,4.94-2.72,2.33-1.53,4.3-3.01,5.89-4.45,2.97-2.68,5.25-4.88,6.85-6.6Zm-13.21,18.79h24.83l.48-.43,3.02,1.43-3.18,7.6c-.64,1.34-1.59,3.44-2.87,6.31l-3.82-1.15,2.55-5.31,2.39-5.31h-23.4v-3.16Zm14.33-14.49l-5.41,4.88c-.85,.77-2.23,1.86-4.14,3.3h18.94c-2.34-1.62-4.03-2.92-5.09-3.87-1.38-1.05-2.81-2.49-4.3-4.3Z"/><path class="cls-4" d="M437.73,52.7V23.01h24.04v29.11h-4.14v-1.86h-15.92v2.44h-3.98Zm19.9-17.78v-8.6h-15.92v8.6h15.92Zm0,12.19v-9.18h-15.92v9.18h15.92Z"/><path class="cls-4" d="M480.08,29.03v24.38h-3.82v-18.21c-1.27,2.1-2.28,3.59-3.02,4.45-.32-.67-.64-1.29-.96-1.86-.21-.29-.64-.72-1.27-1.29,1.91-2.49,3.45-4.88,4.62-7.17,1.17-2.2,2.39-5.21,3.66-9.04l3.82,1.43c-.32,.96-.72,1.99-1.19,3.08-.48,1.1-1.09,2.51-1.83,4.23Zm8.6-3.3v-5.02h3.66v5.02h5.09v-5.02h3.5v5.02h6.37v3.01h-6.37v3.87h7.64v3.01h-27.22v-3.01h7.32v-3.87h-5.89v-3.01h5.89Zm-3.66,27.82v-15.49h19.9v15.35h-3.82v-1.43h-12.42v1.58h-3.66Zm16.08-10.18v-2.73h-12.42v2.73h12.42Zm0,5.88v-2.87h-12.42v2.87h12.42Zm-3.66-16.64v-3.87h-5.09v3.87h5.09Z"/><path class="cls-4" d="M519.24,36.06c.85,.48,1.86,.96,3.02,1.43-1.17,3.44-2.07,5.5-2.71,6.17-.64,.67-1.43,1-2.39,1-.85,0-1.59-.43-2.23-1.29-.96-1.62-1.43-4.21-1.43-7.74,0-3.82,.69-8.18,2.07-13.05l4.14,1c-1.17,3.83-1.91,6.93-2.23,9.32-.32,2.49-.37,4.35-.16,5.59,0,.19,.05,.34,.16,.43h.32c.1,0,.21-.05,.32-.14,.21-.38,.58-1.29,1.11-2.73Zm.64,16.92c-.53-1.43-1.06-2.63-1.59-3.59,3.5-.57,6.21-1.38,8.12-2.44,1.8-1.05,3.13-2.53,3.98-4.45,.85-2.01,1.27-4.97,1.27-8.89,0-2.77-.27-6.45-.8-11.04l4.3-.29c.32,3.83,.48,7.46,.48,10.9,0,4.78-.53,8.42-1.59,10.9-.85,1.91-2.23,3.54-4.14,4.88-2.65,1.82-6,3.16-10.03,4.02Z"/><path class="cls-4" d="M552.99,21.43l-.48,6.17,1.43-.57,1.43,2.29c-1.27,.96-2.34,1.86-3.18,2.73v2.01c4.35-3.16,7.48-5.21,9.39-6.17,1.7-.76,3.08-1.15,4.14-1.15,1.59,0,2.81,.38,3.66,1.15,.85,.96,1.27,2.2,1.27,3.73,0,1.82-.05,3.83-.16,6.02-.32,4.69-.48,7.12-.48,7.31,0,1.05,.16,1.82,.48,2.29,.1,.38,.42,.57,.96,.57,.42,0,.8-.19,1.11-.57,.21-.29,.58-1.62,1.11-4.02,1.27,.86,2.49,1.34,3.66,1.43-.64,2.68-1.43,4.45-2.39,5.31-.96,.86-2.12,1.29-3.5,1.29-1.59,0-2.87-.48-3.82-1.43-.96-1.05-1.43-2.58-1.43-4.59s.05-3.78,.16-5.59c.32-4.21,.48-6.4,.48-6.6,0-1.24-.21-2.06-.64-2.44-.43-.38-.96-.57-1.59-.57-.74,0-1.59,.29-2.55,.86-2.02,1.15-5.36,3.49-10.03,7.03v5.74l.16,8.89h-3.82l.16-11.47-6.37,6.02-2.23-3.01,8.6-7.17,.16-5.31c-2.55,.57-4.67,.96-6.37,1.15l-.32-3.3c1.59-.09,3.87-.38,6.85-.86v-7.31l4.14,.14Z"/><path class="cls-4" d="M592.63,34.91c2.23-.67,3.66-1.05,4.3-1.15,.64-.09,1.75-.14,3.34-.14,3.29,0,5.99,.81,8.12,2.44,2.01,1.72,3.02,3.83,3.02,6.31,0,2.87-1.17,5.21-3.5,7.03-2.34,2.01-5.63,3.01-9.87,3.01-3.4,0-6.16-.67-8.28-2.01-1.38-.86-2.07-2.05-2.07-3.59,0-1.05,.53-2.01,1.59-2.87,1.17-.86,2.55-1.29,4.14-1.29,1.91,0,3.71,.53,5.41,1.58,1.49,1.15,2.6,2.77,3.34,4.88,2.02-.86,3.24-1.72,3.66-2.58,.96-1.15,1.43-2.49,1.43-4.02,0-1.62-.74-3.11-2.23-4.45-1.38-1.15-3.5-1.72-6.37-1.72-1.7,0-3.34,.24-4.94,.72-1.49,.57-3.18,1.39-5.09,2.44-1.27,.86-3.24,2.39-5.89,4.59l-2.87-2.87c8.28-6.31,14.7-11.52,19.26-15.63-4.14,.86-8.44,1.43-12.9,1.72l-.32-3.44c8.81-.48,14.54-1.1,17.19-1.86l2.39,3.01c-.85,.48-2.02,1.29-3.5,2.44-.96,.77-2.55,2.03-4.78,3.8-2.23,1.77-3.77,2.99-4.62,3.66Zm3.98,14.77h2.23c-.85-1.62-1.59-2.68-2.23-3.16-1.17-.76-2.18-1.15-3.02-1.15s-1.49,.19-1.91,.57c-.53,.48-.8,.91-.8,1.29,0,.57,.37,1.05,1.11,1.43,1.38,.67,2.92,1,4.62,1Z"/><path class="cls-4" d="M627.49,38.36v4.73h-3.34v-5.74c0-.76,.16-1.34,.48-1.72,.32-.48,.96-.76,1.91-.86,2.12-.48,3.5-1.05,4.14-1.72,.64-.57,.96-1.39,.96-2.44,0-1.24-.48-2.29-1.43-3.16-1.17-.76-2.76-1.15-4.78-1.15-1.91,0-3.45,.53-4.62,1.58-.96,.86-1.43,2.25-1.43,4.16h-4.14c.21-2.77,.9-4.68,2.07-5.74,1.91-1.82,4.62-2.73,8.12-2.73s6.15,.67,7.96,2.01c1.59,1.24,2.39,2.92,2.39,5.02,0,1.53-.48,2.82-1.43,3.87-1.17,1.24-2.76,2.06-4.78,2.44-.85,.1-1.43,.29-1.75,.57-.21,.19-.32,.48-.32,.86Zm-3.98,11.04v-2.72l.64-.57h3.18l.8,.72v2.58l-.8,.72h-3.18l-.64-.72Z"/></g></g></g></g></svg>