<?xml version="1.0" encoding="UTF-8"?><svg id="Layer_2" xmlns="http://www.w3.org/2000/svg" xmlns:xlink="http://www.w3.org/1999/xlink" viewBox="0 0 1047.68 262.54"><defs><style>.cls-1{fill:none;}.cls-2{opacity:.1;}.cls-2,.cls-3{fill:#f9c2ac;}.cls-4{clip-path:url(#clippath);}.cls-5{fill:#f46f25;}.cls-6{fill:#f7cdbc;}.cls-7{fill:#e89877;}.cls-8{fill:#ef9595;}.cls-9{fill:#ef7625;}.cls-10,.cls-11{fill:#fff;}.cls-12{fill:#fcfbfa;}.cls-13{fill:#dd2f2f;}.cls-14{fill:#893311;}.cls-11{stroke:#f46f25;stroke-miterlimit:10;stroke-width:6px;}.cls-15{fill:#d3d3d3;opacity:.5;}</style><clipPath id="clippath"><path class="cls-1" d="M751.15,33.54h185.52c56.89,0,103,46.11,103,103h0c0,56.89-46.11,103-103,103H113.68c-56.89,0-103-46.11-103-103h0c0-56.89,46.11-103,103-103h217.55"/></clipPath></defs><g id="Layer_1-2"><g><path class="cls-15" d="M759.15,56.54h185.52c56.89,0,103,46.11,103,103h0c0,56.89-46.11,103-103,103H121.68c-56.89,0-103-46.11-103-103h0c0-56.89,46.11-103,103-103h217.55"/><path class="cls-11" d="M751.15,33.54h185.52c56.89,0,103,46.11,103,103h0c0,56.89-46.11,103-103,103H113.68c-56.89,0-103-46.11-103-103h0c0-56.89,46.11-103,103-103h217.55"/><g><path class="cls-9" d="M272.85,125.55c-1.03,.14-1.24,.14-2.65,.42-2.72,.49-7.08,1.03-10.43,1.38l-1.45,6.01c4.1-.9,6.5-1.17,10.05-1.18,8.24-.01,13.9,2.1,16.79,6.2,2.21,3.07,2.78,7.37,1.64,12.09-2.33,9.64-11.25,16.86-20.76,16.87-8.3,0-11.75-5.66-9.37-15.48l.41-1.7c5.23-1.44,7-2.12,11.18-4.17-.41,1.43-.67,2.18-1.01,3.61-.51,2.11-.65,3.27-.5,4.3,.17,1.23,1.11,2.05,2.45,2.05,2.88,0,5.4-2.4,6.24-5.87,.56-2.32-.1-4.58-1.83-6.01-1.52-1.16-3.99-1.77-7.54-1.76-3.28,0-6.11,.35-10.16,1.37l-2.85,12.08-.43,1.77c-1,4.16-1.63,5.66-2.98,7.09-1.73,1.91-4.53,3-7.54,3-4.95,0-10.11-2.11-13.13-5.38-2.16-2.39-2.99-5.58-2.2-8.85,.89-3.68,4.06-7.71,8.93-11.32,3.25-2.39,6.46-4.1,11.42-6.08l1.94-8.06-5.11,.15-6.45-.13c-.21,0-.8,0-1.42,.07l2.45-10.72c2.04,.41,4.73,.6,9.01,.59h2.55c.64-.05,1.09-.08,1.36-.08l.53-2.18c1.24-5.12,1.55-6.69,1.76-9.22l11.58-.03c-.93,2.47-1.38,4.03-2.46,8.54l-.53,2.18c4.67-.49,9.02-1.31,12.82-2.35l-2.28,10.8h0Zm-28.45,21.68c-3.5,1.5-6.55,4.16-7.01,6.07-.2,.82,.11,1.5,.94,2.18,.79,.61,1.94,1.09,2.74,1.09,.87,0,1.18-.48,1.72-2.73l1.6-6.61h0Zm41.06-15.06c-1.94-6.08-4.65-10.72-9.32-16.03l10.33-6.11c4.56,4.71,7.56,9.49,9.56,15.09l-10.56,7.05h0Z"/><path class="cls-9" d="M294.08,162.4c2.59-2.67,3.68-3.83,5.69-6.56,2.46-3.22,3.46-4.85,5.16-8.27l7.62,4.02c-4.36,8.27-6.77,11.83-11.68,17.43l-6.78-6.63h0Zm63.22-42.9c1.76,0,2.99-.08,4.17-.22-.29,.9-.62,1.99-1.09,3.91l-4.96,20.35c-.42,1.72-.67,3.01-.81,3.91-.34,0-.58-.07-.72-.07-.93-.07-1.06-.07-1.53-.07,3.1,5.54,4.23,8.08,6.51,14.79l-10.67,6.44c-.92-4.52-1.55-6.63-2.83-10.47-3.66,9.79-5.8,10.81-22.01,10.81-12.16,0-14.17-1.16-12.66-7.38l1.93-7.93c.55-2.26,.79-3.55,.88-4.99h10.56c-.44,.94-.78,2.11-1.48,4.99l-.98,4.03c-.43,1.78,.06,1.99,4.29,1.98,5.92,0,7.65-.21,8.65-.97,.67-.54,1.46-2.12,2.19-4.59l-6.6,4.45c-1.6-2.8-3.01-4.51-6-7.66l5.91-3.57-17.34,.02c-2.56,0-4.45,.07-6.7,.22l2.04-8.41c1.76,.2,3.16,.27,6.58,.26l31.63-.04,.58-2.4-30.62,.04c-2.49,0-4.12,.08-6.7,.22l1.86-7.67c2.22,.27,2.76,.27,6.59,.26l30.63-.05,.55-2.26-29.56,.05c-1.48,0-2.84,.08-4.61,.15l.5-2.06c-3.06,2.06-4.88,3.23-7.98,4.94-.75-4.37-1.28-6.09-3.04-9.36,5.03-2.48,7.63-4.05,11.22-6.65,4.31-3.09,7.99-6.59,11.08-10.44l11.39,1.62c-1.11,1.24-1.2,1.31-2.11,2.34l10.45-.03c3.91,0,5.35-.08,6.82-.36l4.1,5.07c-.48,.32-1.84,1.47-4.07,3.44-1.04,.97-2.4,2.13-3.92,3.36l7.96-.02h-.04Zm-20.35,.05c1.43-1.17,1.95-1.65,3.21-2.95l-13.2,.03c-1.63,1.44-2.05,1.78-3.47,2.95l13.46-.03Zm-1.29,27.73c2.42,2.26,2.95,2.81,4.33,4.58l-2.65,1.78c2.24,1.02,4.36,1.71,7.13,2.25-.58-1.23-.87-1.99-1.74-3.9l9.17-4.74h-16.23s-.01,.02-.01,.02Z"/><path class="cls-9" d="M427.82,120.33l-.71,.14c-1.2,.2-3.56,.69-7.05,1.38l-5.28,.84c.24,1.24,.4,2.48,.68,3.57,9.04-1.53,13.93-2.63,16.69-3.67l-1.46,10.1c-1.54,.2-1.75,.2-8.74,1.66-.64,.14-.85,.14-4.25,.76,1.35,4.46,2.82,7.82,5.57,12.63l-11.24,5.22c-3.47-2.12-7.59-3.01-13.48-3.01-7.5,0-12.02,1.59-12.72,4.46-.39,1.58,.7,2.67,3.34,3.23,1.42,.27,4.19,.55,6.36,.55,6.9,0,17.41-2,22.63-4.27l-1.28,11.6c-1.68,.21-2.17,.27-5.03,.9-7.14,1.51-13.26,2.19-19.15,2.19-3.51,0-7.29-.34-10.31-.95-7.55-1.44-11.12-6.44-9.5-13.09,1.17-4.79,5.35-9.19,10.8-11.32,4.41-1.71,9.21-2.54,15.09-2.55,3.59,0,6.24,.19,9.14,.81-.6-1.17-.93-1.99-1.26-2.88l-.43-1.3-.24-.68c-5.52,.69-15,1.33-23.64,1.54-4.02,.15-4.29,.15-5.96,.35l2-10.15c1.89,.27,3.16,.34,6.88,.33,6.49-.01,13.07-.36,18.72-1.06-.1-.68-.36-1.85-.68-3.57-5.89,.56-9.64,.7-17.82,.72-3,.08-3.67,.08-5.1,.15l1.84-10.02c2.32,.2,4.52,.33,7.63,.33,3.85,0,9.11-.22,12.25-.57l-.07-.54c-.06-.34-.17-.97-.29-1.85-.26-2.27-.39-2.82-.8-4.46l12.21-1.47c-.22,2-.11,3.51,.35,7.14,3.78-.49,7.52-1.12,11.02-1.81-.39-1.99-.64-2.95-1.33-4.8l6.87-1.74c1.43,3.58,2.13,6.53,2.41,10.65l-4.17,1.25-.47,3.3-.04-.04Zm11.88-17.49c1.43,3.02,2.17,6.12,2.5,10.04l-6.76,2.08c-.41-4.4-.95-6.66-2.2-10.38l6.46-1.73h0Z"/><path class="cls-9" d="M468.56,149.42c-6.11,8.81-11.61,12.66-17.8,12.66-9.09,0-13.32-8.79-10.24-21.37,1.97-8.05,6.48-15.34,12.97-21,7.61-6.63,17.11-10.15,27.12-10.18,9.13-.02,16.41,3.06,20.14,8.43,3.21,4.68,3.88,11.36,1.95,19.16-2.21,8.95-7.56,17.09-14.56,22.26-5.67,4.2-11.58,6.4-21.49,7.92-.41-4.95-1.1-7.42-3.01-11.27,6.51-.49,11.01-1.59,15.16-3.52,5.94-2.83,10.3-8.61,12.11-15.98,1.44-5.86,.55-10.54-2.65-13.56-1.44-1.37-2.78-1.99-5.13-2.4-4.41,11.85-8.92,20.74-14.58,28.86h.01Zm-5.51-25.19c-5.44,3.86-9.93,10.27-11.44,16.39-1.2,4.88-.32,8.73,2.07,8.73,1.7,0,4.05-2.41,7.38-7.64,3.9-6.2,7.84-14.19,10.26-21.01-2.96,.42-5.4,1.45-8.28,3.53h0Z"/><path class="cls-9" d="M545.05,110.08c.55-2.21,.78-3.73,.91-5.32l11.85-.03c-.65,1.52-1.2,3.18-1.73,5.32l-.81,3.25,16.87-.04c4.12,0,6.97-.16,9.6-.51l-2.75,11.07c-2.4-.27-4.7-.41-8.96-.4l-24.4,.04c-1.1,3.59-1.13,3.73-1.85,5.8l20.01-.03c3.63,0,5.3-.08,7.2-.29-.9,2.56-1.01,2.97-3.02,9.95-3.58,12.5-6.35,19.82-9.23,23.97-3.04,4.55-6.51,6.07-13.55,6.07-1.71,0-4.68-.14-8.67-.34,.67-4.07,.66-6.55-.16-10.69,3.71,.48,6.86,.76,9.8,.75,3.49,0,4.6-.9,6.34-5.11,1.34-3.18,3.01-8.28,4.65-14.36l-17.26,.02c-1.9,4.07-4.74,8.63-7.96,12.84-5.22,6.76-11.46,12.07-20.82,17.65-1.22-3.93-2.6-6.33-5.38-9.16,11.84-6.21,17.86-11.79,22.75-21.04,2.49-4.83,4.27-9.53,5.94-16.02l-8.48,.02c-3.55,0-6.8,.15-9.61,.43l2.73-11.04c2.86,.34,5.55,.47,9.32,.46l15.88-.04,.8-3.25h0Z"/><path d="M582.92,165.33c.09-.59,.17-.94,.28-2.3,.6-6.9,1.54-12.57,3.08-18.76,1.32-5.31,2.96-10.51,5-15.64,.49-1.18,1.71-4,3.68-8.45,.93-2.07,1.58-3.78,1.73-4.38l.06-.23,7.72,.81c-3.68,5.14-9.45,19.39-12.06,29.65-.39,1.42-.67,2.44-.82,3.07l-.23,.94c-.12,.48-.15,.59-.37,1.24h.06c.3-.43,.68-1,1.13-1.71,.22-.42,.68-1.07,1.2-2.01,.55-.83,1.15-1.71,1.78-2.66,.16-.17,.26-.36,1.16-1.83l4.33,2.18c-5.16,6.85-9.33,14.17-10.29,18.06-.1,.42-.12,.47-.27,1.59l-7.13,.42h-.02Zm22.86-38.66c2.58,.71,5.58,.93,10.39,.93,2.06,0,3.35,0,5.43-.13,.87-3.48,1.54-6.44,2.15-8.87,.32-1.3,.48-2.18,.53-2.84l7.4-.19c-.71,1.66-1.53,4.49-2.58,8.69l-.68,2.72c3.15-.36,5.86-.83,8.3-1.44,.26-.08,.73-.24,1.41-.48l.5-.12-1.44,6.69c-.6,.06-.66,.06-1.78,.3-2.1,.42-5.29,.95-8.5,1.31l-.32,1.3c-.83,3.31-.86,3.43-2.74,13.35,3.73,2.01,4.99,2.83,7.89,5.36,.63,.53,.88,.71,1.39,1l-4.61,7.15c-.7-1.18-2.08-2.72-3.46-3.77-1.67-1.3-2.8-2.18-3.09-2.42l-.2,.82c-.32,1.3-.79,2.48-1.3,3.31-2.22,3.48-6.84,5.55-12.53,5.55-7.69,0-11.47-3.66-9.97-9.67s7.4-9.74,14.51-9.75c2.18,0,3.58,.23,5.02,.82,.2-1.48,.86-4.38,2.66-12.59-2.36,.06-3.79,.13-5.32,.13-2.18,0-4.51-.05-7.21-.28-.83,0-1.46-.06-1.75-.06-.51-.06-.86-.06-.98-.06-.28-.06-.46-.06-.57-.06-.06,0-.18,0-.37,.06l1.81-6.79v.02Zm5.75,24.73c-3.76,0-6.47,1.48-7.07,3.9-.54,2.18,1.2,3.66,4.48,3.66,2.17,0,4.04-.65,5.21-1.83,.7-.71,1.16-1.59,1.56-3.19l.4-1.59c-1.76-.71-2.82-.94-4.58-.94h0Z"/><path d="M660.38,142.84c-4.48,3.08-6.75,5.57-7.38,8.11-.96,3.84,2.93,5.5,12.89,5.49,7.02,0,15.01-1.08,19.14-2.49l-1.38,8.11c-1.02,.06-1.37,.06-2.65,.23-7.33,1.01-11.19,1.3-16.25,1.31-6.42,0-11.44-.65-14.24-1.95-4.57-1.95-6.22-5.26-5.07-9.87s4.39-8.4,10.8-12.85l4.15,3.9h-.01Zm-2.88-24.31c4.27,1.06,9.42,1.46,17.33,1.44,7.49-.01,11.76-.32,15.88-1.16l-1.43,6.64c-3.95,1.61-11.31,5.59-18.22,9.86l-4.11-4.08c3.55-1.96,6.9-3.74,9.99-5.29-2.68,.36-5.25,.48-8.96,.48-3,0-7.83-.28-10.61-.69-1.15-.12-1.31-.17-2.14-.17l2.28-7.04h0Z"/><path d="M705.52,122.87c2.54,.71,6.44,1,12.53,.99,2.32-4.76,3.36-7.25,4.12-9.8l7.78,.64c-.42,.71-1.02,1.87-1.81,3.45-1.46,2.97-2.4,4.84-2.83,5.58,4.53-.13,11.36-.61,15.38-1.1,4.52-.54,5.71-.79,7.94-1.38l-1.45,7.19c-1.38,.06-1.93,.13-3.52,.3-8.84,.96-14.16,1.39-21.61,1.57-2.3,4.21-5.98,9.91-7.7,12.05l-.03,.12c4.61-2.55,10.09-3.86,15.89-3.87,10.44-.01,15.53,4.49,13.63,12.03-2.21,8.78-12.13,14.48-25.09,14.48-5.27,0-10.3-.71-14.56-2.07,.85-3.38,1.08-4.56,1.3-7.52,4.85,1.89,9.58,2.84,14.55,2.83,8.59,0,14.92-3.03,16.11-7.78,.93-3.68-2.13-5.7-8.52-5.69-4.38,0-9.21,1.08-13.46,2.92-2.46,1.07-3.75,1.96-5.18,3.45l-6.53-2.48c1.24-1.43,2.71-3.26,4.12-5.34,3.08-4.51,6.72-10.27,8.28-13.17-3.12-.06-5.75-.16-8.83-.4-.82-.06-1.41-.06-1.88-.06h-.48s1.86-6.94,1.86-6.94h-.02Z"/><path d="M775.11,126.25c-1.71,3.27-4.13,8.8-6.36,14.63-.22,.56-.47,1.13-.73,1.73l.09,.12c4.29-3.33,12.25-5.66,19.45-5.67,10.12-.01,15.54,4.98,13.61,12.6-1.1,4.34-4.53,8.74-9.03,11.48-4.58,2.8-9.83,4.05-16.73,4.05-5.11,0-8.28-.42-14.62-2.08,.87-3.68,1.05-4.87,1.05-7.66,5.31,2.02,10.19,2.96,15.24,2.96,8.39,0,15.11-3.51,16.38-8.57,1.01-3.99-2.14-6.36-8.45-6.36-5.3,0-11.23,1.61-15.9,4.36-1.27,.78-1.71,1.13-3.32,2.55l-7.42-.23c.44-1.07,.5-1.31,1.38-3.56,1.41-3.69,4.02-10.28,6.86-17.3,.6-1.43,.84-2.15,1.23-3.45l7.33,.41h-.04Zm3.72-11.67c3.53,2.25,14.06,5.62,20.54,6.56l-4.17,6.85c-9.6-2.3-15.35-4.26-21.33-7.39l4.97-6.02Z"/><path d="M824.65,151.12c.38-1.25,.59-1.84,.77-2.56,.11-.44,.41-1.85,.9-4.23l4.3-20.26c.54-2.62,1.12-5.6,1.3-7.27l9.8-.02c-.58,1.61-1.62,4.72-2.38,7.28l-5.98,20.27c-.67,2.31-1.07,3.74-1.21,4.29-.18,.72-.33,1.31-.51,2.5h-6.99s0,0,0,0Zm-4.14,13.04l2.07-8.15h8.65s-2.07,8.15-2.07,8.15h-8.65Z"/></g><g class="cls-4"><polygon class="cls-2" points="77.68 240 -31.32 240 81.68 112 154.68 167 77.68 240"/></g><g><path class="cls-5" d="M724.78,65H351.68l6.68-55.03c.69-5.69,5.52-9.97,11.26-9.97h350.26c6.81,0,12.08,5.95,11.26,12.71l-6.35,52.29Z"/><g><path class="cls-10" d="M442.41,27.61c-1.92,1.59-4.05,3.12-6.2,4.41-.56-.9-1.66-2.29-2.52-3.08,5.71-3.15,11.21-8.56,13.67-12.8l5.21,.33c-.13,.36-.43,.6-.86,.66,3.18,4.35,8.92,8.96,13.87,11.34-1,.96-1.89,2.29-2.62,3.48-2.12-1.23-4.31-2.75-6.34-4.45v2.82h-14.2v-2.72Zm15.13,5.94l.83-.1,2.69,.9c-.07,.26-.23,.53-.36,.76-1.39,3.25-3.81,8.49-5.87,12.74l-4.25-1.16c1.49-2.89,3.18-6.47,4.48-9.39h-17.22v-3.75h19.7Zm-1.96-6.9c-2.45-2.16-4.68-4.45-6.14-6.5-1.39,2.06-3.48,4.35-5.94,6.5h12.07Z"/><path class="cls-10" d="M473.63,18.43h22.66v28.83h-4.28v-2.16h-14.26v2.19h-4.11V18.43Zm18.38,4.01h-14.26v7.26h14.26v-7.26Zm-14.26,18.64h14.26v-7.43h-14.26v7.43Z"/><path class="cls-10" d="M508.63,28.51c-1.19,2.02-2.45,3.88-3.78,5.44-.27-.53-.8-1.59-1.16-2.09,3.05-3.45,6.04-9.22,7.9-14.96l2.62,.86c-.07,.23-.33,.37-.73,.33-.8,2.22-1.73,4.45-2.79,6.57l.76,.23c-.03,.2-.23,.36-.66,.43v22.23h-2.16V28.51Zm20.9-.73h6.07v2.06h-23.05v-2.06h6.04v-4.81h-4.61v-1.99h4.61v-3.98l2.82,.2c-.03,.23-.23,.4-.66,.43v3.35h6.6v-3.98l2.85,.2c-.03,.23-.23,.4-.66,.46v3.32h4.81v1.99h-4.81v4.81Zm-13.34,19.84v-14.93h16.35v14.76h-2.22v-1.39h-11.98v1.56h-2.16Zm14.13-13h-11.98v3.78h11.98v-3.78Zm-11.98,9.52h11.98v-3.92h-11.98v3.92Zm2.39-21.17v4.81h6.6v-4.81h-6.6Z"/><path class="cls-10" d="M544.33,36.27c-.63-1.79-.93-4.38-.96-6.24,0-3.12,.33-6.73,1.13-10.95l3.32,.56c-.13,.43-.53,.53-.96,.56-.66,2.75-1.13,6.97-1.13,9.65,0,.73,.03,1.33,.1,1.79,.66-1.62,1.89-3.88,2.59-5.14,.3,.43,.96,1.13,1.29,1.46-2.46,4.41-3.18,5.67-3.18,7.07,0,.27,.03,.53,.1,.83l-2.29,.4Zm17.78-18.05c-.03,.4-.3,.56-.86,.73,.23,2.89,.56,7.7,.56,11.51-.03,6.4-2.36,12.17-12.34,16.32-.36-.53-1.16-1.43-1.66-1.92,9.06-3.45,11.48-8.92,11.48-14.36,0-4.08-.4-8.89-.76-12.44l3.58,.17Z"/><path class="cls-10" d="M571.73,24.3c2.69,0,5.14-.23,6.24-.5,.07-1.99,.1-3.08,.23-6.1l3.42,.27c-.07,.37-.36,.6-.93,.66-.13,1.46-.27,3.52-.33,4.74l1.03,.4c-.8,1.59-1.13,3.55-1.33,4.74,3.65-3.42,7.7-5.84,10.45-5.84,3.12,0,4.68,2.19,4.68,6.04,0,.43-.03,.86-.07,1.29-.23,2.92-.56,7.07-.56,9.72,0,1.99,.23,3.05,1.63,3.05,1,0,2.99-1,4.41-2.22,.07,.66,.33,2.02,.46,2.52-1.69,1.23-3.68,2.16-5.21,2.16-2.79,0-3.72-1.66-3.72-5.11,0-1.72,.6-10.85,.6-10.88,0-2.89-1-4.18-2.62-4.18-2.49,0-6.67,2.69-10.12,6.34,0,4.81,0,10.71,.03,15.23h-2.32c.03-1.92,0-11.38,.03-13.5-1.16,2.32-3.42,5.34-6.04,7.99l-1.19-2.09c2.75-2.59,5.84-6.6,7.3-10.02,0-.96,.03-1.86,.07-2.92-1.16,.26-3.58,.53-6.1,.56l-.03-2.36Z"/><path class="cls-10" d="M615.99,31.26c2.19-1.13,5.61-1.92,8.23-1.92,5.27,0,8.59,3.09,8.59,7.96,0,6-5.27,9.32-11.94,9.32-4.31,0-7.26-1.72-7.26-4.64,0-2.46,2.42-4.45,5.44-4.45,3.75,0,6.27,2.99,6.77,6,2.65-1,4.58-3.12,4.58-6.2,0-3.58-2.65-5.87-6.83-5.87-4.98,0-9.85,2.22-12.04,4.35-1,.93-2.29,2.32-3.18,3.35l-1.69-1.69c2.99-3.12,12.47-12.17,16.98-16.39-1.92,.27-8.56,.53-12.34,.66-.1,.23-.43,.43-.7,.5l-.27-2.82c4.48-.03,13.04-.37,15.46-.73l.5-.23,1.76,2.16c-.17,.13-.46,.26-.8,.3-2.35,1.92-8.66,7.83-11.25,10.32v.03Zm4.58,13.27c1,0,2.16-.13,3.02-.33-.36-2.55-2.26-4.71-4.71-4.71-1.73,0-3.25,.93-3.25,2.46,0,2.02,2.75,2.59,4.94,2.59Z"/><path class="cls-10" d="M647.68,37.77c-.23-1.29-.27-1.49-.27-2.06,0-1.86,.86-3.58,3.15-5.64,2.39-2.12,3.65-3.42,3.65-5.31,0-2.06-1.82-3.55-5.51-3.55-2.02,0-4.11,.53-5.51,1.29l-.9-1.92c1.82-.93,4.38-1.53,6.7-1.53,5.74,0,7.96,2.69,7.96,5.44,0,2.55-1.66,4.35-4.28,6.57-1.92,1.62-2.75,3.15-2.75,4.84,0,.27,.03,.53,.07,.83l.17,1.03h-2.49Zm-.6,5.31c0-1.69,1.19-2.22,1.96-2.22,1.16,0,1.92,.9,1.92,2.16,0,1.03-.66,2.06-1.96,2.06-1.09,0-1.92-.9-1.92-1.99Z"/></g></g><rect class="cls-13" x="0" y="146.78" width="52" height="6" rx="3" ry="3"/><g><path class="cls-8" d="M956.76,151.23l14.49-14.49-14.88-14.88"/><path class="cls-8" d="M927.76,151.23l14.49-14.49-14.88-14.88"/></g><g><circle class="cls-12" cx="113.68" cy="143" r="41"/><g><path class="cls-7" d="M114.15,96.1c-25.79,0-46.69,20.9-46.69,46.69s20.9,46.69,46.69,46.69,46.69-20.9,46.69-46.69-20.9-46.69-46.69-46.69Zm0,85.93c-21.67,0-39.24-17.57-39.24-39.24s17.57-39.24,39.24-39.24,39.24,17.57,39.24,39.24-17.57,39.24-39.24,39.24Z"/><g><circle cx="114.15" cy="176.37" r="1.4"/><circle cx="97.36" cy="171.87" r="1.4"/><circle cx="85.08" cy="159.58" r="1.4"/><circle cx="80.58" cy="142.79" r="1.4"/><circle cx="85.08" cy="126.01" r="1.4"/><circle cx="97.36" cy="113.72" r="1.4"/><circle cx="114.15" cy="109.22" r="1.4"/><circle cx="130.94" cy="113.72" r="1.4"/><circle cx="143.23" cy="126.01" r="1.4"/><circle cx="147.73" cy="142.79" r="1.4"/><circle cx="143.23" cy="159.58" r="1.4"/><circle cx="130.94" cy="171.87" r="1.4"/></g><circle cx="114.15" cy="142.79" r="1.65"/><rect class="cls-14" x="113.47" y="115.66" width="1.36" height="27.13"/><rect class="cls-6" x="110.84" y="86.92" width="6.61" height="12.84" rx="1.41" ry="1.41"/><path class="cls-3" d="M118.65,78.6h-8.95c-3.44,0-6.23,2.79-6.23,6.23h0c0,3.44,2.79,6.23,6.23,6.23h8.95c3.44,0,6.23-2.79,6.23-6.23h0c0-3.44-2.79-6.23-6.23-6.23Zm4.09,6.23c0,2.57-2.08,4.65-4.65,4.65h-7.83c-2.57,0-4.65-2.08-4.65-4.65h0c0-2.57,2.08-4.65,4.65-4.65h7.83c2.57,0,4.65,2.08,4.65,4.65h0Z"/></g></g><rect class="cls-7" x="17.67" y="133.78" width="38.67" height="6" rx="3" ry="3"/><polygon class="cls-3" points="717.68 86 350.68 86 352.68 71 719.68 71 717.68 86"/></g></g></svg>