<?xml version="1.0" encoding="UTF-8"?><svg id="Layer_2" xmlns="http://www.w3.org/2000/svg" viewBox="0 0 699.77 552.72"><defs><style>.cls-1{fill:#f7c27c;}.cls-2{fill:#04819e;}.cls-3{fill:#f15a24;}.cls-4{fill:#fff;}.cls-5{fill:#ffdc8a;}.cls-6{fill:#fff0a6;}.cls-7{fill:#ffce76;}.cls-8{fill:#f0c562;}.cls-9{fill:#333;}.cls-10{fill:#ccc;}.cls-11{fill:#0690ba;}.cls-12{fill:#0e95cc;}.cls-13{fill:#2eceab;}.cls-14{fill:#3c3c3b;}</style></defs><g id="Layer_1-2"><g><g><g><path class="cls-3" d="M313.34,0h131.08c20.59,0,37.3,16.71,37.3,37.3V104.16h-205.68V37.3c0-20.59,16.71-37.3,37.3-37.3Z"/><g><path class="cls-4" d="M308.65,84.49c3.29-3.06,6.06-8.35,6.06-8.35l1.92,2s-2.17,4.55-5.66,8.41l-2.32-2.06Zm5.72-10.49c-2.37-2.09-5.23-3.72-5.23-3.72l1.49-2.12s2.77,1.54,5.46,3.66l-1.72,2.17Zm.83-6.01c-2.43-2.32-4.98-3.89-4.98-3.89l1.49-2.12s2.6,1.63,5.2,3.83l-1.72,2.17Zm12.38,16.67c2.97,0,3.09-.23,3.09-.94v-2.2h-9.89v6.09h-2.8v-19.13h2.35c-.71-1.34-1.77-2.92-3.09-4.26l2.12-1.63c1.74,1.86,3.43,4.66,3.43,4.66l-1.89,1.23h3.35v-6.61h2.77v6.61h3.52l-1.94-1.26s2.06-2.06,3.06-4.66l2.46,1.29c-1.09,2-2.37,3.86-3.09,4.63h2.46v15.24c0,3.37-1.49,3.55-4.75,3.66l-1.14-2.72Zm3.09-13.61h-9.89v2.74h9.89v-2.74Zm0,5.15h-9.89v2.92h9.89v-2.92Z"/><path class="cls-4" d="M361.75,87.6c-3.29-.37-8.12-1.66-8.12-1.66l1.52-1.74h-9.47l1.37,1.72s-4.23,1.26-7.92,1.69l-1.63-2.63c4.6-.03,7.49-.77,7.49-.77h-4.38v-8.66c-.6,.26-1.17,.46-1.72,.63l-1.29-2.55c3.57-.57,5.46-1.43,6.52-2.46h-5.66c1.06-3.03,1.34-5,1.34-5h5.86v-1.29h-6.86v-1.83h6.83v-1.17h2.83v1.17h3.72v-1.17h2.83v1.17h6.58v4.95h-6.58v1.34h7.69c0,4.35-.49,4.75-2.72,4.98v9.89h-4.12s2.92,.57,7.35,.8l-1.49,2.6Zm-19.56-19.62s-.14,.74-.34,1.34h3.35c.17-.4,.31-1.03,.31-1.34h-3.32Zm14.87,6.95h-13.5v1.37h13.5v-1.37Zm0,2.86h-13.5v1.49h13.5v-1.49Zm0,2.97h-13.5v1.66h13.5v-1.66Zm-4.86-9.61h-4.83c-.4,.63-1.03,1.49-1.83,2.03h6.66v-2.03Zm0-3.17h-3.86c0,.31-.09,.94-.2,1.34h4.06v-1.34Zm0-3.12h-3.72v1.29h3.72v-1.29Zm6.58,0h-3.75v1.29h3.75v-1.29Zm1.12,6.29h-4.86v2.03h2.2l-.46-.8c3.03,0,3.12-.34,3.12-1.12v-.11Z"/><path class="cls-4" d="M386.52,87.6v-.97h-12.07v.97h-2.77v-9.44c-2.17,.89-3.86,1.52-3.86,1.52l-1.43-2.66s6.18-1.29,11.64-4.26h-10.89v-2.49h10.18v-2.8h-7.06v-2.46h7.06v-3.15h2.77v3.15h5.75v1.72c1.06-1.06,2-2.14,2.8-3.32l2.52,1.37c-1.63,1.92-3.72,3.97-5.66,5.49h6.09v2.49h-9.12c-1.32,.83-2.83,1.72-4.18,2.37h11.01v12.47h-2.77Zm0-10.18h-12.07v2.26h12.07v-2.26Zm0,4.49h-12.07v2.43h12.07v-2.43Zm-6.43-14.44v2.8h1.37c1.2-.8,2.55-1.86,3.6-2.8h-4.98Z"/><path class="cls-4" d="M395.96,86.52v-2.57h5.75c-.49-1.46-1.2-3.09-2.23-4.95l2.92-1.09c.97,2.09,1.72,4.03,2.32,6.03h2.03v-6.52h-9.12v-2.57h9.12v-3.37h-6.21v-1.69c-1.09,.71-2.32,1.32-3.72,1.89l-1.54-3.03c8.32-3,11.35-6.78,11.35-6.78h2.74s4.69,4.35,11.64,6.32l-1.57,2.97c-1.2-.43-2.37-.94-3.35-1.54v1.86h-6.55v3.37h9.18v2.57h-9.18v6.52h2c.74-1.4,1.6-3.63,2.26-6.03l2.92,1.09c-.69,2.09-1.46,3.86-2.06,4.95h5.72v2.57h-24.42Zm18.7-17.61c-4.2-2.2-6.46-4.49-6.46-4.49,0,0-1.97,2.14-6.03,4.49h12.5Z"/><path class="cls-4" d="M434.19,85.03c2.2,0,2.32-.23,2.32-.94v-4h-1.52s-2.43,.06-2.43-2.55v-1.63h-1.23c-.11,2.29-.43,3.86-2.55,5.06h6.89v1.89h-2.46v3.66h-2.49v-3.66h-2.46v-1.89l-.86-1.34v7.98h-2.55v-13.84h14.21v10.32c0,2.97-1.26,3.29-3.89,3.52l-1-2.57Zm-9.21-20.02v-2.29h14.13v2.29h-14.13Zm1.03,7.43v-6.06h12.1v6.06h-12.1Zm1.4,3.46v3.29c1.72-.63,1.89-1.6,1.97-3.29h-1.97Zm7.95-7.64h-6.61v2.29h6.61v-2.29Zm1.14,7.64h-2.06v1.34c0,.77,.57,.83,.74,.83h1.32v-2.17Zm11.12,11.58s-.06-1.03-.17-2.06c-3.49,.83-7.58,1.6-7.58,1.6l-.57-2.72s1.52-.09,3.8-.46v-5.83h-3.26v-11.21h3.26v-4.95h2.66v4.95h3.43v11.21h-3.43v5.43l1.32-.4s-.2-1.37-.37-2.09l2.03-.54c.63,2.52,1.14,6.52,1.14,6.52l-2.26,.54Zm-4.23-18.3h-1.26v6.46h1.26v-6.46Zm3.49,0h-1.37v6.46h1.37v-6.46Z"/></g></g><g><g><path class="cls-4" d="M380.58,24.89c-1.82,0-3.62,.51-5.21,1.46-.09,.05-.12,.17-.07,.26,.03,.06,.1,.09,.16,.09,.03,0,.07-.01,.1-.03,1.53-.92,3.27-1.41,5.02-1.41s3.49,.49,5.02,1.41c.09,.05,.21,.03,.26-.07,.05-.09,.02-.21-.07-.26-1.6-.96-3.4-1.46-5.22-1.46Z"/><path class="cls-4" d="M386.9,24.32c.07,0,.13-.03,.16-.09,.05-.09,.03-.21-.07-.26-1.96-1.19-4.18-1.81-6.42-1.81s-4.47,.62-6.42,1.81c-.09,.05-.12,.17-.07,.26,.05,.09,.17,.11,.26,.07,1.9-1.15,4.05-1.75,6.23-1.75s4.33,.61,6.23,1.75c.03,.02,.07,.03,.1,.03Z"/><path class="cls-4" d="M388.11,21.93c.07,0,.13-.03,.16-.09,.05-.09,.03-.21-.07-.26-2.32-1.4-4.96-2.15-7.63-2.15s-5.3,.74-7.63,2.15c-.09,.05-.12,.17-.07,.26,.05,.09,.17,.12,.26,.07,2.27-1.37,4.84-2.09,7.43-2.09s5.17,.72,7.43,2.09c.03,.02,.07,.03,.1,.03Z"/><path class="cls-4" d="M389.32,19.53c.07,0,.13-.03,.16-.09,.05-.09,.03-.21-.07-.26-2.69-1.63-5.75-2.49-8.84-2.49s-6.14,.86-8.84,2.49c-.09,.05-.12,.17-.07,.26s.17,.12,.26,.07c2.63-1.59,5.62-2.43,8.64-2.43s6.01,.84,8.64,2.43c.03,.02,.07,.03,.1,.03Z"/><path class="cls-4" d="M399.35,29.01v14.91c0,.11-.09,.19-.19,.19h-1.4v1.5c0,.1-.09,.19-.19,.19h-1.36v1.59c0,.1-.09,.19-.19,.19h-37.16c-.11,0-.19-.09-.19-.19v-14.91c0-.1,.08-.19,.19-.19h1.36v-1.59c0-.1,.09-.19,.19-.19h1.4v-1.49c0-.1,.08-.19,.19-.19h37.16c.1,0,.19,.09,.19,.19Z"/></g><g><path class="cls-13" d="M389.16,36.19c0,1.09,.89,1.97,1.97,1.97s1.97-.88,1.97-1.97-.89-1.97-1.97-1.97-1.97,.88-1.97,1.97Zm8.17,5.89h-16.75v-1.05c2.03,0,3.69-2.09,3.69-4.67s-1.66-4.66-3.69-4.66v-.86h16.75v11.24Z"/><path class="cls-13" d="M373.45,38.6h-6.57c-.11,0-.2,.09-.2,.19s.09,.19,.2,.19h6.57c.11,0,.19-.09,.19-.19s-.08-.19-.19-.19Zm-6.57-1.24h6.57c.11,0,.19-.08,.19-.19s-.08-.19-.19-.19h-6.57c-.11,0-.2,.09-.2,.19,0,.11,.09,.19,.2,.19Zm0-1.62h6.57c.11,0,.19-.08,.19-.19s-.08-.19-.19-.19h-6.57c-.11,0-.2,.09-.2,.19,0,.11,.09,.19,.2,.19Zm0-1.62h6.57c.11,0,.19-.08,.19-.19,0-.11-.08-.19-.19-.19h-6.57c-.11,0-.2,.08-.2,.19s.09,.19,.2,.19Zm13.7,7.95h-16.75v-11.24h16.75v.86c-2.03,0-3.69,2.09-3.69,4.66s1.66,4.67,3.69,4.67v1.05Z"/><path class="cls-14" d="M391.13,38.16c1.08,0,1.97-.88,1.97-1.97s-.89-1.97-1.97-1.97-1.97,.88-1.97,1.97,.89,1.97,1.97,1.97Zm0-3.55c.87,0,1.59,.71,1.59,1.59s-.71,1.59-1.59,1.59-1.59-.71-1.59-1.59,.71-1.59,1.59-1.59Z"/><path class="cls-14" d="M384.27,36.36c0-2.57-1.66-4.66-3.69-4.66s-3.69,2.09-3.69,4.66,1.66,4.67,3.69,4.67,3.69-2.09,3.69-4.67Zm-7,0c0-2.36,1.49-4.29,3.31-4.29s3.31,1.92,3.31,4.29-1.48,4.29-3.31,4.29-3.31-1.92-3.31-4.29Z"/><path class="cls-14" d="M380.58,24.89c-1.82,0-3.62,.51-5.21,1.46-.09,.05-.12,.17-.07,.26,.03,.06,.1,.09,.16,.09,.03,0,.07-.01,.1-.03,1.53-.92,3.27-1.41,5.02-1.41s3.49,.49,5.02,1.41c.09,.05,.21,.03,.26-.07,.05-.09,.02-.21-.07-.26-1.6-.96-3.4-1.46-5.22-1.46Z"/><path class="cls-14" d="M386.9,24.32c.07,0,.13-.03,.16-.09,.05-.09,.03-.21-.07-.26-1.96-1.19-4.18-1.81-6.42-1.81s-4.47,.62-6.42,1.81c-.09,.05-.12,.17-.07,.26,.05,.09,.17,.11,.26,.07,1.9-1.15,4.05-1.75,6.23-1.75s4.33,.61,6.23,1.75c.03,.02,.07,.03,.1,.03Z"/><path class="cls-14" d="M373.45,33.75h-6.57c-.11,0-.2,.08-.2,.19s.09,.19,.2,.19h6.57c.11,0,.19-.08,.19-.19,0-.11-.08-.19-.19-.19Z"/><path class="cls-14" d="M373.45,35.36h-6.57c-.11,0-.2,.09-.2,.19,0,.11,.09,.19,.2,.19h6.57c.11,0,.19-.08,.19-.19s-.08-.19-.19-.19Z"/><path class="cls-14" d="M373.45,36.98h-6.57c-.11,0-.2,.09-.2,.19,0,.11,.09,.19,.2,.19h6.57c.11,0,.19-.08,.19-.19s-.08-.19-.19-.19Z"/><path class="cls-14" d="M373.45,38.6h-6.57c-.11,0-.2,.09-.2,.19s.09,.19,.2,.19h6.57c.11,0,.19-.09,.19-.19s-.08-.19-.19-.19Z"/><path class="cls-14" d="M388.11,21.93c.07,0,.13-.03,.16-.09,.05-.09,.03-.21-.07-.26-2.32-1.4-4.96-2.15-7.63-2.15s-5.3,.74-7.63,2.15c-.09,.05-.12,.17-.07,.26,.05,.09,.17,.12,.26,.07,2.27-1.37,4.84-2.09,7.43-2.09s5.17,.72,7.43,2.09c.03,.02,.07,.03,.1,.03Z"/><path class="cls-14" d="M389.32,19.53c.07,0,.13-.03,.16-.09,.05-.09,.03-.21-.07-.26-2.69-1.63-5.75-2.49-8.84-2.49s-6.14,.86-8.84,2.49c-.09,.05-.12,.17-.07,.26s.17,.12,.26,.07c2.63-1.59,5.62-2.43,8.64-2.43s6.01,.84,8.64,2.43c.03,.02,.07,.03,.1,.03Z"/><path class="cls-14" d="M363.64,42.46h33.88c.1,0,.19-.08,.19-.19v-11.63c0-.1-.09-.19-.19-.19h-33.88c-.11,0-.19,.09-.19,.19v11.63c0,.11,.08,.19,.19,.19Zm.19-11.63h33.5v11.24h-33.5v-11.24Z"/><path class="cls-14" d="M399.16,28.82h-37.16c-.11,0-.19,.09-.19,.19v1.49h-1.4c-.1,0-.19,.09-.19,.19v1.59h-1.36c-.11,0-.19,.09-.19,.19v14.91c0,.1,.08,.19,.19,.19h37.16c.1,0,.19-.09,.19-.19v-1.59h1.36c.1,0,.19-.09,.19-.19v-1.5h1.4c.1,0,.19-.08,.19-.19v-14.91c0-.1-.09-.19-.19-.19Zm-3.33,18.37h-36.78v-14.53h1.16v12.94c0,.1,.09,.19,.19,.19h35.42v1.39Zm1.55-1.78h-36.78v-14.53h1.21v13.03c0,.11,.08,.19,.19,.19h35.37v1.31Zm1.6-1.69h-36.78v-14.52h36.78v14.52Z"/></g></g></g><g><g><path class="cls-1" d="M552.62,30.81h101.1c20.59,0,37.3,16.71,37.3,37.3v33.9h-175.7v-33.9c0-20.59,16.71-37.3,37.3-37.3Z"/><g><path class="cls-9" d="M601.07,88c-3.95-2.82-5.01-6.86-5.28-8.81h-1.33v6.14c1.49-.36,2.65-.84,2.65-.84v1.81s-2.36,1.01-5.57,1.64l-.27-1.7c-1.14,.29-3.91,.99-6.94,1.51l-.63-1.98c1.16-.13,2.19-.27,3.09-.44v-5.68h-2.63v-1.68h2.63v-2.06h-1.96v-.99c-.15,.13-.29,.25-.46,.38l-.97-2.02c2.63-1.75,3.47-3.98,3.47-3.98h1.75s1.2,1.77,3.62,2.99l-1.03,2.06c-2.08-1.49-3.28-3.11-3.28-3.11,0,0-.82,1.51-2.31,2.99h5.22v1.68h-2.04v2.06h2.71v1.68h-2.71v5.34c1.98-.4,3.01-.76,3.01-.76v1.66c.27-.04,.5-.11,.74-.15v-16.07h8.79v9.51h-3.64c.13,.65,.38,1.49,.72,2.31,1.28-.84,2.04-2,2.04-2l1.45,1.49s-1.18,1.22-2.73,2.1c.63,1.05,1.41,1.94,3.18,3.01l-1.26,1.89Zm-16.22-3.34s-.34-1.85-.93-3.62l1.68-.67c.59,1.91,.93,3.76,.93,3.76l-1.68,.53Zm4.16-1.28c.57-1.54,.93-3.24,.93-3.24l1.68,.57s-.4,1.64-1.09,3.32l-1.51-.65Zm10.29-11.88h-4.84v2.02h4.84v-2.02Zm0,3.62h-4.84v2.29h4.84v-2.29Z"/><path class="cls-9" d="M607.13,88v-8.03c-.95,.84-1.62,1.35-1.62,1.35l-1.07-1.94s3.11-1.79,5.32-5.32l1.79,1.07c-.74,1.14-1.49,2.23-2.31,2.99v9.89h-2.1Zm-2.31-14.13s2.94-1.87,4.56-4.75l1.81,.99c-2,3.43-5.15,5.47-5.15,5.47l-1.22-1.7Zm10.16,11.97c3.03,0,3.34-.06,3.34-1.14v-7.07h-6.29v-1.89h11.53v1.89h-3.07v7.05c0,2.31-.48,3.24-4.67,3.24l-.84-2.08Zm-2.12-13.65v-1.89h9.7v1.89h-9.7Z"/></g><g><g><path class="cls-4" d="M619.27,53.96v-1.51h-.85v-1.51h-2.87v-1.04h-.56c.51-4.72,.51-9.51,0-14.23h.56v-1.04h1.35v-1.87h1.31v-2.04l-14.52-8.74-14.52,8.74v2.04h1.31v1.87h1.35v1.04h.56c-.51,4.72-.51,9.51,0,14.23h-.56v1.04h-2.87v1.51h-.85v1.51h-.97v1.8h33.08v-1.8h-.97Zm-17.92-4.06h-.56v1.04h-3.14v-1.04h-.56c.51-4.72,.51-9.51,0-14.23h.56v-1.04h3.14v1.04h.56c-.51,4.72-.51,9.51,0,14.23Zm8.95,0h-.56v1.04h-3.14v-1.04h-.56c.51-4.72,.51-9.51,0-14.23h.56v-1.04h3.14v1.04h.56c-.51,4.72-.51,9.51,0,14.23Zm-15.97-19.51l9.37-5.64,1.2,.72,8.17,4.91h-18.74Z"/><polygon class="cls-4" points="613.07 30.39 594.33 30.39 603.7 24.75 604.9 25.48 613.07 30.39"/></g><g><polygon class="cls-5" points="619.95 55.48 587.45 55.48 587.45 54.26 588.13 54.26 619.27 54.26 619.95 54.26 619.95 55.48"/><polygon class="cls-8" points="618.98 53.97 588.42 53.97 588.42 52.75 588.98 52.75 618.42 52.75 618.98 52.75 618.98 53.97"/><path class="cls-5" d="M617.93,30.88v1.59h-28.46v-1.59l14.23-8.56,14.23,8.56Zm-24.64-.2h20.83l-10.34-6.22-.07-.05-10.42,6.27Z"/><polygon class="cls-8" points="616.62 32.77 616.62 34.35 615.56 34.35 609.75 34.35 606.6 34.35 600.8 34.35 597.65 34.35 591.84 34.35 590.78 34.35 590.78 32.77 616.62 32.77"/><polygon class="cls-13" points="610.04 34.64 615.26 34.64 615.26 35.39 614.97 35.39 610.33 35.39 610.04 35.39 610.04 34.64"/><polygon class="cls-13" points="615.26 50.95 610.04 50.95 610.04 50.2 610.33 50.2 614.97 50.2 615.26 50.2 615.26 50.95"/><polygon class="cls-13" points="601.38 35.39 601.09 35.39 601.09 34.64 606.31 34.64 606.31 35.39 606.02 35.39 601.38 35.39"/><polygon class="cls-13" points="606.31 50.95 601.09 50.95 601.09 50.2 601.38 50.2 606.02 50.2 606.31 50.2 606.31 50.95"/><polygon class="cls-5" points="618.13 52.46 589.27 52.46 589.27 51.24 591.84 51.24 597.65 51.24 600.8 51.24 606.6 51.24 609.75 51.24 615.56 51.24 618.13 51.24 618.13 52.46"/><polygon class="cls-13" points="592.14 34.64 597.36 34.64 597.36 35.39 597.07 35.39 592.43 35.39 592.14 35.39 592.14 34.64"/><polygon class="cls-13" points="592.43 50.2 597.07 50.2 597.36 50.2 597.36 50.95 592.14 50.95 592.14 50.2 592.43 50.2"/><path class="cls-14" d="M603.7,24.41l-10.42,6.27h20.83l-10.34-6.22-.07-.05Zm9.37,5.98h-18.74l9.37-5.64,1.2,.72,8.17,4.91Z"/><path class="cls-14" d="M603.66,25.85v.16c-.11,0-.22,.02-.33,.05s-.2,.08-.29,.15-.15,.15-.21,.26-.08,.24-.08,.4,.02,.29,.08,.4c.05,.11,.12,.19,.21,.26,.09,.07,.18,.12,.29,.17,.11,.04,.22,.08,.33,.12v1.43c-.16,0-.28-.02-.38-.06-.1-.05-.17-.09-.24-.14-.06-.05-.1-.1-.14-.14s-.07-.06-.1-.06c-.04,0-.07,.02-.1,.06-.03,.04-.05,.08-.05,.12,0,.05,.02,.1,.07,.16,.05,.06,.11,.12,.2,.17s.19,.1,.32,.15c.12,.04,.26,.06,.42,.06v.18s.01,.05,.03,.07c.02,.02,.05,.02,.08,.02,.02,0,.05,0,.07-.02,.02-.02,.04-.04,.04-.07v-.19c.25-.03,.45-.13,.61-.29,.16-.15,.24-.38,.24-.68,0-.17-.02-.31-.07-.43-.05-.11-.11-.21-.2-.29-.08-.08-.17-.14-.27-.19s-.2-.09-.31-.13v-1.25c.1,0,.17,.02,.24,.03,.07,.02,.13,.04,.17,.06,.05,.02,.08,.04,.12,.06s.06,.02,.08,.02c.05,0,.08-.02,.11-.07s.04-.08,.04-.12c0-.04-.02-.08-.07-.12-.02-.02-.05-.03-.07-.05s-.06-.03-.1-.05c-.07-.02-.15-.05-.25-.07s-.18-.02-.27-.02v-.15s-.01-.05-.04-.07c-.02-.02-.05-.03-.07-.03-.03,0-.06,.01-.08,.03s-.03,.04-.03,.07Zm0,1.63c-.08-.03-.15-.06-.23-.09-.07-.03-.14-.07-.19-.12-.05-.05-.1-.11-.13-.17-.03-.07-.05-.15-.05-.25s.02-.17,.05-.24c.03-.07,.08-.12,.14-.16,.05-.04,.12-.07,.19-.1s.15-.04,.22-.04v1.17Zm.21,.42c.07,.03,.14,.06,.21,.1,.07,.04,.12,.08,.17,.14,.05,.05,.09,.12,.12,.19,.03,.08,.04,.17,.04,.28,0,.18-.05,.33-.14,.43-.1,.11-.23,.17-.4,.2v-1.35Z"/><path class="cls-14" d="M620.24,53.97h-.97v-1.51h-.85v-1.51h-2.87v-1.04h-.56c.51-4.72,.51-9.51,0-14.23h.56v-1.04h1.35v-1.87h1.31v-2.04l-14.52-8.74-14.52,8.74v2.04h1.31v1.87h1.35v1.04h.56c-.51,4.72-.51,9.51,0,14.23h-.56v1.04h-2.87v1.51h-.85v1.51h-.97v1.8h33.08v-1.8Zm-4.98-3.77v.75h-5.23v-.75h5.23Zm-18.17-.29c.51-4.72,.51-9.51,0-14.23h.56v-1.04h3.14v1.04h.56c-.51,4.72-.51,9.51,0,14.23h-.56v1.04h-3.14v-1.04h-.56Zm8.92-14.52h-4.93v-.75h5.23v.75h-.3Zm-.26,.29c.51,4.72,.51,9.51,0,14.23h-4.11c-.51-4.72-.51-9.51,0-14.23h4.11Zm-4.67,14.52h5.23v.75h-5.23v-.75Zm4.96-.29c.51-4.72,.51-9.51,0-14.23h.56v-1.04h3.14v1.04h.56c-.51,4.72-.51,9.51,0,14.23h-.56v1.04h-3.14v-1.04h-.56Zm8.66,0h-4.11c-.51-4.72-.51-9.51,0-14.23h4.11c.51,4.72,.51,9.51,0,14.23Zm.56-14.52h-5.23v-.75h5.23v.75Zm-25.79-2.91v-1.59l14.23-8.56,14.23,8.56v1.59h-28.46Zm1.31,1.87v-1.58h25.83v1.58h-25.83Zm1.35,1.04v-.75h5.23v.75h-5.23Zm.56,.29h4.11c.51,4.72,.51,9.51,0,14.23h-4.11c-.51-4.72-.51-9.51,0-14.23Zm-.56,14.52h5.23v.75h-5.23v-.75Zm-2.87,1.04h28.87v1.22h-28.87v-1.22Zm-.85,1.51h30.56v1.22h-30.56v-1.22Zm31.53,2.73h-32.5v-1.22h32.5v1.22Z"/></g></g></g><rect class="cls-4" x="507.41" y="100.75" width="192.36" height="76.61"/><path class="cls-1" d="M603.34,163.21c-13.2,0-23.94-10.74-23.94-23.94s10.74-23.94,23.94-23.94,23.94,10.74,23.94,23.94-10.74,23.94-23.94,23.94Zm0-44.13c-11.13,0-20.19,9.06-20.19,20.19s9.06,20.19,20.19,20.19,20.19-9.06,20.19-20.19-9.06-20.19-20.19-20.19Z"/><rect class="cls-4" x="507.41" y="192.77" width="192.36" height="76.61"/><rect class="cls-4" x="507.41" y="283.95" width="192.36" height="78.69"/><rect class="cls-4" x="507.41" y="375.96" width="192.36" height="78.27"/><rect class="cls-4" x="507.41" y="468.81" width="192.36" height="76.61"/><path class="cls-1" d="M603.34,531.26c-13.2,0-23.94-10.74-23.94-23.94s10.74-23.94,23.94-23.94,23.94,10.74,23.94,23.94-10.74,23.94-23.94,23.94Zm0-44.13c-11.13,0-20.19,9.06-20.19,20.19s9.06,20.19,20.19,20.19,20.19-9.06,20.19-20.19-9.06-20.19-20.19-20.19Z"/><path class="cls-10" d="M630.53,251.76h-54.37l27.19-47.09,27.19,47.09Zm-47.88-3.75h41.39l-20.7-35.85-20.7,35.85Z"/><g><path class="cls-3" d="M603.34,347.24c-13.2,0-23.94-10.74-23.94-23.94s10.74-23.94,23.94-23.94,23.94,10.74,23.94,23.94-10.74,23.94-23.94,23.94Zm0-44.13c-11.13,0-20.19,9.06-20.19,20.19s9.06,20.19,20.19,20.19,20.19-9.06,20.19-20.19-9.06-20.19-20.19-20.19Z"/><path class="cls-3" d="M603.34,339.53c-6.46,0-12.3-3.83-14.89-9.75-.9-2.05-1.35-4.24-1.35-6.49,0-1.95,.34-3.87,1.02-5.68,2.36-6.31,8.47-10.55,15.21-10.55,8.95,0,16.24,7.28,16.24,16.24s-7.28,16.24-16.24,16.24Zm0-28.73c-5.19,0-9.89,3.26-11.7,8.12-.52,1.4-.79,2.87-.79,4.37,0,1.74,.35,3.41,1.04,4.99,1.99,4.56,6.48,7.5,11.45,7.5,6.89,0,12.49-5.6,12.49-12.49s-5.6-12.49-12.49-12.49Z"/></g><g><path class="cls-3" d="M603.34,439.67c-13.2,0-23.94-10.74-23.94-23.94s10.74-23.94,23.94-23.94,23.94,10.74,23.94,23.94-10.74,23.94-23.94,23.94Zm0-44.13c-11.13,0-20.19,9.06-20.19,20.19s9.06,20.19,20.19,20.19,20.19-9.06,20.19-20.19-9.06-20.19-20.19-20.19Z"/><path class="cls-3" d="M603.34,431.96c-6.46,0-12.3-3.83-14.89-9.75-.9-2.05-1.35-4.24-1.35-6.49,0-1.95,.34-3.87,1.02-5.68,2.36-6.31,8.47-10.55,15.21-10.55,8.95,0,16.24,7.28,16.24,16.24s-7.28,16.24-16.24,16.24Zm0-28.73c-5.19,0-9.89,3.26-11.7,8.12-.52,1.4-.79,2.87-.79,4.37,0,1.74,.35,3.41,1.04,4.99,1.99,4.56,6.48,7.5,11.45,7.5,6.89,0,12.49-5.6,12.49-12.49s-5.6-12.49-12.49-12.49Z"/></g></g><g><path class="cls-6" d="M207.59,180.57c-6.34,0-11.49-4.85-11.49-10.81v-55.14c0-5.96,5.15-10.81,11.49-10.81H473.98c6.34,0,11.49,4.85,11.49,10.81v55.14c0,5.96-5.15,10.81-11.49,10.81H207.59Z"/><path class="cls-3" d="M473.98,104.99c5.65,0,10.24,4.32,10.24,9.63v55.14c0,5.31-4.59,9.63-10.24,9.63H207.59c-5.65,0-10.24-4.32-10.24-9.63v-55.14c0-5.31,4.59-9.63,10.24-9.63H473.98m0-2.35H207.59c-7.04,0-12.74,5.36-12.74,11.98v55.14c0,6.62,5.7,11.98,12.74,11.98H473.98c7.04,0,12.74-5.36,12.74-11.98v-55.14c0-6.62-5.7-11.98-12.74-11.98h0Z"/></g><g><path class="cls-3" d="M390.54,166.13c-13.2,0-23.94-10.74-23.94-23.94s10.74-23.94,23.94-23.94,23.94,10.74,23.94,23.94-10.74,23.94-23.94,23.94Zm0-44.13c-11.13,0-20.19,9.06-20.19,20.19s9.06,20.19,20.19,20.19,20.19-9.06,20.19-20.19-9.06-20.19-20.19-20.19Z"/><path class="cls-3" d="M390.54,158.43c-6.46,0-12.3-3.83-14.89-9.75-.9-2.05-1.35-4.23-1.35-6.49,0-1.96,.34-3.87,1.02-5.68,2.36-6.31,8.47-10.55,15.21-10.55,8.95,0,16.24,7.28,16.24,16.24s-7.28,16.24-16.24,16.24Zm0-28.73c-5.19,0-9.89,3.26-11.7,8.12-.52,1.4-.79,2.87-.79,4.37,0,1.74,.35,3.42,1.04,4.99,1.99,4.56,6.48,7.5,11.45,7.5,6.89,0,12.49-5.6,12.49-12.49s-5.6-12.49-12.49-12.49Z"/></g><g><path class="cls-6" d="M196.1,272.58v-76.76H474.13c6.25,0,11.34,4.79,11.34,10.67v55.49c0,5.85-5.06,10.6-11.27,10.6H196.1Z"/><path class="cls-3" d="M474.13,197c5.57,0,10.09,4.26,10.09,9.49v55.49c0,5.2-4.5,9.43-10.02,9.43H197.35v-74.41H474.13m0-2.35H194.85v79.11H474.2c6.92,0,12.52-5.27,12.52-11.78v-55.49c0-6.54-5.64-11.84-12.59-11.84h0Z"/></g><g><path class="cls-3" d="M390.54,258.15c-13.2,0-23.94-10.74-23.94-23.94s10.74-23.94,23.94-23.94,23.94,10.74,23.94,23.94-10.74,23.94-23.94,23.94Zm0-44.13c-11.13,0-20.19,9.06-20.19,20.19s9.06,20.19,20.19,20.19,20.19-9.06,20.19-20.19-9.06-20.19-20.19-20.19Z"/><path class="cls-3" d="M390.54,250.44c-6.46,0-12.3-3.83-14.89-9.75-.9-2.05-1.35-4.23-1.35-6.49,0-1.96,.34-3.87,1.02-5.68,2.36-6.31,8.47-10.55,15.21-10.55,8.95,0,16.24,7.28,16.24,16.24s-7.28,16.24-16.24,16.24Zm0-28.73c-5.19,0-9.89,3.26-11.7,8.12-.52,1.4-.79,2.87-.79,4.37,0,1.74,.35,3.42,1.04,4.99,1.99,4.56,6.48,7.5,11.45,7.5,6.89,0,12.49-5.6,12.49-12.49s-5.6-12.49-12.49-12.49Z"/></g><rect class="cls-4" x="194.85" y="287.5" width="291.87" height="77.44"/><path class="cls-1" d="M390.54,350.16c-13.2,0-23.94-10.74-23.94-23.94s10.74-23.94,23.94-23.94,23.94,10.74,23.94,23.94-10.74,23.94-23.94,23.94Zm0-44.13c-11.13,0-20.19,9.06-20.19,20.19s9.06,20.19,20.19,20.19,20.19-9.06,20.19-20.19-9.06-20.19-20.19-20.19Z"/><rect class="cls-4" x="194.85" y="379.1" width="291.87" height="78.27"/><path class="cls-1" d="M390.54,442.17c-13.2,0-23.94-10.74-23.94-23.94s10.74-23.94,23.94-23.94,23.94,10.74,23.94,23.94-10.74,23.94-23.94,23.94Zm0-44.13c-11.13,0-20.19,9.06-20.19,20.19s9.06,20.19,20.19,20.19,20.19-9.06,20.19-20.19-9.06-20.19-20.19-20.19Z"/><g><path class="cls-6" d="M196.1,548.63v-76.76H474.03c6.34,0,11.49,4.85,11.49,10.8v55.15c0,5.96-5.15,10.8-11.49,10.8H196.1Z"/><path class="cls-3" d="M474.03,473.04c5.65,0,10.24,4.32,10.24,9.63v55.15c0,5.31-4.59,9.63-10.24,9.63H197.35v-74.41H474.03m0-2.35H194.85v79.11H474.03c7.04,0,12.74-5.36,12.74-11.98v-55.15c0-6.62-5.7-11.98-12.74-11.98h0Z"/></g><g><path class="cls-3" d="M390.54,534.19c-13.2,0-23.94-10.74-23.94-23.94s10.74-23.94,23.94-23.94,23.94,10.74,23.94,23.94-10.74,23.94-23.94,23.94Zm0-44.13c-11.13,0-20.19,9.06-20.19,20.19s9.06,20.19,20.19,20.19,20.19-9.06,20.19-20.19-9.06-20.19-20.19-20.19Z"/><path class="cls-3" d="M390.54,526.49c-6.46,0-12.3-3.83-14.89-9.75-.9-2.05-1.35-4.23-1.35-6.49,0-1.96,.34-3.87,1.02-5.68,2.36-6.31,8.47-10.55,15.21-10.55,8.95,0,16.24,7.28,16.24,16.24s-7.28,16.24-16.24,16.24Zm0-28.73c-5.19,0-9.89,3.26-11.7,8.12-.52,1.4-.79,2.87-.79,4.37,0,1.74,.35,3.42,1.04,4.99,1.99,4.56,6.48,7.5,11.45,7.5,6.89,0,12.49-5.6,12.49-12.49s-5.6-12.49-12.49-12.49Z"/></g><polygon class="cls-2" points="283.95 184.24 59.54 184.24 59.54 100.14 318.51 100.14 283.95 184.24"/><polygon class="cls-11" points="271.46 184.24 42.88 184.24 42.88 100.14 306.02 100.14 271.46 184.24"/><polygon class="cls-12" points="254.81 184.24 0 184.24 0 100.14 289.37 100.14 254.81 184.24"/><g><path class="cls-4" d="M32.69,130.73v2.25h-11.55v-2.25h11.55Zm-.62,8.74v9.19c0,1.87-.62,2.25-3.3,2.25-.07-.58-.31-1.45-.56-2.01,1.72,.07,1.72,0,1.72-.27v-4.64c-.09,.02-.18,.02-.29,.02h-.89c-1.23,0-1.52-.38-1.52-1.69v-.89h-.78c-.13,1.4-.56,2.61-2.05,3.28-.09-.22-.29-.54-.51-.8v7h-2.05v-11.44h10.24Zm-.96-.8h-8.34v-4.88h8.34v4.88Zm-7.22,2.77v1.94c.69-.42,.94-1.05,1.05-1.94h-1.05Zm5.53,5.13h-1.58v3.5h-1.96v-3.5h-1.52v-1.76h5.06v1.76Zm-4.37-10.99v1.29h3.63v-1.29h-3.63Zm3.7,6.76c0,.36,.04,.38,.22,.38,.62,0,.69,0,.74-.38,.07,.04,.13,.09,.22,.13v-1.03h-1.18v.89Zm11.97,1.87c.8,2.01,1.47,4.53,1.61,6.15l-2.19,.58c-.02-.47-.09-1-.2-1.61-2.36,.4-4.71,.78-6.31,1-.02,.2-.22,.33-.38,.36l-.89-2.76c.98-.09,2.21-.2,3.57-.36v-4.04h-3.05v-9.28h3.03v-4.35l2.88,.16c-.02,.2-.16,.33-.54,.38v3.81h3.21v9.28h-3.21v3.79l1.2-.13c-.22-.85-.49-1.72-.78-2.5l2.05-.49Zm-5.75-7.69v4.75h1.14v-4.75h-1.14Zm4.26,4.75v-4.75h-1.18v4.75h1.18Z"/><path class="cls-4" d="M61.85,147.15h-3.81c2.27,.82,4.84,1.87,6.36,2.61l-3.12,1.2c-1.27-.74-3.57-1.81-5.84-2.65l2.01-1.16h-6.56l2.3,1.11c-.09,.11-.22,.18-.4,.18-.07,0-.16,0-.22-.02-1.76,.91-4.48,1.92-6.73,2.52-.45-.49-1.29-1.4-1.83-1.85,2.12-.42,4.5-1.16,6.09-1.94h-3.28v-9.17h4.71c-.27-.54-.69-1.18-1.05-1.54v.07c-1.92,.58-3.92,1.16-5.26,1.49-.02,.2-.16,.33-.33,.4l-1.11-2.59c1.67-.31,4.08-.87,6.47-1.43l.25,2.03c3.57-.6,4.77-1.56,5.26-3.17h-1.61c-.51,.62-1.11,1.25-1.83,1.81-.47-.47-1.38-1.03-2.01-1.27,1.63-1.12,2.72-2.61,3.32-3.92l2.72,.42c-.04,.2-.2,.31-.49,.31l-.42,.76h6.89l.45-.02,1.47,.16c-.31,1.27-1.72,3.17-2.14,3.66l-2.07-.65c.27-.33,.58-.78,.87-1.25h-2.5c.49,1.45,1.76,2.68,6.31,3.21-.51,.51-1.09,1.54-1.34,2.19-.54-.09-1.03-.18-1.49-.29v8.79Zm-15.94-16.93c1.49,.36,3.63,1.07,4.73,1.61l-1.18,2.03c-1.05-.56-3.17-1.36-4.71-1.83l1.16-1.81Zm3.48,9.37v.96h9.74v-.96h-9.74Zm0,2.48v.96h9.74v-.96h-9.74Zm0,2.47v1h9.74v-1h-9.74Zm11.22-6.56c-1.74-.62-2.79-1.47-3.46-2.43-.76,1.03-1.98,1.83-4.13,2.43h7.58Z"/><path class="cls-4" d="M80.56,147.3c0,.71,.13,.82,.94,.82h2.23c.74,0,.87-.38,.96-2.72,.54,.4,1.69,.82,2.41,1.03-.29,3.26-.98,4.1-3.12,4.1h-2.88c-2.61,0-3.23-.78-3.23-3.21v-4.26h-2.45c-.09,.11-.27,.22-.54,.25-.67,3.28-1.65,6.04-7.29,7.63-.25-.71-.98-1.83-1.54-2.39,4.66-1.05,5.55-2.92,5.95-5.49h-5.35v-2.52h20.09v2.52h-6.18v4.24Zm-10.73-12.35v2.81h-2.72v-5.33h8.07v-2.56l3.5,.18c-.02,.25-.2,.38-.65,.45v1.94h8.21v5.33h-2.85v-2.81h-13.56Zm12.6,4.01h-11.6v-2.41h11.6v2.41Z"/><path class="cls-4" d="M105.4,131.29l2.45,1.47c-.09,.18-.33,.31-.58,.36-1.85,2.19-4.73,4.97-7.4,6.67v8.01c0,2.68-1.14,3.12-6.38,3.12-.16-.8-.65-1.98-1.07-2.74,1.05,.07,2.23,.09,3.05,.09,1.43,0,1.54,0,1.54-.54v-10.19l1.43,.07c1.4-.98,2.85-2.3,3.99-3.52h-13.07v-2.63h15.52l.51-.16Z"/><path class="cls-4" d="M110.46,133.01c1.36,.09,3.5,.09,5.17,.09,.71,0,1.45-.02,2.12-.04-.02-.96-.04-2.05-.04-2.72l3.48,.16c-.02,.25-.22,.4-.58,.47v2.01c2.3-.13,4.62-.31,6.76-.76l.27,2.59c-2.1,.36-4.33,.54-7.02,.67,0,1.05,.02,2.07,.04,3.1,2.01-.16,4.21-.45,5.62-.76l.22,2.47c-1.47,.31-3.7,.54-5.8,.65,.02,1.09,.09,2.1,.13,2.9,2.03,.67,4.1,1.74,6.02,3.14l-1.69,2.43c-1.38-1.25-2.83-2.19-4.24-2.88v.65c-.04,1.83-1.54,3.08-4.66,3.08s-4.97-1.45-4.97-3.57c0-2.25,2.39-3.59,5.08-3.59,.56,0,1.14,.02,1.72,.13,0-.67-.04-1.43-.07-2.23-.6,.02-1.23,.02-1.74,.02-3.03-.04-4.93-.49-4.91-2.14,0-.94,.69-1.78,2.32-2.77l1.9,.98c-.8,.36-1.36,.76-1.36,1.09,0,.36,.29,.54,2.52,.54,.38,0,.78,0,1.2-.02l-.13-3.17c-.69,.02-1.47,.02-2.19,.02-1.54,0-3.79-.04-5.17-.04v-2.5Zm7.69,12.49c-.67-.18-1.38-.31-1.98-.31-1.38,0-2.43,.58-2.43,1.45s1.09,1.36,2.54,1.36c1.32,0,1.9-.56,1.9-1.63l-.02-.87Z"/><path class="cls-4" d="M129.52,132.61c.69,0,1.72-.02,2.34-.07,2.56-.18,12.2-.78,15.97-.96l.04,3.01c-1.98-.07-3.08,.11-4.84,1.36-2.45,1.63-5.49,4.71-5.49,7.25s2.25,4.01,7.14,4.53l-1.38,2.79c-6.33-.76-8.83-3.43-8.83-7.29,0-2.72,2.5-6.24,5.84-8.59-2.77,.25-7.92,.65-9.97,.87-.04,.18-.33,.33-.54,.38l-.29-3.28Zm14.9,5.31c.96,.78,2.12,2.07,2.72,3.01l-1.32,1.05c-.49-.87-1.83-2.36-2.63-3.05l1.23-1Zm2.65-1.98c1,.8,2.14,2.01,2.72,2.99l-1.29,1.03c-.51-.82-1.76-2.3-2.65-3.03l1.23-.98Z"/><path class="cls-4" d="M162.92,135.17c-.09,.2-.36,.38-.67,.38-.91,7.63-3.14,12.04-6.98,12.04-2.43,0-4.19-2.05-4.19-5.84,0-5.71,4.55-9.9,10.24-9.9,6.31,0,9.54,3.75,9.54,8.59,0,5.24-2.7,7.96-8.32,9.39-.42-.67-1.05-1.61-1.78-2.36,5.08-1,7.11-3.43,7.11-6.98s-2.5-6.02-6.6-6.02c-.4,0-.76,.04-1.14,.09l2.79,.62Zm-3.55-.45c-3.39,.8-5.55,3.72-5.55,6.91,0,1.87,.56,3.19,1.54,3.19,2.19,0,3.63-4.88,4.01-10.1Z"/><path class="cls-7" d="M188.41,133.08c-.07,.18-.22,.31-.4,.38-1.25,2.88-2.41,4.95-4.17,7.38,2.19,1.78,5.46,4.75,7.45,6.87l-2.48,2.19c-1.74-2.07-4.93-5.26-6.8-6.85-2.1,2.36-5,5.08-7.89,6.82-.45-.6-1.43-1.63-2.07-2.14,5.55-3.01,10.08-8.36,12.09-13.02h-10.06v-2.68h11.66l.47-.16,2.21,1.2Z"/><path class="cls-7" d="M205.82,146.68c1.16-.02,3.63-.22,4.93-.45,.04,.91,.07,1.9,.11,2.83-1.23,.18-3.66,.29-4.79,.29h-5.02c-3.9,0-5.66-1.61-5.66-5.17v-12.91l3.55,.18c-.04,.25-.2,.45-.69,.51v6.6c2.85-.94,7.09-2.63,9.7-4.1l1.9,2.65c-.09,.04-.25,.09-.38,.09-.11,0-.25-.02-.36-.07-2.12,1.05-7.07,2.99-10.86,4.06v3.03c0,1.83,.82,2.45,2.88,2.45h4.71Zm4.91-16.81c1.34,0,2.41,1.09,2.41,2.43s-1.07,2.43-2.41,2.43-2.43-1.09-2.43-2.43,1.14-2.43,2.43-2.43Zm1.56,2.43c0-.87-.69-1.58-1.56-1.58s-1.58,.71-1.58,1.58,.69,1.58,1.58,1.58,1.56-.76,1.56-1.58Z"/><path class="cls-7" d="M214.61,138.65h18.62v2.81h-17.68c-.13,.22-.45,.38-.76,.42l-.18-3.23Z"/><path class="cls-7" d="M249.51,143.13c-1.85-1.07-4.77-2.45-6.98-3.34v10.37h-2.99v-19.6l3.66,.18c-.02,.27-.2,.49-.67,.56v6.36l.56-.76c2.45,.87,5.8,2.34,8.01,3.5l-1.58,2.74Zm-1.78-11.22c.85,.71,2.07,2.03,2.79,3.03l-1.29,1.09c-.58-.85-1.85-2.32-2.72-3.08l1.23-1.05Zm3.06-1.98c.94,.8,2.16,2.03,2.79,2.97l-1.29,1.07c-.56-.82-1.83-2.25-2.72-3.01l1.23-1.03Z"/></g><g><polygon class="cls-2" points="283.95 276.67 59.54 276.67 59.54 192.57 318.51 192.57 283.95 276.67"/><polygon class="cls-11" points="271.46 276.67 42.88 276.67 42.88 192.57 306.02 192.57 271.46 276.67"/><polygon class="cls-12" points="254.81 276.67 0 276.67 0 192.57 289.37 192.57 254.81 276.67"/><g><path class="cls-7" d="M38.93,235.43h-5.4c-.16,1.27-.51,2.48-1.16,3.57,1.98,1.05,4.59,1.69,7.74,1.94-.58,.58-1.29,1.72-1.63,2.45-3.14-.4-5.69-1.18-7.74-2.45-1.11,1-2.65,1.85-4.71,2.48-.31-.58-1.14-1.65-1.65-2.19,2.01-.42,3.41-1.05,4.39-1.83-.83-.8-1.56-1.72-2.16-2.79l2.34-.71c.36,.6,.8,1.16,1.34,1.65,.31-.67,.51-1.38,.6-2.12h-4.86v-8.38h4.97v-1.25h-5.51v-2.16h-.13c-.51,1.36-1.09,2.74-1.74,4.08l.76,.25c-.04,.18-.22,.33-.58,.38v15.05h-2.61v-11.35c-.58,.87-1.16,1.67-1.78,2.39-.25-.65-.85-2.07-1.23-2.72,1.85-2.1,3.72-5.75,4.86-9.32l2.94,1-.04,.07h13.6v2.34h-5.89v1.25h5.26v8.38Zm-10.41-6.42v1.29h2.5v-1.29h-2.5Zm0,4.46h2.5v-1.34h-2.5v1.34Zm7.8-4.46h-2.65v1.29h2.65v-1.29Zm0,4.46v-1.34h-2.65v1.34h2.65Z"/><path class="cls-7" d="M48.29,231.48v1.16c1.11,.8,3.32,2.68,3.9,3.19l-1.52,2.3c-.56-.69-1.49-1.69-2.39-2.63v7.85h-2.63v-7.98c-.96,2.01-2.12,3.88-3.3,5.15-.27-.8-.91-1.94-1.36-2.63,1.56-1.54,3.14-4.08,4.15-6.4h-3.68v-2.48h4.19v-2.74c-1.2,.29-2.43,.54-3.61,.74-.13-.6-.54-1.52-.82-2.05,3.1-.58,6.53-1.56,8.52-2.65l2.25,2.01c-.11,.13-.27,.13-.58,.13-.87,.4-1.94,.78-3.12,1.14v3.43h3.88v2.48h-3.88Zm8.25-6.27c-.02,.22-.2,.36-.58,.42v12.06h-2.61v-12.67l3.19,.18Zm2.1-2.45l3.26,.16c-.02,.22-.16,.38-.6,.42v16.75c0,2.74-.87,3.28-5.71,3.28-.11-.78-.54-2.01-.94-2.76,1.47,.04,2.92,.04,3.39,.04,.42,0,.6-.13,.6-.56v-17.33Z"/><path class="cls-4" d="M82.21,228.34c-1.74,.47-4.37,.78-6.73,.98,.82,2.5,1.87,3.92,3.86,4.84l-2.01,2.36c-.85-.76-2.1-1.58-4.82-1.54l-.74-2.25c.74,0,1.69,.09,2.27,.2-.58-.78-1.05-1.94-1.49-3.41-.87,.07-1.81,.09-2.94,.09-1.32,0-4.01-.02-5.51-.07l-.02-2.65c1.27,.04,2.92,.09,5.55,.09,.74,0,1.58-.02,2.27-.09-.25-1.23-.45-2.65-.65-4.1l3.77,.09c-.02,.27-.22,.49-.6,.58,.09,1.14,.22,2.16,.42,3.26,2.23-.18,5.13-.67,6.85-1.2l.51,2.83Zm-4.24,14.14c-1.11,0-2.43,.02-4.08,.02-5.42,0-8.16-2.07-8.16-4.82,0-1.38,.65-2.5,1.92-3.84l2.14,1.58c-.87,.76-1.18,1.43-1.18,2.12,0,1.67,2.21,2.27,5.35,2.27,1.78,0,3.1-.07,4.26-.13l-.25,2.79Z"/></g></g><g><polygon class="cls-2" points="283.95 368.69 59.54 368.69 59.54 284.58 318.51 284.58 283.95 368.69"/><polygon class="cls-11" points="271.46 368.69 42.88 368.69 42.88 284.58 306.02 284.58 271.46 368.69"/><polygon class="cls-12" points="254.81 368.69 0 368.69 0 284.58 289.37 284.58 254.81 368.69"/><g><path class="cls-4" d="M25.88,323.5v1.16c1.11,.8,3.32,2.68,3.9,3.19l-1.52,2.3c-.56-.69-1.49-1.69-2.39-2.63v7.85h-2.63v-7.98c-.96,2.01-2.12,3.88-3.3,5.15-.27-.8-.91-1.94-1.36-2.63,1.56-1.54,3.14-4.08,4.15-6.4h-3.68v-2.48h4.19v-2.74c-1.2,.29-2.43,.54-3.61,.74-.13-.6-.54-1.52-.82-2.05,3.1-.58,6.53-1.56,8.52-2.65l2.25,2.01c-.11,.13-.27,.13-.58,.13-.87,.4-1.94,.78-3.12,1.14v3.43h3.88v2.48h-3.88Zm8.25-6.27c-.02,.22-.2,.36-.58,.42v12.06h-2.61v-12.67l3.19,.18Zm2.1-2.45l3.26,.16c-.02,.22-.16,.38-.6,.42v16.75c0,2.74-.87,3.28-5.71,3.28-.11-.78-.54-2.01-.94-2.76,1.47,.04,2.92,.04,3.39,.04,.42,0,.6-.13,.6-.56v-17.33Z"/><path class="cls-4" d="M60.82,315.83v16.37c0,2.65-1.12,3.08-5.53,3.03-.09-.71-.51-1.87-.87-2.56,.76,.04,1.61,.04,2.25,.04,1.4,0,1.49,0,1.49-.54v-3.39h-4.88v6.24h-2.61v-6.24h-4.57c-.4,2.47-1.2,4.93-2.83,6.71-.42-.51-1.52-1.43-2.12-1.76,2.45-2.7,2.65-6.71,2.65-9.88v-8.03h17.01Zm-14.36,7.72c0,.71,0,1.45-.07,2.72h4.28v-2.72h-4.21Zm4.21-5.17h-4.21v2.68h4.21v-2.68Zm7.49,2.68v-2.68h-4.88v2.68h4.88Zm-4.88,5.22h4.88v-2.72h-4.88v2.72Z"/><path class="cls-4" d="M84.52,315.83v2.7h-2.59v13.45c0,3.01-1.34,3.35-6.51,3.35-.16-.78-.69-2.1-1.12-2.83,.96,.07,2.03,.09,2.85,.09,1.83,0,1.96,0,1.96-.65v-13.4h-14.9v-2.7h20.29Zm-8.67,13.94h-7v1.72h-2.61v-10.44h9.61v8.72Zm-2.65-6.18h-4.35v3.61h4.35v-3.61Z"/><path class="cls-4" d="M92.86,315.02c-.09,.18-.29,.29-.62,.31-.4,1.11-.98,2.48-1.56,3.68,1.05-.04,2.14-.07,3.26-.11-.36-.67-.76-1.32-1.14-1.9l2.27-.94c1.14,1.58,2.34,3.7,2.79,5.17l-2.45,1.03c-.09-.33-.22-.74-.4-1.14-2.85,.22-5.73,.4-7.63,.54-.04,.2-.22,.31-.4,.36l-.78-2.92c.51,0,1.12-.02,1.76-.02,.69-1.49,1.4-3.39,1.81-4.86l3.1,.8Zm3.37,7.76v9.92c0,2.21-.94,2.65-4.06,2.65-.13-.71-.51-1.74-.85-2.39,.47,.02,.94,.04,1.32,.04,.85,0,.94,0,.94-.36v-1.2h-3.34v3.92h-2.48v-12.6h8.47Zm-2.65,2.21h-3.34v1.18h3.34v-1.18Zm-3.34,4.48h3.34v-1.32h-3.34v1.32Zm13.83-7.45c.74,0,.89-.33,.98-2.3,.54,.4,1.63,.82,2.36,.98-.29,2.9-1,3.72-3.08,3.72h-3.1c-2.63,0-3.28-.78-3.28-3.26v-6.78l3.28,.18c-.02,.22-.2,.36-.6,.42v2.61c1.52-.58,2.99-1.27,4.04-1.87l1.81,2.03c-.09,.09-.25,.09-.51,.09-1.38,.65-3.39,1.36-5.33,1.94v1.34c0,.8,.13,.89,.98,.89h2.45Zm-3.46,9.92c0,.8,.16,.91,1.03,.91h2.56c.78,0,.94-.42,1.05-2.7,.56,.4,1.63,.8,2.34,.98-.29,3.17-.98,4.06-3.14,4.06h-3.19c-2.63,0-3.3-.78-3.3-3.26v-7.07l3.26,.18c-.02,.22-.18,.36-.6,.42v2.43c1.61-.62,3.14-1.38,4.24-2.1l1.87,2.07c-.11,.09-.31,.09-.56,.09-1.4,.76-3.52,1.54-5.55,2.19v1.78Z"/><path class="cls-4" d="M118.15,315.02c-.07,.22-.31,.42-.69,.47-.11,.8-.33,1.9-.47,2.54,1.58-.11,3.86-.49,5.49-1.03l.33,2.65c-1.92,.45-4.15,.78-6.33,.96-1.03,4.08-2.36,7.49-4.3,10.66l-2.77-.98c1.85-2.81,3.32-6.13,4.08-9.61h-3.86v-2.52h2.48c.67,0,1.34-.02,1.83-.02,.2-1.07,.38-2.27,.47-3.43l3.75,.31Zm5.69,9.72c.02,1.34,.09,2.61,.2,3.9,1.2,.49,3.14,1.43,4.33,2.27l-1.32,2.61c-.82-.69-2.16-1.47-3.01-1.94-.02,.42-.09,.69-.16,.91-.47,1.45-1.65,2.5-4.33,2.5-2.03,0-4.5-.98-4.5-3.61,.04-2.3,2.3-3.61,4.5-3.61,.56,0,1.14,.07,1.74,.18-.07-1.07-.09-2.19-.09-2.9l2.63-.31Zm-2.39,5.66c-.6-.25-1.43-.36-1.96-.36-1.09,0-2.03,.49-2.05,1.34,0,.83,.82,1.34,2.1,1.34,1.07,0,1.92-.54,1.92-1.63v-.69Zm6.67-7.27c-2.43,.02-5.31,.33-7.78,.91l-.38-2.43c2.54-.65,5.55-1.11,7.98-1.11l.18,2.63Z"/><path class="cls-4" d="M137.36,315.2l1.74,.91c-.04,.11-.11,.25-.2,.33-.51,1.83-1.29,4.24-1.96,6.02,1.52,1.72,2.03,3.08,2.03,4.46,0,3.61-2.23,3.61-4.08,3.61-.02-.69-.27-1.72-.58-2.32,.42,.04,.8,.04,1.09,.04,1,0,1.07-.96,1.07-1.61,0-1.05-.54-2.39-1.9-3.9,.49-1.45,1-3.5,1.38-5.08h-1.98v17.71h-2.5v-20.09h5.46l.42-.09Zm8.83,10.61c.22,.83,.49,1.61,.83,2.34,.76-.71,1.49-1.54,2.01-2.21l2.32,1.76c-.09,.13-.36,.18-.62,.13-.62,.65-1.67,1.54-2.59,2.25,.91,1.27,2.05,2.27,3.52,2.92-.58,.54-1.38,1.56-1.74,2.27-3.32-1.76-5.06-5.11-6.09-9.48h-1.58v5.78c1.05-.18,2.12-.38,3.17-.58l.2,2.32c-2.54,.6-5.22,1.2-6.93,1.56-.04,.2-.2,.33-.38,.38l-1-2.85c.67-.11,1.47-.22,2.34-.38v-16.7h10.46v10.48h-3.9Zm1.25-8.18h-5.2v1.78h5.2v-1.78Zm-5.2,3.97v1.92h5.2v-1.92h-5.2Z"/><path class="cls-4" d="M157.39,318.81v3.92c0,3.63-.33,9.17-2.39,12.64-.45-.45-1.58-1.2-2.19-1.47,1.87-3.19,2.01-7.87,2.01-11.17v-6.31h8.03v-2.1l3.39,.18c-.02,.22-.18,.36-.6,.45v1.47h8.21v2.39h-16.46Zm13.38,8.21l1.76,.78c-.07,.16-.16,.22-.27,.31-.89,1.67-2.16,3.01-3.72,4.06,1.65,.47,3.52,.78,5.55,.96-.56,.56-1.25,1.61-1.58,2.3-2.59-.31-4.88-.89-6.87-1.78-2.19,.89-4.73,1.45-7.43,1.78-.2-.67-.69-1.67-1.11-2.25,2.1-.18,4.1-.51,5.91-1.05-1-.71-1.85-1.54-2.59-2.5l1.25-.45h-3.55v-2.1h12.2l.45-.07Zm-.54-.96h-9.19v-3.37h-3.03v-2.07h3.03v-1.63l3.12,.18c-.02,.22-.18,.36-.58,.42v1.03h4.01v-1.63l3.21,.18c-.02,.22-.18,.36-.58,.42v1.03h3.48v2.07h-3.48v3.37Zm-7.18,3.12c.69,.74,1.58,1.38,2.65,1.92,1.07-.54,1.98-1.16,2.72-1.92h-5.37Zm4.55-6.49h-4.01v1.41h4.01v-1.41Z"/><path class="cls-4" d="M184.35,328.87v4.55c1.47-.62,3.05-1.63,3.86-2.47l2.25,1.4c-.07,.07-.2,.13-.4,.16-.89,.94-2.83,2.16-4.46,2.81-.31-.36-.8-.85-1.25-1.27h-5v.94h-2.25v-5.91l-.47,.2c-.27-.56-.89-1.45-1.36-1.92,1.47-.51,2.88-1.32,4.08-2.32-.51-.38-1.03-.74-1.52-1.07-.31,.27-.62,.51-.94,.71-.38-.42-1.09-1.14-1.56-1.49,1.67-1,3.26-2.81,4.06-4.73l2.52,.78c-.07,.18-.25,.25-.54,.25-.09,.2-.2,.38-.31,.58h2.16l.4-.09c.58,.27,1.07,.47,1.56,.69-.07,.16-.18,.22-.29,.31-.49,1.38-1.23,2.63-2.12,3.75,1.2,.82,2.32,1.63,3.08,2.25l-1.52,1.9Zm-6.38-10.5v1.58h-2.14v-3.7h3.59v-1.92l3.08,.16c-.02,.22-.18,.36-.58,.4v1.36h3.7v3.7h-2.25v-1.58h-5.4Zm5.22,9.52c-.58-.47-1.25-.98-1.96-1.52-.62,.56-1.27,1.07-1.96,1.52h3.92Zm-1.14,4.13v-2.07h-2.7v2.07h2.7Zm-1.11-8.54c.42-.51,.8-1.07,1.11-1.63h-2.16c-.16,.2-.33,.4-.51,.6l1.56,1.03Zm14.83-4.39v11.86h-9.39v-11.86h2.81c.11-.51,.22-1.07,.31-1.58h-3.84v-2.3h10.93v2.3h-4.42c-.13,.49-.29,1.05-.47,1.58h4.06Zm-2.52,3.37v-1.38h-4.46v1.38h4.46Zm0,3.26v-1.4h-4.46v1.4h4.46Zm0,3.26v-1.4h-4.46v1.4h4.46Zm1.65,6.44c-.74-.82-2.32-2.16-3.52-3.05l1.96-1.23c1.2,.83,2.83,2.07,3.66,2.92l-2.1,1.36Z"/><path class="cls-4" d="M210.32,319.62c-.09,.2-.36,.38-.67,.38-.91,7.63-3.14,12.04-6.98,12.04-2.43,0-4.19-2.05-4.19-5.84,0-5.71,4.55-9.9,10.24-9.9,6.31,0,9.54,3.75,9.54,8.59,0,5.24-2.7,7.96-8.32,9.39-.42-.67-1.05-1.61-1.78-2.36,5.08-1,7.11-3.43,7.11-6.98s-2.5-6.02-6.6-6.02c-.4,0-.76,.04-1.14,.09l2.79,.62Zm-3.55-.45c-3.39,.8-5.55,3.72-5.55,6.91,0,1.87,.56,3.19,1.54,3.19,2.19,0,3.63-4.88,4.01-10.1Z"/><path class="cls-4" d="M231.88,316.18h8.74v2.27h-19.89v-2.27h8.41v-1.9l3.34,.2c-.02,.2-.18,.36-.6,.4v1.29Zm7.89,9.03v7.31c0,2.5-1.18,2.79-4.77,2.79-.07-.51-.27-1.2-.51-1.81h-5.82v1.03h-2.34v-6.07h8.61v4.37c.38,0,.76,.02,1.05,.02,.98,0,1.09-.04,1.09-.38v-5.04h-12.76v7.92h-2.61v-10.15h18.06Zm-15.28-5.89h12.31v4.95h-12.31v-4.95Zm9.59,3.14v-1.36h-7.05v1.36h7.05Zm-1.52,9.23v-1.45h-3.9v1.45h3.9Z"/><path class="cls-4" d="M261.14,320.35c-1.74,.47-4.37,.78-6.73,.98,.83,2.5,1.87,3.92,3.86,4.84l-2.01,2.36c-.85-.76-2.1-1.58-4.82-1.54l-.74-2.25c.74,0,1.7,.09,2.27,.2-.58-.78-1.05-1.94-1.49-3.41-.87,.07-1.81,.09-2.94,.09-1.32,0-4.01-.02-5.51-.07l-.02-2.65c1.27,.04,2.92,.09,5.55,.09,.74,0,1.58-.02,2.27-.09-.25-1.23-.45-2.65-.65-4.1l3.77,.09c-.02,.27-.22,.49-.6,.58,.09,1.14,.22,2.16,.42,3.26,2.23-.18,5.13-.67,6.85-1.2l.51,2.83Zm-4.24,14.14c-1.11,0-2.43,.02-4.08,.02-5.42,0-8.16-2.07-8.16-4.82,0-1.38,.65-2.5,1.92-3.84l2.14,1.58c-.87,.76-1.18,1.43-1.18,2.12,0,1.67,2.21,2.27,5.35,2.27,1.78,0,3.1-.07,4.26-.13l-.25,2.79Z"/></g></g><g><polygon class="cls-2" points="283.95 460.7 59.54 460.7 59.54 376.6 318.51 376.6 283.95 460.7"/><polygon class="cls-11" points="271.46 460.7 42.88 460.7 42.88 376.6 306.02 376.6 271.46 460.7"/><polygon class="cls-12" points="254.81 460.7 0 460.7 0 376.6 289.37 376.6 254.81 460.7"/><g><path class="cls-4" d="M31.42,419.97l2.7,1.16c-.11,.16-.33,.25-.62,.22-.54,.91-1.43,2.16-2.16,3.08h5.08v2.3H17.4v-2.3h4.39c-.33-1.03-1.11-2.52-1.87-3.63l2.01-.82h-3.41v-2.3h6.85v-2.23h-4.15v-1.09c-1.07,.78-2.21,1.52-3.37,2.14-.36-.62-1.09-1.61-1.63-2.12,3.84-1.94,7.49-5.37,9.17-8.16l3.57,.2c-.07,.22-.27,.42-.58,.45,2.14,2.92,5.95,5.75,9.32,7.18-.67,.67-1.29,1.58-1.78,2.39-1.14-.6-2.3-1.34-3.41-2.14v1.16h-4.3v2.23h6.93v2.3h-3.7Zm-6.07,0h-3.23c.85,1.14,1.72,2.65,2.05,3.68l-1.81,.78h2.99v-4.46Zm5.6-6.87c-1.67-1.36-3.14-2.83-4.15-4.21-.94,1.36-2.34,2.83-3.99,4.21h8.14Zm-1.83,10.68c.74-1,1.65-2.61,2.16-3.81h-3.1v4.46h2.3l-1.36-.65Z"/><path class="cls-4" d="M45.98,415.51v1.16c1.11,.8,3.32,2.68,3.9,3.19l-1.52,2.3c-.56-.69-1.49-1.69-2.39-2.63v7.85h-2.63v-7.98c-.96,2.01-2.12,3.88-3.3,5.15-.27-.8-.91-1.94-1.36-2.63,1.56-1.54,3.14-4.08,4.15-6.4h-3.68v-2.48h4.19v-2.74c-1.2,.29-2.43,.54-3.61,.74-.13-.6-.54-1.52-.82-2.05,3.1-.58,6.53-1.56,8.52-2.65l2.25,2.01c-.11,.13-.27,.13-.58,.13-.87,.4-1.94,.78-3.12,1.14v3.43h3.88v2.48h-3.88Zm8.25-6.27c-.02,.22-.2,.36-.58,.42v12.06h-2.61v-12.67l3.19,.18Zm2.1-2.45l3.26,.16c-.02,.22-.16,.38-.6,.42v16.75c0,2.74-.87,3.28-5.71,3.28-.11-.78-.54-2.01-.94-2.76,1.47,.04,2.92,.04,3.39,.04,.42,0,.6-.13,.6-.56v-17.33Z"/><path class="cls-4" d="M73.68,411.63c-.09,.2-.36,.38-.67,.38-.91,7.63-3.14,12.04-6.98,12.04-2.43,0-4.19-2.05-4.19-5.84,0-5.71,4.55-9.9,10.24-9.9,6.31,0,9.54,3.75,9.54,8.59,0,5.24-2.7,7.96-8.32,9.39-.42-.67-1.05-1.61-1.78-2.36,5.08-1,7.11-3.43,7.11-6.98s-2.5-6.02-6.6-6.02c-.4,0-.76,.04-1.14,.09l2.79,.62Zm-3.55-.45c-3.39,.8-5.55,3.72-5.55,6.91,0,1.87,.56,3.19,1.54,3.19,2.19,0,3.63-4.88,4.01-10.1Z"/><path class="cls-4" d="M86.01,416.07c-.58,.87-1.16,1.67-1.78,2.39-.25-.65-.85-2.07-1.23-2.72,1.85-2.1,3.72-5.75,4.86-9.32l2.94,1c-.09,.18-.29,.29-.62,.25-.51,1.36-1.09,2.74-1.74,4.08l.76,.25c-.04,.18-.22,.33-.58,.38v15.05h-2.61v-11.35Zm18.51,.25h-4.48c.47,4.17,1.4,7.65,2.27,7.67,.38,0,.58-.98,.65-3.05,.51,.58,1.36,1.2,2.03,1.47-.4,3.46-1.2,4.24-2.94,4.24-2.59-.02-4.01-4.68-4.66-10.32h-3.86v4.46c1.36-.18,2.81-.38,4.24-.56l.09,2.21c-2.59,.49-5.24,1-7,1.32-.04,.2-.2,.33-.38,.36l-1-2.85c.45-.04,.91-.09,1.45-.16v-12.6l1.38,.45c3.39-.42,7.05-1.14,9.32-1.92l2.1,2.1c-.11,.09-.27,.09-.6,.09-.85,.27-1.87,.51-2.97,.74-.09,.09-.25,.13-.47,.18-.02,1.23,.02,2.52,.11,3.79h4.73v2.41Zm-14.25,10.61v-2.36h9.01v2.36h-9.01Zm3.26-13.02h3.63c-.09-1.11-.13-2.27-.18-3.39-1.14,.18-2.32,.33-3.46,.47v2.92Z"/><path class="cls-4" d="M124.49,412.37c-1.74,.47-4.37,.78-6.73,.98,.82,2.5,1.87,3.92,3.86,4.84l-2.01,2.36c-.85-.76-2.1-1.58-4.82-1.54l-.74-2.25c.74,0,1.69,.09,2.27,.2-.58-.78-1.05-1.94-1.49-3.41-.87,.07-1.81,.09-2.94,.09-1.32,0-4.01-.02-5.51-.07l-.02-2.65c1.27,.04,2.92,.09,5.55,.09,.74,0,1.58-.02,2.27-.09-.25-1.23-.45-2.65-.65-4.1l3.77,.09c-.02,.27-.22,.49-.6,.58,.09,1.14,.22,2.16,.42,3.26,2.23-.18,5.13-.67,6.85-1.2l.51,2.83Zm-4.24,14.14c-1.11,0-2.43,.02-4.08,.02-5.42,0-8.16-2.07-8.16-4.82,0-1.38,.65-2.5,1.92-3.84l2.14,1.58c-.87,.76-1.18,1.43-1.18,2.12,0,1.67,2.21,2.27,5.35,2.27,1.78,0,3.1-.07,4.26-.13l-.25,2.79Z"/></g></g><g><polygon class="cls-2" points="283.95 552.72 59.54 552.72 59.54 468.61 318.51 468.61 283.95 552.72"/><polygon class="cls-11" points="271.46 552.72 42.88 552.72 42.88 468.61 306.02 468.61 271.46 552.72"/><polygon class="cls-12" points="254.81 552.72 0 552.72 0 468.61 289.37 468.61 254.81 552.72"/><g><path class="cls-4" d="M36.93,505.42v14.25c0,2.74-1.12,3.1-5.6,3.1-.09-.76-.49-1.96-.87-2.65,.78,.04,1.65,.04,2.3,.04,1.36,0,1.52,0,1.52-.51v-11.62h-5.46c-.04,.71-.13,1.47-.27,2.21,1.94,1.78,4.39,4.1,5.62,5.69l-2.25,1.72c-.87-1.25-2.56-3.1-4.21-4.73-.87,1.94-2.39,3.79-4.91,5.28-.36-.51-1.07-1.32-1.67-1.83v6.4h-2.68v-17.35h7.65v-3.75l3.34,.18c-.02,.22-.18,.38-.6,.45v3.12h8.09Zm-15.81,2.61v7.98c4.01-2.14,4.82-5.31,4.95-7.98h-4.95Z"/><path class="cls-4" d="M56.59,505.84c.54-.94,1.03-1.92,1.45-2.92l2.74,.96c-.09,.18-.31,.29-.65,.27-.78,1.69-1.69,3.32-2.74,4.82h3.26v2.3h-5.04c-.49,.58-.98,1.11-1.52,1.65h5.4v9.72h-2.59v-.69h-4.06v.78h-2.43v-6.73c-.42,.29-.85,.56-1.27,.82-.31-.54-1.03-1.47-1.52-1.96,.96-.51,1.9-1.14,2.79-1.85v-.09h.13c.62-.51,1.25-1.07,1.85-1.65h-4.37c.4,.87,.71,1.74,.87,2.43l-2.05,.91c-.07-.33-.18-.71-.31-1.11l-1.14,.09v9.14h-2.34v-7.2c-.11,.16-.29,.2-.47,.18-.22,1.83-.67,3.97-1.29,5.33-.49-.31-1.34-.69-1.87-.94,.56-1.23,.89-3.34,1.09-5.24l2.54,.6v-1.74c-1,.07-1.9,.11-2.63,.13-.07,.22-.25,.31-.4,.33l-.54-2.68h1.61c.36-.45,.74-.94,1.09-1.45-.65-.98-1.69-2.19-2.63-3.05l1.29-1.83,.49,.45c.65-1.25,1.29-2.74,1.69-3.92l2.61,1.07c-.09,.13-.31,.22-.6,.22-.56,1.23-1.47,2.9-2.25,4.13,.27,.31,.54,.62,.76,.91,.78-1.27,1.52-2.56,2.05-3.68l2.52,1.14c-.11,.16-.33,.25-.62,.25-1.03,1.72-2.59,3.95-4.04,5.73l2.27-.02c-.25-.6-.56-1.18-.85-1.72l1.92-.8c.4,.69,.82,1.47,1.18,2.25v-2.21h3.55v-2.36h-2.68v-2.3h2.68v-2.61l3.12,.18c-.02,.22-.18,.33-.58,.42v2.01h2.52v1.54Zm-9.19,8.92c.58,1.38,1.16,3.14,1.43,4.33-.65,.22-1.29,.45-2.1,.74-.2-1.18-.78-3.03-1.34-4.42l2.01-.65Zm9.5,1.65v-1.38h-4.06v1.38h4.06Zm-4.06,3.43h4.06v-1.38h-4.06v1.38Zm1.23-10.88h.4c.58-.76,1.14-1.54,1.65-2.36h-2.05v2.36Z"/><path class="cls-4" d="M62.21,504.41c.69,0,1.72-.02,2.34-.07,2.56-.18,12.2-.78,15.97-.96l.04,3.01c-1.98-.07-3.08,.11-4.84,1.36-2.45,1.63-5.49,4.71-5.49,7.25s2.25,4.01,7.14,4.53l-1.38,2.79c-6.33-.76-8.83-3.43-8.83-7.29,0-2.72,2.5-6.24,5.84-8.59-2.77,.25-7.92,.65-9.97,.87-.04,.18-.33,.33-.54,.38l-.29-3.28Zm14.9,5.31c.96,.78,2.12,2.07,2.72,3.01l-1.32,1.05c-.49-.87-1.83-2.36-2.63-3.05l1.23-1Zm2.65-1.98c1,.8,2.14,2.01,2.72,2.99l-1.29,1.03c-.51-.82-1.76-2.3-2.65-3.03l1.23-.98Z"/><path class="cls-7" d="M91.98,506.22c-.07,.2-.27,.38-.65,.42-.82,5.24-2.61,10.79-5.15,14.18-.78-.54-1.85-1.09-2.74-1.45,2.5-3.14,4.21-8.32,4.84-13.89l3.7,.74Zm9.25,14.47c-1-3.61-3.3-9.72-5.49-14.12l2.68-1.25c2.23,4.1,4.64,10.17,5.8,14.07l-2.99,1.29Zm-1.9-18.66c.89,.87,1.9,2.23,2.41,3.12l-1.32,.96c-.51-.87-1.65-2.41-2.43-3.17l1.34-.91Zm3.1-.78c.87,.89,1.9,2.19,2.45,3.08l-1.36,.98c-.49-.89-1.65-2.34-2.41-3.14l1.32-.91Z"/><path class="cls-7" d="M110.95,518.08c4.84-1.4,8.99-4.24,11.35-8.34,.49,.67,1.49,1.56,2.03,2.05-2.85,4.66-8.12,7.94-14.63,9.61-.07,.2-.25,.45-.47,.54l-1.56-2.59,.33-.56v-15.77l3.63,.18c-.02,.27-.22,.49-.69,.56v14.32Z"/><path class="cls-7" d="M142.37,505.51c1.23-.02,2.3-.04,3.12-.07v2.52h-1.49c-1.52,0-3.41,.02-5.4,.04,0,.76,.02,1.58,.04,2.1,.02,.67,.04,1.25,.07,1.81,.18,.51,.4,1.74,.38,2.5,0,1-.2,2.34-.58,3.08-.78,1.94-2.59,4.04-6.07,5.4-.47-.65-1.52-1.63-2.19-2.14,2.27-.69,4.15-2.07,4.88-3.32h-.02c-.22,.2-.71,.38-1.14,.38-2.1,.02-3.95-1.52-3.95-3.95-.02-2.48,2.12-4.28,4.37-4.28,.54,0,1.09,.13,1.38,.33,0-.04-.02-.25-.02-.29-.02-.36-.02-.96-.04-1.52-1.45,.04-2.85,.09-4.06,.13-1.58,.07-3.72,.16-5.08,.22l-.07-2.59c.25,0,.49,.02,.76,.02,1.18,0,2.7-.07,4.17-.11,.91-.02,2.41-.09,4.17-.11-.02-.45-.02-.94-.04-1.36-.02-.69-.04-1.34-.09-1.9l3.66,.18c-.02,.2-.2,.38-.58,.45v2.54c1.29-.02,2.61-.04,3.81-.07-.54-.87-1.65-2.12-2.43-2.85l1.27-.91c.94,.82,1.87,1.83,2.5,2.72l-1.34,1.05Zm-7.92,10.24c1.05,0,1.81-.8,1.78-1.92,0-.22-.02-.47-.04-.78-.13-.65-.78-1.27-1.67-1.27-1.07,0-1.94,.83-1.94,2.07,0,1.11,.91,1.87,1.85,1.9h.02Zm10.1-14.61c.94,.82,1.87,1.83,2.5,2.7l-1.34,1.05c-.51-.83-1.65-2.1-2.43-2.83l1.27-.91Z"/><path class="cls-7" d="M153.41,503.45c-.04,.25-.25,.4-.69,.42-.85,3.95-1.18,7.94-1.18,9.81,0,1.27,.02,2.39,.16,3.14,.27-.65,1.14-2.54,1.43-3.26l1.32,2.05c-.74,1.56-1.52,2.79-1.85,3.86-.11,.38-.18,.74-.18,1.07,0,.27,.04,.54,.11,.78l-2.81,.42c-.71-2.14-1.03-5-1.03-7.96s.47-7.18,1.05-10.86l3.68,.51Zm13.38,16.66c-.83,.04-1.72,.07-2.56,.07-1.43,0-2.79-.07-3.79-.2-3.1-.42-4.35-2.07-4.35-3.97,0-1.61,.74-2.99,1.92-4.44l2.68,.91c-1,.98-1.65,2.01-1.65,3.12,0,1.67,2.01,1.85,4.66,1.85,1.07,0,2.23-.04,3.19-.16l-.09,2.81Zm-10.19-14.43c2.54-.07,6.73-.36,9.43-.82l.25,2.76c-2.68,.42-6.98,.71-9.59,.76l-.09-2.7Z"/><path class="cls-4" d="M171.49,511.41c-.58,.87-1.16,1.67-1.78,2.39-.25-.65-.85-2.07-1.23-2.72,1.85-2.1,3.72-5.75,4.86-9.32l2.94,1c-.09,.18-.29,.29-.62,.25-.51,1.36-1.09,2.74-1.74,4.08l.76,.25c-.04,.18-.22,.33-.58,.38v15.05h-2.61v-11.35Zm15.23-2.63h3.39v2.41h-15.12v-2.41h3.46v-2.19h-2.65v-2.3h2.65v-2.43l3.19,.18c-.02,.22-.2,.36-.58,.4v1.85h3.03v-2.43l3.23,.18c-.02,.22-.2,.36-.6,.42v1.83h2.81v2.3h-2.81v2.19Zm-9.63,14.03v-10.32h11.35v10.21h-2.7v-.71h-6.09v.82h-2.56Zm8.65-8.16h-6.09v1.54h6.09v-1.54Zm-6.09,5.15h6.09v-1.61h-6.09v1.61Zm1.4-13.2v2.19h3.03v-2.19h-3.03Z"/><path class="cls-4" d="M193.05,514.96c-.42-1.56-.58-3.52-.6-4.84,0-1.65,.18-4.08,.65-6.78l3.48,.47c-.07,.27-.33,.36-.56,.4-.49,1.83-.87,5.04-.78,6.31,.42-.98,1.16-2.23,1.67-3.03,.29,.51,.94,1.43,1.27,1.78-1.43,2.12-2.41,3.77-2.41,4.71,0,.16,.02,.33,.07,.54l-2.79,.45Zm12.82-12.2c-.02,.27-.2,.42-.56,.54,.18,1.76,.38,4.73,.38,7.56-.02,4.3-1.4,8.36-8.5,11.28-.38-.58-1.43-1.69-2.01-2.23,6.11-2.36,7.4-5.98,7.4-9.01s-.29-6.22-.54-8.29l3.81,.16Z"/><path class="cls-4" d="M222.75,506.13c.16-.02,.31-.02,.45-.02,1.81,0,5.02,1.14,5.02,4.82,0,3.21-2.27,5-5.35,5-1.16,0-2.72-.36-4.24-1.56,.22-.58,.49-1.61,.69-2.34,1.2,.96,2.45,1.34,3.39,1.34,1.52,0,2.59-.87,2.59-2.43,0-.94-.56-2.23-2.81-2.23-1.58,0-3.79,.69-6.11,1.54,1.18,3.97,2.54,8.41,3.26,11.42l-3.05,.65c-.54-3.01-1.83-7.58-2.85-11.06-1.32,.51-3.03,1.09-4.19,1.56-.02,.2-.18,.4-.42,.51l-1.07-2.94c1.27-.4,3.3-1.05,4.95-1.63-.6-1.98-1.16-3.81-1.67-5.35l3.61-.62c.02,.29-.13,.4-.49,.58,.31,1.12,.74,2.72,1.25,4.46,2.01-.69,3.75-1.23,5.2-1.47-1.05-.96-2.5-2.01-3.5-2.56l1.81-1.69c1.54,.69,3.61,2.23,4.53,3.21l-.96,.85Z"/><path class="cls-4" d="M230.22,505.28c1.4-.04,3.37-.07,5.11-.11,1.05-.04,2.63-.09,4.24-.13,0-.33-.04-2.14-.13-3.14l3.68,.18c-.02,.18-.25,.42-.6,.49-.02,.54,0,1.49,.02,2.41,2.92-.09,5.84-.16,7.05-.18v2.63c-.65-.02-1.49-.02-2.45-.02-1.34,0-2.92,.02-4.57,.07l.13,3.97c.31,.89,.33,1.94,.33,2.54,0,1.05-.13,2.21-.47,2.94-.91,2.32-2.94,4.46-6.31,5.71-.47-.67-1.43-1.67-2.07-2.21,2.41-.82,4.24-1.98,5.02-3.37h-.02c-.27,.25-.78,.42-1.23,.42-1.98,0-3.97-1.58-3.97-4.06-.02-2.54,2.07-4.33,4.3-4.33,.51,0,1.03,.13,1.45,.33,0-.22-.04-1.45-.07-1.9-1.65,.02-9.01,.29-9.37,.31l-.07-2.56Zm9.88,8.07c0-.49,0-2.05-1.7-2.05-1.05,.02-1.9,.78-1.92,2.1,0,1.14,.89,1.92,1.83,1.92,1.11,0,1.78-.85,1.78-1.96Z"/><path class="cls-4" d="M256.24,504.81c-.07,.2-.31,.36-.58,.38-.33,1.74-.58,4.08-.58,6.13,0,4.91,1.43,6.67,2.68,6.67,.76,0,1.7-2.23,2.19-4.08,.54,.54,1.63,1.41,2.27,1.78-1.07,3.66-2.52,5.35-4.57,5.35-3.46,0-5.15-4.3-5.37-7.94-.04-.8-.09-1.67-.09-2.59,0-2.03,.13-4.26,.4-6.38l3.66,.67Zm12.47,10.77c-.67-4.01-2.52-6.4-5.26-8.03l1.76-2.1c3.14,1.69,5.75,4.77,6.44,9.14l-2.94,.98Z"/></g></g></g></g></svg>