<?xml version="1.0" encoding="UTF-8"?><svg id="Layer_2" xmlns="http://www.w3.org/2000/svg" viewBox="0 0 323.43 406.64"><defs><style>.cls-1{fill:#fff;}.cls-2{fill:#0e95cc;}.cls-3{fill:#1a1a1a;}</style></defs><g id="Layer_1-2"><g><g><path class="cls-2" d="M150.33,127.43h-10.24v-14.57h32.88v14.57h-9.95l-32.74,76.15h-30.57L63.08,125.99h-9.09v-13.12H118.6v13.12h-10.53l22.21,49.61,20.05-48.17Z"/><path class="cls-2" d="M220.84,107.02c0,11.83,48.6,5.91,48.6,41.39,0,20.05-16.3,33.02-43.7,33.02-12.84,0-24.52-2.88-31.01-8.08v6.35h-15.72v-26.82h11.83l21.2,19.47c11.25-1.3,13.56-4.18,13.56-10.67,0-16.3-47.01-13.27-47.01-42.98,0-18.32,15.43-30.86,40.52-30.86,11.97,0,22.79,2.74,28.7,7.5v-5.91h14.71v26.39h-12.4l-18.32-17.74c-8.08,.87-10.96,3.75-10.96,8.94Z"/></g><g><path class="cls-3" d="M147.64,267.04c.39,2.71,.65,3.81,1.36,5.81,2.45-1.81,4.13-3.36,5.42-5.04l6,6.65c-.65,.52-.71,.52-1.61,1.29-1.87,1.61-3.81,3.16-5.81,4.58,2.32,2.84,4.13,4.52,7.81,6.91-2.26,3.03-3.55,5.1-5.62,9.1-4.39-3.62-6.97-6.52-9.36-10.33l.06,4.97c-6.2,2-14.01,4-18.92,4.91q-1.36,.26-2.45,.58l-.9-4.46c-4.07,.97-8.07,1.87-12.46,2.65q-.77,.13-3.29,.52c-.45,.06-5.36,.84-6.97,1.1l-1.36-9.94h.9c1.81,0,4.52-.19,9.04-.77v-16.4h-2.52c-2.52,0-4.84,.13-6.59,.39v-9.1c1.68,.26,3.94,.39,6.59,.39h2.52v-2.84c-1.61,0-2.52,.06-3.87,.19v-2.58c-1.36,1.16-1.81,1.55-3.29,2.65-1.16-4-2-6-3.81-9.36,5.68-3.81,8.97-7.49,11.3-12.66h9.69c1.48,3.16,2.97,5.1,5.88,7.62,.77,.65,1.36,1.03,2.45,1.81v-.9c0-3.1-.06-5.04-.26-6.97,1.61,.19,3.23,.26,6.07,.26h18.21c2.71,0,4.33-.06,5.81-.26-.19,1.48-.26,3.36-.26,7.23v15.3c0,2.97,.06,5.62,.26,6.84-1.55-.06-2.45-.13-4-.13h-6Zm-45.33,17.95c-.65-5.36-1.29-8.26-2.78-12.53l6.39-2.13c1.68,5.04,2.32,7.88,2.91,12.27l-6.52,2.39Zm16.92-34.61c-2-2.13-2.78-3.16-4.52-5.88-1.74,2.97-2.52,4.07-4,5.88h8.52Zm8.59-2.32c-1.87,2.58-2.91,4.2-3.87,6.2v3.94c-1.16-.13-2.32-.19-3.68-.19h-1.87v2.84h2.84c2.45,0,3.87-.06,4.91-.26v8.85c-1.36-.19-2.58-.26-4.91-.26h-2.84v15.11c2.2-.39,3.29-.58,6.52-1.23v3.55q.65-.13,1.42-.26c.77-.06,.9-.06,1.49-.19v-38.09Zm-9.23,32.22c1.36-3.42,2-5.62,2.78-9.88l5.62,2.07c-1.03,3.94-1.87,6.46-3.29,9.75l-5.1-1.94Zm18.4-31.19h11.36v-2.71h-11.36v2.71Zm0,9.62h11.36v-2.78h-11.36v2.78Zm0,25.76c3.87-.84,4-.9,7.04-1.74-2.71-5.55-3.81-9.04-4.78-15.69h-2.26v17.43Z"/><path class="cls-3" d="M214.86,287.25c0,4.39-1.1,6.46-4,7.62-1.74,.71-4.13,.97-9.62,.97-1.23,0-2.45,0-5.17-.06-.45-3.94-1.03-6.2-2.58-10.01,4.46,.39,6.91,.58,8.59,.58,2.52,0,2.78-.13,2.78-1.48v-20.79h-10.2c-3.03,0-6.2,.13-8.65,.39v-6.59c-1.49,2-2.26,3.03-4,5.1v24.99c0,3.49,.06,5.94,.39,8.39h-10.78c.32-2.32,.45-5.17,.45-8.59v-15.37c-1.36,1.42-2.65,2.58-4.33,3.81-1.1-4.39-2-6.78-4.07-10.2,6.39-3.87,12.91-10.4,16.01-16.08l6.39,4.58c2.71,.26,5.42,.39,8.65,.39h21.63c3.81,0,6.71-.13,8.59-.39v9.94c-2.58-.26-5.42-.39-8.26-.39h-1.81v23.18Zm-28.22-45.78q-.65,.58-1.1,1.16c-4.26,4.84-10.72,10.01-16.66,13.3-1.42-3.81-2.84-6.2-5.17-8.97,5.36-2.58,8.97-5.17,12.33-8.72,1.29-1.36,1.94-2.13,2.58-3.36l8.39,6.2-.39,.39Zm2.26-3.49c1.87,.26,4.52,.39,8.33,.39h16.85c3.55,0,5.94-.13,8.07-.39v9.94c-2.58-.26-5.17-.39-7.88-.39h-17.05c-2.97,0-5.88,.13-8.33,.39v-9.94Z"/></g><g><path class="cls-3" d="M5.6,16.22c4.83,2.77,7.21,4.31,11.91,7.98l-5.47,8.11c-5.09-4.31-7.53-6.05-12.04-8.75l5.6-7.34Zm11.07,23.11c-2.12,7.72-2.83,9.78-5.66,16.48-.19,.52-.97,2.12-2.25,4.89L.13,53.36c.9-1.03,1.48-1.87,2.32-3.41,2.57-4.89,4.12-9.01,6.05-16.28l8.17,5.66ZM7.6,.13c4.83,3.03,6.89,4.57,11.46,8.56l-6.37,7.66C8.56,12.29,5.99,10.17,1.35,7.08L7.6,.13ZM23.69,16.99h9.59V6.69c0-2.83-.13-4.76-.39-6.63h10.36c-.26,1.87-.39,3.8-.39,6.63v10.3h9.72l-7.98-3.48c2.83-4.76,4.25-7.92,5.73-13l9.33,3.67c-2.57,6.11-3.54,8.11-6.37,12.81,2.9-.06,3.03-.06,4.31-.19-.19,1.74-.26,3.41-.26,7.27v28.64c0,3.67-.97,5.79-3.22,6.76-1.35,.64-3.48,.9-7.14,.9-1.35,0-1.54,0-6.57-.26-.39-3.6-.84-5.54-2.12-9.2,2.77,.26,5.21,.45,7.08,.45s2.19-.19,2.19-1.48v-2.7H29.03v5.66c0,2.96,.13,5.54,.32,7.79h-10.43c.26-1.93,.39-4.31,.39-7.79V23.37c0-3.54-.06-4.89-.19-6.57,1.35,.13,2.06,.19,4.12,.19-2.38-5.6-3.41-7.66-6.57-12.36L25.49,.77c2.83,4.44,4.38,7.47,6.57,12.94l-8.37,3.28Zm23.88,8.75H29.03v2.9h18.54v-2.9Zm-18.54,13.65h18.54v-2.96H29.03v2.96Z"/><path class="cls-3" d="M118.5,44.03c0,3.93,.06,5.54,.26,7.02-1.67-.06-3.28-.13-6.5-.13h-2.32c4.51,1.8,9.01,2.64,16.16,2.96-2.32,2.51-3.54,4.18-5.54,7.6-5.34-.9-7.92-1.54-11.91-2.96-3.8-1.35-5.92-2.38-10.3-4.89l4.96-2.7h-16.41l5.28,2.7c-7.53,4.57-11.97,6.18-21.63,7.85-1.87-3.09-3.03-4.63-5.41-7.21,6.69-.58,11.26-1.61,15.58-3.35h-2.12c-3.28,0-4.83,.06-6.5,.13,.19-1.54,.26-3.35,.26-6.37v-9.72c-1.16,.39-1.74,.58-3.54,1.09-1.48-3.67-2.06-4.83-3.99-7.79,6.82-1.29,10.68-2.7,13.45-4.83h-6.82c-2.06,0-3.22,.06-4.83,.13,1.93-4.38,3.41-9.14,3.86-12.62,1.22,.13,2.77,.19,5.02,.19h8.24c.13-.9,.13-1.16,.19-2.06h-9.53c-3.35,0-4.7,.06-5.99,.19V2.9c1.87,.19,2.96,.26,5.99,.26h9.65c0-1.29-.06-2.06-.19-3.15h9.59q-.13,1.03-.19,3.15h4.51c-.06-1.61-.13-2.25-.26-3.15h9.66c-.19,1.03-.26,1.8-.32,3.15h8.17c1.54,0,5.02-.13,6.5-.26-.19,1.67-.26,2.7-.26,5.6v2.25c0,2.96,.06,4.25,.26,5.73-2.38-.13-4.05-.19-6.57-.19h-8.11v2.12h13.07c2.12,0,3.28-.06,4.89-.13-.26,1.22-.26,1.67-.45,4.05-.45,6.69-1.67,8.69-5.86,9.4v12.29Zm-40.23-27.74l-.77,2.12h4.7c.32-.97,.45-1.22,.64-2.12h-4.57Zm3.48,16.16h27.1v-1.67h-27.1v1.67Zm0,6.31h27.1v-1.74h-27.1v1.74Zm0,6.24h27.1v-1.67h-27.1v1.67Zm16.03-21.56h-8.05c-.64,1.03-.84,1.35-1.54,2.19h9.59v-2.19Zm-5.47-7.14c-.19,.97-.26,1.22-.51,2.12h5.99v-2.12h-5.47Zm.84-7.21c-.06,.9-.06,1.16-.13,2.06h4.76v-2.06h-4.63Zm13.71,2.06h4.89v-2.06h-4.89v2.06Zm7.34,14.48c.26-.51,.32-1.09,.39-2.19h-7.72v2.19h7.34Z"/><path class="cls-3" d="M139.67,25.75c-3.41,0-5.86,.13-8.17,.39v-9.46c2,.26,4.63,.39,8.37,.39h13.13v-3.28h-8.95c-3.41,0-5.66,.06-7.47,.26V4.96c1.87,.26,4.57,.39,7.92,.39h8.5c0-2.57-.13-3.67-.45-5.28h10.68c-.32,1.67-.39,2.64-.39,5.28h2.96c3.09,0,5.41-.13,7.34-.39v5.6c2.51-2.77,5.54-6.82,6.76-9.08l8.82,5.73c-.84,.84-1.09,1.09-2.83,3.15-2.45,2.83-3.8,4.25-6.44,6.69h3.09c3.35,0,5.54-.13,7.66-.39v9.46c-2.06-.26-5.02-.39-8.69-.39h-14.03c-1.29,.97-1.74,1.29-4.12,2.9h13.39c3.15,0,4.96-.06,6.69-.19-.19,1.93-.26,3.67-.26,7.02v17.19c0,3.35,.13,5.99,.39,7.79h-10.23v-2.51h-20.6v2.51h-10.23c.26-2.45,.39-4.96,.39-7.79v-11.65q-5.34,2.45-7.79,3.41c-1.61-3.86-2.64-5.73-5.08-9.01,8.43-2.38,16.16-5.6,23.3-9.66h-13.65Zm13.07,13.32h20.6v-2.7h-20.6v2.7Zm0,10.62h20.6v-2.83h-20.6v2.83Zm13.45-32.63c1.42-1.16,2.25-1.87,3.73-3.22-1.29-.06-1.74-.06-3.09-.06h-3.99v3.28h3.35Z"/><path class="cls-3" d="M217.81,25.28c-2.51,0-4.44,.06-6.63,.26v-3.09c-3.99,2.32-6.24,3.41-10.49,5.15-1.8-4.38-2.57-5.92-4.83-9.46,6.63-2.06,12.17-4.83,17.31-8.75,3.73-2.83,6.57-5.73,8.17-8.43h11.01c2.38,3.35,4.44,5.34,8.3,8.24,5.28,3.99,10.49,6.57,17.25,8.5-2.06,3.67-3.15,6.18-4.44,10.11-4.51-1.8-7.02-3.09-11.14-5.54v3.28c-1.8-.19-3.93-.26-6.69-.26h-3.99v4.18h14.68c3.86,0,6.05-.13,7.6-.32v9.53c-1.74-.26-4.31-.39-7.72-.39h-5.08l8.3,2.9c-1.93,4.12-3.48,6.89-4.96,9.14h3.35c3.6,0,5.73-.13,8.05-.39v9.65c-2.45-.26-5.41-.39-8.3-.39h-40.81c-3.41,0-6.18,.13-8.75,.39v-9.65c2.51,.26,5.08,.39,8.69,.39h2c-1.35-3.86-2.19-5.6-4.51-9.27l8.3-2.77h-4.76c-3.09,0-5.54,.13-7.72,.39v-9.53c1.87,.26,4.06,.32,7.79,.32h13.9v-4.18h-3.86Zm3.86,13h-8.11c1.87,3.03,2.77,4.96,4.63,9.53l-8.05,2.51h11.52v-12.04Zm12.74-21.43c-3.41-2.64-5.09-4.31-7.53-7.27-2.38,2.96-3.93,4.51-7.4,7.27h14.93Zm8.56,33.47l-7.85-2.64c2.7-4.18,3.48-5.66,4.76-9.4h-8.24v12.04h11.33Z"/><path class="cls-3" d="M294.27,10.21c-2.32-.19-2.77-.19-6.89-.19h-18.09c-4.05,0-4.63,0-6.89,.19V1.91c1.8,.26,3.73,.32,7.47,.32h16.93c3.8,0,5.66-.06,7.47-.32V10.21Zm-22.01,33.21c.84,.06,1.09,.06,1.8,.13-.9-1.22-1.87-2.12-2.96-3.03v14.16c0,3.48,.06,4.57,.19,5.99h-8.63c.26-2.25,.32-4.31,.32-8.82v-18.86c0-2.51-.06-4.38-.26-6.18,1.22,.13,2.64,.19,4.83,.19h21.69c2.25,0,3.48-.06,4.7-.19-.13,1.67-.19,3.22-.19,5.73v20.28c0,4.31-.9,6.18-3.35,7.02-1.35,.39-2.9,.52-6.5,.52-.45-4.12-.64-5.15-1.61-7.79,1.16,.19,2.06,.32,2.51,.32,.97,0,1.35-.32,1.35-1.29v-9.46h-1.8c-4.25,0-5.09-.52-5.09-3.09v-5.21h-1.29c-.13,4.76-.9,7.02-3.03,9.72h6.89c1.74,0,2.06,0,3.15-.13v6.05c-.97-.13-1.48-.13-3.15-.13v5.79c0,1.48,.06,2.32,.19,3.54h-7.08c.13-1.09,.19-2.32,.19-3.48v-5.86c-1.48,0-1.87,0-2.9,.13v-6.05Zm19.83-20.66c0,.77,.06,2,.13,2.7-1.22-.13-1.93-.13-3.73-.13h-18.73c-2.83,0-3.41,0-4.83,.13,.06-.58,.06-2.32,.13-5.15v-3.67c-.06-2.77-.06-4.38-.13-5.02,1.22,.13,1.87,.13,4.83,.13h17.64c2.96,0,3.54,0,4.83-.13-.06,.77-.13,1.93-.13,2.9v8.24Zm-20.98,17.19c1.74-1.54,2.25-2.9,2.38-6.11h-2.38v6.11Zm12.42-22.46h-9.72v2.19h9.72v-2.19Zm.26,18.86c0,.84,.26,1.03,1.16,1.03h1.22v-3.54h-2.38v2.51Zm19.25-28.77c0-3.67-.06-5.21-.32-7.14h10.04c-.26,1.93-.32,3.41-.32,7.14v2.45h2.9c2.83,0,4.18-.06,5.92-.19-.19,2.19-.26,3.67-.26,7.14v15c0,3.67,.06,5.41,.26,7.34-1.61-.13-3.35-.19-5.92-.19h-3.41v8.5c1.03-.19,1.35-.26,2.32-.45-.32-1.48-.45-2-.9-4.06l6.37-1.8c1.67,5.79,2.32,8.75,3.73,16.67l-6.95,2.77c-.39-3.03-.51-3.8-.77-5.54-3.48,.97-9.98,2.57-14.87,3.6-.19,.06-1.87,.45-5.09,1.16l-1.87-10.17c3.22-.06,4.18-.13,9.14-.77v-9.91h-2.57c-3.22,0-3.67,0-5.34,.13,.13-1.74,.13-2.64,.13-6.57V16.39c0-3.73,0-4.96-.13-6.57,1.61,.13,2.77,.19,6.37,.19h1.54v-2.45Zm-1.16,11.26v11.52h2.12v-11.52h-2.12Zm12.04,11.52v-11.52h-2.25v11.52h2.25Z"/></g><g><rect class="cls-2" x="22.06" y="344.67" width="279.31" height="46.14" rx="17.39" ry="17.39"/><g><path class="cls-1" d="M74.98,377.14c-1.69,.17-3.6,.33-5.43,.33-5.33,0-6.81-1.42-6.81-3.35,0-2.39,2.79-3.75,6.12-4.91-.06-.87-.33-1.62-1.39-1.62-1.46,0-4.1,1.39-6.58,5.02l-1.73-1.64c1.96-2.21,3.64-4.6,4.91-6.95-1.23,.04-2.81,.08-4.23,.08l-.06-2.02c.9,.06,2.02,.08,3.27,.08,.62,0,1.27-.02,1.94-.02,.37-.87,.69-1.75,.92-2.6l2.27,.35c-.23,.65-.52,1.39-.87,2.17,2.06-.06,4.16-.19,5.6-.35l-.1,1.98c-1.98,.08-4.14,.19-6.43,.27-.67,1.21-1.39,2.39-2.12,3.37,.98-.71,2.25-1.37,3.58-1.37,.54,0,1.08,.1,1.62,.35,.92,.42,1.29,1.15,1.44,2.25,1.42-.46,2.85-.92,4.12-1.46l1.35,1.83c-1.69,.48-3.58,.98-5.37,1.54,0,.9,0,1.94,.04,3.14l-2.21,.1c0-.9,0-1.69,.02-2.52-2.29,.83-4,1.77-4,2.85,0,1.5,3.06,1.54,4.16,1.54,2.1,0,4.54-.31,6.06-.67l-.08,2.23Z"/><path class="cls-1" d="M103.56,366.21c-1.95-1.43-3.72-3.18-5.16-5.04,.77,2.23,1.15,4.35,1.15,6.33,0,6.1-3.55,10.51-9.25,10.51-2.43,0-9.02-.83-9.02-8.14,0-4.01,2.26-8.68,5.96-11.66-2.23,.29-4.18,.54-6.59,.77l-.32-3.04c.2,0,.46,.03,.74,.03,2.41,0,6.99-.43,8.62-.97l1.69,2.69c-4.67,3.29-7.16,8.05-7.16,11.75,0,5.47,4.96,5.76,5.96,5.76,4.07,0,6.59-3.5,6.59-8.91,0-3.01-.77-6.56-2.49-10.46l2.98-1.23c1.52,3.47,4.13,6.5,7.94,8.91l-1.63,2.69Z"/><path class="cls-1" d="M128.54,376.78c-2.81,.2-5.99,.46-9,.46-6.53,0-11.57-1.29-11.57-6.62,0-3.98,3.07-6.1,7.56-7.79-1.26-1.69-1.46-5.16-1.46-8.6v-.86h3.35c-.06,.92-.11,1.86-.11,2.81,0,2.12,.23,4.21,.97,5.76,2.69-.83,5.73-1.58,8.85-2.52l.86,3.01c-5.82,1.43-16.99,3.12-16.99,8.08,0,3.29,4.27,3.84,7.88,3.84,2.66,0,5.93-.32,9.71-.83l-.06,3.27Z"/><path class="cls-1" d="M153.52,378.58v-1.43h-14.73v1.43h-2.92v-24.92h20.54v24.92h-2.89Zm0-22.35h-14.73v4.24h14.73v-4.24Zm0,6.65h-14.73v4.41h14.73v-4.41Zm0,6.82h-14.73v4.87h14.73v-4.87Z"/><path class="cls-1" d="M182.95,377.24c-4.5,0-14.41-.66-14.41-9.2,0-4.15,2.98-7.85,7.91-9.57-4.44,.29-10.14,.69-13.49,.95l-.32-3.09h1.26c5.27,0,15.73-.57,21.63-1.15l.63,2.89c-8.22,.43-14.55,4.7-14.55,9.86,0,4.73,5.64,6.19,9.8,6.19,.69,0,1.4-.06,2.12-.11l-.57,3.24Zm.83-11.09c-.89-.97-1.98-1.98-3.04-2.84l1.49-1.38c1.06,.83,2.18,1.78,3.09,2.75l-1.55,1.46Zm2.43-2.12c-.89-.95-1.92-1.89-3.04-2.75l1.46-1.32c1.09,.8,2.15,1.72,3.07,2.64l-1.49,1.43Z"/><path class="cls-1" d="M203.2,375.2s-4.21,1.89-11.55,3.35l-.74-2.87c.97-.11,1.89-.32,2.75-.54v-22h2.89v8.82h6.47v2.69h-6.47v9.88c3.98-.89,6.65-2.12,6.65-2.12v2.78Zm3.95,2.43s-2.58,0-2.58-2.55v-21.95h2.89v9.97c3.9-1.32,7.11-4.07,7.11-4.07l1.75,2.23s-3.15,2.61-8.85,4.56v8.14c0,1.03,1.15,1,1.15,1h2.15c2.35,0,2.87-.11,2.87-4.9l2.92,1.69c-.14,5.07-1.63,5.87-4.07,5.87h-5.33Z"/><path class="cls-1" d="M227.07,374.66v3.93h-2.69v-3.93h-4.58v-2.21h4.58v-2.01h-4.01v-11.12h4.01v-2.01h-4.24v-2.18h4.24v-2.35h2.69v2.35h4.27v2.18h-4.27v2.01h4.07v11.12h-4.07v2.01h4.5v2.21h-4.5Zm-2.46-13.26h-1.92v2.38h1.92v-2.38Zm0,4.35h-1.92v2.61h1.92v-2.61Zm4.21-4.35h-1.98v2.38h1.98v-2.38Zm0,4.35h-1.98v2.61h1.98v-2.61Zm15.04,12.83c-2.01-1.69-3.67-3.38-4.99-4.99-1.43,1.8-3.61,3.61-5.99,4.99l-1.66-2.49c2.75-.92,4.64-2.75,6.02-4.64-1.95-2.98-2.81-5.76-3.01-6.39-.37,.4-.83,.86-1.26,1.26l-1.69-2.29c2.75-2.12,3.87-5.39,3.87-5.39l2.32,1.06s-.92,2.58-3.04,5.13l2.21-.83s.43,2.32,2.12,5.1c1.35-2.69,1.52-5.16,1.52-5.16l2.38,.66c-1.86-2.44-3.04-4.78-3.04-4.78l2.21-1.2s1.63,3.24,3.81,5.3l-1.72,2.18c-.4-.43-.77-.89-1.15-1.35-.11,.6-.89,3.98-2.35,6.68,1.29,1.6,2.92,3.5,5.16,4.9l-1.72,2.26Zm-11.8-20.37v-2.58h5.01v-2.84h2.75v2.84h5.39v2.58h-13.15Z"/><path class="cls-1" d="M251.57,371.77l-.29-11.58h2.5l-.27,11.58h-1.94Zm-.25,4.66v-2.77h2.44v2.77h-2.44Z"/></g><polygon class="cls-2" points="161.72 406.64 135.5 380.76 187.94 380.76 161.72 406.64"/></g></g></g></svg>