<?xml version="1.0" encoding="UTF-8"?><svg id="Layer_2" xmlns="http://www.w3.org/2000/svg" viewBox="0 0 1091 116"><defs><style>.cls-1{fill:none;}.cls-2{fill:#fff;}.cls-3{fill:#ee628a;}.cls-4{fill:#333;}.cls-5,.cls-6{fill:#d6f1d8;}.cls-6{stroke:#ee628a;stroke-miterlimit:10;stroke-width:2px;}</style></defs><g id="PC"><g><rect class="cls-1" width="1091" height="116"/><polygon class="cls-5" points="207 38.95 207 0 30 0 30 116 207 116 207 77.05 220 58 207 38.95"/><path class="cls-3" d="m197,38.95V0H30.75C13.77,0,0,13.77,0,30.75v54.5c0,16.98,13.77,30.75,30.75,30.75h166.25v-38.95l13-19.05-13-19.05Z"/><g><path class="cls-2" d="m42.78,47.6c-1.64,0-3.72.07-5.46.2v-5.33c1.64.17,3.35.23,5.29.23h20.33c2.24,0,4.05-.07,5.26-.23v5.33c-1.74-.13-3.48-.2-5.09-.2h-5.36c-.7,1.34-1.04,1.91-2.45,3.88v2.85l2.11-2.54c3.35,3.88,7.4,6.97,11.62,8.81-1.21,1.61-2.08,3.05-3.01,5.06-4.52-2.68-7.67-5.19-10.72-8.57v10.99c0,1.88.07,3.38.23,4.82h-5.79c.17-1.44.23-2.98.23-4.82v-10.58c-1.07,1.37-2.58,2.78-4.69,4.39-1.67,1.31-3.28,2.38-5.63,3.72-.67-1.71-1.57-3.15-2.98-4.79,2.95-1.47,4.52-2.45,6.83-4.29,3.75-2.95,5.96-5.39,8.07-8.91h-8.81Z"/><path class="cls-2" d="m95.94,57.85c-1.17,3.05-2.04,4.56-3.78,6.57,3.62,1.51,5.53,2.44,9.21,4.45l-3.88,4.22c-3.45-2.24-5.69-3.48-9.34-5.19-1.71,1.14-3.25,1.94-5.33,2.71-2.88,1.1-5.22,1.71-9.58,2.44-.57-1.98-1.04-2.91-2.34-4.92,5.22-.44,8.04-1.04,11.62-2.55-2.58-.97-4.39-1.54-8.54-2.71,1.78-2.21,2.45-3.12,3.68-5.02h-2.81c-1.91,0-2.95.03-3.99.17v-4.96c1.04.1,1.67.13,3.99.13h5.53c.97-1.88,1.51-3.11,1.81-4.09l5.56.74c-.84,1.71-1.04,2.08-1.64,3.35h11.66c2.38,0,3.05-.03,3.95-.13v4.96c-1.07-.13-2.08-.17-3.95-.17h-1.81Zm-12.59-14.1c0-.94-.03-1.61-.13-2.31h5.59c-.07.64-.13,1.37-.13,2.28v.33h8.54c1.94,0,2.98-.03,4.09-.13-.1.9-.13,1.71-.13,2.61v3.05c0,1,.07,1.78.17,2.58h-5.09v-3.45h-19.96v3.45h-5.12c.13-.74.17-1.44.17-2.61v-3.01c0-.8-.03-1.74-.13-2.61,1.14.1,2.11.13,4.09.13h8.07v-.3Zm.2,14.1c-.64,1.07-.9,1.47-1.84,2.81,2.38.67,3.12.9,5.59,1.81,1.47-1.47,2.24-2.61,3.11-4.62h-6.87Z"/></g><path class="cls-6" d="m142.62,61.94c7.03-6.72,11.43-12.16,11.43-17.68,0-4.32-3.39-7.76-8.38-7.76s-8.64,3.92-8.89,9.84h-11.26c.59-12.72,9.15-19.92,20.83-19.92s19.05,8.4,19.05,17.2c0,8.32-5.42,16-14.31,24.8l-6.78,6.72h21.59v10.16h-42.09v-5.28l18.8-18.08Z"/><path class="cls-2" d="m117.55,71.79c0,1.67-1.49,3.06-3.37,3.06s-3.33-1.38-3.33-3.06,1.53-3.06,3.33-3.06,3.37,1.35,3.37,3.06Z"/><g><path class="cls-4" d="m245.18,45.45c-2.39.37-3.28.51-5.66.79-.61-2.62-1.12-4.12-2.15-6.5,4.58-.37,8.09-.94,12.4-2.01,3.04-.75,4.4-1.26,5.66-2.01l4.12,6.22q-.23.09-1.08.37c-1.82.61-4.21,1.26-6.22,1.73v4.77h2.9c1.78,0,2.71-.05,3.84-.23v6.88c-1.17-.14-2.34-.19-3.98-.19h-2.53c2.48,3.51,3.98,5.01,7.06,7.21-1.36,2.29-2.25,4.07-3.18,6.6-1.92-1.82-2.95-3.13-4.26-5.38.09,1.08.14,2.34.14,3.84v6.32c0,2.99.05,4.26.28,6.13h-7.63c.19-1.92.28-3.37.28-6.13v-5.52q0-2.34.09-3.65c-1.45,3.6-2.9,5.9-5.57,8.66-1.26-3.42-1.83-4.63-3.37-7.16,1.83-1.54,2.95-2.9,4.44-5.19,1.4-2.2,2.29-3.93,2.9-5.71h-2.11c-1.73,0-2.9.05-4.12.23v-6.92c1.26.19,2.34.23,4.26.23h3.46v-3.37Zm22.88-5.8c-.19,1.73-.23,3.09-.23,5.99v17.31c0,2.85.05,4.16.23,5.71h-7.44c.19-1.4.23-2.39.23-5.52v-17.5c0-2.76-.09-4.3-.23-5.99h7.44Zm10.81-3.04c-.23,2.15-.28,3.93-.28,6.83v29.47c0,3.04-.75,4.87-2.43,5.71-1.31.7-3.93,1.03-8.09,1.03-.8,0-1.54-.05-3.23-.09-.56-2.9-1.03-4.49-2.2-7.25,2.95.28,4.4.37,6.41.37s2.48-.23,2.48-1.4v-27.84c0-2.2-.09-4.44-.28-6.83h7.63Z"/><path class="cls-4" d="m285.09,74.97c2.34-3.32,3.32-5.61,4.4-10.01l6.5,2.39c-1.4,5.24-2.48,7.95-4.87,12.02l-6.04-4.4Zm10.53-10.9c-2.48,0-3.79.05-5.1.14.14-1.59.19-2.76.19-5.57v-13.66c0-2.62-.05-4.12-.19-5.61,1.5.14,2.95.19,5.89.19h5.52c.7-1.59.98-2.43,1.4-4.02l8.05.51q-.23.51-.89,1.92-.47,1.03-.75,1.59h8.89c2.95,0,4.4-.05,5.89-.19-.14,1.45-.19,2.9-.19,5.61v13.66c0,2.95.05,4.02.19,5.57-1.31-.09-2.71-.14-5.1-.14h-7.49c.94,1.03,2.15,2.57,3.65,4.54l-2.11,1.17c1.96.8,3.84,1.31,6.27,1.64-.51,4.02-.84,5.29-1.73,6.22-1.4,1.4-4.35,1.96-10.95,1.96-8.47,0-10.06-.79-10.06-5.15v-5.66c0-1.54-.05-2.15-.23-3.42h7.44c-.14,1.03-.19,1.73-.19,3.42v3.27c0,1.17.42,1.36,3.32,1.36,5.1,0,5.24-.09,5.29-3.13l-3.09,1.73c-1.31-2.15-2.85-4.12-4.68-6.04l4.21-1.92h-13.47Zm2.11-17.73h19.6v-1.64h-19.6v1.64Zm0,6.32h19.6v-1.73h-19.6v1.73Zm0,6.32h19.6v-1.73h-19.6v1.73Zm25.5,19.65c-1.45-3.98-3.04-6.97-5.66-10.95l6.04-2.67c2.99,4.02,4.35,6.27,6.22,10.25l-6.6,3.37Z"/><path class="cls-4" d="m334.68,41.66c.79.05,1.4.05,1.78.05,1.22,0,2.9-.09,8-.42,6.74-.42,11.27-.65,20.16-.98l4.82-.19,1.96-.09c1.59-.05,1.87-.09,2.11-.09.33,0,.51-.05,1.08-.19l.42,8.47c-.66-.09-.84-.09-1.31-.09-3.27,0-7.49,1.26-10.71,3.28-4.68,2.85-7.44,6.78-7.44,10.62,0,2.71,1.26,4.54,3.93,5.8,1.87.94,5.99,1.68,8.94,1.68.37,0,.7,0,1.4-.05l-1.08,8.89c-.65-.14-.79-.14-1.73-.23-5.33-.47-8.84-1.26-11.84-2.62-5.52-2.57-8.38-6.88-8.38-12.82,0-3.88,1.31-7.39,3.98-10.57,1.22-1.5,2.34-2.43,4.58-3.98l-2.2.23c-1.03.09-2.67.23-11.42.94-4.35.47-4.58.47-6.6.89l-.47-8.51Zm33.17,10.67c1.87,2.15,3.28,4.21,4.54,6.78l-4.49,2.06c-1.45-2.95-2.67-4.77-4.54-6.92l4.49-1.92Zm6.27-2.71c1.68,1.87,2.99,3.7,4.58,6.6l-4.35,2.01c-1.68-3.13-2.85-4.91-4.44-6.74l4.21-1.87Z"/><path class="cls-3" d="m424.17,49.99c-.23.56-.33.79-.84,2.29-1.36,4.07-2.76,6.78-5.01,9.73,2.62,1.59,5.01,2.57,8.23,3.32-1.5,2.39-2.29,4.21-2.95,6.64,1.36-.14,1.59-.19,3.18-.42-.94,2.85-1.36,4.63-1.73,7.62-4.02.14-12.02.28-17.08.28-10.71,0-13.85-.84-17.22-4.58-1.87,1.68-3.65,3.09-5.19,4.07q-.33.23-.61.42s-.05.05-.75.56l-3.04-7.58c1.64-.61,3.46-1.73,5.89-3.56v-8.84h-1.96c-1.08,0-1.73.05-2.95.23v-7.06c1.31.19,2.1.23,3.88.23h4.54c1.4,0,2.57-.05,3.6-.19-.14,1.45-.19,2.53-.19,5.29v6.92c2.39-4.16,3.42-10.34,3.42-20.96,0-3.84-.05-5.47-.23-7.3,1.73.19,3.55.28,6.27.28h15.86c2.29,0,4.07-.09,5.89-.28v6.97c-1.64-.14-3.23-.23-5.47-.23h-15.44v3.04h11.98c2.15,0,3.32-.05,4.54-.23l3.37,3.32Zm-37-13.66c3.98,3.23,6.32,5.52,8.75,8.61l-5.43,5.47c-2.9-3.79-4.87-5.85-8.61-9.03l5.29-5.05Zm6.83,32.94c1.12,1.4,1.78,1.92,2.76,2.39,1.59.7,3.88.98,8.19.98,7.77,0,13.15-.19,18.06-.61-3.93-1.5-6.5-2.85-9.4-4.96-2.62,2.29-4.49,3.51-8.42,5.43-1.5-2.71-2.25-3.79-3.93-5.61-.79,1.96-1.31,2.9-2.62,4.96-1.54-2.29-2.81-3.7-4.63-5.24v2.67Zm9.92-14.13c-.47,4.73-1.12,7.77-2.39,11.04,2.95-1.17,4.4-1.96,6.83-3.84-2.06-2.39-3.27-4.3-4.44-7.21Zm6.13-2.01c.75,1.78,1.54,2.99,2.99,4.63,1.22-1.59,1.78-2.57,2.67-4.63h-5.66Z"/><path class="cls-3" d="m434.65,47.75c3.09,1.73,5.19,3.13,7.53,5.01,3.6-.23,6.41-.7,9.78-1.73-2.39-1.83-3.7-3.13-5.43-5.43-1.36.05-2.01.09-3.04.23v-2.71l-3.37,4.35c-2.9-2.67-4.58-3.98-8.23-6.27l4.44-5.29c2.9,1.78,4.77,3.09,7.16,5.05v-1.87c1.45.19,2.9.28,5.47.28h5.43v-.51c0-1.17-.09-2.06-.23-2.9h7.63c-.19.89-.23,1.68-.23,2.81v.61h7.39c2.57,0,4.26-.09,5.66-.28v6.74c-1.4-.19-2.11-.23-4.63-.23-1.64,2.2-3.04,3.7-5.19,5.38,3.88,1.08,6.88,1.59,10.81,1.87-1.36,2.29-1.92,3.7-2.62,6.5-1.5-.28-2.06-.37-3.04-.61v15.49c0,2.62.09,4.21.28,5.8h-7.49c.19-1.59.28-3.37.28-5.8v-2.06h-12.12c-1.17,3.23-2.67,5.57-5.38,8.28-1.59-2.06-3.09-3.42-5.71-5.19,4.58-4.07,5.8-7.44,5.94-16.47-.89.14-1.17.19-2.34.37-.37-1.73-.65-2.62-1.4-4.4l-2.99,4.44c-3.18-2.71-4.72-3.79-8.47-6.04l4.12-5.43Zm7.95,16.61c-1.73,6.46-3.09,10.29-5.19,14.41q-.19.42-.65,1.31l-6.08-5.29c2.15-2.48,4.26-7.53,6.13-14.55l5.8,4.12Zm9.87-.37c-.14,1.03-.14,1.36-.28,2.25h10.81v-2.25h-10.53Zm10.53-5.89v-1.22c-1.87-.66-2.81-1.03-4.68-1.92-2.06.94-3.32,1.4-5.57,2.11v1.03h10.25Zm-8.7-12.49c1.08,1.12,2.01,1.82,3.7,2.81,1.5-.94,2.53-1.73,3.46-2.81h-7.16Z"/><path class="cls-3" d="m480.55,47.84c.19.05.33.05.42.05,1.5,0,5.94-.37,9.03-.79.75-4.87,1.08-7.63,1.08-9.22v-.79l8.47.79c-.19.56-.23.75-.28,1.12-.05.14-.09.56-.14.84l-.33,1.68c-.42,2.39-.75,4.3-.89,5.05.79-.09,1.36-.09,2.01-.09,2.9,0,5.05.61,6.64,1.87,2.39,1.92,3.32,4.77,3.32,10.06,0,7.3-1.08,13.33-2.95,16.61-.65,1.12-1.82,2.15-2.99,2.76-.94.42-2.15.66-3.65.66-2.15,0-4.26-.33-7.44-1.22.14-1.36.14-1.87.14-2.71,0-2.06-.19-3.32-.7-5.61,2.67,1.08,5.05,1.68,6.41,1.68.98,0,1.59-.61,2.11-2.11.7-2.06,1.26-6.78,1.26-10.39,0-1.97-.28-3.09-.89-3.74-.51-.61-1.17-.79-2.81-.79-.42,0-.89,0-1.87.09-1.68,7.67-4.49,15.72-8.28,23.67-.37.89-.47,1.03-.75,1.73l-7.72-4.07c2.95-3.93,6.88-13.19,8.79-20.73-2.95.42-5.94.94-7.3,1.36l-.7-7.77Zm30.88-9.78c1.87,2.06,3.37,4.21,4.63,6.69l-4.44,2.15c-1.54-2.95-2.71-4.68-4.63-6.83l4.44-2.01Zm6.22,8.09c2.99,4.12,5.61,10.2,7.16,16.61l-7.67,3.65c-.98-5.94-3.74-13.38-6.36-17.03l6.88-3.23Zm0-10.9c1.73,1.87,3.04,3.65,4.68,6.5l-4.3,2.11c-1.59-2.95-2.9-4.82-4.58-6.69l4.21-1.92Z"/><path class="cls-3" d="m539.77,38.53c0-.94-.05-1.64-.19-2.43h7.25c-.14.75-.19,1.5-.19,2.48v.98h8.66v-.98c0-.89-.05-1.73-.19-2.48h7.25c-.14.79-.19,1.4-.19,2.48v.98h4.87c2.48,0,4.07-.09,5.61-.28v7.11c-1.68-.19-3.18-.28-5.61-.28h-4.87v1.08c0,1.12,0,1.4.14,2.01h-6.36c.05-.75.09-1.45.09-1.87v-1.22h-10.15v1.17c0,.61.05,1.54.09,2.01h-6.36c.09-.47.14-1.4.14-1.96v-1.22h-4.35c-2.48,0-3.98.09-5.66.28v-7.11c1.64.19,3.28.28,5.66.28h4.35v-1.03Zm23.86,22.88c2.2,0,3.13-.05,4.44-.14-.19,1.26-.23,2.62-.23,4.82v8.47c0,2.53.09,4.07.28,5.47h-7.39v-1.92h-19.09v1.92h-7.3c.19-1.45.28-3.18.28-5.47v-8.47c0-2.1-.05-3.51-.23-4.82,1.26.09,2.25.14,4.44.14h8.51v-3.09h-11.37c-2.67,0-4.49.09-6.08.28v-7.02c1.59.19,3.56.28,6.08.28h11.37v-1.4c0-1.17-.05-2.01-.19-2.81h7.53c-.14.84-.19,1.54-.19,2.81v1.4h11.93c2.67,0,4.54-.09,6.08-.28v7.02c-1.59-.19-3.46-.28-6.08-.28h-11.93v3.09h9.12Zm-22.04,10.2h19.23v-3.79h-19.23v3.79Z"/><path class="cls-3" d="m592.17,38.01c-.51,2.95-1.08,15.44-1.08,23.25,0,4.68.19,6.08.98,7.34.89,1.4,2.9,2.25,5.47,2.25,4.82,0,8.56-2.85,10.39-7.91.94-2.53,1.45-5.01,1.87-8.47,3.46,2.71,5.01,3.7,8,4.91-1.78,7.02-3.32,10.43-5.9,13.29-3.7,4.02-8.56,6.04-14.69,6.04-4.77,0-8.33-1.17-10.85-3.56-2.67-2.57-3.56-5.57-3.56-12.12q0-1.22.23-10.62c.09-4.73.19-9.17.19-10.99,0-1.45-.05-2.2-.23-3.56l9.17.14Z"/><path class="cls-3" d="m654.72,41.48c-1.12.7-1.59,1.12-5.94,5.01-2.71,2.39-6.5,5.43-11.46,9.08-1.26.94-1.54,1.22-1.54,1.64q0,.56,4.4,3.79c5.1,3.7,9.08,6.92,14.27,11.46.28.23.7.56,1.45,1.22l-6.69,6.83c-1.12-1.54-2.15-2.71-4.63-5.1-4.02-3.79-5.66-5.15-13.8-11.46-2.34-1.83-3.18-2.67-3.79-3.84-.42-.89-.7-2.06-.7-3.09,0-1.64.61-3.18,1.73-4.49.66-.7,1.36-1.31,4.26-3.51,6.22-4.68,9.08-7.11,12.3-10.34,1.12-1.12,1.59-1.64,2.34-2.71l7.81,5.52Z"/><path class="cls-3" d="m684.15,37.22c-.28.84-.33.84-.89,3.74-.23,1.12-.33,1.54-.56,2.62,2.99-.33,5.01-.66,6.5-1.12l.14,7.58q-1.12.09-3.46.37c-1.26.14-3.84.37-5.01.47-1.68,5.52-2.9,8.75-5.1,13.57-.98,2.15-1.4,2.99-3.23,6.64q-.61,1.17-.89,1.83l-7.63-4.16c3.32-4.44,6.55-11.09,8.66-17.68h-2.62q-1.08,0-2.15-.05h-1.83v-7.49c1.78.33,3.93.47,6.83.47.51,0,.75,0,1.68-.05q.05-.37.42-1.96c.38-1.59.66-3.88.7-5.57l8.42.79Zm20.12,39.44c-1.73-2.01-3.51-3.51-6.04-5.1-.14,2.2-.7,3.55-1.96,4.87-1.82,1.82-5.1,2.9-8.84,2.9s-6.92-1.12-8.84-3.09c-1.54-1.59-2.34-3.6-2.34-5.8,0-5.43,4.54-9.22,11.04-9.22.98,0,1.73.05,3.27.28-.14-1.78-.19-2.67-.19-3.74,0-1.92.09-3.42.28-5.52l7.72.33c-.38,1.64-.51,3.04-.51,5.29,0,1.68.09,3.09.37,5.43,2.85,1.26,5.05,2.53,7.21,4.16.14.09.89.7,2.29,1.82l-3.46,7.39Zm-16.75-8.79c-2.2,0-3.6.94-3.6,2.39,0,1.36,1.31,2.25,3.32,2.25,2.34,0,3.56-1.03,3.56-2.99,0-.33-.05-.98-.09-1.03-1.26-.47-2.06-.61-3.18-.61Zm17.22-13.15c-4.4-2.76-8.98-4.87-14.55-6.74l3.88-6.46c5.89,2.11,9.73,3.79,14.08,6.32l-3.42,6.88Z"/><path class="cls-3" d="m726.77,37.45c-.66,1.96-1.22,5.01-1.92,10.01,3.04-5.47,6.83-8.09,11.84-8.09,3.18,0,6.32,1.59,8.47,4.26,2.62,3.27,3.88,7.53,3.88,13,0,7.67-2.39,13.38-7.16,17.12-2.67,2.11-6.41,3.84-10.67,4.87-1.59.42-2.81.66-5.52,1.08-1.12-3.51-1.73-4.82-3.74-8,13.43-.79,18.85-5.19,18.85-15.3,0-5.85-1.87-9.08-5.19-9.08-1.73,0-3.32.84-5.05,2.71-2.81,2.95-4.63,6.83-5.19,10.85-.14,1.08-.19,1.64-.19,3.84l-7.86.09c.05-.33.05-.61.05-.79v-.94c-.09-1.82-.14-4.63-.14-5.94,0-5.66.33-11.04,1.08-17.08.14-1.36.19-1.87.19-2.57v-.37l8.28.33Z"/><path class="cls-3" d="m764.29,38.53c1.73.19,2.62.23,5.43.23,4.02,0,11.46-.28,14.74-.56,2.43-.19,3.27-.33,4.54-.79l4.07,5.38q-1.08.75-4.87,4.02c-3.27,2.9-5.24,4.4-9.03,7.06,2.53-.33,7.58-.75,11.93-1.08,6.04-.37,7.21-.47,8.19-.7l.33,7.86c-.94-.05-1.08-.05-1.92-.05-5.94,0-9.54.56-13.01,2.06-3.27,1.45-5.33,3.65-5.33,5.75,0,2.34,2.53,3.56,7.44,3.56,2.2,0,3.88-.14,5.85-.56l.37,8.28q-.56-.05-1.08-.05t-2.76.09c-.79.05-1.59.05-2.34.05-4.73,0-8-.61-10.81-1.92-3.32-1.64-5.29-4.58-5.29-8.14,0-3.37,1.64-6.13,4.87-8.33-1.36.28-3.13.51-7.67,1.03-5.66.66-7.63.94-9.64,1.45l-.7-8c.51.05.89.05,1.12.05,1.5,0,4.58-.23,8.66-.7,3.79-2.43,6.5-4.58,11.79-9.45-2.53.28-2.81.33-3.98.37q-.47.05-3.6.23-.65.05-3.65.23c-1.73.09-1.87.14-3.18.33l-.47-7.72Z"/><path class="cls-3" d="m806.67,51.77q1.45,0,6.17-.79c6.6-1.08,10.85-1.45,15.72-1.45,6.13,0,10.11,1.64,12.3,5.15,1.17,1.87,1.78,3.98,1.78,6.32,0,5.75-3.7,11.18-9.78,14.36-4.07,2.15-8.28,3.27-15.95,4.21-.84-3.42-1.54-5.15-3.23-8.05,5.43-.23,9.59-.94,13.01-2.29,3.13-1.17,5.24-2.76,6.32-4.72.56-1.03.89-2.2.89-3.18,0-2.81-2.06-4.26-5.94-4.26-5.47,0-14.69,1.59-19.46,3.37l-1.82-8.66Zm7.67-15.3c5.66,1.73,12.07,2.57,19.37,2.57.84,0,1.64,0,3.23-.05l-1.03,7.95c-9.5-.28-16.56-1.12-24-2.85l2.43-7.63Z"/><path class="cls-4" d="m850.32,43.16c1.03.05,1.54.05,1.78.05q.84,0,7.72-.47c3.42-.19,11.42-.61,23.91-1.22,3.84-.19,4.07-.19,4.82-.38l.33,5.94q-.51-.05-.98-.05c-2.81,0-6.27.94-9.26,2.53-5.94,3.09-9.45,7.77-9.45,12.49,0,3.65,2.29,6.46,6.22,7.62,2.29.7,5.29,1.22,6.97,1.22.05,0,.47,0,.94-.05l-.84,6.36c-.61-.14-.7-.14-1.59-.28-5.15-.66-8.09-1.5-10.95-3.09-4.3-2.43-6.69-6.41-6.69-11.27,0-3.98,1.59-7.91,4.44-10.99,1.78-1.92,3.46-3.18,6.5-4.73-3.79.56-6.69.84-15.77,1.5-4.16.33-6.32.61-7.77.94l-.33-6.13Zm32.23,8.98c2.06,2.2,3.32,3.98,4.91,6.88l-3.28,1.73c-1.54-2.85-2.85-4.72-4.91-6.97l3.27-1.64Zm7.25,5.66c-1.4-2.57-2.95-4.77-4.77-6.78l3.13-1.64c2.11,2.15,3.42,3.93,4.87,6.6l-3.23,1.82Z"/><path class="cls-4" d="m903.61,43.96c-2.01,0-4.54.09-6.41.28v-5.52c1.87.19,3.88.28,6.22.28h29.75c2.76,0,4.73-.09,6.22-.28v5.52c-1.87-.19-4.07-.28-6.08-.28h-9.45c-.94,1.82-1.5,2.71-3.32,5.19v24.56c0,2.2.09,4.12.33,5.89h-6.04c.19-1.78.33-3.93.33-5.89v-14.04c0-1.68,0-2.29.05-4.35-1.64,2.15-3.88,4.4-6.83,6.83-2.29,1.87-4.72,3.56-8.89,6.18-.75-1.68-1.59-2.9-3.28-4.77,6.04-3.18,10.39-6.41,14.74-10.9,3.09-3.13,4.63-5.19,6.64-8.7h-13.99Zm20.72,6.6c2.34,2.71,4.12,4.44,6.83,6.64,3.51,2.81,6.18,4.49,9.59,5.99-1.36,1.78-2.2,3.04-3.23,5.1-7.06-4.07-11.98-8.23-16.61-13.94l3.42-3.79Z"/><path class="cls-4" d="m979.3,57.94c-1.73,4.72-3.23,7.34-5.94,10.39,5.47,2.25,8.33,3.6,14.36,6.88l-3.88,4.3c-5.29-3.37-8.75-5.19-14.41-7.67-5.01,3.79-10.57,5.94-20.26,7.81-.7-1.87-1.4-3.23-2.57-5.01,7.95-.94,12.91-2.34,17.5-5.01-4.35-1.64-5.19-1.92-12.54-3.88,2.76-3.42,3.84-4.96,5.61-7.81h-5.38c-2.29,0-3.74.09-5.1.28v-5.29c1.36.19,2.43.23,5.1.23h8.05c1.59-2.99,2.34-4.82,2.81-6.6l5.61.84q-.47.98-.94,1.96-.61,1.22-1.82,3.79h17.78c2.71,0,3.84-.05,5.15-.23v5.29c-1.45-.19-2.85-.28-5.15-.28h-3.98Zm-14.92-17.82c0-1.4-.05-2.43-.23-3.56h5.71c-.14.98-.23,2.1-.23,3.51v.84h12.63c2.29,0,3.79-.05,5.38-.23-.14,1.22-.19,2.29-.19,3.6v3.46c0,1.36.05,2.39.23,3.46h-5.15v-5.61h-30.22v5.61h-5.15c.14-1.08.23-2.06.23-3.46v-3.46c0-1.12-.09-2.39-.23-3.6,1.59.19,3.04.23,5.38.23h11.84v-.79Zm-1.4,17.82c-1.36,2.29-1.87,3.13-3.6,5.57,4.63,1.36,5.75,1.68,9.08,2.9,2.67-2.53,4.07-4.77,5.43-8.47h-10.9Z"/><path d="m1005.29,63.36c0,2.16-1.74,3.9-3.9,3.9s-3.9-1.74-3.9-3.9,1.74-3.9,3.9-3.9,3.9,1.74,3.9,3.9Z"/><path d="m1023.32,63.36c0,2.16-1.74,3.9-3.9,3.9s-3.9-1.74-3.9-3.9,1.74-3.9,3.9-3.9,3.9,1.74,3.9,3.9Z"/><path d="m1041.35,63.36c0,2.16-1.74,3.9-3.9,3.9s-3.9-1.74-3.9-3.9,1.74-3.9,3.9-3.9,3.9,1.74,3.9,3.9Z"/></g></g></g></svg>