<?xml version="1.0" encoding="UTF-8"?><svg id="Layer_2" xmlns="http://www.w3.org/2000/svg" viewBox="0 0 1091 116"><defs><style>.cls-1{fill:none;}.cls-2{fill:#fff;}.cls-3{fill:#ee628a;}.cls-4,.cls-5{fill:#d6f1d8;}.cls-5{stroke:#ee628a;stroke-miterlimit:10;stroke-width:2px;}</style></defs><g id="PC"><g><rect class="cls-1" width="1091" height="116"/><polygon class="cls-4" points="207 38.95 207 0 30 0 30 116 207 116 207 77.05 220 58 207 38.95"/><path class="cls-3" d="m197,38.95V0H30.75C13.77,0,0,13.77,0,30.75v54.5c0,16.98,13.77,30.75,30.75,30.75h166.25v-38.95l13-19.05-13-19.05Z"/><g><path class="cls-2" d="m42.78,47.6c-1.64,0-3.72.07-5.46.2v-5.33c1.64.17,3.35.23,5.29.23h20.33c2.24,0,4.05-.07,5.26-.23v5.33c-1.74-.13-3.48-.2-5.09-.2h-5.36c-.7,1.34-1.04,1.91-2.45,3.88v2.85l2.11-2.54c3.35,3.88,7.4,6.97,11.62,8.81-1.21,1.61-2.08,3.05-3.01,5.06-4.52-2.68-7.67-5.19-10.72-8.57v10.99c0,1.88.07,3.38.23,4.82h-5.79c.17-1.44.23-2.98.23-4.82v-10.58c-1.07,1.37-2.58,2.78-4.69,4.39-1.67,1.31-3.28,2.38-5.63,3.72-.67-1.71-1.57-3.15-2.98-4.79,2.95-1.47,4.52-2.45,6.83-4.29,3.75-2.95,5.96-5.39,8.07-8.91h-8.81Z"/><path class="cls-2" d="m95.94,57.85c-1.17,3.05-2.04,4.56-3.78,6.57,3.62,1.51,5.53,2.44,9.21,4.45l-3.88,4.22c-3.45-2.24-5.69-3.48-9.34-5.19-1.71,1.14-3.25,1.94-5.33,2.71-2.88,1.1-5.22,1.71-9.58,2.44-.57-1.98-1.04-2.91-2.34-4.92,5.22-.44,8.04-1.04,11.62-2.55-2.58-.97-4.39-1.54-8.54-2.71,1.78-2.21,2.45-3.12,3.68-5.02h-2.81c-1.91,0-2.95.03-3.99.17v-4.96c1.04.1,1.67.13,3.99.13h5.53c.97-1.88,1.51-3.11,1.81-4.09l5.56.74c-.84,1.71-1.04,2.08-1.64,3.35h11.66c2.38,0,3.05-.03,3.95-.13v4.96c-1.07-.13-2.08-.17-3.95-.17h-1.81Zm-12.59-14.1c0-.94-.03-1.61-.13-2.31h5.59c-.07.64-.13,1.37-.13,2.28v.33h8.54c1.94,0,2.98-.03,4.09-.13-.1.9-.13,1.71-.13,2.61v3.05c0,1,.07,1.78.17,2.58h-5.09v-3.45h-19.96v3.45h-5.12c.13-.74.17-1.44.17-2.61v-3.01c0-.8-.03-1.74-.13-2.61,1.14.1,2.11.13,4.09.13h8.07v-.3Zm.2,14.1c-.64,1.07-.9,1.47-1.84,2.81,2.38.67,3.12.9,5.59,1.81,1.47-1.47,2.24-2.61,3.11-4.62h-6.87Z"/></g><path class="cls-5" d="m128.76,42.74c-1.27,0-4.06-.8-4.06-4.32s1.95-3.76,6.94-4.64c5.25-.88,8.47-4.32,10.16-8.72.85-2.24,1.52-4.08,5.17-4.08,3.13,0,4.91,1.92,4.91,3.68v59.04c0,1.28,0,5.36-5.67,5.36-3.47,0-6.18-1.04-6.18-5.36v-40.96h-11.26Z"/><path class="cls-2" d="m117.55,71.79c0,1.67-1.49,3.06-3.37,3.06s-3.33-1.38-3.33-3.06,1.53-3.06,3.33-3.06,3.37,1.35,3.37,3.06Z"/><g><path class="cls-3" d="m264.25,50.13c-.83.62-.99.73-2.76,1.82,2.76,3.17,3.59,4.47,4.63,7.28,1.51,3.85,2.34,8.27,2.34,12.33s-.88,6.34-2.81,7.7c-1.25.88-3.43,1.35-6.55,1.35-.68,0-3.12-.1-4.26-.21-.42-2.96-.57-3.48-1.77-5.98-3.74,2.18-6.76,3.64-10.97,5.41-1.56-3.12-2.44-4.42-4.52-6.6,8.32-2.39,15.5-5.77,21.74-10.3-.21-.62-.26-.83-.57-1.61-4.63,3.07-10.87,6.03-17,8.17-1.2-2.44-2.18-4-3.9-6.03,7.28-1.87,13.57-4.21,18.25-6.81-.42-.52-.57-.73-1.09-1.3-4,1.92-7.59,3.22-12.84,4.68-.88-2.34-1.77-3.8-3.48-5.88,4.99-.83,5.88-.99,8.74-1.87,2.44-.73,4.21-1.35,5.82-2.13h-4.21c-1.98,0-3.59.1-5.2.26v-3.07h-5.36c.21-1.25.26-2.08.26-3.85v-4.68c0-1.66-.05-2.7-.21-3.8,1.61.16,3.33.21,6.19.21h12.69v-.57c0-1.2-.05-2.13-.21-3.07h8.68c-.16.88-.21,1.77-.21,3.02v.62h13.37c2.91,0,4.58-.05,6.29-.21-.16,1.14-.21,2.03-.21,3.8v4.68c0,1.56.05,2.71.21,3.85h-5.36v3.07c-1.77-.21-3.28-.26-5.2-.26h-2.18c.57,2.76.73,3.43,1.2,5.1,2.65-2.39,3.12-2.86,4.63-4.78l6.4,5.46q-.26.21-.83.62-.16.1-2.39,1.92c-3.07,2.44-3.69,2.91-4.89,3.8,2.5,4.16,5.2,6.66,10.09,9.26-2.7,2.81-3.38,3.74-5.41,7.23-5.67-4.47-8.58-7.9-11.18-13.36-2.18-4.58-3.54-8.79-4.99-15.24h-.94Zm13.21-8.22h-31.1v1.98c1.14.05,1.51.05,2.65.05l25.74-.05h2.7v-1.98Zm-23.19,31.83c1.66.21,2.6.26,3.54.26,2.34,0,2.76-.62,2.76-4.21v-.42c-3.38,2.55-4.32,3.17-6.29,4.37Z"/><path class="cls-3" d="m333.21,65.11c1.25,2.08,2.91,3.74,5.25,5.1,1.72,1.04,3.17,1.61,6.08,2.34-1.87,3.07-2.6,4.84-3.54,8.37-3.8-1.72-5.82-3.02-8.37-5.3-1.66-1.51-2.7-2.81-3.69-4.42-3.12,4.78-5.93,7.07-11.96,9.88-.99-2.7-1.98-4.58-3.33-6.29-.62,2.7-1.2,3.74-2.65,4.52-.94.57-2.6.83-4.78.83q-.47,0-2.29-.1c-.1-2.5-.47-4.58-1.04-6.5-1.04,3.12-1.98,4.99-3.69,7.54-1.87-3.17-3.12-4.73-5.46-6.92,3.85-6.5,4.68-11.49,4.89-29.07-1.66,0-2.65.1-3.9.26v-7.75c1.51.21,3.02.31,4.99.31h1.87v-1.72c0-1.87-.1-3.02-.26-4.37h8.42c-.21,1.3-.26,2.34-.26,4.32v1.77h1.04c1.56,0,2.76-.05,4.26-.26v2.91c2.96-3.54,4.73-6.66,5.41-9.31l7.85,1.25c-.68,1.51-1.25,2.7-1.92,3.85h11.8c2.03,0,3.9-.1,5.46-.31v7.75c-1.61-.21-2.86-.26-4.99-.26h-13.47l5.1,1.3c-.21.36-.68,1.2-1.4,2.5h9.26c1.56,0,2.34-.05,4-.21v7.38c-1.3-.16-2.39-.21-4.21-.21h-4.63c-.05,1.4-.1,1.72-.21,3.64h5.25c2.03,0,3.28-.05,4.73-.21v7.64c-1.46-.21-2.6-.26-4.47-.26h-5.15Zm-27.56-8.58c-.42,6.76-1.14,11.54-2.44,16.02.99.16,1.56.21,1.82.21,1.46,0,1.72-.31,2.03-2.6.47-3.02.73-7.9.78-13.62h-2.18Zm5.2-7.12c1.61,0,2.91-.05,4.21-.16-.1,1.35-.1,2.03-.1,3.95,2.39-1.92,3.64-3.12,5.1-4.89,1.2-1.51,2.29-3.43,2.81-4.78h-1.2c-1.82,2.44-3.17,3.95-5.67,6.4-1.61-2.13-3.12-3.54-5.15-4.84h-4.78l-.05,4.16v.16h4.84Zm10.04,15.7c-1.87,0-3.28.05-4.78.21v-7.54c1.2.1,1.46.1,2.91.16-1.14-1.46-2.76-3.02-4.06-4-.1,11.13-.26,14.66-1.04,19.55,1.87-.62,3.48-1.46,5.04-2.55,2.29-1.56,3.64-3.17,4.78-5.82h-2.86Zm4.42-7.18c.05-1.35.1-1.77.1-3.64h-1.56c-1.25,1.51-2.03,2.29-3.54,3.64h4.99Z"/><path class="cls-3" d="m367.06,34.53c-2.03,5.93-3.59,15.65-3.95,25.12l4,1.35c-1.35,4.68-2.03,9.36-2.03,14.56,0,.99,0,1.46.16,2.55l-8.94.42c-.05-.99-.05-1.4-.26-2.76-.99-6.97-1.35-11.49-1.35-16.43,0-5.98.62-12.53,1.98-20.02.62-3.64.68-4,.78-5.56l9.62.78Zm14.35,22.72c-2.39,3.07-3.48,5.3-3.48,7.18,0,2.39,2.34,3.69,6.76,3.69s9-.73,12.95-2.13l.52,9.2q-1.35.16-4.42.62c-2.81.42-6.03.68-9,.68-4.84,0-8.06-.68-10.76-2.18-2.91-1.66-4.78-4.89-4.78-8.27,0-2.55.88-5.41,2.5-8.11.73-1.2,1.04-1.72,2.44-3.74l7.28,3.07Zm-10.19-18.77c2.44.52,5.2.78,9.26.78,6.92,0,12.01-.42,15.5-1.3l.36,8.89c-.47,0-.99.05-3.85.36-3.59.36-7.38.57-10.97.57-3.17,0-5.77-.1-8.95-.42-.42-.05-.78-.05-1.51-.1l.16-8.79Z"/><path class="cls-3" d="m428.57,38.02c-.1.36-.16.73-.16.83-.05.16-.16.68-.21,1.46l-.16,1.04-.21,1.2c-2.08,15.91-6.03,26.73-12.9,35.15-2.29-2.29-5.62-4.73-8.48-6.19,7.07-7.18,11.96-21.37,12.22-35.26l9.88,1.77Zm15.19-1.82v.21c0,1.92.99,7.9,1.87,11.29,2.6,10.04,5.88,16.8,11.39,23.45-3.43,2.08-5.77,3.95-8.22,6.55-6.92-9.05-11.44-21.11-13.42-35.67-.05-.52-.1-.88-.1-.99l-.36-1.98-.05-.52s-.1-.31-.21-.62l9.1-1.72Zm4.63-2.65c1.3,2.44,2.39,5.1,3.33,8.37l-4.11,1.3c-.73-2.91-1.82-5.93-3.12-8.58l3.9-1.09Zm5.46,7.75c-.78-2.76-1.87-5.56-3.22-8.16l3.85-1.2c1.51,2.65,2.55,5.15,3.28,7.9l-3.9,1.46Z"/><path class="cls-3" d="m479.9,34.22c-.26,1.98-.31,3.33-.36,6.4l-.31,27.56c10.5-2.34,18.3-8.27,23.04-17.68,2.39,3.43,4,5.2,7.02,7.49-7.54,11.65-17.16,17.68-32.5,20.33-1.92.36-2.24.42-3.12.94l-4.63-5.41c.52-1.09.57-1.66.62-4.26l.21-28.91v-.83c0-2.44-.1-4.11-.31-5.67l10.35.05Z"/><path class="cls-3" d="m523.94,34.53c2.18.26,4.11.36,7.49.36,4.63,0,10.4-.21,15.65-.62,2.29-.16,2.96-.31,3.95-.73l4.26,6.29q-1.35.78-8.37,6.81c-2.76,2.34-3.69,3.12-7.18,5.67,2.91-.73,4.42-.94,7.12-.94,4.89,0,8.37,1.14,11.13,3.54,2.5,2.24,3.8,5.25,3.8,9,0,5.25-2.44,9.41-7.18,12.22-3.59,2.08-8.58,3.28-13.78,3.28-8.79,0-14.14-3.48-14.14-9.26,0-4.84,4.32-8.32,10.35-8.32,3.74,0,7.07,1.46,9.31,4,1.04,1.14,1.61,2.18,2.39,4.11,2.81-1.25,4.11-3.02,4.11-5.67,0-3.64-3.54-5.88-9.31-5.88s-11.34,1.72-16.02,4.78c-1.61,1.04-3.28,2.34-4.99,3.9l-4.84-7.9c4.78-2.24,15.76-10.76,22.21-17.16-2.76.31-4.84.42-12.17.78-1.4.05-2.39.16-3.43.26l-.36-8.53Zm12.9,33.9c-1.2,0-2.03.68-2.03,1.72,0,1.4,1.66,2.29,4.47,2.29.62,0,.73,0,1.72-.16-.68-2.5-2.13-3.85-4.16-3.85Z"/><path d="m593.68,63.71c-2.96,6.71-6.29,9.78-10.56,9.78-5.93,0-10.19-6.03-10.19-14.4,0-5.72,2.03-11.08,5.72-15.13,4.37-4.78,10.5-7.28,17.89-7.28,12.48,0,20.59,7.59,20.59,19.29,0,9-4.68,16.17-12.64,19.4-2.5,1.04-4.52,1.56-8.16,2.18-.88-2.76-1.51-3.9-3.17-6.08,4.78-.62,7.9-1.46,10.35-2.86,4.52-2.5,7.23-7.44,7.23-13,0-4.99-2.24-9.05-6.4-11.54-1.61-.94-2.96-1.35-5.25-1.56-.99,8.16-2.81,15.34-5.41,21.22Zm-7.64-18.62c-4.37,3.12-7.07,8.48-7.07,14.04,0,4.26,1.82,7.64,4.11,7.64,1.72,0,3.48-2.18,5.36-6.66,1.98-4.68,3.69-11.7,4.32-17.58-2.7.31-4.58,1.04-6.71,2.55Z"/><path d="m646.35,36.46c-.26,1.51-.62,3.64-1.14,6.45q-.16.88-.31,1.56c1.56-.05,2.29-.1,3.22-.1,3.43,0,5.98.94,7.7,2.76,1.77,1.98,2.44,4.47,2.44,9.2,0,8.94-1.51,16.07-4,18.93-1.46,1.72-3.02,2.34-5.77,2.34-2.39,0-4.52-.42-8.01-1.56.05-.99.1-1.77.1-2.29,0-1.35-.1-2.39-.52-4.42,2.81,1.25,5.77,2.08,7.59,2.08,1.51,0,2.34-.99,3.12-3.54.83-2.7,1.35-7.44,1.35-11.86,0-4.78-1.2-6.19-5.2-6.19-1.09,0-1.92.05-3.12.16-2.55,10.66-4.89,16.95-10.61,28.29l-6.03-3.33c4-5.46,8.01-14.82,10.45-24.49q-.78.1-2.44.42l-4.73.78c-.83.16-1.4.31-2.13.52l-.62-6.14c2.34-.05,5.04-.31,11.08-1.09.99-5.77,1.35-8.74,1.35-10.5v-.94l6.76.68c-.16.42-.31,1.09-.42,1.61l-.1.68Zm15.81-2.13c2.29,2.44,3.69,4.42,5.46,7.64l-3.64,1.92c-1.72-3.17-3.17-5.25-5.46-7.75l3.64-1.82Zm4.84,10.3c3.59,4.94,6.29,10.56,7.8,16.54l-5.93,2.96c-1.04-5.46-4.26-13.1-7.12-16.9l5.25-2.6Zm3.22-4c-1.56-2.86-3.28-5.3-5.3-7.54l3.48-1.82c2.34,2.39,3.8,4.37,5.41,7.33l-3.59,2.03Z"/><path d="m682.91,69.27c3.48-6.66,4.63-10.76,5.88-21.11l5.77,1.2c-1.72,12.58-2.6,15.91-5.93,23.14l-5.72-3.22Zm20.49,2.39c0,1.3.99,1.56,5.77,1.56,4.16,0,5.67-.36,6.24-1.56.68-1.46,1.04-4.89,1.14-10.3,2.24,1.09,3.64,1.56,5.82,2.08-.47,7.02-.99,9.98-2.13,12.17-1.46,2.65-3.74,3.28-12.06,3.28-9.2,0-10.76-.83-10.76-5.56v-24.54c0-1.98-.1-3.22-.36-5.3h6.71c-.26,1.66-.36,3.28-.36,5.15v23.04Zm11.39-26.42c-5.2-3.43-9.05-5.3-17.58-8.37l3.33-4.94c7.75,2.65,11.65,4.37,17.84,7.85l-3.59,5.46Zm11.8,26.1c-2.39-9.05-4.58-14.72-8.37-21.58l5.56-2.5c3.85,6.86,5.82,11.7,8.79,21.06l-5.98,3.02Z"/><path d="m747.28,38.69c-2.24,0-4.21.1-5.67.26v-5.56c1.66.21,3.54.31,5.72.31h12.74c2.24,0,4.11-.1,5.82-.31v5.51c-1.4-.1-3.43-.21-5.3-.21h-1.61v4.26h.73c2.7,0,3.85-.05,5.36-.21-.1,1.61-.16,3.54-.16,5.72v24.96c0,2.5.05,4.21.21,5.77h-4.99v-1.98h-12.32v2.91h-5.2c.21-2.03.31-4,.31-7.07v-24.08c0-2.65-.05-4.42-.21-6.24,1.46.16,2.65.21,5.3.21h1.09v-4.26h-1.82Zm.52,25.17h12.32v-4.06h-1.46c-3.38,0-3.9-.31-3.9-2.34v-10.14h-1.46v.62c0,3.07-.42,7.23-1.04,9.78-.47,2.08-.94,3.17-2.29,5.56-.57-1.56-1.14-2.5-2.18-3.85v4.42Zm0-4.99c1.46-2.96,1.92-5.56,2.03-11.54h-2.03v11.54Zm0,13.52h12.32v-4.06h-12.32v4.06Zm5.51-29.43h1.46v-4.26h-1.46v4.26Zm4.89,11.6c0,.83.05.88,1.92.94v-8.16h-1.92v7.23Zm28.5-4.32c0,2.13.05,3.59.21,5.1-1.66-.16-2.86-.21-5.2-.21h-8.37v17c0,.94.1,1.2.42,1.4.47.26,1.87.42,3.69.42,3.85,0,4.89-.31,5.36-1.61.36-1.09.57-3.85.57-7.64,2.18,1.2,3.54,1.72,5.46,2.13-.31,6.24-.78,8.79-1.82,10.14-1.35,1.66-3.85,2.24-9.88,2.24-8.11,0-9.31-.68-9.31-5.41v-19.03c0-2.5-.05-3.43-.21-5.1,1.56.16,2.96.21,5.2.21h8.37l-.05-10.92h-8.22c-2.65,0-4.16.05-5.77.26v-5.82c1.66.21,3.43.31,5.82.31h8.58c2.34,0,3.85-.05,5.36-.21-.16,1.82-.21,2.76-.21,5.25v11.49Z"/><path d="m808.07,63.34c0,2.17-1.74,3.91-3.91,3.91s-3.91-1.74-3.91-3.91,1.74-3.91,3.91-3.91,3.91,1.74,3.91,3.91Z"/><path d="m827.78,63.34c0,2.17-1.74,3.91-3.91,3.91s-3.91-1.74-3.91-3.91,1.74-3.91,3.91-3.91,3.91,1.74,3.91,3.91Z"/><path d="m847.48,63.34c0,2.17-1.74,3.91-3.91,3.91s-3.91-1.74-3.91-3.91,1.74-3.91,3.91-3.91,3.91,1.74,3.91,3.91Z"/></g></g></g></svg>