<?xml version="1.0" encoding="UTF-8"?><svg id="Layer_2" xmlns="http://www.w3.org/2000/svg" viewBox="0 0 454 382"><defs><style>.cls-1,.cls-2{fill:none;}.cls-3{fill:#fff;}.cls-4{fill:#ffb74d;}.cls-5{fill:#fde2ea;}.cls-6{fill:#7f4f3a;}.cls-2{stroke:#7f4f3a;stroke-linecap:round;stroke-miterlimit:10;stroke-width:5px;}</style></defs><g id="PC"><g><rect class="cls-1" width="454" height="382"/><path class="cls-6" d="m209.17,253.5h-118c-8.28,0-15-6.72-15-15v-98.05c0-33.61,27.34-60.95,60.95-60.95h26.11c33.61,0,60.95,27.34,60.95,60.95v98.05c0,8.28-6.72,15-15,15Zm-103-30h88v-83.05c0-17.06-13.88-30.95-30.95-30.95h-26.11c-17.06,0-30.95,13.88-30.95,30.95v83.05Z"/><rect class="cls-5" x="16.83" y="183.02" width="267.67" height="185.96" rx="28.99" ry="28.99"/><path class="cls-3" d="m40.33,223.51c-2.49,0-4.5-2.01-4.5-4.5,0-10.48,8.53-19.01,19.01-19.01h121.64c2.49,0,4.5,2.01,4.5,4.5s-2.01,4.5-4.5,4.5H54.85c-5.52,0-10.01,4.49-10.01,10.01,0,2.49-2.01,4.5-4.5,4.5Z"/><path class="cls-6" d="m256.01,372.5H44.99c-17.36,0-31.49-14.13-31.49-31.49v-46.01c0-1.38,1.12-2.5,2.5-2.5s2.5,1.12,2.5,2.5v46.01c0,14.61,11.88,26.49,26.49,26.49h211.02c14.61,0,26.49-11.88,26.49-26.49v-131.02c0-14.61-11.88-26.49-26.49-26.49H44.99c-14.61,0-26.49,11.88-26.49,26.49v37.56c0,1.38-1.12,2.5-2.5,2.5s-2.5-1.12-2.5-2.5v-37.56c0-17.36,14.13-31.49,31.49-31.49h211.02c17.36,0,31.49,14.13,31.49,31.49v131.02c0,17.36-14.13,31.49-31.49,31.49Z"/><path class="cls-6" d="m168.67,257c0-10.91-9.45-19.62-20.61-18.38-8.56.95-15.44,7.92-16.29,16.49-.83,8.34,3.89,15.68,10.91,18.79v30.6c0,4.42,3.58,8,8,8h0c4.42,0,8-3.58,8-8v-31.08c5.94-3.08,10-9.27,10-16.42Z"/><path class="cls-2" d="m345.98,15.19c-22.71.43-45.29,9.25-62.66,26.47-34.1,33.81-35.98,87.72-5.68,123.77l-16.96,39.11c-1.36,3.13,2.14,6.15,5.04,4.34l36.59-22.81c34.95,20.02,80.28,15.12,110.13-14.73,35.73-35.73,35.73-93.67,0-129.4-5.42-5.42-11.37-10.03-17.66-13.8"/><g><g><path class="cls-3" d="m345.98,15.19c-22.71.43-45.29,9.25-62.66,26.47-34.1,33.81-35.98,87.72-5.68,123.77l-16.96,39.11c-1.36,3.13,2.14,6.15,5.04,4.34l36.59-22.81c34.95,20.02,80.28,15.12,110.13-14.73,35.73-35.73,35.73-93.67,0-129.4-5.42-5.42-11.37-10.03-17.66-13.8"/><path class="cls-6" d="m263.86,211.94c-1.38,0-2.75-.5-3.89-1.47-2.02-1.75-2.65-4.46-1.58-6.91l16.35-37.71c-14.47-17.8-21.88-40.2-20.9-63.24,1.01-23.71,10.86-45.99,27.73-62.71,17.23-17.08,40.09-26.74,64.37-27.2h.05c1.36,0,2.47,1.09,2.5,2.45.03,1.38-1.07,2.52-2.45,2.55-22.99.44-44.64,9.58-60.95,25.75-15.97,15.84-25.3,36.92-26.25,59.37-.95,22.31,6.41,43.98,20.73,61.01l1,1.18-17.58,40.53c-.25.58.05.96.26,1.13.2.17.62.42,1.16.09l37.86-23.6,1.3.74c34.74,19.89,78.79,14.01,107.12-14.32,34.7-34.7,34.7-91.16,0-125.86-5.18-5.18-10.96-9.7-17.18-13.43-1.18-.71-1.57-2.25-.86-3.43.71-1.18,2.25-1.57,3.43-.86,6.57,3.94,12.68,8.71,18.15,14.18,36.65,36.65,36.65,96.28,0,132.93-29.57,29.57-75.34,35.99-111.83,15.86l-35.33,22.02c-1,.62-2.09.93-3.18.93Z"/></g><path class="cls-4" d="m382.74,141.65c-19.3,19.3-50.7,19.3-70,0-19.3-19.3-19.3-50.7,0-70,19.3-19.3,50.7-19.3,70,0,19.3,19.3,19.3,50.7,0,70Zm-55.86-55.86c-11.5,11.5-11.5,30.22,0,41.72,11.5,11.5,30.22,11.5,41.72,0,11.5-11.5,11.5-30.22,0-41.72s-30.22-11.5-41.72,0Z"/></g><path class="cls-3" d="m211.98,209h-17.81c-2.49,0-4.5-2.01-4.5-4.5s2.01-4.5,4.5-4.5h17.81c2.49,0,4.5,2.01,4.5,4.5s-2.01,4.5-4.5,4.5Z"/></g></g></svg>