<?xml version="1.0" encoding="UTF-8"?><svg id="Layer_2" xmlns="http://www.w3.org/2000/svg" xmlns:xlink="http://www.w3.org/1999/xlink" viewBox="0 0 454 382"><defs><style>.cls-1,.cls-2{fill:none;}.cls-3{fill:url(#linear-gradient);}.cls-4{fill:#e2e6f2;}.cls-5{fill:#fff;}.cls-6{fill:#ffb74d;}.cls-7{fill:#fde2ea;}.cls-8{fill:#7f4f3a;}.cls-9{fill:#b9bdcc;}.cls-10{fill:#d0d4e9;}.cls-11{fill:url(#_新規パターンスウォッチ_286);}.cls-11,.cls-12,.cls-13,.cls-14{stroke:#e2e6f2;stroke-width:.8px;}.cls-2{stroke:#d0d4e9;stroke-dasharray:0 0 .22 2.01;stroke-linecap:round;stroke-width:1.08px;}.cls-15{fill:url(#linear-gradient-2);}.cls-16{opacity:.7;}.cls-12{fill:url(#_新規パターンスウォッチ_286-4);}.cls-13{fill:url(#_新規パターンスウォッチ_286-2);}.cls-14{fill:url(#_新規パターンスウォッチ_286-3);}</style><linearGradient id="linear-gradient" x1="38.54" y1="124.22" x2="207.92" y2="124.22" gradientUnits="userSpaceOnUse"><stop offset="0" stop-color="#d0d4e9"/><stop offset="1" stop-color="#c3c9d9"/></linearGradient><pattern id="_新規パターンスウォッチ_286" x="0" y="0" width="4.42" height="4.41" patternTransform="translate(20618.75 26682.02) scale(4.95)" patternUnits="userSpaceOnUse" viewBox="0 0 4.42 4.41"><g><rect class="cls-1" x="0" y="0" width="4.42" height="4.41"/><rect class="cls-4" x="0" width="4.42" height=".44"/><rect class="cls-1" x="0" y=".44" width="4.42" height=".44"/><rect class="cls-4" x="0" y=".88" width="4.42" height=".44"/><rect class="cls-1" x="0" y="1.32" width="4.42" height=".44"/><rect class="cls-4" x="0" y="1.76" width="4.42" height=".44"/><rect class="cls-1" x="0" y="2.21" width="4.42" height=".44"/><rect class="cls-4" x="0" y="2.65" width="4.42" height=".44"/><rect class="cls-1" x="0" y="3.09" width="4.42" height=".44"/><rect class="cls-4" x="0" y="3.53" width="4.42" height=".44"/><rect class="cls-1" x="0" y="3.97" width="4.42" height=".44"/></g></pattern><linearGradient id="linear-gradient-2" x1="109.33" y1="262.79" x2="278.71" y2="262.79" xlink:href="#linear-gradient"/><pattern id="_新規パターンスウォッチ_286-2" patternTransform="translate(20602.18 26711.54) scale(4.95)" xlink:href="#_新規パターンスウォッチ_286"/><pattern id="_新規パターンスウォッチ_286-3" patternTransform="translate(20602.18 26711.54) scale(4.95)" xlink:href="#_新規パターンスウォッチ_286"/><pattern id="_新規パターンスウォッチ_286-4" patternTransform="translate(20602.18 26711.54) scale(4.95)" xlink:href="#_新規パターンスウォッチ_286"/></defs><g id="PC"><g><rect class="cls-1" width="454" height="382"/><circle class="cls-7" cx="123.23" cy="124.22" r="100.57"/><path class="cls-8" d="m123.23,230.44c-58.57,0-106.22-47.65-106.22-106.22S64.66,18,123.23,18c19.49,0,38.55,5.33,55.12,15.4,1.18.72,1.55,2.25.84,3.43-.72,1.18-2.26,1.55-3.43.84-15.79-9.6-33.95-14.68-52.52-14.68-55.81,0-101.22,45.41-101.22,101.22s45.41,101.22,101.22,101.22,101.22-45.41,101.22-101.22c0-16.82-4.21-33.48-12.17-48.17-.66-1.21-.21-2.73,1.01-3.39,1.21-.66,2.73-.21,3.39,1.01,8.36,15.42,12.78,32.9,12.78,50.55,0,58.57-47.65,106.22-106.22,106.22Z"/><g><g><path class="cls-10" d="m219.46,124.22c0,53.15-43.09,96.24-96.24,96.24S27.01,177.37,27.01,124.22,70.08,27.99,123.23,27.99s96.24,43.08,96.24,96.23Z"/><path class="cls-9" d="m211.71,124.22c0,48.87-39.61,88.48-88.48,88.48s-88.48-39.61-88.48-88.48S74.37,35.74,123.23,35.74s88.48,39.61,88.48,88.47Z"/><path class="cls-3" d="m207.92,124.22c0,46.78-37.93,84.7-84.7,84.7s-84.69-37.92-84.69-84.7S76.46,39.53,123.23,39.53s84.7,37.93,84.7,84.69Z"/><path class="cls-4" d="m134.82,210.54s45.17-4.03,64.13-38.87c20.9-38.42,6.98-63.53,6.98-63.53,0,0,9.28,79.7-71.11,102.4Z"/><path class="cls-9" d="m112.11,40.03s-42.55,4.99-62.41,40.94c-21.16,38.29-8.71,61.46-8.71,61.46,0,0-5.47-75.65,71.12-102.4Z"/><path class="cls-2" d="m212.3,124.22c0,49.2-39.88,89.08-89.07,89.08s-89.06-39.87-89.06-89.08S74.03,35.15,123.23,35.15s89.07,39.88,89.07,89.07Z"/></g><g><path class="cls-4" d="m118.9,184.68s-3.71-3.71-9.89.82c-6.18,4.53-7.83,7.83-7.83,7.83,0,0,8.66-.41,11.95-2.88,0,0-3.3,7.41-2.88,10.29,0,0,9.07-7,9.89-9.47,0,0-2.47,6.6,2.06,13.18l.41-19.36s-1.23-2.48-3.71-.41Z"/><path class="cls-4" d="m127.56,184.68s3.71-3.71,9.89.82c6.19,4.53,7.83,7.83,7.83,7.83,0,0-8.65-.41-11.95-2.88,0,0,3.3,7.41,2.88,10.29,0,0-9.06-7-9.89-9.47,0,0,1.25,8.25-3.29,14.84l.82-21.02s1.23-2.48,3.71-.41Z"/></g><g><path class="cls-4" d="m192.83,138.72s-6.79-3.8-5.4-14.38c0,0,8.39,8.38,5.4,14.38Z"/><path class="cls-4" d="m193.88,137.72s7.02-3.35,6.31-14.01c0,0-8.91,7.83-6.31,14.01Z"/><path class="cls-4" d="m195.1,124.99s7.03-3.36,6.31-14c0,0-8.91,7.83-6.31,14Z"/><path class="cls-4" d="m195.38,115.31s6.6-4.13,4.69-14.64c0,0-7.97,8.8-4.69,14.64Z"/><path class="cls-4" d="m193.22,129.15s-6.79-3.8-5.39-14.4c0,0,8.39,8.39,5.39,14.4Z"/><path class="cls-4" d="m194.03,119.95s-6.79-3.8-5.4-14.39c0,0,8.38,8.38,5.4,14.39Z"/><path class="cls-4" d="m194.82,109.96s-6.78-3.8-5.39-14.37c0,0,8.39,8.38,5.39,14.37Z"/><path class="cls-4" d="m194.82,108.56s-1.6,28.77-4.79,34.76l2.8.8s4.79-30.36,1.99-35.56Z"/><path class="cls-4" d="m53.65,138.72s6.78-3.8,5.39-14.38c0,0-8.39,8.38-5.39,14.38Z"/><path class="cls-4" d="m52.59,137.72s-7.01-3.35-6.31-14.01c0,0,8.91,7.83,6.31,14.01Z"/><path class="cls-4" d="m51.37,124.99s-7.02-3.36-6.31-14c0,0,8.91,7.83,6.31,14Z"/><path class="cls-4" d="m51.09,115.31s-6.6-4.13-4.69-14.64c0,0,7.97,8.8,4.69,14.64Z"/><path class="cls-4" d="m53.25,129.15s6.79-3.8,5.4-14.4c0,0-8.39,8.39-5.4,14.4Z"/><path class="cls-4" d="m52.45,119.95s6.79-3.8,5.39-14.39c0,0-8.38,8.38-5.39,14.39Z"/><path class="cls-4" d="m51.65,109.96s6.78-3.8,5.39-14.37c0,0-8.39,8.38-5.39,14.37Z"/><path class="cls-4" d="m51.65,108.56s1.6,28.77,4.79,34.76l-2.8.8s-4.79-30.36-1.99-35.56Z"/><path class="cls-4" d="m118.12,49.83s-3.6-3.6-9.6.8c-5.99,4.4-7.59,7.59-7.59,7.59,0,0,8.4-.4,11.59-2.8,0,0-3.2,7.19-2.8,10,0,0,8.79-6.79,9.59-9.2,0,0-2.4,6.4,2,12.79l.4-18.78s-1.2-2.41-3.59-.41Z"/><path class="cls-4" d="m126.5,49.83s3.59-3.6,9.59.8c5.99,4.4,7.59,7.59,7.59,7.59,0,0-8.39-.4-11.59-2.8,0,0,3.2,7.19,2.8,10,0,0-8.79-6.79-9.59-9.2,0,0,1.21,8-3.19,14.39l.8-20.37s1.19-2.41,3.59-.41Z"/></g><g><path class="cls-11" d="m82.39,99.78c16.89-1.64,16.89,9.89,16.89,9.89,0,0,2.89,21.85,0,31.74-2.89,9.89-13.6,11.95-22.25,8.24-8.66-3.71-11.54-18.13-4.95-22.26,6.59-4.13,8.13,3.66,7.83,9.48-.41,8.24-5.77,7-5.77,7,0,0,4.94,4.12,9.89,3.71,4.94-.41,4.94-7,4.94-7,0,0,.41-29.67,0-33.8-.41-4.11-5.35-3.71-10.3-2.06-4.94,1.65-4.53,9.89-4.53,9.89h-3.3v-33.38h30.91l-4.12,11.12s-8.24.41-15.66,0c-7.42-.41-8.65,5.36-8.65,5.36v9.48s3.2-6.84,9.07-7.42Z"/><path class="cls-11" d="m139.27,136.15c0,8.37-7.19,15.15-16.07,15.15h0c-8.88,0-16.08-6.78-16.08-15.15v-43.07c0-8.37,7.2-15.15,16.08-15.15h0c8.88,0,16.07,6.78,16.07,15.15v43.07Z"/><path class="cls-11" d="m178,136.15c0,8.37-7.2,15.15-16.07,15.15h0c-8.88,0-16.08-6.78-16.08-15.15v-43.07c0-8.37,7.19-15.15,16.08-15.15h0c8.88,0,16.07,6.78,16.07,15.15v43.07Z"/></g></g><circle class="cls-7" cx="194.02" cy="262.79" r="100.57"/><g class="cls-16"><path class="cls-5" d="m123.41,198.39c-41.63,0-75.51-33.87-75.51-75.51,0-13.86,3.79-27.41,10.95-39.19,1.29-2.12,4.06-2.8,6.18-1.51,2.12,1.29,2.8,4.06,1.51,6.18-6.31,10.37-9.64,22.3-9.64,34.51,0,36.67,29.83,66.51,66.51,66.51,4.57,0,9.14-.47,13.58-1.39,2.43-.5,4.82,1.06,5.32,3.49.5,2.43-1.06,4.81-3.49,5.32-5.04,1.04-10.22,1.57-15.4,1.57Z"/></g><path class="cls-8" d="m194.02,369.02c-58.57,0-106.22-47.65-106.22-106.22s47.65-106.22,106.22-106.22c19.49,0,38.55,5.33,55.12,15.41,1.18.72,1.55,2.25.84,3.43-.72,1.18-2.26,1.56-3.43.84-15.79-9.6-33.95-14.68-52.52-14.68-55.81,0-101.22,45.41-101.22,101.22s45.41,101.22,101.22,101.22,101.22-45.41,101.22-101.22c0-16.82-4.21-33.48-12.17-48.17-.66-1.21-.21-2.73,1.01-3.39,1.21-.66,2.73-.21,3.39,1.01,8.36,15.42,12.78,32.9,12.78,50.55,0,58.57-47.65,106.22-106.22,106.22Z"/><g><g><path class="cls-10" d="m290.25,262.79c0,53.15-43.09,96.24-96.24,96.24s-96.22-43.08-96.22-96.24,43.07-96.23,96.22-96.23,96.24,43.08,96.24,96.23Z"/><path class="cls-9" d="m282.5,262.79c0,48.87-39.61,88.48-88.48,88.48s-88.48-39.61-88.48-88.48,39.62-88.47,88.48-88.47,88.48,39.61,88.48,88.47Z"/><path class="cls-15" d="m278.71,262.79c0,46.78-37.93,84.7-84.7,84.7s-84.69-37.92-84.69-84.7,37.92-84.69,84.69-84.69,84.7,37.93,84.7,84.69Z"/><path class="cls-4" d="m205.61,349.11s45.17-4.03,64.13-38.87c20.9-38.42,6.98-63.53,6.98-63.53,0,0,9.28,79.7-71.11,102.4Z"/><path class="cls-9" d="m182.89,178.6s-42.55,4.99-62.41,40.94c-21.16,38.29-8.71,61.46-8.71,61.46,0,0-5.47-75.65,71.12-102.4Z"/><path class="cls-2" d="m283.09,262.79c0,49.2-39.88,89.08-89.07,89.08s-89.06-39.87-89.06-89.08,39.87-89.07,89.06-89.07,89.07,39.88,89.07,89.07Z"/></g><g><path class="cls-4" d="m189.69,323.25s-3.71-3.71-9.89.82c-6.18,4.53-7.83,7.83-7.83,7.83,0,0,8.66-.41,11.95-2.88,0,0-3.3,7.41-2.88,10.29,0,0,9.07-7,9.89-9.47,0,0-2.47,6.6,2.06,13.18l.41-19.36s-1.23-2.48-3.71-.41Z"/><path class="cls-4" d="m198.35,323.25s3.71-3.71,9.89.82c6.19,4.53,7.83,7.83,7.83,7.83,0,0-8.65-.41-11.95-2.88,0,0,3.3,7.41,2.88,10.29,0,0-9.06-7-9.89-9.47,0,0,1.25,8.25-3.29,14.84l.82-21.02s1.23-2.48,3.71-.41Z"/></g><g><path class="cls-4" d="m263.61,277.29s-6.79-3.8-5.4-14.38c0,0,8.39,8.38,5.4,14.38Z"/><path class="cls-4" d="m264.67,276.29s7.02-3.35,6.31-14.01c0,0-8.91,7.83-6.31,14.01Z"/><path class="cls-4" d="m265.88,263.56s7.03-3.36,6.31-14c0,0-8.91,7.83-6.31,14Z"/><path class="cls-4" d="m266.16,253.88s6.6-4.13,4.69-14.64c0,0-7.97,8.8-4.69,14.64Z"/><path class="cls-4" d="m264.01,267.72s-6.79-3.8-5.39-14.4c0,0,8.39,8.39,5.39,14.4Z"/><path class="cls-4" d="m264.81,258.53s-6.79-3.8-5.4-14.39c0,0,8.38,8.38,5.4,14.39Z"/><path class="cls-4" d="m265.6,248.53s-6.78-3.8-5.39-14.37c0,0,8.39,8.38,5.39,14.37Z"/><path class="cls-4" d="m265.6,247.13s-1.6,28.77-4.79,34.76l2.8.8s4.79-30.36,1.99-35.56Z"/><path class="cls-4" d="m124.44,277.29s6.78-3.8,5.39-14.38c0,0-8.39,8.38-5.39,14.38Z"/><path class="cls-4" d="m123.38,276.29s-7.01-3.35-6.31-14.01c0,0,8.91,7.83,6.31,14.01Z"/><path class="cls-4" d="m122.16,263.56s-7.02-3.36-6.31-14c0,0,8.91,7.83,6.31,14Z"/><path class="cls-4" d="m121.88,253.88s-6.6-4.13-4.69-14.64c0,0,7.97,8.8,4.69,14.64Z"/><path class="cls-4" d="m124.03,267.72s6.79-3.8,5.4-14.4c0,0-8.39,8.39-5.4,14.4Z"/><path class="cls-4" d="m123.23,258.53s6.79-3.8,5.39-14.39c0,0-8.38,8.38-5.39,14.39Z"/><path class="cls-4" d="m122.44,248.53s6.78-3.8,5.39-14.37c0,0-8.39,8.38-5.39,14.37Z"/><path class="cls-4" d="m122.44,247.13s1.6,28.77,4.79,34.76l-2.8.8s-4.79-30.36-1.99-35.56Z"/><path class="cls-4" d="m188.91,188.41s-3.6-3.6-9.6.8c-5.99,4.4-7.59,7.59-7.59,7.59,0,0,8.4-.4,11.59-2.8,0,0-3.2,7.19-2.8,10,0,0,8.79-6.79,9.59-9.2,0,0-2.4,6.4,2,12.79l.4-18.78s-1.2-2.41-3.59-.41Z"/><path class="cls-4" d="m197.29,188.41s3.59-3.6,9.59.8c5.99,4.4,7.59,7.59,7.59,7.59,0,0-8.39-.4-11.59-2.8,0,0,3.2,7.19,2.8,10,0,0-8.79-6.79-9.59-9.2,0,0,1.21,8-3.19,14.39l.8-20.37s1.19-2.41,3.59-.41Z"/></g><g><path class="cls-13" d="m153.18,238.35c16.89-1.64,16.89,9.89,16.89,9.89,0,0,2.89,21.85,0,31.74-2.89,9.89-13.6,11.95-22.25,8.24-8.66-3.71-11.54-18.13-4.95-22.26,6.59-4.13,8.13,3.66,7.83,9.48-.41,8.24-5.77,7-5.77,7,0,0,4.94,4.12,9.89,3.71,4.94-.41,4.94-7,4.94-7,0,0,.41-29.67,0-33.8-.41-4.11-5.35-3.71-10.3-2.06-4.94,1.65-4.53,9.89-4.53,9.89h-3.3v-33.38h30.91l-4.12,11.12s-8.24.41-15.66,0c-7.42-.41-8.65,5.36-8.65,5.36v9.48s3.2-6.84,9.07-7.42Z"/><path class="cls-14" d="m210.05,274.73c0,8.37-7.19,15.15-16.07,15.15h0c-8.88,0-16.08-6.78-16.08-15.15v-43.07c0-8.37,7.2-15.15,16.08-15.15h0c8.88,0,16.07,6.78,16.07,15.15v43.07Z"/><path class="cls-12" d="m248.79,274.73c0,8.37-7.2,15.15-16.07,15.15h0c-8.88,0-16.08-6.78-16.08-15.15v-43.07c0-8.37,7.19-15.15,16.08-15.15h0c8.88,0,16.07,6.78,16.07,15.15v43.07Z"/></g></g><g class="cls-16"><path class="cls-5" d="m197.37,340.37c-41.63,0-75.51-33.87-75.51-75.51,0-13.86,3.79-27.41,10.95-39.19,1.29-2.12,4.06-2.8,6.18-1.51,2.12,1.29,2.8,4.06,1.51,6.18-6.31,10.37-9.64,22.3-9.64,34.51,0,36.67,29.83,66.51,66.51,66.51,4.58,0,9.14-.47,13.58-1.38,2.43-.5,4.82,1.06,5.32,3.49.5,2.43-1.06,4.81-3.49,5.32-5.03,1.04-10.21,1.57-15.4,1.57Z"/></g><g><path class="cls-5" d="m345.98,15.19c-22.71.43-45.29,9.25-62.66,26.47-34.1,33.81-35.98,87.72-5.68,123.77l-16.96,39.11c-1.36,3.13,2.14,6.15,5.04,4.34l36.59-22.81c34.95,20.02,80.28,15.12,110.13-14.73,35.73-35.73,35.73-93.67,0-129.4-5.42-5.42-11.37-10.03-17.66-13.8"/><path class="cls-8" d="m263.86,211.94c-1.38,0-2.75-.5-3.89-1.47-2.02-1.75-2.65-4.46-1.58-6.91l16.35-37.71c-14.47-17.8-21.88-40.2-20.9-63.24,1.01-23.71,10.86-45.99,27.73-62.71,17.23-17.08,40.09-26.74,64.37-27.2h.05c1.36,0,2.47,1.09,2.5,2.45.03,1.38-1.07,2.52-2.45,2.55-22.99.44-44.64,9.58-60.95,25.75-15.97,15.84-25.3,36.92-26.25,59.37-.95,22.31,6.41,43.98,20.73,61.01l1,1.18-17.58,40.53c-.25.58.05.96.26,1.13s.62.42,1.16.09l37.86-23.6,1.3.74c34.74,19.89,78.79,14.01,107.12-14.32,34.7-34.7,34.7-91.16,0-125.86-5.18-5.18-10.96-9.7-17.18-13.43-1.18-.71-1.57-2.25-.86-3.43.71-1.19,2.25-1.57,3.43-.86,6.57,3.94,12.68,8.71,18.15,14.18,36.65,36.65,36.65,96.28,0,132.93-29.57,29.57-75.34,35.99-111.83,15.86l-35.33,22.02c-1,.62-2.09.93-3.18.93Z"/></g><path class="cls-6" d="m382.74,141.65c-19.3,19.3-50.7,19.3-70,0-19.3-19.3-19.3-50.7,0-70,19.3-19.3,50.7-19.3,70,0,19.3,19.3,19.3,50.7,0,70Zm-55.86-55.86c-11.5,11.5-11.5,30.22,0,41.72,11.5,11.5,30.22,11.5,41.72,0,11.5-11.5,11.5-30.22,0-41.72s-30.22-11.5-41.72,0Z"/></g></g></svg>