<?xml version="1.0" encoding="UTF-8"?><svg id="Layer_2" xmlns="http://www.w3.org/2000/svg" viewBox="0 0 1091 116"><defs><style>.cls-1{fill:none;}.cls-2{fill:#fff;}.cls-3{fill:#ee628a;}.cls-4,.cls-5{fill:#d6f1d8;}.cls-5{stroke:#ee628a;stroke-miterlimit:10;stroke-width:2px;}</style></defs><g id="PC"><g><rect class="cls-1" width="1091" height="116"/><polygon class="cls-4" points="207 38.95 207 0 30 0 30 116 207 116 207 77.05 220 58 207 38.95"/><path class="cls-3" d="m197,38.95V0H30.75C13.77,0,0,13.77,0,30.75v54.5c0,16.98,13.77,30.75,30.75,30.75h166.25v-38.95l13-19.05-13-19.05Z"/><g><path class="cls-2" d="m42.78,47.6c-1.64,0-3.72.07-5.46.2v-5.33c1.64.17,3.35.23,5.29.23h20.33c2.24,0,4.05-.07,5.26-.23v5.33c-1.74-.13-3.48-.2-5.09-.2h-5.36c-.7,1.34-1.04,1.91-2.45,3.88v2.85l2.11-2.54c3.35,3.88,7.4,6.97,11.62,8.81-1.21,1.61-2.08,3.05-3.01,5.06-4.52-2.68-7.67-5.19-10.72-8.57v10.99c0,1.88.07,3.38.23,4.82h-5.79c.17-1.44.23-2.98.23-4.82v-10.58c-1.07,1.37-2.58,2.78-4.69,4.39-1.67,1.31-3.28,2.38-5.63,3.72-.67-1.71-1.57-3.15-2.98-4.79,2.95-1.47,4.52-2.45,6.83-4.29,3.75-2.95,5.96-5.39,8.07-8.91h-8.81Z"/><path class="cls-2" d="m95.94,57.85c-1.17,3.05-2.04,4.56-3.78,6.57,3.62,1.51,5.53,2.44,9.21,4.45l-3.88,4.22c-3.45-2.24-5.69-3.48-9.34-5.19-1.71,1.14-3.25,1.94-5.33,2.71-2.88,1.1-5.22,1.71-9.58,2.44-.57-1.98-1.04-2.91-2.34-4.92,5.22-.44,8.04-1.04,11.62-2.55-2.58-.97-4.39-1.54-8.54-2.71,1.78-2.21,2.45-3.12,3.68-5.02h-2.81c-1.91,0-2.95.03-3.99.17v-4.96c1.04.1,1.67.13,3.99.13h5.53c.97-1.88,1.51-3.11,1.81-4.09l5.56.74c-.84,1.71-1.04,2.08-1.64,3.35h11.66c2.38,0,3.05-.03,3.95-.13v4.96c-1.07-.13-2.08-.17-3.95-.17h-1.81Zm-12.59-14.1c0-.94-.03-1.61-.13-2.31h5.59c-.07.64-.13,1.37-.13,2.28v.33h8.54c1.94,0,2.98-.03,4.09-.13-.1.9-.13,1.71-.13,2.61v3.05c0,1,.07,1.78.17,2.58h-5.09v-3.45h-19.96v3.45h-5.12c.13-.74.17-1.44.17-2.61v-3.01c0-.8-.03-1.74-.13-2.61,1.14.1,2.11.13,4.09.13h8.07v-.3Zm.2,14.1c-.64,1.07-.9,1.47-1.84,2.81,2.38.67,3.12.9,5.59,1.81,1.47-1.47,2.24-2.61,3.11-4.62h-6.87Z"/></g><path class="cls-5" d="m145.41,36.9c-3.47,0-6.27,2.16-7.28,5.12h-11.09c1.27-10,9.15-15.6,18.8-15.6,10.16,0,17.53,6.96,17.53,15.12,0,5.2-2.88,9.44-8.55,12.08,7.54,2.16,11.69,7.6,11.69,14.64,0,10.4-8.98,18.48-21.34,18.48-11.69,0-19.82-7.12-20.58-18.8h11.43c1.02,5.84,4.4,8.72,9.74,8.72s9.4-3.92,9.4-8.4c0-5.2-4.83-9.36-13.97-9.44v-9.36c7.11-.56,10.5-3.04,10.5-7.12,0-3.12-2.46-5.44-6.27-5.44Z"/><path class="cls-2" d="m117.55,71.79c0,1.67-1.49,3.06-3.37,3.06s-3.33-1.38-3.33-3.06,1.53-3.06,3.33-3.06,3.37,1.35,3.37,3.06Z"/><g><path class="cls-3" d="m258.99,75.68c0,3.02.05,4.37.26,5.88h-8.17c.21-1.87.31-3.48.31-5.77v-3.64c-4.52,1.4-8.89,2.6-10.61,3.02-1.25.26-2.18.52-3.02.88l-1.92-8.16c1.2-.1,1.56-.16,3.33-.42v-26.21c-1.3.05-1.66.05-2.76.16v-7.7c1.61.21,3.28.31,5.3.31h15.24c2.39,0,3.64-.05,5.36-.31v2.81c1.46.16,2.13.16,3.74.16h12.9c1.4,0,3.02-.1,4.52-.31-.1,1.46-.16,2.08-.26,3.64-.57,9.88-2.7,18.1-6.5,25.53,2.86,3.54,4.68,5.1,8.79,7.64-1.92,2.76-3.17,4.99-4.52,8.17-4.06-2.91-6.14-4.84-9.05-8.37-3.07,3.8-4.89,5.46-9.62,8.84-1.04-2.55-2.13-4.58-3.33-6.45v.31Zm-12.12-30.68h4.52v-3.8h-4.52v3.8Zm0,10.04h4.52v-3.69h-4.52v3.69Zm0,11.02c1.4-.31,2.86-.68,4.52-1.04v-3.43h-4.52v4.47Zm12.12,7.33c3.22-1.92,5.88-4.37,8.17-7.38-2.91-5.36-4.58-10.35-6.5-19.4l6.6-2.5h-1.4c-2.65,0-4.06.05-5.3.26v-3.12c-.42-.05-.94-.05-1.56-.05v32.19Zm8.74-29.28c1.35,6.86,2.18,9.62,4.06,13.62,1.87-4.94,2.55-7.9,3.17-13.62h-7.23Z"/><path class="cls-3" d="m307.87,34.18c-.73,2.18-1.35,5.56-2.13,11.13,3.38-6.08,7.59-9,13.16-9,3.54,0,7.02,1.77,9.41,4.73,2.91,3.64,4.32,8.37,4.32,14.46,0,8.53-2.65,14.87-7.96,19.03-2.96,2.34-7.12,4.26-11.86,5.41-1.77.47-3.12.73-6.14,1.2-1.25-3.9-1.92-5.36-4.16-8.89,14.92-.88,20.96-5.77,20.96-17,0-6.5-2.08-10.09-5.77-10.09-1.92,0-3.69.94-5.62,3.02-3.12,3.28-5.15,7.59-5.77,12.06-.16,1.2-.21,1.82-.21,4.26l-8.74.1c.05-.36.05-.68.05-.88v-1.04c-.1-2.03-.16-5.15-.16-6.6,0-6.29.36-12.27,1.2-18.98.16-1.51.21-2.08.21-2.86v-.42l9.2.36Z"/><path class="cls-3" d="m369.96,72.14c1.87-4.42,3.85-10.35,5.46-16.59,1.09-4.32,1.4-5.67,1.56-7.64l9.1,2.44q-.52,1.56-1.98,6.34c-1.61,5.3-3.12,9.46-5.62,15.45h6.97c2.91,0,5.56-.1,7.49-.36v8.27c-1.98-.26-4.58-.36-7.49-.36h-33.12c-3.02,0-5.56.1-7.59.36v-8.27c1.92.26,4.58.36,7.59.36h17.63Zm-5.62-35.62c0-1.46-.1-2.44-.31-3.69h8.94c-.21,1.14-.31,2.24-.31,3.69v2.81h11.18c2.91,0,5.72-.16,7.38-.36v8.27c-1.82-.26-4.47-.36-7.38-.36h-30.06c-2.86,0-5.51.1-7.33.36v-8.27c1.66.21,4.42.36,7.33.36h10.56v-2.81Zm-4.79,11.49c2.24,5.82,3.9,11.13,6.19,20.07l-8.27,2.86c-1.72-8.27-3.38-13.99-5.82-20.07l7.9-2.86Z"/><path class="cls-3" d="m401.62,38.96c.88.05,1.56.05,1.98.05,1.35,0,3.22-.1,8.89-.47,8.11-.52,11.91-.73,27.77-1.3,4.32-.16,4.78-.21,5.72-.42l.47,9.41c-.73-.1-.94-.1-1.46-.1-3.64,0-8.32,1.4-11.91,3.64-5.2,3.17-8.27,7.59-8.27,11.86,0,2.96,1.4,4.99,4.37,6.4,2.13,1.04,6.55,1.87,9.93,1.87.52,0,.83,0,1.56-.1l-1.2,9.93c-.73-.16-.99-.16-1.92-.26-5.93-.57-9.83-1.4-13.16-2.91-6.14-2.86-9.31-7.64-9.31-14.25,0-4.32,1.46-8.22,4.42-11.75,1.35-1.66,2.6-2.7,5.1-4.42l-17.99,1.61c-2.03.21-2.55.26-4.47.68l-.52-9.46Z"/><path d="m474.74,37.46c-.26,1.51-.62,3.64-1.14,6.45q-.16.88-.31,1.56c1.56-.05,2.29-.1,3.22-.1,3.43,0,5.98.94,7.7,2.76,1.77,1.98,2.44,4.47,2.44,9.2,0,8.94-1.51,16.07-4,18.93-1.46,1.72-3.02,2.34-5.77,2.34-2.39,0-4.52-.42-8.01-1.56.05-.99.1-1.77.1-2.29,0-1.35-.1-2.39-.52-4.42,2.81,1.25,5.77,2.08,7.59,2.08,1.51,0,2.34-.99,3.12-3.54.83-2.7,1.35-7.44,1.35-11.86,0-4.78-1.2-6.19-5.2-6.19-1.09,0-1.92.05-3.12.16-2.55,10.66-4.89,16.95-10.61,28.29l-6.03-3.33c4-5.46,8.01-14.82,10.45-24.49q-.78.1-2.44.42l-4.73.78c-.83.16-1.4.31-2.13.52l-.62-6.14c2.34-.05,5.04-.31,11.08-1.09.99-5.77,1.35-8.74,1.35-10.5v-.94l6.76.68c-.16.42-.31,1.09-.42,1.61l-.1.68Zm15.81-2.13c2.29,2.44,3.69,4.42,5.46,7.64l-3.64,1.92c-1.72-3.17-3.17-5.25-5.46-7.75l3.64-1.82Zm4.84,10.3c3.59,4.94,6.29,10.56,7.8,16.54l-5.93,2.96c-1.04-5.46-4.26-13.1-7.12-16.9l5.25-2.6Zm3.22-4c-1.56-2.86-3.28-5.3-5.3-7.54l3.48-1.82c2.34,2.39,3.8,4.37,5.41,7.33l-3.59,2.03Z"/><path d="m511.4,56.28c1.51-4.58,1.87-6.81,1.98-13.16l4.06.57c-.36,7.49-.68,9.83-1.92,14.35l-4.11-1.77Zm28.81-11.28c-1.2,2.76-2.24,4.68-4.06,7.54h4.89v-2.39c0-1.77-.05-2.65-.31-3.64h5.88c-.21,1.2-.26,2.34-.26,4.32v1.72h7.07c2.24,0,3.28-.05,4.63-.21-.16,1.51-.21,2.76-.21,4.89v13.57c0,2.55-.42,3.59-1.77,4.37-1.04.57-2.39.83-4.84.83-.94,0-1.51-.05-2.55-.1-.05-1.82-.31-3.12-1.04-5.36,1.3.26,2.5.36,3.38.36,1.25,0,1.46-.21,1.46-1.56v-11.65h-6.14v18.1c0,2.34.1,4,.31,5.51h-5.93c.21-1.61.31-3.12.31-5.56v-18.04h-5.36v12.74c0,2.76.05,4.47.21,5.88h-5.72c.21-1.46.26-2.81.26-5.93v-10.14c-1.25,1.46-1.92,2.08-3.9,3.9-.94-1.82-1.61-2.7-2.81-4.06v14.56c0,2.6.1,4.94.31,6.6h-6.14c.26-1.72.36-4.06.36-6.6v-36.19c0-2.34-.1-3.64-.36-5.51h6.14c-.26,1.82-.31,3.12-.31,5.51v5.36l2.81-1.35c.42.94.57,1.14.83,1.82v-5.15c1.77.21,3.38.31,6.24.31h3.22c.88-3.17,1.25-4.84,1.3-6.4l6.03.57q-.21.57-.83,2.86c-.16.52-.36,1.2-.99,2.96h10.97c2.76,0,4.58-.1,6.34-.31v6.14c-1.77-.21-3.38-.26-6.34-.26h-13.1Zm-7.33,0c-2.34,0-3.74.05-5.1.21.99,2.44,1.3,3.28,1.98,5.36l-3.28,1.87c-.88-3.28-1.46-4.99-2.76-7.8v14.3c4.52-3.48,8.17-8.16,10.92-13.94h-1.77Z"/><path d="m578.48,38.6c-.26,1.92-.42,4.47-.42,7.9,0,4.52.42,10.76.99,13.94.88,5.41,2.55,8.74,4.21,8.74.78,0,1.51-.78,2.13-2.24,1.25-2.81,2.18-5.93,2.76-9.41,1.82,2.08,2.65,2.86,5.2,4.73-2.71,10.14-5.72,14.35-10.14,14.35-3.48,0-6.29-2.55-8.37-7.54-2.13-5.2-3.07-12.74-3.28-27.15-.05-1.82-.05-2.18-.21-3.33h7.12Zm24.6,2.34c6.55,7.85,10.19,16.54,11.7,27.98l-6.45,2.44c-.31-4.89-1.51-10.3-3.33-15.03-1.77-4.73-4.26-8.95-7.38-12.79l5.46-2.6Z"/><path d="m634.01,64.34c0,2.17-1.74,3.91-3.91,3.91s-3.91-1.74-3.91-3.91,1.74-3.91,3.91-3.91,3.91,1.74,3.91,3.91Z"/><path d="m653.72,64.34c0,2.17-1.74,3.91-3.91,3.91s-3.91-1.74-3.91-3.91,1.74-3.91,3.91-3.91,3.91,1.74,3.91,3.91Z"/><path d="m673.42,64.34c0,2.17-1.74,3.91-3.91,3.91s-3.91-1.74-3.91-3.91,1.74-3.91,3.91-3.91,3.91,1.74,3.91,3.91Z"/></g></g></g></svg>