<?xml version="1.0" encoding="UTF-8"?><svg id="Layer_2" xmlns="http://www.w3.org/2000/svg" viewBox="0 0 454 382"><defs><style>.cls-1{fill:none;}.cls-2{fill:#eca4a6;}.cls-3{fill:#fff;}.cls-4{fill:#ffb74d;}.cls-5{fill:#7f4f3a;}.cls-6{opacity:.7;}</style></defs><g id="PC"><g><rect class="cls-1" width="454" height="382"/><path class="cls-3" d="m46.81,268.1c-4.17-3.98-9.73-4.7-13.67-3.85l-.38-3.38c-1.17-3.54-4.29-15.16-9.63-22.73l1.86-.88c3.47,0,6.54,1.45,9.16,3.76l1.14-.06c13.2-2.72,18.98,8.53,21.09,21.28.76,4.48,1.04,9.19,1.04,13.51l-.63.82c-3.57-2.78-7.07-5.72-9.98-8.46Z"/><g><path class="cls-3" d="m288.94,267.48c-4.08-15.35,8.68-27.97,14.64-26.51-.85,5.07-1.17,10.35-1.17,15.21l.71.89c-5.07,4.01-10.28,7.73-14.18,10.42Z"/><path class="cls-3" d="m33.22,238.17c8.26-2.2,17.26,10.14,13.19,25.48-3.69-2.59-8.26-5.88-12.72-9.39l.71-.92c0-4.86-.32-10.14-1.17-15.17Z"/><path class="cls-3" d="m292.5,237.15c-6.42,5.74-10.24,16.3-10.24,25.13l.35,2.34c-1.49.71-2.98,1.7-4.29,2.98-3.26,3.08-7.2,6.38-11.2,9.46l-.71-.89c0-4.86.32-10.14,1.17-15.21,2.37-14.32,8.86-26.94,23.68-23.89l1.24.07Z"/><path class="cls-3" d="m284.5,249.15c-6.42,5.74-10.24,16.3-10.24,25.13l.35,2.34c-1.49.71-2.98,1.7-4.29,2.98-3.26,3.08-7.2,6.38-11.2,9.46l-.71-.89c0-4.86.32-10.14,1.17-15.21,2.37-14.32,8.86-26.94,23.68-23.89l1.24.07Z"/><path class="cls-3" d="m46.86,237.15c6.42,5.74,10.24,16.3,10.24,25.13l-.35,2.34c1.49.71,2.98,1.7,4.29,2.98,3.26,3.08,7.2,6.38,11.2,9.46l.71-.89c0-4.86-.32-10.14-1.17-15.21-2.37-14.32-8.86-26.94-23.68-23.89l-1.24.07Z"/><path class="cls-3" d="m54.86,249.15c6.42,5.74,10.24,16.3,10.24,25.13l-.35,2.34c1.49.71,2.98,1.7,4.29,2.98,3.26,3.08,7.2,6.38,11.2,9.46l.71-.89c0-4.86-.32-10.14-1.17-15.21-2.37-14.32-8.86-26.94-23.68-23.89l-1.24.07Z"/><path class="cls-3" d="m36.86,233.15c6.42,5.74,10.24,16.3,10.24,25.13l-.35,2.34c1.49.71,2.98,1.7,4.29,2.98,3.26,3.08,7.2,6.38,11.2,9.46l.71-.89c0-4.86-.32-10.14-1.17-15.21-2.37-14.32-8.86-26.94-23.68-23.89l-1.24.07Z"/><path class="cls-2" d="m164.18,76.19c16.3-32.22,100.31-68.73,137.91,1.98,56.25,105.69-137.41,231.31-137.41,231.31l-1.38-.53S-30.37,183.34,25.88,77.61c37.78-70.99,122.35-33.85,138.09-1.52l.21.11Z"/><path class="cls-2" d="m164.18,76.19c16.3-32.22,100.31-68.73,137.91,1.98,56.25,105.69-137.41,231.31-137.41,231.31l-1.38-.53S-30.37,183.34,25.88,77.61c37.78-70.99,122.35-33.85,138.09-1.52l.21.11Z"/><g class="cls-6"><path class="cls-3" d="m54.18,161.98c-1.63,0-3.2-.89-4-2.44-13.36-25.9-14.2-49.66-2.5-70.63,14.67-26.31,41.51-36.79,71.8-28.04,2.39.69,3.76,3.18,3.07,5.57-.69,2.39-3.18,3.76-5.57,3.07-12.47-3.6-43.44-8.5-61.44,23.78-10.13,18.17-9.25,39.08,2.64,62.12,1.14,2.21.27,4.92-1.94,6.06-.66.34-1.36.5-2.06.5Z"/></g><path class="cls-5" d="m164.97,312.27l-2.82-1.08-.22-.14c-.49-.32-49.15-32.08-90.27-76.42-24.25-26.14-41.19-51.5-50.37-75.37-11.6-30.17-10.8-58.04,2.39-82.82,4.67-8.77,10.26-16.31,16.61-22.4,1-.96,2.58-.92,3.53.07.96,1,.92,2.58-.07,3.54-5.97,5.73-11.24,12.84-15.66,21.14-12.47,23.44-13.19,49.9-2.15,78.64,8.94,23.27,25.54,48.08,49.33,73.74,39.12,42.19,85.17,72.91,89.12,75.51,7.34-4.9,50.99-34.72,88.32-74.98,23.79-25.66,40.39-50.47,49.33-73.73,11.04-28.74,10.32-55.19-2.15-78.62-17.21-32.37-42.91-39.29-61.73-39.29-.26,0-.52,0-.78,0-31.33.32-61.99,19.52-70.97,37.26l-1.12,2.22-3.2-1.6-.37-.76c-8.41-17.28-38.21-36.52-69.16-37.62-1.38-.05-2.46-1.21-2.41-2.59.05-1.38,1.22-2.47,2.59-2.41,31.57,1.12,60.38,19.25,71.4,36.71,5.52-8.47,15.04-16.82,26.79-23.38,14.54-8.12,31.02-12.68,46.39-12.84.28,0,.56,0,.84,0,20.2,0,47.75,7.39,66.13,41.94,13.19,24.78,13.99,52.63,2.39,82.8-9.18,23.87-26.13,49.22-50.37,75.36-41.12,44.33-89.79,76.1-90.27,76.42l-1.07.69Z"/><g><path class="cls-3" d="m298.91,233.09c2.61-3.34,5.79-5.47,9.58-4.72,9.87,1.95-.45,17.42-2.29,22.95-8.06,24.15-15.66,51.87-37.04,68.47-5.26,4.11-16.92,8.43-21.99,15.05-1.28,1.68,1.84,19.43,2.86,26.36h-43.31c.03-6.99.11-27.06.27-29.54,1.17-18.3,6.86-36.45,25.59-44.48,7.28-3.12,15.74-5.6,22.2-9.93.77-.51,2.35-1.55,4.38-2.99,2.94-2.03,6.86-4.83,10.67-7.84,3.02-2.32,5.98-4.8,8.43-7.12.99-.96,2.11-1.71,3.23-2.24l-.27-1.76c0-6.64,2.88-14.6,7.71-18.92,2.21-1.97,4.83-3.18,7.74-3.18l2.24-.11Z"/><path class="cls-3" d="m46.99,253.91c3.34-.72,8.03-.11,11.55,3.26,2.45,2.32,5.42,4.8,8.43,7.15,3.36,2.64,6.8,5.12,9.58,7.07,2.56,1.81,4.59,3.18,5.47,3.76,6.46,4.3,14.92,6.8,22.2,9.93,18.73,8.03,24.39,26.15,25.59,44.48.19,2.83.27,28.84.27,31.65h-43.57c.35-4.06,4.59-26.58,3.12-28.47-5.07-6.64-16.73-10.97-22.01-15.05-21.35-16.62-28.98-44.32-37.01-68.5-1.87-5.52-12.17-21-2.29-22.95,4.11-.8,7.5,1.79,10.22,5.6,4.51,6.4,7.15,16.22,8.14,19.21l.32,2.86Z"/><path class="cls-5" d="m130.08,364.53c-1.84,0-3.34-1.49-3.34-3.34,0-4.31-.09-28.91-.26-31.42-1.43-21.83-9.14-35.45-23.57-41.64-2.11-.9-4.31-1.75-6.53-2.61-5.57-2.15-11.34-4.37-16.2-7.61-.89-.6-2.95-1.98-5.55-3.81-3.69-2.6-6.87-4.94-9.71-7.17-3.27-2.55-6.27-5.09-8.66-7.35-2.69-2.57-6.29-2.91-8.56-2.42-.37.09-.68.19-.93.29,1.77,2.14,5.27,5.92,9.24,10.2,9.6,10.34,21.54,23.21,24.81,29.76.82,1.65.16,3.65-1.49,4.47-1.64.83-3.65.16-4.47-1.49-2.84-5.68-14.92-18.7-23.73-28.2-4.93-5.32-8.82-9.51-10.41-11.65-1.18-1.57-1.49-3.47-.85-5.2.83-2.24,3.16-3.95,6.39-4.69,4.09-.89,10.04-.26,14.59,4.1,2.22,2.1,5.06,4.5,8.18,6.93,2.75,2.16,5.84,4.44,9.45,6.98,2.53,1.79,4.53,3.13,5.4,3.71,4.25,2.83,9.67,4.92,14.9,6.94,2.3.89,4.58,1.77,6.76,2.7,16.97,7.27,26,22.75,27.6,47.33.2,3.04.28,29.71.28,31.86,0,1.84-1.49,3.34-3.34,3.34Z"/><path class="cls-5" d="m206.72,366.67c-1.84,0-3.34-1.49-3.34-3.34v-2.14c.07-17.97.16-27.98.28-29.75,1.57-24.56,10.6-40.04,27.6-47.33,2.18-.94,4.47-1.82,6.78-2.7,5.23-2.01,10.63-4.09,14.88-6.93.79-.51,2.32-1.53,4.3-2.93,3.86-2.67,7.49-5.33,10.54-7.74,3.11-2.4,5.94-4.78,8.21-6.93,1.15-1.12,2.58-2.11,4.09-2.83,5.59-2.69,12.86-1.91,15.87,1.71,1.72,2.07,1.78,4.72.17,6.91-1.59,2.12-5.39,6.22-10.21,11.41-8.39,9.05-21.08,22.72-23.94,28.45-.82,1.64-2.83,2.31-4.48,1.49-1.65-.82-2.31-2.83-1.49-4.48,3.29-6.58,15.34-19.57,25.02-30,3.87-4.17,7.29-7.86,9.03-9.96-1.38-.54-4.25-.88-7.1.49-.88.42-1.68.97-2.35,1.62-2.47,2.33-5.47,4.87-8.73,7.38-3.17,2.5-6.82,5.19-10.81,7.94-2.04,1.45-3.66,2.52-4.45,3.04-4.83,3.23-10.59,5.45-16.16,7.59-2.23.86-4.44,1.71-6.55,2.61-14.46,6.2-22.18,19.82-23.57,41.63-.06.93-.17,5.97-.26,29.34v2.12c0,1.84-1.49,3.34-3.34,3.34Z"/><path class="cls-5" d="m86.49,364.89c-1.84,0-3.34-1.42-3.34-3.27,0-.22,0-.5.06-.89.09-1.11.51-3.81,1.05-7.22.84-5.38,2.56-16.31,2.35-19.23-2.96-3.53-8.36-6.51-13.14-9.15-2.99-1.65-5.81-3.21-7.89-4.81-20.41-15.9-28.78-41.49-36.16-64.08-.66-2.02-1.31-4.02-1.97-6-.32-.96-1.08-2.55-1.88-4.22-2.9-6.06-6.5-13.59-3.89-18.8.78-1.55,2.45-3.55,6-4.25,3.46-.67,8.61-.02,13.58,6.94,4.21,5.98,6.85,14.5,8.12,18.59.19.61.35,1.12.47,1.51.58,1.75-.37,3.64-2.12,4.21-1.75.58-3.64-.37-4.21-2.12-.14-.42-.31-.97-.52-1.63-1.16-3.77-3.59-11.61-7.18-16.71-3.5-4.9-6.02-4.4-6.85-4.25-1.08.22-1.26.57-1.32.69-1.15,2.29,2.29,9.48,3.95,12.94.93,1.95,1.73,3.62,2.19,4.98.66,2.01,1.32,4.02,1.99,6.05,7.43,22.74,15.12,46.25,33.91,60.88,1.67,1.28,4.27,2.72,7.03,4.24,5.58,3.08,11.9,6.57,15.59,11.41,1.5,1.94,1.5,5.13-1.44,23.85-.5,3.16-.92,5.88-1.01,6.93,0,1.84-1.5,3.41-3.34,3.41Zm.48-30.15s.01.02.02.03c0,0-.01-.02-.02-.03Z"/><path class="cls-5" d="m250.32,367.1c-1.84,0-3.34-1.49-3.34-3.34-.01-.33-.11-1.07-.26-2.08-.18-1.24-.43-2.82-.71-4.61-2.99-19.04-3-22.28-1.5-24.25,3.68-4.8,9.95-8.27,15.48-11.34,2.79-1.55,5.42-3,7.11-4.32,18.75-14.56,26.43-37.97,33.85-60.61.7-2.12,1.38-4.21,2.07-6.28.46-1.38,1.27-3.08,2.22-5.06,1.64-3.44,5.06-10.6,3.92-12.87-.06-.12-.24-.47-1.33-.69-.77-.15-3.09-.6-6.31,3.51-3.95,5.08-6.53,13.54-7.78,17.61l-.45,1.45c-.57,1.75-2.45,2.72-4.2,2.15-1.75-.57-2.72-2.45-2.15-4.2l.42-1.35c1.36-4.45,4.19-13.7,8.9-19.76,4.76-6.07,9.6-6.59,12.86-5.95,3.55.7,5.22,2.69,6,4.24,2.61,5.19-.98,12.71-3.86,18.74-.81,1.7-1.58,3.31-1.91,4.29-.69,2.06-1.37,4.15-2.06,6.25-7.38,22.5-15.74,48-36.09,63.8-2.09,1.63-4.95,3.22-7.97,4.89-4.75,2.63-10.1,5.59-13.03,9.08-.21,3,1.61,14.57,2.41,19.64.28,1.81.54,3.42.72,4.68.29,2,.33,2.66.33,3.04,0,1.84-1.49,3.34-3.34,3.34Z"/><path class="cls-5" d="m55.59,256.52c-1.84,0-3.34-1.49-3.34-3.34,0-6.1-2.79-13.01-6.62-16.43-1.78-1.57-3.59-2.33-5.52-2.33s-3.34-1.49-3.34-3.34,1.49-3.34,3.34-3.34c3.57,0,6.92,1.35,9.94,4.01,5.31,4.73,8.87,13.33,8.87,21.42,0,1.84-1.49,3.34-3.34,3.34Z"/><path class="cls-5" d="m281.22,258.63c-1.84,0-3.34-1.49-3.34-3.34,0-8.08,3.55-16.68,8.82-21.4,2.96-2.63,6.4-4.03,9.96-4.03,1.84,0,3.34,1.49,3.34,3.34s-1.49,3.34-3.34,3.34-3.78.78-5.52,2.33c-3.82,3.42-6.6,10.33-6.6,16.43,0,1.84-1.49,3.34-3.34,3.34Z"/><path class="cls-5" d="m67.51,266.96c-1.84,0-3.34-1.49-3.34-3.34,0-3.94-.28-7.59-.83-10.86-1.18-7.09-3.48-11.98-6.66-14.17-1.95-1.34-4.31-1.7-7.2-1.1-1.81.38-3.57-.79-3.94-2.6-.37-1.81.79-3.57,2.6-3.94,4.71-.96,8.85-.25,12.32,2.14,4.78,3.28,7.97,9.53,9.46,18.57.61,3.62.93,7.66.93,11.97,0,1.84-1.49,3.34-3.34,3.34Z"/><path class="cls-5" d="m269.29,269.09c-1.84,0-3.34-1.49-3.34-3.34,0-4.3.31-8.34.93-12,1.5-9.03,4.68-15.28,9.46-18.56,3.47-2.39,7.61-3.1,12.32-2.14,1.8.37,2.97,2.13,2.6,3.94-.37,1.8-2.13,2.97-3.94,2.6-2.9-.59-5.25-.24-7.2,1.1-3.18,2.19-5.49,7.08-6.66,14.16-.56,3.3-.84,6.97-.84,10.9,0,1.84-1.49,3.34-3.34,3.34Z"/><path class="cls-5" d="m76.56,274.72c-.28,0-.57-.04-.86-.11-1.78-.47-2.84-2.3-2.37-4.08,1.64-6.17-.07-11.37-2.49-13.79-.65-.65-1.94-1.69-3.35-1.32-1.77.47-3.6-.59-4.08-2.37-.47-1.78.59-3.61,2.37-4.08,3.38-.9,6.95.21,9.78,3.05,4.6,4.6,6.26,12.54,4.22,20.22-.4,1.49-1.75,2.48-3.22,2.48Z"/><path class="cls-5" d="m259.15,277.6c-1.47,0-2.82-.98-3.22-2.48-2.26-8.5,1.26-15.95,5.32-20.08,3.14-3.21,6.76-4.7,9.72-3.97,1.79.44,2.88,2.24,2.45,4.03-.44,1.79-2.25,2.88-4.03,2.45-.36-.03-2.18.64-4.14,3.01-1.12,1.35-4.61,6.27-2.87,12.85.47,1.78-.59,3.61-2.37,4.08-.29.08-.58.11-.86.11Z"/></g></g><g><path class="cls-3" d="m345.98,18.19c-22.71.43-45.29,9.25-62.66,26.47-34.1,33.81-35.98,87.72-5.68,123.77l-16.96,39.11c-1.36,3.13,2.14,6.15,5.04,4.34l36.59-22.81c34.95,20.02,80.28,15.12,110.13-14.73,35.73-35.73,35.73-93.67,0-129.4-5.42-5.42-11.37-10.03-17.66-13.8"/><path class="cls-5" d="m263.86,214.94c-1.38,0-2.75-.5-3.89-1.47-2.02-1.75-2.65-4.46-1.58-6.91l16.35-37.71c-14.47-17.8-21.88-40.2-20.9-63.24,1.01-23.71,10.86-45.99,27.73-62.71,17.23-17.08,40.09-26.74,64.37-27.2h.05c1.36,0,2.47,1.09,2.5,2.45.03,1.38-1.07,2.52-2.45,2.55-22.99.44-44.64,9.58-60.95,25.75-15.97,15.84-25.3,36.92-26.25,59.37-.95,22.31,6.41,43.98,20.73,61.01l1,1.18-17.58,40.53c-.25.58.05.96.26,1.13s.62.42,1.16.09l37.86-23.6,1.3.74c34.74,19.89,78.79,14.01,107.12-14.32,34.7-34.7,34.7-91.16,0-125.86-5.18-5.18-10.96-9.7-17.18-13.43-1.18-.71-1.57-2.25-.86-3.43.71-1.19,2.25-1.57,3.43-.86,6.57,3.94,12.68,8.71,18.15,14.18,36.65,36.65,36.65,96.28,0,132.93-29.57,29.57-75.34,35.99-111.83,15.86l-35.33,22.02c-1,.62-2.09.93-3.18.93Z"/></g><path class="cls-4" d="m382.74,144.65c-19.3,19.3-50.7,19.3-70,0-19.3-19.3-19.3-50.7,0-70,19.3-19.3,50.7-19.3,70,0,19.3,19.3,19.3,50.7,0,70Zm-55.86-55.86c-11.5,11.5-11.5,30.22,0,41.72,11.5,11.5,30.22,11.5,41.72,0,11.5-11.5,11.5-30.22,0-41.72s-30.22-11.5-41.72,0Z"/></g></g></svg>