<?xml version="1.0" encoding="UTF-8"?><svg id="Layer_2" xmlns="http://www.w3.org/2000/svg" viewBox="0 0 618.23 196.79"><defs><style>.cls-1{fill:#fff;}.cls-2{fill:#fbb03b;}.cls-3,.cls-4{fill:#40a057;}.cls-5{fill:#5f4826;}.cls-4{stroke:#fff;stroke-miterlimit:10;stroke-width:2px;}</style></defs><g id="PC"><g><g><g><path class="cls-3" d="m43.17,117.93h-8.64c3.02,1.41,6.45,2.53,9.79,3.28-1.37,1.31-3.2,3.75-4.12,5.39-1.05-.33-2.1-.7-3.16-1.17v13.59h-6.54v-.89H13.58v1.03h-6.22v-12.84c-1.05.52-2.1.94-3.16,1.36-.92-1.59-2.84-4.03-4.21-5.34,3.52-.98,7.23-2.58,10.33-4.41H1.19v-5.44h7c-.27-.94-.69-1.92-1.1-2.72l3.25-.61c-.27-1.27-.78-2.81-1.19-3.84,7.77-.19,16.6-.8,22.27-1.69l3.52,4.69c-.14.09-.37.19-.64.19-.14,0-.37-.05-.55-.09-.41.05-.87.14-1.33.19l5.85,1.83c-.18.42-.64.56-1.33.56l-.91,1.5h7.13v5.44Zm-34.66-14.58v4.36H2.38v-10.08h16.37v-3l8.05.42c-.05.56-.46.84-1.37,1.03v1.55h16.37v10.08h-6.45v-4.36H8.51Zm10.34,9.14v-2.86c-1.78.09-3.61.14-5.4.19.46.89.82,1.83,1.05,2.67h4.34Zm-.05,15.8v-1.27h-5.21v1.27h5.21Zm-5.21,3.89v1.36h5.21v-1.36h-5.21Zm5.26-13.69c-1.51,1.41-3.16,2.77-4.94,4.03h17.42c-2.24-1.36-4.34-2.91-6.13-4.59h-.09v3.94h-6.26v-3.38Zm11.66,9.8v-1.27h-5.49v1.27h5.49Zm-5.49,5.25h5.49v-1.36h-5.49v1.36Zm.09-21.05h4.3c.55-1.17,1.14-2.58,1.51-3.75-1.78.23-3.75.38-5.81.56v3.19Z"/><path class="cls-3" d="m93.02,105.36h-11.57c3.38,3.05,7.96,5.53,12.85,6.98-1.42,1.27-3.29,3.8-4.25,5.48-1.37-.52-2.74-1.17-4.07-1.88v16.59h7.45v6h-42.03v-6h7.55v-16.78c-1.42.84-2.93,1.59-4.48,2.2-.96-1.59-2.79-4.03-4.16-5.3,4.71-1.5,9.19-4.17,12.44-7.31h-10.93v-5.86h17.1v-4.83l7.96.42c-.05.52-.41.84-1.37,1.03v3.38h17.51v5.86Zm-24.1,1.83c-2.29,2.86-5.03,5.34-8.05,7.41h22.82c-3.11-1.97-5.85-4.45-8.19-7.22v6.09h-6.59v-6.28Zm10.2,13.92v-1.03h-13.67v1.03h13.67Zm-13.67,4.59v1.08h13.67v-1.08h-13.67Zm0,6.84h13.67v-1.17h-13.67v1.17Z"/><path class="cls-3" d="m121.1,97.11c-.14.66-.73.89-1.51,1.03-.41,2.11-1.01,5.91-1.51,8.58.78-.09,2.29-.19,3.11-.19,7.87,0,10.15,5.72,10.15,13.22v.05c-.14,7.97-1.88,17.81-10.2,17.81-1.78,0-4.62-.98-8.19-3.75.87-1.78,1.74-4.08,2.29-6.14,2.84,1.97,4.57,2.48,5.67,2.48,1.6,0,2.24-1.59,2.83-4.08.41-1.64.73-5.34.73-6.75-.05-4.31-1.28-6.28-3.89-6.28-.96,0-2.33.05-3.8.28-1.97,8.06-4.34,16.45-8,24.05l-6.45-3.23c3.43-6.8,5.67-12.94,7.36-20.02-1.28.23-4.57.75-6.4,1.08l-.55-7.03c1.88-.19,5.58-.61,8.19-.94.59-3.42,1.1-7.22,1.46-11.06l8.69.89Zm8.14-1.59c1.97,1.69,4.16,4.45,5.12,6.42l-3.34,2.25c-.82-1.92-3.25-5.06-4.94-6.52l3.16-2.16Zm7.87,27.14c-.91-5.62-3.52-12.05-6.72-15.14l5.85-3.7c4.12,4.03,7.13,10.45,8.19,16.27l-7.32,2.58Zm-.55-29.06c1.97,1.69,4.16,4.45,5.12,6.42l-3.34,2.25c-.82-1.92-3.25-5.06-4.94-6.52l3.16-2.16Z"/><path class="cls-3" d="m176.35,116.43l3.48-3.52c4.48,2.81,11.43,7.27,14.77,10.31l-5.35,5.77c-2.7-2.81-8.37-6.98-12.9-10.12v20.34h-6.95v-21c-3.89,4.36-8.51,8.3-13.86,11.2-.96-1.69-3.11-4.45-4.39-5.91,8.28-4.12,15.14-11.58,19.25-18.89h-17.42v-6.89h40.15v6.89h-14.45c-.87,1.73-1.88,3.52-3.02,5.3l2.1.47c-.09.52-.5.94-1.42,1.03v5.02Z"/><path class="cls-3" d="m244.31,119.43h-7.73c-.23.23-.64.47-1.19.52-1.05,3.33-2.47,6.14-4.3,8.48,4.3,1.69,8.32,3.52,11.2,5.2l-5.4,5.62c-2.7-1.73-6.81-3.8-11.34-5.72-4.66,3-10.66,4.78-18.06,5.72-.59-1.69-2.33-4.55-3.48-6,5.4-.47,9.92-1.31,13.58-2.81-.91-.33-1.88-.66-2.79-.94l-.37.75-7.04-1.83c1.33-2.48,2.88-5.62,4.44-9h-9.51v-6.42h12.35c1.01-2.34,1.92-4.69,2.74-6.89h-7.13v5.58h-6.77v-11.86h16.1v-5.2l8.6.47c-.05.56-.46.89-1.46,1.03v3.7h16.37v11.86h-7.13v-5.58h-16.69l6.4,1.22c-.14.56-.55.84-1.51.84-.59,1.55-1.28,3.14-1.97,4.83h22.09v6.42Zm-24.88,0c-.64,1.5-1.33,3-1.97,4.45,2.15.56,4.48,1.31,6.86,2.11,1.65-1.78,2.83-3.94,3.61-6.56h-8.51Z"/><path class="cls-3" d="m271.94,96.22c-.14.47-.64.94-1.37,1.08-.23,1.45-.69,3.7-.91,4.83,2.7-.19,7.18-.98,10.2-2.06l.82,6.7c-3.8.89-8.14,1.59-12.26,1.92-2.06,8.34-4.71,15.47-8.41,22.08l-6.95-2.44c3.66-5.77,6.58-12.75,7.96-19.5h-7.32v-6.38h8.41c.37-2.16.69-4.64.82-6.89l9.01.66Zm11.48,20.62c0,2.39.09,5.11.32,7.55,2.24.98,6.27,2.91,8.46,4.45l-3.2,6.66c-1.33-1.17-3.89-2.72-5.3-3.61-.05,1.22-.78,6.56-9.56,6.56-3.8,0-9.28-1.92-9.28-7.97.09-4.88,4.66-7.92,9.33-7.92.91,0,1.83.05,2.79.14-.09-1.27-.09-3.38-.09-5.06l6.54-.8Zm-6.08,12c-.91-.42-2.47-.61-3.34-.61-1.97,0-3.25,1.03-3.29,2.25,0,1.31,1.28,2.25,3.43,2.25,1.92,0,3.2-1.12,3.2-2.72v-1.17Zm14.22-14.67c-4.89.09-10.61.61-15.82,1.73l-.91-6.14c5.21-1.27,11.3-2.25,16.33-2.25l.41,6.66Z"/><path class="cls-3" d="m342.55,108.36h-21.91c-.14,1.69-.27,3.42-.5,5.2h12.3l1.46-.14,3.93.66c-.05.52-.14,1.36-.27,1.97-1.37,21.75-2.74,23.02-13.45,23.02-1.14,0-2.42,0-3.7-.05-.09-1.97-1.1-4.83-2.38-6.7,3.11.28,6.31.28,7.73.28,1.01,0,1.65-.09,2.29-.61,1.1-.94,1.88-4.69,2.42-12h-11.43c-1.69,7.45-5.4,14.67-14.59,19.64-.96-1.88-2.93-4.31-4.71-5.77,12.16-5.86,13.17-15.89,13.63-25.5h-12.62v-6.52h17.15v-7.45l8.32.47c-.04.52-.46.84-1.42,1.03v5.95h17.74v6.52Z"/><path class="cls-3" d="m359.47,107.53c-.03.39-.34.67-1,.74-1.34,6.3-1.82,11.97-1.82,16.87,0,.99,0,1.8.1,2.46.31-.7,1.62-3.38,2.03-4.44l2.3,4.05c-1,1.94-2.3,3.84-2.82,5.6-.17.6-.28,1.16-.28,1.69,0,.46.07.88.17,1.3l-5.22.77c-1.1-3.42-1.62-8.1-1.62-12.82s.69-11.45,1.51-17.12l6.63.88Zm20.03,26.59c-1.27.07-2.61.11-3.92.11-4.5,0-12.65,0-12.65-6.76,0-2.61,1.07-4.86,2.82-7.11l5.05,1.66c-1.48,1.41-2.37,2.99-2.37,4.65,0,1.9,1.58,2.39,6.15,2.39,1.68,0,3.61-.11,5.09-.32l-.17,5.39Zm-15.64-23.38c3.68-.11,10.38-.6,14.36-1.3l.45,5.28c-4.05.63-10.58,1.09-14.64,1.16l-.17-5.14Z"/><path class="cls-5" d="m411.28,108.18c-2.2.61-4.62,1.12-7.41,1.45-.05,1.83-.09,3.56-.09,5.2,2.88-.8,5.85-1.27,8-1.27,7.36,0,13.54,3.7,13.54,11.72,0,7.08-3.75,12.09-11.98,12.09-3.02,0-5.9-1.22-8.32-3.98,1.14-1.5,2.47-3.75,3.38-5.48,1.42,1.73,3.16,2.86,5.03,2.86,3.16,0,4.85-2.25,4.85-5.48s-2.42-5.62-6.68-5.62c-2.29,0-5.12.47-7.82,1.27v8.77c0,4.36-2.74,8.39-8.92,8.39-3.84,0-8.87-2.11-8.87-8.34,0-3.89,3.02-8.72,11.16-12.42v-7.12c-2.88.14-6.13.19-9.69.19l-.14-6.8c3.66,0,6.91-.05,9.83-.14v-7.59l8.46.19c0,.52-.46,1.03-1.19,1.12-.14,1.83-.23,3.7-.32,5.62,2.29-.38,4.44-.89,6.4-1.64l.78,7.03Zm-14.13,15.61c-2.06,1.36-4.85,3.23-4.85,5.81,0,1.64.87,2.48,2.33,2.48,1.65,0,2.56-.84,2.56-2.72,0-1.08,0-3.33-.05-5.58Zm25.66-11.58c-2.56-2.34-6.58-4.59-10.24-6l3.38-5.86c3.98,1.27,8.09,3.52,10.7,5.77l-3.84,6.09Z"/><path class="cls-5" d="m434.93,101.85c2.74-.09,6.86-.09,10.47-.19,2.06-.09,4.94-.19,7.77-.28,0-.05-.09-3.94-.27-6.23l8.92.42c-.05.38-.55.94-1.28,1.08-.05.66,0,3.84,0,4.59,6.17-.19,12.21-.33,14.27-.38v6.66c-1.46-.05-3.57-.09-5.99-.09s-5.26.05-8.19.14c.04,1.27.23,7.03.23,7.73.73,2.11.73,4.59.73,5.58,0,2.53-.32,5.2-1.19,6.94-2.19,4.55-6.45,8.91-12.8,11.2-1.19-1.69-3.57-4.22-5.21-5.58,3.98-1.31,7.64-3.09,9.47-5.25-.37.09-1.1.14-1.42.14-4.07,0-8.37-3.28-8.37-8.67-.04-5.53,4.39-9.23,9.1-9.23.78,0,1.51.09,2.33.33,0-.42-.09-2.58-.09-3.05-4.07.09-16.97.56-18.29.61l-.18-6.47Zm19.44,17.58c0-1.97-.69-3.52-2.88-3.52-1.65.05-3.16,1.22-3.2,3.66,0,1.97,1.51,3.38,3.06,3.38,1.92,0,3.02-1.45,3.02-3.52Z"/><path class="cls-5" d="m482.04,101.85c2.74-.09,6.86-.09,10.47-.19,2.06-.09,4.94-.19,7.77-.28,0-.05-.09-3.94-.27-6.23l8.92.42c-.05.38-.55.94-1.28,1.08-.05.66,0,3.84,0,4.59,6.17-.19,12.21-.33,14.27-.38v6.66c-1.46-.05-3.57-.09-5.99-.09s-5.26.05-8.19.14c.04,1.27.23,7.03.23,7.73.73,2.11.73,4.59.73,5.58,0,2.53-.32,5.2-1.19,6.94-2.19,4.55-6.45,8.91-12.8,11.2-1.19-1.69-3.57-4.22-5.21-5.58,3.98-1.31,7.64-3.09,9.47-5.25-.37.09-1.1.14-1.42.14-4.07,0-8.37-3.28-8.37-8.67-.04-5.53,4.39-9.23,9.1-9.23.78,0,1.51.09,2.33.33,0-.42-.09-2.58-.09-3.05-4.07.09-16.97.56-18.29.61l-.18-6.47Zm19.44,17.58c0-1.97-.69-3.52-2.88-3.52-1.65.05-3.16,1.22-3.2,3.66,0,1.97,1.51,3.38,3.06,3.38,1.92,0,3.02-1.45,3.02-3.52Z"/><path class="cls-5" d="m562.44,97.91c-.18.52-.59.7-1.1.75-.55,2.86-1.33,5.86-2.01,8.39,5.99,2.16,10.24,7.12,10.24,15.05,0,8.44-5.26,13.73-16.51,15.7-.91-1.97-2.19-4.45-3.29-6.09,7.87-1.31,12.62-3.75,12.62-9.42,0-4.12-2.06-7.08-5.12-8.67-1.92,5.2-4.12,9.47-6.54,12.75.41.47.92.89,1.37,1.31l-4.71,4.97c-.46-.42-.92-.84-1.37-1.36-2.88,2.3-5.95,3.42-8.96,3.42-5.08,0-8.23-4.12-8.23-9.7,0-.47,0-.89.05-1.36.59-6.38,3.66-10.69,7.64-13.5-.87-3.47-1.56-7.12-2.1-10.83l8-.28c-.04.42-.32.94-.96,1.12.23,2.34.59,4.69,1.01,7.03,2.7-1.17,5.62-1.59,8.55-1.59.46,0,.87,0,1.19.05.64-2.91,1.14-6.28,1.51-9.75l8.73,2.02Zm-20.17,28.12c-1.51-2.67-2.79-5.77-3.89-9.19-2.93,3-3.2,6.8-3.2,7.59,0,2.16,1.05,3.66,2.56,3.66,1.69,0,3.2-.94,4.53-2.06Zm4.44-5.48c1.33-2.25,2.61-5.06,3.75-8.44-.27-.05-.64-.09-.96-.09-1.97,0-3.93.42-5.62,1.36.73,2.53,1.65,4.97,2.83,7.17Z"/><path class="cls-5" d="m602.27,107.05c-.18.42-.78.8-1.46.8-2.01,16.73-6.49,24.38-14.45,24.38-5.53,0-9.24-4.45-9.24-12.75,0-12.33,9.7-20.81,21.17-20.81,12.85,0,19.94,7.5,19.94,18.14s-5.21,16.83-16.97,20.06c-1.05-1.73-2.56-4.08-4.48-6,10.38-2.11,13.99-7.17,13.99-13.92,0-7.5-5.26-11.67-12.62-11.67-.96,0-1.83.09-2.74.23l6.86,1.55Zm-8.64-1.08c-5.85,1.92-9.65,7.22-9.65,13.22,0,3.42.69,6,2.61,6,3.93,0,6.45-9.19,7.04-19.22Z"/></g><g><path class="cls-5" d="m88.43,170.56c2.41.89,5.64,2.5,7.25,3.81l-3.08,4.62c-1.43-1.35-4.58-3.16-7.03-4.24l2.86-4.2Zm-1.5,22.03c1.92-2.89,4.62-7.51,6.84-12.02l4.1,3.66c-1.88,3.97-3.91,7.86-5.71,10.86.19.27.26.58.26.81,0,.27-.08.5-.23.73l-5.26-4.04Zm14.24-20.99c-.53-1.93-1.95-4.74-3.42-7.05l-2.86,4.08c-1.43-1.39-4.55-3.24-6.95-4.31l2.97-4.12c2.14.81,4.96,2.2,6.65,3.47l4.17-2.2c1.69,2.27,3.57,5.32,4.25,7.51l-4.81,2.62Zm18.34.19v19.18c0,4.81-1.8,5.7-8.53,5.7-.19-1.5-.9-3.77-1.58-5.2,1.47.12,3.46.12,4.02.12.56-.04.75-.19.75-.69v-1.35h-9.55v7.2h-5.34v-24.96h7.22v-11.71l6.65.35c-.04.46-.34.69-1.13.85v10.51h7.48Zm-5.34,5.2h-9.55v1.58h9.55v-1.58Zm-9.55,7.89h9.55v-1.66h-9.55v1.66Zm17.18-21.38c-.23.39-.71.5-1.2.46-.86,2.35-2.48,5.43-3.68,7.39-.04,0-4.55-2-4.55-2,1.28-2.2,2.74-5.62,3.53-8.28l5.9,2.43Z"/><path class="cls-5" d="m157.91,190.74h-4.4c3.23,1.16,6.58,2.46,8.68,3.43l-6.16,2.62c-2.07-1.19-5.9-2.93-9.66-4.27l2.86-1.77h-9.06l3.53,1.77c-.15.19-.41.35-.75.35-.11,0-.23-.04-.38-.08-3.01,1.42-7.52,3-11.39,3.97-.86-1.04-2.56-2.85-3.61-3.74,2.93-.54,6.09-1.39,8.57-2.27h-3.83v-10.63c-.79.12-1.62.27-2.48.38-.45-1.16-1.69-3.31-2.59-4.27,4.25-.46,6.88-1.23,8.49-2.27h-1.99l-.11.27-4.92-.27c.86-2.08,1.8-5.01,2.48-7.47h6.99v-1.16h-8.98v-3.16h8.98v-2.04l5.98.35c-.04.38-.34.62-1.05.77v.92h3.31v-2.04l6.24.35c-.04.42-.38.65-1.09.81v.89h7.78v7.47h-7.78v1.16h6.31l1.13-.08,2.86.23-.11,1.16c-.19,4.58-.79,5.78-3.83,6.05v12.59Zm-22.66-21.11l-.38,1.16h3.12c.08-.38.15-.77.15-1.16h-2.89Zm17.1,9.09h-14.73v1.08h14.73v-1.08Zm0,3.93h-14.73v1.08h14.73v-1.08Zm0,3.93h-14.73v1.12h14.73v-1.12Zm-5.94-12.63h-4.13c-.26.62-.6,1.19-1.01,1.73h5.15v-1.73Zm0-3.16v-1.16h-3.31c-.04.38-.04.77-.08,1.16h3.38Zm-3.31-5.47v1.16h3.31v-1.16h-3.31Zm11.31,0h-2.86v1.16h2.86v-1.16Zm-.38,10.36c-.11-.31-.23-.58-.34-.81.6.08,1.09.12,1.47.12,1.05,0,1.13-.08,1.32-1.04h-4.92v1.73h2.48Z"/><path class="cls-5" d="m203.53,176.46h-13.6c-1.13.89-2.29,1.7-3.5,2.5h11.99v17.6h-5.49v-.89h-10.94v1.04h-5.22v-12.32c-1.92.85-3.83,1.66-5.83,2.39-.64-1.16-1.99-3.24-2.97-4.35,4.51-1.5,8.94-3.5,13.04-5.97h-12.18v-4.66h11.95v-2.81h-8.34v-4.54h8.34v-4.31l6.54.35c-.04.42-.38.69-1.13.85v3.12h7.55v1.73c1.32-1.5,2.56-3.04,3.61-4.66l5.26,3.04c-.15.23-.49.39-.86.39-.15,0-.3-.04-.45-.08-1.8,2.46-3.83,4.78-6.01,6.93h8.23v4.66Zm-10.6,8.67v-1.62h-10.94v1.62h10.94Zm-10.94,5.89h10.94v-1.73h-10.94v1.73Zm4.21-22.03v2.81h1.54c1.13-.89,2.22-1.85,3.27-2.81h-4.81Z"/><path class="cls-5" d="m235.66,184.27l4.28,1.85c-.19.35-.64.46-1.17.42-.75,1.35-1.99,3-3.04,4.39h7.67v4.78h-31.79v-4.78h6.73c-.64-1.66-1.73-3.81-2.82-5.47l2.78-1.19h-4.7v-4.78h10.75v-3.08h-6.46v-1.77c-1.69,1.23-3.46,2.39-5.3,3.39-.71-1.31-2.22-3.39-3.34-4.47,6.43-3.2,12.48-9.05,15.18-13.67l7.14.42c-.11.42-.49.81-1.09.85,3.61,4.97,9.88,9.55,15.45,11.79-1.35,1.42-2.59,3.35-3.61,5.04-1.8-.96-3.65-2.16-5.45-3.47v1.89h-6.69v3.08h10.86v4.78h-5.37Zm-11.31,0h-3.95c1.2,1.77,2.44,3.89,2.93,5.43l-2.74,1.23h3.76v-6.66Zm8.76-12.71c-2.33-2-4.36-4.16-5.75-6.12-1.39,2-3.35,4.12-5.6,6.12h11.35Zm-2.25,18.45c1.09-1.54,2.41-3.81,3.23-5.74h-3.91v6.66h2.56l-1.88-.92Z"/><path class="cls-5" d="m270.49,161.44v4.66h-19.47v-4.66h19.47Zm-.83,15.25v15.56c0,3.43-.98,4.51-5.68,4.51-.11-1.23-.6-3-1.09-4.16.79.04,1.69.04,2.03.04.3,0,.41-.12.41-.46v-7.2h-1.35c-2.82,0-2.82-1.19-2.82-4.24h-.83c-.23,2.23-.9,4.2-3.31,5.31-.15-.38-.45-.89-.79-1.31v11.98h-4.13v-20.03h17.55Zm-1.65-.92h-14.28v-8.74h14.28v8.74Zm-11.76,4.97v2.43c.71-.58,1.01-1.39,1.17-2.43h-1.17Zm.45,8.86v-3.54h8.12v3.54h-2.14v5.7h-3.91v-5.7h-2.07Zm1.62-18.91v1.42h4.77v-1.42h-4.77Zm5.83,10.05c0,1.46,0,1.62.3,1.62.71,0,.79,0,.9-.12v-1.5h-1.2Zm20.56,4.2c1.2,3.47,2.18,7.86,2.33,10.67l-4.4,1.16c-.04-.77-.11-1.66-.23-2.58-3.83.62-7.59,1.23-10.18,1.62-.08.38-.41.62-.71.65l-1.73-5.7c1.58-.12,3.65-.27,5.86-.5v-5.97h-5v-16.75h4.96v-7.36l5.71.31c-.04.38-.3.65-1.01.77v6.28h5.26v16.75h-5.26v5.51l1.28-.12c-.26-1.31-.6-2.58-.98-3.77l4.1-.96Zm-9.85-12.71v7.32h1.17v-7.32h-1.17Zm6.24,7.32v-7.32h-1.2v7.32h1.2Z"/><path class="cls-3" d="m322.61,170.14c-.11.27-.26.54-.53.69-.56,11.98-1.73,18.99-3.16,21.18-1.39,2.16-3.57,3.24-6.16,3.24-1.92,0-3.95-.23-6.35-.69.04-1.58-.19-4.31-.45-5.89,2.07.46,4.66.85,5.64.85,1.05,0,1.84-.31,2.37-1.42.71-1.46,1.62-6.89,1.84-13.52h-7.89c-1.69,7.24-4.47,14.71-11.46,20.72-1.05-1-3.23-2.7-4.7-3.54,6.13-4.89,8.87-11.55,10.07-17.21h-8.57v-5.47h9.62c.34-2.62.34-4.62.49-7.47l7.33.62c-.08.46-.45.81-1.2.92-.23,2.27-.26,3.81-.56,5.97h8.42l1.05-.42,4.21,1.46Z"/><path class="cls-3" d="m331.06,174.95h31.38v5.85h-29.73c-.26.38-.79.65-1.35.73l-.3-6.59Z"/><path class="cls-3" d="m392.88,183.66c-2.82-1.73-7.55-4.08-11.09-5.55v17.25h-6.13v-34.04l7.33.38c-.04.46-.38.89-1.2,1.04v10.78l1.09-1.54c4.02,1.46,9.58,3.93,13.19,5.89l-3.19,5.78Zm-2.59-19.99c1.32,1.12,3.27,3.35,4.47,5.05l-2.56,2.19c-.87-1.35-2.93-3.89-4.32-5.12l2.41-2.12Zm5.22-3.5c1.5,1.35,3.46,3.35,4.47,4.93l-2.56,2.16c-.86-1.31-2.93-3.74-4.32-5.01l2.41-2.08Z"/><path class="cls-3" d="m433.54,166.4v26.23h-5.86v-2.08h-15.78v2.12h-5.71v-26.27h27.36Zm-5.9,18.72v-13.29h-15.78v13.29h15.78Z"/><path class="cls-3" d="m443.04,174.95h31.38v5.85h-29.73c-.26.38-.79.65-1.35.73l-.3-6.59Z"/><path class="cls-3" d="m484.79,163.63c3.72,1.12,8.19,3.2,10.94,4.97l-3.01,5.35c-2.67-1.81-7.14-3.93-10.64-5.24l2.71-5.08Zm-1.8,25.73c12.37-3.85,20.97-11.36,25.26-21.91,1.69,1.39,3.68,2.5,5.37,3.47-4.66,10.48-13.57,18.72-25.86,23.3-.08.42-.34.85-.71,1.04l-4.06-5.89Z"/></g></g><g><polygon class="cls-2" points="416.59 74 190.59 74 200.59 47 190.59 17 416.59 17 408.59 46 416.59 74"/><circle class="cls-4" cx="304.09" cy="16.5" r="15.5"/><g><path class="cls-1" d="m227.03,37.66c1.18,1.63,2.26,3.81,2.72,5.32l-3.25,1.39c-.37-1.51-1.45-3.83-2.54-5.51l3.07-1.21Zm8.6-.64c-.02.26-.21.43-.69.5v7.75h7.26v14.06h-3.39v-.87h-14.73v-3.36h14.73v-1.68h-13.33v-3.24h13.33v-1.56h-14.18v-3.36h6.85v-8.49l4.15.24Zm1.13,6.26c.85-1.61,1.8-3.99,2.31-5.88l4.17,1.46c-.12.21-.39.33-.78.33-.65,1.73-1.8,3.9-2.7,5.32l-3-1.23Z"/><path class="cls-1" d="m266.8,45.79h-3.99v.76c0,5.13-1.75,9.31-7.17,12.03-.65-.76-1.71-1.84-2.58-2.51,5.03-2.34,6.2-5.65,6.2-9.5v-.78h-5.23v5.06h-3.5v-5.06h-3.73v-3.43h3.73v-4.54l4.24.26c-.02.26-.25.57-.74.66v3.62h5.23v-4.84l4.29.24c-.02.28-.25.5-.74.59v4.02h3.99v3.43Z"/><path class="cls-1" d="m277.69,47.92c-1.87,1.25-4.86,2.93-7.1,4.02-.46-.8-1.41-2.1-2.12-2.77,5.88-2.62,12.8-7.47,16.25-11.7l3.46,2.6c-.14.19-.39.31-.78.28-1.8,1.77-3.9,3.59-6.06,5.22l.83.28c-.07.24-.3.45-.74.52v12.15h-3.73v-10.61Z"/><path class="cls-1" d="m303.6,51.13c-1.73-1.06-4.63-2.51-6.8-3.4v10.68h-3.76v-20.89l4.5.24c-.02.28-.23.54-.74.64v6.52l.67-.95c2.47.9,5.88,2.41,8.09,3.62l-1.96,3.55Z"/><path class="cls-1" d="m308.31,45.91h21.49v3.76h-21.49v-3.76Z"/><path class="cls-1" d="m340.18,46.9l.37,2.91-2.26.71v4.94c0,2.62-.6,3.73-4.75,3.73-.09-.92-.51-2.41-.92-3.36.83.05,1.75.05,2.05.05s.42-.12.42-.45v-3.95l-1.75.52c-.05.26-.25.4-.46.45l-.76-3.76,2.97-.62v-3.73h-2.65v-3.14h2.65v-4.42l3.87.17c-.02.26-.18.45-.67.52v3.73h2.14v3.14h-2.14v3l1.89-.45Zm.6-9.22h12.66v14.42h-3.27v-.85h-1.45v7.96h-3.27v-7.96h-1.54v.85h-3.11v-14.42Zm4.66,3.12h-1.54v2.08h1.54v-2.08Zm-1.54,7.35h1.54v-2.17h-1.54v2.17Zm6.27-5.27v-2.08h-1.45v2.08h1.45Zm-1.45,5.27h1.45v-2.17h-1.45v2.17Z"/><path class="cls-1" d="m362.93,37.99c-.05.28-.25.5-.69.57-.21,3.33-.44,8.51-.44,11.96,0,2.79,1.41,4.07,3.64,4.07,2.03,0,4.43-1.09,7.05-3.59.39.78,1.48,2.65,1.98,3.26-2.95,2.84-5.9,4.07-9.06,4.07-5.53,0-7.45-3.05-7.45-7.78,0-3.26.14-9.9.3-12.72l4.66.17Z"/><path class="cls-1" d="m377.71,54.63c0-1.47,1.15-2.65,2.58-2.65s2.58,1.18,2.58,2.65-1.15,2.65-2.58,2.65-2.58-1.23-2.58-2.65Zm1.04-4.11l-.69-11.82h4.61l-.67,11.82h-3.25Z"/></g><rect class="cls-3" x="190.59" y="11" width="113" height="4"/><rect class="cls-3" x="303.59" y="11" width="113" height="4"/><g><path class="cls-2" d="m312.26,15.81l-2.92,5.95h-9.48l-2.92-5.95c.97.89,2.58.86,4.2.32,2.01-.68,3.2-2.42,3.42-4l.04-.02h0s0,0,0,0l.04.02c.22,1.58,1.41,3.32,3.42,4,1.62.55,3.23.58,4.2-.32Z"/><path class="cls-2" d="m297.58,14.27c0,.69-.56,1.26-1.26,1.26s-1.26-.56-1.26-1.26.56-1.26,1.26-1.26,1.26.56,1.26,1.26Z"/><path class="cls-2" d="m305.85,10.26c0,.69-.56,1.26-1.26,1.26s-1.26-.56-1.26-1.26.56-1.26,1.26-1.26,1.26.56,1.26,1.26Z"/><path class="cls-2" d="m314.03,14.27c0,.69-.56,1.26-1.26,1.26s-1.26-.56-1.26-1.26.56-1.26,1.26-1.26,1.26.56,1.26,1.26Z"/><rect class="cls-2" x="299.87" y="22.32" width="9.44" height="1.78"/></g></g></g></g></svg>