<?xml version="1.0" encoding="UTF-8"?><svg id="Layer_2" xmlns="http://www.w3.org/2000/svg" viewBox="0 0 618.23 194.8"><defs><style>.cls-1{fill:#fff;}.cls-2{fill:gold;}.cls-3{fill:#fbb03b;}.cls-4{fill:#40a057;}.cls-5{fill:#5f4826;}</style></defs><g id="PC"><g><polygon class="cls-4" points="230.82 70 343.82 70 367.82 20 252.82 20 230.82 70"/><polygon class="cls-3" points="367.82 70 254.82 70 230.82 20 345.82 20 367.82 70"/><g><path class="cls-1" d="m285.37,47.41l2.05.76c-.07.21-.16.28-.28.42-.51,1.99-1.34,3.71-2.44,5.13,1.11.66,2.35,1.16,3.78,1.49-.69.61-1.57,1.87-1.98,2.67-1.5-.45-2.81-1.11-3.97-1.94-.99.8-2.1,1.47-3.34,1.99-.35-.73-1.06-1.84-1.66-2.51v2.48h-3.21v-1.91c-2.28.26-4.47.52-6.02.66-.05.24-.23.35-.42.38l-.9-3.21c.55-.02,1.2-.05,1.91-.09v-6.76h-1.94v-2.69h21.28v2.69h-10.72v8.27c.99-.35,1.91-.85,2.72-1.46-.76-.95-1.38-2.01-1.91-3.19l1.75-.5h-2.14v-2.58h6.89l.53-.09Zm-.18-11.2v7.47h-15.15v-7.47h15.15Zm-10.86,10.75h-2.37v.57h2.37v-.57Zm-2.37,2.88v.64h2.37v-.64h-2.37Zm0,3.71l2.37-.17v-.59h-2.37v.76Zm9.87-14.63v-.57h-8.58v.57h8.58Zm0,2.6v-.59h-8.58v.59h8.58Zm-.67,8.56c.3.59.69,1.13,1.13,1.65.39-.52.71-1.06,1.01-1.65h-2.14Z"/><path class="cls-1" d="m298.26,50.29v.21c.71.4,2.65,1.73,3.16,2.1l-1.87,2.43c-.32-.38-.81-.88-1.29-1.37v4.23h-3.25v-3.64c-.74.95-1.52,1.77-2.31,2.41-.51-.73-1.48-1.84-2.17-2.41,1.45-.92,2.95-2.43,3.97-3.97h-3.3v-2.86h3.8v-1.37h-4.06v-2.79h2.01c-.14-.76-.39-1.58-.67-2.27l1.45-.45h-2.33v-2.77h3.6v-2.34l3.92.21c-.02.26-.21.43-.67.5v1.63h3.44v2.77h-1.89l1.75.45c-.07.19-.28.28-.65.31-.23.59-.58,1.3-.92,1.96h2.19v2.79h-3.3c-.09.14-.28.26-.62.31v1.06h3.55v2.86h-3.55Zm-1.13-7.02c.3-.8.62-1.84.83-2.72h-3c.39.9.69,1.94.81,2.72h1.36Zm15.63-.07v3.17h-2.01v11.53h-3.25v-11.53h-1.66c-.07,3.47-.62,8.46-3.55,11.61-.41-.76-1.61-1.94-2.37-2.34,2.51-2.84,2.74-6.78,2.74-9.93v-8.11l1.57.45c1.98-.71,4.01-1.68,5.26-2.58l3.09,2.43c-.16.17-.44.17-.71.17-1.57.85-3.83,1.75-6.02,2.41v2.72h6.92Z"/><path class="cls-1" d="m319.32,44.48c0,.99,0,1.54-.02,2.25h4.29v10.28h-2.95v-7.33h-1.48c-.21,2.86-.62,5.91-1.45,8.18-.69-.33-2.08-.8-2.88-1.02,1.34-3.4,1.54-8.89,1.54-12.1v-8.58l3.6.19c-.02.26-.21.4-.65.47v4.7h1.18v-6.05l3.6.21c-.02.24-.21.38-.65.45v5.39h1.61v2.95h-5.74Zm15.33-2.01l1.96.66c-.05.21-.14.35-.25.5-.42,3.33-1.2,6.26-2.42,8.75.95,1.13,2.05,2.08,3.34,2.77-.74.64-1.75,1.91-2.26,2.79-1.13-.69-2.1-1.56-2.97-2.55-.76.97-1.61,1.8-2.58,2.53-.46-.83-1.41-2.08-2.12-2.74-.25.95-.58,1.84-.97,2.65-.6-.52-1.98-1.35-2.77-1.63,1.8-3.62,1.91-9,1.91-12.74v-7h11.25v3.1h-8.16v3.03h5.49l.55-.09Zm-6.23,6.17c-.18,2.17-.51,4.44-1.06,6.48,1.01-.66,1.91-1.58,2.67-2.69-.62-1.16-1.13-2.43-1.59-3.78h-.02Zm.12-2.17l2.17-.52c.3,1.06.67,2.1,1.13,3.07.39-1.06.74-2.2.99-3.36h-4.24l-.05.8Z"/></g><g><g><g><path class="cls-5" d="m208.38,161.52c-.11.27-.26.54-.53.69-.56,11.98-1.73,18.99-3.16,21.18-1.39,2.16-3.57,3.24-6.16,3.24-1.92,0-3.95-.23-6.35-.69.04-1.58-.19-4.31-.45-5.89,2.07.46,4.66.85,5.64.85,1.05,0,1.84-.31,2.37-1.42.71-1.46,1.62-6.89,1.84-13.52h-7.89c-1.69,7.24-4.47,14.71-11.46,20.72-1.05-1-3.23-2.7-4.7-3.54,6.13-4.89,8.87-11.55,10.07-17.21h-8.57v-5.47h9.62c.34-2.62.34-4.62.49-7.47l7.33.62c-.08.46-.45.81-1.2.92-.23,2.27-.26,3.81-.56,5.97h8.42l1.05-.42,4.21,1.46Z"/><path class="cls-5" d="m216.83,166.33h31.38v5.85h-29.73c-.26.38-.79.65-1.35.73l-.3-6.59Z"/><path class="cls-5" d="m278.65,175.04c-2.82-1.73-7.55-4.08-11.09-5.55v17.25h-6.13v-34.05l7.33.39c-.04.46-.38.89-1.2,1.04v10.78l1.09-1.54c4.02,1.46,9.58,3.93,13.19,5.89l-3.19,5.78Zm-2.59-19.99c1.32,1.12,3.27,3.35,4.47,5.04l-2.56,2.2c-.86-1.35-2.93-3.89-4.32-5.12l2.41-2.12Zm5.22-3.5c1.5,1.35,3.46,3.35,4.47,4.93l-2.56,2.16c-.86-1.31-2.93-3.74-4.32-5.01l2.41-2.08Z"/><path class="cls-5" d="m319.31,157.78v26.23h-5.86v-2.08h-15.78v2.12h-5.71v-26.27h27.36Zm-5.9,18.72v-13.29h-15.79v13.29h15.79Z"/><path class="cls-5" d="m328.81,166.33h31.38v5.85h-29.73c-.26.38-.79.65-1.35.73l-.3-6.59Z"/><path class="cls-5" d="m370.56,155.01c3.72,1.12,8.19,3.2,10.94,4.97l-3.01,5.35c-2.67-1.81-7.14-3.93-10.64-5.24l2.71-5.08Zm-1.8,25.73c12.37-3.85,20.97-11.36,25.26-21.91,1.69,1.39,3.68,2.5,5.37,3.47-4.66,10.48-13.57,18.72-25.86,23.3-.08.42-.34.85-.71,1.04l-4.06-5.89Z"/></g><g><path class="cls-4" d="m445.51,176.03c0,11.74-6.23,18.77-18.68,18.77-11.07,0-18.37-5.68-18.37-17.74h9c0,5.1,2.64,8.64,9,8.64,5.91,0,9.69-3.42,9.69-9.61,0-7.09-4.34-9.42-9.94-9.42-3.4,0-5.85.9-7.3,2.52h-9.18v-30.06h33.22v9.61h-23.28v10.06c1.57-1.1,4.78-1.55,7.61-1.55,11.26,0,18.25,6.84,18.25,18.77Z"/><path class="cls-5" d="m485.91,176.08c2.37,1.16,4.89,2.54,6.43,3.54l-5.11,1.81c2.14-.08,4.17-.19,5.86-.35-.56,1.23-1.35,3.66-1.62,5.2-3.01.15-7.22.27-11.16.27-9.4,0-13.49,0-16.72-4.35-1.32,1.46-2.71,2.81-3.87,3.93,0,.46-.15.69-.53.85l-2.59-5.58c1.28-.89,2.74-1.96,4.1-3.12v-7.66h-3.5v-5.16h8.57v12.36c.9,1.77,2.41,2.81,4.47,3.31-.94-.92-2.25-2.08-3.2-2.73,2.07-.54,4.21-1.42,5.75-2.31h-6.09v-4.04h5.75v-1.73h-4.43v-4h4.43v-1.93l6.2.35c-.04.42-.34.65-1.09.77v.81h3.34v-1.93l6.28.35c-.04.42-.34.65-1.09.81v.77h4.62v4h-4.62v1.73h6.01v4.04h-6.2Zm-24.88-24.73c1.84,1.85,4.1,4.43,5.04,6.32l-4.66,3.12c-.79-1.85-2.89-4.66-4.7-6.66l4.32-2.77Zm12.21,4.7v-1.08h-6.2v-3.43h10.75v7.97h-1.24c.83.5,2.29,1,3.38,1.23-.04-.31-.04-.69-.04-1.08v-3.62h5.98v-1.04h-6.61v-3.47h11.24v7.97h-1.58c.86.54,2.44,1.04,3.53,1.27-.45,2.7-1.58,3.47-4.17,3.47h-3.61c-3.12,0-4.36-.73-4.66-3-.53,2.31-1.65,3-4.1,3h-3.61c-3.76,0-4.77-1.04-4.77-4.58v-3.62h5.71Zm2.37,20.03l3.53,1.42c-.15.27-.53.42-1.01.35-1.69,1.16-4.36,2.5-6.84,3.47,1.95.27,5.19.27,7.85.27,2.33,0,4.89-.04,7.33-.12-1.43-1.12-3.87-2.73-6.16-3.89l2.67-1.5h-7.37Zm-3.65-16.56c0,.46.04.77.15.92.15.15.41.19.9.19h2.37c.64,0,.86-.19.98-1.12h-4.4Zm5.6,10.78v1.73h3.34v-1.73h-3.34Zm10.18-9.67c.64,0,.86-.19.98-1.12h-4.4c0,.46.04.77.15.92.15.15.41.19.9.19h2.37Z"/></g></g><g><path class="cls-4" d="m43.17,116.19h-8.64c3.02,1.41,6.45,2.53,9.79,3.28-1.37,1.31-3.2,3.75-4.12,5.39-1.05-.33-2.1-.7-3.16-1.17v13.59h-6.54v-.89H13.58v1.03h-6.22v-12.84c-1.05.52-2.1.94-3.16,1.36-.92-1.59-2.84-4.03-4.21-5.34,3.52-.98,7.23-2.58,10.33-4.41H1.19v-5.44h7c-.27-.94-.69-1.92-1.1-2.72l3.25-.61c-.27-1.27-.78-2.81-1.19-3.84,7.77-.19,16.6-.8,22.27-1.69l3.52,4.69c-.14.09-.37.19-.64.19-.14,0-.37-.05-.55-.09-.41.05-.87.14-1.33.19l5.85,1.83c-.18.42-.64.56-1.33.56l-.91,1.5h7.13v5.44Zm-34.66-14.58v4.36H2.38v-10.08h16.37v-3l8.05.42c-.05.56-.46.84-1.37,1.03v1.55h16.37v10.08h-6.45v-4.36H8.51Zm10.34,9.14v-2.86c-1.78.09-3.61.14-5.4.19.46.89.82,1.83,1.05,2.67h4.34Zm-.05,15.8v-1.27h-5.21v1.27h5.21Zm-5.21,3.89v1.36h5.21v-1.36h-5.21Zm5.26-13.69c-1.51,1.41-3.16,2.77-4.94,4.03h17.42c-2.24-1.36-4.34-2.91-6.13-4.59h-.09v3.94h-6.26v-3.38Zm11.66,9.8v-1.27h-5.49v1.27h5.49Zm-5.49,5.25h5.49v-1.36h-5.49v1.36Zm.09-21.05h4.3c.55-1.17,1.14-2.58,1.51-3.75-1.78.23-3.75.38-5.81.56v3.19Z"/><path class="cls-4" d="m93.02,103.63h-11.57c3.38,3.05,7.96,5.53,12.85,6.98-1.42,1.27-3.29,3.8-4.25,5.48-1.37-.52-2.74-1.17-4.07-1.88v16.59h7.45v6h-42.03v-6h7.55v-16.78c-1.42.84-2.93,1.59-4.48,2.2-.96-1.59-2.79-4.03-4.16-5.3,4.71-1.5,9.19-4.17,12.44-7.31h-10.93v-5.86h17.1v-4.83l7.96.42c-.05.52-.41.84-1.37,1.03v3.38h17.51v5.86Zm-24.1,1.83c-2.29,2.86-5.03,5.34-8.05,7.41h22.82c-3.11-1.97-5.85-4.45-8.19-7.22v6.09h-6.59v-6.28Zm10.2,13.92v-1.03h-13.67v1.03h13.67Zm-13.67,4.59v1.08h13.67v-1.08h-13.67Zm0,6.84h13.67v-1.17h-13.67v1.17Z"/><path class="cls-4" d="m121.1,95.38c-.14.66-.73.89-1.51,1.03-.41,2.11-1.01,5.91-1.51,8.58.78-.09,2.29-.19,3.11-.19,7.87,0,10.15,5.72,10.15,13.22v.05c-.14,7.97-1.88,17.81-10.2,17.81-1.78,0-4.62-.98-8.19-3.75.87-1.78,1.74-4.08,2.29-6.14,2.84,1.97,4.57,2.48,5.67,2.48,1.6,0,2.24-1.59,2.83-4.08.41-1.64.73-5.34.73-6.75-.05-4.31-1.28-6.28-3.89-6.28-.96,0-2.33.05-3.8.28-1.97,8.06-4.34,16.45-8,24.05l-6.45-3.23c3.43-6.8,5.67-12.94,7.36-20.02-1.28.23-4.57.75-6.4,1.08l-.55-7.03c1.88-.19,5.58-.61,8.19-.94.59-3.42,1.1-7.22,1.46-11.06l8.69.89Zm8.14-1.59c1.97,1.69,4.16,4.45,5.12,6.42l-3.34,2.25c-.82-1.92-3.25-5.06-4.94-6.52l3.16-2.16Zm7.87,27.14c-.91-5.62-3.52-12.05-6.72-15.14l5.85-3.7c4.12,4.03,7.13,10.45,8.19,16.27l-7.32,2.58Zm-.55-29.06c1.97,1.69,4.16,4.45,5.12,6.42l-3.34,2.25c-.82-1.92-3.25-5.06-4.94-6.52l3.16-2.16Z"/><path class="cls-4" d="m176.35,114.69l3.48-3.52c4.48,2.81,11.43,7.27,14.77,10.31l-5.35,5.77c-2.7-2.81-8.37-6.98-12.9-10.12v20.34h-6.95v-21c-3.89,4.36-8.51,8.3-13.86,11.2-.96-1.69-3.11-4.45-4.39-5.91,8.28-4.12,15.14-11.58,19.25-18.89h-17.42v-6.89h40.15v6.89h-14.45c-.87,1.73-1.88,3.52-3.02,5.3l2.1.47c-.09.52-.5.94-1.42,1.03v5.02Z"/><path class="cls-4" d="m244.31,117.69h-7.73c-.23.23-.64.47-1.19.52-1.05,3.33-2.47,6.14-4.3,8.48,4.3,1.69,8.32,3.52,11.2,5.2l-5.4,5.62c-2.7-1.73-6.81-3.8-11.34-5.72-4.66,3-10.66,4.78-18.06,5.72-.59-1.69-2.33-4.55-3.48-6,5.4-.47,9.92-1.31,13.58-2.81-.91-.33-1.88-.66-2.79-.94l-.37.75-7.04-1.83c1.33-2.48,2.88-5.62,4.44-9h-9.51v-6.42h12.35c1.01-2.34,1.92-4.69,2.74-6.89h-7.13v5.58h-6.77v-11.86h16.1v-5.2l8.6.47c-.05.56-.46.89-1.46,1.03v3.7h16.37v11.86h-7.13v-5.58h-16.69l6.4,1.22c-.14.56-.55.84-1.51.84-.59,1.55-1.28,3.14-1.97,4.83h22.09v6.42Zm-24.88,0c-.64,1.5-1.33,3-1.97,4.45,2.15.56,4.48,1.31,6.86,2.11,1.65-1.78,2.83-3.94,3.61-6.56h-8.51Z"/><path class="cls-4" d="m271.94,94.49c-.14.47-.64.94-1.37,1.08-.23,1.45-.69,3.7-.91,4.83,2.7-.19,7.18-.98,10.2-2.06l.82,6.7c-3.8.89-8.14,1.59-12.26,1.92-2.06,8.34-4.71,15.47-8.41,22.08l-6.95-2.44c3.66-5.77,6.58-12.75,7.96-19.5h-7.32v-6.38h8.41c.37-2.16.69-4.64.82-6.89l9.01.66Zm11.48,20.62c0,2.39.09,5.11.32,7.55,2.24.98,6.27,2.91,8.46,4.45l-3.2,6.66c-1.33-1.17-3.89-2.72-5.3-3.61-.05,1.22-.78,6.56-9.56,6.56-3.8,0-9.28-1.92-9.28-7.97.09-4.88,4.66-7.92,9.33-7.92.91,0,1.83.05,2.79.14-.09-1.27-.09-3.38-.09-5.06l6.54-.8Zm-6.08,12c-.91-.42-2.47-.61-3.34-.61-1.97,0-3.25,1.03-3.29,2.25,0,1.31,1.28,2.25,3.43,2.25,1.92,0,3.2-1.12,3.2-2.72v-1.17Zm14.22-14.67c-4.89.09-10.61.61-15.82,1.73l-.91-6.14c5.21-1.27,11.3-2.25,16.33-2.25l.41,6.66Z"/><path class="cls-4" d="m342.55,106.63h-21.91c-.14,1.69-.27,3.42-.5,5.2h12.3l1.46-.14,3.93.66c-.05.52-.14,1.36-.27,1.97-1.37,21.75-2.74,23.02-13.45,23.02-1.14,0-2.42,0-3.7-.05-.09-1.97-1.1-4.83-2.38-6.7,3.11.28,6.31.28,7.73.28,1.01,0,1.65-.09,2.29-.61,1.1-.94,1.88-4.69,2.42-12h-11.43c-1.69,7.45-5.4,14.67-14.59,19.64-.96-1.88-2.93-4.31-4.71-5.77,12.16-5.86,13.17-15.89,13.63-25.5h-12.62v-6.52h17.15v-7.45l8.32.47c-.04.52-.46.84-1.42,1.03v5.95h17.74v6.52Z"/><path class="cls-4" d="m359.47,105.8c-.03.39-.34.67-1,.74-1.34,6.3-1.82,11.97-1.82,16.87,0,.99,0,1.8.1,2.46.31-.7,1.62-3.38,2.03-4.44l2.3,4.05c-1,1.94-2.3,3.84-2.82,5.6-.17.6-.28,1.16-.28,1.69,0,.46.07.88.17,1.3l-5.22.77c-1.1-3.42-1.62-8.1-1.62-12.82s.69-11.45,1.51-17.12l6.63.88Zm20.03,26.59c-1.27.07-2.61.11-3.92.11-4.5,0-12.65,0-12.65-6.76,0-2.61,1.07-4.86,2.82-7.11l5.05,1.66c-1.48,1.41-2.37,2.99-2.37,4.65,0,1.9,1.58,2.39,6.15,2.39,1.68,0,3.61-.11,5.09-.32l-.17,5.39Zm-15.64-23.38c3.68-.11,10.38-.6,14.36-1.3l.45,5.28c-4.05.63-10.58,1.09-14.64,1.16l-.17-5.14Z"/><path class="cls-5" d="m411.28,106.44c-2.2.61-4.62,1.12-7.41,1.45-.05,1.83-.09,3.56-.09,5.2,2.88-.8,5.85-1.27,8-1.27,7.36,0,13.54,3.7,13.54,11.72,0,7.08-3.75,12.09-11.98,12.09-3.02,0-5.9-1.22-8.32-3.98,1.14-1.5,2.47-3.75,3.38-5.48,1.42,1.73,3.16,2.86,5.03,2.86,3.16,0,4.85-2.25,4.85-5.48s-2.42-5.62-6.68-5.62c-2.29,0-5.12.47-7.82,1.27v8.77c0,4.36-2.74,8.39-8.92,8.39-3.84,0-8.87-2.11-8.87-8.34,0-3.89,3.02-8.72,11.16-12.42v-7.12c-2.88.14-6.13.19-9.69.19l-.14-6.8c3.66,0,6.91-.05,9.83-.14v-7.59l8.46.19c0,.52-.46,1.03-1.19,1.12-.14,1.83-.23,3.7-.32,5.62,2.29-.38,4.44-.89,6.4-1.64l.78,7.03Zm-14.13,15.61c-2.06,1.36-4.85,3.23-4.85,5.81,0,1.64.87,2.48,2.33,2.48,1.65,0,2.56-.84,2.56-2.72,0-1.08,0-3.33-.05-5.58Zm25.66-11.58c-2.56-2.34-6.58-4.59-10.24-6l3.38-5.86c3.98,1.27,8.09,3.52,10.7,5.77l-3.84,6.09Z"/><path class="cls-5" d="m434.93,100.11c2.74-.09,6.86-.09,10.47-.19,2.06-.09,4.94-.19,7.77-.28,0-.05-.09-3.94-.27-6.23l8.92.42c-.05.38-.55.94-1.28,1.08-.05.66,0,3.84,0,4.59,6.17-.19,12.21-.33,14.27-.38v6.66c-1.46-.05-3.57-.09-5.99-.09s-5.26.05-8.19.14c.04,1.27.23,7.03.23,7.73.73,2.11.73,4.59.73,5.58,0,2.53-.32,5.2-1.19,6.94-2.19,4.55-6.45,8.91-12.8,11.2-1.19-1.69-3.57-4.22-5.21-5.58,3.98-1.31,7.64-3.09,9.47-5.25-.37.09-1.1.14-1.42.14-4.07,0-8.37-3.28-8.37-8.67-.04-5.53,4.39-9.23,9.1-9.23.78,0,1.51.09,2.33.33,0-.42-.09-2.58-.09-3.05-4.07.09-16.97.56-18.29.61l-.18-6.47Zm19.44,17.58c0-1.97-.69-3.52-2.88-3.52-1.65.05-3.16,1.22-3.2,3.66,0,1.97,1.51,3.38,3.06,3.38,1.92,0,3.02-1.45,3.02-3.52Z"/><path class="cls-5" d="m482.04,100.11c2.74-.09,6.86-.09,10.47-.19,2.06-.09,4.94-.19,7.77-.28,0-.05-.09-3.94-.27-6.23l8.92.42c-.05.38-.55.94-1.28,1.08-.05.66,0,3.84,0,4.59,6.17-.19,12.21-.33,14.27-.38v6.66c-1.46-.05-3.57-.09-5.99-.09s-5.26.05-8.19.14c.04,1.27.23,7.03.23,7.73.73,2.11.73,4.59.73,5.58,0,2.53-.32,5.2-1.19,6.94-2.19,4.55-6.45,8.91-12.8,11.2-1.19-1.69-3.57-4.22-5.21-5.58,3.98-1.31,7.64-3.09,9.47-5.25-.37.09-1.1.14-1.42.14-4.07,0-8.37-3.28-8.37-8.67-.04-5.53,4.39-9.23,9.1-9.23.78,0,1.51.09,2.33.33,0-.42-.09-2.58-.09-3.05-4.07.09-16.97.56-18.29.61l-.18-6.47Zm19.44,17.58c0-1.97-.69-3.52-2.88-3.52-1.65.05-3.16,1.22-3.2,3.66,0,1.97,1.51,3.38,3.06,3.38,1.92,0,3.02-1.45,3.02-3.52Z"/><path class="cls-5" d="m562.44,96.17c-.18.52-.59.7-1.1.75-.55,2.86-1.33,5.86-2.01,8.39,5.99,2.16,10.24,7.12,10.24,15.05,0,8.44-5.26,13.73-16.51,15.7-.91-1.97-2.19-4.45-3.29-6.09,7.87-1.31,12.62-3.75,12.62-9.42,0-4.12-2.06-7.08-5.12-8.67-1.92,5.2-4.12,9.47-6.54,12.75.41.47.92.89,1.37,1.31l-4.71,4.97c-.46-.42-.92-.84-1.37-1.36-2.88,2.3-5.95,3.42-8.96,3.42-5.08,0-8.23-4.12-8.23-9.7,0-.47,0-.89.05-1.36.59-6.38,3.66-10.69,7.64-13.5-.87-3.47-1.56-7.12-2.1-10.83l8-.28c-.04.42-.32.94-.96,1.12.23,2.34.59,4.69,1.01,7.03,2.7-1.17,5.62-1.59,8.55-1.59.46,0,.87,0,1.19.05.64-2.91,1.14-6.28,1.51-9.75l8.73,2.02Zm-20.17,28.12c-1.51-2.67-2.79-5.77-3.89-9.19-2.93,3-3.2,6.8-3.2,7.59,0,2.16,1.05,3.66,2.56,3.66,1.69,0,3.2-.94,4.53-2.06Zm4.44-5.48c1.33-2.25,2.61-5.06,3.75-8.44-.27-.05-.64-.09-.96-.09-1.97,0-3.93.42-5.62,1.36.73,2.53,1.65,4.97,2.83,7.17Z"/><path class="cls-5" d="m602.27,105.32c-.18.42-.78.8-1.46.8-2.01,16.73-6.49,24.38-14.45,24.38-5.53,0-9.24-4.45-9.24-12.75,0-12.33,9.7-20.81,21.17-20.81,12.85,0,19.94,7.5,19.94,18.14s-5.21,16.83-16.97,20.06c-1.05-1.73-2.56-4.08-4.48-6,10.38-2.11,13.99-7.17,13.99-13.92,0-7.5-5.26-11.67-12.62-11.67-.96,0-1.83.09-2.74.23l6.86,1.55Zm-8.64-1.08c-5.85,1.92-9.65,7.22-9.65,13.22,0,3.42.69,6,2.61,6,3.93,0,6.45-9.19,7.04-19.22Z"/></g></g><rect class="cls-4" x="7.82" y="145" width="239" height="5"/><rect class="cls-3" x="2.82" y="145" width="110" height="5"/><g><path class="cls-2" d="m262.83,20.3c-8.62-2.38-10.54-4.31-12.92-12.92-2.38,8.62-4.31,10.54-12.92,12.92,8.62,2.38,10.54,4.31,12.92,12.92,2.38-8.62,4.31-10.54,12.92-12.92Z"/><path class="cls-2" d="m251.29,1.38c0,.76-.62,1.38-1.38,1.38s-1.38-.62-1.38-1.38.62-1.38,1.38-1.38,1.38.62,1.38,1.38Z"/><path class="cls-2" d="m251.29,39.22c0,.76-.62,1.38-1.38,1.38s-1.38-.62-1.38-1.38.62-1.38,1.38-1.38,1.38.62,1.38,1.38Z"/><path class="cls-2" d="m232.38,21.01c0,.76-.62,1.38-1.38,1.38s-1.38-.62-1.38-1.38.62-1.38,1.38-1.38,1.38.62,1.38,1.38Z"/><path class="cls-2" d="m270.21,20.3c0,.76-.62,1.38-1.38,1.38s-1.38-.62-1.38-1.38.62-1.38,1.38-1.38,1.38.62,1.38,1.38Z"/></g></g></g></svg>