<svg xmlns="http://www.w3.org/2000/svg" width="512" height="512" style="shape-rendering:geometricPrecision;text-rendering:geometricPrecision;image-rendering:optimizeQuality;fill-rule:evenodd;clip-rule:evenodd"><path style="opacity:.985" fill="#323332" d="M133.5 93.5c45.676-5.612 84.343 7.888 116 40.5a2660.636 2660.636 0 0 1-39 48.5c-11.756-11.715-25.756-19.548-42-23.5-32.297-3.935-56.464 8.232-72.5 36.5-9.275 18.54-13.775 38.206-13.5 59-.773 26.588 6.06 50.921 20.5 73 21.002 23.293 46.502 30.127 76.5 20.5 13.188-6.026 24.854-14.192 35-24.5a1386.014 1386.014 0 0 1 40 48c-32.033 35.575-72.033 50.908-120 46-64.275-9.115-105.442-44.782-123.5-107-10.24-43.064-7.906-85.398 7-127 22.34-50.851 60.84-80.851 115.5-90Z"/><path style="opacity:.99" fill="#04d1ef" d="M257.5 98.5c26.009-.333 52.009 0 78 1a16777.643 16777.643 0 0 1 79.5 154l28 64a14338.476 14338.476 0 0 0-8-85c-.5-44.665-.667-89.332-.5-134h72v313c-26.009.333-52.009 0-78-1l-79.5-155a3746.508 3746.508 0 0 0-28-63 8123.142 8123.142 0 0 0 8 90c.5 42.999.667 85.999.5 129h-72v-313Z"/></svg>