<?xml version="1.0" encoding="UTF-8"?><svg id="Layer_2" xmlns="http://www.w3.org/2000/svg" viewBox="0 0 232.73 313.45"><defs><style>.cls-1{fill:#f8b62d;}.cls-2{fill:#e8a421;}.cls-3{fill:#fff;}.cls-4{fill:#231916;}</style></defs><g id="_ÉåÉCÉÑÅ__1"><g><g><path class="cls-3" d="M110.52,204s4.07-5.45,3.85-13.97l.3-.81c6.42,2.55,13.46,3.94,20.99,3.94,7.03,0,13.49-1.22,19.37-3.46l.13,.33c-.22,8.52,3.85,13.97,3.85,13.97l.6,.53c-6.27,9.92-21.97,30.05-24.58,30.03-2.63-.01-18.49-20.63-24.58-30.52l.07-.04Z"/><path class="cls-3" d="M58.86,118.03c-.63-6.15,1.46-11.32,4.93-13.36,2.41-1.42,5.49-1.33,8.78,.99h.26c.16,8.92,.81,17.04,1.31,22.76,.12,1.33,.26,2.66,.44,3.97l-.71,.09c-7.49,0-13.88-3.4-15.01-14.45Z"/><path class="cls-3" d="M196.88,105.68c.26,8.95,.27,17.37-.53,22.74-.2,1.32-.42,2.64-.66,3.94-4.91,26.5-18.77,48.99-40.66,57.34-5.88,2.24-12.34,3.46-19.37,3.46-7.53,0-14.57-1.39-20.99-3.94-21.85-8.66-36.65-30.68-40.09-56.83-.18-1.31-.32-2.64-.44-3.97-.5-5.72-1.15-13.84-1.31-22.77-.08-3.98-.06-8.13,.12-12.3,23.67-6.63,45.32-22.97,53.02-47.44,1.72-5.46,23.14-4.34,24.49,1.01,6.83,27.04,24.1,40.39,45.86,44.43v.02c.2,4.67,.41,9.57,.56,14.31Z"/><path class="cls-4" d="M63.79,104.67c-3.2,.72-9.16,1.09-15.97-3.2,23.42-18.6,5.8-41.61,19.63-67.66C85.02,.74,121.67-7.04,144.05,17.04c11.58-16.53,45.99-11.42,55.51,15.99,10.8,31.08-2.41,43.75,21.8,66.15,0,0-6.6,6.9-15.9,5.04-2.25-.91-4.96-.58-7.84,1.44l-.74,.02c-.15-4.74-.36-9.64-.56-14.31v-.02c-21.76-4.04-39.03-17.39-45.86-44.43-1.35-5.35-22.77-6.47-24.49-1.01-7.7,24.47-29.35,40.81-53.02,47.44-.18,4.17-.2,8.32-.12,12.3h-.26c-3.29-2.31-6.37-2.4-8.78-.98Z"/><path class="cls-3" d="M205.46,104.22c4.02,1.6,6.55,7.12,5.87,13.81-1.13,11.05-7.52,14.45-15.01,14.45l-.63-.12c.24-1.3,.46-2.62,.66-3.94,.8-5.37,.79-13.79,.53-22.74l.74-.02c2.88-2.02,5.59-2.35,7.84-1.44Z"/><path class="cls-2" d="M229.73,277.16H39.69c2.25-12.68,7.56-33.44,16.25-46.5,9.84-14.79,32.44-29.23,53.06-29.12,.38,.72,.87,1.56,1.45,2.5,6.09,9.89,21.95,30.51,24.58,30.52,2.61,.02,18.31-20.11,24.58-30.03,.65-1.02,1.2-1.94,1.62-2.71,20.61,.11,43.81,14.41,52.74,29.68,9.27,15.87,13.66,33.03,15.76,45.66Z"/></g><path class="cls-4" d="M135.67,196.15c-17.36,0-32.83-6.91-44.74-19.97-11.16-12.24-18.18-29.11-19.77-47.51-.54-6.26-1.81-20.92-1.19-35.46,.07-1.66,1.49-2.95,3.12-2.87,1.66,.07,2.94,1.47,2.87,3.12-.6,14.15,.65,28.54,1.18,34.69,1.48,17.09,7.95,32.71,18.23,43.98,10.74,11.78,24.68,18.01,40.31,18.01,23.4,0,50.85-16.33,57.71-62.18,1.16-7.7,.54-22.36,0-35.29l-.05-1.19c-.07-1.66,1.22-3.05,2.87-3.12,1.63-.09,3.05,1.22,3.12,2.87l.05,1.19c.55,13.2,1.18,28.16-.06,36.43-2.84,18.96-9.79,35.27-20.11,47.17-11.42,13.17-26.48,20.12-43.54,20.12Z"/><path class="cls-4" d="M196.33,135.48c-1.66,0-3-1.34-3-3s1.34-3,3-3c7.38,0,11.2-3.73,12.02-11.75,.48-4.69-.95-9-3.47-10.48-1.56-.91-3.42-.62-5.53,.86-1.36,.95-3.23,.62-4.18-.73-.95-1.36-.62-3.23,.73-4.18,4.03-2.83,8.4-3.24,12.01-1.13,4.62,2.71,7.14,9.09,6.41,16.26-1.13,11.05-7.52,17.14-17.99,17.14Z"/><path class="cls-4" d="M73.87,135.48c-10.47,0-16.86-6.09-17.99-17.14-.73-7.17,1.78-13.55,6.41-16.26,3.61-2.11,7.98-1.7,12.01,1.13,1.36,.95,1.68,2.82,.73,4.18-.95,1.36-2.82,1.68-4.18,.73-2.11-1.48-3.97-1.77-5.53-.86-2.52,1.48-3.95,5.79-3.47,10.48,.82,8.02,4.64,11.75,12.02,11.75,1.66,0,3,1.34,3,3s-1.34,3-3,3Z"/><path class="cls-4" d="M107.97,112.53c-5.13,0-5.13-10.36,0-10.36s5.13,10.36,0,10.36Z"/><path class="cls-4" d="M162.05,112.53c-5.13,0-5.13-10.36,0-10.36s5.13,10.36,0,10.36Z"/><path class="cls-4" d="M107.97,125.56c-9.37,0-18.86-6.26-18.86-18.22,0-4.76,1.68-9.2,4.74-12.51,3.45-3.73,8.33-5.71,14.12-5.71,9.37,0,18.86,6.26,18.86,18.21,0,4.76-1.68,9.2-4.74,12.51-3.45,3.73-8.33,5.71-14.12,5.71Zm0-33.43c-10.9,0-15.86,7.89-15.86,15.21s4.96,15.22,15.86,15.22c4.93,0,9.05-1.64,11.92-4.74,2.54-2.75,3.94-6.47,3.94-10.47,0-7.33-4.96-15.21-15.86-15.21Z"/><path class="cls-4" d="M162.05,125.56c-9.37,0-18.86-6.26-18.86-18.22,0-4.76,1.68-9.2,4.74-12.51,3.45-3.73,8.33-5.71,14.12-5.71,9.37,0,18.86,6.26,18.86,18.21,0,4.76-1.68,9.2-4.74,12.51-3.45,3.73-8.33,5.71-14.12,5.71Zm0-33.43c-10.9,0-15.86,7.89-15.86,15.21s4.96,15.22,15.86,15.22c4.93,0,9.05-1.64,11.92-4.74,2.54-2.75,3.94-6.47,3.94-10.47,0-7.33-4.96-15.21-15.86-15.21Z"/><path class="cls-4" d="M66.31,97.94c-1.4,0-2.65-.99-2.94-2.41-.33-1.62,.73-3.21,2.35-3.53,21.99-4.42,48.62-19.09,57.39-46.99,1.71-5.45,10.84-5.78,14.69-5.67,3.27,.09,14.06,.87,15.57,6.84,6.53,25.84,23.17,40.34,49.47,43.09,1.65,.17,2.84,1.65,2.67,3.29-.17,1.65-1.66,2.85-3.29,2.67-28.62-2.99-47.51-19.41-54.64-47.48-.61-.77-4.14-2.26-9.97-2.42-5.17-.15-8.24,.92-8.8,1.56-8.02,25.39-31.73,44.92-61.91,50.99-.2,.04-.4,.06-.59,.06Z"/><path class="cls-4" d="M59.69,108.11c-3.69,0-8.38-.91-13.46-4.11-.82-.52-1.34-1.4-1.4-2.38-.05-.97,.37-1.91,1.13-2.51,12.15-9.65,12.23-20.6,12.33-33.28,.08-10.07,.17-21.49,6.51-33.43C74.41,14.33,89.83,2.66,107.13,.39c13.6-1.78,26.52,2.54,36.73,12.19,5.98-6.16,15.53-9.05,25.83-7.62,11.83,1.65,26.64,9.63,32.7,27.08,4.26,12.27,4.89,21.65,5.45,29.93,.86,12.76,1.48,21.97,15.55,35,.59,.55,.94,1.31,.96,2.11,.02,.8-.28,1.58-.83,2.17-.32,.34-8.01,8.22-18.96,5.85-1.62-.35-2.65-1.95-2.3-3.57,.35-1.62,1.95-2.65,3.57-2.3,4.72,1.02,8.64-.74,10.99-2.26-13.42-13.49-14.14-24.25-14.97-36.59-.53-7.9-1.13-16.86-5.13-28.37-5.17-14.9-17.79-21.7-27.86-23.1-9.47-1.32-18.04,1.69-22.35,7.85-.52,.74-1.35,1.21-2.25,1.27-.92,.06-1.79-.29-2.4-.95-9.18-9.88-21.25-14.4-33.95-12.74-15.35,2.01-29.13,12.54-37.81,28.88-5.65,10.64-5.73,20.82-5.81,30.66-.09,11.91-.19,24.18-11.19,34.93,6.74,2.67,11.67,.45,11.91,.34,1.49-.7,3.28-.06,3.99,1.42,.71,1.49,.1,3.26-1.38,3.98-.22,.11-3.28,1.55-7.94,1.55Z"/><path class="cls-4" d="M136.56,135.72c-.24,0-.48-.06-.71-.18l-10.01-5.37c-.37-.2-.63-.54-.74-.94-.11-.4-.04-.83,.18-1.18l9.31-14.84c.44-.7,1.37-.91,2.07-.47,.7,.44,.91,1.37,.47,2.07l-8.46,13.48,8.6,4.61c.73,.39,1,1.3,.61,2.03-.27,.5-.79,.79-1.32,.79Z"/><path class="cls-4" d="M146.14,101.82h-22.26c-.83,0-1.5-.67-1.5-1.5s.67-1.5,1.5-1.5h22.26c.83,0,1.5,.67,1.5,1.5s-.67,1.5-1.5,1.5Z"/><path class="cls-4" d="M196.33,105.23c-.09,0-.18,0-.28-.03l-18.36-3.41c-.81-.15-1.35-.93-1.2-1.75s.93-1.36,1.75-1.2l18.36,3.41c.81,.15,1.35,.93,1.2,1.75-.13,.72-.76,1.23-1.47,1.23Z"/><path class="cls-4" d="M72.79,106.17c-.71,0-1.34-.5-1.47-1.23-.15-.81,.39-1.6,1.2-1.75l18.36-3.41c.82-.16,1.6,.39,1.75,1.2,.15,.81-.39,1.6-1.2,1.75l-18.36,3.41c-.09,.02-.19,.03-.28,.03Z"/><path class="cls-4" d="M133.71,55.43c-1.66,0-3-1.34-3-3v-9.44c0-1.66,1.34-3,3-3s3,1.34,3,3v9.44c0,1.66-1.34,3-3,3Z"/><path class="cls-4" d="M142.15,56.13c-.09,0-.19,0-.28-.01-1.65-.15-2.86-1.62-2.71-3.27l.95-10.14c.15-1.65,1.62-2.87,3.27-2.71,1.65,.15,2.86,1.62,2.71,3.27l-.95,10.14c-.15,1.55-1.45,2.72-2.98,2.72Z"/><path class="cls-4" d="M110.52,207c-.62,0-1.25-.19-1.79-.6-1.32-.99-1.6-2.86-.62-4.19,.08-.11,3.45-4.87,3.27-12.11-.04-1.66,1.27-3.03,2.92-3.07,1.63-.05,3.03,1.27,3.07,2.92,.24,9.45-4.26,15.58-4.45,15.84-.59,.79-1.49,1.21-2.41,1.21Z"/><path class="cls-4" d="M159,206.99c-.91,0-1.81-.41-2.4-1.2-.19-.26-4.69-6.39-4.45-15.84,.04-1.66,1.42-2.97,3.08-2.92,1.66,.04,2.96,1.42,2.92,3.08-.19,7.29,3.23,12.06,3.27,12.11,.97,1.33,.69,3.21-.64,4.19-.54,.4-1.16,.59-1.78,.59Z"/><path class="cls-4" d="M39.7,280.16c-.17,0-.35-.02-.53-.05-1.63-.29-2.72-1.85-2.43-3.48,1.27-7.2,6.25-31.93,16.71-47.64,9.99-15.01,33.37-30.46,55.32-30.46,.08,0,.17,0,.25,0,1.1,0,2.12,.62,2.63,1.59,3.93,7.4,18.74,26.83,23.41,30.95,4.69-4.06,19.4-23.11,23.54-30.7,.53-.96,1.54-1.56,2.63-1.56h.02c20.52,.11,45.34,14.09,55.31,31.17,9.67,16.56,14.11,34.52,16.13,46.68,.27,1.63-.83,3.18-2.47,3.45-1.64,.28-3.18-.83-3.45-2.47-1.94-11.66-6.18-28.87-15.39-44.64-7.68-13.15-28.71-27.27-48.45-28.15-2.65,4.37-7.74,11.53-13.05,18.28-11.35,14.44-13.35,14.41-14.86,14.42-1.48,0-3.51-.02-14.8-14.57-4.55-5.87-10.04-13.49-12.96-18.43-19.49,.68-39.94,14.41-48.82,27.76-7.8,11.72-13.27,31.11-15.79,45.36-.26,1.46-1.52,2.48-2.95,2.48Z"/><g><path class="cls-3" d="M145.5,229.44c12.33,9.53,9.33,38.35,4.81,47.5-1.92,3.88-8.07,5.95-15.58,6.26,8.48-1.95,9.55-9.27,4.02-12.29,7.17-2.47,7.29-8.7,.77-11.87l-.06-.14c6.41-2.84,6.35-9.21,.18-12.28,9.29-3.11,7.42-12.61-4.78-13.37-7.81-4.99-7.09-22.18,.11-22.18s6.96,15.62,10.53,18.37Z"/><path class="cls-3" d="M115.64,259.11c-.55-.17-1.06-.38-1.53-.61-3.88-1.92-2.44-12.3,1.68-12.59l.57-.54c.21,.16,.42,.29,.66,.41,3.81,1.9,8.81,1.96,16.33,1.83,2.48-.05,4.58-.4,6.29-.99,6.17,3.07,6.23,9.44-.18,12.28-1.88,.83-4.33,1.36-7.34,1.42-6.6,.12-12.55,.08-16.48-1.21Z"/><path class="cls-3" d="M138.75,270.91c-1.78,.62-3.98,1-6.63,1.05-6.45,.12-11.07,.09-14.66-1.12-.59-.2-1.16-.43-1.7-.7-3.87-1.91-3.9-9.73-.12-11.03,3.93,1.29,9.88,1.33,16.48,1.21,3.01-.06,5.46-.59,7.34-1.42l.06,.14c6.52,3.17,6.4,9.4-.77,11.87Z"/><path class="cls-3" d="M139.64,246.62c-1.71,.59-3.81,.94-6.29,.99-7.52,.13-12.52,.07-16.33-1.83-.24-.12-.45-.25-.66-.41-3.16-2.4-2.57-9.15,.66-11.33,3.83-2.59,8.77-1.07,17.03-.83,.28,0,.55,.02,.81,.04,12.2,.76,14.07,10.26,4.78,13.37Z"/><path class="cls-3" d="M134.73,283.2c-.97,.23-2.05,.38-3.22,.45-6.78,.4-10.16,.96-13.67-.48-3.57-1.45-4.58-10.67-.49-12.02l.11-.31c3.59,1.21,8.21,1.24,14.66,1.12,2.65-.05,4.85-.43,6.63-1.05,5.53,3.02,4.46,10.34-4.02,12.29Z"/></g><g><path class="cls-4" d="M129.36,249.16c-5.51,0-9.64-.35-13.01-2.02-2.07-1.02-3.36-3.26-3.56-6.14-.19-2.82,.78-6.44,3.38-8.2,3.21-2.17,6.82-1.87,11.83-1.46,1.79,.15,3.83,.31,6.08,.38h0c8.9,.26,12.93,4.7,12.91,8.71-.02,4.2-4.24,8.51-13.62,8.69-1.42,.03-2.75,.04-4.02,.04Zm-6.38-15.11c-2.08,0-3.73,.29-5.13,1.24-1.35,.91-2.22,3.23-2.07,5.51,.06,.84,.35,2.88,1.9,3.65,3.53,1.75,8.49,1.8,15.64,1.67,6.99-.13,10.66-2.96,10.68-5.7,.01-2.69-3.42-5.51-10-5.7h0c-2.33-.07-4.41-.24-6.24-.39-1.82-.15-3.4-.28-4.78-.28Z"/><path class="cls-4" d="M127.96,261.87c-5.86,0-11.14-.35-14.52-2.03-2.93-1.45-3.53-5.83-2.84-9.28,.72-3.63,2.67-5.98,5.08-6.15,.81-.07,1.54,.57,1.6,1.39,.06,.83-.57,1.54-1.39,1.6-.94,.07-1.93,1.64-2.34,3.74-.54,2.71,.02,5.4,1.23,6.01,3.56,1.77,10.23,1.8,17.32,1.67,7-.13,10.08-2.89,10.59-5.21,.47-2.14-.99-4.33-3.82-5.7-.75-.36-1.06-1.26-.7-2s1.26-1.06,2-.7c4.08,1.98,6.21,5.52,5.44,9.04-.78,3.55-4.73,7.41-13.46,7.57-1.42,.03-2.82,.04-4.19,.04Z"/><path class="cls-4" d="M128.12,273.51c-5.53,0-9.66-.35-13.03-2.03-2.86-1.42-3.94-4.97-3.73-7.86,.21-2.95,1.68-5.23,3.84-5.94,.79-.26,1.63,.17,1.9,.95,.26,.79-.17,1.63-.95,1.9-.97,.32-1.68,1.62-1.79,3.31-.13,1.89,.54,4.2,2.07,4.96,3.54,1.75,8.5,1.8,15.67,1.67,7.08-.13,10.13-2.67,10.6-4.8,.42-1.9-1.05-3.92-3.83-5.27-.75-.36-1.06-1.26-.7-2,.36-.75,1.26-1.06,2-.7,4.1,1.99,6.19,5.29,5.46,8.61-.74,3.35-4.67,6.99-13.48,7.16-1.42,.03-2.76,.04-4.03,.04Z"/><path class="cls-4" d="M123.28,285.6c-2.23,0-4.08-.25-6.02-1.04-2.83-1.16-4.19-5.21-4.07-8.62,.11-3.17,1.48-5.5,3.68-6.22,.79-.26,1.63,.17,1.89,.95,.26,.79-.17,1.63-.95,1.89-1.12,.37-1.57,2.04-1.62,3.47-.09,2.54,.94,5.22,2.21,5.74,2.61,1.07,5.2,.89,9.9,.57,.96-.06,1.99-.13,3.11-.2,6.01-.35,8.69-3.04,9.16-5.25,.4-1.87-.63-3.7-2.69-4.77-.74-.38-1.02-1.29-.64-2.02,.38-.74,1.29-1.02,2.02-.64,3.26,1.7,4.93,4.86,4.24,8.06-.73,3.39-4.24,7.17-11.92,7.61-1.12,.07-2.14,.13-3.08,.2-2.02,.14-3.71,.25-5.22,.25Z"/><path class="cls-4" d="M134.59,284.72c-.8,0-1.47-.63-1.5-1.44-.03-.83,.61-1.53,1.44-1.56,7.5-.3,12.89-2.33,14.42-5.44,4.51-9.12,6.88-36.94-4.38-45.64-1.78-1.37-2.67-4.51-3.7-8.14-1.32-4.65-2.82-9.92-5.92-9.92-2.16,0-3.2,2.45-3.62,3.91-1.49,5.08-.07,12.7,4.33,15.51,.7,.45,.9,1.37,.46,2.07-.45,.7-1.38,.9-2.07,.46-5.6-3.58-7.41-12.65-5.59-18.88,1.13-3.85,3.5-6.06,6.5-6.06,5.37,0,7.27,6.71,8.8,12.1,.77,2.73,1.65,5.82,2.65,6.59,13.12,10.13,10.05,39.61,5.24,49.34-2.06,4.17-8.26,6.76-16.99,7.11-.02,0-.04,0-.06,0Z"/></g><path class="cls-3" d="M108.26,288.49c-1.37-1.6-2.47-3.23-2.95-4.64-1.75-5.08,2.86-7.54,6.65-4.58-2.32-4.1,.94-9.04,5.04-6.58,2.55,1.54,5.95,5.01,8.46,6.35,5.23,2.76,10.12,3.99,15.69,4.05,4.98,.06,13.7-1.14,10.14-8.81-.44-.97-4.32-5.12-4.71-8.45-.74-6.28,3.29-10.3,8.42-5.33,2.9,2.81,6.99,7.78,9.89,12.93,4.53,8.03,7.79,23.23-2.08,31.98-15.42,12-41.25,5.45-51.91-2.43-3.92-2.9-7.26-5.91-8.95-10.18-2.03-5.14,2.57-7.91,6.3-4.29Z"/><g><path class="cls-4" d="M137.3,303.97c-7.94,0-15.45-2.58-22.95-7.88-3.4-2.41-9-7.52-10.46-11.75-1.17-3.39,.07-5.79,1.62-6.89,2.04-1.46,5-1.2,7.37,.64,.65,.51,.77,1.45,.26,2.11-.51,.65-1.45,.77-2.11,.26-1.51-1.18-2.98-1.13-3.78-.57-.87,.62-1.06,1.92-.53,3.47,1.04,3,5.66,7.67,9.35,10.28,6.98,4.93,13.92,7.33,21.22,7.33h.02c.83,0,1.5,.67,1.5,1.5s-.67,1.5-1.5,1.5h-.02Z"/><path class="cls-4" d="M141.26,313.45c-12.47,0-24.89-4.58-31.25-9.29-3.79-2.81-7.56-6.06-9.45-10.82-1.18-2.98-.58-5.81,1.52-7.21,1.74-1.16,4.65-1.21,7.23,1.3,.59,.58,.61,1.53,.03,2.12-.58,.6-1.53,.61-2.12,.03-1.38-1.34-2.74-1.45-3.48-.96-.88,.58-1.03,2-.39,3.61,1.52,3.83,4.47,6.57,8.44,9.51,5.53,4.09,14.74,7.38,23.46,8.39,7.55,.87,18.31,.55,26.65-5.93,9.1-8.08,6.01-22.42,1.69-30.06-3-5.32-7.07-10.1-9.63-12.58-1.6-1.55-3.12-2.13-4.16-1.62-1.33,.66-2.05,3-1.73,5.7,.24,2.04,2.34,4.84,3.47,6.34,.63,.84,.94,1.26,1.12,1.64,1.27,2.75,1.29,5.11,.07,6.99-2.3,3.54-8.26,3.99-11.59,3.96-5.95-.08-11-1.38-16.38-4.23-1.47-.78-3.14-2.17-4.76-3.5-1.32-1.09-2.68-2.22-3.77-2.88-1.04-.62-1.96-.59-2.66,.09-.88,.86-1.29,2.71-.3,4.46,1.68,2.97,7.86,8.82,11.65,10.51,5.86,2.6,11.38,3.79,14.75,3.19,.82-.14,1.6,.4,1.74,1.21,.15,.82-.4,1.59-1.21,1.74-4,.71-10.01-.52-16.49-3.4-4.41-1.96-11.09-8.29-13.05-11.78-1.54-2.73-1.19-6.13,.83-8.08,1.68-1.64,4.1-1.83,6.3-.51,1.29,.78,2.74,1.98,4.14,3.14,1.5,1.24,3.05,2.53,4.25,3.16,4.93,2.62,9.56,3.81,15.01,3.88,3.52,0,7.75-.62,9.04-2.6,.63-.97,.53-2.35-.28-4.1-.08-.15-.47-.67-.79-1.1-1.39-1.85-3.71-4.96-4.05-7.79-.48-4.06,.85-7.49,3.38-8.74,1.32-.66,4.07-1.24,7.57,2.15,2.71,2.62,6.99,7.67,10.16,13.26,4.8,8.49,8.12,24.52-2.38,33.84-6.46,5.02-14.52,6.93-22.56,6.93Z"/></g><g><g><polygon class="cls-1" points="206.99 210.73 204.57 202.36 196.29 199.61 203.5 194.72 203.56 186 210.44 191.35 218.75 188.71 215.79 196.91 220.87 203.99 212.16 203.71 206.99 210.73"/><path class="cls-4" d="M206.99,212.23c-.09,0-.17,0-.26-.02-.56-.1-1.02-.51-1.18-1.06l-2.21-7.61-7.52-2.5c-.54-.18-.93-.65-1.01-1.22-.08-.57,.17-1.13,.64-1.45l6.56-4.45,.05-7.93c0-.57,.33-1.09,.84-1.34,.51-.25,1.12-.18,1.58,.17l6.26,4.86,7.55-2.4c.54-.17,1.14-.02,1.54,.39,.4,.41,.52,1.01,.33,1.55l-2.69,7.46,4.62,6.44c.33,.46,.37,1.08,.1,1.58-.27,.5-.81,.81-1.37,.79l-7.92-.25-4.7,6.38c-.29,.39-.74,.61-1.21,.61Zm-7.34-13.08l5.39,1.79c.47,.16,.83,.53,.97,1.01l1.58,5.45,3.36-4.57c.29-.4,.77-.63,1.26-.61l5.67,.18-3.31-4.61c-.29-.4-.36-.92-.19-1.38l1.92-5.34-5.41,1.72c-.47,.15-.99,.06-1.38-.25l-4.48-3.48-.04,5.67c0,.49-.25,.95-.66,1.23l-4.69,3.19Z"/></g><path class="cls-4" d="M177.32,237.84c-.21,0-.41-.04-.61-.13-.76-.34-1.09-1.23-.75-1.98,8.52-18.94,19.8-27.17,20.27-27.51,.67-.48,1.61-.33,2.09,.35s.33,1.61-.34,2.09c-.11,.08-11.12,8.15-19.29,26.3-.25,.56-.8,.88-1.37,.88Z"/></g><g><path class="cls-1" d="M25.76,143.07c10.48-7.7,25.31-5.35,33.1,5.26,5.33,7.24,6.01,16.46,2.57,24.03-1.6,3.53-4.09,6.69-7.42,9.14-3.33,2.45-7.09,3.88-10.94,4.36-8.25,1.02-16.85-2.38-22.17-9.62-7.8-10.61-5.63-25.46,4.85-33.17Z"/><path class="cls-3" d="M70.07,197.17c-1.6,1.8-3.69,3.34-5.88,4.33-4.03,1.81-8.45,1.78-11.02-1.71l-10.06-13.68-.03-.25c3.84-.47,7.61-1.91,10.94-4.36,3.33-2.45,5.82-5.61,7.42-9.14l.23,.1,10.06,13.68c2.57,3.49,1.28,7.72-1.65,11.03Z"/><path class="cls-4" d="M70.07,197.17c2.81,3.93,2.32,5.99,.73,7.16-1.59,1.17-3.7,1.03-6.61-2.83,2.2-.99,4.28-2.52,5.88-4.33Z"/></g><path class="cls-3" d="M48.58,186.16c-.53,0-1.05-.21-1.45-.62l-14.59-15.25c-.76-.8-.74-2.06,.06-2.83,.8-.76,2.06-.73,2.83,.06l14.59,15.25c.76,.8,.74,2.06-.06,2.83-.39,.37-.89,.55-1.38,.55Z"/><path class="cls-3" d="M58.17,179.11c-.71,0-1.39-.37-1.75-1.03l-10.21-18.48c-.53-.97-.18-2.18,.78-2.72s2.18-.18,2.72,.78l10.21,18.48c.53,.97,.18,2.18-.78,2.72-.31,.17-.64,.25-.96,.25Z"/><path class="cls-3" d="M38.2,171.76c-.13,0-.26-.01-.4-.04l-4.21-.85c-1.08-.22-1.78-1.27-1.57-2.36,.22-1.08,1.27-1.78,2.36-1.57l2.05,.42,.22-2.08c.06-.56,.35-1.07,.8-1.41,.45-.33,1.03-.46,1.58-.35l2.05,.42,.22-2.08c.06-.56,.35-1.07,.8-1.4s1.03-.46,1.58-.35l2.06,.41,.22-2.09c.12-1.1,1.08-1.89,2.2-1.78,1.1,.12,1.9,1.1,1.78,2.2l-.45,4.28c-.06,.56-.35,1.07-.8,1.4-.45,.33-1.03,.46-1.58,.35l-2.06-.41-.22,2.09c-.06,.56-.35,1.07-.8,1.4-.45,.33-1.03,.46-1.58,.35l-2.05-.42-.22,2.08c-.06,.56-.35,1.07-.8,1.41-.35,.25-.76,.39-1.18,.39Z"/><path class="cls-4" d="M40.2,187.53c-7.79,0-15.51-3.61-20.5-10.4-8.28-11.26-5.96-27.08,5.17-35.27,11.13-8.18,26.92-5.68,35.2,5.58h0c8.28,11.26,5.96,27.08-5.17,35.27-4.42,3.25-9.58,4.81-14.7,4.81Zm-.63-47.48c-4.51,0-9.04,1.38-12.93,4.23-9.8,7.21-11.83,21.14-4.53,31.07,7.3,9.93,21.21,12.15,31.01,4.94,9.8-7.21,11.83-21.14,4.53-31.07h0c-4.41-5.99-11.22-9.17-18.08-9.17Z"/><path class="cls-4" d="M59.12,204.18c-2.97,0-5.49-1.23-7.17-3.51l-10.05-13.67c-.49-.67-.35-1.61,.32-2.1,.67-.49,1.61-.35,2.1,.32l10.05,13.67c1.22,1.65,2.98,2.41,5.28,2.27,2.16-.14,4.64-1.14,6.81-2.73,3.89-2.86,6.81-7.65,4.05-11.4l-10.05-13.67c-.49-.67-.35-1.61,.32-2.1,.67-.49,1.61-.35,2.1,.32l10.05,13.67c2.79,3.8,2.52,10.3-4.69,15.6-2.66,1.95-5.64,3.13-8.4,3.31-.24,.02-.48,.02-.72,.02Z"/><path class="cls-4" d="M51.08,197.95c-.5,0-.94-.38-.99-.89-.06-.55,.33-1.04,.88-1.1,.13-.01,13.27-1.62,17.53-13.26,.19-.52,.76-.79,1.28-.6,.52,.19,.79,.76,.6,1.28-4.69,12.83-18.6,14.5-19.19,14.57-.04,0-.07,0-.11,0Z"/><path class="cls-4" d="M47.71,193.38c-.5,0-.94-.38-.99-.89-.06-.55,.33-1.04,.88-1.1,.13-.01,13.27-1.62,17.53-13.27,.19-.52,.76-.78,1.28-.6,.52,.19,.79,.76,.6,1.28-4.69,12.83-18.6,14.5-19.19,14.57-.04,0-.07,0-.11,0Z"/><path class="cls-4" d="M68.98,205.97c-.47,0-.94-.09-1.41-.26-1.42-.52-2.85-1.79-4.4-3.89-.33-.45-.23-1.07,.21-1.4,.45-.33,1.07-.23,1.4,.21,1.28,1.75,2.45,2.82,3.47,3.19,.71,.26,1.31,.16,1.95-.31,.64-.47,.91-1.02,.88-1.77-.05-1.08-.73-2.52-2.01-4.26-.33-.45-.23-1.07,.21-1.4,.45-.33,1.07-.23,1.4,.21,1.54,2.1,2.33,3.85,2.4,5.36,.07,1.41-.52,2.62-1.69,3.48-.75,.56-1.57,.84-2.41,.84Z"/><path class="cls-1" d="M26.83,128.49c0,2.03-1.64,3.67-3.67,3.67s-3.67-1.64-3.67-3.67,1.64-3.67,3.67-3.67,3.67,1.64,3.67,3.67Z"/><path class="cls-1" d="M46.77,126.16c0,2.03-1.64,3.67-3.67,3.67s-3.67-1.64-3.67-3.67,1.64-3.67,3.67-3.67,3.67,1.64,3.67,3.67Z"/><path class="cls-1" d="M12.17,139.78c0,2.03-1.64,3.67-3.67,3.67s-3.67-1.64-3.67-3.67,1.64-3.67,3.67-3.67,3.67,1.64,3.67,3.67Z"/><path class="cls-1" d="M7.33,157.42c0,2.03-1.64,3.67-3.67,3.67s-3.67-1.64-3.67-3.67,1.64-3.67,3.67-3.67,3.67,1.64,3.67,3.67Z"/><path class="cls-4" d="M135.01,172.86c-6.22,0-9.47-5.98-9.47-11.88,0-3.02,.8-5.86,2.25-7.99,1.72-2.52,4.28-3.9,7.22-3.9,6.22,0,9.47,5.98,9.47,11.89,0,3.02-.8,5.85-2.25,7.98-1.72,2.52-4.28,3.9-7.22,3.9Zm0-20.77c-4.45,0-6.47,4.61-6.47,8.89s2.02,8.88,6.47,8.88c1.97,0,3.57-.87,4.74-2.59,1.1-1.61,1.73-3.91,1.73-6.29,0-4.28-2.02-8.89-6.47-8.89Z"/></g></g></svg>