<?xml version="1.0" encoding="UTF-8"?><svg id="Layer_2" xmlns="http://www.w3.org/2000/svg" xmlns:xlink="http://www.w3.org/1999/xlink" viewBox="0 0 522.58 201.38"><defs><style>.cls-1{fill:none;}.cls-2{clip-path:url(#clippath);}.cls-3{fill:#f7f7f7;}.cls-4{fill:#00aeeb;}.cls-5{fill:#008bd5;}.cls-6{fill:#eeeeef;}.cls-7{fill:#f6c6c5;}.cls-8{fill:#fff;}.cls-9{fill:#ffc952;}.cls-10{fill:#fce5ca;}.cls-11{fill:#73625a;}.cls-12{fill:#333;}.cls-13{fill:#aabce1;}.cls-14{fill:#e2b647;}.cls-15{fill:#3f99d5;}.cls-16{fill:#3fa9f5;}.cls-17{fill:#88ceda;}.cls-18{fill:#5a453d;}</style><clipPath id="clippath"><rect class="cls-14" x="273.16" y="27.68" width="23.12" height="28.44"/></clipPath></defs><g id="PC"><g><g><g><path class="cls-16" d="m34.53,123.12c-.09.42-.55.8-1.33.89-1.55,6.28-3.52,11.39-16.19,14.39-.59-1.78-2.29-4.59-3.66-6.05,11.02-1.92,12.21-5.25,12.94-10.17l8.23.94Zm9.74,6.84c0,1.59.18,1.78,1.6,1.78h3.34c1.28,0,1.55-.8,1.74-5.67,1.37,1.12,4.3,2.25,6.13,2.67-.69,7.31-2.42,9.33-7.23,9.33h-5.08c-6.04,0-7.45-2.06-7.45-8.02v-8.25h-18.79v-11.34l-.55.33c-.91-1.64-3.02-4.22-4.48-5.34,6.17-3.33,10.24-7.83,12.53-12.05l8.05,1.55c-.14.52-.59.84-1.33.84l-.46.7h7.96l1.01-.33,5.4,3.19c-.23.38-.64.66-1.19.75-.82,1.36-2.01,3.09-3.34,4.88h11.34v16.83h-9.19v8.16Zm-19.07-18.98v4.83h7v-4.83h-7Zm8.96-6c.73-.94,1.46-1.97,2.1-3h-8c-.87,1.03-1.83,2.02-2.83,3h8.73Zm12.21,10.83v-4.83h-7.73v4.83h7.73Z"/><path class="cls-16" d="m83.29,101.46v5.3h-19.16v-5.3h19.16Zm-1.97,19.78v14.62h-9.38v1.64h-5.72v-16.27h15.09Zm-14.91-13.08h15.05v5.06h-15.05v-5.06Zm0,11.53v-5.06h15.05v5.06h-15.05Zm15.09-24.66v5.06h-14.82v-5.06h14.82Zm-5.99,31.5h-3.57v3.98h3.57v-3.98Zm32.1-11.06v6.47h-8.69v16.27h-6.72v-16.27h-9.1v-6.47h9.1v-9.38h-1.42c-1.14,3.14-2.47,6-3.93,8.2-1.28-1.08-3.84-2.72-5.4-3.52,2.7-3.89,4.85-10.83,5.9-17.3l7.55,1.83c-.14.42-.59.7-1.28.7-.27,1.27-.59,2.58-.92,3.89h13.58v6.19h-7.36v9.38h8.69Z"/><path class="cls-16" d="m114.43,106.95v-5.3h17.33v5.3h-17.33Zm16.05,15v14.62h-8.46v1.64h-5.53v-16.27h13.99Zm-.41-13.41v5.06h-13.4v-5.06h13.4Zm-13.4,11.72v-5.06h13.4v5.06h-13.4Zm13.45-25.22v5.06h-13.17v-5.06h13.17Zm-5.26,32.2h-2.84v3.98h2.84v-3.98Zm24.65,2.95h8.41v6.42h-25.93v-6.42h2.47v-21.56l7.45.42c-.04.47-.41.8-1.28.94v20.2h2.33v-27.94h-9.83v-6.42h23.87v6.42h-7.5v10.12h7.23v6.42h-7.23v11.39Z"/><path class="cls-12" d="m192.68,107.09c-3.25,1.08-7.59,1.78-11.8,2.16-1.74,9.38-4.57,20.02-7.64,27.75l-7.23-2.58c3.57-7.36,6.17-15.89,7.64-24.8-.64.05-3.7.05-4.48.05-.96,0-1.88,0-2.61-.05l-.14-6.75c1.46.09,3.84.14,5.99.14.69,0,1.42-.05,2.15-.05.32-2.58.59-5.77.78-8.44l8.78.75c-.09.56-.55,1.03-1.28,1.17-.18,1.55-.55,4.08-.82,5.81,3.25-.47,6.59-1.17,9.38-2.25l1.28,7.08Zm12.21,29.02c-1.55.09-3.16.14-4.8.14-3.52,0-7.04-.23-9.33-.75-4.48-.98-6.54-4.03-6.49-7.45.05-2.3,1.05-4.83,2.93-6.98l5.95,2.16c-1.33,1.31-1.97,2.58-1.97,3.61,0,2.06,1.88,2.53,7.36,2.53,2.15,0,4.44-.14,6.27-.33l.09,7.08Zm-17.15-24.14c4.53-1.45,10.88-2.25,16.19-2.25l.05,6.8c-4.85-.14-10.24.38-14.77,1.55l-1.46-6.09Zm8-16.22c1.97,1.55,4.44,4.08,5.67,5.91l-3.02,2.72c-.96-1.64-3.84-4.73-5.44-6.05l2.79-2.58Zm6.58-2.67c2.06,1.59,4.39,3.89,5.62,5.86l-2.97,2.72c-1.05-1.59-3.75-4.59-5.44-5.95l2.79-2.62Z"/><path class="cls-12" d="m224.56,97.99c-.05.47-.69.89-1.23.98-1.19,5.02-2.42,13.55-2.42,17.39,0,1.45,0,3.38.09,5.34.69-1.55,1.97-4.31,3.02-6.19l3.89,5.44c-1.19,1.55-3.25,4.88-4.3,7.27-.41.89-.64,1.78-.64,2.86,0,.47.05.98.14,1.55l-6.81,1.08c-1.23-4.27-2.1-10.5-2.1-17.06s1.01-14.58,1.88-19.73l8.51,1.08Zm4.39,9.09c1.92,0,7.27-.09,10.02-.28-.23-5.48-.5-10.31-.78-11.81l8.96.28c-.05.52-.55,1.22-1.42,1.41,0,2.02.09,5.81.23,9.7,2.15-.23,5.31-.66,7.27-1.27l.55,6.98c-2.06.38-4.62.75-7.59.98l.04,2.58c0,9.75-2.47,17.11-10.75,21.98-.96-1.17-4.21-3.94-5.62-4.88,7.82-4.17,9.33-9.66,9.33-16.41l-.05-3c-2.65.19-6.72.28-10.06.28l-.14-6.56Z"/><path class="cls-12" d="m259.28,111.62c.91,0,2.4-.03,3.19-.09,3.75-.24,15.34-.96,20.84-1.26l.09,4.89c-2.81-.06-4.16.21-6.5,1.98-2.66,1.95-6.5,5.76-6.5,8.97s2.98,4.77,8.98,5.34l-2.2,4.56c-8.34-.93-11.71-4.74-11.71-9.84,0-3.39,2.93-7.95,6.85-10.95-3.83.36-9.72.84-11.85,1.11-.06.24-.47.45-.76.51l-.44-5.22Zm19.84,7.71c1.17,1.02,2.63,2.76,3.37,4.02l-2.02,1.62c-.56-1.08-2.28-3.18-3.25-4.08l1.9-1.56Zm3.63-2.7c1.26,1.08,2.66,2.64,3.37,3.96l-1.99,1.62c-.61-1.05-2.22-3.09-3.28-4.02l1.9-1.56Z"/><path class="cls-16" d="m294.91,115.8c-.96,1.36-1.92,2.67-2.93,3.84-.55-1.64-2.06-5.34-2.93-6.98,3.61-4.17,7.32-11.67,9.51-18.89l7.18,2.53c-.18.42-.64.66-1.37.56-1.01,2.77-2.2,5.53-3.43,8.2l1.78.61c-.14.42-.55.84-1.37.94v31.73h-6.45v-22.55Zm32.42-7.55h6.27v6.09h-30.69v-6.09h6.54v-3.56h-5.03v-5.77h5.03v-4.88l7.82.42c-.05.52-.46.84-1.37.98v3.47h4.85v-4.88l7.96.42c-.05.52-.46.84-1.37,1.03v3.42h5.31v5.77h-5.31v3.56Zm-20.44,30.19v-22.03h23.6v21.8h-6.68v-1.31h-10.56v1.55h-6.36Zm16.92-16.55h-10.56v2.2h10.56v-2.2Zm-10.56,9.52h10.56v-2.3h-10.56v2.3Zm2.65-26.72v3.56h4.85v-3.56h-4.85Z"/><path class="cls-16" d="m342.79,121.71c-.87-3.61-1.14-7.97-1.19-10.83,0-3,.32-8.11,1.23-13.64l8.37,1.08c-.14.52-.69.75-1.1.84-.92,3.28-1.74,9.38-1.69,11.86h.05c.82-1.92,2.29-4.31,3.34-5.91.69,1.27,2.24,3.61,3.02,4.55-2.7,3.84-4.66,7.45-4.98,8.58-.14.52-.18.84-.18,1.22s.04.7.09,1.17l-6.95,1.08Zm27.16-25.69c-.05.52-.41.89-1.1,1.12.37,3.52.78,9.52.78,15.75-.04,9.05-2.7,17.72-17.61,24.05-.96-1.45-3.57-4.36-5.03-5.67,12.58-5.02,14.91-12.52,14.91-18.28,0-6.84-.64-13.31-1.14-17.34l9.19.38Z"/><path class="cls-16" d="m389.17,104.79c-.27.52-.55.66-1.19.75-.64,6.33-.96,9.05-1.88,10.36h.05c3.75-2.53,9.83-4.27,13.95-4.27,6.58,0,11.8,3.8,11.8,11.02,0,9.09-6.45,13.73-25.01,14.44-.5-1.69-1.51-4.59-2.56-6.52,14.91-.61,20.03-2.72,20.03-7.78,0-2.77-2.06-4.78-5.53-4.78s-10.84,1.55-14.27,6.94l-6.4-2.81c1.01-.7,2.7-10.12,2.79-18.42l8.23,1.08Zm-1.74-10.27c5.21.47,12.62,1.59,17.56,3.47l-2.24,6.98c-4.53-1.88-12.58-3.33-17.38-3.84l2.06-6.61Z"/><path class="cls-16" d="m421.64,103.29c3.06,0,6.4-.28,8-.47.04-1.59.27-6.75.27-8.16l8.73.52c-.09.47-.41.89-1.28,1.03-.23,1.92-.46,3.89-.64,5.62l2.24.94c-.82,1.22-2.15,3.61-2.97,5.53h.05c4.66-4.41,8.83-6.05,11.89-6.05,4.76,0,7.68,3.33,7.68,9.19,0,.56-.05,1.12-.09,1.69-.27,3.14-.73,7.88-.73,10.55s.05,4.03,1.42,4.03c1.14,0,3.89-1.69,5.49-3.14,0,1.83.37,6.52.55,8.02-2.33,1.5-5.08,2.72-7.36,2.72-5.3,0-7.27-3-7.27-9.23,0-3.61.37-8.48.69-11.62.04-.47.04-.89.04-1.31,0-2.39-.78-3.47-2.24-3.47-2.33,0-6.17,2.2-10.24,6.84v8.25c0,4.55,0,9.23.09,11.72h-6.86v-13.59c-1.28,2.06-4.07,5.3-6.54,7.41l-3.11-6.8c2.93-2.25,7.96-7.5,9.79-11.34.05-.89.05-1.83.09-2.77-2.1.38-4.94.7-7.55.8l-.14-6.89Z"/><path class="cls-16" d="m485.03,112.85c2.33-.94,5.3-1.27,7.5-1.27,6.81,0,11.75,4.36,11.75,11.91,0,8.39-7.09,13.31-17.47,13.31-5.85,0-10.06-2.91-10.06-7.92,0-3.94,3.93-7.17,8.32-7.17,4.71,0,8.42,2.91,9.24,6.84,1.6-.94,2.61-2.77,2.61-4.97,0-3.56-3.02-5.81-7.13-5.81-5.9,0-11.2,2.44-14.54,5.62-.96.94-2.83,2.77-3.98,4.03l-4.94-5.02c2.83-2.77,13.63-13.22,19.71-18.98-2.01.28-9.38.75-12.26.98-.14.38-.78.66-1.19.75l-.55-7.88c5.67,0,19.07-.52,21.95-1.03l.73-.38,4.3,5.67c-.32.28-.91.47-1.46.52-1.97,1.36-8.64,7.31-12.53,10.73v.05Zm.59,17.81c.5,0,1.83-.09,2.15-.14-.27-2.02-1.88-3.19-3.29-3.19-1.1,0-2.1.61-2.1,1.55,0,.8.32,1.78,3.25,1.78Z"/></g><path class="cls-9" d="m259.62,0h0c-21.26,0-38.5,17.24-38.5,38.5h0c0,20.56,16.12,37.36,36.41,38.44l5.63,9.42,1.61-9.71c18.82-2.52,33.35-18.63,33.35-38.15h0c0-21.26-17.24-38.5-38.5-38.5Z"/><g><path class="cls-9" d="m5,166.06c1.92,2.66,3.68,6.2,4.44,8.67l-5.3,2.27c-.6-2.46-2.37-6.24-4.13-8.97l5-1.96Zm14.02-1.04c-.04.42-.34.69-1.13.81v12.63h11.84v22.92h-5.52v-1.42H.19v-5.47h24.02v-2.73H2.48v-5.28h21.72v-2.54H1.09v-5.47h11.16v-13.83l6.76.38Zm1.84,10.21c1.39-2.62,2.93-6.51,3.76-9.59l6.8,2.39c-.19.35-.64.54-1.28.54-1.05,2.81-2.93,6.35-4.4,8.67l-4.89-2Z"/><path class="cls-9" d="m71.7,179.31h-6.5v1.23c0,8.36-2.86,15.17-11.69,19.6-1.05-1.23-2.78-3-4.21-4.08,8.19-3.81,10.11-9.21,10.11-15.48v-1.27h-8.53v8.24h-5.71v-8.24h-6.09v-5.58h6.09v-7.39l6.92.42c-.04.42-.41.92-1.2,1.08v5.89h8.53v-7.9l6.99.39c-.04.46-.41.81-1.2.96v6.55h6.5v5.58Z"/><path class="cls-9" d="m91.31,182.78c-3.04,2.04-7.93,4.78-11.58,6.55-.75-1.31-2.29-3.43-3.46-4.51,9.58-4.27,20.86-12.17,26.5-19.06l5.64,4.24c-.23.31-.64.5-1.28.46-2.93,2.89-6.35,5.85-9.88,8.51l1.35.46c-.11.38-.49.73-1.2.85v19.79h-6.09v-17.29Z"/><path class="cls-9" d="m135.43,188.02c-2.82-1.73-7.55-4.08-11.09-5.54v17.41h-6.13v-34.05l7.33.39c-.04.46-.38.89-1.2,1.04v10.63l1.09-1.54c4.02,1.46,9.58,3.93,13.19,5.89l-3.19,5.78Z"/><path class="cls-9" d="m144.97,179.5h35.03v6.12h-35.03v-6.12Z"/><path class="cls-9" d="m198.78,181.12l.6,4.74-3.68,1.16v8.05c0,4.27-.98,6.08-7.74,6.08-.15-1.5-.83-3.93-1.5-5.47,1.35.08,2.86.08,3.34.08s.68-.19.68-.73v-6.43l-2.86.85c-.08.42-.41.65-.75.73l-1.24-6.12,4.85-1v-6.08h-4.32v-5.12h4.32v-7.2l6.31.27c-.04.42-.3.73-1.09.85v6.08h3.5v5.12h-3.5v4.89l3.08-.73Zm.98-15.02h20.63v23.49h-5.34v-1.39h-2.37v12.98h-5.34v-12.98h-2.52v1.39h-5.07v-23.49Zm7.59,5.08h-2.52v3.39h2.52v-3.39Zm-2.52,11.98h2.52v-3.54h-2.52v3.54Zm10.22-8.59v-3.39h-2.37v3.39h2.37Zm-2.37,8.59h2.37v-3.54h-2.37v3.54Z"/><path class="cls-9" d="m237.75,166.6c-.08.46-.41.81-1.13.92-.34,5.43-.71,13.86-.71,19.49,0,4.54,2.29,6.62,5.94,6.62,3.31,0,7.22-1.77,11.5-5.85.64,1.27,2.41,4.31,3.23,5.31-4.81,4.62-9.62,6.62-14.77,6.62-9.02,0-12.14-4.97-12.14-12.67,0-5.32.23-16.14.49-20.72l7.59.27Z"/><path class="cls-12" d="m282.02,174.81c-.15.35-.64.66-1.2.66-1.65,13.75-5.34,20.03-11.88,20.03-4.55,0-7.59-3.66-7.59-10.48,0-10.13,7.97-17.1,17.4-17.1,10.56,0,16.39,6.16,16.39,14.9s-4.29,13.83-13.94,16.48c-.86-1.43-2.1-3.35-3.68-4.93,8.53-1.73,11.5-5.89,11.5-11.44,0-6.16-4.32-9.59-10.37-9.59-.79,0-1.5.08-2.25.19l5.64,1.27Zm-7.1-.89c-4.81,1.58-7.93,5.93-7.93,10.86,0,2.81.56,4.93,2.14,4.93,3.23,0,5.3-7.55,5.79-15.79Z"/><path class="cls-12" d="m331.58,174.65c-.11.27-.26.54-.53.69-.56,11.98-1.73,18.99-3.16,21.18-1.39,2.16-3.57,3.24-6.16,3.24-1.92,0-3.95-.23-6.35-.69.04-1.58-.19-4.31-.45-5.89,2.07.46,4.66.85,5.64.85,1.05,0,1.84-.31,2.37-1.42.71-1.46,1.62-6.89,1.84-13.52h-7.89c-1.69,7.24-4.47,14.71-11.46,20.72-1.05-1-3.23-2.7-4.7-3.54,6.13-4.89,8.87-11.55,10.07-17.21h-8.57v-5.47h9.62c.34-2.62.34-4.62.49-7.47l7.33.62c-.08.46-.45.81-1.2.92-.23,2.27-.26,3.81-.56,5.97h8.42l1.05-.42,4.21,1.46Z"/><path class="cls-12" d="m340.03,179.47h31.38v5.85h-29.73c-.26.38-.79.65-1.35.73l-.3-6.59Z"/><path class="cls-12" d="m401.85,188.17c-2.82-1.73-7.55-4.08-11.09-5.55v17.25h-6.13v-34.05l7.33.39c-.04.46-.38.89-1.2,1.04v10.78l1.09-1.54c4.02,1.46,9.58,3.93,13.19,5.89l-3.19,5.78Zm-2.59-19.99c1.32,1.12,3.27,3.35,4.47,5.04l-2.56,2.2c-.87-1.35-2.93-3.89-4.32-5.12l2.41-2.12Zm5.22-3.5c1.5,1.35,3.46,3.35,4.47,4.93l-2.56,2.16c-.86-1.31-2.93-3.74-4.32-5.01l2.41-2.08Z"/><path class="cls-12" d="m442.51,170.92v26.23h-5.86v-2.08h-15.78v2.12h-5.71v-26.27h27.36Zm-5.9,18.72v-13.29h-15.78v13.29h15.78Z"/><path class="cls-12" d="m452.01,179.47h31.38v5.85h-29.73c-.26.38-.79.65-1.35.73l-.3-6.59Z"/><path class="cls-12" d="m493.76,168.14c3.72,1.12,8.19,3.2,10.94,4.97l-3.01,5.35c-2.67-1.81-7.14-3.93-10.64-5.24l2.71-5.08Zm-1.8,25.73c12.37-3.85,20.97-11.36,25.26-21.91,1.69,1.39,3.68,2.5,5.37,3.47-4.66,10.48-13.57,18.72-25.86,23.3-.08.42-.34.85-.71,1.04l-4.06-5.89Z"/></g><g><g><rect class="cls-8" x="216.62" y="12" width="83.52" height="53.72" rx="3.86" ry="3.86"/><path class="cls-9" d="m296.27,13c1.57,0,2.86,1.29,2.86,2.86v45.99c0,1.57-1.29,2.86-2.86,2.86h-75.79c-1.57,0-2.86-1.29-2.86-2.86V15.86c0-1.57,1.29-2.86,2.86-2.86h75.79m0-2h-75.79c-2.68,0-4.86,2.18-4.86,4.86v45.99c0,2.68,2.18,4.86,4.86,4.86h75.79c2.68,0,4.86-2.18,4.86-4.86V15.86c0-2.68-2.18-4.86-4.86-4.86h0Z"/></g><g><rect class="cls-17" x="220.5" y="15.98" width="75.93" height="4.01" rx="1.46" ry="1.46"/><rect class="cls-3" x="220.35" y="23.61" width="76.05" height="38.38" rx="1.91" ry="1.91"/><rect class="cls-4" x="220.4" y="31.09" width="48.36" height="4.6"/><rect class="cls-6" x="220.4" y="35.86" width="48.36" height="20.26"/><g><path class="cls-5" d="m270.27,35.06v.84c0,.41.44.41.88.41.62,0,1.04-.04,1.24-.06-.06.12-.09.25-.1.38h-1.31c-.59,0-.76-.13-.89-.3-.04.04-.26.21-.33.26,0,.05,0,.09-.04.09-.02,0-.04-.03-.05-.05l-.17-.33c.12-.05.32-.17.4-.24v-.67h-.33v-.33h.7Zm-.49-1.1c.19.17.31.29.46.45-.08.06-.26.24-.28.26-.04-.06-.22-.31-.43-.48l.25-.23Zm1.69.4h.41v.25h-.41v.11h.67v.92h-.67v.12h.82v.25h-.82v.22h-.33v-.22h-.76v-.25h.76v-.12h-.66v-.92h.66v-.11h-.45v-.25h.45v-.13h-.53v.3h-.31v-.57h1.98v.57h-.31v-.3h-.42s-.04.06-.07.07v.06Zm-.33.58h-.33v.13h.33v-.13Zm0,.33h-.33v.14h.33v-.14Zm.33-.2h.34v-.13h-.34v.13Zm0,.34h.34v-.14h-.34v.14Z"/><path class="cls-5" d="m270.37,40.16h.5v.31h-.5v.46h-.29v-.46h-.52v-.31h.52v-.17h-.46v-1.11h.46v-.16h-.5v-.29h.5v-.27l.31.02s.04,0,.04.04c0,.02-.03.04-.06.06v.15h.5v.29h-.5v.16h.44v1.11h-.44v.17Zm-.28-.85v-.18h-.16v.18h.16Zm-.16.23v.18h.16v-.18h-.16Zm.59-.23v-.18h-.16v.18h.16Zm-.16.23v.18h.16v-.18h-.16Zm1.62.13c.11.23.29.63.41,1.12-.17.04-.3.1-.36.13-.02-.08-.05-.19-.1-.36-.22.08-.63.21-.98.31,0,.05,0,.09-.05.09-.03,0-.04-.03-.05-.05l-.14-.39c.08-.01.12-.02.23-.04.1-.29.21-.68.27-1.05h-.35v-.34h1.42v.34h-.61s-.04.05-.09.07c-.06.24-.19.68-.27.9.08-.02.37-.09.51-.14-.08-.22-.14-.35-.19-.47l.33-.13Zm.21-1.38v.32h-1.23v-.32h1.23Z"/><path class="cls-5" d="m272.1,43.15v1.05h-.65v.47c0,.09.02.14.13.14h.21c.12,0,.15-.07.22-.35.14.12.3.15.35.15-.06.32-.15.54-.43.54h-.51c-.24,0-.35-.08-.35-.31v-.65h-.46l.21.06s.06.02.06.05c0,.03-.02.04-.09.06-.25.64-.83.8-1.11.84-.05-.15-.11-.23-.2-.35.31-.01.6-.15.71-.24.13-.1.22-.27.26-.43h-.59v-.77s-.05.04-.09.06c-.08-.14-.15-.19-.29-.25.39-.23.68-.54.86-.88l.38.06s.05.02.05.05c0,.04-.05.05-.07.05-.04.05-.05.06-.06.08h.91l.13.11c-.05.08-.16.25-.29.43h.71Zm-1.17,0s.11-.16.16-.24h-.7c-.08.09-.14.15-.23.24h.77Zm-.17.72v-.41h-.53v.41h.53Zm.4-.41v.41h.54v-.41h-.54Z"/><path class="cls-5" d="m270.73,47.17v.27h-1.15v-.27h1.15Zm-.75,2.12v.15h-.33v-1.05h1.01v1.02h-.33v-.12h-.35Zm.59-2.52v.26h-.87v-.26h.87Zm1.14,1.25h.61v.34h-.61v1.07h-.38v-1.07h-.62v-.34h.62v-.62h-.15c-.15.34-.24.46-.29.53-.1-.1-.26-.18-.31-.19v.11h-.86v-.27h.86v.13c.18-.19.4-.61.47-1.06l.38.09s.06.02.06.04c0,.04-.07.04-.09.05-.02.06-.07.21-.08.25h.93v.32h-.52v.62Zm-1.15-.04v.27h-.86v-.27h.86Zm-.23,1.01v-.3h-.35v.3h.35Z"/><path class="cls-5" d="m270.7,51.42v.28h-1.15v-.28h1.15Zm-.72,2.12v.16h-.33v-1.06h.99v1.03h-.32v-.12h-.34Zm.59-2.51v.27h-.87v-.27h.87Zm0,.8v.27h-.87v-.27h.87Zm0,.39v.28h-.87v-.28h.87Zm-.25,1.01v-.31h-.34v.31h.34Zm2.01.03v.33h-1.62v-.33h.14v-1.58l.37.02s.06.01.06.05c0,.03-.02.04-.08.06v1.46h.18v-1.93h-.65v-.32h1.56v.32h-.55v.68h.5v.34h-.5v.9h.6Z"/></g><g><rect class="cls-14" x="273.16" y="27.68" width="23.12" height="28.44"/><g class="cls-2"><g><polygon class="cls-10" points="282.92 48.79 282.89 50.18 284.68 52.47 286.48 50.28 286.48 48.75 282.92 48.79"/><path class="cls-10" d="m294.34,42.17c-.15,1.23-1.4,2.1-2.79,1.94-1.39-.16-2.4-1.29-2.24-2.52.15-1.23,1.4-2.1,2.79-1.94,1.39.16,2.4,1.29,2.24,2.52Z"/><path class="cls-10" d="m279.88,41.86c-.15,1.23-1.4,2.1-2.79,1.94-1.39-.16-2.39-1.29-2.24-2.52.15-1.23,1.4-2.1,2.79-1.94,1.39.16,2.4,1.29,2.24,2.52Z"/><path class="cls-10" d="m285.01,32.01s-6.44.14-7.79,4.75c-.9,3.07-1.04,6.36.91,9.33,1.27,1.93,4.15,3.61,6.94,3.43,2.7-.18,4.49-1.51,5.67-2.73,2.19-2.24,2.85-5.81,1.99-8.7-.9-3.03-3.18-6.11-7.73-6.07Z"/><path class="cls-7" d="m290.3,44.74c0,.55-.45.99-1.02.99-.56,0-1.02-.44-1.02-.99,0-.55.45-.99,1.02-1,.56,0,1.02.44,1.02.99Z"/><path class="cls-7" d="m281.31,44.78c0,.55-.45.99-1.02.99-.56,0-1.02-.44-1.02-.99,0-.55.45-.99,1.02-1,.56,0,1.02.44,1.02.99Z"/><path class="cls-1" d="m286.68,39.89s.15-.56.98-.64c.75-.08,1.25.5,1.25.5"/><path class="cls-15" d="m286.48,50.17s2.18.38,3.26.72c3.2,1.01,3.25,4.29,3.25,4.29l.16,4.38-17-.02.08-4.95s.22-2.86,3.9-4.05c1.5-.49,2.76-.37,2.76-.37l1.77,2.03,1.81-2.03Z"/><path class="cls-18" d="m284.52,47.06c-.96,0-1.63-.58-1.64-.58-.07-.06-.07-.16-.01-.22.06-.07.16-.07.22-.01.06.05,1.4,1.2,3.01-.13.07-.06.17-.05.22.02.06.07.05.17-.02.22-.64.53-1.26.71-1.79.71Z"/><path class="cls-18" d="m284.49,44.21c-.37,0-.68-.3-.68-.68s.3-.68.68-.68c.06,0,.11.05.11.11s-.05.11-.11.11c-.25,0-.46.2-.46.46s.2.46.46.46c.06,0,.11.05.11.11s-.05.11-.11.11Z"/><path class="cls-18" d="m286.74,40.05s-.02,0-.03,0c-.07-.02-.11-.08-.09-.15,0-.03.16-.62,1.03-.73.77-.09,1.29.47,1.31.5.05.05.04.13,0,.17-.05.05-.13.04-.17,0,0,0-.45-.49-1.1-.42-.69.08-.81.52-.82.54-.01.06-.06.09-.12.09Z"/><polygon class="cls-13" points="286.48 50.17 284.66 52.2 287 53.02 286.48 50.17"/><polygon class="cls-13" points="282.89 50.18 284.66 52.2 282.16 53.07 282.89 50.18"/><path class="cls-18" d="m282.3,40.1c-.05,0-.1-.03-.12-.08,0-.02-.16-.42-.86-.49-.64-.06-1.06.48-1.06.48-.04.05-.12.07-.17.02s-.07-.12-.03-.17c.02-.03.5-.66,1.28-.58.87.09,1.06.63,1.07.66.02.06-.01.13-.08.16-.01,0-.03,0-.04,0Z"/><path class="cls-18" d="m280.91,38.51c4.36-1.26,5.46-4.19,5.46-4.19.97,3.43,6.87,5.83,6.87,5.82,1.92-7.86-5.21-8.75-5.21-8.75,0,0-1.99-2.41-6.28-1.07-7.08,2.21-5.84,8.37-5.75,9.24,0,.01.39.26,4.91-1.04Z"/><path class="cls-18" d="m282.01,41.74c0,.53-.37.95-.83.95s-.83-.43-.83-.95.37-.95.83-.95.83.43.83.95Z"/><path class="cls-18" d="m288.64,41.74c0,.53-.37.95-.83.95s-.83-.43-.83-.95.37-.95.83-.95.83.43.83.95Z"/><path class="cls-13" d="m285.18,53.86c0,.31-.26.57-.57.57s-.57-.26-.57-.57.26-.57.57-.57.57.26.57.57Z"/><path class="cls-11" d="m278.66,37.09s-.05,0-.05,0c-.08,0-.15-.07-.15-.16s.07-.16.16-.15c.03,0,2.79.06,5.69-2.91.06-.06.15-.06.21,0,.06.06.06.15,0,.21-2.81,2.88-5.45,3-5.86,3Z"/><path class="cls-11" d="m280.04,35.34c-.08,0-.14-.06-.15-.14,0-.08.05-.16.14-.16.02,0,1.58-.16,2.63-1.61.05-.07.14-.08.21-.03.07.05.08.14.03.21-1.13,1.57-2.78,1.73-2.85,1.73,0,0,0,0-.01,0Z"/></g></g></g></g></g></g><rect class="cls-9" x="10.12" y="65.5" width="195" height="2"/><rect class="cls-9" x="311.12" y="65.5" width="195" height="2"/></g></g></svg>