<?xml version="1.0" encoding="UTF-8"?><svg id="Layer_2" xmlns="http://www.w3.org/2000/svg" viewBox="0 0 197.5 275.4"><defs><style>.cls-1{fill:#e8a421;}.cls-2{fill:#fff;}.cls-3{fill:#231916;}</style></defs><g id="_ÉåÉCÉÑÅ__1"><g><path class="cls-2" d="M26.86,114.51c-.77-3.91-1.47-8-2.02-12.14,22.16-10.63,40.65-30.49,43.97-55.93,.75-5.67,22.04-8.29,24.3-3.26,11.42,25.45,30.75,35.6,52.88,35.79v.03c1,4.57,2.06,9.35,3.02,13.99,1.82,8.77,3.3,17.06,3.44,22.49,.03,1.34,.05,2.67,.03,4-.24,28.19-10.89,53.76-32.92,65.09-4.69,2.42-9.9,4.19-15.63,5.2-8.74,1.54-17.13,1.06-24.93-1.09-21.35-5.89-38.26-24.31-45.78-48.15-.4-1.26-.78-2.54-1.12-3.83-1.49-5.55-3.53-13.43-5.24-22.19Z"/><path class="cls-2" d="M103.93,189.77c5.73-1.01,10.94-2.78,15.63-5.2l.37,.7c-.22,8.52,3.85,13.97,3.85,13.97l.6,.53c-6.27,9.92-21.97,30.05-24.58,30.03-2.63-.01-18.49-20.63-24.58-30.52l.07-.04s3.01-4.02,3.71-10.56c7.8,2.15,16.19,2.63,24.93,1.09Z"/><path class="cls-2" d="M33.22,140.53l-.68,.21c-7.38,1.3-14.26-.93-17.29-11.62-1.69-5.94-.53-11.39,2.52-14,2.13-1.82,5.18-2.27,8.83-.56l.26-.05c1.71,8.76,3.75,16.64,5.24,22.19,.34,1.29,.72,2.57,1.12,3.83Z"/><path class="cls-2" d="M165.4,102.64c.81,11.08-4.9,15.54-12.27,16.84h-.65c.02-1.33,0-2.66-.03-4-.14-5.43-1.62-13.72-3.44-22.49l.74-.15c2.51-2.51,5.15-3.3,7.53-2.78,4.22,.92,7.63,5.91,8.12,12.58Z"/><path class="cls-1" d="M99.8,229.8c2.61,.02,18.31-20.11,24.58-30.03,.65-1.02,1.2-1.94,1.62-2.71,20.61,.11,43.81,14.41,52.74,29.68,9.27,15.87,13.66,33.03,15.76,45.66H4.46c2.25-12.68,7.56-33.44,16.25-46.5,9.84-14.79,32.44-29.23,53.06-29.12,.38,.72,.87,1.56,1.45,2.5,6.09,9.89,21.95,30.51,24.58,30.52Z"/><path class="cls-3" d="M24.84,102.37c.55,4.14,1.25,8.23,2.02,12.14l-.26,.05c-3.65-1.71-6.7-1.26-8.83,.56-3.04,1.26-8.83,2.65-16.27-.39C21.33,92.34-.01,72.74,9.08,44.69,20.64,9.07,55.39-4.96,81.61,14.87c8.53-18.29,43.31-19.23,57.44,6.11,16.03,28.73,5.22,43.5,32.96,61.36,0,0-5.28,7.91-14.73,7.72-2.38-.52-5.02,.27-7.53,2.78l-.74,.15c-.96-4.64-2.02-9.42-3.02-13.99v-.03c-22.13-.19-41.46-10.34-52.88-35.79-2.26-5.03-23.55-2.41-24.3,3.26-3.32,25.44-21.81,45.3-43.97,55.93Z"/><path class="cls-3" d="M73.16,111.94c-3.73,.66-5.05-6.87-1.33-7.53,3.73-.66,5.06,6.87,1.33,7.53Z"/><path class="cls-3" d="M126.52,101.22c-3.73,.66-5.06-6.87-1.33-7.53,3.73-.66,5.06,6.87,1.33,7.53Z"/><path class="cls-3" d="M18.57,108.08c-1.2,0-2.33-.72-2.79-1.91-.6-1.54,.16-3.28,1.7-3.89,20.89-8.17,44.57-27.24,48.36-56.25,.74-5.66,9.67-7.57,13.47-8.13,3.24-.48,14-1.59,16.53,4.03,10.91,24.32,29.82,35.71,56.2,33.84,1.65-.14,3.09,1.13,3.2,2.78,.12,1.65-1.13,3.09-2.78,3.2-28.69,2.04-50.16-10.86-62.05-37.27-.73-.65-4.48-1.51-10.24-.65-5.12,.75-7.95,2.34-8.39,3.07-3.49,26.4-23.45,49.75-52.11,60.96-.36,.14-.73,.21-1.09,.21Z"/><path class="cls-3" d="M10.38,118.06c-2.74,0-5.92-.51-9.45-1.95-.45-.18-.78-.57-.89-1.05s.02-.97,.34-1.34c10.76-12.15,8.89-23.28,6.72-36.16-1.64-9.76-3.5-20.83,.56-33.34C13.82,25.22,26.63,11.4,42.81,6.31c13.11-4.13,26.64-1.88,38.28,6.31C85.39,5.18,94.3,.4,104.82,.02c11.5-.41,26.88,4.68,35.55,20.22,6.23,11.16,8.45,20.19,10.42,28.16,3.14,12.75,5.41,21.96,22.04,32.66,.34,.22,.58,.56,.66,.96s0,.8-.22,1.14c-.24,.36-5.97,8.78-16.35,8.39-.83-.03-1.47-.73-1.44-1.56,.03-.83,.75-1.47,1.56-1.44,6.5,.26,10.94-3.8,12.79-5.88-16.38-10.99-18.84-20.99-21.94-33.56-1.92-7.79-4.09-16.61-10.12-27.42C129.73,7.34,115.55,2.62,104.92,3.02c-10.12,.37-18.54,5.15-21.95,12.48-.19,.41-.56,.71-1,.82-.44,.11-.9,.01-1.27-.26-11.16-8.44-24.29-10.88-37-6.89C28.47,13.97,16.37,27.08,10.51,45.15c-3.83,11.81-2.11,22.03-.45,31.92,2.11,12.52,4.1,24.38-6.02,36.98,9.17,2.88,15.14-1.34,15.21-1.39,.67-.49,1.61-.34,2.1,.33,.49,.67,.34,1.61-.33,2.1-.23,.17-4.2,2.98-10.62,2.98Z"/><path class="cls-3" d="M77.56,54.52c-1.43,0-2.69-1.02-2.95-2.48l-1.64-9.29c-.29-1.63,.8-3.19,2.43-3.47,1.63-.29,3.19,.8,3.47,2.43l1.64,9.29c.29,1.63-.8,3.19-2.43,3.47-.18,.03-.35,.05-.52,.05Z"/><path class="cls-3" d="M86,53.74c-1.55,0-2.86-1.19-2.99-2.76l-.83-10.15c-.13-1.65,1.09-3.1,2.75-3.23,1.66-.14,3.1,1.1,3.23,2.75l.83,10.15c.13,1.65-1.09,3.1-2.75,3.23-.08,0-.17,0-.25,0Z"/><path class="cls-3" d="M75.29,202.23c-.62,0-1.25-.19-1.79-.6-1.32-.99-1.6-2.86-.62-4.19,.06-.08,2.54-3.58,3.14-9.1,.18-1.65,1.66-2.84,3.31-2.66,1.65,.18,2.84,1.66,2.66,3.31-.79,7.27-4.15,11.84-4.29,12.03-.59,.79-1.49,1.2-2.41,1.2Z"/><g><path class="cls-3" d="M93.64,193.68c-13.17,0-25.7-4.36-36.72-12.85-13.11-10.12-22.96-25.51-27.72-43.35-1.62-6.07-5.42-20.29-7.33-34.71-.22-1.64,.94-3.15,2.58-3.37,1.63-.22,3.15,.94,3.37,2.58,1.87,14.04,5.59,28,7.18,33.96,4.42,16.58,13.51,30.83,25.59,40.15,12.62,9.74,27.43,13.45,42.82,10.74,23.04-4.06,47.24-24.92,46.04-71.26-.2-7.78-3.35-22.11-6.13-34.75l-.25-1.16c-.36-1.62,.67-3.22,2.29-3.57,1.62-.36,3.22,.67,3.57,2.29l.26,1.16c2.84,12.91,6.05,27.53,6.27,35.89,.5,19.17-3.52,36.44-11.62,49.94-8.96,14.95-22.58,24.42-39.38,27.38-3.64,.64-7.25,.96-10.81,.96Z"/><path class="cls-3" d="M153.13,122.48c-1.43,0-2.69-1.02-2.95-2.48-.29-1.63,.8-3.19,2.43-3.48,7.27-1.28,10.38-5.62,9.79-13.66-.34-4.7-2.5-8.7-5.24-9.72-1.69-.63-3.47-.02-5.3,1.81-1.17,1.17-3.07,1.17-4.24,0-1.17-1.17-1.17-3.07,0-4.24,3.48-3.48,7.72-4.65,11.63-3.19,5.02,1.87,8.61,7.72,9.13,14.9,.81,11.08-4.42,18.19-14.74,20.01-.18,.03-.35,.05-.53,.05Z"/><path class="cls-3" d="M28.99,144.07c-8.18,0-14.01-4.9-16.63-14.13-1.96-6.94-.6-13.66,3.49-17.13,3.18-2.71,7.56-3.06,12.02-.98,1.5,.7,2.15,2.49,1.45,3.99-.7,1.5-2.49,2.15-3.99,1.45-2.34-1.09-4.22-1.05-5.59,.11-2.23,1.89-2.89,6.38-1.6,10.92,2.2,7.75,6.61,10.77,13.88,9.49,1.63-.29,3.19,.8,3.47,2.43,.29,1.63-.8,3.19-2.43,3.47-1.41,.25-2.77,.37-4.06,.37Z"/><path class="cls-3" d="M123.77,202.23c-.91,0-1.81-.41-2.4-1.2-.19-.26-4.69-6.39-4.45-15.84,.04-1.63,1.38-2.92,3-2.92,.03,0,.05,0,.08,0,1.66,.04,2.96,1.42,2.92,3.08-.19,7.29,3.23,12.07,3.27,12.11,.97,1.33,.69,3.21-.64,4.19-.54,.4-1.16,.59-1.78,.59Z"/><path class="cls-3" d="M4.47,275.4c-.17,0-.35-.02-.53-.05-1.63-.29-2.72-1.85-2.43-3.48,1.27-7.2,6.25-31.92,16.7-47.64,9.99-15.01,33.37-30.46,55.32-30.46,.08,0,.17,0,.25,0,1.1,0,2.12,.62,2.63,1.59,3.93,7.4,18.74,26.83,23.4,30.95,4.69-4.06,19.4-23.11,23.54-30.7,.53-.96,1.54-1.56,2.63-1.56h.02c20.52,.11,45.33,14.09,55.31,31.17,9.67,16.55,14.11,34.52,16.13,46.68,.27,1.63-.83,3.18-2.47,3.45-1.63,.28-3.18-.83-3.45-2.47-1.94-11.66-6.18-28.87-15.39-44.64-7.68-13.15-28.72-27.27-48.45-28.15-2.65,4.38-7.74,11.53-13.05,18.28-11.35,14.44-13.37,14.43-14.86,14.42-1.48,0-3.51-.02-14.8-14.57-4.55-5.87-10.04-13.49-12.96-18.43-19.49,.68-39.94,14.41-48.82,27.76-7.8,11.72-13.27,31.11-15.79,45.36-.26,1.46-1.52,2.48-2.95,2.48Z"/></g><g><path class="cls-3" d="M60.9,128.37c-4.1,0-7.81-1.19-10.88-3.53-3.58-2.73-6.01-6.81-6.84-11.5s.06-9.35,2.49-13.14c2.75-4.27,7.21-7.07,12.92-8.07,9.23-1.63,19.66,2.89,21.73,14.67,2.08,11.78-6.18,19.58-15.41,21.21h0c-1.38,.24-2.72,.36-4.02,.36Zm1.7-33.6c-1.1,0-2.27,.1-3.49,.32-4.86,.86-8.63,3.19-10.92,6.74-2.03,3.15-2.76,7.06-2.06,11,.69,3.94,2.72,7.36,5.7,9.63,3.36,2.56,7.7,3.46,12.56,2.6h0c10.73-1.89,14.25-10.52,12.97-17.74-1.13-6.4-6.17-12.55-14.77-12.55Z"/><path class="cls-3" d="M114.51,118.94c-8.15,0-16.27-4.75-18.07-14.98-.83-4.68,.06-9.35,2.49-13.14,2.75-4.27,7.21-7.07,12.92-8.07,7.19-1.26,13.45,.79,17.66,5.8,4.25,5.07,5.54,12.37,3.28,18.58-2.24,6.14-7.42,10.22-14.6,11.49-1.21,.21-2.44,.32-3.67,.32Zm1.35-33.56c-1.1,0-2.27,.1-3.49,.32-4.86,.86-8.63,3.19-10.92,6.74-2.03,3.15-2.76,7.06-2.06,11,.69,3.94,2.72,7.36,5.7,9.63,3.36,2.56,7.71,3.46,12.56,2.6h0c10.73-1.89,14.25-10.52,12.97-17.74-1.13-6.4-6.17-12.55-14.77-12.55Z"/><path class="cls-3" d="M94.58,133.07c-.16,0-.31-.02-.47-.08l-10.79-3.55c-.39-.13-.72-.42-.89-.79s-.18-.81-.03-1.19l6.6-16.23c.31-.77,1.19-1.14,1.95-.83,.77,.31,1.14,1.19,.83,1.95l-5.99,14.75,9.27,3.05c.79,.26,1.21,1.11,.96,1.89-.21,.63-.79,1.03-1.42,1.03Z"/><path class="cls-3" d="M76.2,101.88c-.71,0-1.35-.51-1.48-1.24-.14-.82,.4-1.59,1.22-1.74l21.93-3.87c.81-.14,1.59,.4,1.74,1.22,.14,.82-.4,1.59-1.22,1.74l-21.93,3.87c-.09,.02-.18,.02-.26,.02Z"/><path class="cls-3" d="M148.14,92.66h-.01l-18.67-.17c-.83,0-1.49-.69-1.49-1.51,0-.82,.68-1.49,1.5-1.49h.01l18.67,.17c.83,0,1.49,.69,1.49,1.51,0,.82-.68,1.49-1.5,1.49Z"/><path class="cls-3" d="M26.64,115.04c-.61,0-1.18-.37-1.4-.97-.29-.78,.1-1.64,.88-1.93l17.49-6.55c.78-.29,1.64,.1,1.93,.88,.29,.78-.1,1.64-.88,1.93l-17.49,6.55c-.17,.07-.35,.1-.53,.1Z"/><path class="cls-3" d="M88.24,156.54c-.68,0-1.29-.46-1.46-1.15-.19-.8,.3-1.62,1.11-1.81l19.78-4.75c.8-.19,1.62,.3,1.81,1.11,.19,.8-.3,1.62-1.11,1.81l-19.78,4.75c-.12,.03-.24,.04-.35,.04Z"/><g><g><path class="cls-1" d="M92.44,238.13c2.14,1.12,4.29,2.36,6.38,3.71l-9.76,30.55H43.32l21.6-44.23s3.64,.72,9.06,2.41c5.09,1.59,11.76,4.04,18.46,7.56Z"/><path class="cls-2" d="M98.56,176.29c3.94,2.2,4.4,7.36-.06,9.13,5.5,1.48,6.15,7.59,1.58,8.18l-.05,.21c.25,.05,.48,.11,.7,.17,5.28,1.43,5.54,7.94,2.45,9.08,.33,.12,.62,.26,.85,.39,1.43,.83,1.05,5.17,1.56,9.56,.68,5.7-7.05,6.59-7.69,1.88h-.16c.22,2.38,.24,5.14-.54,7.41h0l-4.77,15.83c-6.7-3.52-13.37-5.97-18.46-7.56,0,0-7.06-11.54-8.94-16.35-1.31-3.38-4.93-12.4-4.54-16.2,.42-4.09,3.13-7.43,5.19-10.89,3.87-6.53,11.87-17.07,18-16.53,1.91,.17,13,4.64,14.87,5.69Z"/></g><g><path class="cls-3" d="M73.98,232.07c-.5,0-1-.25-1.28-.72-.29-.48-7.16-11.71-9.06-16.59l-.17-.43c-2.41-6.16-4.83-12.94-4.47-16.47,.37-3.59,2.25-6.54,4.07-9.39,.45-.71,.9-1.41,1.33-2.12,1.79-3.01,11.15-17.99,19.42-17.25,2.33,.21,13.72,4.9,15.47,5.87,2.52,1.41,4.05,3.98,3.88,6.55-.16,2.38-1.66,4.31-4.13,5.29-.77,.31-1.64-.07-1.95-.84-.31-.77,.07-1.64,.84-1.95,1.37-.54,2.16-1.5,2.24-2.7,.09-1.42-.83-2.89-2.35-3.73-2.03-1.13-12.82-5.38-14.28-5.5-4.5-.39-11.73,7.65-16.57,15.8-.44,.74-.91,1.47-1.38,2.21-1.71,2.67-3.32,5.19-3.62,8.08-.33,3.28,3.02,11.85,4.28,15.07l.17,.43c1.81,4.63,8.75,16,8.83,16.11,.43,.71,.21,1.63-.5,2.06-.24,.15-.51,.22-.78,.22Z"/><path class="cls-3" d="M92.44,228.15c-.69,0-1.32-.48-1.47-1.19-.17-.81,.35-1.61,1.16-1.78,4.74-1,4.61-6.87,3.76-13.06-.07-.52-.13-.97-.17-1.35-.09-.82,.51-1.56,1.33-1.65,.83-.09,1.56,.51,1.65,1.33,.04,.35,.1,.78,.16,1.26,.6,4.4,2,14.7-6.12,16.41-.1,.02-.21,.03-.31,.03Z"/><path class="cls-3" d="M100.08,195.11c-.74,0-1.39-.55-1.49-1.31-.11-.82,.47-1.57,1.29-1.68,1.07-.14,1.66-.67,1.72-1.55,.09-1.35-1.09-3.05-3.51-3.7-2.73-.73-12.55-1.87-12.65-1.88-.82-.1-1.41-.84-1.32-1.66,.1-.82,.84-1.41,1.66-1.32,.41,.05,10.14,1.18,13.08,1.96,3.98,1.07,5.89,4.23,5.72,6.8-.15,2.3-1.85,4-4.32,4.32-.07,0-.13,.01-.2,.01Z"/><path class="cls-3" d="M103.18,204.57c-.61,0-1.19-.38-1.41-.99-.28-.78,.12-1.64,.9-1.92,.65-.24,1.06-1.14,1.01-2.24-.06-1.44-.97-3.34-3.33-3.98-3.69-.99-12.18-1.98-12.26-1.99-.82-.1-1.41-.84-1.32-1.66,.1-.82,.85-1.41,1.66-1.32,.36,.04,8.8,1.03,12.7,2.08,3.93,1.06,5.44,4.29,5.55,6.75,.11,2.45-1.06,4.49-2.98,5.19-.17,.06-.34,.09-.51,.09Z"/><path class="cls-3" d="M101.48,219.43c-2.33,0-4.67-1.4-5.07-4.33-.11-.82,.46-1.58,1.28-1.69,.82-.11,1.58,.46,1.69,1.28,.2,1.47,1.44,1.84,2.45,1.72,1.21-.15,2.53-1.09,2.28-3.21-.17-1.41-.24-2.81-.31-4.06-.09-1.64-.21-3.88-.57-4.41-1.74-.95-7.63-1.97-10.97-2.4-.82-.11-1.4-.86-1.3-1.68,.1-.82,.86-1.41,1.68-1.3,.96,.12,9.44,1.25,12.15,2.82,1.69,.97,1.82,3.42,2.01,6.81,.07,1.26,.14,2.56,.29,3.87,.45,3.83-2.11,6.19-4.88,6.54-.24,.03-.49,.05-.73,.05Zm1.81-14.67h0Z"/><path class="cls-3" d="M89.07,273.9c-.15,0-.3-.02-.46-.07-.79-.25-1.22-1.1-.97-1.88l9.41-29.45c-12.8-7.98-27.22-11.67-31.29-12.61l-21.08,43.17c-.36,.74-1.26,1.05-2.01,.69-.74-.36-1.05-1.26-.69-2.01l21.6-44.23c.3-.61,.97-.95,1.64-.81,.76,.15,18.72,3.76,34.43,13.89,.57,.37,.82,1.07,.62,1.72l-9.76,30.55c-.2,.64-.79,1.04-1.43,1.04Z"/><path class="cls-3" d="M92.45,239.63c-.14,0-.29-.02-.43-.06-.79-.24-1.24-1.08-1-1.87l4.76-15.83c.24-.79,1.08-1.24,1.87-1,.79,.24,1.24,1.08,1,1.87l-4.76,15.83c-.2,.65-.79,1.07-1.44,1.07Z"/></g></g></g></g></g></svg>