<?xml version="1.0" encoding="UTF-8"?><svg id="Layer_2" xmlns="http://www.w3.org/2000/svg" viewBox="0 0 561.76 130.84"><defs><style>.cls-1{fill:#fff;}.cls-2{fill:#ffc952;}.cls-3{fill:#3fa9f5;}.cls-4{fill:#5f4826;}</style></defs><g id="PC"><g><g><g><path class="cls-3" d="m65.07,93.57c-1.8.5-3.8.92-6.09,1.19-.04,1.5-.08,2.93-.08,4.28,2.37-.65,4.81-1.04,6.58-1.04,6.05,0,11.12,3.04,11.12,9.63,0,5.82-3.08,9.94-9.85,9.94-2.48,0-4.85-1-6.84-3.27.94-1.23,2.03-3.08,2.78-4.51,1.17,1.42,2.59,2.35,4.13,2.35,2.59,0,3.98-1.85,3.98-4.51s-1.99-4.62-5.49-4.62c-1.88,0-4.21.38-6.43,1.04v7.2c0,3.58-2.25,6.89-7.33,6.89-3.16,0-7.29-1.73-7.29-6.86,0-3.2,2.48-7.16,9.17-10.21v-5.85c-2.37.12-5.04.15-7.97.15l-.11-5.58c3.01,0,5.67-.04,8.08-.12v-6.24l6.95.15c0,.42-.38.85-.98.92-.11,1.5-.19,3.04-.26,4.62,1.88-.31,3.65-.73,5.26-1.35l.64,5.78Zm-11.61,12.83c-1.69,1.12-3.98,2.66-3.98,4.78,0,1.35.71,2.04,1.92,2.04,1.35,0,2.1-.69,2.1-2.23,0-.89,0-2.73-.04-4.58Zm21.08-9.51c-2.1-1.93-5.41-3.77-8.42-4.93l2.78-4.81c3.27,1.04,6.65,2.89,8.79,4.74l-3.16,5.01Z"/><path class="cls-3" d="m84.49,88.37c2.25-.08,5.64-.08,8.61-.15,1.69-.08,4.06-.15,6.39-.23,0-.04-.08-3.24-.23-5.12l7.33.35c-.04.31-.45.77-1.05.89-.04.54,0,3.16,0,3.77,5.07-.15,10.03-.27,11.73-.31v5.47c-1.2-.04-2.93-.08-4.92-.08s-4.32.04-6.73.12c.04,1.04.19,5.78.19,6.35.6,1.73.6,3.77.6,4.58,0,2.08-.26,4.27-.98,5.7-1.8,3.74-5.3,7.32-10.52,9.21-.98-1.39-2.93-3.47-4.29-4.58,3.27-1.08,6.28-2.54,7.78-4.31-.3.08-.9.12-1.17.12-3.34,0-6.88-2.7-6.88-7.12-.04-4.54,3.61-7.59,7.48-7.59.64,0,1.24.08,1.92.27,0-.35-.08-2.12-.08-2.5-3.34.08-13.94.46-15.03.5l-.15-5.31Zm15.97,14.44c0-1.62-.56-2.89-2.37-2.89-1.35.04-2.59,1-2.63,3,0,1.62,1.24,2.77,2.52,2.77,1.58,0,2.48-1.19,2.48-2.89Z"/><path class="cls-3" d="m123.2,88.37c2.25-.08,5.64-.08,8.61-.15,1.69-.08,4.06-.15,6.39-.23,0-.04-.08-3.24-.23-5.12l7.33.35c-.04.31-.45.77-1.05.89-.04.54,0,3.16,0,3.77,5.07-.15,10.03-.27,11.73-.31v5.47c-1.2-.04-2.93-.08-4.92-.08s-4.32.04-6.73.12c.04,1.04.19,5.78.19,6.35.6,1.73.6,3.77.6,4.58,0,2.08-.26,4.27-.98,5.7-1.8,3.74-5.3,7.32-10.52,9.21-.98-1.39-2.93-3.47-4.29-4.58,3.27-1.08,6.28-2.54,7.78-4.31-.3.08-.9.12-1.17.12-3.34,0-6.88-2.7-6.88-7.12-.04-4.54,3.61-7.59,7.48-7.59.64,0,1.24.08,1.92.27,0-.35-.08-2.12-.08-2.5-3.34.08-13.94.46-15.03.5l-.15-5.31Zm15.97,14.44c0-1.62-.56-2.89-2.37-2.89-1.35.04-2.59,1-2.63,3,0,1.62,1.24,2.77,2.52,2.77,1.58,0,2.48-1.19,2.48-2.89Z"/><path class="cls-3" d="m189.26,85.14c-.15.42-.49.58-.9.62-.45,2.35-1.09,4.81-1.65,6.89,4.92,1.77,8.42,5.85,8.42,12.36,0,6.93-4.32,11.28-13.57,12.9-.75-1.62-1.8-3.66-2.71-5.01,6.46-1.08,10.37-3.08,10.37-7.74,0-3.39-1.69-5.82-4.21-7.12-1.58,4.27-3.38,7.78-5.37,10.48.34.38.75.73,1.13,1.08l-3.87,4.08c-.38-.35-.75-.69-1.13-1.12-2.37,1.89-4.89,2.81-7.37,2.81-4.17,0-6.76-3.39-6.76-7.97,0-.38,0-.73.04-1.12.49-5.24,3.01-8.78,6.28-11.09-.71-2.85-1.28-5.85-1.73-8.9l6.58-.23c-.04.35-.26.77-.79.92.19,1.93.49,3.85.83,5.78,2.22-.96,4.62-1.31,7.03-1.31.38,0,.71,0,.98.04.53-2.39.94-5.16,1.24-8.01l7.18,1.66Zm-16.57,23.11c-1.24-2.2-2.29-4.74-3.2-7.55-2.41,2.46-2.63,5.58-2.63,6.24,0,1.77.87,3,2.11,3,1.39,0,2.63-.77,3.72-1.69Zm3.65-4.51c1.09-1.85,2.14-4.16,3.08-6.93-.23-.04-.53-.08-.79-.08-1.62,0-3.23.35-4.62,1.12.6,2.08,1.35,4.08,2.33,5.89Z"/><path class="cls-4" d="m230.97,92.49c-.11.27-.26.54-.53.69-.56,11.98-1.73,18.99-3.16,21.18-1.39,2.16-3.57,3.24-6.16,3.24-1.92,0-3.95-.23-6.35-.69.04-1.58-.19-4.31-.45-5.89,2.07.46,4.66.85,5.64.85,1.05,0,1.84-.31,2.37-1.42.71-1.46,1.62-6.89,1.84-13.52h-7.89c-1.69,7.24-4.47,14.71-11.46,20.72-1.05-1-3.23-2.7-4.7-3.54,6.13-4.89,8.87-11.55,10.07-17.21h-8.57v-5.47h9.62c.34-2.62.34-4.62.49-7.47l7.33.62c-.08.46-.45.81-1.2.92-.23,2.27-.26,3.81-.56,5.97h8.42l1.05-.42,4.21,1.46Z"/><path class="cls-4" d="m239.42,97.31h31.38v5.85h-29.73c-.26.38-.79.65-1.35.73l-.3-6.59Z"/><path class="cls-4" d="m301.24,106.01c-2.82-1.73-7.55-4.08-11.09-5.55v17.25h-6.13v-34.05l7.33.39c-.04.46-.38.89-1.2,1.04v10.78l1.09-1.54c4.02,1.46,9.58,3.93,13.19,5.89l-3.19,5.78Zm-2.59-19.99c1.32,1.12,3.27,3.35,4.47,5.04l-2.56,2.2c-.87-1.35-2.93-3.89-4.32-5.12l2.41-2.12Zm5.22-3.5c1.5,1.35,3.46,3.35,4.47,4.93l-2.56,2.16c-.86-1.31-2.93-3.74-4.32-5.01l2.41-2.08Z"/><path class="cls-4" d="m341.9,88.76v26.23h-5.86v-2.08h-15.78v2.12h-5.71v-26.27h27.36Zm-5.9,18.72v-13.29h-15.78v13.29h15.78Z"/><path class="cls-4" d="m351.4,97.31h31.38v5.85h-29.73c-.26.38-.79.65-1.35.73l-.3-6.59Z"/><path class="cls-4" d="m393.15,85.99c3.72,1.12,8.19,3.2,10.94,4.97l-3.01,5.35c-2.67-1.81-7.14-3.93-10.64-5.24l2.71-5.08Zm-1.8,25.73c12.37-3.85,20.97-11.36,25.26-21.91,1.69,1.39,3.68,2.5,5.37,3.47-4.66,10.48-13.57,18.72-25.86,23.3-.08.42-.34.85-.71,1.04l-4.06-5.89Z"/></g><path class="cls-2" d="m470.38,112.07c0,11.74-6.23,18.77-18.68,18.77-11.07,0-18.37-5.68-18.37-17.74h9c0,5.1,2.64,8.64,9,8.64,5.91,0,9.69-3.42,9.69-9.61,0-7.09-4.34-9.42-9.94-9.42-3.4,0-5.85.9-7.3,2.52h-9.18v-30.06h33.22v9.61h-23.28v10.06c1.57-1.1,4.78-1.55,7.61-1.55,11.26,0,18.25,6.84,18.25,18.77Z"/><path class="cls-4" d="m511.34,107.77c2.37,1.16,4.89,2.54,6.43,3.54l-5.11,1.81c2.14-.08,4.17-.19,5.86-.35-.56,1.23-1.35,3.66-1.62,5.2-3.01.15-7.22.27-11.16.27-9.4,0-13.49,0-16.72-4.35-1.32,1.46-2.71,2.81-3.87,3.93,0,.46-.15.69-.53.85l-2.59-5.58c1.28-.89,2.74-1.96,4.1-3.12v-7.66h-3.5v-5.16h8.57v12.36c.9,1.77,2.41,2.81,4.47,3.31-.94-.92-2.25-2.08-3.2-2.73,2.07-.54,4.21-1.42,5.75-2.31h-6.09v-4.04h5.75v-1.73h-4.43v-4h4.43v-1.93l6.2.35c-.04.42-.34.65-1.09.77v.81h3.34v-1.93l6.28.35c-.04.42-.34.65-1.09.81v.77h4.62v4h-4.62v1.73h6.01v4.04h-6.2Zm-24.88-24.73c1.84,1.85,4.1,4.43,5.04,6.32l-4.66,3.12c-.79-1.85-2.89-4.66-4.7-6.66l4.32-2.77Zm12.21,4.7v-1.08h-6.2v-3.43h10.75v7.97h-1.24c.83.5,2.29,1,3.38,1.23-.04-.31-.04-.69-.04-1.08v-3.62h5.98v-1.04h-6.61v-3.47h11.24v7.97h-1.58c.86.54,2.44,1.04,3.53,1.27-.45,2.7-1.58,3.47-4.17,3.47h-3.61c-3.12,0-4.36-.73-4.66-3-.53,2.31-1.65,3-4.1,3h-3.61c-3.76,0-4.77-1.04-4.77-4.58v-3.62h5.71Zm2.37,20.03l3.53,1.42c-.15.27-.53.42-1.01.35-1.69,1.16-4.36,2.5-6.84,3.47,1.95.27,5.19.27,7.85.27,2.33,0,4.89-.04,7.33-.12-1.43-1.12-3.87-2.73-6.16-3.89l2.67-1.5h-7.37Zm-3.65-16.56c0,.46.04.77.15.92.15.15.41.19.9.19h2.37c.64,0,.86-.19.98-1.12h-4.4Zm5.6,10.78v1.73h3.34v-1.73h-3.34Zm10.18-9.67c.64,0,.86-.19.98-1.12h-4.4c0,.46.04.77.15.92.15.15.41.19.9.19h2.37Z"/></g><g><g><path class="cls-3" d="m166.81,43.09c-.09.42-.55.8-1.33.89-1.55,6.28-3.52,11.39-16.19,14.39-.59-1.78-2.29-4.59-3.66-6.05,11.02-1.92,12.21-5.25,12.94-10.17l8.23.94Zm9.74,6.84c0,1.59.18,1.78,1.6,1.78h3.34c1.28,0,1.55-.8,1.74-5.67,1.37,1.12,4.3,2.25,6.13,2.67-.69,7.31-2.42,9.33-7.22,9.33h-5.08c-6.04,0-7.45-2.06-7.45-8.02v-8.25h-18.8v-11.34l-.55.33c-.91-1.64-3.02-4.22-4.48-5.34,6.17-3.33,10.24-7.83,12.53-12.05l8.05,1.55c-.14.52-.59.84-1.33.84l-.46.7h7.96l1.01-.33,5.4,3.19c-.23.38-.64.66-1.19.75-.82,1.36-2.01,3.09-3.34,4.88h11.34v16.83h-9.19v8.16Zm-19.07-18.98v4.83h7v-4.83h-7Zm8.96-6c.73-.94,1.46-1.97,2.1-3h-8c-.87,1.03-1.83,2.02-2.84,3h8.73Zm12.21,10.83v-4.83h-7.73v4.83h7.73Z"/><path class="cls-3" d="m215.56,21.43v5.3h-19.16v-5.3h19.16Zm-1.97,19.78v14.62h-9.38v1.64h-5.72v-16.27h15.09Zm-14.91-13.08h15.04v5.06h-15.04v-5.06Zm0,11.53v-5.06h15.04v5.06h-15.04Zm15.09-24.66v5.06h-14.82v-5.06h14.82Zm-5.99,31.5h-3.57v3.98h3.57v-3.98Zm32.1-11.06v6.47h-8.69v16.27h-6.72v-16.27h-9.1v-6.47h9.1v-9.38h-1.42c-1.14,3.14-2.47,6-3.93,8.2-1.28-1.08-3.84-2.72-5.4-3.52,2.7-3.89,4.85-10.83,5.9-17.3l7.55,1.83c-.14.42-.59.7-1.28.7-.27,1.27-.59,2.58-.92,3.89h13.58v6.19h-7.36v9.38h8.69Z"/><path class="cls-3" d="m246.71,26.92v-5.3h17.33v5.3h-17.33Zm16.05,15v14.62h-8.46v1.64h-5.53v-16.27h13.99Zm-.41-13.41v5.06h-13.4v-5.06h13.4Zm-13.4,11.72v-5.06h13.4v5.06h-13.4Zm13.45-25.22v5.06h-13.17v-5.06h13.17Zm-5.26,32.2h-2.83v3.98h2.83v-3.98Zm24.65,2.95h8.41v6.42h-25.93v-6.42h2.47v-21.56l7.45.42c-.05.47-.41.8-1.28.94v20.2h2.33v-27.94h-9.83v-6.42h23.87v6.42h-7.5v10.12h7.22v6.42h-7.22v11.39Z"/><path class="cls-4" d="m324.96,27.06c-3.25,1.08-7.59,1.78-11.8,2.16-1.74,9.38-4.57,20.02-7.64,27.75l-7.23-2.58c3.57-7.36,6.17-15.89,7.64-24.8-.64.05-3.7.05-4.48.05-.96,0-1.88,0-2.61-.05l-.14-6.75c1.46.09,3.84.14,5.99.14.69,0,1.42-.05,2.15-.05.32-2.58.59-5.77.78-8.44l8.78.75c-.09.56-.55,1.03-1.28,1.17-.18,1.55-.55,4.08-.82,5.81,3.25-.47,6.58-1.17,9.37-2.25l1.28,7.08Zm12.21,29.02c-1.55.09-3.16.14-4.8.14-3.52,0-7.04-.23-9.33-.75-4.48-.98-6.54-4.03-6.49-7.45.05-2.3,1.05-4.83,2.93-6.98l5.95,2.16c-1.33,1.31-1.97,2.58-1.97,3.61,0,2.06,1.88,2.53,7.36,2.53,2.15,0,4.44-.14,6.26-.33l.09,7.08Zm-17.15-24.14c4.53-1.45,10.88-2.25,16.19-2.25l.05,6.8c-4.85-.14-10.24.38-14.77,1.55l-1.46-6.09Zm8-16.22c1.97,1.55,4.44,4.08,5.67,5.91l-3.02,2.72c-.96-1.64-3.84-4.73-5.44-6.05l2.79-2.58Zm6.58-2.67c2.06,1.59,4.39,3.89,5.62,5.86l-2.97,2.72c-1.05-1.59-3.75-4.59-5.44-5.95l2.79-2.62Z"/><path class="cls-4" d="m356.84,17.96c-.05.47-.69.89-1.23.98-1.19,5.02-2.42,13.55-2.42,17.39,0,1.45,0,3.38.09,5.34.69-1.55,1.97-4.31,3.02-6.19l3.89,5.44c-1.19,1.55-3.25,4.88-4.3,7.27-.41.89-.64,1.78-.64,2.86,0,.47.05.98.14,1.55l-6.81,1.08c-1.23-4.27-2.1-10.5-2.1-17.06s1.01-14.58,1.88-19.73l8.51,1.08Zm4.39,9.09c1.92,0,7.27-.09,10.02-.28-.23-5.48-.5-10.31-.78-11.81l8.96.28c-.05.52-.55,1.22-1.42,1.41,0,2.02.09,5.81.23,9.7,2.15-.23,5.31-.66,7.27-1.27l.55,6.98c-2.06.38-4.62.75-7.59.98l.04,2.58c0,9.75-2.47,17.11-10.75,21.98-.96-1.17-4.21-3.94-5.62-4.88,7.82-4.17,9.33-9.66,9.33-16.41l-.05-3c-2.65.19-6.72.28-10.06.28l-.14-6.56Z"/><path class="cls-4" d="m391.56,31.59c.91,0,2.4-.03,3.19-.09,3.75-.24,15.34-.96,20.84-1.26l.09,4.89c-2.81-.06-4.16.21-6.5,1.98-2.66,1.95-6.5,5.76-6.5,8.97s2.98,4.77,8.98,5.34l-2.2,4.56c-8.34-.93-11.71-4.74-11.71-9.84,0-3.39,2.93-7.95,6.85-10.95-3.83.36-9.72.84-11.85,1.11-.06.24-.47.45-.76.51l-.44-5.22Zm19.84,7.71c1.17,1.02,2.63,2.76,3.37,4.02l-2.02,1.62c-.56-1.08-2.28-3.18-3.25-4.08l1.9-1.56Zm3.63-2.7c1.26,1.08,2.66,2.64,3.37,3.96l-1.99,1.62c-.61-1.05-2.22-3.09-3.28-4.02l1.9-1.56Z"/></g><path class="cls-4" d="m510.86,29.51c-.09.3-.41.6-.88.69-.15.93-.44,2.37-.59,3.09,1.73-.12,4.6-.63,6.53-1.32l.53,4.29c-2.43.57-5.21,1.02-7.84,1.23-1.32,5.34-3.01,9.9-5.38,14.13l-4.45-1.56c2.34-3.69,4.21-8.16,5.09-12.48h-4.68v-4.08h5.39c.23-1.38.44-2.97.53-4.41l5.77.42Zm7.35,13.2c0,1.53.06,3.27.21,4.83,1.43.63,4.01,1.86,5.41,2.85l-2.05,4.26c-.85-.75-2.49-1.74-3.39-2.31-.03.78-.5,4.2-6.12,4.2-2.43,0-5.94-1.23-5.94-5.1.06-3.12,2.99-5.07,5.97-5.07.59,0,1.17.03,1.79.09-.06-.81-.06-2.16-.06-3.24l4.18-.51Zm-3.89,7.68c-.58-.27-1.58-.39-2.14-.39-1.26,0-2.08.66-2.11,1.44,0,.84.82,1.44,2.19,1.44,1.23,0,2.05-.72,2.05-1.74v-.75Zm9.1-9.39c-3.13.06-6.79.39-10.13,1.11l-.58-3.93c3.34-.81,7.23-1.44,10.45-1.44l.26,4.26Z"/><path class="cls-2" d="m132.75,22.2c3.56,17.03-14.51,35.21-43.97,41.36-29.46,6.15-46.44-4.71-50-21.74-3.56-17.03,7.66-33.78,37.12-39.93,29.46-6.15,53.3,3.28,56.85,20.31Z"/><g><path class="cls-3" d="m442.4,11.25c7.3,0,13.17,6.07,13.17,13.55v19.45c0,7.43-5.86,13.5-13.17,13.5h-5.17c-7.25,0-13.17-6.07-13.17-13.5v-19.45c0-7.49,5.92-13.55,13.17-13.55h5.17Zm5.01,13.99c0-3.22-1.97-5.9-5.07-5.9h-5.06c-3.09,0-5.07,2.68-5.07,5.9v18.52c0,3.22,1.97,5.9,5.07,5.9h5.06c3.09,0,5.07-2.68,5.07-5.9v-18.52Z"/><path class="cls-3" d="m478.97,34.2l8.53,11.8c2.88,3.99,5.76,7.92,8.58,11.75h-8.85l-13.65-18.36h-.37v18.36h-8.58V11.25h8.58v18.36h.37l13.65-18.36h8.8l-17.06,22.95Z"/></g><path class="cls-3" d="m133.76,32.01c0,17.4-21.4,31.5-51.5,31.5s-44.5-14.1-44.5-31.5S52.16.51,82.26.51s51.5,14.1,51.5,31.5Z"/><g><path class="cls-1" d="m67.84,32.92l2.05.76c-.07.21-.16.28-.28.42-.51,1.99-1.34,3.71-2.44,5.13,1.11.66,2.35,1.16,3.78,1.49-.69.61-1.57,1.87-1.98,2.67-1.5-.45-2.81-1.11-3.97-1.94-.99.8-2.1,1.47-3.34,1.99-.35-.73-1.06-1.84-1.66-2.51v2.48h-3.21v-1.91c-2.28.26-4.47.52-6.02.66-.05.24-.23.35-.42.38l-.9-3.21c.55-.02,1.2-.05,1.91-.09v-6.76h-1.94v-2.69h21.28v2.69h-10.72v8.27c.99-.35,1.91-.85,2.72-1.46-.76-.95-1.38-2.01-1.91-3.19l1.75-.5h-2.14v-2.58h6.89l.53-.09Zm-.18-11.2v7.47h-15.15v-7.47h15.15Zm-10.86,10.75h-2.38v.57h2.38v-.57Zm-2.38,2.88v.64h2.38v-.64h-2.38Zm0,3.71l2.38-.17v-.59h-2.38v.76Zm9.87-14.63v-.57h-8.58v.57h8.58Zm0,2.6v-.59h-8.58v.59h8.58Zm-.67,8.56c.3.59.69,1.13,1.13,1.65.39-.52.71-1.06,1.01-1.65h-2.14Z"/><path class="cls-1" d="m80.73,35.8v.21c.71.4,2.65,1.73,3.16,2.1l-1.87,2.43c-.32-.38-.81-.88-1.29-1.37v4.23h-3.25v-3.64c-.74.95-1.52,1.77-2.31,2.41-.51-.73-1.48-1.84-2.17-2.41,1.45-.92,2.95-2.43,3.97-3.97h-3.3v-2.86h3.8v-1.37h-4.06v-2.79h2.01c-.14-.76-.39-1.58-.67-2.27l1.45-.45h-2.33v-2.77h3.6v-2.34l3.92.21c-.02.26-.21.43-.67.5v1.63h3.44v2.77h-1.89l1.75.45c-.07.19-.28.28-.65.31-.23.59-.58,1.3-.92,1.96h2.19v2.79h-3.3c-.09.14-.28.26-.62.31v1.06h3.55v2.86h-3.55Zm-1.13-7.02c.3-.8.62-1.84.83-2.72h-3c.39.9.69,1.94.81,2.72h1.36Zm15.63-.07v3.17h-2.01v11.53h-3.25v-11.53h-1.66c-.07,3.47-.62,8.46-3.55,11.61-.41-.76-1.61-1.94-2.37-2.34,2.51-2.84,2.74-6.78,2.74-9.93v-8.11l1.57.45c1.98-.71,4.01-1.68,5.26-2.58l3.09,2.43c-.16.17-.44.17-.71.17-1.57.85-3.83,1.75-6.02,2.41v2.72h6.92Z"/><path class="cls-1" d="m101.79,29.98c0,.99,0,1.54-.02,2.25h4.29v10.28h-2.95v-7.33h-1.48c-.21,2.86-.62,5.91-1.45,8.18-.69-.33-2.08-.8-2.88-1.02,1.34-3.4,1.54-8.89,1.54-12.1v-8.58l3.6.19c-.02.26-.21.4-.65.47v4.7h1.18v-6.05l3.6.21c-.02.24-.21.38-.65.45v5.39h1.61v2.95h-5.74Zm15.33-2.01l1.96.66c-.05.21-.14.35-.25.5-.42,3.33-1.2,6.26-2.42,8.75.95,1.13,2.05,2.08,3.34,2.77-.74.64-1.75,1.91-2.26,2.79-1.13-.69-2.1-1.56-2.97-2.55-.76.97-1.61,1.8-2.58,2.53-.46-.83-1.41-2.08-2.12-2.74-.25.95-.58,1.84-.97,2.65-.6-.52-1.98-1.35-2.77-1.63,1.8-3.62,1.91-9,1.91-12.74v-7h11.25v3.1h-8.16v3.03h5.49l.55-.09Zm-6.23,6.17c-.18,2.17-.51,4.44-1.06,6.48,1.01-.66,1.91-1.58,2.67-2.69-.62-1.16-1.13-2.43-1.59-3.78h-.02Zm.12-2.17l2.17-.52c.3,1.06.67,2.1,1.13,3.07.39-1.06.74-2.2.99-3.36h-4.24l-.05.8Z"/></g></g><g><path class="cls-2" d="m21.9,33.81c-5.68-1.79-6.95-3.25-8.52-9.74-1.57,6.49-2.84,7.95-8.52,9.74,5.68,1.79,6.95,3.25,8.52,9.74,1.57-6.49,2.84-7.95,8.52-9.74Z"/><path class="cls-2" d="m14.29,19.55c0,.58-.41,1.04-.91,1.04s-.91-.47-.91-1.04.41-1.04.91-1.04.91.47.91,1.04Z"/><path class="cls-2" d="m14.29,48.07c0,.58-.41,1.04-.91,1.04s-.91-.47-.91-1.04.41-1.04.91-1.04.91.47.91,1.04Z"/><path class="cls-2" d="m1.82,34.34c0,.58-.41,1.04-.91,1.04s-.91-.47-.91-1.04.41-1.04.91-1.04.91.47.91,1.04Z"/><path class="cls-2" d="m26.76,33.81c0,.58-.41,1.04-.91,1.04s-.91-.47-.91-1.04.41-1.04.91-1.04.91.47.91,1.04Z"/></g><g><path class="cls-2" d="m556.9,96.81c-5.68-1.79-6.95-3.25-8.52-9.74-1.57,6.49-2.84,7.95-8.52,9.74,5.68,1.79,6.95,3.25,8.52,9.74,1.57-6.49,2.84-7.95,8.52-9.74Z"/><path class="cls-2" d="m549.29,82.55c0,.58-.41,1.04-.91,1.04s-.91-.47-.91-1.04.41-1.04.91-1.04.91.47.91,1.04Z"/><path class="cls-2" d="m549.29,111.07c0,.58-.41,1.04-.91,1.04s-.91-.47-.91-1.04.41-1.04.91-1.04.91.47.91,1.04Z"/><path class="cls-2" d="m536.82,97.34c0,.58-.41,1.04-.91,1.04s-.91-.47-.91-1.04.41-1.04.91-1.04.91.47.91,1.04Z"/><path class="cls-2" d="m561.76,96.81c0,.58-.41,1.04-.91,1.04s-.91-.47-.91-1.04.41-1.04.91-1.04.91.47.91,1.04Z"/></g></g></g></svg>