<?xml version="1.0" encoding="UTF-8"?><svg id="Layer_2" xmlns="http://www.w3.org/2000/svg" viewBox="0 0 42.14 54.63"><defs><style>.cls-1{fill:#fff;}</style></defs><g id="PC"><path class="cls-1" d="m21.6,0c8.58,0,15.41,7.12,15.41,15.92v22.85c0,2.57-.63,5.01-1.63,7.13l6.76,8.73h-9.14l-2.38-3.02c-2.5,1.86-5.64,3.02-9.02,3.02h-6.14c-8.52,0-15.47-7.13-15.47-15.86V15.92C0,7.12,6.95,0,15.47,0h6.14Zm5.82,35.63v-19.19c0-3.79-2.32-6.93-5.89-6.93h-6.01c-3.63,0-5.95,3.15-5.95,6.93v21.76c0,3.79,2.32,6.93,5.95,6.93h6.01c1.25,0,2.32-.38,3.19-1.03l-10.58-13.54h9.39l3.88,5.07Z"/></g></svg>